<svg xmlns="http://www.w3.org/2000/svg" viewBox="0 0 566.93 85.04"><defs><style>.cls-1{fill:#00467d;}.cls-2{fill:#fff;}</style></defs><title>Asset 1</title><g id="Layer_2" data-name="Layer 2"><g id="Layer_1-2" data-name="Layer 1"><rect class="cls-1" width="566.93" height="85.04"/><path class="cls-2" d="M191.93,26.66,179.8,58.38h6.44L188,53.3h11.62l1.78,5.08h6.44L195.73,26.66ZM190,47.54l3.79-10.82,3.79,10.82Z"/><path class="cls-2" d="M229.05,28a15.66,15.66,0,0,0-6.77-1.33h-10.5V58.38h10.47a15.18,15.18,0,0,0,6.9-1.42,9.62,9.62,0,0,0,4.22-4,12.15,12.15,0,0,0,1.41-6V38a12.18,12.18,0,0,0-1.47-6.16A9.41,9.41,0,0,0,229.05,28Zm-.47,19.2a5.06,5.06,0,0,1-1.61,4,6.68,6.68,0,0,1-4.56,1.42h-4.65V32.42h4.65A6.68,6.68,0,0,1,227,33.84a5.06,5.06,0,0,1,1.61,4Z"/><path class="cls-2" d="M257.56,41.24a27.13,27.13,0,0,0-5-1.43l-.25-.05-.25,0-.17,0-.18,0a31.22,31.22,0,0,1-3.25-.79,4.58,4.58,0,0,1-1.94-1.16,3,3,0,0,1-.79-2.17v0A2.84,2.84,0,0,1,247.21,33a8.32,8.32,0,0,1,4.25-.9,11.48,11.48,0,0,1,3.83.7,16,16,0,0,1,3.83,2l2.53-5.06a19.17,19.17,0,0,0-6.71-2.92,15.56,15.56,0,0,0-3.48-.4,15.75,15.75,0,0,0-6.32,1.15,8.64,8.64,0,0,0-4,3.33,9.68,9.68,0,0,0-1.37,5.25v0a8.61,8.61,0,0,0,1.46,5.36,7.77,7.77,0,0,0,3.56,2.64,29,29,0,0,0,5.28,1.25l.48.07.12,0,.12,0a21.68,21.68,0,0,1,3,.64,4.22,4.22,0,0,1,1.88,1.09,2.74,2.74,0,0,1,.72,2v0A3.13,3.13,0,0,1,254.74,52a8.72,8.72,0,0,1-4.54,1,15,15,0,0,1-4.93-.82A13.34,13.34,0,0,1,241,49.85l-2.77,4.93a15.61,15.61,0,0,0,3.41,2.13,19.14,19.14,0,0,0,4.08,1.34,21.86,21.86,0,0,0,4.44.46,16.85,16.85,0,0,0,6.53-1.14,8.86,8.86,0,0,0,4.14-3.29,9.28,9.28,0,0,0,1.41-5.19V49A8.52,8.52,0,0,0,260.93,44,7.83,7.83,0,0,0,257.56,41.24Z"/><polygon class="cls-2" points="297.1 39.77 285.71 39.77 285.71 26.66 279.73 26.66 279.73 58.38 285.71 58.38 285.71 45.53 297.1 45.53 297.1 58.38 303.08 58.38 303.08 26.66 297.1 26.66 297.1 39.77"/><polygon class="cls-2" points="312.22 26.66 310.06 26.66 310.06 58.38 312.22 58.38 316.03 58.38 331.3 58.38 331.3 52.62 316.03 52.62 316.03 45.51 328.9 45.51 328.9 39.75 316.03 39.75 316.03 32.42 331.3 32.42 331.3 26.66 316.03 26.66 312.22 26.66"/><path class="cls-2" d="M355.24,44.44a8,8,0,0,0,3.09-3.33,10.81,10.81,0,0,0,1.09-5,10.88,10.88,0,0,0-1.09-5,8,8,0,0,0-3.07-3.32,8.84,8.84,0,0,0-4.61-1.18H336.76V58.38h6V45.62h3.63l7.15,12.76h7.24L353.17,45.3A8.22,8.22,0,0,0,355.24,44.44Zm-12.51-12h7.44a2.89,2.89,0,0,1,1.64.46,3,3,0,0,1,1.08,1.3,4.87,4.87,0,0,1,.38,2,5,5,0,0,1-.4,2,3.06,3.06,0,0,1-1.08,1.31,2.87,2.87,0,0,1-1.62.46h-7.44Z"/><polygon class="cls-2" points="387.13 32.42 387.13 26.66 371.86 26.66 368.04 26.66 365.88 26.66 365.88 58.38 368.04 58.38 371.86 58.38 387.13 58.38 387.13 52.62 371.86 52.62 371.86 45.51 384.73 45.51 384.73 39.75 371.86 39.75 371.86 32.42 387.13 32.42"/></g></g></svg>