<svg xmlns="http://www.w3.org/2000/svg" viewBox="0 0 800 400"><defs><style>.cls-1{fill:#fff;}</style></defs><title>dummypic_white</title><g id="Layer_2" data-name="Layer 2"><g id="Layer_1-2" data-name="Layer 1"><path class="cls-1" d="M0,0V400H800V0ZM790,390H10V10H790Z"/><path class="cls-1" d="M192,307.75q-3,0-3-3.1V259.08q0-3.1,3-3.1t2.95,3.1v45.57Q194.91,307.76,192,307.75Z"/><path class="cls-1" d="M210.39,307.75c-1.83,0-2.74-1-2.74-2.88v-46c0-1.92.91-2.88,2.74-2.88a3.24,3.24,0,0,1,1.84.47,4.37,4.37,0,0,1,1.26,1.55l18.64,35.13L250.71,258a4.43,4.43,0,0,1,1.22-1.55,3.22,3.22,0,0,1,1.88-.47c1.77,0,2.66,1,2.66,2.88v46c0,1.92-.91,2.88-2.74,2.88s-2.73-1-2.73-2.88v-37.3l-16.27,30.6a3.9,3.9,0,0,1-1,1.33,3.16,3.16,0,0,1-3.13,0,3.54,3.54,0,0,1-1-1.3l-16.49-30.53v37.23C213.05,306.79,212.16,307.75,210.39,307.75Z"/><path class="cls-1" d="M268,307.75a2.52,2.52,0,0,1-2.38-1.15,3.1,3.1,0,0,1,.15-2.88l19.8-45.08c.76-1.77,1.94-2.66,3.52-2.66a3.48,3.48,0,0,1,2,.61,4.25,4.25,0,0,1,1.48,2.05l19.87,45.08a3.29,3.29,0,0,1,.22,2.88,2.34,2.34,0,0,1-2.3,1.15,3,3,0,0,1-2.09-.69,4.85,4.85,0,0,1-1.3-2l-4.68-10.8H275.84l-4.61,10.8Q270.07,307.75,268,307.75Zm21-44.35-11,25.92h22.17l-11-25.92Z"/><path class="cls-1" d="M343.88,307.89q-12.24,0-18.65-6.91t-6.41-19.08A31.12,31.12,0,0,1,321.7,268a21,21,0,0,1,8.28-9,25.33,25.33,0,0,1,13-3.16,30.78,30.78,0,0,1,8.79,1.26,21.28,21.28,0,0,1,7.56,4,2.59,2.59,0,0,1,1.15,1.77,2.94,2.94,0,0,1-.4,1.94A2.55,2.55,0,0,1,358.6,266a2.39,2.39,0,0,1-2.05-.43,19.68,19.68,0,0,0-6.27-3.35,24.15,24.15,0,0,0-7.34-1q-8.64,0-13.25,5.44t-4.61,15.3q0,10.08,4.76,15.41T344,302.64a33.5,33.5,0,0,0,11.74-2.09V285.5h-10.3c-1.73,0-2.59-.79-2.59-2.38s.86-2.3,2.59-2.3h12.89a2.23,2.23,0,0,1,2.52,2.52v18.79a2.76,2.76,0,0,1-1.59,2.88,34.35,34.35,0,0,1-7.23,2.09A44,44,0,0,1,343.88,307.89Z"/><path class="cls-1" d="M376.2,307.24q-3.24,0-3.24-3.24V259.72q0-3.24,3.24-3.24H403a2.2,2.2,0,0,1,2.52,2.45,2.23,2.23,0,0,1-2.52,2.52H378.72V279h22.76a2.2,2.2,0,0,1,2.52,2.45,2.23,2.23,0,0,1-2.52,2.52H378.72v18.29H403a2.19,2.19,0,0,1,2.52,2.44,2.23,2.23,0,0,1-2.52,2.52Z"/><path class="cls-1" d="M436.47,307.75q-3,0-3-3.1V259.08q0-3.1,3-3.1t2.95,3.1V279h30.46V259.08q0-3.1,2.95-3.1t2.95,3.1v45.57q0,3.11-2.95,3.1t-2.95-3.1V284.06H439.42v20.59Q439.42,307.76,436.47,307.75Z"/><path class="cls-1" d="M491.55,307.24q-3.24,0-3.24-3.24V259.72q0-3.24,3.24-3.24h26.78a2.2,2.2,0,0,1,2.52,2.45,2.23,2.23,0,0,1-2.52,2.52H494.07V279h22.75a2.2,2.2,0,0,1,2.52,2.45,2.23,2.23,0,0,1-2.52,2.52H494.07v18.29h24.26a2.19,2.19,0,0,1,2.52,2.44,2.23,2.23,0,0,1-2.52,2.52Z"/><path class="cls-1" d="M533.23,307.75c-2,0-3-1-3-3.1V259.51a2.68,2.68,0,0,1,3-3h17.06q8.21,0,12.56,3.82t4.36,10.87a13.73,13.73,0,0,1-3.06,9.22,14.54,14.54,0,0,1-8.68,4.68q3.32,1.15,5.69,5.61l6.91,12.89a3.36,3.36,0,0,1,.29,2.85,2.18,2.18,0,0,1-2.3,1.33,3.51,3.51,0,0,1-2-.54,4.34,4.34,0,0,1-1.37-1.69L554.91,291a9.21,9.21,0,0,0-3.82-4.14,13.27,13.27,0,0,0-5.69-1h-9.21v18.86Q536.19,307.76,533.23,307.75Zm3-26.64h13.32q11.94,0,12-9.94t-12-9.79H536.19Z"/><path class="cls-1" d="M581.69,307.24q-3.24,0-3.24-3.24V259.72q0-3.24,3.24-3.24h26.78a2.2,2.2,0,0,1,2.52,2.45,2.23,2.23,0,0,1-2.52,2.52H584.21V279H607a2.2,2.2,0,0,1,2.52,2.45A2.23,2.23,0,0,1,607,284H584.21v18.29h24.26a2.19,2.19,0,0,1,2.52,2.44,2.23,2.23,0,0,1-2.52,2.52Z"/><path class="cls-1" d="M471.44,139.68c-.11-.33-10.48-30.15-47-27.16a47.47,47.47,0,0,1,11.79-11.75l5.89-4.11-6.79-2.35c-.34-.12-33.69-11.2-50.83,17.45-8.9-2.92-34.86-8.91-50.49,14l-3.24,4.76,5.68.91a118.14,118.14,0,0,1,15.13,3.64c-11.14,5.61-28.38,19-24.53,47l.75,5.49,4.75-2.85c.19-.12,15.39-9.22,25.69-14.7-.82,9.94-.42,27.73,11.29,36.46l3.68,2.74,1.85-4.2c3.28-7.44,11.3-24.5,18.14-35.6.8,29-3.12,76.13-3.17,76.66l-.33,4h33.06v-3.66c0-40.36-6.43-66.82-11.17-80.82a305.69,305.69,0,0,1,30.51,19.27l4.53,3.3,1.19-5.48c.23-1,4.75-22.84-8.78-38.54,9.35-.6,22.2-1,28.12.29l6.3,1.4Zm-69.06,22a134.38,134.38,0,0,1,5.46,16.81h-7.19c0-6.15-.13-11.89-.47-16.81Zm8.8,32.16H400.39c.11-3.53.18-7.05.23-10.48H409Q410.15,188.16,411.18,193.84Zm-11.65,20.22H414q.56,5.56.92,11.69h-16C399.08,222.12,399.31,218.19,399.53,214.06Zm.25-4.88c.17-3.43.32-6.94.45-10.47H412q.78,4.93,1.43,10.47Zm-2.12,33.55c.22-2.84.53-7,.87-12.1h16.6q.25,5.81.32,12.1Zm32.39-105.25-9.67.93,7.88,5.68c12.17,8.76,13.43,23.21,13.07,31.22a318,318,0,0,0-34.44-20.56l-.77-.39H395.7l-1.06,1c-7.67,7.3-19.26,31.44-24.07,41.87-8.37-11.21-4.26-32.62-4.21-32.86l1.39-7-6.48,2.93c-6.53,2.95-20,10.78-27.42,15.12-.65-27.11,23.16-35.3,28.22-36.73a4,4,0,0,0,.51-7.26,96.29,96.29,0,0,0-18.88-6.05c15.13-15.66,38.07-7,40.84-5.87a4.41,4.41,0,0,0,5.07-1.94c9.7-18.47,26.78-19.2,36.36-17.91-8.51,7.91-11.56,15.75-11.71,16.15l-2.3,6.09,6.4-1.2c26.14-4.93,38.42,7.83,43.34,15.67C449.22,135.68,431,137.39,430.05,137.48Z"/></g></g></svg>