<svg xmlns="http://www.w3.org/2000/svg" viewBox="0 0 566.93 85.04"><defs><style>.cls-1{fill:#00467d;}.cls-2{fill:#ffcc80;}.cls-3,.cls-4{fill:#fff;}.cls-4{opacity:0.2;}</style></defs><title>ads_cav01_id</title><g id="Layer_2" data-name="Layer 2"><g id="Layer_2-2" data-name="Layer 2"><rect class="cls-1" width="566.93" height="85.04"/><path class="cls-2" d="M63.38,34.23a1.3,1.3,0,0,0-1.11-1.93,5,5,0,0,0-1.53.32,18.74,18.74,0,0,0-2.8-.12,1.42,1.42,0,0,0-.71.23.77.77,0,0,0-1.2.44,2.36,2.36,0,0,0,.84,2.27c.49.43,1.65.79,1.91,1.41s1.11,1.28,1.83.75A8.41,8.41,0,0,0,63.38,34.23Z"/><path class="cls-2" d="M101,35a1.07,1.07,0,0,0-1.67-.3.79.79,0,0,1-.23.14,1.51,1.51,0,0,0-2.32.31,1,1,0,0,0,.36,1.35l.07,0a.85.85,0,0,0,.71.36H98a3,3,0,0,0,1.42,0,1,1,0,0,0,.88.15.88.88,0,0,0,.59.09,1.13,1.13,0,0,0,.74-1.55A1.1,1.1,0,0,0,101,35Z"/><path class="cls-2" d="M58.23,66.36c-1.69.16-3.14,1.68-4.21,3a1.44,1.44,0,0,0-.37-.21c-.71-.28-1.07.69-.67,1.15.11.14.1.66.14.84a2.38,2.38,0,0,0,.43,1,2.43,2.43,0,0,0,2.06.9,5.32,5.32,0,0,0,2.62-1.32l.68-.47c1,.4,2-.76,1.64-1.8A2.27,2.27,0,0,0,58.23,66.36Z"/><path class="cls-2" d="M32.65,57.87c-.11-.73-1.07-.54-1.29,0-.08.22-.17.44-.24.67a1.23,1.23,0,0,0-1,1.16c0,.2,0,.42,0,.63a14.84,14.84,0,0,1-.69,3.84c-.41,1.34,1.44,2,2.14,1a5.39,5.39,0,0,0,.58.59,1.17,1.17,0,0,0,1.83-1.42A12.37,12.37,0,0,1,32.64,61,10.46,10.46,0,0,0,32.65,57.87Z"/><path class="cls-2" d="M31.38,75.69a1.29,1.29,0,0,0,1.5.2c.88-.64,1.92-1.71,1.63-2.9a1.2,1.2,0,0,0-1.76-.71,2.11,2.11,0,0,0-.22.17c-.07-.09-.13-.19-.21-.28a.91.91,0,0,0-.79-.32,1.19,1.19,0,0,0-1.14.17A1.22,1.22,0,0,0,30,73.26,4,4,0,0,0,31.38,75.69Z"/><path class="cls-2" d="M89.5,9.15c-.75,1.33-.24,3.27,1.51,3.32a3.71,3.71,0,0,0,2.27-.8,2.55,2.55,0,0,0,.61-.42,2.1,2.1,0,0,0,.51.06,2.07,2.07,0,0,0,1.91-1.72,1.57,1.57,0,0,0,0-.61H89.62A1.77,1.77,0,0,0,89.5,9.15Z"/><path class="cls-3" d="M39.66.1,34.48,1.17C26.27,2.86,22.15,3.71,20,5.23A5.33,5.33,0,0,0,17.66,8.9a4,4,0,0,1-.69,0,.68.68,0,1,0-.18,1.34,5.07,5.07,0,0,0,.68,0c-.1.9-.15,1.92-.21,3.08,0,.7-.08,1.45-.13,2.27a.68.68,0,0,0,.47.69.69.69,0,0,0,.78-.28,17.22,17.22,0,0,1,4.33-4.64c0,.15,0,.29,0,.44a12.44,12.44,0,0,0-.1,1.38c0,.89.15,2.38,1.18,2.38.55,0,.92-.48,2.1-2.13.37-.52.95-1.33,1.4-1.86,0,.16,0,.33,0,.49,0,1.25,0,2.07.68,2.29s1-.31,1.61-1.15A12.83,12.83,0,0,1,38.77,7.3C39,12.43,42,18.16,47.27,19.46a.67.67,0,0,0,.43.16l.32,0h0c.38.1,2.19,1.13,2.19,2.76,0,.51,0,2.06-3.22,2.73a.69.69,0,0,0-.54.65c-.15,5.57-2.57,7.06-5.12,8.63s-5,3-5,8a3.37,3.37,0,0,0,.2,1.21l-.1,0c-1.11.67-2.27,1.36-3.3,2.05A.71.71,0,0,0,33,46a23.33,23.33,0,0,1-2.6.21.67.67,0,0,0-.52-.25,2.49,2.49,0,0,1-1.57-.68,3.16,3.16,0,0,0,1.07-2.53c0-2.18-1.76-3.22-3.63-4.32C23,36.8,20,35,20,29.28c0-2.21.19-4.44.37-6.61s.37-4.46.37-6.73c0-.27,0-.54,0-.82a.68.68,0,0,0-.69-.66.67.67,0,0,0-.66.69v.79c0,2.21-.18,4.45-.36,6.62s-.37,4.46-.37,6.72c0,6.49,3.71,8.68,6.42,10.29,1.89,1.12,3,1.81,3,3.15,0,1.72-1.31,2.1-3.62,2.64-2.52.59-5.66,1.33-5.66,5.46v.06l-.29-.21a.68.68,0,0,0-.81,1.09,33.08,33.08,0,0,0,20.07,6.68h.77a30.94,30.94,0,0,0,22.8-10.61A34.32,34.32,0,0,0,69.6,24.74,31.86,31.86,0,0,0,63.34,6.25a30.19,30.19,0,0,0-2.56-3,.68.68,0,1,0-1,1,28.73,28.73,0,0,1,2.45,2.83,30.51,30.51,0,0,1,6,17.7,33,33,0,0,1-1.33,9.88c-.31-.06-.62-.12-.93-.16a.69.69,0,0,0-.77.58.68.68,0,0,0,.58.76c.24,0,.48.08.71.13a32.47,32.47,0,0,1-6.27,11,29.62,29.62,0,0,1-7,5.9,9.81,9.81,0,0,0-3.53-6.9c0-.16.1-.33.16-.51a.66.66,0,0,0-.39-.87.67.67,0,0,0-.87.39l-.08.21A9.82,9.82,0,0,0,43.69,44l-1.13,0-1.1,0c-3.7,0-3.7-.76-3.7-1.63,0-4.23,2-5.46,4.31-6.88,2.55-1.57,5.43-3.35,5.75-9.23,3.1-.81,3.77-2.57,3.77-3.94a4.65,4.65,0,0,0-3.07-4c0-.63.09-1.27.14-1.89.1-1.23.21-2.51.21-3.77,0-3.7-1.59-8.93-5.1-9.69-.09-1.22-.51-3-3.07-3h-.05A5.54,5.54,0,0,0,39.66.1ZM29.08,52.89a25,25,0,0,0-.46,2.9,31.33,31.33,0,0,1-8.49-3.93.66.66,0,0,0,0-.28,5.06,5.06,0,0,1-.06-.76c0-2.59,1.53-3.35,3.51-3.87a20.1,20.1,0,0,1,1.86,3.48c.36.77.72,1.57,1.14,2.33a.69.69,0,0,0,.45.33l.14,0a.68.68,0,0,0,.4-.13,13.85,13.85,0,0,1,1.67-1h0Zm-.46-2.1c-.39.21-.8.42-1.19.66-.25-.51-.49-1-.74-1.59A24,24,0,0,0,25,46.61,13,13,0,0,0,27.09,46,4.08,4.08,0,0,0,29,47.17c.1,1,.27,2,.44,3a.59.59,0,0,0,0,.13Zm4.17-3.42v.27a19.8,19.8,0,0,0,.14,2.19.38.38,0,0,0-.09.15,1.06,1.06,0,0,0,0,.19.52.52,0,0,0-.1.11,9.86,9.86,0,0,1-1.81.22l-.1-.55c-.14-.8-.28-1.61-.37-2.41C31.19,47.52,32,47.47,32.79,47.37Zm-2.88,8.77a.55.55,0,0,0,.06-.22,23.22,23.22,0,0,1,.44-2.76c.08-.43.17-.87.24-1.31h.13a11.14,11.14,0,0,0,2-.2c.22.91.53,1.81.83,2.68a24.89,24.89,0,0,1,.8,2.59A32.15,32.15,0,0,1,29.91,56.14Zm11.3-10.76C40.54,46.9,40,48.44,39.41,50c-.46,1.27-.94,2.59-1.48,3.85a.69.69,0,0,0,.36.89.86.86,0,0,0,.27.05.69.69,0,0,0,.62-.41c.55-1.3,1-2.63,1.51-3.91.6-1.66,1.23-3.36,2-5a.19.19,0,0,0,0-.07h1c6.69,0,8.19,5.93,8.19,8a.46.46,0,0,0,0,.21,29.76,29.76,0,0,1-13.49,3.51c-.89,0-1.77,0-2.65,0a.71.71,0,0,0,0-.14,25.35,25.35,0,0,0-.91-3c-.3-.89-.59-1.73-.79-2.58l.06-.05.71.38a17,17,0,0,0,1.54.77.75.75,0,0,0,.26.05.69.69,0,0,0,.62-.41c.18-.42.35-.84.52-1.25a17.41,17.41,0,0,1,3-5.43Zm-2.09-.15a21.93,21.93,0,0,0-2.59,5.05l-.24.59c-.27-.13-.53-.27-.8-.42s-.79-.42-1.2-.61a20.85,20.85,0,0,1-.15-2.2,9.41,9.41,0,0,1,0-1c1-.62,2-1.26,3-1.87a.61.61,0,0,0,.2-.19A4.21,4.21,0,0,0,39.12,45.23ZM42.44,3.58a.68.68,0,0,0,.64.66c2.74.17,4.43,4.5,4.43,8.42,0,1.21-.1,2.45-.2,3.66-.05.56-.1,1.14-.13,1.71-4.59-1.41-7.07-6.82-7.08-11.47a.64.64,0,0,0-.22-.49.66.66,0,0,0-.46-.19h0a14,14,0,0,0-10.78,6.3v-.12c0-.16,0-.33,0-.5s0-.35,0-.52c0-.71-.23-1.13-.69-1.28-.87-.28-1.65.74-3.18,2.88-.25.34-.54.76-.79,1.08a5,5,0,0,1,0-.54c0-.4,0-.8.08-1.23a13,13,0,0,0,.1-1.41.81.81,0,0,0-.58-.8c-1-.28-3.15,1.53-4.92,3.65.2-4,.3-5.8,2.11-7.06,2-1.36,6-2.19,14-3.84l5.18-1.07a3.63,3.63,0,0,1,.73-.08C42.21,1.35,42.4,2.07,42.44,3.58Z"/><path class="cls-3" d="M47,22a3.08,3.08,0,0,1-.09.66.68.68,0,0,0,.54.8h.13a.67.67,0,0,0,.66-.54,4.45,4.45,0,0,0,.12-.93,1.87,1.87,0,0,0-.53-1.38.68.68,0,1,0-1,1A.53.53,0,0,1,47,22Z"/><path class="cls-3" d="M28.79,31A7.36,7.36,0,0,0,30,30.86c.15,0,.29-.05.44-.06a.68.68,0,1,0-.17-1.35l-.48.07a6.81,6.81,0,0,1-1,.1c-.48,0-1.05-.11-1.05-.62s.15-.59.89-.92c1-.45,2.55-1.14,2.55-4.28a19.06,19.06,0,0,0-.41-3.38c-.05-.24-.09-.47-.13-.69a.67.67,0,0,0-.78-.55.68.68,0,0,0-.55.79q.06.33.12.69a17.29,17.29,0,0,1,.4,3.14c0,2.26-.86,2.64-1.76,3.05A2.23,2.23,0,0,0,26.39,29C26.39,30.2,27.33,31,28.79,31Z"/><path class="cls-3" d="M29.69,34.6a.68.68,0,0,0,.35.89,5.54,5.54,0,0,0,2.22.45,6.49,6.49,0,0,0,3.89-1.33.68.68,0,0,0-.83-1.07,4.91,4.91,0,0,1-4.73.71A.68.68,0,0,0,29.69,34.6Z"/><path class="cls-3" d="M24.39,24.63a1.46,1.46,0,0,0,1.38-1.52,1.67,1.67,0,0,0-1.47-1.67.64.64,0,0,0-.56.19,2.4,2.4,0,0,0-.7,1.54A1.43,1.43,0,0,0,24.39,24.63Zm0-1.53a.25.25,0,0,1,0,.1v0A.23.23,0,0,1,24.41,23.1Z"/><path class="cls-3" d="M34.9,23.85a1.25,1.25,0,0,0,1.15-1.27A1.75,1.75,0,0,0,35,21a.67.67,0,0,0-.63.06,1.59,1.59,0,0,0-.69,1.31C33.65,23,34.14,23.85,34.9,23.85Z"/><path class="cls-3" d="M1.52,3.35V3a14.9,14.9,0,0,0-.31-3H0V1A15.1,15.1,0,0,1,.17,2.73H0V4.1L.93,4A.68.68,0,0,0,1.52,3.35Z"/><path class="cls-3" d="M7.33,70c5.2,0,9.88-4.1,11.14-9.75a.68.68,0,1,0-1.32-.29,14.64,14.64,0,0,1-.44,1.47l-.08,0a2.86,2.86,0,0,1-1.24.26,3.51,3.51,0,0,1-1.73-.42,3.27,3.27,0,0,0-1.54-.42,6,6,0,0,0-2.82,1,4.47,4.47,0,0,1-1,.48,4,4,0,0,1-1-.42,4.7,4.7,0,0,0-2-.66,4,4,0,0,0-2.72,1.34.68.68,0,0,0,0,1,.68.68,0,0,0,1,0,2.86,2.86,0,0,1,1.76-.94,4.18,4.18,0,0,1,1.36.52,4,4,0,0,0,1.62.57A3.69,3.69,0,0,0,10,63.06a4.81,4.81,0,0,1,2.14-.85,2.09,2.09,0,0,1,1,.29,4.78,4.78,0,0,0,2.31.56A5.65,5.65,0,0,0,16,63a10.24,10.24,0,0,1-8.65,5.61A9.5,9.5,0,0,1,0,65.29v1.93A10.7,10.7,0,0,0,7.33,70Z"/><path class="cls-3" d="M20.55,74.2c0,.36,0,.72.05,1.08a50.64,50.64,0,0,0,.46,6,.68.68,0,0,0,.67.57h.11a.67.67,0,0,0,.56-.77A49.58,49.58,0,0,1,22,75.23q0-1.35-.12-2.73a.74.74,0,0,0,0-.39A31.27,31.27,0,0,0,21.27,68a.68.68,0,1,0-1.33.28,29.93,29.93,0,0,1,.51,3.9c-1.71,2.51-8,7-14.32,7A15.32,15.32,0,0,1,0,77.85v1.5a16,16,0,0,0,6.13,1.24C12.12,80.59,17.87,77,20.55,74.2Z"/><path class="cls-3" d="M100,1.81c0,4.24-2.92,7.48-6.82,7.7A8,8,0,0,1,87,7.13,8.46,8.46,0,0,1,84.43.8a5.29,5.29,0,0,1,.09-.8H83.15c0,.24-.06.48-.08.73a9.6,9.6,0,0,0,1.74,5.9s0,0,0,0c-.25.29-.6.67-1,1.12C81.25,10.5,79,13.12,79,15.1a2.21,2.21,0,0,0,1.92,2.19c1.08,0,2.64-1.58,5.93-5.36.71-.82,1.34-1.54,1.78-2a9.31,9.31,0,0,0,4.07.94h.56c4.63-.27,8-4.07,8.09-9A10,10,0,0,0,101.18,0H99.81A9.67,9.67,0,0,1,100,1.81ZM85.81,11c-1.35,1.55-4.15,4.77-4.9,4.9a1,1,0,0,1-.58-.84c0-1.61,2.89-4.73,4.44-6.41l.89-1c.11.13.23.26.35.38A10.74,10.74,0,0,0,87.4,9.24C87,9.71,86.42,10.34,85.81,11Z"/><path class="cls-3" d="M94.8.56a.66.66,0,0,0-.13.36c0,.1,0,.2,0,.31a5.74,5.74,0,0,0,.27,1.7,15.8,15.8,0,0,1-1.66-.35.67.67,0,0,0-.68.2c-.35.37-.76.82-1.19,1.31-.21-.71-.42-1.44-.57-2.15a.68.68,0,0,0-.5-.51l-.84-.23,1-.58.84-.51L91.43,0H88.85a14.92,14.92,0,0,1-1.37.72.67.67,0,0,0-.4.64.66.66,0,0,0,.43.61,19.8,19.8,0,0,0,2.08.66c.17.69.37,1.36.57,2,.1.34.19.67.29,1a.69.69,0,0,0,.51.48h.14a.66.66,0,0,0,.52-.24C92.2,5.22,92.8,4.55,93.31,4a19.57,19.57,0,0,0,2.62.43.67.67,0,0,0,.63-.28.68.68,0,0,0,0-.7A4.81,4.81,0,0,1,96,1.23V1.18A7.52,7.52,0,0,0,96.66,0H95.14C95,.19,94.92.39,94.8.56Z"/><path class="cls-3" d="M108.89,10.46c-1,1.23-2,2.48-2.87,3.64a.67.67,0,0,0,.11.94c.5.4,1,.78,1.52,1.15s1,.74,1.49,1.12a.67.67,0,0,0,.92-.07c1-1.11,2.11-2.18,3.1-3.18a.66.66,0,0,0,.2-.49.64.64,0,0,0-.22-.49c-1.23-1.11-2.29-2-3.32-2.74A.67.67,0,0,0,108.89,10.46Zm.6,5.41-1-.77-.95-.71c.65-.83,1.33-1.7,2-2.57.68.52,1.38,1.11,2.16,1.79C111,14.33,110.24,15.09,109.49,15.87Z"/><path class="cls-3" d="M87.56,19.51a.67.67,0,0,0,.68.68h1.94a15.94,15.94,0,0,0,.21,2.38.68.68,0,0,0,.67.55h.13a.68.68,0,0,0,.54-.79,13.5,13.5,0,0,1-.19-2.13h1.78a.68.68,0,1,0,0-1.36H91.51a16.77,16.77,0,0,0-.12-2,.68.68,0,0,0-.75-.59.68.68,0,0,0-.59.76,18,18,0,0,1,.11,1.83H88.24A.68.68,0,0,0,87.56,19.51Z"/><path class="cls-3" d="M120.21,38.83a2.14,2.14,0,0,0,.84-1.13,2.7,2.7,0,0,0,.17-.94,2.57,2.57,0,0,0-.68-1.74,5,5,0,0,0,.3-1.83c0-2.84-1.52-4.47-4.18-4.47a6.07,6.07,0,0,0-5.4,3.39h-.1c-2.1,0-4.23,1.77-4.23,3.52,0,3.58,4.43,4.92,7.23,4.92A14.6,14.6,0,0,0,120.21,38.83Zm-8-5a1.27,1.27,0,0,1,.49,1c0,.28,0,.63-.23.63a2,2,0,0,1-.29-1.26A2.73,2.73,0,0,1,112.16,33.78Zm-3.88,1.85c0-.76,1.16-2,2.55-2.15a5.65,5.65,0,0,0,0,.71c0,1.61.63,2.61,1.65,2.61.76,0,1.58-.52,1.58-2a2.61,2.61,0,0,0-1.41-2.36,4.79,4.79,0,0,1,4.06-2.39c1.91,0,2.83,1,2.83,3.12a4.21,4.21,0,0,1-.12,1.07,3,3,0,0,0-.9-.14c-.94,0-1.94.44-1.94,1.41a1.29,1.29,0,0,0,1.4,1.27,2.7,2.7,0,0,0,1.8-.61,1.33,1.33,0,0,1,.13.57,1.26,1.26,0,0,1-.08.47.87.87,0,0,1-.29.45,13.21,13.21,0,0,1-5.33,1.51C112.24,39.19,108.28,38.32,108.28,35.63Z"/><path class="cls-3" d="M124,49.4a.7.7,0,0,0-.81-.52,10.56,10.56,0,0,1-2,.22c0-.4,0-.81-.07-1.22s0-.65,0-1a.68.68,0,1,0-1.35.08c0,.32,0,.63.05.95l.06,1.17H118.5a.68.68,0,0,0,0,1.36H120a14.18,14.18,0,0,0,.47,2.44.68.68,0,0,0,1.31-.38,12.67,12.67,0,0,1-.42-2.07,11.91,11.91,0,0,0,2.17-.24A.69.69,0,0,0,124,49.4Z"/><path class="cls-3" d="M85,28a3,3,0,0,0-2.67-3,3.68,3.68,0,0,0-.47,0,4.44,4.44,0,0,0-1,.22,3.2,3.2,0,0,0-2.06,3.26,2.85,2.85,0,0,0,2.41,2.65c0,.16-.06.32-.09.48a.69.69,0,0,0,.58.77h.1a.69.69,0,0,0,.67-.59,6.1,6.1,0,0,1,.14-.72,3.23,3.23,0,0,0,1.43-.8A3.06,3.06,0,0,0,85,28Zm-1.88,1.32a1.92,1.92,0,0,1-1.44.52,1.54,1.54,0,0,1-1.51-1.45,1.85,1.85,0,0,1,1.17-1.88,2.57,2.57,0,0,1,.64-.15h.25A1.61,1.61,0,0,1,83.69,28,1.72,1.72,0,0,1,83.16,29.29Z"/><path class="cls-3" d="M79.53,41.63a2.36,2.36,0,0,0-2.36-2.33,2.13,2.13,0,0,0-.63.08s0,0,0,0l-.26-.27-.38-.38a.68.68,0,0,0-.95,1l.37.36,0,0a2.36,2.36,0,0,0-.68,1.71A2.45,2.45,0,0,0,77.1,44.1h0a2.37,2.37,0,0,0,1.69-.73A2.47,2.47,0,0,0,79.53,41.63Zm-1.68.8a1,1,0,0,1-.75.31,1,1,0,0,1-.32-2,1.08,1.08,0,0,1,.36-.05,1,1,0,0,1,1,1A1.13,1.13,0,0,1,77.85,42.43Z"/><path class="cls-3" d="M77.62,51.13a.67.67,0,0,0-.67-.68,7.17,7.17,0,0,0-1,.08,11.6,11.6,0,0,1-.09-1.44.68.68,0,0,0-1.36,0,12.7,12.7,0,0,0,.11,1.65,8.57,8.57,0,0,1-1.46.16.68.68,0,0,0,0,1.36,9.37,9.37,0,0,0,1.66-.18c.11.6.24,1.2.37,1.81l.66-.14.66-.16c-.13-.59-.25-1.16-.35-1.72A6.2,6.2,0,0,1,77,51.8.67.67,0,0,0,77.62,51.13Z"/><path class="cls-3" d="M56.05,12.8c.11.6.24,1.2.37,1.81l.66-.14.66-.16c-.12-.59-.25-1.16-.35-1.72a6.2,6.2,0,0,1,.84-.07.68.68,0,1,0,0-1.35,7.17,7.17,0,0,0-1,.08,11.6,11.6,0,0,1-.09-1.44.68.68,0,0,0-1.36,0,12.82,12.82,0,0,0,.11,1.65,8.57,8.57,0,0,1-1.46.16.68.68,0,1,0,0,1.35A10.38,10.38,0,0,0,56.05,12.8Z"/><path class="cls-3" d="M86.72,64.57h-.25a2.94,2.94,0,0,0-3.1,2.83,3.06,3.06,0,0,0,2.84,3,3,3,0,0,0,2.94-3.11,2.78,2.78,0,0,0-1.08-2.31A2.32,2.32,0,0,0,86.72,64.57ZM86.21,69a1.7,1.7,0,0,1-1.49-1.59,1.59,1.59,0,0,1,1.58-1.48h.38a1,1,0,0,1,1.12,1.3A1.61,1.61,0,0,1,86.21,69Z"/><path class="cls-3" d="M117.19,70.78a.67.67,0,0,0,.41.13h.09a.69.69,0,0,0,.45-.27c.44-.58.9-1.15,1.36-1.71s1-1.19,1.43-1.81a.64.64,0,0,0,.12-.52.68.68,0,0,0-.29-.45,35.07,35.07,0,0,1-3.61-2.87.65.65,0,0,0-.51-.17.67.67,0,0,0-.47.27c-.72.95-1.47,1.85-2.28,2.81l-.62.75a.68.68,0,0,0,.11,1Zm-2.26-3.72c.63-.74,1.27-1.51,1.88-2.29a32.44,32.44,0,0,0,2.61,2.1c-.32.41-.65.81-1,1.2s-.66.81-1,1.22l-2.7-2Z"/><path class="cls-3" d="M107.49,84.81a1.7,1.7,0,0,1,.78-1.47,1.33,1.33,0,0,1,.62-.19h.24a2,2,0,0,1,1.35.45,1.42,1.42,0,0,1,.46,1.07,1.26,1.26,0,0,1,0,.38h1.37c0-.14,0-.29,0-.43a2.79,2.79,0,0,0-.92-2,3.47,3.47,0,0,0-2.6-.78,2.78,2.78,0,0,0-1.21.38,3,3,0,0,0-1.43,2.63,1.79,1.79,0,0,0,0,.23h1.36A.91.91,0,0,1,107.49,84.81Z"/><path class="cls-3" d="M95.21,76.55c0-.25,0-.5,0-.75A15.13,15.13,0,0,0,95,73.13a.68.68,0,0,0-1.33.25,14.76,14.76,0,0,1,.17,2.44c0,.48,0,1,0,1.46a.69.69,0,0,0,.68.64c1.23,0,2.45,0,3.67,0H100a40.48,40.48,0,0,0,5.64-.31.68.68,0,0,0,.58-.73c-.09-1.13-.17-2.25-.24-3.37-.18-2.57-.36-5.23-.74-7.9a.69.69,0,0,0-.77-.58.68.68,0,0,0-.57.77c.37,2.62.55,5.26.72,7.81.07.91.13,1.82.2,2.74a41.57,41.57,0,0,1-4.33.22c-.32-2.26-.43-4.62-.54-6.9V69.5a.68.68,0,1,0-1.35.06v.16c.11,2.26.23,4.58.53,6.83h-.92C97.23,76.54,96.22,76.53,95.21,76.55Z"/><path class="cls-3" d="M111.25,48.59c.11,2.32.27,4.58.43,6.95l0,.6a.67.67,0,0,0,.67.63h0a.69.69,0,0,0,.63-.72l0-.6c-.18-2.61-.36-5.08-.47-7.63a.69.69,0,0,0-.23-.49.71.71,0,0,0-.52-.16,38,38,0,0,1-4.26.21c-.94,0-1.9,0-2.85-.05l-.33-3.42c-.35-3.52-.7-7.16-1-10.73a.66.66,0,0,0-.23-.46.7.7,0,0,0-.5-.16c-1.73.15-3.51.19-5.24.21,0-.1,0-.2,0-.31,0-.9-.07-1.81-.15-2.71,1.77-.1,3.53-.26,5.23-.48a.65.65,0,0,0,.55-.44.69.69,0,0,0-.14-.7,3.29,3.29,0,0,1-.51-1.85,3.54,3.54,0,0,1,.19-1.14.7.7,0,0,0-.11-.64.67.67,0,0,0-.59-.26,42.83,42.83,0,0,1-5.58.13.66.66,0,0,0-.71.64.76.76,0,0,0,0,.15.41.41,0,0,0,0,.11c0,1.21.12,2.45.23,3.65A35.24,35.24,0,0,1,96,32.46c0,.15,0,.29,0,.44l-.13.1-.54.59C94,35,92.67,36.49,91.25,37.85a.74.74,0,0,0-.21.53,20.66,20.66,0,0,0,.14,2.68c.29,2.3.39,4.62.45,6.9-2.08.18-4.34.31-7,.4a.72.72,0,0,0-.48.22.77.77,0,0,0-.18.5c.06,1,.12,2,.19,2.93.11,1.69.22,3.44.28,5.12a.68.68,0,0,0,.68.66h0a.67.67,0,0,0,.65-.7c0-1.71-.17-3.47-.28-5.17,0-.74-.1-1.49-.14-2.23,2.39-.08,4.43-.2,6.33-.37,0,.25,0,.5,0,.75,0,2.29.09,4.67.28,7a.68.68,0,0,0,.68.62h.06a.67.67,0,0,0,.61-.73c-.08-1-.14-2-.18-3.05a45.86,45.86,0,0,1,5.08-.31,46.27,46.27,0,0,0,5.7-.39c.08,1,.17,1.92.25,2.88a.68.68,0,1,0,1.35-.12c-.2-2.41-.43-4.85-.66-7.28.89,0,1.81,0,2.71,0C109,48.73,110.14,48.69,111.25,48.59ZM101.07,25.66a4.21,4.21,0,0,0,0,.62,5.58,5.58,0,0,0,.3,1.77c-1.38.16-2.79.27-4.21.35-.08-.88-.15-1.78-.18-2.66C98.24,25.78,99.6,25.76,101.07,25.66Zm-8.68,13c1.38-1.33,2.69-2.75,4-4.12l.35-.37h.49c1.6,0,3.25-.05,4.88-.16q.21,2.25.42,4.53l-2.13.11a54.46,54.46,0,0,0-8,.79C92.4,39.15,92.39,38.9,92.39,38.63Zm.13,2.26s0-.09,0-.13c.77-.16,1.54-.28,2.32-.38.11.83.18,1.68.24,2.53l-2.32.17C92.69,42.35,92.62,41.62,92.52,40.89Zm.32,3.54,2.32-.17c0,.69.07,1.37.1,2.05,0,.1,0,.2,0,.3-.76,0-1.54,0-2.32.1C92.92,46,92.89,45.2,92.84,44.43Zm.25,8.12L93,50c0-.65,0-1.31,0-2,.78,0,1.57-.07,2.35-.09.07,1.45.17,2.91.35,4.35C94.83,52.37,94,52.44,93.09,52.55Zm3.09-12.32c.86-.08,1.71-.13,2.57-.18,0,.85,0,1.69.1,2.54l-2.16.18-.27,0C96.36,41.94,96.28,41.08,96.18,40.23Zm.43,6c0-.7-.06-1.4-.1-2.11l.3,0L99,43.94c.06.84.14,1.67.23,2.5-.85.07-1.7.11-2.55.13C96.62,46.47,96.62,46.36,96.61,46.25Zm1.57,6-1.13,0c-.18-1.43-.28-2.89-.36-4.34.87,0,1.75-.07,2.63-.14,0,.08,0,.15,0,.23.15,1.36.29,2.77.41,4.18ZM100.1,40l.33,0,2.19-.11.24,2.49c-.88,0-1.77.08-2.66.14C100.14,41.65,100.11,40.82,100.1,40Zm.2,3.85c.9-.06,1.8-.11,2.7-.14l0,.35.18,1.78a1,1,0,0,0-.24,0,18.4,18.4,0,0,1-2.44.46C100.44,45.47,100.36,44.65,100.3,43.83Zm.8,8.31c-.11-1.44-.26-2.88-.41-4.27a1.5,1.5,0,0,1,0-.22,20.26,20.26,0,0,0,2.65-.5h0c.15,1.57.3,3.14.44,4.71A26.77,26.77,0,0,1,101.1,52.14Z"/><path class="cls-3" d="M97.38,83.81a5.2,5.2,0,0,0-2.09.49,4.39,4.39,0,0,0-1.11.74h6.67A5.22,5.22,0,0,0,97.38,83.81Z"/><path class="cls-3" d="M54.17,25c0,1.83,2.33,3.46,4.58,5l1.1.78a.66.66,0,0,0,.4.13.68.68,0,0,0,.51-.23c.35-.41.75-.82,1.14-1.22,1.36-1.39,2.77-2.83,2.77-4.89a2.8,2.8,0,0,0-2.78-2.81,3.68,3.68,0,0,0-2.18.84,3.6,3.6,0,0,0-2.39-1A3.31,3.31,0,0,0,54.17,25Zm5-1a.72.72,0,0,0,.49.24.75.75,0,0,0,.51-.19,2.68,2.68,0,0,1,1.74-.9,1.44,1.44,0,0,1,1.42,1.45c0,1.51-1.16,2.69-2.38,3.95q-.39.39-.78.81l-.62-.44c-1.69-1.18-4-2.8-4-3.93a2,2,0,0,1,1.8-2A2.54,2.54,0,0,1,59.15,24Z"/><path class="cls-3" d="M66.66,3.77a35.76,35.76,0,0,1,7,20.78,38.61,38.61,0,0,1-9.4,26A34.71,34.71,0,0,1,38.66,62.5,37.35,37.35,0,0,1,11.33,51.65,36.46,36.46,0,0,1,.48,25,35.41,35.41,0,0,1,9.74,1.7l.09-.05a.64.64,0,0,0,.23-.31c.42-.46.86-.9,1.31-1.34h-3a.67.67,0,0,0,0,.71c.06.1.14.2.2.3A37,37,0,0,0,0,17.59V33.68A37.82,37.82,0,0,0,3.88,44c-.85,0-1.69,0-2.5,0L0,44.1v1.35l1.39,0c1,0,2.05,0,3.1-.06l.15,0a36.51,36.51,0,0,0,2.91,4.12.69.69,0,0,0-.27.48c0,.35,0,.72,0,1.09A25.28,25.28,0,0,0,7.64,55c0,.16.05.31.08.47-1.7.19-3.41.31-5.07.43L0,56.08v1.36l2.75-.21c1.9-.13,3.86-.27,5.82-.52A.74.74,0,0,0,9,56.45a.67.67,0,0,0,.13-.51L9,54.77A24.57,24.57,0,0,1,8.59,51c0-.11,0-.21,0-.32.57.65,1.16,1.29,1.78,1.9a38.52,38.52,0,0,0,16.71,9.78.66.66,0,0,0,.08.65c.92,1.26,1.77,2.58,2.59,3.86.44.69.89,1.39,1.36,2.08.07,1.23.09,2.51.11,3.74a51.34,51.34,0,0,0,.33,6,.68.68,0,0,0,.67.58h.1a.67.67,0,0,0,.57-.77,48,48,0,0,1-.31-5.88c0-1,0-2-.08-3a.75.75,0,0,0,.15-.16c.31-.51.64-1,1-1.52.87-1.36,1.76-2.76,2.56-4.22q.81,0,1.62,0h.89a36.79,36.79,0,0,0,12.2-2.36c.32.58.62,1.18.92,1.78h0c-8.83,5.3-8.95,10-9,13.83C42.66,80.2,42.59,82.83,37,85h3.1c3.83-2.24,3.91-4.87,4-7.89.1-3.64.21-7.76,8.31-12.66l1.18,2.44c.54,1.14,1.1,2.31,1.66,3.43a.59.59,0,0,0,.13.18,5.63,5.63,0,0,1-1.17.14,6,6,0,0,1-1.58-.22.68.68,0,0,0-.84.47.67.67,0,0,0,.47.83,7.12,7.12,0,0,0,2,.27c4.08,0,13.65-6,13.65-8.52,0-1.26-1.28-1.51-1.89-1.63H65.9a.67.67,0,1,0-.26,1.32l.06,0c.22,0,.73.14.8.29,0,1.09-5.79,5.33-10,6.73a.64.64,0,0,0,0-.47c-.56-1.12-1.11-2.28-1.65-3.41L54.66,66a13.42,13.42,0,0,0,6.88-3.45.68.68,0,1,0-.93-1,12.22,12.22,0,0,1-6.55,3.16c-.61-1.26-1.24-2.54-1.9-3.77a35.78,35.78,0,0,0,6.9-3.88c.49.84,1,1.66,1.49,2.45a42.16,42.16,0,0,1,2.67,4.71.67.67,0,0,0,.89.34.69.69,0,0,0,.34-.9,31.5,31.5,0,0,0-1.82-3.35.66.66,0,0,0,.27-.12,8.72,8.72,0,0,1,5.22-2A4.81,4.81,0,0,1,73.27,63c0,3.28-2.84,5.48-5.57,7.6-.51.39-1,.77-1.46,1.15a.67.67,0,0,0-.09,1,.68.68,0,0,0,.52.25.64.64,0,0,0,.43-.16c.45-.37.93-.74,1.43-1.12,2.52-2,5.34-4.14,6-7.35,2.05.15,2.9.93,2.9,2.63,0,3.17-2.55,5.1-4.8,6.81-.63.48-1.23.93-1.74,1.39a.68.68,0,0,0,0,1,.67.67,0,0,0,.5.23.66.66,0,0,0,.45-.18c.48-.42,1-.86,1.66-1.32,1.81-1.37,3.94-3,4.87-5.37h.06c1.78,0,2.74.51,2.74,3.19,0,3.9-3.69,7.25-5.9,8.9a.68.68,0,0,0-.13,1,.67.67,0,0,0,.54.27.69.69,0,0,0,.41-.13,19,19,0,0,0,5.28-5.79h.11c2.15,0,4.18,2.2,4.18,2.84,0,2-1.84,3.81-3.9,5.39h2.14c1.74-1.54,3.11-3.31,3.11-5.39,0-1.45-2.42-3.88-5-4.17a8.3,8.3,0,0,0,.54-2.86c0-3-1.21-4.43-3.79-4.53a6.36,6.36,0,0,0,.11-1.17c0-2.42-1.39-3.75-4.13-4a6.13,6.13,0,0,0-6.5-6,10,10,0,0,0-6,2.22.43.43,0,0,0-.12.11l-.27-.43c-.52-.82-1-1.67-1.54-2.54a37.2,37.2,0,0,0,5.14-4.84,39.24,39.24,0,0,0,7.62-13.35l.14.06a.61.61,0,0,0,.32.08A.67.67,0,0,0,73.69,37l-.35-.17A39.92,39.92,0,0,0,75,24.52,37.15,37.15,0,0,0,67.73,3,33.84,33.84,0,0,0,65.23,0h-1.9A36.46,36.46,0,0,1,66.66,3.77ZM32.48,67.32c-.14.22-.28.43-.41.65-.4-.6-.79-1.21-1.17-1.8-.71-1.11-1.46-2.26-2.25-3.38a39.09,39.09,0,0,0,6,.94C34,65,33.22,66.16,32.48,67.32Z"/><path class="cls-3" d="M4.56,25.15a32.28,32.28,0,0,0,6.7,20.31.67.67,0,0,0,1,.13.67.67,0,0,0,.13-1A31,31,0,0,1,5.91,25.17,30.11,30.11,0,0,1,12.05,7.42l.13.15a.64.64,0,0,0,.51.23.66.66,0,0,0,.44-.16.69.69,0,0,0,.07-1c-.1-.11-.19-.24-.28-.36A31.46,31.46,0,0,1,20.06,0h-2.4A31.81,31.81,0,0,0,4.56,25.15Z"/><path class="cls-3" d="M14.7,9.55a.66.66,0,0,0,.3.07.67.67,0,0,0,.61-.37.68.68,0,0,0-.3-.91,6.71,6.71,0,0,1-.77-.45A.68.68,0,0,0,13.77,9,7.32,7.32,0,0,0,14.7,9.55Z"/><path class="cls-3" d="M56.53,36.55a16.87,16.87,0,0,0-1.65,1,.68.68,0,0,0,.38,1.23.69.69,0,0,0,.39-.12c.5-.35,1-.67,1.54-1a.68.68,0,1,0-.66-1.18Z"/><path class="cls-3" d="M62,34.56a16.66,16.66,0,0,0-1.92.45.68.68,0,0,0,.2,1.33.63.63,0,0,0,.19,0,14.25,14.25,0,0,1,1.75-.41A.68.68,0,1,0,62,34.56Z"/><path class="cls-3" d="M51.91,40.09a17.65,17.65,0,0,0-1.3,1.46.67.67,0,0,0,.11,1,.66.66,0,0,0,.42.15.68.68,0,0,0,.53-.26A16.59,16.59,0,0,1,52.87,41a.68.68,0,1,0-1-.95Z"/><path class="cls-3" d="M81.89,34.73a.68.68,0,0,0-.52.81A10.46,10.46,0,0,0,82,37.43a.68.68,0,0,0,.62.41.67.67,0,0,0,.28-.06.69.69,0,0,0,.34-.9,8.52,8.52,0,0,1-.54-1.64A.67.67,0,0,0,81.89,34.73Z"/><path class="cls-3" d="M84.35,40.64A11.41,11.41,0,0,0,86,41.82a.73.73,0,0,0,.35.09.67.67,0,0,0,.35-1.25,9.92,9.92,0,0,1-1.4-1,.67.67,0,0,0-1,0A.68.68,0,0,0,84.35,40.64Z"/><path class="cls-3" d="M89.91,42a.69.69,0,0,0-.83.48.68.68,0,0,0,.48.83l.62.15.18,0a.53.53,0,0,0,.25.05.68.68,0,0,0,.25-1.31l-.37-.1Z"/><path class="cls-3" d="M104,7.64a.66.66,0,0,0-1,0,9.11,9.11,0,0,0-1.14,1.48.69.69,0,0,0,.22.93.69.69,0,0,0,.94-.22,7.37,7.37,0,0,1,1-1.27A.67.67,0,0,0,104,7.64Z"/><path class="cls-3" d="M102.88,17.38a.68.68,0,1,0-1.17.69,8.89,8.89,0,0,0,1.1,1.5.69.69,0,0,0,.51.23.66.66,0,0,0,.45-.18.67.67,0,0,0,0-.95A7.88,7.88,0,0,1,102.88,17.38Z"/><path class="cls-3" d="M100.6,12.64a8.68,8.68,0,0,0-.07,1.13v.07c0,.23,0,.46,0,.68a.68.68,0,0,0,.68.62h.06a.69.69,0,0,0,.61-.74,5.49,5.49,0,0,1,0-.58v-.05a6.16,6.16,0,0,1,.07-.95.69.69,0,0,0-.59-.76A.68.68,0,0,0,100.6,12.64Z"/><path class="cls-3" d="M105.8,21.77a9.17,9.17,0,0,0,1.76.61l.16,0a.68.68,0,0,0,.16-1.34,7.92,7.92,0,0,1-1.51-.52.68.68,0,0,0-.9.33A.67.67,0,0,0,105.8,21.77Z"/><path class="cls-3" d="M107.8,5a8.59,8.59,0,0,0-1.78.57.68.68,0,1,0,.55,1.24,7.1,7.1,0,0,1,1.52-.49L108,5.6Z"/><path class="cls-3" d="M112.56,20.73a7.53,7.53,0,0,1-1.52.44.68.68,0,0,0,.11,1.35h.12a9.49,9.49,0,0,0,1.8-.52.68.68,0,0,0-.51-1.26Z"/><path class="cls-3" d="M113.32,5.71a10.57,10.57,0,0,0-1.75-.65.69.69,0,0,0-.83.49.67.67,0,0,0,.49.82,8.41,8.41,0,0,1,1.49.56A.66.66,0,0,0,113,7a.68.68,0,0,0,.61-.38A.69.69,0,0,0,113.32,5.71Z"/><path class="cls-3" d="M117.11,14.7a.67.67,0,0,0,.59.75h.08a.67.67,0,0,0,.67-.6,9.42,9.42,0,0,0,.08-1.2V13.6c0-.2,0-.4,0-.6a.68.68,0,0,0-1.35.11c0,.16,0,.33,0,.5v.05A8.94,8.94,0,0,1,117.11,14.7Z"/><path class="cls-3" d="M116.27,7.93a.68.68,0,0,0-1,.91,7.65,7.65,0,0,1,.94,1.28.66.66,0,0,0,.58.34.73.73,0,0,0,.35-.09.68.68,0,0,0,.24-.93A8.88,8.88,0,0,0,116.27,7.93Z"/><path class="cls-3" d="M115.18,19.91a.69.69,0,0,0,.47.18.67.67,0,0,0,.49-.21,8.67,8.67,0,0,0,1.13-1.5.68.68,0,0,0-.24-.93.69.69,0,0,0-.93.24,6.41,6.41,0,0,1-.95,1.26A.69.69,0,0,0,115.18,19.91Z"/><path class="cls-3" d="M77.1,5.47a.66.66,0,0,0,.3.07A.67.67,0,0,0,78,5.17a.68.68,0,0,0-.3-.91,8.33,8.33,0,0,1-1.4-.9.67.67,0,0,0-1,.11.68.68,0,0,0,.1.95A9.9,9.9,0,0,0,77.1,5.47Z"/><path class="cls-3" d="M81.39,6.46a12.21,12.21,0,0,0,1.35-.07.67.67,0,0,0,.61-.74.68.68,0,0,0-.74-.6c-.41,0-.82.06-1.21.06h-.49a.67.67,0,0,0-.72.64.68.68,0,0,0,.64.71Z"/><path class="cls-3" d="M73,1.5a.67.67,0,0,0,.58.34.64.64,0,0,0,.35-.1.67.67,0,0,0,.24-.92A9.16,9.16,0,0,1,73.71,0H72.23A12.29,12.29,0,0,0,73,1.5Z"/><rect class="cls-4" x="385.16" width="181.77" height="85.04"/><path class="cls-3" d="M138.9,21.19a2.57,2.57,0,0,0-1.12-.23H136v5.48h1.73a2.59,2.59,0,0,0,1.13-.23,1.65,1.65,0,0,0,.71-.67,2.12,2.12,0,0,0,.25-1.07V22.92a2.08,2.08,0,0,0-.25-1.06A1.59,1.59,0,0,0,138.9,21.19Zm.17,3.31a1.16,1.16,0,0,1-.33.89,1.32,1.32,0,0,1-.94.32h-1v-4h1a1.32,1.32,0,0,1,.94.32,1.15,1.15,0,0,1,.33.88Z"/><path class="cls-3" d="M143.26,22.64a2,2,0,0,0-.84-.17,2.07,2.07,0,0,0-.8.15A1.44,1.44,0,0,0,141,23l.56.38a1.36,1.36,0,0,1,.4-.2,1.43,1.43,0,0,1,.46-.07.78.78,0,0,1,.58.21.85.85,0,0,1,.2.6v.16h-1.07a1.44,1.44,0,0,0-1,.29,1.32,1.32,0,0,0,0,1.78,1.62,1.62,0,0,0,1.08.3,1.52,1.52,0,0,0,.44,0,1,1,0,0,0,.34-.15.73.73,0,0,0,.17-.18v.33H144V23.92a1.61,1.61,0,0,0-.18-.78A1.2,1.2,0,0,0,143.26,22.64ZM143,25.77a1.63,1.63,0,0,1-.66.1,1,1,0,0,1-.6-.15.6.6,0,0,1,0-.84.65.65,0,0,1,.45-.14h1.07v.74A.31.31,0,0,1,143,25.77Z"/><path class="cls-3" d="M147.63,22.66a1.26,1.26,0,0,0-.71-.19,1.12,1.12,0,0,0-.64.19,1.37,1.37,0,0,0-.38.41v-.54h-.77V28h.77V25.91a.93.93,0,0,0,.35.41,1.1,1.1,0,0,0,.63.17,1.39,1.39,0,0,0,.73-.18,1.24,1.24,0,0,0,.47-.54,2.19,2.19,0,0,0,.15-.85v-.86a2.24,2.24,0,0,0-.15-.86A1.1,1.1,0,0,0,147.63,22.66Zm-.16,2.26a.94.94,0,0,1-.21.65.78.78,0,0,1-.59.23.9.9,0,0,1-.42-.09.7.7,0,0,1-.26-.28.9.9,0,0,1-.09-.42V23.94a.93.93,0,0,1,.09-.42.62.62,0,0,1,.26-.27.9.9,0,0,1,.42-.09.75.75,0,0,1,.59.24,1,1,0,0,1,.21.67Z"/><path class="cls-3" d="M151.56,22.64a1.93,1.93,0,0,0-.84-.17,2.07,2.07,0,0,0-.8.15,1.44,1.44,0,0,0-.59.42l.56.38a1.36,1.36,0,0,1,.4-.2,1.43,1.43,0,0,1,.46-.07.78.78,0,0,1,.58.21.81.81,0,0,1,.2.6v.16h-1.07a1.44,1.44,0,0,0-1,.29,1.32,1.32,0,0,0,0,1.78,1.64,1.64,0,0,0,1.08.3,1.52,1.52,0,0,0,.44,0,1,1,0,0,0,.34-.15.73.73,0,0,0,.17-.18v.33h.73V23.92a1.61,1.61,0,0,0-.18-.78A1.2,1.2,0,0,0,151.56,22.64Zm-.24,3.13a1.63,1.63,0,0,1-.66.1,1,1,0,0,1-.6-.15.6.6,0,0,1-.05-.84.65.65,0,0,1,.45-.14h1.07v.74A.31.31,0,0,1,151.32,25.77Z"/><path class="cls-3" d="M154.3,21.39h-.77v1.14h-.4v.69h.4v2.2a1.2,1.2,0,0,0,.22.77.86.86,0,0,0,.7.27h.44v-.74h-.37a.19.19,0,0,1-.16-.07.36.36,0,0,1-.06-.22V23.22h.59v-.69h-.59Z"/><polygon class="cls-3" points="159.19 22.53 158.29 22.53 156.72 24.43 156.72 20.96 155.95 20.96 155.95 26.44 156.72 26.44 156.72 25.32 157.41 24.54 158.55 26.44 159.39 26.44 157.89 24 159.19 22.53"/><path class="cls-3" d="M162.26,22.64a1.93,1.93,0,0,0-.84-.17,2.07,2.07,0,0,0-.8.15A1.44,1.44,0,0,0,160,23l.56.38a1.36,1.36,0,0,1,.4-.2,1.43,1.43,0,0,1,.46-.07.78.78,0,0,1,.58.21.81.81,0,0,1,.2.6v.16h-1.07a1.46,1.46,0,0,0-1,.29,1.32,1.32,0,0,0,0,1.78,1.66,1.66,0,0,0,1.08.3,1.52,1.52,0,0,0,.44,0,1,1,0,0,0,.34-.15.73.73,0,0,0,.17-.18v.33H163V23.92a1.61,1.61,0,0,0-.18-.78A1.2,1.2,0,0,0,162.26,22.64ZM162,25.77a1.63,1.63,0,0,1-.66.1,1,1,0,0,1-.6-.15.6.6,0,0,1,0-.84.65.65,0,0,1,.45-.14h1.07v.74A.31.31,0,0,1,162,25.77Z"/><path class="cls-3" d="M165.94,22.47a1.15,1.15,0,0,0-.65.19,1.62,1.62,0,0,0-.39.43v-.56h-.77v3.91h.77V24a.73.73,0,0,1,.21-.56.8.8,0,0,1,.58-.2.78.78,0,0,1,.6.23.9.9,0,0,1,.22.64v2.37h.76V24.06a1.77,1.77,0,0,0-.34-1.17A1.23,1.23,0,0,0,165.94,22.47Z"/><path class="cls-3" d="M172.3,22.47a1.1,1.1,0,0,0-.63.2,1.31,1.31,0,0,0-.39.42v-.56h-.77v3.91h.77V24a.78.78,0,0,1,.2-.56.81.81,0,0,1,.57-.2.86.86,0,0,1,.36.07.58.58,0,0,1,.25.18l.5-.67a1,1,0,0,0-.37-.23A1.53,1.53,0,0,0,172.3,22.47Z"/><path class="cls-3" d="M176.1,22.72a1.37,1.37,0,0,0-.84-.25,1.7,1.7,0,0,0-.89.22,1.41,1.41,0,0,0-.56.62,2.27,2.27,0,0,0-.19,1v.44a2,2,0,0,0,.2,1,1.35,1.35,0,0,0,.58.6,1.93,1.93,0,0,0,.93.2,1.91,1.91,0,0,0,.73-.15,2,2,0,0,0,.65-.43l-.51-.51a1.13,1.13,0,0,1-.41.27,1.22,1.22,0,0,1-.46.09,1,1,0,0,1-.73-.26,1,1,0,0,1-.25-.71h2.46v-.26a3.07,3.07,0,0,0-.18-1.11A1.47,1.47,0,0,0,176.1,22.72Zm-1.74,1.45a1.13,1.13,0,0,1,.23-.72.83.83,0,0,1,.67-.29.68.68,0,0,1,.57.27,1.3,1.3,0,0,1,.25.74Z"/><path class="cls-3" d="M180.36,22.66a1.23,1.23,0,0,0-.71-.19,1.09,1.09,0,0,0-.63.19,1.28,1.28,0,0,0-.39.41v-.54h-.77V28h.77V25.91a1.08,1.08,0,0,0,.35.41,1.11,1.11,0,0,0,.64.17,1.44,1.44,0,0,0,.73-.18,1.28,1.28,0,0,0,.46-.54,2,2,0,0,0,.16-.85v-.86a2.06,2.06,0,0,0-.16-.86A1.1,1.1,0,0,0,180.36,22.66Zm-.16,2.26a.94.94,0,0,1-.21.65.78.78,0,0,1-.59.23.86.86,0,0,1-.41-.09.66.66,0,0,1-.27-.28.9.9,0,0,1-.09-.42V23.94a.93.93,0,0,1,.09-.42.59.59,0,0,1,.27-.27.86.86,0,0,1,.41-.09.75.75,0,0,1,.59.24,1,1,0,0,1,.21.67Z"/><path class="cls-3" d="M184.43,22.67a2,2,0,0,0-1.74,0,1.24,1.24,0,0,0-.55.58,1.93,1.93,0,0,0-.19.9v.64a2,2,0,0,0,.19.92,1.24,1.24,0,0,0,.55.58,2,2,0,0,0,1.74,0,1.32,1.32,0,0,0,.55-.57,2,2,0,0,0,.19-.92v-.65a1.93,1.93,0,0,0-.19-.9A1.29,1.29,0,0,0,184.43,22.67Zm0,2.13a1,1,0,0,1-.22.71.89.89,0,0,1-1.24,0,1,1,0,0,1-.22-.71v-.65a1,1,0,0,1,.22-.7.89.89,0,0,1,1.24,0,1,1,0,0,1,.22.7Z"/><path class="cls-3" d="M188.05,22.47a1.1,1.1,0,0,0-.63.2,1.44,1.44,0,0,0-.39.42v-.56h-.77v3.91H187V24a.78.78,0,0,1,.2-.56.81.81,0,0,1,.57-.2.8.8,0,0,1,.36.07.58.58,0,0,1,.25.18l.51-.67a1.14,1.14,0,0,0-.38-.23A1.53,1.53,0,0,0,188.05,22.47Z"/><path class="cls-3" d="M190.43,21.39h-.77v1.14h-.41v.69h.41v2.2a1.14,1.14,0,0,0,.22.77.83.83,0,0,0,.69.27H191v-.74h-.37a.19.19,0,0,1-.17-.07.36.36,0,0,1,0-.22V23.22H191v-.69h-.59Z"/><path class="cls-3" d="M196.37,22.64a1.92,1.92,0,0,0-.83-.17,2.09,2.09,0,0,0-.81.15,1.41,1.41,0,0,0-.58.42l.56.38a1.25,1.25,0,0,1,.4-.2,1.37,1.37,0,0,1,.45-.07.76.76,0,0,1,.58.21.81.81,0,0,1,.21.6v.16h-1.08a1.48,1.48,0,0,0-1,.29,1.32,1.32,0,0,0,0,1.78,1.66,1.66,0,0,0,1.08.3,1.48,1.48,0,0,0,.44,0,1,1,0,0,0,.35-.15.73.73,0,0,0,.17-.18v.33h.73V23.92a1.61,1.61,0,0,0-.18-.78A1.22,1.22,0,0,0,196.37,22.64Zm-.24,3.13a1.55,1.55,0,0,1-.65.1,1,1,0,0,1-.6-.15.48.48,0,0,1-.2-.44.51.51,0,0,1,.15-.4.65.65,0,0,1,.45-.14h1.07v.74A.3.3,0,0,1,196.13,25.77Z"/><path class="cls-3" d="M200.06,22.47a1.13,1.13,0,0,0-.65.19,1.47,1.47,0,0,0-.39.43v-.56h-.77v3.91H199V24a.73.73,0,0,1,.2-.56.93.93,0,0,1,1.19,0,.9.9,0,0,1,.21.64v2.37h.77V24.06a1.78,1.78,0,0,0-.35-1.17A1.2,1.2,0,0,0,200.06,22.47Z"/><path class="cls-3" d="M204.79,22.64a1.93,1.93,0,0,0-.84-.17,2.07,2.07,0,0,0-.8.15,1.44,1.44,0,0,0-.59.42l.56.38a1.36,1.36,0,0,1,.4-.2,1.43,1.43,0,0,1,.46-.07.78.78,0,0,1,.58.21.81.81,0,0,1,.2.6v.16h-1.07a1.44,1.44,0,0,0-1,.29,1.32,1.32,0,0,0,0,1.78,1.64,1.64,0,0,0,1.08.3,1.52,1.52,0,0,0,.44,0,1,1,0,0,0,.34-.15.73.73,0,0,0,.17-.18v.33h.73V23.92a1.61,1.61,0,0,0-.18-.78A1.2,1.2,0,0,0,204.79,22.64Zm-.24,3.13a1.63,1.63,0,0,1-.66.1,1,1,0,0,1-.6-.15.6.6,0,0,1,0-.84.65.65,0,0,1,.45-.14h1.07v.74A.31.31,0,0,1,204.55,25.77Z"/><path class="cls-3" d="M207.49,25.65a.36.36,0,0,1-.06-.22V21h-.77v4.46a1.1,1.1,0,0,0,.24.76.84.84,0,0,0,.68.28H208v-.74h-.36A.21.21,0,0,1,207.49,25.65Z"/><rect class="cls-3" x="208.9" y="20.96" width="0.77" height="0.77"/><rect class="cls-3" x="208.9" y="22.53" width="0.77" height="3.91"/><path class="cls-3" d="M213.17,24.2a3.82,3.82,0,0,0-.7-.11h-.14a4.14,4.14,0,0,1-.48,0,.71.71,0,0,1-.28-.11.26.26,0,0,1-.11-.24.46.46,0,0,1,.19-.4,1.15,1.15,0,0,1,.59-.13,1.87,1.87,0,0,1,.56.09,2.56,2.56,0,0,1,.57.29l.47-.56a2.2,2.2,0,0,0-.49-.28,1.93,1.93,0,0,0-.53-.17,2.72,2.72,0,0,0-.58-.06,2.23,2.23,0,0,0-.84.14,1,1,0,0,0-.5.41,1.22,1.22,0,0,0-.17.69,1,1,0,0,0,.17.64.89.89,0,0,0,.44.3,3.38,3.38,0,0,0,.64.11h.19l.52.06A.59.59,0,0,1,213,25a.33.33,0,0,1,.13.28.46.46,0,0,1-.23.42,1.27,1.27,0,0,1-.69.14,1.66,1.66,0,0,1-.61-.12,2.54,2.54,0,0,1-.63-.36l-.46.56a2,2,0,0,0,.49.34,2.49,2.49,0,0,0,.56.21,3.42,3.42,0,0,0,.65.06,2.47,2.47,0,0,0,.92-.14,1.09,1.09,0,0,0,.54-.41,1.28,1.28,0,0,0,.18-.7,1.11,1.11,0,0,0-.19-.71A1,1,0,0,0,213.17,24.2Z"/><path class="cls-3" d="M217.06,22.64a1.92,1.92,0,0,0-.83-.17,2.09,2.09,0,0,0-.81.15,1.41,1.41,0,0,0-.58.42l.56.38a1.2,1.2,0,0,1,.39-.2,1.47,1.47,0,0,1,.46-.07.76.76,0,0,1,.58.21.81.81,0,0,1,.21.6v.16H216a1.48,1.48,0,0,0-1,.29,1.32,1.32,0,0,0,0,1.78,1.66,1.66,0,0,0,1.08.3,1.48,1.48,0,0,0,.44,0,1,1,0,0,0,.35-.15.73.73,0,0,0,.17-.18v.33h.73V23.92a1.61,1.61,0,0,0-.18-.78A1.22,1.22,0,0,0,217.06,22.64Zm-.24,3.13a1.57,1.57,0,0,1-.66.1,1,1,0,0,1-.6-.15.5.5,0,0,1-.19-.44.51.51,0,0,1,.15-.4.62.62,0,0,1,.45-.14H217v.74A.3.3,0,0,1,216.82,25.77Z"/><path class="cls-3" d="M221.9,22.27a1,1,0,0,1,.39-.45,1,1,0,0,1,.59-.17,1.07,1.07,0,0,1,.46.11,1.2,1.2,0,0,1,.64.77h.78a2,2,0,0,0-.36-.85,1.65,1.65,0,0,0-.66-.57,1.79,1.79,0,0,0-.86-.21,1.91,1.91,0,0,0-1,.26,1.73,1.73,0,0,0-.67.72A2.25,2.25,0,0,0,221,23v1.5a2.32,2.32,0,0,0,.24,1.08,1.76,1.76,0,0,0,.67.71,1.9,1.9,0,0,0,1,.25,1.83,1.83,0,0,0,1.52-.77,2,2,0,0,0,.36-.85H224a1.16,1.16,0,0,1-.63.77,1.1,1.1,0,0,1-.47.1,1,1,0,0,1-.59-.16,1,1,0,0,1-.39-.45,1.48,1.48,0,0,1-.14-.68V23A1.45,1.45,0,0,1,221.9,22.27Z"/><path class="cls-3" d="M227.12,21l-2,5.48h.83l.41-1.2h2.21l.42,1.2h.83l-2-5.48Zm-.53,3.54.86-2.48.85,2.48Z"/><polygon class="cls-3" points="231.87 25.25 230.56 20.96 229.72 20.96 231.5 26.44 232.24 26.44 234.02 20.96 233.19 20.96 231.87 25.25"/><polygon class="cls-3" points="235.62 20.96 234.85 20.96 234.85 26.44 235.23 26.44 235.62 26.44 238.37 26.44 238.37 25.71 235.62 25.71 235.62 20.96"/><polygon class="cls-3" points="239.64 20.96 239.27 20.96 239.27 26.44 239.64 26.44 240.04 26.44 242.79 26.44 242.79 25.71 240.04 25.71 240.04 24.08 242.38 24.08 242.38 23.35 240.04 23.35 240.04 21.69 242.79 21.69 242.79 20.96 240.04 20.96 239.64 20.96"/><polygon class="cls-3" points="247.17 25.05 244.58 20.96 243.88 20.96 243.88 26.43 244.64 26.43 244.64 22.41 247.22 26.43 247.93 26.43 247.93 20.96 247.17 20.96 247.17 25.05"/><polygon class="cls-3" points="248.83 21.69 250.38 21.69 250.38 26.44 251.15 26.44 251.15 21.69 252.69 21.69 252.69 20.96 248.83 20.96 248.83 21.69"/><path class="cls-3" d="M256.12,25.65a.36.36,0,0,1-.06-.22V21h-.77v4.46a1.1,1.1,0,0,0,.24.76.84.84,0,0,0,.68.28h.45v-.74h-.36A.23.23,0,0,1,256.12,25.65Z"/><path class="cls-3" d="M259.72,22.64a1.92,1.92,0,0,0-.83-.17,2.09,2.09,0,0,0-.81.15,1.51,1.51,0,0,0-.59.42l.56.38a1.36,1.36,0,0,1,.4-.2,1.43,1.43,0,0,1,.46-.07.78.78,0,0,1,.58.21.81.81,0,0,1,.21.6v.16h-1.08a1.48,1.48,0,0,0-1,.29,1.32,1.32,0,0,0,0,1.78,1.66,1.66,0,0,0,1.08.3,1.52,1.52,0,0,0,.44,0,.88.88,0,0,0,.34-.15,1,1,0,0,0,.18-.18v.33h.73V23.92a1.61,1.61,0,0,0-.18-.78A1.22,1.22,0,0,0,259.72,22.64Zm-.24,3.13a1.57,1.57,0,0,1-.66.1,1,1,0,0,1-.6-.15.6.6,0,0,1-.05-.84.65.65,0,0,1,.45-.14h1.08v.74A.32.32,0,0,1,259.48,25.77Z"/><rect class="cls-3" x="261.59" y="20.96" width="0.77" height="0.77"/><rect class="cls-3" x="261.59" y="22.53" width="0.77" height="3.91"/><path class="cls-3" d="M265.34,22.47a1.15,1.15,0,0,0-.65.19,1.47,1.47,0,0,0-.39.43v-.56h-.77v3.91h.77V24a.77.77,0,0,1,.2-.56.83.83,0,0,1,.59-.2.8.8,0,0,1,.6.23.9.9,0,0,1,.21.64v2.37h.77V24.06a1.72,1.72,0,0,0-.35-1.17A1.2,1.2,0,0,0,265.34,22.47Z"/><path class="cls-3" d="M269.65,22.47a1.15,1.15,0,0,0-.65.19,1.47,1.47,0,0,0-.39.43v-.56h-.77v3.91h.77V24a.77.77,0,0,1,.2-.56.93.93,0,0,1,1.19,0,.9.9,0,0,1,.21.64v2.37H271V24.06a1.78,1.78,0,0,0-.35-1.17A1.2,1.2,0,0,0,269.65,22.47Z"/><path class="cls-3" d="M273.39,25.31l-1-2.78h-.78L273,26.37l-.19.58a.62.62,0,0,1-.22.29.57.57,0,0,1-.34.09h-.15v.74h.15a1.94,1.94,0,0,0,.53-.07,1,1,0,0,0,.36-.22,1.18,1.18,0,0,0,.24-.43l1.66-4.82h-.78Z"/><path class="cls-3" d="M278,22.64a1.92,1.92,0,0,0-.83-.17,2.09,2.09,0,0,0-.81.15,1.51,1.51,0,0,0-.59.42l.56.38a1.36,1.36,0,0,1,.4-.2,1.43,1.43,0,0,1,.46-.07.78.78,0,0,1,.58.21.81.81,0,0,1,.21.6v.16h-1.08a1.48,1.48,0,0,0-1,.29,1.32,1.32,0,0,0,0,1.78,1.66,1.66,0,0,0,1.08.3,1.52,1.52,0,0,0,.44,0,1,1,0,0,0,.35-.15,1.49,1.49,0,0,0,.17-.18v.33h.73V23.92a1.61,1.61,0,0,0-.18-.78A1.22,1.22,0,0,0,278,22.64Zm-.24,3.13a1.57,1.57,0,0,1-.66.1,1,1,0,0,1-.6-.15.6.6,0,0,1-.05-.84.65.65,0,0,1,.45-.14H278v.74A.32.32,0,0,1,277.75,25.77Z"/><polygon class="cls-3" points="279.73 27.69 280.54 26.85 280.54 25.63 279.73 25.63 279.73 27.69"/><path class="cls-3" d="M286,24.2a3.84,3.84,0,0,0-.69-.11h-.15a4.14,4.14,0,0,1-.48,0,.71.71,0,0,1-.28-.11.28.28,0,0,1-.11-.24.44.44,0,0,1,.2-.4,1.11,1.11,0,0,1,.58-.13,1.87,1.87,0,0,1,.56.09,2.85,2.85,0,0,1,.58.29l.46-.56a2.2,2.2,0,0,0-.49-.28,1.83,1.83,0,0,0-.53-.17,2.65,2.65,0,0,0-.58-.06,2.3,2.3,0,0,0-.84.14,1,1,0,0,0-.5.41,1.31,1.31,0,0,0-.17.69,1.06,1.06,0,0,0,.17.64.94.94,0,0,0,.44.3,3.36,3.36,0,0,0,.65.11H285l.51.06a.59.59,0,0,1,.31.13.31.31,0,0,1,.13.28.46.46,0,0,1-.23.42,1.25,1.25,0,0,1-.68.14,1.71,1.71,0,0,1-.62-.12,2.54,2.54,0,0,1-.63-.36l-.46.56a2,2,0,0,0,.49.34,2.58,2.58,0,0,0,.57.21,3.34,3.34,0,0,0,.65.06,2.42,2.42,0,0,0,.91-.14,1.09,1.09,0,0,0,.54-.41,1.28,1.28,0,0,0,.18-.7,1.11,1.11,0,0,0-.19-.71A1,1,0,0,0,286,24.2Z"/><path class="cls-3" d="M290.05,22.72a1.36,1.36,0,0,0-.83-.25,1.66,1.66,0,0,0-.89.22,1.3,1.3,0,0,0-.56.62,2.27,2.27,0,0,0-.2,1v.44a2.12,2.12,0,0,0,.2,1,1.37,1.37,0,0,0,.59.6,2,2,0,0,0,1.65.05,2,2,0,0,0,.65-.43l-.5-.51a1.22,1.22,0,0,1-.41.27,1.31,1.31,0,0,1-.47.09.89.89,0,0,1-1-1h2.45v-.26a3.07,3.07,0,0,0-.18-1.11A1.47,1.47,0,0,0,290.05,22.72Zm-1.74,1.45a1.26,1.26,0,0,1,.23-.72.85.85,0,0,1,.68-.29.68.68,0,0,1,.57.27,1.3,1.3,0,0,1,.24.74Z"/><path class="cls-3" d="M294.32,22.66a1.28,1.28,0,0,0-.71-.19,1.12,1.12,0,0,0-.64.19,1.25,1.25,0,0,0-.38.41v-.54h-.77V28h.77V25.91a1,1,0,0,0,.34.41,1.16,1.16,0,0,0,.64.17,1.41,1.41,0,0,0,.73-.18,1.22,1.22,0,0,0,.46-.54,2,2,0,0,0,.16-.85v-.86a2.24,2.24,0,0,0-.15-.86A1.1,1.1,0,0,0,294.32,22.66Zm-.17,2.26a1,1,0,0,1-.2.65.78.78,0,0,1-.59.23.87.87,0,0,1-.42-.09.7.7,0,0,1-.26-.28.9.9,0,0,1-.09-.42V23.94a.93.93,0,0,1,.09-.42.62.62,0,0,1,.26-.27.87.87,0,0,1,.42-.09.75.75,0,0,1,.59.24,1,1,0,0,1,.2.67Z"/><path class="cls-3" d="M298.38,22.72a1.36,1.36,0,0,0-.83-.25,1.68,1.68,0,0,0-.89.22,1.35,1.35,0,0,0-.56.62,2.27,2.27,0,0,0-.2,1v.44a2.12,2.12,0,0,0,.2,1,1.37,1.37,0,0,0,.59.6,1.91,1.91,0,0,0,.93.2,1.86,1.86,0,0,0,.72-.15,2,2,0,0,0,.65-.43l-.5-.51a1.22,1.22,0,0,1-.41.27,1.25,1.25,0,0,1-.46.09,1,1,0,0,1-.73-.26,1,1,0,0,1-.25-.71h2.46v-.26a2.87,2.87,0,0,0-.19-1.11A1.41,1.41,0,0,0,298.38,22.72Zm-1.74,1.45a1.26,1.26,0,0,1,.23-.72.85.85,0,0,1,.68-.29.68.68,0,0,1,.57.27,1.38,1.38,0,0,1,.25.74Z"/><path class="cls-3" d="M301.94,22.47a1.1,1.1,0,0,0-.63.2,1.31,1.31,0,0,0-.39.42v-.56h-.77v3.91h.77V24a.7.7,0,0,1,.77-.76.86.86,0,0,1,.36.07.64.64,0,0,1,.25.18l.5-.67a1,1,0,0,0-.38-.23A1.42,1.42,0,0,0,301.94,22.47Z"/><path class="cls-3" d="M304.31,21.39h-.77v1.14h-.4v.69h.4v2.2a1.2,1.2,0,0,0,.22.77.86.86,0,0,0,.7.27h.44v-.74h-.37a.19.19,0,0,1-.16-.07.36.36,0,0,1-.06-.22V23.22h.59v-.69h-.59Z"/><rect class="cls-3" x="305.96" y="20.96" width="0.77" height="0.77"/><rect class="cls-3" x="305.96" y="22.53" width="0.77" height="3.91"/><rect class="cls-3" x="307.76" y="22.49" width="0.81" height="0.81"/><rect class="cls-3" x="307.76" y="25.63" width="0.81" height="0.81"/><polygon class="cls-3" points="142.93 34.94 142.19 34.94 142.19 40.19 142.56 40.19 142.93 40.19 145.57 40.19 145.57 39.49 142.93 39.49 142.93 34.94"/><polygon class="cls-3" points="146.79 34.94 146.43 34.94 146.43 40.19 146.79 40.19 147.17 40.19 149.81 40.19 149.81 39.49 147.17 39.49 147.17 37.93 149.41 37.93 149.41 37.23 147.17 37.23 147.17 35.64 149.81 35.64 149.81 34.94 147.17 34.94 146.79 34.94"/><path class="cls-3" d="M152.29,34.94l-1.94,5.25h.8l.39-1.15h2.12l.4,1.15h.79l-1.93-5.25Zm-.51,3.4L152.6,36l.82,2.39Z"/><path class="cls-3" d="M158.39,35.16a2.39,2.39,0,0,0-1.08-.22h-1.66v5.25h1.66a2.39,2.39,0,0,0,1.08-.22,1.53,1.53,0,0,0,.69-.64,2.13,2.13,0,0,0,.23-1V36.82a2.13,2.13,0,0,0-.23-1A1.59,1.59,0,0,0,158.39,35.16Zm.17,3.18a1.12,1.12,0,0,1-.32.85,1.3,1.3,0,0,1-.91.3h-1V35.64h1a1.3,1.3,0,0,1,.91.3,1.13,1.13,0,0,1,.32.85Z"/><polygon class="cls-3" points="160.79 34.94 160.43 34.94 160.43 40.19 160.79 40.19 161.17 40.19 163.81 40.19 163.81 39.49 161.17 39.49 161.17 37.93 163.41 37.93 163.41 37.23 161.17 37.23 161.17 35.64 163.81 35.64 163.81 34.94 161.17 34.94 160.79 34.94"/><path class="cls-3" d="M167.73,37.78a1.26,1.26,0,0,0,.54-.53,1.6,1.6,0,0,0,.19-.8,1.57,1.57,0,0,0-.19-.79,1.31,1.31,0,0,0-.53-.54,1.71,1.71,0,0,0-.8-.18h-2.09v5.25h.74V38h1.1l1.12,2.22h.87l-1.21-2.31A.82.82,0,0,0,167.73,37.78Zm-2.14-2.14H167a.66.66,0,0,1,.37.1.68.68,0,0,1,.25.28,1,1,0,0,1,.09.43,1,1,0,0,1-.09.43.65.65,0,0,1-.25.29.66.66,0,0,1-.37.1h-1.38Z"/><path class="cls-3" d="M172.29,37.47a4.63,4.63,0,0,0-.8-.23h-.13l-.64-.16a.87.87,0,0,1-.38-.23.57.57,0,0,1-.15-.42h0a.74.74,0,0,1,.29-.61,1.45,1.45,0,0,1,.84-.21,1.81,1.81,0,0,1,.6.11,2.24,2.24,0,0,1,.6.33l.42-.59a3.12,3.12,0,0,0-.53-.3,2.55,2.55,0,0,0-.53-.18,2.67,2.67,0,0,0-.56-.06,2.57,2.57,0,0,0-1,.18,1.31,1.31,0,0,0-.63.52,1.49,1.49,0,0,0-.22.83h0a1.37,1.37,0,0,0,.23.86,1.19,1.19,0,0,0,.57.41,4.91,4.91,0,0,0,.86.21h.1a4,4,0,0,1,.58.15.93.93,0,0,1,.37.23.68.68,0,0,1,.14.44h0a.67.67,0,0,1-.31.6,1.6,1.6,0,0,1-.89.21,2.2,2.2,0,0,1-.78-.13,1.86,1.86,0,0,1-.66-.39l-.46.57a2.9,2.9,0,0,0,.55.36,2.59,2.59,0,0,0,.63.21,3.38,3.38,0,0,0,.72.08,2.66,2.66,0,0,0,1-.18,1.37,1.37,0,0,0,.89-1.34h0a1.21,1.21,0,0,0-.75-1.25Z"/><polygon class="cls-3" points="177 37.26 174.75 37.26 174.75 34.94 174.02 34.94 174.02 40.19 174.75 40.19 174.75 37.96 177 37.96 177 40.19 177.74 40.19 177.74 34.94 177 34.94 177 37.26"/><rect class="cls-3" x="179.04" y="34.94" width="0.74" height="5.25"/><path class="cls-3" d="M183.94,35.14a1.73,1.73,0,0,0-.83-.2h-2v5.25h.73v-2h1.3a1.72,1.72,0,0,0,.83-.19,1.37,1.37,0,0,0,.55-.57,1.86,1.86,0,0,0,0-1.68A1.32,1.32,0,0,0,183.94,35.14Zm-.1,1.88a.73.73,0,0,1-.28.32.78.78,0,0,1-.42.11h-1.33V35.64h1.33a.88.88,0,0,1,.42.11.87.87,0,0,1,.28.32,1.21,1.21,0,0,1,.09.48A1.13,1.13,0,0,1,183.84,37Z"/><path class="cls-3" d="M191.25,38.31V36.82a2.25,2.25,0,0,0-.22-1,1.68,1.68,0,0,0-.65-.67,1.94,1.94,0,0,0-1-.24,1.91,1.91,0,0,0-1,.24,1.61,1.61,0,0,0-.65.67,2.25,2.25,0,0,0-.23,1v1.49a2.22,2.22,0,0,0,.23,1,1.64,1.64,0,0,0,.65.68,1.91,1.91,0,0,0,1,.24,1.94,1.94,0,0,0,1-.24,1.54,1.54,0,0,0,.31-.25l.67.52.38-.49-.69-.54A2.2,2.2,0,0,0,191.25,38.31ZM190,39.37a1.16,1.16,0,0,1-1.14,0,.91.91,0,0,1-.39-.41,1.38,1.38,0,0,1-.13-.62V36.8a1.39,1.39,0,0,1,.13-.63,1,1,0,0,1,.39-.41,1.16,1.16,0,0,1,1.14,0,.94.94,0,0,1,.38.41,1.39,1.39,0,0,1,.14.63v1.54a1.42,1.42,0,0,1-.07.42l-.65-.51-.38.49.69.54A.48.48,0,0,1,190,39.37Z"/><path class="cls-3" d="M195.42,38.32a1.29,1.29,0,0,1-.29.89,1.08,1.08,0,0,1-.83.31,1,1,0,0,1-.81-.31,1.24,1.24,0,0,1-.29-.89V34.94h-.74v3.35a2.31,2.31,0,0,0,.22,1.06,1.51,1.51,0,0,0,.63.67,2,2,0,0,0,1,.23,2.12,2.12,0,0,0,1-.23,1.63,1.63,0,0,0,.63-.67,2.44,2.44,0,0,0,.21-1.06V34.94h-.73Z"/><path class="cls-3" d="M198.6,34.94l-1.94,5.25h.79l.4-1.15H200l.4,1.15h.79l-1.93-5.25Zm-.51,3.4.82-2.39.82,2.39Z"/><polygon class="cls-3" points="202.69 34.94 201.96 34.94 201.96 40.19 202.32 40.19 202.69 40.19 205.33 40.19 205.33 39.49 202.69 39.49 202.69 34.94"/><rect class="cls-3" x="206.2" y="34.94" width="0.74" height="5.25"/><polygon class="cls-3" points="207.8 35.64 209.29 35.64 209.29 40.19 210.03 40.19 210.03 35.64 211.51 35.64 211.51 34.94 207.8 34.94 207.8 35.64"/><polygon class="cls-3" points="214.88 34.94 213.73 37.31 212.58 34.94 211.76 34.94 213.36 38.06 213.36 40.19 214.1 40.19 214.1 38.06 215.7 34.94 214.88 34.94"/><circle class="cls-3" cx="138.8" cy="37.58" r="1.75"/><circle class="cls-3" cx="257.01" cy="37.58" r="1.75"/><polygon class="cls-3" points="264.85 38.77 263.81 34.95 263.16 34.95 262.12 38.77 261.32 34.95 260.43 34.95 261.67 40.21 262.52 40.21 263.51 36.54 264.46 40.21 265.3 40.21 266.55 34.95 265.65 34.95 264.85 38.77"/><path class="cls-3" d="M269.92,35.14a2.14,2.14,0,0,0-2,0,1.66,1.66,0,0,0-.66.68,2.08,2.08,0,0,0-.24,1v1.48a2.08,2.08,0,0,0,.24,1A1.66,1.66,0,0,0,268,40a2.14,2.14,0,0,0,2,0,1.6,1.6,0,0,0,.66-.68,2.08,2.08,0,0,0,.24-1V36.84a2.08,2.08,0,0,0-.24-1A1.6,1.6,0,0,0,269.92,35.14Zm0,3.21a1.2,1.2,0,0,1-.12.55.9.9,0,0,1-.35.37,1,1,0,0,1-.52.13,1,1,0,0,1-.53-.13.82.82,0,0,1-.34-.37,1.09,1.09,0,0,1-.13-.55V36.81a1.09,1.09,0,0,1,.13-.55.82.82,0,0,1,.34-.37,1,1,0,0,1,.53-.13,1,1,0,0,1,.52.13.9.9,0,0,1,.35.37,1.2,1.2,0,0,1,.12.55Z"/><path class="cls-3" d="M274.84,37.85a1.35,1.35,0,0,0,.52-.54,1.84,1.84,0,0,0,0-1.63,1.35,1.35,0,0,0-.52-.54,1.5,1.5,0,0,0-.78-.19h-2.19v5.26h.86V38h.85l1.15,2.17h1L274.53,38A1.66,1.66,0,0,0,274.84,37.85Zm-2.11-2.07H274a.6.6,0,0,1,.33.09.58.58,0,0,1,.21.25.87.87,0,0,1,.08.37.89.89,0,0,1-.08.38.54.54,0,0,1-.22.25.57.57,0,0,1-.32.09h-1.3Z"/><polygon class="cls-3" points="280.57 34.95 279.49 34.95 277.55 37.65 277.55 34.95 276.69 34.95 276.69 40.21 277.55 40.21 277.55 38.88 278.36 37.83 279.75 40.21 280.79 40.21 278.94 37.07 280.57 34.95"/><rect class="cls-3" x="281.47" y="34.95" width="0.88" height="5.25"/><polygon class="cls-3" points="286.66 38.84 284.49 34.95 283.55 34.95 283.55 40.2 284.38 40.2 284.38 36.38 286.55 40.2 287.5 40.2 287.5 34.95 286.66 34.95 286.66 38.84"/><path class="cls-3" d="M290.57,38.15h.93v.16a1.31,1.31,0,0,1-.12.58.82.82,0,0,1-.34.37,1,1,0,0,1-.52.13,1.12,1.12,0,0,1-.53-.12.91.91,0,0,1-.36-.34,1.08,1.08,0,0,1-.12-.52V36.86a1.26,1.26,0,0,1,.12-.57.86.86,0,0,1,.35-.38,1,1,0,0,1,.51-.14,1.1,1.1,0,0,1,.4.08,1.07,1.07,0,0,1,.33.24,1,1,0,0,1,.2.37h.93a2,2,0,0,0-.36-.82,1.73,1.73,0,0,0-.65-.55,1.86,1.86,0,0,0-.85-.19,2,2,0,0,0-1,.24,1.82,1.82,0,0,0-.66.69,2.26,2.26,0,0,0-.23,1v1.55a1.91,1.91,0,0,0,.24,1,1.59,1.59,0,0,0,.66.65,2.14,2.14,0,0,0,1,.23,2,2,0,0,0,1-.24,1.82,1.82,0,0,0,.66-.69,2.26,2.26,0,0,0,.23-1v-1h-1.82Z"/><path class="cls-3" d="M298.31,37.43a5,5,0,0,0-.81-.24h-.14l-.59-.14a.84.84,0,0,1-.35-.22.53.53,0,0,1-.14-.39h0a.59.59,0,0,1,.27-.52,1.39,1.39,0,0,1,.77-.18,2,2,0,0,1,.62.11,3.11,3.11,0,0,1,.62.33l.41-.71a3,3,0,0,0-.52-.3,3.08,3.08,0,0,0-.56-.19,2.76,2.76,0,0,0-.57-.06,2.59,2.59,0,0,0-1,.18,1.46,1.46,0,0,0-.65.54,1.56,1.56,0,0,0-.23.85h0a1.41,1.41,0,0,0,.24.87,1.28,1.28,0,0,0,.58.43,5.42,5.42,0,0,0,.87.2h.11l.53.12a.82.82,0,0,1,.34.21.56.56,0,0,1,.13.39h0a.58.58,0,0,1-.29.53,1.44,1.44,0,0,1-.82.19,2.4,2.4,0,0,1-.8-.13,2.19,2.19,0,0,1-.68-.39l-.46.69a3,3,0,0,0,.56.36,3.16,3.16,0,0,0,1.38.29,2.85,2.85,0,0,0,1.07-.18,1.49,1.49,0,0,0,.67-.53,1.56,1.56,0,0,0,.23-.85h0a1.36,1.36,0,0,0-.22-.83A1.3,1.3,0,0,0,298.31,37.43Z"/><polygon class="cls-3" points="299.33 35.78 300.79 35.78 300.79 40.21 301.65 40.21 301.65 35.78 303.11 35.78 303.11 34.95 299.33 34.95 299.33 35.78"/><polygon class="cls-3" points="305.3 37.27 304.22 34.95 303.29 34.95 304.87 38.13 304.87 40.21 305.73 40.21 305.73 38.13 307.3 34.95 306.37 34.95 305.3 37.27"/><polygon class="cls-3" points="308.67 34.95 307.81 34.95 307.81 40.21 308.21 40.21 308.67 40.21 311.25 40.21 311.25 39.38 308.67 39.38 308.67 34.95"/><polygon class="cls-3" points="315.5 35.78 315.5 34.95 312.91 34.95 312.41 34.95 312.05 34.95 312.05 40.21 312.41 40.21 312.91 40.21 315.5 40.21 315.5 39.38 312.91 39.38 312.91 38.01 315.1 38.01 315.1 37.19 312.91 37.19 312.91 35.78 315.5 35.78"/><polygon class="cls-3" points="142.55 46.89 142.19 46.89 142.19 52.14 142.55 52.14 142.93 52.14 145.57 52.14 145.57 51.44 142.93 51.44 142.93 49.88 145.17 49.88 145.17 49.18 142.93 49.18 142.93 47.59 145.57 47.59 145.57 46.89 142.93 46.89 142.55 46.89"/><polygon class="cls-3" points="148.85 50.36 147.31 46.89 146.61 46.89 146.61 52.14 147.33 52.14 147.33 48.59 148.59 51.41 149.1 51.41 150.36 48.52 150.36 52.14 151.08 52.14 151.08 46.89 150.39 46.89 148.85 50.36"/><path class="cls-3" d="M155.24,47.09a1.58,1.58,0,0,0-.82-.2h-2v5.25h.74v-2h1.3a1.58,1.58,0,0,0,.82-.2,1.37,1.37,0,0,0,.56-.56,1.74,1.74,0,0,0,.19-.84,1.8,1.8,0,0,0-.19-.85A1.37,1.37,0,0,0,155.24,47.09Zm-.1,1.88a.73.73,0,0,1-.28.32.82.82,0,0,1-.42.11h-1.32V47.59h1.32a.82.82,0,0,1,.42.11.8.8,0,0,1,.28.32,1.06,1.06,0,0,1,.1.48A1,1,0,0,1,155.14,49Z"/><polygon class="cls-3" points="157.65 46.89 156.91 46.89 156.91 52.14 157.28 52.14 157.65 52.14 160.29 52.14 160.29 51.44 157.65 51.44 157.65 46.89"/><path class="cls-3" d="M163.72,47.07a2.08,2.08,0,0,0-1.94,0,1.7,1.7,0,0,0-.65.68,2.22,2.22,0,0,0-.23,1v1.49a2.25,2.25,0,0,0,.23,1,1.68,1.68,0,0,0,.65.67,2.08,2.08,0,0,0,1.94,0,1.68,1.68,0,0,0,.65-.67,2.25,2.25,0,0,0,.23-1V48.77a2.22,2.22,0,0,0-.23-1A1.7,1.7,0,0,0,163.72,47.07Zm.12,3.21a1.39,1.39,0,0,1-.13.63,1,1,0,0,1-.39.41,1.16,1.16,0,0,1-1.14,0,1,1,0,0,1-.39-.41,1.39,1.39,0,0,1-.13-.63V48.74a1.38,1.38,0,0,1,.13-.62,1,1,0,0,1,.39-.41,1.16,1.16,0,0,1,1.14,0,.91.91,0,0,1,.39.41,1.38,1.38,0,0,1,.13.62Z"/><polygon class="cls-3" points="168.15 46.89 167 49.26 165.85 46.89 165.03 46.89 166.63 50.01 166.63 52.14 167.37 52.14 167.37 50.01 168.97 46.89 168.15 46.89"/><path class="cls-3" d="M170.62,46.89l-1.94,5.25h.79l.4-1.15H172l.4,1.15h.79l-1.93-5.25Zm-.51,3.4.82-2.39.82,2.39Z"/><path class="cls-3" d="M177.17,49.67a1.19,1.19,0,0,0-.54-.22,1.28,1.28,0,0,0,.53-.23,1,1,0,0,0,.32-.4,1.25,1.25,0,0,0,.1-.51,1.52,1.52,0,0,0-.17-.76,1.15,1.15,0,0,0-.51-.49,1.82,1.82,0,0,0-.85-.17H174v5.25h2.13a1.8,1.8,0,0,0,.82-.18,1.17,1.17,0,0,0,.53-.5,1.44,1.44,0,0,0,.19-.75h0a1.4,1.4,0,0,0-.12-.58A1.13,1.13,0,0,0,177.17,49.67Zm-1.26-2.1a1.08,1.08,0,0,1,.7.2.72.72,0,0,1,.23.58.74.74,0,0,1-.21.57.87.87,0,0,1-.62.19h-1.3V47.57Zm1,3.07a.74.74,0,0,1-.26.6,1.22,1.22,0,0,1-.82.22h-1.12V49.78H176a1.08,1.08,0,0,1,.51.1.6.6,0,0,1,.29.3.91.91,0,0,1,.1.45Z"/><rect class="cls-3" x="178.75" y="46.89" width="0.74" height="5.25"/><polygon class="cls-3" points="181.53 46.89 180.79 46.89 180.79 52.14 181.16 52.14 181.53 52.14 184.17 52.14 184.17 51.44 181.53 51.44 181.53 46.89"/><rect class="cls-3" x="185.03" y="46.89" width="0.74" height="5.25"/><polygon class="cls-3" points="186.64 47.59 188.12 47.59 188.12 52.14 188.86 52.14 188.86 47.59 190.34 47.59 190.34 46.89 186.64 46.89 186.64 47.59"/><polygon class="cls-3" points="192.57 49.26 191.42 46.89 190.6 46.89 192.2 50.01 192.2 52.14 192.94 52.14 192.94 50.01 194.53 46.89 193.72 46.89 192.57 49.26"/><path class="cls-3" d="M198.5,46.89l-1.94,5.25h.79l.4-1.15h2.12l.4,1.15h.79l-1.94-5.25Zm-.51,3.4.82-2.39.82,2.39Z"/><path class="cls-3" d="M204.33,49.42a4.08,4.08,0,0,0-.8-.23h-.14a4.94,4.94,0,0,1-.63-.15,1,1,0,0,1-.39-.23.59.59,0,0,1-.15-.43h0a.71.71,0,0,1,.3-.61,1.45,1.45,0,0,1,.84-.21,1.54,1.54,0,0,1,.59.11,2.24,2.24,0,0,1,.6.33l.42-.59a3,3,0,0,0-.52-.3,3.86,3.86,0,0,0-.54-.19,2.57,2.57,0,0,0-.55-.06,2.53,2.53,0,0,0-1,.18,1.4,1.4,0,0,0-.64.53,1.49,1.49,0,0,0-.22.83h0a1.32,1.32,0,0,0,.24.85,1.21,1.21,0,0,0,.56.42,5.26,5.26,0,0,0,.86.2h.1a3.81,3.81,0,0,1,.58.14,1,1,0,0,1,.37.24.63.63,0,0,1,.15.44h0a.68.68,0,0,1-.32.6,1.57,1.57,0,0,1-.88.21A2.13,2.13,0,0,1,201.7,51l-.46.56a2.79,2.79,0,0,0,.55.37,3.2,3.2,0,0,0,.64.21,3.26,3.26,0,0,0,.72.07,2.73,2.73,0,0,0,1-.17,1.45,1.45,0,0,0,.66-.52,1.49,1.49,0,0,0,.22-.83h0a1.4,1.4,0,0,0-.21-.82A1.22,1.22,0,0,0,204.33,49.42Z"/><path class="cls-3" d="M208.91,47.09a1.6,1.6,0,0,0-.83-.2h-2v5.25h.74v-2h1.29a1.6,1.6,0,0,0,.83-.2,1.37,1.37,0,0,0,.56-.56,1.74,1.74,0,0,0,.19-.84,1.8,1.8,0,0,0-.19-.85A1.37,1.37,0,0,0,208.91,47.09Zm-.1,1.88a.73.73,0,0,1-.28.32.82.82,0,0,1-.42.11h-1.32V47.59h1.32a.82.82,0,0,1,.42.11.8.8,0,0,1,.28.32,1.06,1.06,0,0,1,.1.48A1,1,0,0,1,208.81,49Z"/><polygon class="cls-3" points="210.94 46.89 210.59 46.89 210.59 52.14 210.94 52.14 211.32 52.14 213.96 52.14 213.96 51.44 211.32 51.44 211.32 49.88 213.56 49.88 213.56 49.18 211.32 49.18 211.32 47.59 213.96 47.59 213.96 46.89 211.32 46.89 210.94 46.89"/><path class="cls-3" d="M215.79,48.14a1,1,0,0,1,.37-.43,1,1,0,0,1,.57-.16,1.06,1.06,0,0,1,.45.11,1.16,1.16,0,0,1,.37.29,1.1,1.1,0,0,1,.23.44h.76a2.08,2.08,0,0,0-.35-.82,1.82,1.82,0,0,0-.63-.54,1.78,1.78,0,0,0-.83-.2,1.76,1.76,0,0,0-1,.25,1.59,1.59,0,0,0-.64.69,2.08,2.08,0,0,0-.23,1v1.45a2.14,2.14,0,0,0,.23,1,1.62,1.62,0,0,0,.64.68,1.85,1.85,0,0,0,1,.24,1.74,1.74,0,0,0,.82-.19,1.7,1.7,0,0,0,.64-.55,2,2,0,0,0,.35-.82h-.76a1.05,1.05,0,0,1-.23.46,1,1,0,0,1-.37.29,1.22,1.22,0,0,1-.45.1,1.08,1.08,0,0,1-.57-.16,1,1,0,0,1-.37-.43,1.51,1.51,0,0,1-.14-.65V48.79A1.51,1.51,0,0,1,215.79,48.14Z"/><polygon class="cls-3" points="218.86 47.59 220.35 47.59 220.35 52.14 221.09 52.14 221.09 47.59 222.57 47.59 222.57 46.89 218.86 46.89 218.86 47.59"/><path class="cls-3" d="M226.44,49.85a1.22,1.22,0,0,0-.53-.43,4.08,4.08,0,0,0-.8-.23H225a4.76,4.76,0,0,1-.64-.15,1,1,0,0,1-.38-.23.56.56,0,0,1-.16-.43h0a.71.71,0,0,1,.3-.61,1.45,1.45,0,0,1,.84-.21,1.51,1.51,0,0,1,.59.11,2.24,2.24,0,0,1,.6.33l.42-.59a3,3,0,0,0-.52-.3,3.86,3.86,0,0,0-.54-.19,2.57,2.57,0,0,0-.55-.06,2.53,2.53,0,0,0-1,.18,1.4,1.4,0,0,0-.64.53,1.49,1.49,0,0,0-.22.83h0a1.32,1.32,0,0,0,.24.85,1.21,1.21,0,0,0,.56.42,5.26,5.26,0,0,0,.86.2h.1a4.31,4.31,0,0,1,.59.14,1,1,0,0,1,.36.24.63.63,0,0,1,.15.44h0a.68.68,0,0,1-.32.6,1.57,1.57,0,0,1-.88.21,2.13,2.13,0,0,1-1.45-.52l-.46.56a2.79,2.79,0,0,0,.55.37,3.2,3.2,0,0,0,.64.21,3.26,3.26,0,0,0,.72.07,2.73,2.73,0,0,0,1-.17,1.45,1.45,0,0,0,.66-.52,1.5,1.5,0,0,0,.23-.83h0A1.4,1.4,0,0,0,226.44,49.85Z"/><circle class="cls-3" cx="138.8" cy="49.51" r="1.75"/><path class="cls-3" d="M263.29,47.09a1.73,1.73,0,0,0-.83-.2h-2v5.26h.73v-2h1.3a1.73,1.73,0,0,0,.83-.2,1.35,1.35,0,0,0,.55-.56,1.78,1.78,0,0,0,.2-.85,1.74,1.74,0,0,0-.2-.84A1.44,1.44,0,0,0,263.29,47.09Zm-.1,1.89a.87.87,0,0,1-.28.32.82.82,0,0,1-.42.11h-1.33V47.59h1.33a.76.76,0,0,1,.7.44,1.12,1.12,0,0,1,.1.47A1.21,1.21,0,0,1,263.19,49Z"/><polygon class="cls-3" points="265.32 46.89 264.96 46.89 264.96 52.15 265.32 52.15 265.7 52.15 268.34 52.15 268.34 51.45 265.7 51.45 265.7 49.89 267.94 49.89 267.94 49.19 265.7 49.19 265.7 47.59 268.34 47.59 268.34 46.89 265.7 46.89 265.32 46.89"/><path class="cls-3" d="M272.27,49.74a1.38,1.38,0,0,0,.53-.54,1.57,1.57,0,0,0,.19-.79,1.6,1.6,0,0,0-.19-.8,1.23,1.23,0,0,0-.53-.53,1.6,1.6,0,0,0-.8-.19h-2.09v5.26h.74V49.92h1.1l1.12,2.23h.87L272,49.84Zm-2.15-2.15h1.38a.66.66,0,0,1,.37.1.65.65,0,0,1,.25.29,1,1,0,0,1,.09.43.93.93,0,0,1-.09.42.65.65,0,0,1-.25.29.66.66,0,0,1-.37.1h-1.38Z"/><path class="cls-3" d="M276.82,49.43a4.69,4.69,0,0,0-.79-.24h-.14c-.27-.05-.48-.11-.64-.15a1,1,0,0,1-.38-.23.61.61,0,0,1-.15-.43h0a.69.69,0,0,1,.3-.61,1.32,1.32,0,0,1,.83-.22,1.81,1.81,0,0,1,.6.11,3,3,0,0,1,.6.33l.42-.58a2.61,2.61,0,0,0-.53-.31,2.55,2.55,0,0,0-.53-.18,2.67,2.67,0,0,0-.56-.06,2.57,2.57,0,0,0-1,.18,1.31,1.31,0,0,0-.63.52,1.5,1.5,0,0,0-.22.84h0a1.42,1.42,0,0,0,.23.86,1.19,1.19,0,0,0,.57.41,4.91,4.91,0,0,0,.86.21h.1a3.81,3.81,0,0,1,.58.14.85.85,0,0,1,.37.24.65.65,0,0,1,.14.43h0a.7.7,0,0,1-.31.6,1.6,1.6,0,0,1-.89.21,2.45,2.45,0,0,1-.78-.13,2.21,2.21,0,0,1-.66-.39l-.46.56a2.9,2.9,0,0,0,.55.36,2.77,2.77,0,0,0,.63.22,3.38,3.38,0,0,0,.72.07,2.66,2.66,0,0,0,1-.18,1.37,1.37,0,0,0,.89-1.34h0a1.39,1.39,0,0,0-.21-.81A1.18,1.18,0,0,0,276.82,49.43Z"/><path class="cls-3" d="M281.18,47.08a1.91,1.91,0,0,0-1-.24,1.94,1.94,0,0,0-1,.24,1.68,1.68,0,0,0-.64.68,2.06,2.06,0,0,0-.23,1v1.49a2.08,2.08,0,0,0,.23,1,1.68,1.68,0,0,0,.64.68,1.94,1.94,0,0,0,1,.24,1.91,1.91,0,0,0,1-.24,1.64,1.64,0,0,0,.65-.68,2.19,2.19,0,0,0,.23-1V48.77a2.18,2.18,0,0,0-.23-1A1.64,1.64,0,0,0,281.18,47.08Zm.12,3.21a1.38,1.38,0,0,1-.13.62,1,1,0,0,1-.38.42,1.11,1.11,0,0,1-.58.14,1.1,1.1,0,0,1-.57-.14,1,1,0,0,1-.38-.42,1.38,1.38,0,0,1-.14-.62V48.75a1.35,1.35,0,0,1,.14-.62,1,1,0,0,1,.38-.42,1.18,1.18,0,0,1,1.15,0,1,1,0,0,1,.38.42,1.35,1.35,0,0,1,.13.62Z"/><polygon class="cls-3" points="286.33 50.82 283.85 46.89 283.18 46.89 283.18 52.14 283.91 52.14 283.91 48.28 286.38 52.14 287.06 52.14 287.06 46.89 286.33 46.89 286.33 50.82"/><path class="cls-3" d="M289.72,46.89l-1.94,5.26h.8L289,51h2.12l.4,1.16h.79l-1.93-5.26Zm-.51,3.4.82-2.38.82,2.38Z"/><polygon class="cls-3" points="293.82 46.89 293.08 46.89 293.08 52.15 293.45 52.15 293.82 52.15 296.45 52.15 296.45 51.45 293.82 51.45 293.82 46.89"/><path class="cls-3" d="M302.17,47.09a1.7,1.7,0,0,0-.83-.2h-2v5.26h.74v-2h1.29a1.7,1.7,0,0,0,.83-.2,1.35,1.35,0,0,0,.55-.56,1.67,1.67,0,0,0,.2-.85,1.63,1.63,0,0,0-.2-.84A1.44,1.44,0,0,0,302.17,47.09Zm-.1,1.89a.87.87,0,0,1-.28.32.82.82,0,0,1-.42.11h-1.32V47.59h1.32a.76.76,0,0,1,.7.44,1.12,1.12,0,0,1,.1.47A1.21,1.21,0,0,1,302.07,49Z"/><path class="cls-3" d="M306.55,47.08a2.08,2.08,0,0,0-1.94,0,1.7,1.7,0,0,0-.65.68,2.18,2.18,0,0,0-.23,1v1.49a2.19,2.19,0,0,0,.23,1,1.7,1.7,0,0,0,.65.68,2.08,2.08,0,0,0,1.94,0,1.7,1.7,0,0,0,.65-.68,2.19,2.19,0,0,0,.23-1V48.77a2.18,2.18,0,0,0-.23-1A1.7,1.7,0,0,0,306.55,47.08Zm.12,3.21a1.38,1.38,0,0,1-.13.62,1,1,0,0,1-.39.42,1.08,1.08,0,0,1-1.53-.42,1.38,1.38,0,0,1-.13-.62V48.75a1.35,1.35,0,0,1,.13-.62,1.11,1.11,0,0,1,1.53-.42,1,1,0,0,1,.39.42,1.35,1.35,0,0,1,.13.62Z"/><polygon class="cls-3" points="307.9 47.59 309.38 47.59 309.38 52.15 310.12 52.15 310.12 47.59 311.6 47.59 311.6 46.89 307.9 46.89 307.9 47.59"/><polygon class="cls-3" points="312.68 46.89 312.33 46.89 312.33 52.15 312.68 52.15 313.06 52.15 315.7 52.15 315.7 51.45 313.06 51.45 313.06 49.89 315.3 49.89 315.3 49.19 313.06 49.19 313.06 47.59 315.7 47.59 315.7 46.89 313.06 46.89 312.68 46.89"/><polygon class="cls-3" points="319.9 50.82 317.42 46.89 316.75 46.89 316.75 52.14 317.48 52.14 317.48 48.28 319.95 52.14 320.63 52.14 320.63 46.89 319.9 46.89 319.9 50.82"/><polygon class="cls-3" points="321.5 47.59 322.98 47.59 322.98 52.15 323.72 52.15 323.72 47.59 325.2 47.59 325.2 46.89 321.5 46.89 321.5 47.59"/><rect class="cls-3" x="325.93" y="46.89" width="0.74" height="5.25"/><path class="cls-3" d="M329.32,46.89l-1.93,5.26h.79l.4-1.16h2.12l.39,1.16h.8L330,46.89Zm-.5,3.4.82-2.38.82,2.38Z"/><polygon class="cls-3" points="333.42 46.89 332.68 46.89 332.68 52.15 333.05 52.15 333.42 52.15 336.06 52.15 336.06 51.45 333.42 51.45 333.42 46.89"/><rect class="cls-3" x="338.91" y="46.89" width="0.74" height="5.25"/><polygon class="cls-3" points="344.1 50.82 341.62 46.89 340.95 46.89 340.95 52.14 341.68 52.14 341.68 48.28 344.15 52.14 344.83 52.14 344.83 46.89 344.1 46.89 344.1 50.82"/><polygon class="cls-3" points="350.92 49.06 350.2 49.06 350.2 50.66 348.74 50.66 350.46 46.9 349.7 46.9 347.94 50.7 347.94 51.34 350.2 51.34 350.2 52.15 350.92 52.15 350.92 51.34 351.32 51.34 351.32 50.66 350.92 50.66 350.92 49.06"/><rect class="cls-3" x="352.13" y="51.37" width="0.77" height="0.77"/><path class="cls-3" d="M355.18,46.83a1.51,1.51,0,0,0-1.12.39,1.53,1.53,0,0,0-.38,1.1v2.39a1.55,1.55,0,0,0,.38,1.1,1.5,1.5,0,0,0,1.12.39,1.47,1.47,0,0,0,1.11-.39,1.49,1.49,0,0,0,.39-1.1V48.32a1.53,1.53,0,0,0-.38-1.1A1.51,1.51,0,0,0,355.18,46.83Zm.76,3.88a.84.84,0,0,1-.19.59.74.74,0,0,1-.57.2.78.78,0,0,1-.58-.2.89.89,0,0,1-.18-.59V48.32a.87.87,0,0,1,.18-.59.77.77,0,0,1,.58-.2.78.78,0,0,1,.58.2.87.87,0,0,1,.18.59Z"/><polygon class="cls-3" points="360.21 46.89 359.86 46.89 359.86 52.15 360.21 52.15 360.59 52.15 363.23 52.15 363.23 51.45 360.59 51.45 360.59 49.89 362.83 49.89 362.83 49.19 360.59 49.19 360.59 47.59 363.23 47.59 363.23 46.89 360.59 46.89 360.21 46.89"/><path class="cls-3" d="M367.16,49.74a1.4,1.4,0,0,0,.54-.54,1.57,1.57,0,0,0,.19-.79,1.6,1.6,0,0,0-.19-.8,1.31,1.31,0,0,0-.54-.53,1.58,1.58,0,0,0-.8-.19h-2.08v5.26H365V49.92h1.09l1.13,2.23h.87l-1.22-2.31A1.69,1.69,0,0,0,367.16,49.74ZM365,47.59h1.37a.67.67,0,0,1,.38.1A.72.72,0,0,1,367,48a1,1,0,0,1,.09.43.93.93,0,0,1-.09.42.72.72,0,0,1-.25.29.7.7,0,0,1-.38.1H365Z"/><path class="cls-3" d="M372.12,52.15h.8L371,46.89h-.63l-1.93,5.26h.79l.4-1.16h2.12Zm-2.27-1.86.82-2.38.82,2.38Z"/><circle class="cls-3" cx="257.01" cy="49.51" r="1.75"/><polygon class="cls-3" points="142.55 58.83 142.19 58.83 142.19 64.08 142.55 64.08 142.93 64.08 145.57 64.08 145.57 63.38 142.93 63.38 142.93 61.82 145.17 61.82 145.17 61.12 142.93 61.12 142.93 59.53 145.57 59.53 145.57 58.83 142.93 58.83 142.55 58.83"/><polygon class="cls-3" points="149.76 62.75 147.28 58.83 146.61 58.83 146.61 64.08 147.34 64.08 147.34 60.21 149.82 64.08 150.5 64.08 150.5 58.83 149.76 58.83 149.76 62.75"/><polygon class="cls-3" points="151.36 59.53 152.85 59.53 152.85 64.08 153.58 64.08 153.58 59.53 155.07 59.53 155.07 58.83 151.36 58.83 151.36 59.53"/><path class="cls-3" d="M158.67,61.67a1.31,1.31,0,0,0,.54-.53,1.78,1.78,0,0,0,0-1.6,1.29,1.29,0,0,0-.53-.53,1.72,1.72,0,0,0-.8-.19h-2.09v5.26h.74V61.86h1.1l1.12,2.22h.87l-1.21-2.31A1.17,1.17,0,0,0,158.67,61.67Zm-2.14-2.14h1.38a.66.66,0,0,1,.37.1.62.62,0,0,1,.25.28,1,1,0,0,1,.09.43,1,1,0,0,1-.09.43.71.71,0,0,1-.25.29.76.76,0,0,1-.37.1h-1.38Z"/><polygon class="cls-3" points="160.97 58.83 160.62 58.83 160.62 64.08 160.97 64.08 161.35 64.08 163.99 64.08 163.99 63.38 161.35 63.38 161.35 61.82 163.59 61.82 163.59 61.12 161.35 61.12 161.35 59.53 163.99 59.53 163.99 58.83 161.35 58.83 160.97 58.83"/><path class="cls-3" d="M167.9,59a1.6,1.6,0,0,0-.83-.2h-2v5.25h.73V62h1.3a1.6,1.6,0,0,0,.83-.2,1.35,1.35,0,0,0,.55-.56,1.63,1.63,0,0,0,.2-.84,1.7,1.7,0,0,0-.2-.85A1.35,1.35,0,0,0,167.9,59Zm-.1,1.88a.73.73,0,0,1-.7.43h-1.33V59.53h1.33a.82.82,0,0,1,.42.11.8.8,0,0,1,.28.32,1.21,1.21,0,0,1,.1.48A1.12,1.12,0,0,1,167.8,60.91Z"/><path class="cls-3" d="M172.45,61.67a1.31,1.31,0,0,0,.54-.53,1.78,1.78,0,0,0,0-1.6,1.29,1.29,0,0,0-.53-.53,1.72,1.72,0,0,0-.8-.19h-2.09v5.26h.74V61.86h1.1l1.12,2.22h.87l-1.21-2.31A1.17,1.17,0,0,0,172.45,61.67Zm-2.14-2.14h1.38a.66.66,0,0,1,.37.1.62.62,0,0,1,.25.28,1,1,0,0,1,.09.43,1,1,0,0,1-.09.43.71.71,0,0,1-.25.29.76.76,0,0,1-.37.1h-1.38Z"/><polygon class="cls-3" points="174.75 58.83 174.4 58.83 174.4 64.08 174.75 64.08 175.13 64.08 177.77 64.08 177.77 63.38 175.13 63.38 175.13 61.82 177.37 61.82 177.37 61.12 175.13 61.12 175.13 59.53 177.77 59.53 177.77 58.83 175.13 58.83 174.75 58.83"/><polygon class="cls-3" points="181.97 62.75 179.49 58.83 178.82 58.83 178.82 64.08 179.55 64.08 179.55 60.21 182.02 64.08 182.7 64.08 182.7 58.83 181.97 58.83 181.97 62.75"/><polygon class="cls-3" points="184.36 58.83 184 58.83 184 64.08 184.36 64.08 184.74 64.08 187.37 64.08 187.37 63.38 184.74 63.38 184.74 61.82 186.98 61.82 186.98 61.12 184.74 61.12 184.74 59.53 187.37 59.53 187.37 58.83 184.74 58.83 184.36 58.83"/><path class="cls-3" d="M191.31,62.21a1.2,1.2,0,0,1-.3.88,1.2,1.2,0,0,1-1.63,0,1.2,1.2,0,0,1-.29-.88V58.83h-.74v3.35a2.33,2.33,0,0,0,.22,1.06,1.51,1.51,0,0,0,.63.67,2,2,0,0,0,1,.23,2.05,2.05,0,0,0,1-.23,1.59,1.59,0,0,0,.64-.67,2.47,2.47,0,0,0,.21-1.06V58.83h-.73Z"/><path class="cls-3" d="M196.08,61.67a1.31,1.31,0,0,0,.54-.53,1.78,1.78,0,0,0,0-1.6,1.38,1.38,0,0,0-.54-.53,1.69,1.69,0,0,0-.8-.19H193.2v5.26h.74V61.86H195l1.12,2.22H197l-1.22-2.31A1.25,1.25,0,0,0,196.08,61.67Zm-2.14-2.14h1.37a.7.7,0,0,1,.38.1.69.69,0,0,1,.25.28,1.18,1.18,0,0,1,.08.43,1.14,1.14,0,0,1-.08.43.68.68,0,0,1-.63.39h-1.37Z"/><rect class="cls-3" x="198.02" y="58.83" width="0.74" height="5.25"/><path class="cls-3" d="M201.42,58.83l-1.94,5.25h.8l.39-1.15h2.12l.4,1.15H204l-1.93-5.25Zm-.51,3.4.82-2.39.82,2.39Z"/><polygon class="cls-3" points="205.52 58.83 204.78 58.83 204.78 64.08 205.15 64.08 205.52 64.08 208.15 64.08 208.15 63.38 205.52 63.38 205.52 58.83"/><path class="cls-3" d="M213.89,61.67a1.31,1.31,0,0,0,.54-.53,1.78,1.78,0,0,0,0-1.6,1.38,1.38,0,0,0-.54-.53,1.69,1.69,0,0,0-.8-.19H211v5.26h.73V61.86h1.1L214,64.08h.88l-1.22-2.31A1.25,1.25,0,0,0,213.89,61.67Zm-2.15-2.14h1.38a.7.7,0,0,1,.38.1.6.6,0,0,1,.24.28,1,1,0,0,1,.09.43,1,1,0,0,1-.09.43.64.64,0,0,1-.25.29.73.73,0,0,1-.37.1h-1.38Z"/><polygon class="cls-3" points="216.19 58.83 215.83 58.83 215.83 64.08 216.19 64.08 216.57 64.08 219.21 64.08 219.21 63.38 216.57 63.38 216.57 61.82 218.81 61.82 218.81 61.12 216.57 61.12 216.57 59.53 219.21 59.53 219.21 58.83 216.57 58.83 216.19 58.83"/><path class="cls-3" d="M221.68,58.83l-1.93,5.25h.79l.4-1.15h2.12l.39,1.15h.8l-1.94-5.25Zm-.5,3.4.82-2.39.82,2.39Z"/><path class="cls-3" d="M227.79,59.05a2.39,2.39,0,0,0-1.08-.22H225v5.25h1.67a2.39,2.39,0,0,0,1.08-.22,1.51,1.51,0,0,0,.68-.64,2,2,0,0,0,.24-1V60.71a2,2,0,0,0-.24-1A1.51,1.51,0,0,0,227.79,59.05Zm.16,3.18a1.09,1.09,0,0,1-.32.85,1.25,1.25,0,0,1-.9.3h-.95V59.53h.95a1.25,1.25,0,0,1,.9.3,1.09,1.09,0,0,1,.32.85Z"/><rect class="cls-3" x="229.83" y="58.83" width="0.74" height="5.25"/><polygon class="cls-3" points="235.02 62.75 232.53 58.83 231.87 58.83 231.87 64.08 232.6 64.08 232.6 60.21 235.07 64.08 235.75 64.08 235.75 58.83 235.02 58.83 235.02 62.75"/><polygon class="cls-3" points="237.41 58.83 237.05 58.83 237.05 64.08 237.41 64.08 237.78 64.08 240.42 64.08 240.42 63.38 237.78 63.38 237.78 61.82 240.03 61.82 240.03 61.12 237.78 61.12 237.78 59.53 240.42 59.53 240.42 58.83 237.78 58.83 237.41 58.83"/><path class="cls-3" d="M244.23,61.36a3.88,3.88,0,0,0-.8-.23h-.13a5.17,5.17,0,0,1-.64-.15,1,1,0,0,1-.38-.23.58.58,0,0,1-.16-.43h0a.71.71,0,0,1,.3-.61,1.45,1.45,0,0,1,.84-.21,1.59,1.59,0,0,1,.6.11,2.19,2.19,0,0,1,.59.33l.42-.59a3,3,0,0,0-.52-.3,3.46,3.46,0,0,0-.54-.19,2.51,2.51,0,0,0-.55-.06,2.57,2.57,0,0,0-1,.18,1.4,1.4,0,0,0-.64.53,1.58,1.58,0,0,0-.22.83h0a1.32,1.32,0,0,0,.24.85,1.19,1.19,0,0,0,.56.42,5.26,5.26,0,0,0,.86.2h.06s0,0,0,0h0a5.83,5.83,0,0,1,.59.14,1.08,1.08,0,0,1,.37.24.68.68,0,0,1,.14.44h0a.68.68,0,0,1-.32.6,1.57,1.57,0,0,1-.88.21,2.3,2.3,0,0,1-.79-.13,2.21,2.21,0,0,1-.66-.39l-.46.57a3.33,3.33,0,0,0,.56.36,2.46,2.46,0,0,0,.63.21,3.38,3.38,0,0,0,.72.08,2.69,2.69,0,0,0,1-.18,1.45,1.45,0,0,0,.66-.52,1.5,1.5,0,0,0,.23-.83h0a1.33,1.33,0,0,0-.22-.82A1.22,1.22,0,0,0,244.23,61.36Z"/><path class="cls-3" d="M249.18,61.79a1.31,1.31,0,0,0-.54-.43,3.88,3.88,0,0,0-.8-.23h-.13a5.66,5.66,0,0,1-.64-.15,1,1,0,0,1-.38-.23.58.58,0,0,1-.15-.43h0a.72.72,0,0,1,.29-.61,1.45,1.45,0,0,1,.84-.21,1.59,1.59,0,0,1,.6.11,2.24,2.24,0,0,1,.6.33l.42-.59a3.56,3.56,0,0,0-.53-.3,3.13,3.13,0,0,0-.54-.19,2.51,2.51,0,0,0-.55-.06,2.57,2.57,0,0,0-1,.18,1.4,1.4,0,0,0-.64.53,1.57,1.57,0,0,0-.21.83h0a1.32,1.32,0,0,0,.23.85,1.22,1.22,0,0,0,.57.42,5.11,5.11,0,0,0,.85.2h.11c.23,0,.43.09.58.14a1.08,1.08,0,0,1,.37.24.68.68,0,0,1,.14.44h0a.67.67,0,0,1-.31.6,1.6,1.6,0,0,1-.89.21,2.12,2.12,0,0,1-1.44-.52l-.46.57a2.9,2.9,0,0,0,.55.36,2.59,2.59,0,0,0,.63.21,3.38,3.38,0,0,0,.72.08,2.66,2.66,0,0,0,1-.18,1.45,1.45,0,0,0,.66-.52,1.5,1.5,0,0,0,.23-.83h0A1.4,1.4,0,0,0,249.18,61.79Z"/><circle class="cls-3" cx="138.8" cy="61.45" r="1.75"/><circle class="cls-3" cx="257.01" cy="61.45" r="1.75"/><path class="cls-3" d="M263.34,59a1.63,1.63,0,0,0-.84-.2h-2.07v5.25h.86V62h1.21a1.63,1.63,0,0,0,.84-.2,1.34,1.34,0,0,0,.57-.56,1.63,1.63,0,0,0,.2-.84,1.7,1.7,0,0,0-.2-.85A1.34,1.34,0,0,0,263.34,59Zm-.2,1.82a.66.66,0,0,1-.25.27.76.76,0,0,1-.37.1h-1.23V59.66h1.23a.72.72,0,0,1,.37.09.68.68,0,0,1,.25.28,1,1,0,0,1,.08.41A1.07,1.07,0,0,1,263.14,60.85Z"/><path class="cls-3" d="M267.72,59a2.14,2.14,0,0,0-2,0,1.66,1.66,0,0,0-.66.68,2.11,2.11,0,0,0-.24,1V62.2a2.13,2.13,0,0,0,.24,1,1.73,1.73,0,0,0,.66.68,2.14,2.14,0,0,0,2,0,1.66,1.66,0,0,0,.66-.68,2.13,2.13,0,0,0,.24-1V60.71a2.11,2.11,0,0,0-.24-1A1.6,1.6,0,0,0,267.72,59Zm0,3.21a1.25,1.25,0,0,1-.12.56,1,1,0,0,1-.35.37,1,1,0,0,1-.52.13,1,1,0,0,1-.53-.13,1,1,0,0,1-.35-.37,1.25,1.25,0,0,1-.12-.56V60.68a1.23,1.23,0,0,1,.12-.55,1,1,0,0,1,.35-.37,1,1,0,0,1,.53-.13,1,1,0,0,1,.52.13,1,1,0,0,1,.35.37,1.23,1.23,0,0,1,.12.55Z"/><polygon class="cls-3" points="269.01 59.66 270.48 59.66 270.48 64.08 271.33 64.08 271.33 59.66 272.8 59.66 272.8 58.83 269.01 58.83 269.01 59.66"/><polygon class="cls-3" points="273.8 58.83 273.44 58.83 273.44 64.08 273.8 64.08 274.31 64.08 276.89 64.08 276.89 63.25 274.31 63.25 274.31 61.88 276.49 61.88 276.49 61.06 274.31 61.06 274.31 59.66 276.89 59.66 276.89 58.83 274.31 58.83 273.8 58.83"/><polygon class="cls-3" points="280.98 62.72 278.81 58.83 277.87 58.83 277.87 64.08 278.71 64.08 278.71 60.25 280.87 64.08 281.82 64.08 281.82 58.83 280.98 58.83 280.98 62.72"/><polygon class="cls-3" points="282.62 59.66 284.07 59.66 284.07 64.08 284.93 64.08 284.93 59.66 286.39 59.66 286.39 58.83 282.62 58.83 282.62 59.66"/><rect class="cls-3" x="287.01" y="58.83" width="0.88" height="5.25"/><path class="cls-3" d="M290.48,58.83l-2,5.25h.93l.35-1h2l.35,1h.93l-2-5.25Zm-.41,3.43.72-2.09.73,2.09Z"/><polygon class="cls-3" points="294.66 58.83 293.8 58.83 293.8 64.08 294.2 64.08 294.66 64.08 297.25 64.08 297.25 63.25 294.66 63.25 294.66 58.83"/><path class="cls-3" d="M302.83,59.05a2.45,2.45,0,0,0-1.1-.22H300v5.25h1.7a2.39,2.39,0,0,0,1.11-.23,1.61,1.61,0,0,0,.69-.65,2,2,0,0,0,.24-1V60.71a2,2,0,0,0-.24-1A1.56,1.56,0,0,0,302.83,59.05Zm.05,3.18a1,1,0,0,1-.3.76,1.21,1.21,0,0,1-.83.26h-.86V59.66h.86a1.17,1.17,0,0,1,.83.26,1,1,0,0,1,.3.76Z"/><polygon class="cls-3" points="305.17 58.83 304.81 58.83 304.81 64.08 305.17 64.08 305.68 64.08 308.26 64.08 308.26 63.25 305.68 63.25 305.68 61.88 307.86 61.88 307.86 61.06 305.68 61.06 305.68 59.66 308.26 59.66 308.26 58.83 305.68 58.83 305.17 58.83"/><path class="cls-3" d="M312.05,61.3a4.11,4.11,0,0,0-.82-.23h-.13l-.59-.14a.82.82,0,0,1-.35-.21.53.53,0,0,1-.14-.4h0a.58.58,0,0,1,.27-.51,1.31,1.31,0,0,1,.77-.19,1.7,1.7,0,0,1,.61.12,2.44,2.44,0,0,1,.62.32l.42-.71a3.12,3.12,0,0,0-.53-.3,2.94,2.94,0,0,0-.55-.18,2.22,2.22,0,0,0-.57-.07,2.49,2.49,0,0,0-1,.19,1.39,1.39,0,0,0-.65.54,1.54,1.54,0,0,0-.22.85h0a1.37,1.37,0,0,0,.24.87,1.22,1.22,0,0,0,.58.43,5.15,5.15,0,0,0,.86.21H311a3.58,3.58,0,0,1,.54.13.7.7,0,0,1,.34.21.52.52,0,0,1,.13.38h0a.62.62,0,0,1-.29.53,1.58,1.58,0,0,1-.82.19,2.36,2.36,0,0,1-.8-.14,1.86,1.86,0,0,1-.68-.39l-.46.69a2.23,2.23,0,0,0,.56.36,2.77,2.77,0,0,0,.65.22,3.47,3.47,0,0,0,.73.08,2.79,2.79,0,0,0,1.06-.19,1.39,1.39,0,0,0,.67-.53,1.43,1.43,0,0,0,.24-.84h0a1.46,1.46,0,0,0-.22-.83A1.3,1.3,0,0,0,312.05,61.3Z"/><polygon class="cls-3" points="313.07 59.66 314.53 59.66 314.53 64.08 315.39 64.08 315.39 59.66 316.85 59.66 316.85 58.83 313.07 58.83 313.07 59.66"/><path class="cls-3" d="M320.47,61.72a1.29,1.29,0,0,0,.52-.54,1.82,1.82,0,0,0,0-1.62,1.18,1.18,0,0,0-.52-.54,1.51,1.51,0,0,0-.78-.2H317.5v5.26h.86V61.91h.85l1.15,2.17h1l-1.24-2.24A1.05,1.05,0,0,0,320.47,61.72Zm-2.11-2.07h1.31a.57.57,0,0,1,.32.09.58.58,0,0,1,.21.25.76.76,0,0,1,.08.38.92.92,0,0,1-.08.38A.64.64,0,0,1,320,61a.59.59,0,0,1-.32.09h-1.31Z"/><path class="cls-3" d="M325,62.21a1.1,1.1,0,0,1-.27.79,1.16,1.16,0,0,1-1.51,0,1.14,1.14,0,0,1-.26-.79V58.83h-.86v3.35a2.33,2.33,0,0,0,.22,1.06,1.53,1.53,0,0,0,.64.67,2.35,2.35,0,0,0,2,0,1.61,1.61,0,0,0,.65-.67,2.33,2.33,0,0,0,.22-1.06V58.83H325Z"/><path class="cls-3" d="M327.78,60.15a.87.87,0,0,1,.34-.39,1,1,0,0,1,.52-.13.8.8,0,0,1,.41.1.93.93,0,0,1,.34.29,1.19,1.19,0,0,1,.2.44h.89a2.41,2.41,0,0,0-.34-.9,1.77,1.77,0,0,0-.64-.58,1.79,1.79,0,0,0-.86-.21,2,2,0,0,0-1,.24,1.64,1.64,0,0,0-.65.68,2.29,2.29,0,0,0-.23,1.05v1.44a2.25,2.25,0,0,0,.23,1,1.58,1.58,0,0,0,.65.68,2,2,0,0,0,1,.24,1.73,1.73,0,0,0,.85-.21,1.69,1.69,0,0,0,.64-.58,2.32,2.32,0,0,0,.35-.9h-.89a1.15,1.15,0,0,1-.2.45,1,1,0,0,1-.33.29,1,1,0,0,1-.42.09,1,1,0,0,1-.52-.13.9.9,0,0,1-.34-.38,1.38,1.38,0,0,1-.12-.59V60.74A1.32,1.32,0,0,1,327.78,60.15Z"/><polygon class="cls-3" points="330.74 59.66 332.2 59.66 332.2 64.08 333.06 64.08 333.06 59.66 334.52 59.66 334.52 58.83 330.74 58.83 330.74 59.66"/><rect class="cls-3" x="335.13" y="58.83" width="0.88" height="5.25"/><polygon class="cls-3" points="338.91 62.64 337.72 58.83 336.81 58.83 338.54 64.08 339.27 64.08 341 58.83 340.09 58.83 338.91 62.64"/><polygon class="cls-3" points="342.08 58.83 341.73 58.83 341.73 64.08 342.08 64.08 342.59 64.08 345.17 64.08 345.17 63.25 342.59 63.25 342.59 61.88 344.78 61.88 344.78 61.06 342.59 61.06 342.59 59.66 345.17 59.66 345.17 58.83 342.59 58.83 342.08 58.83"/><polygon class="cls-3" points="347.41 59.66 348.87 59.66 348.87 64.08 349.73 64.08 349.73 59.66 351.19 59.66 351.19 58.83 347.41 58.83 347.41 59.66"/><path class="cls-3" d="M354.82,61.72a1.35,1.35,0,0,0,.52-.54,1.82,1.82,0,0,0,0-1.62,1.24,1.24,0,0,0-.52-.54,1.56,1.56,0,0,0-.78-.2h-2.2v5.26h.87V61.91h.85l1.15,2.17h1l-1.24-2.24A1.17,1.17,0,0,0,354.82,61.72Zm-2.11-2.07H354a.57.57,0,0,1,.32.09.54.54,0,0,1,.22.25.89.89,0,0,1,.08.38,1.12,1.12,0,0,1-.08.38.67.67,0,0,1-.22.25.57.57,0,0,1-.32.09h-1.3Z"/><path class="cls-3" d="M358,58.83l-2,5.25h.93l.35-1h2l.35,1h.92l-2-5.25Zm-.41,3.43.73-2.09.72,2.09Z"/><rect class="cls-3" x="361.24" y="58.83" width="0.88" height="5.25"/><polygon class="cls-3" points="362.88 59.66 364.34 59.66 364.34 64.08 365.2 64.08 365.2 59.66 366.66 59.66 366.66 58.83 362.88 58.83 362.88 59.66"/><path class="cls-3" d="M370.53,61.74a1.3,1.3,0,0,0-.55-.44,4.11,4.11,0,0,0-.82-.23H369l-.59-.14a.82.82,0,0,1-.35-.21.53.53,0,0,1-.14-.4h0a.58.58,0,0,1,.27-.51,1.31,1.31,0,0,1,.77-.19,1.75,1.75,0,0,1,.62.12,2.56,2.56,0,0,1,.61.32l.42-.71a3.12,3.12,0,0,0-.53-.3,2.72,2.72,0,0,0-.55-.18,2.22,2.22,0,0,0-.57-.07,2.41,2.41,0,0,0-1,.19,1.37,1.37,0,0,0-.66.54,1.63,1.63,0,0,0-.22.85h0a1.37,1.37,0,0,0,.24.87,1.22,1.22,0,0,0,.58.43,5.15,5.15,0,0,0,.86.21h.11a3.58,3.58,0,0,1,.54.13.7.7,0,0,1,.34.21.52.52,0,0,1,.13.38h0a.62.62,0,0,1-.29.53,1.55,1.55,0,0,1-.82.19,2.36,2.36,0,0,1-.8-.14,1.86,1.86,0,0,1-.68-.39l-.46.69a2.23,2.23,0,0,0,.56.36,2.77,2.77,0,0,0,.65.22,3.55,3.55,0,0,0,.73.08,2.75,2.75,0,0,0,1.06-.19,1.46,1.46,0,0,0,.68-.53,1.51,1.51,0,0,0,.23-.84h0A1.46,1.46,0,0,0,370.53,61.74Z"/><rect class="cls-3" x="494.08" y="14.17" width="56.69" height="56.69"/><rect x="519.37" y="17.01" width="2.04" height="2.04"/><rect x="525.49" y="17.01" width="2.04" height="2.04"/><polygon points="517.32 21.09 519.37 21.09 519.37 19.05 517.32 19.05 515.28 19.05 515.28 17.01 513.24 17.01 513.24 19.05 513.24 21.09 513.24 23.13 515.28 23.13 515.28 21.09 517.32 21.09"/><polygon points="531.61 19.05 531.61 17.01 529.57 17.01 529.57 19.05 529.57 21.09 531.61 21.09 531.61 19.05"/><rect x="515.28" y="23.13" width="2.04" height="2.04"/><rect x="513.24" y="25.17" width="2.04" height="2.04"/><rect x="517.32" y="25.17" width="2.04" height="2.04"/><rect x="525.49" y="25.17" width="2.04" height="2.04"/><polygon points="529.57 27.21 531.61 27.21 531.61 25.17 531.61 23.13 529.57 23.13 529.57 25.17 529.57 27.21"/><rect x="515.28" y="27.21" width="2.04" height="2.04"/><polygon points="521.41 29.25 521.41 31.29 521.41 33.34 523.45 33.34 525.49 33.34 525.49 31.29 523.45 31.29 523.45 29.25 525.49 29.25 525.49 27.21 523.45 27.21 523.45 25.17 525.49 25.17 525.49 23.13 527.53 23.13 529.57 23.13 529.57 21.09 527.53 21.09 525.49 21.09 523.45 21.09 521.41 21.09 521.41 23.13 521.41 25.17 521.41 27.21 519.37 27.21 519.37 29.25 521.41 29.25"/><rect x="513.24" y="29.25" width="2.04" height="2.04"/><rect x="517.32" y="29.25" width="2.04" height="2.04"/><rect x="525.49" y="29.25" width="2.04" height="2.04"/><polygon points="543.86 33.34 541.82 33.34 541.82 35.38 539.77 35.38 539.77 33.34 537.73 33.34 537.73 35.38 535.69 35.38 535.69 37.42 537.73 37.42 537.73 39.46 535.69 39.46 533.65 39.46 533.65 37.42 531.61 37.42 531.61 39.46 533.65 39.46 533.65 41.5 533.65 43.54 535.69 43.54 537.73 43.54 537.73 41.5 539.77 41.5 541.82 41.5 543.86 41.5 545.9 41.5 545.9 43.54 547.94 43.54 547.94 41.5 547.94 39.46 547.94 39.46 547.94 37.42 545.9 37.42 545.9 39.46 543.86 39.46 541.82 39.46 541.82 37.42 543.86 37.42 545.9 37.42 545.9 35.38 547.94 35.38 547.94 33.34 545.9 33.34 543.86 33.34"/><polygon points="498.96 35.38 498.96 33.34 496.92 33.34 496.92 35.38 496.92 37.42 498.96 37.42 498.96 35.38"/><polygon points="513.24 35.38 515.28 35.38 515.28 37.42 517.32 37.42 517.32 39.46 519.37 39.46 519.37 41.5 519.37 43.54 521.41 43.54 523.45 43.54 523.45 41.5 523.45 39.46 521.41 39.46 521.41 37.42 523.45 37.42 523.45 35.38 521.41 35.38 519.37 35.38 519.37 33.34 517.32 33.34 517.32 31.29 515.28 31.29 515.28 33.34 513.24 33.34 511.2 33.34 509.16 33.34 507.12 33.34 505.08 33.34 503.04 33.34 503.04 35.38 503.04 37.42 505.08 37.42 505.08 39.46 503.04 39.46 503.04 37.42 501 37.42 501 39.46 501 39.46 501 41.5 501 43.54 501 45.58 498.96 45.58 498.96 43.54 498.96 41.5 496.92 41.5 496.92 43.54 496.92 45.58 496.92 47.62 498.96 47.62 501 47.62 503.04 47.62 503.04 45.58 503.04 43.54 505.08 43.54 505.08 41.5 507.12 41.5 509.16 41.5 509.16 39.46 511.2 39.46 511.2 37.42 509.16 37.42 509.16 39.46 507.12 39.46 507.12 37.42 507.12 35.38 509.16 35.38 511.2 35.38 511.2 37.42 513.24 37.42 513.24 35.38"/><polygon points="525.49 37.42 525.49 39.46 525.49 39.46 525.49 41.5 527.53 41.5 529.57 41.5 529.57 39.46 529.57 39.46 529.57 37.42 529.57 35.38 531.61 35.38 533.65 35.38 533.65 33.34 531.61 33.34 531.61 31.29 531.61 29.25 529.57 29.25 529.57 31.29 529.57 33.34 527.53 33.34 525.49 33.34 525.49 35.38 525.49 37.42"/><rect x="513.24" y="37.42" width="2.04" height="2.04"/><rect x="509.16" y="41.5" width="2.04" height="2.04"/><rect x="515.28" y="41.5" width="2.04" height="2.04"/><rect x="529.57" y="41.5" width="2.04" height="2.04"/><rect x="513.24" y="43.54" width="2.04" height="2.04"/><rect x="517.32" y="43.54" width="2.04" height="2.04"/><rect x="523.45" y="43.54" width="2.04" height="2.04"/><polygon points="527.53 45.58 525.49 45.58 525.49 47.62 527.53 47.62 529.57 47.62 531.61 47.62 533.65 47.62 533.65 45.58 531.61 45.58 529.57 45.58 529.57 43.54 527.53 43.54 527.53 45.58"/><polygon points="543.86 45.58 541.82 45.58 539.77 45.58 539.77 43.54 537.73 43.54 537.73 45.58 537.73 47.62 539.77 47.62 541.82 47.62 543.86 47.62 545.9 47.62 547.94 47.62 547.94 45.58 545.9 45.58 545.9 43.54 543.86 43.54 543.86 45.58"/><rect x="509.16" y="45.58" width="2.04" height="2.04"/><rect x="515.28" y="45.58" width="2.04" height="2.04"/><polygon points="519.37 45.58 519.37 47.62 521.41 47.62 523.45 47.62 523.45 45.58 521.41 45.58 519.37 45.58"/><rect x="501" y="47.62" width="2.04" height="2.04"/><path d="M537.73,47.62h-2v2h-4.08v-2h-6.12v2h2v4.08h2v2h-4.08V49.66h-4.08v2h-2v-2h2v-2h-4.09v6.12h2v2h4.08v2h2v4.08h2v-2h2v2h2V66h-2V64h-4.08v2h4.08v2h2V66h2V61.91h2v-2h4.08V49.66h-2Zm0,6.12v4.09h-6.12V51.7h6.12Z"/><polygon points="543.86 47.62 541.82 47.62 539.77 47.62 539.77 49.66 541.82 49.66 541.82 51.7 541.82 53.74 543.86 53.74 545.9 53.74 545.9 51.7 545.9 49.66 543.86 49.66 543.86 47.62"/><rect x="545.9" y="47.62" width="2.04" height="2.04"/><polygon points="498.96 49.66 498.96 47.62 496.92 47.62 496.92 49.66 496.92 51.7 498.96 51.7 498.96 49.66"/><rect x="509.16" y="49.66" width="2.04" height="2.04"/><polygon points="515.28 51.7 515.28 49.66 515.28 47.62 513.24 47.62 513.24 49.66 513.24 51.7 513.24 53.74 513.24 55.79 513.24 57.83 513.24 59.87 513.24 61.91 515.28 61.91 515.28 63.95 515.28 65.99 513.24 65.99 513.24 68.03 515.28 68.03 515.28 65.99 517.32 65.99 519.37 65.99 519.37 63.95 521.41 63.95 523.45 63.95 523.45 61.91 521.41 61.91 521.41 59.87 519.37 59.87 519.37 61.91 517.32 61.91 517.32 59.87 517.32 57.83 515.28 57.83 515.28 55.79 517.32 55.79 517.32 53.74 515.28 53.74 515.28 51.7"/><rect x="533.65" y="53.74" width="2.04" height="2.04"/><polygon points="543.86 55.79 543.86 57.83 545.9 57.83 547.94 57.83 547.94 55.79 547.94 53.74 545.9 53.74 545.9 55.79 543.86 55.79"/><path d="M543.86,59.87v2h-6.13v2h-2v2h4.08v2h2.05V66h4.08v2h2V66h0V59.87h-4.08Zm-2,6.12h-2.05V64h2.05Z"/><rect x="521.41" y="65.99" width="2.04" height="2.04"/><path d="M511.2,17H496.91V31.29H511.2Zm-2.14,12.14h-10v-10h10Z"/><path d="M545.8,17H533.65V31.29h14.29V17Zm0,12.14h-10v-10h10Z"/><path d="M496.91,53.74V68H511.2V53.74H496.91Zm12.15,12.15h-10v-10h10Z"/><rect x="501" y="21.09" width="6.12" height="6.12"/><rect x="537.73" y="21.09" width="6.12" height="6.12"/><rect x="501" y="57.83" width="6.12" height="6.12"/><path class="cls-3" d="M402.63,56.1a.61.61,0,0,1-.1-.35V48.68h-1.21v7.06A1.74,1.74,0,0,0,401.7,57a1.35,1.35,0,0,0,1.07.42h.71V56.22h-.57A.35.35,0,0,1,402.63,56.1Z"/><rect class="cls-3" x="404.85" y="51.16" width="1.22" height="6.19"/><rect class="cls-3" x="404.85" y="48.68" width="1.22" height="1.22"/><path class="cls-3" d="M410.78,51.07a1.8,1.8,0,0,0-1,.3,2.17,2.17,0,0,0-.63.68v-.89h-1.21v6.18h1.21V53.43a1.18,1.18,0,0,1,.33-.89,1.25,1.25,0,0,1,.92-.32,1.23,1.23,0,0,1,.95.36,1.4,1.4,0,0,1,.34,1v3.75h1.22V53.59a2.86,2.86,0,0,0-.55-1.86A1.93,1.93,0,0,0,410.78,51.07Z"/><polygon class="cls-3" points="419.88 51.16 418.44 51.16 415.95 54.16 415.95 48.68 414.74 48.68 414.74 57.34 415.95 57.34 415.95 55.57 417.04 54.34 418.86 57.34 420.18 57.34 417.8 53.49 419.88 51.16"/><path class="cls-3" d="M422.57,49.36h-1.22v1.8h-.63v1.09h.63v3.49A1.87,1.87,0,0,0,421.7,57a1.34,1.34,0,0,0,1.1.41h.71V56.22h-.59a.31.31,0,0,1-.26-.12.61.61,0,0,1-.09-.35v-3.5h.94V51.16h-.94Z"/><path class="cls-3" d="M428,51.07a1.81,1.81,0,0,0-1,.3,2.24,2.24,0,0,0-.61.68v-.89h-1.22v6.18h1.22V53.43a1.11,1.11,0,0,1,1.22-1.21,1.4,1.4,0,0,1,.56.11.93.93,0,0,1,.41.29l.79-1.07a1.66,1.66,0,0,0-.6-.36A2.29,2.29,0,0,0,428,51.07Z"/><rect class="cls-3" x="429.4" y="56.07" width="1.28" height="1.28"/><path class="cls-3" d="M435.89,51.45a2.31,2.31,0,0,0-1.33-.38,2.72,2.72,0,0,0-1.4.34,2.1,2.1,0,0,0-.89,1A3.53,3.53,0,0,0,432,54v.7a3.21,3.21,0,0,0,.32,1.51,2.14,2.14,0,0,0,.92.94,3.07,3.07,0,0,0,1.47.32,2.93,2.93,0,0,0,1.15-.24,3.36,3.36,0,0,0,1-.68l-.8-.8a2,2,0,0,1-.65.42,1.87,1.87,0,0,1-.73.15,1.55,1.55,0,0,1-1.15-.41,1.62,1.62,0,0,1-.4-1.13H437v-.41a4.58,4.58,0,0,0-.29-1.75A2.45,2.45,0,0,0,435.89,51.45Zm-2.76,2.31a1.84,1.84,0,0,1,.36-1.14,1.34,1.34,0,0,1,1.07-.46,1.12,1.12,0,0,1,.91.42,2.17,2.17,0,0,1,.39,1.18Z"/><path class="cls-3" d="M442.43,51.45a2.26,2.26,0,0,0-1.32-.38,2.73,2.73,0,0,0-1.41.34,2.15,2.15,0,0,0-.89,1A3.67,3.67,0,0,0,438.5,54v.7a3.33,3.33,0,0,0,.32,1.51,2.17,2.17,0,0,0,.93.94,3,3,0,0,0,1.47.32,3,3,0,0,0,1.15-.24,3.48,3.48,0,0,0,1-.68l-.8-.8a2.13,2.13,0,0,1-.65.42,1.91,1.91,0,0,1-.73.15,1.55,1.55,0,0,1-1.15-.41,1.62,1.62,0,0,1-.4-1.13h3.89v-.41a4.78,4.78,0,0,0-.29-1.75A2.4,2.4,0,0,0,442.43,51.45Zm-2.75,2.31a1.84,1.84,0,0,1,.36-1.14,1.33,1.33,0,0,1,1.07-.46,1.08,1.08,0,0,1,.9.42,2,2,0,0,1,.39,1.18Z"/><polygon class="cls-3" points="444.21 58.99 445.38 58.99 449.4 47.65 448.24 47.65 444.21 58.99"/><path class="cls-3" d="M451.15,52.62a1.5,1.5,0,0,1,1.1-.4,1.88,1.88,0,0,1,.73.16,2,2,0,0,1,.61.46l.88-.78a2.1,2.1,0,0,0-.57-.54,2.63,2.63,0,0,0-.76-.34,3.84,3.84,0,0,0-.91-.11,3.08,3.08,0,0,0-1.45.31,2.1,2.1,0,0,0-.91.91,3.06,3.06,0,0,0-.32,1.44v1a3.1,3.1,0,0,0,.32,1.45,2.13,2.13,0,0,0,.91.92,3.08,3.08,0,0,0,1.45.31,3.27,3.27,0,0,0,.9-.11,2.53,2.53,0,0,0,.77-.33,2.4,2.4,0,0,0,.57-.53l-.88-.84a1.67,1.67,0,0,1-.61.48,1.58,1.58,0,0,1-.73.18,1.48,1.48,0,0,1-1.1-.4,1.56,1.56,0,0,1-.38-1.13v-1A1.54,1.54,0,0,1,451.15,52.62Z"/><path class="cls-3" d="M459.34,51.34a3,3,0,0,0-1.32-.27,3.51,3.51,0,0,0-1.28.23,2.34,2.34,0,0,0-.92.66l.88.61a2.34,2.34,0,0,1,.63-.32,2.58,2.58,0,0,1,.73-.11,1.21,1.21,0,0,1,.92.34,1.28,1.28,0,0,1,.32.94v.26h-1.7a2.35,2.35,0,0,0-1.57.46,1.74,1.74,0,0,0-.52,1.38,1.78,1.78,0,0,0,.57,1.44,2.6,2.6,0,0,0,1.71.47,2.54,2.54,0,0,0,.7-.08,1.56,1.56,0,0,0,.54-.24,1.2,1.2,0,0,0,.27-.28v.51h1.16v-4a2.5,2.5,0,0,0-.29-1.24A1.87,1.87,0,0,0,459.34,51.34Zm-.38,5a3,3,0,0,1-1,.14,1.65,1.65,0,0,1-.95-.22.81.81,0,0,1-.31-.7.86.86,0,0,1,.23-.65,1.06,1.06,0,0,1,.71-.21h1.7v1.17A.49.49,0,0,1,459,56.3Z"/><polygon class="cls-3" points="464.26 55.57 462.74 51.16 461.47 51.16 463.8 57.34 464.72 57.34 467.04 51.16 465.77 51.16 464.26 55.57"/><path class="cls-3" d="M469.55,56.1a.54.54,0,0,1-.1-.35V48.68h-1.22v7.06a1.79,1.79,0,0,0,.38,1.21,1.36,1.36,0,0,0,1.07.42h.72V56.22h-.57A.34.34,0,0,1,469.55,56.1Z"/><path class="cls-3" d="M475.52,51.45a2.3,2.3,0,0,0-1.32-.38,2.73,2.73,0,0,0-1.41.34,2.1,2.1,0,0,0-.89,1,3.53,3.53,0,0,0-.31,1.56v.7a3.33,3.33,0,0,0,.32,1.51,2.11,2.11,0,0,0,.93.94,3,3,0,0,0,1.46.32,2.93,2.93,0,0,0,1.15-.24,3.36,3.36,0,0,0,1-.68l-.79-.8a2.26,2.26,0,0,1-.65.42,2,2,0,0,1-.74.15,1.57,1.57,0,0,1-1.15-.41,1.62,1.62,0,0,1-.4-1.13h3.9v-.41a4.78,4.78,0,0,0-.29-1.75A2.53,2.53,0,0,0,475.52,51.45Zm-2.76,2.31a2,2,0,0,1,.36-1.14,1.35,1.35,0,0,1,1.08-.46,1.11,1.11,0,0,1,.9.42,2.17,2.17,0,0,1,.39,1.18Z"/><path class="cls-3" d="M481.18,51.07a1.85,1.85,0,0,0-1,.3,2.14,2.14,0,0,0-.62.68v-.89h-1.22v6.18h1.22V53.43a1.18,1.18,0,0,1,.33-.89,1.46,1.46,0,0,1,1.87,0,1.4,1.4,0,0,1,.34,1v3.75h1.22V53.59a2.81,2.81,0,0,0-.56-1.86A1.89,1.89,0,0,0,481.18,51.07Z"/><path class="cls-3" d="M487.45,52.25V51.16h-.94v-1.8H485.3v1.8h-.64v1.09h.64v3.49a1.87,1.87,0,0,0,.34,1.22,1.36,1.36,0,0,0,1.1.41h.71V56.22h-.59a.31.31,0,0,1-.26-.12.61.61,0,0,1-.09-.35v-3.5Z"/><path class="cls-3" d="M416.48,29.47a1.1,1.1,0,0,1-.27.79,1.13,1.13,0,0,1-1.49,0,1.1,1.1,0,0,1-.27-.79V26.1h-.86v3.34a2.39,2.39,0,0,0,.22,1,1.59,1.59,0,0,0,.64.67,2.35,2.35,0,0,0,2,0,1.59,1.59,0,0,0,.64-.67,2.26,2.26,0,0,0,.22-1V26.1h-.86Z"/><polygon class="cls-3" points="421.52 29.97 419.35 26.1 418.42 26.1 418.42 31.33 419.25 31.33 419.25 27.52 421.41 31.33 422.35 31.33 422.35 26.1 421.52 26.1 421.52 29.97"/><polygon class="cls-3" points="425.45 31.33 425.45 26.93 426.9 26.93 426.9 26.1 423.14 26.1 423.14 26.93 424.6 26.93 424.6 31.33 425.45 31.33"/><path class="cls-3" d="M430.22,31.16a1.59,1.59,0,0,0,.64-.67,2.26,2.26,0,0,0,.22-1V26.1h-.86v3.37a1.09,1.09,0,0,1-.26.79,1.14,1.14,0,0,1-1.5,0,1.09,1.09,0,0,1-.26-.79V26.1h-.86v3.34a2.26,2.26,0,0,0,.22,1,1.53,1.53,0,0,0,.64.67,2.09,2.09,0,0,0,1,.23A2.12,2.12,0,0,0,430.22,31.16Z"/><polygon class="cls-3" points="433.02 30.01 433.82 28.96 435.21 31.33 436.24 31.33 434.4 28.2 436.02 26.1 434.95 26.1 433.02 28.78 433.02 26.1 432.16 26.1 432.16 31.33 433.02 31.33 433.02 30.01"/><rect class="cls-3" x="438.83" y="26.1" width="0.88" height="5.23"/><polygon class="cls-3" points="443.88 31.33 444.83 31.33 444.83 26.1 443.99 26.1 443.99 29.97 441.83 26.1 440.89 26.1 440.89 31.33 441.73 31.33 441.73 27.52 443.88 31.33"/><polygon class="cls-3" points="446.91 29.19 449.01 29.19 449.01 28.37 446.91 28.37 446.91 26.93 449.41 26.93 449.41 26.1 446.91 26.1 446.41 26.1 446.05 26.1 446.05 31.33 446.91 31.33 446.91 29.19"/><path class="cls-3" d="M453.57,30.47a2.06,2.06,0,0,0,.23-1V28a2.1,2.1,0,0,0-.23-1,1.58,1.58,0,0,0-.66-.67,2.12,2.12,0,0,0-2,0,1.7,1.7,0,0,0-.66.67,2.22,2.22,0,0,0-.23,1v1.48a2.18,2.18,0,0,0,.23,1,1.73,1.73,0,0,0,.66.68,2.12,2.12,0,0,0,2,0A1.6,1.6,0,0,0,453.57,30.47Zm-.65-1a1.25,1.25,0,0,1-.12.56.87.87,0,0,1-.35.36,1.1,1.1,0,0,1-1,0,.93.93,0,0,1-.35-.36,1.25,1.25,0,0,1-.12-.56V28a1.2,1.2,0,0,1,.12-.55,1,1,0,0,1,.35-.37,1.11,1.11,0,0,1,1,0,.89.89,0,0,1,.35.37,1.2,1.2,0,0,1,.12.55Z"/><path class="cls-3" d="M455.71,29.17h.84l1.15,2.16h1L457.5,29.1a1.17,1.17,0,0,0,.31-.12,1.29,1.29,0,0,0,.52-.54,1.89,1.89,0,0,0,0-1.61,1.42,1.42,0,0,0-.52-.54,1.55,1.55,0,0,0-.78-.19h-2.18v5.23h.86ZM457,26.92a.6.6,0,0,1,.33.09.58.58,0,0,1,.21.25.89.89,0,0,1,.08.38,1.06,1.06,0,0,1-.08.37.54.54,0,0,1-.22.25.57.57,0,0,1-.32.09h-1.29V26.92Z"/><polygon class="cls-3" points="463.36 27.67 463.36 31.33 464.16 31.33 464.16 26.1 463.17 26.1 461.91 29.59 460.64 26.1 459.65 26.1 459.65 31.33 460.45 31.33 460.45 27.74 461.56 30.68 462.25 30.68 463.36 27.67"/><path class="cls-3" d="M466.08,30.34h2l.35,1h.92l-2-5.23h-.63l-2,5.23h.93Zm1-2.9.72,2.08h-1.44Z"/><path class="cls-3" d="M472.46,31.2a1.42,1.42,0,0,0,.67-.53,1.5,1.5,0,0,0,.23-.83h0a1.33,1.33,0,0,0-.22-.82,1.23,1.23,0,0,0-.55-.44,4.43,4.43,0,0,0-.81-.24h-.13l-.59-.14a1,1,0,0,1-.35-.21.57.57,0,0,1-.14-.4h0a.58.58,0,0,1,.27-.51,1.39,1.39,0,0,1,.77-.18,1.68,1.68,0,0,1,.61.11,2.44,2.44,0,0,1,.62.32l.41-.7a3,3,0,0,0-.52-.3,2.84,2.84,0,0,0-.56-.19,2.85,2.85,0,0,0-1.58.12,1.39,1.39,0,0,0-.65.54,1.54,1.54,0,0,0-.22.85h0a1.41,1.41,0,0,0,.24.87,1.29,1.29,0,0,0,.57.42,5.57,5.57,0,0,0,.87.21h.1a3.58,3.58,0,0,1,.54.13.7.7,0,0,1,.34.21.56.56,0,0,1,.13.38h0a.6.6,0,0,1-.29.53,1.49,1.49,0,0,1-.82.19,2.3,2.3,0,0,1-.79-.13,2.19,2.19,0,0,1-.68-.39l-.46.69a2.3,2.3,0,0,0,.56.35,2.77,2.77,0,0,0,.65.22,3.38,3.38,0,0,0,.72.08A2.79,2.79,0,0,0,472.46,31.2Z"/><rect class="cls-3" x="474.22" y="26.1" width="0.88" height="5.23"/><polygon class="cls-3" points="403.19 34.94 402.33 34.94 402.33 40.17 402.73 40.17 403.19 40.17 405.76 40.17 405.76 39.34 403.19 39.34 403.19 34.94"/><polygon class="cls-3" points="406.91 34.94 406.55 34.94 406.55 40.17 406.91 40.17 407.41 40.17 409.98 40.17 409.98 39.34 407.41 39.34 407.41 37.98 409.59 37.98 409.59 37.16 407.41 37.16 407.41 35.76 409.98 35.76 409.98 34.94 407.41 34.94 406.91 34.94"/><path class="cls-3" d="M414.19,37.71a1.2,1.2,0,0,0-.57-.22,1.3,1.3,0,0,0,.55-.22,1,1,0,0,0,.33-.39,1.13,1.13,0,0,0,.11-.52,1.5,1.5,0,0,0-.18-.76,1.18,1.18,0,0,0-.52-.49,2,2,0,0,0-.86-.17H411v5.23h2.16A2,2,0,0,0,414,40a1.19,1.19,0,0,0,.54-.5,1.43,1.43,0,0,0,.19-.76h0a1.45,1.45,0,0,0-.12-.59A1.18,1.18,0,0,0,414.19,37.71Zm-1.22-2a.89.89,0,0,1,.58.17.62.62,0,0,1,.2.49.65.65,0,0,1-.19.5.76.76,0,0,1-.54.17h-1.21V35.75Zm.84,2.89a.68.68,0,0,1-.21.53,1,1,0,0,1-.67.19h-1.12V37.89H413a1,1,0,0,1,.44.09.6.6,0,0,1,.27.25.82.82,0,0,1,.08.4Z"/><rect class="cls-3" x="415.67" y="34.94" width="0.88" height="5.23"/><polygon class="cls-3" points="420.65 37.17 418.59 37.17 418.59 34.94 417.73 34.94 417.73 40.17 418.59 40.17 418.59 38 420.65 38 420.65 40.17 421.51 40.17 421.51 34.94 420.65 34.94 420.65 37.17"/><polygon class="cls-3" points="425.57 34.94 424.71 34.94 424.71 40.17 425.11 40.17 425.57 40.17 428.14 40.17 428.14 39.34 425.57 39.34 425.57 34.94"/><path class="cls-3" d="M430.46,34.94l-2,5.23h.92l.35-1h2l.35,1h.92l-2-5.23Zm-.41,3.41.73-2.08.72,2.08Z"/><polygon class="cls-3" points="436.87 38.81 434.71 34.94 433.77 34.94 433.77 40.16 434.61 40.16 434.61 36.35 436.76 40.16 437.7 40.16 437.7 34.94 436.87 34.94 436.87 38.81"/><path class="cls-3" d="M440.48,38.5a1,1,0,0,1-.2.66.69.69,0,0,1-.55.23.91.91,0,0,1-.41-.09A.7.7,0,0,1,439,39l-.7.5a1.32,1.32,0,0,0,.57.5,1.79,1.79,0,0,0,.81.18,1.81,1.81,0,0,0,.9-.2,1.36,1.36,0,0,0,.56-.58,2.06,2.06,0,0,0,.19-.93V34.94h-.87Z"/><path class="cls-3" d="M445.39,38.3a1.12,1.12,0,0,1-.26.79,1,1,0,0,1-.76.28.94.94,0,0,1-.74-.28,1.08,1.08,0,0,1-.27-.79V34.94h-.85v3.34a2.4,2.4,0,0,0,.21,1,1.51,1.51,0,0,0,.64.66,2.35,2.35,0,0,0,2,0,1.51,1.51,0,0,0,.64-.66,2.26,2.26,0,0,0,.22-1V34.94h-.86Z"/><polygon class="cls-3" points="446.68 35.76 448.14 35.76 448.14 40.17 448.99 40.17 448.99 35.76 450.44 35.76 450.44 34.94 446.68 34.94 446.68 35.76"/><polygon class="cls-3" points="456.78 34.94 455.71 34.94 453.79 37.62 453.79 34.94 452.93 34.94 452.93 40.17 453.79 40.17 453.79 38.84 454.59 37.8 455.97 40.17 457 40.17 455.17 37.04 456.78 34.94"/><path class="cls-3" d="M460.25,38.3a1.08,1.08,0,0,1-.27.79,1.13,1.13,0,0,1-1.49,0,1.08,1.08,0,0,1-.27-.79V34.94h-.86v3.34a2.39,2.39,0,0,0,.22,1,1.51,1.51,0,0,0,.64.66,2.35,2.35,0,0,0,2,0,1.51,1.51,0,0,0,.64-.66,2.26,2.26,0,0,0,.22-1V34.94h-.86Z"/><polygon class="cls-3" points="465.29 38.81 463.12 34.94 462.19 34.94 462.19 40.16 463.02 40.16 463.02 36.35 465.18 40.16 466.12 40.16 466.12 34.94 465.29 34.94 465.29 38.81"/><path class="cls-3" d="M468.89,38.5a1,1,0,0,1-.19.66.69.69,0,0,1-.55.23.91.91,0,0,1-.41-.09.79.79,0,0,1-.31-.26l-.7.5a1.4,1.4,0,0,0,.58.5,1.79,1.79,0,0,0,.81.18A1.75,1.75,0,0,0,469,40a1.33,1.33,0,0,0,.57-.58,2.06,2.06,0,0,0,.19-.93V34.94h-.88Z"/><path class="cls-3" d="M473.81,38.3a1.08,1.08,0,0,1-.27.79,1.13,1.13,0,0,1-1.49,0,1.08,1.08,0,0,1-.27-.79V34.94h-.86v3.34a2.39,2.39,0,0,0,.22,1,1.51,1.51,0,0,0,.64.66,2.35,2.35,0,0,0,2,0,1.51,1.51,0,0,0,.64-.66,2.26,2.26,0,0,0,.22-1V34.94h-.86Z"/><polygon class="cls-3" points="478.85 38.81 476.68 34.94 475.75 34.94 475.75 40.16 476.58 40.16 476.58 36.35 478.74 40.16 479.68 40.16 479.68 34.94 478.85 34.94 478.85 38.81"/><path class="cls-3" d="M482.74,38.12h.93v.16a1.31,1.31,0,0,1-.12.58,1,1,0,0,1-.35.37,1.08,1.08,0,0,1-.52.13,1.11,1.11,0,0,1-.52-.12.87.87,0,0,1-.36-.35,1,1,0,0,1-.12-.51V36.84a1.26,1.26,0,0,1,.12-.57.86.86,0,0,1,.35-.38,1,1,0,0,1,.51-.14,1,1,0,0,1,.72.32,1,1,0,0,1,.2.37h.93a2.1,2.1,0,0,0-.36-.82,1.76,1.76,0,0,0-.64-.54,1.86,1.86,0,0,0-.85-.19,2,2,0,0,0-1,.24,1.64,1.64,0,0,0-.65.68,2.14,2.14,0,0,0-.23,1v1.54a1.91,1.91,0,0,0,.23,1,1.59,1.59,0,0,0,.67.64,2,2,0,0,0,1,.23,1.92,1.92,0,0,0,1-.24,1.63,1.63,0,0,0,.66-.69,2.22,2.22,0,0,0,.23-1v-1h-1.81Z"/><rect class="cls-3" x="485.56" y="34.94" width="0.88" height="5.23"/></g></g></svg>