<svg xmlns="http://www.w3.org/2000/svg" viewBox="0 0 566.93 85.04"><defs><style>.cls-1{fill:#00467d;}.cls-2{fill:#fff;}.cls-3{fill:#808285;}</style></defs><title>ads_pp4_eng</title><g id="Layer_2" data-name="Layer 2"><g id="Layer_1-2" data-name="Layer 1"><path class="cls-1" d="M222,41.23a13.49,13.49,0,0,1,3.21-1.15c2.65-.73,4.39-1.32,4.39-3a4.74,4.74,0,0,0,0-.51H229a21.12,21.12,0,0,0-7.42,1.55c.12.89.26,2,.42,3.1Z"/><path class="cls-1" d="M194.83,85a.58.58,0,0,1,.26-.06c-.1-.44-.21-.88-.32-1.32-.82.49-1.67,1-2.51,1.4h2.53Z"/><path class="cls-1" d="M121.19,40.41l5.67.14c0-8.25,0-15.24.1-22.41-.75,0-1.5-.07-2.23-.12-1-.06-2-.12-3-.12-.41,0-.78,0-1.15,0,0,3.8.15,7.66.29,11.4S121.18,36.71,121.19,40.41Zm2.54-5h-.1a.63.63,0,0,1-.62-.53,37.55,37.55,0,0,1-.36-5.32c0-.69,0-1.39-.05-2.08a.64.64,0,0,1,1.27-.06c0,.71,0,1.42,0,2.11a35.36,35.36,0,0,0,.34,5.15A.63.63,0,0,1,123.73,35.36Zm-1.47-13.51a.65.65,0,0,1,.5-.11.62.62,0,0,1,.47-.55,1.87,1.87,0,0,1,2.27,1.72,2.7,2.7,0,0,1-2.35,2.4,1.84,1.84,0,0,1-1.63-1.92A1.91,1.91,0,0,1,122.26,21.85Z"/><path class="cls-1" d="M247.53,3.68c2.66,1.22,4.69,1.29,6.39.23A.63.63,0,1,1,254.6,5a6.18,6.18,0,0,1-3.31.94,10,10,0,0,1-3.84-.9c0,.38,0,.76.05,1.14a.57.57,0,0,1,.31.1c1.38,1,3.37,1.06,5.79.29a.64.64,0,0,1,.8.41.65.65,0,0,1-.41.8,11.32,11.32,0,0,1-3.36.57,6.25,6.25,0,0,1-3.06-.75l0,.6a6,6,0,0,0,4.09,1.62,4.94,4.94,0,0,0,3.76-1.69c0-2.14-.12-4.3-.21-6.44a7.82,7.82,0,0,1-3.27.74A7.64,7.64,0,0,1,247.3.82c0,1,.06,1.9.09,2.83Z"/><path class="cls-1" d="M154.92,32c0,.5.21,1.3.82,1.3.78,0,1.27-1,1.52-1.75A9.29,9.29,0,0,1,155,32Z"/><path class="cls-1" d="M252,1.14a6.38,6.38,0,0,0,3.1-.79l.11,0c0-.1,0-.21,0-.31h-6.82A6.35,6.35,0,0,0,252,1.14Z"/><path class="cls-1" d="M135.77,40.82c-.1-3-.15-6.3-.15-10.34q0-3.18,0-6.35c0-1,0-2,0-3l-1.77,0c.1,6.79.23,13.5.35,19.64Z"/><path class="cls-1" d="M128.13,40.58l4.84.15c-.12-6.32-.25-13.24-.35-20.23h0c0-1.95-.06-3.91-.08-5.87-.83,0-1.66,0-2.46-.08-.55,0-1.12-.06-1.68-.07L128.22,16c0,.37-.09.75-.13,1.13a.59.59,0,0,1,.14.4C128.14,24.92,128.13,32.08,128.13,40.58Zm1.6-20a.64.64,0,0,1,.63-.64.64.64,0,0,1,.64.64c0,4.09,0,8.32-.1,12.49a.64.64,0,0,1-1.27,0C129.73,28.89,129.73,24.66,129.73,20.58Z"/><path class="cls-1" d="M189.72,84.94c1.52-.79,3.09-1.6,4.57-2.48a.64.64,0,0,1,.18-.06c-.45-1.86-.93-3.71-1.41-5.56a103.34,103.34,0,0,0-11.37,6.08L181.3,85h8.23Z"/><path class="cls-1" d="M152.22,31.18a.57.57,0,0,1,.25-.11,3.7,3.7,0,0,1-.66-1.25c-.24-.68-.31-.73-.63-.73a2.6,2.6,0,0,0-1.14.56q-.25.18-.51.33a.63.63,0,0,1-.65-1.09c.15-.08.29-.18.44-.28a3.42,3.42,0,0,1,1.86-.79c1.26,0,1.6.95,1.82,1.58.29.79.49,1.36,2,1.36a4.4,4.4,0,0,0,.87-.14,8,8,0,0,0-1.62-3c-.36-.48-.74-1-1.06-1.52a.63.63,0,1,1,1.09-.65c.29.48.63.93,1,1.41a9.5,9.5,0,0,1,1.82,3.39c.44-.14.92-.3,1.4-.49a.76.76,0,0,1-.06-.16,11.83,11.83,0,0,0-1.19-3.05c-.24-.48-.49-1-.7-1.5a.63.63,0,1,1,1.16-.49c.2.48.43.94.68,1.43a14,14,0,0,1,1.27,3.27c.44-.21.86-.43,1.24-.66a21.27,21.27,0,0,0-2.69-7.6A2.31,2.31,0,0,0,156.5,20a.87.87,0,0,0-.28.05C149.08,22.46,145,24.22,145,31.8c0,.47,0,.93,0,1.39s0,.74,0,1.1c.71.13,2.07.36,4.63.72l.1-.23A8.17,8.17,0,0,1,152.22,31.18Z"/><path class="cls-1" d="M216.08,34.1c.16,0,.27-.12.48-.45a6.19,6.19,0,0,1-1.83-.58A1.57,1.57,0,0,0,216.08,34.1Z"/><path class="cls-1" d="M155.29,43.43l0-.61,0-.89H154c-.41,0-.76,0-1.08,0,0,.24,0,.49,0,.76s0,.66,0,1l.95-.11C154.3,43.53,154.79,43.47,155.29,43.43Z"/><path class="cls-1" d="M123.15,24a1.52,1.52,0,0,0,1.09-1.13.6.6,0,0,0-.6-.51l-.1,0a.61.61,0,0,1-.27,0,.65.65,0,0,1-.25.45.65.65,0,0,0-.24.52A.66.66,0,0,0,123.15,24Z"/><path class="cls-1" d="M128.66,58.85c-.55-1.81-1.15-3.29-2.93-3.29-2.06,0-4.47,1.4-4.94,3.44,1.53-.13,3.19-.19,5-.19C126.77,58.81,127.72,58.82,128.66,58.85Z"/><path class="cls-1" d="M233.86.87c0,1.26,0,2.42,0,3.54a.6.6,0,0,1-.18.46.62.62,0,0,1-.46.19l-1.82,0c-2,0-4-.08-6-.08-3.3,0-6,.11-8.45.34h-.06a.62.62,0,0,1-.43-.16.64.64,0,0,1-.21-.46c0-1.6-.07-3.15-.13-4.67h-2l.23,6.63c2.82.06,5.68.22,8.45.38,3.54.2,7.2.41,10.78.41.77,0,1.49,0,2.21,0-.08-2-.12-4.29-.12-7V0h-1.87C233.87.29,233.86.58,233.86.87Z"/><path class="cls-1" d="M154.21,80.1a.63.63,0,0,1,.46-.2c1.61,0,3.23-.11,4.72-.22-2.27-2.45-4.62-5.15-7.14-8.2-2.57,2.12-6.49,5.5-9,8,1.54,0,3.09-.08,4.62-.15a.69.69,0,0,1,.47.18.64.64,0,0,1,.19.46v.86c0,.7,0,1.4,0,2.1s0,1.43,0,2.16h5.71c0-1.47-.1-3-.18-4.47A.63.63,0,0,1,154.21,80.1Z"/><path class="cls-1" d="M184.05,60.66a.62.62,0,0,1,.39-.48,7.73,7.73,0,0,1-1.11-3.37c0-.18-.07-.36-.1-.54-.48.29-1,.6-1.43.92a.64.64,0,0,1-.36.11l-.19,0a.65.65,0,0,1-.4-.38,18.44,18.44,0,0,0-2.2-4.21,13.22,13.22,0,0,1-5.4,1.32,9.82,9.82,0,0,1-6.48-2.59c-1.45-1.11-2.71-2.07-4.82-2.07-1.17,0-3.92.81-8.18,2.42-.54.2-.54.2-.67.2a1,1,0,0,1-.69-.3c-.8-.81-.86-3.5-.8-9,0-.57,0-1.2,0-1.82a23.15,23.15,0,0,0-3.6.06c-.81.06-1.66.12-2.49.12a11,11,0,0,1-2.7-.29.64.64,0,0,1,.14.43c0,.17,0,.34,0,.52v0s0,0,0,.07c-.18,2.16-.45,4.35-.73,6.47a83.13,83.13,0,0,0-.91,10.61c0,2.26,3.32,4.5,9.36,6.31a56.73,56.73,0,0,0,12.11,2.28,14.59,14.59,0,0,0,3-.35.6.6,0,0,1,.49.09.64.64,0,0,1,.27.43c.64,4.07,1.84,12.34,2.57,17.42H180v0C180.61,81.81,181.7,75.87,184.05,60.66Zm-26.4-4.8a.64.64,0,0,1-.77-.46.63.63,0,0,1,.46-.77,16.53,16.53,0,0,1,3.95-.6,7.06,7.06,0,0,1,3.34.76.64.64,0,0,1,.27.86.62.62,0,0,1-.56.34.67.67,0,0,1-.3-.08,5.84,5.84,0,0,0-2.75-.62A14.94,14.94,0,0,0,157.65,55.86Zm7.7,2.71h-.08a9.54,9.54,0,0,1-1.09-.2,7.73,7.73,0,0,0-1.64-.24.63.63,0,0,1-.63-.63.64.64,0,0,1,.63-.64,8.71,8.71,0,0,1,1.91.27,9.37,9.37,0,0,0,1,.19.63.63,0,0,1,.55.7A.64.64,0,0,1,165.35,58.57Z"/><path class="cls-1" d="M134.94,83h-.72c-1.12,0-2.25,0-3.35-.08l-2.69-.08c0,.73.06,1.45.11,2.18h4.8C133.75,84.29,134.36,83.61,134.94,83Z"/><path class="cls-1" d="M160.43,3.31A15.37,15.37,0,0,0,167,6c0-1.89.15-3.79.29-5.62,0-.12,0-.23,0-.35h-6.12A10,10,0,0,1,160.43,3.31Z"/><path class="cls-1" d="M143.76.21a.22.22,0,0,0,.05-.15.14.14,0,0,0,0-.06h-.14Z"/><path class="cls-1" d="M150.72,6.45a.58.58,0,0,0,.28.26V6.25A.4.4,0,0,0,150.72,6.45Z"/><path class="cls-1" d="M157.74.57a.88.88,0,0,1-.91-.57h-1.49s0,0,0,0a.64.64,0,0,1-.64.63,15.32,15.32,0,0,0-2.48.28c-.49.09-1,.18-1.52.24h-.07a.63.63,0,0,1-.4-.14A.62.62,0,0,1,150,.62L150,0h-5.61s0,0,0,.06a.94.94,0,0,1-.9,1,1,1,0,0,1-.91-1s0,0,0-.06h-.81a9.18,9.18,0,0,0,2.79,5.73,9.45,9.45,0,0,0,6.92,2.76,9.23,9.23,0,0,0,7.65-5.27l0-.07h0A8.65,8.65,0,0,0,159.92,0h-1.45A.76.76,0,0,1,157.74.57Zm-6.75,7a.91.91,0,0,1-1-.92,1,1,0,0,1,.44-.88l.08-.07a.64.64,0,0,1,.45-.19c.88,0,.93.61.93.73v.14a1.48,1.48,0,0,1,0,.21A.9.9,0,0,1,151,7.52Z"/><path class="cls-1" d="M143.08.06s0,.1.11.15L143.3,0h-.2A.14.14,0,0,0,143.08.06Z"/><path class="cls-1" d="M168.55.44c-.13,1.85-.27,3.76-.28,5.65.29,0,.59,0,.88,0l.72-.05a5.51,5.51,0,0,1,4.71-2.93,3.39,3.39,0,0,1,1.09.15A14.94,14.94,0,0,1,178.8,0H168.59C168.58.15,168.56.3,168.55.44Z"/><path class="cls-1" d="M162.75,68.71c-3.11,0-22.74-3-22.74-9.85a72.09,72.09,0,0,1,.73-9.21c-2-.41-2.2-2.58-2.27-3.54,0,0,0-.1,0-.15l0,0a.61.61,0,0,1-.17-.34h-1c-3.35,0-7.27-.16-11.07-.35,0,.23-.05.51-.08.81-.11,1.41-.28,3.53-2.12,3.53-1.27,0-2.79-.8-2.8-4.62l-1.34-.07c-3.43-.2-6.4-.37-7.87-.37a.66.66,0,0,1-.66-.59c-.06-.89-.11-1.85-.16-3a.63.63,0,0,1,.63-.66l3.16,0c-.07-2.88-.19-5.78-.31-8.6-.2-4.4-.39-8.95-.39-13.44,0-1.74,0-3.36.08-4.94a.64.64,0,0,1,.6-.61l2.23-.09c.95,0,1.93-.07,2.87-.13a.62.62,0,0,1,.49.17.63.63,0,0,1,.19.48c0,1.13-.06,2.31-.07,3.52q.54,0,1.14,0c1,0,2,.07,3,.13.67,0,1.35.08,2,.1,0-.34.07-.67.11-1,.08-.7.17-1.39.24-2.09a.63.63,0,0,1,.64-.56c.77,0,1.55.05,2.3.08,1,.05,2,.1,3,.08a.69.69,0,0,1,.45.18.64.64,0,0,1,.19.45c0,1.95,0,3.91.07,5.87l2-.05h.41a.6.6,0,0,1,.46.17.66.66,0,0,1,.19.46c0,1.23,0,2.47,0,3.7,0,2.12,0,4.23,0,6.35,0,4.06.05,7.38.15,10.38l1.89.07c-.21-4.19-.25-8.44-.29-12.55,0-2.83,0-5.76-.13-8.63a.63.63,0,0,1,.6-.65c.77-.05,1.62-.07,2.64-.07h1.71a.63.63,0,0,1,.63.63c0,1.09-.06,2.2-.11,3.27s-.11,2.14-.11,3.18a.64.64,0,0,1-.63.64.64.64,0,0,1-.64-.64c0-1.07.06-2.17.11-3.24,0-.85.09-1.72.1-2.58h-1.06c-.73,0-1.37,0-2,0,.07,2.69.1,5.41.12,8,0,4.13.08,8.4.29,12.6l1.52.06a.65.65,0,0,1,.42-.53l-.13,0a.63.63,0,0,1,.44-1.19,8.54,8.54,0,0,0,3.09.48c.79,0,1.61-.06,2.4-.12a25.57,25.57,0,0,1,3.69-.07,15.82,15.82,0,0,0-.19-3c-4-.54-6.67-1-7.42-1.16-1.32.07-1.42,1.94-1.42,2.53a4.87,4.87,0,0,0,0,.66.63.63,0,1,1-1.26.14,7.16,7.16,0,0,1,0-.8c0-2.2.94-3.61,2.47-3.77,0-.31,0-.61,0-.92,0-.47,0-.94,0-1.41,0-8.26,4.54-10.42,12-13a2,2,0,0,1,.69-.11,3.57,3.57,0,0,1,2.76,1.67,23,23,0,0,1,2.93,8.47.64.64,0,0,1-.26.63,16.26,16.26,0,0,1-3.37,1.65.61.61,0,0,1,0,.42c-.56,2-1.57,3.05-2.85,3.05s-2.09-1.09-2.09-2.66a.29.29,0,0,1,0-.09,2.75,2.75,0,0,1-.46-.18.62.62,0,0,1-.25.54,7,7,0,0,0-2,3l.86.12c.88.12,1.06,1.12,1,5.32a10.55,10.55,0,0,0,1.07.06l.84,0h1a.63.63,0,0,1,.63.62c0,.5,0,1,.05,1.48s0,.84,0,1.25a.63.63,0,0,1-.61.65c-.65,0-1.3.11-2,.19l-1.12.12a25,25,0,0,0,.36,5.64l.11,0c4.45-1.68,7.28-2.5,8.62-2.5,2.54,0,4.09,1.19,5.59,2.34s3,2.32,5.71,2.32c2.18,0,3.91-.76,6.09-1.73.91-.4,1.95-.86,3.11-1.3l.11,0v0c0-5.16-2.39-6.4-5.16-7.84-3.28-1.7-7-3.63-7.16-12.07a5,5,0,0,1-1.14.13,3,3,0,0,1-2.93-2.77,5.12,5.12,0,0,1,2.51-4.5,15.08,15.08,0,0,1-1.35-5.15,28.66,28.66,0,0,1,1.39-9c.14-.39.29-.74.45-1.08h-.35a16.17,16.17,0,0,1-8.94-2.91,10.53,10.53,0,0,1-8.38,5.28h-.39a10.74,10.74,0,0,1-7.47-3.12A10.41,10.41,0,0,1,140.47,0H113.05a.63.63,0,0,1,.22.45l.06,1.15c0,.43,0,.84.06,1.26.43-.06.86-.13,1.28-.23A.64.64,0,1,1,115,3.87a14.66,14.66,0,0,1-1.5.25c.06.72.13,1.43.24,2.15a.63.63,0,0,1-.54.72h-.09a.64.64,0,0,1-.63-.54c-.11-.74-.18-1.48-.24-2.22-.51,0-1,.06-1.54.09l-1,0h0a.64.64,0,0,1,0-1.27l1.06,0L112.12,3l-.06-1.32c0-.38,0-.77,0-1.15a.6.6,0,0,1,.23-.51H0V85H115c-1.08-2-2-4-3-5.94-.28-.61-.56-1.21-.85-1.81a.63.63,0,1,1,1.14-.55c.29.61.58,1.21.86,1.82,1,2.16,2.07,4.36,3.27,6.48h5.49a9.63,9.63,0,0,1-.61-1.42.63.63,0,0,1,.41-.8.63.63,0,0,1,.8.4,6.86,6.86,0,0,0,.62,1.43.6.6,0,0,1,.07.39H127c-.06-.93-.11-1.86-.13-2.8a.62.62,0,0,1,.18-.46.64.64,0,0,1,.45-.19c1.16,0,2.3,0,3.4.08s2.2.08,3.3.08c.84,0,1.59,0,2.29-.07a.61.61,0,0,1,.62.38.63.63,0,0,1-.14.71c-.71.67-1.42,1.41-2.21,2.27h12.48c0-.73,0-1.45,0-2.16v-2.3c-1.84.07-3.71.12-5.55.13a.62.62,0,0,1-.58-.38.61.61,0,0,1,.12-.69c1-1,2.38-2.34,3.91-3.71l-.09-.07c-.22-.24-.46-.48-.7-.71a.64.64,0,0,1,.89-.91c.25.25.5.5.74.76a.75.75,0,0,1,.07.12c2.11-1.87,4.32-3.75,5.88-5a.63.63,0,0,1,.89.09c3,3.64,5.73,6.77,8.39,9.58a.62.62,0,0,1,.13.66.64.64,0,0,1-.54.41c-1.65.13-3.55.27-5.46.32.05,1,.09,2.06.12,3.07a.68.68,0,0,1,.37.07,8,8,0,0,0,1.43.65.67.67,0,0,1,.14.09h7.26a.62.62,0,0,1,.35-.66,12.06,12.06,0,0,0,1.42-.76.63.63,0,0,1,.87.21.63.63,0,0,1-.2.87c-.2.13-.42.22-.64.34h1.34c-.7-4.83-1.79-12.38-2.44-16.58A14.47,14.47,0,0,1,162.75,68.71ZM175,43.18a.63.63,0,0,1,.55.32l.18,0a.64.64,0,0,1,.28.86,1,1,0,0,1-.88.54.9.9,0,0,1-.78-.31.65.65,0,0,1-.11-.53.62.62,0,0,1,0-.18A.74.74,0,0,1,175,43.18Zm-5.55,4a11.81,11.81,0,0,0,4.62,1.35c1,0,2.66-.4,2.66-1.88a.64.64,0,0,1,.64-.63.63.63,0,0,1,.63.63c0,2.16-2,3.14-3.93,3.14a13,13,0,0,1-5.16-1.46.64.64,0,1,1,.54-1.15Zm-4.69-31.9h.19a7.61,7.61,0,0,0,1-.07.63.63,0,0,1,.19,1.25,7.24,7.24,0,0,1-1.15.09h-.21a.63.63,0,1,1,0-1.26Zm-.92,26.31c.25,0,.5,0,.77,0h.33a.38.38,0,0,0,0-.1c0-.42,0-.83,0-1.24s0-.56,0-.81a.64.64,0,0,1,1.27-.09c0,.28,0,.57,0,.9s0,.84,0,1.26l.65-.06,1.14-.1a.63.63,0,0,1,.1,1.26l-1.11.1-.81.08a8.78,8.78,0,0,0,.09,1.35.65.65,0,0,1-.54.72h-.09a.64.64,0,0,1-.63-.55,10.58,10.58,0,0,1-.09-1.46h-.31q-.45,0-.87,0a.64.64,0,0,1,.1-1.27Zm-4.28-27.76a.64.64,0,0,1,.89-.13,8.36,8.36,0,0,0,1.33.82.62.62,0,0,1,.29.85.63.63,0,0,1-.57.35.66.66,0,0,1-.27-.06,9.38,9.38,0,0,1-1.54-.95A.63.63,0,0,1,159.55,13.83Zm-2.71-4.22a.63.63,0,0,1,.81.38,7,7,0,0,0,.68,1.4.65.65,0,0,1-.21.88.66.66,0,0,1-.33.09.63.63,0,0,1-.54-.3,8.53,8.53,0,0,1-.79-1.64A.63.63,0,0,1,156.84,9.61ZM147.79,13a.64.64,0,0,1,.81-.39,6.16,6.16,0,0,0,4.58-.38.64.64,0,0,1,.51,1.17,8.67,8.67,0,0,1-3.4.76,6.5,6.5,0,0,1-2.12-.35A.63.63,0,0,1,147.79,13ZM136.68.91a.64.64,0,0,1,1.23.33,7.51,7.51,0,0,0-.26,2,10.74,10.74,0,0,0,7,9.46.63.63,0,0,1-.21,1.23l-.2,0a12.09,12.09,0,0,1-7.84-10.66A8.7,8.7,0,0,1,136.68.91Zm-13,4.41a2.28,2.28,0,0,1,.51-.09,2.38,2.38,0,0,1,2.48,2.38,2.28,2.28,0,0,1-.75,1.6,2.36,2.36,0,0,1-1.58.6h-.16a2.29,2.29,0,0,1-2-2.39A2.21,2.21,0,0,1,123.65,5.32ZM106.36,11a.63.63,0,1,1,1.08.66,19.56,19.56,0,0,0-2.68,9.21.63.63,0,0,1-.63.6h0a.64.64,0,0,1-.6-.67A20.76,20.76,0,0,1,106.36,11ZM103,23.69a.67.67,0,0,1,.45-.18,1.12,1.12,0,0,1,1.1.73,1.33,1.33,0,0,1,.06.42c0,1.14-.85,1.19-1,1.19a1.06,1.06,0,0,1-1-1.12A1.51,1.51,0,0,1,103,23.69Zm-2.16,12.83a.63.63,0,0,1,.63-.63,14.17,14.17,0,0,0,1.6-.1c0-.62,0-1.26,0-1.94a.63.63,0,1,1,1.26,0c0,.62,0,1.22,0,1.79l.62-.08,1.2-.16a.63.63,0,0,1,.15,1.25l-1.18.16-.69.1c.06.65.14,1.28.24,1.88a.63.63,0,0,1-.51.73H104a.64.64,0,0,1-.63-.52c-.11-.63-.19-1.28-.25-1.95-.56,0-1.13.09-1.7.09A.63.63,0,0,1,100.82,36.52Zm7.08,29.7a.59.59,0,0,1-.44.19.6.6,0,0,1-.45-.19.62.62,0,0,1,0-.89,1,1,0,0,0,.37-.67c0-.4-.49-.87-1-1.33a3.42,3.42,0,0,1-1.36-2.26A3.36,3.36,0,0,1,106.13,59a2.85,2.85,0,0,0,.92-1.66c0-.35-.21-.47-1.24-.71s-2.6-.61-2.6-2.49a5.36,5.36,0,0,1,1.06-2.64,4.36,4.36,0,0,0,.52-1c0-.27-.45-.59-.88-.9a2.76,2.76,0,0,1-1.54-2.14,3,3,0,0,1,1.91-2.51.64.64,0,0,1,.83.35.63.63,0,0,1-.34.82,1.76,1.76,0,0,0-1.13,1.34c0,.37.4.68,1,1.11s1.42,1,1.42,1.94a3.57,3.57,0,0,1-.72,1.65,4.58,4.58,0,0,0-.87,2c0,.8.45,1,1.63,1.25.93.23,2.22.53,2.22,2a3.84,3.84,0,0,1-1.23,2.49c-.4.46-.77.9-.77,1.26s.49.88,1,1.35a3.32,3.32,0,0,1,1.36,2.24A2.19,2.19,0,0,1,107.9,66.22Zm2.68-36.85a2.49,2.49,0,0,1-2.42,2.07H108a2.28,2.28,0,0,1-2-2.31A2.35,2.35,0,0,1,107.16,27a2.27,2.27,0,0,1,1.1-.27,2.16,2.16,0,0,1,2.32,2A3.52,3.52,0,0,1,110.58,29.37ZM113.24,48h-1.08a.64.64,0,0,1-.64-.63.64.64,0,0,1,.64-.64l1.1,0h1.08a13.93,13.93,0,0,0,2.1-.13.62.62,0,0,1,.72.53.63.63,0,0,1-.53.72,15,15,0,0,1-2.29.15Zm9.21,30.83a2,2,0,0,0-.35,1.25.64.64,0,0,1-.64.61h0a.64.64,0,0,1-.61-.66,3.17,3.17,0,0,1,.59-1.93.64.64,0,0,1,.88-.15A.63.63,0,0,1,122.45,78.86Zm15-7.17h-.17a7.16,7.16,0,0,0-1.38.13c0,.42,0,.83,0,1.24,0,.88,0,1.76,0,2.64a.64.64,0,0,1-.19.45.58.58,0,0,1-.44.18h-.39c-3,0-6.13.14-9.13.27s-5.92.26-8.87.27a.63.63,0,0,1-.63-.58c-.23-2.64-.41-5.33-.58-7.92s-.35-5.28-.57-7.92a.62.62,0,0,1,.49-.67,33.21,33.21,0,0,1,3.91-.65c.39-2.9,3.54-4.84,6.28-4.84s3.69,2.66,4.16,4.25c0,.12.08.23.11.34l1.59,0,3.27.1a.63.63,0,0,1,.62.58c.28,3.74.35,7.5.37,10.93a9.18,9.18,0,0,1,1.38-.12h.18a.64.64,0,0,1,0,1.27Zm5.3,1.24a.62.62,0,0,1-.54.3.66.66,0,0,1-.33-.09,9.64,9.64,0,0,0-1.41-.75.63.63,0,1,1,.5-1.16,12.6,12.6,0,0,1,1.58.83A.63.63,0,0,1,142.7,72.93Zm6.28-3.4h-.07a18.73,18.73,0,0,1-5.31-1.68c-.74-.33-1.5-.66-2.26-.93a.63.63,0,1,1,.43-1.19c.8.28,1.58.62,2.34,1a17.28,17.28,0,0,0,4.94,1.59.63.63,0,0,1-.07,1.26Zm11.79,2.59a1.1,1.1,0,0,1-.55-.14c-.36-.11-.69-.42-.69-1.2a.64.64,0,0,1,.64-.64.65.65,0,0,1,.46.2,1.25,1.25,0,0,1,.47.22.85.85,0,0,1,.43.76A.77.77,0,0,1,160.77,72.12Z"/><path class="cls-1" d="M217.53,4c1.07-.09,2.19-.16,3.38-.2a.76.76,0,0,1-.13-.29A33.9,33.9,0,0,1,220.54,0h-3.12C217.46,1.3,217.51,2.61,217.53,4Z"/><path class="cls-1" d="M124.23,8.54a1.05,1.05,0,0,0,1.14-1,1,1,0,0,0-.34-.77,1,1,0,0,0-.79-.32l-.21,0a1,1,0,0,0-.63.92A1,1,0,0,0,124.23,8.54Z"/><path class="cls-1" d="M227.55,3.67v0c1.31,0,2.62,0,3.91.06l1.15,0c0-.92,0-1.88,0-2.91,0-.29,0-.58,0-.87h-5.19C227.45,1.21,227.49,2.44,227.55,3.67Z"/><path class="cls-1" d="M222,3.31a.6.6,0,0,1-.1.42c1.09,0,2.24,0,3.49,0h.85c-.06-1.24-.1-2.48-.14-3.69h-4.33A33,33,0,0,0,222,3.31Z"/><path class="cls-1" d="M108.27,28a1.07,1.07,0,0,0-.51.13,1.1,1.1,0,0,0-.55,1,1,1,0,0,0,.88,1.07,1.22,1.22,0,0,0,1.23-.91,2.94,2.94,0,0,0,0-.42A.93.93,0,0,0,108.27,28Z"/><path class="cls-1" d="M121.64,68c0-.27,0-.54,0-.81a.65.65,0,0,1,.18-.46.67.67,0,0,1,.46-.19h2.1c.94,0,2.18,0,3.39-.12a.61.61,0,0,1,.5.18.62.62,0,0,1,.19.5c0,.53-.06,1-.08,1.55,3-1.15,4.84-2.82,5.58-5a.64.64,0,0,1,.5-.41c0-1-.1-2-.17-3l-2.71-.08-1.69-.05,0,0a.67.67,0,0,1-.24,0,.62.62,0,0,1-.3-.09c-1.15,0-2.3-.06-3.44-.06a45.32,45.32,0,0,0-9.47.83c.06.76.11,1.53.17,2.29C117.71,65.53,119.17,67.69,121.64,68Z"/><path class="cls-1" d="M124.34,67.86H122.9a18.41,18.41,0,0,0,.32,2.28c1.19,0,2.51,0,3.84,0,0-.14,0-.29,0-.43,0-.62,0-1.24.06-1.88C126.1,67.85,125.12,67.86,124.34,67.86Z"/><path class="cls-1" d="M128.33,70.08c0,.2,0,.41,0,.62a.66.66,0,0,1-.17.45.61.61,0,0,1-.45.2c-1.75.05-3.51.06-5,.06a.63.63,0,0,1-.62-.5c-.1-.49-.2-1-.28-1.56h0a6.82,6.82,0,0,1-5.05-3.3l.15,2.24c.15,2.39.32,4.87.52,7.3,2.74,0,5.53-.14,8.23-.26,2.94-.13,6-.26,9-.27v-2c0-2.35,0-4.93-.1-7.57C133.35,67.47,131.29,69,128.33,70.08Z"/><path class="cls-1" d="M103.44,24.63a.27.27,0,0,0-.08.07.28.28,0,0,0,.08.08Z"/><path class="cls-1" d="M245.77,13.85v-.63h.38a.34.34,0,0,0-.17-.05.54.54,0,0,0-.52.45A.34.34,0,0,0,245.77,13.85Z"/><path class="cls-1" d="M256.63,21.35v-.18h-.16l.16,0v-.38a.38.38,0,0,0-.28.29.54.54,0,0,0,0,.22A.38.38,0,0,0,256.63,21.35Z"/><path class="cls-1" d="M250.18,34.81a5.27,5.27,0,0,0,.07,1.09,18.93,18.93,0,0,1,.17,2c.8-.75,1.65-1.47,2.47-2.17l.69-.58A12.23,12.23,0,0,0,250.18,34.81Z"/><path class="cls-1" d="M266.37,10.85c.33-.34.68-.69,1-1a26.24,26.24,0,0,1-2.46-2.14c-1,1-1.93,2-2.85,3,.87.75,1.75,1.44,2.55,2C265.19,12.06,265.79,11.45,266.37,10.85Z"/><path class="cls-1" d="M240.36,24.17c0,.34.07.68.11,1l.06.61.92-1a.65.65,0,0,1,.81-.1l.61.39c-.1-.4-.2-.81-.31-1.21a.61.61,0,0,1,0-.46l.06-.11c.19-.38.39-.77.6-1.15a5.64,5.64,0,0,0-1.18,0,.63.63,0,0,1-.53-.16l-.41-.41,0,.34c0,.23,0,.47-.07.7a.63.63,0,0,1-.44.54l-.53.15-.5.15.39.16A.65.65,0,0,1,240.36,24.17Z"/><path class="cls-1" d="M207.42,38.16h-.16a1.37,1.37,0,0,0-1.07,1.43,1.18,1.18,0,0,0,1.33,1.08,1.29,1.29,0,0,0,1.14-1.28A1.37,1.37,0,0,0,207.42,38.16Z"/><path class="cls-1" d="M181.35,36.08a3.43,3.43,0,0,0,2.83,2,2,2,0,0,0,1.7-1.33,5.68,5.68,0,0,1-1.44.18A6.33,6.33,0,0,1,181.35,36.08Z"/><path class="cls-1" d="M209.5,10.92a1.18,1.18,0,0,0-.69-.22h-.13a1.11,1.11,0,0,0-.91,1.2,1.07,1.07,0,0,0,1.18,1,1.06,1.06,0,0,0,.71-.37,1.08,1.08,0,0,0,.32-.83C210,11.49,209.93,11.25,209.5,10.92Z"/><path class="cls-1" d="M193.55,23.15l-.31-.14c-.25.17-.39.35-.39.51s.26.26.47.26a.67.67,0,0,0,.58-.42C193.86,23.29,193.81,23.25,193.55,23.15Z"/><path class="cls-1" d="M237.47,38.66q3.81-.12,7.62-.27l4.07-.15a17.37,17.37,0,0,0-.16-2.19c-.13-1-.21-1.68.31-2.17s1.7-.46,4.7.11c-.41-3.84-.76-7.71-1.09-11.46-.14-1.69-.29-3.37-.45-5.07-4.39.45-8.85.68-13.17.9l-2.94.16c.18,4.24.44,8.53.68,12.68Q237.27,34.92,237.47,38.66Zm8.7-2.64c-.75,0-1.51,0-2.26,0-.49,0-1,0-1.49,0a11.06,11.06,0,0,0-3,.35l-.17,0A.64.64,0,0,1,239,35.1a12.44,12.44,0,0,1,3.38-.4c.51,0,1,0,1.53,0,.73,0,1.45,0,2.18,0a.63.63,0,0,1,0,1.26Zm-6.94-3.11a.62.62,0,0,1,.69-.57c.62.06,1.27.07,1.89.09a17.72,17.72,0,0,1,3.51.33.62.62,0,0,1,.48.75.64.64,0,0,1-.62.5L245,34a16.69,16.69,0,0,0-3.26-.3c-.64,0-1.31,0-2-.09A.63.63,0,0,1,239.23,32.91Zm11.11-6a25.82,25.82,0,0,0-3.46.24h-.09a.63.63,0,0,1-.08-1.26,26.69,26.69,0,0,1,3.63-.25.64.64,0,0,1,.64.64A.64.64,0,0,1,250.34,26.91Zm-3.68-6.58a6.77,6.77,0,0,0,1.24.1c.43,0,.84,0,1.29-.05s.92-.06,1.39-.06a.64.64,0,0,1,.64.64.64.64,0,0,1-.64.63c-.44,0-.88,0-1.32.05s-.9.06-1.36.06a8.3,8.3,0,0,1-1.46-.12.63.63,0,0,1,.22-1.25Zm-.28,2.9a14.89,14.89,0,0,0,1.66.08,26.36,26.36,0,0,0,2.72-.16.63.63,0,0,1,.7.56.65.65,0,0,1-.57.7,26.36,26.36,0,0,1-2.85.17,17.64,17.64,0,0,1-1.8-.09.63.63,0,1,1,.14-1.26Zm-.25,7.05a.63.63,0,0,1-.51.73,23.58,23.58,0,0,1-4.23.27c-.83,0-1.69,0-2.53.07h-.05a.63.63,0,0,1-.63-.59.64.64,0,0,1,.59-.68c.89-.06,1.77-.07,2.62-.07a22.17,22.17,0,0,0,4-.24A.63.63,0,0,1,246.13,30.28Zm-8.41-7.48a15.73,15.73,0,0,1,2-.68l.1,0a2,2,0,0,0,0-.25,10.45,10.45,0,0,1,.26-1.79.65.65,0,0,1,.47-.45.63.63,0,0,1,.61.19l.11.12c.31.34.6.67.91,1a9.8,9.8,0,0,1,1.62,0l.52,0a.67.67,0,0,1,.53.34.62.62,0,0,1,0,.62c-.36.6-.68,1.21-1,1.86.15.53.27,1.05.39,1.57.06.28.13.57.2.86a.61.61,0,0,1-.23.64.62.62,0,0,1-.68.07c-.46-.24-.94-.51-1.5-.87-.49.53-1,1.07-1.48,1.64a.66.66,0,0,1-.47.21.58.58,0,0,1-.19,0,.63.63,0,0,1-.44-.52c-.09-.67-.17-1.36-.24-2l-.06-.64a8.35,8.35,0,0,1-1.52-.77.64.64,0,0,1-.28-.59A.63.63,0,0,1,237.72,22.8Z"/><path class="cls-1" d="M248.84,52.52c-7.7,0-13.46,8.35-13.46,15.82a16.33,16.33,0,0,0,.22,2.71l2.82-.43a.88.88,0,0,1-.07-.23,11,11,0,0,1-.13-1.72,12.18,12.18,0,0,1,.7-4,.69.69,0,0,1-.35.11.47.47,0,0,1-.17,0c-.31-.08-.6-.19-.89-.29s-.54-.2-.81-.27a.64.64,0,0,1-.43-.79.63.63,0,0,1,.78-.43l.89.29c.28.1.54.2.8.27a.63.63,0,0,1,.44.47,11.72,11.72,0,0,1,9.06-7.26.64.64,0,1,1,.17,1.26c-5,.66-8.92,5.36-8.92,10.72a11.39,11.39,0,0,0,.11,1.54.6.6,0,0,1,0,.23l4-.58c0-.1,0-.2,0-.3a3.71,3.71,0,0,1,.82-2.31.63.63,0,0,1,.07-.4c1.62-2.88,3-5.92,4.42-8.85l.87-1.84a.63.63,0,0,1,.71-.35.64.64,0,0,1,.5.63c0,.58,0,1.16,0,1.74a.64.64,0,0,1,.76-.24,8.09,8.09,0,0,1,4.14,3.81s0-.08,0-.12a.64.64,0,0,1,.7-.42l.06,0a1.4,1.4,0,0,1,.57-.14.63.63,0,0,1,.63.63.64.64,0,0,1-.6.64l-.1,0a1.47,1.47,0,0,1-.56.14,1,1,0,0,1-.3-.05l-.09-.06a20.71,20.71,0,0,1,1.62,7.4c.87,0,1.75,0,2.62-.11l0-.17C259.15,63.56,256.87,52.52,248.84,52.52Zm-7.39,7a.63.63,0,0,1-.54.31.68.68,0,0,1-.33-.09,2.94,2.94,0,0,1-.64-.54,2.47,2.47,0,0,0-.41-.35.64.64,0,0,1,.66-1.09,3.62,3.62,0,0,1,.64.54,2.07,2.07,0,0,0,.41.35A.63.63,0,0,1,241.45,59.5Zm3.69-2.3a.69.69,0,0,1-.2,0,.64.64,0,0,1-.6-.44c-.06-.18-.11-.38-.17-.58a4.57,4.57,0,0,0-.28-.86.63.63,0,0,1,1.13-.57,5.22,5.22,0,0,1,.38,1.11c0,.17.09.34.14.5A.65.65,0,0,1,245.14,57.2ZM249,55a2.44,2.44,0,0,0,0,.27.64.64,0,0,1-.63.64.64.64,0,0,1-.64-.64c0-.1,0-.2,0-.31s0-.17,0-.26a.9.9,0,0,0-.09-.47.63.63,0,0,1,1.09-.65,2.14,2.14,0,0,1,.26,1.12ZM255,56.64c-.08.15-.15.32-.23.49s-.17.39-.25.55A.62.62,0,0,1,254,58a.67.67,0,0,1-.28-.06.64.64,0,0,1-.29-.85c.08-.16.16-.33.23-.5s.17-.38.26-.55a.63.63,0,1,1,1.13.57Z"/><path class="cls-1" d="M263.29,35.82a2.28,2.28,0,0,0-.45,0,1.74,1.74,0,0,0-1.3,1.44,12.92,12.92,0,0,1,1.89-1.46Z"/><path class="cls-1" d="M229.11,14.65h-.06a.57.57,0,0,0-.23.09.92.92,0,0,0-.44.85.73.73,0,0,0,.67.74.92.92,0,0,0,.7-.26.85.85,0,0,0,.3-.53c0-.09,0-.21,0-.32C230,14.93,229.46,14.65,229.11,14.65Z"/><path class="cls-1" d="M264,40.55a2.89,2.89,0,0,1-.78.12,3,3,0,0,1-.8-.12l0,.08a5.6,5.6,0,0,0-1.18,3.59q0,.36,0,.72c1.51-.27,3-.45,4.44-.6A5.77,5.77,0,0,0,264,40.62Z"/><path class="cls-1" d="M267.88,20.75a27.77,27.77,0,0,1-.88,2.71l1.24-.44.07,0c.6-.21,1.25-.43,1.9-.68-.52-.33-1-.67-1.52-1Z"/><path class="cls-1" d="M566.93,0H256.44c.12,2.76.23,5.56.28,8.33a.6.6,0,0,1-.14.42,6.23,6.23,0,0,1-4.89,2.32,7.29,7.29,0,0,1-5.16-2.17.62.62,0,0,1-.18-.41C246.2,5.77,246.08,3,246,0h-4.39a.63.63,0,0,1,.27.73,20.36,20.36,0,0,0-1.25,6.17c0,2.55,1,4,3.1,4.39a.63.63,0,0,1-.12,1.25h-.12c-1.88-.36-4.13-1.63-4.13-5.63A21.91,21.91,0,0,1,240.69.33.62.62,0,0,1,241,0H237V.43c0,2.94,0,5.34.14,7.55a.62.62,0,0,1-.17.46.65.65,0,0,1-.44.2c-.93,0-1.88,0-2.89,0-3.62,0-7.3-.21-10.85-.41-3-.17-6-.34-9-.39a.65.65,0,0,1-.63-.62L212.92,0H199.15l.49,1a.64.64,0,0,1-1.14.56C198.21,1,198,.44,197.73,0H181a13.6,13.6,0,0,0-4.55,4.44.63.63,0,0,1-.43.29.66.66,0,0,1-.51-.13,1.52,1.52,0,0,0-.91-.2c-2,0-3.59,1.51-4.67,4.49a27.42,27.42,0,0,0-1.31,8.57,14.75,14.75,0,0,0,1.48,5.2.63.63,0,0,1-.34.85,3.77,3.77,0,0,0-2.3,3.6c0,.93,1.07,1.51,1.66,1.51a4.73,4.73,0,0,0,1.57-.31.65.65,0,0,1,.57.09.63.63,0,0,1,.27.51v.28c0,8.14,3.29,9.85,6.48,11.51,2.87,1.49,5.84,3,5.84,9,0,.28,0,.58,0,.88a5.84,5.84,0,0,0,3.92,1.56,4,4,0,0,0,3.52-1.64l-.21,0a.62.62,0,0,1-.54-.62v-.12c0-5.77,2.52-7.18,4.95-8.55,3-1.67,6.31-3.55,6.31-14.22a26.45,26.45,0,0,0-2.12-10.48.63.63,0,0,1,.32-.84.64.64,0,0,1,.84.33,26.47,26.47,0,0,1,1.33,3.88l0-.16a35.05,35.05,0,0,0,1.07-7.39c0-4.92-3.76-10.19-9.35-10.19a8.5,8.5,0,0,0-1.66.17A.63.63,0,1,1,192,1a9.46,9.46,0,0,1,1.91-.2A10.37,10.37,0,0,1,201.21,4a11.67,11.67,0,0,1,3.28,8.22,36.29,36.29,0,0,1-1.1,7.66l-.06.28a.64.64,0,0,1-.62.5l-.13,0a.67.67,0,0,1-.3-.16,28.43,28.43,0,0,1,.74,6.4c0,11.41-3.69,13.49-7,15.32-2.33,1.31-4.19,2.36-4.3,7l2,.29c2.2.34,4.47.68,6.71.82,3.5-2.92,6.84-4.4,9.92-4.4a6.2,6.2,0,0,1,5.78,2.92c.69.92,1.14,1.52,2.28,1.52a13,13,0,0,0,2.95-.48l.48-.11c-.49-3.8-1.21-9.08-1.61-12a.63.63,0,0,1,.4-.67c.57-.23,1.13-.42,1.68-.61A.62.62,0,0,1,222,36v-.09c0-.5-.33-.85-.86-1.37A2.92,2.92,0,0,1,220,32.42a6,6,0,0,1,.07-.76,3.46,3.46,0,0,0,.07-.61.63.63,0,0,1,1.26,0,6.44,6.44,0,0,1-.07.8,3.07,3.07,0,0,0-.06.57c0,.4.29.71.78,1.18a3.15,3.15,0,0,1,1.25,2.28c0,.06,0,.12,0,.18a1.6,1.6,0,0,1,0,.21,20.8,20.8,0,0,1,4.58-.88c-1.6-9.27-1.88-9.38-3.16-9.81a8.2,8.2,0,0,1-2.48-1.27l-1-.73c-1.47-1.14-3.14-2.43-4.59-2.43-2,0-4.63,3.92-4.63,6.24a3.94,3.94,0,0,0,.34,1.52,11.75,11.75,0,0,1,1.42-3.63.62.62,0,0,1,.86-.24.63.63,0,0,1,.25.86,9.09,9.09,0,0,0-1.38,4.23,4.73,4.73,0,0,0,0,.52,6.68,6.68,0,0,0,1.36,1.07,7.69,7.69,0,0,1,1.3-4.52.63.63,0,1,1,1,.75,7.07,7.07,0,0,0-1.07,4.31,4,4,0,0,0,1.13.17c1,0,1.17-.45,1.44-1.34a2.68,2.68,0,0,1,2.81-2.3,4.86,4.86,0,0,1,1.54.27.63.63,0,1,1-.4,1.2,3.75,3.75,0,0,0-1.14-.2c-1.15,0-1.31.5-1.6,1.41a2.63,2.63,0,0,1-1.9,2.14.73.73,0,0,1-.08.25l-.12.2a2,2,0,0,1-1.71,1.3,2.88,2.88,0,0,1-2.73-2.82.57.57,0,0,1,.08-.29,7.49,7.49,0,0,1-.84-.75.59.59,0,0,1-.26-.28,6,6,0,0,1-1.63-3.83c0-3,3.16-7.51,5.9-7.51,1.89,0,3.73,1.43,5.37,2.69.32.25.63.5.93.72A7.32,7.32,0,0,0,225,24.38c2,.67,2.35,1.16,4,11h.19a1.58,1.58,0,0,1,1.25.31,2,2,0,0,1,.38,1.47c0,2.73-2.83,3.5-5.33,4.18a13.27,13.27,0,0,0-2.9,1,.58.58,0,0,1-.54,0c.36,2.65.75,5.58,1,7.86a.64.64,0,0,1-.49.7l-1,.23a13.94,13.94,0,0,1-3.24.52c-1.77,0-2.55-1-3.29-2a5,5,0,0,0-4.77-2.41c-2.79,0-6,1.48-9.3,4.26a.61.61,0,0,1-.44.15c-2.38-.13-4.77-.49-7.08-.85l-.51-.07a12.33,12.33,0,0,1,.42,3.35c0,.74-.05,1.55-.14,2.54a.62.62,0,0,1-.32.48.66.66,0,0,1-.58,0,16.76,16.76,0,0,1-1.9-1.06v.08c0,.27,0,.55,0,.82a5.15,5.15,0,0,1-.8,3.07c2.33,8.16,4.72,16.56,6.7,25h4.05c.22-2.15,1.18-6.2,2.19-10.45.66-2.8,1.35-5.7,1.8-8a.64.64,0,0,1,.58-.51,74.86,74.86,0,0,0,16.56-3.18c4.38-1.48,9.6-4.07,9.6-8a42.49,42.49,0,0,0-.77-6.89,45.07,45.07,0,0,1-.78-7.16v-.35a.64.64,0,1,1,1.27,0v.33a44.36,44.36,0,0,0,.76,7,43.21,43.21,0,0,1,.78,7.09c0,8-16.65,11.57-26.85,12.43-.46,2.24-1.1,5-1.72,7.57s-1.3,5.51-1.73,7.66q.53,0,1,0a.64.64,0,0,1,.6.67.63.63,0,0,1-.67.6c-.4,0-.81,0-1.21,0-.08.46-.14.86-.18,1.22h6a11,11,0,0,0-1.46-.61.64.64,0,0,1-.39-.81.62.62,0,0,1,.8-.39,13.81,13.81,0,0,1,1.64.68.63.63,0,0,1,.28.85.62.62,0,0,1-.3.28h7.63c-.43-2.36-.92-4.71-1.41-7-2,.47-3.79.84-5.43,1.13a.61.61,0,0,1-.64-.27.64.64,0,0,1,0-.7c2.27-3.46,4.36-6.83,6.39-10.3a.66.66,0,0,1,.41-.3.64.64,0,0,1,.5.11,85.81,85.81,0,0,0,9.61,5.81.62.62,0,0,1,.33.57.62.62,0,0,1-.35.56c-1.32.67-2.41,1.18-3.45,1.61A35.41,35.41,0,0,0,225,85h8.74a12,12,0,0,1-3-5.13c-.35.12-.71.23-1.07.33a.5.5,0,0,1-.17,0,.62.62,0,0,1-.46-.19.63.63,0,0,1-.14-.63c.26-.8.46-1.65.65-2.46.1-.42.19-.83.3-1.25a.68.68,0,0,1,.42-.45.65.65,0,0,1,.61.13c.42.36.83.75,1.22,1.12s.93.89,1.41,1.28a.62.62,0,0,1,.23.59.62.62,0,0,1-.38.49l-.11,0-1.31.53a10.94,10.94,0,0,0,3.7,5.57h4.71a3,3,0,0,1,1-.59,3.74,3.74,0,0,1,1.55-.27,2.86,2.86,0,0,1,1.78.86h11.08V85c0-.31,0-.62,0-.91,0-1.23,1.25-1.36,2-1.45,1.15-.12,1.38-.25,1.38-.78a3.94,3.94,0,0,0-.28-1.1,4.32,4.32,0,0,1-.32-1.37c0-1.12,1.19-1.37,2.15-1.58,1.44-.31,2.32-.58,2.32-1.76,0-.07,0-.15,0-.23a.63.63,0,1,1,1.26-.1c0,.11,0,.22,0,.33,0,2.29-2.09,2.73-3.33,3a4,4,0,0,0-1.16.36,4.25,4.25,0,0,0,.27.94,4.74,4.74,0,0,1,.35,1.51c0,1.77-1.63,2-2.51,2a3,3,0,0,0-.88.18c0,.26,0,.54.05.83a1,1,0,0,1,0,.17H566.93ZM172.33,19l.15.9a42.52,42.52,0,0,1,.75,5.93.64.64,0,0,1-.61.66h0a.63.63,0,0,1-.63-.61,42.39,42.39,0,0,0-.74-5.76c-.08-.46-.15-.91-.23-1.37a.63.63,0,0,1,.36-.68c2.91-1.35,4.65-4.57,4.65-8.61a13.09,13.09,0,0,0-.12-1.78.63.63,0,0,1,.55-.71.62.62,0,0,1,.71.54,14.09,14.09,0,0,1,.13,2C177.28,13.83,175.44,17.36,172.33,19Zm5.6.49a.61.61,0,0,1-.51-.27.64.64,0,0,1,.14-.88,8.93,8.93,0,0,1,3.84-1.56.63.63,0,1,1,.2,1.25,7.66,7.66,0,0,0-3.29,1.33A.62.62,0,0,1,177.93,19.52Zm1.92,2,.24-.22a.63.63,0,0,1,.83-.06,3.64,3.64,0,0,0,.35.24,5.33,5.33,0,0,1,.87.68,1,1,0,0,1,.28.69,1.69,1.69,0,0,1-1.67,1.86,1.79,1.79,0,0,1-1.83-1.65A2.21,2.21,0,0,1,179.85,21.55ZM187.46,36l0,0a.89.89,0,0,1,0,.22c-.56,2-1.73,3.07-3.23,3.07-2.76,0-4.61-2.87-5-5.58a.64.64,0,0,1,1.2-.36,4.44,4.44,0,0,0,4,2.27,4,4,0,0,0,2.29-.67.63.63,0,0,1,.88.15A.64.64,0,0,1,187.46,36Zm.59-3.43a3.42,3.42,0,0,1-1.54-.33.64.64,0,0,1,.57-1.14,2,2,0,0,0,1,.2c.64,0,2.13-.07,2.13-.78a.57.57,0,0,0,0-.18c-.09-.29-.24-.37-.76-.57-1.39-.51-2.63-1.33-2.63-5.52,0-.59,0-1.19.06-1.77s.05-1.15.05-1.7c0-.32,0-.6,0-.87a.64.64,0,0,1,.59-.68.63.63,0,0,1,.67.59c0,.3,0,.61,0,1,0,.58,0,1.18-.06,1.76s-.05,1.15-.05,1.71c0,3.66,1,4,1.8,4.33a2.12,2.12,0,0,1,1.53,1.38,1.81,1.81,0,0,1,.08.56C191.44,31.26,191,32.55,188.05,32.55Zm5.27-7.5a1.58,1.58,0,0,1-1.74-1.53c0-.52.24-1.25,1.4-1.83a.62.62,0,0,1,.73.12A1.05,1.05,0,0,0,194,22,1.64,1.64,0,0,1,195.12,23a1,1,0,0,1,0,.31A1.88,1.88,0,0,1,193.32,25.05Zm3-5.46a.63.63,0,0,1-.37.12.66.66,0,0,1-.52-.27,4,4,0,0,0-2.38-1.77.62.62,0,0,1-.52-.72.64.64,0,0,1,.73-.53,5.12,5.12,0,0,1,3.21,2.29A.64.64,0,0,1,196.33,19.59Zm3.4-7.42a.62.62,0,0,1,.06.89.6.6,0,0,1-.47.22.61.61,0,0,1-.42-.16c-1.64-1.43-4.54-1.53-7.6-1.63-4.55-.15-9.7-.32-12.5-4.88a.64.64,0,0,1,1.08-.67c2.45,4,7,4.14,11.46,4.28C194.63,10.33,197.75,10.43,199.73,12.17Zm8.56,6.12a12.77,12.77,0,0,0-.93,5.11,40.3,40.3,0,0,0,.48,5.39.62.62,0,0,1-.54.71h-.09a.63.63,0,0,1-.62-.55,40.45,40.45,0,0,1-.5-5.56,14.15,14.15,0,0,1,1-5.61.64.64,0,0,1,.84-.33A.63.63,0,0,1,208.29,18.29Zm.4,14.92a1,1,0,0,1-.88,1,.89.89,0,0,1-.71-.3,1.25,1.25,0,0,1-.21-1,1.37,1.37,0,0,0,0-.19.63.63,0,0,1,1.22-.23A.88.88,0,0,1,208.69,33.21ZM207.56,42h-.1a2.43,2.43,0,0,1-2.54-2.27A2.63,2.63,0,0,1,207,36.93a1.72,1.72,0,0,1,.39,0,2.62,2.62,0,0,1,2.51,2.5A2.59,2.59,0,0,1,207.56,42Zm3-28.57a2.35,2.35,0,0,1-1.6.78h-.09a2.32,2.32,0,0,1-2.39-2.2,2.38,2.38,0,0,1,2.07-2.53h.3a2.52,2.52,0,0,1,1.39.48,2.25,2.25,0,0,1,1,1.73A2.42,2.42,0,0,1,210.59,13.38Zm9.13-2c0-.24,0-.48,0-.72s0-.7,0-1.05a.63.63,0,0,1,1.26.1c0,.31,0,.63,0,1s0,.44,0,.66a.63.63,0,0,1-.6.66h0A.64.64,0,0,1,219.72,11.35Zm2.05,5.46a.7.7,0,0,1-.25.05.63.63,0,0,1-.58-.38,16.44,16.44,0,0,1-.6-1.66.63.63,0,1,1,1.21-.36c.16.51.34,1,.55,1.52A.63.63,0,0,1,221.77,16.81Zm2.92,4.12a.65.65,0,0,1-.43.17.6.6,0,0,1-.46-.21,13.5,13.5,0,0,1-1.12-1.36.63.63,0,0,1,1-.75,15.7,15.7,0,0,0,1,1.26A.63.63,0,0,1,224.69,20.93Zm-17,35a7.47,7.47,0,0,1-2.69.76H205a.63.63,0,0,1-.63-.57.64.64,0,0,1,.56-.7,6.48,6.48,0,0,0,2.27-.63.64.64,0,0,1,.85.28A.63.63,0,0,1,207.71,56Zm6-3.43a.63.63,0,0,1-.86.24,6.6,6.6,0,0,0-3.14-.83,4.24,4.24,0,0,0-3.14,1.21.65.65,0,0,1-.46.2.66.66,0,0,1-.44-.17.64.64,0,0,1,0-.9,5.51,5.51,0,0,1,4.06-1.6,7.68,7.68,0,0,1,3.76,1A.63.63,0,0,1,213.74,52.52Zm-3.6,18.22a4.32,4.32,0,0,1-1.18.33l-.45.09-.16,0a.63.63,0,0,1-.15-1.25,5.35,5.35,0,0,1,.55-.11,2.6,2.6,0,0,0,.82-.22.64.64,0,0,1,.57,1.14Zm19.32-6.54c-.91.56-1.91,1-2.87,1.52-.8.39-1.62.8-2.4,1.24a.62.62,0,0,1-.32.09.64.64,0,0,1-.31-1.19c.81-.46,1.66-.88,2.47-1.27,1-.49,1.91-.94,2.77-1.47a.63.63,0,1,1,.66,1.08Zm31.23-53.93c1.18-1.31,2.44-2.69,3.81-4a.63.63,0,0,1,.89,0,26.48,26.48,0,0,0,3.31,2.88.59.59,0,0,1,.25.45.64.64,0,0,1-.16.49c-.5.53-1,1.06-1.51,1.57-.7.73-1.43,1.47-2.1,2.24a.66.66,0,0,1-.48.22.6.6,0,0,1-.38-.13c-1.08-.82-2.34-1.8-3.57-2.89a.63.63,0,0,1-.22-.44A.66.66,0,0,1,260.69,10.27ZM258.25,30c.07.9.14,1.8.22,2.72a.63.63,0,0,1-.58.68h-.05a.63.63,0,0,1-.63-.58c-.08-.91-.15-1.82-.22-2.73-.14-1.84-.29-3.74-.5-5.63a.64.64,0,0,1,.55-.71.63.63,0,0,1,.7.56C258,26.27,258.11,28.18,258.25,30ZM256,20.67a.75.75,0,0,1,.09-.29.66.66,0,0,1,.54-.3,1,1,0,0,1,.85.53.77.77,0,0,1,.14.44.91.91,0,0,1-.78,1h-.11a.89.89,0,0,1-.87-.67.57.57,0,0,1,0-.18A.89.89,0,0,1,256,20.67ZM245.13,13.3a.28.28,0,0,1,0-.09.65.65,0,0,1,.63-.63.91.91,0,0,1,.91.76,1.63,1.63,0,0,1,0,.33.75.75,0,0,1-.75.76.84.84,0,0,1-.87-.88A2.11,2.11,0,0,1,245.13,13.3Zm-9.46,4,3.56-.19c4.52-.23,9.19-.47,13.75-1a.61.61,0,0,1,.47.14.63.63,0,0,1,.23.43l.51,5.71c.35,4.1.72,8.34,1.2,12.52a.65.65,0,0,1-.21.55c-.49.43-1,.84-1.47,1.25-1,.82-2,1.66-2.88,2.55a.69.69,0,0,1-.42.18h-.32a.69.69,0,0,1-.31.09h0a.56.56,0,0,1-.26-.07l-4.35.16-8.27.29a.64.64,0,0,1-.64-.6c-.14-2.7-.3-5.39-.45-8.08-.26-4.36-.53-8.87-.71-13.33A.63.63,0,0,1,235.67,17.29ZM252.89,47.1a1.09,1.09,0,0,1-1,1.14,1.18,1.18,0,0,1-1.06-1.07.86.86,0,0,1,.12-.44.63.63,0,0,1,.62-.53.6.6,0,0,1,.27.07.63.63,0,0,1,.87.18A1.16,1.16,0,0,1,252.89,47.1Zm-3.53-.66a.64.64,0,0,1-.71.54A13.31,13.31,0,0,0,237.5,51.3a.59.59,0,0,1-.46.2.63.63,0,0,1-.47-1.06,14.81,14.81,0,0,1,10.64-4.82,12.17,12.17,0,0,1,1.6.11A.63.63,0,0,1,249.36,46.44ZM228.87,23.76a.64.64,0,0,1-.58.36.66.66,0,0,1-.27-.06,13,13,0,0,1-1.54-.88.61.61,0,0,1-.18-.87.62.62,0,0,1,.87-.19,10.22,10.22,0,0,0,1.4.79A.65.65,0,0,1,228.87,23.76Zm.24-6.16H229a2,2,0,0,1-1.85-2,2.21,2.21,0,0,1,1-2,1.7,1.7,0,0,1,.77-.27A2.19,2.19,0,0,1,231.27,15a2.83,2.83,0,0,1,0,.54A2.08,2.08,0,0,1,230.6,17,2.29,2.29,0,0,1,229.11,17.6Zm4.08,7.67a13.08,13.08,0,0,1-1.78-.15.64.64,0,0,1-.53-.73.63.63,0,0,1,.73-.52,11.88,11.88,0,0,0,1.58.13.64.64,0,0,1,0,1.27ZM251.6,81a2.24,2.24,0,0,1-3.84-1.54A2.3,2.3,0,0,1,249.88,77a.38.38,0,0,1,.15,0,2.39,2.39,0,0,1,1.49.6,2.28,2.28,0,0,1,.76,1.67A2.37,2.37,0,0,1,251.6,81Zm10.09-10.4a.59.59,0,0,1-.45.25c-1.22.1-2.46.14-3.65.18a45.45,45.45,0,0,0-5.22.35.63.63,0,1,1-.18-1.25,39.63,39.63,0,0,1,4.34-.34c-.38-5.92-2.11-9.43-5.29-10.7a.6.6,0,0,1-.28-.24c0,2.3,0,4.63.1,6.88,0,1.47.06,2.93.08,4.4a.62.62,0,0,1-.43.6,3.84,3.84,0,0,1-.9,1.46,3.56,3.56,0,0,1-5.15,0,3.73,3.73,0,0,1-.76-1.14c-3,.41-5.89.86-8.72,1.3h-.1a.63.63,0,0,1-.62-.5,18.36,18.36,0,0,1-.35-3.56c0-10.07,7.76-17.09,14.73-17.09,9.06,0,11.58,12.15,12.78,18l.19.88A.67.67,0,0,1,261.69,70.63Zm-.89-24.32h-.13a.64.64,0,0,1-.62-.53,9.26,9.26,0,0,1-.14-1.57A6.79,6.79,0,0,1,261.29,40a3,3,0,0,1-1.05-2.2,3.06,3.06,0,0,1,2.36-3.15,2.88,2.88,0,0,1,.71-.06,2.81,2.81,0,0,1,1.58.51l.21-.11a.64.64,0,0,1,.83.36.62.62,0,0,1-.18.7,3,3,0,0,1,.43,1.44,3.21,3.21,0,0,1-.89,2.33l-.17.14a7.42,7.42,0,0,1,1.84,5,.62.62,0,0,1-.57.66C264.61,45.72,262.7,45.93,260.8,46.31Zm8.48,11.3c-.59.14-1.19.26-1.79.36a19.46,19.46,0,0,0,.22,2,.64.64,0,0,1-.52.73h-.11a.63.63,0,0,1-.62-.53c-.11-.67-.18-1.33-.23-2-.77.1-1.53.17-2.31.21h0a.64.64,0,0,1,0-1.27c.77,0,1.53-.11,2.29-.2l0-.53c0-.64-.07-1.31-.12-2a.63.63,0,0,1,1.26-.11c.06.69.09,1.36.12,2l0,.4c.53-.09,1.06-.2,1.57-.32a.63.63,0,0,1,.76.47A.62.62,0,0,1,269.28,57.61ZM271.89,23c-.87.36-1.76.68-2.58,1a18.66,18.66,0,0,1,.7,5.17,22.88,22.88,0,0,1-1.33,7.57.63.63,0,0,1-.6.42.76.76,0,0,1-.21,0,.64.64,0,0,1-.39-.81,21.45,21.45,0,0,0,1.27-7.15,17.58,17.58,0,0,0-.64-4.75c-.67.23-1.36.48-2,.74a.62.62,0,0,1-.69-.15.63.63,0,0,1-.12-.7,27.07,27.07,0,0,0,1.59-4.71.64.64,0,0,1,.37-.43.63.63,0,0,1,.58.05c.54.33,1.07.69,1.58,1,.83.56,1.68,1.14,2.55,1.61a.62.62,0,0,1,.33.59A.63.63,0,0,1,271.89,23Z"/><path class="cls-1" d="M117.29,23.73a4.28,4.28,0,0,0,.12-1.43,10.2,10.2,0,0,0-.37-2.66c0,.41,0,.82-.07,1.22s-.07,1-.07,1.42a3.55,3.55,0,0,0,.21,1.47A.57.57,0,0,0,117.29,23.73Z"/><path class="cls-1" d="M180.75,23.48c.29,0,.38-.27.4-.48a5.84,5.84,0,0,0-.56-.42c-.18.18-.41.4-.41.51A.57.57,0,0,0,180.75,23.48Z"/><path class="cls-1" d="M247.23,67.19a3.43,3.43,0,0,0-.56.07,2.34,2.34,0,0,0-1.83,2.31c0,.12,0,.23,0,.34a.69.69,0,0,1,.22.39.73.73,0,0,1,0,.29,2.67,2.67,0,0,0,.51.76,2.31,2.31,0,0,0,3.35,0,2.51,2.51,0,0,0,.75-1.75A2.46,2.46,0,0,0,247.23,67.19Z"/><path class="cls-1" d="M250,78.3h-.07a1.06,1.06,0,0,0-.89,1.14,1,1,0,0,0,1.67.7,1.08,1.08,0,0,0,.31-.81,1,1,0,0,0-.31-.73A1.23,1.23,0,0,0,250,78.3Z"/><path class="cls-1" d="M249.69,59.28c-1.06,2.24-2.15,4.53-3.34,6.75h0a3.81,3.81,0,0,1,.82-.09h0A3.68,3.68,0,0,1,249.82,67l0-1.22C249.75,63.66,249.7,61.46,249.69,59.28Z"/><path class="cls-1" d="M263.19,39.4a1.6,1.6,0,0,0,1.19-.5,1.88,1.88,0,0,0,.53-1.4,1.83,1.83,0,0,0-.28-.9,11,11,0,0,0-2.75,2.17A1.62,1.62,0,0,0,263.19,39.4Z"/><path class="cls-1" d="M183.69,71.92c-.05,0-.09,0-.13,0-.37,2.29-.69,4.23-1,5.88,2.94-1.76,6-3.43,9.26-5.07l.09,0q-.7-2.59-1.43-5.17l0,0a71,71,0,0,0-6.4,4.24A.65.65,0,0,1,183.69,71.92Z"/><path class="cls-1" d="M182.32,79.33c-.12.7-.23,1.35-.34,1.93a105.82,105.82,0,0,1,10.59-5.59l.17,0c-.16-.57-.31-1.15-.46-1.72-3.46,1.73-6.66,3.49-9.75,5.36A.56.56,0,0,1,182.32,79.33Z"/><path class="cls-1" d="M188.64,60.92a3.93,3.93,0,0,1-1.75.37,3.25,3.25,0,0,1-1.59-.37c-.37,2.34-.7,4.45-1,6.38a32.69,32.69,0,0,1,5.19-3.4C189.21,62.9,188.92,61.91,188.64,60.92Z"/><path class="cls-1" d="M186.89,60c1.67,0,2.35-.88,2.35-3.05,0-.26,0-.52,0-.79s0-.53,0-.79a.58.58,0,0,1,0-.14l-.3-.2c-.41-.28-.83-.57-1.26-.85a23.25,23.25,0,0,0-3.28,1.43v0c.06.31.11.62.17.94C184.94,58.72,185.24,60,186.89,60Z"/><path class="cls-1" d="M220.91,75.28c.87-.35,1.75-.74,2.77-1.23a85.48,85.48,0,0,1-8.1-4.92c-1.69,2.86-3.42,5.66-5.26,8.51,1.37-.27,2.85-.59,4.54-1a.64.64,0,0,1,.49.08.67.67,0,0,1,.28.4l.05.22c.53,2.52,1.07,5.09,1.54,7.69h6.37a39.64,39.64,0,0,1-3.06-9A.63.63,0,0,1,220.91,75.28Z"/><path class="cls-1" d="M183.8,70.43a66.83,66.83,0,0,1,6-4,.59.59,0,0,1,.36-.07c-.11-.41-.23-.82-.35-1.23a30.83,30.83,0,0,0-5.85,4C183.93,69.62,183.86,70,183.8,70.43Z"/><path class="cls-1" d="M230.81,77.07c0,.07,0,.14-.05.2-.11.46-.22.93-.34,1.4.49-.17,1-.36,1.48-.56l-.7-.66Z"/><path class="cls-1" d="M116.21,40.32l3.72.07c0-3.67-.15-7.4-.28-11-.15-3.79-.3-7.7-.3-11.56,0-1.42,0-2.74.06-4-.74.05-1.49.07-2.21.1-.54,0-1.09,0-1.63.06,0,1.38-.07,2.8-.07,4.31,0,4.46.2,9,.39,13.38C116,34.48,116.14,37.41,116.21,40.32Zm1.88-10.2-.32,0a4.31,4.31,0,0,1-.55.05,1.57,1.57,0,0,1-.7-.15.64.64,0,0,1,.56-1.14,1.09,1.09,0,0,0,.5,0,4.06,4.06,0,0,1,.51,0,.63.63,0,0,1,0,1.26ZM118,28a2.23,2.23,0,0,0-.66,0,4.88,4.88,0,0,1-.7.07.63.63,0,1,1,0-1.26,3.22,3.22,0,0,0,.5-.06,3.42,3.42,0,0,1,1.11,0A.63.63,0,1,1,118,28Zm-2.25-7.26c0-.5.07-1,.07-1.42,0-.14,0-.28,0-.42a.64.64,0,0,1,.43-.64l.43-.1a1.18,1.18,0,0,0,.41-.12.62.62,0,0,1,.56-.07.64.64,0,0,1,.4.4,12.23,12.23,0,0,1,.68,3.9c0,1.69-.11,2.72-1.68,2.72-.9,0-1.36-.92-1.36-2.74C115.64,21.78,115.67,21.26,115.71,20.77Z"/><path class="cls-1" d="M139.73,46c.1,1.33.34,2.16,1.17,2.38,0-.11,0-.21,0-.32.11-.84.21-1.7.32-2.55l-1.58,0A3.1,3.1,0,0,1,139.73,46Z"/><path class="cls-1" d="M182.72,51.27l-.06-.06c0-.06-.11-.11-.17-.17-1,.38-1.81.76-2.63,1.12h0a20.15,20.15,0,0,1,1.91,3.53,25.75,25.75,0,0,1,4.83-2.44A7.27,7.27,0,0,1,182.72,51.27Z"/><path class="cls-1" d="M112.54,43.27c1.63,0,4.21.18,7.37.36,5.38.31,12.07.7,17.34.7,1.45,0,2.82,0,4.16-.08.07-.65.12-1.3.18-2-10.75-.4-20.31-.65-29.14-.76C112.48,42.16,112.51,42.73,112.54,43.27Z"/><path class="cls-1" d="M192.11,55.56c0-.54,0-1,0-1.48a12.6,12.6,0,0,0-.23-2.48,5,5,0,0,1-3.31,1.71l1,.69C190.48,54.56,191.27,55.1,192.11,55.56Z"/><path class="cls-1" d="M124,48.33c.62,0,.75-1.08.86-2.37,0-.28,0-.53.08-.78l-2.47-.13C122.47,47.22,123,48.33,124,48.33Z"/><path class="cls-2" d="M291.09,22.35h2.72a4.4,4.4,0,0,0,2.1-.48,3.39,3.39,0,0,0,1.41-1.37,4,4,0,0,0,.5-2.05,4.06,4.06,0,0,0-.5-2.06A3.39,3.39,0,0,0,295.91,15a4.29,4.29,0,0,0-2.1-.49h-5.13V27.31h2.41Zm2.78-5.5a1.5,1.5,0,0,1,.77.2,1.32,1.32,0,0,1,.51.56,1.86,1.86,0,0,1,.18.84,1.72,1.72,0,0,1-.19.83,1.29,1.29,0,0,1-.51.55,1.37,1.37,0,0,1-.76.2h-2.78V16.85Z"/><polygon class="cls-2" points="302.12 27.31 308.27 27.31 308.27 24.99 302.12 24.99 302.12 22.12 307.31 22.12 307.31 19.8 302.12 19.8 302.12 16.85 308.27 16.85 308.27 14.53 302.12 14.53 300.58 14.53 299.71 14.53 299.71 27.31 300.58 27.31 302.12 27.31"/><path class="cls-2" d="M317.92,21.69a3.18,3.18,0,0,0,1.25-1.34,4.38,4.38,0,0,0,.43-2,4.36,4.36,0,0,0-.43-2A3.22,3.22,0,0,0,317.93,15a3.58,3.58,0,0,0-1.86-.48h-5.6V27.31h2.41V22.17h1.46l2.88,5.14h2.92L317.08,22A3.11,3.11,0,0,0,317.92,21.69Zm-5-4.85h3a1.14,1.14,0,0,1,.66.19,1.18,1.18,0,0,1,.43.52,2,2,0,0,1,0,1.59,1.16,1.16,0,0,1-.43.52,1.13,1.13,0,0,1-.65.19h-3Z"/><path class="cls-2" d="M327.7,24.74a3.55,3.55,0,0,1-1.83.4,6.15,6.15,0,0,1-2-.33,5.31,5.31,0,0,1-1.7-.94l-1.12,2a6.84,6.84,0,0,0,1.38.86,8.52,8.52,0,0,0,1.64.54,8.91,8.91,0,0,0,1.79.18A6.69,6.69,0,0,0,328.5,27a3.54,3.54,0,0,0,1.67-1.32,3.75,3.75,0,0,0,.57-2.1h0a3.44,3.44,0,0,0-.54-2.05,3.11,3.11,0,0,0-1.36-1.09,10.45,10.45,0,0,0-2-.58l-.1,0-.1,0-.07,0h-.07a12,12,0,0,1-1.31-.32,1.82,1.82,0,0,1-.78-.47,1.18,1.18,0,0,1-.32-.87h0a1.12,1.12,0,0,1,.61-1,3.24,3.24,0,0,1,1.71-.37,4.57,4.57,0,0,1,1.54.28,6.67,6.67,0,0,1,1.55.79l1-2a7.93,7.93,0,0,0-1.31-.72,6.93,6.93,0,0,0-1.4-.45,6.2,6.2,0,0,0-1.4-.16,6.32,6.32,0,0,0-2.55.46,3.51,3.51,0,0,0-1.61,1.34,3.89,3.89,0,0,0-.55,2.12h0a3.44,3.44,0,0,0,.59,2.15,3.1,3.1,0,0,0,1.43,1.07,11.59,11.59,0,0,0,2.13.5l.19,0h.1a9,9,0,0,1,1.19.25,1.78,1.78,0,0,1,.76.44,1.13,1.13,0,0,1,.29.81h0A1.26,1.26,0,0,1,327.7,24.74Z"/><path class="cls-2" d="M334.54,26.86a5.46,5.46,0,0,0,4.9,0,4.1,4.1,0,0,0,1.64-1.66,5.15,5.15,0,0,0,.58-2.47V19.11a5.22,5.22,0,0,0-.58-2.48A4.13,4.13,0,0,0,339.44,15a5.46,5.46,0,0,0-4.9,0,4.13,4.13,0,0,0-1.64,1.65,5.22,5.22,0,0,0-.58,2.48v3.62a5.15,5.15,0,0,0,.58,2.47A4.1,4.1,0,0,0,334.54,26.86Zm.28-7.81a2.48,2.48,0,0,1,.27-1.18,1.87,1.87,0,0,1,.76-.79,2.32,2.32,0,0,1,1.14-.27,2.34,2.34,0,0,1,1.14.27,1.93,1.93,0,0,1,.76.79,2.48,2.48,0,0,1,.27,1.18v3.74a2.48,2.48,0,0,1-.27,1.18,1.93,1.93,0,0,1-.76.79A2.34,2.34,0,0,1,337,25a2.32,2.32,0,0,1-1.14-.27,1.87,1.87,0,0,1-.76-.79,2.48,2.48,0,0,1-.27-1.18Z"/><polygon class="cls-2" points="346.33 18.09 350.86 27.3 353.82 27.3 353.82 14.53 351.52 14.53 351.52 23.89 346.97 14.53 344.03 14.53 344.03 27.3 346.33 27.3 346.33 18.09"/><path class="cls-2" d="M358.54,25.26h4.68l.72,2h2.59l-4.89-12.78h-1.53l-4.88,12.78h2.59Zm2.34-6.68,1.53,4.36h-3.06Z"/><polygon class="cls-2" points="370.52 27.31 376.67 27.31 376.67 24.99 370.52 24.99 370.52 14.53 368.11 14.53 368.11 27.31 369.18 27.31 370.52 27.31"/><path class="cls-2" d="M293.81,44a4.4,4.4,0,0,0,2.1-.48,3.39,3.39,0,0,0,1.41-1.37,4.47,4.47,0,0,0,0-4.11,3.39,3.39,0,0,0-1.41-1.37,4.29,4.29,0,0,0-2.1-.49h-5.13V48.91h2.41V44Zm.06-5.5a1.5,1.5,0,0,1,.77.2,1.32,1.32,0,0,1,.51.56,1.86,1.86,0,0,1,.18.84,1.72,1.72,0,0,1-.19.83,1.29,1.29,0,0,1-.51.55,1.37,1.37,0,0,1-.76.2h-2.78V38.45Z"/><path class="cls-2" d="M306.57,36.58a5.46,5.46,0,0,0-4.9,0A4.07,4.07,0,0,0,300,38.23a5.1,5.1,0,0,0-.58,2.48v3.62A5,5,0,0,0,300,46.8a4,4,0,0,0,1.64,1.66,5.46,5.46,0,0,0,4.9,0,4,4,0,0,0,1.63-1.66,5,5,0,0,0,.58-2.47V40.71a5.1,5.1,0,0,0-.58-2.48A4,4,0,0,0,306.57,36.58Zm-.28,7.81a2.48,2.48,0,0,1-.27,1.18,1.93,1.93,0,0,1-.76.79,2.34,2.34,0,0,1-1.14.27,2.29,2.29,0,0,1-1.14-.27,2,2,0,0,1-.77-.79,2.6,2.6,0,0,1-.26-1.18V40.65a2.6,2.6,0,0,1,.26-1.18,2,2,0,0,1,.77-.79,2.29,2.29,0,0,1,1.14-.27,2.34,2.34,0,0,1,1.14.27,1.93,1.93,0,0,1,.76.79,2.48,2.48,0,0,1,.27,1.18Z"/><polygon class="cls-2" points="313.06 48.91 315.46 48.91 315.46 38.45 318.94 38.45 318.94 36.13 309.58 36.13 309.58 38.45 313.06 38.45 313.06 48.91"/><polygon class="cls-2" points="322.76 48.91 328.91 48.91 328.91 46.59 322.76 46.59 322.76 43.72 327.94 43.72 327.94 41.4 322.76 41.4 322.76 38.45 328.91 38.45 328.91 36.13 322.76 36.13 321.22 36.13 320.35 36.13 320.35 48.91 321.22 48.91 322.76 48.91"/><polygon class="cls-2" points="340.9 48.9 340.9 36.13 338.6 36.13 338.6 45.49 334.05 36.13 331.11 36.13 331.11 48.9 333.41 48.9 333.41 39.69 337.94 48.9 340.9 48.9"/><polygon class="cls-2" points="352.03 38.45 352.03 36.13 342.66 36.13 342.66 38.45 346.14 38.45 346.14 48.91 348.55 48.91 348.55 38.45 352.03 38.45"/><rect class="cls-2" x="353.26" y="36.13" width="2.5" height="12.78"/><path class="cls-2" d="M361.87,36.13,357,48.91h2.6l.71-2H365l.71,2h2.6L363.4,36.13Zm-.76,8.41,1.53-4.36,1.52,4.36Z"/><polygon class="cls-2" points="372.28 46.59 372.28 36.13 369.87 36.13 369.87 48.91 370.94 48.91 372.28 48.91 378.43 48.91 378.43 46.59 372.28 46.59"/><rect class="cls-2" x="288.51" y="57.73" width="2.5" height="12.78"/><polygon class="cls-2" points="301.13 67.09 296.59 57.73 293.64 57.73 293.64 70.5 295.94 70.5 295.94 61.29 300.47 70.5 303.43 70.5 303.43 57.73 301.13 57.73 301.13 67.09"/><polygon class="cls-2" points="318.21 62.99 315.8 62.99 315.8 66.23 313.47 66.23 317.3 57.74 314.58 57.74 310.64 66.33 310.64 68.55 315.8 68.55 315.8 70.52 318.21 70.52 318.21 68.55 319.21 68.55 319.21 66.23 318.21 66.23 318.21 62.99"/><rect class="cls-2" x="320.75" y="68.1" width="2.41" height="2.41"/><path class="cls-2" d="M328.43,57.57a3.89,3.89,0,0,0-2.84,1,3.51,3.51,0,0,0-1,2.67V67a3.57,3.57,0,0,0,1,2.67,4.72,4.72,0,0,0,5.69,0,3.59,3.59,0,0,0,1-2.68V61.2a3.57,3.57,0,0,0-1-2.68A3.94,3.94,0,0,0,328.43,57.57Zm1.41,8.83a2.46,2.46,0,0,1-.34,1.42,1.39,1.39,0,0,1-2.14,0A2.46,2.46,0,0,1,327,66.4V61.82a2.49,2.49,0,0,1,.35-1.43,1.39,1.39,0,0,1,2.14,0,2.5,2.5,0,0,1,.34,1.43Z"/><polygon class="cls-2" points="340.5 57.73 339.63 57.73 339.63 70.51 340.5 70.51 342.04 70.51 348.19 70.51 348.19 68.19 342.04 68.19 342.04 65.32 347.23 65.32 347.23 63 342.04 63 342.04 60.05 348.19 60.05 348.19 57.73 342.04 57.73 340.5 57.73"/><path class="cls-2" d="M357.84,64.89a3.18,3.18,0,0,0,1.25-1.34,4.89,4.89,0,0,0,0-4,3.22,3.22,0,0,0-1.24-1.34,3.58,3.58,0,0,0-1.86-.48h-5.6V70.51h2.41V65.37h1.46l2.88,5.14h2.92L357,65.24A3.11,3.11,0,0,0,357.84,64.89Zm-5-4.85h3a1.14,1.14,0,0,1,.66.19,1.23,1.23,0,0,1,.43.52,2,2,0,0,1,0,1.59,1.16,1.16,0,0,1-.43.52,1.13,1.13,0,0,1-.65.19h-3Z"/><path class="cls-2" d="M365.34,57.73l-4.88,12.78h2.59l.72-2.05h4.68l.72,2.05h2.59l-4.89-12.78Zm-.76,8.41,1.53-4.36,1.53,4.36Z"/><path class="cls-2" d="M29.93,40a4.21,4.21,0,0,0-1.16-.64,4.34,4.34,0,0,0-1.41-.22,3.19,3.19,0,0,0-1.5.36,3.57,3.57,0,0,0-1.21,1,5,5,0,0,0-.79,1.56,6.65,6.65,0,0,0-.28,2,6.51,6.51,0,0,0,.29,2,5.06,5.06,0,0,0,.81,1.55,3.57,3.57,0,0,0,1.21,1,3.25,3.25,0,0,0,1.52.36,4.57,4.57,0,0,0,2.71-.8l-.32,1.58a3.42,3.42,0,0,1-1.13.44,6.56,6.56,0,0,1-1.44.15,4.77,4.77,0,0,1-3.7-1.69,5.79,5.79,0,0,1-1.11-2A7.64,7.64,0,0,1,22,44.08a7.86,7.86,0,0,1,.4-2.61,6.08,6.08,0,0,1,1.11-2,5.19,5.19,0,0,1,1.66-1.26,4.91,4.91,0,0,1,2.06-.44,5.5,5.5,0,0,1,1.68.24,6.24,6.24,0,0,1,1.29.56Z"/><path class="cls-2" d="M39.7,50.38a2.3,2.3,0,0,1-1-.58,1.83,1.83,0,0,1-.58-1.08,2.89,2.89,0,0,1-1.16,1.19,3.47,3.47,0,0,1-1.72.44,3.06,3.06,0,0,1-2.34-1,3.54,3.54,0,0,1-.9-2.52,4.05,4.05,0,0,1,.28-1.56A3.74,3.74,0,0,1,33,44.15a3.45,3.45,0,0,1,1.07-.75,3.71,3.71,0,0,1,1.28-.32l2.38-.24V41.63a2.62,2.62,0,0,0-.6-1.83,2.25,2.25,0,0,0-1.73-.65A3.87,3.87,0,0,0,34,39.4a3.62,3.62,0,0,0-1.14.61l-.27-1.37A4.08,4.08,0,0,1,33.91,38a5.66,5.66,0,0,1,1.62-.23,3.76,3.76,0,0,1,2.74,1,3.92,3.92,0,0,1,1,3v5.6a2.07,2.07,0,0,0,.4,1.38,2,2,0,0,0,.92.58Zm-2-6.25-2.17.22a2.11,2.11,0,0,0-1.51.75,2.57,2.57,0,0,0-.58,1.77A2.31,2.31,0,0,0,34,48.42,1.67,1.67,0,0,0,35.3,49a1.87,1.87,0,0,0,.87-.22,2.52,2.52,0,0,0,.79-.59,3.23,3.23,0,0,0,.57-.89,3,3,0,0,0,.21-1.14Z"/><path class="cls-2" d="M46,50.3h-.73L41.18,38h1.55l2,6.14c.17.47.32,1,.47,1.48s.3,1,.45,1.55h.05c.12-.52.26-1,.41-1.54s.31-1,.47-1.49l2-6.14h1.45Z"/><path class="cls-2" d="M54.62,50.46a2.87,2.87,0,0,1-.71-.34,2.47,2.47,0,0,1-.62-.59,2.74,2.74,0,0,1-.44-.87,3.92,3.92,0,0,1-.16-1.2V28.35h1.58v19a2.27,2.27,0,0,0,.37,1.37,2,2,0,0,0,.94.7Z"/><path class="cls-2" d="M66.47,42.77c0,.19,0,1.23,0,1.34H59.18a5.31,5.31,0,0,0,.2,1.82,4.87,4.87,0,0,0,.76,1.57,3.82,3.82,0,0,0,1.22,1.08A3.26,3.26,0,0,0,63,49a4.64,4.64,0,0,0,3-1l-.35,1.69a4.27,4.27,0,0,1-1.21.53,5.7,5.7,0,0,1-1.58.19,4.6,4.6,0,0,1-2-.46,4.87,4.87,0,0,1-1.65-1.28,6.48,6.48,0,0,1-1.1-2,7.56,7.56,0,0,1-.4-2.54,8.07,8.07,0,0,1,.39-2.6,6.63,6.63,0,0,1,1-2,4.71,4.71,0,0,1,1.52-1.28,3.91,3.91,0,0,1,1.79-.44,3.9,3.9,0,0,1,3.1,1.41,4.24,4.24,0,0,1,.78,1.43,5.48,5.48,0,0,1,.25,1.66ZM64.78,41.2a3.72,3.72,0,0,0-.48-1.05,2.76,2.76,0,0,0-.8-.76,2,2,0,0,0-1.12-.3,2.21,2.21,0,0,0-1.11.31,3.53,3.53,0,0,0-1,.83,5.4,5.4,0,0,0-.7,1.2,5.47,5.47,0,0,0-.36,1.39h5.66a1.25,1.25,0,0,0,0-.24v-.24A4.08,4.08,0,0,0,64.78,41.2Z"/><path class="cls-2" d="M75.57,50.14V41.75a2.75,2.75,0,0,0-.64-1.91,2.47,2.47,0,0,0-1.9-.69,2.63,2.63,0,0,0-1.93.71,2.49,2.49,0,0,0-.73,1.89v8.39H68.78V38h1.45l0,1.29a3.39,3.39,0,0,1,1.11-1,3.76,3.76,0,0,1,5.78,3.35v8.55Z"/><path class="cls-2" d="M85.78,39.31H82.54v7.88A1.79,1.79,0,0,0,83,48.5a1.39,1.39,0,0,0,1.06.43,1.9,1.9,0,0,0,1.15-.3l-.3,1.48a2.5,2.5,0,0,1-1.07.19,2.81,2.81,0,0,1-2-.78A3,3,0,0,1,81,47.24V39.31H79V38h2V35.42l1.55-.8V38H86Z"/><path class="cls-2" d="M24.7,54.83a1.32,1.32,0,0,1-.24.83.81.81,0,0,1-.63.31.82.82,0,0,1-.28,0,1,1,0,0,1-.24-.11v.87H23V53.85h.35v.22a1.15,1.15,0,0,1,.29-.2.82.82,0,0,1,.35-.08.62.62,0,0,1,.55.28A1.24,1.24,0,0,1,24.7,54.83Zm-.36,0a1.05,1.05,0,0,0-.11-.55.4.4,0,0,0-.37-.2.62.62,0,0,0-.29.07,1.06,1.06,0,0,0-.26.17v1.18l.24.09.22,0a.48.48,0,0,0,.42-.2A.94.94,0,0,0,24.34,54.87Z"/><path class="cls-2" d="M26.28,56a1,1,0,0,1-.78-.28,1.08,1.08,0,0,1-.27-.79,1.17,1.17,0,0,1,.27-.81.86.86,0,0,1,.69-.3.9.9,0,0,1,.34.06.56.56,0,0,1,.26.17.79.79,0,0,1,.18.29,1.33,1.33,0,0,1,.06.42v.19H25.58a.79.79,0,0,0,.19.56.65.65,0,0,0,.5.19.91.91,0,0,0,.23,0,1.17,1.17,0,0,0,.2-.06l.16-.09.11-.07h0v.38l-.16.06-.16.06-.19,0Zm.4-1.31a.9.9,0,0,0,0-.25.67.67,0,0,0-.08-.17.61.61,0,0,0-.16-.12.57.57,0,0,0-.24,0,.61.61,0,0,0-.24,0,.66.66,0,0,0-.17.12.47.47,0,0,0-.12.18.84.84,0,0,0-.06.24Z"/><path class="cls-2" d="M28.79,54.22h-.21a.67.67,0,0,0-.28.06.91.91,0,0,0-.27.18v1.48h-.35V53.85H28v.31a1.19,1.19,0,0,1,.34-.24.54.54,0,0,1,.27-.07h.15Z"/><path class="cls-2" d="M29.92,56a1.32,1.32,0,0,1-.39-.06l-.3-.12v-.39h0l.11.08.16.09.19.07a.91.91,0,0,0,.23,0l.18,0a.38.38,0,0,0,.14,0l.09-.09a.26.26,0,0,0,0-.14.22.22,0,0,0-.07-.19.54.54,0,0,0-.24-.11l-.17,0-.2,0a.55.55,0,0,1-.46-.56.55.55,0,0,1,.22-.46A.87.87,0,0,1,30,53.8a1.45,1.45,0,0,1,.35,0,1.1,1.1,0,0,1,.29.11v.37h0a1.46,1.46,0,0,0-.3-.17,1,1,0,0,0-.33-.06.55.55,0,0,0-.29.08.23.23,0,0,0-.12.22.24.24,0,0,0,.07.19.49.49,0,0,0,.23.1l.17,0,.2.05a.65.65,0,0,1,.35.19.53.53,0,0,1,.12.37.54.54,0,0,1-.06.25.51.51,0,0,1-.15.21.89.89,0,0,1-.25.14A1.2,1.2,0,0,1,29.92,56Z"/><path class="cls-2" d="M33.08,54.89a1.22,1.22,0,0,1-.25.81.87.87,0,0,1-.68.28.82.82,0,0,1-.68-.29,1.4,1.4,0,0,1,0-1.61.86.86,0,0,1,.67-.29.88.88,0,0,1,.68.29A1.22,1.22,0,0,1,33.08,54.89Zm-.36,0a1,1,0,0,0-.15-.6.54.54,0,0,0-.84,0,1,1,0,0,0-.15.6,1,1,0,0,0,.15.59.54.54,0,0,0,.84,0A1,1,0,0,0,32.72,54.89Z"/><path class="cls-2" d="M35.38,55.93H35V54.74a2.11,2.11,0,0,0,0-.26.48.48,0,0,0,0-.2.34.34,0,0,0-.12-.12.56.56,0,0,0-.21,0,.72.72,0,0,0-.27.07,2.11,2.11,0,0,0-.27.18v1.56h-.35V53.85h.35v.23a1.79,1.79,0,0,1,.31-.22.71.71,0,0,1,.32-.07.6.6,0,0,1,.48.2.87.87,0,0,1,.18.59Z"/><path class="cls-2" d="M37.33,55.7a.35.35,0,0,1-.11.09.55.55,0,0,1-.14.09.71.71,0,0,1-.18.08.82.82,0,0,1-.24,0,.69.69,0,0,1-.25,0,.9.9,0,0,1-.2-.14.74.74,0,0,1-.13-.21.62.62,0,0,1,0-.27.69.69,0,0,1,.09-.36.6.6,0,0,1,.29-.25,1.43,1.43,0,0,1,.41-.11l.51,0v-.07a.56.56,0,0,0,0-.2.23.23,0,0,0-.11-.11.38.38,0,0,0-.16-.06h-.2l-.29,0a2.44,2.44,0,0,0-.32.11h0v-.36l.27-.06.36,0a1.86,1.86,0,0,1,.36,0,.66.66,0,0,1,.27.12.62.62,0,0,1,.17.22,1,1,0,0,1,0,.33v1.43h-.35Zm0-.29v-.57l-.31,0a1.82,1.82,0,0,0-.31.05.73.73,0,0,0-.23.13.35.35,0,0,0-.09.25.33.33,0,0,0,.1.27.42.42,0,0,0,.29.09.6.6,0,0,0,.3-.07A1.14,1.14,0,0,0,37.33,55.41Z"/><path class="cls-2" d="M38.84,55.93h-.35V53h.35Z"/><path class="cls-2" d="M40,53.5h-.4v-.36H40Zm0,2.43h-.34V53.85H40Z"/><path class="cls-2" d="M41.47,56A.61.61,0,0,1,41,55.8a.72.72,0,0,1-.16-.51V54.14h-.23v-.29h.23v-.6h.35v.6h.65v.29h-.65v1a1.63,1.63,0,0,0,0,.24.42.42,0,0,0,0,.16.24.24,0,0,0,.1.1.53.53,0,0,0,.2,0l.16,0,.12,0h0v.32l-.2,0Z"/><path class="cls-2" d="M44,53.85,42.9,56.69h-.38l.38-.86-.76-2h.38l.57,1.54.56-1.54Z"/><path class="cls-2" d="M47.24,55.7a.35.35,0,0,1-.11.09.55.55,0,0,1-.14.09.71.71,0,0,1-.18.08.82.82,0,0,1-.24,0,.69.69,0,0,1-.25,0,.9.9,0,0,1-.2-.14.74.74,0,0,1-.13-.21.62.62,0,0,1-.05-.27A.69.69,0,0,1,46,55a.6.6,0,0,1,.29-.25,1.43,1.43,0,0,1,.41-.11l.51,0v-.07a.56.56,0,0,0,0-.2.23.23,0,0,0-.11-.11.38.38,0,0,0-.16-.06h-.2l-.29,0a2.44,2.44,0,0,0-.32.11h0v-.36l.27-.06.36,0a1.86,1.86,0,0,1,.36,0,.66.66,0,0,1,.27.12.62.62,0,0,1,.17.22,1,1,0,0,1,.05.33v1.43h-.35Zm0-.29v-.57l-.31,0a1.82,1.82,0,0,0-.31.05.73.73,0,0,0-.23.13.35.35,0,0,0-.09.25.33.33,0,0,0,.1.27.42.42,0,0,0,.29.09.6.6,0,0,0,.3-.07A1.14,1.14,0,0,0,47.24,55.41Z"/><path class="cls-2" d="M49,56a1.23,1.23,0,0,1-.39-.06l-.3-.12v-.39h0l.1.08.16.09.2.07a.83.83,0,0,0,.22,0l.18,0a.32.32,0,0,0,.14,0,.3.3,0,0,0,.1-.09.26.26,0,0,0,0-.14.26.26,0,0,0-.07-.19.67.67,0,0,0-.24-.11l-.18,0-.2,0a.56.56,0,0,1-.34-.21.52.52,0,0,1-.11-.35.57.57,0,0,1,.21-.46A.89.89,0,0,1,49,53.8a1.34,1.34,0,0,1,.35,0,1,1,0,0,1,.3.11v.37h0a1.46,1.46,0,0,0-.3-.17,1,1,0,0,0-.33-.06.5.5,0,0,0-.29.08.23.23,0,0,0-.12.22.24.24,0,0,0,.07.19.45.45,0,0,0,.22.1l.18,0,.2.05a.69.69,0,0,1,.35.19.58.58,0,0,1,.11.37.53.53,0,0,1,0,.25.65.65,0,0,1-.16.21.68.68,0,0,1-.25.14A1.13,1.13,0,0,1,49,56Z"/><path class="cls-2" d="M51,56a1.23,1.23,0,0,1-.39-.06,1.86,1.86,0,0,1-.3-.12v-.39h0l.11.08.16.09.2.07a.78.78,0,0,0,.22,0l.18,0a.38.38,0,0,0,.14,0l.09-.09a.26.26,0,0,0,0-.14.22.22,0,0,0-.07-.19.54.54,0,0,0-.24-.11l-.17,0-.2,0a.58.58,0,0,1-.24-1,.89.89,0,0,1,.56-.17,1.39,1.39,0,0,1,.35,0,1,1,0,0,1,.29.11v.37h0a1.17,1.17,0,0,0-.29-.17,1,1,0,0,0-.34-.06.55.55,0,0,0-.29.08.23.23,0,0,0-.12.22.27.27,0,0,0,.07.19.55.55,0,0,0,.23.1l.17,0,.21.05a.62.62,0,0,1,.34.19.53.53,0,0,1,.12.37.7.7,0,0,1-.05.25.65.65,0,0,1-.16.21.77.77,0,0,1-.25.14A1.18,1.18,0,0,1,51,56Z"/><path class="cls-2" d="M53.3,56a1,1,0,0,1-.77-.28,1.08,1.08,0,0,1-.27-.79,1.21,1.21,0,0,1,.26-.81,1,1,0,0,1,1-.24.56.56,0,0,1,.26.17.77.77,0,0,1,.17.29,1.33,1.33,0,0,1,.06.42v.19H52.61a.79.79,0,0,0,.18.56.67.67,0,0,0,.51.19.78.78,0,0,0,.22,0,.8.8,0,0,0,.2-.06l.16-.09a.52.52,0,0,0,.11-.07h0v.38l-.15.06-.16.06-.19,0Zm.41-1.31a.9.9,0,0,0,0-.25.46.46,0,0,0-.09-.17.44.44,0,0,0-.15-.12.74.74,0,0,0-.48,0,.55.55,0,0,0-.3.3,1.44,1.44,0,0,0,0,.24Z"/><path class="cls-2" d="M55.27,56a1.23,1.23,0,0,1-.39-.06l-.3-.12v-.39h0l.11.08.16.09.19.07a.85.85,0,0,0,.23,0l.17,0a.37.37,0,0,0,.15,0l.09-.09a.26.26,0,0,0,0-.14.22.22,0,0,0-.07-.19.54.54,0,0,0-.24-.11l-.17,0-.2,0a.55.55,0,0,1-.46-.56A.57.57,0,0,1,54.8,54a.92.92,0,0,1,.57-.17,1.45,1.45,0,0,1,.35,0A1.1,1.1,0,0,1,56,54v.37h0a1.46,1.46,0,0,0-.3-.17,1,1,0,0,0-.33-.06.55.55,0,0,0-.29.08.23.23,0,0,0-.12.22.24.24,0,0,0,.07.19.49.49,0,0,0,.23.1l.17,0,.2.05A.65.65,0,0,1,56,55a.53.53,0,0,1,.12.37.54.54,0,0,1-.06.25.51.51,0,0,1-.15.21.89.89,0,0,1-.25.14A1.25,1.25,0,0,1,55.27,56Z"/><path class="cls-2" d="M57.28,56a1.23,1.23,0,0,1-.39-.06l-.3-.12v-.39h0l.1.08.16.09.2.07a.78.78,0,0,0,.22,0l.18,0a.38.38,0,0,0,.14,0,.3.3,0,0,0,.1-.09.28.28,0,0,0,0-.14.25.25,0,0,0-.06-.19.67.67,0,0,0-.24-.11l-.18,0-.2,0a.56.56,0,0,1-.34-.21.52.52,0,0,1-.11-.35.57.57,0,0,1,.21-.46.89.89,0,0,1,.56-.17,1.34,1.34,0,0,1,.35,0A1,1,0,0,1,58,54v.37h0a1.46,1.46,0,0,0-.3-.17,1,1,0,0,0-.33-.06.56.56,0,0,0-.3.08.22.22,0,0,0-.11.22.24.24,0,0,0,.07.19.45.45,0,0,0,.22.1l.18,0,.2.05A.69.69,0,0,1,58,55a.58.58,0,0,1,.11.37.7.7,0,0,1-.05.25.65.65,0,0,1-.16.21.68.68,0,0,1-.25.14A1.13,1.13,0,0,1,57.28,56Z"/><path class="cls-2" d="M61.08,55.93V54.72a2.17,2.17,0,0,0,0-.26.43.43,0,0,0,0-.19.22.22,0,0,0-.1-.11.36.36,0,0,0-.19,0,.43.43,0,0,0-.23.07,1,1,0,0,0-.25.19v1.55H59.9V54.72a2.17,2.17,0,0,0,0-.26.43.43,0,0,0,0-.19.22.22,0,0,0-.1-.11.36.36,0,0,0-.19,0,.64.64,0,0,0-.24.07,1.88,1.88,0,0,0-.24.18v1.56h-.35V53.85h.35v.23a1.28,1.28,0,0,1,.28-.21.57.57,0,0,1,.29-.08.73.73,0,0,1,.33.08.58.58,0,0,1,.22.28,1.22,1.22,0,0,1,.3-.27.63.63,0,0,1,.33-.09.69.69,0,0,1,.25,0,.49.49,0,0,1,.19.14.73.73,0,0,1,.13.23,1.28,1.28,0,0,1,0,.36v1.37Z"/><path class="cls-2" d="M63.13,56a1,1,0,0,1-.77-.28,1.08,1.08,0,0,1-.27-.79,1.16,1.16,0,0,1,.26-.81,1,1,0,0,1,1-.24.56.56,0,0,1,.26.17.92.92,0,0,1,.17.29,1.33,1.33,0,0,1,.06.42v.19H62.44a.79.79,0,0,0,.18.56.66.66,0,0,0,.51.19.83.83,0,0,0,.22,0,1,1,0,0,0,.2-.06l.16-.09a.52.52,0,0,0,.11-.07h0v.38l-.15.06-.16.06-.19,0Zm.41-1.31a.9.9,0,0,0,0-.25.46.46,0,0,0-.09-.17.4.4,0,0,0-.16-.12.53.53,0,0,0-.23,0,.55.55,0,0,0-.24,0,.71.71,0,0,0-.18.12.94.94,0,0,0-.12.18,1.44,1.44,0,0,0-.05.24Z"/><path class="cls-2" d="M66.17,55.93h-.35V54.74a2.17,2.17,0,0,0,0-.26.72.72,0,0,0,0-.2.34.34,0,0,0-.12-.12.56.56,0,0,0-.21,0,.68.68,0,0,0-.27.07l-.27.18v1.56h-.35V53.85h.35v.23a1.48,1.48,0,0,1,.31-.22.71.71,0,0,1,.32-.07A.61.61,0,0,1,66,54a.87.87,0,0,1,.17.59Z"/><path class="cls-2" d="M67.6,56a.61.61,0,0,1-.45-.17.72.72,0,0,1-.16-.51V54.14h-.23v-.29H67v-.6h.35v.6H68v.29h-.65v1a1.63,1.63,0,0,0,0,.24.42.42,0,0,0,0,.16.24.24,0,0,0,.1.1.5.5,0,0,0,.19,0l.17,0,.12,0h0v.32l-.2,0Z"/><path class="cls-2" d="M70.61,56a1.23,1.23,0,0,1-.39-.06l-.3-.12v-.39h0l.1.08.16.09.2.07a.78.78,0,0,0,.22,0l.18,0a.38.38,0,0,0,.14,0s.08-.06.09-.09a.26.26,0,0,0,0-.14.25.25,0,0,0-.06-.19.66.66,0,0,0-.25-.11l-.17,0-.2,0a.61.61,0,0,1-.35-.21.63.63,0,0,1,.11-.81.89.89,0,0,1,.56-.17,1.39,1.39,0,0,1,.35,0,.88.88,0,0,1,.29.11v.37h0a1.46,1.46,0,0,0-.3-.17,1,1,0,0,0-.34-.06.55.55,0,0,0-.29.08.23.23,0,0,0-.12.22.27.27,0,0,0,.07.19.55.55,0,0,0,.23.1l.18,0,.2.05a.62.62,0,0,1,.34.19.53.53,0,0,1,.12.37.7.7,0,0,1,0,.25.65.65,0,0,1-.16.21.77.77,0,0,1-.25.14A1.13,1.13,0,0,1,70.61,56Z"/><path class="cls-2" d="M73,56a1,1,0,0,1-.77-.28,1.08,1.08,0,0,1-.27-.79,1.21,1.21,0,0,1,.26-.81,1,1,0,0,1,1-.24.56.56,0,0,1,.26.17.77.77,0,0,1,.17.29,1.33,1.33,0,0,1,.06.42v.19H72.26a.75.75,0,0,0,.19.56.65.65,0,0,0,.5.19.91.91,0,0,0,.23,0,1.17,1.17,0,0,0,.2-.06l.16-.09.1-.07h0v.38l-.15.06-.16.06-.19,0Zm.41-1.31a.9.9,0,0,0,0-.25.46.46,0,0,0-.09-.17.44.44,0,0,0-.15-.12.74.74,0,0,0-.48,0,.94.94,0,0,0-.18.12.58.58,0,0,0-.11.18.84.84,0,0,0-.06.24Z"/><path class="cls-2" d="M75.46,54.22h-.2a.67.67,0,0,0-.28.06.91.91,0,0,0-.27.18v1.48h-.35V53.85h.35v.31a1.19,1.19,0,0,1,.34-.24.54.54,0,0,1,.27-.07h.14Z"/><path class="cls-2" d="M77.67,53.85l-.78,2.08h-.31l-.78-2.08h.38l.57,1.6.56-1.6Z"/><path class="cls-2" d="M78.63,53.5h-.4v-.36h.4Zm0,2.43h-.35V53.85h.35Z"/><path class="cls-2" d="M80.25,56a1.25,1.25,0,0,1-.4-.06.79.79,0,0,1-.3-.2.83.83,0,0,1-.2-.34,1.43,1.43,0,0,1-.07-.48,1.33,1.33,0,0,1,.07-.47.88.88,0,0,1,.2-.34.81.81,0,0,1,.3-.21,1.05,1.05,0,0,1,.4-.07,1.26,1.26,0,0,1,.33.05l.28.11v.39h0l-.1-.07a.47.47,0,0,0-.14-.08l-.17-.07-.19,0a.54.54,0,0,0-.44.21.91.91,0,0,0-.16.58.86.86,0,0,0,.16.57.51.51,0,0,0,.44.21.78.78,0,0,0,.33-.07,1.27,1.27,0,0,0,.27-.18h0v.39l-.13.06-.14.05-.16,0Z"/><path class="cls-2" d="M82.39,56a1,1,0,0,1-.78-.28,1.08,1.08,0,0,1-.27-.79,1.17,1.17,0,0,1,.27-.81.87.87,0,0,1,.69-.3.86.86,0,0,1,.34.06.65.65,0,0,1,.27.17.92.92,0,0,1,.17.29,1.33,1.33,0,0,1,.06.42v.19H81.7a.79.79,0,0,0,.18.56.65.65,0,0,0,.5.19.91.91,0,0,0,.23,0,1.17,1.17,0,0,0,.2-.06l.16-.09.11-.07h0v.38l-.16.06-.16.06-.18,0Zm.41-1.31a1.45,1.45,0,0,0,0-.25.67.67,0,0,0-.08-.17.48.48,0,0,0-.16-.12.55.55,0,0,0-.24,0,.61.61,0,0,0-.24,0,.66.66,0,0,0-.17.12.47.47,0,0,0-.12.18.6.6,0,0,0,0,.24Z"/><path class="cls-2" d="M84.36,56a1.23,1.23,0,0,1-.39-.06l-.3-.12v-.39h0l.11.08.16.09.2.07a.78.78,0,0,0,.22,0l.18,0a.38.38,0,0,0,.14,0,.38.38,0,0,0,.09-.09.26.26,0,0,0,0-.14.22.22,0,0,0-.07-.19.54.54,0,0,0-.24-.11l-.17,0-.2,0a.61.61,0,0,1-.35-.21.63.63,0,0,1,.11-.81.89.89,0,0,1,.56-.17,1.39,1.39,0,0,1,.35,0,1,1,0,0,1,.29.11v.37h0a1.17,1.17,0,0,0-.29-.17,1,1,0,0,0-.34-.06.55.55,0,0,0-.29.08.23.23,0,0,0-.12.22.27.27,0,0,0,.07.19.55.55,0,0,0,.23.1l.17,0,.21.05a.62.62,0,0,1,.34.19.53.53,0,0,1,.12.37.7.7,0,0,1,0,.25.65.65,0,0,1-.16.21.77.77,0,0,1-.25.14A1.13,1.13,0,0,1,84.36,56Z"/><polygon class="cls-2" points="381.83 85.04 410.63 0 566.93 0 566.93 85.04 381.83 85.04"/><polygon class="cls-1" points="436.37 13.71 435.08 13.71 435.08 21.55 435.68 21.55 436.37 21.55 440.23 21.55 440.23 20.32 436.37 20.32 436.37 13.71"/><polygon class="cls-1" points="441.95 13.71 441.41 13.71 441.41 21.55 441.95 21.55 442.7 21.55 446.56 21.55 446.56 20.32 442.7 20.32 442.7 18.27 445.97 18.27 445.97 17.04 442.7 17.04 442.7 14.94 446.56 14.94 446.56 13.71 442.7 13.71 441.95 13.71"/><path class="cls-1" d="M450.21,13.71l-2.95,7.84h1.39l.52-1.49h3l.52,1.49h1.38l-2.94-7.84Zm-.62,5.12,1.09-3.12,1.08,3.12Z"/><path class="cls-1" d="M459.61,18a1.91,1.91,0,0,0,.78-.81,2.75,2.75,0,0,0,0-2.42,1.91,1.91,0,0,0-.78-.81,2.29,2.29,0,0,0-1.16-.29h-3.28v7.85h1.29V18.31h1.27l1.72,3.24H461l-1.85-3.34A2.32,2.32,0,0,0,459.61,18Zm-3.15-3.09h2a.86.86,0,0,1,.48.13.83.83,0,0,1,.32.37,1.29,1.29,0,0,1,.12.57,1.59,1.59,0,0,1-.12.56,1,1,0,0,1-.32.38,1,1,0,0,1-.48.13h-2Z"/><polygon class="cls-1" points="467.02 19.51 463.78 13.71 462.37 13.71 462.37 21.55 463.63 21.55 463.63 15.83 466.86 21.55 468.28 21.55 468.28 13.71 467.02 13.71 467.02 19.51"/><rect class="cls-1" x="470.06" y="13.71" width="1.32" height="7.84"/><polygon class="cls-1" points="477.8 19.51 474.56 13.71 473.15 13.71 473.15 21.55 474.4 21.55 474.4 15.83 477.64 21.55 479.06 21.55 479.06 13.71 477.8 13.71 477.8 19.51"/><path class="cls-1" d="M483.64,18.48H485v.24a2,2,0,0,1-.18.87,1.29,1.29,0,0,1-.51.55,1.53,1.53,0,0,1-.78.19,1.67,1.67,0,0,1-.79-.18,1.3,1.3,0,0,1-.53-.51,1.6,1.6,0,0,1-.19-.77V16.56a1.94,1.94,0,0,1,.19-.86,1.29,1.29,0,0,1,.51-.57,1.42,1.42,0,0,1,.78-.2,1.47,1.47,0,0,1,.58.12,1.33,1.33,0,0,1,.49.35,1.38,1.38,0,0,1,.3.56h1.4a3.11,3.11,0,0,0-.53-1.23,2.84,2.84,0,0,0-1-.82,2.88,2.88,0,0,0-1.27-.28,2.91,2.91,0,0,0-1.47.36,2.44,2.44,0,0,0-1,1,3.15,3.15,0,0,0-.35,1.54v2.31a3,3,0,0,0,.35,1.45,2.46,2.46,0,0,0,1,1,3.05,3.05,0,0,0,1.48.34,2.91,2.91,0,0,0,1.47-.36,2.5,2.5,0,0,0,1-1,3.33,3.33,0,0,0,.35-1.54V17.25h-2.72Z"/><path class="cls-1" d="M495.35,14a2.55,2.55,0,0,0-1.26-.3H491v7.84h1.29v-3h1.8a2.55,2.55,0,0,0,1.26-.3,2.08,2.08,0,0,0,.85-.84,2.8,2.8,0,0,0,0-2.52A2.08,2.08,0,0,0,495.35,14ZM495,16.72a1,1,0,0,1-.36.41,1,1,0,0,1-.55.14h-1.84V14.94h1.84a1,1,0,0,1,.55.15,1,1,0,0,1,.37.41,1.44,1.44,0,0,1,.13.61A1.31,1.31,0,0,1,495,16.72Z"/><path class="cls-1" d="M501.89,14A3.26,3.26,0,0,0,499,14a2.43,2.43,0,0,0-1,1,3.22,3.22,0,0,0-.35,1.52v2.22a3.22,3.22,0,0,0,.35,1.52,2.41,2.41,0,0,0,1,1,3.18,3.18,0,0,0,2.94,0,2.41,2.41,0,0,0,1-1,3.22,3.22,0,0,0,.35-1.52V16.52a3.22,3.22,0,0,0-.35-1.52A2.43,2.43,0,0,0,501.89,14Zm0,4.8a1.84,1.84,0,0,1-.18.83,1.32,1.32,0,0,1-.52.55,1.55,1.55,0,0,1-.78.19,1.5,1.5,0,0,1-.78-.19,1.32,1.32,0,0,1-.52-.55,1.84,1.84,0,0,1-.18-.83v-2.3a1.84,1.84,0,0,1,.18-.83,1.32,1.32,0,0,1,.52-.55,1.51,1.51,0,0,1,.78-.2,1.56,1.56,0,0,1,.78.2,1.32,1.32,0,0,1,.52.55,1.84,1.84,0,0,1,.18.83Z"/><polygon class="cls-1" points="503.82 14.94 506 14.94 506 21.55 507.29 21.55 507.29 14.94 509.47 14.94 509.47 13.71 503.82 13.71 503.82 14.94"/><polygon class="cls-1" points="510.97 13.71 510.44 13.71 510.44 21.55 510.97 21.55 511.73 21.55 515.59 21.55 515.59 20.32 511.73 20.32 511.73 18.27 514.99 18.27 514.99 17.04 511.73 17.04 511.73 14.94 515.59 14.94 515.59 13.71 511.73 13.71 510.97 13.71"/><polygon class="cls-1" points="521.69 19.51 518.45 13.71 517.04 13.71 517.04 21.55 518.29 21.55 518.29 15.83 521.53 21.55 522.94 21.55 522.94 13.71 521.69 13.71 521.69 19.51"/><polygon class="cls-1" points="524.13 14.94 526.31 14.94 526.31 21.55 527.6 21.55 527.6 14.94 529.77 14.94 529.77 13.71 524.13 13.71 524.13 14.94"/><rect class="cls-1" x="530.69" y="13.71" width="1.32" height="7.84"/><path class="cls-1" d="M535.87,13.71l-3,7.84h1.39l.52-1.49h3l.52,1.49h1.38l-2.94-7.84Zm-.61,5.12,1.08-3.12,1.08,3.12Z"/><polygon class="cls-1" points="542.12 20.32 542.12 13.71 540.83 13.71 540.83 21.55 541.44 21.55 542.12 21.55 545.98 21.55 545.98 20.32 542.12 20.32"/><polygon class="cls-1" points="436.37 31.09 435.08 31.09 435.08 38.94 435.68 38.94 436.37 38.94 440.23 38.94 440.23 37.7 436.37 37.7 436.37 31.09"/><rect class="cls-1" x="441.36" y="31.09" width="1.32" height="7.84"/><polygon class="cls-1" points="443.81 32.33 445.99 32.33 445.99 38.94 447.27 38.94 447.27 32.33 449.45 32.33 449.45 31.09 443.81 31.09 443.81 32.33"/><polygon class="cls-1" points="450.96 31.09 450.42 31.09 450.42 38.94 450.96 38.94 451.71 38.94 455.57 38.94 455.57 37.7 451.71 37.7 451.71 35.66 454.98 35.66 454.98 34.43 451.71 34.43 451.71 32.33 455.57 32.33 455.57 31.09 451.71 31.09 450.96 31.09"/><path class="cls-1" d="M461.46,35.41a2,2,0,0,0,.79-.81,2.57,2.57,0,0,0,.27-1.21,2.6,2.6,0,0,0-.27-1.21,2,2,0,0,0-.78-.81,2.36,2.36,0,0,0-1.17-.28H457v7.85h1.29V35.7h1.26l1.73,3.24h1.54L461,35.59A1.77,1.77,0,0,0,461.46,35.41Zm-3.14-3.09h1.94a1,1,0,0,1,.49.13.92.92,0,0,1,.32.38,1.4,1.4,0,0,1,.11.56,1.29,1.29,0,0,1-.12.57.83.83,0,0,1-.32.37.86.86,0,0,1-.48.13h-1.94Z"/><path class="cls-1" d="M466.15,31.09l-2.95,7.85h1.39l.52-1.49h3l.52,1.49H470l-2.94-7.85Zm-.61,5.12,1.08-3.12,1.08,3.12Z"/><path class="cls-1" d="M472,33.06a1.21,1.21,0,0,1,.5-.57,1.41,1.41,0,0,1,.77-.21,1.26,1.26,0,0,1,.63.16,1.46,1.46,0,0,1,.5.43,1.81,1.81,0,0,1,.3.66h1.33a3.53,3.53,0,0,0-.52-1.35,2.55,2.55,0,0,0-1-.87,2.76,2.76,0,0,0-1.29-.3,3,3,0,0,0-1.48.36,2.29,2.29,0,0,0-1,1,3.32,3.32,0,0,0-.34,1.56v2.15a3.32,3.32,0,0,0,.34,1.56,2.29,2.29,0,0,0,1,1,3,3,0,0,0,1.48.36,2.61,2.61,0,0,0,1.28-.31,2.55,2.55,0,0,0,.95-.87,3.49,3.49,0,0,0,.53-1.34h-1.33a1.78,1.78,0,0,1-.3.67,1.37,1.37,0,0,1-.5.43,1.33,1.33,0,0,1-.63.14,1.41,1.41,0,0,1-.77-.2A1.21,1.21,0,0,1,472,37a2,2,0,0,1-.18-.88V33.94A2,2,0,0,1,472,33.06Z"/><polygon class="cls-1" points="479.38 34.55 477.77 31.09 476.38 31.09 478.74 35.83 478.74 38.94 480.02 38.94 480.02 35.83 482.37 31.09 480.99 31.09 479.38 34.55"/><path class="cls-1" d="M490.4,31.39a2.62,2.62,0,0,0-1.27-.3H486v7.85h1.29v-3h1.8a2.73,2.73,0,0,0,1.27-.29,2.12,2.12,0,0,0,.84-.84,2.8,2.8,0,0,0,0-2.52A2.08,2.08,0,0,0,490.4,31.39Zm-.31,2.72a1,1,0,0,1-.37.4,1,1,0,0,1-.55.15h-1.84V32.33h1.84a1.1,1.1,0,0,1,.55.14,1,1,0,0,1,.37.41,1.52,1.52,0,0,1,0,1.23Z"/><path class="cls-1" d="M496.93,31.37a3.18,3.18,0,0,0-2.94,0,2.53,2.53,0,0,0-1,1,3.24,3.24,0,0,0-.35,1.52v2.23a3.18,3.18,0,0,0,.35,1.51,2.5,2.5,0,0,0,1,1,3.18,3.18,0,0,0,2.94,0,2.43,2.43,0,0,0,1-1,3.06,3.06,0,0,0,.35-1.51V33.9a3.13,3.13,0,0,0-.35-1.52A2.47,2.47,0,0,0,496.93,31.37Zm0,4.79a1.81,1.81,0,0,1-.19.83,1.26,1.26,0,0,1-.52.55,1.51,1.51,0,0,1-.78.2,1.56,1.56,0,0,1-.78-.2,1.32,1.32,0,0,1-.52-.55,1.81,1.81,0,0,1-.18-.83v-2.3a1.8,1.8,0,0,1,.18-.82,1.34,1.34,0,0,1,.52-.56,1.55,1.55,0,0,1,.78-.19,1.5,1.5,0,0,1,.78.19,1.28,1.28,0,0,1,.52.56,1.8,1.8,0,0,1,.19.82Z"/><polygon class="cls-1" points="498.87 32.33 501.05 32.33 501.05 38.94 502.33 38.94 502.33 32.33 504.51 32.33 504.51 31.09 498.87 31.09 498.87 32.33"/><polygon class="cls-1" points="506.01 31.09 505.48 31.09 505.48 38.94 506.01 38.94 506.77 38.94 510.63 38.94 510.63 37.7 506.77 37.7 506.77 35.66 510.03 35.66 510.03 34.43 506.77 34.43 506.77 32.33 510.63 32.33 510.63 31.09 506.77 31.09 506.01 31.09"/><polygon class="cls-1" points="516.73 36.9 513.49 31.09 512.08 31.09 512.08 38.93 513.34 38.93 513.34 33.21 516.57 38.93 517.99 38.93 517.99 31.09 516.73 31.09 516.73 36.9"/><polygon class="cls-1" points="519.17 32.33 521.35 32.33 521.35 38.94 522.64 38.94 522.64 32.33 524.82 32.33 524.82 31.09 519.17 31.09 519.17 32.33"/><rect class="cls-1" x="525.73" y="31.09" width="1.32" height="7.84"/><path class="cls-1" d="M530.91,31.09,528,38.94h1.38l.52-1.49h3l.52,1.49h1.39l-2.95-7.85Zm-.61,5.12,1.08-3.12,1.08,3.12Z"/><polygon class="cls-1" points="537.16 37.7 537.16 31.09 535.88 31.09 535.88 38.94 536.48 38.94 537.16 38.94 541.02 38.94 541.02 37.7 537.16 37.7"/><path class="cls-1" d="M438,53.25h1.4v.24a1.79,1.79,0,0,1-.19.86,1.26,1.26,0,0,1-.51.56,1.5,1.5,0,0,1-.78.19,1.67,1.67,0,0,1-.79-.18,1.3,1.3,0,0,1-.53-.51,1.59,1.59,0,0,1-.18-.77V51.32a1.93,1.93,0,0,1,.18-.85,1.25,1.25,0,0,1,.52-.57,1.41,1.41,0,0,1,.77-.2,1.39,1.39,0,0,1,1.38,1h1.39a3.11,3.11,0,0,0-.53-1.23,2.75,2.75,0,0,0-1-.82,2.85,2.85,0,0,0-1.27-.28,2.91,2.91,0,0,0-1.47.36,2.44,2.44,0,0,0-1,1,3.26,3.26,0,0,0-.35,1.53v2.32a3,3,0,0,0,.35,1.45,2.46,2.46,0,0,0,1,1,3.08,3.08,0,0,0,1.48.34,2.91,2.91,0,0,0,1.47-.36,2.49,2.49,0,0,0,1-1,3.21,3.21,0,0,0,.35-1.54V52H438Z"/><polygon class="cls-1" points="442.81 48.48 442.28 48.48 442.28 56.32 442.81 56.32 443.57 56.32 447.42 56.32 447.42 55.09 443.57 55.09 443.57 53.04 446.83 53.04 446.83 51.81 443.57 51.81 443.57 49.71 447.42 49.71 447.42 48.48 443.57 48.48 442.81 48.48"/><polygon class="cls-1" points="453.53 54.28 450.28 48.48 448.88 48.48 448.88 56.31 450.13 56.31 450.13 50.6 453.37 56.31 454.78 56.31 454.78 48.48 453.53 48.48 453.53 54.28"/><polygon class="cls-1" points="457.15 48.48 456.62 48.48 456.62 56.32 457.15 56.32 457.91 56.32 461.76 56.32 461.76 55.09 457.91 55.09 457.91 53.04 461.17 53.04 461.17 51.81 457.91 51.81 457.91 49.71 461.76 49.71 461.76 48.48 457.91 48.48 457.15 48.48"/><path class="cls-1" d="M467.66,52.8a2,2,0,0,0,.78-.81,2.5,2.5,0,0,0,.28-1.22,2.47,2.47,0,0,0-.28-1.2,1.91,1.91,0,0,0-.78-.81,2.29,2.29,0,0,0-1.16-.29h-3.28v7.85h1.29V53.08h1.27l1.72,3.24h1.55L467.2,53A2.32,2.32,0,0,0,467.66,52.8Zm-3.15-3.09h1.95a.86.86,0,0,1,.48.13.83.83,0,0,1,.32.37,1.27,1.27,0,0,1,.11.56,1.41,1.41,0,0,1-.11.57,1,1,0,0,1-.32.38,1,1,0,0,1-.48.13h-1.95Z"/><path class="cls-1" d="M472.34,48.48l-2.94,7.84h1.38l.52-1.49h3l.52,1.49h1.39l-3-7.84Zm-.61,5.12,1.08-3.12,1.09,3.12Z"/><polygon class="cls-1" points="478.6 48.48 477.31 48.48 477.31 56.32 477.91 56.32 478.6 56.32 482.45 56.32 482.45 55.09 478.6 55.09 478.6 48.48"/><path class="cls-1" d="M491,48.78a2.55,2.55,0,0,0-1.26-.3h-3.09v7.84h1.29v-3h1.8A2.55,2.55,0,0,0,491,53a2.08,2.08,0,0,0,.85-.84,2.8,2.8,0,0,0,0-2.52A2.08,2.08,0,0,0,491,48.78Zm-.31,2.71a1,1,0,0,1-.36.41,1.1,1.1,0,0,1-.55.14H487.9V49.71h1.84a1,1,0,0,1,.55.15.85.85,0,0,1,.36.41,1.5,1.5,0,0,1,0,1.22Z"/><path class="cls-1" d="M497.5,48.75a3.26,3.26,0,0,0-2.94,0,2.43,2.43,0,0,0-1,1,3.1,3.1,0,0,0-.35,1.52v2.22a3.1,3.1,0,0,0,.35,1.52,2.41,2.41,0,0,0,1,1,3.18,3.18,0,0,0,2.94,0,2.47,2.47,0,0,0,1-1,3.22,3.22,0,0,0,.35-1.52V51.29a3.22,3.22,0,0,0-.35-1.52A2.5,2.5,0,0,0,497.5,48.75Zm0,4.8a1.84,1.84,0,0,1-.18.83,1.32,1.32,0,0,1-.52.55,1.55,1.55,0,0,1-.78.19,1.5,1.5,0,0,1-.78-.19,1.26,1.26,0,0,1-.52-.55,1.85,1.85,0,0,1-.19-.83v-2.3a1.85,1.85,0,0,1,.19-.83,1.26,1.26,0,0,1,.52-.55,1.51,1.51,0,0,1,.78-.2,1.56,1.56,0,0,1,.78.2,1.32,1.32,0,0,1,.52.55,1.84,1.84,0,0,1,.18.83Z"/><polygon class="cls-1" points="499.43 49.71 501.61 49.71 501.61 56.32 502.9 56.32 502.9 49.71 505.08 49.71 505.08 48.48 499.43 48.48 499.43 49.71"/><polygon class="cls-1" points="506.58 48.48 506.05 48.48 506.05 56.32 506.58 56.32 507.34 56.32 511.19 56.32 511.19 55.09 507.34 55.09 507.34 53.04 510.6 53.04 510.6 51.81 507.34 51.81 507.34 49.71 511.19 49.71 511.19 48.48 507.34 48.48 506.58 48.48"/><polygon class="cls-1" points="517.3 54.28 514.05 48.48 512.65 48.48 512.65 56.31 513.9 56.31 513.9 50.6 517.14 56.31 518.55 56.31 518.55 48.48 517.3 48.48 517.3 54.28"/><polygon class="cls-1" points="519.74 49.71 521.92 49.71 521.92 56.32 523.2 56.32 523.2 49.71 525.38 49.71 525.38 48.48 519.74 48.48 519.74 49.71"/><rect class="cls-1" x="526.3" y="48.48" width="1.32" height="7.84"/><path class="cls-1" d="M531.48,48.48l-3,7.84h1.39l.52-1.49h3l.52,1.49h1.38l-2.94-7.84Zm-.61,5.12L532,50.48,533,53.6Z"/><polygon class="cls-1" points="537.73 55.09 537.73 48.48 536.44 48.48 536.44 56.32 537.05 56.32 537.73 56.32 541.59 56.32 541.59 55.09 537.73 55.09"/><path class="cls-1" d="M439.43,66.16a2.55,2.55,0,0,0-1.26-.3h-3.09v7.85h1.29v-3h1.8a2.66,2.66,0,0,0,1.26-.29,2.08,2.08,0,0,0,.85-.84,2.55,2.55,0,0,0,.3-1.26,2.62,2.62,0,0,0-.3-1.27A2.08,2.08,0,0,0,439.43,66.16Zm-.31,2.72a.93.93,0,0,1-.36.4,1,1,0,0,1-.55.15h-1.84V67.1h1.84a1.1,1.1,0,0,1,.55.14,1,1,0,0,1,.37.41,1.49,1.49,0,0,1,.13.62A1.34,1.34,0,0,1,439.12,68.88Z"/><path class="cls-1" d="M446.29,70.18a2,2,0,0,0,.78-.81,2.75,2.75,0,0,0,0-2.42,1.91,1.91,0,0,0-.78-.81,2.29,2.29,0,0,0-1.16-.28h-3.28v7.85h1.29V70.47h1.27l1.72,3.24h1.55l-1.85-3.35A1.83,1.83,0,0,0,446.29,70.18Zm-3.15-3.09h1.95a1,1,0,0,1,.48.13.85.85,0,0,1,.32.38,1.25,1.25,0,0,1,.12.56,1.65,1.65,0,0,1-.12.57,1,1,0,0,1-.32.37.86.86,0,0,1-.48.13h-1.95Z"/><path class="cls-1" d="M453,66.14a3.2,3.2,0,0,0-2.95,0,2.51,2.51,0,0,0-1,1,3.13,3.13,0,0,0-.35,1.52v2.22a3.08,3.08,0,0,0,.35,1.52,2.47,2.47,0,0,0,1,1,3.2,3.2,0,0,0,2.95,0,2.56,2.56,0,0,0,1-1,3.19,3.19,0,0,0,.35-1.52V68.67a3.24,3.24,0,0,0-.35-1.52A2.6,2.6,0,0,0,453,66.14Zm0,4.79a1.81,1.81,0,0,1-.18.83,1.38,1.38,0,0,1-.52.55,1.56,1.56,0,0,1-.78.2,1.51,1.51,0,0,1-.78-.2,1.26,1.26,0,0,1-.52-.55,1.7,1.7,0,0,1-.19-.83v-2.3a1.68,1.68,0,0,1,.19-.82,1.28,1.28,0,0,1,.52-.56,1.5,1.5,0,0,1,.78-.19,1.55,1.55,0,0,1,.78.19,1.41,1.41,0,0,1,.52.56,1.8,1.8,0,0,1,.18.82Z"/><polygon class="cls-1" points="456.4 65.86 455.86 65.86 455.86 73.7 457.15 73.7 457.15 70.5 460.31 70.5 460.31 69.27 457.15 69.27 457.15 67.1 460.91 67.1 460.91 65.86 457.15 65.86 456.4 65.86"/><polygon class="cls-1" points="462.68 65.86 462.15 65.86 462.15 73.7 462.68 73.7 463.44 73.7 467.29 73.7 467.29 72.47 463.44 72.47 463.44 70.42 466.7 70.42 466.7 69.19 463.44 69.19 463.44 67.1 467.29 67.1 467.29 65.86 463.44 65.86 462.68 65.86"/><path class="cls-1" d="M473,69.56a5.63,5.63,0,0,0-1.22-.35h-.06l-.05,0h-.09l-.88-.21a1.31,1.31,0,0,1-.52-.32.8.8,0,0,1-.21-.59h0a.87.87,0,0,1,.4-.77,2.09,2.09,0,0,1,1.16-.28,2.75,2.75,0,0,1,.91.17,3.72,3.72,0,0,1,.92.49l.63-1.06a4.45,4.45,0,0,0-.79-.45,5.07,5.07,0,0,0-.83-.28,4,4,0,0,0-.84-.09,3.78,3.78,0,0,0-1.54.28,2.09,2.09,0,0,0-1,.8,2.35,2.35,0,0,0-.33,1.27h0a2.14,2.14,0,0,0,.35,1.3,1.85,1.85,0,0,0,.87.63,7,7,0,0,0,1.29.31l.1,0h.06a6.15,6.15,0,0,1,.81.19,1.07,1.07,0,0,1,.5.31.81.81,0,0,1,.2.57h0a.9.9,0,0,1-.44.79,2.2,2.2,0,0,1-1.22.28,3.34,3.34,0,0,1-1.19-.2,3,3,0,0,1-1-.58l-.68,1a3.56,3.56,0,0,0,.83.53,4.91,4.91,0,0,0,1,.33,5.34,5.34,0,0,0,1.08.11,4,4,0,0,0,1.59-.28,2.1,2.1,0,0,0,1-.79,2.25,2.25,0,0,0,.35-1.26h0a2.09,2.09,0,0,0-.33-1.24A1.85,1.85,0,0,0,473,69.56Z"/><path class="cls-1" d="M479.54,69.56a5.8,5.8,0,0,0-1.22-.35h-.06l-.06,0h-.08c-.38-.08-.67-.15-.88-.21a1.35,1.35,0,0,1-.53-.32.8.8,0,0,1-.21-.59h0a.88.88,0,0,1,.41-.77,2.08,2.08,0,0,1,1.15-.28,2.76,2.76,0,0,1,.92.17,3.91,3.91,0,0,1,.92.49l.63-1.06a4.84,4.84,0,0,0-.79-.45,5.07,5.07,0,0,0-.83-.28,4.17,4.17,0,0,0-.85-.09,3.73,3.73,0,0,0-1.53.28,2.09,2.09,0,0,0-1,.8,2.36,2.36,0,0,0-.34,1.27h0a2.07,2.07,0,0,0,.36,1.3,1.87,1.87,0,0,0,.86.63,7.12,7.12,0,0,0,1.3.31l.1,0h.06a5.6,5.6,0,0,1,.8.19,1.1,1.1,0,0,1,.51.31.81.81,0,0,1,.2.57h0a.9.9,0,0,1-.44.79,2.23,2.23,0,0,1-1.22.28,3.44,3.44,0,0,1-1.2-.2,3.09,3.09,0,0,1-1-.58l-.69,1a3.62,3.62,0,0,0,.84.53,5,5,0,0,0,1,.33,5.52,5.52,0,0,0,1.09.11,4,4,0,0,0,1.59-.28,2.15,2.15,0,0,0,1-.79,2.24,2.24,0,0,0,.34-1.26h0a2.17,2.17,0,0,0-.32-1.24A1.9,1.9,0,0,0,479.54,69.56Z"/><rect class="cls-1" x="481.98" y="65.86" width="1.32" height="7.84"/><path class="cls-1" d="M489.2,66.14a3.2,3.2,0,0,0-2.95,0,2.6,2.6,0,0,0-1,1,3.24,3.24,0,0,0-.35,1.52v2.22a3.19,3.19,0,0,0,.35,1.52,2.56,2.56,0,0,0,1,1,3.2,3.2,0,0,0,2.95,0,2.56,2.56,0,0,0,1-1,3.19,3.19,0,0,0,.35-1.52V68.67a3.24,3.24,0,0,0-.35-1.52A2.6,2.6,0,0,0,489.2,66.14Zm0,4.79a1.81,1.81,0,0,1-.18.83,1.34,1.34,0,0,1-.53.55,1.6,1.6,0,0,1-1.55,0,1.34,1.34,0,0,1-.53-.55,1.81,1.81,0,0,1-.18-.83v-2.3a1.8,1.8,0,0,1,.18-.82,1.36,1.36,0,0,1,.53-.56,1.68,1.68,0,0,1,1.55,0,1.36,1.36,0,0,1,.53.56,1.8,1.8,0,0,1,.18.82Z"/><polygon class="cls-1" points="496.75 71.67 493.5 65.86 492.1 65.86 492.1 73.7 493.35 73.7 493.35 67.98 496.59 73.7 498 73.7 498 65.86 496.75 65.86 496.75 71.67"/><path class="cls-1" d="M504.15,67.83a1.27,1.27,0,0,1,.5-.57,1.42,1.42,0,0,1,.78-.21,1.32,1.32,0,0,1,.62.15,1.61,1.61,0,0,1,.5.44,2,2,0,0,1,.31.66h1.32a3.37,3.37,0,0,0-.52-1.35,2.55,2.55,0,0,0-1-.87,2.74,2.74,0,0,0-1.28-.3,2.9,2.9,0,0,0-1.48.36,2.31,2.31,0,0,0-1,1,3.32,3.32,0,0,0-.34,1.56v2.15a3.32,3.32,0,0,0,.34,1.56,2.31,2.31,0,0,0,1,1,2.9,2.9,0,0,0,1.48.36,2.65,2.65,0,0,0,2.23-1.18,3.54,3.54,0,0,0,.52-1.34h-1.32a2,2,0,0,1-.31.67,1.37,1.37,0,0,1-.5.43,1.44,1.44,0,0,1-.62.14,1.42,1.42,0,0,1-.78-.2,1.27,1.27,0,0,1-.5-.57,2,2,0,0,1-.18-.88V68.71A2,2,0,0,1,504.15,67.83Z"/><polygon class="cls-1" points="510.82 65.86 509.53 65.86 509.53 73.7 510.14 73.7 510.82 73.7 514.68 73.7 514.68 72.47 510.82 72.47 510.82 65.86"/><path class="cls-1" d="M519.87,70.91a1.62,1.62,0,0,1-.4,1.18,1.7,1.7,0,0,1-2.24,0,1.62,1.62,0,0,1-.4-1.18v-5h-1.29v5a3.51,3.51,0,0,0,.33,1.58,2.24,2.24,0,0,0,1,1,3.48,3.48,0,0,0,3,0,2.24,2.24,0,0,0,1-1,3.51,3.51,0,0,0,.33-1.58v-5h-1.29Z"/><path class="cls-1" d="M526.87,69.56a5.7,5.7,0,0,0-1.21-.35h-.06l-.06,0h-.08c-.38-.08-.67-.15-.88-.21a1.35,1.35,0,0,1-.53-.32.8.8,0,0,1-.21-.59h0a.88.88,0,0,1,.41-.77A2.05,2.05,0,0,1,525.4,67a2.81,2.81,0,0,1,.92.17,3.91,3.91,0,0,1,.92.49l.62-1.06a4.13,4.13,0,0,0-.79-.45,4.77,4.77,0,0,0-.83-.28,4,4,0,0,0-.84-.09,3.7,3.7,0,0,0-1.53.28,2,2,0,0,0-1,.8,2.27,2.27,0,0,0-.34,1.27h0a2.07,2.07,0,0,0,.36,1.3,1.78,1.78,0,0,0,.86.63,7.12,7.12,0,0,0,1.3.31l.09,0h.07a6.36,6.36,0,0,1,.8.19,1.1,1.1,0,0,1,.51.31.8.8,0,0,1,.19.57h0a.89.89,0,0,1-.43.79,2.23,2.23,0,0,1-1.22.28,3.4,3.4,0,0,1-1.2-.2,3.14,3.14,0,0,1-1-.58l-.68,1a3.78,3.78,0,0,0,.83.53,5.13,5.13,0,0,0,1,.33,5.52,5.52,0,0,0,1.09.11,4,4,0,0,0,1.58-.28,2.13,2.13,0,0,0,1-.79,2.24,2.24,0,0,0,.34-1.26h0a2.09,2.09,0,0,0-.33-1.24A1.85,1.85,0,0,0,526.87,69.56Z"/><polygon class="cls-1" points="528.4 67.1 530.58 67.1 530.58 73.7 531.86 73.7 531.86 67.1 534.04 67.1 534.04 65.86 528.4 65.86 528.4 67.1"/><polygon class="cls-1" points="535.55 65.86 535.01 65.86 535.01 73.7 535.55 73.7 536.3 73.7 540.16 73.7 540.16 72.47 536.3 72.47 536.3 70.42 539.57 70.42 539.57 69.19 536.3 69.19 536.3 67.1 540.16 67.1 540.16 65.86 536.3 65.86 535.55 65.86"/><path class="cls-1" d="M546.05,70.18a2,2,0,0,0,.79-.81,2.85,2.85,0,0,0,0-2.42,2,2,0,0,0-.78-.81,2.36,2.36,0,0,0-1.17-.28h-3.27v7.85h1.29V70.47h1.26l1.72,3.24h1.55l-1.84-3.35A1.77,1.77,0,0,0,546.05,70.18Zm-3.14-3.09h1.94a1,1,0,0,1,.49.13,1,1,0,0,1,.32.38,1.4,1.4,0,0,1,.11.56,1.29,1.29,0,0,1-.12.57.83.83,0,0,1-.32.37.86.86,0,0,1-.48.13h-1.94Z"/><path class="cls-1" d="M553.62,70.21a1.85,1.85,0,0,0-.82-.65,5.7,5.7,0,0,0-1.21-.35h-.06l-.06,0h-.08c-.38-.08-.68-.15-.89-.21a1.31,1.31,0,0,1-.52-.32.8.8,0,0,1-.21-.59h0a.86.86,0,0,1,.41-.77,2.05,2.05,0,0,1,1.15-.28,2.71,2.71,0,0,1,.91.17,4,4,0,0,1,.93.49l.62-1.06a4.45,4.45,0,0,0-.79-.45,5.07,5.07,0,0,0-.83-.28,4,4,0,0,0-.84-.09,3.7,3.7,0,0,0-1.53.28,2.11,2.11,0,0,0-1,.8,2.35,2.35,0,0,0-.33,1.27h0a2.07,2.07,0,0,0,.36,1.3,1.78,1.78,0,0,0,.86.63,7.2,7.2,0,0,0,1.29.31l.1,0h.07a6.36,6.36,0,0,1,.8.19,1.1,1.1,0,0,1,.51.31.8.8,0,0,1,.19.57h0a.89.89,0,0,1-.43.79,2.24,2.24,0,0,1-1.23.28,3.38,3.38,0,0,1-1.19-.2,3,3,0,0,1-1-.58l-.68,1a3.78,3.78,0,0,0,.83.53,4.91,4.91,0,0,0,1,.33,5.42,5.42,0,0,0,1.08.11,4,4,0,0,0,1.59-.28,2.1,2.1,0,0,0,1-.79,2.25,2.25,0,0,0,.35-1.26h0A2.09,2.09,0,0,0,553.62,70.21Z"/><path class="cls-3" d="M423.15,13.71v7.92h7.93V13.71Zm6.64,6.63h-5.35V15h5.35Z"/><path class="cls-3" d="M423.15,31.05V39h7.93V31.05Zm6.64,6.63h-5.35V32.34h5.35Z"/><path class="cls-3" d="M423.15,48.44v7.92h7.93V48.44Zm6.64,6.63h-5.35V49.73h5.35Z"/><path class="cls-3" d="M423.15,65.86v7.93h7.93V65.86Zm6.64,6.64h-5.35V67.15h5.35Z"/><path class="cls-1" d="M432.31,11.49a1,1,0,0,0-1.4.12l-4.4,5.25-1.46-1.47a1,1,0,1,0-1.42,1.4L425.86,19h0l0,0,0,0h0l.13.09h0l.14.07h0l.15,0h.41l.07,0h0l.06,0,0,0,.05,0,0,0,0,0,0,0s0,0,0,0l0,0h0l0-.05,0,0,5.1-6.09A1,1,0,0,0,432.31,11.49Z"/><path class="cls-1" d="M432.31,28.83a1,1,0,0,0-1.4.12l-4.4,5.25-1.46-1.47a1,1,0,0,0-1.42,1.4l2.23,2.25h0l0,0,0,0h0l.13.09h0l.14.07h0l.15,0h.41l.07,0h0l.06,0,0,0,.05,0,0,0,0,0,0,0,0,0,0,0h0l0,0,0,0,5.1-6.09A1,1,0,0,0,432.31,28.83Z"/><path class="cls-1" d="M432.31,46.21a1,1,0,0,0-1.4.13l-4.4,5.25-1.46-1.47a1,1,0,0,0-1.42,1.4l2.23,2.25h0l0,0,0,0h0l.13.09h0a.35.35,0,0,0,.14.06h0l.15,0h0l.15,0h.24l.07,0h0l.06,0h0l.05,0,0,0,0,0s0,0,0,0l0,0,0,0h0l0-.05,0,0,5.1-6.09A1,1,0,0,0,432.31,46.21Z"/><path class="cls-1" d="M432.31,63.65a1,1,0,0,0-1.4.12L426.51,69l-1.46-1.48A1,1,0,0,0,423.63,69l2.23,2.24h0l0,0,0,0h0l.13.1h0l.14.06h0l.15,0h.48l0,0,.06,0,0,0,.05,0,0,0,0,0,0,0s0,0,0,0l0,0h0l0,0a0,0,0,0,1,0,0l5.1-6.1A1,1,0,0,0,432.31,63.65Z"/></g></g></svg>