<svg xmlns="http://www.w3.org/2000/svg" viewBox="0 0 566.93 85.04"><defs><style>.cls-1{fill:#00467d;}.cls-2{fill:#ffcc80;}.cls-3,.cls-4{fill:#fff;}.cls-4{opacity:0.2;}</style></defs><title>ads_cav01_en</title><g id="Layer_2" data-name="Layer 2"><g id="Layer_2-2" data-name="Layer 2"><rect class="cls-1" width="566.93" height="85.04"/><path class="cls-2" d="M63.38,34.23a1.3,1.3,0,0,0-1.11-1.93,5,5,0,0,0-1.53.32,18.74,18.74,0,0,0-2.8-.12,1.42,1.42,0,0,0-.71.23.77.77,0,0,0-1.2.44,2.36,2.36,0,0,0,.84,2.27c.49.43,1.65.79,1.91,1.41s1.11,1.28,1.83.75A8.41,8.41,0,0,0,63.38,34.23Z"/><path class="cls-2" d="M101,35a1.07,1.07,0,0,0-1.67-.3.79.79,0,0,1-.23.14,1.51,1.51,0,0,0-2.32.31,1,1,0,0,0,.36,1.35l.07,0a.85.85,0,0,0,.71.36H98a3,3,0,0,0,1.42,0,1,1,0,0,0,.88.15.88.88,0,0,0,.59.09,1.13,1.13,0,0,0,.74-1.55A1.1,1.1,0,0,0,101,35Z"/><path class="cls-2" d="M58.23,66.36c-1.69.16-3.14,1.68-4.21,3a1.44,1.44,0,0,0-.37-.21c-.71-.28-1.07.69-.67,1.15.11.14.1.66.14.84a2.38,2.38,0,0,0,.43,1,2.43,2.43,0,0,0,2.06.9,5.32,5.32,0,0,0,2.62-1.32l.68-.47c1,.4,2-.76,1.64-1.8A2.27,2.27,0,0,0,58.23,66.36Z"/><path class="cls-2" d="M32.65,57.87c-.11-.73-1.07-.54-1.29,0-.08.22-.17.44-.24.67a1.23,1.23,0,0,0-1,1.16c0,.2,0,.42,0,.63a14.84,14.84,0,0,1-.69,3.84c-.41,1.34,1.44,2,2.14,1a5.39,5.39,0,0,0,.58.59,1.17,1.17,0,0,0,1.83-1.42A12.37,12.37,0,0,1,32.64,61,10.46,10.46,0,0,0,32.65,57.87Z"/><path class="cls-2" d="M31.38,75.69a1.29,1.29,0,0,0,1.5.2c.88-.64,1.92-1.71,1.63-2.9a1.2,1.2,0,0,0-1.76-.71,2.11,2.11,0,0,0-.22.17c-.07-.09-.13-.19-.21-.28a.91.91,0,0,0-.79-.32,1.19,1.19,0,0,0-1.14.17A1.22,1.22,0,0,0,30,73.26,4,4,0,0,0,31.38,75.69Z"/><path class="cls-2" d="M89.5,9.15c-.75,1.33-.24,3.27,1.51,3.32a3.71,3.71,0,0,0,2.27-.8,2.55,2.55,0,0,0,.61-.42,2.1,2.1,0,0,0,.51.06,2.07,2.07,0,0,0,1.91-1.72,1.57,1.57,0,0,0,0-.61H89.62A1.77,1.77,0,0,0,89.5,9.15Z"/><path class="cls-3" d="M39.66.1,34.48,1.17C26.27,2.86,22.15,3.71,20,5.23A5.33,5.33,0,0,0,17.66,8.9a4,4,0,0,1-.69,0,.68.68,0,1,0-.18,1.34,5.07,5.07,0,0,0,.68,0c-.1.9-.15,1.92-.21,3.08,0,.7-.08,1.45-.13,2.27a.68.68,0,0,0,.47.69.69.69,0,0,0,.78-.28,17.22,17.22,0,0,1,4.33-4.64c0,.15,0,.29,0,.44a12.44,12.44,0,0,0-.1,1.38c0,.89.15,2.38,1.18,2.38.55,0,.92-.48,2.1-2.13.37-.52.95-1.33,1.4-1.86,0,.16,0,.33,0,.49,0,1.25,0,2.07.68,2.29s1-.31,1.61-1.15A12.83,12.83,0,0,1,38.77,7.3C39,12.43,42,18.16,47.27,19.46a.67.67,0,0,0,.43.16l.32,0h0c.38.1,2.19,1.13,2.19,2.76,0,.51,0,2.06-3.22,2.73a.69.69,0,0,0-.54.65c-.15,5.57-2.57,7.06-5.12,8.63s-5,3-5,8a3.37,3.37,0,0,0,.2,1.21l-.1,0c-1.11.67-2.27,1.36-3.3,2.05A.71.71,0,0,0,33,46a23.33,23.33,0,0,1-2.6.21.67.67,0,0,0-.52-.25,2.49,2.49,0,0,1-1.57-.68,3.16,3.16,0,0,0,1.07-2.53c0-2.18-1.76-3.22-3.63-4.32C23,36.8,20,35,20,29.28c0-2.21.19-4.44.37-6.61s.37-4.46.37-6.73c0-.27,0-.54,0-.82a.68.68,0,0,0-.69-.66.67.67,0,0,0-.66.69v.79c0,2.21-.18,4.45-.36,6.62s-.37,4.46-.37,6.72c0,6.49,3.71,8.68,6.42,10.29,1.89,1.12,3,1.81,3,3.15,0,1.72-1.31,2.1-3.62,2.64-2.52.59-5.66,1.33-5.66,5.46v.06l-.29-.21a.68.68,0,0,0-.81,1.09,33.08,33.08,0,0,0,20.07,6.68h.77a30.94,30.94,0,0,0,22.8-10.61A34.32,34.32,0,0,0,69.6,24.74,31.86,31.86,0,0,0,63.34,6.25a30.19,30.19,0,0,0-2.56-3,.68.68,0,1,0-1,1,28.73,28.73,0,0,1,2.45,2.83,30.51,30.51,0,0,1,6,17.7,33,33,0,0,1-1.33,9.88c-.31-.06-.62-.12-.93-.16a.69.69,0,0,0-.77.58.68.68,0,0,0,.58.76c.24,0,.48.08.71.13a32.47,32.47,0,0,1-6.27,11,29.62,29.62,0,0,1-7,5.9,9.81,9.81,0,0,0-3.53-6.9c0-.16.1-.33.16-.51a.66.66,0,0,0-.39-.87.67.67,0,0,0-.87.39l-.08.21A9.82,9.82,0,0,0,43.69,44l-1.13,0-1.1,0c-3.7,0-3.7-.76-3.7-1.63,0-4.23,2-5.46,4.31-6.88,2.55-1.57,5.43-3.35,5.75-9.23,3.1-.81,3.77-2.57,3.77-3.94a4.65,4.65,0,0,0-3.07-4c0-.63.09-1.27.14-1.89.1-1.23.21-2.51.21-3.77,0-3.7-1.59-8.93-5.1-9.69-.09-1.22-.51-3-3.07-3h-.05A5.54,5.54,0,0,0,39.66.1ZM29.08,52.89a25,25,0,0,0-.46,2.9,31.33,31.33,0,0,1-8.49-3.93.66.66,0,0,0,0-.28,5.06,5.06,0,0,1-.06-.76c0-2.59,1.53-3.35,3.51-3.87a20.1,20.1,0,0,1,1.86,3.48c.36.77.72,1.57,1.14,2.33a.69.69,0,0,0,.45.33l.14,0a.68.68,0,0,0,.4-.13,13.85,13.85,0,0,1,1.67-1h0Zm-.46-2.1c-.39.21-.8.42-1.19.66-.25-.51-.49-1-.74-1.59A24,24,0,0,0,25,46.61,13,13,0,0,0,27.09,46,4.08,4.08,0,0,0,29,47.17c.1,1,.27,2,.44,3a.59.59,0,0,0,0,.13Zm4.17-3.42v.27a19.8,19.8,0,0,0,.14,2.19.38.38,0,0,0-.09.15,1.06,1.06,0,0,0,0,.19.52.52,0,0,0-.1.11,9.86,9.86,0,0,1-1.81.22l-.1-.55c-.14-.8-.28-1.61-.37-2.41C31.19,47.52,32,47.47,32.79,47.37Zm-2.88,8.77a.55.55,0,0,0,.06-.22,23.22,23.22,0,0,1,.44-2.76c.08-.43.17-.87.24-1.31h.13a11.14,11.14,0,0,0,2-.2c.22.91.53,1.81.83,2.68a24.89,24.89,0,0,1,.8,2.59A32.15,32.15,0,0,1,29.91,56.14Zm11.3-10.76C40.54,46.9,40,48.44,39.41,50c-.46,1.27-.94,2.59-1.48,3.85a.69.69,0,0,0,.36.89.86.86,0,0,0,.27.05.69.69,0,0,0,.62-.41c.55-1.3,1-2.63,1.51-3.91.6-1.66,1.23-3.36,2-5a.19.19,0,0,0,0-.07h1c6.69,0,8.19,5.93,8.19,8a.46.46,0,0,0,0,.21,29.76,29.76,0,0,1-13.49,3.51c-.89,0-1.77,0-2.65,0a.71.71,0,0,0,0-.14,25.35,25.35,0,0,0-.91-3c-.3-.89-.59-1.73-.79-2.58l.06-.05.71.38a17,17,0,0,0,1.54.77.75.75,0,0,0,.26.05.69.69,0,0,0,.62-.41c.18-.42.35-.84.52-1.25a17.41,17.41,0,0,1,3-5.43Zm-2.09-.15a21.93,21.93,0,0,0-2.59,5.05l-.24.59c-.27-.13-.53-.27-.8-.42s-.79-.42-1.2-.61a20.85,20.85,0,0,1-.15-2.2,9.41,9.41,0,0,1,0-1c1-.62,2-1.26,3-1.87a.61.61,0,0,0,.2-.19A4.21,4.21,0,0,0,39.12,45.23ZM42.44,3.58a.68.68,0,0,0,.64.66c2.74.17,4.43,4.5,4.43,8.42,0,1.21-.1,2.45-.2,3.66-.05.56-.1,1.14-.13,1.71-4.59-1.41-7.07-6.82-7.08-11.47a.64.64,0,0,0-.22-.49.66.66,0,0,0-.46-.19h0a14,14,0,0,0-10.78,6.3v-.12c0-.16,0-.33,0-.5s0-.35,0-.52c0-.71-.23-1.13-.69-1.28-.87-.28-1.65.74-3.18,2.88-.25.34-.54.76-.79,1.08a5,5,0,0,1,0-.54c0-.4,0-.8.08-1.23a13,13,0,0,0,.1-1.41.81.81,0,0,0-.58-.8c-1-.28-3.15,1.53-4.92,3.65.2-4,.3-5.8,2.11-7.06,2-1.36,6-2.19,14-3.84l5.18-1.07a3.63,3.63,0,0,1,.73-.08C42.21,1.35,42.4,2.07,42.44,3.58Z"/><path class="cls-3" d="M47,22a3.08,3.08,0,0,1-.09.66.68.68,0,0,0,.54.8h.13a.67.67,0,0,0,.66-.54,4.45,4.45,0,0,0,.12-.93,1.87,1.87,0,0,0-.53-1.38.68.68,0,1,0-1,1A.53.53,0,0,1,47,22Z"/><path class="cls-3" d="M28.79,31A7.36,7.36,0,0,0,30,30.86c.15,0,.29-.05.44-.06a.68.68,0,1,0-.17-1.35l-.48.07a6.81,6.81,0,0,1-1,.1c-.48,0-1.05-.11-1.05-.62s.15-.59.89-.92c1-.45,2.55-1.14,2.55-4.28a19.06,19.06,0,0,0-.41-3.38c-.05-.24-.09-.47-.13-.69a.67.67,0,0,0-.78-.55.68.68,0,0,0-.55.79q.06.33.12.69a17.29,17.29,0,0,1,.4,3.14c0,2.26-.86,2.64-1.76,3.05A2.23,2.23,0,0,0,26.39,29C26.39,30.2,27.33,31,28.79,31Z"/><path class="cls-3" d="M29.69,34.6a.68.68,0,0,0,.35.89,5.54,5.54,0,0,0,2.22.45,6.49,6.49,0,0,0,3.89-1.33.68.68,0,0,0-.83-1.07,4.91,4.91,0,0,1-4.73.71A.68.68,0,0,0,29.69,34.6Z"/><path class="cls-3" d="M24.39,24.63a1.46,1.46,0,0,0,1.38-1.52,1.67,1.67,0,0,0-1.47-1.67.64.64,0,0,0-.56.19,2.4,2.4,0,0,0-.7,1.54A1.43,1.43,0,0,0,24.39,24.63Zm0-1.53a.25.25,0,0,1,0,.1v0A.23.23,0,0,1,24.41,23.1Z"/><path class="cls-3" d="M34.9,23.85a1.25,1.25,0,0,0,1.15-1.27A1.75,1.75,0,0,0,35,21a.67.67,0,0,0-.63.06,1.59,1.59,0,0,0-.69,1.31C33.65,23,34.14,23.85,34.9,23.85Z"/><path class="cls-3" d="M1.52,3.35V3a14.9,14.9,0,0,0-.31-3H0V1A15.1,15.1,0,0,1,.17,2.73H0V4.1L.93,4A.68.68,0,0,0,1.52,3.35Z"/><path class="cls-3" d="M7.33,70c5.2,0,9.88-4.1,11.14-9.75a.68.68,0,1,0-1.32-.29,14.64,14.64,0,0,1-.44,1.47l-.08,0a2.86,2.86,0,0,1-1.24.26,3.51,3.51,0,0,1-1.73-.42,3.27,3.27,0,0,0-1.54-.42,6,6,0,0,0-2.82,1,4.47,4.47,0,0,1-1,.48,4,4,0,0,1-1-.42,4.7,4.7,0,0,0-2-.66,4,4,0,0,0-2.72,1.34.68.68,0,0,0,0,1,.68.68,0,0,0,1,0,2.86,2.86,0,0,1,1.76-.94,4.18,4.18,0,0,1,1.36.52,4,4,0,0,0,1.62.57A3.69,3.69,0,0,0,10,63.06a4.81,4.81,0,0,1,2.14-.85,2.09,2.09,0,0,1,1,.29,4.78,4.78,0,0,0,2.31.56A5.65,5.65,0,0,0,16,63a10.24,10.24,0,0,1-8.65,5.61A9.5,9.5,0,0,1,0,65.29v1.93A10.7,10.7,0,0,0,7.33,70Z"/><path class="cls-3" d="M20.55,74.2c0,.36,0,.72.05,1.08a50.64,50.64,0,0,0,.46,6,.68.68,0,0,0,.67.57h.11a.67.67,0,0,0,.56-.77A49.58,49.58,0,0,1,22,75.23q0-1.35-.12-2.73a.74.74,0,0,0,0-.39A31.27,31.27,0,0,0,21.27,68a.68.68,0,1,0-1.33.28,29.93,29.93,0,0,1,.51,3.9c-1.71,2.51-8,7-14.32,7A15.32,15.32,0,0,1,0,77.85v1.5a16,16,0,0,0,6.13,1.24C12.12,80.59,17.87,77,20.55,74.2Z"/><path class="cls-3" d="M100,1.81c0,4.24-2.92,7.48-6.82,7.7A8,8,0,0,1,87,7.13,8.46,8.46,0,0,1,84.43.8a5.29,5.29,0,0,1,.09-.8H83.15c0,.24-.06.48-.08.73a9.6,9.6,0,0,0,1.74,5.9s0,0,0,0c-.25.29-.6.67-1,1.12C81.25,10.5,79,13.12,79,15.1a2.21,2.21,0,0,0,1.92,2.19c1.08,0,2.64-1.58,5.93-5.36.71-.82,1.34-1.54,1.78-2a9.31,9.31,0,0,0,4.07.94h.56c4.63-.27,8-4.07,8.09-9A10,10,0,0,0,101.18,0H99.81A9.67,9.67,0,0,1,100,1.81ZM85.81,11c-1.35,1.55-4.15,4.77-4.9,4.9a1,1,0,0,1-.58-.84c0-1.61,2.89-4.73,4.44-6.41l.89-1c.11.13.23.26.35.38A10.74,10.74,0,0,0,87.4,9.24C87,9.71,86.42,10.34,85.81,11Z"/><path class="cls-3" d="M94.8.56a.66.66,0,0,0-.13.36c0,.1,0,.2,0,.31a5.74,5.74,0,0,0,.27,1.7,15.8,15.8,0,0,1-1.66-.35.67.67,0,0,0-.68.2c-.35.37-.76.82-1.19,1.31-.21-.71-.42-1.44-.57-2.15a.68.68,0,0,0-.5-.51l-.84-.23,1-.58.84-.51L91.43,0H88.85a14.92,14.92,0,0,1-1.37.72.67.67,0,0,0-.4.64.66.66,0,0,0,.43.61,19.8,19.8,0,0,0,2.08.66c.17.69.37,1.36.57,2,.1.34.19.67.29,1a.69.69,0,0,0,.51.48h.14a.66.66,0,0,0,.52-.24C92.2,5.22,92.8,4.55,93.31,4a19.57,19.57,0,0,0,2.62.43.67.67,0,0,0,.63-.28.68.68,0,0,0,0-.7A4.81,4.81,0,0,1,96,1.23V1.18A7.52,7.52,0,0,0,96.66,0H95.14C95,.19,94.92.39,94.8.56Z"/><path class="cls-3" d="M108.89,10.46c-1,1.23-2,2.48-2.87,3.64a.67.67,0,0,0,.11.94c.5.4,1,.78,1.52,1.15s1,.74,1.49,1.12a.67.67,0,0,0,.92-.07c1-1.11,2.11-2.18,3.1-3.18a.66.66,0,0,0,.2-.49.64.64,0,0,0-.22-.49c-1.23-1.11-2.29-2-3.32-2.74A.67.67,0,0,0,108.89,10.46Zm.6,5.41-1-.77-.95-.71c.65-.83,1.33-1.7,2-2.57.68.52,1.38,1.11,2.16,1.79C111,14.33,110.24,15.09,109.49,15.87Z"/><path class="cls-3" d="M87.56,19.51a.67.67,0,0,0,.68.68h1.94a15.94,15.94,0,0,0,.21,2.38.68.68,0,0,0,.67.55h.13a.68.68,0,0,0,.54-.79,13.5,13.5,0,0,1-.19-2.13h1.78a.68.68,0,1,0,0-1.36H91.51a16.77,16.77,0,0,0-.12-2,.68.68,0,0,0-.75-.59.68.68,0,0,0-.59.76,18,18,0,0,1,.11,1.83H88.24A.68.68,0,0,0,87.56,19.51Z"/><path class="cls-3" d="M120.21,38.83a2.14,2.14,0,0,0,.84-1.13,2.7,2.7,0,0,0,.17-.94,2.57,2.57,0,0,0-.68-1.74,5,5,0,0,0,.3-1.83c0-2.84-1.52-4.47-4.18-4.47a6.07,6.07,0,0,0-5.4,3.39h-.1c-2.1,0-4.23,1.77-4.23,3.52,0,3.58,4.43,4.92,7.23,4.92A14.6,14.6,0,0,0,120.21,38.83Zm-8-5a1.27,1.27,0,0,1,.49,1c0,.28,0,.63-.23.63a2,2,0,0,1-.29-1.26A2.73,2.73,0,0,1,112.16,33.78Zm-3.88,1.85c0-.76,1.16-2,2.55-2.15a5.65,5.65,0,0,0,0,.71c0,1.61.63,2.61,1.65,2.61.76,0,1.58-.52,1.58-2a2.61,2.61,0,0,0-1.41-2.36,4.79,4.79,0,0,1,4.06-2.39c1.91,0,2.83,1,2.83,3.12a4.21,4.21,0,0,1-.12,1.07,3,3,0,0,0-.9-.14c-.94,0-1.94.44-1.94,1.41a1.29,1.29,0,0,0,1.4,1.27,2.7,2.7,0,0,0,1.8-.61,1.33,1.33,0,0,1,.13.57,1.26,1.26,0,0,1-.08.47.87.87,0,0,1-.29.45,13.21,13.21,0,0,1-5.33,1.51C112.24,39.19,108.28,38.32,108.28,35.63Z"/><path class="cls-3" d="M124,49.4a.7.7,0,0,0-.81-.52,10.56,10.56,0,0,1-2,.22c0-.4,0-.81-.07-1.22s0-.65,0-1a.68.68,0,1,0-1.35.08c0,.32,0,.63.05.95l.06,1.17H118.5a.68.68,0,0,0,0,1.36H120a14.18,14.18,0,0,0,.47,2.44.68.68,0,0,0,1.31-.38,12.67,12.67,0,0,1-.42-2.07,11.91,11.91,0,0,0,2.17-.24A.69.69,0,0,0,124,49.4Z"/><path class="cls-3" d="M85,28a3,3,0,0,0-2.67-3,3.68,3.68,0,0,0-.47,0,4.44,4.44,0,0,0-1,.22,3.2,3.2,0,0,0-2.06,3.26,2.85,2.85,0,0,0,2.41,2.65c0,.16-.06.32-.09.48a.69.69,0,0,0,.58.77h.1a.69.69,0,0,0,.67-.59,6.1,6.1,0,0,1,.14-.72,3.23,3.23,0,0,0,1.43-.8A3.06,3.06,0,0,0,85,28Zm-1.88,1.32a1.92,1.92,0,0,1-1.44.52,1.54,1.54,0,0,1-1.51-1.45,1.85,1.85,0,0,1,1.17-1.88,2.57,2.57,0,0,1,.64-.15h.25A1.61,1.61,0,0,1,83.69,28,1.72,1.72,0,0,1,83.16,29.29Z"/><path class="cls-3" d="M79.53,41.63a2.36,2.36,0,0,0-2.36-2.33,2.13,2.13,0,0,0-.63.08s0,0,0,0l-.26-.27-.38-.38a.68.68,0,0,0-.95,1l.37.36,0,0a2.36,2.36,0,0,0-.68,1.71A2.45,2.45,0,0,0,77.1,44.1h0a2.37,2.37,0,0,0,1.69-.73A2.47,2.47,0,0,0,79.53,41.63Zm-1.68.8a1,1,0,0,1-.75.31,1,1,0,0,1-.32-2,1.08,1.08,0,0,1,.36-.05,1,1,0,0,1,1,1A1.13,1.13,0,0,1,77.85,42.43Z"/><path class="cls-3" d="M77.62,51.13a.67.67,0,0,0-.67-.68,7.17,7.17,0,0,0-1,.08,11.6,11.6,0,0,1-.09-1.44.68.68,0,0,0-1.36,0,12.7,12.7,0,0,0,.11,1.65,8.57,8.57,0,0,1-1.46.16.68.68,0,0,0,0,1.36,9.37,9.37,0,0,0,1.66-.18c.11.6.24,1.2.37,1.81l.66-.14.66-.16c-.13-.59-.25-1.16-.35-1.72A6.2,6.2,0,0,1,77,51.8.67.67,0,0,0,77.62,51.13Z"/><path class="cls-3" d="M56.05,12.8c.11.6.24,1.2.37,1.81l.66-.14.66-.16c-.12-.59-.25-1.16-.35-1.72a6.2,6.2,0,0,1,.84-.07.68.68,0,1,0,0-1.35,7.17,7.17,0,0,0-1,.08,11.6,11.6,0,0,1-.09-1.44.68.68,0,0,0-1.36,0,12.82,12.82,0,0,0,.11,1.65,8.57,8.57,0,0,1-1.46.16.68.68,0,1,0,0,1.35A10.38,10.38,0,0,0,56.05,12.8Z"/><path class="cls-3" d="M86.72,64.57h-.25a2.94,2.94,0,0,0-3.1,2.83,3.06,3.06,0,0,0,2.84,3,3,3,0,0,0,2.94-3.11,2.78,2.78,0,0,0-1.08-2.31A2.32,2.32,0,0,0,86.72,64.57ZM86.21,69a1.7,1.7,0,0,1-1.49-1.59,1.59,1.59,0,0,1,1.58-1.48h.38a1,1,0,0,1,1.12,1.3A1.61,1.61,0,0,1,86.21,69Z"/><path class="cls-3" d="M117.19,70.78a.67.67,0,0,0,.41.13h.09a.69.69,0,0,0,.45-.27c.44-.58.9-1.15,1.36-1.71s1-1.19,1.43-1.81a.64.64,0,0,0,.12-.52.68.68,0,0,0-.29-.45,35.07,35.07,0,0,1-3.61-2.87.65.65,0,0,0-.51-.17.67.67,0,0,0-.47.27c-.72.95-1.47,1.85-2.28,2.81l-.62.75a.68.68,0,0,0,.11,1Zm-2.26-3.72c.63-.74,1.27-1.51,1.88-2.29a32.44,32.44,0,0,0,2.61,2.1c-.32.41-.65.81-1,1.2s-.66.81-1,1.22l-2.7-2Z"/><path class="cls-3" d="M107.49,84.81a1.7,1.7,0,0,1,.78-1.47,1.33,1.33,0,0,1,.62-.19h.24a2,2,0,0,1,1.35.45,1.42,1.42,0,0,1,.46,1.07,1.26,1.26,0,0,1,0,.38h1.37c0-.14,0-.29,0-.43a2.79,2.79,0,0,0-.92-2,3.47,3.47,0,0,0-2.6-.78,2.78,2.78,0,0,0-1.21.38,3,3,0,0,0-1.43,2.63,1.79,1.79,0,0,0,0,.23h1.36A.91.91,0,0,1,107.49,84.81Z"/><path class="cls-3" d="M95.21,76.55c0-.25,0-.5,0-.75A15.13,15.13,0,0,0,95,73.13a.68.68,0,0,0-1.33.25,14.76,14.76,0,0,1,.17,2.44c0,.48,0,1,0,1.46a.69.69,0,0,0,.68.64c1.23,0,2.45,0,3.67,0H100a40.48,40.48,0,0,0,5.64-.31.68.68,0,0,0,.58-.73c-.09-1.13-.17-2.25-.24-3.37-.18-2.57-.36-5.23-.74-7.9a.69.69,0,0,0-.77-.58.68.68,0,0,0-.57.77c.37,2.62.55,5.26.72,7.81.07.91.13,1.82.2,2.74a41.57,41.57,0,0,1-4.33.22c-.32-2.26-.43-4.62-.54-6.9V69.5a.68.68,0,1,0-1.35.06v.16c.11,2.26.23,4.58.53,6.83h-.92C97.23,76.54,96.22,76.53,95.21,76.55Z"/><path class="cls-3" d="M111.25,48.59c.11,2.32.27,4.58.43,6.95l0,.6a.67.67,0,0,0,.67.63h0a.69.69,0,0,0,.63-.72l0-.6c-.18-2.61-.36-5.08-.47-7.63a.69.69,0,0,0-.23-.49.71.71,0,0,0-.52-.16,38,38,0,0,1-4.26.21c-.94,0-1.9,0-2.85-.05l-.33-3.42c-.35-3.52-.7-7.16-1-10.73a.66.66,0,0,0-.23-.46.7.7,0,0,0-.5-.16c-1.73.15-3.51.19-5.24.21,0-.1,0-.2,0-.31,0-.9-.07-1.81-.15-2.71,1.77-.1,3.53-.26,5.23-.48a.65.65,0,0,0,.55-.44.69.69,0,0,0-.14-.7,3.29,3.29,0,0,1-.51-1.85,3.54,3.54,0,0,1,.19-1.14.7.7,0,0,0-.11-.64.67.67,0,0,0-.59-.26,42.83,42.83,0,0,1-5.58.13.66.66,0,0,0-.71.64.76.76,0,0,0,0,.15.41.41,0,0,0,0,.11c0,1.21.12,2.45.23,3.65A35.24,35.24,0,0,1,96,32.46c0,.15,0,.29,0,.44l-.13.1-.54.59C94,35,92.67,36.49,91.25,37.85a.74.74,0,0,0-.21.53,20.66,20.66,0,0,0,.14,2.68c.29,2.3.39,4.62.45,6.9-2.08.18-4.34.31-7,.4a.72.72,0,0,0-.48.22.77.77,0,0,0-.18.5c.06,1,.12,2,.19,2.93.11,1.69.22,3.44.28,5.12a.68.68,0,0,0,.68.66h0a.67.67,0,0,0,.65-.7c0-1.71-.17-3.47-.28-5.17,0-.74-.1-1.49-.14-2.23,2.39-.08,4.43-.2,6.33-.37,0,.25,0,.5,0,.75,0,2.29.09,4.67.28,7a.68.68,0,0,0,.68.62h.06a.67.67,0,0,0,.61-.73c-.08-1-.14-2-.18-3.05a45.86,45.86,0,0,1,5.08-.31,46.27,46.27,0,0,0,5.7-.39c.08,1,.17,1.92.25,2.88a.68.68,0,1,0,1.35-.12c-.2-2.41-.43-4.85-.66-7.28.89,0,1.81,0,2.71,0C109,48.73,110.14,48.69,111.25,48.59ZM101.07,25.66a4.21,4.21,0,0,0,0,.62,5.58,5.58,0,0,0,.3,1.77c-1.38.16-2.79.27-4.21.35-.08-.88-.15-1.78-.18-2.66C98.24,25.78,99.6,25.76,101.07,25.66Zm-8.68,13c1.38-1.33,2.69-2.75,4-4.12l.35-.37h.49c1.6,0,3.25-.05,4.88-.16q.21,2.25.42,4.53l-2.13.11a54.46,54.46,0,0,0-8,.79C92.4,39.15,92.39,38.9,92.39,38.63Zm.13,2.26s0-.09,0-.13c.77-.16,1.54-.28,2.32-.38.11.83.18,1.68.24,2.53l-2.32.17C92.69,42.35,92.62,41.62,92.52,40.89Zm.32,3.54,2.32-.17c0,.69.07,1.37.1,2.05,0,.1,0,.2,0,.3-.76,0-1.54,0-2.32.1C92.92,46,92.89,45.2,92.84,44.43Zm.25,8.12L93,50c0-.65,0-1.31,0-2,.78,0,1.57-.07,2.35-.09.07,1.45.17,2.91.35,4.35C94.83,52.37,94,52.44,93.09,52.55Zm3.09-12.32c.86-.08,1.71-.13,2.57-.18,0,.85,0,1.69.1,2.54l-2.16.18-.27,0C96.36,41.94,96.28,41.08,96.18,40.23Zm.43,6c0-.7-.06-1.4-.1-2.11l.3,0L99,43.94c.06.84.14,1.67.23,2.5-.85.07-1.7.11-2.55.13C96.62,46.47,96.62,46.36,96.61,46.25Zm1.57,6-1.13,0c-.18-1.43-.28-2.89-.36-4.34.87,0,1.75-.07,2.63-.14,0,.08,0,.15,0,.23.15,1.36.29,2.77.41,4.18ZM100.1,40l.33,0,2.19-.11.24,2.49c-.88,0-1.77.08-2.66.14C100.14,41.65,100.11,40.82,100.1,40Zm.2,3.85c.9-.06,1.8-.11,2.7-.14l0,.35.18,1.78a1,1,0,0,0-.24,0,18.4,18.4,0,0,1-2.44.46C100.44,45.47,100.36,44.65,100.3,43.83Zm.8,8.31c-.11-1.44-.26-2.88-.41-4.27a1.5,1.5,0,0,1,0-.22,20.26,20.26,0,0,0,2.65-.5h0c.15,1.57.3,3.14.44,4.71A26.77,26.77,0,0,1,101.1,52.14Z"/><path class="cls-3" d="M97.38,83.81a5.2,5.2,0,0,0-2.09.49,4.39,4.39,0,0,0-1.11.74h6.67A5.22,5.22,0,0,0,97.38,83.81Z"/><path class="cls-3" d="M54.17,25c0,1.83,2.33,3.46,4.58,5l1.1.78a.66.66,0,0,0,.4.13.68.68,0,0,0,.51-.23c.35-.41.75-.82,1.14-1.22,1.36-1.39,2.77-2.83,2.77-4.89a2.8,2.8,0,0,0-2.78-2.81,3.68,3.68,0,0,0-2.18.84,3.6,3.6,0,0,0-2.39-1A3.31,3.31,0,0,0,54.17,25Zm5-1a.72.72,0,0,0,.49.24.75.75,0,0,0,.51-.19,2.68,2.68,0,0,1,1.74-.9,1.44,1.44,0,0,1,1.42,1.45c0,1.51-1.16,2.69-2.38,3.95q-.39.39-.78.81l-.62-.44c-1.69-1.18-4-2.8-4-3.93a2,2,0,0,1,1.8-2A2.54,2.54,0,0,1,59.15,24Z"/><path class="cls-3" d="M66.66,3.77a35.76,35.76,0,0,1,7,20.78,38.61,38.61,0,0,1-9.4,26A34.71,34.71,0,0,1,38.66,62.5,37.35,37.35,0,0,1,11.33,51.65,36.46,36.46,0,0,1,.48,25,35.41,35.41,0,0,1,9.74,1.7l.09-.05a.64.64,0,0,0,.23-.31c.42-.46.86-.9,1.31-1.34h-3a.67.67,0,0,0,0,.71c.06.1.14.2.2.3A37,37,0,0,0,0,17.59V33.68A37.82,37.82,0,0,0,3.88,44c-.85,0-1.69,0-2.5,0L0,44.1v1.35l1.39,0c1,0,2.05,0,3.1-.06l.15,0a36.51,36.51,0,0,0,2.91,4.12.69.69,0,0,0-.27.48c0,.35,0,.72,0,1.09A25.28,25.28,0,0,0,7.64,55c0,.16.05.31.08.47-1.7.19-3.41.31-5.07.43L0,56.08v1.36l2.75-.21c1.9-.13,3.86-.27,5.82-.52A.74.74,0,0,0,9,56.45a.67.67,0,0,0,.13-.51L9,54.77A24.57,24.57,0,0,1,8.59,51c0-.11,0-.21,0-.32.57.65,1.16,1.29,1.78,1.9a38.52,38.52,0,0,0,16.71,9.78.66.66,0,0,0,.08.65c.92,1.26,1.77,2.58,2.59,3.86.44.69.89,1.39,1.36,2.08.07,1.23.09,2.51.11,3.74a51.34,51.34,0,0,0,.33,6,.68.68,0,0,0,.67.58h.1a.67.67,0,0,0,.57-.77,48,48,0,0,1-.31-5.88c0-1,0-2-.08-3a.75.75,0,0,0,.15-.16c.31-.51.64-1,1-1.52.87-1.36,1.76-2.76,2.56-4.22q.81,0,1.62,0h.89a36.79,36.79,0,0,0,12.2-2.36c.32.58.62,1.18.92,1.78h0c-8.83,5.3-8.95,10-9,13.83C42.66,80.2,42.59,82.83,37,85h3.1c3.83-2.24,3.91-4.87,4-7.89.1-3.64.21-7.76,8.31-12.66l1.18,2.44c.54,1.14,1.1,2.31,1.66,3.43a.59.59,0,0,0,.13.18,5.63,5.63,0,0,1-1.17.14,6,6,0,0,1-1.58-.22.68.68,0,0,0-.84.47.67.67,0,0,0,.47.83,7.12,7.12,0,0,0,2,.27c4.08,0,13.65-6,13.65-8.52,0-1.26-1.28-1.51-1.89-1.63H65.9a.67.67,0,1,0-.26,1.32l.06,0c.22,0,.73.14.8.29,0,1.09-5.79,5.33-10,6.73a.64.64,0,0,0,0-.47c-.56-1.12-1.11-2.28-1.65-3.41L54.66,66a13.42,13.42,0,0,0,6.88-3.45.68.68,0,1,0-.93-1,12.22,12.22,0,0,1-6.55,3.16c-.61-1.26-1.24-2.54-1.9-3.77a35.78,35.78,0,0,0,6.9-3.88c.49.84,1,1.66,1.49,2.45a42.16,42.16,0,0,1,2.67,4.71.67.67,0,0,0,.89.34.69.69,0,0,0,.34-.9,31.5,31.5,0,0,0-1.82-3.35.66.66,0,0,0,.27-.12,8.72,8.72,0,0,1,5.22-2A4.81,4.81,0,0,1,73.27,63c0,3.28-2.84,5.48-5.57,7.6-.51.39-1,.77-1.46,1.15a.67.67,0,0,0-.09,1,.68.68,0,0,0,.52.25.64.64,0,0,0,.43-.16c.45-.37.93-.74,1.43-1.12,2.52-2,5.34-4.14,6-7.35,2.05.15,2.9.93,2.9,2.63,0,3.17-2.55,5.1-4.8,6.81-.63.48-1.23.93-1.74,1.39a.68.68,0,0,0,0,1,.67.67,0,0,0,.5.23.66.66,0,0,0,.45-.18c.48-.42,1-.86,1.66-1.32,1.81-1.37,3.94-3,4.87-5.37h.06c1.78,0,2.74.51,2.74,3.19,0,3.9-3.69,7.25-5.9,8.9a.68.68,0,0,0-.13,1,.67.67,0,0,0,.54.27.69.69,0,0,0,.41-.13,19,19,0,0,0,5.28-5.79h.11c2.15,0,4.18,2.2,4.18,2.84,0,2-1.84,3.81-3.9,5.39h2.14c1.74-1.54,3.11-3.31,3.11-5.39,0-1.45-2.42-3.88-5-4.17a8.3,8.3,0,0,0,.54-2.86c0-3-1.21-4.43-3.79-4.53a6.36,6.36,0,0,0,.11-1.17c0-2.42-1.39-3.75-4.13-4a6.13,6.13,0,0,0-6.5-6,10,10,0,0,0-6,2.22.43.43,0,0,0-.12.11l-.27-.43c-.52-.82-1-1.67-1.54-2.54a37.2,37.2,0,0,0,5.14-4.84,39.24,39.24,0,0,0,7.62-13.35l.14.06a.61.61,0,0,0,.32.08A.67.67,0,0,0,73.69,37l-.35-.17A39.92,39.92,0,0,0,75,24.52,37.15,37.15,0,0,0,67.73,3,33.84,33.84,0,0,0,65.23,0h-1.9A36.46,36.46,0,0,1,66.66,3.77ZM32.48,67.32c-.14.22-.28.43-.41.65-.4-.6-.79-1.21-1.17-1.8-.71-1.11-1.46-2.26-2.25-3.38a39.09,39.09,0,0,0,6,.94C34,65,33.22,66.16,32.48,67.32Z"/><path class="cls-3" d="M4.56,25.15a32.28,32.28,0,0,0,6.7,20.31.67.67,0,0,0,1,.13.67.67,0,0,0,.13-1A31,31,0,0,1,5.91,25.17,30.11,30.11,0,0,1,12.05,7.42l.13.15a.64.64,0,0,0,.51.23.66.66,0,0,0,.44-.16.69.69,0,0,0,.07-1c-.1-.11-.19-.24-.28-.36A31.46,31.46,0,0,1,20.06,0h-2.4A31.81,31.81,0,0,0,4.56,25.15Z"/><path class="cls-3" d="M14.7,9.55a.66.66,0,0,0,.3.07.67.67,0,0,0,.61-.37.68.68,0,0,0-.3-.91,6.71,6.71,0,0,1-.77-.45A.68.68,0,0,0,13.77,9,7.32,7.32,0,0,0,14.7,9.55Z"/><path class="cls-3" d="M56.53,36.55a16.87,16.87,0,0,0-1.65,1,.68.68,0,0,0,.38,1.23.69.69,0,0,0,.39-.12c.5-.35,1-.67,1.54-1a.68.68,0,1,0-.66-1.18Z"/><path class="cls-3" d="M62,34.56a16.66,16.66,0,0,0-1.92.45.68.68,0,0,0,.2,1.33.63.63,0,0,0,.19,0,14.25,14.25,0,0,1,1.75-.41A.68.68,0,1,0,62,34.56Z"/><path class="cls-3" d="M51.91,40.09a17.65,17.65,0,0,0-1.3,1.46.67.67,0,0,0,.11,1,.66.66,0,0,0,.42.15.68.68,0,0,0,.53-.26A16.59,16.59,0,0,1,52.87,41a.68.68,0,1,0-1-.95Z"/><path class="cls-3" d="M81.89,34.73a.68.68,0,0,0-.52.81A10.46,10.46,0,0,0,82,37.43a.68.68,0,0,0,.62.41.67.67,0,0,0,.28-.06.69.69,0,0,0,.34-.9,8.52,8.52,0,0,1-.54-1.64A.67.67,0,0,0,81.89,34.73Z"/><path class="cls-3" d="M84.35,40.64A11.41,11.41,0,0,0,86,41.82a.73.73,0,0,0,.35.09.67.67,0,0,0,.35-1.25,9.92,9.92,0,0,1-1.4-1,.67.67,0,0,0-1,0A.68.68,0,0,0,84.35,40.64Z"/><path class="cls-3" d="M89.91,42a.69.69,0,0,0-.83.48.68.68,0,0,0,.48.83l.62.15.18,0a.53.53,0,0,0,.25.05.68.68,0,0,0,.25-1.31l-.37-.1Z"/><path class="cls-3" d="M104,7.64a.66.66,0,0,0-1,0,9.11,9.11,0,0,0-1.14,1.48.69.69,0,0,0,.22.93.69.69,0,0,0,.94-.22,7.37,7.37,0,0,1,1-1.27A.67.67,0,0,0,104,7.64Z"/><path class="cls-3" d="M102.88,17.38a.68.68,0,1,0-1.17.69,8.89,8.89,0,0,0,1.1,1.5.69.69,0,0,0,.51.23.66.66,0,0,0,.45-.18.67.67,0,0,0,0-.95A7.88,7.88,0,0,1,102.88,17.38Z"/><path class="cls-3" d="M100.6,12.64a8.68,8.68,0,0,0-.07,1.13v.07c0,.23,0,.46,0,.68a.68.68,0,0,0,.68.62h.06a.69.69,0,0,0,.61-.74,5.49,5.49,0,0,1,0-.58v-.05a6.16,6.16,0,0,1,.07-.95.69.69,0,0,0-.59-.76A.68.68,0,0,0,100.6,12.64Z"/><path class="cls-3" d="M105.8,21.77a9.17,9.17,0,0,0,1.76.61l.16,0a.68.68,0,0,0,.16-1.34,7.92,7.92,0,0,1-1.51-.52.68.68,0,0,0-.9.33A.67.67,0,0,0,105.8,21.77Z"/><path class="cls-3" d="M107.8,5a8.59,8.59,0,0,0-1.78.57.68.68,0,1,0,.55,1.24,7.1,7.1,0,0,1,1.52-.49L108,5.6Z"/><path class="cls-3" d="M112.56,20.73a7.53,7.53,0,0,1-1.52.44.68.68,0,0,0,.11,1.35h.12a9.49,9.49,0,0,0,1.8-.52.68.68,0,0,0-.51-1.26Z"/><path class="cls-3" d="M113.32,5.71a10.57,10.57,0,0,0-1.75-.65.69.69,0,0,0-.83.49.67.67,0,0,0,.49.82,8.41,8.41,0,0,1,1.49.56A.66.66,0,0,0,113,7a.68.68,0,0,0,.61-.38A.69.69,0,0,0,113.32,5.71Z"/><path class="cls-3" d="M117.11,14.7a.67.67,0,0,0,.59.75h.08a.67.67,0,0,0,.67-.6,9.42,9.42,0,0,0,.08-1.2V13.6c0-.2,0-.4,0-.6a.68.68,0,0,0-1.35.11c0,.16,0,.33,0,.5v.05A8.94,8.94,0,0,1,117.11,14.7Z"/><path class="cls-3" d="M116.27,7.93a.68.68,0,0,0-1,.91,7.65,7.65,0,0,1,.94,1.28.66.66,0,0,0,.58.34.73.73,0,0,0,.35-.09.68.68,0,0,0,.24-.93A8.88,8.88,0,0,0,116.27,7.93Z"/><path class="cls-3" d="M115.18,19.91a.69.69,0,0,0,.47.18.67.67,0,0,0,.49-.21,8.67,8.67,0,0,0,1.13-1.5.68.68,0,0,0-.24-.93.69.69,0,0,0-.93.24,6.41,6.41,0,0,1-.95,1.26A.69.69,0,0,0,115.18,19.91Z"/><path class="cls-3" d="M77.1,5.47a.66.66,0,0,0,.3.07A.67.67,0,0,0,78,5.17a.68.68,0,0,0-.3-.91,8.33,8.33,0,0,1-1.4-.9.67.67,0,0,0-1,.11.68.68,0,0,0,.1.95A9.9,9.9,0,0,0,77.1,5.47Z"/><path class="cls-3" d="M81.39,6.46a12.21,12.21,0,0,0,1.35-.07.67.67,0,0,0,.61-.74.68.68,0,0,0-.74-.6c-.41,0-.82.06-1.21.06h-.49a.67.67,0,0,0-.72.64.68.68,0,0,0,.64.71Z"/><path class="cls-3" d="M73,1.5a.67.67,0,0,0,.58.34.64.64,0,0,0,.35-.1.67.67,0,0,0,.24-.92A9.16,9.16,0,0,1,73.71,0H72.23A12.29,12.29,0,0,0,73,1.5Z"/><rect class="cls-4" x="385.16" width="181.77" height="85.04"/><rect class="cls-3" x="504.56" y="14.17" width="56.69" height="56.69"/><rect x="529.84" y="17.01" width="2.04" height="2.04"/><rect x="535.96" y="17.01" width="2.04" height="2.04"/><polygon points="527.8 21.09 529.84 21.09 529.84 19.05 527.8 19.05 525.76 19.05 525.76 17.01 523.72 17.01 523.72 19.05 523.72 21.09 523.72 23.13 525.76 23.13 525.76 21.09 527.8 21.09"/><polygon points="542.09 19.05 542.09 17.01 540.05 17.01 540.05 19.05 540.05 21.09 542.09 21.09 542.09 19.05"/><rect x="525.76" y="23.13" width="2.04" height="2.04"/><rect x="523.72" y="25.17" width="2.04" height="2.04"/><rect x="527.8" y="25.17" width="2.04" height="2.04"/><rect x="535.96" y="25.17" width="2.04" height="2.04"/><polygon points="540.05 27.21 542.09 27.21 542.09 25.17 542.09 23.13 540.05 23.13 540.05 25.17 540.05 27.21"/><rect x="525.76" y="27.21" width="2.04" height="2.04"/><polygon points="531.88 29.25 531.88 31.29 531.88 33.34 533.92 33.34 535.96 33.34 535.96 31.29 533.92 31.29 533.92 29.25 535.96 29.25 535.96 27.21 533.92 27.21 533.92 25.17 535.96 25.17 535.96 23.13 538 23.13 540.05 23.13 540.05 21.09 538 21.09 535.96 21.09 533.92 21.09 531.88 21.09 531.88 23.13 531.88 25.17 531.88 27.21 529.84 27.21 529.84 29.25 531.88 29.25"/><rect x="523.72" y="29.25" width="2.04" height="2.04"/><rect x="527.8" y="29.25" width="2.04" height="2.04"/><rect x="535.96" y="29.25" width="2.04" height="2.04"/><polygon points="554.33 33.34 552.29 33.34 552.29 35.38 550.25 35.38 550.25 33.34 548.21 33.34 548.21 35.38 546.17 35.38 546.17 37.42 548.21 37.42 548.21 39.46 546.17 39.46 544.13 39.46 544.13 37.42 542.09 37.42 542.09 39.46 544.13 39.46 544.13 41.5 544.13 43.54 546.17 43.54 548.21 43.54 548.21 41.5 550.25 41.5 552.29 41.5 554.33 41.5 556.37 41.5 556.37 43.54 558.41 43.54 558.41 41.5 558.41 39.46 558.41 39.46 558.41 37.42 556.37 37.42 556.37 39.46 554.33 39.46 552.29 39.46 552.29 37.42 554.33 37.42 556.37 37.42 556.37 35.38 558.41 35.38 558.41 33.34 556.37 33.34 554.33 33.34"/><polygon points="509.43 35.38 509.43 33.34 507.39 33.34 507.39 35.38 507.39 37.42 509.43 37.42 509.43 35.38"/><polygon points="523.72 35.38 525.76 35.38 525.76 37.42 527.8 37.42 527.8 39.46 529.84 39.46 529.84 41.5 529.84 43.54 531.88 43.54 533.92 43.54 533.92 41.5 533.92 39.46 531.88 39.46 531.88 37.42 533.92 37.42 533.92 35.38 531.88 35.38 529.84 35.38 529.84 33.34 527.8 33.34 527.8 31.29 525.76 31.29 525.76 33.34 523.72 33.34 521.68 33.34 519.64 33.34 517.6 33.34 515.55 33.34 513.51 33.34 513.51 35.38 513.51 37.42 515.55 37.42 515.55 39.46 513.51 39.46 513.51 37.42 511.47 37.42 511.47 39.46 511.47 39.46 511.47 41.5 511.47 43.54 511.47 45.58 509.43 45.58 509.43 43.54 509.43 41.5 507.39 41.5 507.39 43.54 507.39 45.58 507.39 47.62 509.43 47.62 511.47 47.62 513.51 47.62 513.51 45.58 513.51 43.54 515.55 43.54 515.55 41.5 517.6 41.5 519.64 41.5 519.64 39.46 521.68 39.46 521.68 37.42 519.64 37.42 519.64 39.46 517.6 39.46 517.6 37.42 517.6 35.38 519.64 35.38 521.68 35.38 521.68 37.42 523.72 37.42 523.72 35.38"/><polygon points="535.96 37.42 535.96 39.46 535.96 39.46 535.96 41.5 538 41.5 540.05 41.5 540.05 39.46 540.05 39.46 540.05 37.42 540.05 35.38 542.09 35.38 544.13 35.38 544.13 33.34 542.09 33.34 542.09 31.29 542.09 29.25 540.05 29.25 540.05 31.29 540.05 33.34 538 33.34 535.96 33.34 535.96 35.38 535.96 37.42"/><rect x="523.72" y="37.42" width="2.04" height="2.04"/><rect x="519.64" y="41.5" width="2.04" height="2.04"/><rect x="525.76" y="41.5" width="2.04" height="2.04"/><rect x="540.05" y="41.5" width="2.04" height="2.04"/><rect x="523.72" y="43.54" width="2.04" height="2.04"/><rect x="527.8" y="43.54" width="2.04" height="2.04"/><rect x="533.92" y="43.54" width="2.04" height="2.04"/><polygon points="538 45.58 535.96 45.58 535.96 47.62 538 47.62 540.05 47.62 542.09 47.62 544.13 47.62 544.13 45.58 542.09 45.58 540.05 45.58 540.05 43.54 538 43.54 538 45.58"/><polygon points="554.33 45.58 552.29 45.58 550.25 45.58 550.25 43.54 548.21 43.54 548.21 45.58 548.21 47.62 550.25 47.62 552.29 47.62 554.33 47.62 556.37 47.62 558.41 47.62 558.41 45.58 556.37 45.58 556.37 43.54 554.33 43.54 554.33 45.58"/><rect x="519.64" y="45.58" width="2.04" height="2.04"/><rect x="525.76" y="45.58" width="2.04" height="2.04"/><polygon points="529.84 45.58 529.84 47.62 531.88 47.62 533.92 47.62 533.92 45.58 531.88 45.58 529.84 45.58"/><rect x="511.47" y="47.62" width="2.04" height="2.04"/><path d="M548.21,47.62h-2v2h-4.08v-2H536v2h2v4.08h2v2H536V49.66h-4.08v2h-2v-2h2v-2H527.8v6.12h2v2h4.08v2h2v4.08h2v-2h2v2h2V66h-2V64H536v2h4.09v2h2V66h2V61.91h2v-2h4.08V49.66h-2Zm0,6.12v4.09h-6.12V51.7h6.12Z"/><polygon points="554.33 47.62 552.29 47.62 550.25 47.62 550.25 49.66 552.29 49.66 552.29 51.7 552.29 53.74 554.33 53.74 556.37 53.74 556.37 51.7 556.37 49.66 554.33 49.66 554.33 47.62"/><rect x="556.37" y="47.62" width="2.04" height="2.04"/><polygon points="509.43 49.66 509.43 47.62 507.39 47.62 507.39 49.66 507.39 51.7 509.43 51.7 509.43 49.66"/><rect x="519.64" y="49.66" width="2.04" height="2.04"/><polygon points="525.76 51.7 525.76 49.66 525.76 47.62 523.72 47.62 523.72 49.66 523.72 51.7 523.72 53.74 523.72 55.79 523.72 57.83 523.72 59.87 523.72 61.91 525.76 61.91 525.76 63.95 525.76 65.99 523.72 65.99 523.72 68.03 525.76 68.03 525.76 65.99 527.8 65.99 529.84 65.99 529.84 63.95 531.88 63.95 533.92 63.95 533.92 61.91 531.88 61.91 531.88 59.87 529.84 59.87 529.84 61.91 527.8 61.91 527.8 59.87 527.8 57.83 525.76 57.83 525.76 55.79 527.8 55.79 527.8 53.74 525.76 53.74 525.76 51.7"/><rect x="544.13" y="53.74" width="2.04" height="2.04"/><polygon points="554.33 55.79 554.33 57.83 556.37 57.83 558.41 57.83 558.41 55.79 558.41 53.74 556.37 53.74 556.37 55.79 554.33 55.79"/><path d="M554.33,59.87v2h-6.12v2h-2v2h4.08v2h2V66h4.08v2h2V66h0V59.87h-4.08Zm-2,6.12h-2V64h2Z"/><rect x="531.88" y="65.99" width="2.04" height="2.04"/><path d="M521.68,17H507.39V31.29h14.29Zm-2.15,12.14h-10v-10h10Z"/><path d="M556.27,17H544.13V31.29h14.28V17Zm0,12.14h-10v-10h10Z"/><path d="M507.39,53.74V68h14.29V53.74H507.39Zm12.14,12.15h-10v-10h10Z"/><rect x="511.47" y="21.09" width="6.12" height="6.12"/><rect x="548.21" y="21.09" width="6.12" height="6.12"/><rect x="511.47" y="57.83" width="6.12" height="6.12"/><polygon class="cls-3" points="142.93 34.95 142.19 34.95 142.19 40.21 142.56 40.21 142.93 40.21 145.57 40.21 145.57 39.51 142.93 39.51 142.93 34.95"/><polygon class="cls-3" points="146.79 34.95 146.43 34.95 146.43 40.21 146.79 40.21 147.17 40.21 149.81 40.21 149.81 39.51 147.17 39.51 147.17 37.95 149.41 37.95 149.41 37.25 147.17 37.25 147.17 35.66 149.81 35.66 149.81 34.95 147.17 34.95 146.79 34.95"/><path class="cls-3" d="M152.29,35l-1.94,5.25h.8l.39-1.15h2.12l.4,1.15h.79L152.92,35Zm-.51,3.4L152.6,36l.82,2.39Z"/><path class="cls-3" d="M158.39,35.18a2.39,2.39,0,0,0-1.08-.22h-1.66v5.25h1.66a2.39,2.39,0,0,0,1.08-.22,1.59,1.59,0,0,0,.69-.64,2.19,2.19,0,0,0,.23-1V36.84a2.13,2.13,0,0,0-.23-1A1.53,1.53,0,0,0,158.39,35.18Zm.17,3.18a1.13,1.13,0,0,1-.32.85,1.3,1.3,0,0,1-.91.3h-1V35.66h1a1.3,1.3,0,0,1,.91.3,1.12,1.12,0,0,1,.32.85Z"/><polygon class="cls-3" points="160.79 34.95 160.43 34.95 160.43 40.21 160.79 40.21 161.17 40.21 163.81 40.21 163.81 39.51 161.17 39.51 161.17 37.95 163.41 37.95 163.41 37.25 161.17 37.25 161.17 35.66 163.81 35.66 163.81 34.95 161.17 34.95 160.79 34.95"/><path class="cls-3" d="M167.73,37.8a1.31,1.31,0,0,0,.54-.53,1.78,1.78,0,0,0,0-1.6,1.23,1.23,0,0,0-.53-.53,1.6,1.6,0,0,0-.8-.19h-2.09v5.26h.74V38h1.1l1.12,2.22h.87l-1.21-2.31Zm-2.14-2.15H167a.76.76,0,0,1,.37.1.71.71,0,0,1,.25.29,1.07,1.07,0,0,1,0,.86.62.62,0,0,1-.25.28.67.67,0,0,1-.37.11h-1.38Z"/><path class="cls-3" d="M172.29,37.49a3.88,3.88,0,0,0-.8-.23h-.13a5.66,5.66,0,0,1-.64-.15,1,1,0,0,1-.38-.23.59.59,0,0,1-.15-.43h0a.72.72,0,0,1,.29-.61,1.45,1.45,0,0,1,.84-.22,1.61,1.61,0,0,1,.6.12,2.24,2.24,0,0,1,.6.33l.42-.59a3.12,3.12,0,0,0-.53-.3,2.1,2.1,0,0,0-.53-.19,2.67,2.67,0,0,0-.56-.06,2.57,2.57,0,0,0-1,.18,1.33,1.33,0,0,0-.63.53,1.49,1.49,0,0,0-.22.83h0a1.35,1.35,0,0,0,.23.86,1.29,1.29,0,0,0,.57.42,6.2,6.2,0,0,0,.86.2h.1a4.13,4.13,0,0,1,.58.14.85.85,0,0,1,.37.24.66.66,0,0,1,.14.44h0a.67.67,0,0,1-.31.6,1.6,1.6,0,0,1-.89.21,2.12,2.12,0,0,1-1.44-.52l-.46.56a2.17,2.17,0,0,0,.55.36,2.61,2.61,0,0,0,.63.22,3.38,3.38,0,0,0,.72.07,2.66,2.66,0,0,0,1-.18,1.39,1.39,0,0,0,.66-.52,1.37,1.37,0,0,0,.23-.82h0a1.39,1.39,0,0,0-.21-.81A1.31,1.31,0,0,0,172.29,37.49Z"/><polygon class="cls-3" points="177 37.27 174.75 37.27 174.75 34.95 174.02 34.95 174.02 40.21 174.75 40.21 174.75 37.97 177 37.97 177 40.21 177.74 40.21 177.74 34.95 177 34.95 177 37.27"/><rect class="cls-3" x="179.04" y="34.96" width="0.74" height="5.25"/><path class="cls-3" d="M183.94,35.16a1.62,1.62,0,0,0-.83-.2h-2v5.25h.73v-2h1.3a1.73,1.73,0,0,0,.83-.2,1.35,1.35,0,0,0,.55-.56,1.74,1.74,0,0,0,.2-.84,1.78,1.78,0,0,0-.2-.85A1.35,1.35,0,0,0,183.94,35.16Zm-.1,1.88a.8.8,0,0,1-.28.32.88.88,0,0,1-.42.11h-1.33V35.66h1.33a.78.78,0,0,1,.42.11.8.8,0,0,1,.28.32,1.21,1.21,0,0,1,.09.48A1.16,1.16,0,0,1,183.84,37Z"/><path class="cls-3" d="M191.25,38.33V36.84a2.19,2.19,0,0,0-.22-1,1.7,1.7,0,0,0-.65-.68,1.94,1.94,0,0,0-1-.24,1.91,1.91,0,0,0-1,.24,1.64,1.64,0,0,0-.65.68,2.19,2.19,0,0,0-.23,1v1.49a2.18,2.18,0,0,0,.23,1,1.58,1.58,0,0,0,.65.68,1.91,1.91,0,0,0,1,.24,1.94,1.94,0,0,0,1-.24,1.26,1.26,0,0,0,.31-.25l.67.53.38-.5-.69-.53A2.2,2.2,0,0,0,191.25,38.33ZM190,39.39a1.16,1.16,0,0,1-1.14,0,1,1,0,0,1-.39-.42,1.32,1.32,0,0,1-.13-.62V36.81a1.38,1.38,0,0,1,.13-.62,1,1,0,0,1,.39-.42,1.23,1.23,0,0,1,1.14,0,1,1,0,0,1,.38.42,1.38,1.38,0,0,1,.14.62v1.54a1.43,1.43,0,0,1-.07.43l-.65-.52-.38.49.69.55A.48.48,0,0,1,190,39.39Z"/><path class="cls-3" d="M195.42,38.33a1.27,1.27,0,0,1-.29.89,1.08,1.08,0,0,1-.83.32,1,1,0,0,1-.81-.32,1.23,1.23,0,0,1-.29-.89V35h-.74v3.35a2.33,2.33,0,0,0,.22,1.06,1.44,1.44,0,0,0,.63.66,1.93,1.93,0,0,0,1,.23,2,2,0,0,0,1-.23,1.55,1.55,0,0,0,.63-.66,2.47,2.47,0,0,0,.21-1.06V35h-.73Z"/><path class="cls-3" d="M198.6,35l-1.94,5.25h.79l.4-1.15H200l.4,1.15h.79L199.23,35Zm-.51,3.4.82-2.39.82,2.39Z"/><polygon class="cls-3" points="202.69 34.95 201.96 34.95 201.96 40.21 202.32 40.21 202.69 40.21 205.33 40.21 205.33 39.51 202.69 39.51 202.69 34.95"/><rect class="cls-3" x="206.2" y="34.96" width="0.74" height="5.25"/><polygon class="cls-3" points="207.8 35.66 209.29 35.66 209.29 40.21 210.03 40.21 210.03 35.66 211.51 35.66 211.51 34.95 207.8 34.95 207.8 35.66"/><polygon class="cls-3" points="214.88 34.95 213.73 37.33 212.58 34.95 211.76 34.95 213.36 38.07 213.36 40.21 214.1 40.21 214.1 38.07 215.7 34.95 214.88 34.95"/><circle class="cls-3" cx="138.8" cy="37.6" r="1.75"/><circle class="cls-3" cx="257.01" cy="37.6" r="1.75"/><polygon class="cls-3" points="264.85 38.78 263.81 34.97 263.16 34.97 262.12 38.78 261.32 34.97 260.43 34.97 261.67 40.22 262.52 40.22 263.51 36.55 264.46 40.22 265.3 40.22 266.55 34.97 265.65 34.97 264.85 38.78"/><path class="cls-3" d="M269.92,35.16a2.14,2.14,0,0,0-2,0,1.6,1.6,0,0,0-.66.68,2.07,2.07,0,0,0-.24,1v1.49a2.08,2.08,0,0,0,.24,1A1.66,1.66,0,0,0,268,40a2.14,2.14,0,0,0,2,0,1.6,1.6,0,0,0,.66-.68,2.08,2.08,0,0,0,.24-1V36.85a2.07,2.07,0,0,0-.24-1A1.55,1.55,0,0,0,269.92,35.16Zm0,3.21a1.2,1.2,0,0,1-.12.55,1,1,0,0,1-.35.37,1,1,0,0,1-.52.13,1,1,0,0,1-.53-.13.87.87,0,0,1-.34-.37,1.09,1.09,0,0,1-.13-.55V36.83a1.13,1.13,0,0,1,.13-.56.87.87,0,0,1,.34-.37,1.13,1.13,0,0,1,1,0,1,1,0,0,1,.35.37,1.25,1.25,0,0,1,.12.56Z"/><path class="cls-3" d="M274.84,37.86a1.24,1.24,0,0,0,.52-.54,1.82,1.82,0,0,0,0-1.62,1.35,1.35,0,0,0-.52-.54,1.5,1.5,0,0,0-.78-.19h-2.19v5.25h.86V38.06h.85l1.15,2.16h1L274.53,38A1.69,1.69,0,0,0,274.84,37.86Zm-2.11-2.07H274a.6.6,0,0,1,.33.09.58.58,0,0,1,.21.25.94.94,0,0,1,0,.76.54.54,0,0,1-.22.25.57.57,0,0,1-.32.09h-1.3Z"/><polygon class="cls-3" points="280.57 34.97 279.49 34.97 277.55 37.66 277.55 34.97 276.69 34.97 276.69 40.22 277.55 40.22 277.55 38.89 278.36 37.84 279.75 40.22 280.79 40.22 278.94 37.08 280.57 34.97"/><rect class="cls-3" x="281.47" y="34.97" width="0.88" height="5.25"/><polygon class="cls-3" points="286.66 38.86 284.49 34.97 283.55 34.97 283.55 40.22 284.38 40.22 284.38 36.39 286.55 40.22 287.5 40.22 287.5 34.97 286.66 34.97 286.66 38.86"/><path class="cls-3" d="M290.57,38.17h.93v.16a1.34,1.34,0,0,1-.12.58.87.87,0,0,1-.34.37,1.16,1.16,0,0,1-1.05,0,.93.93,0,0,1-.36-.35,1.07,1.07,0,0,1-.12-.51V36.88a1.34,1.34,0,0,1,.12-.58.92.92,0,0,1,.35-.38.94.94,0,0,1,.51-.13.92.92,0,0,1,.4.08,1,1,0,0,1,.33.23,1,1,0,0,1,.2.38h.93a1.91,1.91,0,0,0-.36-.82,1.73,1.73,0,0,0-.65-.55,1.86,1.86,0,0,0-.85-.19,2,2,0,0,0-1,.24,1.69,1.69,0,0,0-.66.69,2.23,2.23,0,0,0-.23,1v1.55a1.91,1.91,0,0,0,.24,1,1.59,1.59,0,0,0,.66.65,2.14,2.14,0,0,0,1,.23,1.86,1.86,0,0,0,1-.25,1.69,1.69,0,0,0,.66-.69,2.23,2.23,0,0,0,.23-1v-1h-1.82Z"/><path class="cls-3" d="M298.31,37.44a4.19,4.19,0,0,0-.81-.23h-.14a4.75,4.75,0,0,1-.59-.14.73.73,0,0,1-.35-.21.56.56,0,0,1-.14-.39h0a.58.58,0,0,1,.27-.51,1.39,1.39,0,0,1,.77-.18,1.73,1.73,0,0,1,.62.11,2.34,2.34,0,0,1,.62.33l.41-.72a2.8,2.8,0,0,0-1.08-.48,2.76,2.76,0,0,0-.57-.06,2.59,2.59,0,0,0-1,.18,1.34,1.34,0,0,0-.65.54,1.54,1.54,0,0,0-.23.85h0a1.42,1.42,0,0,0,.24.88,1.26,1.26,0,0,0,.58.42,5.3,5.3,0,0,0,.87.21h.11a3.88,3.88,0,0,1,.53.12.66.66,0,0,1,.34.21.52.52,0,0,1,.13.38h0a.59.59,0,0,1-.29.53,1.53,1.53,0,0,1-.82.19,2.68,2.68,0,0,1-.8-.13,2.19,2.19,0,0,1-.68-.39l-.46.69a2.5,2.5,0,0,0,.56.35,2.84,2.84,0,0,0,.66.22,3.38,3.38,0,0,0,.72.08,2.66,2.66,0,0,0,1.07-.19,1.42,1.42,0,0,0,.67-.53,1.51,1.51,0,0,0,.23-.84h0a1.27,1.27,0,0,0-.77-1.27Z"/><polygon class="cls-3" points="299.33 35.8 300.79 35.8 300.79 40.22 301.65 40.22 301.65 35.8 303.11 35.8 303.11 34.97 299.33 34.97 299.33 35.8"/><polygon class="cls-3" points="305.3 37.29 304.22 34.97 303.29 34.97 304.87 38.14 304.87 40.22 305.73 40.22 305.73 38.14 307.3 34.97 306.37 34.97 305.3 37.29"/><polygon class="cls-3" points="308.67 34.97 307.81 34.97 307.81 40.22 308.21 40.22 308.67 40.22 311.25 40.22 311.25 39.4 308.67 39.4 308.67 34.97"/><polygon class="cls-3" points="315.5 35.8 315.5 34.97 312.91 34.97 312.41 34.97 312.05 34.97 312.05 40.22 312.41 40.22 312.91 40.22 315.5 40.22 315.5 39.4 312.91 39.4 312.91 38.03 315.1 38.03 315.1 37.2 312.91 37.2 312.91 35.8 315.5 35.8"/><polygon class="cls-3" points="142.55 46.9 142.19 46.9 142.19 52.16 142.55 52.16 142.93 52.16 145.57 52.16 145.57 51.46 142.93 51.46 142.93 49.9 145.17 49.9 145.17 49.2 142.93 49.2 142.93 47.6 145.57 47.6 145.57 46.9 142.93 46.9 142.55 46.9"/><polygon class="cls-3" points="148.85 50.37 147.31 46.9 146.61 46.9 146.61 52.16 147.33 52.16 147.33 48.61 148.59 51.43 149.1 51.43 150.36 48.54 150.36 52.16 151.08 52.16 151.08 46.9 150.39 46.9 148.85 50.37"/><path class="cls-3" d="M155.24,47.1a1.69,1.69,0,0,0-.82-.2h-2v5.26h.74v-2h1.3a1.69,1.69,0,0,0,.82-.2,1.37,1.37,0,0,0,.56-.56,2,2,0,0,0,0-1.69A1.46,1.46,0,0,0,155.24,47.1Zm-.1,1.89a.8.8,0,0,1-.28.32.82.82,0,0,1-.42.11h-1.32V47.6h1.32a.76.76,0,0,1,.7.44,1,1,0,0,1,.1.47A1.06,1.06,0,0,1,155.14,49Z"/><polygon class="cls-3" points="157.65 46.9 156.91 46.9 156.91 52.16 157.28 52.16 157.65 52.16 160.29 52.16 160.29 51.46 157.65 51.46 157.65 46.9"/><path class="cls-3" d="M163.72,47.09a2.08,2.08,0,0,0-1.94,0,1.7,1.7,0,0,0-.65.68,2.19,2.19,0,0,0-.23,1v1.48a2.19,2.19,0,0,0,.23,1,1.7,1.7,0,0,0,.65.68,2.08,2.08,0,0,0,1.94,0,1.7,1.7,0,0,0,.65-.68,2.19,2.19,0,0,0,.23-1V48.79a2.19,2.19,0,0,0-.23-1A1.7,1.7,0,0,0,163.72,47.09Zm.12,3.21a1.35,1.35,0,0,1-.13.62,1,1,0,0,1-.39.42,1.08,1.08,0,0,1-1.53-.42,1.35,1.35,0,0,1-.13-.62V48.76a1.35,1.35,0,0,1,.13-.62,1.14,1.14,0,0,1,1.53-.42,1,1,0,0,1,.39.42,1.35,1.35,0,0,1,.13.62Z"/><polygon class="cls-3" points="168.15 46.9 167 49.27 165.85 46.9 165.03 46.9 166.63 50.02 166.63 52.16 167.37 52.16 167.37 50.02 168.97 46.9 168.15 46.9"/><path class="cls-3" d="M170.62,46.9l-1.94,5.26h.79l.4-1.16H172l.4,1.16h.79l-1.93-5.26Zm-.51,3.4.82-2.38.82,2.38Z"/><path class="cls-3" d="M177.17,49.69a1.2,1.2,0,0,0-.54-.23,1.15,1.15,0,0,0,.53-.22,1.07,1.07,0,0,0,.32-.41,1.18,1.18,0,0,0,.1-.5,1.5,1.5,0,0,0-.17-.76,1.1,1.1,0,0,0-.51-.49,1.81,1.81,0,0,0-.85-.18H174v5.26h2.13a1.8,1.8,0,0,0,.82-.18,1.28,1.28,0,0,0,.53-.5,1.44,1.44,0,0,0,.19-.75h0a1.4,1.4,0,0,0-.12-.58A1.13,1.13,0,0,0,177.17,49.69Zm-1.26-2.1a1.08,1.08,0,0,1,.7.19.88.88,0,0,1,0,1.16.87.87,0,0,1-.62.19h-1.3V47.59Zm1,3.07a.74.74,0,0,1-.26.6,1.28,1.28,0,0,1-.82.21h-1.12V49.79H176a1.07,1.07,0,0,1,.51.11.58.58,0,0,1,.29.29,1,1,0,0,1,.1.46Z"/><rect class="cls-3" x="178.75" y="46.9" width="0.74" height="5.25"/><polygon class="cls-3" points="181.53 46.9 180.79 46.9 180.79 52.16 181.16 52.16 181.53 52.16 184.17 52.16 184.17 51.46 181.53 51.46 181.53 46.9"/><rect class="cls-3" x="185.03" y="46.9" width="0.74" height="5.25"/><polygon class="cls-3" points="186.64 47.6 188.12 47.6 188.12 52.16 188.86 52.16 188.86 47.6 190.34 47.6 190.34 46.9 186.64 46.9 186.64 47.6"/><polygon class="cls-3" points="192.57 49.27 191.42 46.9 190.6 46.9 192.2 50.02 192.2 52.16 192.94 52.16 192.94 50.02 194.53 46.9 193.72 46.9 192.57 49.27"/><path class="cls-3" d="M198.5,46.9l-1.94,5.26h.79l.4-1.16h2.12l.4,1.16h.79l-1.94-5.26ZM198,50.3l.82-2.38.82,2.38Z"/><path class="cls-3" d="M204.33,49.44a4.83,4.83,0,0,0-.8-.24h-.14a4.94,4.94,0,0,1-.63-.15,1,1,0,0,1-.39-.23.61.61,0,0,1-.15-.43h0a.69.69,0,0,1,.3-.61,1.38,1.38,0,0,1,.84-.22,1.76,1.76,0,0,1,.59.11,3,3,0,0,1,.6.33l.42-.58a3.1,3.1,0,0,0-.52-.31,2.85,2.85,0,0,0-.54-.18,2.57,2.57,0,0,0-.55-.06,2.53,2.53,0,0,0-1,.18,1.4,1.4,0,0,0-.64.53,1.47,1.47,0,0,0-.22.83h0a1.35,1.35,0,0,0,.24.86,1.21,1.21,0,0,0,.56.42,6.56,6.56,0,0,0,.86.2h.1a3.81,3.81,0,0,1,.58.14.8.8,0,0,1,.37.24.61.61,0,0,1,.15.43h0a.69.69,0,0,1-.32.6,1.57,1.57,0,0,1-.88.21,2.47,2.47,0,0,1-.79-.13,2.21,2.21,0,0,1-.66-.39l-.46.56a2.37,2.37,0,0,0,.55.36,2.69,2.69,0,0,0,.64.22,3.26,3.26,0,0,0,.72.07,2.73,2.73,0,0,0,1-.18,1.39,1.39,0,0,0,.66-.52,1.46,1.46,0,0,0,.22-.82h0a1.39,1.39,0,0,0-.21-.81A1.22,1.22,0,0,0,204.33,49.44Z"/><path class="cls-3" d="M208.91,47.1a1.7,1.7,0,0,0-.83-.2h-2v5.26h.74v-2h1.29a1.7,1.7,0,0,0,.83-.2,1.37,1.37,0,0,0,.56-.56,2,2,0,0,0,0-1.69A1.46,1.46,0,0,0,208.91,47.1Zm-.1,1.89a.8.8,0,0,1-.28.32.82.82,0,0,1-.42.11h-1.32V47.6h1.32a.76.76,0,0,1,.7.44,1,1,0,0,1,.1.47A1.06,1.06,0,0,1,208.81,49Z"/><polygon class="cls-3" points="210.94 46.9 210.59 46.9 210.59 52.16 210.94 52.16 211.32 52.16 213.96 52.16 213.96 51.46 211.32 51.46 211.32 49.9 213.56 49.9 213.56 49.2 211.32 49.2 211.32 47.6 213.96 47.6 213.96 46.9 211.32 46.9 210.94 46.9"/><path class="cls-3" d="M215.79,48.16a1,1,0,0,1,.94-.59,1,1,0,0,1,.45.1,1.07,1.07,0,0,1,.37.3,1.1,1.1,0,0,1,.23.44h.76a2.08,2.08,0,0,0-.35-.82,1.75,1.75,0,0,0-.63-.55,1.78,1.78,0,0,0-.83-.19,1.85,1.85,0,0,0-1,.24,1.64,1.64,0,0,0-.64.69,2.14,2.14,0,0,0-.23,1v1.44a2.12,2.12,0,0,0,.23,1,1.59,1.59,0,0,0,.64.69,1.85,1.85,0,0,0,1,.24,1.74,1.74,0,0,0,.82-.19,1.7,1.7,0,0,0,.64-.55,2.08,2.08,0,0,0,.35-.82h-.76a1.05,1.05,0,0,1-.23.46,1,1,0,0,1-.37.28,1,1,0,0,1-.45.1,1.08,1.08,0,0,1-.57-.15,1,1,0,0,1-.37-.44,1.45,1.45,0,0,1-.14-.65V48.81A1.48,1.48,0,0,1,215.79,48.16Z"/><polygon class="cls-3" points="218.86 47.6 220.35 47.6 220.35 52.16 221.09 52.16 221.09 47.6 222.57 47.6 222.57 46.9 218.86 46.9 218.86 47.6"/><path class="cls-3" d="M226.44,49.87a1.22,1.22,0,0,0-.53-.43,4.83,4.83,0,0,0-.8-.24H225a4.76,4.76,0,0,1-.64-.15,1,1,0,0,1-.38-.23.57.57,0,0,1-.16-.43h0a.69.69,0,0,1,.3-.61,1.38,1.38,0,0,1,.84-.22,1.71,1.71,0,0,1,.59.11,3,3,0,0,1,.6.33l.42-.58a3.1,3.1,0,0,0-.52-.31,2.85,2.85,0,0,0-.54-.18,2.57,2.57,0,0,0-.55-.06,2.53,2.53,0,0,0-1,.18,1.4,1.4,0,0,0-.64.53,1.47,1.47,0,0,0-.22.83h0a1.35,1.35,0,0,0,.24.86,1.21,1.21,0,0,0,.56.42,6.56,6.56,0,0,0,.86.2h.1a4.31,4.31,0,0,1,.59.14.76.76,0,0,1,.36.24.61.61,0,0,1,.15.43h0a.69.69,0,0,1-.32.6,1.57,1.57,0,0,1-.88.21,2.47,2.47,0,0,1-.79-.13,2.21,2.21,0,0,1-.66-.39l-.46.56a2.37,2.37,0,0,0,.55.36,2.69,2.69,0,0,0,.64.22,3.26,3.26,0,0,0,.72.07,2.73,2.73,0,0,0,1-.18,1.39,1.39,0,0,0,.66-.52,1.46,1.46,0,0,0,.23-.82h0A1.39,1.39,0,0,0,226.44,49.87Z"/><circle class="cls-3" cx="138.8" cy="49.53" r="1.75"/><path class="cls-3" d="M263.29,47.11a1.73,1.73,0,0,0-.83-.2h-2v5.25h.73v-2h1.3a1.72,1.72,0,0,0,.83-.19,1.37,1.37,0,0,0,.55-.57,1.74,1.74,0,0,0,.2-.84,1.81,1.81,0,0,0-.2-.85A1.35,1.35,0,0,0,263.29,47.11Zm-.1,1.88a.73.73,0,0,1-.7.43h-1.33V47.61h1.33a.82.82,0,0,1,.42.11.87.87,0,0,1,.28.32,1.21,1.21,0,0,1,.1.48A1.12,1.12,0,0,1,263.19,49Z"/><polygon class="cls-3" points="265.32 46.91 264.96 46.91 264.96 52.16 265.32 52.16 265.7 52.16 268.34 52.16 268.34 51.46 265.7 51.46 265.7 49.9 267.94 49.9 267.94 49.2 265.7 49.2 265.7 47.61 268.34 47.61 268.34 46.91 265.7 46.91 265.32 46.91"/><path class="cls-3" d="M272.27,49.75a1.29,1.29,0,0,0,.53-.53,1.6,1.6,0,0,0,.19-.8,1.57,1.57,0,0,0-.19-.79,1.31,1.31,0,0,0-.53-.54,1.71,1.71,0,0,0-.8-.18h-2.09v5.25h.74V49.94h1.1l1.12,2.22h.87L272,49.85A1.48,1.48,0,0,0,272.27,49.75Zm-2.15-2.14h1.38a.66.66,0,0,1,.37.1.62.62,0,0,1,.25.28,1,1,0,0,1,.09.43,1,1,0,0,1-.09.43.71.71,0,0,1-.25.29.66.66,0,0,1-.37.1h-1.38Z"/><path class="cls-3" d="M276.82,49.44a4.76,4.76,0,0,0-.79-.23h-.14a5.66,5.66,0,0,1-.64-.15.87.87,0,0,1-.38-.23.57.57,0,0,1-.15-.42h0a.72.72,0,0,1,.3-.61,1.39,1.39,0,0,1,.83-.21,1.59,1.59,0,0,1,.6.11,2.24,2.24,0,0,1,.6.33l.42-.59a3.12,3.12,0,0,0-.53-.3,2.55,2.55,0,0,0-.53-.18,2.15,2.15,0,0,0-.56-.07,2.4,2.4,0,0,0-1,.19,1.31,1.31,0,0,0-.63.52,1.49,1.49,0,0,0-.22.83h0a1.44,1.44,0,0,0,.23.86,1.26,1.26,0,0,0,.57.41,6,6,0,0,0,.86.21h.1a3.68,3.68,0,0,1,.58.15.93.93,0,0,1,.37.23.68.68,0,0,1,.14.44h0a.67.67,0,0,1-.31.6,1.6,1.6,0,0,1-.89.21,2.2,2.2,0,0,1-.78-.13,1.86,1.86,0,0,1-.66-.39l-.46.57a2.9,2.9,0,0,0,.55.36,2.74,2.74,0,0,0,.63.21,3.38,3.38,0,0,0,.72.08,2.66,2.66,0,0,0,1-.18,1.45,1.45,0,0,0,.66-.52,1.39,1.39,0,0,0,.23-.82h0a1.4,1.4,0,0,0-.21-.82A1.25,1.25,0,0,0,276.82,49.44Z"/><path class="cls-3" d="M281.18,47.09a1.91,1.91,0,0,0-1-.24,1.94,1.94,0,0,0-1,.24,1.68,1.68,0,0,0-.64.68,2.13,2.13,0,0,0-.23,1v1.49a2.1,2.1,0,0,0,.23,1,1.68,1.68,0,0,0,.64.68,1.94,1.94,0,0,0,1,.24,1.91,1.91,0,0,0,1-.24,1.64,1.64,0,0,0,.65-.68,2.22,2.22,0,0,0,.23-1V48.79a2.25,2.25,0,0,0-.23-1A1.64,1.64,0,0,0,281.18,47.09Zm.12,3.21a1.39,1.39,0,0,1-.13.63,1,1,0,0,1-.38.41,1.18,1.18,0,0,1-1.15,0,1,1,0,0,1-.38-.41,1.39,1.39,0,0,1-.14-.63V48.77a1.39,1.39,0,0,1,.14-.63,1,1,0,0,1,.38-.41,1.18,1.18,0,0,1,1.15,0,1,1,0,0,1,.38.41,1.39,1.39,0,0,1,.13.63Z"/><polygon class="cls-3" points="286.33 50.83 283.85 46.91 283.18 46.91 283.18 52.16 283.91 52.16 283.91 48.29 286.38 52.16 287.06 52.16 287.06 46.91 286.33 46.91 286.33 50.83"/><path class="cls-3" d="M289.72,46.91l-1.94,5.25h.8L289,51h2.12l.4,1.15h.79l-1.93-5.25Zm-.51,3.4.82-2.39.82,2.39Z"/><polygon class="cls-3" points="293.82 46.91 293.08 46.91 293.08 52.16 293.45 52.16 293.82 52.16 296.45 52.16 296.45 51.46 293.82 51.46 293.82 46.91"/><path class="cls-3" d="M302.17,47.11a1.7,1.7,0,0,0-.83-.2h-2v5.25h.74v-2h1.29a1.7,1.7,0,0,0,.83-.19,1.37,1.37,0,0,0,.55-.57,1.63,1.63,0,0,0,.2-.84,1.7,1.7,0,0,0-.2-.85A1.35,1.35,0,0,0,302.17,47.11Zm-.1,1.88a.73.73,0,0,1-.7.43h-1.32V47.61h1.32a.82.82,0,0,1,.42.11.87.87,0,0,1,.28.32,1.21,1.21,0,0,1,.1.48A1.12,1.12,0,0,1,302.07,49Z"/><path class="cls-3" d="M306.55,47.09a2.08,2.08,0,0,0-1.94,0,1.7,1.7,0,0,0-.65.68,2.25,2.25,0,0,0-.23,1v1.49a2.22,2.22,0,0,0,.23,1,1.7,1.7,0,0,0,.65.68,2.08,2.08,0,0,0,1.94,0,1.7,1.7,0,0,0,.65-.68,2.22,2.22,0,0,0,.23-1V48.79a2.25,2.25,0,0,0-.23-1A1.7,1.7,0,0,0,306.55,47.09Zm.12,3.21a1.39,1.39,0,0,1-.13.63.91.91,0,0,1-.39.41,1.16,1.16,0,0,1-1.14,0,1,1,0,0,1-.39-.41,1.39,1.39,0,0,1-.13-.63V48.77a1.39,1.39,0,0,1,.13-.63,1,1,0,0,1,.39-.41,1.16,1.16,0,0,1,1.14,0,.91.91,0,0,1,.39.41,1.39,1.39,0,0,1,.13.63Z"/><polygon class="cls-3" points="307.9 47.61 309.38 47.61 309.38 52.16 310.12 52.16 310.12 47.61 311.6 47.61 311.6 46.91 307.9 46.91 307.9 47.61"/><polygon class="cls-3" points="312.68 46.91 312.33 46.91 312.33 52.16 312.68 52.16 313.06 52.16 315.7 52.16 315.7 51.46 313.06 51.46 313.06 49.9 315.3 49.9 315.3 49.2 313.06 49.2 313.06 47.61 315.7 47.61 315.7 46.91 313.06 46.91 312.68 46.91"/><polygon class="cls-3" points="319.9 50.83 317.42 46.91 316.75 46.91 316.75 52.16 317.48 52.16 317.48 48.29 319.95 52.16 320.63 52.16 320.63 46.91 319.9 46.91 319.9 50.83"/><polygon class="cls-3" points="321.5 47.61 322.98 47.61 322.98 52.16 323.72 52.16 323.72 47.61 325.2 47.61 325.2 46.91 321.5 46.91 321.5 47.61"/><rect class="cls-3" x="325.93" y="46.91" width="0.74" height="5.25"/><path class="cls-3" d="M329.32,46.91l-1.93,5.25h.79l.4-1.15h2.12l.39,1.15h.8L330,46.91Zm-.5,3.4.82-2.39.82,2.39Z"/><polygon class="cls-3" points="333.42 46.91 332.68 46.91 332.68 52.16 333.05 52.16 333.42 52.16 336.06 52.16 336.06 51.46 333.42 51.46 333.42 46.91"/><rect class="cls-3" x="338.91" y="46.91" width="0.74" height="5.25"/><polygon class="cls-3" points="344.1 50.83 341.62 46.91 340.95 46.91 340.95 52.16 341.68 52.16 341.68 48.29 344.15 52.16 344.83 52.16 344.83 46.91 344.1 46.91 344.1 50.83"/><polygon class="cls-3" points="350.92 49.07 350.2 49.07 350.2 50.67 348.74 50.67 350.46 46.91 349.7 46.91 347.94 50.72 347.94 51.36 350.2 51.36 350.2 52.17 350.92 52.17 350.92 51.36 351.32 51.36 351.32 50.67 350.92 50.67 350.92 49.07"/><rect class="cls-3" x="352.13" y="51.39" width="0.77" height="0.77"/><path class="cls-3" d="M355.18,46.84a1.48,1.48,0,0,0-1.12.4,1.51,1.51,0,0,0-.38,1.1v2.38a1.53,1.53,0,0,0,.38,1.1,1.46,1.46,0,0,0,1.12.4,1.44,1.44,0,0,0,1.11-.4,1.48,1.48,0,0,0,.39-1.1V48.34a1.54,1.54,0,0,0-.38-1.11A1.51,1.51,0,0,0,355.18,46.84Zm.76,3.88a.81.81,0,0,1-.19.59.71.71,0,0,1-.57.21.75.75,0,0,1-.58-.21.85.85,0,0,1-.18-.59V48.34a.85.85,0,0,1,.18-.59.73.73,0,0,1,.58-.21.75.75,0,0,1,.58.21.85.85,0,0,1,.18.59Z"/><polygon class="cls-3" points="360.21 46.91 359.86 46.91 359.86 52.16 360.21 52.16 360.59 52.16 363.23 52.16 363.23 51.46 360.59 51.46 360.59 49.9 362.83 49.9 362.83 49.2 360.59 49.2 360.59 47.61 363.23 47.61 363.23 46.91 360.59 46.91 360.21 46.91"/><path class="cls-3" d="M367.16,49.75a1.31,1.31,0,0,0,.54-.53,1.6,1.6,0,0,0,.19-.8,1.57,1.57,0,0,0-.19-.79,1.4,1.4,0,0,0-.54-.54,1.69,1.69,0,0,0-.8-.18h-2.08v5.25H365V49.94h1.09l1.13,2.22h.87l-1.22-2.31A1.08,1.08,0,0,0,367.16,49.75ZM365,47.61h1.37a.67.67,0,0,1,.38.1A.69.69,0,0,1,367,48a1,1,0,0,1,.09.43,1,1,0,0,1-.09.43.79.79,0,0,1-.25.29.7.7,0,0,1-.38.1H365Z"/><path class="cls-3" d="M372.12,52.16h.8L371,46.91h-.63l-1.93,5.25h.79l.4-1.15h2.12Zm-2.27-1.85.82-2.39.82,2.39Z"/><circle class="cls-3" cx="257.01" cy="49.53" r="1.75"/><polygon class="cls-3" points="142.55 58.84 142.19 58.84 142.19 64.1 142.55 64.1 142.93 64.1 145.57 64.1 145.57 63.4 142.93 63.4 142.93 61.84 145.17 61.84 145.17 61.14 142.93 61.14 142.93 59.55 145.57 59.55 145.57 58.84 142.93 58.84 142.55 58.84"/><polygon class="cls-3" points="149.76 62.77 147.28 58.84 146.61 58.84 146.61 64.09 147.34 64.09 147.34 60.23 149.82 64.09 150.5 64.09 150.5 58.84 149.76 58.84 149.76 62.77"/><polygon class="cls-3" points="151.36 59.55 152.85 59.55 152.85 64.1 153.58 64.1 153.58 59.55 155.07 59.55 155.07 58.84 151.36 58.84 151.36 59.55"/><path class="cls-3" d="M158.67,61.69a1.4,1.4,0,0,0,.54-.54,1.57,1.57,0,0,0,.19-.79,1.6,1.6,0,0,0-.19-.8,1.23,1.23,0,0,0-.53-.53,1.6,1.6,0,0,0-.8-.19h-2.09V64.1h.74V61.88h1.1l1.12,2.22h.87l-1.21-2.31Zm-2.14-2.15h1.38a.66.66,0,0,1,.37.1.65.65,0,0,1,.25.29,1,1,0,0,1,.09.43,1,1,0,0,1-.09.43.62.62,0,0,1-.25.28.66.66,0,0,1-.37.1h-1.38Z"/><polygon class="cls-3" points="160.97 58.84 160.62 58.84 160.62 64.1 160.97 64.1 161.35 64.1 163.99 64.1 163.99 63.4 161.35 63.4 161.35 61.84 163.59 61.84 163.59 61.14 161.35 61.14 161.35 59.55 163.99 59.55 163.99 58.84 161.35 58.84 160.97 58.84"/><path class="cls-3" d="M167.9,59a1.7,1.7,0,0,0-.83-.2h-2V64.1h.73v-2h1.3a1.7,1.7,0,0,0,.83-.2,1.35,1.35,0,0,0,.55-.56,1.89,1.89,0,0,0,0-1.69A1.44,1.44,0,0,0,167.9,59Zm-.1,1.89a.8.8,0,0,1-.28.32.82.82,0,0,1-.42.11h-1.33V59.54h1.33a.76.76,0,0,1,.7.44,1.17,1.17,0,0,1,.1.48A1.2,1.2,0,0,1,167.8,60.93Z"/><path class="cls-3" d="M172.45,61.69a1.4,1.4,0,0,0,.54-.54,1.57,1.57,0,0,0,.19-.79,1.6,1.6,0,0,0-.19-.8,1.23,1.23,0,0,0-.53-.53,1.6,1.6,0,0,0-.8-.19h-2.09V64.1h.74V61.88h1.1l1.12,2.22h.87l-1.21-2.31Zm-2.14-2.15h1.38a.66.66,0,0,1,.37.1.65.65,0,0,1,.25.29,1,1,0,0,1,.09.43,1,1,0,0,1-.09.43.62.62,0,0,1-.25.28.66.66,0,0,1-.37.1h-1.38Z"/><polygon class="cls-3" points="174.75 58.84 174.4 58.84 174.4 64.1 174.75 64.1 175.13 64.1 177.77 64.1 177.77 63.4 175.13 63.4 175.13 61.84 177.37 61.84 177.37 61.14 175.13 61.14 175.13 59.55 177.77 59.55 177.77 58.84 175.13 58.84 174.75 58.84"/><polygon class="cls-3" points="181.97 62.77 179.49 58.84 178.82 58.84 178.82 64.09 179.55 64.09 179.55 60.23 182.02 64.09 182.7 64.09 182.7 58.84 181.97 58.84 181.97 62.77"/><polygon class="cls-3" points="184.36 58.84 184 58.84 184 64.1 184.36 64.1 184.74 64.1 187.37 64.1 187.37 63.4 184.74 63.4 184.74 61.84 186.98 61.84 186.98 61.14 184.74 61.14 184.74 59.55 187.37 59.55 187.37 58.84 184.74 58.84 184.36 58.84"/><path class="cls-3" d="M191.31,62.22a1.23,1.23,0,0,1-.3.89,1.2,1.2,0,0,1-1.63,0,1.23,1.23,0,0,1-.29-.89V58.84h-.74V62.2a2.26,2.26,0,0,0,.22,1,1.42,1.42,0,0,0,.63.67,2,2,0,0,0,1,.23,2.05,2.05,0,0,0,1-.23,1.48,1.48,0,0,0,.64-.67,2.4,2.4,0,0,0,.21-1V58.84h-.73Z"/><path class="cls-3" d="M196.08,61.69a1.4,1.4,0,0,0,.54-.54,1.68,1.68,0,0,0,.19-.79,1.72,1.72,0,0,0-.19-.8,1.31,1.31,0,0,0-.54-.53,1.58,1.58,0,0,0-.8-.19H193.2V64.1h.74V61.88H195l1.12,2.22H197l-1.22-2.31A2.15,2.15,0,0,0,196.08,61.69Zm-2.14-2.15h1.37a.7.7,0,0,1,.38.1.72.72,0,0,1,.25.29,1.14,1.14,0,0,1,.08.43,1.18,1.18,0,0,1-.08.43.69.69,0,0,1-.63.38h-1.37Z"/><rect class="cls-3" x="198.02" y="58.84" width="0.74" height="5.25"/><path class="cls-3" d="M201.42,58.84l-1.94,5.26h.8l.39-1.16h2.12l.4,1.16H204l-1.93-5.26Zm-.51,3.4.82-2.38.82,2.38Z"/><polygon class="cls-3" points="205.52 58.84 204.78 58.84 204.78 64.1 205.15 64.1 205.52 64.1 208.15 64.1 208.15 63.4 205.52 63.4 205.52 58.84"/><path class="cls-3" d="M213.89,61.69a1.4,1.4,0,0,0,.54-.54,1.68,1.68,0,0,0,.19-.79,1.72,1.72,0,0,0-.19-.8,1.31,1.31,0,0,0-.54-.53,1.58,1.58,0,0,0-.8-.19H211V64.1h.73V61.88h1.1L214,64.1h.88l-1.22-2.31A2.15,2.15,0,0,0,213.89,61.69Zm-2.15-2.15h1.38a.7.7,0,0,1,.38.1.63.63,0,0,1,.24.29,1,1,0,0,1,.09.43,1,1,0,0,1-.09.43.57.57,0,0,1-.25.28.64.64,0,0,1-.37.1h-1.38Z"/><polygon class="cls-3" points="216.19 58.84 215.83 58.84 215.83 64.1 216.19 64.1 216.57 64.1 219.21 64.1 219.21 63.4 216.57 63.4 216.57 61.84 218.81 61.84 218.81 61.14 216.57 61.14 216.57 59.55 219.21 59.55 219.21 58.84 216.57 58.84 216.19 58.84"/><path class="cls-3" d="M221.68,58.84l-1.93,5.26h.79l.4-1.16h2.12l.39,1.16h.8l-1.94-5.26Zm-.5,3.4.82-2.38.82,2.38Z"/><path class="cls-3" d="M227.79,59.06a2.53,2.53,0,0,0-1.08-.22H225V64.1h1.67a2.53,2.53,0,0,0,1.08-.22,1.48,1.48,0,0,0,.68-.65,2,2,0,0,0,.24-1V60.73a2,2,0,0,0-.24-1A1.53,1.53,0,0,0,227.79,59.06Zm.16,3.18a1.08,1.08,0,0,1-.32.85,1.22,1.22,0,0,1-.9.31h-.95V59.54h.95a1.22,1.22,0,0,1,.9.31,1.08,1.08,0,0,1,.32.85Z"/><rect class="cls-3" x="229.83" y="58.84" width="0.74" height="5.25"/><polygon class="cls-3" points="235.02 62.77 232.53 58.84 231.87 58.84 231.87 64.09 232.6 64.09 232.6 60.23 235.07 64.09 235.75 64.09 235.75 58.84 235.02 58.84 235.02 62.77"/><polygon class="cls-3" points="237.41 58.84 237.05 58.84 237.05 64.1 237.41 64.1 237.78 64.1 240.42 64.1 240.42 63.4 237.78 63.4 237.78 61.84 240.03 61.84 240.03 61.14 237.78 61.14 237.78 59.55 240.42 59.55 240.42 58.84 237.78 58.84 237.41 58.84"/><path class="cls-3" d="M244.23,61.38a3.88,3.88,0,0,0-.8-.23h-.13a5.17,5.17,0,0,1-.64-.15,1,1,0,0,1-.38-.23.61.61,0,0,1-.16-.43h0a.69.69,0,0,1,.3-.61,1.38,1.38,0,0,1,.84-.22,1.81,1.81,0,0,1,.6.11,2.92,2.92,0,0,1,.59.33l.42-.58a3.1,3.1,0,0,0-.52-.31,2.63,2.63,0,0,0-.54-.18,2.51,2.51,0,0,0-.55-.06,2.57,2.57,0,0,0-1,.18,1.4,1.4,0,0,0-.64.53,1.55,1.55,0,0,0-.22.83h0a1.35,1.35,0,0,0,.24.86,1.26,1.26,0,0,0,.56.42,6.56,6.56,0,0,0,.86.2h.1a4,4,0,0,1,.59.14.85.85,0,0,1,.37.24.65.65,0,0,1,.14.43h0a.69.69,0,0,1-.32.6,1.57,1.57,0,0,1-.88.21,2.56,2.56,0,0,1-.79-.13,2.21,2.21,0,0,1-.66-.39l-.46.56a2.42,2.42,0,0,0,.56.36,2.47,2.47,0,0,0,.63.22,3.38,3.38,0,0,0,.72.07,2.69,2.69,0,0,0,1-.18,1.39,1.39,0,0,0,.66-.52,1.46,1.46,0,0,0,.23-.82h0a1.32,1.32,0,0,0-.22-.81A1.22,1.22,0,0,0,244.23,61.38Z"/><path class="cls-3" d="M249.18,61.81a1.31,1.31,0,0,0-.54-.43,3.88,3.88,0,0,0-.8-.23h-.13a5.66,5.66,0,0,1-.64-.15,1,1,0,0,1-.38-.23.61.61,0,0,1-.15-.43h0a.71.71,0,0,1,.29-.61,1.38,1.38,0,0,1,.84-.22,1.81,1.81,0,0,1,.6.11,3,3,0,0,1,.6.33l.42-.58a3.64,3.64,0,0,0-.53-.31,2.45,2.45,0,0,0-.54-.18,2.51,2.51,0,0,0-.55-.06,2.57,2.57,0,0,0-1,.18,1.4,1.4,0,0,0-.64.53,1.55,1.55,0,0,0-.21.83h0a1.35,1.35,0,0,0,.23.86,1.29,1.29,0,0,0,.57.42,6.37,6.37,0,0,0,.85.2h.11a4.13,4.13,0,0,1,.58.14.85.85,0,0,1,.37.24.65.65,0,0,1,.14.43h0a.69.69,0,0,1-.31.6,1.6,1.6,0,0,1-.89.21,2.45,2.45,0,0,1-.78-.13,2.21,2.21,0,0,1-.66-.39l-.46.56a2.17,2.17,0,0,0,.55.36,2.61,2.61,0,0,0,.63.22,3.38,3.38,0,0,0,.72.07,2.66,2.66,0,0,0,1-.18,1.39,1.39,0,0,0,.66-.52,1.46,1.46,0,0,0,.23-.82h0A1.39,1.39,0,0,0,249.18,61.81Z"/><circle class="cls-3" cx="138.8" cy="61.47" r="1.75"/><circle class="cls-3" cx="257.01" cy="61.47" r="1.75"/><path class="cls-3" d="M263.34,59a1.74,1.74,0,0,0-.84-.2h-2.07V64.1h.86v-2h1.21a1.74,1.74,0,0,0,.84-.2,1.34,1.34,0,0,0,.57-.56,1.89,1.89,0,0,0,0-1.69A1.42,1.42,0,0,0,263.34,59Zm-.2,1.82a.64.64,0,0,1-.62.37h-1.23V59.67h1.23a.64.64,0,0,1,.37.1.65.65,0,0,1,.25.27,1.08,1.08,0,0,1,.08.42A1,1,0,0,1,263.14,60.86Z"/><path class="cls-3" d="M267.72,59a2.14,2.14,0,0,0-2,0,1.66,1.66,0,0,0-.66.68,2.08,2.08,0,0,0-.24,1v1.48a2.08,2.08,0,0,0,.24,1,1.66,1.66,0,0,0,.66.68,2.14,2.14,0,0,0,2,0,1.6,1.6,0,0,0,.66-.68,2.08,2.08,0,0,0,.24-1V60.73a2.08,2.08,0,0,0-.24-1A1.6,1.6,0,0,0,267.72,59Zm0,3.21a1.2,1.2,0,0,1-.12.55,1,1,0,0,1-.35.38,1.13,1.13,0,0,1-1.05,0,1,1,0,0,1-.35-.38,1.2,1.2,0,0,1-.12-.55V60.7a1.2,1.2,0,0,1,.12-.55.9.9,0,0,1,.35-.37,1,1,0,0,1,.53-.13,1,1,0,0,1,.52.13.9.9,0,0,1,.35.37,1.2,1.2,0,0,1,.12.55Z"/><polygon class="cls-3" points="269.01 59.67 270.48 59.67 270.48 64.1 271.33 64.1 271.33 59.67 272.8 59.67 272.8 58.84 269.01 58.84 269.01 59.67"/><polygon class="cls-3" points="273.8 58.84 273.44 58.84 273.44 64.1 273.8 64.1 274.31 64.1 276.89 64.1 276.89 63.27 274.31 63.27 274.31 61.9 276.49 61.9 276.49 61.08 274.31 61.08 274.31 59.67 276.89 59.67 276.89 58.84 274.31 58.84 273.8 58.84"/><polygon class="cls-3" points="280.98 62.73 278.81 58.84 277.87 58.84 277.87 64.09 278.71 64.09 278.71 60.27 280.87 64.09 281.82 64.09 281.82 58.84 280.98 58.84 280.98 62.73"/><polygon class="cls-3" points="282.62 59.67 284.07 59.67 284.07 64.1 284.93 64.1 284.93 59.67 286.39 59.67 286.39 58.84 282.62 58.84 282.62 59.67"/><rect class="cls-3" x="287.01" y="58.84" width="0.88" height="5.25"/><path class="cls-3" d="M290.48,58.84l-2,5.26h.93l.35-1h2l.35,1h.93l-2-5.26Zm-.41,3.43.72-2.09.73,2.09Z"/><polygon class="cls-3" points="294.66 58.84 293.8 58.84 293.8 64.1 294.2 64.1 294.66 64.1 297.25 64.1 297.25 63.27 294.66 63.27 294.66 58.84"/><path class="cls-3" d="M302.83,59.06a2.6,2.6,0,0,0-1.1-.22H300V64.1h1.7a2.53,2.53,0,0,0,1.11-.23,1.61,1.61,0,0,0,.69-.65,2,2,0,0,0,.24-1V60.73a2,2,0,0,0-.24-1A1.58,1.58,0,0,0,302.83,59.06Zm.05,3.18a1,1,0,0,1-.3.76,1.17,1.17,0,0,1-.83.27h-.86v-3.6h.86a1.17,1.17,0,0,1,.83.27,1,1,0,0,1,.3.76Z"/><polygon class="cls-3" points="305.17 58.84 304.81 58.84 304.81 64.1 305.17 64.1 305.68 64.1 308.26 64.1 308.26 63.27 305.68 63.27 305.68 61.9 307.86 61.9 307.86 61.08 305.68 61.08 305.68 59.67 308.26 59.67 308.26 58.84 305.68 58.84 305.17 58.84"/><path class="cls-3" d="M312.05,61.32a4.83,4.83,0,0,0-.82-.24h-.13l-.59-.14a.84.84,0,0,1-.35-.22.49.49,0,0,1-.14-.39h0a.59.59,0,0,1,.27-.52,1.39,1.39,0,0,1,.77-.18,1.92,1.92,0,0,1,.61.11,2.86,2.86,0,0,1,.62.33l.42-.71a3.12,3.12,0,0,0-.53-.3,4,4,0,0,0-.55-.19,2.76,2.76,0,0,0-.57-.06,2.67,2.67,0,0,0-1,.18,1.52,1.52,0,0,0-.65.54,1.56,1.56,0,0,0-.22.85h0a1.41,1.41,0,0,0,.24.87,1.28,1.28,0,0,0,.58.43,5.26,5.26,0,0,0,.86.2H311l.54.12a.89.89,0,0,1,.34.21.56.56,0,0,1,.13.39h0a.6.6,0,0,1-.29.53,1.49,1.49,0,0,1-.82.19,2.36,2.36,0,0,1-.8-.13,2.19,2.19,0,0,1-.68-.39l-.46.69a3,3,0,0,0,.56.36,2.77,2.77,0,0,0,.65.22,3.48,3.48,0,0,0,.73.07,2.8,2.8,0,0,0,1.06-.18,1.39,1.39,0,0,0,.67-.53,1.49,1.49,0,0,0,.24-.85h0a1.43,1.43,0,0,0-.22-.83A1.3,1.3,0,0,0,312.05,61.32Z"/><polygon class="cls-3" points="313.07 59.67 314.53 59.67 314.53 64.1 315.39 64.1 315.39 59.67 316.85 59.67 316.85 58.84 313.07 58.84 313.07 59.67"/><path class="cls-3" d="M320.47,61.74a1.29,1.29,0,0,0,.52-.54,1.84,1.84,0,0,0,0-1.63,1.29,1.29,0,0,0-.52-.54,1.5,1.5,0,0,0-.78-.19H317.5V64.1h.86V61.93h.85l1.15,2.17h1l-1.24-2.24A1.43,1.43,0,0,0,320.47,61.74Zm-2.11-2.07h1.31a.57.57,0,0,1,.32.09.58.58,0,0,1,.21.25.75.75,0,0,1,.08.37.89.89,0,0,1-.08.38A.58.58,0,0,1,320,61a.59.59,0,0,1-.32.09h-1.31Z"/><path class="cls-3" d="M325,62.22a1.12,1.12,0,0,1-.27.8,1.16,1.16,0,0,1-1.51,0,1.17,1.17,0,0,1-.26-.8V58.84h-.86V62.2a2.26,2.26,0,0,0,.22,1,1.44,1.44,0,0,0,.64.67,2.35,2.35,0,0,0,2,0,1.51,1.51,0,0,0,.65-.67,2.26,2.26,0,0,0,.22-1V58.84H325Z"/><path class="cls-3" d="M327.78,60.16a.9.9,0,0,1,.34-.38,1,1,0,0,1,.52-.14.92.92,0,0,1,.41.1,1.17,1.17,0,0,1,.34.29,1.32,1.32,0,0,1,.2.45h.89a2.41,2.41,0,0,0-.34-.9,1.8,1.8,0,0,0-.64-.59,1.91,1.91,0,0,0-.86-.2,2,2,0,0,0-1,.24,1.58,1.58,0,0,0-.65.68,2.25,2.25,0,0,0-.23,1v1.44a2.29,2.29,0,0,0,.23,1.05,1.56,1.56,0,0,0,.65.67,2,2,0,0,0,1,.24,1.84,1.84,0,0,0,.85-.2,1.78,1.78,0,0,0,.64-.58,2.37,2.37,0,0,0,.35-.91h-.89a1.13,1.13,0,0,1-.2.46.88.88,0,0,1-.33.28.87.87,0,0,1-.42.1,1.05,1.05,0,0,1-.52-.13.87.87,0,0,1-.34-.39,1.32,1.32,0,0,1-.12-.59V60.75A1.38,1.38,0,0,1,327.78,60.16Z"/><polygon class="cls-3" points="330.74 59.67 332.2 59.67 332.2 64.1 333.06 64.1 333.06 59.67 334.52 59.67 334.52 58.84 330.74 58.84 330.74 59.67"/><rect class="cls-3" x="335.13" y="58.84" width="0.88" height="5.25"/><polygon class="cls-3" points="338.91 62.66 337.72 58.84 336.81 58.84 338.54 64.1 339.27 64.1 341 58.84 340.09 58.84 338.91 62.66"/><polygon class="cls-3" points="342.08 58.84 341.73 58.84 341.73 64.1 342.08 64.1 342.59 64.1 345.17 64.1 345.17 63.27 342.59 63.27 342.59 61.9 344.78 61.9 344.78 61.08 342.59 61.08 342.59 59.67 345.17 59.67 345.17 58.84 342.59 58.84 342.08 58.84"/><polygon class="cls-3" points="347.41 59.67 348.87 59.67 348.87 64.1 349.73 64.1 349.73 59.67 351.19 59.67 351.19 58.84 347.41 58.84 347.41 59.67"/><path class="cls-3" d="M354.82,61.74a1.35,1.35,0,0,0,.52-.54,1.84,1.84,0,0,0,0-1.63,1.35,1.35,0,0,0-.52-.54,1.55,1.55,0,0,0-.78-.19h-2.2V64.1h.87V61.93h.85l1.15,2.17h1l-1.24-2.24A1.66,1.66,0,0,0,354.82,61.74Zm-2.11-2.07H354a.57.57,0,0,1,.32.09.54.54,0,0,1,.22.25.87.87,0,0,1,.08.37,1.07,1.07,0,0,1-.08.38.6.6,0,0,1-.22.25.57.57,0,0,1-.32.09h-1.3Z"/><path class="cls-3" d="M358,58.84l-2,5.26h.93l.35-1h2l.35,1h.92l-2-5.26Zm-.41,3.43.73-2.09.72,2.09Z"/><rect class="cls-3" x="361.24" y="58.84" width="0.88" height="5.25"/><polygon class="cls-3" points="362.88 59.67 364.34 59.67 364.34 64.1 365.2 64.1 365.2 59.67 366.66 59.67 366.66 58.84 362.88 58.84 362.88 59.67"/><path class="cls-3" d="M370.53,61.76a1.3,1.3,0,0,0-.55-.44,4.83,4.83,0,0,0-.82-.24H369l-.59-.14a.84.84,0,0,1-.35-.22.49.49,0,0,1-.14-.39h0a.59.59,0,0,1,.27-.52,1.39,1.39,0,0,1,.77-.18,2,2,0,0,1,.62.11,3,3,0,0,1,.61.33l.42-.71a3.12,3.12,0,0,0-.53-.3,3.58,3.58,0,0,0-.55-.19,2.76,2.76,0,0,0-.57-.06,2.59,2.59,0,0,0-1,.18,1.49,1.49,0,0,0-.66.54,1.65,1.65,0,0,0-.22.85h0a1.41,1.41,0,0,0,.24.87,1.28,1.28,0,0,0,.58.43,5.26,5.26,0,0,0,.86.2h.11l.54.12a.89.89,0,0,1,.34.21.56.56,0,0,1,.13.39h0a.6.6,0,0,1-.29.53,1.46,1.46,0,0,1-.82.19,2.36,2.36,0,0,1-.8-.13,2.19,2.19,0,0,1-.68-.39l-.46.69a3,3,0,0,0,.56.36,2.77,2.77,0,0,0,.65.22,3.54,3.54,0,0,0,.73.07,2.76,2.76,0,0,0,1.06-.18,1.46,1.46,0,0,0,.68-.53,1.56,1.56,0,0,0,.23-.85h0A1.43,1.43,0,0,0,370.53,61.76Z"/><polygon class="cls-3" points="138.48 24.58 136.79 20.95 136.04 20.95 136.04 26.45 136.83 26.45 136.83 22.73 138.2 25.69 138.76 25.69 140.13 22.66 140.13 26.45 140.92 26.45 140.92 20.95 140.17 20.95 138.48 24.58"/><path class="cls-3" d="M144.75,22.66a2,2,0,0,0-.91-.2,2,2,0,0,0-.92.2,1.39,1.39,0,0,0-.57.58,1.89,1.89,0,0,0-.2.92v.64a1.87,1.87,0,0,0,.2.92,1.3,1.3,0,0,0,.57.59,2,2,0,0,0,.92.2,2,2,0,0,0,.91-.2,1.41,1.41,0,0,0,.58-.58,2,2,0,0,0,.2-.92v-.65a2,2,0,0,0-.2-.92A1.47,1.47,0,0,0,144.75,22.66Zm0,2.15a1,1,0,0,1-.23.71.82.82,0,0,1-.65.25.85.85,0,0,1-.66-.25,1,1,0,0,1-.23-.71v-.65a1,1,0,0,1,.23-.71.85.85,0,0,1,.66-.25.82.82,0,0,1,.65.25,1,1,0,0,1,.23.71Z"/><path class="cls-3" d="M148.55,22.46a1.19,1.19,0,0,0-.66.2,1.21,1.21,0,0,0-.41.43v-.57h-.81v3.93h.81V24a.75.75,0,0,1,.21-.56.84.84,0,0,1,.59-.2,1.08,1.08,0,0,1,.38.06.77.77,0,0,1,.27.19l.52-.68a1.09,1.09,0,0,0-.39-.23A1.65,1.65,0,0,0,148.55,22.46Z"/><path class="cls-3" d="M152.53,22.71a1.55,1.55,0,0,0-.88-.25,1.94,1.94,0,0,0-.93.22,1.39,1.39,0,0,0-.59.63,2.18,2.18,0,0,0-.2,1v.44a2.06,2.06,0,0,0,.21,1,1.41,1.41,0,0,0,.61.6,2.24,2.24,0,0,0,1,.2,2.11,2.11,0,0,0,.77-.15,2.34,2.34,0,0,0,.68-.44l-.53-.5a1.45,1.45,0,0,1-.43.26,1.37,1.37,0,0,1-.49.09,1,1,0,0,1-.76-.26,1,1,0,0,1-.26-.71h2.58v-.26a2.91,2.91,0,0,0-.2-1.12A1.47,1.47,0,0,0,152.53,22.71Zm-1.83,1.47a1.2,1.2,0,0,1,.24-.73.91.91,0,0,1,.71-.29.74.74,0,0,1,.6.27,1.27,1.27,0,0,1,.26.75Z"/><path class="cls-3" d="M158.43,22.46a1.19,1.19,0,0,0-.66.2,1.21,1.21,0,0,0-.41.43v-.57h-.81v3.93h.81V24a.75.75,0,0,1,.21-.56.85.85,0,0,1,.6-.2,1.06,1.06,0,0,1,.37.06.77.77,0,0,1,.27.19l.53-.68a1.23,1.23,0,0,0-.4-.23A1.6,1.6,0,0,0,158.43,22.46Z"/><path class="cls-3" d="M162.41,22.71a1.55,1.55,0,0,0-.88-.25,1.94,1.94,0,0,0-.93.22,1.44,1.44,0,0,0-.59.63,2.31,2.31,0,0,0-.2,1v.44a2.06,2.06,0,0,0,.21,1,1.47,1.47,0,0,0,.61.6,2.25,2.25,0,0,0,1,.2,2.06,2.06,0,0,0,.76-.15,2.34,2.34,0,0,0,.68-.44l-.53-.5a1.34,1.34,0,0,1-.43.26,1.36,1.36,0,0,1-.48.09,1,1,0,0,1-.77-.26,1,1,0,0,1-.26-.71h2.58v-.26a2.92,2.92,0,0,0-.19-1.12A1.55,1.55,0,0,0,162.41,22.71Zm-1.82,1.47a1.08,1.08,0,0,1,.24-.73.88.88,0,0,1,.7-.29.73.73,0,0,1,.6.27,1.27,1.27,0,0,1,.26.75Z"/><path class="cls-3" d="M166.89,22.65a1.49,1.49,0,0,0-.75-.19,1.3,1.3,0,0,0-.67.19,1.42,1.42,0,0,0-.4.41v-.54h-.8v5.53h.8V25.93a1.07,1.07,0,0,0,.36.4,1.24,1.24,0,0,0,.67.18,1.47,1.47,0,0,0,.77-.19,1.15,1.15,0,0,0,.48-.54,1.89,1.89,0,0,0,.17-.86v-.85a2.08,2.08,0,0,0-.16-.87A1.27,1.27,0,0,0,166.89,22.65Zm-.18,2.27a.91.91,0,0,1-.22.66.81.81,0,0,1-.61.23,1,1,0,0,1-.44-.09.66.66,0,0,1-.27-.28.81.81,0,0,1-.1-.43V23.94a.82.82,0,0,1,.1-.42.59.59,0,0,1,.27-.27,1,1,0,0,1,.44-.09.78.78,0,0,1,.61.24.93.93,0,0,1,.22.67Z"/><path class="cls-3" d="M171.15,22.66a2,2,0,0,0-.91-.2,2,2,0,0,0-.92.2,1.39,1.39,0,0,0-.57.58,1.89,1.89,0,0,0-.2.92v.64a1.87,1.87,0,0,0,.2.92,1.3,1.3,0,0,0,.57.59,2,2,0,0,0,.92.2,2,2,0,0,0,.91-.2,1.41,1.41,0,0,0,.58-.58,2,2,0,0,0,.2-.92v-.65a2,2,0,0,0-.2-.92A1.47,1.47,0,0,0,171.15,22.66Zm0,2.15a1,1,0,0,1-.23.71.82.82,0,0,1-.65.25.86.86,0,0,1-.66-.25,1,1,0,0,1-.23-.71v-.65a1,1,0,0,1,.23-.71.86.86,0,0,1,.66-.25.82.82,0,0,1,.65.25,1,1,0,0,1,.23.71Z"/><path class="cls-3" d="M175,22.46a1.19,1.19,0,0,0-.66.2,1.21,1.21,0,0,0-.41.43v-.57h-.81v3.93h.81V24a.75.75,0,0,1,.21-.56.84.84,0,0,1,.59-.2,1.08,1.08,0,0,1,.38.06.77.77,0,0,1,.27.19l.52-.68a1.09,1.09,0,0,0-.39-.23A1.65,1.65,0,0,0,175,22.46Z"/><path class="cls-3" d="M177.44,21.38h-.81v1.14h-.42v.7h.42v2.21a1.19,1.19,0,0,0,.23.78,1,1,0,0,0,.73.26h.47v-.73h-.39a.2.2,0,0,1-.17-.08.36.36,0,0,1-.06-.22V23.22h.62v-.7h-.62Z"/><path class="cls-3" d="M181.62,24.21a3,3,0,0,0-.73-.11h-.15l-.51-.05a.59.59,0,0,1-.29-.11.26.26,0,0,1-.12-.24.47.47,0,0,1,.2-.4,1.17,1.17,0,0,1,.62-.13,2,2,0,0,1,.58.09,2.59,2.59,0,0,1,.61.29l.49-.57a3.22,3.22,0,0,0-.51-.28,2.78,2.78,0,0,0-.56-.17,3,3,0,0,0-.61-.06,2.46,2.46,0,0,0-.88.14,1.07,1.07,0,0,0-.53.42,1.22,1.22,0,0,0-.18.69.94.94,0,0,0,.19.64.85.85,0,0,0,.46.3,2.88,2.88,0,0,0,.67.12h.2l.54.06a.81.81,0,0,1,.33.12.34.34,0,0,1,.13.29.45.45,0,0,1-.24.42,1.38,1.38,0,0,1-.72.15,1.63,1.63,0,0,1-.64-.13,2.69,2.69,0,0,1-.66-.36l-.48.57a2.37,2.37,0,0,0,1.1.54,3,3,0,0,0,.68.07,2.87,2.87,0,0,0,1-.14,1,1,0,0,0,.57-.42,1.18,1.18,0,0,0,.19-.7,1.11,1.11,0,0,0-.2-.71A1,1,0,0,0,181.62,24.21Z"/><path class="cls-3" d="M185.9,21.21a1.06,1.06,0,0,0-.25.78v.53h-.44v.66h.44v3.27h.8V23.18h.81v-.66h-.81V22a.38.38,0,0,1,.06-.22.22.22,0,0,1,.18-.08h.57v-.74h-.59A1,1,0,0,0,185.9,21.21Z"/><path class="cls-3" d="M189.81,22.46a1.19,1.19,0,0,0-.66.2,1.41,1.41,0,0,0-.41.43v-.57h-.8v3.93h.8V24a.75.75,0,0,1,.21-.56.85.85,0,0,1,.6-.2,1.06,1.06,0,0,1,.37.06.77.77,0,0,1,.27.19l.53-.68a1.23,1.23,0,0,0-.4-.23A1.6,1.6,0,0,0,189.81,22.46Z"/><path class="cls-3" d="M193.79,22.66a2.17,2.17,0,0,0-1.82,0,1.41,1.41,0,0,0-.58.58,2,2,0,0,0-.2.92v.64a2,2,0,0,0,.2.92,1.32,1.32,0,0,0,.58.59,2.17,2.17,0,0,0,1.82,0,1.35,1.35,0,0,0,.58-.58,2,2,0,0,0,.2-.92v-.65a2,2,0,0,0-.2-.92A1.41,1.41,0,0,0,193.79,22.66Zm0,2.15a1,1,0,0,1-.24.71,1,1,0,0,1-1.3,0,1,1,0,0,1-.23-.71v-.65a1,1,0,0,1,.23-.71,1,1,0,0,1,1.3,0,1,1,0,0,1,.24.71Z"/><path class="cls-3" d="M200.78,22.65a1.5,1.5,0,0,0-.76-.19,1.26,1.26,0,0,0-.7.22,1.53,1.53,0,0,0-.49.57s0,0,0-.05a1.19,1.19,0,0,0-.46-.55,1.45,1.45,0,0,0-.74-.19,1.22,1.22,0,0,0-.67.2,1.33,1.33,0,0,0-.42.43v-.57h-.8v3.93h.8V24a.7.7,0,0,1,.22-.56.88.88,0,0,1,.61-.2.75.75,0,0,1,.6.23.86.86,0,0,1,.22.64v2.38h.8V24a.85.85,0,0,1,.21-.62.73.73,0,0,1,.58-.22.82.82,0,0,1,.63.23.86.86,0,0,1,.23.64v2.38h.8V24.07a2.08,2.08,0,0,0-.16-.87A1.23,1.23,0,0,0,200.78,22.65Z"/><path class="cls-3" d="M205.75,22.26a1.05,1.05,0,0,1,.41-.45,1.15,1.15,0,0,1,.62-.17,1.24,1.24,0,0,1,.49.11,1.53,1.53,0,0,1,.41.31,1.22,1.22,0,0,1,.25.46h.83a2.2,2.2,0,0,0-.38-.85,2,2,0,0,0-.7-.58,2,2,0,0,0-.9-.2,2.09,2.09,0,0,0-1.05.25,1.76,1.76,0,0,0-.7.73,2.2,2.2,0,0,0-.25,1.07v1.52a2.21,2.21,0,0,0,.25,1.08,1.74,1.74,0,0,0,.7.72,2.09,2.09,0,0,0,1.05.25,2.12,2.12,0,0,0,.9-.2,2,2,0,0,0,.7-.58,2.17,2.17,0,0,0,.38-.86h-.83a1.1,1.1,0,0,1-.25.48,1.17,1.17,0,0,1-.41.3,1.21,1.21,0,0,1-.49.11,1.15,1.15,0,0,1-.62-.17,1,1,0,0,1-.41-.45,1.51,1.51,0,0,1-.15-.68V22.94A1.48,1.48,0,0,1,205.75,22.26Z"/><path class="cls-3" d="M211.23,20.94l-2.12,5.51H210l.43-1.21h2.32l.43,1.21H214l-2.11-5.51Zm-.55,3.57.89-2.5.9,2.5Z"/><polygon class="cls-3" points="216.21 25.26 214.83 20.95 213.95 20.95 215.82 26.45 216.59 26.45 218.46 20.95 217.59 20.95 216.21 25.26"/><polygon class="cls-3" points="220.14 20.95 219.33 20.95 219.33 26.45 219.74 26.45 220.14 26.45 223.02 26.45 223.02 25.72 220.14 25.72 220.14 20.95"/><polygon class="cls-3" points="224.36 20.95 223.97 20.95 223.97 26.45 224.36 26.45 224.78 26.45 227.66 26.45 227.66 25.72 224.78 25.72 224.78 24.09 227.22 24.09 227.22 23.35 224.78 23.35 224.78 21.68 227.66 21.68 227.66 20.95 224.78 20.95 224.36 20.95"/><polygon class="cls-3" points="232.25 25.06 229.53 20.95 228.8 20.95 228.8 26.45 229.6 26.45 229.6 22.4 232.31 26.45 233.05 26.45 233.05 20.95 232.25 20.95 232.25 25.06"/><polygon class="cls-3" points="238.05 20.95 234 20.95 234 21.68 235.62 21.68 235.62 26.45 236.42 26.45 236.42 21.68 238.05 21.68 238.05 20.95"/><path class="cls-3" d="M403.11,56.1a.54.54,0,0,1-.1-.35V48.68h-1.22v7.06a1.79,1.79,0,0,0,.38,1.21,1.36,1.36,0,0,0,1.07.42H404V56.22h-.57A.34.34,0,0,1,403.11,56.1Z"/><rect class="cls-3" x="405.33" y="51.16" width="1.22" height="6.19"/><rect class="cls-3" x="405.33" y="48.68" width="1.22" height="1.22"/><path class="cls-3" d="M411.25,51.07a1.84,1.84,0,0,0-1,.3,2.14,2.14,0,0,0-.62.68v-.89h-1.22v6.18h1.22V53.43a1.21,1.21,0,0,1,.32-.89,1.29,1.29,0,0,1,.92-.32,1.27,1.27,0,0,1,1,.36,1.4,1.4,0,0,1,.34,1v3.75h1.21V53.59a2.81,2.81,0,0,0-.55-1.86A1.9,1.9,0,0,0,411.25,51.07Z"/><polygon class="cls-3" points="420.35 51.16 418.92 51.16 416.43 54.16 416.43 48.68 415.21 48.68 415.21 57.34 416.43 57.34 416.43 55.57 417.52 54.34 419.33 57.34 420.65 57.34 418.28 53.49 420.35 51.16"/><path class="cls-3" d="M423.05,49.36h-1.22v1.8h-.64v1.09h.64v3.49a1.87,1.87,0,0,0,.35,1.22,1.34,1.34,0,0,0,1.1.41h.7V56.22h-.58a.29.29,0,0,1-.26-.12.61.61,0,0,1-.09-.35v-3.5H424V51.16h-.93Z"/><path class="cls-3" d="M428.48,51.07a1.78,1.78,0,0,0-1,.3,2.24,2.24,0,0,0-.61.68v-.89h-1.22v6.18h1.22V53.43a1.19,1.19,0,0,1,.32-.89,1.21,1.21,0,0,1,.89-.32,1.41,1.41,0,0,1,.57.11.9.9,0,0,1,.4.29l.8-1.07a1.66,1.66,0,0,0-.6-.36A2.35,2.35,0,0,0,428.48,51.07Z"/><rect class="cls-3" x="429.88" y="56.07" width="1.28" height="1.28"/><path class="cls-3" d="M436.36,51.45a2.26,2.26,0,0,0-1.32-.38,2.73,2.73,0,0,0-1.41.34,2.15,2.15,0,0,0-.89,1,3.68,3.68,0,0,0-.3,1.56v.7a3.33,3.33,0,0,0,.31,1.51,2.22,2.22,0,0,0,.93.94,3.07,3.07,0,0,0,1.47.32,3,3,0,0,0,1.15-.24,3.48,3.48,0,0,0,1-.68l-.8-.8a2.13,2.13,0,0,1-.65.42,1.91,1.91,0,0,1-.73.15,1.55,1.55,0,0,1-1.15-.41,1.62,1.62,0,0,1-.4-1.13h3.89v-.41a4.78,4.78,0,0,0-.29-1.75A2.4,2.4,0,0,0,436.36,51.45Zm-2.75,2.31a1.84,1.84,0,0,1,.36-1.14,1.33,1.33,0,0,1,1.07-.46,1.08,1.08,0,0,1,.9.42,2,2,0,0,1,.39,1.18Z"/><path class="cls-3" d="M442.91,51.45a2.3,2.3,0,0,0-1.32-.38,2.73,2.73,0,0,0-1.41.34,2.1,2.1,0,0,0-.89,1A3.53,3.53,0,0,0,439,54v.7a3.33,3.33,0,0,0,.32,1.51,2.11,2.11,0,0,0,.93.94,3,3,0,0,0,1.46.32,2.93,2.93,0,0,0,1.15-.24,3.4,3.4,0,0,0,1-.68l-.8-.8a2.13,2.13,0,0,1-.65.42,2,2,0,0,1-.74.15,1.57,1.57,0,0,1-1.15-.41,1.61,1.61,0,0,1-.39-1.13H444v-.41a4.78,4.78,0,0,0-.29-1.75A2.53,2.53,0,0,0,442.91,51.45Zm-2.76,2.31a1.91,1.91,0,0,1,.37-1.14,1.31,1.31,0,0,1,1.07-.46,1.11,1.11,0,0,1,.9.42,2.17,2.17,0,0,1,.39,1.18Z"/><polygon class="cls-3" points="444.69 58.99 445.85 58.99 449.88 47.65 448.72 47.65 444.69 58.99"/><path class="cls-3" d="M451.63,52.62a1.47,1.47,0,0,1,1.09-.4,1.81,1.81,0,0,1,.73.16,2,2,0,0,1,.62.46l.88-.78a2.26,2.26,0,0,0-.57-.54,2.69,2.69,0,0,0-.77-.34,3.72,3.72,0,0,0-.91-.11,3.06,3.06,0,0,0-1.44.31,2.13,2.13,0,0,0-.92.91,3.06,3.06,0,0,0-.31,1.44v1a3.1,3.1,0,0,0,.31,1.45,2.15,2.15,0,0,0,.92.92,3.06,3.06,0,0,0,1.44.31,3.39,3.39,0,0,0,.91-.11,2.37,2.37,0,0,0,.76-.33,2.27,2.27,0,0,0,.58-.53l-.88-.84a1.67,1.67,0,0,1-.61.48,1.59,1.59,0,0,1-.74.18,1.46,1.46,0,0,1-1.09-.4,1.57,1.57,0,0,1-.39-1.13v-1A1.5,1.5,0,0,1,451.63,52.62Z"/><path class="cls-3" d="M459.82,51.34a3,3,0,0,0-1.32-.27,3.47,3.47,0,0,0-1.28.23,2.45,2.45,0,0,0-.93.66l.89.61a2.08,2.08,0,0,1,.63-.32,2.57,2.57,0,0,1,.72-.11,1.22,1.22,0,0,1,.93.34,1.32,1.32,0,0,1,.32.94v.26h-1.7a2.33,2.33,0,0,0-1.57.46,1.74,1.74,0,0,0-.52,1.38,1.8,1.8,0,0,0,.56,1.44,2.62,2.62,0,0,0,1.72.47,2.47,2.47,0,0,0,.69-.08,1.61,1.61,0,0,0,.55-.24,1.2,1.2,0,0,0,.27-.28v.51h1.16v-4a2.5,2.5,0,0,0-.29-1.24A1.87,1.87,0,0,0,459.82,51.34Zm-.38,5a3,3,0,0,1-1,.14,1.61,1.61,0,0,1-.95-.22.81.81,0,0,1-.32-.7.82.82,0,0,1,.24-.65,1,1,0,0,1,.71-.21h1.7v1.17A.49.49,0,0,1,459.44,56.3Z"/><polygon class="cls-3" points="464.73 55.57 463.22 51.16 461.95 51.16 464.27 57.34 465.19 57.34 467.52 51.16 466.25 51.16 464.73 55.57"/><path class="cls-3" d="M470,56.1a.61.61,0,0,1-.09-.35V48.68h-1.22v7.06a1.79,1.79,0,0,0,.38,1.21,1.36,1.36,0,0,0,1.07.42h.71V56.22h-.57A.35.35,0,0,1,470,56.1Z"/><path class="cls-3" d="M476,51.45a2.31,2.31,0,0,0-1.33-.38,2.73,2.73,0,0,0-1.41.34,2.21,2.21,0,0,0-.89,1,3.68,3.68,0,0,0-.3,1.56v.7a3.21,3.21,0,0,0,.32,1.51,2.14,2.14,0,0,0,.92.94,3.07,3.07,0,0,0,1.47.32,3,3,0,0,0,1.15-.24,3.48,3.48,0,0,0,1-.68l-.8-.8a2.13,2.13,0,0,1-.65.42,1.87,1.87,0,0,1-.73.15,1.55,1.55,0,0,1-1.15-.41,1.62,1.62,0,0,1-.4-1.13h3.89v-.41a4.58,4.58,0,0,0-.29-1.75A2.45,2.45,0,0,0,476,51.45Zm-2.76,2.31a1.84,1.84,0,0,1,.36-1.14,1.33,1.33,0,0,1,1.07-.46,1.08,1.08,0,0,1,.9.42,2.1,2.1,0,0,1,.4,1.18Z"/><path class="cls-3" d="M481.65,51.07a1.84,1.84,0,0,0-1,.3,2.14,2.14,0,0,0-.62.68v-.89h-1.22v6.18H480V53.43a1.21,1.21,0,0,1,.32-.89,1.29,1.29,0,0,1,.92-.32,1.27,1.27,0,0,1,1,.36,1.45,1.45,0,0,1,.34,1v3.75h1.21V53.59a2.81,2.81,0,0,0-.55-1.86A1.93,1.93,0,0,0,481.65,51.07Z"/><path class="cls-3" d="M487.92,52.25V51.16H487v-1.8h-1.22v1.8h-.64v1.09h.64v3.49a1.87,1.87,0,0,0,.35,1.22,1.34,1.34,0,0,0,1.1.41h.7V56.22h-.58a.3.3,0,0,1-.26-.12.61.61,0,0,1-.09-.35v-3.5Z"/><polygon class="cls-3" points="430.5 29.19 430.5 28.37 428.39 28.37 428.39 26.93 430.89 26.93 430.89 26.1 428.39 26.1 427.89 26.1 427.53 26.1 427.53 31.33 428.39 31.33 428.39 29.19 430.5 29.19"/><path class="cls-3" d="M434.39,31.15a1.6,1.6,0,0,0,.66-.68,2.06,2.06,0,0,0,.23-1V28a2.1,2.1,0,0,0-.23-1,1.58,1.58,0,0,0-.66-.67,2.12,2.12,0,0,0-2,0,1.7,1.7,0,0,0-.66.67,2.22,2.22,0,0,0-.23,1v1.48a2.18,2.18,0,0,0,.23,1,1.73,1.73,0,0,0,.66.68,2.12,2.12,0,0,0,2,0ZM432.55,30a1.13,1.13,0,0,1-.13-.56V28a1.09,1.09,0,0,1,.13-.55.87.87,0,0,1,.34-.37,1,1,0,0,1,.52-.13,1,1,0,0,1,.52.13.89.89,0,0,1,.35.37,1.2,1.2,0,0,1,.12.55v1.53a1.25,1.25,0,0,1-.12.56.87.87,0,0,1-.35.36,1,1,0,0,1-.52.13,1,1,0,0,1-.52-.13A.84.84,0,0,1,432.55,30Z"/><path class="cls-3" d="M437.19,29.17H438l1.15,2.16h1L439,29.1a1.17,1.17,0,0,0,.31-.12,1.29,1.29,0,0,0,.52-.54,1.89,1.89,0,0,0,0-1.61,1.42,1.42,0,0,0-.52-.54,1.53,1.53,0,0,0-.78-.19h-2.18v5.23h.86Zm1.3-2.25a.59.59,0,0,1,.32.09.58.58,0,0,1,.21.25.89.89,0,0,1,.08.38A1.06,1.06,0,0,1,439,28a.59.59,0,0,1-.53.34h-1.3V26.92Z"/><polygon class="cls-3" points="447.62 31.33 447.62 26.1 446.63 26.1 445.36 29.59 444.1 26.1 443.11 26.1 443.11 31.33 443.91 31.33 443.91 27.74 445.02 30.68 445.71 30.68 446.82 27.67 446.82 31.33 447.62 31.33"/><path class="cls-3" d="M449.63,31.15a2.12,2.12,0,0,0,2,0,1.73,1.73,0,0,0,.66-.68,2.06,2.06,0,0,0,.23-1V28a2.1,2.1,0,0,0-.23-1,1.7,1.7,0,0,0-.66-.67,2.12,2.12,0,0,0-2,0A1.7,1.7,0,0,0,449,27a2.1,2.1,0,0,0-.23,1v1.48a2.06,2.06,0,0,0,.23,1A1.73,1.73,0,0,0,449.63,31.15Zm0-3.2a1.2,1.2,0,0,1,.12-.55.89.89,0,0,1,.35-.37,1.11,1.11,0,0,1,1,0,.89.89,0,0,1,.35.37,1.2,1.2,0,0,1,.12.55v1.53a1.25,1.25,0,0,1-.12.56.87.87,0,0,1-.35.36,1.11,1.11,0,0,1-1,0,.87.87,0,0,1-.35-.36,1.25,1.25,0,0,1-.12-.56Z"/><path class="cls-3" d="M454.39,29.17h.84l1.15,2.16h1l-1.23-2.23a1,1,0,0,0,.3-.12,1.26,1.26,0,0,0,.53-.54,1.89,1.89,0,0,0,0-1.61,1.42,1.42,0,0,0-.52-.54,1.55,1.55,0,0,0-.78-.19h-2.18v5.23h.86Zm1.29-2.25A.6.6,0,0,1,456,27a.58.58,0,0,1,.21.25.89.89,0,0,1,.07.38.87.87,0,0,1-.07.37.6.6,0,0,1-.22.25.57.57,0,0,1-.32.09h-1.29V26.92Z"/><polygon class="cls-3" points="461.76 30.51 459.19 30.51 459.19 29.14 461.36 29.14 461.36 28.32 459.19 28.32 459.19 26.93 461.76 26.93 461.76 26.1 459.19 26.1 458.68 26.1 458.33 26.1 458.33 31.33 458.68 31.33 459.19 31.33 461.76 31.33 461.76 30.51"/><rect class="cls-3" x="412.43" y="34.94" width="0.88" height="5.23"/><polygon class="cls-3" points="417.6 38.81 415.43 34.94 414.5 34.94 414.5 40.16 415.33 40.16 415.33 36.35 417.49 40.16 418.43 40.16 418.43 34.94 417.6 34.94 417.6 38.81"/><polygon class="cls-3" points="420.01 34.94 419.65 34.94 419.65 40.17 420.51 40.17 420.51 38.03 422.62 38.03 422.62 37.21 420.51 37.21 420.51 35.76 423.02 35.76 423.02 34.94 420.51 34.94 420.01 34.94"/><path class="cls-3" d="M426.52,35.13a2.12,2.12,0,0,0-2,0,1.53,1.53,0,0,0-.66.67,2.07,2.07,0,0,0-.24,1V38.3a2.07,2.07,0,0,0,.24,1,1.58,1.58,0,0,0,.66.67,2.12,2.12,0,0,0,2,0,1.7,1.7,0,0,0,.66-.67,2.18,2.18,0,0,0,.23-1V36.81a2.18,2.18,0,0,0-.23-1A1.64,1.64,0,0,0,426.52,35.13Zm0,3.19a1.21,1.21,0,0,1-.13.55.87.87,0,0,1-.34.37,1,1,0,0,1-.52.13,1,1,0,0,1-.52-.13.89.89,0,0,1-.35-.37,1.2,1.2,0,0,1-.12-.55V36.79a1.2,1.2,0,0,1,.12-.55.84.84,0,0,1,.35-.37,1,1,0,0,1,.52-.13,1,1,0,0,1,.52.13.82.82,0,0,1,.34.37,1.21,1.21,0,0,1,.13.55Z"/><path class="cls-3" d="M431.41,37.82a1.35,1.35,0,0,0,.52-.54,1.8,1.8,0,0,0,0-1.61,1.18,1.18,0,0,0-.52-.54,1.49,1.49,0,0,0-.77-.19h-2.19v5.23h.86V38h.85l1.14,2.16h1l-1.23-2.23A1.57,1.57,0,0,0,431.41,37.82Zm-2.1-2.06h1.3a.57.57,0,0,1,.32.09.6.6,0,0,1,.22.25.87.87,0,0,1,.07.37.89.89,0,0,1-.08.38.58.58,0,0,1-.21.25.57.57,0,0,1-.32.09h-1.3Z"/><polygon class="cls-3" points="435.51 38.43 434.25 34.94 433.25 34.94 433.25 40.17 434.06 40.17 434.06 36.58 435.17 39.51 435.86 39.51 436.96 36.51 436.96 40.17 437.77 40.17 437.77 34.94 436.78 34.94 435.51 38.43"/><path class="cls-3" d="M440.38,34.94l-2,5.23h.92l.35-1h2l.34,1H443l-2-5.23ZM440,38.35l.72-2.08.72,2.08Z"/><polygon class="cls-3" points="442.82 35.76 444.28 35.76 444.28 40.17 445.13 40.17 445.13 35.76 446.59 35.76 446.59 34.94 442.82 34.94 442.82 35.76"/><rect class="cls-3" x="447.2" y="34.94" width="0.88" height="5.23"/><path class="cls-3" d="M452,35.13a2.12,2.12,0,0,0-2,0,1.53,1.53,0,0,0-.66.67,2.07,2.07,0,0,0-.24,1V38.3a2.07,2.07,0,0,0,.24,1,1.58,1.58,0,0,0,.66.67,2.12,2.12,0,0,0,2,0,1.7,1.7,0,0,0,.66-.67,2.18,2.18,0,0,0,.23-1V36.81a2.18,2.18,0,0,0-.23-1A1.64,1.64,0,0,0,452,35.13Zm0,3.19a1.09,1.09,0,0,1-.13.55.87.87,0,0,1-.34.37,1,1,0,0,1-.52.13,1,1,0,0,1-.52-.13.89.89,0,0,1-.35-.37,1.2,1.2,0,0,1-.12-.55V36.79a1.2,1.2,0,0,1,.12-.55.84.84,0,0,1,.35-.37,1,1,0,0,1,.52-.13,1,1,0,0,1,.52.13.82.82,0,0,1,.34.37,1.09,1.09,0,0,1,.13.55Z"/><polygon class="cls-3" points="457.04 38.81 454.88 34.94 453.94 34.94 453.94 40.16 454.78 40.16 454.78 36.35 456.94 40.16 457.88 40.16 457.88 34.94 457.04 34.94 457.04 38.81"/><polygon class="cls-3" points="462.63 38.73 461.44 34.94 460.54 34.94 462.26 40.17 462.99 40.17 464.72 34.94 463.81 34.94 462.63 38.73"/><rect class="cls-3" x="465.4" y="34.94" width="0.88" height="5.23"/><path class="cls-3" d="M470.26,37.4a3.81,3.81,0,0,0-.81-.23h-.13a4.75,4.75,0,0,1-.59-.14.73.73,0,0,1-.35-.21.53.53,0,0,1-.14-.39h0a.61.61,0,0,1,.27-.52,1.39,1.39,0,0,1,.77-.18,1.92,1.92,0,0,1,.61.11,3.11,3.11,0,0,1,.62.33l.41-.71a2.8,2.8,0,0,0-1.08-.48,2.67,2.67,0,0,0-.56-.06,2.59,2.59,0,0,0-1,.18,1.39,1.39,0,0,0-.65.54,1.5,1.5,0,0,0-.22.84h0a1.35,1.35,0,0,0,.24.86,1.19,1.19,0,0,0,.57.43,4.58,4.58,0,0,0,.86.2h.11a3.58,3.58,0,0,1,.54.13.77.77,0,0,1,.34.2.61.61,0,0,1,.12.39h0a.6.6,0,0,1-.28.53,1.58,1.58,0,0,1-.82.19,2.63,2.63,0,0,1-.8-.13,2.14,2.14,0,0,1-.67-.39l-.46.69a2.3,2.3,0,0,0,.56.35,2.62,2.62,0,0,0,.65.22,3.38,3.38,0,0,0,.72.07,2.8,2.8,0,0,0,1.06-.18,1.49,1.49,0,0,0,.67-.53,1.51,1.51,0,0,0,.23-.84h0a1.43,1.43,0,0,0-.22-.83A1.3,1.3,0,0,0,470.26,37.4Z"/><rect class="cls-3" x="471.89" y="34.94" width="0.88" height="5.23"/><polygon class="cls-3" points="477.28 34.94 473.52 34.94 473.52 35.76 474.98 35.76 474.98 40.17 475.83 40.17 475.83 35.76 477.28 35.76 477.28 34.94"/></g></g></svg>