<svg xmlns="http://www.w3.org/2000/svg" viewBox="0 0 566.93 85.33"><defs><style>.cls-1{fill:#00467d;}.cls-2{fill:#ffcc80;}.cls-3{fill:#fff;}.cls-4{fill:#808285;}</style></defs><title>ads_pp4_eng</title><g id="Layer_2" data-name="Layer 2"><g id="Layer_1-2" data-name="Layer 1"><rect class="cls-1" y="0.29" width="566.93" height="85.04"/><path class="cls-2" d="M171.58.11,171.32,0c0,.1,0,.19,0,.29h.42Z"/><path class="cls-2" d="M133.63,83a4.29,4.29,0,0,0-3.5-.32,1.79,1.79,0,0,0-1.2,2.19c0,.13-.05.27-.07.42h5.44A1.75,1.75,0,0,0,133.63,83Z"/><path class="cls-2" d="M245.57,68.51a3.28,3.28,0,0,0-1.32,2.79,1.79,1.79,0,0,0,2.66,1.52,2.51,2.51,0,0,0,1.06-.93,1.73,1.73,0,0,0,1.15-1.53,2,2,0,0,0-1-1.81.72.72,0,0,1,.09-.2.34.34,0,0,0,0-.48A1.61,1.61,0,0,0,245.57,68.51Z"/><path class="cls-2" d="M249.15,64.67a5.67,5.67,0,0,0,.72-3.18c-.2-1.28-1.86-1.14-2.46-.32s-.64,2.5-.72,3.67c0,.7-.1,2.1,1,1.93C248.59,66.63,248.86,65.39,249.15,64.67Z"/><path class="cls-2" d="M185.93,60.87c1.84.6,3.19-1.38,3.58-2.92.46-1.85-.74-4-2.85-3.81-1.77.2-2.58,2-2.4,3.61a2.63,2.63,0,0,0,.21.74A2.26,2.26,0,0,0,185.93,60.87Z"/><path class="cls-2" d="M183.69,69.83l.15.13a.93.93,0,0,0,1,.14A21.6,21.6,0,0,0,187,68.74c.33-.21.68-.41,1-.6s.4-.22.61-.32l.05,0a1.3,1.3,0,0,0,1.7-.52l.07-.13a1.32,1.32,0,0,0,0-1.37c-2-2.87-5.28,1.93-6.76,3.08A.67.67,0,0,0,183.69,69.83Z"/><path class="cls-2" d="M182.35,81c1.8-.56,3.51-1.31,5.24-2a31,31,0,0,0,4.76-2.16c1.12-.72.43-2.66-.94-2.23a30.91,30.91,0,0,0-4.71,2.27c-1.68.87-3.36,1.72-4.94,2.75C181.07,80,181.49,81.21,182.35,81Z"/><path class="cls-2" d="M194.18,83.6c-.89.59-1.79,1.17-2.7,1.73h4.43C196.45,84.34,195.33,82.84,194.18,83.6Z"/><path class="cls-2" d="M241.36,26.34a2.14,2.14,0,0,0,1.59-1.6,1.81,1.81,0,0,0-.09-1.08,1.53,1.53,0,0,0-.67-.79,1.78,1.78,0,0,0-1.51-.08,2.16,2.16,0,0,0-2,1.55,1.6,1.6,0,0,0,.73,1.79A2.69,2.69,0,0,0,241.36,26.34Z"/><path class="cls-2" d="M124.65,9.23a1.53,1.53,0,0,0,1.79-.29,1.61,1.61,0,0,0,0-2.21,3.26,3.26,0,0,0-1.42-1,1.41,1.41,0,0,0-1.67.82,1.48,1.48,0,0,0-.06.93,2.19,2.19,0,0,0,.36.78.37.37,0,0,1,0,.11A.75.75,0,0,0,124.65,9.23Z"/><path class="cls-2" d="M172.7,1.22c-.32.17-.79.29-1.13.43l-.17.06c0-.46,0-.94-.06-1.42h-2.92c0,1.44-.12,2.87-.23,4.31a1.59,1.59,0,0,0,2.68,1.11c1.18-1.24,3-1.23,4.31-2.36.12-.11.24-.23.35-.35a2.11,2.11,0,0,0,1.95-.93A3.09,3.09,0,0,0,178.2.29h-6.44Z"/><path class="cls-3" d="M143.42,0a.34.34,0,0,0-.32.25h.2Z"/><path class="cls-3" d="M143.54.05l.11.24h.14A.31.31,0,0,0,143.54.05Z"/><path class="cls-3" d="M239.2,25.6c.07.67.15,1.35.24,2a.64.64,0,0,0,.44.52.58.58,0,0,0,.19,0,.63.63,0,0,0,.47-.22L242,26.33c.56.35,1,.63,1.5.87a.64.64,0,0,0,.68-.07.63.63,0,0,0,.23-.65c-.07-.28-.14-.57-.2-.86-.12-.51-.24-1-.39-1.57.33-.64.65-1.25,1-1.85a.62.62,0,0,0,0-.62.64.64,0,0,0-.53-.34l-.52,0a11,11,0,0,0-1.62,0c-.31-.31-.6-.63-.91-1l-.11-.12a.61.61,0,0,0-.61-.19.63.63,0,0,0-.47.45,10.45,10.45,0,0,0-.26,1.79,2.11,2.11,0,0,1,0,.25l-.1,0a15.73,15.73,0,0,0-2,.68.63.63,0,0,0-.38.52.64.64,0,0,0,.28.58,9.09,9.09,0,0,0,1.52.78Zm.87-2,.53-.16a.61.61,0,0,0,.44-.53c0-.24.05-.47.07-.71l0-.33.41.4a.63.63,0,0,0,.53.16,5.69,5.69,0,0,1,1.18,0c-.21.38-.41.77-.6,1.15l-.06.11a.61.61,0,0,0,0,.46c.11.4.21.8.31,1.2l-.61-.38a.64.64,0,0,0-.81.1l-.92,1-.06-.61c0-.34-.08-.68-.11-1a.62.62,0,0,0-.4-.51l-.39-.17Z"/><path class="cls-3" d="M182.72,51.55l-.06-.06Z"/><path class="cls-3" d="M175.67,3.57a3.39,3.39,0,0,0-1.09-.15,5.51,5.51,0,0,0-4.71,2.93l.3,0a.63.63,0,0,1,.69.57.62.62,0,0,1-.57.69c-.36,0-.74.06-1.11.07h0c-.16.35-.31.7-.45,1.08a28.75,28.75,0,0,0-1.39,9,15.08,15.08,0,0,0,1.35,5.15,5.12,5.12,0,0,0-2.51,4.49,3,3,0,0,0,2.93,2.78,5,5,0,0,0,1.14-.13c.16,8.43,3.88,10.36,7.16,12.07,2.77,1.43,5.16,2.67,5.16,7.83v0a.62.62,0,0,1,.6.2,5.62,5.62,0,0,0,.64.65c0-.29,0-.59,0-.88,0-5.93-3-7.47-5.84-9-3.19-1.65-6.48-3.36-6.48-11.51V29.2a.63.63,0,0,0-.27-.52.61.61,0,0,0-.57-.08,4.69,4.69,0,0,1-1.57.3,1.74,1.74,0,0,1-1.66-1.51,3.78,3.78,0,0,1,2.3-3.6.63.63,0,0,0,.35-.35.64.64,0,0,0,0-.49,14.8,14.8,0,0,1-1.48-5.2,27.44,27.44,0,0,1,1.31-8.58c1.08-3,2.65-4.48,4.67-4.48a1.54,1.54,0,0,1,.91.19A.63.63,0,0,0,176,5a.61.61,0,0,0,.43-.3A13.47,13.47,0,0,1,181,.29h-2.21A15,15,0,0,0,175.67,3.57Z"/><path class="cls-3" d="M198.5,1.82a.64.64,0,0,0,1.14-.57c-.18-.34-.34-.66-.49-1h-1.42C198,.73,198.21,1.24,198.5,1.82Z"/><path class="cls-3" d="M177.28,9.77a14.19,14.19,0,0,0-.13-1.95.64.64,0,0,0-1.26.17A13.31,13.31,0,0,1,176,9.77c0,4-1.74,7.26-4.65,8.62a.63.63,0,0,0-.36.68c.08.45.15.91.23,1.36a42.59,42.59,0,0,1,.74,5.76.63.63,0,0,0,.63.61h0a.63.63,0,0,0,.61-.65,42.52,42.52,0,0,0-.75-5.93l-.15-.9C175.44,17.65,177.28,14.12,177.28,9.77Z"/><path class="cls-3" d="M202.58,21h.13a.63.63,0,0,0,.62-.5l.06-.28a36.2,36.2,0,0,0,1.1-7.66,11.7,11.7,0,0,0-3.28-8.22,10.4,10.4,0,0,0-7.34-3.23,10.22,10.22,0,0,0-1.91.19.64.64,0,1,0,.25,1.25,7.8,7.8,0,0,1,1.66-.17c5.59,0,9.35,5.26,9.35,10.18a34.87,34.87,0,0,1-1.07,7.39l0,.16c.06.24.11.48.16.71A.69.69,0,0,0,202.58,21Z"/><path class="cls-3" d="M199.32,13.57a.63.63,0,0,0,.47-.22.62.62,0,0,0-.06-.89c-2-1.74-5.1-1.84-8.39-2-4.43-.15-9-.3-11.46-4.28a.63.63,0,0,0-1.08.66c2.8,4.57,7.95,4.74,12.5,4.89,3.06.1,5.95.19,7.6,1.63A.61.61,0,0,0,199.32,13.57Z"/><path class="cls-3" d="M192,49.87a.63.63,0,0,1,1,.83h0v0c0,.1.05.2.07.29l.51.08c2.31.35,4.7.72,7.08.85a.65.65,0,0,0,.44-.15c3.29-2.79,6.51-4.26,9.3-4.26a5,5,0,0,1,4.77,2.41c.74,1,1.52,2,3.29,2a14.48,14.48,0,0,0,3.24-.51l1-.24a.63.63,0,0,0,.49-.7c-.29-2.27-.68-5.2-1-7.85a.64.64,0,0,0,.54,0,12.3,12.3,0,0,1,2.9-1c2.5-.68,5.33-1.46,5.33-4.18a2,2,0,0,0-.38-1.47,1.62,1.62,0,0,0-1.25-.32h-.19c0,.09,0,.17,0,.27a.63.63,0,0,1-.51.73h-.11a.64.64,0,0,1-.63-.53c0-.15-.05-.28-.07-.44a22,22,0,0,0-4.58.88.63.63,0,0,1-.58.39h0a.67.67,0,0,1-.28-.1c-.55.18-1.11.38-1.68.61a.63.63,0,0,0-.4.67c.4,2.9,1.12,8.19,1.61,12l-.48.11a13.06,13.06,0,0,1-2.95.49c-1.14,0-1.59-.61-2.28-1.52a6.2,6.2,0,0,0-5.78-2.92c-3.08,0-6.42,1.48-9.92,4.4-2.24-.14-4.51-.49-6.71-.82l-2-.3c.11-4.65,2-5.7,4.3-7,3.27-1.84,7-3.92,7-15.33a28.49,28.49,0,0,0-.74-6.4.63.63,0,0,1-.19-.59l0-.12a26,26,0,0,0-1.33-3.87.64.64,0,0,0-1.17.5,26.32,26.32,0,0,1,2.13,10.48c0,10.67-3.35,12.56-6.31,14.22-2.43,1.37-4.95,2.79-4.95,8.55v.13a.63.63,0,0,0,.54.62l.21,0,.29-.36Zm29.58-11.42A20.93,20.93,0,0,1,229,36.89h.63a5,5,0,0,1,0,.52c0,1.63-1.74,2.23-4.39,3A13.48,13.48,0,0,0,222,41.52l-.05,0C221.81,40.4,221.67,39.34,221.55,38.45Z"/><path class="cls-3" d="M191.44,30.78a1.75,1.75,0,0,0-.08-.55,2.1,2.1,0,0,0-1.53-1.38c-.84-.32-1.8-.67-1.8-4.33,0-.57,0-1.15.05-1.72s.06-1.17.06-1.76c0-.34,0-.65,0-.95a.63.63,0,1,0-1.26.08c0,.27,0,.56,0,.87,0,.56,0,1.14-.05,1.7s-.06,1.18-.06,1.78c0,4.19,1.24,5,2.63,5.52.52.19.67.27.76.56a.67.67,0,0,1,0,.18c0,.71-1.49.79-2.13.79a2,2,0,0,1-1-.2.63.63,0,1,0-.57,1.13,3.3,3.3,0,0,0,1.54.34C191,32.84,191.44,31.55,191.44,30.78Z"/><path class="cls-3" d="M180.75,25a1.7,1.7,0,0,0,1.67-1.86,1,1,0,0,0-.28-.69,5.33,5.33,0,0,0-.87-.68l-.35-.25a.64.64,0,0,0-.83.06l-.24.23a2.19,2.19,0,0,0-.93,1.54A1.79,1.79,0,0,0,180.75,25Zm-.16-2.16a5.75,5.75,0,0,1,.56.41c0,.22-.11.48-.4.48a.56.56,0,0,1-.57-.38C180.18,23.26,180.41,23,180.59,22.87Z"/><path class="cls-3" d="M194,22.26a1.32,1.32,0,0,1-.32-.17A.62.62,0,0,0,193,22c-1.16.57-1.4,1.31-1.4,1.82a1.58,1.58,0,0,0,1.74,1.53,1.87,1.87,0,0,0,1.85-1.7,1.12,1.12,0,0,0,0-.31A1.62,1.62,0,0,0,194,22.26Zm-.71,1.81c-.21,0-.47-.05-.47-.27s.14-.34.39-.51a2.73,2.73,0,0,0,.31.14c.26.11.31.14.35.22A.67.67,0,0,1,193.32,24.07Z"/><path class="cls-3" d="M182.13,17.63a.63.63,0,0,0-.73-.53,8.69,8.69,0,0,0-3.84,1.56.64.64,0,0,0-.14.88.64.64,0,0,0,.51.26.68.68,0,0,0,.38-.12,7.42,7.42,0,0,1,3.29-1.33A.64.64,0,0,0,182.13,17.63Z"/><path class="cls-3" d="M196,20a.62.62,0,0,0,.37-.11.64.64,0,0,0,.15-.88,5.12,5.12,0,0,0-3.21-2.29.63.63,0,0,0-.21,1.25,4.06,4.06,0,0,1,2.38,1.76A.63.63,0,0,0,196,20Z"/><path class="cls-3" d="M184.18,39.58c1.5,0,2.67-1.12,3.23-3.08a.78.78,0,0,0,0-.22h0a.64.64,0,0,0,.15-.88.63.63,0,0,0-.88-.16,4,4,0,0,1-2.29.67,4.42,4.42,0,0,1-4-2.26.63.63,0,0,0-1.2.36C179.57,36.7,181.42,39.58,184.18,39.58Zm.26-2.41a5.68,5.68,0,0,0,1.44-.18,2,2,0,0,1-1.7,1.32,3.42,3.42,0,0,1-2.83-1.94A6.33,6.33,0,0,0,184.44,37.17Z"/><path class="cls-3" d="M169.15,6.39c-.29,0-.59,0-.88,0,0,.09,0,.18,0,.27a.63.63,0,0,1-.63.63.64.64,0,0,1-.64-.63c0-.13,0-.26,0-.39a15.57,15.57,0,0,1-6.57-2.66,9.34,9.34,0,0,1-.55,1.15,16.18,16.18,0,0,0,8.94,2.92h.35a12.37,12.37,0,0,1,.7-1.31C169.63,6.37,169.39,6.39,169.15,6.39Z"/><path class="cls-3" d="M159.1,3.5l0-.07h0Z"/><path class="cls-3" d="M159.92.29a8.55,8.55,0,0,1-.79,3.14.65.65,0,0,1,.89-.12l.41.29a10,10,0,0,0,.76-3.31Z"/><path class="cls-3" d="M159.1,3.5a9.23,9.23,0,0,1-7.65,5.27A9.4,9.4,0,0,1,144.53,6,9.18,9.18,0,0,1,141.74.29h-1.27a10.43,10.43,0,0,0,3.17,6.64,10.78,10.78,0,0,0,7.47,3.12h.39a10.55,10.55,0,0,0,8.38-5.29c-.21-.14-.42-.28-.62-.43A.62.62,0,0,1,159.1,3.5Z"/><path class="cls-3" d="M150,.91a.64.64,0,0,0,.23.43.63.63,0,0,0,.4.14h.07c.52-.06,1-.14,1.52-.23A14.28,14.28,0,0,1,154.71,1a.64.64,0,0,0,.64-.64s0,0,0,0H150Z"/><path class="cls-3" d="M143.81.35a.25.25,0,0,1-.05.15l-.11-.21h-.35l-.11.21c-.11-.06-.11-.13-.11-.15a.11.11,0,0,1,0-.06h-.55s0,0,0,.06a1,1,0,0,0,.91,1,1,1,0,0,0,.9-1s0,0,0-.06h-.55A.11.11,0,0,1,143.81.35Z"/><path class="cls-3" d="M151.93,6.48c0-.12-.05-.73-.93-.73a.63.63,0,0,0-.45.18l-.08.07a1,1,0,0,0-.44.88.91.91,0,0,0,1,.93.9.9,0,0,0,.95-1,1.48,1.48,0,0,0,0-.21ZM151,7a.56.56,0,0,1-.28-.27.38.38,0,0,1,.28-.19Z"/><path class="cls-3" d="M157.74.86a.76.76,0,0,0,.73-.57h-1.64A.89.89,0,0,0,157.74.86Z"/><path class="cls-3" d="M168.59.29h-1.28c0,.11,0,.23,0,.35-.14,1.83-.27,3.72-.29,5.62.42.06.85.1,1.27.12,0-1.89.15-3.8.28-5.65C168.56.58,168.58.43,168.59.29Z"/><path class="cls-3" d="M235.74.71c0,2.68,0,4.91.12,7-.72,0-1.44,0-2.21,0-3.58,0-7.24-.21-10.78-.41-2.77-.16-5.63-.32-8.45-.38L214.19.29h-1.27l.25,7.27a.63.63,0,0,0,.63.61c3,.05,6,.23,9,.39,3.55.2,7.23.41,10.85.41,1,0,2,0,2.89,0a.62.62,0,0,0,.44-.21.6.6,0,0,0,.17-.46c-.1-2.21-.14-4.61-.14-7.55V.29h-1.27Z"/><path class="cls-3" d="M216.49,5.42a.67.67,0,0,0,.43.16H217c2.46-.24,5.15-.34,8.45-.34,2,0,4,0,6,.07l1.82,0a.66.66,0,0,0,.46-.19.61.61,0,0,0,.18-.46c0-1.12,0-2.28,0-3.54,0-.29,0-.58,0-.87H232.6c0,.29,0,.58,0,.87,0,1,0,2,0,2.91l-1.15,0c-1.29,0-2.6,0-3.91-.06a.63.63,0,0,1-.6.63h0a.62.62,0,0,1-.63-.6V4h-.85c-1.25,0-2.4,0-3.49,0a.61.61,0,0,1-.45.29h-.08a.62.62,0,0,1-.5-.27c-1.19,0-2.31.12-3.37.21,0-1.36-.07-2.67-.12-4h-1.27c.06,1.52.1,3.06.13,4.67A.66.66,0,0,0,216.49,5.42Z"/><path class="cls-3" d="M221.81.29h-1.27a34.1,34.1,0,0,0,.24,3.48.66.66,0,0,0,.13.28l1,0a.62.62,0,0,0,.1-.42A33,33,0,0,1,221.81.29Z"/><path class="cls-3" d="M227.41.29h-1.27c0,1.21.08,2.45.14,3.69h1.27V4C227.49,2.72,227.45,1.49,227.41.29Z"/><path class="cls-3" d="M211.25,11.92a2.23,2.23,0,0,0-1-1.72,2.52,2.52,0,0,0-1.39-.48h-.3a2.38,2.38,0,0,0-2.08,2.52,2.35,2.35,0,0,0,2.4,2.21H209a2.35,2.35,0,0,0,1.6-.78A2.43,2.43,0,0,0,211.25,11.92Zm-1.59.89a1.1,1.1,0,0,1-.71.37,1.07,1.07,0,0,1-1.18-1,1.12,1.12,0,0,1,.91-1.21h.13a1.34,1.34,0,0,1,.69.22c.43.33.47.57.48.77A1.12,1.12,0,0,1,209.66,12.81Z"/><path class="cls-3" d="M229.11,17.89a2.25,2.25,0,0,0,1.49-.59,2,2,0,0,0,.71-1.43,2.77,2.77,0,0,0,0-.54,2.19,2.19,0,0,0-2.34-1.66,2,2,0,0,0-.77.27,2.24,2.24,0,0,0-1,2A2,2,0,0,0,229,17.88Zm-.73-2a.91.91,0,0,1,.44-.84.45.45,0,0,1,.23-.09h.06c.35,0,.86.28.91.58,0,.1,0,.22,0,.32a.91.91,0,0,1-.3.53,1,1,0,0,1-.7.26A.73.73,0,0,1,228.38,15.87Z"/><path class="cls-3" d="M255.18.6a.62.62,0,0,1,.75.28.64.64,0,0,1-.24.86l-.45.21c.09,2.15.17,4.31.21,6.45a4.94,4.94,0,0,1-3.76,1.69,6.07,6.07,0,0,1-4.09-1.62l0-.6c-.16-.09-.33-.18-.49-.29a.64.64,0,0,1-.15-.88.63.63,0,0,1,.57-.26c0-.38,0-.75-.05-1.13L247,5.12a.62.62,0,0,1,.39-1.18c0-.93-.07-1.87-.09-2.83-.12-.1-.25-.19-.36-.29a.61.61,0,0,1-.2-.53H246c.07,3,.19,5.77.34,8.49a.62.62,0,0,0,.18.4,7.29,7.29,0,0,0,5.16,2.17A6.23,6.23,0,0,0,256.58,9a.57.57,0,0,0,.14-.42c-.05-2.77-.16-5.56-.28-8.32h-1.27C255.17.39,255.18.49,255.18.6Z"/><path class="cls-3" d="M252,1.43A6.42,6.42,0,0,1,248.35.29h-1.07c0,.27,0,.55,0,.82A7.63,7.63,0,0,0,252,2.69,7.67,7.67,0,0,0,255.24,2L255.18.6l-.11,0A6.39,6.39,0,0,1,252,1.43Z"/><path class="cls-3" d="M254.6,5.27a.64.64,0,0,0-.68-1.08c-1.7,1.07-3.73,1-6.39-.22l-.14,0,.06,1.37a10,10,0,0,0,3.84.89A6.17,6.17,0,0,0,254.6,5.27Z"/><path class="cls-3" d="M254,8a.63.63,0,0,0,.41-.79.64.64,0,0,0-.8-.42c-2.42.78-4.41.68-5.79-.28a.58.58,0,0,0-.31-.11c0,.48.05,1,.07,1.43a6.25,6.25,0,0,0,3.06.75A11,11,0,0,0,254,8Z"/><path class="cls-3" d="M264.7,14.47a.64.64,0,0,0,.48-.21c.67-.77,1.4-1.52,2.1-2.24.5-.51,1-1,1.51-1.58A.61.61,0,0,0,269,10a.58.58,0,0,0-.25-.45,26.49,26.49,0,0,1-3.31-2.89.64.64,0,0,0-.89,0c-1.37,1.27-2.63,2.66-3.81,4a.65.65,0,0,0-.16.46.63.63,0,0,0,.22.44c1.23,1.09,2.49,2.07,3.57,2.89A.66.66,0,0,0,264.7,14.47ZM264.92,8a27.79,27.79,0,0,0,2.46,2.14l-1,1.05c-.58.59-1.18,1.21-1.75,1.84-.8-.61-1.68-1.3-2.55-2.05C263,9.9,263.92,8.9,264.92,8Z"/><path class="cls-3" d="M240.69.61a21.91,21.91,0,0,0-1.32,6.57c0,4,2.25,5.28,4.13,5.64h.12a.62.62,0,0,0,.62-.51.63.63,0,0,0-.5-.75c-2.09-.4-3.1-1.84-3.1-4.39A20.41,20.41,0,0,1,241.89,1a.62.62,0,0,0-.27-.72H241A.59.59,0,0,0,240.69.61Z"/><path class="cls-3" d="M246.73,14a1.63,1.63,0,0,0,0-.33.91.91,0,0,0-.91-.75.65.65,0,0,0-.63.63.22.22,0,0,0,0,.08,2.46,2.46,0,0,0,0,.26.84.84,0,0,0,.87.88A.75.75,0,0,0,246.73,14Zm-1,.19a.34.34,0,0,1-.31-.23.54.54,0,0,1,.52-.46.34.34,0,0,1,.17.05h-.38Z"/><path class="cls-3" d="M235.67,17.57a.63.63,0,0,0-.6.66c.18,4.46.45,9,.71,13.33.15,2.69.31,5.38.45,8.07a.65.65,0,0,0,.64.61c2.77-.09,5.52-.19,8.27-.3l4.35-.15a.63.63,0,0,1-.34-.6c0-.21,0-.42,0-.62v0l-4.07.15-7.62.27c-.14-2.5-.28-5-.43-7.47-.24-4.15-.5-8.43-.68-12.68l2.94-.15c4.32-.22,8.78-.45,13.17-.9q.24,2.54.45,5.07c.33,3.75.68,7.61,1.09,11.45l.72.14a.63.63,0,1,1-.23,1.24l-.92-.17-.69.58c-.82.69-1.67,1.41-2.47,2.16,0,.12,0,.23,0,.35s0,.45,0,.69a.63.63,0,0,1-.32.51l.32,0a.64.64,0,0,0,.42-.18c.9-.88,1.91-1.73,2.88-2.54l1.47-1.25a.66.66,0,0,0,.21-.55c-.48-4.19-.85-8.42-1.2-12.52L253.68,17a.66.66,0,0,0-.23-.43.61.61,0,0,0-.47-.14c-4.56.49-9.23.73-13.75,1Z"/><path class="cls-3" d="M246.44,21.87a8.33,8.33,0,0,0,1.46.11c.46,0,.92,0,1.36-.05s.88-.05,1.32-.05a.64.64,0,0,0,.64-.64.64.64,0,0,0-.64-.63c-.47,0-.94,0-1.39.06s-.86,0-1.29,0a6.77,6.77,0,0,1-1.24-.1.63.63,0,0,0-.22,1.25Z"/><path class="cls-3" d="M246.24,24.78a17.64,17.64,0,0,0,1.8.09c.84,0,1.72-.06,2.85-.17a.65.65,0,0,0,.57-.7.63.63,0,0,0-.7-.56,26.36,26.36,0,0,1-2.72.16c-.58,0-1.12,0-1.66-.08a.63.63,0,0,0-.7.56A.64.64,0,0,0,246.24,24.78Z"/><path class="cls-3" d="M251,26.56a.64.64,0,0,0-.64-.63,26.69,26.69,0,0,0-3.63.25.62.62,0,0,0-.54.71.63.63,0,0,0,.62.55h.09a25.77,25.77,0,0,1,3.46-.23A.64.64,0,0,0,251,26.56Z"/><path class="cls-3" d="M238.86,31.63c.84-.06,1.7-.06,2.53-.06a24.54,24.54,0,0,0,4.23-.27.64.64,0,0,0-.23-1.25,23.12,23.12,0,0,1-4,.25c-.85,0-1.73,0-2.62.07a.63.63,0,0,0-.59.67.63.63,0,0,0,.63.59Z"/><path class="cls-3" d="M245.32,33a17.72,17.72,0,0,0-3.51-.33c-.62,0-1.27,0-1.89-.08a.62.62,0,0,0-.69.57.63.63,0,0,0,.57.69c.67.06,1.34.08,2,.09a16.69,16.69,0,0,1,3.26.3h.14a.63.63,0,0,0,.14-1.25Z"/><path class="cls-3" d="M246.13,35c-.73,0-1.45,0-2.18,0l-1.53,0a12.44,12.44,0,0,0-3.38.4.63.63,0,0,0,.18,1.24l.17,0a11.06,11.06,0,0,1,3-.35c.5,0,1,0,1.49,0,.75,0,1.51,0,2.26,0a.64.64,0,0,0,.61-.66A.63.63,0,0,0,246.13,35Z"/><path class="cls-3" d="M249.75,39.86h0a.69.69,0,0,0,.31-.09l-.6,0A.71.71,0,0,0,249.75,39.86Z"/><path class="cls-3" d="M250.42,38.22a19.17,19.17,0,0,0-.17-2,5.21,5.21,0,0,1-.07-1.09,12.38,12.38,0,0,1,3.4.39l.51-.44c0-.25-.05-.51-.08-.77-3-.56-4.08-.69-4.7-.1s-.44,1.19-.31,2.17a17.22,17.22,0,0,1,.16,2.19l1,0Z"/><path class="cls-3" d="M256.63,20.37a.63.63,0,0,0-.54.3A.71.71,0,0,0,256,21a.92.92,0,0,0-.17.5.58.58,0,0,0,0,.19.88.88,0,0,0,.87.66h.11a.92.92,0,0,0,.78-1,.82.82,0,0,0-.14-.45A1,1,0,0,0,256.63,20.37Zm0,1.05-.16,0h.16v.19a.38.38,0,0,1-.23-.08.59.59,0,0,1,0-.22.38.38,0,0,1,.28-.29Z"/><path class="cls-3" d="M256.49,24.78c.21,1.9.36,3.8.5,5.64.07.9.14,1.81.22,2.73a.63.63,0,0,0,.63.58h.05a.64.64,0,0,0,.58-.69c-.08-.91-.15-1.82-.22-2.72-.14-1.85-.29-3.76-.51-5.68a.63.63,0,1,0-1.25.14Z"/><path class="cls-3" d="M262.27,40a.63.63,0,0,1,.13.82,3.51,3.51,0,0,0,.8.12,2.89,2.89,0,0,0,.78-.12.64.64,0,0,1,0-.83.64.64,0,0,1,.9,0l.24.26a1.22,1.22,0,0,0,.17-.15,3.18,3.18,0,0,0,.89-2.33,3,3,0,0,0-.43-1.43.81.81,0,0,1-.18.12,8,8,0,0,0-.94.45,1.86,1.86,0,0,1,.28.9,1.88,1.88,0,0,1-.53,1.41,1.6,1.6,0,0,1-1.19.5,1.65,1.65,0,0,1-1.31-.63c-.09.09-.18.17-.26.26a.62.62,0,0,1-.47.21.66.66,0,0,1-.42-.15.64.64,0,0,1-.06-.9,12.22,12.22,0,0,1,.87-.89,1.72,1.72,0,0,1,1.3-1.44,2.28,2.28,0,0,1,.45,0l.14,0a11.43,11.43,0,0,1,1.46-.78,2.88,2.88,0,0,0-1.58-.51,3.49,3.49,0,0,0-.71.07,3.06,3.06,0,0,0-2.36,3.15,3,3,0,0,0,1.05,2.19l.09-.14A.63.63,0,0,1,262.27,40Z"/><path class="cls-3" d="M267,45.17a7.42,7.42,0,0,0-1.84-5,3,3,0,0,1-1.14.62l0,.06a5.79,5.79,0,0,1,1.62,3.72c-1.43.15-2.93.33-4.44.61,0-.25,0-.48,0-.72a5.62,5.62,0,0,1,1.18-3.6.25.25,0,0,0,0-.07,3,3,0,0,1-1.11-.59,6.84,6.84,0,0,0-1.38,4.26,9.44,9.44,0,0,0,.14,1.57.64.64,0,0,0,.62.53l.13,0c1.9-.37,3.81-.59,5.59-.77A.62.62,0,0,0,267,45.17Z"/><path class="cls-3" d="M263.43,36.13a11.67,11.67,0,0,0-1.89,1.46,2,2,0,0,0,0,.42,1.76,1.76,0,0,0,.37,1.05,11.24,11.24,0,0,1,2.75-2.18A1.61,1.61,0,0,0,263.43,36.13Z"/><path class="cls-3" d="M265.75,36.31a.63.63,0,0,0,.18-.71.64.64,0,0,0-.83-.35l-.21.1A3.05,3.05,0,0,1,265.75,36.31Z"/><path class="cls-3" d="M272.28,22.74a.62.62,0,0,0-.33-.59c-.87-.47-1.72-1-2.55-1.61-.51-.35-1-.71-1.58-1.05a.69.69,0,0,0-.58,0,.66.66,0,0,0-.37.44,27.65,27.65,0,0,1-1.59,4.71.63.63,0,0,0,.12.7.65.65,0,0,0,.69.15c.66-.26,1.35-.51,2-.75a17.65,17.65,0,0,1,.64,4.76,21.39,21.39,0,0,1-1.27,7.14.64.64,0,0,0,.39.81.52.52,0,0,0,.21,0,.63.63,0,0,0,.6-.42A22.92,22.92,0,0,0,270,29.45a18.78,18.78,0,0,0-.7-5.18c.82-.29,1.71-.61,2.58-1A.62.62,0,0,0,272.28,22.74Zm-4,.54-.07,0-1.24.44a27.57,27.57,0,0,0,.88-2.7l.81.55c.5.33,1,.68,1.52,1C269.56,22.84,268.91,23.07,268.31,23.28Z"/><path class="cls-3" d="M247.21,45.91a14.81,14.81,0,0,0-10.64,4.82.63.63,0,0,0,0,.89.65.65,0,0,0,.43.17.63.63,0,0,0,.46-.2,13.31,13.31,0,0,1,11.15-4.32.64.64,0,0,0,.16-1.26A12.17,12.17,0,0,0,247.21,45.91Z"/><path class="cls-3" d="M251.82,46.55a.6.6,0,0,0-.27-.06.63.63,0,0,0-.62.53.82.82,0,0,0-.12.43,1.19,1.19,0,0,0,1.06,1.08,1.09,1.09,0,0,0,1-1.14,1.19,1.19,0,0,0-.2-.66A.64.64,0,0,0,251.82,46.55Z"/><path class="cls-3" d="M266.46,60.43a.63.63,0,0,0,.62.53h.11a.63.63,0,0,0,.52-.73,19,19,0,0,1-.22-2l-1.26.18C266.28,59.09,266.35,59.76,266.46,60.43Z"/><path class="cls-3" d="M267.38,56.58c0-.65-.06-1.33-.12-2a.63.63,0,0,0-.68-.58.64.64,0,0,0-.58.69c.05.66.09,1.32.12,2l0,.52c.42-.05.84-.11,1.26-.19Z"/><path class="cls-3" d="M269.74,57.14a.63.63,0,0,0-.76-.47c-.51.12-1,.22-1.57.31,0,.43,0,.86.08,1.28.6-.11,1.2-.22,1.79-.36A.62.62,0,0,0,269.74,57.14Z"/><path class="cls-3" d="M263.86,57.38a.63.63,0,0,0,0,1.26h0c.78,0,1.54-.1,2.31-.2,0-.43-.06-.85-.08-1.27C265.39,57.27,264.63,57.34,263.86,57.38Z"/><path class="cls-3" d="M249.88,70.47l-.06-3.18a3.72,3.72,0,0,0-2.59-1.08h0a3.83,3.83,0,0,0-.82.1h0c-.26.48-.51,1-.78,1.43a.62.62,0,0,1-.86.24.6.6,0,0,1-.31-.45,3.71,3.71,0,0,0-.82,2.3c0,.11,0,.21,0,.31l.77-.11a.6.6,0,0,1,.5.16c0-.11,0-.23,0-.34a2.35,2.35,0,0,1,1.83-2.32,2.6,2.6,0,0,1,.56-.06,2.46,2.46,0,0,1,2.43,2.39,2.54,2.54,0,0,1-.75,1.75,2.3,2.3,0,0,1-3.35,0,2.42,2.42,0,0,1-.51-.76.65.65,0,0,1-.51.43c-.22,0-.43.06-.64.09a3.69,3.69,0,0,0,.76,1.13,3.55,3.55,0,0,0,5.15,0,3.91,3.91,0,0,0,.9-1.46.65.65,0,0,1-.2,0A.63.63,0,0,1,249.88,70.47Z"/><path class="cls-3" d="M250.88,58.58l.07-.11c0-.58,0-1.16,0-1.75a.64.64,0,0,0-.5-.62.63.63,0,0,0-.71.34l-.87,1.84c-1.38,2.94-2.8,6-4.42,8.85a.65.65,0,0,0-.07.41,3.58,3.58,0,0,1,1.95-1.22c1.19-2.23,2.28-4.51,3.34-6.75,0,2.18.06,4.37.1,6.51l0,1.21a3.69,3.69,0,0,1,1.1,2.57,3.51,3.51,0,0,1-.21,1.19.62.62,0,0,0,.43-.6c0-1.47,0-2.94-.08-4.4-.05-2.26-.1-4.59-.1-6.88A.62.62,0,0,1,250.88,58.58Z"/><path class="cls-3" d="M257.59,71.34c1.19,0,2.43-.07,3.65-.17a.66.66,0,0,0,.45-.25.68.68,0,0,0,.12-.51l-.19-.89c-1.2-5.83-3.72-18-12.78-18-7,0-14.73,7-14.73,17.09a18.19,18.19,0,0,0,.35,3.55.64.64,0,0,0,.62.51h.1c2.83-.44,5.74-.89,8.72-1.29a3.76,3.76,0,0,1-.3-1.24c-1.35.18-2.69.37-4,.57a.64.64,0,0,1-.52.49H239a.63.63,0,0,1-.55-.32l-2.82.44a16.33,16.33,0,0,1-.22-2.71c0-7.47,5.76-15.83,13.46-15.83,8,0,10.31,11.05,11.54,17l0,.18c-.87.05-1.75.08-2.62.11,0,.08,0,.15,0,.23a.64.64,0,0,1-.6.67h0a.64.64,0,0,1-.64-.6,2.28,2.28,0,0,0,0-.26,39.61,39.61,0,0,0-4.34.33.64.64,0,0,0,.18,1.26A45.46,45.46,0,0,1,257.59,71.34Z"/><path class="cls-3" d="M245.09,70.58a.7.7,0,0,0-.22-.38,2.55,2.55,0,0,0,.18.67A.68.68,0,0,0,245.09,70.58Z"/><path class="cls-3" d="M239.49,69c0-5.35,3.92-10.06,8.92-10.72a.63.63,0,0,0,.55-.71.64.64,0,0,0-.72-.54,11.69,11.69,0,0,0-9.06,7.25.69.69,0,0,1,0,.32.62.62,0,0,1-.26.35,12.23,12.23,0,0,0-.7,4,11.1,11.1,0,0,0,.13,1.73.71.71,0,0,0,.07.22l1.17-.18a.59.59,0,0,0,0-.23A11.17,11.17,0,0,1,239.49,69Z"/><path class="cls-3" d="M257.8,70.07a20.71,20.71,0,0,0-1.62-7.4.63.63,0,0,1-.33-.64,8.07,8.07,0,0,0-4.14-3.8.63.63,0,0,0-.76.24v.21c0,.16,0,.32,0,.49a.53.53,0,0,0,.28.23c3.18,1.28,4.91,4.78,5.29,10.71l1,0Z"/><path class="cls-3" d="M238.74,63.77l-.8-.27c-.29-.1-.59-.21-.89-.29a.63.63,0,0,0-.35,1.21c.27.08.53.17.81.27s.58.21.89.3l.17,0a.61.61,0,0,0,.35-.11c.08-.22.17-.45.26-.67A.62.62,0,0,0,238.74,63.77Z"/><path class="cls-3" d="M241.24,58.92a2.47,2.47,0,0,1-.41-.35,2.94,2.94,0,0,0-.64-.54.64.64,0,0,0-.66,1.09,2.07,2.07,0,0,1,.41.35,3.22,3.22,0,0,0,.64.53.59.59,0,0,0,.33.09.65.65,0,0,0,.54-.3A.63.63,0,0,0,241.24,58.92Z"/><path class="cls-3" d="M245.4,56.18a5.22,5.22,0,0,0-.38-1.11.63.63,0,1,0-1.13.56,4.68,4.68,0,0,1,.28.87c.06.2.11.39.17.58a.63.63,0,0,0,.6.43.69.69,0,0,0,.2,0,.63.63,0,0,0,.4-.8C245.49,56.52,245.44,56.35,245.4,56.18Z"/><path class="cls-3" d="M249,55.32V55a2.2,2.2,0,0,0-.26-1.13.64.64,0,0,0-1.09.66.85.85,0,0,1,.09.47c0,.08,0,.17,0,.26s0,.21,0,.31a.64.64,0,0,0,.64.63.63.63,0,0,0,.63-.63A2.44,2.44,0,0,1,249,55.32Z"/><path class="cls-3" d="M253.69,58.25a.55.55,0,0,0,.28.07.64.64,0,0,0,.57-.35c.08-.17.17-.36.25-.55s.15-.34.23-.5a.63.63,0,1,0-1.13-.56c-.09.16-.17.36-.26.55s-.15.34-.23.49A.63.63,0,0,0,253.69,58.25Z"/><path class="cls-3" d="M256.57,62.77a1.31,1.31,0,0,0,.56-.14l.1,0a.63.63,0,0,0,0-1.26,1.4,1.4,0,0,0-.57.14l-.06,0a.63.63,0,0,0-.7.42s0,.08,0,.11c.12.21.22.42.33.64a.26.26,0,0,0,.09,0A.79.79,0,0,0,256.57,62.77Z"/><path class="cls-3" d="M250,77.32h-.15a2.31,2.31,0,0,0-2.12,2.45A2.24,2.24,0,0,0,250,82a2.21,2.21,0,0,0,1.58-.67,2.35,2.35,0,0,0,.68-1.72,2.28,2.28,0,0,0-.76-1.67A2.5,2.5,0,0,0,250,77.32Zm.67,3.1a.94.94,0,0,1-.69.29,1,1,0,0,1-1-1,1.06,1.06,0,0,1,.89-1.14H250a1.23,1.23,0,0,1,.71.3,1,1,0,0,1,.31.72A1.06,1.06,0,0,1,250.7,80.42Z"/><path class="cls-3" d="M257,85.16c0-.3,0-.58-.05-.83a2.74,2.74,0,0,1,.88-.18c.88-.1,2.51-.28,2.51-2.05a4.87,4.87,0,0,0-.35-1.51,4.19,4.19,0,0,1-.27-.93,3.45,3.45,0,0,1,1.16-.36c1.24-.27,3.33-.71,3.33-3,0-.11,0-.22,0-.34a.63.63,0,1,0-1.26.11c0,.08,0,.15,0,.23,0,1.18-.88,1.45-2.32,1.76-1,.2-2.15.46-2.15,1.58a4.39,4.39,0,0,0,.32,1.37,3.8,3.8,0,0,1,.28,1.09c0,.53-.23.66-1.38.79-.74.08-2,.22-2,1.44,0,.3,0,.61,0,.91v.09H257A.91.91,0,0,0,257,85.16Z"/><path class="cls-3" d="M242.86,84.47a3.58,3.58,0,0,0-1.55.27,2.85,2.85,0,0,0-1,.59h4.31A2.81,2.81,0,0,0,242.86,84.47Z"/><path class="cls-3" d="M231,78.76a.63.63,0,0,1,.74.5c0,.17.09.33.14.49l1.31-.53.11,0a.64.64,0,0,0,.38-.5.6.6,0,0,0-.23-.58c-.48-.39-.93-.82-1.41-1.28s-.8-.76-1.22-1.13a.64.64,0,0,0-.61-.12.66.66,0,0,0-.42.45c-.11.41-.2.83-.3,1.25-.19.81-.39,1.65-.65,2.45a.65.65,0,0,0,.14.64.66.66,0,0,0,.46.19l.17,0c.36-.1.72-.22,1.07-.34-.06-.23-.14-.46-.18-.69A.63.63,0,0,1,231,78.76Zm-.28-1.2c0-.07,0-.14.05-.2l.39.38.7.66c-.5.2-1,.39-1.48.56C230.54,78.49,230.65,78,230.76,77.56Z"/><path class="cls-3" d="M231.92,79.75c-.4.16-.79.3-1.2.44a11.94,11.94,0,0,0,3,5.14h1.88A10.84,10.84,0,0,1,231.92,79.75Z"/><path class="cls-3" d="M113.18,78.84c-.28-.6-.57-1.21-.86-1.81a.63.63,0,0,0-.84-.3.64.64,0,0,0-.3.85c.29.6.57,1.2.85,1.8.93,2,1.88,4,3,6h1.46C115.25,83.21,114.2,81,113.18,78.84Z"/><path class="cls-3" d="M128.18,83.15c.9,0,1.81,0,2.69.07,1.1,0,2.23.08,3.34.08h.73c-.58.6-1.19,1.27-1.85,2h1.69c.79-.87,1.5-1.61,2.21-2.27a.64.64,0,0,0,.14-.72.6.6,0,0,0-.62-.37c-.7,0-1.45.06-2.3.06-1.09,0-2.21,0-3.29-.07s-2.24-.08-3.4-.08a.64.64,0,0,0-.45.19.61.61,0,0,0-.18.46c0,.93.07,1.87.13,2.8h1.27C128.24,84.6,128.2,83.87,128.18,83.15Z"/><path class="cls-3" d="M148.51,83.17c0-.7,0-1.4,0-2.1V80.2a.64.64,0,0,0-.19-.45.65.65,0,0,0-.47-.18c-1.53.07-3.08.12-4.62.14,2.52-2.44,6.44-5.83,9-7.94,2.52,3,4.87,5.74,7.14,8.19-1.49.11-3.11.21-4.72.23a.63.63,0,0,0-.46.2.6.6,0,0,0-.16.47c.08,1.49.13,3,.18,4.47h.69a.62.62,0,0,1,.05-.5.64.64,0,0,1,.5-.31c0-1-.07-2-.12-3.08,1.91,0,3.81-.18,5.46-.32a.63.63,0,0,0,.54-.4.62.62,0,0,0-.13-.66c-2.66-2.81-5.4-6-8.39-9.58a.63.63,0,0,0-.89-.09c-1.56,1.27-3.77,3.14-5.88,5a.62.62,0,0,1-.54.95.59.59,0,0,1-.37-.14c-1.53,1.38-2.93,2.7-3.91,3.72a.61.61,0,0,0-.12.69.62.62,0,0,0,.58.38c1.84,0,3.71-.06,5.55-.14v2.31c0,.71,0,1.43,0,2.16h1.26C148.52,84.6,148.51,83.88,148.51,83.17Z"/><path class="cls-3" d="M141.34,67.2c.76.28,1.52.61,2.26.93a18.41,18.41,0,0,0,5.31,1.68H149a.64.64,0,0,0,.07-1.27A17.25,17.25,0,0,1,144.11,67c-.76-.33-1.54-.67-2.34-1a.63.63,0,1,0-.43,1.19Z"/><path class="cls-3" d="M160.77,72.4a.76.76,0,0,0,.76-.8.84.84,0,0,0-.43-.75,1.25,1.25,0,0,0-.47-.22.65.65,0,0,0-.46-.2.64.64,0,0,0-.64.63c0,.78.33,1.1.69,1.21A1.21,1.21,0,0,0,160.77,72.4Z"/><path class="cls-3" d="M135.72,72.12a.63.63,0,0,1-.13-1.25l.26,0c0-3.44-.09-7.2-.37-10.93a.64.64,0,0,0-.62-.59l-3.27-.09-1.59,0c.06.18.11.34.16.47a.62.62,0,0,1-.31.79l1.69,0,2.71.09c.07,1,.13,2,.17,3a.65.65,0,0,1,.31,0,.64.64,0,0,1,.39.81,7,7,0,0,1-.63,1.33c.08,2.65.1,5.23.1,7.57v2c-3,0-6,.14-9,.27-2.7.12-5.49.24-8.23.26-.2-2.44-.37-4.91-.52-7.31,0-.73-.1-1.48-.15-2.23A19.8,19.8,0,0,1,115.35,64a.63.63,0,0,1,1.13-.57l0,.1c-.06-.77-.11-1.53-.17-2.3a46.08,46.08,0,0,1,9.47-.82c1.14,0,2.29,0,3.44.06a.63.63,0,0,1-.29-.31c-.1-.26-.2-.58-.3-.92,0,0,0,0,0-.06-.94,0-1.89,0-2.83,0-1.85,0-3.51.07-5,.19a2.49,2.49,0,0,0-.09.37.63.63,0,0,1-1.26-.14s0-.06,0-.1a38,38,0,0,0-3.91.65.63.63,0,0,0-.49.68c.22,2.63.4,5.32.57,7.92s.35,5.27.58,7.91a.62.62,0,0,0,.63.58c3,0,6-.14,8.87-.27s6.1-.26,9.13-.26h.39a.65.65,0,0,0,.63-.63c0-.89,0-1.77,0-2.65,0-.4,0-.82,0-1.23h-.13Z"/><path class="cls-3" d="M125.73,55.85c1.78,0,2.38,1.48,2.93,3.28l1.34,0c0-.11-.07-.22-.11-.34-.47-1.59-1.28-4.25-4.16-4.25s-5.89,1.94-6.28,4.83l1.34-.13C121.26,57.25,123.67,55.85,125.73,55.85Z"/><path class="cls-3" d="M129.57,60.51a.52.52,0,0,0,.24,0s0,0,0,0h-.58A.62.62,0,0,0,129.57,60.51Z"/><path class="cls-3" d="M122.47,69.06a.63.63,0,0,1-.63.58h0c.08.54.18,1.07.28,1.55a.63.63,0,0,0,.62.51c1.51,0,3.27,0,5-.06a.65.65,0,0,0,.45-.2.69.69,0,0,0,.17-.46c0-.2,0-.41,0-.62h0a.52.52,0,0,1-.21,0,.63.63,0,0,1-.22-1.23l.47-.19c0-.5,0-1,.08-1.55a.61.61,0,0,0-.19-.49.62.62,0,0,0-.5-.19c-1.21.11-2.45.12-3.39.12h-2.1a.63.63,0,0,0-.64.64c0,.28,0,.55,0,.82l.26,0A.63.63,0,0,1,122.47,69.06Zm1.87-.91c.78,0,1.76,0,2.77-.07,0,.63-.06,1.25-.06,1.87,0,.15,0,.29,0,.44-1.33,0-2.65,0-3.84,0a18.84,18.84,0,0,1-.32-2.29Z"/><path class="cls-3" d="M121.79,69.64h0c-.07-.43-.12-.86-.16-1.31-2.47-.35-3.93-2.52-5.11-4.85l.21,2.86A6.85,6.85,0,0,0,121.79,69.64Z"/><path class="cls-3" d="M133.92,64c-.74,2.15-2.62,3.81-5.58,5,0,.33,0,.64,0,1,0,.14,0,.28,0,.41,3-1.06,5-2.6,6.16-4.59,0-.71,0-1.43-.07-2.15A.62.62,0,0,0,133.92,64Z"/><path class="cls-3" d="M107,66.51a.63.63,0,0,0,.45.18.62.62,0,0,0,.44-.18,2.21,2.21,0,0,0,.75-1.56,3.36,3.36,0,0,0-1.36-2.25c-.48-.46-1-.94-1-1.34s.37-.8.77-1.26a3.89,3.89,0,0,0,1.23-2.49c0-1.43-1.29-1.73-2.22-2-1.18-.28-1.63-.46-1.63-1.26a4.63,4.63,0,0,1,.87-2,3.5,3.5,0,0,0,.72-1.64c0-.93-.75-1.47-1.42-1.94s-1-.74-1-1.12a1.77,1.77,0,0,1,1.13-1.33.63.63,0,0,0-.49-1.17,3,3,0,0,0-1.91,2.5c0,1.06.85,1.66,1.54,2.15.43.31.88.63.88.9a4.33,4.33,0,0,1-.52,1,5.4,5.4,0,0,0-1.06,2.64c0,1.88,1.56,2.25,2.6,2.49s1.24.37,1.24.72a2.88,2.88,0,0,1-.92,1.66,3.36,3.36,0,0,0-1.08,2.09,3.38,3.38,0,0,0,1.36,2.25c.48.46,1,.94,1,1.34a1,1,0,0,1-.37.66A.63.63,0,0,0,107,66.51Z"/><path class="cls-3" d="M104.26,34.13a.63.63,0,0,0-1.26,0c0,.68,0,1.32,0,1.95q.63-.06,1.26-.15C104.28,35.35,104.26,34.76,104.26,34.13Z"/><path class="cls-3" d="M103.4,39.29a.64.64,0,0,0,.63.53h.11a.64.64,0,0,0,.51-.74c-.1-.6-.18-1.22-.24-1.88l-1.26.15C103.21,38,103.29,38.67,103.4,39.29Z"/><path class="cls-3" d="M105.1,37.1l1.18-.16a.63.63,0,0,0-.15-1.26l-1.2.16-.62.09c0,.43.06.86.1,1.26Z"/><path class="cls-3" d="M100.82,36.81a.63.63,0,0,0,.63.63,16,16,0,0,0,1.7-.1c0-.41-.07-.83-.1-1.26-.53.05-1.06.09-1.6.09A.64.64,0,0,0,100.82,36.81Z"/><path class="cls-3" d="M110.58,29.66a3.63,3.63,0,0,0,0-.66,2.17,2.17,0,0,0-2.32-2,2.28,2.28,0,0,0-1.1.28A2.34,2.34,0,0,0,106,29.4a2.29,2.29,0,0,0,2,2.32h.17A2.48,2.48,0,0,0,110.58,29.66Zm-1.26-.11a1.22,1.22,0,0,1-1.23.9,1,1,0,0,1-.88-1.06,1.13,1.13,0,0,1,.55-1,1.07,1.07,0,0,1,.51-.12.93.93,0,0,1,1,.86A2.93,2.93,0,0,1,109.32,29.55Z"/><path class="cls-3" d="M103,24a1.48,1.48,0,0,0-.44,1,1.07,1.07,0,0,0,1,1.13c.17,0,1-.06,1-1.19a1.29,1.29,0,0,0-.06-.42,1.12,1.12,0,0,0-1.1-.74A.64.64,0,0,0,103,24Zm.46,1.08a.18.18,0,0,1-.08-.08l.08-.07Z"/><path class="cls-3" d="M107.23,11.12a.62.62,0,0,0-.87.2,20.76,20.76,0,0,0-2.87,9.8.64.64,0,0,0,.6.67h0a.63.63,0,0,0,.63-.59A19.52,19.52,0,0,1,107.44,12,.63.63,0,0,0,107.23,11.12Z"/><path class="cls-3" d="M112,.8c0,.38,0,.76,0,1.14l.06,1.32c.43,0,.85-.07,1.27-.12,0-.41,0-.83-.06-1.25L113.27.73a.61.61,0,0,0-.22-.44h-.81A.6.6,0,0,0,112,.8Z"/><path class="cls-3" d="M112.44,6.75a.64.64,0,0,0,.63.54h.09a.64.64,0,0,0,.54-.72c-.11-.73-.18-1.44-.24-2.15q-.61.07-1.26.12C112.26,5.26,112.33,6,112.44,6.75Z"/><path class="cls-3" d="M110.6,3.35l-1.06,0a.64.64,0,0,0,0,1.27h0l1,0,1.54-.08c0-.43,0-.85-.08-1.27C111.63,3.3,111.12,3.32,110.6,3.35Z"/><path class="cls-3" d="M115,4.15a.63.63,0,0,0,.48-.76.64.64,0,0,0-.77-.47,11,11,0,0,1-1.28.22c0,.43,0,.85.07,1.27A12.37,12.37,0,0,0,115,4.15Z"/><path class="cls-3" d="M124.31,10.1a2.32,2.32,0,0,0,1.58-.61,2.28,2.28,0,0,0,.75-1.59,2.35,2.35,0,0,0-.73-1.72,2.31,2.31,0,0,0-1.75-.67,3.06,3.06,0,0,0-.51.1,2.21,2.21,0,0,0-1.52,2.09,2.27,2.27,0,0,0,2,2.39Zm-.91-2.36a.94.94,0,0,1,.63-.92.78.78,0,0,1,.21,0,1.11,1.11,0,0,1,1.13,1.08,1,1,0,0,1-.34.69,1,1,0,0,1-.8.28A1,1,0,0,1,123.4,7.74Z"/><path class="cls-3" d="M137.46.75a.62.62,0,0,0-.78.44,8.76,8.76,0,0,0-.3,2.28,12.1,12.1,0,0,0,7.84,10.67l.2,0a.65.65,0,0,0,.61-.43.63.63,0,0,0-.4-.8,10.75,10.75,0,0,1-7-9.47,7.57,7.57,0,0,1,.26-1.95A.63.63,0,0,0,137.46.75Z"/><path class="cls-3" d="M150.29,14.49a8.52,8.52,0,0,0,3.4-.77.63.63,0,0,0,.33-.83.64.64,0,0,0-.84-.33,6.21,6.21,0,0,1-4.58.38.63.63,0,0,0-.81.39.62.62,0,0,0,.38.8A6.25,6.25,0,0,0,150.29,14.49Z"/><path class="cls-3" d="M115.89,31.93c-.19-4.39-.39-8.92-.39-13.38,0-1.52,0-2.94.07-4.32l1.63-.06,2.21-.09c0,1.29-.06,2.61-.06,4,0,3.86.15,7.77.3,11.56.13,3.61.26,7.33.28,11l1.26,0c0-3.7-.14-7.45-.28-11.08s-.28-7.6-.29-11.4l-.57,0a.63.63,0,0,1-.69-.57.62.62,0,0,1,.57-.69l.7-.05c0-1.22,0-2.39.07-3.52a.61.61,0,0,0-.19-.48.63.63,0,0,0-.49-.18c-.94.07-1.92.1-2.87.14l-2.23.09a.64.64,0,0,0-.6.61c-.06,1.58-.08,3.19-.08,4.94,0,4.49.19,9,.39,13.43.12,2.82.24,5.73.31,8.61l1.27,0C116.14,37.7,116,34.77,115.89,31.93Z"/><path class="cls-3" d="M120.62,18.22c.37,0,.74,0,1.14,0,1,0,2,.07,3,.13.73.05,1.48.09,2.23.11-.09,7.18-.1,14.17-.1,22.41l1.27,0c0-8.5,0-15.66.1-23.06a.57.57,0,0,0-.14-.39c0,.15,0,.3-.05.45a.63.63,0,0,1-1.26-.14c0-.19,0-.39.07-.58-.69,0-1.37-.06-2-.11-1-.06-2-.12-3-.12-.39,0-.77,0-1.13,0,0,.39,0,.76,0,1.16Z"/><path class="cls-3" d="M133.34,21.43h-.1a.63.63,0,0,1-.62-.64c.1,7,.23,13.9.35,20.22l1.27,0c-.12-6.14-.25-12.84-.35-19.64Z"/><path class="cls-3" d="M128.05,17.36l0,.06c0-.38.09-.76.13-1.14l.18-1.52,1.68.07c.8,0,1.63.08,2.46.09,0,2,.05,3.91.08,5.87a.63.63,0,0,1,.63-.63h.62c0-2-.05-3.92-.07-5.87a.64.64,0,0,0-.19-.45.64.64,0,0,0-.45-.18c-1,0-2,0-3-.08-.75,0-1.53-.08-2.3-.09a.63.63,0,0,0-.64.57c-.07.69-.16,1.39-.24,2.08,0,.34-.07.68-.11,1l.76,0A.63.63,0,0,1,128.05,17.36Z"/><polygon class="cls-3" points="132.62 20.79 132.62 20.79 132.62 20.79 132.62 20.79"/><path class="cls-3" d="M135.66,21.37c0,1,0,2,0,3q0,3.18,0,6.36c0,4,0,7.34.15,10.33l1.27,0c-.1-3-.15-6.32-.15-10.38q0-3.18,0-6.35c0-1.24,0-2.47,0-3.7a.64.64,0,0,0-.19-.46.65.65,0,0,0-.46-.18l-.41,0-2,0c0,.42,0,.84,0,1.26C134.49,21.41,135.08,21.39,135.66,21.37Z"/><path class="cls-3" d="M139.91,28.66c0-2.64,0-5.36-.12-8,.59,0,1.23,0,2,0h1.06c0,.85-.06,1.73-.1,2.58-.05,1.06-.11,2.17-.11,3.24a.64.64,0,0,0,.64.63.63.63,0,0,0,.63-.63c0-1,.06-2.13.11-3.18s.11-2.18.11-3.27a.63.63,0,0,0-.63-.63h-.06l-1.65,0c-1,0-1.87,0-2.64.07a.63.63,0,0,0-.6.65c.08,2.88.11,5.81.13,8.64,0,4.11.08,8.35.29,12.54l1.27,0C140,37.06,140,32.79,139.91,28.66Z"/><path class="cls-3" d="M130.36,20.23a.63.63,0,0,0-.63.63c0,4.09,0,8.31-.1,12.46a.64.64,0,0,0,.64.65.63.63,0,0,0,.63-.62c.1-4.16.1-8.39.1-12.49A.64.64,0,0,0,130.36,20.23Z"/><path class="cls-3" d="M117,25.3c1.57,0,1.68-1,1.68-2.71a12.29,12.29,0,0,0-.68-3.91.69.69,0,0,0-.4-.4.66.66,0,0,0-.56.08,1.45,1.45,0,0,1-.41.12,2.41,2.41,0,0,0-.43.1.64.64,0,0,0-.43.64c0,.13,0,.27,0,.41,0,.46,0,.93-.07,1.43s-.07,1-.07,1.5C115.64,24.38,116.1,25.3,117,25.3Zm0-4.15c0-.4.06-.81.07-1.22a10.2,10.2,0,0,1,.37,2.66,4.33,4.33,0,0,1-.12,1.43h-.18a3.55,3.55,0,0,1-.21-1.47C116.9,22.11,116.94,21.64,117,21.15Z"/><path class="cls-3" d="M117.3,28.36a1.94,1.94,0,0,1,.66,0,.64.64,0,0,0,.25-1.25,3.16,3.16,0,0,0-1.11,0,5,5,0,0,1-.5.05.64.64,0,0,0,0,1.27A4.88,4.88,0,0,0,117.3,28.36Z"/><path class="cls-3" d="M118.09,29.14a4,4,0,0,0-.51.05,1.25,1.25,0,0,1-.5,0,.63.63,0,1,0-.56,1.13,1.45,1.45,0,0,0,.7.16,3,3,0,0,0,.55-.06l.32,0a.63.63,0,0,0,.63-.63A.64.64,0,0,0,118.09,29.14Z"/><path class="cls-3" d="M123.23,21.47a.63.63,0,0,0-.47.55.65.65,0,0,0-.5.12,1.9,1.9,0,0,0-.74,1.54,1.83,1.83,0,0,0,1.63,1.91,2.69,2.69,0,0,0,2.35-2.4A1.87,1.87,0,0,0,123.23,21.47Zm-.08,2.86a.66.66,0,0,1-.37-.65.68.68,0,0,1,.24-.53.62.62,0,0,0,.25-.44.5.5,0,0,0,.27,0h.1a.6.6,0,0,1,.6.5C124.24,23.58,123.58,24.33,123.15,24.33Z"/><path class="cls-3" d="M123.87,27.67a.65.65,0,0,0-.66-.61.64.64,0,0,0-.61.66c0,.7,0,1.39.05,2.08a37.35,37.35,0,0,0,.36,5.32.64.64,0,0,0,.62.54h.1a.64.64,0,0,0,.53-.73,35.13,35.13,0,0,1-.34-5.14C123.91,29.08,123.9,28.38,123.87,27.67Z"/><path class="cls-3" d="M152.67,45.28a.64.64,0,0,1-.06-1.27l.26,0c0-.36,0-.71,0-1s0-.51,0-.76c-.19,0-.38,0-.55-.06a.63.63,0,0,1-.52-.73.59.59,0,0,1,.17-.32.7.7,0,0,1-.29,0h-.07c0,.62,0,1.24,0,1.82-.06,5.51,0,8.19.8,9a1,1,0,0,0,.69.3c.13,0,.13,0,.67-.2,4.26-1.61,7-2.42,8.18-2.42,2.11,0,3.37,1,4.82,2.07a9.81,9.81,0,0,0,6.48,2.58,13.37,13.37,0,0,0,5.4-1.31c-.09-.14-.18-.28-.28-.41a.64.64,0,0,1,1-.76c.16.21.3.44.45.65h0c.82-.37,1.67-.74,2.63-1.12l.17.16a.66.66,0,0,1-.14-.44c0-.37,0-.73,0-1.08l-.11,0c-1.16.44-2.2.9-3.11,1.3-2.18,1-3.91,1.73-6.09,1.73-2.68,0-4.15-1.13-5.71-2.33s-3-2.33-5.59-2.33c-1.34,0-4.16.82-8.62,2.5l-.11,0a25,25,0,0,1-.36-5.64h-.19Z"/><path class="cls-3" d="M152.4,40.56a.57.57,0,0,1-.18.36.62.62,0,0,1,.33,0l.35,0c0-4.2-.16-5.2-1-5.32l-.86-.12,0,.09-.12.29a.66.66,0,0,1-.59.38.57.57,0,0,1-.25-.06.63.63,0,0,1-.33-.83l0-.05c-2.56-.37-3.92-.59-4.63-.72v.52a.63.63,0,0,1-.63.63.64.64,0,0,1-.64-.63v-.23c0-.15,0-.3,0-.45-1.53.16-2.47,1.56-2.47,3.76a7.34,7.34,0,0,0,0,.81.63.63,0,1,0,1.26-.14,5,5,0,0,1,0-.67c0-.58.1-2.45,1.42-2.53.75.2,3.45.62,7.42,1.17a15.82,15.82,0,0,1,.19,3h.21A.63.63,0,0,1,152.4,40.56Z"/><path class="cls-3" d="M183.15,51.73h0a.64.64,0,0,1-.39-.18,7.29,7.29,0,0,0,3.86,2c.32-.13.65-.25,1-.36a.64.64,0,0,1,.54.06c.18.11.35.23.52.35a5,5,0,0,0,3.31-1.72c-.06-.27-.13-.53-.21-.79a.62.62,0,0,1,0-.27l-.47-.07a4,4,0,0,1-3.52,1.64,5.85,5.85,0,0,1-3.92-1.57c0,.11,0,.21,0,.32A.63.63,0,0,1,183.15,51.73Zm8-.66a.63.63,0,0,1,.71.55l-.63.08.63-.06-.62.12-.63.08v-.06A.64.64,0,0,1,191.15,51.07Z"/><path class="cls-3" d="M142.84,41a11,11,0,0,0,2.7.3c.83,0,1.68-.06,2.49-.12a22,22,0,0,1,3.6-.06V39.85a24.17,24.17,0,0,0-3.69.06c-.79.06-1.61.12-2.4.12a8.77,8.77,0,0,1-3.09-.47.63.63,0,0,0-.44,1.19l.13,0a.52.52,0,0,1,.25,0A.63.63,0,0,1,142.84,41Z"/><path class="cls-3" d="M166.52,67.9a.62.62,0,0,0-.27-.42.65.65,0,0,0-.49-.1,13.93,13.93,0,0,1-3,.35,56.52,56.52,0,0,1-12.11-2.27c-6-1.82-9.36-4.06-9.36-6.31a83.44,83.44,0,0,1,.91-10.62c.28-2.12.55-4.3.73-6.46a.62.62,0,0,1-.64.53l-.69,0c-.06.65-.11,1.3-.18,2l.54,0a.64.64,0,0,1,.05,1.27l-.74,0c-.11.86-.21,1.72-.32,2.56a3.11,3.11,0,0,0,0,.32l.21.05a.63.63,0,0,1,.55.7A.64.64,0,0,1,141,50H141l-.21-.05a72.09,72.09,0,0,0-.73,9.21C140,66,159.64,69,162.75,69a14.47,14.47,0,0,0,2.62-.25c.65,4.19,1.74,11.75,2.44,16.58h1.28C168.36,80.24,167.16,72,166.52,67.9Z"/><path class="cls-3" d="M142.93,42c0-.17,0-.34,0-.52a.65.65,0,0,0-.14-.43c-.24-.06-.47-.13-.7-.21a.65.65,0,0,0-.42.52l.6,0A.63.63,0,0,1,142.93,42Z"/><path class="cls-3" d="M164.34,56.27a.63.63,0,0,0,.56-.33.64.64,0,0,0-.27-.86,7,7,0,0,0-3.34-.77,16.53,16.53,0,0,0-3.95.6.63.63,0,1,0,.31,1.23,15.42,15.42,0,0,1,3.64-.56,5.72,5.72,0,0,1,2.75.62A.66.66,0,0,0,164.34,56.27Z"/><path class="cls-3" d="M165.43,57.59c-.32,0-.64-.11-1-.18a8.15,8.15,0,0,0-1.91-.27.63.63,0,0,0-.63.63.64.64,0,0,0,.63.64,7.71,7.71,0,0,1,1.64.23c.35.08.72.16,1.09.21h.08a.64.64,0,0,0,.08-1.27Z"/><path class="cls-3" d="M166.24,40.56c0-.33,0-.62,0-.9a.64.64,0,1,0-1.27.09c0,.25,0,.51,0,.81s0,.82,0,1.23a.31.31,0,0,1,0,.1c.43,0,.85,0,1.27-.07C166.22,41.39,166.24,41,166.24,40.56Z"/><path class="cls-3" d="M165,44.63a.63.63,0,0,0,.63.54h.09a.65.65,0,0,0,.54-.72,8.92,8.92,0,0,1-.09-1.36c-.41,0-.84.06-1.26.07A10.73,10.73,0,0,0,165,44.63Z"/><path class="cls-3" d="M163.15,42.46a.62.62,0,0,0,.58.68q.42,0,.87,0h.31v-.07c0-.4,0-.8,0-1.2l-.33,0c-.27,0-.52,0-.77,0A.62.62,0,0,0,163.15,42.46Z"/><path class="cls-3" d="M166.17,43.09h0L167,43l1.11-.1a.63.63,0,0,0,.58-.68.64.64,0,0,0-.68-.59l-1.14.11-.65.06v0C166.19,42.26,166.17,42.67,166.17,43.09Z"/><path class="cls-3" d="M138.42,45.32a.71.71,0,0,1,.77-.2.81.81,0,0,1,.49.74l1.58,0,.15-1.27c-1.34.05-2.71.07-4.16.07-5.27,0-12-.38-17.34-.69-3.16-.18-5.74-.33-7.37-.37,0-.53-.06-1.1-.09-1.73,8.83.11,18.39.35,29.14.76,0-.41.09-.83.12-1.24,0,0,0,0,0,0l-1.52-.05a1,1,0,0,0,0,.17.64.64,0,0,1-.6.66h0a.63.63,0,0,1-.63-.6c0-.09,0-.19,0-.28L137,41.15l0,.58a.64.64,0,0,1-.61.66h0a.63.63,0,0,1-.63-.61l0-.68-1.53-.05c0,.2,0,.41,0,.6a.64.64,0,0,1-1.27,0c0-.22,0-.45,0-.67l-4.84-.14v.61a.64.64,0,0,1-.64.64.64.64,0,0,1-.63-.64v-.65l-5.67-.13c0,.16,0,.32,0,.48v.14a.63.63,0,0,1-.63.63.64.64,0,0,1-.64-.63v-.65l-3.72-.06c0,.2,0,.4,0,.6a.64.64,0,0,1-.62.65.63.63,0,0,1-.65-.62c0-.22,0-.44,0-.65l-3.16-.05a.65.65,0,0,0-.63.66c0,1.18.1,2.13.16,3a.66.66,0,0,0,.66.6c1.47,0,4.44.17,7.87.36l1.34.08s0,0,0-.06a.64.64,0,0,1,.64-.63.63.63,0,0,1,.63.63.53.53,0,0,0,0,.13l2.47.14c0-.06,0-.13,0-.18a.63.63,0,1,1,1.25.19.07.07,0,0,1,0,.05c3.8.2,7.72.35,11.07.35h1A.64.64,0,0,1,138.42,45.32Z"/><path class="cls-3" d="M142.93,42a.49.49,0,0,0,0,.12s0,0,0-.08Z"/><path class="cls-3" d="M124.84,46.24c-.11,1.3-.24,2.37-.86,2.37-1,0-1.51-1.11-1.53-3.28l-1.27-.07c0,3.81,1.53,4.62,2.8,4.62,1.84,0,2-2.13,2.12-3.53,0-.3.05-.58.08-.82l-1.26-.06C124.89,45.71,124.86,46,124.84,46.24Z"/><path class="cls-3" d="M139.73,46.3a3,3,0,0,0,0-.44h-1.43a.56.56,0,0,0,.17.34l0,0s0,.1,0,.15c.07,1,.25,3.13,2.27,3.54,0-.42.1-.84.16-1.25C140.07,48.46,139.83,47.63,139.73,46.3Z"/><path class="cls-3" d="M116.44,46.93a12.61,12.61,0,0,1-2.1.14l-1.08,0h-1.1a.64.64,0,0,0-.64.63.64.64,0,0,0,.64.64h2.18a15.09,15.09,0,0,0,2.29-.14.64.64,0,0,0-.19-1.26Z"/><path class="cls-3" d="M154,42.24h1.26l0,.88,0,.62c-.5,0-1,.1-1.47.16l-.95.1c0,.41,0,.84,0,1.28l1.12-.13c.68-.08,1.33-.16,2-.18a.63.63,0,0,0,.61-.65c0-.42,0-.83,0-1.25s0-1-.05-1.48a.63.63,0,0,0-.63-.62H154c-.42,0-.76,0-1.07,0,0,.39,0,.82,0,1.27C153.21,42.22,153.56,42.24,154,42.24Z"/><path class="cls-3" d="M152.22,40.92a.53.53,0,0,0-.23.16A.63.63,0,0,0,152.22,40.92Z"/><path class="cls-3" d="M144.34,34.43l.73.15c0-.37,0-.73,0-1.1s0-.93,0-1.39c0-7.58,4-9.34,11.18-11.8a.86.86,0,0,1,.28,0,2.33,2.33,0,0,1,1.68,1.07,21.33,21.33,0,0,1,2.69,7.61,12,12,0,0,1-1.24.65.43.43,0,0,1,0,.11.63.63,0,0,1-.5.74H159a.63.63,0,0,1-.56-.35c-.48.18-1,.35-1.4.49a3.18,3.18,0,0,1,.09.33.64.64,0,0,1-.52.73h-.11a.63.63,0,0,1-.62-.53,1.29,1.29,0,0,0-.06-.21,4.4,4.4,0,0,1-.87.14c-1.49,0-1.69-.57-2-1.37-.22-.62-.56-1.57-1.82-1.57a3.41,3.41,0,0,0-1.86.78l-.44.29a.63.63,0,1,0,.65,1.09l.51-.33a2.5,2.5,0,0,1,1.14-.56c.32,0,.39.05.63.73a3.8,3.8,0,0,0,.66,1.25.6.6,0,0,1,.74.58,2.76,2.76,0,0,0,.46.19.61.61,0,0,1,.61-.54.63.63,0,0,1,.63.63s0,.06,0,.09H155a9.29,9.29,0,0,0,2.28-.46c0-.13.09-.26.12-.37a.62.62,0,0,1,.78-.43.6.6,0,0,1,.4.36,16.27,16.27,0,0,0,3.37-1.66.62.62,0,0,0,.26-.62,22.87,22.87,0,0,0-2.93-8.47A3.56,3.56,0,0,0,156.5,19a2,2,0,0,0-.69.12c-7.49,2.57-12,4.73-12,13,0,.47,0,.94,0,1.41,0,.3,0,.61,0,.92a2.72,2.72,0,0,1,.3,0A.69.69,0,0,1,144.34,34.43Z"/><path class="cls-3" d="M154.26,25.77a.64.64,0,0,0-1.09.66c.32.53.7,1,1.06,1.52a8,8,0,0,1,1.62,3c.35-.08.77-.19,1.22-.33a9.33,9.33,0,0,0-1.82-3.39C154.89,26.71,154.55,26.25,154.26,25.77Z"/><path class="cls-3" d="M157.68,24.89a.63.63,0,0,0-.83-.34.64.64,0,0,0-.34.83c.22.51.47,1,.71,1.5a11.77,11.77,0,0,1,1.19,3,1.15,1.15,0,0,0,.06.17c.39-.16.78-.33,1.16-.51a14.15,14.15,0,0,0-1.27-3.27C158.11,25.82,157.88,25.36,157.68,24.89Z"/><path class="cls-3" d="M155.74,33.61c-.61,0-.8-.81-.82-1.3a4.36,4.36,0,0,1-1.25-.18.29.29,0,0,0,0,.09c0,1.56.86,2.66,2.09,2.66s2.29-1.09,2.85-3.05a.6.6,0,0,0,0-.42c-.45.17-.89.32-1.3.44C157,32.57,156.52,33.61,155.74,33.61Z"/><path class="cls-3" d="M152.47,31.36a.57.57,0,0,0-.25.11,8.11,8.11,0,0,0-2.42,3.6l-.1.23,1.3.18a7,7,0,0,1,2-3,.63.63,0,0,0,.25-.55A2.33,2.33,0,0,1,152.47,31.36Z"/><path class="cls-3" d="M212.88,53.05a.64.64,0,0,0,.86-.24.63.63,0,0,0-.24-.86,7.69,7.69,0,0,0-3.76-1,5.47,5.47,0,0,0-4.06,1.61.63.63,0,0,0,0,.89.62.62,0,0,0,.44.18.65.65,0,0,0,.46-.2,4.24,4.24,0,0,1,3.14-1.21A6.49,6.49,0,0,1,212.88,53.05Z"/><path class="cls-3" d="M207.15,55.11a6.48,6.48,0,0,1-2.27.63.63.63,0,0,0,.06,1.26H205a7.9,7.9,0,0,0,2.69-.76.63.63,0,1,0-.56-1.13Z"/><path class="cls-3" d="M204.92,40a2.42,2.42,0,0,0,2.54,2.26h.1a2.57,2.57,0,0,0,2.37-2.55,2.61,2.61,0,0,0-2.51-2.5,2.56,2.56,0,0,0-.39,0A2.65,2.65,0,0,0,204.92,40Zm2.34-1.51h.16a1.36,1.36,0,0,1,1.24,1.24A1.31,1.31,0,0,1,207.52,41a1.18,1.18,0,0,1-1.33-1.08A1.37,1.37,0,0,1,207.26,38.46Z"/><path class="cls-3" d="M201.92,84.11a2.36,2.36,0,0,0-.38,0h-.06a.64.64,0,0,1-.06-1.27l.73,0c.43-2.15,1.09-4.93,1.73-7.65s1.26-5.34,1.72-7.58c10.2-.86,26.85-4.38,26.85-12.42a43.33,43.33,0,0,0-.78-7.1,44.23,44.23,0,0,1-.76-7v-.32a.64.64,0,0,0-1.27,0v.35a45.07,45.07,0,0,0,.78,7.17,42.49,42.49,0,0,1,.77,6.89c0,3.95-5.22,6.54-9.6,8A74.86,74.86,0,0,1,205,66.37a.64.64,0,0,0-.58.51c-.45,2.3-1.14,5.19-1.8,8-1,4.26-2,8.31-2.19,10.46h1.28C201.78,85,201.84,84.56,201.92,84.11Z"/><path class="cls-3" d="M229.07,35.63c-1.69-9.8-2-10.29-4-11a6.84,6.84,0,0,1-2.13-1.09l-.93-.71c-1.64-1.26-3.48-2.69-5.37-2.69-2.74,0-5.9,4.54-5.9,7.51a6,6,0,0,0,1.63,3.82.44.44,0,0,1-.06-.16,5.74,5.74,0,0,1-.07-.93,6.89,6.89,0,0,1,.11-1.21,4,4,0,0,1-.34-1.52c0-2.32,2.63-6.25,4.63-6.25,1.45,0,3.12,1.29,4.59,2.43l1,.74a8.35,8.35,0,0,0,2.48,1.26c1.28.43,1.56.55,3.16,9.81.4,0,.79,0,1.18,0Z"/><path class="cls-3" d="M213,31.86h-.1a.61.61,0,0,1-.3-.08,7.49,7.49,0,0,0,.84.75.63.63,0,0,1,1.19.29,1.31,1.31,0,0,0,.11.52,5.91,5.91,0,0,0,1.83.58l.13-.22.13-.22a.63.63,0,0,1,1.17.41,2.63,2.63,0,0,0,1.9-2.14c.29-.91.45-1.41,1.6-1.41a3.75,3.75,0,0,1,1.14.2.63.63,0,1,0,.4-1.2,4.86,4.86,0,0,0-1.54-.27,2.67,2.67,0,0,0-2.81,2.3c-.27.89-.41,1.34-1.44,1.34a4.42,4.42,0,0,1-1.13-.17v.38a.63.63,0,0,1-.63.63.64.64,0,0,1-.64-.63c0-.31,0-.62,0-.93a6.35,6.35,0,0,1-1.36-1.07c0,.07,0,.14,0,.21A.63.63,0,0,1,213,31.86Z"/><path class="cls-3" d="M213.46,30.41a9.13,9.13,0,0,1,1.38-4.23.64.64,0,0,0-1.11-.62,11.92,11.92,0,0,0-1.42,3.64,6,6,0,0,0,1.19,1.73A4.38,4.38,0,0,1,213.46,30.41Z"/><path class="cls-3" d="M212.59,31.79c-.09-.1-.18-.19-.26-.29A.61.61,0,0,0,212.59,31.79Z"/><path class="cls-3" d="M217.18,28.24a.64.64,0,0,0-.14-.89.62.62,0,0,0-.88.14,7.68,7.68,0,0,0-1.3,4.51,5.53,5.53,0,0,0,1.25.55A7.07,7.07,0,0,1,217.18,28.24Z"/><path class="cls-3" d="M216.56,33.93c-.21.33-.32.45-.48.45a1.57,1.57,0,0,1-1.35-1,7,7,0,0,1-1.3-.81.57.57,0,0,0-.08.29,2.89,2.89,0,0,0,2.73,2.82,2,2,0,0,0,1.71-1.31l.12-.19a.81.81,0,0,0,.08-.25,3.35,3.35,0,0,1-.75.09A3.82,3.82,0,0,1,216.56,33.93Z"/><path class="cls-3" d="M223.26,36.35c0-.06,0-.13,0-.18A3.15,3.15,0,0,0,222,33.89c-.49-.48-.78-.79-.78-1.19a3,3,0,0,1,.06-.56,6.62,6.62,0,0,0,.07-.8.63.63,0,1,0-1.26,0A3.46,3.46,0,0,1,220,32a6,6,0,0,0-.07.75,2.94,2.94,0,0,0,1.17,2.1c.53.52.86.87.86,1.37a.28.28,0,0,1,0,.09.66.66,0,0,0,.31.58l.91-.29A1.17,1.17,0,0,0,223.26,36.35Z"/><path class="cls-3" d="M192.51,51.2l-.58.68a12.64,12.64,0,0,1,.23,2.49c0,.45,0,.94,0,1.48-.84-.46-1.63-1-2.45-1.56l-1-.69a8.32,8.32,0,0,1-.9.06,7.1,7.1,0,0,1-1.14-.11A25.75,25.75,0,0,0,181.75,56a20.61,20.61,0,0,0-1.91-3.54l-1.19.52a18.23,18.23,0,0,1,2.2,4.21.65.65,0,0,0,.4.38l.19,0a.58.58,0,0,0,.36-.12c.47-.32.95-.62,1.43-.91,0-.12,0-.25-.06-.36a.63.63,0,0,1,1.23-.28,23.25,23.25,0,0,1,3.28-1.43c.43.27.85.56,1.26.84l.3.2a.63.63,0,0,1,1.24.14c0,.23,0,.46,0,.69a18.4,18.4,0,0,0,1.9,1,.63.63,0,0,0,.9-.51c.09-1,.14-1.79.14-2.53A12.46,12.46,0,0,0,193,51l-.3,0C192.64,51,192.58,51.12,192.51,51.2Z"/><path class="cls-3" d="M192.93,50.7a.64.64,0,0,0-.79-.4.62.62,0,0,0-.43.52l1,.15Z"/><path class="cls-3" d="M189.21,55.67c0,.26,0,.53,0,.8s0,.53,0,.79c0,2.16-.68,3.05-2.35,3.05s-1.95-1.3-2.31-3.43c-.06-.31-.11-.63-.17-.93,0,0,0,0,0,0-.4.2-.79.41-1.17.64,0,.18.07.36.1.54a7.65,7.65,0,0,0,1.11,3.36.66.66,0,0,1,.34-.05.65.65,0,0,1,.53.73v.06a3.25,3.25,0,0,0,1.59.37,4.07,4.07,0,0,0,1.75-.36c-.07-.23-.13-.46-.2-.69a.63.63,0,1,1,1.22-.35l.05.15a5.12,5.12,0,0,0,.8-3.06c0-.27,0-.55,0-.82v-.08l-1.25-.83A.7.7,0,0,0,189.21,55.67Z"/><path class="cls-3" d="M188.64,61.21c.28,1,.57,2,.85,3l.06,0a.64.64,0,0,1,.59,1.13l-.3.16c.12.41.24.82.35,1.24a.61.61,0,0,1,.51.3.63.63,0,0,1-.19.82c.48,1.71,1,3.44,1.43,5.16a.63.63,0,0,1,.47,1.16l-.13.07c.15.58.3,1.15.46,1.73a.61.61,0,0,1,.66.35.63.63,0,0,1-.31.84l0,0c.48,1.84,1,3.7,1.41,5.55a.63.63,0,0,1,.69.29.62.62,0,0,1-.22.86l-.17.1c.11.44.22.87.32,1.31a.62.62,0,0,1,.32.09h1c-2-8.44-4.37-16.84-6.7-25A2.88,2.88,0,0,1,188.64,61.21Z"/><path class="cls-3" d="M184.05,60.94c-2.35,15.22-3.44,21.16-4,24.35v0h1.29c.11-.6.24-1.3.39-2.13l-.06,0a.63.63,0,1,1-.65-1.09l1-.6c.11-.58.22-1.23.34-1.93a.53.53,0,0,1-.12,0,.63.63,0,0,1-.33-1.17l.72-.43c.28-1.64.6-3.59,1-5.88a.63.63,0,0,1-.39-.23.64.64,0,0,1,.15-.89l.48-.34c.06-.39.13-.81.19-1.22l-.08.07a.61.61,0,0,1-.42.16.62.62,0,0,1-.47-.21.64.64,0,0,1,0-.9c.39-.35.81-.69,1.23-1,.3-1.93.63-4,1-6.38a2.68,2.68,0,0,1-.86-.74A.66.66,0,0,0,184.05,60.94Z"/><path class="cls-3" d="M184,69.49a31.34,31.34,0,0,1,5.85-4c-.11-.42-.23-.84-.35-1.25a32.64,32.64,0,0,0-5.19,3.39C184.19,68.24,184.09,68.88,184,69.49Z"/><path class="cls-3" d="M189.83,66.75a66.76,66.76,0,0,0-6,4c-.08.51-.16,1-.24,1.46a.5.5,0,0,0,.13,0,.65.65,0,0,0,.37-.12,70.87,70.87,0,0,1,6.4-4.23l0,0c-.1-.38-.21-.75-.32-1.12A.59.59,0,0,0,189.83,66.75Z"/><path class="cls-3" d="M182.59,78.05c-.1.56-.19,1.08-.27,1.57a.83.83,0,0,0,.21-.06c3.09-1.88,6.29-3.63,9.75-5.37-.11-.41-.23-.82-.34-1.23l-.09,0C188.57,74.63,185.53,76.29,182.59,78.05Z"/><path class="cls-3" d="M182,81.55c-.1.61-.2,1.15-.29,1.65a104.85,104.85,0,0,1,11.37-6.07c-.11-.41-.22-.81-.32-1.21a.47.47,0,0,0-.17,0A101.83,101.83,0,0,0,182,81.55Z"/><path class="cls-3" d="M189.72,85.23l-.19.1h2.73c.84-.45,1.69-.91,2.51-1.4l-.3-1.25a.67.67,0,0,0-.18.07C192.81,83.63,191.24,84.44,189.72,85.23Z"/><path class="cls-3" d="M194.83,85.31l0,0h.32l0-.09A.59.59,0,0,0,194.83,85.31Z"/><path class="cls-3" d="M215.68,77.63l-.05-.21a.7.7,0,0,0-.28-.41.65.65,0,0,0-.49-.08c-1.69.4-3.17.73-4.54,1,1.84-2.85,3.57-5.65,5.26-8.52a85.4,85.4,0,0,0,8.1,4.93c-1,.49-1.9.88-2.77,1.22a.64.64,0,0,0-.38.73,39.54,39.54,0,0,0,3.06,9H225a35.41,35.41,0,0,1-3.13-8.79c1-.44,2.13-.94,3.45-1.61a.63.63,0,0,0,.35-.56.61.61,0,0,0-.33-.57A84.26,84.26,0,0,1,215.75,68a.63.63,0,0,0-.5-.1.66.66,0,0,0-.41.3c-2,3.47-4.12,6.83-6.39,10.3a.62.62,0,0,0,0,.69.63.63,0,0,0,.64.28c1.64-.3,3.39-.66,5.43-1.14.49,2.31,1,4.65,1.41,7h1.29C216.75,82.73,216.21,80.15,215.68,77.63Z"/><path class="cls-3" d="M209.57,69.89a2.9,2.9,0,0,1-.82.22,5.35,5.35,0,0,0-.55.11.62.62,0,0,0-.46.76.63.63,0,0,0,.61.48.47.47,0,0,0,.16,0l.45-.08a4,4,0,0,0,1.18-.34.63.63,0,1,0-.57-1.13Z"/><path class="cls-3" d="M228.8,63.41c-.86.53-1.79,1-2.77,1.46-.81.4-1.66.81-2.47,1.28a.64.64,0,0,0-.24.86.63.63,0,0,0,.55.32.61.61,0,0,0,.32-.08c.78-.45,1.6-.85,2.4-1.24a31.57,31.57,0,0,0,2.87-1.53.63.63,0,1,0-.66-1.07Z"/><path class="cls-3" d="M220.43,9.28a.64.64,0,0,0-.68.59c0,.34,0,.69,0,1s0,.49,0,.73a.64.64,0,0,0,.64.6h0a.64.64,0,0,0,.6-.67c0-.22,0-.44,0-.66s0-.63,0-.94A.64.64,0,0,0,220.43,9.28Z"/><path class="cls-3" d="M231.41,25.41a11.66,11.66,0,0,0,1.78.14.63.63,0,0,0,.63-.62.64.64,0,0,0-.63-.64,10.42,10.42,0,0,1-1.58-.14.64.64,0,0,0-.2,1.26Z"/><path class="cls-3" d="M227.17,22.41a.63.63,0,0,0-.69,1.06,11.69,11.69,0,0,0,1.54.87.54.54,0,0,0,.27.07.66.66,0,0,0,.58-.36.64.64,0,0,0-.3-.85A11.39,11.39,0,0,1,227.17,22.41Z"/><path class="cls-3" d="M222.82,18.93a.64.64,0,0,0-.14.89,16.17,16.17,0,0,0,1.12,1.36.6.6,0,0,0,.46.21.64.64,0,0,0,.47-1.07,14,14,0,0,1-1-1.25A.64.64,0,0,0,222.82,18.93Z"/><path class="cls-3" d="M220.94,16.76a.64.64,0,0,0,.58.39.54.54,0,0,0,.25-.06.63.63,0,0,0,.33-.83,13.79,13.79,0,0,1-.55-1.52.63.63,0,0,0-1.21.37A16.26,16.26,0,0,0,220.94,16.76Z"/><path class="cls-3" d="M161.49,16a.64.64,0,0,0,.28-1.21,8.29,8.29,0,0,1-1.33-.81.63.63,0,1,0-.76,1,9.33,9.33,0,0,0,1.54.94A.54.54,0,0,0,161.49,16Z"/><path class="cls-3" d="M164.94,16.83a8.65,8.65,0,0,0,1.15-.08.64.64,0,0,0-.19-1.26,6.12,6.12,0,0,1-1,.08h-.19a.64.64,0,0,0,0,1.27Z"/><path class="cls-3" d="M157.79,12.65a.58.58,0,0,0,.33-.1.63.63,0,0,0,.21-.87,7.23,7.23,0,0,1-.68-1.4.63.63,0,1,0-1.19.43,8.74,8.74,0,0,0,.79,1.63A.62.62,0,0,0,157.79,12.65Z"/><path class="cls-3" d="M121.42,78.42a3.17,3.17,0,0,0-.59,1.93.64.64,0,0,0,.61.66h0a.65.65,0,0,0,.64-.61,2,2,0,0,1,.35-1.25.63.63,0,0,0-.15-.88A.62.62,0,0,0,121.42,78.42Z"/><path class="cls-3" d="M123.16,84.94a6.86,6.86,0,0,1-.62-1.43.64.64,0,0,0-.8-.41.63.63,0,0,0-.41.8,10.25,10.25,0,0,0,.61,1.43h1.29A.59.59,0,0,0,123.16,84.94Z"/><path class="cls-3" d="M146,75.29c-.24-.26-.49-.51-.74-.76a.64.64,0,1,0-.89.91c.24.23.48.47.7.71a.47.47,0,0,0,.09.06l.91-.81A.41.41,0,0,0,146,75.29Z"/><path class="cls-3" d="M140.09,71.84a.64.64,0,0,0,.33.84,10.62,10.62,0,0,1,1.41.74.58.58,0,0,0,.33.1.65.65,0,0,0,.54-.3.63.63,0,0,0-.2-.87,11.49,11.49,0,0,0-1.58-.84A.64.64,0,0,0,140.09,71.84Z"/><path class="cls-3" d="M137.4,72a.64.64,0,0,0,0-1.27h-.18a8,8,0,0,0-1.38.12v1.28a7.18,7.18,0,0,1,1.38-.14Z"/><path class="cls-3" d="M157.41,85.33a.42.42,0,0,0-.14-.09,8,8,0,0,1-1.43-.65.6.6,0,0,0-.37-.07l0,.81Z"/><path class="cls-3" d="M167.11,85a.63.63,0,1,0-.67-1.07,12.06,12.06,0,0,1-1.42.76.62.62,0,0,0-.35.66h1.8C166.69,85.21,166.91,85.11,167.11,85Z"/><path class="cls-3" d="M208.6,85.05a.63.63,0,0,0-.28-.85,15.78,15.78,0,0,0-1.64-.69.63.63,0,0,0-.8.4.62.62,0,0,0,.39.8,11,11,0,0,1,1.46.62h.57A.67.67,0,0,0,208.6,85.05Z"/><path class="cls-3" d="M203.13,84.1a.63.63,0,0,0,.67-.6.64.64,0,0,0-.6-.67c-.35,0-.7,0-1,0-.09.46-.17.89-.23,1.29A8.15,8.15,0,0,1,203.13,84.1Z"/><path class="cls-3" d="M208,17.74a.64.64,0,0,0-.84.34,14.1,14.1,0,0,0-1,5.6,40.46,40.46,0,0,0,.5,5.57.63.63,0,0,0,.62.54h.09a.63.63,0,0,0,.54-.71,40.45,40.45,0,0,1-.48-5.4,12.69,12.69,0,0,1,.93-5.1A.64.64,0,0,0,208,17.74Z"/><path class="cls-3" d="M207.54,32.3a.64.64,0,0,0-.63.64,1.24,1.24,0,0,1,0,.18,1.24,1.24,0,0,0,.21,1,.9.9,0,0,0,.71.31,1,1,0,0,0,.88-1,.9.9,0,0,0-.56-.8A.64.64,0,0,0,207.54,32.3Z"/><path class="cls-3" d="M169.44,47.46a.65.65,0,0,0-.85.31.63.63,0,0,0,.31.84,12.86,12.86,0,0,0,5.16,1.47c1.89,0,3.93-1,3.93-3.14a.64.64,0,0,0-.63-.64.64.64,0,0,0-.64.64c0,1.48-1.67,1.87-2.66,1.87A11.81,11.81,0,0,1,169.44,47.46Z"/><path class="cls-3" d="M175.12,45.24a1,1,0,0,0,.88-.55.64.64,0,0,0-.46-.91.64.64,0,0,0-.55-.31.74.74,0,0,0-.78.75.62.62,0,0,0,0,.18.66.66,0,0,0,.11.53A.9.9,0,0,0,175.12,45.24Z"/><path class="cls-3" d="M291.09,22.64h2.72a4.29,4.29,0,0,0,2.1-.49,3.36,3.36,0,0,0,1.41-1.36,4,4,0,0,0,.5-2.05,4.06,4.06,0,0,0-.5-2.06,3.47,3.47,0,0,0-1.41-1.38,4.4,4.4,0,0,0-2.1-.48h-5.13V27.6h2.41Zm2.78-5.5a1.49,1.49,0,0,1,.77.19,1.35,1.35,0,0,1,.51.57,1.86,1.86,0,0,1,.18.84,1.68,1.68,0,0,1-.19.82,1.32,1.32,0,0,1-.51.56,1.46,1.46,0,0,1-.76.2h-2.78V17.14Z"/><polygon class="cls-3" points="302.12 27.59 308.27 27.59 308.27 25.27 302.12 25.27 302.12 22.41 307.31 22.41 307.31 20.09 302.12 20.09 302.12 17.14 308.27 17.14 308.27 14.82 302.12 14.82 300.58 14.82 299.71 14.82 299.71 27.59 300.58 27.59 302.12 27.59"/><path class="cls-3" d="M317.92,22a3.24,3.24,0,0,0,1.25-1.34,4.44,4.44,0,0,0,.43-2,4.44,4.44,0,0,0-.43-2,3.28,3.28,0,0,0-1.24-1.34,3.67,3.67,0,0,0-1.86-.47h-5.6V27.6h2.41V22.45h1.46l2.88,5.15h2.92l-3.06-5.27A3.47,3.47,0,0,0,317.92,22Zm-5-4.85h3a1.21,1.21,0,0,1,.66.18,1.26,1.26,0,0,1,.43.53,2,2,0,0,1,0,1.58,1.14,1.14,0,0,1-.43.53,1.2,1.2,0,0,1-.65.18h-3Z"/><path class="cls-3" d="M327.7,25a3.45,3.45,0,0,1-1.83.4,6.15,6.15,0,0,1-2-.33,5.49,5.49,0,0,1-1.7-.93l-1.12,2a6.42,6.42,0,0,0,1.38.86,7.34,7.34,0,0,0,1.64.54,8.25,8.25,0,0,0,1.79.19,6.88,6.88,0,0,0,2.63-.46,3.55,3.55,0,0,0,1.67-1.33,3.71,3.71,0,0,0,.57-2.09v0a3.46,3.46,0,0,0-.54-2,3.25,3.25,0,0,0-1.36-1.09,10.51,10.51,0,0,0-2-.57l-.1,0-.1,0h-.14c-.56-.12-1-.22-1.31-.32a1.92,1.92,0,0,1-.78-.47,1.22,1.22,0,0,1-.32-.88h0a1.14,1.14,0,0,1,.61-1,3.35,3.35,0,0,1,1.71-.36,4.57,4.57,0,0,1,1.54.28,6.67,6.67,0,0,1,1.55.79l1-2a7.93,7.93,0,0,0-1.31-.72,7.65,7.65,0,0,0-1.4-.46,6.83,6.83,0,0,0-1.4-.16,6.31,6.31,0,0,0-2.55.47,3.45,3.45,0,0,0-1.61,1.34,3.86,3.86,0,0,0-.55,2.11h0a3.49,3.49,0,0,0,.59,2.16,3.08,3.08,0,0,0,1.43,1.06,11.52,11.52,0,0,0,2.13.51l.19,0h.1a8.78,8.78,0,0,1,1.19.26,1.68,1.68,0,0,1,.76.44,1.13,1.13,0,0,1,.29.81h0A1.25,1.25,0,0,1,327.7,25Z"/><path class="cls-3" d="M334.54,27.14a5.38,5.38,0,0,0,4.9,0,4.13,4.13,0,0,0,1.64-1.65,5.18,5.18,0,0,0,.58-2.47V19.39a5.18,5.18,0,0,0-.58-2.47,4.13,4.13,0,0,0-1.64-1.65,5.38,5.38,0,0,0-4.9,0,4.13,4.13,0,0,0-1.64,1.65,5.18,5.18,0,0,0-.58,2.47V23a5.18,5.18,0,0,0,.58,2.47A4.13,4.13,0,0,0,334.54,27.14Zm.28-7.81a2.46,2.46,0,0,1,.27-1.17,1.81,1.81,0,0,1,.76-.79,2.22,2.22,0,0,1,1.14-.28,2.24,2.24,0,0,1,1.14.28,1.87,1.87,0,0,1,.76.79,2.46,2.46,0,0,1,.27,1.17v3.75a2.5,2.5,0,0,1-.27,1.18,1.85,1.85,0,0,1-.76.78,2.24,2.24,0,0,1-1.14.28,2.22,2.22,0,0,1-1.14-.28,1.79,1.79,0,0,1-.76-.78,2.5,2.5,0,0,1-.27-1.18Z"/><polygon class="cls-3" points="346.33 18.37 350.86 27.59 353.82 27.59 353.82 14.82 351.52 14.82 351.52 24.17 346.97 14.82 344.03 14.82 344.03 27.59 346.33 27.59 346.33 18.37"/><path class="cls-3" d="M358.54,25.55h4.68l.72,2.05h2.59l-4.89-12.78h-1.53L355.23,27.6h2.59Zm2.34-6.68,1.53,4.36h-3.06Z"/><polygon class="cls-3" points="370.52 27.59 376.67 27.59 376.67 25.27 370.52 25.27 370.52 14.82 368.11 14.82 368.11 27.59 369.18 27.59 370.52 27.59"/><path class="cls-3" d="M293.81,44.24a4.29,4.29,0,0,0,2.1-.49,3.36,3.36,0,0,0,1.41-1.36,4.47,4.47,0,0,0,0-4.11,3.47,3.47,0,0,0-1.41-1.38,4.4,4.4,0,0,0-2.1-.48h-5.13V49.2h2.41v-5Zm.06-5.5a1.49,1.49,0,0,1,.77.19,1.35,1.35,0,0,1,.51.57,1.86,1.86,0,0,1,.18.84,1.68,1.68,0,0,1-.19.82,1.32,1.32,0,0,1-.51.56,1.46,1.46,0,0,1-.76.2h-2.78V38.74Z"/><path class="cls-3" d="M306.57,36.87a5.38,5.38,0,0,0-4.9,0A4.07,4.07,0,0,0,300,38.52a5.08,5.08,0,0,0-.58,2.48v3.62a5.06,5.06,0,0,0,.58,2.47,4.07,4.07,0,0,0,1.64,1.65,5.38,5.38,0,0,0,4.9,0,4,4,0,0,0,1.63-1.65,5.06,5.06,0,0,0,.58-2.47V41a5.08,5.08,0,0,0-.58-2.48A4,4,0,0,0,306.57,36.87Zm-.28,7.81a2.5,2.5,0,0,1-.27,1.18,1.85,1.85,0,0,1-.76.78,2.24,2.24,0,0,1-1.14.28,2.19,2.19,0,0,1-1.14-.28,1.87,1.87,0,0,1-.77-.78,2.63,2.63,0,0,1-.26-1.18V40.93a2.58,2.58,0,0,1,.26-1.17A1.89,1.89,0,0,1,303,39a2.19,2.19,0,0,1,1.14-.28,2.24,2.24,0,0,1,1.14.28,1.87,1.87,0,0,1,.76.79,2.46,2.46,0,0,1,.27,1.17Z"/><polygon class="cls-3" points="313.06 49.2 315.46 49.2 315.46 38.74 318.94 38.74 318.94 36.42 309.58 36.42 309.58 38.74 313.06 38.74 313.06 49.2"/><polygon class="cls-3" points="322.76 49.2 328.91 49.2 328.91 46.88 322.76 46.88 322.76 44.01 327.94 44.01 327.94 41.69 322.76 41.69 322.76 38.74 328.91 38.74 328.91 36.42 322.76 36.42 321.22 36.42 320.35 36.42 320.35 49.2 321.22 49.2 322.76 49.2"/><polygon class="cls-3" points="340.9 49.19 340.9 36.42 338.6 36.42 338.6 45.77 334.05 36.42 331.11 36.42 331.11 49.19 333.41 49.19 333.41 39.97 337.94 49.19 340.9 49.19"/><polygon class="cls-3" points="352.03 38.74 352.03 36.42 342.66 36.42 342.66 38.74 346.14 38.74 346.14 49.2 348.55 49.2 348.55 38.74 352.03 38.74"/><rect class="cls-3" x="353.26" y="36.42" width="2.5" height="12.78"/><path class="cls-3" d="M361.87,36.42,357,49.2h2.6l.71-2.05H365l.71,2.05h2.6L363.4,36.42Zm-.76,8.41,1.53-4.36,1.52,4.36Z"/><polygon class="cls-3" points="372.28 46.88 372.28 36.42 369.87 36.42 369.87 49.2 370.94 49.2 372.28 49.2 378.43 49.2 378.43 46.88 372.28 46.88"/><rect class="cls-3" x="288.51" y="58.02" width="2.5" height="12.78"/><polygon class="cls-3" points="301.13 67.37 296.59 58.02 293.64 58.02 293.64 70.79 295.94 70.79 295.94 61.58 300.47 70.79 303.43 70.79 303.43 58.02 301.13 58.02 301.13 67.37"/><polygon class="cls-3" points="318.21 63.28 315.8 63.28 315.8 66.52 313.47 66.52 317.3 58.02 314.58 58.02 310.64 66.62 310.64 68.84 315.8 68.84 315.8 70.81 318.21 70.81 318.21 68.84 319.21 68.84 319.21 66.52 318.21 66.52 318.21 63.28"/><rect class="cls-3" x="320.75" y="68.39" width="2.41" height="2.41"/><path class="cls-3" d="M328.43,57.86a3.93,3.93,0,0,0-2.84,1,3.55,3.55,0,0,0-1,2.68V67.3a3.57,3.57,0,0,0,1,2.66,4.68,4.68,0,0,0,5.69,0,3.55,3.55,0,0,0,1-2.67V61.49a3.55,3.55,0,0,0-1-2.68A3.9,3.9,0,0,0,328.43,57.86Zm1.41,8.82a2.5,2.5,0,0,1-.34,1.43,1.39,1.39,0,0,1-2.14,0,2.49,2.49,0,0,1-.35-1.43V62.1a2.52,2.52,0,0,1,.35-1.43,1.41,1.41,0,0,1,2.14,0,2.52,2.52,0,0,1,.34,1.43Z"/><polygon class="cls-3" points="340.5 58.02 339.63 58.02 339.63 70.8 340.5 70.8 342.04 70.8 348.19 70.8 348.19 68.48 342.04 68.48 342.04 65.61 347.23 65.61 347.23 63.29 342.04 63.29 342.04 60.34 348.19 60.34 348.19 58.02 342.04 58.02 340.5 58.02"/><path class="cls-3" d="M357.84,65.18a3.24,3.24,0,0,0,1.25-1.34,4.91,4.91,0,0,0,0-4,3.34,3.34,0,0,0-1.24-1.34A3.67,3.67,0,0,0,356,58h-5.6V70.8h2.41V65.65h1.46l2.88,5.15h2.92L357,65.53A3.47,3.47,0,0,0,357.84,65.18Zm-5-4.85h3a1.21,1.21,0,0,1,.66.18,1.26,1.26,0,0,1,.43.53,2,2,0,0,1,0,1.58,1.14,1.14,0,0,1-.43.53,1.2,1.2,0,0,1-.65.18h-3Z"/><path class="cls-3" d="M365.34,58,360.46,70.8h2.59l.72-2h4.68l.72,2h2.59L366.87,58Zm-.76,8.41,1.53-4.36,1.53,4.36Z"/><path class="cls-3" d="M29.93,40.29a3.94,3.94,0,0,0-1.16-.63,4.34,4.34,0,0,0-1.41-.23,3.09,3.09,0,0,0-1.5.37,3.66,3.66,0,0,0-1.21,1,4.93,4.93,0,0,0-.79,1.57,6.65,6.65,0,0,0-.28,2,6.51,6.51,0,0,0,.29,2,5.3,5.3,0,0,0,.81,1.55,3.57,3.57,0,0,0,1.21,1,3.25,3.25,0,0,0,1.52.36,4.84,4.84,0,0,0,1.4-.19,5.11,5.11,0,0,0,1.31-.61l-.32,1.58a3.65,3.65,0,0,1-1.13.44,6.56,6.56,0,0,1-1.44.15,4.77,4.77,0,0,1-2.06-.45A4.72,4.72,0,0,1,23.53,49a6,6,0,0,1-1.11-2A7.68,7.68,0,0,1,22,44.37a8,8,0,0,1,.4-2.62,5.93,5.93,0,0,1,1.11-2,4.92,4.92,0,0,1,1.66-1.26,4.76,4.76,0,0,1,2.06-.44,5.5,5.5,0,0,1,1.68.24,6.24,6.24,0,0,1,1.29.56Z"/><path class="cls-3" d="M39.7,50.66a2.38,2.38,0,0,1-1-.57A1.86,1.86,0,0,1,38.1,49a2.83,2.83,0,0,1-1.16,1.19,3.37,3.37,0,0,1-1.72.45,3.06,3.06,0,0,1-2.34-1,3.57,3.57,0,0,1-.9-2.52,4,4,0,0,1,.28-1.56A3.68,3.68,0,0,1,33,44.43a3.26,3.26,0,0,1,1.07-.74,4,4,0,0,1,1.28-.33l2.38-.24v-1.2a2.62,2.62,0,0,0-.6-1.83,2.22,2.22,0,0,0-1.73-.66,4.34,4.34,0,0,0-2.52.86l-.27-1.37a4.3,4.3,0,0,1,1.29-.62,5.33,5.33,0,0,1,1.62-.23,3.76,3.76,0,0,1,2.74,1,3.9,3.9,0,0,1,1,2.94v5.61a2.07,2.07,0,0,0,.4,1.38,1.92,1.92,0,0,0,.92.57Zm-2-6.24-2.17.21a2.18,2.18,0,0,0-1.51.75,2.6,2.6,0,0,0-.58,1.77A2.32,2.32,0,0,0,34,48.71a1.66,1.66,0,0,0,1.29.61,2,2,0,0,0,.87-.21,2.52,2.52,0,0,0,.79-.59,3.14,3.14,0,0,0,.57-.9,3,3,0,0,0,.21-1.14Z"/><path class="cls-3" d="M46,50.58h-.73l-4.07-12.3h1.55l2,6.14c.17.46.32.95.47,1.47s.3,1,.45,1.56h.05c.12-.52.26-1,.41-1.54s.31-1,.47-1.49l2-6.14h1.45Z"/><path class="cls-3" d="M54.62,50.74a2.83,2.83,0,0,1-.71-.33,2.47,2.47,0,0,1-.62-.59,2.74,2.74,0,0,1-.44-.87,3.94,3.94,0,0,1-.16-1.21V28.63h1.58v19A2.22,2.22,0,0,0,54.64,49a1.89,1.89,0,0,0,.94.7Z"/><path class="cls-3" d="M66.47,43.05c0,.2,0,1.24,0,1.35H59.18a5.28,5.28,0,0,0,.2,1.82,4.78,4.78,0,0,0,.76,1.57,3.74,3.74,0,0,0,1.22,1.09,3.26,3.26,0,0,0,1.61.4,4.59,4.59,0,0,0,3-1.05l-.35,1.69a4.29,4.29,0,0,1-1.21.54,6.1,6.1,0,0,1-1.58.19,4.78,4.78,0,0,1-3.7-1.75,6.31,6.31,0,0,1-1.1-2,7.65,7.65,0,0,1-.4-2.54,8,8,0,0,1,.39-2.6,6.82,6.82,0,0,1,1-2,4.67,4.67,0,0,1,1.52-1.27,3.79,3.79,0,0,1,1.79-.44,3.93,3.93,0,0,1,3.1,1.4,4.28,4.28,0,0,1,.78,1.44,5.43,5.43,0,0,1,.25,1.66Zm-1.69-1.57a3.66,3.66,0,0,0-.48-1,2.79,2.79,0,0,0-.8-.77,2.1,2.1,0,0,0-1.12-.29,2.12,2.12,0,0,0-1.11.31,3.53,3.53,0,0,0-1,.83,5.06,5.06,0,0,0-1.06,2.59h5.66a1.47,1.47,0,0,0,0-.25v-.24A4.18,4.18,0,0,0,64.78,41.48Z"/><path class="cls-3" d="M75.57,50.42V42a2.75,2.75,0,0,0-.64-1.9,2.48,2.48,0,0,0-1.9-.7,2.67,2.67,0,0,0-1.93.71A2.52,2.52,0,0,0,70.37,42v8.39H68.78V38.28h1.45l0,1.29a3.41,3.41,0,0,1,1.11-1,3.84,3.84,0,0,1,2-.45,3.71,3.71,0,0,1,2.72,1,3.67,3.67,0,0,1,1.05,2.78v8.55Z"/><path class="cls-3" d="M85.78,39.59H82.54v7.88A1.84,1.84,0,0,0,83,48.79a1.42,1.42,0,0,0,1.06.43,1.9,1.9,0,0,0,1.15-.3l-.3,1.48a2.52,2.52,0,0,1-1.07.18,2.84,2.84,0,0,1-2-.77A3,3,0,0,1,81,47.53V39.59H79V38.28h2V35.71l1.55-.81v3.38H86Z"/><path class="cls-3" d="M24.7,55.12a1.34,1.34,0,0,1-.24.83.8.8,0,0,1-.63.3,1.2,1.2,0,0,1-.28,0,1.66,1.66,0,0,1-.24-.11V57H23V54.13h.35v.22a1.12,1.12,0,0,1,.29-.19.69.69,0,0,1,.35-.08.62.62,0,0,1,.55.28A1.24,1.24,0,0,1,24.7,55.12Zm-.36,0a1.05,1.05,0,0,0-.11-.55.39.39,0,0,0-.37-.2.62.62,0,0,0-.29.07,1.06,1.06,0,0,0-.26.17v1.17a.72.72,0,0,0,.24.09.73.73,0,0,0,.22,0,.5.5,0,0,0,.42-.2A1,1,0,0,0,24.34,55.16Z"/><path class="cls-3" d="M26.28,56.26A1,1,0,0,1,25.5,56a1.1,1.1,0,0,1-.27-.79,1.17,1.17,0,0,1,.27-.81.86.86,0,0,1,.69-.3.9.9,0,0,1,.34.05.68.68,0,0,1,.26.18.71.71,0,0,1,.18.29A1.25,1.25,0,0,1,27,55v.19H25.58a.76.76,0,0,0,.19.55.65.65,0,0,0,.5.2.91.91,0,0,0,.23,0l.2-.07.16-.08L27,55.7h0v.39l-.16.06-.16.05-.19,0Zm.4-1.32a.88.88,0,0,0,0-.24.75.75,0,0,0-.08-.18.42.42,0,0,0-.16-.11.57.57,0,0,0-.24,0,.6.6,0,0,0-.24,0,.48.48,0,0,0-.17.12.36.36,0,0,0-.12.18.77.77,0,0,0-.06.23Z"/><path class="cls-3" d="M28.79,54.51h-.21a.67.67,0,0,0-.28.06,1.2,1.2,0,0,0-.27.19v1.47h-.35V54.13H28v.31a1.81,1.81,0,0,1,.34-.24.68.68,0,0,1,.27-.07h.15Z"/><path class="cls-3" d="M29.92,56.26a1.74,1.74,0,0,1-.39,0l-.3-.12V55.7h0l.11.07.16.09.19.08a.91.91,0,0,0,.23,0l.18,0,.14-.05.09-.09a.31.31,0,0,0,0-.15.25.25,0,0,0-.07-.19.55.55,0,0,0-.24-.1l-.17,0-.2,0a.7.7,0,0,1-.35-.21.61.61,0,0,1-.11-.35.55.55,0,0,1,.22-.46.82.82,0,0,1,.56-.18,1.48,1.48,0,0,1,.35.05,1.1,1.1,0,0,1,.29.1v.38h0a1.11,1.11,0,0,0-.3-.17,1,1,0,0,0-.33-.06.54.54,0,0,0-.29.07.24.24,0,0,0-.12.22.26.26,0,0,0,.07.2.63.63,0,0,0,.23.1l.17,0,.2.05a.65.65,0,0,1,.35.19.52.52,0,0,1,.12.36.58.58,0,0,1-.06.26.43.43,0,0,1-.15.2.89.89,0,0,1-.25.14A1,1,0,0,1,29.92,56.26Z"/><path class="cls-3" d="M33.08,55.17a1.22,1.22,0,0,1-.25.81.88.88,0,0,1-.68.29.85.85,0,0,1-.68-.29,1.41,1.41,0,0,1,0-1.62.85.85,0,0,1,.67-.28.87.87,0,0,1,.68.28A1.26,1.26,0,0,1,33.08,55.17Zm-.36,0a1,1,0,0,0-.15-.6.56.56,0,0,0-.84,0,1,1,0,0,0-.15.6,1,1,0,0,0,.15.6.54.54,0,0,0,.84,0A1,1,0,0,0,32.72,55.17Z"/><path class="cls-3" d="M35.38,56.21H35V55a2.13,2.13,0,0,0,0-.27.53.53,0,0,0,0-.2.25.25,0,0,0-.12-.11.41.41,0,0,0-.21,0,.57.57,0,0,0-.27.07l-.27.18v1.55h-.35V54.13h.35v.23a1.7,1.7,0,0,1,.31-.21.71.71,0,0,1,.32-.07.57.57,0,0,1,.48.2.84.84,0,0,1,.18.58Z"/><path class="cls-3" d="M37.33,56l-.11.09a.55.55,0,0,1-.14.09.67.67,0,0,1-.18.07.78.78,0,0,1-.24,0,.7.7,0,0,1-.25-.05.86.86,0,0,1-.2-.13.67.67,0,0,1-.13-.22.58.58,0,0,1,0-.26.72.72,0,0,1,.09-.37.64.64,0,0,1,.29-.24,1.43,1.43,0,0,1,.41-.11l.51,0v-.06a.56.56,0,0,0,0-.2.32.32,0,0,0-.11-.12.38.38,0,0,0-.16-.05l-.2,0a1.11,1.11,0,0,0-.29,0,2.33,2.33,0,0,0-.32.1h0v-.35l.27-.06a1.47,1.47,0,0,1,.36,0,1.28,1.28,0,0,1,.36,0,.66.66,0,0,1,.27.12.54.54,0,0,1,.17.22,1,1,0,0,1,0,.33v1.42h-.35Zm0-.29v-.58l-.31,0-.31.06a.58.58,0,0,0-.23.13.4.4,0,0,0,0,.52.42.42,0,0,0,.29.09.73.73,0,0,0,.3-.07A1.14,1.14,0,0,0,37.33,55.7Z"/><path class="cls-3" d="M38.84,56.21h-.35V53.32h.35Z"/><path class="cls-3" d="M40,53.79h-.4v-.37H40Zm0,2.42h-.34V54.13H40Z"/><path class="cls-3" d="M41.47,56.25a.61.61,0,0,1-.45-.16.74.74,0,0,1-.16-.51V54.42h-.23v-.29h.23v-.59h.35v.59h.65v.29h-.65v1a1.7,1.7,0,0,0,0,.25.47.47,0,0,0,0,.16.22.22,0,0,0,.1.09.37.37,0,0,0,.2,0,.45.45,0,0,0,.16,0l.12,0h0v.31l-.2.05Z"/><path class="cls-3" d="M44,54.13,42.9,57h-.38l.38-.87-.76-2h.38l.57,1.54.56-1.54Z"/><path class="cls-3" d="M47.24,56l-.11.09a.55.55,0,0,1-.14.09.67.67,0,0,1-.18.07.78.78,0,0,1-.24,0,.7.7,0,0,1-.25-.05.86.86,0,0,1-.2-.13.67.67,0,0,1-.13-.22.58.58,0,0,1-.05-.26.72.72,0,0,1,.09-.37.64.64,0,0,1,.29-.24,1.43,1.43,0,0,1,.41-.11l.51,0v-.06a.56.56,0,0,0,0-.2.32.32,0,0,0-.11-.12.38.38,0,0,0-.16-.05l-.2,0a1.11,1.11,0,0,0-.29,0,2.33,2.33,0,0,0-.32.1h0v-.35l.27-.06a1.47,1.47,0,0,1,.36,0,1.28,1.28,0,0,1,.36,0,.66.66,0,0,1,.27.12.54.54,0,0,1,.17.22,1,1,0,0,1,.05.33v1.42h-.35Zm0-.29v-.58l-.31,0-.31.06a.58.58,0,0,0-.23.13.4.4,0,0,0,0,.52.42.42,0,0,0,.29.09.73.73,0,0,0,.3-.07A1.14,1.14,0,0,0,47.24,55.7Z"/><path class="cls-3" d="M49,56.26a1.6,1.6,0,0,1-.39,0l-.3-.12V55.7h0l.1.07.16.09.2.08A.83.83,0,0,0,49,56l.18,0,.14-.05a.3.3,0,0,0,.1-.09.31.31,0,0,0,0-.15.29.29,0,0,0-.07-.19.69.69,0,0,0-.24-.1l-.18,0-.2,0a.66.66,0,0,1-.34-.21.54.54,0,0,1-.11-.35.57.57,0,0,1,.21-.46.84.84,0,0,1,.56-.18,1.34,1.34,0,0,1,.35.05,1.05,1.05,0,0,1,.3.1v.38h0a1.11,1.11,0,0,0-.3-.17,1,1,0,0,0-.33-.06.5.5,0,0,0-.29.07.24.24,0,0,0-.12.22.26.26,0,0,0,.07.2.57.57,0,0,0,.22.1l.18,0,.2.05a.69.69,0,0,1,.35.19.67.67,0,0,1,.06.62.53.53,0,0,1-.16.2.68.68,0,0,1-.25.14A.89.89,0,0,1,49,56.26Z"/><path class="cls-3" d="M51,56.26a1.6,1.6,0,0,1-.39,0,1.86,1.86,0,0,1-.3-.12V55.7h0l.11.07.16.09.2.08A.78.78,0,0,0,51,56l.18,0,.14-.05.09-.09a.31.31,0,0,0,0-.15.25.25,0,0,0-.07-.19.55.55,0,0,0-.24-.1l-.17,0-.2,0a.7.7,0,0,1-.35-.21.61.61,0,0,1-.11-.35.58.58,0,0,1,.22-.46.84.84,0,0,1,.56-.18,1.41,1.41,0,0,1,.35.05,1,1,0,0,1,.29.1v.38h0a.92.92,0,0,0-.29-.17,1,1,0,0,0-.34-.06.54.54,0,0,0-.29.07.24.24,0,0,0-.12.22.3.3,0,0,0,.07.2.71.71,0,0,0,.23.1l.17,0,.21.05a.62.62,0,0,1,.34.19.52.52,0,0,1,.12.36.75.75,0,0,1-.05.26.53.53,0,0,1-.16.2.77.77,0,0,1-.25.14A.92.92,0,0,1,51,56.26Z"/><path class="cls-3" d="M53.3,56.26a1,1,0,0,1-.77-.28,1.1,1.1,0,0,1-.27-.79,1.21,1.21,0,0,1,.26-.81,1,1,0,0,1,1-.25.68.68,0,0,1,.26.18.7.7,0,0,1,.17.29,1.25,1.25,0,0,1,.06.42v.19H52.61a.76.76,0,0,0,.18.55.68.68,0,0,0,.51.2.78.78,0,0,0,.22,0,.77.77,0,0,0,.2-.07.79.79,0,0,0,.16-.08L54,55.7h0v.39l-.15.06-.16.05-.19,0Zm.41-1.32a.88.88,0,0,0,0-.24.51.51,0,0,0-.09-.18.33.33,0,0,0-.15-.11.6.6,0,0,0-.48,0,.63.63,0,0,0-.18.12.57.57,0,0,0-.12.18,1.32,1.32,0,0,0,0,.23Z"/><path class="cls-3" d="M55.27,56.26a1.6,1.6,0,0,1-.39,0l-.3-.12V55.7h0l.11.07.16.09.19.08a.85.85,0,0,0,.23,0l.17,0a.64.64,0,0,0,.15-.05l.09-.09a.31.31,0,0,0,0-.15.25.25,0,0,0-.07-.19.55.55,0,0,0-.24-.1l-.17,0-.2,0a.7.7,0,0,1-.35-.21.61.61,0,0,1-.11-.35.57.57,0,0,1,.21-.46.86.86,0,0,1,.57-.18,1.48,1.48,0,0,1,.35.05,1.1,1.1,0,0,1,.29.1v.38h0a1.11,1.11,0,0,0-.3-.17,1,1,0,0,0-.33-.06.54.54,0,0,0-.29.07.24.24,0,0,0-.12.22.26.26,0,0,0,.07.2.63.63,0,0,0,.23.1l.17,0,.2.05a.65.65,0,0,1,.35.19.52.52,0,0,1,.12.36.58.58,0,0,1-.06.26.43.43,0,0,1-.15.2.89.89,0,0,1-.25.14A1,1,0,0,1,55.27,56.26Z"/><path class="cls-3" d="M57.28,56.26a1.6,1.6,0,0,1-.39,0l-.3-.12V55.7h0l.1.07.16.09.2.08a.78.78,0,0,0,.22,0l.18,0,.14-.05a.3.3,0,0,0,.1-.09.32.32,0,0,0,0-.15.29.29,0,0,0-.06-.19.69.69,0,0,0-.24-.1l-.18,0-.2,0a.66.66,0,0,1-.34-.21.54.54,0,0,1-.11-.35.57.57,0,0,1,.21-.46.84.84,0,0,1,.56-.18,1.34,1.34,0,0,1,.35.05,1.05,1.05,0,0,1,.3.1v.38h0a1.11,1.11,0,0,0-.3-.17,1,1,0,0,0-.33-.06.56.56,0,0,0-.3.07.23.23,0,0,0-.11.22.26.26,0,0,0,.07.2.57.57,0,0,0,.22.1l.18,0,.2.05a.69.69,0,0,1,.35.19.57.57,0,0,1,.11.36.75.75,0,0,1-.05.26.53.53,0,0,1-.16.2.68.68,0,0,1-.25.14A.89.89,0,0,1,57.28,56.26Z"/><path class="cls-3" d="M61.08,56.21V55a2.09,2.09,0,0,0,0-.26.48.48,0,0,0,0-.2.27.27,0,0,0-.1-.11.5.5,0,0,0-.19,0,.43.43,0,0,0-.23.07.83.83,0,0,0-.25.19v1.54H59.9V55a2.09,2.09,0,0,0,0-.26.48.48,0,0,0,0-.2.27.27,0,0,0-.1-.11.5.5,0,0,0-.19,0,.49.49,0,0,0-.24.07l-.24.18v1.55h-.35V54.13h.35v.23a1.28,1.28,0,0,1,.28-.21.57.57,0,0,1,.29-.07.62.62,0,0,1,.33.08.58.58,0,0,1,.22.28,1.22,1.22,0,0,1,.3-.27.63.63,0,0,1,.33-.09.69.69,0,0,1,.25,0,.59.59,0,0,1,.19.13.78.78,0,0,1,.13.24,1.16,1.16,0,0,1,0,.35v1.37Z"/><path class="cls-3" d="M63.13,56.26a1,1,0,0,1-.77-.28,1.1,1.1,0,0,1-.27-.79,1.16,1.16,0,0,1,.26-.81,1,1,0,0,1,1-.25.68.68,0,0,1,.26.18.82.82,0,0,1,.17.29,1.25,1.25,0,0,1,.06.42v.19H62.44a.76.76,0,0,0,.18.55.66.66,0,0,0,.51.2.83.83,0,0,0,.22,0l.2-.07a.79.79,0,0,0,.16-.08l.11-.08h0v.39l-.15.06-.16.05-.19,0Zm.41-1.32a.88.88,0,0,0,0-.24.51.51,0,0,0-.09-.18.31.31,0,0,0-.16-.11.52.52,0,0,0-.23,0,.54.54,0,0,0-.24,0,.52.52,0,0,0-.18.12.57.57,0,0,0-.12.18,1.32,1.32,0,0,0-.05.23Z"/><path class="cls-3" d="M66.17,56.21h-.35V55a2.26,2.26,0,0,0,0-.27.83.83,0,0,0,0-.2.25.25,0,0,0-.12-.11.41.41,0,0,0-.21,0,.54.54,0,0,0-.27.07l-.27.18v1.55h-.35V54.13h.35v.23a1.41,1.41,0,0,1,.31-.21.71.71,0,0,1,.32-.07.58.58,0,0,1,.48.2.84.84,0,0,1,.17.58Z"/><path class="cls-3" d="M67.6,56.25a.61.61,0,0,1-.45-.16.74.74,0,0,1-.16-.51V54.42h-.23v-.29H67v-.59h.35v.59H68v.29h-.65v1a1.7,1.7,0,0,0,0,.25.47.47,0,0,0,0,.16.22.22,0,0,0,.1.09.36.36,0,0,0,.19,0,.47.47,0,0,0,.17,0l.12,0h0v.31l-.2.05Z"/><path class="cls-3" d="M70.61,56.26a1.6,1.6,0,0,1-.39,0l-.3-.12V55.7h0l.1.07.16.09.2.08a.78.78,0,0,0,.22,0l.18,0,.14-.05s.08-.06.09-.09a.31.31,0,0,0,0-.15.29.29,0,0,0-.06-.19.67.67,0,0,0-.25-.1l-.17,0-.2,0a.74.74,0,0,1-.35-.21.6.6,0,0,1-.1-.35.57.57,0,0,1,.21-.46.84.84,0,0,1,.56-.18,1.41,1.41,0,0,1,.35.05.89.89,0,0,1,.29.1v.38h0a1.11,1.11,0,0,0-.3-.17,1,1,0,0,0-.34-.06.54.54,0,0,0-.29.07.24.24,0,0,0-.12.22.3.3,0,0,0,.07.2.71.71,0,0,0,.23.1l.18,0,.2.05a.62.62,0,0,1,.34.19.52.52,0,0,1,.12.36.75.75,0,0,1,0,.26.53.53,0,0,1-.16.2.77.77,0,0,1-.25.14A.89.89,0,0,1,70.61,56.26Z"/><path class="cls-3" d="M73,56.26a1,1,0,0,1-.77-.28,1.1,1.1,0,0,1-.27-.79,1.21,1.21,0,0,1,.26-.81,1,1,0,0,1,1-.25.68.68,0,0,1,.26.18.7.7,0,0,1,.17.29,1.25,1.25,0,0,1,.06.42v.19H72.26a.72.72,0,0,0,.19.55.65.65,0,0,0,.5.2.91.91,0,0,0,.23,0l.2-.07.16-.08a.44.44,0,0,0,.1-.08h0v.39l-.15.06-.16.05-.19,0Zm.41-1.32a.88.88,0,0,0,0-.24.51.51,0,0,0-.09-.18.33.33,0,0,0-.15-.11.6.6,0,0,0-.48,0,.63.63,0,0,0-.18.12.42.42,0,0,0-.11.18.77.77,0,0,0-.06.23Z"/><path class="cls-3" d="M75.46,54.51h-.2a.67.67,0,0,0-.28.06,1.2,1.2,0,0,0-.27.19v1.47h-.35V54.13h.35v.31a1.81,1.81,0,0,1,.34-.24.68.68,0,0,1,.27-.07h.14Z"/><path class="cls-3" d="M77.67,54.13l-.78,2.08h-.31l-.78-2.08h.38l.57,1.61.56-1.61Z"/><path class="cls-3" d="M78.63,53.79h-.4v-.37h.4Zm0,2.42h-.35V54.13h.35Z"/><path class="cls-3" d="M80.25,56.26a1,1,0,0,1-.4-.07.69.69,0,0,1-.3-.2.79.79,0,0,1-.2-.33,1.43,1.43,0,0,1-.07-.48,1.39,1.39,0,0,1,.07-.48.91.91,0,0,1,.2-.33.81.81,0,0,1,.3-.21,1.05,1.05,0,0,1,.4-.07,1.24,1.24,0,0,1,.33,0,1.81,1.81,0,0,1,.28.12v.39h0l-.1-.07-.14-.09-.17-.06-.19,0a.56.56,0,0,0-.44.2.94.94,0,0,0-.16.59.9.9,0,0,0,.16.57.51.51,0,0,0,.44.21,1,1,0,0,0,.6-.26h0v.4l-.13,0-.14.06-.16,0Z"/><path class="cls-3" d="M82.39,56.26a1,1,0,0,1-.78-.28,1.1,1.1,0,0,1-.27-.79,1.17,1.17,0,0,1,.27-.81,1,1,0,0,1,1-.25.8.8,0,0,1,.27.18.82.82,0,0,1,.17.29,1.25,1.25,0,0,1,.06.42v.19H81.7a.76.76,0,0,0,.18.55.65.65,0,0,0,.5.2.91.91,0,0,0,.23,0l.2-.07.16-.08.11-.08h0v.39l-.16.06-.16.05-.18,0Zm.41-1.32a1.5,1.5,0,0,0,0-.24.75.75,0,0,0-.08-.18.36.36,0,0,0-.16-.11.54.54,0,0,0-.24,0,.6.6,0,0,0-.24,0,.48.48,0,0,0-.17.12.36.36,0,0,0-.12.18.56.56,0,0,0,0,.23Z"/><path class="cls-3" d="M84.36,56.26a1.6,1.6,0,0,1-.39,0l-.3-.12V55.7h0l.11.07.16.09.2.08a.78.78,0,0,0,.22,0l.18,0,.14-.05a.38.38,0,0,0,.09-.09.31.31,0,0,0,0-.15.25.25,0,0,0-.07-.19.55.55,0,0,0-.24-.1l-.17,0-.2,0a.74.74,0,0,1-.35-.21.6.6,0,0,1-.1-.35.57.57,0,0,1,.21-.46.84.84,0,0,1,.56-.18,1.41,1.41,0,0,1,.35.05,1,1,0,0,1,.29.1v.38h0a.92.92,0,0,0-.29-.17,1,1,0,0,0-.34-.06.54.54,0,0,0-.29.07.24.24,0,0,0-.12.22.3.3,0,0,0,.07.2.71.71,0,0,0,.23.1l.17,0,.21.05a.62.62,0,0,1,.34.19.52.52,0,0,1,.12.36.75.75,0,0,1,0,.26.53.53,0,0,1-.16.2.77.77,0,0,1-.25.14A.89.89,0,0,1,84.36,56.26Z"/><polygon class="cls-3" points="381.83 85.33 410.63 0.29 566.93 0.29 566.93 85.33 381.83 85.33"/><polygon class="cls-1" points="436.37 13.49 435.08 13.49 435.08 21.34 435.68 21.34 436.37 21.34 440.23 21.34 440.23 20.1 436.37 20.1 436.37 13.49"/><polygon class="cls-1" points="441.95 13.49 441.41 13.49 441.41 21.34 441.95 21.34 442.7 21.34 446.56 21.34 446.56 20.1 442.7 20.1 442.7 18.06 445.97 18.06 445.97 16.83 442.7 16.83 442.7 14.73 446.56 14.73 446.56 13.49 442.7 13.49 441.95 13.49"/><path class="cls-1" d="M450.21,13.49l-2.95,7.85h1.39l.52-1.49h3l.52,1.49h1.38l-2.94-7.85Zm-.62,5.12,1.09-3.12,1.08,3.12Z"/><path class="cls-1" d="M459.61,17.81a1.94,1.94,0,0,0,.78-.8,2.53,2.53,0,0,0,.28-1.22,2.49,2.49,0,0,0-.28-1.21,1.91,1.91,0,0,0-.78-.81,2.29,2.29,0,0,0-1.16-.28h-3.28v7.85h1.29V18.1h1.27l1.72,3.24H461L459.15,18A1.86,1.86,0,0,0,459.61,17.81Zm-3.15-3.09h2a.87.87,0,0,1,.48.14.78.78,0,0,1,.32.37,1.25,1.25,0,0,1,.12.56,1.6,1.6,0,0,1-.12.57,1,1,0,0,1-.32.37.87.87,0,0,1-.48.14h-2Z"/><polygon class="cls-1" points="467.02 19.3 463.78 13.49 462.37 13.49 462.37 21.33 463.63 21.33 463.63 15.62 466.86 21.33 468.28 21.33 468.28 13.49 467.02 13.49 467.02 19.3"/><rect class="cls-1" x="470.06" y="13.49" width="1.32" height="7.84"/><polygon class="cls-1" points="477.8 19.3 474.56 13.49 473.15 13.49 473.15 21.33 474.4 21.33 474.4 15.62 477.64 21.33 479.06 21.33 479.06 13.49 477.8 13.49 477.8 19.3"/><path class="cls-1" d="M483.64,18.27H485v.24a1.91,1.91,0,0,1-.18.86,1.32,1.32,0,0,1-.51.56,1.64,1.64,0,0,1-.78.19,1.67,1.67,0,0,1-.79-.18,1.3,1.3,0,0,1-.53-.51,1.63,1.63,0,0,1-.19-.77V16.34a1.9,1.9,0,0,1,.19-.85,1.37,1.37,0,0,1,.51-.58,1.51,1.51,0,0,1,.78-.2,1.47,1.47,0,0,1,.58.12,1.25,1.25,0,0,1,.49.36,1.34,1.34,0,0,1,.3.55h1.4a3.13,3.13,0,0,0-.53-1.22,2.73,2.73,0,0,0-1-.82,2.89,2.89,0,0,0-1.27-.29,2.82,2.82,0,0,0-1.47.37,2.41,2.41,0,0,0-1,1,3.21,3.21,0,0,0-.35,1.54v2.32a3,3,0,0,0,.35,1.45,2.52,2.52,0,0,0,1,1,3.17,3.17,0,0,0,1.48.34,2.82,2.82,0,0,0,1.47-.37,2.44,2.44,0,0,0,1-1,3.27,3.27,0,0,0,.35-1.54V17h-2.72Z"/><path class="cls-1" d="M495.35,13.79a2.55,2.55,0,0,0-1.26-.3H491v7.85h1.29V18.29h1.8a2.55,2.55,0,0,0,1.26-.29,2.08,2.08,0,0,0,.85-.84,2.8,2.8,0,0,0,0-2.52A2,2,0,0,0,495.35,13.79ZM495,16.51a1,1,0,0,1-.36.41,1.1,1.1,0,0,1-.55.14h-1.84V14.73h1.84a1.1,1.1,0,0,1,.55.14,1,1,0,0,1,.37.41,1.52,1.52,0,0,1,.13.62A1.34,1.34,0,0,1,495,16.51Z"/><path class="cls-1" d="M501.89,13.77a3.18,3.18,0,0,0-2.94,0,2.43,2.43,0,0,0-1,1,3.18,3.18,0,0,0-.35,1.51v2.23a3.24,3.24,0,0,0,.35,1.52,2.47,2.47,0,0,0,1,1,3.18,3.18,0,0,0,2.94,0,2.47,2.47,0,0,0,1-1,3.24,3.24,0,0,0,.35-1.52V16.3a3.18,3.18,0,0,0-.35-1.51A2.43,2.43,0,0,0,501.89,13.77Zm0,4.79a1.81,1.81,0,0,1-.18.83,1.34,1.34,0,0,1-.52.56,1.55,1.55,0,0,1-.78.19,1.5,1.5,0,0,1-.78-.19,1.34,1.34,0,0,1-.52-.56,1.81,1.81,0,0,1-.18-.83V16.27a1.81,1.81,0,0,1,.18-.83,1.26,1.26,0,0,1,.52-.55,1.51,1.51,0,0,1,.78-.2,1.56,1.56,0,0,1,.78.2,1.26,1.26,0,0,1,.52.55,1.81,1.81,0,0,1,.18.83Z"/><polygon class="cls-1" points="503.82 14.73 506 14.73 506 21.34 507.29 21.34 507.29 14.73 509.47 14.73 509.47 13.49 503.82 13.49 503.82 14.73"/><polygon class="cls-1" points="510.97 13.49 510.44 13.49 510.44 21.34 510.97 21.34 511.73 21.34 515.59 21.34 515.59 20.1 511.73 20.1 511.73 18.06 514.99 18.06 514.99 16.83 511.73 16.83 511.73 14.73 515.59 14.73 515.59 13.49 511.73 13.49 510.97 13.49"/><polygon class="cls-1" points="521.69 19.3 518.45 13.49 517.04 13.49 517.04 21.33 518.29 21.33 518.29 15.62 521.53 21.33 522.94 21.33 522.94 13.49 521.69 13.49 521.69 19.3"/><polygon class="cls-1" points="524.13 14.73 526.31 14.73 526.31 21.34 527.6 21.34 527.6 14.73 529.77 14.73 529.77 13.49 524.13 13.49 524.13 14.73"/><rect class="cls-1" x="530.69" y="13.49" width="1.32" height="7.84"/><path class="cls-1" d="M535.87,13.49l-3,7.85h1.39l.52-1.49h3l.52,1.49h1.38l-2.94-7.85Zm-.61,5.12,1.08-3.12,1.08,3.12Z"/><polygon class="cls-1" points="542.12 20.1 542.12 13.49 540.83 13.49 540.83 21.34 541.44 21.34 542.12 21.34 545.98 21.34 545.98 20.1 542.12 20.1"/><polygon class="cls-1" points="436.37 30.88 435.08 30.88 435.08 38.72 435.68 38.72 436.37 38.72 440.23 38.72 440.23 37.49 436.37 37.49 436.37 30.88"/><rect class="cls-1" x="441.36" y="30.88" width="1.32" height="7.84"/><polygon class="cls-1" points="443.81 32.11 445.99 32.11 445.99 38.72 447.27 38.72 447.27 32.11 449.45 32.11 449.45 30.88 443.81 30.88 443.81 32.11"/><polygon class="cls-1" points="450.96 30.88 450.42 30.88 450.42 38.72 450.96 38.72 451.71 38.72 455.57 38.72 455.57 37.49 451.71 37.49 451.71 35.44 454.98 35.44 454.98 34.21 451.71 34.21 451.71 32.11 455.57 32.11 455.57 30.88 451.71 30.88 450.96 30.88"/><path class="cls-1" d="M461.46,35.2a2,2,0,0,0,.79-.81,2.85,2.85,0,0,0,0-2.42,2,2,0,0,0-.78-.81,2.36,2.36,0,0,0-1.17-.29H457v7.85h1.29V35.49h1.26l1.73,3.23h1.54L461,35.38A2.23,2.23,0,0,0,461.46,35.2Zm-3.14-3.09h1.94a.88.88,0,0,1,.49.13.86.86,0,0,1,.32.38,1.36,1.36,0,0,1,.11.56,1.25,1.25,0,0,1-.12.56.85.85,0,0,1-.32.38.86.86,0,0,1-.48.13h-1.94Z"/><path class="cls-1" d="M466.15,30.88l-2.95,7.84h1.39l.52-1.49h3l.52,1.49H470l-2.94-7.84ZM465.54,36l1.08-3.12L467.7,36Z"/><path class="cls-1" d="M472,32.85a1.29,1.29,0,0,1,.5-.58,1.5,1.5,0,0,1,.77-.2,1.36,1.36,0,0,1,.63.15,1.49,1.49,0,0,1,.5.44,1.67,1.67,0,0,1,.3.66h1.33a3.53,3.53,0,0,0-.52-1.35,2.55,2.55,0,0,0-1-.87,2.76,2.76,0,0,0-1.29-.3,3.05,3.05,0,0,0-1.48.35,2.37,2.37,0,0,0-1,1,3.32,3.32,0,0,0-.34,1.56v2.15a3.32,3.32,0,0,0,.34,1.56,2.34,2.34,0,0,0,1,1,3,3,0,0,0,1.48.35,2.72,2.72,0,0,0,1.28-.3,2.55,2.55,0,0,0,.95-.87,3.54,3.54,0,0,0,.53-1.35h-1.33a1.76,1.76,0,0,1-.3.68,1.26,1.26,0,0,1-.5.42,1.33,1.33,0,0,1-.63.15,1.5,1.5,0,0,1-.77-.2,1.21,1.21,0,0,1-.5-.57,2,2,0,0,1-.18-.88V33.73A2,2,0,0,1,472,32.85Z"/><polygon class="cls-1" points="479.38 34.34 477.77 30.88 476.38 30.88 478.74 35.62 478.74 38.72 480.02 38.72 480.02 35.62 482.37 30.88 480.99 30.88 479.38 34.34"/><path class="cls-1" d="M490.4,31.18a2.62,2.62,0,0,0-1.27-.3H486v7.84h1.29v-3h1.8a2.62,2.62,0,0,0,1.27-.3,2.06,2.06,0,0,0,.84-.84,2.55,2.55,0,0,0,.3-1.26,2.58,2.58,0,0,0-.3-1.26A2.12,2.12,0,0,0,490.4,31.18Zm-.31,2.71a.93.93,0,0,1-.37.41,1,1,0,0,1-.55.14h-1.84V32.11h1.84a1,1,0,0,1,.55.15,1,1,0,0,1,.37.41,1.48,1.48,0,0,1,.13.61A1.44,1.44,0,0,1,490.09,33.89Z"/><path class="cls-1" d="M496.93,31.16a3.18,3.18,0,0,0-2.94,0,2.41,2.41,0,0,0-1,1,3.22,3.22,0,0,0-.35,1.52v2.22a3.22,3.22,0,0,0,.35,1.52,2.41,2.41,0,0,0,1,1,3.18,3.18,0,0,0,2.94,0,2.35,2.35,0,0,0,1-1,3.1,3.1,0,0,0,.35-1.52V33.69a3.1,3.1,0,0,0-.35-1.52A2.35,2.35,0,0,0,496.93,31.16ZM497,36a1.85,1.85,0,0,1-.19.83,1.26,1.26,0,0,1-.52.55,1.5,1.5,0,0,1-.78.19,1.55,1.55,0,0,1-.78-.19,1.32,1.32,0,0,1-.52-.55A1.84,1.84,0,0,1,494,36v-2.3a1.84,1.84,0,0,1,.18-.83,1.32,1.32,0,0,1,.52-.55,1.55,1.55,0,0,1,.78-.19,1.5,1.5,0,0,1,.78.19,1.26,1.26,0,0,1,.52.55,1.85,1.85,0,0,1,.19.83Z"/><polygon class="cls-1" points="498.87 32.11 501.05 32.11 501.05 38.72 502.33 38.72 502.33 32.11 504.51 32.11 504.51 30.88 498.87 30.88 498.87 32.11"/><polygon class="cls-1" points="506.01 30.88 505.48 30.88 505.48 38.72 506.01 38.72 506.77 38.72 510.63 38.72 510.63 37.49 506.77 37.49 506.77 35.44 510.03 35.44 510.03 34.21 506.77 34.21 506.77 32.11 510.63 32.11 510.63 30.88 506.77 30.88 506.01 30.88"/><polygon class="cls-1" points="516.73 36.68 513.49 30.88 512.08 30.88 512.08 38.72 513.34 38.72 513.34 33 516.57 38.72 517.99 38.72 517.99 30.88 516.73 30.88 516.73 36.68"/><polygon class="cls-1" points="519.17 32.11 521.35 32.11 521.35 38.72 522.64 38.72 522.64 32.11 524.82 32.11 524.82 30.88 519.17 30.88 519.17 32.11"/><rect class="cls-1" x="525.73" y="30.88" width="1.32" height="7.84"/><path class="cls-1" d="M530.91,30.88,528,38.72h1.38l.52-1.49h3l.52,1.49h1.39l-2.95-7.84ZM530.3,36l1.08-3.12L532.46,36Z"/><polygon class="cls-1" points="537.16 37.49 537.16 30.88 535.88 30.88 535.88 38.72 536.48 38.72 537.16 38.72 541.02 38.72 541.02 37.49 537.16 37.49"/><path class="cls-1" d="M438,53h1.4v.23a1.8,1.8,0,0,1-.19.87,1.32,1.32,0,0,1-.51.56,1.61,1.61,0,0,1-.78.19,1.67,1.67,0,0,1-.79-.18,1.26,1.26,0,0,1-.53-.52,1.55,1.55,0,0,1-.18-.76V51.11a1.9,1.9,0,0,1,.18-.85,1.33,1.33,0,0,1,.52-.58,1.5,1.5,0,0,1,.77-.2,1.52,1.52,0,0,1,.59.12A1.41,1.41,0,0,1,439,50a1.47,1.47,0,0,1,.3.55h1.39a3.13,3.13,0,0,0-.53-1.22,2.65,2.65,0,0,0-1-.82,2.85,2.85,0,0,0-1.27-.29,2.82,2.82,0,0,0-1.47.37,2.47,2.47,0,0,0-1,1,3.33,3.33,0,0,0-.35,1.54v2.32a3,3,0,0,0,.35,1.45,2.52,2.52,0,0,0,1,1,3.2,3.2,0,0,0,1.48.34,2.82,2.82,0,0,0,1.47-.37,2.38,2.38,0,0,0,1-1,3.15,3.15,0,0,0,.35-1.54V51.8H438Z"/><polygon class="cls-1" points="442.81 48.26 442.28 48.26 442.28 56.11 442.81 56.11 443.57 56.11 447.42 56.11 447.42 54.87 443.57 54.87 443.57 52.83 446.83 52.83 446.83 51.6 443.57 51.6 443.57 49.5 447.42 49.5 447.42 48.26 443.57 48.26 442.81 48.26"/><polygon class="cls-1" points="453.53 54.07 450.28 48.26 448.88 48.26 448.88 56.1 450.13 56.1 450.13 50.38 453.37 56.1 454.78 56.1 454.78 48.26 453.53 48.26 453.53 54.07"/><polygon class="cls-1" points="457.15 48.26 456.62 48.26 456.62 56.11 457.15 56.11 457.91 56.11 461.76 56.11 461.76 54.87 457.91 54.87 457.91 52.83 461.17 52.83 461.17 51.6 457.91 51.6 457.91 49.5 461.76 49.5 461.76 48.26 457.91 48.26 457.15 48.26"/><path class="cls-1" d="M467.66,52.58a2,2,0,0,0,.78-.81,2.46,2.46,0,0,0,.28-1.21,2.49,2.49,0,0,0-.28-1.21,1.91,1.91,0,0,0-.78-.81,2.29,2.29,0,0,0-1.16-.28h-3.28v7.85h1.29V52.87h1.27l1.72,3.24h1.55l-1.85-3.34A2.34,2.34,0,0,0,467.66,52.58Zm-3.15-3.09h1.95a1,1,0,0,1,.48.13.85.85,0,0,1,.32.38,1.25,1.25,0,0,1,.11.56,1.41,1.41,0,0,1-.11.57,1,1,0,0,1-.32.37.86.86,0,0,1-.48.13h-1.95Z"/><path class="cls-1" d="M472.34,48.26l-2.94,7.85h1.38l.52-1.49h3l.52,1.49h1.39l-3-7.85Zm-.61,5.12,1.08-3.12,1.09,3.12Z"/><polygon class="cls-1" points="478.6 48.26 477.31 48.26 477.31 56.11 477.91 56.11 478.6 56.11 482.45 56.11 482.45 54.87 478.6 54.87 478.6 48.26"/><path class="cls-1" d="M491,48.56a2.55,2.55,0,0,0-1.26-.3h-3.09v7.85h1.29v-3h1.8a2.55,2.55,0,0,0,1.26-.29,2.08,2.08,0,0,0,.85-.84,2.8,2.8,0,0,0,0-2.52A2,2,0,0,0,491,48.56Zm-.31,2.72a.94.94,0,0,1-.91.55H487.9V49.5h1.84a1.1,1.1,0,0,1,.55.14,1,1,0,0,1,.36.41,1.35,1.35,0,0,1,.13.62A1.33,1.33,0,0,1,490.65,51.28Z"/><path class="cls-1" d="M497.5,48.54a3.18,3.18,0,0,0-2.94,0,2.47,2.47,0,0,0-1,1,3.13,3.13,0,0,0-.35,1.52V53.3a3.06,3.06,0,0,0,.35,1.51,2.43,2.43,0,0,0,1,1,3.18,3.18,0,0,0,2.94,0,2.5,2.5,0,0,0,1-1,3.18,3.18,0,0,0,.35-1.51V51.07a3.24,3.24,0,0,0-.35-1.52A2.53,2.53,0,0,0,497.5,48.54Zm0,4.79a1.81,1.81,0,0,1-.18.83,1.34,1.34,0,0,1-.52.56,1.67,1.67,0,0,1-.78.19,1.61,1.61,0,0,1-.78-.19,1.28,1.28,0,0,1-.52-.56,1.81,1.81,0,0,1-.19-.83V51a1.81,1.81,0,0,1,.19-.83,1.28,1.28,0,0,1,.52-.56,1.61,1.61,0,0,1,.78-.19,1.67,1.67,0,0,1,.78.19,1.34,1.34,0,0,1,.52.56,1.81,1.81,0,0,1,.18.83Z"/><polygon class="cls-1" points="499.43 49.5 501.61 49.5 501.61 56.11 502.9 56.11 502.9 49.5 505.08 49.5 505.08 48.26 499.43 48.26 499.43 49.5"/><polygon class="cls-1" points="506.58 48.26 506.05 48.26 506.05 56.11 506.58 56.11 507.34 56.11 511.19 56.11 511.19 54.87 507.34 54.87 507.34 52.83 510.6 52.83 510.6 51.6 507.34 51.6 507.34 49.5 511.19 49.5 511.19 48.26 507.34 48.26 506.58 48.26"/><polygon class="cls-1" points="517.3 54.07 514.05 48.26 512.65 48.26 512.65 56.1 513.9 56.1 513.9 50.38 517.14 56.1 518.55 56.1 518.55 48.26 517.3 48.26 517.3 54.07"/><polygon class="cls-1" points="519.74 49.5 521.92 49.5 521.92 56.11 523.2 56.11 523.2 49.5 525.38 49.5 525.38 48.26 519.74 48.26 519.74 49.5"/><rect class="cls-1" x="526.3" y="48.26" width="1.32" height="7.84"/><path class="cls-1" d="M531.48,48.26l-3,7.85h1.39l.52-1.49h3l.52,1.49h1.38l-2.94-7.85Zm-.61,5.12L532,50.26,533,53.38Z"/><polygon class="cls-1" points="537.73 54.87 537.73 48.26 536.44 48.26 536.44 56.11 537.05 56.11 537.73 56.11 541.59 56.11 541.59 54.87 537.73 54.87"/><path class="cls-1" d="M439.43,66a2.55,2.55,0,0,0-1.26-.3h-3.09v7.84h1.29v-3h1.8a2.55,2.55,0,0,0,1.26-.3,2.08,2.08,0,0,0,.85-.84,2.55,2.55,0,0,0,.3-1.26,2.58,2.58,0,0,0-.3-1.26A2.08,2.08,0,0,0,439.43,66Zm-.31,2.71a.91.91,0,0,1-.36.41,1,1,0,0,1-.55.14h-1.84V66.88h1.84a1,1,0,0,1,.55.15,1,1,0,0,1,.37.41,1.44,1.44,0,0,1,.13.61A1.31,1.31,0,0,1,439.12,68.66Z"/><path class="cls-1" d="M446.29,70a2,2,0,0,0,.78-.81,2.75,2.75,0,0,0,0-2.42,1.91,1.91,0,0,0-.78-.81,2.29,2.29,0,0,0-1.16-.29h-3.28v7.85h1.29V70.25h1.27l1.72,3.24h1.55l-1.85-3.34A2.32,2.32,0,0,0,446.29,70Zm-3.15-3.09h1.95a.86.86,0,0,1,.48.13.83.83,0,0,1,.32.37A1.29,1.29,0,0,1,446,68a1.59,1.59,0,0,1-.12.56,1,1,0,0,1-.32.38.86.86,0,0,1-.48.13h-1.95Z"/><path class="cls-1" d="M453,65.93a3.2,3.2,0,0,0-2.95,0,2.39,2.39,0,0,0-1,1,3.1,3.1,0,0,0-.35,1.52v2.22A3.1,3.1,0,0,0,449,72.2a2.45,2.45,0,0,0,1,1,3.2,3.2,0,0,0,2.95,0,2.53,2.53,0,0,0,1-1,3.22,3.22,0,0,0,.35-1.52V68.46a3.22,3.22,0,0,0-.35-1.52A2.47,2.47,0,0,0,453,65.93Zm0,4.79a1.84,1.84,0,0,1-.18.83,1.38,1.38,0,0,1-.52.55,1.55,1.55,0,0,1-.78.19,1.5,1.5,0,0,1-.78-.19,1.26,1.26,0,0,1-.52-.55,1.72,1.72,0,0,1-.19-.83v-2.3a1.72,1.72,0,0,1,.19-.83,1.26,1.26,0,0,1,.52-.55,1.51,1.51,0,0,1,.78-.2,1.56,1.56,0,0,1,.78.2,1.38,1.38,0,0,1,.52.55,1.84,1.84,0,0,1,.18.83Z"/><polygon class="cls-1" points="456.4 65.65 455.86 65.65 455.86 73.49 457.15 73.49 457.15 70.28 460.31 70.28 460.31 69.05 457.15 69.05 457.15 66.88 460.91 66.88 460.91 65.65 457.15 65.65 456.4 65.65"/><polygon class="cls-1" points="462.68 65.65 462.15 65.65 462.15 73.49 462.68 73.49 463.44 73.49 467.29 73.49 467.29 72.26 463.44 72.26 463.44 70.21 466.7 70.21 466.7 68.98 463.44 68.98 463.44 66.88 467.29 66.88 467.29 65.65 463.44 65.65 462.68 65.65"/><path class="cls-1" d="M473,69.34a7,7,0,0,0-1.22-.35h-.2a7.23,7.23,0,0,1-.88-.21,1.29,1.29,0,0,1-.52-.31.82.82,0,0,1-.21-.59h0a.88.88,0,0,1,.4-.77,2.09,2.09,0,0,1,1.16-.27,2.75,2.75,0,0,1,.91.17,3.42,3.42,0,0,1,.92.49l.63-1.06a4.45,4.45,0,0,0-.79-.45,4.27,4.27,0,0,0-.83-.28,4.31,4.31,0,0,0-2.38.18,2,2,0,0,0-1,.81,2.33,2.33,0,0,0-.33,1.27h0a2.1,2.1,0,0,0,.35,1.3,1.87,1.87,0,0,0,.87.64,7.91,7.91,0,0,0,1.29.31h.16a5,5,0,0,1,.81.18,1.15,1.15,0,0,1,.5.31.85.85,0,0,1,.2.58h0a.9.9,0,0,1-.44.8,2.29,2.29,0,0,1-1.22.28,3.58,3.58,0,0,1-1.19-.2,3,3,0,0,1-1-.58l-.68,1a4,4,0,0,0,.83.54,4.33,4.33,0,0,0,1,.32,4.71,4.71,0,0,0,1.08.11,4.2,4.2,0,0,0,1.59-.27,2.12,2.12,0,0,0,1-.8,2.19,2.19,0,0,0,.35-1.25h0a2.05,2.05,0,0,0-.33-1.24A1.94,1.94,0,0,0,473,69.34Z"/><path class="cls-1" d="M479.54,69.34a7.32,7.32,0,0,0-1.22-.35h-.2a6.79,6.79,0,0,1-.88-.21,1.33,1.33,0,0,1-.53-.31.82.82,0,0,1-.21-.59h0a.89.89,0,0,1,.41-.77,2.08,2.08,0,0,1,1.15-.27A2.76,2.76,0,0,1,479,67a3.57,3.57,0,0,1,.92.49l.63-1.06a4.84,4.84,0,0,0-.79-.45,4.27,4.27,0,0,0-.83-.28,4.17,4.17,0,0,0-.85-.09,3.91,3.91,0,0,0-1.53.27,2,2,0,0,0-1,.81,2.33,2.33,0,0,0-.34,1.27h0a2,2,0,0,0,.36,1.3,1.9,1.9,0,0,0,.86.64,8.06,8.06,0,0,0,1.3.31h.16a4.62,4.62,0,0,1,.8.18,1.19,1.19,0,0,1,.51.31.85.85,0,0,1,.2.58h0a.9.9,0,0,1-.44.8,2.32,2.32,0,0,1-1.22.28,3.68,3.68,0,0,1-1.2-.2,3.09,3.09,0,0,1-1-.58l-.69,1a4,4,0,0,0,.84.54,4.42,4.42,0,0,0,1,.32,4.86,4.86,0,0,0,1.09.11,4.2,4.2,0,0,0,1.59-.27,2.08,2.08,0,0,0,1.34-2h0a2.13,2.13,0,0,0-.32-1.24A2,2,0,0,0,479.54,69.34Z"/><rect class="cls-1" x="481.98" y="65.65" width="1.32" height="7.84"/><path class="cls-1" d="M489.2,65.93a3.2,3.2,0,0,0-2.95,0,2.47,2.47,0,0,0-1,1,3.22,3.22,0,0,0-.35,1.52v2.22a3.22,3.22,0,0,0,.35,1.52,2.53,2.53,0,0,0,1,1,3.2,3.2,0,0,0,2.95,0,2.53,2.53,0,0,0,1-1,3.22,3.22,0,0,0,.35-1.52V68.46a3.22,3.22,0,0,0-.35-1.52A2.47,2.47,0,0,0,489.2,65.93Zm0,4.79a1.84,1.84,0,0,1-.18.83,1.34,1.34,0,0,1-.53.55,1.68,1.68,0,0,1-1.55,0,1.34,1.34,0,0,1-.53-.55,1.84,1.84,0,0,1-.18-.83v-2.3a1.84,1.84,0,0,1,.18-.83A1.34,1.34,0,0,1,487,67a1.6,1.6,0,0,1,1.55,0,1.34,1.34,0,0,1,.53.55,1.84,1.84,0,0,1,.18.83Z"/><polygon class="cls-1" points="496.75 71.45 493.5 65.65 492.1 65.65 492.1 73.49 493.35 73.49 493.35 67.77 496.59 73.49 498 73.49 498 65.65 496.75 65.65 496.75 71.45"/><path class="cls-1" d="M504.15,67.62a1.35,1.35,0,0,1,.5-.58,1.51,1.51,0,0,1,.78-.2,1.32,1.32,0,0,1,.62.15,1.57,1.57,0,0,1,.5.43,2,2,0,0,1,.31.67h1.32a3.37,3.37,0,0,0-.52-1.35,2.55,2.55,0,0,0-1-.87,2.74,2.74,0,0,0-1.28-.3,2.9,2.9,0,0,0-1.48.35,2.39,2.39,0,0,0-1,1,3.32,3.32,0,0,0-.34,1.56v2.15a3.32,3.32,0,0,0,.34,1.56,2.36,2.36,0,0,0,1,1,3,3,0,0,0,1.48.35,2.7,2.7,0,0,0,1.27-.3,2.58,2.58,0,0,0,1-.87,3.53,3.53,0,0,0,.52-1.35h-1.32a1.94,1.94,0,0,1-.31.68,1.34,1.34,0,0,1-.5.42,1.32,1.32,0,0,1-.62.15,1.51,1.51,0,0,1-.78-.2,1.27,1.27,0,0,1-.5-.57,2,2,0,0,1-.18-.88V68.5A2,2,0,0,1,504.15,67.62Z"/><polygon class="cls-1" points="510.82 65.65 509.53 65.65 509.53 73.49 510.14 73.49 510.82 73.49 514.68 73.49 514.68 72.26 510.82 72.26 510.82 65.65"/><path class="cls-1" d="M519.87,70.69a1.65,1.65,0,0,1-.4,1.19,1.7,1.7,0,0,1-2.24,0,1.65,1.65,0,0,1-.4-1.19v-5h-1.29v5a3.48,3.48,0,0,0,.33,1.58,2.27,2.27,0,0,0,1,1,3.57,3.57,0,0,0,3,0,2.27,2.27,0,0,0,1-1,3.48,3.48,0,0,0,.33-1.58v-5h-1.29Z"/><path class="cls-1" d="M526.87,69.34a7.18,7.18,0,0,0-1.21-.35h-.2a6.79,6.79,0,0,1-.88-.21,1.33,1.33,0,0,1-.53-.31.82.82,0,0,1-.21-.59h0a.89.89,0,0,1,.41-.77,2.06,2.06,0,0,1,1.15-.27,2.81,2.81,0,0,1,.92.17,3.57,3.57,0,0,1,.92.49l.62-1.06a4.13,4.13,0,0,0-.79-.45,4.06,4.06,0,0,0-.83-.28,4,4,0,0,0-.84-.09,3.88,3.88,0,0,0-1.53.27,2,2,0,0,0-1,.81,2.25,2.25,0,0,0-.34,1.27h0a2,2,0,0,0,.36,1.3,1.8,1.8,0,0,0,.86.64,8.06,8.06,0,0,0,1.3.31h.16a5.1,5.1,0,0,1,.8.18,1.19,1.19,0,0,1,.51.31.85.85,0,0,1,.19.58h0a.89.89,0,0,1-.43.8,2.32,2.32,0,0,1-1.22.28,3.64,3.64,0,0,1-1.2-.2,3.14,3.14,0,0,1-1-.58l-.68,1a4.23,4.23,0,0,0,.83.54,4.5,4.5,0,0,0,1,.32,4.86,4.86,0,0,0,1.09.11,4.18,4.18,0,0,0,1.58-.27,2.15,2.15,0,0,0,1-.8,2.18,2.18,0,0,0,.34-1.25h0a2.05,2.05,0,0,0-.33-1.24A1.94,1.94,0,0,0,526.87,69.34Z"/><polygon class="cls-1" points="528.4 66.88 530.58 66.88 530.58 73.49 531.86 73.49 531.86 66.88 534.04 66.88 534.04 65.65 528.4 65.65 528.4 66.88"/><polygon class="cls-1" points="535.55 65.65 535.01 65.65 535.01 73.49 535.55 73.49 536.3 73.49 540.16 73.49 540.16 72.26 536.3 72.26 536.3 70.21 539.57 70.21 539.57 68.98 536.3 68.98 536.3 66.88 540.16 66.88 540.16 65.65 536.3 65.65 535.55 65.65"/><path class="cls-1" d="M546.05,70a2,2,0,0,0,.79-.81,2.85,2.85,0,0,0,0-2.42,2,2,0,0,0-.78-.81,2.36,2.36,0,0,0-1.17-.29h-3.27v7.85h1.29V70.25h1.26l1.72,3.24h1.55l-1.84-3.34A2.23,2.23,0,0,0,546.05,70Zm-3.14-3.09h1.94a.88.88,0,0,1,.49.13,1,1,0,0,1,.32.37,1.45,1.45,0,0,1,.11.57,1.25,1.25,0,0,1-.12.56.85.85,0,0,1-.32.38.86.86,0,0,1-.48.13h-1.94Z"/><path class="cls-1" d="M553.62,70a1.94,1.94,0,0,0-.82-.66,7.18,7.18,0,0,0-1.21-.35h-.2a7,7,0,0,1-.89-.21,1.29,1.29,0,0,1-.52-.31.82.82,0,0,1-.21-.59h0a.87.87,0,0,1,.41-.77,2.06,2.06,0,0,1,1.15-.27,2.71,2.71,0,0,1,.91.17,3.63,3.63,0,0,1,.93.49l.62-1.06a4.45,4.45,0,0,0-.79-.45,4.27,4.27,0,0,0-.83-.28,4,4,0,0,0-.84-.09,3.88,3.88,0,0,0-1.53.27,2.07,2.07,0,0,0-1,.81,2.33,2.33,0,0,0-.33,1.27h0a2,2,0,0,0,.36,1.3,1.8,1.8,0,0,0,.86.64,8.18,8.18,0,0,0,1.29.31h.17a5.1,5.1,0,0,1,.8.18,1.19,1.19,0,0,1,.51.31.85.85,0,0,1,.19.58h0a.89.89,0,0,1-.43.8,2.33,2.33,0,0,1-1.23.28,3.62,3.62,0,0,1-1.19-.2,3,3,0,0,1-1-.58l-.68,1a4.23,4.23,0,0,0,.83.54,4.33,4.33,0,0,0,1,.32,4.77,4.77,0,0,0,1.08.11,4.2,4.2,0,0,0,1.59-.27,2.12,2.12,0,0,0,1-.8,2.19,2.19,0,0,0,.35-1.25h0A2.05,2.05,0,0,0,553.62,70Z"/><path class="cls-4" d="M423.15,13.49v7.93h7.93V13.49Zm6.64,6.64h-5.35V14.78h5.35Z"/><path class="cls-4" d="M423.15,30.83v7.93h7.93V30.83Zm6.64,6.64h-5.35V32.12h5.35Z"/><path class="cls-4" d="M423.15,48.22v7.93h7.93V48.22Zm6.64,6.64h-5.35V49.51h5.35Z"/><path class="cls-4" d="M423.15,65.65v7.92h7.93V65.65Zm6.64,6.63h-5.35V66.94h5.35Z"/><path class="cls-1" d="M432.31,12.27a1,1,0,0,0-1.4.13l-4.4,5.25-1.46-1.48a1,1,0,0,0-1.42,1.41l2.23,2.24h0l0,0,0,0h0l.13.1h0l.14.06h0l.15,0h.3l.08,0h0l.07,0h0l.06,0,0,0,.05,0,0,0,0,0,0,0,0,0,0,0h0l0-.05,0,0,5.1-6.09A1,1,0,0,0,432.31,12.27Z"/><path class="cls-1" d="M432.31,29.61a1,1,0,0,0-1.4.13L426.51,35l-1.46-1.48a1,1,0,0,0-1.42,1.41l2.23,2.24h0l0,0,0,0h0l.13.09h0a.35.35,0,0,0,.14.06h0l.15,0h0l.15,0h.24l.07,0h0l.06,0h0l.05,0,0,0,0,0,0,0,0,0s0,0,0,0h0l0,0s0,0,0,0l5.1-6.09A1,1,0,0,0,432.31,29.61Z"/><path class="cls-1" d="M432.31,47a1,1,0,0,0-1.4.13l-4.4,5.25-1.46-1.48a1,1,0,0,0-1.42,1.41l2.23,2.24h0l0,0,0,0h0l.13.1h0l.14.06h0l.15,0h.48l0,0,.06,0,0,0,.05,0,0,0,0,0,0,0s0,0,0,0l0,0h0l0,0a0,0,0,0,1,0,0l5.1-6.1A1,1,0,0,0,432.31,47Z"/><path class="cls-1" d="M432.31,64.44a1,1,0,0,0-1.4.12l-4.4,5.25-1.46-1.47a1,1,0,0,0-1.42,1.4L425.86,72h0l0,0,0,0h0l.13.09h0l.14.07h0l.15,0h.41l.07,0h0l.06,0,0,0,.05,0,0,0,0,0,0,0,0,0,0,0h0l0,0,0,0,5.1-6.09A1,1,0,0,0,432.31,64.44Z"/></g></g></svg>