<svg xmlns="http://www.w3.org/2000/svg" viewBox="0 0 566.93 85.04"><defs><style>.cls-1{fill:#00467d;}.cls-2{fill:#ffcc80;}.cls-3{fill:#fff;}</style></defs><title>ads_cav01_en</title><g id="Layer_2" data-name="Layer 2"><g id="Layer_1-2" data-name="Layer 1"><rect class="cls-1" width="566.93" height="85.04"/><path class="cls-2" d="M63.38,34.23a1.3,1.3,0,0,0-1.11-1.93,5,5,0,0,0-1.53.32,18.74,18.74,0,0,0-2.8-.12,1.42,1.42,0,0,0-.71.23.77.77,0,0,0-1.2.44,2.36,2.36,0,0,0,.84,2.27c.49.43,1.65.79,1.91,1.41s1.11,1.28,1.83.75A8.41,8.41,0,0,0,63.38,34.23Z"/><path class="cls-2" d="M101,35a1.07,1.07,0,0,0-1.67-.3.79.79,0,0,1-.23.14,1.51,1.51,0,0,0-2.32.31,1,1,0,0,0,.36,1.35l.07,0a.85.85,0,0,0,.71.36H98a3,3,0,0,0,1.42,0,1,1,0,0,0,.88.15.88.88,0,0,0,.59.09,1.13,1.13,0,0,0,.74-1.55A1.1,1.1,0,0,0,101,35Z"/><path class="cls-2" d="M58.23,66.36c-1.69.16-3.14,1.68-4.21,3a1.44,1.44,0,0,0-.37-.21c-.71-.28-1.07.69-.67,1.15.11.14.1.66.14.84a2.38,2.38,0,0,0,.43,1,2.43,2.43,0,0,0,2.06.9,5.32,5.32,0,0,0,2.62-1.32l.68-.47c1,.4,2-.76,1.64-1.8A2.27,2.27,0,0,0,58.23,66.36Z"/><path class="cls-2" d="M32.65,57.87c-.11-.73-1.07-.54-1.29,0-.08.22-.17.44-.24.67a1.23,1.23,0,0,0-1,1.16c0,.2,0,.42,0,.63a14.84,14.84,0,0,1-.69,3.84c-.41,1.34,1.44,2,2.14,1a5.39,5.39,0,0,0,.58.59,1.17,1.17,0,0,0,1.83-1.42A12.37,12.37,0,0,1,32.64,61,10.46,10.46,0,0,0,32.65,57.87Z"/><path class="cls-2" d="M31.38,75.69a1.29,1.29,0,0,0,1.5.2c.88-.64,1.92-1.71,1.63-2.9a1.2,1.2,0,0,0-1.76-.71,2.11,2.11,0,0,0-.22.17c-.07-.09-.13-.19-.21-.28a.91.91,0,0,0-.79-.32,1.19,1.19,0,0,0-1.14.17A1.22,1.22,0,0,0,30,73.26,4,4,0,0,0,31.38,75.69Z"/><path class="cls-2" d="M89.5,9.15c-.75,1.33-.24,3.27,1.51,3.32a3.71,3.71,0,0,0,2.27-.8,2.55,2.55,0,0,0,.61-.42,2.1,2.1,0,0,0,.51.06,2.07,2.07,0,0,0,1.91-1.72,1.57,1.57,0,0,0,0-.61H89.62A1.77,1.77,0,0,0,89.5,9.15Z"/><path class="cls-3" d="M39.66.1,34.48,1.17C26.27,2.86,22.15,3.71,20,5.23A5.33,5.33,0,0,0,17.66,8.9a4,4,0,0,1-.69,0,.68.68,0,1,0-.18,1.34,5.07,5.07,0,0,0,.68,0c-.1.9-.15,1.92-.21,3.08,0,.7-.08,1.45-.13,2.27a.68.68,0,0,0,.47.69.69.69,0,0,0,.78-.28,17.22,17.22,0,0,1,4.33-4.64c0,.15,0,.29,0,.44a12.44,12.44,0,0,0-.1,1.38c0,.89.15,2.38,1.18,2.38.55,0,.92-.48,2.1-2.13.37-.52.95-1.33,1.4-1.86,0,.16,0,.33,0,.49,0,1.25,0,2.07.68,2.29s1-.31,1.61-1.15A12.83,12.83,0,0,1,38.77,7.3C39,12.43,42,18.16,47.27,19.46a.67.67,0,0,0,.43.16l.32,0h0c.38.1,2.19,1.13,2.19,2.76,0,.51,0,2.06-3.22,2.73a.69.69,0,0,0-.54.65c-.15,5.57-2.57,7.06-5.12,8.63s-5,3-5,8a3.37,3.37,0,0,0,.2,1.21l-.1,0c-1.11.67-2.27,1.36-3.3,2.05A.71.71,0,0,0,33,46a23.33,23.33,0,0,1-2.6.21.67.67,0,0,0-.52-.25,2.49,2.49,0,0,1-1.57-.68,3.16,3.16,0,0,0,1.07-2.53c0-2.18-1.76-3.22-3.63-4.32C23,36.8,20,35,20,29.28c0-2.21.19-4.44.37-6.61s.37-4.46.37-6.73c0-.27,0-.54,0-.82a.68.68,0,0,0-.69-.66.67.67,0,0,0-.66.69v.79c0,2.21-.18,4.45-.36,6.62s-.37,4.46-.37,6.72c0,6.49,3.71,8.68,6.42,10.29,1.89,1.12,3,1.81,3,3.15,0,1.72-1.31,2.1-3.62,2.64-2.52.59-5.66,1.33-5.66,5.46v.06l-.29-.21a.68.68,0,0,0-.81,1.09,33.08,33.08,0,0,0,20.07,6.68h.77a30.94,30.94,0,0,0,22.8-10.61A34.32,34.32,0,0,0,69.6,24.74,31.86,31.86,0,0,0,63.34,6.25a30.19,30.19,0,0,0-2.56-3,.68.68,0,1,0-1,1,28.73,28.73,0,0,1,2.45,2.83,30.51,30.51,0,0,1,6,17.7,33,33,0,0,1-1.33,9.88c-.31-.06-.62-.12-.93-.16a.69.69,0,0,0-.77.58.68.68,0,0,0,.58.76c.24,0,.48.08.71.13a32.47,32.47,0,0,1-6.27,11,29.62,29.62,0,0,1-7,5.9,9.81,9.81,0,0,0-3.53-6.9c0-.16.1-.33.16-.51a.66.66,0,0,0-.39-.87.67.67,0,0,0-.87.39l-.08.21A9.82,9.82,0,0,0,43.69,44l-1.13,0-1.1,0c-3.7,0-3.7-.76-3.7-1.63,0-4.23,2-5.46,4.31-6.88,2.55-1.57,5.43-3.35,5.75-9.23,3.1-.81,3.77-2.57,3.77-3.94a4.65,4.65,0,0,0-3.07-4c0-.63.09-1.27.14-1.89.1-1.23.21-2.51.21-3.77,0-3.7-1.59-8.93-5.1-9.69-.09-1.22-.51-3-3.07-3h-.05A5.54,5.54,0,0,0,39.66.1ZM29.08,52.89a25,25,0,0,0-.46,2.9,31.33,31.33,0,0,1-8.49-3.93.66.66,0,0,0,0-.28,5.06,5.06,0,0,1-.06-.76c0-2.59,1.53-3.35,3.51-3.87a20.1,20.1,0,0,1,1.86,3.48c.36.77.72,1.57,1.14,2.33a.69.69,0,0,0,.45.33l.14,0a.68.68,0,0,0,.4-.13,13.85,13.85,0,0,1,1.67-1h0Zm-.46-2.1c-.39.21-.8.42-1.19.66-.25-.51-.49-1-.74-1.59A24,24,0,0,0,25,46.61,13,13,0,0,0,27.09,46,4.08,4.08,0,0,0,29,47.17c.1,1,.27,2,.44,3a.59.59,0,0,0,0,.13Zm4.17-3.42v.27a19.8,19.8,0,0,0,.14,2.19.38.38,0,0,0-.09.15,1.06,1.06,0,0,0,0,.19.52.52,0,0,0-.1.11,9.86,9.86,0,0,1-1.81.22l-.1-.55c-.14-.8-.28-1.61-.37-2.41C31.19,47.52,32,47.47,32.79,47.37Zm-2.88,8.77a.55.55,0,0,0,.06-.22,23.22,23.22,0,0,1,.44-2.76c.08-.43.17-.87.24-1.31h.13a11.14,11.14,0,0,0,2-.2c.22.91.53,1.81.83,2.68a24.89,24.89,0,0,1,.8,2.59A32.15,32.15,0,0,1,29.91,56.14Zm11.3-10.76C40.54,46.9,40,48.44,39.41,50c-.46,1.27-.94,2.59-1.48,3.85a.69.69,0,0,0,.36.89.86.86,0,0,0,.27.05.69.69,0,0,0,.62-.41c.55-1.3,1-2.63,1.51-3.91.6-1.66,1.23-3.36,2-5a.19.19,0,0,0,0-.07h1c6.69,0,8.19,5.93,8.19,8a.46.46,0,0,0,0,.21,29.76,29.76,0,0,1-13.49,3.51c-.89,0-1.77,0-2.65,0a.71.71,0,0,0,0-.14,25.35,25.35,0,0,0-.91-3c-.3-.89-.59-1.73-.79-2.58l.06-.05.71.38a17,17,0,0,0,1.54.77.75.75,0,0,0,.26.05.69.69,0,0,0,.62-.41c.18-.42.35-.84.52-1.25a17.41,17.41,0,0,1,3-5.43Zm-2.09-.15a21.93,21.93,0,0,0-2.59,5.05l-.24.59c-.27-.13-.53-.27-.8-.42s-.79-.42-1.2-.61a20.85,20.85,0,0,1-.15-2.2,9.41,9.41,0,0,1,0-1c1-.62,2-1.26,3-1.87a.61.61,0,0,0,.2-.19A4.21,4.21,0,0,0,39.12,45.23ZM42.44,3.58a.68.68,0,0,0,.64.66c2.74.17,4.43,4.5,4.43,8.42,0,1.21-.1,2.45-.2,3.66-.05.56-.1,1.14-.13,1.71-4.59-1.41-7.07-6.82-7.08-11.47a.64.64,0,0,0-.22-.49.66.66,0,0,0-.46-.19h0a14,14,0,0,0-10.78,6.3v-.12c0-.16,0-.33,0-.5s0-.35,0-.52c0-.71-.23-1.13-.69-1.28-.87-.28-1.65.74-3.18,2.88-.25.34-.54.76-.79,1.08a5,5,0,0,1,0-.54c0-.4,0-.8.08-1.23a13,13,0,0,0,.1-1.41.81.81,0,0,0-.58-.8c-1-.28-3.15,1.53-4.92,3.65.2-4,.3-5.8,2.11-7.06,2-1.36,6-2.19,14-3.84l5.18-1.07a3.63,3.63,0,0,1,.73-.08C42.21,1.35,42.4,2.07,42.44,3.58Z"/><path class="cls-3" d="M47,22a3.08,3.08,0,0,1-.09.66.68.68,0,0,0,.54.8h.13a.67.67,0,0,0,.66-.54,4.45,4.45,0,0,0,.12-.93,1.87,1.87,0,0,0-.53-1.38.68.68,0,1,0-1,1A.53.53,0,0,1,47,22Z"/><path class="cls-3" d="M28.79,31A7.36,7.36,0,0,0,30,30.86c.15,0,.29-.05.44-.06a.68.68,0,1,0-.17-1.35l-.48.07a6.81,6.81,0,0,1-1,.1c-.48,0-1.05-.11-1.05-.62s.15-.59.89-.92c1-.45,2.55-1.14,2.55-4.28a19.06,19.06,0,0,0-.41-3.38c-.05-.24-.09-.47-.13-.69a.67.67,0,0,0-.78-.55.68.68,0,0,0-.55.79q.06.33.12.69a17.29,17.29,0,0,1,.4,3.14c0,2.26-.86,2.64-1.76,3.05A2.23,2.23,0,0,0,26.39,29C26.39,30.2,27.33,31,28.79,31Z"/><path class="cls-3" d="M29.69,34.6a.68.68,0,0,0,.35.89,5.54,5.54,0,0,0,2.22.45,6.49,6.49,0,0,0,3.89-1.33.68.68,0,0,0-.83-1.07,4.91,4.91,0,0,1-4.73.71A.68.68,0,0,0,29.69,34.6Z"/><path class="cls-3" d="M24.39,24.63a1.46,1.46,0,0,0,1.38-1.52,1.67,1.67,0,0,0-1.47-1.67.64.64,0,0,0-.56.19,2.4,2.4,0,0,0-.7,1.54A1.43,1.43,0,0,0,24.39,24.63Zm0-1.53a.25.25,0,0,1,0,.1v0A.23.23,0,0,1,24.41,23.1Z"/><path class="cls-3" d="M34.9,23.85a1.25,1.25,0,0,0,1.15-1.27A1.75,1.75,0,0,0,35,21a.67.67,0,0,0-.63.06,1.59,1.59,0,0,0-.69,1.31C33.65,23,34.14,23.85,34.9,23.85Z"/><path class="cls-3" d="M1.52,3.35V3a14.9,14.9,0,0,0-.31-3H0V1A15.1,15.1,0,0,1,.17,2.73H0V4.1L.93,4A.68.68,0,0,0,1.52,3.35Z"/><path class="cls-3" d="M7.33,70c5.2,0,9.88-4.1,11.14-9.75a.68.68,0,1,0-1.32-.29,14.64,14.64,0,0,1-.44,1.47l-.08,0a2.86,2.86,0,0,1-1.24.26,3.51,3.51,0,0,1-1.73-.42,3.27,3.27,0,0,0-1.54-.42,6,6,0,0,0-2.82,1,4.47,4.47,0,0,1-1,.48,4,4,0,0,1-1-.42,4.7,4.7,0,0,0-2-.66,4,4,0,0,0-2.72,1.34.68.68,0,0,0,0,1,.68.68,0,0,0,1,0,2.86,2.86,0,0,1,1.76-.94,4.18,4.18,0,0,1,1.36.52,4,4,0,0,0,1.62.57A3.69,3.69,0,0,0,10,63.06a4.81,4.81,0,0,1,2.14-.85,2.09,2.09,0,0,1,1,.29,4.78,4.78,0,0,0,2.31.56A5.65,5.65,0,0,0,16,63a10.24,10.24,0,0,1-8.65,5.61A9.5,9.5,0,0,1,0,65.29v1.93A10.7,10.7,0,0,0,7.33,70Z"/><path class="cls-3" d="M20.55,74.2c0,.36,0,.72.05,1.08a50.64,50.64,0,0,0,.46,6,.68.68,0,0,0,.67.57h.11a.67.67,0,0,0,.56-.77A49.58,49.58,0,0,1,22,75.23q0-1.35-.12-2.73a.74.74,0,0,0,0-.39A31.27,31.27,0,0,0,21.27,68a.68.68,0,1,0-1.33.28,29.93,29.93,0,0,1,.51,3.9c-1.71,2.51-8,7-14.32,7A15.32,15.32,0,0,1,0,77.85v1.5a16,16,0,0,0,6.13,1.24C12.12,80.59,17.87,77,20.55,74.2Z"/><path class="cls-3" d="M100,1.81c0,4.24-2.92,7.48-6.82,7.7A8,8,0,0,1,87,7.13,8.46,8.46,0,0,1,84.43.8a5.29,5.29,0,0,1,.09-.8H83.15c0,.24-.06.48-.08.73a9.6,9.6,0,0,0,1.74,5.9s0,0,0,0c-.25.29-.6.67-1,1.12C81.25,10.5,79,13.12,79,15.1a2.21,2.21,0,0,0,1.92,2.19c1.08,0,2.64-1.58,5.93-5.36.71-.82,1.34-1.54,1.78-2a9.31,9.31,0,0,0,4.07.94h.56c4.63-.27,8-4.07,8.09-9A10,10,0,0,0,101.18,0H99.81A9.67,9.67,0,0,1,100,1.81ZM85.81,11c-1.35,1.55-4.15,4.77-4.9,4.9a1,1,0,0,1-.58-.84c0-1.61,2.89-4.73,4.44-6.41l.89-1c.11.13.23.26.35.38A10.74,10.74,0,0,0,87.4,9.24C87,9.71,86.42,10.34,85.81,11Z"/><path class="cls-3" d="M94.8.56a.66.66,0,0,0-.13.36c0,.1,0,.2,0,.31a5.74,5.74,0,0,0,.27,1.7,15.8,15.8,0,0,1-1.66-.35.67.67,0,0,0-.68.2c-.35.37-.76.82-1.19,1.31-.21-.71-.42-1.44-.57-2.15a.68.68,0,0,0-.5-.51l-.84-.23,1-.58.84-.51L91.43,0H88.85a14.92,14.92,0,0,1-1.37.72.67.67,0,0,0-.4.64.66.66,0,0,0,.43.61,19.8,19.8,0,0,0,2.08.66c.17.69.37,1.36.57,2,.1.34.19.67.29,1a.69.69,0,0,0,.51.48h.14a.66.66,0,0,0,.52-.24C92.2,5.22,92.8,4.55,93.31,4a19.57,19.57,0,0,0,2.62.43.67.67,0,0,0,.63-.28.68.68,0,0,0,0-.7A4.81,4.81,0,0,1,96,1.23V1.18A7.52,7.52,0,0,0,96.66,0H95.14C95,.19,94.92.39,94.8.56Z"/><path class="cls-3" d="M108.89,10.46c-1,1.23-2,2.48-2.87,3.64a.67.67,0,0,0,.11.94c.5.4,1,.78,1.52,1.15s1,.74,1.49,1.12a.67.67,0,0,0,.92-.07c1-1.11,2.11-2.18,3.1-3.18a.66.66,0,0,0,.2-.49.64.64,0,0,0-.22-.49c-1.23-1.11-2.29-2-3.32-2.74A.67.67,0,0,0,108.89,10.46Zm.6,5.41-1-.77-.95-.71c.65-.83,1.33-1.7,2-2.57.68.52,1.38,1.11,2.16,1.79C111,14.33,110.24,15.09,109.49,15.87Z"/><path class="cls-3" d="M87.56,19.51a.67.67,0,0,0,.68.68h1.94a15.94,15.94,0,0,0,.21,2.38.68.68,0,0,0,.67.55h.13a.68.68,0,0,0,.54-.79,13.5,13.5,0,0,1-.19-2.13h1.78a.68.68,0,1,0,0-1.36H91.51a16.77,16.77,0,0,0-.12-2,.68.68,0,0,0-.75-.59.68.68,0,0,0-.59.76,18,18,0,0,1,.11,1.83H88.24A.68.68,0,0,0,87.56,19.51Z"/><path class="cls-3" d="M120.21,38.83a2.14,2.14,0,0,0,.84-1.13,2.7,2.7,0,0,0,.17-.94,2.57,2.57,0,0,0-.68-1.74,5,5,0,0,0,.3-1.83c0-2.84-1.52-4.47-4.18-4.47a6.07,6.07,0,0,0-5.4,3.39h-.1c-2.1,0-4.23,1.77-4.23,3.52,0,3.58,4.43,4.92,7.23,4.92A14.6,14.6,0,0,0,120.21,38.83Zm-8-5a1.27,1.27,0,0,1,.49,1c0,.28,0,.63-.23.63a2,2,0,0,1-.29-1.26A2.73,2.73,0,0,1,112.16,33.78Zm-3.88,1.85c0-.76,1.16-2,2.55-2.15a5.65,5.65,0,0,0,0,.71c0,1.61.63,2.61,1.65,2.61.76,0,1.58-.52,1.58-2a2.61,2.61,0,0,0-1.41-2.36,4.79,4.79,0,0,1,4.06-2.39c1.91,0,2.83,1,2.83,3.12a4.21,4.21,0,0,1-.12,1.07,3,3,0,0,0-.9-.14c-.94,0-1.94.44-1.94,1.41a1.29,1.29,0,0,0,1.4,1.27,2.7,2.7,0,0,0,1.8-.61,1.33,1.33,0,0,1,.13.57,1.26,1.26,0,0,1-.08.47.87.87,0,0,1-.29.45,13.21,13.21,0,0,1-5.33,1.51C112.24,39.19,108.28,38.32,108.28,35.63Z"/><path class="cls-3" d="M124,49.4a.7.7,0,0,0-.81-.52,10.56,10.56,0,0,1-2,.22c0-.4,0-.81-.07-1.22s0-.65,0-1a.68.68,0,1,0-1.35.08c0,.32,0,.63.05.95l.06,1.17H118.5a.68.68,0,0,0,0,1.36H120a14.18,14.18,0,0,0,.47,2.44.68.68,0,0,0,1.31-.38,12.67,12.67,0,0,1-.42-2.07,11.91,11.91,0,0,0,2.17-.24A.69.69,0,0,0,124,49.4Z"/><path class="cls-3" d="M85,28a3,3,0,0,0-2.67-3,3.68,3.68,0,0,0-.47,0,4.44,4.44,0,0,0-1,.22,3.2,3.2,0,0,0-2.06,3.26,2.85,2.85,0,0,0,2.41,2.65c0,.16-.06.32-.09.48a.69.69,0,0,0,.58.77h.1a.69.69,0,0,0,.67-.59,6.1,6.1,0,0,1,.14-.72,3.23,3.23,0,0,0,1.43-.8A3.06,3.06,0,0,0,85,28Zm-1.88,1.32a1.92,1.92,0,0,1-1.44.52,1.54,1.54,0,0,1-1.51-1.45,1.85,1.85,0,0,1,1.17-1.88,2.57,2.57,0,0,1,.64-.15h.25A1.61,1.61,0,0,1,83.69,28,1.72,1.72,0,0,1,83.16,29.29Z"/><path class="cls-3" d="M79.53,41.63a2.36,2.36,0,0,0-2.36-2.33,2.13,2.13,0,0,0-.63.08s0,0,0,0l-.26-.27-.38-.38a.68.68,0,0,0-.95,1l.37.36,0,0a2.36,2.36,0,0,0-.68,1.71A2.45,2.45,0,0,0,77.1,44.1h0a2.37,2.37,0,0,0,1.69-.73A2.47,2.47,0,0,0,79.53,41.63Zm-1.68.8a1,1,0,0,1-.75.31,1,1,0,0,1-.32-2,1.08,1.08,0,0,1,.36-.05,1,1,0,0,1,1,1A1.13,1.13,0,0,1,77.85,42.43Z"/><path class="cls-3" d="M77.62,51.13a.67.67,0,0,0-.67-.68,7.17,7.17,0,0,0-1,.08,11.6,11.6,0,0,1-.09-1.44.68.68,0,0,0-1.36,0,12.7,12.7,0,0,0,.11,1.65,8.57,8.57,0,0,1-1.46.16.68.68,0,0,0,0,1.36,9.37,9.37,0,0,0,1.66-.18c.11.6.24,1.2.37,1.81l.66-.14.66-.16c-.13-.59-.25-1.16-.35-1.72A6.2,6.2,0,0,1,77,51.8.67.67,0,0,0,77.62,51.13Z"/><path class="cls-3" d="M56.05,12.8c.11.6.24,1.2.37,1.81l.66-.14.66-.16c-.12-.59-.25-1.16-.35-1.72a6.2,6.2,0,0,1,.84-.07.68.68,0,1,0,0-1.35,7.17,7.17,0,0,0-1,.08,11.6,11.6,0,0,1-.09-1.44.68.68,0,0,0-1.36,0,12.82,12.82,0,0,0,.11,1.65,8.57,8.57,0,0,1-1.46.16.68.68,0,1,0,0,1.35A10.38,10.38,0,0,0,56.05,12.8Z"/><path class="cls-3" d="M86.72,64.57h-.25a2.94,2.94,0,0,0-3.1,2.83,3.06,3.06,0,0,0,2.84,3,3,3,0,0,0,2.94-3.11,2.78,2.78,0,0,0-1.08-2.31A2.32,2.32,0,0,0,86.72,64.57ZM86.21,69a1.7,1.7,0,0,1-1.49-1.59,1.59,1.59,0,0,1,1.58-1.48h.38a1,1,0,0,1,1.12,1.3A1.61,1.61,0,0,1,86.21,69Z"/><path class="cls-3" d="M117.19,70.78a.67.67,0,0,0,.41.13h.09a.69.69,0,0,0,.45-.27c.44-.58.9-1.15,1.36-1.71s1-1.19,1.43-1.81a.64.64,0,0,0,.12-.52.68.68,0,0,0-.29-.45,35.07,35.07,0,0,1-3.61-2.87.65.65,0,0,0-.51-.17.67.67,0,0,0-.47.27c-.72.95-1.47,1.85-2.28,2.81l-.62.75a.68.68,0,0,0,.11,1Zm-2.26-3.72c.63-.74,1.27-1.51,1.88-2.29a32.44,32.44,0,0,0,2.61,2.1c-.32.41-.65.81-1,1.2s-.66.81-1,1.22l-2.7-2Z"/><path class="cls-3" d="M107.49,84.81a1.7,1.7,0,0,1,.78-1.47,1.33,1.33,0,0,1,.62-.19h.24a2,2,0,0,1,1.35.45,1.42,1.42,0,0,1,.46,1.07,1.26,1.26,0,0,1,0,.38h1.37c0-.14,0-.29,0-.43a2.79,2.79,0,0,0-.92-2,3.47,3.47,0,0,0-2.6-.78,2.78,2.78,0,0,0-1.21.38,3,3,0,0,0-1.43,2.63,1.79,1.79,0,0,0,0,.23h1.36A.91.91,0,0,1,107.49,84.81Z"/><path class="cls-3" d="M95.21,76.55c0-.25,0-.5,0-.75A15.13,15.13,0,0,0,95,73.13a.68.68,0,0,0-1.33.25,14.76,14.76,0,0,1,.17,2.44c0,.48,0,1,0,1.46a.69.69,0,0,0,.68.64c1.23,0,2.45,0,3.67,0H100a40.48,40.48,0,0,0,5.64-.31.68.68,0,0,0,.58-.73c-.09-1.13-.17-2.25-.24-3.37-.18-2.57-.36-5.23-.74-7.9a.69.69,0,0,0-.77-.58.68.68,0,0,0-.57.77c.37,2.62.55,5.26.72,7.81.07.91.13,1.82.2,2.74a41.57,41.57,0,0,1-4.33.22c-.32-2.26-.43-4.62-.54-6.9V69.5a.68.68,0,1,0-1.35.06v.16c.11,2.26.23,4.58.53,6.83h-.92C97.23,76.54,96.22,76.53,95.21,76.55Z"/><path class="cls-3" d="M111.25,48.59c.11,2.32.27,4.58.43,6.95l0,.6a.67.67,0,0,0,.67.63h0a.69.69,0,0,0,.63-.72l0-.6c-.18-2.61-.36-5.08-.47-7.63a.69.69,0,0,0-.23-.49.71.71,0,0,0-.52-.16,38,38,0,0,1-4.26.21c-.94,0-1.9,0-2.85-.05l-.33-3.42c-.35-3.52-.7-7.16-1-10.73a.66.66,0,0,0-.23-.46.7.7,0,0,0-.5-.16c-1.73.15-3.51.19-5.24.21,0-.1,0-.2,0-.31,0-.9-.07-1.81-.15-2.71,1.77-.1,3.53-.26,5.23-.48a.65.65,0,0,0,.55-.44.69.69,0,0,0-.14-.7,3.29,3.29,0,0,1-.51-1.85,3.54,3.54,0,0,1,.19-1.14.7.7,0,0,0-.11-.64.67.67,0,0,0-.59-.26,42.83,42.83,0,0,1-5.58.13.66.66,0,0,0-.71.64.76.76,0,0,0,0,.15.41.41,0,0,0,0,.11c0,1.21.12,2.45.23,3.65A35.24,35.24,0,0,1,96,32.46c0,.15,0,.29,0,.44l-.13.1-.54.59C94,35,92.67,36.49,91.25,37.85a.74.74,0,0,0-.21.53,20.66,20.66,0,0,0,.14,2.68c.29,2.3.39,4.62.45,6.9-2.08.18-4.34.31-7,.4a.72.72,0,0,0-.48.22.77.77,0,0,0-.18.5c.06,1,.12,2,.19,2.93.11,1.69.22,3.44.28,5.12a.68.68,0,0,0,.68.66h0a.67.67,0,0,0,.65-.7c0-1.71-.17-3.47-.28-5.17,0-.74-.1-1.49-.14-2.23,2.39-.08,4.43-.2,6.33-.37,0,.25,0,.5,0,.75,0,2.29.09,4.67.28,7a.68.68,0,0,0,.68.62h.06a.67.67,0,0,0,.61-.73c-.08-1-.14-2-.18-3.05a45.86,45.86,0,0,1,5.08-.31,46.27,46.27,0,0,0,5.7-.39c.08,1,.17,1.92.25,2.88a.68.68,0,1,0,1.35-.12c-.2-2.41-.43-4.85-.66-7.28.89,0,1.81,0,2.71,0C109,48.73,110.14,48.69,111.25,48.59ZM101.07,25.66a4.21,4.21,0,0,0,0,.62,5.58,5.58,0,0,0,.3,1.77c-1.38.16-2.79.27-4.21.35-.08-.88-.15-1.78-.18-2.66C98.24,25.78,99.6,25.76,101.07,25.66Zm-8.68,13c1.38-1.33,2.69-2.75,4-4.12l.35-.37h.49c1.6,0,3.25-.05,4.88-.16q.21,2.25.42,4.53l-2.13.11a54.46,54.46,0,0,0-8,.79C92.4,39.15,92.39,38.9,92.39,38.63Zm.13,2.26s0-.09,0-.13c.77-.16,1.54-.28,2.32-.38.11.83.18,1.68.24,2.53l-2.32.17C92.69,42.35,92.62,41.62,92.52,40.89Zm.32,3.54,2.32-.17c0,.69.07,1.37.1,2.05,0,.1,0,.2,0,.3-.76,0-1.54,0-2.32.1C92.92,46,92.89,45.2,92.84,44.43Zm.25,8.12L93,50c0-.65,0-1.31,0-2,.78,0,1.57-.07,2.35-.09.07,1.45.17,2.91.35,4.35C94.83,52.37,94,52.44,93.09,52.55Zm3.09-12.32c.86-.08,1.71-.13,2.57-.18,0,.85,0,1.69.1,2.54l-2.16.18-.27,0C96.36,41.94,96.28,41.08,96.18,40.23Zm.43,6c0-.7-.06-1.4-.1-2.11l.3,0L99,43.94c.06.84.14,1.67.23,2.5-.85.07-1.7.11-2.55.13C96.62,46.47,96.62,46.36,96.61,46.25Zm1.57,6-1.13,0c-.18-1.43-.28-2.89-.36-4.34.87,0,1.75-.07,2.63-.14,0,.08,0,.15,0,.23.15,1.36.29,2.77.41,4.18ZM100.1,40l.33,0,2.19-.11.24,2.49c-.88,0-1.77.08-2.66.14C100.14,41.65,100.11,40.82,100.1,40Zm.2,3.85c.9-.06,1.8-.11,2.7-.14l0,.35.18,1.78a1,1,0,0,0-.24,0,18.4,18.4,0,0,1-2.44.46C100.44,45.47,100.36,44.65,100.3,43.83Zm.8,8.31c-.11-1.44-.26-2.88-.41-4.27a1.5,1.5,0,0,1,0-.22,20.26,20.26,0,0,0,2.65-.5h0c.15,1.57.3,3.14.44,4.71A26.77,26.77,0,0,1,101.1,52.14Z"/><path class="cls-3" d="M97.38,83.81a5.2,5.2,0,0,0-2.09.49,4.39,4.39,0,0,0-1.11.74h6.67A5.22,5.22,0,0,0,97.38,83.81Z"/><path class="cls-3" d="M54.17,25c0,1.83,2.33,3.46,4.58,5l1.1.78a.66.66,0,0,0,.4.13.68.68,0,0,0,.51-.23c.35-.41.75-.82,1.14-1.22,1.36-1.39,2.77-2.83,2.77-4.89a2.8,2.8,0,0,0-2.78-2.81,3.68,3.68,0,0,0-2.18.84,3.6,3.6,0,0,0-2.39-1A3.31,3.31,0,0,0,54.17,25Zm5-1a.72.72,0,0,0,.49.24.75.75,0,0,0,.51-.19,2.68,2.68,0,0,1,1.74-.9,1.44,1.44,0,0,1,1.42,1.45c0,1.51-1.16,2.69-2.38,3.95q-.39.39-.78.81l-.62-.44c-1.69-1.18-4-2.8-4-3.93a2,2,0,0,1,1.8-2A2.54,2.54,0,0,1,59.15,24Z"/><path class="cls-3" d="M66.66,3.77a35.76,35.76,0,0,1,7,20.78,38.61,38.61,0,0,1-9.4,26A34.71,34.71,0,0,1,38.66,62.5,37.35,37.35,0,0,1,11.33,51.65,36.46,36.46,0,0,1,.48,25,35.41,35.41,0,0,1,9.74,1.7l.09-.05a.64.64,0,0,0,.23-.31c.42-.46.86-.9,1.31-1.34h-3a.67.67,0,0,0,0,.71c.06.1.14.2.2.3A37,37,0,0,0,0,17.59V33.68A37.82,37.82,0,0,0,3.88,44c-.85,0-1.69,0-2.5,0L0,44.1v1.35l1.39,0c1,0,2.05,0,3.1-.06l.15,0a36.51,36.51,0,0,0,2.91,4.12.69.69,0,0,0-.27.48c0,.35,0,.72,0,1.09A25.28,25.28,0,0,0,7.64,55c0,.16.05.31.08.47-1.7.19-3.41.31-5.07.43L0,56.08v1.36l2.75-.21c1.9-.13,3.86-.27,5.82-.52A.74.74,0,0,0,9,56.45a.67.67,0,0,0,.13-.51L9,54.77A24.57,24.57,0,0,1,8.59,51c0-.11,0-.21,0-.32.57.65,1.16,1.29,1.78,1.9a38.52,38.52,0,0,0,16.71,9.78.66.66,0,0,0,.08.65c.92,1.26,1.77,2.58,2.59,3.86.44.69.89,1.39,1.36,2.08.07,1.23.09,2.51.11,3.74a51.34,51.34,0,0,0,.33,6,.68.68,0,0,0,.67.58h.1a.67.67,0,0,0,.57-.77,48,48,0,0,1-.31-5.88c0-1,0-2-.08-3a.75.75,0,0,0,.15-.16c.31-.51.64-1,1-1.52.87-1.36,1.76-2.76,2.56-4.22q.81,0,1.62,0h.89a36.79,36.79,0,0,0,12.2-2.36c.32.58.62,1.18.92,1.78h0c-8.83,5.3-8.95,10-9,13.83C42.66,80.2,42.59,82.83,37,85h3.1c3.83-2.24,3.91-4.87,4-7.89.1-3.64.21-7.76,8.31-12.66l1.18,2.44c.54,1.14,1.1,2.31,1.66,3.43a.59.59,0,0,0,.13.18,5.63,5.63,0,0,1-1.17.14,6,6,0,0,1-1.58-.22.68.68,0,0,0-.84.47.67.67,0,0,0,.47.83,7.12,7.12,0,0,0,2,.27c4.08,0,13.65-6,13.65-8.52,0-1.26-1.28-1.51-1.89-1.63H65.9a.67.67,0,1,0-.26,1.32l.06,0c.22,0,.73.14.8.29,0,1.09-5.79,5.33-10,6.73a.64.64,0,0,0,0-.47c-.56-1.12-1.11-2.28-1.65-3.41L54.66,66a13.42,13.42,0,0,0,6.88-3.45.68.68,0,1,0-.93-1,12.22,12.22,0,0,1-6.55,3.16c-.61-1.26-1.24-2.54-1.9-3.77a35.78,35.78,0,0,0,6.9-3.88c.49.84,1,1.66,1.49,2.45a42.16,42.16,0,0,1,2.67,4.71.67.67,0,0,0,.89.34.69.69,0,0,0,.34-.9,31.5,31.5,0,0,0-1.82-3.35.66.66,0,0,0,.27-.12,8.72,8.72,0,0,1,5.22-2A4.81,4.81,0,0,1,73.27,63c0,3.28-2.84,5.48-5.57,7.6-.51.39-1,.77-1.46,1.15a.67.67,0,0,0-.09,1,.68.68,0,0,0,.52.25.64.64,0,0,0,.43-.16c.45-.37.93-.74,1.43-1.12,2.52-2,5.34-4.14,6-7.35,2.05.15,2.9.93,2.9,2.63,0,3.17-2.55,5.1-4.8,6.81-.63.48-1.23.93-1.74,1.39a.68.68,0,0,0,0,1,.67.67,0,0,0,.5.23.66.66,0,0,0,.45-.18c.48-.42,1-.86,1.66-1.32,1.81-1.37,3.94-3,4.87-5.37h.06c1.78,0,2.74.51,2.74,3.19,0,3.9-3.69,7.25-5.9,8.9a.68.68,0,0,0-.13,1,.67.67,0,0,0,.54.27.69.69,0,0,0,.41-.13,19,19,0,0,0,5.28-5.79h.11c2.15,0,4.18,2.2,4.18,2.84,0,2-1.84,3.81-3.9,5.39h2.14c1.74-1.54,3.11-3.31,3.11-5.39,0-1.45-2.42-3.88-5-4.17a8.3,8.3,0,0,0,.54-2.86c0-3-1.21-4.43-3.79-4.53a6.36,6.36,0,0,0,.11-1.17c0-2.42-1.39-3.75-4.13-4a6.13,6.13,0,0,0-6.5-6,10,10,0,0,0-6,2.22.43.43,0,0,0-.12.11l-.27-.43c-.52-.82-1-1.67-1.54-2.54a37.2,37.2,0,0,0,5.14-4.84,39.24,39.24,0,0,0,7.62-13.35l.14.06a.61.61,0,0,0,.32.08A.67.67,0,0,0,73.69,37l-.35-.17A39.92,39.92,0,0,0,75,24.52,37.15,37.15,0,0,0,67.73,3,33.84,33.84,0,0,0,65.23,0h-1.9A36.46,36.46,0,0,1,66.66,3.77ZM32.48,67.32c-.14.22-.28.43-.41.65-.4-.6-.79-1.21-1.17-1.8-.71-1.11-1.46-2.26-2.25-3.38a39.09,39.09,0,0,0,6,.94C34,65,33.22,66.16,32.48,67.32Z"/><path class="cls-3" d="M4.56,25.15a32.28,32.28,0,0,0,6.7,20.31.67.67,0,0,0,1,.13.67.67,0,0,0,.13-1A31,31,0,0,1,5.91,25.17,30.11,30.11,0,0,1,12.05,7.42l.13.15a.64.64,0,0,0,.51.23.66.66,0,0,0,.44-.16.69.69,0,0,0,.07-1c-.1-.11-.19-.24-.28-.36A31.46,31.46,0,0,1,20.06,0h-2.4A31.81,31.81,0,0,0,4.56,25.15Z"/><path class="cls-3" d="M14.7,9.55a.66.66,0,0,0,.3.07.67.67,0,0,0,.61-.37.68.68,0,0,0-.3-.91,6.71,6.71,0,0,1-.77-.45A.68.68,0,0,0,13.77,9,7.32,7.32,0,0,0,14.7,9.55Z"/><path class="cls-3" d="M56.53,36.55a16.87,16.87,0,0,0-1.65,1,.68.68,0,0,0,.38,1.23.69.69,0,0,0,.39-.12c.5-.35,1-.67,1.54-1a.68.68,0,1,0-.66-1.18Z"/><path class="cls-3" d="M62,34.56a16.66,16.66,0,0,0-1.92.45.68.68,0,0,0,.2,1.33.63.63,0,0,0,.19,0,14.25,14.25,0,0,1,1.75-.41A.68.68,0,1,0,62,34.56Z"/><path class="cls-3" d="M51.91,40.09a17.65,17.65,0,0,0-1.3,1.46.67.67,0,0,0,.11,1,.66.66,0,0,0,.42.15.68.68,0,0,0,.53-.26A16.59,16.59,0,0,1,52.87,41a.68.68,0,1,0-1-.95Z"/><path class="cls-3" d="M81.89,34.73a.68.68,0,0,0-.52.81A10.46,10.46,0,0,0,82,37.43a.68.68,0,0,0,.62.41.67.67,0,0,0,.28-.06.69.69,0,0,0,.34-.9,8.52,8.52,0,0,1-.54-1.64A.67.67,0,0,0,81.89,34.73Z"/><path class="cls-3" d="M84.35,40.64A11.41,11.41,0,0,0,86,41.82a.73.73,0,0,0,.35.09.67.67,0,0,0,.35-1.25,9.92,9.92,0,0,1-1.4-1,.67.67,0,0,0-1,0A.68.68,0,0,0,84.35,40.64Z"/><path class="cls-3" d="M89.91,42a.69.69,0,0,0-.83.48.68.68,0,0,0,.48.83l.62.15.18,0a.53.53,0,0,0,.25.05.68.68,0,0,0,.25-1.31l-.37-.1Z"/><path class="cls-3" d="M104,7.64a.66.66,0,0,0-1,0,9.11,9.11,0,0,0-1.14,1.48.69.69,0,0,0,.22.93.69.69,0,0,0,.94-.22,7.37,7.37,0,0,1,1-1.27A.67.67,0,0,0,104,7.64Z"/><path class="cls-3" d="M102.88,17.38a.68.68,0,1,0-1.17.69,8.89,8.89,0,0,0,1.1,1.5.69.69,0,0,0,.51.23.66.66,0,0,0,.45-.18.67.67,0,0,0,0-.95A7.88,7.88,0,0,1,102.88,17.38Z"/><path class="cls-3" d="M100.6,12.64a8.68,8.68,0,0,0-.07,1.13v.07c0,.23,0,.46,0,.68a.68.68,0,0,0,.68.62h.06a.69.69,0,0,0,.61-.74,5.49,5.49,0,0,1,0-.58v-.05a6.16,6.16,0,0,1,.07-.95.69.69,0,0,0-.59-.76A.68.68,0,0,0,100.6,12.64Z"/><path class="cls-3" d="M105.8,21.77a9.17,9.17,0,0,0,1.76.61l.16,0a.68.68,0,0,0,.16-1.34,7.92,7.92,0,0,1-1.51-.52.68.68,0,0,0-.9.33A.67.67,0,0,0,105.8,21.77Z"/><path class="cls-3" d="M107.8,5a8.59,8.59,0,0,0-1.78.57.68.68,0,1,0,.55,1.24,7.1,7.1,0,0,1,1.52-.49L108,5.6Z"/><path class="cls-3" d="M112.56,20.73a7.53,7.53,0,0,1-1.52.44.68.68,0,0,0,.11,1.35h.12a9.49,9.49,0,0,0,1.8-.52.68.68,0,0,0-.51-1.26Z"/><path class="cls-3" d="M113.32,5.71a10.57,10.57,0,0,0-1.75-.65.69.69,0,0,0-.83.49.67.67,0,0,0,.49.82,8.41,8.41,0,0,1,1.49.56A.66.66,0,0,0,113,7a.68.68,0,0,0,.61-.38A.69.69,0,0,0,113.32,5.71Z"/><path class="cls-3" d="M117.11,14.7a.67.67,0,0,0,.59.75h.08a.67.67,0,0,0,.67-.6,9.42,9.42,0,0,0,.08-1.2V13.6c0-.2,0-.4,0-.6a.68.68,0,0,0-1.35.11c0,.16,0,.33,0,.5v.05A8.94,8.94,0,0,1,117.11,14.7Z"/><path class="cls-3" d="M116.27,7.93a.68.68,0,0,0-1,.91,7.65,7.65,0,0,1,.94,1.28.66.66,0,0,0,.58.34.73.73,0,0,0,.35-.09.68.68,0,0,0,.24-.93A8.88,8.88,0,0,0,116.27,7.93Z"/><path class="cls-3" d="M115.18,19.91a.69.69,0,0,0,.47.18.67.67,0,0,0,.49-.21,8.67,8.67,0,0,0,1.13-1.5.68.68,0,0,0-.24-.93.69.69,0,0,0-.93.24,6.41,6.41,0,0,1-.95,1.26A.69.69,0,0,0,115.18,19.91Z"/><path class="cls-3" d="M77.1,5.47a.66.66,0,0,0,.3.07A.67.67,0,0,0,78,5.17a.68.68,0,0,0-.3-.91,8.33,8.33,0,0,1-1.4-.9.67.67,0,0,0-1,.11.68.68,0,0,0,.1.95A9.9,9.9,0,0,0,77.1,5.47Z"/><path class="cls-3" d="M81.39,6.46a12.21,12.21,0,0,0,1.35-.07.67.67,0,0,0,.61-.74.68.68,0,0,0-.74-.6c-.41,0-.82.06-1.21.06h-.49a.67.67,0,0,0-.72.64.68.68,0,0,0,.64.71Z"/><path class="cls-3" d="M73,1.5a.67.67,0,0,0,.58.34.64.64,0,0,0,.35-.1.67.67,0,0,0,.24-.92A9.16,9.16,0,0,1,73.71,0H72.23A12.29,12.29,0,0,0,73,1.5Z"/><rect class="cls-1" x="54.67" y="34.77" width="70.1" height="25.11" rx="5.67"/><rect class="cls-1" x="85.5" y="25.16" width="7.88" height="13.61" rx="2.53"/><rect class="cls-1" x="115.06" y="32.68" width="5.14" height="6.78" rx="2.57"/><path class="cls-3" d="M65.71,40.15a4.46,4.46,0,0,0-1.16-.63,4.34,4.34,0,0,0-1.41-.22,3.19,3.19,0,0,0-1.5.36,3.57,3.57,0,0,0-1.21,1,4.87,4.87,0,0,0-.79,1.56,6.65,6.65,0,0,0-.28,2,6.51,6.51,0,0,0,.29,2,5.06,5.06,0,0,0,.81,1.55,3.57,3.57,0,0,0,1.21,1,3.25,3.25,0,0,0,1.52.36,4.84,4.84,0,0,0,1.4-.19,5.11,5.11,0,0,0,1.31-.61l-.32,1.58a3.42,3.42,0,0,1-1.13.44A6.56,6.56,0,0,1,63,50.5a4.77,4.77,0,0,1-3.7-1.69,5.88,5.88,0,0,1-1.11-2,7.68,7.68,0,0,1-.42-2.61,8,8,0,0,1,.4-2.62,6.14,6.14,0,0,1,1.11-2A5.19,5.19,0,0,1,61,38.37,4.91,4.91,0,0,1,63,37.93a5.5,5.5,0,0,1,1.68.24,6.24,6.24,0,0,1,1.29.56Z"/><path class="cls-3" d="M75.48,50.53a2.4,2.4,0,0,1-1-.58,1.83,1.83,0,0,1-.58-1.09,2.91,2.91,0,0,1-1.16,1.2A3.47,3.47,0,0,1,71,50.5a3.06,3.06,0,0,1-2.34-1,3.54,3.54,0,0,1-.9-2.52A4,4,0,0,1,68,45.46a3.63,3.63,0,0,1,.75-1.16,3.45,3.45,0,0,1,1.07-.75,3.71,3.71,0,0,1,1.28-.32L73.52,43V41.78a2.62,2.62,0,0,0-.6-1.83,2.25,2.25,0,0,0-1.73-.65,4.24,4.24,0,0,0-2.52.85l-.27-1.36a4.08,4.08,0,0,1,1.29-.63,5.66,5.66,0,0,1,1.62-.23,3.76,3.76,0,0,1,2.74,1,3.92,3.92,0,0,1,1,2.95v5.6a2.07,2.07,0,0,0,.4,1.38,1.92,1.92,0,0,0,.92.57Zm-2-6.25-2.17.22a2.11,2.11,0,0,0-1.51.75A2.56,2.56,0,0,0,69.26,47a2.32,2.32,0,0,0,.53,1.56,1.67,1.67,0,0,0,1.29.62A2,2,0,0,0,72,49a2.52,2.52,0,0,0,.79-.59,3.23,3.23,0,0,0,.57-.89,3,3,0,0,0,.21-1.14Z"/><path class="cls-3" d="M81.76,50.45H81L77,38.14h1.55l2,6.14c.17.47.32,1,.47,1.48s.3,1,.45,1.55h0c.12-.52.26-1,.41-1.54s.31-1,.47-1.49l2-6.14h1.45Z"/><path class="cls-3" d="M90.4,50.61a3.28,3.28,0,0,1-.71-.34,2.47,2.47,0,0,1-.62-.59,2.74,2.74,0,0,1-.44-.87,3.94,3.94,0,0,1-.16-1.21V28.5h1.58v19a2.27,2.27,0,0,0,.37,1.37,1.87,1.87,0,0,0,.94.69Z"/><path class="cls-3" d="M102.25,42.91c0,.2,0,1.24,0,1.35H95a5.34,5.34,0,0,0,.2,1.83,4.87,4.87,0,0,0,.76,1.57,3.82,3.82,0,0,0,1.22,1.08,3.26,3.26,0,0,0,1.61.4,4.59,4.59,0,0,0,3-1l-.34,1.68a4,4,0,0,1-1.21.54,5.7,5.7,0,0,1-1.58.19,4.6,4.6,0,0,1-2-.46,4.87,4.87,0,0,1-1.65-1.28,6.48,6.48,0,0,1-1.1-2,7.56,7.56,0,0,1-.4-2.54,8.07,8.07,0,0,1,.39-2.6,6.82,6.82,0,0,1,1-2,4.8,4.8,0,0,1,1.52-1.27,3.91,3.91,0,0,1,1.79-.44,3.9,3.9,0,0,1,3.1,1.41,4.14,4.14,0,0,1,.78,1.43,5.48,5.48,0,0,1,.25,1.66Zm-1.69-1.56a3.6,3.6,0,0,0-.48-1.05,2.63,2.63,0,0,0-.8-.76,2,2,0,0,0-1.12-.3,2.21,2.21,0,0,0-1.11.31,3.53,3.53,0,0,0-1,.83,5.18,5.18,0,0,0-.7,1.19A5.65,5.65,0,0,0,95,43h5.66a1.34,1.34,0,0,0,0-.24v-.24A4.08,4.08,0,0,0,100.56,41.35Z"/><path class="cls-3" d="M111.35,50.29V41.9a2.75,2.75,0,0,0-.64-1.91,2.47,2.47,0,0,0-1.9-.69,2.63,2.63,0,0,0-1.93.71,2.49,2.49,0,0,0-.73,1.89v8.39h-1.59V38.14H106l0,1.29a3.39,3.39,0,0,1,1.11-1,3.76,3.76,0,0,1,5.78,3.35v8.55Z"/><path class="cls-3" d="M121.56,39.46h-3.24v7.88a1.81,1.81,0,0,0,.42,1.31,1.39,1.39,0,0,0,1.06.43,1.9,1.9,0,0,0,1.15-.3l-.3,1.48a2.5,2.5,0,0,1-1.07.19,2.81,2.81,0,0,1-2-.78,3,3,0,0,1-.82-2.28V39.46h-2V38.14h2V35.57l1.55-.8v3.37h3.49Z"/><path class="cls-3" d="M60.48,55a1.32,1.32,0,0,1-.24.83.81.81,0,0,1-.63.31,1.18,1.18,0,0,1-.28,0,1,1,0,0,1-.24-.11v.87h-.35V54h.35v.21a1.45,1.45,0,0,1,.29-.19.82.82,0,0,1,.35-.08.62.62,0,0,1,.55.28A1.24,1.24,0,0,1,60.48,55Zm-.36,0a1.05,1.05,0,0,0-.11-.55.4.4,0,0,0-.37-.2.62.62,0,0,0-.29.07,1.06,1.06,0,0,0-.26.17v1.18l.24.09.22,0a.48.48,0,0,0,.42-.2A.94.94,0,0,0,60.12,55Z"/><path class="cls-3" d="M62.05,56.12a1,1,0,0,1-.77-.28,1.08,1.08,0,0,1-.27-.79,1.17,1.17,0,0,1,.27-.81.86.86,0,0,1,.69-.3,1.16,1.16,0,0,1,.34.05.68.68,0,0,1,.26.18.79.79,0,0,1,.18.29,1.34,1.34,0,0,1,0,.42v.19H61.36a.81.81,0,0,0,.19.56.69.69,0,0,0,.5.19.91.91,0,0,0,.23,0,1.17,1.17,0,0,0,.2-.06l.16-.09.11-.07h0V56l-.16.06-.16.06-.19,0Zm.41-1.32a.88.88,0,0,0,0-.24.54.54,0,0,0-.08-.17.61.61,0,0,0-.16-.12.57.57,0,0,0-.24,0,.61.61,0,0,0-.24,0,.66.66,0,0,0-.17.12.47.47,0,0,0-.12.18.86.86,0,0,0-.06.23Z"/><path class="cls-3" d="M64.57,54.37h-.21a.67.67,0,0,0-.28.06.91.91,0,0,0-.27.18v1.48h-.35V54h.35v.31a1.19,1.19,0,0,1,.34-.24.54.54,0,0,1,.27-.07h.15Z"/><path class="cls-3" d="M65.7,56.13a1.27,1.27,0,0,1-.39-.06L65,56v-.39h0l.11.08.16.09.19.07a.91.91,0,0,0,.23,0l.18,0a.38.38,0,0,0,.14-.05.38.38,0,0,0,.09-.09.28.28,0,0,0,0-.15.21.21,0,0,0-.07-.18.45.45,0,0,0-.24-.11l-.17,0a1,1,0,0,1-.2,0,.55.55,0,0,1-.46-.56.57.57,0,0,1,.21-.46A.92.92,0,0,1,65.8,54a1.45,1.45,0,0,1,.35,0,1.1,1.1,0,0,1,.29.11v.37h0a1.11,1.11,0,0,0-.3-.17,1,1,0,0,0-.33-.06.65.65,0,0,0-.29.07.25.25,0,0,0-.12.22.24.24,0,0,0,.07.2.49.49,0,0,0,.23.1l.17,0,.2.05a.65.65,0,0,1,.35.19.53.53,0,0,1,.12.37.54.54,0,0,1-.06.25.51.51,0,0,1-.15.21,1.23,1.23,0,0,1-.25.14A1.2,1.2,0,0,1,65.7,56.13Z"/><path class="cls-3" d="M68.86,55a1.18,1.18,0,0,1-.26.81.83.83,0,0,1-.67.28.85.85,0,0,1-.68-.29A1.2,1.2,0,0,1,67,55a1.18,1.18,0,0,1,.26-.81.86.86,0,0,1,.67-.29.81.81,0,0,1,.67.29A1.18,1.18,0,0,1,68.86,55Zm-.36,0a1,1,0,0,0-.15-.6.54.54,0,0,0-.84,0,1.26,1.26,0,0,0,0,1.19.5.5,0,0,0,.42.2.48.48,0,0,0,.42-.2A1,1,0,0,0,68.5,55Z"/><path class="cls-3" d="M71.16,56.08h-.35V54.89a2.45,2.45,0,0,0,0-.27.48.48,0,0,0-.05-.19.28.28,0,0,0-.12-.12.41.41,0,0,0-.21,0,.72.72,0,0,0-.27.07,2.11,2.11,0,0,0-.27.18v1.56h-.35V54h.35v.23a1.38,1.38,0,0,1,.31-.22.71.71,0,0,1,.32-.07.6.6,0,0,1,.48.2.87.87,0,0,1,.18.59Z"/><path class="cls-3" d="M73.11,55.85l-.11.09a.55.55,0,0,1-.14.09l-.18.08-.24,0a.53.53,0,0,1-.25-.05A.63.63,0,0,1,72,56a.74.74,0,0,1-.13-.21.62.62,0,0,1,0-.27.75.75,0,0,1,.09-.37.64.64,0,0,1,.29-.24,1.43,1.43,0,0,1,.41-.11l.51,0v-.07a.56.56,0,0,0,0-.2.23.23,0,0,0-.11-.11.38.38,0,0,0-.16-.06h-.2l-.29,0a2.44,2.44,0,0,0-.32.11h0V54l.27-.06.36,0A1.86,1.86,0,0,1,73,54a.66.66,0,0,1,.27.12.62.62,0,0,1,.17.22,1,1,0,0,1,0,.33v1.43h-.35Zm0-.29V55l-.31,0a1.82,1.82,0,0,0-.31,0,.58.58,0,0,0-.23.13.4.4,0,0,0,0,.52.42.42,0,0,0,.29.09.6.6,0,0,0,.3-.07A1.14,1.14,0,0,0,73.11,55.56Z"/><path class="cls-3" d="M74.62,56.08h-.35v-2.9h.35Z"/><path class="cls-3" d="M75.82,53.65h-.4v-.36h.4Zm0,2.43h-.35V54h.35Z"/><path class="cls-3" d="M77.25,56.12A.61.61,0,0,1,76.8,56a.74.74,0,0,1-.16-.51V54.29h-.23V54h.23v-.6H77V54h.65v.29H77v1a1.63,1.63,0,0,0,0,.24.42.42,0,0,0,0,.16.32.32,0,0,0,.1.1.53.53,0,0,0,.2,0,.45.45,0,0,0,.16,0l.12,0h0v.32l-.2,0Z"/><path class="cls-3" d="M79.8,54l-1.12,2.84H78.3l.38-.87-.76-2h.38l.57,1.54L79.43,54Z"/><path class="cls-3" d="M83,55.85l-.11.09a.55.55,0,0,1-.14.09l-.18.08-.24,0a.53.53,0,0,1-.25-.05.63.63,0,0,1-.2-.13.74.74,0,0,1-.13-.21.62.62,0,0,1,0-.27.75.75,0,0,1,.09-.37.64.64,0,0,1,.29-.24,1.43,1.43,0,0,1,.41-.11l.51,0v-.07a.56.56,0,0,0,0-.2.23.23,0,0,0-.11-.11.38.38,0,0,0-.16-.06h-.2l-.29,0a2.44,2.44,0,0,0-.32.11h0V54l.27-.06.36,0a1.86,1.86,0,0,1,.36,0,.66.66,0,0,1,.27.12.62.62,0,0,1,.17.22,1,1,0,0,1,.05.33v1.43H83Zm0-.29V55l-.31,0a1.82,1.82,0,0,0-.31,0,.58.58,0,0,0-.23.13.4.4,0,0,0,0,.52.42.42,0,0,0,.29.09.6.6,0,0,0,.3-.07A1.14,1.14,0,0,0,83,55.56Z"/><path class="cls-3" d="M84.73,56.13a1.23,1.23,0,0,1-.39-.06L84,56v-.39h0l.1.08.16.09.2.07a.83.83,0,0,0,.22,0l.18,0a.38.38,0,0,0,.14-.05.3.3,0,0,0,.1-.09.28.28,0,0,0,0-.15.25.25,0,0,0-.07-.18.54.54,0,0,0-.24-.11l-.18,0-.2,0a.56.56,0,0,1-.34-.21.52.52,0,0,1-.11-.35.57.57,0,0,1,.21-.46.89.89,0,0,1,.56-.17,1.34,1.34,0,0,1,.35,0,1,1,0,0,1,.3.11v.37h0a1.11,1.11,0,0,0-.3-.17,1,1,0,0,0-.33-.06.66.66,0,0,0-.3.07.27.27,0,0,0-.11.22.24.24,0,0,0,.07.2.45.45,0,0,0,.22.1l.18,0,.2.05a.69.69,0,0,1,.35.19.58.58,0,0,1,.11.37.53.53,0,0,1-.05.25.65.65,0,0,1-.16.21.86.86,0,0,1-.25.14A1.13,1.13,0,0,1,84.73,56.13Z"/><path class="cls-3" d="M86.74,56.13a1.23,1.23,0,0,1-.39-.06,1.54,1.54,0,0,1-.3-.12v-.39h0l.11.08.16.09.2.07a.78.78,0,0,0,.22,0l.18,0a.38.38,0,0,0,.14-.05.38.38,0,0,0,.09-.09.28.28,0,0,0,0-.15.21.21,0,0,0-.07-.18.45.45,0,0,0-.24-.11l-.17,0-.2,0a.58.58,0,0,1-.24-1,.89.89,0,0,1,.56-.17,1.39,1.39,0,0,1,.35,0,1,1,0,0,1,.29.11v.37h0a1.05,1.05,0,0,0-.29-.17,1,1,0,0,0-.34-.06.65.65,0,0,0-.29.07.25.25,0,0,0-.12.22.28.28,0,0,0,.07.2.55.55,0,0,0,.23.1l.17,0,.21.05a.62.62,0,0,1,.34.19.53.53,0,0,1,.12.37.7.7,0,0,1,0,.25.65.65,0,0,1-.16.21,1,1,0,0,1-.25.14A1.18,1.18,0,0,1,86.74,56.13Z"/><path class="cls-3" d="M89.08,56.12a1,1,0,0,1-.77-.28,1.08,1.08,0,0,1-.27-.79,1.21,1.21,0,0,1,.26-.81.89.89,0,0,1,.7-.3,1.16,1.16,0,0,1,.34.05.68.68,0,0,1,.26.18.77.77,0,0,1,.17.29,1.33,1.33,0,0,1,.06.42v.19H88.39a.8.8,0,0,0,.18.56.71.71,0,0,0,.51.19.78.78,0,0,0,.22,0,.8.8,0,0,0,.2-.06l.16-.09a.52.52,0,0,0,.11-.07h0V56l-.15.06-.16.06-.19,0Zm.41-1.32a.88.88,0,0,0,0-.24.39.39,0,0,0-.09-.17.44.44,0,0,0-.15-.12.61.61,0,0,0-.24,0,.57.57,0,0,0-.24,0l-.18.12a.94.94,0,0,0-.12.18,1.55,1.55,0,0,0,0,.23Z"/><path class="cls-3" d="M91.05,56.13a1.23,1.23,0,0,1-.39-.06l-.3-.12v-.39h0l.11.08.16.09.19.07a.85.85,0,0,0,.23,0l.17,0a.44.44,0,0,0,.15-.05.38.38,0,0,0,.09-.09.28.28,0,0,0,0-.15.21.21,0,0,0-.07-.18.45.45,0,0,0-.24-.11l-.18,0-.19,0a.55.55,0,0,1-.46-.56.57.57,0,0,1,.21-.46.92.92,0,0,1,.57-.17,1.45,1.45,0,0,1,.35,0,1.1,1.1,0,0,1,.29.11v.37h0a1.11,1.11,0,0,0-.3-.17,1,1,0,0,0-.33-.06.62.62,0,0,0-.29.07.25.25,0,0,0-.12.22.24.24,0,0,0,.07.2.49.49,0,0,0,.23.1l.17,0,.2.05a.65.65,0,0,1,.35.19.53.53,0,0,1,.12.37.54.54,0,0,1-.06.25.51.51,0,0,1-.15.21,1.23,1.23,0,0,1-.25.14A1.25,1.25,0,0,1,91.05,56.13Z"/><path class="cls-3" d="M93.06,56.13a1.23,1.23,0,0,1-.39-.06l-.3-.12v-.39h0l.1.08.16.09.2.07a.78.78,0,0,0,.22,0l.18,0a.38.38,0,0,0,.14-.05.21.21,0,0,0,.12-.24.24.24,0,0,0-.06-.18.54.54,0,0,0-.24-.11l-.18,0-.2,0a.56.56,0,0,1-.34-.21.52.52,0,0,1-.11-.35.57.57,0,0,1,.21-.46.89.89,0,0,1,.56-.17,1.39,1.39,0,0,1,.35,0,1,1,0,0,1,.3.11v.37h0a1.11,1.11,0,0,0-.3-.17,1,1,0,0,0-.33-.06.66.66,0,0,0-.3.07.25.25,0,0,0-.12.22.25.25,0,0,0,.08.2.45.45,0,0,0,.22.1l.18,0,.2.05a.69.69,0,0,1,.35.19.58.58,0,0,1,.11.37.7.7,0,0,1-.05.25.65.65,0,0,1-.16.21.86.86,0,0,1-.25.14A1.13,1.13,0,0,1,93.06,56.13Z"/><path class="cls-3" d="M96.86,56.08V54.87a2.17,2.17,0,0,0,0-.26.43.43,0,0,0,0-.19.22.22,0,0,0-.1-.11.36.36,0,0,0-.19,0,.43.43,0,0,0-.23.07,1.31,1.31,0,0,0-.26.19v1.55h-.35V54.87a2.17,2.17,0,0,0,0-.26.43.43,0,0,0,0-.19.22.22,0,0,0-.1-.11.36.36,0,0,0-.19,0,.64.64,0,0,0-.24.07l-.24.18v1.56H94.5V54h.35v.23a1.31,1.31,0,0,1,.27-.22.6.6,0,0,1,.3-.07.73.73,0,0,1,.33.08.58.58,0,0,1,.22.28,1.22,1.22,0,0,1,.3-.27.63.63,0,0,1,.33-.09.69.69,0,0,1,.25,0,.49.49,0,0,1,.19.14.73.73,0,0,1,.13.23,1.23,1.23,0,0,1,0,.36v1.37Z"/><path class="cls-3" d="M98.91,56.12a1,1,0,0,1-.77-.28,1.08,1.08,0,0,1-.27-.79,1.16,1.16,0,0,1,.26-.81.89.89,0,0,1,.7-.3,1.16,1.16,0,0,1,.34.05.68.68,0,0,1,.26.18.92.92,0,0,1,.17.29,1.33,1.33,0,0,1,.06.42v.19H98.22a.8.8,0,0,0,.18.56.69.69,0,0,0,.51.19.83.83,0,0,0,.22,0,1,1,0,0,0,.2-.06l.16-.09a.52.52,0,0,0,.11-.07h0V56l-.15.06-.16.06-.19,0Zm.41-1.32a.88.88,0,0,0,0-.24.39.39,0,0,0-.09-.17.4.4,0,0,0-.16-.12.53.53,0,0,0-.23,0,.55.55,0,0,0-.24,0,.57.57,0,0,0-.18.12.94.94,0,0,0-.12.18,1.55,1.55,0,0,0,0,.23Z"/><path class="cls-3" d="M102,56.08h-.35V54.89a2.44,2.44,0,0,0,0-.27.74.74,0,0,0,0-.19.28.28,0,0,0-.12-.12.41.41,0,0,0-.21,0,.68.68,0,0,0-.27.07,2.11,2.11,0,0,0-.27.18v1.56h-.35V54h.35v.23A1.19,1.19,0,0,1,101,54a.71.71,0,0,1,.32-.07.63.63,0,0,1,.48.2.87.87,0,0,1,.17.59Z"/><path class="cls-3" d="M103.38,56.12a.61.61,0,0,1-.45-.17.74.74,0,0,1-.16-.51V54.29h-.23V54h.23v-.6h.35V54h.65v.29h-.65v1a1.63,1.63,0,0,0,0,.24.42.42,0,0,0,0,.16.32.32,0,0,0,.1.1.5.5,0,0,0,.19,0,.47.47,0,0,0,.17,0l.12,0h0v.32l-.2,0Z"/><path class="cls-3" d="M106.39,56.13a1.23,1.23,0,0,1-.39-.06l-.3-.12v-.39h0l.1.08.16.09.2.07a.78.78,0,0,0,.22,0l.18,0a.38.38,0,0,0,.14-.05s.08-.06.09-.09a.28.28,0,0,0,0-.15.24.24,0,0,0-.06-.18.53.53,0,0,0-.25-.11l-.17,0-.2,0a.61.61,0,0,1-.35-.21.63.63,0,0,1,.11-.81.89.89,0,0,1,.56-.17,1.39,1.39,0,0,1,.35,0,1,1,0,0,1,.29.11v.37h0a1.11,1.11,0,0,0-.3-.17,1,1,0,0,0-.34-.06.65.65,0,0,0-.29.07.25.25,0,0,0-.12.22.28.28,0,0,0,.07.2.55.55,0,0,0,.23.1l.18,0,.2.05a.62.62,0,0,1,.34.19.53.53,0,0,1,.12.37.7.7,0,0,1,0,.25.65.65,0,0,1-.16.21,1,1,0,0,1-.25.14A1.13,1.13,0,0,1,106.39,56.13Z"/><path class="cls-3" d="M108.73,56.12a1,1,0,0,1-.77-.28,1.08,1.08,0,0,1-.27-.79,1.21,1.21,0,0,1,.26-.81.89.89,0,0,1,.7-.3A1.16,1.16,0,0,1,109,54a.68.68,0,0,1,.26.18.77.77,0,0,1,.17.29,1.33,1.33,0,0,1,.06.42v.19H108a.76.76,0,0,0,.19.56.69.69,0,0,0,.5.19.91.91,0,0,0,.23,0,1.17,1.17,0,0,0,.2-.06l.16-.09.1-.07h0V56l-.15.06-.16.06-.19,0Zm.41-1.32a.88.88,0,0,0,0-.24.39.39,0,0,0-.09-.17.44.44,0,0,0-.15-.12.74.74,0,0,0-.48,0,.94.94,0,0,0-.18.12.58.58,0,0,0-.11.18.86.86,0,0,0-.06.23Z"/><path class="cls-3" d="M111.24,54.37H111a.67.67,0,0,0-.28.06.91.91,0,0,0-.27.18v1.48h-.35V54h.35v.31a1.19,1.19,0,0,1,.34-.24.54.54,0,0,1,.27-.07h.14Z"/><path class="cls-3" d="M113.45,54l-.78,2.08h-.31L111.58,54H112l.57,1.6.56-1.6Z"/><path class="cls-3" d="M114.41,53.65H114v-.36h.4Zm0,2.43H114V54h.35Z"/><path class="cls-3" d="M116,56.12a1.25,1.25,0,0,1-.4-.06.93.93,0,0,1-.3-.2.83.83,0,0,1-.2-.34,1.43,1.43,0,0,1-.07-.48,1.33,1.33,0,0,1,.07-.47.88.88,0,0,1,.2-.34.81.81,0,0,1,.3-.21A1.05,1.05,0,0,1,116,54a1,1,0,0,1,.33,0l.28.11v.39h0l-.1-.07-.14-.09-.17-.06-.19,0a.54.54,0,0,0-.44.21.89.89,0,0,0-.16.58.88.88,0,0,0,.16.57.51.51,0,0,0,.44.21,1,1,0,0,0,.33-.07,1.27,1.27,0,0,0,.27-.18h0V56l-.13.06-.14,0-.16,0Z"/><path class="cls-3" d="M118.17,56.12a1,1,0,0,1-.78-.28,1.08,1.08,0,0,1-.27-.79,1.17,1.17,0,0,1,.27-.81.87.87,0,0,1,.69-.3,1.16,1.16,0,0,1,.34.05.68.68,0,0,1,.26.18.79.79,0,0,1,.18.29,1.33,1.33,0,0,1,.06.42v.19h-1.44a.8.8,0,0,0,.18.56.69.69,0,0,0,.5.19.91.91,0,0,0,.23,0,1.17,1.17,0,0,0,.2-.06l.16-.09.11-.07h0V56l-.16.06-.16.06-.19,0Zm.41-1.32a1.5,1.5,0,0,0,0-.24.54.54,0,0,0-.08-.17.61.61,0,0,0-.16-.12.57.57,0,0,0-.24,0,.61.61,0,0,0-.24,0,.66.66,0,0,0-.17.12.47.47,0,0,0-.12.18.59.59,0,0,0,0,.23Z"/><path class="cls-3" d="M120.14,56.13a1.23,1.23,0,0,1-.39-.06l-.3-.12v-.39h0l.11.08.16.09.2.07a.78.78,0,0,0,.22,0l.18,0a.38.38,0,0,0,.14-.05.38.38,0,0,0,.09-.09.28.28,0,0,0,0-.15.21.21,0,0,0-.07-.18.45.45,0,0,0-.24-.11l-.17,0-.2,0a.61.61,0,0,1-.35-.21.63.63,0,0,1,.11-.81.89.89,0,0,1,.56-.17,1.39,1.39,0,0,1,.35,0,1,1,0,0,1,.29.11v.37h0a.92.92,0,0,0-.29-.17,1,1,0,0,0-.34-.06.65.65,0,0,0-.29.07.25.25,0,0,0-.12.22.28.28,0,0,0,.07.2.55.55,0,0,0,.23.1l.17,0,.21.05a.62.62,0,0,1,.34.19.53.53,0,0,1,.12.37.7.7,0,0,1,0,.25.65.65,0,0,1-.16.21,1,1,0,0,1-.25.14A1.13,1.13,0,0,1,120.14,56.13Z"/></g><g id="Layer_2-2" data-name="Layer 2"><polygon class="cls-3" points="144.17 18.63 142.49 14.84 141.73 14.84 141.73 20.58 142.52 20.58 142.52 16.7 143.89 19.78 144.46 19.78 145.83 16.62 145.83 20.58 146.62 20.58 146.62 14.84 145.86 14.84 144.17 18.63"/><path class="cls-3" d="M150.44,16.63a1.85,1.85,0,0,0-.91-.21,1.83,1.83,0,0,0-.91.21,1.35,1.35,0,0,0-.58.6,2.16,2.16,0,0,0-.2,1v.66a2.21,2.21,0,0,0,.2,1,1.32,1.32,0,0,0,.58.61,1.83,1.83,0,0,0,.91.21,1.85,1.85,0,0,0,.91-.21,1.37,1.37,0,0,0,.58-.61,2.12,2.12,0,0,0,.2-.95v-.68a2.16,2.16,0,0,0-.2-1A1.4,1.4,0,0,0,150.44,16.63Zm0,2.24a1.08,1.08,0,0,1-.23.74.94.94,0,0,1-1.3,0,1.08,1.08,0,0,1-.24-.74v-.68a1,1,0,0,1,.24-.74.94.94,0,0,1,1.3,0,1,1,0,0,1,.23.74Z"/><path class="cls-3" d="M154.24,16.42a1.19,1.19,0,0,0-.66.2,1.48,1.48,0,0,0-.41.45v-.59h-.8v4.1h.8V18a.78.78,0,0,1,.21-.58.81.81,0,0,1,.6-.21,1.06,1.06,0,0,1,.37.06.68.68,0,0,1,.27.2l.53-.71a1.1,1.1,0,0,0-.4-.24A1.6,1.6,0,0,0,154.24,16.42Z"/><path class="cls-3" d="M158.22,16.68a1.47,1.47,0,0,0-.87-.26,1.84,1.84,0,0,0-.94.23,1.5,1.5,0,0,0-.59.65,2.5,2.5,0,0,0-.2,1v.46a2.2,2.2,0,0,0,.21,1,1.51,1.51,0,0,0,.62.63,2,2,0,0,0,1,.21,1.89,1.89,0,0,0,.76-.16,2.37,2.37,0,0,0,.68-.45l-.53-.53a1.36,1.36,0,0,1-.43.27,1.18,1.18,0,0,1-.48.1,1,1,0,0,1-.76-.27,1.06,1.06,0,0,1-.27-.75H159v-.27a3.1,3.1,0,0,0-.19-1.16A1.57,1.57,0,0,0,158.22,16.68Zm-1.82,1.53a1.23,1.23,0,0,1,.24-.76.86.86,0,0,1,.71-.3.71.71,0,0,1,.59.27,1.37,1.37,0,0,1,.26.79Z"/><path class="cls-3" d="M164.12,16.42a1.19,1.19,0,0,0-.66.2,1.62,1.62,0,0,0-.41.45v-.59h-.8v4.1h.8V18a.78.78,0,0,1,.21-.58.83.83,0,0,1,.6-.21,1,1,0,0,1,.37.06.68.68,0,0,1,.27.2l.53-.71a1,1,0,0,0-.4-.24A1.6,1.6,0,0,0,164.12,16.42Z"/><path class="cls-3" d="M168.11,16.68a1.52,1.52,0,0,0-.88-.26,1.78,1.78,0,0,0-.93.23,1.38,1.38,0,0,0-.59.65,2.35,2.35,0,0,0-.21,1v.46a2.2,2.2,0,0,0,.21,1,1.51,1.51,0,0,0,.62.63,2.07,2.07,0,0,0,1,.21,1.85,1.85,0,0,0,.76-.16,2.56,2.56,0,0,0,.69-.45l-.53-.53a1.41,1.41,0,0,1-.44.27,1.18,1.18,0,0,1-.48.1,1,1,0,0,1-.76-.27,1.06,1.06,0,0,1-.27-.75h2.58v-.27a3.1,3.1,0,0,0-.19-1.16A1.62,1.62,0,0,0,168.11,16.68Zm-1.83,1.53a1.23,1.23,0,0,1,.24-.76.87.87,0,0,1,.71-.3.74.74,0,0,1,.6.27,1.45,1.45,0,0,1,.26.79Z"/><path class="cls-3" d="M172.58,16.62a1.4,1.4,0,0,0-.75-.2,1.19,1.19,0,0,0-.66.2,1.41,1.41,0,0,0-.41.43v-.57H170v5.77h.8V20a1,1,0,0,0,.37.42,1.15,1.15,0,0,0,.67.19,1.43,1.43,0,0,0,.76-.2,1.28,1.28,0,0,0,.49-.56,2.23,2.23,0,0,0,.16-.9v-.89a2.23,2.23,0,0,0-.16-.9A1.21,1.21,0,0,0,172.58,16.62ZM172.41,19a1,1,0,0,1-.22.69.8.8,0,0,1-.62.24.87.87,0,0,1-.44-.1.61.61,0,0,1-.27-.28,1.06,1.06,0,0,1-.1-.45V18a1,1,0,0,1,.1-.44.61.61,0,0,1,.27-.28,1,1,0,0,1,.44-.09.77.77,0,0,1,.62.25,1,1,0,0,1,.22.69Z"/><path class="cls-3" d="M176.84,16.63a2.08,2.08,0,0,0-1.82,0,1.4,1.4,0,0,0-.58.6,2.16,2.16,0,0,0-.2,1v.66a2.21,2.21,0,0,0,.2,1,1.37,1.37,0,0,0,.58.61,2.08,2.08,0,0,0,1.82,0,1.37,1.37,0,0,0,.58-.61,2.12,2.12,0,0,0,.2-.95v-.68a2.16,2.16,0,0,0-.2-1A1.4,1.4,0,0,0,176.84,16.63Zm0,2.24a1.08,1.08,0,0,1-.23.74.94.94,0,0,1-1.3,0,1.08,1.08,0,0,1-.24-.74v-.68a1,1,0,0,1,.24-.74.94.94,0,0,1,1.3,0,1,1,0,0,1,.23.74Z"/><path class="cls-3" d="M180.64,16.42a1.19,1.19,0,0,0-.66.2,1.48,1.48,0,0,0-.41.45v-.59h-.8v4.1h.8V18a.78.78,0,0,1,.21-.58.81.81,0,0,1,.6-.21,1.06,1.06,0,0,1,.37.06.68.68,0,0,1,.27.2l.53-.71a1.1,1.1,0,0,0-.4-.24A1.6,1.6,0,0,0,180.64,16.42Z"/><path class="cls-3" d="M183.13,15.29h-.81v1.19h-.42v.73h.42v2.3a1.19,1.19,0,0,0,.24.81.86.86,0,0,0,.72.28h.47v-.77h-.39a.19.19,0,0,1-.17-.08.37.37,0,0,1-.06-.23V17.21h.62v-.73h-.62Z"/><path class="cls-3" d="M187.31,18.24a3.36,3.36,0,0,0-.73-.12h-.15a4.35,4.35,0,0,1-.51-.05.63.63,0,0,1-.29-.11.28.28,0,0,1-.12-.25.49.49,0,0,1,.21-.42,1.1,1.1,0,0,1,.61-.14,2.09,2.09,0,0,1,.59.1,3.05,3.05,0,0,1,.6.3L188,17a2.62,2.62,0,0,0-.51-.3,3.31,3.31,0,0,0-.56-.17,2.93,2.93,0,0,0-.61-.06,2.5,2.5,0,0,0-.88.14,1.1,1.1,0,0,0-.53.44,1.42,1.42,0,0,0-.17.72,1.09,1.09,0,0,0,.18.67.9.9,0,0,0,.46.31,2.88,2.88,0,0,0,.67.12h.2l.55.06a.78.78,0,0,1,.32.14.32.32,0,0,1,.13.29.5.5,0,0,1-.24.45,1.36,1.36,0,0,1-.71.15,1.88,1.88,0,0,1-.65-.13,2.49,2.49,0,0,1-.66-.38l-.48.59a2.44,2.44,0,0,0,.51.35,2.32,2.32,0,0,0,.59.22,3.75,3.75,0,0,0,.69.07,2.59,2.59,0,0,0,.95-.15,1.11,1.11,0,0,0,.57-.43,1.31,1.31,0,0,0,.19-.74,1.14,1.14,0,0,0-.2-.74A1,1,0,0,0,187.31,18.24Z"/><path class="cls-3" d="M191.59,15.11a1.19,1.19,0,0,0-.25.81v.56h-.43v.69h.43v3.41h.81V17.17H193v-.69h-.81v-.57a.38.38,0,0,1,.06-.22.19.19,0,0,1,.17-.09H193v-.76h-.59A1,1,0,0,0,191.59,15.11Z"/><path class="cls-3" d="M195.51,16.42a1.2,1.2,0,0,0-.67.2,1.46,1.46,0,0,0-.4.45v-.59h-.81v4.1h.81V18a.78.78,0,0,1,.21-.58.8.8,0,0,1,.59-.21,1.12,1.12,0,0,1,.38.06.73.73,0,0,1,.26.2l.53-.71a1,1,0,0,0-.4-.24A1.59,1.59,0,0,0,195.51,16.42Z"/><path class="cls-3" d="M199.49,16.63a1.89,1.89,0,0,0-.92-.21,1.85,1.85,0,0,0-.91.21,1.46,1.46,0,0,0-.58.6,2.16,2.16,0,0,0-.2,1v.66a2.21,2.21,0,0,0,.2,1,1.43,1.43,0,0,0,.58.61,1.85,1.85,0,0,0,.91.21,1.89,1.89,0,0,0,.92-.21,1.35,1.35,0,0,0,.57-.61,2,2,0,0,0,.2-.95v-.68a2,2,0,0,0-.2-1A1.38,1.38,0,0,0,199.49,16.63Zm0,2.24a1.13,1.13,0,0,1-.23.74.87.87,0,0,1-.66.26.83.83,0,0,1-.65-.26,1.13,1.13,0,0,1-.23-.74v-.68a1.09,1.09,0,0,1,.23-.74.8.8,0,0,1,.65-.26.83.83,0,0,1,.66.26,1.09,1.09,0,0,1,.23.74Z"/><path class="cls-3" d="M206.47,16.62a1.4,1.4,0,0,0-.75-.2,1.22,1.22,0,0,0-.71.22,1.72,1.72,0,0,0-.49.6s0,0,0,0a1.27,1.27,0,0,0-.47-.57,1.33,1.33,0,0,0-.73-.2,1.23,1.23,0,0,0-.68.2,1.37,1.37,0,0,0-.41.45v-.59h-.81v4.1h.81V18a.78.78,0,0,1,.21-.58.84.84,0,0,1,.61-.21.82.82,0,0,1,.61.23,1,1,0,0,1,.21.67v2.49h.8V18.06a.9.9,0,0,1,.21-.64.72.72,0,0,1,.58-.23.85.85,0,0,1,.63.23,1,1,0,0,1,.23.67v2.49h.8V18.09a2.23,2.23,0,0,0-.16-.9A1.23,1.23,0,0,0,206.47,16.62Z"/><path class="cls-3" d="M211.44,16.21a1.21,1.21,0,0,1,.41-.48,1.18,1.18,0,0,1,.62-.17,1.22,1.22,0,0,1,.9.44,1.23,1.23,0,0,1,.25.48h.83a2.23,2.23,0,0,0-.38-.89,1.89,1.89,0,0,0-.69-.6,2,2,0,0,0-.91-.21,2.1,2.1,0,0,0-1.05.26,1.84,1.84,0,0,0-.7.76,2.37,2.37,0,0,0-.25,1.12V18.5a2.37,2.37,0,0,0,.25,1.12,1.76,1.76,0,0,0,.7.75,2,2,0,0,0,1.05.27,1.94,1.94,0,0,0,1.6-.81,2.27,2.27,0,0,0,.38-.9h-.83a1.24,1.24,0,0,1-.25.5,1.17,1.17,0,0,1-.41.32,1.19,1.19,0,0,1-.49.1,1.09,1.09,0,0,1-.62-.17,1.18,1.18,0,0,1-.41-.47,1.61,1.61,0,0,1-.14-.71V16.92A1.58,1.58,0,0,1,211.44,16.21Z"/><path class="cls-3" d="M216.92,14.84l-2.12,5.74h.87l.44-1.26h2.31l.44,1.26h.86l-2.11-5.74Zm-.55,3.71.89-2.6.9,2.6Z"/><polygon class="cls-3" points="221.9 19.34 220.52 14.84 219.65 14.84 221.52 20.58 222.28 20.58 224.16 14.84 223.28 14.84 221.9 19.34"/><polygon class="cls-3" points="225.83 14.84 225.03 14.84 225.03 20.58 225.43 20.58 225.83 20.58 228.72 20.58 228.72 19.81 225.83 19.81 225.83 14.84"/><polygon class="cls-3" points="230.05 14.84 229.66 14.84 229.66 20.58 230.05 20.58 230.47 20.58 233.35 20.58 233.35 19.81 230.47 19.81 230.47 18.11 232.92 18.11 232.92 17.34 230.47 17.34 230.47 15.6 233.35 15.6 233.35 14.84 230.47 14.84 230.05 14.84"/><polygon class="cls-3" points="237.94 19.13 235.23 14.84 234.5 14.84 234.5 20.58 235.29 20.58 235.29 16.35 238 20.58 238.74 20.58 238.74 14.84 237.94 14.84 237.94 19.13"/><polygon class="cls-3" points="243.74 14.84 239.69 14.84 239.69 15.6 241.31 15.6 241.31 20.58 242.12 20.58 242.12 15.6 243.74 15.6 243.74 14.84"/><polygon class="cls-3" points="151.02 29.17 149.98 29.17 149.98 36.57 150.5 36.57 151.02 36.57 154.73 36.57 154.73 35.58 151.02 35.58 151.02 29.17"/><polygon class="cls-3" points="156.45 29.17 155.95 29.17 155.95 36.57 156.45 36.57 156.99 36.57 160.7 36.57 160.7 35.58 156.99 35.58 156.99 33.39 160.14 33.39 160.14 32.4 156.99 32.4 156.99 30.16 160.7 30.16 160.7 29.17 156.99 29.17 156.45 29.17"/><path class="cls-3" d="M164.19,29.17l-2.73,7.4h1.12l.56-1.62h3l.56,1.62h1.12l-2.73-7.4ZM163.48,34l1.15-3.36L165.78,34Z"/><path class="cls-3" d="M172.78,29.48a3.52,3.52,0,0,0-1.52-.31h-2.34v7.4h2.33a3.53,3.53,0,0,0,1.53-.31,2.17,2.17,0,0,0,1-.91,2.88,2.88,0,0,0,.33-1.43v-2.1a2.91,2.91,0,0,0-.33-1.43A2.17,2.17,0,0,0,172.78,29.48ZM173,34a1.59,1.59,0,0,1-.45,1.2,1.79,1.79,0,0,1-1.27.42H170V30.16h1.34a1.79,1.79,0,0,1,1.27.42,1.59,1.59,0,0,1,.45,1.2Z"/><polygon class="cls-3" points="176.15 29.17 175.65 29.17 175.65 36.57 176.15 36.57 176.69 36.57 180.4 36.57 180.4 35.58 176.69 35.58 176.69 33.39 179.84 33.39 179.84 32.4 176.69 32.4 176.69 30.16 180.4 30.16 180.4 29.17 176.69 29.17 176.15 29.17"/><path class="cls-3" d="M185.93,33.18a1.93,1.93,0,0,0,.75-.75A2.3,2.3,0,0,0,187,31.3a2.4,2.4,0,0,0-.26-1.12,1.89,1.89,0,0,0-.76-.75,2.37,2.37,0,0,0-1.12-.26h-2.94v7.4h1V33.44h1.54L186,36.57h1.23l-1.71-3.25A2.46,2.46,0,0,0,185.93,33.18Zm-3-3h1.94a.9.9,0,0,1,.52.14.91.91,0,0,1,.35.4,1.32,1.32,0,0,1,.13.6,1.33,1.33,0,0,1-.13.61.91.91,0,0,1-.35.4.92.92,0,0,1-.52.14h-1.94Z"/><path class="cls-3" d="M192.34,32.74a5.6,5.6,0,0,0-1.12-.33H191c-.38-.08-.68-.15-.9-.22a1.46,1.46,0,0,1-.54-.32.84.84,0,0,1-.21-.6h0a1,1,0,0,1,.42-.85,1.91,1.91,0,0,1,1.17-.31,2.51,2.51,0,0,1,.85.16,3.5,3.5,0,0,1,.84.46l.59-.82a4.22,4.22,0,0,0-1.5-.69,4,4,0,0,0-.78-.08,3.52,3.52,0,0,0-1.41.25,1.91,1.91,0,0,0-.9.74,2.13,2.13,0,0,0-.31,1.17h0a2,2,0,0,0,.33,1.21,1.74,1.74,0,0,0,.8.58,8.15,8.15,0,0,0,1.2.29h.15a6.17,6.17,0,0,1,.82.2,1.35,1.35,0,0,1,.52.34.91.91,0,0,1,.2.61h0a1,1,0,0,1-.44.84,2.22,2.22,0,0,1-1.25.3,3,3,0,0,1-1.1-.19,2.76,2.76,0,0,1-.93-.55l-.65.8a3.69,3.69,0,0,0,1.67.81,4.68,4.68,0,0,0,1,.1,3.83,3.83,0,0,0,1.47-.25,1.92,1.92,0,0,0,1.24-1.89h0a1.93,1.93,0,0,0-.3-1.14A1.7,1.7,0,0,0,192.34,32.74Z"/><polygon class="cls-3" points="198.97 32.43 195.81 32.43 195.81 29.17 194.77 29.17 194.77 36.57 195.81 36.57 195.81 33.42 198.97 33.42 198.97 36.57 200 36.57 200 29.17 198.97 29.17 198.97 32.43"/><rect class="cls-3" x="201.84" y="29.17" width="1.04" height="7.39"/><path class="cls-3" d="M208.73,29.46a2.29,2.29,0,0,0-1.16-.29H204.7v7.4h1V33.7h1.83a2.29,2.29,0,0,0,1.16-.28,1.91,1.91,0,0,0,.78-.79,2.67,2.67,0,0,0,0-2.38A1.86,1.86,0,0,0,208.73,29.46Zm-.14,2.65a1.17,1.17,0,0,1-.4.45,1.13,1.13,0,0,1-.59.15h-1.86V30.16h1.86a1,1,0,0,1,.59.16,1.17,1.17,0,0,1,.4.45,1.57,1.57,0,0,1,.14.67A1.6,1.6,0,0,1,208.59,32.11Z"/><path class="cls-3" d="M219,33.92v-2.1a3.11,3.11,0,0,0-.32-1.43,2.28,2.28,0,0,0-.92-.95,2.89,2.89,0,0,0-2.72,0,2.28,2.28,0,0,0-.92.95,3.11,3.11,0,0,0-.32,1.43v2.1a3.11,3.11,0,0,0,.32,1.43,2.36,2.36,0,0,0,.92,1,3,3,0,0,0,2.72,0,2.58,2.58,0,0,0,.45-.35l.93.73.54-.69-1-.76A3.08,3.08,0,0,0,219,33.92Zm-1.79,1.5a1.68,1.68,0,0,1-.81.2,1.65,1.65,0,0,1-.81-.2,1.47,1.47,0,0,1-.54-.59,2,2,0,0,1-.19-.88V31.79a2,2,0,0,1,.19-.88,1.38,1.38,0,0,1,.54-.58,1.55,1.55,0,0,1,.81-.21,1.58,1.58,0,0,1,.81.21,1.3,1.3,0,0,1,.53.58,1.9,1.9,0,0,1,.2.88V34a1.89,1.89,0,0,1-.1.6l-.92-.72-.54.69,1,.77Z"/><path class="cls-3" d="M224.89,33.93a1.79,1.79,0,0,1-.41,1.25,1.53,1.53,0,0,1-1.16.44,1.49,1.49,0,0,1-1.15-.44,1.79,1.79,0,0,1-.41-1.25V29.17h-1v4.72a3.38,3.38,0,0,0,.3,1.49,2.13,2.13,0,0,0,.89.94,2.79,2.79,0,0,0,1.4.32,2.83,2.83,0,0,0,1.41-.32,2.13,2.13,0,0,0,.89-.94,3.38,3.38,0,0,0,.3-1.49V29.17h-1Z"/><path class="cls-3" d="M229.36,29.17l-2.72,7.4h1.11l.56-1.62h3l.55,1.62H233l-2.72-7.4ZM228.65,34l1.15-3.36L231,34Z"/><polygon class="cls-3" points="235.13 29.17 234.09 29.17 234.09 36.57 234.61 36.57 235.13 36.57 238.84 36.57 238.84 35.58 235.13 35.58 235.13 29.17"/><rect class="cls-3" x="240.06" y="29.17" width="1.04" height="7.39"/><polygon class="cls-3" points="242.32 30.16 244.41 30.16 244.41 36.57 245.44 36.57 245.44 30.16 247.53 30.16 247.53 29.17 242.32 29.17 242.32 30.16"/><polygon class="cls-3" points="252.28 29.17 250.66 32.51 249.04 29.17 247.89 29.17 250.14 33.56 250.14 36.57 251.18 36.57 251.18 33.56 253.43 29.17 252.28 29.17"/><circle class="cls-3" cx="145.2" cy="32.89" r="2.46"/><path class="cls-3" d="M333.06,33.6h1.5v.32a2.2,2.2,0,0,1-.19.93,1.43,1.43,0,0,1-.54.6,1.49,1.49,0,0,1-.8.2,1.68,1.68,0,0,1-.82-.19,1.45,1.45,0,0,1-.54-.56,1.74,1.74,0,0,1-.2-.84V31.88a2.22,2.22,0,0,1,.19-.92,1.44,1.44,0,0,1,1.34-.83,1.47,1.47,0,0,1,.61.14,1.45,1.45,0,0,1,.51.41,1.53,1.53,0,0,1,.31.64h1.13a3,3,0,0,0-.49-1.16,2.47,2.47,0,0,0-.9-.77,2.58,2.58,0,0,0-1.17-.27,2.64,2.64,0,0,0-1.36.34,2.43,2.43,0,0,0-.91,1,3.19,3.19,0,0,0-.32,1.45v2.18a2.75,2.75,0,0,0,.33,1.37,2.18,2.18,0,0,0,.92.91,2.75,2.75,0,0,0,1.37.33,2.62,2.62,0,0,0,1.36-.35,2.31,2.31,0,0,0,.91-1,3.19,3.19,0,0,0,.32-1.45V32.61h-2.56Z"/><path class="cls-3" d="M339,29.2l-2.73,7.39h1.12L338,35h3l.56,1.62h1.12l-2.73-7.39ZM338.3,34l1.15-3.35L340.6,34Z"/><polygon class="cls-3" points="346.6 29.2 344.98 32.53 343.36 29.2 342.21 29.2 344.46 33.59 344.46 36.59 345.5 36.59 345.5 33.59 347.75 29.2 346.6 29.2"/><path class="cls-3" d="M350.07,29.2l-2.72,7.39h1.11L349,35h3l.55,1.62h1.12L351,29.2ZM349.36,34l1.15-3.35L351.67,34Z"/><path class="cls-3" d="M362.1,33.12a1.7,1.7,0,0,0-.78-.32,1.6,1.6,0,0,0,.75-.32,1.25,1.25,0,0,0,.45-.57,1.71,1.71,0,0,0,.15-.71,2.25,2.25,0,0,0-.24-1.07,1.6,1.6,0,0,0-.72-.69,2.67,2.67,0,0,0-1.2-.24H357.6v7.39h3a2.5,2.5,0,0,0,1.15-.25,1.77,1.77,0,0,0,.75-.71,2,2,0,0,0,.27-1.05v0a1.85,1.85,0,0,0-.18-.81A1.68,1.68,0,0,0,362.1,33.12Zm-1.78-3a1.51,1.51,0,0,1,1,.27,1.24,1.24,0,0,1,0,1.63,1.23,1.23,0,0,1-.87.27h-1.83V30.16Zm1.4,4.32a1,1,0,0,1-.36.85,1.78,1.78,0,0,1-1.15.3h-1.58V33.26h1.83a1.51,1.51,0,0,1,.72.15.9.9,0,0,1,.41.41,1.45,1.45,0,0,1,.13.65Z"/><polygon class="cls-3" points="364.82 29.2 364.32 29.2 364.32 36.59 364.82 36.59 365.36 36.59 369.07 36.59 369.07 35.6 365.36 35.6 365.36 33.41 368.51 33.41 368.51 32.42 365.36 32.42 365.36 30.18 369.07 30.18 369.07 29.2 365.36 29.2 364.82 29.2"/><polygon class="cls-3" points="375.9 29.2 374.62 29.2 371.58 33.06 371.58 29.2 370.54 29.2 370.54 36.59 371.58 36.59 371.58 34.44 372.79 32.98 374.94 36.59 376.21 36.59 373.52 32.08 375.9 29.2"/><polygon class="cls-3" points="377.83 29.2 377.33 29.2 377.33 36.59 377.83 36.59 378.36 36.59 382.07 36.59 382.07 35.6 378.36 35.6 378.36 33.41 381.52 33.41 381.52 32.42 378.36 32.42 378.36 30.18 382.07 30.18 382.07 29.2 378.36 29.2 377.83 29.2"/><path class="cls-3" d="M387.61,33.2a1.93,1.93,0,0,0,.75-.75,2.29,2.29,0,0,0,.27-1.12,2.24,2.24,0,0,0-.27-1.12,1.81,1.81,0,0,0-.75-.75,2.28,2.28,0,0,0-1.13-.27h-2.93v7.4h1V33.46h1.54l1.58,3.13h1.23l-1.71-3.25A2.46,2.46,0,0,0,387.61,33.2Zm-3-3h1.93a1,1,0,0,1,.53.14,1,1,0,0,1,.35.4,1.48,1.48,0,0,1,.13.61,1.43,1.43,0,0,1-.13.6.91.91,0,0,1-.35.4.94.94,0,0,1-.53.15h-1.93Z"/><path class="cls-3" d="M392.63,34.24a1.54,1.54,0,0,1-.33,1,1.2,1.2,0,0,1-.94.38,1.32,1.32,0,0,1-.62-.14,1,1,0,0,1-.42-.38l-.85.61a2.21,2.21,0,0,0,.81.67,2.44,2.44,0,0,0,1.08.24,2.54,2.54,0,0,0,1.25-.29,1.82,1.82,0,0,0,.79-.83,2.91,2.91,0,0,0,.27-1.31v-5h-1Z"/><path class="cls-3" d="M399.75,36.59h1.12l-2.73-7.39h-.88l-2.73,7.39h1.12l.56-1.62h3ZM396.55,34l1.15-3.35L398.85,34Z"/><circle class="cls-3" cx="325.64" cy="32.89" r="2.46"/><polygon class="cls-3" points="150.48 45.99 149.98 45.99 149.98 53.38 150.48 53.38 151.02 53.38 154.73 53.38 154.73 52.4 151.02 52.4 151.02 50.2 154.17 50.2 154.17 49.22 151.02 49.22 151.02 46.98 154.73 46.98 154.73 45.99 151.02 45.99 150.48 45.99"/><polygon class="cls-3" points="159.35 50.87 157.18 45.99 156.2 45.99 156.2 53.38 157.22 53.38 157.22 48.39 158.99 52.35 159.71 52.35 161.48 48.29 161.48 53.38 162.49 53.38 162.49 45.99 161.52 45.99 159.35 50.87"/><path class="cls-3" d="M168.35,46.27a2.36,2.36,0,0,0-1.17-.28h-2.86v7.39h1V50.51h1.82a2.36,2.36,0,0,0,1.17-.28,2,2,0,0,0,.78-.79,2.48,2.48,0,0,0,.27-1.18,2.52,2.52,0,0,0-.27-1.19A2,2,0,0,0,168.35,46.27Zm-.15,2.65a1,1,0,0,1-.39.45,1.07,1.07,0,0,1-.59.16h-1.86V47h1.86a1.07,1.07,0,0,1,.59.16,1,1,0,0,1,.39.45,1.65,1.65,0,0,1,0,1.33Z"/><polygon class="cls-3" points="171.74 45.99 170.7 45.99 170.7 53.38 171.22 53.38 171.74 53.38 175.45 53.38 175.45 52.4 171.74 52.4 171.74 45.99"/><path class="cls-3" d="M180.28,46.25a2.68,2.68,0,0,0-1.37-.34,2.64,2.64,0,0,0-1.36.34,2.28,2.28,0,0,0-.91,1,3,3,0,0,0-.33,1.43v2.09a3,3,0,0,0,.33,1.43,2.28,2.28,0,0,0,.91,1,2.64,2.64,0,0,0,1.36.34,2.68,2.68,0,0,0,1.37-.34,2.34,2.34,0,0,0,.91-1,3.08,3.08,0,0,0,.32-1.43V48.64a3.11,3.11,0,0,0-.32-1.43A2.34,2.34,0,0,0,180.28,46.25Zm.17,4.52a1.93,1.93,0,0,1-.19.88,1.44,1.44,0,0,1-.54.58,1.65,1.65,0,0,1-1.61,0,1.38,1.38,0,0,1-.54-.58,1.93,1.93,0,0,1-.19-.88V48.6a1.86,1.86,0,0,1,.19-.87,1.35,1.35,0,0,1,.54-.59,1.65,1.65,0,0,1,1.61,0,1.41,1.41,0,0,1,.54.59,1.86,1.86,0,0,1,.19.87Z"/><polygon class="cls-3" points="186.51 45.99 184.89 49.32 183.28 45.99 182.12 45.99 184.37 50.38 184.37 53.38 185.41 53.38 185.41 50.38 187.66 45.99 186.51 45.99"/><path class="cls-3" d="M190,46l-2.72,7.39h1.12l.55-1.62h3l.55,1.62h1.12L190.87,46Zm-.71,4.78,1.16-3.35,1.15,3.35Z"/><path class="cls-3" d="M199.21,49.91a1.62,1.62,0,0,0-.77-.32,1.7,1.7,0,0,0,.75-.31,1.54,1.54,0,0,0,.45-.57,1.75,1.75,0,0,0,.15-.72,2.25,2.25,0,0,0-.24-1.07,1.72,1.72,0,0,0-.72-.69,2.73,2.73,0,0,0-1.2-.24h-2.92v7.39h3a2.47,2.47,0,0,0,1.15-.25,1.78,1.78,0,0,0,.76-.7,2.06,2.06,0,0,0,.26-1.06v0a1.84,1.84,0,0,0-.17-.81A1.61,1.61,0,0,0,199.21,49.91Zm-1.77-3a1.48,1.48,0,0,1,1,.27,1,1,0,0,1,.33.83,1,1,0,0,1-.29.8,1.26,1.26,0,0,1-.87.27h-1.84V47Zm1.4,4.33a1,1,0,0,1-.37.84,1.77,1.77,0,0,1-1.14.3h-1.59V50.06h1.84a1.54,1.54,0,0,1,.72.14,1,1,0,0,1,.41.42,1.55,1.55,0,0,1,.13.64Z"/><rect class="cls-3" x="201.43" y="45.99" width="1.04" height="7.39"/><polygon class="cls-3" points="205.34 45.99 204.3 45.99 204.3 53.38 204.82 53.38 205.34 53.38 209.05 53.38 209.05 52.4 205.34 52.4 205.34 45.99"/><rect class="cls-3" x="210.27" y="45.99" width="1.04" height="7.39"/><polygon class="cls-3" points="212.53 46.98 214.62 46.98 214.62 53.38 215.66 53.38 215.66 46.98 217.75 46.98 217.75 45.99 212.53 45.99 212.53 46.98"/><polygon class="cls-3" points="220.87 49.32 219.26 45.99 218.1 45.99 220.35 50.38 220.35 53.38 221.39 53.38 221.39 50.38 223.65 45.99 222.49 45.99 220.87 49.32"/><path class="cls-3" d="M229.22,46l-2.73,7.39h1.12l.56-1.62h3l.56,1.62h1.12L230.1,46Zm-.71,4.78,1.15-3.35,1.15,3.35Z"/><path class="cls-3" d="M237.42,49.55a6.42,6.42,0,0,0-1.12-.32h-.19a7,7,0,0,1-.89-.21,1.23,1.23,0,0,1-.54-.33.78.78,0,0,1-.22-.6h0a1,1,0,0,1,.42-.86,2,2,0,0,1,1.18-.3,2.48,2.48,0,0,1,.84.15,3.55,3.55,0,0,1,.84.47l.59-.82a3.67,3.67,0,0,0-.73-.43,3.8,3.8,0,0,0-.76-.26,3.46,3.46,0,0,0-.78-.09,3.57,3.57,0,0,0-1.42.26,2,2,0,0,0-.9.74,2.17,2.17,0,0,0-.31,1.17h0a1.92,1.92,0,0,0,.33,1.21,1.77,1.77,0,0,0,.8.59,8.16,8.16,0,0,0,1.21.28l.07,0h.07a5.8,5.8,0,0,1,.82.2,1.1,1.1,0,0,1,.52.34.9.9,0,0,1,.2.61h0a.94.94,0,0,1-.44.84,2.22,2.22,0,0,1-1.25.3,3.3,3.3,0,0,1-1.1-.18,2.93,2.93,0,0,1-.93-.55l-.65.79a3.27,3.27,0,0,0,.78.51,3.6,3.6,0,0,0,.89.31,5.49,5.49,0,0,0,1,.1,4,4,0,0,0,1.47-.25,2.09,2.09,0,0,0,.93-.74,2,2,0,0,0,.32-1.15h0a1.94,1.94,0,0,0-.3-1.15A1.86,1.86,0,0,0,237.42,49.55Z"/><path class="cls-3" d="M243.88,46.27a2.36,2.36,0,0,0-1.17-.28h-2.86v7.39h1V50.51h1.82a2.36,2.36,0,0,0,1.17-.28,2,2,0,0,0,.78-.79,2.48,2.48,0,0,0,.28-1.18,2.52,2.52,0,0,0-.28-1.19A2,2,0,0,0,243.88,46.27Zm-.15,2.65a1,1,0,0,1-.39.45,1.07,1.07,0,0,1-.59.16h-1.86V47h1.86a1.07,1.07,0,0,1,.59.16,1,1,0,0,1,.39.45,1.41,1.41,0,0,1,.14.67A1.39,1.39,0,0,1,243.73,48.92Z"/><polygon class="cls-3" points="246.74 45.99 246.23 45.99 246.23 53.38 246.74 53.38 247.27 53.38 250.98 53.38 250.98 52.4 247.27 52.4 247.27 50.2 250.42 50.2 250.42 49.22 247.27 49.22 247.27 46.98 250.98 46.98 250.98 45.99 247.27 45.99 246.74 45.99"/><path class="cls-3" d="M253.56,47.76a1.45,1.45,0,0,1,.52-.62,1.52,1.52,0,0,1,.8-.22,1.45,1.45,0,0,1,.63.15,1.64,1.64,0,0,1,.53.42,1.6,1.6,0,0,1,.32.62h1.06a2.86,2.86,0,0,0-.48-1.16,2.63,2.63,0,0,0-.89-.77,2.58,2.58,0,0,0-1.17-.27,2.61,2.61,0,0,0-1.35.35,2.34,2.34,0,0,0-.91,1,3.19,3.19,0,0,0-.32,1.45v2a3.19,3.19,0,0,0,.32,1.45,2.37,2.37,0,0,0,.91,1,2.71,2.71,0,0,0,1.35.34,2.51,2.51,0,0,0,1.16-.27,2.57,2.57,0,0,0,.9-.77,2.86,2.86,0,0,0,.48-1.16h-1.06a1.55,1.55,0,0,1-.32.64,1.49,1.49,0,0,1-.53.41,1.53,1.53,0,0,1-1.43-.08,1.42,1.42,0,0,1-.52-.61,2.07,2.07,0,0,1-.19-.92v-2A2,2,0,0,1,253.56,47.76Z"/><polygon class="cls-3" points="257.88 46.98 259.97 46.98 259.97 53.38 261.01 53.38 261.01 46.98 263.1 46.98 263.1 45.99 257.88 45.99 257.88 46.98"/><path class="cls-3" d="M268.55,50.16a1.77,1.77,0,0,0-.75-.61,6.56,6.56,0,0,0-1.13-.32h-.18a6.83,6.83,0,0,1-.9-.21,1.23,1.23,0,0,1-.54-.33.82.82,0,0,1-.22-.6h0a1,1,0,0,1,.42-.86,2,2,0,0,1,1.18-.3,2.48,2.48,0,0,1,.84.15,3.55,3.55,0,0,1,.84.47l.59-.82a3.67,3.67,0,0,0-.73-.43,3.59,3.59,0,0,0-.76-.26,3.46,3.46,0,0,0-.78-.09,3.57,3.57,0,0,0-1.42.26,2,2,0,0,0-.9.74,2.17,2.17,0,0,0-.3,1.17h0a1.92,1.92,0,0,0,.33,1.21,1.74,1.74,0,0,0,.79.59,8.48,8.48,0,0,0,1.21.28l.08,0h.06a5.8,5.8,0,0,1,.82.2,1.06,1.06,0,0,1,.52.34.85.85,0,0,1,.2.61h0a.92.92,0,0,1-.44.84,2.19,2.19,0,0,1-1.24.3A3.31,3.31,0,0,1,265,52.3a2.93,2.93,0,0,1-.93-.55l-.64.79a3.22,3.22,0,0,0,.77.51,3.75,3.75,0,0,0,.89.31,5.51,5.51,0,0,0,1,.1,3.94,3.94,0,0,0,1.46-.25,2,2,0,0,0,.93-.74,2,2,0,0,0,.32-1.15h0A1.94,1.94,0,0,0,268.55,50.16Z"/><circle class="cls-3" cx="145.2" cy="49.69" r="2.46"/><path class="cls-3" d="M334.48,46.28a2.33,2.33,0,0,0-1.17-.28h-2.86v7.39h1V50.52h1.82a2.33,2.33,0,0,0,1.17-.28,2,2,0,0,0,.78-.79,2.52,2.52,0,0,0,.28-1.19,2.55,2.55,0,0,0-.28-1.19A2,2,0,0,0,334.48,46.28Zm-.15,2.65a1.07,1.07,0,0,1-.39.45,1.16,1.16,0,0,1-.59.16h-1.86V47h1.86a1.16,1.16,0,0,1,.59.16,1.07,1.07,0,0,1,.39.45,1.46,1.46,0,0,1,.14.67A1.44,1.44,0,0,1,334.33,48.93Z"/><polygon class="cls-3" points="337.34 46 336.83 46 336.83 53.39 337.34 53.39 337.87 53.39 341.58 53.39 341.58 52.4 337.87 52.4 337.87 50.21 341.02 50.21 341.02 49.23 337.87 49.23 337.87 46.98 341.58 46.98 341.58 46 337.87 46 337.34 46"/><path class="cls-3" d="M347.11,50a1.89,1.89,0,0,0,.76-.75,2.29,2.29,0,0,0,.27-1.12,2.24,2.24,0,0,0-.27-1.12,1.81,1.81,0,0,0-.75-.75A2.3,2.3,0,0,0,346,46h-2.93v7.4h1V50.26h1.55l1.58,3.13h1.23l-1.71-3.25A2,2,0,0,0,347.11,50Zm-3-3H346a1,1,0,0,1,.53.14.91.91,0,0,1,.35.4,1.59,1.59,0,0,1,0,1.21.91.91,0,0,1-.35.4,1,1,0,0,1-.53.15h-1.94Z"/><path class="cls-3" d="M353.52,49.56a6.42,6.42,0,0,0-1.12-.32h0l-.06,0h-.07a6.57,6.57,0,0,1-.9-.22,1.22,1.22,0,0,1-.54-.32.81.81,0,0,1-.22-.6h0a1,1,0,0,1,.42-.86,2,2,0,0,1,1.18-.3,2.48,2.48,0,0,1,.84.15,3.23,3.23,0,0,1,.84.47l.59-.83a5,5,0,0,0-.73-.43,3.56,3.56,0,0,0-.76-.25,3.46,3.46,0,0,0-.78-.09,3.57,3.57,0,0,0-1.42.25,2,2,0,0,0-.9.74,2.23,2.23,0,0,0-.3,1.18h0a1.94,1.94,0,0,0,.33,1.21,1.65,1.65,0,0,0,.79.58,7,7,0,0,0,1.21.29l.08,0H352a4.68,4.68,0,0,1,.82.2,1.11,1.11,0,0,1,.52.33.87.87,0,0,1,.2.62h0a1,1,0,0,1-.44.84,2.2,2.2,0,0,1-1.25.3,3.3,3.3,0,0,1-1.1-.18,3.13,3.13,0,0,1-.93-.55l-.65.79a4.36,4.36,0,0,0,.78.51,3.73,3.73,0,0,0,.89.3,4.74,4.74,0,0,0,1,.11,3.75,3.75,0,0,0,1.47-.26,1.91,1.91,0,0,0,.93-.73,2,2,0,0,0,.32-1.15h0a1.94,1.94,0,0,0-.3-1.15A1.8,1.8,0,0,0,353.52,49.56Z"/><path class="cls-3" d="M359.66,46.26a2.64,2.64,0,0,0-1.36-.34,2.68,2.68,0,0,0-1.37.34,2.32,2.32,0,0,0-.91,1,3.15,3.15,0,0,0-.32,1.44v2.09a3.11,3.11,0,0,0,.32,1.43,2.41,2.41,0,0,0,.91,1,2.78,2.78,0,0,0,1.37.34,2.74,2.74,0,0,0,1.36-.34,2.34,2.34,0,0,0,.91-1,3,3,0,0,0,.33-1.43V48.65a3,3,0,0,0-.33-1.44A2.26,2.26,0,0,0,359.66,46.26Zm.17,4.52a1.86,1.86,0,0,1-.19.87,1.35,1.35,0,0,1-.54.59,1.72,1.72,0,0,1-1.61,0,1.41,1.41,0,0,1-.54-.59,2,2,0,0,1-.19-.87V48.61a2.07,2.07,0,0,1,.19-.88,1.44,1.44,0,0,1,.54-.58,1.65,1.65,0,0,1,1.61,0,1.38,1.38,0,0,1,.54.58,1.93,1.93,0,0,1,.19.88Z"/><polygon class="cls-3" points="366.91 51.52 363.41 46 362.47 46 362.47 53.38 363.5 53.38 363.5 47.95 366.98 53.38 367.93 53.38 367.93 46 366.91 46 366.91 51.52"/><path class="cls-3" d="M371.68,46,369,53.39h1.12l.56-1.62h3l.56,1.62h1.12L372.56,46ZM371,50.78l1.16-3.35,1.15,3.35Z"/><polygon class="cls-3" points="377.44 46 376.4 46 376.4 53.39 376.92 53.39 377.44 53.39 381.15 53.39 381.15 52.4 377.44 52.4 377.44 46"/><path class="cls-3" d="M389.2,46.28A2.36,2.36,0,0,0,388,46h-2.86v7.39h1V50.52H388a2.36,2.36,0,0,0,1.17-.28,2,2,0,0,0,.78-.79,2.52,2.52,0,0,0,.28-1.19,2.55,2.55,0,0,0-.28-1.19A2,2,0,0,0,389.2,46.28Zm-.15,2.65a1.07,1.07,0,0,1-.39.45,1.16,1.16,0,0,1-.59.16h-1.86V47h1.86a1.16,1.16,0,0,1,.59.16,1.07,1.07,0,0,1,.39.45,1.46,1.46,0,0,1,.14.67A1.44,1.44,0,0,1,389.05,48.93Z"/><path class="cls-3" d="M395.36,46.26a2.89,2.89,0,0,0-2.72,0,2.28,2.28,0,0,0-.92,1,3.15,3.15,0,0,0-.32,1.44v2.09a3.11,3.11,0,0,0,.32,1.43,2.36,2.36,0,0,0,.92,1,2.89,2.89,0,0,0,2.72,0,2.34,2.34,0,0,0,.91-1,3,3,0,0,0,.33-1.43V48.65a3,3,0,0,0-.33-1.44A2.26,2.26,0,0,0,395.36,46.26Zm.17,4.52a1.86,1.86,0,0,1-.19.87,1.29,1.29,0,0,1-.54.59,1.72,1.72,0,0,1-1.61,0,1.41,1.41,0,0,1-.54-.59,2,2,0,0,1-.19-.87V48.61a2.07,2.07,0,0,1,.19-.88,1.44,1.44,0,0,1,.54-.58,1.65,1.65,0,0,1,1.61,0,1.32,1.32,0,0,1,.54.58,1.93,1.93,0,0,1,.19.88Z"/><polygon class="cls-3" points="397.26 46.98 399.35 46.98 399.35 53.39 400.38 53.39 400.38 46.98 402.48 46.98 402.48 46 397.26 46 397.26 46.98"/><polygon class="cls-3" points="404 46 403.49 46 403.49 53.39 404 53.39 404.53 53.39 408.24 53.39 408.24 52.4 404.53 52.4 404.53 50.21 407.68 50.21 407.68 49.23 404.53 49.23 404.53 46.98 408.24 46.98 408.24 46 404.53 46 404 46"/><polygon class="cls-3" points="414.15 51.52 410.66 46 409.72 46 409.72 53.38 410.74 53.38 410.74 47.95 414.23 53.38 415.18 53.38 415.18 46 414.15 46 414.15 51.52"/><polygon class="cls-3" points="416.4 46.98 418.49 46.98 418.49 53.39 419.52 53.39 419.52 46.98 421.62 46.98 421.62 46 416.4 46 416.4 46.98"/><rect class="cls-3" x="422.63" y="46" width="1.04" height="7.39"/><path class="cls-3" d="M427.41,46l-2.72,7.39h1.11l.56-1.62h3l.55,1.62H431L428.3,46Zm-.71,4.78,1.15-3.35L429,50.78Z"/><polygon class="cls-3" points="433.18 46 432.14 46 432.14 53.39 432.66 53.39 433.18 53.39 436.89 53.39 436.89 52.4 433.18 52.4 433.18 46"/><rect class="cls-3" x="440.91" y="46" width="1.04" height="7.39"/><polygon class="cls-3" points="448.21 51.52 444.72 46 443.77 46 443.77 53.38 444.8 53.38 444.8 47.95 448.29 53.38 449.24 53.38 449.24 46 448.21 46 448.21 51.52"/><polygon class="cls-3" points="457.81 49.04 456.8 49.04 456.8 51.3 454.74 51.3 457.16 46 456.09 46 453.61 51.36 453.61 52.26 456.8 52.26 456.8 53.4 457.81 53.4 457.81 52.26 458.36 52.26 458.36 51.3 457.81 51.3 457.81 49.04"/><rect class="cls-3" x="459.51" y="52.3" width="1.09" height="1.09"/><path class="cls-3" d="M463.8,45.9a1.91,1.91,0,0,0-2.11,2.1v3.37a2.11,2.11,0,0,0,.54,1.54,2.11,2.11,0,0,0,3.68-1.54V48a2.13,2.13,0,0,0-.54-1.55A2.11,2.11,0,0,0,463.8,45.9Zm1.07,5.47a1.14,1.14,0,0,1-.26.82,1.28,1.28,0,0,1-1.62,0,1.14,1.14,0,0,1-.26-.82V48a1.16,1.16,0,0,1,.26-.82,1.28,1.28,0,0,1,1.62,0,1.16,1.16,0,0,1,.26.82Z"/><polygon class="cls-3" points="470.89 46 470.38 46 470.38 53.39 470.89 53.39 471.42 53.39 475.13 53.39 475.13 52.4 471.42 52.4 471.42 50.21 474.57 50.21 474.57 49.23 471.42 49.23 471.42 46.98 475.13 46.98 475.13 46 471.42 46 470.89 46"/><path class="cls-3" d="M480.66,50a1.89,1.89,0,0,0,.76-.75,2.29,2.29,0,0,0,.27-1.12,2.24,2.24,0,0,0-.27-1.12,1.81,1.81,0,0,0-.75-.75,2.28,2.28,0,0,0-1.13-.27h-2.93v7.4h1V50.26h1.54l1.58,3.13H482l-1.71-3.25A2,2,0,0,0,480.66,50Zm-3-3h1.93a1,1,0,0,1,.53.14.91.91,0,0,1,.35.4,1.47,1.47,0,0,1,0,1.21.91.91,0,0,1-.35.4,1,1,0,0,1-.53.15h-1.93Z"/><path class="cls-3" d="M487.65,53.39h1.12L486,46h-.88l-2.73,7.39h1.12l.56-1.62h3Zm-3.2-2.61,1.15-3.35,1.15,3.35Z"/><circle class="cls-3" cx="325.64" cy="49.69" r="2.46"/><polygon class="cls-3" points="150.48 62.79 149.98 62.79 149.98 70.19 150.48 70.19 151.02 70.19 154.73 70.19 154.73 69.2 151.02 69.2 151.02 67.01 154.17 67.01 154.17 66.02 151.02 66.02 151.02 63.78 154.73 63.78 154.73 62.79 151.02 62.79 150.48 62.79"/><polygon class="cls-3" points="160.64 68.32 157.14 62.79 156.2 62.79 156.2 70.18 157.23 70.18 157.23 64.74 160.71 70.18 161.66 70.18 161.66 62.79 160.64 62.79 160.64 68.32"/><polygon class="cls-3" points="162.88 63.78 164.97 63.78 164.97 70.19 166.01 70.19 166.01 63.78 168.1 63.78 168.1 62.79 162.88 62.79 162.88 63.78"/><path class="cls-3" d="M173.17,66.8a1.85,1.85,0,0,0,.76-.76,2.24,2.24,0,0,0,.27-1.12,2.29,2.29,0,0,0-.27-1.12,1.93,1.93,0,0,0-.75-.75,2.39,2.39,0,0,0-1.13-.26h-2.93v7.4h1V67.06h1.54l1.58,3.13h1.23l-1.71-3.25A2,2,0,0,0,173.17,66.8Zm-3-3h1.93a.94.94,0,0,1,.53.15.91.91,0,0,1,.35.4,1.47,1.47,0,0,1,0,1.21.91.91,0,0,1-.35.4.93.93,0,0,1-.53.14h-1.93Z"/><polygon class="cls-3" points="176.41 62.79 175.91 62.79 175.91 70.19 176.41 70.19 176.94 70.19 180.66 70.19 180.66 69.2 176.94 69.2 176.94 67.01 180.1 67.01 180.1 66.02 176.94 66.02 176.94 63.78 180.66 63.78 180.66 62.79 176.94 62.79 176.41 62.79"/><path class="cls-3" d="M186.16,63.07a2.44,2.44,0,0,0-1.17-.28h-2.86v7.4h1V67.32H185a2.33,2.33,0,0,0,1.17-.28,2,2,0,0,0,.78-.79,2.67,2.67,0,0,0,0-2.38A2.07,2.07,0,0,0,186.16,63.07ZM186,65.73a1,1,0,0,1-.39.44,1.07,1.07,0,0,1-.59.16h-1.86V63.78H185a1,1,0,0,1,1,.61,1.44,1.44,0,0,1,.14.67A1.46,1.46,0,0,1,186,65.73Z"/><path class="cls-3" d="M192.57,66.8a1.89,1.89,0,0,0,.75-.76,2.24,2.24,0,0,0,.27-1.12,2.4,2.4,0,0,0-.26-1.12,1.89,1.89,0,0,0-.76-.75,2.37,2.37,0,0,0-1.12-.26h-2.94v7.4h1V67.06h1.55l1.57,3.13h1.23l-1.71-3.25A2.46,2.46,0,0,0,192.57,66.8Zm-3-3h1.94a.91.91,0,0,1,.52.15.93.93,0,0,1,.36.4,1.59,1.59,0,0,1,0,1.21,1,1,0,0,1-.36.4.92.92,0,0,1-.52.14h-1.94Z"/><polygon class="cls-3" points="195.81 62.79 195.3 62.79 195.3 70.19 195.81 70.19 196.34 70.19 200.05 70.19 200.05 69.2 196.34 69.2 196.34 67.01 199.49 67.01 199.49 66.02 196.34 66.02 196.34 63.78 200.05 63.78 200.05 62.79 196.34 62.79 195.81 62.79"/><polygon class="cls-3" points="205.96 68.32 202.47 62.79 201.53 62.79 201.53 70.18 202.55 70.18 202.55 64.74 206.04 70.18 206.99 70.18 206.99 62.79 205.96 62.79 205.96 68.32"/><polygon class="cls-3" points="209.32 62.79 208.82 62.79 208.82 70.19 209.32 70.19 209.85 70.19 213.57 70.19 213.57 69.2 209.85 69.2 209.85 67.01 213.01 67.01 213.01 66.02 209.85 66.02 209.85 63.78 213.57 63.78 213.57 62.79 209.85 62.79 209.32 62.79"/><path class="cls-3" d="M219.1,67.55a1.79,1.79,0,0,1-.41,1.25,1.74,1.74,0,0,1-2.31,0,1.79,1.79,0,0,1-.4-1.25V62.79h-1v4.72a3.38,3.38,0,0,0,.3,1.49,2.19,2.19,0,0,0,.89.94,3.24,3.24,0,0,0,2.81,0,2.13,2.13,0,0,0,.89-.94,3.38,3.38,0,0,0,.31-1.49V62.79h-1Z"/><path class="cls-3" d="M225.82,66.8a1.89,1.89,0,0,0,.75-.76,2.24,2.24,0,0,0,.27-1.12,2.4,2.4,0,0,0-.26-1.12,1.89,1.89,0,0,0-.76-.75,2.34,2.34,0,0,0-1.12-.26h-2.94v7.4h1V67.06h1.55l1.57,3.13h1.23l-1.71-3.25A2.46,2.46,0,0,0,225.82,66.8Zm-3-3h1.94a.91.91,0,0,1,.52.15.93.93,0,0,1,.36.4,1.59,1.59,0,0,1,0,1.21,1,1,0,0,1-.36.4.9.9,0,0,1-.52.14H222.8Z"/><rect class="cls-3" x="228.55" y="62.79" width="1.04" height="7.39"/><path class="cls-3" d="M233.33,62.79l-2.72,7.4h1.12l.55-1.63h3l.55,1.63h1.12l-2.72-7.4Zm-.71,4.79,1.15-3.36,1.16,3.36Z"/><polygon class="cls-3" points="239.1 62.79 238.06 62.79 238.06 70.19 238.58 70.19 239.1 70.19 242.81 70.19 242.81 69.2 239.1 69.2 239.1 62.79"/><path class="cls-3" d="M250.88,66.8a1.85,1.85,0,0,0,.76-.76,2.24,2.24,0,0,0,.27-1.12,2.29,2.29,0,0,0-.27-1.12,1.93,1.93,0,0,0-.75-.75,2.41,2.41,0,0,0-1.13-.26h-2.93v7.4h1V67.06h1.55L251,70.19h1.23l-1.71-3.25A2,2,0,0,0,250.88,66.8Zm-3-3h1.94a.94.94,0,0,1,.53.15.91.91,0,0,1,.35.4,1.59,1.59,0,0,1,0,1.21.91.91,0,0,1-.35.4,1,1,0,0,1-.53.14h-1.94Z"/><polygon class="cls-3" points="254.12 62.79 253.62 62.79 253.62 70.19 254.12 70.19 254.65 70.19 258.37 70.19 258.37 69.2 254.65 69.2 254.65 67.01 257.81 67.01 257.81 66.02 254.65 66.02 254.65 63.78 258.37 63.78 258.37 62.79 254.65 62.79 254.12 62.79"/><path class="cls-3" d="M261.85,62.79l-2.72,7.4h1.12l.55-1.63h3l.56,1.63h1.11l-2.72-7.4Zm-.71,4.79,1.16-3.36,1.15,3.36Z"/><path class="cls-3" d="M270.45,63.1a3.52,3.52,0,0,0-1.52-.31h-2.35v7.4h2.34a3.49,3.49,0,0,0,1.52-.31,2.14,2.14,0,0,0,1-.91,2.91,2.91,0,0,0,.33-1.43v-2.1a2.91,2.91,0,0,0-.33-1.43A2.17,2.17,0,0,0,270.45,63.1Zm.23,4.48a1.55,1.55,0,0,1-.45,1.19,1.76,1.76,0,0,1-1.27.43h-1.34V63.78H269a1.8,1.8,0,0,1,1.27.42,1.59,1.59,0,0,1,.45,1.2Z"/><rect class="cls-3" x="273.32" y="62.79" width="1.04" height="7.39"/><polygon class="cls-3" points="280.62 68.32 277.12 62.79 276.18 62.79 276.18 70.18 277.21 70.18 277.21 64.74 280.69 70.18 281.64 70.18 281.64 62.79 280.62 62.79 280.62 68.32"/><polygon class="cls-3" points="283.98 62.79 283.48 62.79 283.48 70.19 283.98 70.19 284.51 70.19 288.22 70.19 288.22 69.2 284.51 69.2 284.51 67.01 287.67 67.01 287.67 66.02 284.51 66.02 284.51 63.78 288.22 63.78 288.22 62.79 284.51 62.79 283.98 62.79"/><path class="cls-3" d="M293.58,66.36a5.6,5.6,0,0,0-1.12-.33h-.19c-.38-.08-.68-.15-.9-.22a1.35,1.35,0,0,1-.53-.32.81.81,0,0,1-.22-.6h0A1,1,0,0,1,291,64a2,2,0,0,1,1.18-.3,2.28,2.28,0,0,1,.84.16,3.5,3.5,0,0,1,.84.46l.59-.82a4.3,4.3,0,0,0-.74-.43,4.45,4.45,0,0,0-.75-.26,4.13,4.13,0,0,0-.78-.08,3.54,3.54,0,0,0-1.42.25,1.91,1.91,0,0,0-.9.74,2.11,2.11,0,0,0-.31,1.17h0a2,2,0,0,0,.33,1.21,1.74,1.74,0,0,0,.8.58,8,8,0,0,0,1.21.29h.14a6.17,6.17,0,0,1,.82.2,1.35,1.35,0,0,1,.52.34.9.9,0,0,1,.2.61h0a1,1,0,0,1-.44.84,2.22,2.22,0,0,1-1.25.3,3,3,0,0,1-1.1-.19,2.76,2.76,0,0,1-.93-.55l-.65.8a3.69,3.69,0,0,0,1.67.81,4.74,4.74,0,0,0,1,.1,3.83,3.83,0,0,0,1.47-.25,1.91,1.91,0,0,0,1.25-1.89h0a1.89,1.89,0,0,0-.31-1.15A1.68,1.68,0,0,0,293.58,66.36Z"/><path class="cls-3" d="M300.54,67a1.68,1.68,0,0,0-.75-.6,5.6,5.6,0,0,0-1.12-.33h-.19c-.38-.08-.68-.15-.9-.22a1.46,1.46,0,0,1-.54-.32.84.84,0,0,1-.21-.6h0a1,1,0,0,1,.42-.86,2,2,0,0,1,1.17-.3,2.29,2.29,0,0,1,.85.16,3.5,3.5,0,0,1,.84.46l.59-.82a4.3,4.3,0,0,0-.74-.43,4.45,4.45,0,0,0-.75-.26,4.15,4.15,0,0,0-.79-.08A3.52,3.52,0,0,0,297,63a1.91,1.91,0,0,0-.9.74,2.11,2.11,0,0,0-.31,1.17h0a2,2,0,0,0,.33,1.21,1.74,1.74,0,0,0,.8.58,8.15,8.15,0,0,0,1.2.29h.15a6.17,6.17,0,0,1,.82.2,1.35,1.35,0,0,1,.52.34.9.9,0,0,1,.2.61h0a1,1,0,0,1-.44.84,2.22,2.22,0,0,1-1.25.3,3,3,0,0,1-1.1-.19,2.76,2.76,0,0,1-.93-.55l-.65.8a3.69,3.69,0,0,0,1.67.81,4.68,4.68,0,0,0,1,.1A3.83,3.83,0,0,0,299.6,70a1.94,1.94,0,0,0,1.25-1.89h0A2,2,0,0,0,300.54,67Z"/><circle class="cls-3" cx="145.2" cy="66.49" r="2.46"/><path class="cls-3" d="M334.32,63.1a3.52,3.52,0,0,0-1.52-.31h-2.35v7.4h2.34a3.52,3.52,0,0,0,1.52-.31,2.14,2.14,0,0,0,1-.91,2.91,2.91,0,0,0,.33-1.43v-2.1a2.91,2.91,0,0,0-.33-1.43A2.17,2.17,0,0,0,334.32,63.1Zm.23,4.48a1.55,1.55,0,0,1-.45,1.19,1.76,1.76,0,0,1-1.27.43h-1.34V63.78h1.34a1.8,1.8,0,0,1,1.27.42,1.59,1.59,0,0,1,.45,1.2Z"/><polygon class="cls-3" points="337.69 62.79 337.18 62.79 337.18 70.19 337.69 70.19 338.22 70.19 341.93 70.19 341.93 69.2 338.22 69.2 338.22 67.01 341.37 67.01 341.37 66.02 338.22 66.02 338.22 63.78 341.93 63.78 341.93 62.79 338.22 62.79 337.69 62.79"/><path class="cls-3" d="M347.29,66.36a5.6,5.6,0,0,0-1.12-.33H346c-.38-.08-.68-.15-.9-.22a1.46,1.46,0,0,1-.54-.32.84.84,0,0,1-.21-.6h0a1,1,0,0,1,.42-.86,2,2,0,0,1,1.18-.3,2.28,2.28,0,0,1,.84.16,3.5,3.5,0,0,1,.84.46l.59-.82a4.3,4.3,0,0,0-.74-.43,4.45,4.45,0,0,0-.75-.26,4.13,4.13,0,0,0-.78-.08,3.54,3.54,0,0,0-1.42.25,1.91,1.91,0,0,0-.9.74,2.11,2.11,0,0,0-.31,1.17h0a2,2,0,0,0,.33,1.21,1.74,1.74,0,0,0,.8.58,8,8,0,0,0,1.21.29h.14a6.17,6.17,0,0,1,.82.2,1.35,1.35,0,0,1,.52.34.9.9,0,0,1,.2.61h0a1,1,0,0,1-.44.84,2.22,2.22,0,0,1-1.25.3,3,3,0,0,1-1.1-.19,2.76,2.76,0,0,1-.93-.55l-.65.8a3.69,3.69,0,0,0,1.67.81,4.68,4.68,0,0,0,1,.1A3.83,3.83,0,0,0,347.1,70a1.91,1.91,0,0,0,1.25-1.89h0A2,2,0,0,0,348,67,1.68,1.68,0,0,0,347.29,66.36Z"/><polygon class="cls-3" points="348.8 63.78 350.89 63.78 350.89 70.19 351.93 70.19 351.93 63.78 354.02 63.78 354.02 62.79 348.8 62.79 348.8 63.78"/><path class="cls-3" d="M359.09,66.8a1.85,1.85,0,0,0,.76-.76,2.24,2.24,0,0,0,.27-1.12,2.29,2.29,0,0,0-.27-1.12,1.93,1.93,0,0,0-.75-.75,2.41,2.41,0,0,0-1.13-.26H355v7.4h1V67.06h1.55l1.58,3.13h1.23l-1.71-3.25A2,2,0,0,0,359.09,66.8Zm-3-3H358a.94.94,0,0,1,.53.15.91.91,0,0,1,.35.4,1.59,1.59,0,0,1,0,1.21.91.91,0,0,1-.35.4,1,1,0,0,1-.53.14h-1.94Z"/><path class="cls-3" d="M365.68,67.55a1.79,1.79,0,0,1-.41,1.25,1.51,1.51,0,0,1-1.16.44A1.48,1.48,0,0,1,363,68.8a1.75,1.75,0,0,1-.41-1.25V62.79h-1v4.72a3.25,3.25,0,0,0,.31,1.49,2.16,2.16,0,0,0,.88.94,3.24,3.24,0,0,0,2.81,0,2.13,2.13,0,0,0,.89-.94,3.25,3.25,0,0,0,.31-1.49V62.79h-1Z"/><path class="cls-3" d="M369.34,64.56a1.44,1.44,0,0,1,.53-.61,1.47,1.47,0,0,1,1.42-.07,1.44,1.44,0,0,1,.54.42,1.7,1.7,0,0,1,.32.61h1.06a3,3,0,0,0-.48-1.15,2.47,2.47,0,0,0-.9-.77,2.52,2.52,0,0,0-1.17-.27,2.6,2.6,0,0,0-1.35.34,2.35,2.35,0,0,0-.9,1,3.19,3.19,0,0,0-.32,1.45v2a3.19,3.19,0,0,0,.32,1.45,2.32,2.32,0,0,0,.9,1,2.76,2.76,0,0,0,2.52.07,2.52,2.52,0,0,0,.89-.77,2.83,2.83,0,0,0,.49-1.15h-1.06a1.75,1.75,0,0,1-.32.64,1.55,1.55,0,0,1-.53.4,1.42,1.42,0,0,1-.64.14,1.4,1.4,0,0,1-.79-.22,1.38,1.38,0,0,1-.53-.61,2.17,2.17,0,0,1-.19-.91v-2A2.19,2.19,0,0,1,369.34,64.56Z"/><polygon class="cls-3" points="373.67 63.78 375.76 63.78 375.76 70.19 376.8 70.19 376.8 63.78 378.89 63.78 378.89 62.79 373.67 62.79 373.67 63.78"/><rect class="cls-3" x="379.9" y="62.79" width="1.04" height="7.39"/><polygon class="cls-3" points="385.12 68.59 383.34 62.79 382.21 62.79 384.62 70.19 385.61 70.19 388.02 62.79 386.89 62.79 385.12 68.59"/><polygon class="cls-3" points="389.64 62.79 389.14 62.79 389.14 70.19 389.64 70.19 390.18 70.19 393.89 70.19 393.89 69.2 390.18 69.2 390.18 67.01 393.33 67.01 393.33 66.02 390.18 66.02 390.18 63.78 393.89 63.78 393.89 62.79 390.18 62.79 389.64 62.79"/><polygon class="cls-3" points="397.14 63.78 399.23 63.78 399.23 70.19 400.27 70.19 400.27 63.78 402.36 63.78 402.36 62.79 397.14 62.79 397.14 63.78"/><path class="cls-3" d="M407.43,66.8a1.92,1.92,0,0,0,.76-.76,2.24,2.24,0,0,0,.27-1.12,2.29,2.29,0,0,0-.27-1.12,1.93,1.93,0,0,0-.75-.75,2.41,2.41,0,0,0-1.13-.26h-2.93v7.4h1V67.06H406l1.57,3.13h1.24l-1.72-3.25A2.46,2.46,0,0,0,407.43,66.8Zm-3-3h1.94a.94.94,0,0,1,.53.15,1,1,0,0,1,.35.4,1.59,1.59,0,0,1,0,1.21.93.93,0,0,1-.36.4.9.9,0,0,1-.52.14h-1.94Z"/><path class="cls-3" d="M411.92,62.79l-2.72,7.4h1.12l.55-1.63h3l.55,1.63h1.12l-2.72-7.4Zm-.71,4.79,1.16-3.36,1.15,3.36Z"/><rect class="cls-3" x="416.65" y="62.79" width="1.04" height="7.39"/><polygon class="cls-3" points="418.91 63.78 421 63.78 421 70.19 422.04 70.19 422.04 63.78 424.13 63.78 424.13 62.79 418.91 62.79 418.91 63.78"/><path class="cls-3" d="M429.58,67a1.76,1.76,0,0,0-.76-.6A5.6,5.6,0,0,0,427.7,66h-.19a8.85,8.85,0,0,1-.89-.22,1.32,1.32,0,0,1-.54-.32.81.81,0,0,1-.22-.6h0a1,1,0,0,1,.42-.86,2,2,0,0,1,1.18-.3,2.28,2.28,0,0,1,.84.16,3.5,3.5,0,0,1,.84.46l.59-.82a4.63,4.63,0,0,0-.73-.43,4.55,4.55,0,0,0-.76-.26,4.13,4.13,0,0,0-.78-.08A3.57,3.57,0,0,0,426,63a2,2,0,0,0-.9.74,2.19,2.19,0,0,0-.31,1.17h0a2,2,0,0,0,.33,1.21,1.74,1.74,0,0,0,.8.58,8,8,0,0,0,1.21.29h.14a5.8,5.8,0,0,1,.82.2,1.27,1.27,0,0,1,.52.34.9.9,0,0,1,.2.61h0a1,1,0,0,1-.44.84,2.22,2.22,0,0,1-1.25.3,3.07,3.07,0,0,1-1.1-.19,2.76,2.76,0,0,1-.93-.55l-.65.8a3.69,3.69,0,0,0,1.67.81,4.74,4.74,0,0,0,1,.1,3.8,3.8,0,0,0,1.47-.25,1.91,1.91,0,0,0,1.25-1.89h0A2,2,0,0,0,429.58,67Z"/><circle class="cls-3" cx="325.64" cy="66.49" r="2.46"/><path class="cls-3" d="M513.76,77.85a.36.36,0,0,1,0-.19V73.94h-.64v3.72a.93.93,0,0,0,.2.63.71.71,0,0,0,.56.23h.38v-.61h-.3A.2.2,0,0,1,513.76,77.85Z"/><rect class="cls-3" x="514.93" y="75.25" width="0.64" height="3.26"/><rect class="cls-3" x="514.93" y="73.94" width="0.64" height="0.64"/><path class="cls-3" d="M518.05,75.2a1,1,0,0,0-.54.16,1.08,1.08,0,0,0-.32.35v-.46h-.64V78.5h.64V76.44a.61.61,0,0,1,.17-.47.65.65,0,0,1,.48-.16.62.62,0,0,1,.5.19.72.72,0,0,1,.18.53v2h.64v-2a1.43,1.43,0,0,0-.29-1A1,1,0,0,0,518.05,75.2Z"/><polygon class="cls-3" points="522.84 75.25 522.09 75.25 520.78 76.83 520.78 73.94 520.14 73.94 520.14 78.5 520.78 78.5 520.78 77.57 521.35 76.92 522.31 78.5 523 78.5 521.75 76.47 522.84 75.25"/><path class="cls-3" d="M524.26,74.3h-.64v1h-.33v.57h.33v1.84a.92.92,0,0,0,.19.64.68.68,0,0,0,.57.22h.37v-.61h-.3a.17.17,0,0,1-.14-.06.36.36,0,0,1,0-.19V75.82h.49v-.57h-.49Z"/><path class="cls-3" d="M527.12,75.2a.89.89,0,0,0-.52.16,1.23,1.23,0,0,0-.33.35v-.46h-.64V78.5h.64V76.44a.62.62,0,0,1,.17-.46.61.61,0,0,1,.47-.17.67.67,0,0,1,.3,0,.6.6,0,0,1,.22.16l.41-.57a1.08,1.08,0,0,0-.31-.19A1.31,1.31,0,0,0,527.12,75.2Z"/><rect class="cls-3" x="527.86" y="77.83" width="0.67" height="0.67"/><path class="cls-3" d="M531.27,75.4a1.19,1.19,0,0,0-.69-.2,1.42,1.42,0,0,0-.74.18,1.13,1.13,0,0,0-.47.52,1.88,1.88,0,0,0-.16.82v.37a1.74,1.74,0,0,0,.16.79,1.18,1.18,0,0,0,.49.5,1.68,1.68,0,0,0,.77.17,1.46,1.46,0,0,0,.61-.13,1.6,1.6,0,0,0,.54-.36l-.42-.42a1,1,0,0,1-.34.22.91.91,0,0,1-.39.08.73.73,0,0,1-.81-.81h2v-.21a2.59,2.59,0,0,0-.15-.93A1.3,1.3,0,0,0,531.27,75.4Zm-1.45,1.22A1.08,1.08,0,0,1,530,76a.75.75,0,0,1,.57-.23.55.55,0,0,1,.47.22,1.06,1.06,0,0,1,.21.62Z"/><path class="cls-3" d="M534.72,75.4a1.2,1.2,0,0,0-.7-.2,1.47,1.47,0,0,0-.74.18,1.19,1.19,0,0,0-.47.52,2,2,0,0,0-.16.82v.37a1.74,1.74,0,0,0,.17.79,1.13,1.13,0,0,0,.49.5,1.65,1.65,0,0,0,.77.17,1.49,1.49,0,0,0,.61-.13,1.6,1.6,0,0,0,.54-.36l-.42-.42a1,1,0,0,1-.34.22.91.91,0,0,1-.39.08.73.73,0,0,1-.81-.81h2v-.21a2.59,2.59,0,0,0-.15-.93A1.28,1.28,0,0,0,534.72,75.4Zm-1.45,1.22a1,1,0,0,1,.19-.61.71.71,0,0,1,.56-.23.58.58,0,0,1,.48.22,1.06,1.06,0,0,1,.21.62Z"/><polygon class="cls-3" points="535.66 79.37 536.27 79.37 538.39 73.4 537.78 73.4 535.66 79.37"/><path class="cls-3" d="M539.31,76a.82.82,0,0,1,.58-.2,1,1,0,0,1,.71.32l.46-.41a1,1,0,0,0-.3-.28,1.32,1.32,0,0,0-.4-.18,1.86,1.86,0,0,0-.48-.06,1.61,1.61,0,0,0-.76.16,1.11,1.11,0,0,0-.48.48,1.61,1.61,0,0,0-.17.76v.54a1.64,1.64,0,0,0,.17.76,1.11,1.11,0,0,0,.48.48,1.5,1.5,0,0,0,.76.17,1.73,1.73,0,0,0,.47-.06,1.68,1.68,0,0,0,.41-.17,1.15,1.15,0,0,0,.3-.28l-.46-.45a1,1,0,0,1-.32.26.92.92,0,0,1-.39.09.78.78,0,0,1-.58-.21.84.84,0,0,1-.2-.59V76.6A.84.84,0,0,1,539.31,76Z"/><path class="cls-3" d="M543.62,75.34a1.6,1.6,0,0,0-.69-.14,1.78,1.78,0,0,0-.67.12,1.19,1.19,0,0,0-.49.35l.47.32a1,1,0,0,1,.33-.17,1.21,1.21,0,0,1,.38-.06.62.62,0,0,1,.48.18.67.67,0,0,1,.18.5v.14h-.9a1.23,1.23,0,0,0-.83.24.91.91,0,0,0-.27.72.94.94,0,0,0,.3.76,1.36,1.36,0,0,0,.9.25,1.45,1.45,0,0,0,.37,0,.9.9,0,0,0,.28-.13.71.71,0,0,0,.15-.15v.27h.6V76.41a1.3,1.3,0,0,0-.15-.65A.94.94,0,0,0,543.62,75.34Zm-.2,2.61a1.46,1.46,0,0,1-.54.08.84.84,0,0,1-.5-.12.5.5,0,0,1,0-.71.54.54,0,0,1,.37-.11h.9v.62A.25.25,0,0,1,543.42,78Z"/><polygon class="cls-3" points="546.21 77.57 545.42 75.25 544.75 75.25 545.97 78.5 546.46 78.5 547.68 75.25 547.01 75.25 546.21 77.57"/><path class="cls-3" d="M549,77.85a.36.36,0,0,1,0-.19V73.94h-.64v3.72a.88.88,0,0,0,.2.63.71.71,0,0,0,.56.23h.38v-.61h-.3A.18.18,0,0,1,549,77.85Z"/><path class="cls-3" d="M552.14,75.4a1.19,1.19,0,0,0-.69-.2,1.42,1.42,0,0,0-.74.18,1.08,1.08,0,0,0-.47.52,1.88,1.88,0,0,0-.16.82v.37a1.74,1.74,0,0,0,.16.79,1.13,1.13,0,0,0,.49.5,1.65,1.65,0,0,0,.77.17,1.46,1.46,0,0,0,.61-.13,1.6,1.6,0,0,0,.54-.36l-.42-.42a1,1,0,0,1-.34.22.91.91,0,0,1-.39.08.73.73,0,0,1-.81-.81h2v-.21a2.38,2.38,0,0,0-.16-.93A1.22,1.22,0,0,0,552.14,75.4Zm-1.45,1.22a1,1,0,0,1,.19-.61.73.73,0,0,1,.57-.23.56.56,0,0,1,.47.22,1.06,1.06,0,0,1,.21.62Z"/><path class="cls-3" d="M555.12,75.2a1,1,0,0,0-.54.16,1.08,1.08,0,0,0-.32.35v-.46h-.64V78.5h.64V76.44a.61.61,0,0,1,.17-.47.65.65,0,0,1,.48-.16.62.62,0,0,1,.5.19.72.72,0,0,1,.18.53v2h.64v-2a1.43,1.43,0,0,0-.29-1A1,1,0,0,0,555.12,75.2Z"/><path class="cls-3" d="M558.43,75.82v-.57h-.5v-1h-.64v1H557v.57h.33v1.84a.92.92,0,0,0,.19.64.68.68,0,0,0,.57.22h.38v-.61h-.31a.17.17,0,0,1-.14-.06.36.36,0,0,1-.05-.19V75.82Z"/><rect class="cls-3" x="510.24" y="19.66" width="51.02" height="51.02"/><rect x="532.99" y="22.21" width="1.84" height="1.84"/><rect x="538.5" y="22.21" width="1.84" height="1.84"/><polygon points="531.16 25.89 532.99 25.89 532.99 24.05 531.16 24.05 529.32 24.05 529.32 22.21 527.48 22.21 527.48 24.05 527.48 25.89 527.48 27.72 529.32 27.72 529.32 25.89 531.16 25.89"/><polygon points="544.01 24.05 544.01 22.21 542.18 22.21 542.18 24.05 542.18 25.89 544.01 25.89 544.01 24.05"/><rect x="529.32" y="27.72" width="1.84" height="1.84"/><rect x="527.48" y="29.56" width="1.84" height="1.84"/><rect x="531.16" y="29.56" width="1.84" height="1.84"/><rect x="538.5" y="29.56" width="1.84" height="1.84"/><polygon points="542.18 31.4 544.01 31.4 544.01 29.56 544.01 27.72 542.18 27.72 542.18 29.56 542.18 31.4"/><rect x="529.32" y="31.4" width="1.84" height="1.84"/><polygon points="534.83 33.23 534.83 35.07 534.83 36.91 536.67 36.91 538.5 36.91 538.5 35.07 536.67 35.07 536.67 33.23 538.5 33.23 538.5 31.4 536.67 31.4 536.67 29.56 538.5 29.56 538.5 27.72 540.34 27.72 542.18 27.72 542.18 25.89 540.34 25.89 538.5 25.89 536.67 25.89 534.83 25.89 534.83 27.72 534.83 29.56 534.83 31.4 532.99 31.4 532.99 33.23 534.83 33.23"/><rect x="527.48" y="33.23" width="1.84" height="1.84"/><rect x="531.16" y="33.23" width="1.84" height="1.84"/><rect x="538.5" y="33.23" width="1.84" height="1.84"/><polygon points="555.03 36.91 553.2 36.91 553.2 38.74 551.36 38.74 551.36 36.91 549.52 36.91 549.52 38.74 547.69 38.74 547.69 40.58 549.52 40.58 549.52 42.42 547.69 42.42 545.85 42.42 545.85 40.58 544.01 40.58 544.01 42.42 545.85 42.42 545.85 44.26 545.85 46.09 547.69 46.09 549.52 46.09 549.52 44.26 551.36 44.26 553.2 44.26 555.03 44.26 556.87 44.26 556.87 46.09 558.71 46.09 558.71 44.26 558.71 42.42 558.71 42.42 558.71 40.58 556.87 40.58 556.87 42.42 555.03 42.42 553.2 42.42 553.2 40.58 555.03 40.58 556.87 40.58 556.87 38.74 558.71 38.74 558.71 36.91 556.87 36.91 555.03 36.91"/><polygon points="514.62 38.74 514.62 36.91 512.79 36.91 512.79 38.74 512.79 40.58 514.62 40.58 514.62 38.74"/><polygon points="527.48 38.74 529.32 38.74 529.32 40.58 531.16 40.58 531.16 42.42 532.99 42.42 532.99 44.26 532.99 46.09 534.83 46.09 536.67 46.09 536.67 44.26 536.67 42.42 534.83 42.42 534.83 40.58 536.67 40.58 536.67 38.74 534.83 38.74 532.99 38.74 532.99 36.91 531.16 36.91 531.16 35.07 529.32 35.07 529.32 36.91 527.48 36.91 525.64 36.91 523.81 36.91 521.97 36.91 520.13 36.91 518.3 36.91 518.3 38.74 518.3 40.58 520.13 40.58 520.13 42.42 518.3 42.42 518.3 40.58 516.46 40.58 516.46 42.42 516.46 42.42 516.46 44.26 516.46 46.09 516.46 47.93 514.62 47.93 514.62 46.09 514.62 44.26 512.79 44.26 512.79 46.09 512.79 47.93 512.79 49.77 514.62 49.77 516.46 49.77 518.3 49.77 518.3 47.93 518.3 46.09 520.13 46.09 520.13 44.26 521.97 44.26 523.81 44.26 523.81 42.42 525.64 42.42 525.64 40.58 523.81 40.58 523.81 42.42 521.97 42.42 521.97 40.58 521.97 38.74 523.81 38.74 525.64 38.74 525.64 40.58 527.48 40.58 527.48 38.74"/><polygon points="538.5 40.58 538.5 42.42 538.5 42.42 538.5 44.26 540.34 44.26 542.18 44.26 542.18 42.42 542.18 42.42 542.18 40.58 542.18 38.74 544.01 38.74 545.85 38.74 545.85 36.91 544.01 36.91 544.01 35.07 544.01 33.23 542.18 33.23 542.18 35.07 542.18 36.91 540.34 36.91 538.5 36.91 538.5 38.74 538.5 40.58"/><rect x="527.48" y="40.58" width="1.84" height="1.84"/><rect x="523.81" y="44.25" width="1.84" height="1.84"/><rect x="529.32" y="44.25" width="1.84" height="1.84"/><rect x="542.18" y="44.25" width="1.84" height="1.84"/><rect x="527.48" y="46.09" width="1.84" height="1.84"/><rect x="531.16" y="46.09" width="1.84" height="1.84"/><rect x="536.67" y="46.09" width="1.84" height="1.84"/><polygon points="540.34 47.93 538.5 47.93 538.5 49.77 540.34 49.77 542.18 49.77 544.01 49.77 545.85 49.77 545.85 47.93 544.01 47.93 542.18 47.93 542.18 46.09 540.34 46.09 540.34 47.93"/><polygon points="555.03 47.93 553.2 47.93 551.36 47.93 551.36 46.09 549.52 46.09 549.52 47.93 549.52 49.77 551.36 49.77 553.2 49.77 555.03 49.77 556.87 49.77 558.71 49.77 558.71 47.93 556.87 47.93 556.87 46.09 555.03 46.09 555.03 47.93"/><rect x="523.81" y="47.93" width="1.84" height="1.84"/><rect x="529.32" y="47.93" width="1.84" height="1.84"/><polygon points="532.99 47.93 532.99 49.77 534.83 49.77 536.67 49.77 536.67 47.93 534.83 47.93 532.99 47.93"/><rect x="516.46" y="49.77" width="1.84" height="1.84"/><path d="M549.52,49.77h-1.83V51.6H544V49.77H538.5V51.6h1.84v3.68h1.84v1.83H538.5V51.6h-3.67v1.84H533V51.6h1.84V49.77h-3.67v5.51H533v1.83h3.68V59h1.83v3.67h1.84V60.79h1.84v1.83H544V66.3h-1.83V64.46H538.5V66.3h3.68v1.83H544V66.3h1.84V62.62h1.84V60.79h3.67V51.6h-1.84Zm0,5.51V59H544V53.44h5.51Z"/><polygon points="555.03 49.77 553.2 49.77 551.36 49.77 551.36 51.6 553.2 51.6 553.2 53.44 553.2 55.28 555.03 55.28 556.87 55.28 556.87 53.44 556.87 51.6 555.03 51.6 555.03 49.77"/><rect x="556.87" y="49.77" width="1.84" height="1.84"/><polygon points="514.62 51.6 514.62 49.77 512.79 49.77 512.79 51.6 512.79 53.44 514.62 53.44 514.62 51.6"/><rect x="523.81" y="51.6" width="1.84" height="1.84"/><polygon points="529.32 53.44 529.32 51.6 529.32 49.77 527.48 49.77 527.48 51.6 527.48 53.44 527.48 55.28 527.48 57.11 527.48 58.95 527.48 60.79 527.48 62.62 529.32 62.62 529.32 64.46 529.32 66.3 527.48 66.3 527.48 68.13 529.32 68.13 529.32 66.3 531.16 66.3 532.99 66.3 532.99 64.46 534.83 64.46 536.67 64.46 536.67 62.62 534.83 62.62 534.83 60.79 532.99 60.79 532.99 62.62 531.16 62.62 531.16 60.79 531.16 58.95 529.32 58.95 529.32 57.11 531.16 57.11 531.16 55.28 529.32 55.28 529.32 53.44"/><rect x="545.85" y="55.28" width="1.84" height="1.84"/><polygon points="555.03 57.11 555.03 58.95 556.87 58.95 558.71 58.95 558.71 57.11 558.71 55.28 556.87 55.28 556.87 57.11 555.03 57.11"/><path d="M555,60.79v1.83h-5.51v1.84h-1.83V66.3h3.67v1.83h1.84V66.3h3.67v1.83h1.84V66.3h0V60.79H555ZM553.2,66.3h-1.84V64.46h1.84Z"/><rect x="534.83" y="66.3" width="1.84" height="1.84"/><path d="M525.65,22.21H512.79V35.07h12.86Zm-1.93,10.93h-9v-9h9Z"/><path d="M556.78,22.21H545.85V35.07h12.86V22.21Zm0,10.93h-9v-9h9Z"/><path d="M512.79,55.28V68.13h12.86V55.28H512.79Zm10.93,10.93h-9v-9h9Z"/><rect x="516.46" y="25.89" width="5.51" height="5.51"/><rect x="549.52" y="25.89" width="5.51" height="5.51"/><rect x="516.46" y="58.95" width="5.51" height="5.51"/><polygon class="cls-3" points="525.37 7.95 525.37 7.43 523.77 7.43 523.77 6.22 525.66 6.22 525.66 5.71 523.77 5.71 523.49 5.71 523.23 5.71 523.23 9.57 523.77 9.57 523.77 7.95 525.37 7.95"/><path class="cls-3" d="M528.26,9.43a1.14,1.14,0,0,0,.47-.5,1.47,1.47,0,0,0,.17-.74V7.09a1.47,1.47,0,0,0-.17-.74,1.14,1.14,0,0,0-.47-.5,1.51,1.51,0,0,0-1.43,0,1.14,1.14,0,0,0-.47.5,1.47,1.47,0,0,0-.17.74v1.1a1.47,1.47,0,0,0,.17.74,1.14,1.14,0,0,0,.47.5,1.51,1.51,0,0,0,1.43,0Zm-1.42-.77a1.06,1.06,0,0,1-.1-.45V7.07a1.06,1.06,0,0,1,.1-.45.71.71,0,0,1,.28-.31.89.89,0,0,1,.43-.11.85.85,0,0,1,.42.11.71.71,0,0,1,.28.31,1.06,1.06,0,0,1,.1.45V8.21a1.06,1.06,0,0,1-.1.45A.71.71,0,0,1,528,9a.85.85,0,0,1-.42.11.89.89,0,0,1-.43-.11A.71.71,0,0,1,526.84,8.66Z"/><path class="cls-3" d="M531.07,7.94l.83,1.63h.64l-.89-1.7.19-.07a1,1,0,0,0,.4-.39,1.25,1.25,0,0,0,.14-.59,1.21,1.21,0,0,0-.14-.58,1,1,0,0,0-.39-.4,1.25,1.25,0,0,0-.59-.13h-1.53V9.57h.54V7.94Zm.21-1.72a.48.48,0,0,1,.27.08.55.55,0,0,1,.19.21.75.75,0,0,1,.06.31.79.79,0,0,1-.06.32.55.55,0,0,1-.19.21.5.5,0,0,1-.27.07h-1V6.22Z"/><polygon class="cls-3" points="536.37 8.26 535.24 5.71 534.73 5.71 534.73 9.57 535.26 9.57 535.26 6.96 536.18 9.03 536.56 9.03 537.49 6.91 537.49 9.57 538.01 9.57 538.01 5.71 537.51 5.71 536.37 8.26"/><path class="cls-3" d="M539.54,9.43a1.36,1.36,0,0,0,.71.18,1.39,1.39,0,0,0,.71-.18,1.16,1.16,0,0,0,.48-.5,1.58,1.58,0,0,0,.17-.74V7.09a1.58,1.58,0,0,0-.17-.74,1.16,1.16,0,0,0-.48-.5,1.39,1.39,0,0,0-.71-.18,1.36,1.36,0,0,0-.71.18,1.11,1.11,0,0,0-.48.5,1.58,1.58,0,0,0-.17.74v1.1a1.58,1.58,0,0,0,.17.74A1.11,1.11,0,0,0,539.54,9.43Zm-.09-2.36a.93.93,0,0,1,.1-.45.65.65,0,0,1,.28-.31.86.86,0,0,1,.84,0,.71.71,0,0,1,.28.31.93.93,0,0,1,.1.45V8.21a.93.93,0,0,1-.1.45.71.71,0,0,1-.28.31.86.86,0,0,1-.84,0,.65.65,0,0,1-.28-.31.93.93,0,0,1-.1-.45Z"/><path class="cls-3" d="M544.55,7.8a.92.92,0,0,0,.39-.39,1.25,1.25,0,0,0,.14-.59,1.11,1.11,0,0,0-.14-.58,1,1,0,0,0-.39-.4,1.25,1.25,0,0,0-.59-.13h-1.53V9.57H543V7.94h.81l.82,1.63h.64l-.89-1.7ZM543,6.22h1a.51.51,0,0,1,.28.08.46.46,0,0,1,.18.21.74.74,0,0,1,.07.31.79.79,0,0,1-.07.32.46.46,0,0,1-.18.21.51.51,0,0,1-.28.07h-1Z"/><polygon class="cls-3" points="546.52 9.57 548.46 9.57 548.46 9.05 546.52 9.05 546.52 7.91 548.16 7.91 548.16 7.4 546.52 7.4 546.52 6.22 548.46 6.22 548.46 5.71 546.52 5.71 546.24 5.71 545.97 5.71 545.97 9.57 546.24 9.57 546.52 9.57"/><rect class="cls-3" x="519.01" y="12.24" width="0.54" height="3.86"/><polygon class="cls-3" points="522.82 15.12 521 12.24 520.5 12.24 520.5 16.09 521.04 16.09 521.04 13.26 522.86 16.09 523.36 16.09 523.36 12.24 522.82 12.24 522.82 15.12"/><polygon class="cls-3" points="524.58 12.24 524.31 12.24 524.31 16.1 524.85 16.1 524.85 14.47 526.45 14.47 526.45 13.96 524.85 13.96 524.85 12.75 526.74 12.75 526.74 12.24 524.85 12.24 524.58 12.24"/><path class="cls-3" d="M529.34,12.37a1.57,1.57,0,0,0-1.42,0,1.22,1.22,0,0,0-.48.5,1.66,1.66,0,0,0-.17.75v1.09a1.6,1.6,0,0,0,.17.75,1.16,1.16,0,0,0,.48.5,1.49,1.49,0,0,0,1.42,0,1.16,1.16,0,0,0,.48-.5,1.6,1.6,0,0,0,.17-.75V13.62a1.66,1.66,0,0,0-.17-.75A1.22,1.22,0,0,0,529.34,12.37Zm.09,2.36a1,1,0,0,1-.1.46.76.76,0,0,1-.28.31.93.93,0,0,1-.84,0,.76.76,0,0,1-.28-.31,1,1,0,0,1-.1-.46V13.6a1,1,0,0,1,.1-.46.68.68,0,0,1,.28-.3.86.86,0,0,1,.84,0,.68.68,0,0,1,.28.3,1,1,0,0,1,.1.46Z"/><path class="cls-3" d="M532.93,14.33a1,1,0,0,0,.39-.4,1.09,1.09,0,0,0,.14-.58,1.15,1.15,0,0,0-.14-.59.92.92,0,0,0-.39-.39,1.22,1.22,0,0,0-.59-.14h-1.53V16.1h.54V14.46h.81L533,16.1h.65l-.9-1.7Zm-1.58-1.58h1a.51.51,0,0,1,.28.07.46.46,0,0,1,.18.21.68.68,0,0,1,.07.32.62.62,0,0,1-.07.31.42.42,0,0,1-.18.21.51.51,0,0,1-.28.08h-1Z"/><polygon class="cls-3" points="536 14.79 534.86 12.24 534.36 12.24 534.36 16.1 534.88 16.1 534.88 13.49 535.81 15.56 536.19 15.56 537.11 13.44 537.11 16.1 537.64 16.1 537.64 12.24 537.13 12.24 536 14.79"/><path class="cls-3" d="M539.59,12.24l-1.42,3.86h.58l.3-.85h1.55l.3.85h.58l-1.42-3.86Zm-.37,2.5.6-1.76.61,1.76Z"/><polygon class="cls-3" points="541.43 12.75 542.52 12.75 542.52 16.1 543.06 16.1 543.06 12.75 544.15 12.75 544.15 12.24 541.43 12.24 541.43 12.75"/><rect class="cls-3" x="544.68" y="12.24" width="0.54" height="3.86"/><path class="cls-3" d="M548.17,12.37a1.49,1.49,0,0,0-.71-.17,1.46,1.46,0,0,0-.71.17,1.22,1.22,0,0,0-.48.5,1.66,1.66,0,0,0-.17.75v1.09a1.6,1.6,0,0,0,.17.75,1.16,1.16,0,0,0,.48.5,1.36,1.36,0,0,0,.71.18,1.39,1.39,0,0,0,.71-.18,1.28,1.28,0,0,0,.48-.5,1.6,1.6,0,0,0,.16-.75V13.62a1.65,1.65,0,0,0-.16-.75A1.36,1.36,0,0,0,548.17,12.37Zm.09,2.36a1,1,0,0,1-.1.46.84.84,0,0,1-.28.31.93.93,0,0,1-.84,0,.76.76,0,0,1-.28-.31,1,1,0,0,1-.1-.46V13.6a1,1,0,0,1,.1-.46.68.68,0,0,1,.28-.3.86.86,0,0,1,.84,0,.74.74,0,0,1,.28.3,1,1,0,0,1,.1.46Z"/><polygon class="cls-3" points="551.95 12.24 551.95 15.12 550.13 12.24 549.64 12.24 549.64 16.09 550.17 16.09 550.17 13.26 551.99 16.09 552.49 16.09 552.49 12.24 551.95 12.24"/></g></g></svg>