<svg xmlns="http://www.w3.org/2000/svg" viewBox="0 0 500 498"><title>banktransfer</title><g id="Layer_2" data-name="Layer 2"><g id="Layer_1-2" data-name="Layer 1"><g id="_13-transfer" data-name=" 13-transfer"><g id="linear_color" data-name="linear color"><path d="M26,446a10,10,0,0,0,0,20H218a10,10,0,0,0,0-20h-6V353h6a10,10,0,0,0,10-10V328a10,10,0,0,0-4.45-8.32l-96-64a10,10,0,0,0-11.1,0l-96,64A10,10,0,0,0,16,328v15a10,10,0,0,0,10,10h6v93Zm58-92h76v92H84Zm96,92V354h12v92ZM122,276l85.47,57H36.53ZM52,354H64v92H52Z"/><path d="M234,478H10a10,10,0,0,0,0,20H234a10,10,0,0,0,0-20Z"/><path d="M282,192a10,10,0,0,0,0,20H474a10,10,0,0,0,0-20h-6V99h6a10,10,0,0,0,10-10V74a10,10,0,0,0-4.45-8.32l-96-64a10,10,0,0,0-11.1,0l-96,64A10,10,0,0,0,272,74V89a10,10,0,0,0,10,10h6v93Zm58-92h76v92H340Zm96,92V100h12v92ZM378,22l85.47,57H292.53Zm-70,78h12v92H308Z"/><path d="M490,224H266a10,10,0,0,0,0,20H490a10,10,0,0,0,0-20Z"/><path d="M423.13,281.2A10,10,0,0,0,411,288.46,165.36,165.36,0,0,1,292.06,408.61l12.25-22.9a10,10,0,0,0-17.64-9.43L264,418.6a10,10,0,0,0,4.1,13.53l.19.1L311.12,454a10,10,0,0,0,9.06-17.83l-18.6-9.45A185.86,185.86,0,0,0,430.39,293.34a10,10,0,0,0-7.26-12.14Z"/><path d="M76.87,214.8A10,10,0,0,0,89,207.57v0A165.36,165.36,0,0,1,207.94,87.39l-12.25,22.9a10,10,0,1,0,17.6,9.5l0-.07L236,77.4a10,10,0,0,0-4.1-13.54l-.19-.09L188.88,42a10,10,0,0,0-9.06,17.83l18.6,9.45A185.86,185.86,0,0,0,69.61,202.66a10,10,0,0,0,7.26,12.14Z"/></g></g></g></g></svg>