<svg xmlns="http://www.w3.org/2000/svg" viewBox="0 0 409.89 88.18"><defs><style>.cls-1{fill:#42b549;}</style></defs><title>tokopedia</title><g id="Layer_2" data-name="Layer 2"><g id="Logo"><path class="cls-1" d="M342,21h9.66V67.84H351a9,9,0,0,1-9-9ZM260.51,68.65a25.4,25.4,0,0,1-18.14-3A23.92,23.92,0,0,1,230.8,51.31c-3.91-12.8,4.11-27.06,17-30.52a23.75,23.75,0,0,1,18.34,2.32c9.67,5.41,13.19,13.77,12.58,24.54l-39-.08a13.39,13.39,0,0,0,7.13,10c3.88,2.17,7.45,2.69,10.76,1.66,3.68-1.15,6.66-4.15,9.09-7L274.68,58C271.44,63.83,267,67.26,260.51,68.65Zm7.38-29.83a11.63,11.63,0,0,0-6.28-7.6c-8.38-4.68-16.62-.7-20.46,7.57Zm132.33,2.74a11,11,0,0,0-4.34-9.12,15.41,15.41,0,0,0-9.83-3.1c-8.75,0-14.37,6.84-14.37,15.27,0,8.12,5.95,14.9,14.28,14.9,5.78,0,8.88-3.39,12.18-7.6V64.06a26.93,26.93,0,0,1-5.59,3.44,19.3,19.3,0,0,1-7.44,1.29C371.19,68.79,362,57.27,362,44c0-6.84,2.13-12.49,6.41-16.9,4.54-4.67,10.48-7,17.77-7,13.82,0,23.7,7.93,23.7,22.26V67.84h-.68a9,9,0,0,1-9-9ZM351.1,15.46a5.44,5.44,0,0,1-4.24,1.66,5.54,5.54,0,0,1-5.69-5.74,5.4,5.4,0,0,1,5.69-5.65,5.54,5.54,0,0,1,5.69,5.65A5.93,5.93,0,0,1,351.1,15.46ZM323.81,61.65c-4.44,4.77-10.15,7.14-17.08,7.14-7.3,0-13.26-2.52-17.79-7.58q-6.39-7.18-6.38-17.93c0-12.65,9.77-23.22,22.61-23.22a27.08,27.08,0,0,1,13.61,3.43V34c-3.49-2.36-7.86-4.61-12.18-4.61-9,0-14.37,6.2-14.37,15s5.67,15.18,14.55,15.18a12.64,12.64,0,0,0,10-4.55c2.64-3,4-7.45,4-13.4V9a9,9,0,0,1,9-9h.67V43.09C330.43,50.68,328.24,56.89,323.81,61.65ZM219.13,62a21.63,21.63,0,0,1-15.95,6.79,25.66,25.66,0,0,1-13.57-3.54V54.89c3.48,2.36,7.86,4.62,12.18,4.62,9,0,14.37-6.2,14.37-15s-5.55-15.18-14.56-15.18a12.48,12.48,0,0,0-9.84,4.35c-2.73,3.14-4.14,7.63-4.14,13.57V88.18h-.68a9,9,0,0,1-9-9V45.73c0-14.21,8.69-25.67,23.61-25.67,7.36,0,13.35,2.52,17.89,7.58q6.39,7.09,6.38,17.93A22.54,22.54,0,0,1,219.13,62Z"/><path class="cls-1" d="M63.31,33.53A13.47,13.47,0,0,0,53.1,29.34c-8.89,0-14.22,6.49-14.22,15.08S44.34,59.51,53.1,59.51,67.33,52.9,67.33,44.42A15,15,0,0,0,63.31,33.53Zm95.1,0a13.47,13.47,0,0,0-10.21-4.19c-8.89,0-14.22,6.49-14.22,15.08s5.45,15.09,14.22,15.09,14.22-6.61,14.22-15.09A15.08,15.08,0,0,0,158.41,33.53Zm7,28.39a24.82,24.82,0,0,1-34.28,0,23.24,23.24,0,0,1-7.18-17.5A24.39,24.39,0,0,1,165.34,27a23.2,23.2,0,0,1,7.23,17.44A23.24,23.24,0,0,1,165.39,61.92ZM115.48,32.28a59.23,59.23,0,0,1-3.29,5.11A13.41,13.41,0,0,1,109.67,40c6.71,2.17,9.22,6.82,9.22,13.76V67.84h-.68a9,9,0,0,1-9-9V54.74c0-4.49-2-7.54-6.77-7.54H93.67V67.84H93a9,9,0,0,1-9-9V9a9,9,0,0,1,9-9h.68V37.82h2.85c3.14,0,5.21-1.07,6.39-3.1L111,21l11,0ZM70.29,61.92A24,24,0,0,1,53.1,68.79,23.83,23.83,0,0,1,36,61.92a23.22,23.22,0,0,1-7.19-17.5A23.91,23.91,0,0,1,53.1,20.06,23.94,23.94,0,0,1,70.24,27a23.2,23.2,0,0,1,7.23,17.44A23.24,23.24,0,0,1,70.29,61.92ZM14.15,67.84C4.69,67.84,0,61.4,0,52.42V18.35a9,9,0,0,1,9-9h.68V21H26V30.3H9.67V53.5c0,3.94,1.76,5,5.53,5H26v9.29Z"/></g></g></svg>