<svg xmlns="http://www.w3.org/2000/svg" viewBox="0 0 198.08 328.77"><defs><style>.cls-1{fill:#fff;}.cls-2{fill:none;}.cls-3{fill:#ffcc80;}.cls-4{fill:#525d7d;}</style></defs><title>Asset 1</title><g id="Layer_2" data-name="Layer 2"><g id="Layer_1-2" data-name="Layer 1"><path class="cls-1" d="M105.58,112.14a2.22,2.22,0,0,1-1,.62c.5-.06,1-.13,1.51-.16A2.21,2.21,0,0,1,105.58,112.14Z"/><path class="cls-2" d="M63.3,213.34a7.42,7.42,0,0,1,.45,2.71c1,.37,1.87.88,2.79,1.33a13.21,13.21,0,0,0,9.39,1.12,3.72,3.72,0,0,1,3.09.64,54.38,54.38,0,0,0,10.17-10.55c0-.07.11-.12.17-.19-.85-1.66-.88-3.91-1.39-5.65a28.65,28.65,0,0,0-3.25-7c-1.49-.61-2.78-1.8-4.38-2.45-2.55-1-6.31.5-8.38-1.72a1.5,1.5,0,0,1-.2-.24A2.83,2.83,0,0,1,70,192.64a12.46,12.46,0,0,0-9,8.75,2.9,2.9,0,0,1-1.35,1.75c.53,1.1,1,2,1,2.3C61.57,208.07,62.45,210.72,63.3,213.34Z"/><path class="cls-3" d="M51.85,192.25c-4.49.1-5.56,5.6-2.66,8.52a1,1,0,0,0,0,.59,1.07,1.07,0,0,0,1.31.74l.42-.12a4.81,4.81,0,0,0,1.62.4c.22.41.46.83.69,1.27a31.47,31.47,0,0,1,2.35,7.14A25.89,25.89,0,0,0,56.77,214a5.89,5.89,0,0,0-1.93,1.43c-2,2.37-1,5.55.56,7.86,1.67,2.53,5.82,1.64,5.84-1.58,0,.08,6.12,2.73,7.06,3a18.54,18.54,0,0,0,5.69.9,20.11,20.11,0,0,1,.17,2.83c0,2.5,2.24,3.68,4.42,3.37l4.15-.6a3.39,3.39,0,0,0,2.38-4.19l-1.41-3.45A78.35,78.35,0,0,0,91,216.49a10.35,10.35,0,0,0,4.25,1.63,3.49,3.49,0,0,0,4.15-2.36c1.28-4.07,4.2-10.21-2.1-11.42a9.54,9.54,0,0,0-1.77-.21,25.28,25.28,0,0,0-.7-3.28,27.88,27.88,0,0,0-1.48-4.08,9.8,9.8,0,0,0,2.75-2.07c1.21-1.3,1.48-3.7,0-5-1.27-1.08-2.65-2.08-3.89-3.18s-3.4-1.41-4.55,0c-.43.54-1.59,3-2,3.2.69-.32-3-2.09-3.34-2.22a15.27,15.27,0,0,0-5.1-.91H77c0-.81.11-1.63.17-2.44a3,3,0,0,0-3.79-2.89,4.05,4.05,0,0,1-3.76-.25c-1.51-.61-3.33.67-3.71,2.1a11.52,11.52,0,0,0-.38,4.65,18.33,18.33,0,0,0-7.57,6.09,2.78,2.78,0,0,0-2.37-.52,5.52,5.52,0,0,0-3.06,1.93,1.62,1.62,0,0,1,.44-1.15A1.28,1.28,0,0,0,51.85,192.25ZM61,201.39a12.46,12.46,0,0,1,9-8.75,2.83,2.83,0,0,0,1.75-1.31,1.5,1.5,0,0,0,.2.24c2.07,2.22,5.83.69,8.38,1.72,1.6.65,2.89,1.84,4.38,2.45a28.65,28.65,0,0,1,3.25,7c.51,1.74.54,4,1.39,5.65-.06.07-.12.12-.17.19A54.38,54.38,0,0,1,79,219.14a3.72,3.72,0,0,0-3.09-.64,13.21,13.21,0,0,1-9.39-1.12c-.92-.45-1.84-1-2.79-1.33a7.42,7.42,0,0,0-.45-2.71c-.85-2.62-1.73-5.27-2.59-7.9-.08-.27-.51-1.2-1-2.3A2.9,2.9,0,0,0,61,201.39Z"/><path class="cls-3" d="M68.42,13.78c4.14-1.86,8.91-3.65,11.41,1.26C81,17.31,85,16.31,84.75,13.7c-.32-3.74-3.4-6.33-7-7.16a10.61,10.61,0,0,0-3.31-.22A1,1,0,0,0,74.23,6c-4.31-4-11.21.77-9.6,6.25A2.62,2.62,0,0,0,68.42,13.78Z"/><path class="cls-2" d="M78.35,14.84l4.84.12c-.16-2.91-.28-6-.36-9.12C80,6,76.88,6,73.08,6c-2.16,0-4.32,0-6.48,0h-.85c.07,2.91.21,5.81.39,8.71C70.22,14.64,74.35,14.74,78.35,14.84Z"/><path class="cls-2" d="M56.92,246.33a8.85,8.85,0,0,0-.12-4.21,1.5,1.5,0,0,1,1-1.8c.45-.16.91-.34,1.35-.52a11.69,11.69,0,0,0-2.66-4l-.59.76-.28.36a1.5,1.5,0,0,1-2.07.29,8,8,0,0,0-2.7-1.32,1.54,1.54,0,0,1-.91-.71,1.47,1.47,0,0,1-.14-1.14c.12-.44.24-.87.37-1.31a9.87,9.87,0,0,0-3.54.25c.16.35.32.7.49,1.05a1.49,1.49,0,0,1,0,1.22,1.47,1.47,0,0,1-.89.85,10.35,10.35,0,0,0-3,1.73,1.49,1.49,0,0,1-2.09-.2l-.81-.94c-.23.22-.46.46-.69.71a23.28,23.28,0,0,0-2,2.57l-.12.18.87.5.42.25a1.5,1.5,0,0,1,.66,1.8,7.29,7.29,0,0,0-.29,3.64,1.51,1.51,0,0,1-1.22,1.72c-.48.08-1,.14-1.42.19a11,11,0,0,0,1.85,3.6c.27-.34.55-.68.84-1a1.52,1.52,0,0,1,1.09-.51,1.47,1.47,0,0,1,1.11.45l.27.26a8.1,8.1,0,0,0,3.9,2,1.49,1.49,0,0,1,1.15,1.85c-.09.37-.19.74-.28,1.11a14.44,14.44,0,0,0,2.54-.1c-.06-.4-.13-.79-.22-1.17a1.5,1.5,0,0,1,1.11-1.8,10.69,10.69,0,0,0,4.13-2,1.5,1.5,0,0,1,2,.11l.93,1,.37-.39a10,10,0,0,0,2-3.14L58,248.11A1.51,1.51,0,0,1,56.92,246.33ZM52,247.73a5.62,5.62,0,0,1-3.55,1.76l-.51,0a4.75,4.75,0,0,1-3.24-1.23,4.52,4.52,0,0,1-.78-5.77,9.84,9.84,0,0,1,.73-.92c2.4-2.6,5.27-2.14,6.94-.62a5,5,0,0,1,1.57,3.24A4.55,4.55,0,0,1,52,247.73Z"/><path class="cls-2" d="M48.49,241.72A3.24,3.24,0,0,0,46.13,243a5.67,5.67,0,0,0-.55.7,2.52,2.52,0,0,0,.49,3.16,2.86,2.86,0,0,0,2.2.69,3.53,3.53,0,0,0,2.26-1.12,2.57,2.57,0,0,0,.65-2,3,3,0,0,0-.94-1.93A2.58,2.58,0,0,0,48.49,241.72Z"/><path class="cls-2" d="M70.85,35.25c0-.43-.07-.86-.11-1.28,0-.63-.11-1.27-.15-1.92-1.53.11-3.06.15-4.58.18h-.08c-1.2,0-2.38,0-3.54,0H60.51v.06c0,.75,0,1.49,0,2.24,0,.4,0,.77,0,1.12C64,35.75,67.47,35.52,70.85,35.25Z"/><path class="cls-2" d="M127.56,49.39a16.13,16.13,0,0,0-6.72,9.11,14.52,14.52,0,0,0-.52,4,12.35,12.35,0,0,0,.46,3.63,13.24,13.24,0,0,0,1.42,3.28c4.16,7.07,14.17,9.57,21.44,5.41l.26-.2A13.58,13.58,0,0,0,148.12,70a14.78,14.78,0,0,0,1.54-3.62,15.48,15.48,0,0,0,.56-4,15.09,15.09,0,0,0-3.28-9.56c-.84.77-1.67,1.54-2.5,2.29l-3.05,2.8a7.42,7.42,0,0,1,1.27,4.22,7.68,7.68,0,0,1-.28,2,7.09,7.09,0,0,1-.75,1.77,6.73,6.73,0,0,1-2,2.2l-.11.1a1.22,1.22,0,0,1-.19.12,7.53,7.53,0,0,1-3.8,1,7.78,7.78,0,0,1-6.69-3.64,6.7,6.7,0,0,1-1-3.54,7.17,7.17,0,0,1,.26-1.93,7.89,7.89,0,0,1,3.27-4.43,1.41,1.41,0,0,1,.24-.13,9.53,9.53,0,0,1,3.68-1,7.12,7.12,0,0,1,3.93,1.19l3.16-2.91c.81-.73,1.62-1.48,2.44-2.23a14.43,14.43,0,0,0-9.41-3.53C132.89,47.12,130.3,48.22,127.56,49.39Z"/><path class="cls-2" d="M83.08,250.71a6.68,6.68,0,0,0-.8-.41,2.15,2.15,0,0,0-.8-.15,2.64,2.64,0,0,0-2.2,1.27,3.26,3.26,0,0,0,1.32,4.29,2.58,2.58,0,0,0,2.08.22,3,3,0,0,0,1.71-1.3C85.06,253.52,85.07,251.9,83.08,250.71Z"/><path class="cls-2" d="M149.87,84.27l.47-.38c3.07-2.45,5.49-4.38,7.34-7.94a25.81,25.81,0,0,0,2.67-6.28,27.38,27.38,0,0,0,1-7,26.29,26.29,0,0,0-6.44-17.52c-.36.38-.71.74-1.1,1.12-1.76,1.79-3.56,3.51-5.37,5.19a17,17,0,0,1,3.81,10.94,17.76,17.76,0,0,1-.63,4.54,16.74,16.74,0,0,1-1.72,4,15.55,15.55,0,0,1-4.73,5.15l-.31.25a.5.5,0,0,1-.12.08,17.52,17.52,0,0,1-8.8,2.31,17.92,17.92,0,0,1-15.43-8.38,15.36,15.36,0,0,1-1.63-3.77,14.52,14.52,0,0,1-.53-4.19,16.28,16.28,0,0,1,.6-4.48,18,18,0,0,1,7.61-10.27.51.51,0,0,1,.16-.09c2.83-1.22,5.76-2.47,8.76-2.47a16.42,16.42,0,0,1,10.88,4.17c1.79-1.67,3.58-3.37,5.32-5.13L152.8,43a25.23,25.23,0,0,0-17.23-6.88c-4.5,0-9.18,2-13.71,3.94A28,28,0,0,0,110.13,55.9a25.76,25.76,0,0,0-.91,6.89,21.47,21.47,0,0,0,.34,4.32,1,1,0,0,1-2,.35,23.77,23.77,0,0,1-.37-4.68,27.54,27.54,0,0,1,1-7.43,30,30,0,0,1,12.62-17l.16-.08c4.74-2,9.65-4.14,14.58-4.14a27.21,27.21,0,0,1,18.63,7.45c2.8-2.85,5.14-5.29,7.22-7.46a37.35,37.35,0,0,0-25.71-10.38c-6.65,0-13.57,2.95-20.28,5.83A41.44,41.44,0,0,0,98.08,53,38,38,0,0,0,96.73,63.2a32.62,32.62,0,0,0,1,8.4,35.67,35.67,0,0,1,5.11-.34c5.06,0,9.56,4,11.11,9.7,6.18-.22,10.76-.33,13.68-.33h1.56a1.5,1.5,0,0,1,1.49,1.52c0,1.68,0,3.39,0,5.08A28.12,28.12,0,0,0,149.87,84.27Z"/><path class="cls-2" d="M178.35,20.74c2.49.07,5,.23,7.4.4l.54,0c2.3-3,4.81-5.87,7.27-8.65l-2.47-.34c-1.18-.17-2.37-.33-3.56-.48C183.83,15.28,180.9,18.18,178.35,20.74Z"/><path class="cls-1" d="M102.79,74.26a35.84,35.84,0,0,0-4.26.24,34.52,34.52,0,0,0,3.06,6.59l.22.36c3.27-.14,6.26-.27,9-.37C109.35,76.6,105.84,74.26,102.79,74.26Z"/><path class="cls-2" d="M133,58.31A4.74,4.74,0,0,0,131,61a4.48,4.48,0,0,0-.14,1.13,3.53,3.53,0,0,0,.13,1,3.63,3.63,0,0,0,.4.93,4.88,4.88,0,0,0,6.32,1.64A4.24,4.24,0,0,0,139,64.4a4.39,4.39,0,0,0,.48-1.11,4.83,4.83,0,0,0,.17-1.2,4.37,4.37,0,0,0-.52-2.09q-1.54,1.45-3,2.94a1.51,1.51,0,0,1-1.06.44A1.5,1.5,0,0,1,134,60.82c1-1,2-1.93,3-2.88a4.1,4.1,0,0,0-1.63-.34A6.7,6.7,0,0,0,133,58.31Z"/><path class="cls-2" d="M92,249.84a1.54,1.54,0,0,1-1.19.29,1.49,1.49,0,0,1-1-.7,10.54,10.54,0,0,0-2.29-2.57,1.49,1.49,0,0,1-.23-2.09c.26-.33.51-.66.77-1-.27-.18-.55-.36-.84-.53a22.32,22.32,0,0,0-2.93-1.49l-.2-.08c-.11.32-.21.63-.32.94l-.15.47a1.52,1.52,0,0,1-1.63,1,7.25,7.25,0,0,0-3.63.44,1.5,1.5,0,0,1-1.93-.85c-.18-.45-.33-.91-.47-1.36a11,11,0,0,0-3.15,2.55c.38.19.77.4,1.15.62a1.5,1.5,0,0,1,.72,1,1.47,1.47,0,0,1-.21,1.17c-.08.11-.14.22-.21.33a8,8,0,0,0-1.14,4.21,1.5,1.5,0,0,1-1.58,1.5l-1.14-.05a13.37,13.37,0,0,0,.6,2.46c.38-.14.75-.28,1.1-.44a1.49,1.49,0,0,1,2,.72A10.72,10.72,0,0,0,76.89,260a1.49,1.49,0,0,1,.3,2c-.25.38-.5.74-.77,1.11l.46.28a10.14,10.14,0,0,0,3.47,1.3q0-.66.06-1.32A1.51,1.51,0,0,1,81.93,262a8.69,8.69,0,0,0,4.1-1,1.5,1.5,0,0,1,2,.57c.24.41.51.82.77,1.22a11.61,11.61,0,0,0,3.36-3.41l-.86-.42-.4-.21a1.5,1.5,0,0,1-.7-2,8,8,0,0,0,.75-2.91,1.48,1.48,0,0,1,.51-1,1.47,1.47,0,0,1,1.09-.37l1.36.1a10,10,0,0,0-1-3.42Zm-5.87,5.82a5.08,5.08,0,0,1-2.86,2.19,4.72,4.72,0,0,1-1.38.21,4.46,4.46,0,0,1-2.3-.64,5.25,5.25,0,0,1-2-7,4.52,4.52,0,0,1,5.5-1.93,10.3,10.3,0,0,1,1,.53C87.14,250.81,87.27,253.73,86.11,255.66Z"/><path class="cls-2" d="M75.75,218.26c6.75,0,11.46-6.36,11.46-12.07,0-5.27-3.4-11.43-13-11.43a24.09,24.09,0,0,0-3.34.24c-4.92.69-8.78,5.42-8.78,10.79C62.11,212.55,68.35,218.26,75.75,218.26Z"/><path class="cls-2" d="M36.38,158.43a1.5,1.5,0,0,1-2.31-.66A31,31,0,0,1,32,148.16,26,26,0,0,0,26.38,161a1.52,1.52,0,0,1-1.47,1.32,38.71,38.71,0,0,0-11.75,2.43,34.18,34.18,0,0,1,7.51,2.67,1.54,1.54,0,0,1,.84,1.29,1.49,1.49,0,0,1-.73,1.34C9,177.13,3,194.29,3,221.05c0,9.29,5.44,16.19,12.32,24.92,11,13.89,24.59,31.19,24.59,67.69,0,1.57,0,3.16-.15,4.84a322.36,322.36,0,0,1,39.18,6.35c-4.27-5.89-8.11-12.6-8.11-20.05,0-15.78,12.69-16.83,22.89-17.68,3.79-.31,7.38-.61,9.88-1.61,9.58-3.83,12.15-10.32,15.71-19.29,2.72-6.87,6.12-15.43,13.68-25.05a7.5,7.5,0,0,0,1.73-4.44A3.42,3.42,0,0,0,131,233.1c-.45,0-.92,0-1.38.05s-1,0-1.56,0c-4,0-6.57-2.3-6.57-6a1.81,1.81,0,0,1,.08-.51,66.58,66.58,0,0,0,2.17-15c0-14.28-6.2-26.94-16.17-33a1.47,1.47,0,0,1-.72-1.23,1.51,1.51,0,0,1,.63-1.28c6.25-4.42,14.09-5.35,19.55-5.35a31.71,31.71,0,0,1,8.72.91c-7.52-12.5-17.25-21.2-72.91-21.2a56,56,0,0,0-12,1.12A35.51,35.51,0,0,0,36.38,158.43Zm26.27,89.25a13,13,0,0,1-3.13,5.92,15.72,15.72,0,0,1-1.73,1.63,1.49,1.49,0,0,1-2-.15l-.49-.53-.48-.53a14,14,0,0,1-2.82,1.4l.09.66c0,.27.07.53.12.79A1.51,1.51,0,0,1,51,258.56a16.37,16.37,0,0,1-3.8.45,15.2,15.2,0,0,1-2.88-.27,1.54,1.54,0,0,1-1-.65,1.52,1.52,0,0,1-.2-1.16c.1-.46.21-.92.31-1.38A11.12,11.12,0,0,1,40.52,254c-.3.38-.58.75-.85,1.11a1.5,1.5,0,0,1-2.22.19,14,14,0,0,1-4.25-8.16,1.5,1.5,0,0,1,1.36-1.71l.55,0,1-.08a10.41,10.41,0,0,1,.22-2.37c-.49-.28-1-.56-1.49-.81a1.5,1.5,0,0,1-.7-2,11.2,11.2,0,0,1,1.06-1.88,25.13,25.13,0,0,1,2.31-2.9,21,21,0,0,1,2-2,1.49,1.49,0,0,1,2.09.16l.12.14.82.93c.39-.25.78-.48,1.18-.69-.19-.44-.38-.89-.55-1.33a1.5,1.5,0,0,1,.83-1.95,13.19,13.19,0,0,1,8.42-.54,1.49,1.49,0,0,1,1,1.88c-.15.5-.3,1-.44,1.49a10.94,10.94,0,0,1,1,.51l.94-1.25a1.51,1.51,0,0,1,1-.6,1.49,1.49,0,0,1,1.12.28c.4.3.78.62,1.15,1a14.82,14.82,0,0,1,4.17,6.82,1.51,1.51,0,0,1-.86,1.8c-.49.2-1,.43-1.58.65a12.38,12.38,0,0,1,.09,2.85l.75.18.72.17A1.51,1.51,0,0,1,62.65,247.68Zm34.24,6.61a1.53,1.53,0,0,1-.53,1.05,1.5,1.5,0,0,1-1.11.35l-1.55-.14a8.22,8.22,0,0,1-.29,1.11l1.42.68a1.45,1.45,0,0,1,.78.85,1.48,1.48,0,0,1,0,1.15c-.21.45-.45.89-.7,1.32A14.79,14.79,0,0,1,89,266.11a1.5,1.5,0,0,1-1.93-.47c-.3-.44-.63-.92-1-1.42a12.36,12.36,0,0,1-2.78.66c0,.25,0,.51,0,.76l0,.74a1.51,1.51,0,0,1-1.5,1.45A13,13,0,0,1,75.33,266a15.23,15.23,0,0,1-2-1.37,1.49,1.49,0,0,1-.26-2l.43-.59.41-.58A13.31,13.31,0,0,1,72,258.91l-.63.23-.76.26a1.49,1.49,0,0,1-1.88-.77,16.14,16.14,0,0,1-1.52-6.51,1.5,1.5,0,0,1,.45-1.08,1.41,1.41,0,0,1,1.08-.44l1.42,0a11.26,11.26,0,0,1,.94-3.2l-1.26-.61a1.5,1.5,0,0,1-.79-.93,1.51,1.51,0,0,1,.16-1.21,14,14,0,0,1,7.13-5.8,1.45,1.45,0,0,1,1.19.07,1.51,1.51,0,0,1,.77.91l.15.54.27.91a10,10,0,0,1,2.36-.26c.18-.54.35-1.09.49-1.62a1.5,1.5,0,0,1,1.77-1.08,12.07,12.07,0,0,1,2.06.66,27,27,0,0,1,3.31,1.68,19.34,19.34,0,0,1,2.34,1.62,1.5,1.5,0,0,1,.26,2.08l-.1.13-.76,1c.33.33.63.67.92,1,.39-.28.79-.55,1.19-.81a1.5,1.5,0,0,1,2.07.42A13.16,13.16,0,0,1,96.89,254.29ZM53,187.49l.84.78c.91.85,1.78,1.67,2.69,2.43a19.87,19.87,0,0,1,5.77-4.44c-.36-1.58-.72-3.21-1.16-4.77a1.5,1.5,0,0,1,1-1.83,22.62,22.62,0,0,1,4.12-1,49.55,49.55,0,0,1,13.29-.17,1.49,1.49,0,0,1,1.3,1.64l0,.37c-.15,1.36-.3,2.72-.46,4.08a26,26,0,0,1,5.45,1.68q.89-2.13,1.87-4.16a1.5,1.5,0,0,1,2-.7,26,26,0,0,1,12.06,11.51,1.5,1.5,0,0,1-.68,2c-1.38.66-2.82,1.37-4.3,2.12A22,22,0,0,1,98.13,202c1.58-.13,3.2-.27,4.78-.45a1.53,1.53,0,0,1,1.11.33,1.51,1.51,0,0,1,.55,1,29,29,0,0,1,.14,3,29.43,29.43,0,0,1-4.38,15.29,1.5,1.5,0,0,1-1.9.59c-1.36-.62-2.9-1.32-4.44-2.1a23.32,23.32,0,0,1-5.94,5.79c.49.91,1,1.81,1.5,2.71l.75,1.34a1.51,1.51,0,0,1-.58,2A25.8,25.8,0,0,1,77,234.87a32.9,32.9,0,0,1-4.75-.35,1.49,1.49,0,0,1-1.28-1.61l.13-1.49c.08-1,.17-2,.24-2.95a26.78,26.78,0,0,1-8.35-3.21c-.57.75-1.16,1.46-1.74,2.16l-1.08,1.32a1.5,1.5,0,0,1-2,.31,32.16,32.16,0,0,1-9.3-9.59,1.5,1.5,0,0,1-.18-1.15,1.53,1.53,0,0,1,.71-.94c1.28-.73,2.59-1.48,3.93-2.21a21.58,21.58,0,0,1-2.4-9.24c-1.57.08-3.11.23-4.62.38a1.51,1.51,0,0,1-1.64-1.51,27.64,27.64,0,0,1,6.2-17.14,1.5,1.5,0,0,1,2.18-.16Z"/><path class="cls-1" d="M88.44,82.06l10-.46a37.67,37.67,0,0,1-2.88-6.54C90.8,76.36,89.19,79.07,88.44,82.06Z"/><path class="cls-2" d="M52.35,202.86a1.45,1.45,0,0,1,1.11.45,1.51,1.51,0,0,1,.42,1.12c0,.3,0,.59,0,.89A18.81,18.81,0,0,0,56.6,215a1.52,1.52,0,0,1,.16,1.18,1.49,1.49,0,0,1-.75.92c-1.28.68-2.55,1.39-3.79,2.09a29.19,29.19,0,0,0,6.45,6.59l.22-.26c.87-1,1.69-2,2.41-3.1a1.49,1.49,0,0,1,2.07-.41,24.06,24.06,0,0,0,9.71,3.74,1.49,1.49,0,0,1,1.28,1.55c-.07,1.48-.2,3-.32,4.39a20.22,20.22,0,0,0,2.91.19,22.76,22.76,0,0,0,10-2.29c-.74-1.33-1.48-2.65-2.19-4a1.5,1.5,0,0,1,.57-2,20.26,20.26,0,0,0,6.91-6.72,1.5,1.5,0,0,1,2-.52c1.42.75,2.88,1.45,4.24,2.07a26.29,26.29,0,0,0,3.28-12.58c0-.39,0-.78,0-1.16-1.27.12-2.54.22-3.78.32l-1,.08a1.48,1.48,0,0,1-1.61-1.33,18.7,18.7,0,0,0-2-6.63,1.5,1.5,0,0,1,.64-2Q96.2,194,98.25,193a22.88,22.88,0,0,0-8.59-8.14c-.6,1.32-1.18,2.68-1.71,4a1.55,1.55,0,0,1-.88.86,1.49,1.49,0,0,1-1.22-.08,23,23,0,0,0-7.44-2.32,1.5,1.5,0,0,1-1.27-1.68c.19-1.45.36-2.89.51-4.33a47.36,47.36,0,0,0-11,.33,18.7,18.7,0,0,0-2.23.44c.31,1.23.59,2.47.85,3.68l.23,1a1.51,1.51,0,0,1-.88,1.71,17,17,0,0,0-6.7,5.22,1.49,1.49,0,0,1-2.09.27c-1.3-1-2.49-2.09-3.65-3.16a24.74,24.74,0,0,0-4.48,12.33C49.18,203,50.77,202.89,52.35,202.86ZM70.61,193a26.59,26.59,0,0,1,3.62-.26c10.35,0,15,6.74,15,13.43a14,14,0,0,1-13.46,14.07c-8.48,0-15.64-6.63-15.64-14.47C60.11,199.45,64.72,193.84,70.61,193Z"/><path class="cls-2" d="M185.87,9.14c-.13-1.55-.27-3.11-.39-4.66l-1,.81c-2.91,2.38-5.92,4.84-8.84,7.33,0,2.42,0,4.56.05,6.55C178.46,16.36,181.69,13.17,185.87,9.14Z"/><path class="cls-2" d="M163.32,62.69a28.86,28.86,0,0,1-1,7.52,27.52,27.52,0,0,1-2.84,6.71c-2,3.89-4.72,6-7.84,8.53l-.53.43a.57.57,0,0,1-.13.08,30,30,0,0,1-20.36,3.3c0,3.49,0,7,0,10.46A41,41,0,0,0,156.87,95l.69-.56c4.54-3.62,8.13-6.48,10.86-11.75a38,38,0,0,0,4-9.28A40,40,0,0,0,173.81,63a38.91,38.91,0,0,0-10.29-26.78c-2.08,2.18-4.43,4.62-7.23,7.48A28.28,28.28,0,0,1,163.32,62.69Z"/><path class="cls-1" d="M96.41,104.08l-2.29-.19c.08,1.34.1,2.67.12,4,0,1,0,1.92.06,2.88,1.37,0,2.75-.09,4.1-.15,1.74-.08,3.53-.15,5.3-.17-.13-2-.26-4-.29-6C101.05,104.48,98.69,104.28,96.41,104.08Z"/><path class="cls-2" d="M91.21,106.4c0-1.34-.08-2.64-.23-4a1.5,1.5,0,0,1,.4-1.19,1.48,1.48,0,0,1,1.17-.48c1.39.08,2.78.2,4.12.31a54.59,54.59,0,0,0,8.14.32,1.51,1.51,0,0,1,1.59,1.51v.39c0,.87,0,1.76.06,2.64,15.29-1.17,19.78-4.52,21.08-9.85,0-4.16,0-8.34.08-12.47-7.08,0-23.86.66-49.89,2L75,85.72l-1.09,0c.13,5.12.32,10.25.54,15.37C75.89,105.34,79.67,106.32,91.21,106.4Z"/><path class="cls-2" d="M127.53,100.94c-2.8,3.57-8.67,6.06-21,7,.06,1,.13,2.09.2,3.12l0,.74a1.5,1.5,0,0,1-.4,1.13,1.43,1.43,0,0,1-1.11.47h-.62c-2,0-4.11.09-6.14.18-1.85.07-3.76.16-5.63.17a1.5,1.5,0,0,1-1.51-1.39c-.1-1.33-.13-2.67-.14-4-9.23-.07-14-.76-16.61-3.31.31,6.57.7,13.12,1.15,19.6,2.65,0,5.38.08,8.29.08,9,0,18.11-.27,27-.53,5.46-.16,11.08-.33,16.64-.43-.1-7.48-.15-15.11-.15-22.69A.54.54,0,0,1,127.53,100.94Z"/><path class="cls-1" d="M62.79,147.53a64.23,64.23,0,0,0-10.12.73c-.27.83-.57,1.66-.89,2.5a1.49,1.49,0,0,1-1,.89,56,56,0,0,1,12-1.12c55.66,0,65.39,8.7,72.91,21.2a31.71,31.71,0,0,0-8.72-.91c-5.46,0-13.3.93-19.55,5.35a1.51,1.51,0,0,0-.63,1.28,1.47,1.47,0,0,0,.72,1.23c10,6.09,16.17,18.75,16.17,33a66.58,66.58,0,0,1-2.17,15,1.81,1.81,0,0,0-.08.51c0,3.71,2.52,6,6.57,6,.52,0,1,0,1.56,0s.93-.05,1.38-.05a3.42,3.42,0,0,1,3.77,3.63,7.5,7.5,0,0,1-1.73,4.44c-7.56,9.62-11,18.18-13.68,25.05-3.56,9-6.13,15.46-15.71,19.29-2.5,1-6.09,1.3-9.88,1.61-10.2.85-22.89,1.9-22.89,17.68,0,7.45,3.84,14.16,8.11,20.05a322.36,322.36,0,0,0-39.18-6.35c.1-1.68.15-3.27.15-4.84,0-36.5-13.64-53.8-24.59-67.69C8.44,237.24,3,230.34,3,221.05c0-26.76,6-43.92,17.78-51a1.49,1.49,0,0,0,.73-1.34,1.54,1.54,0,0,0-.84-1.29,34.18,34.18,0,0,0-7.51-2.67,38.71,38.71,0,0,1,11.75-2.43A1.52,1.52,0,0,0,26.38,161,26,26,0,0,1,32,148.16a31,31,0,0,0,2.06,9.61,1.5,1.5,0,0,0,2.31.66,35.53,35.53,0,0,1,14.43-6.78,1.54,1.54,0,0,1-.43.06,1.47,1.47,0,0,1-.54-.1,1.5,1.5,0,0,1-.86-1.94c.1-.24.18-.48.27-.72a38,38,0,0,0-13,5.88,27.35,27.35,0,0,1-1.25-8,23.84,23.84,0,0,1,.13-2.56,1.51,1.51,0,0,0-.83-1.52,1.53,1.53,0,0,0-1.71.28,30.72,30.72,0,0,0-9,16.31A45,45,0,0,0,7,164.18a1.51,1.51,0,0,0-.77,1.66A1.49,1.49,0,0,0,7.59,167a29.06,29.06,0,0,1,9.33,2C5.69,177.43,0,194.91,0,221.05,0,231.38,6,239,13,247.83c10.67,13.53,23.95,30.37,23.95,65.83,0,1.94-.08,3.93-.23,6.08a1.49,1.49,0,0,0,1.34,1.6,315.79,315.79,0,0,1,44.26,7.39,2.21,2.21,0,0,0,.35,0,1.5,1.5,0,0,0,1.19-2.42c-4.84-6.26-10-13.6-10-21.55,0-13,10.23-13.87,20.13-14.69,4-.33,7.84-.65,10.75-1.82,10.78-4.31,13.7-11.66,17.39-21,2.79-7.05,6-15,13.25-24.31a10.51,10.51,0,0,0,2.37-6.29A6.42,6.42,0,0,0,131,230.1c-.5,0-1,0-1.54.05s-.93,0-1.4,0q-3.45,0-3.56-2.84a68.27,68.27,0,0,0,2.24-15.65c0-14.37-5.94-27.26-15.64-34.28,5.27-3,11.45-3.61,15.93-3.61,3.18,0,7.12,0,11.46,2.14a1.51,1.51,0,0,0,2-2.09C130.84,157.05,122.52,147.53,62.79,147.53Z"/><path class="cls-1" d="M75.75,220.26a14,14,0,0,0,13.46-14.07c0-6.69-4.63-13.43-15-13.43a26.59,26.59,0,0,0-3.62.26c-5.89.82-10.5,6.43-10.5,12.77C60.11,213.63,67.27,220.26,75.75,220.26ZM70.89,195a24.09,24.09,0,0,1,3.34-.24c9.58,0,13,6.16,13,11.43,0,5.71-4.71,12.07-11.46,12.07-7.4,0-13.64-5.71-13.64-12.47C62.11,200.42,66,195.69,70.89,195Z"/><path class="cls-1" d="M50.81,187.65a27.64,27.64,0,0,0-6.2,17.14,1.51,1.51,0,0,0,1.64,1.51c1.51-.15,3-.3,4.62-.38a21.58,21.58,0,0,0,2.4,9.24c-1.34.73-2.65,1.48-3.93,2.21a1.53,1.53,0,0,0-.71.94,1.5,1.5,0,0,0,.18,1.15,32.16,32.16,0,0,0,9.3,9.59,1.5,1.5,0,0,0,2-.31l1.08-1.32c.58-.7,1.17-1.41,1.74-2.16a26.78,26.78,0,0,0,8.35,3.21c-.07,1-.16,2-.24,2.95l-.13,1.49a1.49,1.49,0,0,0,1.28,1.61,32.9,32.9,0,0,0,4.75.35,25.8,25.8,0,0,0,12.77-3.37,1.51,1.51,0,0,0,.58-2l-.75-1.34c-.5-.9-1-1.8-1.5-2.71A23.32,23.32,0,0,0,94,219.62c1.54.78,3.08,1.48,4.44,2.1a1.5,1.5,0,0,0,1.9-.59,29.43,29.43,0,0,0,4.38-15.29,29,29,0,0,0-.14-3,1.51,1.51,0,0,0-.55-1,1.53,1.53,0,0,0-1.11-.33c-1.58.18-3.2.32-4.78.45a22,22,0,0,0-1.44-4.88c1.48-.75,2.92-1.46,4.3-2.12a1.5,1.5,0,0,0,.68-2,26,26,0,0,0-12.06-11.51,1.5,1.5,0,0,0-2,.7q-1,2-1.87,4.16a26,26,0,0,0-5.45-1.68c.16-1.36.31-2.72.46-4.08l0-.37a1.49,1.49,0,0,0-1.3-1.64,49.55,49.55,0,0,0-13.29.17,22.62,22.62,0,0,0-4.12,1,1.5,1.5,0,0,0-1,1.83c.44,1.56.8,3.19,1.16,4.77a19.87,19.87,0,0,0-5.77,4.44c-.91-.76-1.78-1.58-2.69-2.43l-.84-.78a1.5,1.5,0,0,0-2.18.16Zm1.35,3.17c1.16,1.07,2.35,2.17,3.65,3.16a1.49,1.49,0,0,0,2.09-.27,17,17,0,0,1,6.7-5.22,1.51,1.51,0,0,0,.88-1.71l-.23-1c-.26-1.21-.54-2.45-.85-3.68a18.7,18.7,0,0,1,2.23-.44,47.36,47.36,0,0,1,11-.33c-.15,1.44-.32,2.88-.51,4.33a1.5,1.5,0,0,0,1.27,1.68,23,23,0,0,1,7.44,2.32,1.49,1.49,0,0,0,1.22.08,1.55,1.55,0,0,0,.88-.86c.53-1.37,1.11-2.73,1.71-4A22.88,22.88,0,0,1,98.25,193q-2.06,1-4.23,2.12a1.5,1.5,0,0,0-.64,2,18.7,18.7,0,0,1,2,6.63A1.48,1.48,0,0,0,97,205.08l1-.08c1.24-.1,2.51-.2,3.78-.32,0,.38,0,.77,0,1.16a26.29,26.29,0,0,1-3.28,12.58c-1.36-.62-2.82-1.32-4.24-2.07a1.5,1.5,0,0,0-2,.52,20.26,20.26,0,0,1-6.91,6.72,1.5,1.5,0,0,0-.57,2c.71,1.34,1.45,2.66,2.19,4a22.76,22.76,0,0,1-10,2.29,28.55,28.55,0,0,1-2.92-.15c.13-1.47.26-2.95.33-4.43a1.49,1.49,0,0,0-1.28-1.55A24.06,24.06,0,0,1,63.37,222a1.49,1.49,0,0,0-2.07.41c-.72,1.06-1.54,2.05-2.41,3.1l-.22.26a29.19,29.19,0,0,1-6.45-6.59c1.24-.7,2.51-1.41,3.79-2.09a1.49,1.49,0,0,0,.75-.92A1.52,1.52,0,0,0,56.6,215a18.81,18.81,0,0,1-2.74-9.67c0-.3,0-.59,0-.89a1.51,1.51,0,0,0-.42-1.12,1.45,1.45,0,0,0-1.11-.45c-1.58,0-3.17.15-4.67.29A24.74,24.74,0,0,1,52.16,190.82Z"/><path class="cls-1" d="M44.66,241.59a9.84,9.84,0,0,0-.73.92,4.52,4.52,0,0,0,.78,5.77A4.75,4.75,0,0,0,48,249.51l.51,0A5.62,5.62,0,0,0,52,247.73a4.55,4.55,0,0,0,1.16-3.52A5,5,0,0,0,51.6,241C49.93,239.45,47.06,239,44.66,241.59Zm5.87,4.79a3.53,3.53,0,0,1-2.26,1.12,2.86,2.86,0,0,1-2.2-.69,2.52,2.52,0,0,1-.49-3.16,5.67,5.67,0,0,1,.55-.7,3.24,3.24,0,0,1,2.36-1.23,2.58,2.58,0,0,1,1.75.73,3,3,0,0,1,.94,1.93A2.57,2.57,0,0,1,50.53,246.38Z"/><path class="cls-1" d="M61.54,245.88l-.72-.17-.75-.18a12.38,12.38,0,0,0-.09-2.85c.56-.22,1.09-.45,1.58-.65a1.51,1.51,0,0,0,.86-1.8,14.82,14.82,0,0,0-4.17-6.82c-.37-.34-.75-.66-1.15-1a1.49,1.49,0,0,0-1.12-.28,1.51,1.51,0,0,0-1,.6L54.05,234a10.94,10.94,0,0,0-1-.51c.14-.49.29-1,.44-1.49a1.49,1.49,0,0,0-1-1.88,13.19,13.19,0,0,0-8.42.54,1.5,1.5,0,0,0-.83,1.95c.17.44.36.89.55,1.33-.4.21-.79.44-1.18.69l-.82-.93-.12-.14a1.49,1.49,0,0,0-2.09-.16,21,21,0,0,0-2,2,25.13,25.13,0,0,0-2.31,2.9,11.2,11.2,0,0,0-1.06,1.88,1.5,1.5,0,0,0,.7,2c.49.25,1,.53,1.49.81a10.41,10.41,0,0,0-.22,2.37l-1,.08-.55,0a1.5,1.5,0,0,0-1.36,1.71,14,14,0,0,0,4.25,8.16,1.5,1.5,0,0,0,2.22-.19c.27-.36.55-.73.85-1.11a11.12,11.12,0,0,0,2.95,1.56c-.1.46-.21.92-.31,1.38a1.52,1.52,0,0,0,.2,1.16,1.54,1.54,0,0,0,1,.65,15.2,15.2,0,0,0,2.88.27,16.37,16.37,0,0,0,3.8-.45,1.51,1.51,0,0,0,1.14-1.69c0-.26-.08-.52-.12-.79l-.09-.66a14,14,0,0,0,2.82-1.4l.48.53.49.53a1.49,1.49,0,0,0,2,.15,15.72,15.72,0,0,0,1.73-1.63,13,13,0,0,0,3.13-5.92A1.51,1.51,0,0,0,61.54,245.88Zm-4.22,5.69L57,252,56,251a1.5,1.5,0,0,0-2-.11,10.69,10.69,0,0,1-4.13,2,1.5,1.5,0,0,0-1.11,1.8c.09.38.16.77.22,1.17a14.44,14.44,0,0,1-2.54.1c.09-.37.19-.74.28-1.11A1.49,1.49,0,0,0,45.58,253a8.1,8.1,0,0,1-3.9-2l-.27-.26a1.47,1.47,0,0,0-1.11-.45,1.52,1.52,0,0,0-1.09.51c-.29.33-.57.67-.84,1a11,11,0,0,1-1.85-3.6c.46-.05.94-.11,1.42-.19a1.51,1.51,0,0,0,1.22-1.72,7.29,7.29,0,0,1,.29-3.64,1.5,1.5,0,0,0-.66-1.8l-.42-.25-.87-.5.12-.18a23.28,23.28,0,0,1,2-2.57c.23-.25.46-.49.69-.71l.81.94a1.49,1.49,0,0,0,2.09.2,10.35,10.35,0,0,1,3-1.73,1.47,1.47,0,0,0,.89-.85,1.49,1.49,0,0,0,0-1.22c-.17-.35-.33-.7-.49-1.05a9.87,9.87,0,0,1,3.54-.25c-.13.44-.25.87-.37,1.31a1.47,1.47,0,0,0,.14,1.14,1.54,1.54,0,0,0,.91.71,8,8,0,0,1,2.7,1.32,1.5,1.5,0,0,0,2.07-.29l.28-.36.59-.76a11.69,11.69,0,0,1,2.66,4c-.44.18-.9.36-1.35.52a1.5,1.5,0,0,0-1,1.8,8.85,8.85,0,0,1,.12,4.21A1.51,1.51,0,0,0,58,248.11l1.28.32A10,10,0,0,1,57.32,251.57Z"/><path class="cls-1" d="M84.11,249a10.3,10.3,0,0,0-1-.53,4.52,4.52,0,0,0-5.5,1.93,5.25,5.25,0,0,0,2,7,4.46,4.46,0,0,0,2.3.64,4.72,4.72,0,0,0,1.38-.21,5.08,5.08,0,0,0,2.86-2.19C87.27,253.73,87.14,250.81,84.11,249Zm.28,5.64a3,3,0,0,1-1.71,1.3,2.58,2.58,0,0,1-2.08-.22,3.26,3.26,0,0,1-1.32-4.29,2.64,2.64,0,0,1,2.2-1.27,2.15,2.15,0,0,1,.8.15,6.68,6.68,0,0,1,.8.41C85.07,251.9,85.06,253.52,84.39,254.63Z"/><path class="cls-1" d="M92.59,245.73c-.4.26-.8.53-1.19.81-.29-.35-.59-.69-.92-1l.76-1,.1-.13a1.5,1.5,0,0,0-.26-2.08,19.34,19.34,0,0,0-2.34-1.62A27,27,0,0,0,85.43,239a12.07,12.07,0,0,0-2.06-.66,1.5,1.5,0,0,0-1.77,1.08c-.14.53-.31,1.08-.49,1.62a10,10,0,0,0-2.36.26l-.27-.91-.15-.54a1.51,1.51,0,0,0-.77-.91,1.45,1.45,0,0,0-1.19-.07,14,14,0,0,0-7.13,5.8,1.51,1.51,0,0,0-.16,1.21,1.5,1.5,0,0,0,.79.93l1.26.61a11.26,11.26,0,0,0-.94,3.2l-1.42,0a1.41,1.41,0,0,0-1.08.44,1.5,1.5,0,0,0-.45,1.08,16.14,16.14,0,0,0,1.52,6.51,1.49,1.49,0,0,0,1.88.77l.76-.26.63-.23A13.31,13.31,0,0,0,74,261.39l-.41.58-.43.59a1.49,1.49,0,0,0,.26,2,15.23,15.23,0,0,0,2,1.37,13,13,0,0,0,6.42,1.87,1.52,1.52,0,0,0,1.55-1.45l0-.74c0-.25,0-.51,0-.76a12.36,12.36,0,0,0,2.78-.66c.33.5.66,1,1,1.42a1.5,1.5,0,0,0,1.93.47,14.79,14.79,0,0,0,5.85-5.45c.25-.43.49-.87.7-1.32a1.48,1.48,0,0,0,0-1.15,1.45,1.45,0,0,0-.78-.85l-1.42-.68a8.22,8.22,0,0,0,.29-1.11l1.55.14a1.5,1.5,0,0,0,1.11-.35,1.53,1.53,0,0,0,.53-1.05,13.16,13.16,0,0,0-2.23-8.14A1.5,1.5,0,0,0,92.59,245.73Zm-.08,6.73a1.47,1.47,0,0,0-1.09.37,1.48,1.48,0,0,0-.51,1,8,8,0,0,1-.75,2.91,1.5,1.5,0,0,0,.7,2l.4.21.86.42a11.61,11.61,0,0,1-3.36,3.41c-.26-.4-.53-.81-.77-1.22a1.5,1.5,0,0,0-2-.57,8.69,8.69,0,0,1-4.1,1,1.51,1.51,0,0,0-1.52,1.42q0,.66-.06,1.32a10.14,10.14,0,0,1-3.47-1.3l-.46-.28c.27-.37.52-.73.77-1.11a1.49,1.49,0,0,0-.3-2,10.72,10.72,0,0,1-2.83-3.63,1.49,1.49,0,0,0-2-.72c-.35.16-.72.3-1.1.44a13.37,13.37,0,0,1-.6-2.46l1.14.05a1.5,1.5,0,0,0,1.58-1.5A8,8,0,0,1,74.23,248c.07-.11.13-.22.21-.33a1.47,1.47,0,0,0,.21-1.17,1.5,1.5,0,0,0-.72-1c-.38-.22-.77-.43-1.15-.62a11,11,0,0,1,3.15-2.55c.14.45.29.91.47,1.36a1.5,1.5,0,0,0,1.93.85,7.25,7.25,0,0,1,3.63-.44,1.52,1.52,0,0,0,1.63-1l.15-.47c.11-.31.21-.62.32-.94l.2.08a22.32,22.32,0,0,1,2.93,1.49c.29.17.57.35.84.53-.26.32-.51.65-.77,1a1.49,1.49,0,0,0,.23,2.09,10.54,10.54,0,0,1,2.29,2.57,1.49,1.49,0,0,0,1,.7,1.54,1.54,0,0,0,1.19-.29l.93-.7a10,10,0,0,1,1,3.42Z"/><path class="cls-1" d="M158.65,97.38l.78-.62c4.63-3.69,8.63-6.88,11.62-12.64a40.94,40.94,0,0,0,4.21-9.94,43,43,0,0,0,1.55-11.13,41.88,41.88,0,0,0-11.22-29l-2.07,2.18A38.91,38.91,0,0,1,173.81,63a40,40,0,0,1-1.44,10.37,38,38,0,0,1-4,9.28c-2.73,5.27-6.32,8.13-10.86,11.75l-.69.56a41,41,0,0,1-26.34,4.75v3a47.41,47.41,0,0,0,6.27.43,43.22,43.22,0,0,0,21.67-5.68Z"/><path class="cls-1" d="M96.73,63.2A38,38,0,0,1,98.08,53a41.44,41.44,0,0,1,17.35-23.47c6.71-2.88,13.63-5.83,20.28-5.83a37.35,37.35,0,0,1,25.71,10.38l2.07-2.18a40.35,40.35,0,0,0-27.78-11.2c-7.3,0-14.56,3.11-21.59,6.12l-.24.13a44.3,44.3,0,0,0-18.29,24c.52.22,1,.45,1.57.7a1.5,1.5,0,0,1-.63,2.86,1.56,1.56,0,0,1-.63-.14c-.37-.18-.74-.33-1.11-.49a41.22,41.22,0,0,0-1.06,9.31,35.33,35.33,0,0,0,1,9,22.57,22.57,0,0,1,2.93-.6A32.62,32.62,0,0,1,96.73,63.2Z"/><path class="cls-1" d="M98.53,74.5a22.87,22.87,0,0,0-3,.56,37.67,37.67,0,0,0,2.88,6.54l3.37-.15-.22-.36A34.52,34.52,0,0,1,98.53,74.5Z"/><path class="cls-1" d="M127.53,101.12V101A.43.43,0,0,0,127.53,101.12Z"/><path class="cls-1" d="M91.25,108.4c0-.17,0-.34,0-.5q0-.77,0-1.5c-11.54-.08-15.32-1.06-16.74-5.34.06,1.34.11,2.69.17,4C77.22,107.64,82,108.33,91.25,108.4Z"/><path class="cls-1" d="M121,38.24l-.16.08a30,30,0,0,0-12.62,17,27.54,27.54,0,0,0-1,7.43,23.77,23.77,0,0,0,.37,4.68,1,1,0,0,0,2-.35,21.47,21.47,0,0,1-.34-4.32,25.76,25.76,0,0,1,.91-6.89A28,28,0,0,1,121.86,40c4.53-1.94,9.21-3.94,13.71-3.94A25.23,25.23,0,0,1,152.8,43c.48-.48,1-1,1.4-1.43a27.21,27.21,0,0,0-18.63-7.45C130.64,34.1,125.73,36.2,121,38.24Z"/><path class="cls-1" d="M150.93,86a.57.57,0,0,0,.13-.08l.53-.43c3.12-2.49,5.82-4.64,7.84-8.53a27.52,27.52,0,0,0,2.84-6.71,28.86,28.86,0,0,0,1-7.52,28.28,28.28,0,0,0-7-19l-1.41,1.43a26.29,26.29,0,0,1,6.44,17.52,27.38,27.38,0,0,1-1,7A25.81,25.81,0,0,1,157.68,76c-1.85,3.56-4.27,5.49-7.34,7.94l-.47.38a28.12,28.12,0,0,1-19.28,3c0,.68,0,1.35,0,2A30,30,0,0,0,150.93,86Z"/><path class="cls-1" d="M106.46,106c0,.67.05,1.33.09,2,12.31-1,18.18-3.44,21-7.06,0-1.59,0-3.19,0-4.79C126.24,101.43,121.75,104.78,106.46,106Z"/><path class="cls-1" d="M126.69,47.59a.51.51,0,0,0-.16.09A18,18,0,0,0,118.92,58a16.28,16.28,0,0,0-.6,4.48,14.52,14.52,0,0,0,.53,4.19,15.36,15.36,0,0,0,1.63,3.77,17.92,17.92,0,0,0,15.43,8.38,17.52,17.52,0,0,0,8.8-2.31.5.5,0,0,0,.12-.08l.31-.25A15.55,15.55,0,0,0,149.87,71a16.74,16.74,0,0,0,1.72-4,17.76,17.76,0,0,0,.63-4.54,17,17,0,0,0-3.81-10.94l-1.47,1.36a15.07,15.07,0,0,1,3.28,9.54,15.51,15.51,0,0,1-.56,4A14.78,14.78,0,0,1,148.12,70a13.58,13.58,0,0,1-4.22,4.56l-.26.2c-7.27,4.16-17.28,1.66-21.44-5.41a13.24,13.24,0,0,1-1.42-3.28,12.35,12.35,0,0,1-.46-3.63,14.52,14.52,0,0,1,.52-4,16.13,16.13,0,0,1,6.72-9.11c2.74-1.17,5.33-2.27,7.89-2.27a14.43,14.43,0,0,1,9.41,3.53l1.47-1.36a16.42,16.42,0,0,0-10.88-4.17C132.45,45.12,129.52,46.37,126.69,47.59Z"/><path class="cls-1" d="M131.65,55.61a1.41,1.41,0,0,0-.24.13,7.89,7.89,0,0,0-3.27,4.43,7.17,7.17,0,0,0-.26,1.93,6.7,6.7,0,0,0,1,3.54,7.78,7.78,0,0,0,6.69,3.64,7.53,7.53,0,0,0,3.8-1,1.22,1.22,0,0,0,.19-.12l.11-.1a6.73,6.73,0,0,0,2-2.2,7.09,7.09,0,0,0,.75-1.77,7.68,7.68,0,0,0,.28-2,7.42,7.42,0,0,0-1.27-4.22L139.14,60a4.36,4.36,0,0,1,.52,2.08,4.84,4.84,0,0,1-.17,1.21A4.39,4.39,0,0,1,139,64.4a4.13,4.13,0,0,1-1.26,1.32,4.88,4.88,0,0,1-6.34-1.62,3.63,3.63,0,0,1-.4-.93,3.53,3.53,0,0,1-.13-1A4.48,4.48,0,0,1,131,61,4.74,4.74,0,0,1,133,58.31a6.7,6.7,0,0,1,2.36-.71,4.1,4.1,0,0,1,1.63.34c.76-.73,1.53-1.44,2.3-2.15a7.12,7.12,0,0,0-3.93-1.19A9.53,9.53,0,0,0,131.65,55.61Z"/><path class="cls-1" d="M176.38,20.71c.66,0,1.32,0,2,0,2.55-2.56,5.48-5.46,9.18-9l-.25,0A1.51,1.51,0,0,1,186,10.33c0-.4-.06-.79-.1-1.19-4.18,4-7.41,7.22-10.18,10,0,.53,0,1,0,1.55Z"/><path class="cls-1" d="M154.2,41.55c-.44.46-.92,1-1.4,1.43l-1.15,1.18c-1.74,1.76-3.53,3.46-5.32,5.13l-1.47,1.36c-.82.75-1.63,1.5-2.44,2.23l-3.16,2.91c-.77.71-1.54,1.42-2.3,2.15-1,1-2,1.91-3,2.88a1.5,1.5,0,0,0,1.06,2.56,1.51,1.51,0,0,0,1.06-.44q1.48-1.48,3-2.94l2.25-2.1,3.05-2.8c.83-.75,1.66-1.52,2.5-2.29l1.47-1.36c1.81-1.68,3.61-3.4,5.37-5.19.39-.38.74-.74,1.1-1.12l1.41-1.43c2.8-2.86,5.15-5.3,7.23-7.48l2.07-2.18,2.82-3c2.39-2.52,4.57-4.83,7-7.34-.38,0-.76,0-1.14,0a1.5,1.5,0,0,1-1.55-1.48V22.2c-2.24,2.31-4.28,4.47-6.5,6.81l-2.74,2.9-2.07,2.18C159.34,36.26,157,38.7,154.2,41.55Z"/><path class="cls-4" d="M189.21,8.9a1.46,1.46,0,0,0-.33-.56l-.07-.05c0,.19,0,.38,0,.56Z"/><path class="cls-1" d="M173.2,23.34a1.49,1.49,0,0,0,1.08.41c.38,0,.76,0,1.14,0,3.38-.05,6.8.17,10.12.4l1.35.1h.1a1.49,1.49,0,0,0,1.2-.6c2.58-3.44,5.36-6.57,8.31-9.89l1.21-1.36a1.5,1.5,0,0,0-1-2.48c-1.74-.19-3.52-.44-5.24-.68l-2.3-.32-.36-.05c0-.18,0-.37,0-.56-.2-2.21-.37-4.42-.54-6.63l0-.28a1.49,1.49,0,0,0-.91-1.26,1.51,1.51,0,0,0-1.54.22L182.59,3c-3.11,2.53-6.32,5.15-9.43,7.83a1.46,1.46,0,0,0-.52,1.14c0,4,0,7.23.09,10.26v.07A1.49,1.49,0,0,0,173.2,23.34Zm2.44-10.72c2.92-2.49,5.93-4.95,8.84-7.33l1-.81c.12,1.55.26,3.11.39,4.66,0,.4.07.79.1,1.19a1.51,1.51,0,0,0,1.31,1.35l.25,0c1.19.15,2.38.31,3.56.48l2.47.34c-2.46,2.78-5,5.64-7.27,8.65l-.54,0c-2.42-.17-4.91-.33-7.4-.4-.65,0-1.31,0-2,0h-.68c0-.51,0-1,0-1.55C175.66,17.18,175.65,15,175.64,12.62Z"/><path class="cls-4" d="M63.25,3.33l.11-.09Z"/><path class="cls-4" d="M63.48,3.17l.13-.07Z"/><path class="cls-4" d="M63.75,3.06l.14,0Z"/><path class="cls-1" d="M64.69,14.74c.48,0,1,0,1.45,0-.18-2.9-.32-5.8-.39-8.71L64.19,6A1.5,1.5,0,0,1,62.7,4.49c.06,3.93.26,7.85.53,11.76A1.5,1.5,0,0,1,64.69,14.74Z"/><path class="cls-4" d="M64.18,3,64,3Z"/><path class="cls-4" d="M63.05,3.53a.81.81,0,0,1,.09-.1A.81.81,0,0,0,63.05,3.53Z"/><path class="cls-4" d="M62.77,4s0-.09,0-.14S62.79,4,62.77,4Z"/><path class="cls-4" d="M62.72,4.34a.86.86,0,0,1,0-.16A.86.86,0,0,0,62.72,4.34Z"/><path class="cls-4" d="M62.89,3.77,63,3.65Z"/><path class="cls-1" d="M67.24,28.5c-.32-3.67-.63-7.24-.89-10.79l-1.58,0a1.51,1.51,0,0,1-1.53-1.4c.29,4.18.65,8.34,1,12.43l0,.48c1,0,2,0,3-.05Z"/><path class="cls-4" d="M66,32.23h0Z"/><path class="cls-1" d="M64.77,17.74l1.58,0c4-.07,8,0,11.93.13,2.16.06,4.33.11,6.48.14a1.54,1.54,0,0,0,1.11-.46,1.49,1.49,0,0,0,.41-1.13c-.24-3.8-.4-7.89-.49-12.16a1.52,1.52,0,0,0-.48-1.07,1.48,1.48,0,0,0-1.11-.39C81,3,77.51,3,73.08,3c-2.15,0-4.3,0-6.45,0L64.21,3,64,3a.39.39,0,0,0-.15,0l-.14,0-.14,0-.13.07-.12.07-.11.09a.52.52,0,0,0-.11.1.81.81,0,0,0-.09.1l-.1.12-.06.12-.07.13c0,.05,0,.1,0,.14s0,.1,0,.14a.86.86,0,0,0,0,.16.59.59,0,0,0,0,.13A1.5,1.5,0,0,0,64.19,6l1.56,0h.85c2.16,0,4.32,0,6.48,0,3.8,0,6.88-.06,9.75-.2.08,3.16.2,6.21.36,9.12l-4.84-.12c-4-.1-8.13-.2-12.21-.13-.48,0-1,0-1.45,0a1.5,1.5,0,0,0-1.46,1.51.78.78,0,0,0,0,.09A1.51,1.51,0,0,0,64.77,17.74Z"/><path class="cls-1" d="M59,38.63c.95,0,1.9.07,2.86.07,3.63,0,7.29-.29,10.72-.59a1.5,1.5,0,0,0,1.37-1.58c0-.93-.13-1.87-.21-2.82-.09-1.1-.19-2.24-.23-3.34a1.51,1.51,0,0,0-1.65-1.43c-1.49.14-3,.22-4.55.26-1,0-2,0-3,.05H62.38c-1.12,0-2.25,0-3.37,0a1.49,1.49,0,0,0-1.47,1.48l0,1.51c0,.76,0,1.52,0,2.29,0,1,0,1.87.08,2.68A1.49,1.49,0,0,0,59,38.63Zm1.52-6.31v-.06h1.88c1.16,0,2.34,0,3.53,0H66c1.52,0,3-.07,4.58-.18,0,.65.1,1.29.15,1.92,0,.42.07.85.11,1.28-3.38.27-6.9.5-10.36.43,0-.35,0-.72,0-1.12C60.48,33.81,60.5,33.07,60.51,32.32Z"/><path class="cls-1" d="M130.53,99.72c0-3.48,0-7,0-10.46,0-.68,0-1.35,0-2,0-1.69,0-3.4,0-5.08a1.5,1.5,0,0,0-1.49-1.52h-1.56c-2.92,0-7.5.11-13.68.33.11.42.21.84.29,1.27a1.5,1.5,0,0,1-3,.55,12.43,12.43,0,0,0-.44-1.7c-2.73.1-5.72.23-9,.37l-3.37.15-10,.46c-.15.6-.26,1.22-.36,1.83a1.5,1.5,0,0,1-1.48,1.26l-.24,0a1.49,1.49,0,0,1-1.24-1.72c.06-.4.14-.8.22-1.2l-7.76.38L75,82.72a22.58,22.58,0,0,1-2.46-.17,1.5,1.5,0,0,0-1.67,1.52c.34,14.13,1,28.32,2,42.19a1.5,1.5,0,0,0,1.46,1.39c3.11.08,6.29.12,9.73.12,9,0,18.18-.27,27.05-.53,5.93-.18,12.08-.36,18.1-.45a1.51,1.51,0,0,0,1.47-1.52c-.11-7.42-.16-15-.17-22.51v-3ZM111,124.24c-8.85.26-18,.53-27,.53-2.91,0-5.64,0-8.29-.08-.45-6.48-.84-13-1.15-19.6-.06-1.34-.11-2.69-.17-4-.22-5.12-.41-10.25-.54-15.37l1.09,0,2.71-.13c26-1.3,42.81-2,49.85-2,0,4.13,0,8.31,0,12.47,0,1.6,0,3.2,0,4.79v.23c0,7.58,0,15.21.15,22.69C122.12,123.91,116.5,124.08,111,124.24Z"/><path class="cls-1" d="M106.4,103.31v-.39a1.51,1.51,0,0,0-1.59-1.51,54.59,54.59,0,0,1-8.14-.32c-1.34-.11-2.73-.23-4.12-.31a1.48,1.48,0,0,0-1.17.48,1.5,1.5,0,0,0-.4,1.19c.15,1.31.21,2.61.23,4q0,.73,0,1.5c0,.16,0,.33,0,.5,0,1.3,0,2.64.14,4a1.5,1.5,0,0,0,1.5,1.39c1.88,0,3.79-.1,5.64-.17,2-.09,4.12-.18,6.14-.18h.62a1.43,1.43,0,0,0,1.11-.47,1.5,1.5,0,0,0,.4-1.13l0-.74c-.07-1-.14-2.07-.2-3.12,0-.67-.07-1.33-.09-2C106.42,105.07,106.4,104.18,106.4,103.31Zm-8,7.28c-1.35.06-2.73.11-4.1.15,0-1,0-1.93-.06-2.88,0-1.3,0-2.63-.12-4l2.29.19c2.28.2,4.64.4,7,.38,0,2,.16,4,.29,6C101.93,110.44,100.14,110.51,98.4,110.59Z"/><path class="cls-1" d="M86.36,85.13l.24,0a1.5,1.5,0,0,0,1.48-1.26c.1-.61.21-1.23.36-1.83.75-3,2.36-5.7,7.12-7a22.87,22.87,0,0,1,3-.56,35.84,35.84,0,0,1,4.26-.24c3,0,6.56,2.34,8,6.82a12.43,12.43,0,0,1,.44,1.7,1.5,1.5,0,0,0,3-.55c-.08-.43-.18-.85-.29-1.27-1.55-5.69-6.05-9.7-11.11-9.7a35.67,35.67,0,0,0-5.11.34,22.57,22.57,0,0,0-2.93.6c-6.42,1.78-8.53,5.82-9.41,10-.08.4-.16.8-.22,1.2A1.49,1.49,0,0,0,86.36,85.13Z"/><path class="cls-1" d="M44.79,58.41a1.46,1.46,0,0,0,.84-.26c1-.71,2.15-1.39,3.29-2a1.51,1.51,0,0,0,.58-2,1.49,1.49,0,0,0-2-.58c-1.22.67-2.4,1.4-3.52,2.17a1.5,1.5,0,0,0,.85,2.73Z"/><path class="cls-1" d="M34.73,67.21a1.46,1.46,0,0,0,.84.26,1.51,1.51,0,0,0,1.25-.66,28.44,28.44,0,0,1,2.33-3,1.5,1.5,0,0,0-2.25-2,33.4,33.4,0,0,0-2.57,3.31A1.51,1.51,0,0,0,34.73,67.21Z"/><path class="cls-1" d="M48.11,120.11a1.49,1.49,0,0,0-.62,2c.66,1.24,1.22,2.38,1.71,3.5a1.5,1.5,0,0,0,1.37.89,1.46,1.46,0,0,0,.61-.13,1.49,1.49,0,0,0,.76-2c-.52-1.18-1.11-2.39-1.8-3.69A1.5,1.5,0,0,0,48.11,120.11Z"/><path class="cls-1" d="M41.25,111.83l1.7,2.66a1.51,1.51,0,0,0,1.27.7,1.51,1.51,0,0,0,1.26-2.31l-1.7-2.67-.45-.7a1.5,1.5,0,1,0-2.53,1.61Z"/><path class="cls-1" d="M36,103.39a1.48,1.48,0,0,0,1.3.76,1.59,1.59,0,0,0,.75-.2,1.51,1.51,0,0,0,.55-2c-.7-1.22-1.31-2.35-1.88-3.45a1.5,1.5,0,0,0-2.67,1.36C34.68,101,35.31,102.13,36,103.39Z"/><path class="cls-1" d="M56.42,52.71a1.61,1.61,0,0,0,.48-.08c1.22-.41,2.48-.78,3.73-1.1a1.5,1.5,0,0,0-.74-2.91c-1.33.34-2.66.74-3.94,1.17a1.5,1.5,0,0,0,.47,2.92Z"/><path class="cls-1" d="M80.6,48.46a1.5,1.5,0,0,0,1.28,1.69c1.28.17,2.57.39,3.81.67a1.24,1.24,0,0,0,.33,0,1.5,1.5,0,0,0,.33-3c-1.34-.3-2.7-.55-4.07-.73A1.51,1.51,0,0,0,80.6,48.46Z"/><path class="cls-1" d="M51.64,133.8a22.07,22.07,0,0,1,.16,2.54c0,.4,0,.79,0,1.19a1.51,1.51,0,0,0,1.43,1.57h.07a1.51,1.51,0,0,0,1.5-1.44q0-.66,0-1.32a22.36,22.36,0,0,0-.19-2.92,1.5,1.5,0,1,0-3,.38Z"/><path class="cls-1" d="M69,47a1.5,1.5,0,0,0,.14,3h.15c1.29-.13,2.6-.21,3.89-.26a1.5,1.5,0,1,0-.09-3C71.7,46.79,70.32,46.88,69,47Z"/><path class="cls-1" d="M30.83,85.45a1.51,1.51,0,0,0-1.22,1.74,35.47,35.47,0,0,0,1,4.06A1.5,1.5,0,0,0,32,92.32a1.23,1.23,0,0,0,.42-.07,1.49,1.49,0,0,0,1-1.86,33,33,0,0,1-.87-3.71A1.51,1.51,0,0,0,30.83,85.45Z"/><path class="cls-1" d="M30.73,79.46l.21,0a1.51,1.51,0,0,0,1.49-1.3,26.85,26.85,0,0,1,.77-3.69,1.5,1.5,0,1,0-2.88-.83,31.59,31.59,0,0,0-.87,4.11A1.5,1.5,0,0,0,30.73,79.46Z"/><path class="cls-1" d="M49.84,151.61a1.47,1.47,0,0,0,.54.1,1.54,1.54,0,0,0,.43-.06,1.48,1.48,0,0,0,1-.89c.32-.84.62-1.67.89-2.5.16-.47.31-.94.45-1.4a1.5,1.5,0,0,0-2.87-.86c-.29,1-.63,1.95-1,2.95-.09.24-.17.48-.27.72A1.5,1.5,0,0,0,49.84,151.61Z"/><path class="cls-1" d="M96.53,54.5a1.5,1.5,0,0,0,.63-2.86c-.53-.25-1-.48-1.57-.7l-.44-.2A1.5,1.5,0,0,0,94,53.51l.8.36c.37.16.74.31,1.11.49A1.56,1.56,0,0,0,96.53,54.5Z"/></g></g></svg>