<svg xmlns="http://www.w3.org/2000/svg" viewBox="0 0 178.73 119.99"><defs><style>.cls-1{fill:#ffcc80;}.cls-2{fill:#525d7d;}</style></defs><title>Asset 4</title><g id="Layer_2" data-name="Layer 2"><g id="Layer_1-2" data-name="Layer 1"><path class="cls-1" d="M85.2,88.3A4,4,0,0,0,86,91.17c1.44,1.51,3.91-.13,5.07-1.26a3.5,3.5,0,0,0-.25-5.19,4.64,4.64,0,0,0-6.14.26,2.11,2.11,0,0,0-.44,2.3A2.06,2.06,0,0,0,85.2,88.3Z"/><path class="cls-1" d="M84.89,107.05a37.35,37.35,0,0,0,.48,6.81c.52,3.07,5.78,3.11,6.25,0,.44-2.87.63-5.76.88-8.64.21-2.43.69-5-.42-7.29A5.56,5.56,0,0,0,88.38,95a1.08,1.08,0,0,0-.64-.11,4.19,4.19,0,0,0-4.44,2.49,3.19,3.19,0,0,0,1.33,4c-.29,1-.54,2-.78,3A2.33,2.33,0,0,0,84.89,107.05Z"/><path class="cls-2" d="M65.18,28.07A26.41,26.41,0,0,1,72.66,9.8c5-5,13.64-6.8,20.06-6.8,2.31,0,7.7.55,20.3,3.1a28.63,28.63,0,0,0-4.9,10.56h1.22a1.5,1.5,0,1,1,0,3H109l-1.34,0c-.06.69-.1,1.38-.1,2.08a61.84,61.84,0,0,0,.62,6.49,129.06,129.06,0,0,1,1.24,15.88c0,12.35-4,19.27-12.38,21.15a1.48,1.48,0,0,0-1.17,1.43c0,.79,0,1.58-.08,2.37-.05,1.3-.11,2.64-.11,4a25.78,25.78,0,0,0,1.3,8.8,16.78,16.78,0,0,0,1.74-.39,1.5,1.5,0,0,1,.83,2.89l-1.11.28a8.17,8.17,0,0,0,1.61,1.7l.39-1.14a1.5,1.5,0,0,1,2.83,1c-.16.48-.32,1-.49,1.45a8.58,8.58,0,0,0,1.93.22l1.73,0c-.15-.17-.31-.32-.46-.49a1.49,1.49,0,0,1,.11-2.11,1.47,1.47,0,0,1,1.06-.39c-.79,0-1.61,0-2.44,0-5.24,0-6-7.38-6-11.78,0-1.27,0-2.58.1-3.85,0-.43,0-.86,0-1.28,8.41-2.39,13-9.51,13.52-21.19-.32.14-.63.28-1,.4a1.67,1.67,0,0,1-.49.08,1.5,1.5,0,0,1-.48-2.92,12,12,0,0,0,2-.89c0-3.35-.28-6.65-.58-9.64a9,9,0,0,0-1.92-.47,1.5,1.5,0,1,1,.41-3c.39.05.77.13,1.16.22-.11-.93-.22-1.83-.32-2.66-.32-2.59-.6-4.82-.6-6.12,0-6.75,3.44-12.24,6.32-15.66A1.5,1.5,0,0,0,116,3.65C104.32,1.23,96.48,0,92.72,0c-7,0-16.54,2-22.18,7.68a29.46,29.46,0,0,0-8.36,20.39v3.28a15.83,15.83,0,0,1,3-.87Z"/><path class="cls-2" d="M65.17,34.74c-.37.12-.74.24-1.11.34a1.74,1.74,0,0,1-.39.05,1.52,1.52,0,0,1-1.21-.62l-.29.16c0,2.94,0,6,.14,9.07a8.22,8.22,0,0,0,1.46.14h.12a1.5,1.5,0,0,1,1.51,1.41C65.16,41.84,65.15,38.24,65.17,34.74Z"/><path class="cls-2" d="M110.79,88.05c19.77,1.59,21.48,11.32,21.48,23.72,0,1.24,0,2.47-.1,3.67-2.08-.1-4.1-.15-6.15-.15l-25.31.52c-.62.81-1.24,1.62-1.83,2.44a1.49,1.49,0,0,1-2.09.35,1.51,1.51,0,0,1-.35-2.1c.15-.2.31-.4.46-.61L93,116c-.25.69-.49,1.38-.75,2.07a1.5,1.5,0,0,1-1.4,1l35.21-.73c2.46,0,4.9.07,7.45.22a1.53,1.53,0,0,0,1.59-1.38c.13-1.73.2-3.53.2-5.36,0-13.23-2.22-26.15-28.12-26.92a1.57,1.57,0,0,1,1,.49C109,86.27,109.89,87.17,110.79,88.05Z"/><path class="cls-2" d="M85.71,118.16c-.27-.67-.56-1.34-.85-2l-4.67.09.42.36a1.5,1.5,0,0,1-1,2.65l7.45-.15A1.5,1.5,0,0,1,85.71,118.16Z"/><path class="cls-2" d="M75.69,116.32c-12.08.25-24,.48-32.79.64,0-.62,0-1.25,0-1.87,0-25.61,10.57-27,20.8-28.33l.39-.05,1.58-1.79,1.17-1.31a1.39,1.39,0,0,1,.74-.46c-1.32.25-2.76.44-4.27.63-10.43,1.37-23.41,3.07-23.41,31.31,0,1.14,0,2.3,0,3.44a1.5,1.5,0,0,0,1.5,1.46c9.83-.18,24.15-.46,38.22-.75a1.52,1.52,0,0,1-1-.34C77.68,118.06,76.68,117.19,75.69,116.32Z"/><path class="cls-2" d="M72.45,83.22c.18.45.38.91.57,1.38a11.24,11.24,0,0,0,3.17-2.17c-.4-.23-.79-.47-1.16-.73a1.5,1.5,0,0,1,1.74-2.45A12.82,12.82,0,0,0,78,80a18.31,18.31,0,0,0,1.86-8.91,43.58,43.58,0,0,0-.25-4.47,1.5,1.5,0,0,0-1.27-1.33C68.7,63.86,66.09,55.26,65.4,45.39a1.49,1.49,0,0,1-1.48,1.49h-.15c-.43,0-.85,0-1.26-.07.89,10,3.92,19.11,14.22,21.26.08,1.1.13,2.11.13,3.05,0,7.1-2.43,9.89-6.3,11.25A1.51,1.51,0,0,1,72.45,83.22Z"/><path class="cls-2" d="M89.41,117l.35-1-1.67,0c.13.32.27.64.4,1a1.5,1.5,0,0,1-.82,2,1.44,1.44,0,0,1-.57.11l3.71-.07a1.41,1.41,0,0,1-.52-.1A1.49,1.49,0,0,1,89.41,117Z"/><path class="cls-2" d="M68.94,83.47a1.5,1.5,0,0,1,.13,2.12l-.33.37c.49-.1,1-.22,1.46-.35l-.53-1.26a1.49,1.49,0,0,1,.8-1.94,21.16,21.16,0,0,1-2.9.74A1.5,1.5,0,0,1,68.94,83.47Z"/><path class="cls-2" d="M63.67,35.13a1.74,1.74,0,0,0,.39-.05c.37-.1.74-.22,1.11-.34,6.26-2.11,11.7-7.4,14.53-14.17,4.44-.07,8.91-.26,13.24-.45,4.82-.21,9.78-.42,14.69-.45l1.34,0h.36a1.5,1.5,0,1,0,0-3h-1.22c-5.13,0-10.3.24-15.31.46-4.63.2-9.42.41-14.15.46a1.49,1.49,0,0,0-1.39,1,22.92,22.92,0,0,1-10,12,1.5,1.5,0,0,1-.65,2.76,12.41,12.41,0,0,0-4.12,1.2A1.52,1.52,0,0,0,63.67,35.13Z"/><path class="cls-2" d="M62.51,46.81c.41,0,.83.07,1.26.07h.15a1.49,1.49,0,0,0,1.48-1.49v-.1a1.5,1.5,0,0,0-1.49-1.41h-.14a8.22,8.22,0,0,1-1.46-.14c-2.59-.49-4-2.21-4-3.51,0-2.63,1.72-4.44,3.82-5.56l.29-.16a12.41,12.41,0,0,1,4.12-1.2,1.5,1.5,0,0,0,.65-2.76,1.58,1.58,0,0,0-1-.23c-.37,0-.73.1-1.1.16a15.83,15.83,0,0,0-3,.87c-3.78,1.53-6.82,4.61-6.82,8.88C55.35,43.16,58.06,46.3,62.51,46.81Z"/><path class="cls-2" d="M108.6,31.59a1.5,1.5,0,0,0,1.28,1.69,9,9,0,0,1,1.92.47c2,.7,3.67,2.09,3.67,4.35a5.6,5.6,0,0,1-3.09,5.29,12,12,0,0,1-2,.89,1.5,1.5,0,0,0,.48,2.92,1.67,1.67,0,0,0,.49-.08c.34-.12.65-.26,1-.4,4.07-1.68,6.15-4.57,6.15-8.62s-3.37-6.71-7-7.57c-.39-.09-.77-.17-1.16-.22A1.49,1.49,0,0,0,108.6,31.59Z"/><path class="cls-2" d="M88.49,117c-.13-.31-.27-.63-.4-1-1.54-3.67-3.35-7.48-5.24-11.29,0,.17-.09.35-.13.52a1.49,1.49,0,0,1-1.45,1.16,2.09,2.09,0,0,1-.35,0,1.5,1.5,0,0,1-1.12-1.81c.32-1.33.65-2.66,1-4l-.9-1.8c-2.59-5.13-5-10-6.86-14.25-.19-.47-.39-.93-.57-1.38a1.51,1.51,0,0,0-1.89-.85l-.07,0a1.52,1.52,0,0,0-.82,2l.53,1.26c1.86,4.4,4.36,9.36,7,14.59s5.43,10.77,7.66,15.94c.29.68.58,1.35.85,2a1.5,1.5,0,0,0,1.39.93,1.44,1.44,0,0,0,.57-.11A1.5,1.5,0,0,0,88.49,117Z"/><path class="cls-2" d="M95.39,100c.54,1.11,1.07,2.26,1.59,3.47a1.49,1.49,0,0,1,0,1.1c1-3,2-6,3-8.89l2.73-8.05c.17-.48.33-1,.49-1.45a1.5,1.5,0,0,0-2.83-1L100,86.32q-1.42,4.19-2.84,8.37Z"/><path class="cls-2" d="M92.22,118c.26-.69.5-1.38.75-2.07,1.37-3.77,2.71-7.57,4-11.37a1.51,1.51,0,0,1-1.38.92,1.51,1.51,0,0,1-1.39-.91c-.07-.18-.15-.34-.23-.52-1.37,4-2.78,8-4.22,12l-.35,1a1.49,1.49,0,0,0,.88,1.92,1.41,1.41,0,0,0,.52.1A1.5,1.5,0,0,0,92.22,118Z"/><path class="cls-2" d="M80.61,116.59l-.42-.36c-1.72-1.44-3.42-3-5.07-4.42A110.86,110.86,0,0,0,64.9,103.4c1.31-1.94,2.45-4,3.55-6,.34-.6.67-1.21,1-1.81a1.51,1.51,0,0,0-1-2.21l-.36-.08c-1.59-.35-3.22-.72-4.86-1,1.44-1.85,3-3.6,4.62-5.42l.85-1,.33-.37a1.49,1.49,0,0,0-1.5-2.44,1.38,1.38,0,0,0-.75.46l-1.17,1.31-1.58,1.79a65.84,65.84,0,0,0-4.74,5.93,1.47,1.47,0,0,0-.13,1.49,1.5,1.5,0,0,0,1.22.86,44.9,44.9,0,0,1,5.45.91l0,.08a61.38,61.38,0,0,1-4.25,6.9,1.46,1.46,0,0,0-.27,1.16,1.52,1.52,0,0,0,.65,1,94.91,94.91,0,0,1,11.16,9c.84.76,1.7,1.52,2.57,2.28s2,1.74,3,2.58a1.52,1.52,0,0,0,1,.34,1.5,1.5,0,0,0,1-2.65Z"/><path class="cls-2" d="M106,87.35c.15.17.31.32.46.49,1.38,1.49,2.83,2.91,4.28,4.29a16.91,16.91,0,0,1-4.25.76,1.49,1.49,0,0,0-1.34.92,1.48,1.48,0,0,0,.28,1.6c1.51,1.63,3.14,3.31,4.86,5L107.89,103a151.7,151.7,0,0,0-11,12.91c-.15.21-.31.41-.46.61a1.5,1.5,0,0,0,1.22,2.38,1.49,1.49,0,0,0,1.22-.63c.59-.82,1.21-1.63,1.83-2.44,2.92-3.75,6.2-7.33,9.39-10.81,1.12-1.21,2.24-2.43,3.34-3.65a1.5,1.5,0,0,0-.07-2.08q-2-1.9-3.77-3.77c1.22-.27,2.41-.63,3.58-1l.85-.25a1.5,1.5,0,0,0,1-1.09,1.52,1.52,0,0,0-.43-1.44l-.84-.8c-1-.94-2-1.89-3-2.87s-1.78-1.78-2.61-2.71a1.57,1.57,0,0,0-1-.49,1.5,1.5,0,0,0-1.2,2.5Z"/><path class="cls-2" d="M83.6,83.58a1.5,1.5,0,0,1-1.46,1.15,2.21,2.21,0,0,1-.35,0l-1.11-.32a53.41,53.41,0,0,1,1.7,6.22c.18.76.35,1.53.54,2.29l.18-.62A1.5,1.5,0,1,1,86,93.1l-.32,1.12h.1c1.13,0,2.26.07,3.4.07h.26c-.14-.32-.27-.63-.4-1a1.5,1.5,0,0,1,2.79-1.11c.2.52.44,1,.66,1.53a1.38,1.38,0,0,0,.39-.78l.24-1.43c.33-2.06.68-4.17.93-6.3l-1.27.09h-.08a1.5,1.5,0,0,1-.08-3c.47,0,.9-.06,1.33-.1a.94.94,0,0,0-.09-.12,1.44,1.44,0,0,0-1.13-.48c-2.17.05-4.36.06-6.54.07-1.27,0-2.55,0-3.82,0l.15,0A1.51,1.51,0,0,1,83.6,83.58Zm2.59,1.12c1.63,0,3.26,0,4.89,0-.25,2.15-.6,4.3-.94,6.39l0,.23c-1.41,0-2.83,0-4.24-.06h-.25q-.17-.64-.3-1.29c-.4-1.72-.8-3.47-1.34-5.21Z"/><path class="cls-2" d="M86,93.1a1.5,1.5,0,1,0-2.88-.84l-.18.62c-.65,2.26-1.4,4.94-2.14,7.77-.33,1.3-.66,2.63-1,4a1.5,1.5,0,0,0,1.12,1.81,2.09,2.09,0,0,0,.35,0,1.49,1.49,0,0,0,1.45-1.16c0-.17.09-.35.13-.52.9-3.77,1.93-7.51,2.81-10.56Z"/><path class="cls-2" d="M97,103.44c-.52-1.21-1-2.36-1.59-3.47-.31-.65-.61-1.29-.92-1.91-.71-1.47-1.38-2.88-2-4.31-.22-.51-.46-1-.66-1.53A1.5,1.5,0,0,0,89,93.33c.13.33.26.64.4,1,.72,1.73,1.52,3.37,2.36,5.08.73,1.52,1.49,3.08,2.2,4.72.08.18.16.34.23.52a1.5,1.5,0,0,0,2,.79,1.49,1.49,0,0,0,.8-.8s0,0,0-.06A1.49,1.49,0,0,0,97,103.44Z"/><path class="cls-2" d="M81.79,84.69a2.21,2.21,0,0,0,.35,0,1.5,1.5,0,0,0,.36-3l-.15,0A17.45,17.45,0,0,1,78,80a12.82,12.82,0,0,1-1.23-.78A1.5,1.5,0,0,0,75,81.7c.37.26.76.5,1.16.73a19.58,19.58,0,0,0,4.49,1.94Z"/><path class="cls-2" d="M92.6,82.33a1.5,1.5,0,0,0,.08,3h.08L94,85.24a31.57,31.57,0,0,0,4.38-.62l1.11-.28a1.5,1.5,0,0,0-.83-2.89,16.78,16.78,0,0,1-1.74.39,28.35,28.35,0,0,1-3,.39C93.5,82.27,93.07,82.31,92.6,82.33Z"/><path class="cls-2" d="M10.76,45.73c0-14.72,7.37-22.19,21.91-22.19,6.42,0,11,4.49,14.19,10.26.75-.06,1.5-.12,2.25-.16a1.5,1.5,0,1,1,.19,3l-1,.07A57.72,57.72,0,0,1,53,57c0,4.5-3,7.29-6.42,10.53-3.68,3.44-7.84,7.35-7.84,13.89,0,3.74.8,5.58,2.17,6.65.37-.45.76-.92,1.18-1.41a1.5,1.5,0,1,1,2.28,1.94l-.62.75.43.12c.34.08.69.18,1.05.28a1.5,1.5,0,1,0,.86-2.87L45,86.57c-2.41-.63-3.21-.84-3.21-5.14,0-5.24,3.34-8.38,6.89-11.71S56,62.81,56,57c0-9.35-5.75-36.47-23.37-36.47-16.3,0-24.91,8.71-24.91,25.19,0,1.39,0,2.7.14,3.93A18.27,18.27,0,0,1,10.81,48C10.78,47.28,10.76,46.52,10.76,45.73Z"/><path class="cls-2" d="M13.53,89.77C7.19,92.5,0,95.58,0,107.81a34.18,34.18,0,0,0,.38,4.88A1.51,1.51,0,0,0,1.87,114H2c6-.48,12.17-.62,18.13-.76,5.45-.12,11.09-.25,16.66-.64a1.5,1.5,0,1,0-.21-3c-5.5.39-11.1.51-16.52.63s-11.25.26-16.88.66a29.83,29.83,0,0,1-.17-3c0-10.25,5.69-12.7,11.71-15.28a43.72,43.72,0,0,0,5-2.4L19,89.72a1.5,1.5,0,1,1,1.45-2.63c.69.38,1.34.75,2,1.12,2.39-2.14,4.08-5.16,4.08-10,0-5.64-3.08-8.27-6.34-11-3.53-3-7.44-6.35-8.82-14.61-.28.19-.55.39-.83.57a1.46,1.46,0,0,1-.8.23,1.49,1.49,0,0,1-1.05-.44l-.26.26a27.7,27.7,0,0,0,1.82,6.36h.25a15.16,15.16,0,0,0,1.9-.13,1.5,1.5,0,0,1,.41,3c-.34.05-.68.08-1,.1a29.47,29.47,0,0,0,6.45,7c3.07,2.61,5.29,4.5,5.29,8.76C23.44,85.52,19.07,87.39,13.53,89.77Z"/><path class="cls-2" d="M22.28,38.4c6,0,11.93-.56,17.7-1,2.74-.23,5.55-.46,8.33-.65l1-.07a1.5,1.5,0,1,0-.19-3c-.75,0-1.5.1-2.25.16-2.39.17-4.79.36-7.13.56-6,.51-12.23,1-18.38,1h-.16a1.49,1.49,0,0,0-1.43,1.06A25.61,25.61,0,0,1,12.7,47.67a1.47,1.47,0,0,1,.87.84,1.5,1.5,0,0,1-.84,2A13.9,13.9,0,0,0,8.6,52.94a1.49,1.49,0,0,0,1.05.44,1.46,1.46,0,0,0,.8-.23c.28-.18.55-.38.83-.57A28.49,28.49,0,0,0,22.28,38.4Z"/><path class="cls-2" d="M14,60.72a1.49,1.49,0,0,0-1.69-1.28,15.16,15.16,0,0,1-1.9.13h-.25c-2.54,0-3.41-.5-3.41-2.93A4.88,4.88,0,0,1,8.34,53.2l.26-.26a13.9,13.9,0,0,1,4.13-2.48,1.5,1.5,0,0,0,.84-2,1.47,1.47,0,0,0-.87-.84,1.49,1.49,0,0,0-1.08,0c-.28.11-.55.23-.81.35A18.27,18.27,0,0,0,7.9,49.66c-2.67,1.9-4.15,4.33-4.15,7,0,5.94,4.84,5.94,6.66,5.94q.64,0,1.29-.06c.34,0,.68,0,1-.1A1.49,1.49,0,0,0,14,60.72Z"/><path class="cls-2" d="M44.24,86.5a1.49,1.49,0,0,0-2.11.17c-.42.49-.81,1-1.18,1.41-2.19,2.64-3.69,4.66-4.81,6.18a23.52,23.52,0,0,1-2.08,2.59,14.54,14.54,0,0,1-1.57-1.3,59.48,59.48,0,0,0-10.13-7.34c-.62-.37-1.27-.74-2-1.12A1.5,1.5,0,1,0,19,89.72l.74.41A58.39,58.39,0,0,1,30.5,97.8c1.46,1.29,2.39,2.11,3.58,2.11h.29c1.44-.15,2.3-1.31,4.18-3.85,1.19-1.62,2.81-3.79,5.24-6.69l.62-.75A1.49,1.49,0,0,0,44.24,86.5Z"/><path class="cls-2" d="M164.79,55.77a1.5,1.5,0,0,1-.14-3,7.71,7.71,0,0,0,1.89-.41c.13-1.35.21-2.79.21-4.36,0-.84,0-1.69-.08-2.53l-.13,0a1.49,1.49,0,0,1-1.41,1,1.65,1.65,0,0,1-.43-.06c-.34-.1-.67-.23-1-.35,0,.67.05,1.32.05,2,0,11.81-4.31,15.87-8.11,19.46-3,2.86-6.16,5.81-6.16,12a6.59,6.59,0,0,0,3.8,6.45c.61-.54,1.21-1.06,1.83-1.62a1.5,1.5,0,0,1,2,2.24l-.62.54c.87.23,1.77.42,2.65.62,7.39,1.6,16.59,3.6,16.59,23.84,0,.53,0,1.06,0,1.59-11.66,0-23.19-.69-36.93-1.75a1.5,1.5,0,1,0-.23,3c13.76,1.06,25.31,1.76,37,1.76h1.63a1.51,1.51,0,0,0,1.5-1.48c0-1,0-2.07,0-3.11,0-22.66-11.4-25.14-18.95-26.78-4.93-1.07-7.3-1.74-7.3-5.29,0-4.84,2.31-7,5.22-9.77,3.13-3,6.85-6.49,8.35-14a9.74,9.74,0,0,1-1.12.16Z"/><path class="cls-2" d="M121.88,42.81a1.49,1.49,0,0,1,2,.58,1.51,1.51,0,0,1-.58,2,13.84,13.84,0,0,0-2.14,1.46,57.5,57.5,0,0,0,.93,8.18l.78,0c.31,0,.63,0,1,0H124a1.47,1.47,0,0,1,1.53,1.47,1.5,1.5,0,0,1-1.47,1.53h-.19c-.34,0-.68,0-1,0a20.31,20.31,0,0,0,7.17,11c2.35,2.06,3.91,3.42,3.91,7.8,0,3.91-2,5.87-5.59,8.12a1.5,1.5,0,1,0,1.59,2.55c.55-.34,1.1-.71,1.65-1.09l-1-1a1.5,1.5,0,1,1,2.17-2.07c.35.36.72.72,1.08,1.08a10.37,10.37,0,0,0,3.05-7.64c0-5.74-2.4-7.84-4.94-10.06-3.52-3.08-7.9-6.92-7.9-24.47a37.66,37.66,0,0,1,.33-5.07l-1.31,0a1.51,1.51,0,0,1-1.46-1.55,1.53,1.53,0,0,1,1.55-1.45l1.78.05c3.29-13.54,14.85-14.75,18.79-14.75,12.11,0,17.9,12.09,19.5,22.5a14.16,14.16,0,0,0,2.06.27l1,.1a41.41,41.41,0,0,0-4.65-14.54c-4.19-7.41-10.4-11.33-17.95-11.33-11,0-22.68,6.78-22.68,25.8,0,.33,0,.65,0,1C121.36,43.13,121.61,43,121.88,42.81Z"/><path class="cls-2" d="M151.53,36.35c2.38,4.44,6.65,7.83,12.17,9.7.33.12.66.25,1,.35a1.65,1.65,0,0,0,.43.06,1.49,1.49,0,0,0,1.41-1c-.44-.06-.92-.12-1.47-.17a8.45,8.45,0,0,1-4-1,1.5,1.5,0,0,1-.41-2.08,1.47,1.47,0,0,1,.56-.49,16.71,16.71,0,0,1-7.47-7.62,1.51,1.51,0,0,0-1.54-.87,173.89,173.89,0,0,1-20.5,1.1c-2.16,0-4.39,0-6.75-.08l-1.78-.05a1.53,1.53,0,0,0-1.55,1.45,1.51,1.51,0,0,0,1.46,1.55l1.31,0c2.57.07,5,.1,7.31.1A177.55,177.55,0,0,0,151.53,36.35Z"/><path class="cls-2" d="M163.27,42a1.93,1.93,0,0,1-.51-.2,1.49,1.49,0,0,0-1.52-.08,1.47,1.47,0,0,0-.56.49,1.5,1.5,0,0,0,.41,2.08,8.45,8.45,0,0,0,4,1c.55,0,1,.11,1.47.17l.13,0c2.09.31,2.94.92,2.94,3a4.15,4.15,0,0,1-3.07,3.9,7.71,7.71,0,0,1-1.89.41,1.5,1.5,0,0,0,.14,3h.14a9.74,9.74,0,0,0,1.12-.16c4.52-.86,6.56-4.1,6.56-7.14,0-4.88-3.54-5.76-6.24-6.07l-1-.1A14.16,14.16,0,0,1,163.27,42Z"/><path class="cls-2" d="M124.05,58.12a1.5,1.5,0,0,0,1.47-1.53A1.47,1.47,0,0,0,124,55.12h-.13c-.32,0-.64,0-1,0l-.78,0h-.2a4,4,0,0,1-3.43-3.73c0-1.42,1-3,2.7-4.45a13.84,13.84,0,0,1,2.14-1.46,1.51,1.51,0,0,0,.58-2,1.49,1.49,0,0,0-2-.58c-.27.15-.52.32-.78.48-3.51,2.19-5.6,5.15-5.6,8.05,0,3.46,3.12,6.73,6.43,6.73l.86,0h.06c.33,0,.67,0,1,0Z"/><path class="cls-2" d="M157.22,84.36a1.49,1.49,0,0,0-2.11-.12c-.62.56-1.22,1.08-1.83,1.62-3.23,2.85-6.28,5.45-9.23,7.84-1.54-1.46-3.14-2.86-4.7-4.22-1.84-1.61-3.72-3.26-5.47-5-.36-.36-.73-.72-1.08-1.08a1.5,1.5,0,1,0-2.17,2.07l1,1c1.87,1.86,3.85,3.61,5.79,5.31s3.78,3.3,5.53,5a1.48,1.48,0,0,0,1.06.43,1.52,1.52,0,0,0,.94-.33c3.68-3,7.48-6.19,11.59-9.85l.62-.54A1.5,1.5,0,0,0,157.22,84.36Z"/></g></g></svg>