<svg xmlns="http://www.w3.org/2000/svg" viewBox="0 0 275.49 262.18"><defs><style>.cls-1{fill:#525d7d;}</style></defs><title>Asset 7</title><g id="Layer_2" data-name="Layer 2"><g id="Layer_1-2" data-name="Layer 1"><path class="cls-1" d="M92.44,49.66a1.07,1.07,0,0,1-1.07-1c-.66-7.34-1.35-16-1.35-24.84,0-.27,0-.53,0-.8v-.54c0-4.48.24-8.52.61-12.36a1.05,1.05,0,0,1,.75-.92A211.39,211.39,0,0,1,154.22,0c7.64,0,15.42.38,23.13,1.14a1.06,1.06,0,0,1,.72.39,1,1,0,0,1,.24.79,1.06,1.06,0,0,1-1.07,1h-.1c-7.64-.75-15.35-1.14-22.92-1.14A210,210,0,0,0,92.88,11l-.16.05,0,.17c-.2,2.23-.34,4.55-.43,7.09l0,.84.49-.68A46.18,46.18,0,0,0,96,13.2a1.07,1.07,0,0,1,1-.58,1,1,0,0,1,.5.13,1.07,1.07,0,0,1,.45,1.44,50.81,50.81,0,0,1-5.68,8.48l-.06.06v1.12c0,2.7.07,5.54.21,8.7l0,.85.44-.73c1.38-2.34,2.69-4.77,3.9-7.07l0-.07c1.24-2.34,2.52-4.76,3.89-7.08a1.07,1.07,0,0,1,.93-.53,1.12,1.12,0,0,1,.54.15,1.08,1.08,0,0,1,.38,1.47c-1.37,2.31-2.65,4.73-3.89,7.07a115.17,115.17,0,0,1-6,10.38l0,.07v.09c.12,1.89.26,3.82.41,5.74l0,.7.41-.57c4.16-5.88,7.44-12.46,10.62-18.83l.84-1.7a1.09,1.09,0,0,1,1-.59,1.13,1.13,0,0,1,.48.11,1.07,1.07,0,0,1,.48,1.44L106,25.14c-3.67,7.36-7.46,15-12.61,21.55l-.06.08.15,1.72a1.08,1.08,0,0,1-1,1.17Z"/><path class="cls-1" d="M109.67,51.87a1,1,0,0,1-.65-.22,1.08,1.08,0,0,1-.41-.7,1.09,1.09,0,0,1,.2-.8c6.66-8.88,14.19-13.77,22.4-14.55h.1a1.07,1.07,0,0,1,1.07,1,1.11,1.11,0,0,1-.24.79,1.09,1.09,0,0,1-.73.38c-7.58.72-14.6,5.33-20.89,13.71A1.05,1.05,0,0,1,109.67,51.87Z"/><path class="cls-1" d="M122.08,67.56c-2.66,0-6.42-2.58-6.42-8.33a14,14,0,0,1,1.79-6.86A4.3,4.3,0,0,1,121,50.06c4.38,0,6.72,5.47,6.72,9.42C127.75,64.76,124.46,67.56,122.08,67.56ZM118,61c.62,3.2,2.85,4.39,4.1,4.39,1,0,3.31-1.58,3.49-5.5l-.48-.11a4.05,4.05,0,0,1-6.67,1l-.61-.66Zm2.5-3.89c0,.06-.11.19-.29.47-.08.12-.15.24-.23.35a1.3,1.3,0,0,0-.26.72c0,.66.85,1.31,1.72,1.31a2.19,2.19,0,0,0,1.7-1l0,0V58.9l0-.51a2.93,2.93,0,0,0,0-.41c0-.6-1.32-1-2.46-1h-.27Zm.26-2.36A5.58,5.58,0,0,1,124.46,56l.41-.28c-.88-2.25-2.28-3.54-3.84-3.54a2.24,2.24,0,0,0-1.73,1.23,11,11,0,0,0-.89,2.12l.44.24A2.33,2.33,0,0,1,120.74,54.78Z"/><path class="cls-1" d="M160,63.77c-3,0-4.78-3.45-4.78-6.78a12.42,12.42,0,0,1,1.32-5.44c.62-1.24,2.06-4.13,5.15-4.13,2.11,0,5.08,2.27,5.08,7.3C166.74,60.06,163.17,63.77,160,63.77Zm-2.5-5.5c.3,1.67,1.19,3.36,2.5,3.36s3.23-1.45,4.11-3.87l-.43-.26a4.07,4.07,0,0,1-5.77.53l-.54-.44Zm2.1-4.28-.29.47c-.08.12-.15.24-.23.35a1.3,1.3,0,0,0-.26.72c0,.66.85,1.32,1.72,1.32a2.17,2.17,0,0,0,1.7-1l0,0v-.06l0-.51a2.93,2.93,0,0,0,0-.41c0-.59-1.32-1-2.46-1h-.27Zm.26-2.35A5.07,5.07,0,0,1,164,53.4l.46-.18c-.44-2.52-1.9-3.65-2.8-3.65a3,3,0,0,0-2.55,1.73l-.33.5.59-.12A2.32,2.32,0,0,1,159.83,51.64Z"/><path class="cls-1" d="M137,75.71c-2.59,0-5-1.71-6.61-3.14a1.07,1.07,0,0,1-.08-1.51,1.11,1.11,0,0,1,.8-.35,1.06,1.06,0,0,1,.72.27c1.85,1.67,3.68,2.58,5.17,2.58,5.76,0,6.63-7.3,7.16-16.85.23-4,.44-7.84,1.41-10.28,2-5,7.31-6.46,12.44-7.82a42.52,42.52,0,0,0,5.8-1.83,1.06,1.06,0,0,1,.42-.09,1.07,1.07,0,0,1,.43,2.06,44.69,44.69,0,0,1-6.1,1.93c-4.83,1.28-9.39,2.5-11,6.54-.85,2.12-1.05,5.75-1.27,9.61C145.81,65.24,145.22,75.71,137,75.71Z"/><path class="cls-1" d="M132.89,99.54A18.34,18.34,0,0,1,120,94.4a1.07,1.07,0,0,1-.31-.76,1.08,1.08,0,0,1,.31-.76,1.09,1.09,0,0,1,1.52,0,16.18,16.18,0,0,0,11.42,4.52,16.76,16.76,0,0,0,11.38-4.32,1.05,1.05,0,0,1,.73-.29,1.07,1.07,0,0,1,.73,1.86A18.93,18.93,0,0,1,132.89,99.54Z"/><path class="cls-1" d="M93.1,66.67A1.08,1.08,0,0,1,92,65.59V60.74a1.08,1.08,0,1,1,2.15,0v4.85A1.09,1.09,0,0,1,93.1,66.67Z"/><path class="cls-1" d="M80.9,224.39c-11.26,0-25.28-4.26-34-37.42a39.89,39.89,0,0,1-1.18-10.21c0-12.66,3.8-17.22,7.83-22C58.48,148.87,64,142.24,64,118.31c0-3-.12-6.16-.35-9.34q0-.41,0-.78c0-4.06,2.46-6.79,6.12-6.79,13,0,13,16.12,13,23.87,0,1.43,0,2.91-.14,4.65l0,.51.42-.29a85.9,85.9,0,0,1,16-8.64l.19-.08,0-.19c-.29-1.81-.46-3.32-.55-4.76-.61-9.75-.82-19.73-1-29.39v-.16c-.09-4.43-.19-9-.32-13.5v-.37l-.35.14a21.89,21.89,0,0,1-8.4,1.93c-6,0-9.7-3.92-9.7-10.24,0-6.87,6.2-11.86,17-13.69l.11,0,.06-.09a290.08,290.08,0,0,0,15.43-26.35,1.06,1.06,0,0,1,1-.58h.12a117.31,117.31,0,0,0,13.39.78c16.94,0,32.07-3.8,45-11.29a1.14,1.14,0,0,1,.54-.14,1.07,1.07,0,0,1,.93.53,1.1,1.1,0,0,1,.11.81,1.07,1.07,0,0,1-.5.66,81.13,81.13,0,0,1-8.23,4.15l-.25.11.13.24c6.31,12.06,9.51,26,9.51,41.46,0,17.35-4.13,37-11.93,56.74-.59,1.47-1.1,3-1.49,4.09l-.07.21.2.1a54.66,54.66,0,0,1,13.3,9.43l0,0,0,0a1.06,1.06,0,0,1,.29.2l0,.06a.41.41,0,0,0,0,.09l0,0a45.36,45.36,0,0,1,8.61,11.85,42.46,42.46,0,0,1,4.26,18.86,49.5,49.5,0,0,1-7,25.22c-14.18,23.46-33.32,26-40.89,26-9.2,0-18.7-2.84-29.92-8.92a1.08,1.08,0,0,1,.52-2,1.17,1.17,0,0,1,.51.13c10.88,5.91,20.07,8.66,28.89,8.66,7.21,0,25.44-2.43,39.05-24.95a47.22,47.22,0,0,0,6.71-24.11,40.4,40.4,0,0,0-4-17.91,42.71,42.71,0,0,0-7.49-10.51l-.17-.18-.19.17c-3.42,3.18-7.23,6.89-11.5,11.05-3.9,3.8-7.74,7.53-11.77,11.35-6,5.69-11.06,10.31-16,14.54a1.08,1.08,0,0,1-1.47-.06c-1.82-1.84-3.8-3.89-6.05-6.25l0-.06c-11.27-11.84-22.36-24.71-32.95-38.25l-.13-.17-.19.1a83.66,83.66,0,0,0-9.94,6.19l-.09.06v.11c-.23,2.1-.51,3.92-.85,5.57a18,18,0,0,0-.41,3.68,9.36,9.36,0,0,0,1.42,5.35c1.26,1.83,2.3,3.29,3.27,4.58l.08.12H86a23.57,23.57,0,0,1,2.45-.13c7.24,0,14.94,4.67,14.94,13.31A9.69,9.69,0,0,1,102,171.1l-.11.17.14.15c2.65,2.66,2.68,9,2.68,9.28,0,6.38-2.06,7.92-5,9.39l-.29.14.21.25a11.69,11.69,0,0,1,2.82,8c0,4.12-1.77,7.44-4.73,8.89l-.22.11.1.22a14.6,14.6,0,0,1,1.26,5.89c0,10-7.63,10.79-15.44,10.79H80.9ZM69.76,103.54c-3.69,0-4,3.56-4,4.65,0,.2,0,.41,0,.62.24,3.23.36,6.42.36,9.5,0,24.71-5.8,31.66-10.92,37.79-3.94,4.71-7.34,8.78-7.34,20.66A37.81,37.81,0,0,0,49,186.42c9.36,35.82,25.14,35.82,31.88,35.82h2.53c9,0,13.28-1.29,13.28-8.64a12.2,12.2,0,0,0-1.66-6.15L95,207.3h-.16c-5.68.51-11.51.9-17.47,1.28l-1.17.08H76.1a1.07,1.07,0,0,1-.07-2.14l1.17-.08c6.47-.41,13.13-.84,19.56-1.47h.09a1.13,1.13,0,0,1,.36.06l.12.05.11-.08c2.11-1.48,2.87-4.35,2.87-6.54a9.58,9.58,0,0,0-3.42-7.71,1.19,1.19,0,0,1-.27-.38l-.07-.16-4,.2c-6,.28-12.22.58-18.33,1.24h-.12a1.06,1.06,0,0,1-1.06-.95,1,1,0,0,1,.23-.79,1.06,1.06,0,0,1,.72-.39c6.17-.67,12.42-1,18.46-1.25l6.11-.3a1.25,1.25,0,0,1,.32.05l.09,0,.09,0c2.45-1.28,3.48-2.58,3.48-7.31,0-3.36-1-7.44-2.58-8.14l-.06,0h-.07c-4.68.42-9.27.63-14.36.85h-.09c-3.73.16-7.59.32-11.42.6h-.08a1.08,1.08,0,0,1-.81-1.78,1.15,1.15,0,0,1,.73-.37c3.88-.28,7.77-.44,11.53-.6,4.21-.18,9.39-.4,14.4-.85h.11l.07-.09a7.59,7.59,0,0,0,1.37-4.49c0-5.53-4.38-11.13-12.74-11.16h-.06l-.1,0a1.21,1.21,0,0,1-.2.07l-4,.59-.19,0c-4.25.61-8.62,1.24-12.75,2.23a1.07,1.07,0,0,1-.25,0,1.07,1.07,0,0,1-.91-1.63,1.08,1.08,0,0,1,.66-.48c4.21-1,8.62-1.65,12.51-2.21l.42-.06-.25-.34c-.82-1.13-1.67-2.33-2.66-3.78a11.32,11.32,0,0,1-1.8-6.56,20,20,0,0,1,.45-4.12,64.57,64.57,0,0,0,1.23-13.2C80.67,112.23,78.81,103.54,69.76,103.54Zm64.14,34c-.61,9.56-3.71,19-6.21,26.58l0,.15.11.11c1.67,1.75,3.21,3.34,4.71,4.86l.17.17.17-.16c4.45-3.86,9.18-8.17,14.47-13.19l.08-.08v-.11a92.88,92.88,0,0,0-2.3-18.15l-.05-.19h-.19l-3.94-.09c-2-.06-4.4-.13-6.72-.14h-.24ZM99.38,123.7c-1.48.62-3,1.31-4.53,2l-.28.14.2.24c9.93,12.69,20.33,24.81,30.91,36l.29.31.13-.41c2.61-8,5.2-16.46,5.69-25v-.1l-.07-.09,0,0c-.86-1.26-1.66-2.56-2.43-3.81l-.48-.76-.53-.84-4.66,5.81a1,1,0,0,1-.83.4,1,1,0,0,1-.47-.11c-2-1-4-2-5.86-3-5-2.62-10.06-5.33-15.38-6.75a1.09,1.09,0,0,1-.78-.85l-.6-3.31Zm48.89,6.49c-.25,1.88-.53,4.12-.74,6.38a1.08,1.08,0,0,1-.29.62l-.09.1,0,.13a95.83,95.83,0,0,1,2.21,16l0,.55.4-.38c3.48-3.32,6.93-6.68,9.7-9.38,4.41-4.3,8.06-7.84,11.45-11l.2-.19-.2-.18a52.7,52.7,0,0,0-11.67-8.18l-.26-.14-.26.79a97.93,97.93,0,0,1-3.49,9.49,1,1,0,0,1-.78.61l-.2,0a1.08,1.08,0,0,1-.75-.31c-1.46-1.43-3-3.05-4.84-5.1l-.37-.41Zm-14.8,4.94c2.53,0,5.15.08,7.46.14l4.32.11h.24l0-.24c.25-2.43.55-4.76.94-7.53v-.11l-.07-.09c-1.27-1.45-2.51-2.92-3.74-4.36s-2.4-2.83-3.62-4.23l-.19-.23-.19.23c-2.62,3-5.44,6.41-8.87,10.67l-.11.14.1.16,1.3,2.07.06.1c.62,1,1.26,2,1.93,3.05l.07.11Zm-4.28-17.54a77,77,0,0,0-27.3,5.1l-.19.08,0,.21c.11.62.22,1.24.34,1.88l.18,1,.15,0c5.26,1.53,10.22,4.16,15,6.7l.14.08c1.54.81,3.13,1.65,4.71,2.45l.18.09,1.92-2.4c4-5,7.87-9.81,11.84-14.44l.32-.37-.49,0C133.56,117.71,131.32,117.59,129.19,117.59Zm13.93,2.72,1.17,1.36c3,3.57,6.1,7.21,9.38,10.57l.27.27.15-.35c1-2.42,1.78-4.86,2.63-7.45l.37-1.12-.2-.1a62.72,62.72,0,0,0-14.39-4.6l-.71-.14Zm-13.93-4.87a72.82,72.82,0,0,1,9.85.7l.18,0h.06a66.33,66.33,0,0,1,18.24,5.25l.25.12.09-.27c.52-1.51,1-2.73,1.41-3.86C167,97.9,171.06,78.55,171.06,61.47c0-15.19-3.16-28.87-9.37-40.66l-.11-.21-.21.09A95.24,95.24,0,0,1,126,27.09a119.57,119.57,0,0,1-12.72-.7l-.17,0-.08.16A295.21,295.21,0,0,1,97.59,52.74a1,1,0,0,1-.73.47c-4.75.75-15.8,3.37-15.8,11.67,0,5.15,2.76,8.1,7.56,8.1a21.52,21.52,0,0,0,9.28-2.57,1.17,1.17,0,0,1,.49-.11,1.11,1.11,0,0,1,.54.14,1.07,1.07,0,0,1,.53.89c.17,5.19.28,10.45.38,15.55V87c.2,9.65.41,19.63,1,29.34.08,1.23.22,2.49.44,4l0,.31.29-.11A79.18,79.18,0,0,1,129.19,115.44Z"/><path class="cls-1" d="M150.39,188.54a1.07,1.07,0,0,1-1.07-1.16,135.68,135.68,0,0,0-.07-22,1.06,1.06,0,0,1,.87-1.15c1.76-.33,3.57-.59,5.52-.8,5.32-.57,10.76-.62,16-.67,1.49,0,3,0,4.45,0a1.08,1.08,0,0,1,1.09,1c.43,7.47-.78,12.2-3.15,18.31a1.08,1.08,0,0,1-.75.66c-2.73.64-6.06,1.51-9.92,2.53s-8.23,2.17-12.74,3.28A1.07,1.07,0,0,1,150.39,188.54Zm21.36-18.78a183.52,183.52,0,0,0-19.38,1.11l-.62.07v.24a138.58,138.58,0,0,1-.17,14.54l0,.35.34-.08c3.78-1,7.49-1.92,10.75-2.78l.27-.07c3.55-.94,6.62-1.75,9.21-2.37l.13,0,0-.12A38.12,38.12,0,0,0,175,170.07l0-.27h-.27C173.74,169.77,172.75,169.76,171.75,169.76Zm3.11-4.88-3.17,0c-5.23,0-10.61.09-15.82.65-1.48.16-2.85.34-4.18.57l-.23,0,0,.23c0,.44.06.89.08,1.33,0,.27.06,1.07.06,1.07l.52-.06a185.12,185.12,0,0,1,19.6-1.12c1.06,0,2.1,0,3.13,0h.26v-.26c0-.76,0-1.51,0-2.28v-.25Z"/><path class="cls-1" d="M195.75,107.16a1.11,1.11,0,0,1-.54-.14,1.07,1.07,0,0,1-.51-1.15,61.72,61.72,0,0,0,1.23-8.43l0-.26h-.27c-2.29,0-4.53-.06-6.66-.11A1.08,1.08,0,0,1,188,96c-.05-4.07-.19-8.18-.33-12.15v-.09c-.17-4.94-.35-10-.35-15,0-3.18.07-6.08.21-8.88a1.07,1.07,0,0,1,1-1c4.05-.18,8.17-.41,12.15-.62h.14c9.3-.51,18.91-1,28.56-1,1.17,0,2.34,0,3.5,0a1.08,1.08,0,0,1,1.06,1.07c0,6.25.18,12.64.34,18.82v.21c.16,6,.32,12.19.34,18.24a1.08,1.08,0,0,1-1,1.08l-1.68,0c-8.35.22-17,.44-25.48.5h-.12l-.07.09a112.39,112.39,0,0,1-9.78,9.62A1.05,1.05,0,0,1,195.75,107.16Zm33.58-47.82c-9.48,0-19.09.52-28.39,1-3.61.2-7.34.4-11.11.58h-.23v.23c-.11,2.37-.16,4.84-.16,7.56,0,5,.18,10,.35,14.94v.17c.12,3.54.25,7.2.31,10.83v.25h.25c2.19,0,4.46.08,6.74.1a1.09,1.09,0,0,1,1.07,1.12,60.07,60.07,0,0,1-.65,6.28l-.11.72.53-.49A98.9,98.9,0,0,0,205,95.41a1.06,1.06,0,0,1,.8-.37c8.72-.06,17.55-.28,26.08-.5l.58,0v-.25c0-5.62-.19-11.36-.34-16.9V77.2c-.15-5.77-.31-11.74-.34-17.6v-.25h-2.47Z"/><path class="cls-1" d="M198.51,82.54c-2.58,0-4.25-2.07-4.25-5.27,0-2.49,1.22-4.27,3.25-4.78a3,3,0,0,1,.78-.1A5.33,5.33,0,0,1,203,77.72,4.68,4.68,0,0,1,198.51,82.54Zm-.22-8a1.17,1.17,0,0,0-.26,0c-1.05.26-1.62,1.22-1.62,2.7,0,2,.74,3.12,2.1,3.12a2.58,2.58,0,0,0,2.39-2.67A3.25,3.25,0,0,0,198.29,74.53Z"/><path class="cls-1" d="M210.21,81.71a4.2,4.2,0,0,1-4.36-4.43,5.9,5.9,0,0,1,1.9-4.34,3.12,3.12,0,0,1,2.08-.82,4.66,4.66,0,0,1,4.35,4.49C214.18,80,212.84,81.71,210.21,81.71Zm-.38-7.45a.92.92,0,0,0-.64.27A3.76,3.76,0,0,0,208,77.28a2.09,2.09,0,0,0,2.21,2.29c1.35,0,1.82-.78,1.82-3A2.52,2.52,0,0,0,209.83,74.26Z"/><path class="cls-1" d="M221.68,80.37c-2.65,0-4.29-2.52-4.29-4.85a4.87,4.87,0,0,1,.74-2.61l.18-.28a4.48,4.48,0,0,1,2.7-2.4,4,4,0,0,1,.89-.1c2.39,0,4.51,2.6,4.51,4.66C226.41,78.07,224.47,80.37,221.68,80.37Zm.22-8.1a2.18,2.18,0,0,0-.42,0c-.54.12-.95.79-1.35,1.43l-.19.31a2.73,2.73,0,0,0-.4,1.46c0,1.3.82,2.7,2.14,2.7,2.46,0,2.59-2.86,2.59-3.43A3,3,0,0,0,221.9,72.27Z"/><path class="cls-1" d="M234.17,43.23C223.88,43.23,217,34,217,25.41c0-8,5.74-15.83,13.06-17.72a9.6,9.6,0,0,1,2.39-.3c10.13,0,18,9.54,18,17.74C250.41,34.12,244.83,43.23,234.17,43.23ZM232.42,9.54a7.16,7.16,0,0,0-1.85.23c-6.43,1.65-11.46,8.52-11.46,15.64,0,6.57,5.24,15.67,15.06,15.67,9.25,0,14.09-8,14.09-15.95C248.26,15.76,238.73,9.54,232.42,9.54Z"/><path class="cls-1" d="M233.18,35.55a9.51,9.51,0,0,1-6.43-2.44l-.13-.1-.22-.23a1.05,1.05,0,0,1,0-1.51,1.05,1.05,0,0,1,1.51,0,7.43,7.43,0,0,0,5.27,2.14c4.54,0,6.62-3.29,7.61-4.87l.27-.43a1.1,1.1,0,0,1,.9-.47,1,1,0,0,1,.59.18,1.08,1.08,0,0,1,.46.68,1.1,1.1,0,0,1-.16.81l-.24.37C241.59,31.29,238.9,35.55,233.18,35.55Z"/><path class="cls-1" d="M226.1,25.63a1.14,1.14,0,0,1-1-.64,2.16,2.16,0,0,1-.21-1,3.34,3.34,0,0,1,3.42-3.25,4,4,0,0,1,3.26,1.72,1.07,1.07,0,0,1-.87,1.69,1.06,1.06,0,0,1-.88-.45,1.91,1.91,0,0,0-1.51-.81A1.22,1.22,0,0,0,227,24v.06l0,.05a1,1,0,0,1-.5,1.39A1,1,0,0,1,226.1,25.63Z"/><path class="cls-1" d="M236.65,23.6a1.08,1.08,0,0,1-.89-.47,2,2,0,0,1-.35-1.11c0-1.32,1.57-2.85,3.58-2.85A4.5,4.5,0,0,1,242.6,21a1.05,1.05,0,0,1,.19.8,1.06,1.06,0,0,1-1.06.9,1.08,1.08,0,0,1-.87-.45,2.35,2.35,0,0,0-1.87-.95,1.77,1.77,0,0,0-1.29.56l-.1.11.05.15a1.07,1.07,0,0,1-.4,1.28A1.06,1.06,0,0,1,236.65,23.6Z"/><path class="cls-1" d="M260.92,94.24a1.07,1.07,0,0,1-.77-.33A71.46,71.46,0,0,0,250.39,85a1.06,1.06,0,0,1-.44-.7A1.07,1.07,0,0,1,251,83.07a1.07,1.07,0,0,1,.62.2,66.79,66.79,0,0,1,9.15,8.22l.18.17.18-.17c2.26-2.13,4.44-4.37,6.55-6.53l.09-.09c1.91-2,3.88-4,5.9-5.92a1.06,1.06,0,0,1,.74-.29,1,1,0,0,1,.77.33,1.06,1.06,0,0,1,0,1.51c-2,1.94-4,4-5.93,6l-.07.07c-2.42,2.48-4.91,5-7.52,7.43A1,1,0,0,1,260.92,94.24Z"/><path class="cls-1" d="M202.54,41.17a1.1,1.1,0,0,1-.67-.24c-2.29-1.83-4.53-3.69-6.66-5.53l-.17-.14-.17.15c-1.46,1.32-2.91,2.59-4.28,3.78a1.1,1.1,0,0,1-.7.26,1.08,1.08,0,0,1-.81-.37,1.07,1.07,0,0,1-.26-.78,1.06,1.06,0,0,1,.37-.74c1.64-1.42,3.32-2.9,5.11-4.53a1.09,1.09,0,0,1,.72-.28,1.1,1.1,0,0,1,.71.27c1.47,1.28,3,2.59,4.6,3.89l.59.49-.19-.75c-.52-2.09-1.23-4.59-1.91-7a1.06,1.06,0,0,1,.3-1.08l3.76-3.54.47-.44h-.64l-4.18,0h-.35a1.08,1.08,0,0,1-1-.78c-.38-1.38-.88-3.18-1.28-4.9l-.15-.65-.32.59c-.88,1.67-1.68,3.46-2.35,5a1,1,0,0,1-.94.65h-.06c-1.8,0-3.46-.13-5.1-.23l-.68,0,.49.47c1.19,1.17,2.42,2.35,3.66,3.5a1.07,1.07,0,0,1,.25,1.22,41,41,0,0,1-4.24,7.72,1.08,1.08,0,0,1-.86.42,1,1,0,0,1-.64-.21,1.07,1.07,0,0,1-.21-1.5,35.46,35.46,0,0,0,3.6-6.44l.08-.17-.13-.12c-2.49-2.34-4.38-4.22-5.58-5.44a1.09,1.09,0,0,1-.21-1.21,1.07,1.07,0,0,1,1-.62h.1c2.43.22,4.93.38,7.65.47h.17l.07-.16a43.06,43.06,0,0,1,4-7.45,1.07,1.07,0,0,1,.87-.45.75.75,0,0,1,.26,0,1.05,1.05,0,0,1,.8.9,61,61,0,0,0,1.61,7l0,.19h.19c2.51,0,5-.05,6.88-.08a1.07,1.07,0,0,1,.75,1.85l-1.24,1.17q-2.21,2.09-4.42,4.16l-.11.1,0,.15a90.33,90.33,0,0,1,2.5,10.08,1.06,1.06,0,0,1-.53,1.08A1,1,0,0,1,202.54,41.17Z"/><path class="cls-1" d="M199,208.12a1.09,1.09,0,0,1-.67-.23c-1.48-1.19-2.94-2.4-4.34-3.6l-.17-.14-.17.15c-1,.85-1.83,1.63-2.69,2.38a1.15,1.15,0,0,1-.71.26,1.08,1.08,0,0,1-.81-.38,1,1,0,0,1-.25-.77,1.09,1.09,0,0,1,.36-.74c1.14-1,2.33-2,3.53-3.13a1.13,1.13,0,0,1,.72-.27,1.09,1.09,0,0,1,.71.26c.71.62,1.45,1.25,2.19,1.88l.62.51-.21-.77c-.3-1.15-.66-2.41-1-3.59a1.07,1.07,0,0,1,.3-1.08l1.84-1.72.47-.45H196a1.07,1.07,0,0,1-1-.79c-.24-.86-.45-1.63-.62-2.32l-.17-.67-.3.62c-.34.69-.68,1.44-1.12,2.45a1,1,0,0,1-.94.65h-.06l-2.44-.1-.68,0,.49.47c.53.51,1.1,1.06,1.73,1.65a1.06,1.06,0,0,1,.25,1.22,27.85,27.85,0,0,1-3,5.4,1.05,1.05,0,0,1-.85.43,1.08,1.08,0,0,1-.65-.22,1,1,0,0,1-.41-.71,1.07,1.07,0,0,1,.2-.79,23.1,23.1,0,0,0,2.34-4.12l.07-.17-.13-.12C187,198,185.8,196.77,185,196a1.07,1.07,0,0,1,.75-1.83h.11c1.59.14,3.22.25,5,.31h.18l.07-.16a28.23,28.23,0,0,1,2.66-4.95,1.07,1.07,0,0,1,.87-.45,1.09,1.09,0,0,1,.26,0,1.07,1.07,0,0,1,.8.91,37.34,37.34,0,0,0,1,4.52l.05.18H197c1.48,0,3,0,4.44-.05a1.09,1.09,0,0,1,1,.67,1.08,1.08,0,0,1-.26,1.19l-.52.49-3.21,3-.11.1,0,.15A61.49,61.49,0,0,1,200,206.9a1.07,1.07,0,0,1-.53,1.08A1.1,1.1,0,0,1,199,208.12Z"/><path class="cls-1" d="M207.8,178.53a1.09,1.09,0,0,1-.67-.23c-1.47-1.18-2.93-2.39-4.34-3.6l-.17-.14-.16.14c-.9.81-1.79,1.6-2.7,2.38a1.07,1.07,0,0,1-1.77-.89,1.06,1.06,0,0,1,.37-.73c1.13-1,2.29-2,3.53-3.13a1.05,1.05,0,0,1,1.42,0c.72.62,1.45,1.25,2.2,1.87l.61.52-.2-.78c-.31-1.16-.68-2.46-1-3.58a1.08,1.08,0,0,1,.3-1.08l1.84-1.73.47-.44H204.8a1.06,1.06,0,0,1-1-.78c-.25-.87-.45-1.64-.63-2.33l-.17-.66-.3.62c-.42.86-.82,1.76-1.11,2.45a1,1,0,0,1-.93.65h-.08c-.85,0-1.66-.05-2.44-.09l-.68,0,.49.47c.53.51,1.11,1.06,1.74,1.64a1.1,1.1,0,0,1,.25,1.22,28.4,28.4,0,0,1-3,5.41,1.08,1.08,0,0,1-.86.42,1.1,1.1,0,0,1-.65-.21,1.13,1.13,0,0,1-.41-.71,1,1,0,0,1,.21-.79,22.83,22.83,0,0,0,2.33-4.13l.08-.16-.14-.13c-1.59-1.5-2.84-2.75-3.65-3.56a1.08,1.08,0,0,1-.2-1.22,1.06,1.06,0,0,1,1-.61h.1c1.58.14,3.21.24,5,.31h.17l.07-.16a28.87,28.87,0,0,1,2.66-4.95,1.07,1.07,0,0,1,1.94.49,36,36,0,0,0,1,4.51l.05.19h.2l4.43-.05a1.1,1.1,0,0,1,1,.67,1.06,1.06,0,0,1-.25,1.18l-.64.61-3.09,2.9-.12.11,0,.15a62,62,0,0,1,1.67,6.77,1.07,1.07,0,0,1-.53,1.08A1.14,1.14,0,0,1,207.8,178.53Z"/><path class="cls-1" d="M198.14,141.69a1.1,1.1,0,0,1-.67-.24c-1.48-1.19-2.94-2.4-4.34-3.6l-.17-.14-.17.15c-.89.8-1.79,1.59-2.69,2.38a1.14,1.14,0,0,1-.7.26,1.12,1.12,0,0,1-.82-.37,1.11,1.11,0,0,1-.25-.78,1.09,1.09,0,0,1,.36-.74c1.13-1,2.28-2,3.53-3.13a1.13,1.13,0,0,1,.72-.27,1.09,1.09,0,0,1,.71.26c.71.62,1.45,1.25,2.2,1.88l.61.51-.21-.77c-.3-1.14-.66-2.4-1-3.59a1.07,1.07,0,0,1,.3-1.08l2.31-2.16h-2.74a1.09,1.09,0,0,1-1-.79c-.24-.86-.45-1.63-.62-2.32l-.17-.67-.3.62c-.34.69-.68,1.44-1.12,2.45a1.05,1.05,0,0,1-1,.65h-.05l-2.43-.1-.68,0,.49.47,1.74,1.65a1.09,1.09,0,0,1,.25,1.22,27.55,27.55,0,0,1-3,5.4,1.05,1.05,0,0,1-.85.43,1.08,1.08,0,0,1-.65-.22,1,1,0,0,1-.41-.71,1.07,1.07,0,0,1,.2-.79,22.39,22.39,0,0,0,2.34-4.12l.07-.17-.13-.12c-1.64-1.54-2.87-2.78-3.65-3.57a1.09,1.09,0,0,1-.21-1.21,1.06,1.06,0,0,1,1-.62h.11c1.58.14,3.21.25,5,.32h.17l.07-.16a28.91,28.91,0,0,1,2.66-4.95,1.07,1.07,0,0,1,.87-.45,1.15,1.15,0,0,1,.26,0,1.07,1.07,0,0,1,.8.91,38.65,38.65,0,0,0,1,4.52l0,.18h.19c1.48,0,3,0,4.44-.05a1.07,1.07,0,0,1,1,.67,1.06,1.06,0,0,1-.26,1.19l-.74.7-3,2.81-.11.1,0,.15a61,61,0,0,1,1.67,6.77,1,1,0,0,1-.53,1.08A1,1,0,0,1,198.14,141.69Z"/><path class="cls-1" d="M177.22,228.75a1,1,0,0,1-.67-.24c-1.47-1.17-2.93-2.38-4.35-3.59l-.16-.15-.17.15c-1,.87-1.85,1.65-2.7,2.38a1.07,1.07,0,0,1-1.51-.11,1.06,1.06,0,0,1-.26-.78,1,1,0,0,1,.37-.73c1.13-1,2.28-2,3.53-3.13a1.07,1.07,0,0,1,.72-.28,1,1,0,0,1,.7.26c.72.63,1.45,1.25,2.2,1.88l.61.51-.2-.77c-.31-1.17-.68-2.46-1-3.58a1,1,0,0,1,.3-1.08l1.83-1.73.48-.44h-2.73a1.07,1.07,0,0,1-1-.78c-.24-.88-.45-1.64-.62-2.33l-.17-.67-.31.62c-.4.84-.79,1.71-1.11,2.45a1,1,0,0,1-.93.66H170c-.85,0-1.66-.06-2.45-.1l-.67,0,.49.47c.52.51,1.1,1.06,1.73,1.64a1.06,1.06,0,0,1,.25,1.22,27.51,27.51,0,0,1-3,5.4,1,1,0,0,1-.86.43,1,1,0,0,1-.64-.22,1.05,1.05,0,0,1-.42-.7,1.09,1.09,0,0,1,.21-.8,22.2,22.2,0,0,0,2.33-4.12l.08-.16-.13-.13c-1.62-1.53-2.86-2.77-3.65-3.57a1.07,1.07,0,0,1,.76-1.82h.1c1.58.15,3.22.25,5,.32h.17l.07-.16A29.63,29.63,0,0,1,172,210a1.07,1.07,0,0,1,.88-.45,1.15,1.15,0,0,1,.26,0,1.07,1.07,0,0,1,.8.91,35.15,35.15,0,0,0,1,4.51l.05.19h.19l4.44-.05a1.16,1.16,0,0,1,1,.67,1.05,1.05,0,0,1-.26,1.18l-1.15,1.09-2.58,2.42-.11.11,0,.14a58.29,58.29,0,0,1,1.67,6.78,1.08,1.08,0,0,1-.53,1.08A1.1,1.1,0,0,1,177.22,228.75Z"/><path class="cls-1" d="M151.38,244.21a1.1,1.1,0,0,1-.67-.24c-1.49-1.19-3-2.4-4.34-3.59l-.17-.15-.17.15c-.95.86-1.83,1.63-2.7,2.38a1,1,0,0,1-.7.26,1.08,1.08,0,0,1-.81-.37,1.06,1.06,0,0,1-.26-.78,1.1,1.1,0,0,1,.37-.73c1.13-1,2.28-2,3.53-3.13a1.07,1.07,0,0,1,.72-.28,1,1,0,0,1,.7.26c.72.63,1.46,1.25,2.2,1.88l.62.51-.21-.77c-.31-1.18-.68-2.47-1-3.58a1,1,0,0,1,.3-1.08l1.84-1.73.47-.44h-2.74a1.08,1.08,0,0,1-1-.78c-.24-.88-.45-1.65-.62-2.33l-.17-.67-.31.62c-.33.69-.67,1.45-1.11,2.45a1,1,0,0,1-.95.65h-.06c-.84,0-1.65-.06-2.44-.1l-.67,0,.49.47,1.73,1.64a1.06,1.06,0,0,1,.25,1.22,27.27,27.27,0,0,1-3,5.4,1.05,1.05,0,0,1-.85.43,1.08,1.08,0,0,1-.86-1.72,22.3,22.3,0,0,0,2.34-4.12l.07-.16-.13-.13c-1.23-1.16-2.39-2.29-3.65-3.57a1.07,1.07,0,0,1,.76-1.82h.1c1.58.15,3.21.25,5,.32h.18l.06-.15a30.1,30.1,0,0,1,2.66-5,1.09,1.09,0,0,1,.87-.45,1.26,1.26,0,0,1,.27,0,1.05,1.05,0,0,1,.8.9,37.05,37.05,0,0,0,1,4.52l.05.19h.19l4.44-.05h.08a1.09,1.09,0,0,1,.93.68,1.07,1.07,0,0,1-.26,1.18l-.67.63L150.84,236l-.11.1,0,.15a58.73,58.73,0,0,1,1.67,6.77,1.09,1.09,0,0,1-.53,1.09A1.1,1.1,0,0,1,151.38,244.21Z"/><path class="cls-1" d="M50,105.31a1.09,1.09,0,0,1-.67-.23c-2.75-2.2-5.42-4.42-7.93-6.58l-.16-.15-.17.15c-1.81,1.63-3.49,3.11-5.15,4.55a1.1,1.1,0,0,1-.7.26,1.08,1.08,0,0,1-.81-.38,1,1,0,0,1-.26-.77,1.1,1.1,0,0,1,.37-.74c1.92-1.66,3.88-3.39,6-5.3a1.11,1.11,0,0,1,.72-.27,1,1,0,0,1,.7.26c1.9,1.65,3.88,3.32,5.89,5l.59.48-.18-.74c-.63-2.63-1.57-5.93-2.39-8.81a1.06,1.06,0,0,1,.29-1.08L51,86.42l.47-.44H50.8l-5.44,0H45a1.07,1.07,0,0,1-1-.78c-.5-1.79-1.14-4.13-1.62-6.28l-.15-.65-.32.58c-1.14,2.08-2.18,4.39-3,6.38a1,1,0,0,1-.94.65H37.8c-2.31-.07-4.45-.17-6.54-.31l-.68,0,.48.47c1.53,1.51,3.11,3,4.71,4.51A1.06,1.06,0,0,1,36,91.77a46.45,46.45,0,0,1-4.93,9,1.08,1.08,0,0,1-.86.43,1.09,1.09,0,0,1-1.06-.93,1,1,0,0,1,.21-.79,42.67,42.67,0,0,0,4.3-7.7l.07-.17-.13-.12c-2.93-2.75-5.19-5-6.63-6.46a1.09,1.09,0,0,1-.2-1.21,1.06,1.06,0,0,1,1-.61h.1c2.86.26,5.84.45,9.1.56h.17l.07-.15a50,50,0,0,1,4.67-8.81,1.06,1.06,0,0,1,.87-.44,1.15,1.15,0,0,1,.26,0,1.05,1.05,0,0,1,.8.9,74.11,74.11,0,0,0,1.92,8.41l.06.19H46c2.9,0,5.77,0,8.21-.09a1.08,1.08,0,0,1,.75,1.86l-.94.88c-1.92,1.81-3.84,3.63-5.77,5.43l-.11.1,0,.15a106.67,106.67,0,0,1,3,11.88,1.07,1.07,0,0,1-.53,1.08A1.1,1.1,0,0,1,50,105.31Z"/><path class="cls-1" d="M32,160.82a1,1,0,0,1-.67-.24,50.18,50.18,0,0,1-9.79-10.07l-.08-.11h-.13l-5.92-.05c-3.61,0-6.86-.06-10.12-.06H2.1a1.07,1.07,0,0,1-1.08-1c-.11-3.2-.24-6.39-.37-9.59L.6,138.59c-.2-5-.43-10.73-.6-16.3a1.09,1.09,0,0,1,.31-.79,1,1,0,0,1,.71-.32h.06c1.64,0,3.34.06,5.05.06,7.83,0,18-.38,26.89-.72l.48,0,8.32-.31a1.12,1.12,0,0,1,1.11,1c.41,4.47.5,9,.58,13.4.1,4.74.2,9.65.7,14.42a1,1,0,0,1-.26.81,1,1,0,0,1-.76.37c-2.41.1-7.34.16-11.36.21h-.28l0,.28c.34,2.57.82,5.39,1.5,8.88a1.06,1.06,0,0,1-.49,1.12A1.1,1.1,0,0,1,32,160.82ZM5.34,148.15c3.27,0,6.59,0,9.81.06h.31l6.6,0a1.06,1.06,0,0,1,.88.47,44.66,44.66,0,0,0,6.93,7.78l.55.5-.13-.73c-.45-2.51-.77-4.68-1-6.84a1.09,1.09,0,0,1,.26-.83,1.05,1.05,0,0,1,.8-.36h.6c2.67,0,7.64-.08,10.76-.16H42l0-.27c-.39-4.42-.48-8.88-.57-13.19v-.07c-.08-3.92-.16-8-.47-11.93l0-.24h-.24l-6.93.26-.57,0c-9,.34-19.11.73-27,.73-1.23,0-2.46,0-3.69,0H2.18v.27c.15,4.75.34,9.58.53,14.26l0,.63c.12,3.14.25,6.27.37,9.4v.24Z"/><path class="cls-1" d="M11.4,140.36a4.66,4.66,0,0,1-4.61-4.66,4.87,4.87,0,0,1,2.64-4.42,3.24,3.24,0,0,1,1.44-.33,4.81,4.81,0,0,1,4.53,4.72C15.4,138.43,13.3,140.36,11.4,140.36Zm-.53-7.27a1.09,1.09,0,0,0-.48.11,2.74,2.74,0,0,0-1.45,2.5,2.49,2.49,0,0,0,2.46,2.51,2.38,2.38,0,0,0,1.86-2.54A2.66,2.66,0,0,0,10.87,133.09Z"/><path class="cls-1" d="M21.33,140a4,4,0,0,1-3.84-4.23,4.49,4.49,0,0,1,1.32-3.26l0,0,0,0a2.11,2.11,0,0,1,.51-.63,3.23,3.23,0,0,1,2-.62,4.29,4.29,0,0,1,3.83,4.27A4.33,4.33,0,0,1,21.33,140Zm0-6.64a1.29,1.29,0,0,0-.57.1l-.07,0,0,.06a2,2,0,0,1-.37.48,2.36,2.36,0,0,0-.68,1.74,1.89,1.89,0,0,0,1.69,2.09,2.26,2.26,0,0,0,1.72-2.38A2.2,2.2,0,0,0,21.37,133.39Z"/><path class="cls-1" d="M31.21,139.8a4.13,4.13,0,0,1-3.75-4.36,5.26,5.26,0,0,1,1.8-4,2.1,2.1,0,0,1,1.13-.66l.41,0a4.64,4.64,0,0,1,4.46,4.68A4.25,4.25,0,0,1,31.21,139.8Zm-.57-6.68a3.13,3.13,0,0,0-1,2.32,2.09,2.09,0,0,0,1.6,2.22,2.12,2.12,0,0,0,1.91-2.18A2.52,2.52,0,0,0,31,133l-.12,0Z"/><path class="cls-1" d="M55.34,55c-3.58,0-7.21-.13-10.72-.25s-7.09-.25-10.74-.25c-1.45,0-2.78,0-4.07.06h0a1.06,1.06,0,0,1-1.05-1c-.28-3-.41-6-.54-8.91v-.12c-.12-2.81-.25-5.71-.51-8.55a1.08,1.08,0,0,1,1-1.17c3.33-.32,6.87-.48,11.15-.5H40V34c-.2-3.72-.43-8-.77-12a1,1,0,0,1,.3-.84,1.09,1.09,0,0,1,.76-.32h.08c2.1.16,4.22.23,6.47.23,2.49,0,5.32-.09,8.64-.28a1.1,1.1,0,0,1,1.13,1c.19,2.74.35,5.48.53,8.51.08,1.2.15,2.42.22,3.63l0,.64H58.6c2.86,0,5.38-.06,7.71-.19h.07a1.08,1.08,0,0,1,.73.3,1.09,1.09,0,0,1,.33.8q0,1,0,2c0,3.12.17,6.29.34,9.35V47c.11,2,.23,4.13.29,6.21a1.06,1.06,0,0,1-.94,1.1c-2.73.33-5.65.52-8.94.59h-.11C57.18,55,56.28,55,55.34,55Zm-13-18.24c.28,5,.61,10.36,1.21,15.59l0,.22,1.16,0c3.48.12,7.09.25,10.64.25h1.54l0-.28c-.57-4.51-1-9.47-1.42-15.61l0-.23h-.23c-1.88,0-3.76-.06-5.59-.1-2.64-.06-4.94-.09-7-.11H42.3ZM57.58,37c.4,6.17.86,11.11,1.43,15.56l0,.23h.23c2.36-.07,4.44-.2,6.37-.41l.24,0v-.24c-.07-1.6-.16-3.23-.24-4.8V47c-.18-3.11-.35-6.32-.35-9.53v-.94H65c-2,.08-4.08.12-6.41.12h-1ZM33.9,52.31c2.48,0,4.92.07,7.18.14h.3l0-.29c-.58-5.24-.91-10.54-1.18-15.49v-.24h-.24c-3.71,0-6.91.13-9.78.37l-.25,0,0,.25c.19,2.48.3,4.95.4,7.34v.18c.11,2.45.23,5,.43,7.5l0,.24H31C32,52.32,32.93,52.31,33.9,52.31Zm7.6-29c.29,3.65.49,7.42.67,10.74v.24h.24c2.08,0,4.37.06,7.22.12l5.36.1h.28L55,30.33c-.14-2.37-.28-4.74-.44-7.11l0-.25h-.25c-2.78.15-5.21.22-7.42.22-1.78,0-3.45-.05-5.12-.14l-.29,0Z"/><path class="cls-1" d="M249.36,169.46c-3,0-6-.12-8.92-.21h-.18c-3.38-.11-6.88-.21-10.32-.22a1.07,1.07,0,0,1-.62-1.94c2.86-2,5.91-4.9,5.91-13.17,0-1.4-.08-2.8-.15-3.87v-.18l-.18-.05a21.93,21.93,0,0,1-10.62-6.26l-.09-.1-.19,0-.15,0a1.15,1.15,0,0,1-.41-.08,14.2,14.2,0,0,0-1.74-.39c-3.83-.7-12.75-2.35-12.75-10.51,0-5.42,4.52-10.18,9.67-10.18.23,0,.45,0,.68,0a1,1,0,0,1,.69.34l.06.06.08,0a119,119,0,0,0,20,1.45c4.89,0,9.88-.18,14.72-.35l2.88-.1.07-.14a1,1,0,0,1,.74-.6,8.23,8.23,0,0,1,1.64-.17c5.31,0,9.44,5.22,9.44,9.71,0,7.7-7.42,9.88-12.84,11.47-1.09.31-2.1.61-3,.92l-.07,0h-.17l-.05.05A19.45,19.45,0,0,1,243,150.3l-.22,0v.22c.12,6.62.77,12.9,7.17,16.93a.76.76,0,0,0,.09.09l.15.14a.82.82,0,0,1,.11.17,1.08,1.08,0,0,1,.08.19.6.6,0,0,1,0,.21l0,.1v.1a.88.88,0,0,1,0,.2.7.7,0,0,1-.08.2l0,.09a1.49,1.49,0,0,1-.12.14l0,0a1.21,1.21,0,0,1-.29.19l-.07,0a1.23,1.23,0,0,1-.38.08Zm-12.1-18.87c.08,1.31.11,2.37.11,3.33,0,5.5-1.34,9.62-4.09,12.58l-.39.41h.57c2.36.05,4.75.12,6.87.18,1.72.06,3.48.11,5.23.15h.63l-.44-.44c-4.54-4.59-5-10.69-5.09-16v-.25h-.28a24.45,24.45,0,0,1-2.84-.19l-.3,0Zm-17-18.77c2.47,10.06,10.35,16.55,20.09,16.55,7,0,15.52-5.1,17.66-16.31l.06-.32-.33,0c-3.79.23-7.73.34-12,.34-5.74,0-11.56-.19-17.18-.37-2.67-.08-5.34-.16-8-.22h-.34Zm40.37-6.46c0,.44,0,.9,0,1.4a26.1,26.1,0,0,1-4.09,14.67l-.39.58.67-.2c4.47-1.32,10.59-3.13,10.59-9.2,0-3.06-2.84-7-6.51-7.51l-.3,0ZM217,124.72a8.24,8.24,0,0,0-5.94,7.82c0,5.53,5,7.26,10.48,8.31l.59.11-.33-.5a26.23,26.23,0,0,1-3.91-9.63l0-.06a30.41,30.41,0,0,1-.56-5.77v-.33Zm2.46.46a28,28,0,0,0,.3,3.95l0,.21H220c2.47.06,5.12.13,8.59.24,5.6.18,11.39.37,17.11.37,4.5,0,8.57-.12,12.45-.37l.22,0,0-.21c.07-.87.11-1.74.11-2.6v-.84l-3.53.13c-4.88.17-9.93.35-14.88.35a120.61,120.61,0,0,1-20.35-1.47l-.3-.05Z"/><path class="cls-1" d="M251.76,199.83a1,1,0,0,1-.75-.33l-.53-.56a37.1,37.1,0,0,0-7.64-6.77,1,1,0,0,1-.49-.66,1.05,1.05,0,0,1,.12-.81,1.08,1.08,0,0,1,.92-.52,1.1,1.1,0,0,1,.55.16,36.73,36.73,0,0,1,7.69,6.69l.18.19L252,197A171.18,171.18,0,0,1,266.5,183.8a1.06,1.06,0,0,1,.66-.23,1.09,1.09,0,0,1,.85.41,1.08,1.08,0,0,1-.18,1.5,177.44,177.44,0,0,0-15.29,14A1.08,1.08,0,0,1,251.76,199.83Z"/><path class="cls-1" d="M171.28,261.58a1,1,0,0,1-.67-.24c-2.78-2.22-5.75-4.63-8.77-7.34a1.09,1.09,0,0,1-.08-1.52,1.09,1.09,0,0,1,1.52-.08c2.67,2.41,5.28,4.55,7.71,6.5l.19.15.16-.17c1.12-1.2,2.22-2.46,3.28-3.67l0-.07a80,80,0,0,1,7.39-7.71,1.05,1.05,0,0,1,.71-.27,1,1,0,0,1,.8.37,1.06,1.06,0,0,1-.1,1.51,77.21,77.21,0,0,0-7.18,7.52c-1.37,1.56-2.78,3.17-4.24,4.69A1.07,1.07,0,0,1,171.28,261.58Z"/><path class="cls-1" d="M53.26,243.24a1.05,1.05,0,0,1-.64-.22,43,43,0,0,1-3.28-2.83,32.13,32.13,0,0,0-4-3.32,1.08,1.08,0,0,1-.46-.68,1.09,1.09,0,0,1,.16-.81,1.07,1.07,0,0,1,.89-.48,1.14,1.14,0,0,1,.6.18,35.07,35.07,0,0,1,4.25,3.53c.76.7,1.47,1.37,2.23,2l.17.14.16-.16c1-1,2-1.93,2.93-2.88,2-2,4-4,6.2-5.87a1.08,1.08,0,0,1,.69-.25A1.1,1.1,0,0,1,64,232a1.08,1.08,0,0,1-.13,1.51c-2.11,1.79-4.11,3.79-6,5.72-1.25,1.25-2.52,2.53-3.82,3.75A1.06,1.06,0,0,1,53.26,243.24Z"/><path class="cls-1" d="M207.45,241.21c-2.42,0-4.66,0-6.87-.1a1.08,1.08,0,0,1-1-1c-.12-2.58-.48-5.27-.81-7.88-.25-1.9-.53-4-.7-6a1.07,1.07,0,0,1,.28-.82,1.12,1.12,0,0,1,.79-.34c2.72.05,5.37.07,7.9.07h3.12v-.26c0-5.32-.11-10-.2-14.41a1.07,1.07,0,0,1,.3-.77,1.09,1.09,0,0,1,.76-.32h.91c3.12,0,6.31.11,9.4.22h.14c1.78.06,3.57.12,5.35.16a1.08,1.08,0,0,1,1,1l.12,3.26c.15,4,.28,7.28.43,10.26v.26l.25,0c3.32-.19,6.35-.42,9.3-.69H238a1.09,1.09,0,0,1,.7.25,1,1,0,0,1,.38.73c.21,2.54.24,5.08.27,7.53v.07c0,2.26,0,4.6.22,6.9a1.08,1.08,0,0,1-.28.8,1.11,1.11,0,0,1-.77.35c-4.29.07-8.64.22-12.84.37h-.13c-5.08.18-9.66.34-14.28.4h-.05Zm-7.14-13.75c.15,1.45.34,2.94.53,4.38v0c.29,2.25.6,4.58.76,6.87V239h.23c1.82,0,3.65.06,5.6.06h2.73v-.25c0-3.58,0-7.39,0-11.33v-.25h-.45l-2.69,0c-2.08,0-4.25,0-6.44,0h-.28Zm25.78-.69c-4.25.21-8.81.35-13.56.41h-.25v.25c0,3.93,0,7.74,0,11.32V239h.26c4.51-.07,9.16-.24,12.9-.37l1.79-.06,0-.27c-.37-3.6-.67-7.4-.89-11.31v-.25Zm10.69-.73c-2.54.22-5.25.41-8.05.58h-.25l0,.25c.22,4,.52,7.82.89,11.39l0,.24h.24c2.22-.07,4.85-.16,7.46-.21h.26l0-.26c-.1-1.93-.12-3.83-.14-5.67v-.07c0-2,0-4-.16-6l0-.26Zm-24.69-14.33c.08,4,.13,8.27.17,13.08V225h.25c4.64-.06,9.17-.2,13.47-.42h.25v-.26c-.15-3-.28-6.27-.43-10.3l-.08-2.25h-.24l-4.27-.14h-.07c-2.89-.1-5.88-.2-8.8-.21h-.26Z"/><path class="cls-1" d="M19.09,219.07a1.07,1.07,0,0,1-.61-1.95c1.32-.91,2.2-2.22,2.2-5.66a33.89,33.89,0,0,0-.42-4.61l0-.15-.15-.06c-5.83-2-10.06-8.32-10.06-15,0-.45,0-.89.05-1.31a1.08,1.08,0,0,1,1.06-1c4.75-.06,9.56-.43,14.21-.78,3.3-.25,6.71-.51,10.08-.66h0a1.1,1.1,0,0,1,.72.29,1,1,0,0,1,.34.74c0,.88.06,1.65.06,2.37,0,9.16-3.34,14.63-9.66,15.83l-.22,0,.05,1c.17,3.19.34,6.5,1.65,8.52a1.06,1.06,0,0,1-.8,1.65l-4.8.47-.7.07-2.93.28Zm3.42-11.54a31.12,31.12,0,0,1,.31,3.93,11.37,11.37,0,0,1-.85,4.8l-.19.41,4.07-.4-.11-.31a27.83,27.83,0,0,1-1.11-7.77l-.05-.86h-.37a11.59,11.59,0,0,1-1.42-.08l-.32,0Zm11.67-17.46c-2.91.16-5.84.38-8.67.59-4.29.33-8.71.67-13.09.77h-.25v.25c0,6.38,5,13.5,12,13.5,6.79,0,10.24-4.69,10.24-13.93,0-.31,0-.63,0-.94v-.26Z"/><path class="cls-1" d="M109.21,262.18a16,16,0,0,1-15.39-10.27,19.66,19.66,0,0,1,0-15.1A18.35,18.35,0,0,1,103.92,227a17.64,17.64,0,0,1,6.5-1.3c7.94,0,13.83,5.86,16.16,11.67,3.16,7.91.39,17.21-6.46,21.61a20.58,20.58,0,0,1-10.91,3.23Zm1.21-34.37a15.42,15.42,0,0,0-5.7,1.15,16.25,16.25,0,0,0-9,8.69,17.45,17.45,0,0,0,.06,13.46A13.93,13.93,0,0,0,109.21,260a18,18,0,0,0,6.68-1.32,17.79,17.79,0,0,0,3.07-1.58c6-3.85,8.42-12,5.62-19C122.6,233.16,117.32,227.81,110.42,227.81Z"/><path class="cls-1" d="M109.84,254.36a12.25,12.25,0,0,1-8.31-3.15,1.07,1.07,0,0,1-.06-1.52,1.12,1.12,0,0,1,.79-.34,1.1,1.1,0,0,1,.73.29,10.08,10.08,0,0,0,6.85,2.58c6.13,0,8.09-4.05,9-6,.13-.29.28-.58.39-.77a1.07,1.07,0,0,1,2,.29,1,1,0,0,1-.12.81c-.07.12-.15.28-.24.47l-.07.13C119.85,249.13,117.31,254.36,109.84,254.36Z"/><path class="cls-1" d="M100.33,244.88a1.07,1.07,0,0,1-1.07-1c0-.14,0-.29,0-.42,0-2.05,1.76-3.48,4.29-3.48a5.75,5.75,0,0,1,1.83.29,1.63,1.63,0,0,1,1,1l0,.1.1,0a1.07,1.07,0,0,1-.39,2.07,1.65,1.65,0,0,1-1.62-1.11l0-.12-.13,0a4.07,4.07,0,0,0-.79-.08c-.8,0-2.15.29-2.15,1.34,0,.06,0,.12,0,.19a1.09,1.09,0,0,1-.23.79,1.06,1.06,0,0,1-.72.39Z"/><path class="cls-1" d="M112.19,243a1.07,1.07,0,0,1-1.07-1.08c0-2.36,1.66-3.9,4.24-3.9a6.64,6.64,0,0,1,4.15,1.43,1.06,1.06,0,0,1,.37.74,1.07,1.07,0,0,1-.26.78,1.07,1.07,0,0,1-1.51.11,4.56,4.56,0,0,0-2.75-.91c-1.39,0-2.1.59-2.1,1.75A1.07,1.07,0,0,1,112.19,243Z"/><path class="cls-1" d="M12.05,77.93a1.05,1.05,0,0,1-.73-.29c-.42-.39-.83-.8-1.24-1.2L10,76.37a23.4,23.4,0,0,0-5.73-4.53,1.07,1.07,0,0,1,.48-2,1.13,1.13,0,0,1,.48.11,25.18,25.18,0,0,1,6.27,4.92l.49.48.17-.2c.79-.9,1.56-1.83,2.3-2.73a49,49,0,0,1,7.29-7.6,1.11,1.11,0,0,1,.66-.22,1.06,1.06,0,0,1,.84.41,1,1,0,0,1,.22.79,1.07,1.07,0,0,1-.4.72,45.63,45.63,0,0,0-6.94,7.25c-1.07,1.29-2.16,2.6-3.3,3.84a1.06,1.06,0,0,1-.75.35Z"/></g></g></svg>