<svg xmlns="http://www.w3.org/2000/svg" viewBox="0 0 231.65 237.28"><defs><style>.cls-1{fill:#fff;}</style></defs><title>Asset 9</title><g id="Layer_2" data-name="Layer 2"><g id="Layer_1-2" data-name="Layer 1"><path class="cls-1" d="M104.64,33.13c-6.64,0-16-4.5-16-14.51,0-9,6.56-15.32,12.9-16.27a15.53,15.53,0,0,1,2.36-.18c9.75,0,17,8.59,17,16.26C121,25.37,114,33.13,104.64,33.13Zm-.72-29a14.41,14.41,0,0,0-2.07.15c-6.93,1-11.22,8.25-11.22,14.33,0,8.65,8.19,12.54,14,12.54,8.21,0,14.34-6.72,14.34-12.73C119,11.68,112.54,4.14,103.92,4.14Z"/><path class="cls-1" d="M103,24a1,1,0,0,1-.63-.23c-.73-.62-1.53-1.2-2.29-1.76a19.08,19.08,0,0,1-5.28-5,1,1,0,0,1,.3-1.36,1,1,0,0,1,1.36.3,17.29,17.29,0,0,0,4.78,4.5c.52.38,1,.77,1.58,1.18l.15.12.15-.13c2.71-2.45,5.36-5.1,7.92-7.66a.94.94,0,0,1,.69-.29,1,1,0,0,1,.7.29,1,1,0,0,1,0,1.39c-2.83,2.83-5.75,5.75-8.78,8.43A1,1,0,0,1,103,24Z"/><path class="cls-1" d="M11.17,96.75C5.68,96.75,0,92.94,0,86.57c0-4.92,3.38-10.52,9-11.36a10.19,10.19,0,0,1,1.65-.13c6.8,0,11.89,6,11.89,11.37C22.57,91.31,17.69,96.75,11.17,96.75Zm-.49-19.7a8.89,8.89,0,0,0-1.36.1C4.78,77.83,2,82.57,2,86.57c0,5.66,5.38,8.21,9.2,8.21,5.4,0,9.43-4.4,9.43-8.33C20.6,82.1,16.27,77.05,10.68,77.05Z"/><path class="cls-1" d="M10.07,90.51a1,1,0,0,1-.64-.23c-.49-.41-1-.8-1.53-1.17A13.3,13.3,0,0,1,4.22,85.6a1,1,0,0,1,.31-1.36,1,1,0,0,1,.52-.15,1,1,0,0,1,.83.45,11.42,11.42,0,0,0,3.17,3l.83.61.15.12.14-.13c1.76-1.6,3.47-3.32,5.13-5a1,1,0,0,1,.7-.29.94.94,0,0,1,.69.29,1,1,0,0,1,0,1.39c-1.92,1.92-3.9,3.9-6,5.74A1,1,0,0,1,10.07,90.51Z"/><path class="cls-1" d="M218.27,173.9c-6.45,0-13.12-4.47-13.12-11.93,0-5.79,4-12.36,10.6-13.36a13.7,13.7,0,0,1,1.93-.14c8,0,14,7,14,13.35C231.65,167.52,225.93,173.9,218.27,173.9Zm-.59-23.47a11.22,11.22,0,0,0-1.64.13c-5.51.82-8.93,6.56-8.93,11.41,0,6.87,6.53,10,11.16,10,6.53,0,11.42-5.34,11.42-10.11C229.69,156.55,224.44,150.43,217.68,150.43Z"/><path class="cls-1" d="M217,166.47a1,1,0,0,1-.63-.23c-.59-.49-1.21-.94-1.81-1.38l0,0a15.65,15.65,0,0,1-4.32-4.13A1,1,0,0,1,210,160a1,1,0,0,1,.43-.61.92.92,0,0,1,.53-.16,1,1,0,0,1,.83.46,14,14,0,0,0,3.82,3.59l1.13.84.16.12.14-.13c2.13-1.94,4.22-4,6.24-6a1,1,0,0,1,.71-.31,1,1,0,0,1,.7,1.67c-2.3,2.3-4.66,4.66-7.11,6.83A1,1,0,0,1,217,166.47Z"/><path class="cls-1" d="M18.76,54.33a1,1,0,0,1-1-1c0-1.54-.1-3.05-.2-4.52l0-.54h-.39A15.83,15.83,0,0,1,13,47.82a1,1,0,0,1-.6-.46,1,1,0,0,1,.86-1.48,1.27,1.27,0,0,1,.26,0,13.6,13.6,0,0,0,3.63.41h.24l0-.24c0-.55-.05-1.18-.05-1.79,0-.84,0-1.62.09-2.38a1,1,0,0,1,1-.9h.08a1,1,0,0,1,.9,1.07c-.06.71-.08,1.43-.08,2.21,0,.6,0,1.2,0,1.72l0,.24.45,0c.79,0,1.82-.09,2.79-.09.66,0,1.23,0,1.73.07a1,1,0,0,1-.09,2h-.09c-.49,0-1-.07-1.6-.07-.83,0-1.68,0-2.51.09l-.57,0,0,.48c.1,1.5.21,3,.21,4.65A1,1,0,0,1,18.76,54.33Z"/><path class="cls-1" d="M140.66,181.27a1,1,0,0,1-1-1c0-1.51-.11-3-.21-4.46l0-.56h-.38a15.31,15.31,0,0,1-4.13-.48,1,1,0,0,1-.69-1.21,1,1,0,0,1,1-.72,1.07,1.07,0,0,1,.25,0,13.49,13.49,0,0,0,3.61.41h.24l0-.24c0-.58-.05-1.17-.05-1.77,0-.84,0-1.61.1-2.36a1,1,0,0,1,1-.91h.09a1,1,0,0,1,.67.34,1,1,0,0,1,.23.72c-.06.69-.09,1.41-.09,2.2,0,.58,0,1.15.05,1.7v.23h.44c.85-.05,1.81-.1,2.74-.1.65,0,1.22,0,1.75.07a1,1,0,0,1,.89,1.07,1,1,0,0,1-1,.9H146c-.48,0-1-.06-1.58-.06-.83,0-1.69,0-2.53.09l-.53,0,0,.47c.11,1.51.21,3,.21,4.62A1,1,0,0,1,140.66,181.27Z"/><path class="cls-1" d="M58.27,147.15a1,1,0,0,1-1-1c0-1.53-.1-3-.21-4.51l0-.55h-.4a15.47,15.47,0,0,1-4.15-.48,1,1,0,0,1-.69-1.21,1,1,0,0,1,.95-.72,1.09,1.09,0,0,1,.26,0,13.65,13.65,0,0,0,3.63.41h.25l0-.24c0-.6,0-1.2,0-1.78,0-.85,0-1.63.09-2.39a1,1,0,0,1,1-.9H58a1,1,0,0,1,.9,1.06c-.06.7-.09,1.43-.09,2.22,0,.57,0,1.15,0,1.71v.23h.45c1-.06,1.89-.1,2.76-.1.65,0,1.23,0,1.76.07a1,1,0,0,1-.09,2h-.09c-.48,0-1-.06-1.59-.06-.84,0-1.71,0-2.54.09L59,141l0,.48c.1,1.51.21,3.06.21,4.65A1,1,0,0,1,58.27,147.15Z"/><path class="cls-1" d="M214.32,203.15a1,1,0,0,1-1-1c0-1.36-.09-2.69-.18-4l0-.37h-.23a13.89,13.89,0,0,1-3.71-.42,1,1,0,0,1,.26-1.94,1.17,1.17,0,0,1,.26,0,12.12,12.12,0,0,0,3.06.36H213l0-.42q0-.63,0-1.26c0-.75,0-1.44.08-2.11a1,1,0,0,1,1-.91h.09a1,1,0,0,1,.9,1.06c0,.62-.08,1.26-.08,1.95,0,.41,0,.81,0,1.22v.39h.24c.92-.05,1.71-.09,2.49-.09.58,0,1.09,0,1.57.06a1,1,0,0,1,.89,1.07,1,1,0,0,1-1,.9h-.08c-.43,0-.89,0-1.41,0-.74,0-1.5,0-2.24.07l-.32,0,0,.24v.07c.1,1.33.19,2.7.19,4.12A1,1,0,0,1,214.32,203.15Z"/><path class="cls-1" d="M65.71,194.3a1,1,0,0,1-1-1c0-1.35-.09-2.69-.18-4l0-.37h-.23a13.9,13.9,0,0,1-3.71-.43,1,1,0,0,1,.26-1.93,1.09,1.09,0,0,1,.26,0,11.76,11.76,0,0,0,3.07.36h.24v-.42c0-.42,0-.83,0-1.25,0-.75,0-1.44.09-2.12a1,1,0,0,1,1-.9h.09a1,1,0,0,1,.9,1.07c-.06.62-.08,1.25-.08,1.95,0,.4,0,.81,0,1.21l0,.39h.23c.92,0,1.71-.09,2.49-.09.58,0,1.09,0,1.57.07a1,1,0,0,1,.89,1.07,1,1,0,0,1-1,.89h-.08c-.43,0-.89-.06-1.4-.06-.74,0-1.49,0-2.22.08h-.34l0,.24v.07c.09,1.33.19,2.7.19,4.12A1,1,0,0,1,65.71,194.3Z"/><path class="cls-1" d="M132.37,85.3a1,1,0,0,1-1-1c0-1.35-.1-2.69-.19-4l0-.37H131a13.9,13.9,0,0,1-3.71-.43,1,1,0,0,1-.6-.46,1,1,0,0,1-.09-.75,1,1,0,0,1,1-.72,1.15,1.15,0,0,1,.26,0,11.7,11.7,0,0,0,3.07.36h.24l0-.38c0-.43,0-.86,0-1.29,0-.75,0-1.44.08-2.12a1,1,0,0,1,1-.9h.09a1,1,0,0,1,.9,1.06c-.05.63-.07,1.27-.07,2,0,.42,0,.84,0,1.25l0,.35h.23c.92,0,1.71-.09,2.49-.09a15.11,15.11,0,0,1,1.57.07,1,1,0,0,1-.1,2h-.08c-.43,0-.89-.06-1.4-.06-.74,0-1.49,0-2.23.08h-.33l0,.24v.07c.09,1.33.18,2.7.18,4.12A1,1,0,0,1,132.37,85.3Z"/><path class="cls-1" d="M153.75,134.12a1,1,0,0,1-1-1c0-1.26-.09-2.51-.17-3.72l0-.29h-.22a12.79,12.79,0,0,1-3.42-.4,1,1,0,0,1-.69-1.21,1,1,0,0,1,.94-.72,1.09,1.09,0,0,1,.26,0,11,11,0,0,0,2.78.33h.24l0-.47c0-.34,0-.68,0-1,0-.7,0-1.34.08-2a1,1,0,0,1,1-.91h.09a1,1,0,0,1,.9,1.06c-.05.58-.08,1.18-.08,1.82,0,.34,0,.68,0,1l0,.43.23,0c.81,0,1.54-.07,2.26-.07.54,0,1,0,1.47.06a1,1,0,0,1,.89,1.07,1,1,0,0,1-1,.89h-.08a12.92,12.92,0,0,0-1.3-.06c-.68,0-1.38,0-2.06.07l-.31,0v.24c.09,1.24.18,2.52.18,3.84A1,1,0,0,1,153.75,134.12Z"/><path class="cls-1" d="M182.84,86a1,1,0,0,1-1-1c0-1.27-.09-2.52-.17-3.73l0-.21-.22-.08a12.79,12.79,0,0,1-3.42-.4,1,1,0,0,1,.26-1.93,1.07,1.07,0,0,1,.25,0,10.59,10.59,0,0,0,2.78.33h.24l0-.48c0-.34,0-.68,0-1,0-.7,0-1.35.07-2a1,1,0,0,1,1-.9h.09a1,1,0,0,1,.91,1.06c-.05.58-.08,1.18-.08,1.82,0,.34,0,.68,0,1l0,.42h.23c.7,0,1.5-.08,2.27-.08.54,0,1,0,1.46.06a1,1,0,0,1-.11,2h-.07a12.88,12.88,0,0,0-1.29-.05c-.68,0-1.37,0-2.05.07l-.33,0v.23c.09,1.24.18,2.51.18,3.85A1,1,0,0,1,182.84,86Z"/><path class="cls-1" d="M175.79,237.28c-9,0-15-5.84-15-11.3,0-5.21,3-9.41,8.23-11.54l.15-.07-.14-2.15c-.2-3.18-.39-6.18-.56-7.77a1,1,0,0,1,.21-.72,1,1,0,0,1,.66-.36h.11a1,1,0,0,1,1,.89c.17,1.63.36,4.66.57,7.87.3,4.75.65,10.1,1,12.45a.94.94,0,0,0,.06.24l.25.66.19-.68c.83-3,1.42-10.1,1.85-15.29v-.12c.18-2.15.33-4,.47-5.21a1.15,1.15,0,0,1,.11-.31l.09-.19-.18-.11c-.33-.19-.64-.38-.94-.57a9.64,9.64,0,0,0-5.7-2h-.06a1,1,0,0,1-.77-.37,1,1,0,0,1-.19-.83c.91-4,1.33-7,1.75-9.87a64,64,0,0,1,2.38-11.41,7.19,7.19,0,0,0-.47-4l-.15-.31-.25.21a17.2,17.2,0,0,0-4.47,8.42,11.1,11.1,0,0,1-.47,1.62,4.21,4.21,0,0,1-4,2.32c-2.55,0-2.55-2.12-2.55-3.25,0-3.92,2.49-7.22,4.9-10.41.57-.76,1.15-1.53,1.68-2.28.63-.92,1.33-2,2.08-3.3l.06-.1,0-.11a7.15,7.15,0,0,1-.58-2.84c0-4.51,3-7.19,7.75-10.05l.39-.23-.42-.18a11.57,11.57,0,0,1-5.05-4.47l-.37-.58-.06.68a15.2,15.2,0,0,1-2.45,7.56,1,1,0,0,1-.81.43.94.94,0,0,1-.56-.18,1,1,0,0,1-.25-1.37c2-2.85,2.21-6.32,2.21-9,0-1.3-.07-2.62-.13-3.9,0-.88-.09-1.7-.11-2.51a.43.43,0,0,0,0-.05.36.36,0,0,0,0-.1s0-.33,0-.37,0-.09,0-.13c0-6.4.75-12.14,9.77-12.14,6.73,0,14.76,3.14,14.76,18.12,0,1.61-.07,3.23-.13,4.81s-.11,3-.11,4.48v.21a1,1,0,0,1-1,1,1,1,0,0,1-1-1v-.23c0-1.49.06-3,.12-4.54v-.06c.06-1.54.12-3.14.12-4.69,0-10.87-4.18-16.15-12.79-16.15-6.48,0-7.64,2.72-7.78,8.82v.36l.33-.14a15.92,15.92,0,0,0,4.64-3,1,1,0,0,1,.67-.27h.1a1,1,0,0,1,.71.41,19.47,19.47,0,0,0,12.42,7.62,1,1,0,0,1-.19,1.95h-.18l-.3-.07-.25-.06-.2-.05-.07.2c-.74,2.09-2.44,5.9-5.5,7.85l-.49.31.57.12c5.59,1.08,8.42,4.29,8.42,9.56,0,1.18-.13,2.38-.24,3.55-.1,1-.2,1.93-.23,2.88a1,1,0,0,1-1,1h-.28l-.41,0v.25c0,.1,0,.21,0,.31s0,.29,0,.43c0,1.42-.07,2.85-.13,4.22s-.14,2.75-.14,4.08c0,6.66,2.65,9.66,2.68,9.69a1,1,0,0,1,.25.66c0,1.15-.85,2.69-3.23,3.22l-.21,0,0,.22c.41,3,.82,6.26,1.28,10.15a1,1,0,0,1-.24.78,1,1,0,0,1-.73.32h-2.37v.23c-.1,2.22-.29,5.4-.5,8.5l0,.18.17.06.14.05.16,0a11.08,11.08,0,0,1,6.22,5.71,10.31,10.31,0,0,1,.94,3.85C192,230.34,185.82,237.28,175.79,237.28ZM169,216.59c-2.85,1.35-6.25,4.08-6.25,9.39,0,3.81,4.65,9.34,13,9.34,8.81,0,14.27-5.92,14.27-11.41a8.26,8.26,0,0,0-.76-3,9,9,0,0,0-4.74-4.51l-.3-.13,0,.32c-.23,3.12-.58,7.3-.9,9.56l0,.22c-.11.92-.42,2.13-1.72,2.13a2.9,2.9,0,0,1-2.42-2.14,106.27,106.27,0,0,1-1.26-11.14V215h-.21l-.75,0-.87,0h-.21l0,.2a67.34,67.34,0,0,1-1.52,10.41l-.06.23c-.19.83-.5,1.62-1.39,1.62a3,3,0,0,1-2.81-2.57c-.28-1.86-.55-5.5-.73-8.08l0-.34Zm10.13-11.17c.13,1.49.28,3.47.44,5.57.37,5.06.84,11.34,1.42,14.43l.46,0c.59-4.45,1.27-15.15,1.5-19.89v-.25h-2.28a12.23,12.23,0,0,1-1.3-.08l-.28,0Zm-2.44,0c-.11,1.12-.23,2.52-.36,4.15v.07c-.08,1-.17,2.05-.26,3.1l0,.26h1.7l-.13-1.86c-.17-2.17-.32-4.23-.46-5.72Zm7.36-2.12h2.14l0-.27c-.4-3.26-.77-6.17-1.14-8.9l0-.18-.18,0c-3.08-.24-4.16-2.21-4.16-7.55a49.16,49.16,0,0,1,.33-5.12l0-.26h-5.43c-1,0-1.93,0-2.76,0h-.17l-.05.17a70.79,70.79,0,0,0-1.7,9c-.36,2.46-.75,5.23-1.48,8.65l0,.24.25,0a12.36,12.36,0,0,1,5.34,2.16,9.66,9.66,0,0,0,5.72,2l2.64,0h.73Zm1.47-32.39-1.7.05h-.23v.23c0,.86,0,1.81,0,2.17a56.71,56.71,0,0,1-.51,6.55,56.38,56.38,0,0,0-.51,6.48c0,5.35,1,5.61,2.87,5.61,2.08,0,2.69-.79,2.83-1l.08-.13-.09-.12c-.84-1.18-2.8-4.57-2.8-10.51,0-1.39.07-2.79.14-4.15s.14-2.78.14-4.15c0-.16,0-.32,0-.48v-.53Zm-17-1c-.53.84-1,1.54-1.4,2.14-.54.78-1.14,1.57-1.72,2.34-2.21,2.93-4.5,6-4.5,9.23a4.05,4.05,0,0,0,.08,1.12l.07.23.2-.08h.23a2.33,2.33,0,0,0,2.18-1.07,10.85,10.85,0,0,0,.38-1.36c.51-2.12,1.36-5.66,5.86-10.25l.11-.12-.06-.14a21.75,21.75,0,0,0-1-2l-.2-.34ZM172.1,172c.12.32.27.74.4,1.22.08.28.16.56.25.85a9.39,9.39,0,0,1,.54,4.75l-.07.29h.3l2.29,0h3.28l1.95,0h.2l0-.2a46.61,46.61,0,0,0,.41-5.48c0-.74,0-1.47,0-2.07v-.23h-.33a1,1,0,0,1-.7-.28,1,1,0,0,1-.29-.75c.06-1.27.09-2.54.11-3.77s.05-2.46.11-3.68a1,1,0,0,1,1-.94h.05a1,1,0,0,1,.94,1c-.06,1.24-.09,2.51-.11,3.63q0,1.23-.06,2.49v.25l.25,0c1.3-.06,2.48-.1,3.6-.1h1.31l0-.22c.05-.61.11-1.21.17-1.8a33.1,33.1,0,0,0,.23-3.35c0-5.44-3.27-7.83-10.93-8h-.07l-.06,0c-5.84,3.34-7.82,5.6-7.82,9a7.53,7.53,0,0,0,1.42,4,21.24,21.24,0,0,1,1.65,3.38Zm2.4-33.65a18.46,18.46,0,0,1-5.12,2.8l-.16.06v.17c.21,3.58,2.6,11.43,8.39,11.43,4.26,0,6.69-5.75,7.33-7.51L185,145l-.23-.07a21.55,21.55,0,0,1-2.84-1.12l-.37-.17,0,.4s0,.07,0,.1a1,1,0,0,1-1,1,1,1,0,0,1-1-1,1,1,0,0,1,.56-.89l.36-.19-.35-.22a20.08,20.08,0,0,1-5.32-4.52l-.14-.18Z"/><path class="cls-1" d="M173,145.18a1,1,0,1,1,1-1A1,1,0,0,1,173,145.18Z"/><path class="cls-1" d="M176.59,149.85a2.81,2.81,0,0,1-2.89-2.36l4.89.92A2.23,2.23,0,0,1,176.59,149.85Z"/><path class="cls-1" d="M154.76,110.06c-9,0-14.95-6.33-14.95-10.52,0,0,0-.13,0-.16.2-5,3.35-8.95,8.65-10.94l.16-.06v-.16c-.12-3.89-.19-9.12-.27-15.06,0-2.43,0-4.69.12-6.92V66l-.21,0a1,1,0,0,1-.88-1c0-2,.18-4.11.33-6.11s.29-4,.33-6c0-.55.06-1.11.11-1.65l.05-.62-.44.42a14.64,14.64,0,0,0-2.34,2.9c-.75,1.16-1.4,2.16-3,2.18-1.34,0-2.76-1.18-2.78-3.35,0-2.8,2.11-5.13,4.13-6.37a12.7,12.7,0,0,0,3.3-3.26l.32-.45a10.32,10.32,0,0,1,1-1.2l.09-.1,0-.13a20.82,20.82,0,0,0-1.74-3.92,2.25,2.25,0,0,1-.41-1c0-2.49,2.28-4.21,4.51-5.88s4.61-3.44,5-6l0-.23-.23,0c-5-.68-6.76-3.09-6.85-9.52,0-.95,0-1.94.05-2.82v0c0-.88.06-1.78.05-2.67l0-.78c0-.69-.08-1.19-.08-1.23a6.22,6.22,0,0,1,1.89-4.1c1.81-1.87,4.69-2.88,8.32-2.93h.64c3.8,0,6.71.43,8.51,2.55s2.45,5.43,2.53,11.52c.11,8.61-1.29,10-4.31,11.06l-.39.14.06.45h.16a6,6,0,0,1,5.25,3,11.15,11.15,0,0,1,1.57,5.64,67.77,67.77,0,0,1-.71,8.39,1,1,0,0,1-1,.78l-1.15,0,0,.18a14.29,14.29,0,0,0-.41,3.53c0,2.67,1.08,7.12,5.87,13.16.34.42.48.59.48,1a2.82,2.82,0,0,1-1.61,2.46,5.55,5.55,0,0,1-2.61.73,6.39,6.39,0,0,1-3-1l-.3-.18-.05.34c-.08.59-.15,1.17-.22,1.75a1,1,0,0,1-.87.85l-.21,0v.52c0,.16,0,.32,0,.47a141.3,141.3,0,0,1-1.61,21.36l0,.19.18.06A13.83,13.83,0,0,1,169.37,91c2.2,1.76,2.91,5.18,2.91,6.56C172.28,103.32,164.63,110.06,154.76,110.06ZM148.39,90.6c-2.9,1.26-6.41,3.83-6.61,8.87,0,1.65,1.39,3.79,3.54,5.48a15.37,15.37,0,0,0,9.44,3.15c9,0,15.55-6.32,15.55-10.58,0-1.11-.65-3.81-2.17-5a11,11,0,0,0-2.71-1.57l-.28-.11,0,.29c-.28,1.91-.57,3.82-.87,5.75-.45,2.9-1.34,4.38-2.62,4.39-2.63,0-2.91-3.67-3.05-5.44,0-.26,0-.48,0-.65-.24-1.89-.46-3.79-.67-5.8l0-.2h-.2c-.5,0-1-.06-1.53-.06h-.75l0,.15a71.6,71.6,0,0,1-2.66,7.53.78.78,0,0,1-.16.24l0,0,0,0c-.63,1.7-1.13,2.62-2,2.62a.93.93,0,0,1-.23,0c-1.22-.2-1.24-2-1.26-3.4,0-.23,0-.46,0-.69V95c0-.15,0-.29,0-.43-.09-1-.17-2.22-.24-3.8v-.34Zm10.25-24.23c0,1.67,0,3.15,0,4.53a215.47,215.47,0,0,0,1.85,24c0,.19,0,.44.07.74a8.21,8.21,0,0,0,.68,3.38l.22.33.18-.36a9.12,9.12,0,0,0,.68-2.46c1.55-9.94,2.93-19.66,2.8-29.24,0-.18,0-.36,0-.54v-.53h-.22c-2,0-4-.08-6-.08h-.23Zm-8.2-.08c-.12,2.2-.16,4.44-.12,6.84.14,10.8.25,17.61.58,21.19l0,.5.4-.4v0a1,1,0,0,1,.25-.32l0,0,0-.06c.83-2.25,1.92-5.76,3.19-9.82q.92-2.92,2-6.44v-.08c-.13-2.4-.21-4.59-.24-6.69,0-1.38,0-2.87,0-4.56v-.23h-.23c-1.94,0-3.88,0-5.77-.06h-.22ZM156,87.12h.31c.36,0,.71,0,1.07,0h.27l0-.26c-.09-.91-.17-1.8-.25-2.68l-.45,0Zm1.71-23h.06l.1,0c3.06,0,5.59,0,8.22.11h.22l0-.21c.09-.67.19-1.33.29-2l0-.23-.08-.08,0,0a14,14,0,0,1-3.49-9v-.22h-.54c-3.79,0-7.59-.21-11.26-.41L150.07,52v.23c0,.09,0,.17,0,.26l0,.42c0,2.05-.18,4.12-.33,6.12-.11,1.58-.23,3.22-.29,4.82v.23h.24c2.62.08,5.23.08,7.76.08h.09l.08,0Zm7.46-20.39c0,1.28,0,2.62-.1,3.93s-.13,2.71-.11,4c.06,4.57,1.65,7.22,3,8.64a6.38,6.38,0,0,0,3.78,2.18,3.48,3.48,0,0,0,1.66-.46,1.83,1.83,0,0,0,.45-.34l.13-.15-.12-.15c-5-6.41-6.14-11.26-6.18-14.21a16.43,16.43,0,0,1,.36-3.54l.06-.27h-.28c-.74,0-1.47,0-2.21,0h-.43Zm-16.71.8a14.13,14.13,0,0,1-3.65,3.52c-1.49.91-3.22,2.68-3.2,4.66,0,1,.47,1.4.78,1.41.54,0,.71-.2,1.41-1.28a16.59,16.59,0,0,1,3.72-4.23l.56-.47a.9.9,0,0,1,.38-.28l.12,0,0-.13c.16-1.23.25-2.16.28-3l0-.73Zm2.37.59c-.06,1.24-.23,2.47-.39,3.66,0,.2-.06.4-.08.59l-.08.66,1,.05c4,.22,7.54.4,11.14.4H163v-.23c0-.84,0-1.74.09-2.68.06-1.34.12-2.6.11-3.82,0,0,0-.22,0-.22v-.17l-.15,0a.91.91,0,0,1-.68-1c0-.76,0-1.6,0-2.55,0-.71,0-1.41,0-2.12s0-1.42,0-2.14a1,1,0,0,1,.28-.7,1,1,0,0,1,.69-.29,1,1,0,0,1,1,1c0,.7,0,1.4,0,2.11s0,1.43.05,2.14c0,.46,0,.92,0,1.38v.24h.73c1.62,0,3.22.05,5.12.13h.21l0-.21c.29-2.22.51-6.15.5-6.93a9.22,9.22,0,0,0-1.26-4.62,4,4,0,0,0-3.5-2.09h-.07a8.21,8.21,0,0,1-1.28-.14,9.85,9.85,0,0,0-1.23-.13,1.34,1.34,0,0,0-.38,0,.81.81,0,0,1-.31.06h-.19l-.07.09c-2.13,2.71-3.9,7.94-5.4,16-.19,1.08-.6,3.31-2.44,3.33h-.09a3.81,3.81,0,0,1-2.85-1,3,3,0,0,1-.59-.88ZM160,2h-1.09c-7.83.11-8.27,4.91-8.27,5V7s0,.33.06.76v.08l.05.06a28.41,28.41,0,0,0,13,8.69,1,1,0,0,1,.65.72,1,1,0,0,1-.29.93c-3.84,3.63-11.32,14.34-11.21,22.59,0,.31,0,.65,0,1,0,1.1-.08,2.23.42,2.74a2,2,0,0,0,1.39.41h.12l.07-.1a5,5,0,0,0,.44-1.5l0-.13c3.27-17.58,7.34-19,10.31-20,2.08-.7,3.08-1.39,3-9.16C168.44,3.47,166.62,2,160,2Zm-8,30c-1.81,1.35-3.53,2.63-3.7,4v.07l.16.3a21.7,21.7,0,0,1,2,4.83l.45-.05v-.31a23.7,23.7,0,0,1,2-9l.31-.77Zm-1.26-20.1c0,.88-.06,1.78,0,2.68.08,6.53,1.81,7.62,7.33,7.77h.12l.08-.1a47,47,0,0,1,3.22-4.07l.23-.24-.31-.13a31.76,31.76,0,0,1-7.47-4.24l-.3-.23-.07.38a1.18,1.18,0,0,1-1.19,1c-.64,0-.95-.37-.95-1.13a.74.74,0,0,1,.28-.66,1.8,1.8,0,0,1,.55-.24l.43-.1-.33-.3-.38-.32c-.26-.23-.54-.47-.78-.71l-.38-.38Z"/><path class="cls-1" d="M155,19.74c-1.15,0-2.43-.81-2.43-2,0,0,4.84-.11,4.84-.11A3.12,3.12,0,0,1,155,19.74Z"/><path class="cls-1" d="M49.19,22.38c-.88,0-2.25-.41-2.49-1.49l4.5.06C50.59,22.12,50.28,22.38,49.19,22.38Z"/><path class="cls-1" d="M52.66,105.21C43.73,105.21,37,99.08,37,95.12c0-3.55,3.06-8.41,8.92-10.85l.16-.07V84c-.29-4.82-.48-10.07-.61-13.91V70c-.05-1.42-.09-2.64-.13-3.59v-.2l-.36,0a1,1,0,0,1-.7-.36,1,1,0,0,1-.21-.76c.72-4.92,1.21-12.34,1.39-16l0-.67-.45.51a29.77,29.77,0,0,0-2.39,3.33c-.94,1.46-1.33,2.06-2.09,2.06a3.7,3.7,0,0,1-3.43-3.67c0-2.22,1.71-3.41,3.35-4.56s3.28-2.29,4.1-4.53l.07-.09,0-.09,0-.1A20.7,20.7,0,0,0,42,36.34,1,1,0,0,1,42.25,35a15.63,15.63,0,0,0,3.92-3.7l.29-.4c.94-1.35,2-2.87,3.74-3.39l0-.45a9.18,9.18,0,0,1-7.53-5.44l-.23-.49-.2.5a14.55,14.55,0,0,0-1,5.18c0,1.38,0,2.11-.9,2.25h-.15a1,1,0,0,1-1-.69c-.22-.65-.79-15.13,5.87-21.18A1.38,1.38,0,0,1,45.22,7a10.36,10.36,0,0,1,.87-.65l.44-.29L46.64,6l.43-.26.11,0a8.52,8.52,0,0,1,3.8-.9c4.54,0,12.22,3.71,12.22,17.64,0,1.62-.09,3.24-.15,4.31v.13l.1.07c1.61,1.2,2.42,3.52,2.42,6.87,0,1.11-.09,2.19-.17,3.24s-.17,2-.17,3v.19a1,1,0,0,1-.33.75,1,1,0,0,1-.66.25h-.12l-1.32-.13-.27,0,0,.22a31,31,0,0,0-.35,4.49c0,4.76,2.15,9.43,3,11.19.32.71.38.85.38,1.11a4.27,4.27,0,0,1-3.74,4.34l-.21,0,0,.72c0,.53,0,1,0,1.57l0,.49,0,0a1,1,0,0,1,.17.48c0,1,.06,2.44.11,4.13.12,4.06.29,9.61.3,14.6v.16l.15.06c3.1,1.19,7.21,3.33,7.21,8.07C69.62,99.79,60.5,105.21,52.66,105.21ZM45.91,86.44C41.12,88.75,39,92.91,39,95.12c0,2.7,5.92,8.12,13.69,8.12,8.3,0,15-5.7,15-10.43,0-2.54-1.56-4.35-5.07-5.88l-.32-.14v.35a51,51,0,0,1-.54,8.6,1,1,0,0,1-.85.76h-.11a1,1,0,0,1-.88-.55c-.77-1.57-1.59-5-2.5-10.57l0-.16-.15,0a19.51,19.51,0,0,0-3.83-.38c-.71,0-1.41,0-2.11.11l-.18,0,0,.18c-.55,5.67-1.15,9.21-1.82,10.83a1,1,0,0,1-.9.61h-.06a1,1,0,0,1-.89-.7,54.8,54.8,0,0,1-1.15-9.25l0-.34Zm1.4-19.87c0,1,.08,2.12.12,3.49v.07c.17,4.84.43,12.17.87,17.85h.46c.54-4.56.95-10.31,1.26-14.5.19-2.62.37-5.09.53-6.73l0-.24-.24,0-2.79-.17-.26,0Zm9.39.52c.26,1.6.56,3.84.92,6.42v.06C58.24,78,59,83.47,59.82,88l.47,0c.07-5.74-.15-13.09-.3-18,0-1.08-.06-2-.08-2.87v-.22h-.22c-.92,0-1.83,0-2.75-.06h-.28ZM53.4,82.85a21.32,21.32,0,0,1,3.31.25l.31.05L57,82.84c-.47-3.06-.92-6.36-1.29-9s-.74-5.33-1-6.93l0-.18h-.19l-1.68-.08h-.22l0,.22c-.17,1.61-.35,4.12-.54,6.78s-.44,6-.7,9.05l0,.27.28,0C52.15,82.87,52.78,82.85,53.4,82.85Zm2.31-35.14a74.82,74.82,0,0,0-8.06.55l-.2,0v.2c-.14,3-.58,10.21-1.26,15.54l0,.25.67,0c4.11.26,8.36.54,12.61.61h.24v-.24c0-.78-.06-1.56-.08-2.34v-.13l-.11-.06C57.31,61,57.28,56.86,57.24,50.6c0-.82,0-1.71,0-2.64v-.22H57ZM59,41.14c.15,3.77.17,7,.18,9.44,0,6.91.14,10,1.86,10a2.36,2.36,0,0,0,2.46-2.22v-.06l-.2-.44c-.86-1.86-3.14-6.81-3.14-12a34,34,0,0,1,.35-4.61l0-.25h-.25l-.71,0-.59,0ZM45,44.7a15.57,15.57,0,0,1-3.43,3c-1.65,1.15-2.51,1.81-2.51,2.95a1.9,1.9,0,0,0,1,1.56l.18.1.12-.17c.19-.27.42-.63.63-1a21,21,0,0,1,4.42-5.33l.1-.07v-.12c0-.29,0-.57-.06-.85l-.06-.57Zm6.49-15.42c-1.45,0-2.31,1.07-3.45,2.71l-.29.42a16.85,16.85,0,0,1-3.45,3.47l-.17.14.12.17a18.48,18.48,0,0,1,3.21,9.86v.25l.25,0a75.32,75.32,0,0,1,8-.53l1.23,0h.24v-.24c0-1.54-.07-3-.13-4.46v-.22H55.73a1,1,0,0,1-1-.83,4.84,4.84,0,0,1-.06-.78,10.73,10.73,0,0,1,.16-1.64A8.68,8.68,0,0,0,55,36.22a2.45,2.45,0,0,0,0-.48,1,1,0,0,1,.18-.73,1,1,0,0,1,.65-.39H56a1,1,0,0,1,1,.83,4.93,4.93,0,0,1,.06.78,11,11,0,0,1-.17,1.65c0,.26-.08.5-.11.74l0,.26h.25c2.29,0,4.28.12,6.1.3l.25,0v-.25c0-.67.08-1.35.14-2,.08-1,.16-2.08.16-3.1,0-2.92-.64-4.77-1.92-5.5a.43.43,0,0,1-.14-.08A3.54,3.54,0,0,0,60,28a4.57,4.57,0,0,0-1.85.42,1,1,0,0,1-1.3-.48,1,1,0,0,1,.48-1.3A6.34,6.34,0,0,1,60,26a7,7,0,0,1,.91.06l.25,0v-.25c.07-1.32.1-2.4.1-3.39C61.23,11.62,56.08,6.77,51,6.77a6.59,6.59,0,0,0-3.25.88c-.16.09-.31.19-.46.29l0,0-.4.28c-2.1,1.66-3.67,4.49-4.67,8.42l.41.2a16.07,16.07,0,0,1,8-6,.92.92,0,0,1,.29,0,1,1,0,0,1,.81.42c1.91,2.71,2.76,6.29,2.76,11.63a50.92,50.92,0,0,1-.65,7.61,1,1,0,0,1-1,.83h-.15A1,1,0,0,1,52,31a1,1,0,0,1-.18-.73c0-.13,0-.26,0-.39L52,29.3l-.25,0ZM45.45,16.45a15.66,15.66,0,0,0-1.71,2.15l-.06.09,0,.1c.74,2.9,2.71,6.36,7.85,6.36l.38,0,.23,0h.21v-.21c0-.75.06-1.4.06-2,0-4.37-.6-7.45-1.9-9.71l-.1-.18-.18.08a13.75,13.75,0,0,0-4.14,2.67l.26.38a.6.6,0,0,1,.24-.06c.4,0,1,.35,1,.87a.91.91,0,0,1-1,1,.94.94,0,0,1-.95-.89.74.74,0,0,1,.09-.32Z"/><path class="cls-1" d="M98.46,76.37A1.68,1.68,0,0,1,97,74.67a1.9,1.9,0,0,1,.69-1.45.87.87,0,0,1,.52-.26c.79,0,2.09.89,2.09,1.83A2.08,2.08,0,0,1,98.46,76.37Z"/><path class="cls-1" d="M110.07,75.43a1.45,1.45,0,0,1-1.37-1.53,1.27,1.27,0,0,1,1.08-1.36H110a1.42,1.42,0,0,0,.31,0,2,2,0,0,1,1,.39,1.21,1.21,0,0,1,.46,1A1.56,1.56,0,0,1,110.07,75.43Z"/><path class="cls-1" d="M104.36,89.16a6.81,6.81,0,0,1-6-3.39c.56,0,1.13,0,1.7,0a26.13,26.13,0,0,0,8.69-1.27c0,.12,0,.24,0,.35C108.76,87.6,107.16,89.16,104.36,89.16Z"/><path class="cls-1" d="M102.7,232.94c-20,0-29-11.54-29-19.74,0-7.43,4-13.92,11.32-18.25l.12-.07v-.14c-.31-5.55-.51-10.21-.51-14.91,0-3.57.13-6.87.39-10.11l0-.3-.3.05a6.83,6.83,0,0,1-1.31.13c-5.09,0-7.41-5-7.41-9.67a.94.94,0,0,1,.07-.37c0-.07,2.57-6.69,2.57-21.41,0-2.54,0-5.12,0-7.62l0-1.7c0-.14,0-1,0-1h-.24c-1.34,0-2.44.05-3.48.08a1,1,0,0,1-.71-.27,1,1,0,0,1-.3-.7c0-1.59-.09-3.23-.15-4.81-.08-1.89-.16-3.82-.16-5.72,0-12.23,3.29-20.81,19.39-22.9l.5-.07L93,93.16a28.8,28.8,0,0,1-7-10L86,83.09l-.13,0c-3.37-.35-5.64-2.61-5.64-5.62a4.39,4.39,0,0,1,3.1-4.16l.19-.07,0-.2a47.79,47.79,0,0,1-1.75-11.57c0-10.14,5.82-15.07,17.81-15.07a40.37,40.37,0,0,1,14,2.6,18.64,18.64,0,0,0,5.66,1.35,13.76,13.76,0,0,0,6.32-1.65,1,1,0,0,1,.46-.11,1,1,0,0,1,.54.16,1,1,0,0,1,.44.91c-.42,5-3.31,8.49-8.57,10.38l-.16,0v.18c.2,2.88.39,6.29.39,9.64,0,16.49-3.71,21.56-6.94,24.14l-.33.27.4.13c7,2.33,10.78,7.67,10.78,15.45,0,0,0,.26-.09,1.4-.16,2.42-.54,8.1-.79,13.87v.11l.08.07c.55.51,1.09,1,1.63,1.55,15,14.51,16.9,16.79,16.9,20.34a6.56,6.56,0,0,1-6,6.29c-3.35,0-4-2.64-4.67-5.2s-1.27-5-4-6.48c-1.07-.59-2.25-1.25-3.71-2.08l-.36-.21V140c.13,4,.39,7.56.79,11a.93.93,0,0,1-.27.79,1,1,0,0,1-.7.3h-.08l-2.24-.19v.26c0,2.55.07,5.22.07,8.16,0,3.48,0,7-.06,10.44v.15c0,3.26-.06,7-.06,10.58,0,4.07,0,7.66.13,10.95v.15l.13.06c9.83,4.19,15.7,11.7,15.7,20.09C134.92,227.55,115.65,232.94,102.7,232.94ZM84.89,197.33c-6,3.93-9.27,9.57-9.27,15.87,0,7.38,8.4,17.77,27.08,17.77,12.16,0,30.25-4.86,30.25-18.26,0-7.35-4.9-13.85-13.45-17.83l-.34-.16v.38c.09,2.39.21,4.63.36,6.86a1,1,0,0,1-.91,1c-1.28.09-2.64.15-4.16.19h-.33l.12.3c1.07,2.81,3.45,3.76,6,4.76a12.1,12.1,0,0,1,4.86,2.86,1,1,0,0,1,.17,1,1,1,0,0,1-.87.6c-2.3.09-4.6.1-6.55.1h-3.95c-3.74,0-6.89.05-10.05.3h-.08a1,1,0,0,1-1-.9c-.23-2.85-.46-5.91-.53-9v-.22L99.76,203v.25c.08,2.87.28,5.79.47,8.51a1,1,0,0,1-.28.75,1,1,0,0,1-.7.3l-1.74-.09c-2.45-.13-5-.26-7.48-.26h-.55a.94.94,0,0,1-.67-.39,1,1,0,0,1-.18-.84c.56-2.26,1.16-4.52,1.74-6.7l.46-1.73h-.31c-1.53,0-2.81,0-4,.07a1,1,0,0,1-1-.93l-.21-3.81-.06-1Zm19.32,6c.06,2.29.19,4.75.42,7.53v.23l.23,0c3-.19,6.12-.21,9-.21h6.37l.09-.45-.85-.33c-2.73-1.09-6.13-2.45-7.34-6.69l0-.17h-1c-1.45,0-2.9,0-4.25-.06h0l-2.33-.05h-.25Zm-11.94,1.72q-.69,2.55-1.34,5.11l-.08.28h.3c2.18,0,4.37.15,6.48.26l.57,0,0-.26c-.19-2.73-.31-5.14-.37-7.38v-.22h-.22c-1.5,0-3-.08-4.53-.1h-.18Zm15.25-53.91c0,4.61-.13,9.32-.24,13.36-.12,5-.25,10.11-.25,15.19,0,6.4.5,17.91.65,21.29v.22l.9,0,2.49,0c2.25,0,4.27-.05,6.19-.16h.23v-.23c-.15-2.41-.26-4.9-.35-7.64-.11-3.56-.16-7.41-.16-11.78,0-3.44,0-6.93.06-10.31v-.29c0-3.44.07-7,.07-10.57,0-3,0-5.79-.08-8.38v-.21l-1.18-.1c-2.58-.22-5.34-.45-8.08-.66l-.25,0ZM101,201.05l4.46.14h.25l0-.25c-.15-3.37-.63-14.84-.63-21.23,0-5.07.12-10.22.25-15.2.11-4.35.21-9,.24-13.53v-.21l-.22,0c-5.16-.36-9.65-.53-13.71-.53H89.48v.23c0,1.84.06,3.32.06,4.67,0,2.2,0,4,0,5.54,0,1.69-.1,5.63-2.4,7.64l-.07.06v.09c-.34,3.57-.5,7.28-.5,11.35,0,6,.34,12,.67,17.85l.18,3.19h.23c1,0,2.08,0,3.22,0,2.72,0,5.5.08,7.85.16h.07ZM80.49,127.86s0,.81,0,1v1.6c0,2.53,0,5.15,0,7.74,0,13.94-2.18,20.7-2.62,21.91v.09c.06,2.78,1.27,7.49,5.44,7.49,3.36,0,4.1-2.79,4.17-7,0-1.53,0-3.32,0-5.51,0-5-.22-10.08-.43-15-.16-3.65-.33-7.9-.39-12.07v-.22H80.49Zm41,.53c-.08,2.34-.12,4.38-.12,6.06,0,.69,0,1.35,0,2l0,.77.11.07c1.83,1.06,3.45,2,5,2.79,3.51,1.9,4.36,5.27,5,7.72s1,3.73,2.76,3.73a4.68,4.68,0,0,0,4-4.33c0-2.72-2.29-5.37-16.3-18.92l-.41-.39Zm-14.94,20.49c3.15.23,6.26.49,9.44.76l.63.06,3.28.28.28,0,0-.28a145.91,145.91,0,0,1-.75-15.27c0-7.69.79-19.44,1-23.3V111c0-.64.07-1.05.07-1.14,0-6.84-2.87-11.2-8.78-13.36l-.39-.14.08.41a10.61,10.61,0,0,1,.24,2.2c0,5.09-3.6,6.16-6.62,6.16a13.85,13.85,0,0,1-12.64-9.35l-.06-.18-.2,0c-13.94,2.09-16.74,9.52-16.74,20.83,0,1.85.08,3.77.16,5.62v.09c0,1.19.1,2.38.13,3.56V126H76l3.44-.06h8v-1.23c0-1.58,0-3.16,0-4.73,0-4,.08-7.08.25-10a1,1,0,0,1,1-.92h0a.93.93,0,0,1,.68.33,1,1,0,0,1,.25.71c-.18,2.87-.25,5.92-.25,9.87,0,1.57,0,3.14,0,4.72l0,2.21a1,1,0,0,1-.56.88l-.14.07V128c.06,4.13.24,8.42.4,12.11.11,2.55.22,5.27.3,8v.23h.23l2,0c4.39,0,9.11.2,14.86.61Zm-11-53.7a.93.93,0,0,1-.34.1l-.33,0-.52,0,.11.29a11.75,11.75,0,0,0,10.6,7.53c3.26,0,4.66-1.26,4.66-4.2a12,12,0,0,0-.51-3.09l0-.13-.3-.07-.07,0A16.73,16.73,0,0,1,102.17,97a12.61,12.61,0,0,1-6.38-1.79l-.11-.06ZM86.14,74.76c-.66,0-4,.13-4,2.69s2.25,3.67,4.48,3.7a1,1,0,0,1,.9.61C90.18,88.16,95.4,95,102.17,95c10.42,0,14.49-7,14.49-25.11,0-3.2-.19-6.47-.36-9v-.27l-.27.06a42.6,42.6,0,0,1-10,1c-2.78,0-5.5-.16-7.57-.3h-.21l0,.21C97.33,67.74,93.62,72,86.9,74.71a1.12,1.12,0,0,1-.38.07h-.38ZM99.49,48.34c-11,0-15.84,4-15.84,13.11a46.61,46.61,0,0,0,1.71,11.2l0,.19h.19l.22,0,.32,0h.24l.05,0c5.86-2.4,9-6,9.82-11.31l0-.25-.94-.07L92.43,61a1,1,0,0,1,.08-2h0l2.61.18.32,0c3.23.24,6.9.51,10.55.51,11,0,16.93-2.56,18.55-8.05l.13-.44-.43.16a15.45,15.45,0,0,1-5.1.92,20.31,20.31,0,0,1-6.29-1.44A38.49,38.49,0,0,0,99.49,48.34Z"/><path class="cls-1" d="M211.41,127.78h-.89A29.13,29.13,0,0,1,199,124.64c-3-1.56-6.48-4.26-6.33-8.23.16-4.53,2.77-8.3,7.36-10.6l.13-.06s0-2,0-2.45c.05-2.17.1-4.75.12-7.38v-.21l-.21,0c-1.86-.21-3.81-1.93-3.7-5.21,0-.77.14-1.55.24-2.3a20.64,20.64,0,0,0,.21-2.08s0-.33,0-.33l-.14-.07a.89.89,0,0,1-.32-.21,1,1,0,0,1-.28-.72l0-.68c.14-4,0-7.9-.18-11.38-.11-2.5-.21-4.65-.15-6.23.16-4.39,1.25-7.57,3.34-9.71a10.09,10.09,0,0,1,3.61-2.33l.15-.06v-.16c0-1.31,0-2.59,0-3.81v-.1l-.07-.07C199,46.55,197.9,40.29,198,38a9.67,9.67,0,0,1,2.64-6.38,10.3,10.3,0,0,1,7.67-3h.53a15.32,15.32,0,0,1,7.06,2.05A7.75,7.75,0,0,1,220,37.84c-.08,2.19-1.22,5.09-2.31,7.88l-.12.3v0c.05,1.4,0,2.8,0,4.36s0,3.47,0,5.24v.11l.08.06c3.68,3,4,8.53,3.81,13,0,.49-.05,1-.08,1.48v.1l.07.08c2,2.1,3.7,3.67,4.82,4.71,2.68,2.5,4.17,3.88,4.08,6.27a3.77,3.77,0,0,1-4,3.43h-.15a1,1,0,0,1-.71-.33,38.1,38.1,0,0,0-4.76-4.27l-.34-.26,0,.43c-.1,1.06-.15,1.87-.17,2.62,0,.43,0,.85,0,1.28a1,1,0,0,1-.34.74,1,1,0,0,1-.64.21H219l0,.22-.16,2.37c-.34,5-.69,10.08-.87,15.13l0,1,.19,0a24.57,24.57,0,0,1,3,.83c2.38.85,5.35,2.13,7.21,4.51a8.53,8.53,0,0,1,1.91,5.56c-.1,2.87-2.23,6.19-5.56,8.66A22.19,22.19,0,0,1,211.41,127.78Zm-11.66-19.6a9.81,9.81,0,0,0-5.13,8.3c-.18,5.07,9.42,9.09,16,9.32l.84,0a20.22,20.22,0,0,0,12-3.77c2.82-2.09,4.69-4.9,4.77-7.15a6.58,6.58,0,0,0-1.51-4.28c-1.2-1.55-3.15-2.74-6.31-3.87a20.13,20.13,0,0,0-2.26-.65l-.28-.07v.29c0,2.6,0,5,0,7.34v.12l.11.07a10.68,10.68,0,0,1,3.69,4.2,1,1,0,0,1,0,1,1,1,0,0,1-.83.48c-2.42,0-4.53.11-6.35.16-2.38.06-4,.1-5.49.11h-.19l-.09,0h-.33c-3.66,0-5-.29-5.77-1.23s-.6-1.83-.21-3.49l.07-.29-1.46,0a1,1,0,0,1-.64-.28,1.06,1.06,0,0,1-.3-.7c0-1.61,0-3.33,0-5.43V108Zm6.64,6.55H204.5l-.05.18a5.42,5.42,0,0,0-.33,2.35l0,0,0,0c.22.23.78.44,3.36.47h.23v-.39c0-.58.08-1.16.14-1.73,0-.15,0-.29,0-.44l.05-.51Zm3.54.43c0,.25,0,.49-.07.74V116c-.06.5-.11,1-.13,1.52v.24l.25.07c1.32,0,2.82-.06,4.46-.11h.07l4.12-.1.46,0-.28-.36a5.93,5.93,0,0,0-2.69-2.09,1.82,1.82,0,0,1-.31-.16l-.05,0-.47,0-.86,0c-1.23-.05-2.58-.08-4.24-.1H210Zm.86-25a1,1,0,0,1,1,.92,149.86,149.86,0,0,1,0,15.58l-.07,1.94c-.05,1.33-.08,2.67-.12,4v.23h.24l2.7.08,1.39.06v-.25c-.05-3,0-6.21.11-9.75.18-5.1.53-10.23.87-15.2l.18-2.68-.22,0c-2.95-.33-5.88-.55-9.14-.79l-2-.15V85a.65.65,0,0,1,0,.28,1,1,0,0,1-1,1l-.36,0-.46,0,0,1.3a27.92,27.92,0,0,1-.53,4.54,7.72,7.72,0,0,1-1,2.53l0,.06v.07c0,2.88-.07,5.78-.13,8.59-.06,3-.13,6.16-.12,9.26v.23h.23l4,0c1,0,2.05,0,3.05,0h.23v-.23c0-1.35.08-2.7.13-4l.07-1.94a151.64,151.64,0,0,0,0-15.38,1,1,0,0,1,.24-.72,1,1,0,0,1,.68-.33Zm-12-4c0,.78-.13,1.55-.23,2.3s-.2,1.45-.22,2.11a3.72,3.72,0,0,0,.58,2.37,1.9,1.9,0,0,0,1.5.85h.08l.06-.05c.44-.31,1.15-2.52,1.28-6.27l0-1.33-.22,0-.33,0c-.85-.08-1.6-.13-2.3-.18h-.24Zm10.25-30.77c-3.9,0-6.68.9-8.5,2.77s-2.65,4.53-2.78,8.41c-.06,1.5,0,3.62.14,6.07.14,3.18.31,7.13.2,11v.23h.23c1.07,0,2.14.14,3.18.23.65.06,1.28.12,1.9.16l.24,0V83c0-2.32.09-4.65.15-6.9V76c.1-3.67.19-7.42.17-11.1a1,1,0,1,1,2,0c0,3.71-.07,7.48-.16,11.11-.05,2-.1,4-.13,6v.22l2.15.16c3.33.24,6.78.49,10.17.9l.25,0V83c.09-2.4.37-4.82.64-7.16s.55-4.72.64-7.06c.33-9.5-2.24-13.13-9.49-13.38C209.71,55.36,209.39,55.36,209.07,55.36ZM221.13,73.5c-.09.85-.19,1.7-.28,2.54l-.2,1.71.11.08a46.76,46.76,0,0,1,5.84,5l.08.08.12,0a1.7,1.7,0,0,0,1.61-1.49c.05-1.43-.8-2.28-3.46-4.76-1-1-2.13-2-3.42-3.28l-.35-.35Zm-12-20.11,1,0a15.27,15.27,0,0,1,5.16,1l.32.14V54.2c0-1.19,0-2.43,0-3.69v-.34l-.32.12a2.18,2.18,0,0,1-.76.14,3.14,3.14,0,0,1-1.28-.31,3.79,3.79,0,0,1-1.91-2l4.28.65v-.27c0-6.09-.36-10.76-5.18-10.93h-.15c-2.34,0-4.9,2.06-5,5.87a1,1,0,0,1-.54.86l-.5.24c-1.15.54-1.56.81-1.59,1.7s.8,1.57,1.63,1.91a1,1,0,0,1,.61.89c0,.13,0,.76,0,.76,0,1.15,0,2.39,0,3.68v.28l.28,0A20.84,20.84,0,0,1,209.11,53.39Zm-.85-22.77c-6.35,0-8.21,4.68-8.31,7.45a17.27,17.27,0,0,0,1.19,5.83l.13.35.25-.27a5.47,5.47,0,0,1,1.67-1.11l.12-.06v-.13c.52-4.84,4-7,7-7h.19c3.4.13,5.42,1.81,6.38,5.3l.2.76.24-.75a12.23,12.23,0,0,0,.68-3.17,5.81,5.81,0,0,0-3.14-5.38,13.37,13.37,0,0,0-6.1-1.76Z"/><path class="cls-1" d="M210.52,45a1,1,0,0,1-.9-.91.71.71,0,0,1,0-.2,1,1,0,0,0,.07-.35c0-.18.25-.36.49-.43a1.84,1.84,0,0,1,.49-.1c.43,0,.77.55.77,1A1,1,0,0,1,210.52,45Z"/><path class="cls-1" d="M27.81,222.13a26.89,26.89,0,0,1-15.49-4.56c-3.74-2.66-6.11-6.25-6.18-9.36,0-1.19.37-5,2.47-6.9a25.24,25.24,0,0,1,8.7-5l.17-.05,0-.18c-.11-1.62-.19-2.91-.26-4.11v-.21h-.55l-1.42,0a1,1,0,0,1-1-1c.48-8.63.64-15.7.49-22.26,0-.74,0-1.48-.09-2.23l0-.59-.36.3c-1.06.89-2,1.75-3,2.54-2,1.75-2.07,1.8-2.52,1.81H8.71A5.08,5.08,0,0,1,5.6,169.1a4.89,4.89,0,0,1-1.78-3.69,4.82,4.82,0,0,1,3.87-4.95,11.48,11.48,0,0,0,6.38-3.64l.07-.07s0-.37,0-.5l0-.56c-.1-4.8-.29-12.84,5.66-15.81l.29-.15-.24-.23c-3-2.82-3.71-9-3.81-13.73,0-1.92,0-3.81.09-5.58v-.08L16,120a22.66,22.66,0,0,0-4.18-4.62,1,1,0,0,1-.31-1.06,1,1,0,0,1,.88-.68c2.08-.11,3.93-.18,5.65-.22,1,0,2,0,3,0a74.48,74.48,0,0,1,15.52,1.41,1,1,0,0,1,.77.81,21.9,21.9,0,0,1,.24,2.84,29.61,29.61,0,0,1-.81,7.22l0,.18.16.08a3.55,3.55,0,0,1,2.21,3.15,4.52,4.52,0,0,1-1,3,4,4,0,0,1-2.31,1.38l-.13,0,0,.12a29.37,29.37,0,0,1-3,5.63l-.18.26.3.1a11.94,11.94,0,0,1,2.2.93l.05,0h0c10.25,1,10.61,13.57,10.93,24.64,0,.85,0,1.67.08,2.49v.45h1.57a1.08,1.08,0,0,1,.71.29,1,1,0,0,1,.28.73c-.12,3-.14,6-.17,9,0,2.21,0,4.51-.1,6.78a1,1,0,0,1-1,1h-.07c-.32,0-.67,0-1,0h-.25L45,186l-.25,0c-1.45.13-3.89.34-6.3.52H38.2v.22c0,1.12,0,2.24.06,3.36a1,1,0,0,1-.28.7,1,1,0,0,1-.7.3l-1.28,0h-.23v.23c0,1.3,0,2.63,0,4v.16l.14.06c5.42,2.08,11,7.45,11.12,13.67.06,2.6-1.77,5.74-4.78,8.21a22,22,0,0,1-13.76,4.73Zm-10.49-23.7a22.56,22.56,0,0,0-7.39,4.34c-1.35,1.21-1.85,4.11-1.82,5.4.06,2.46,2.15,5.52,5.35,7.79a25,25,0,0,0,14.43,4.21h.59A20.06,20.06,0,0,0,41,215.88c2.86-2.35,4.1-5,4.06-6.65-.08-3.66-2.92-8.83-9-11.52l-.32-.14v.35c0,1.94,0,4.85-.08,6.91V205l.09.07a6.15,6.15,0,0,1,2.06,2.75,1,1,0,0,1-.92,1.32H35.89c-1.86,0-3.72,0-5.52-.08l-2.7-.06a1,1,0,0,1-.89-1.36A8,8,0,0,1,28,205.45l.06-.06v-.09c0-1.49-.05-3.9-.06-5.37,0-1.16,0-2.31-.05-3.47v-.23h-.23a23.66,23.66,0,0,0-2.82.25l-.21,0,0,.82a46.5,46.5,0,0,1-.16,7.22l0,.11.08.08a6.33,6.33,0,0,1,1.42,2.65,1,1,0,0,1-.16.83,1,1,0,0,1-.74.41c-3.76.19-6.89.35-10.19.46a1,1,0,0,1-.84-.43,1,1,0,0,1-.09-.94,7.28,7.28,0,0,1,3.62-4l.13-.06v-1.46c0-1.27-.1-2.51-.17-3.56l0-.31Zm3.33,6.62A4.74,4.74,0,0,0,17,206.66l-.35.4.53,0c2.17-.08,4.33-.19,6.16-.28l.42,0-.25-.34A3.27,3.27,0,0,0,20.65,205.05Zm11.36.57a3.14,3.14,0,0,0-2.41,1l-.34.38,1.25,0c1.38,0,2.76.07,4.14.08h.64l-.48-.41A4.4,4.4,0,0,0,32,205.62Zm-11.36-2.54a6,6,0,0,1,1.81.27l.28.09,0-.29a52.18,52.18,0,0,0,0-5.76c-.06-1.93-.11-3.67,0-5.45v-.26l-.82,0c-.54,0-1.09,0-1.64.06H19.16l0,.24c.06,1.18.14,2.46.24,3.91.15,2,.31,4.14.35,6.21,0,.15,0,.3,0,.45v.56l.25,0,.18,0,.28,0Zm12.92-11.89c-1.19,0-2.36.09-3.54.15H29.8v.23c.06,1.1.1,2.28.13,3.6,0,1.58,0,3.18.06,4.73,0,.66,0,2.25,0,2.91V204l.3-.09a5.15,5.15,0,0,1,1.54-.27H32a5.42,5.42,0,0,1,1.47.21l.29.07v-.3c.06-3.37.1-8.27,0-12.23v-.23Zm-8.79.41v.21c-.06.82-.08,1.64-.08,2.45v.26l.26,0c1.05-.13,1.92-.2,2.74-.22h.24V194c0-.83-.05-1.61-.09-2.35v-.23l-2.12.11Zm-5-21.45h-.68a20.53,20.53,0,0,0-2.19.17l-.2,0v.21c.08,5.73-.07,11.77-.45,19l0,.24H17.9l2.4,0c1.23,0,2.56-.07,4.32-.16h.21v-.21c.05-1.08.08-2.2.07-3.32V186l-.06-.07a1,1,0,0,1-.29-.68c0-1.95.13-3.93.24-5.84v0c.14-2.4.28-4.88.22-7.3,0-.51,0-1-.07-1.63v-.22h-1l-2.05,0h-.05Zm7.05,16.56c0,.82,0,1.66-.07,2.57v.25l1.07-.05c2.12-.12,4.4-.23,6.7-.3l.13,0h.14l.1,0,.57,0,.76,0v-.23c0-.48,0-1,0-1.44v-.82l-.24,0-2.26.1H32.41a43.73,43.73,0,0,1-5.27-.29l-.26,0Zm.06-15.94c0,.4,0,.82,0,1.25.06,2.48-.09,5-.23,7.45l-.12,2.28v.07l0,.06a1,1,0,0,1,.15.48c0,.63,0,1.26,0,1.9v.2l.19,0a41.36,41.36,0,0,0,5.37.32h1.25c2.93-.07,8.52-.56,10.91-.77l1.29-.11h.4v-.23c0-1.83.06-3.68.07-5.52,0-2.58,0-5.22.13-7.81v-.24l-1.06,0c-1.53,0-3,.08-4.57.13l-2.71.1,0,.25c.26,2.12.75,2.44,1.24,2.48,1.58.1,2.21,1,2.26,3.17,0,1.34-1.44,2.72-4.31,2.79H37c-4.36,0-5.79-1.86-6.36-8.3l0-.21H29.35c-.75,0-1.48,0-2.17,0h-.25Zm8.77-10.42-2,.1-1.42.07v.21c0,.92-.07,1.72,0,2.5.28,12.5,1.13,13.86,4.37,13.86h.69a3.14,3.14,0,0,0,2.34-.72l.06-.07v-.09a4.23,4.23,0,0,0-.11-1l0-.16H39.3c-2.32-.15-3.14-2-3.26-7.18,0-1.5,0-3-.06-4.5v-.09l0-2.48v-.46Zm-2.5-17.88c-4.07.09-4.84,6.54-5,9.3a1.19,1.19,0,0,1-.09.36v.07c-.55,5.69-.57,11.31-.56,16.13v.23h2.93v-.25c-.07-1.41-.13-3.07-.18-5.05,0-.76,0-1.54,0-2.44v-.25H30a1,1,0,0,1-1-1c.11-1.94.31-3.39.49-4.8A43.36,43.36,0,0,0,30,149a1,1,0,0,1,1-1,1,1,0,0,1,1,1,46.11,46.11,0,0,1-.5,6c-.13,1-.27,2.07-.38,3.33l0,.26h.26l2.21-.11h.15c1.16-.06,2.35-.12,3.2-.14H38v-.22c.09-1.7.2-4.25.15-6.88,0-.66,0-1.33-.08-2-.18-3.13-1.38-5.33-3.66-6.73l-.05,0h-.24c-.26,0-.52,0-.79,0ZM37.92,161l0,2.29v.27c0,1.43,0,2.86.06,4.29l0,.57,2.77-.09,2.27-.07.91,0V168l-.09-2.69c-.27-9.59-.78-17.2-4.54-20.71l-.37.26a12.13,12.13,0,0,1,1,4.34c0,.67.07,1.36.08,2,.07,2.94-.07,5.81-.22,8.22a1,1,0,0,1-.33.69,1,1,0,0,1-.66.24h-.06c-.19,0-.4,0-.6,0h-.3Zm-15.13-20c-5.85,1.12-6.91,6.46-6.73,14.72.05,2.09.19,4.23.33,6.3s.27,4.13.33,6.17v.25l.26,0a20.34,20.34,0,0,1,2.13-.15h.73l1.92,0h.14c.68,0,1.36,0,2,0h.67l.78,0,.22,0V168a158,158,0,0,1,.6-16.36,1.34,1.34,0,0,1,.07-.27v-.07c.31-4.85,1.66-8.25,3.92-9.82l.5-.35L30.1,141a22.2,22.2,0,0,0-2.66-.17c-.66,0-1.22,0-1.72.07s-.81.06-1.27.07h-.24a8.87,8.87,0,0,1-1.28-.09h-.06Zm-8.88,18.73a12.94,12.94,0,0,1-5.85,2.73,2.87,2.87,0,0,0-2.27,3,2.91,2.91,0,0,0,1.06,2.23,3.15,3.15,0,0,0,1.55.7l.1,0,.08-.07c.32-.26.88-.75,1.43-1.23,1.31-1.14,2.82-2.45,4.4-3.71l.09-.08-.07-1.1c0-.73-.1-1.48-.14-2.23l0-.51ZM27.44,138.9a23.22,23.22,0,0,1,2.63.16h.13l.08-.11a27.27,27.27,0,0,0,3.7-6.72,1,1,0,0,1,.92-.64,2.12,2.12,0,0,0,1.62-.75,2.65,2.65,0,0,0,.58-1.72c0-.71-.58-1.28-1.67-1.67l0,0h-.08l0,0-.08,0a9.77,9.77,0,0,0-2.28-.41,1,1,0,0,1-.93-.86c-.53-4.23-6.76-5.73-11.94-5.73h-.6q-.6,0-1.2.06H18v.21c-.06,1.51-.11,3.3-.07,5.07a36.43,36.43,0,0,0,.66,6.53l0,.15,6.5,1.29c0,.15-.25.49-.8.84a4.19,4.19,0,0,1-2.13.66h-.14a2.84,2.84,0,0,1-2.52-1.06l-.41.21c.85,2.69,2.12,4.29,3.68,4.64h.08l.22,0h.09a6,6,0,0,0,1,.08h.21l1.2-.07C26.12,138.94,26.72,138.9,27.44,138.9Zm-7.33-20.49c5.71,0,12.29,1.71,13.63,6.51l0,.15.16,0,.56.09.31.06,0-.22a27.63,27.63,0,0,0,.72-6.52c0-.58,0-1.16-.12-1.73v-.17l-.17,0A74.67,74.67,0,0,0,21,115.37c-.93,0-1.9,0-2.89,0s-1.78,0-2.74.08l-.5,0,.34.37a25.36,25.36,0,0,1,2.08,2.56l.08.11h.13c.6-.06,1.25-.11,1.89-.12Z"/><path class="cls-1" d="M25,128.92c-1,0-1.68-.51-1.7-1.22a1.42,1.42,0,0,1,.62-1.07,2.38,2.38,0,0,1,1.29-.49,1.21,1.21,0,0,1,1,.48,1.53,1.53,0,0,1,.34.91,1.31,1.31,0,0,1-.36.95,1.61,1.61,0,0,1-1.16.44Z"/></g></g></svg>