<svg xmlns="http://www.w3.org/2000/svg" viewBox="0 0 274.7 238.55"><defs><style>.cls-1{fill:#fff;}</style></defs><title>Asset 11</title><g id="Layer_2" data-name="Layer 2"><g id="Layer_1-2" data-name="Layer 1"><path class="cls-1" d="M131.7,238.55a14.44,14.44,0,0,1-7.88-2.12,1,1,0,0,1-.48-1c.16-1.65.34-3.53.34-5.28,0-5.38-3.07-9-6.33-12.77-3.47-4.06-7.06-8.26-7.06-14.83,0-7.53,7-15.66,18.34-15.66A17.88,17.88,0,0,1,147,204.27c0,6.85-3,9.68-5.65,12.17s-5.17,4.87-5.17,11.25a49.05,49.05,0,0,0,1.12,8.84l0,.25a1,1,0,0,1-.79,1.2A21.76,21.76,0,0,1,131.7,238.55ZM125.47,235l.14.08a12.92,12.92,0,0,0,6.1,1.39,19,19,0,0,0,3.13-.27l.25,0-.05-.25c-.1-.53-.19-1.06-.28-1.59l0-.2h-.21c-.83,0-1.63,0-2.42.06-1,0-2,.06-2.89.06a29,29,0,0,1-3.4-.18l-.25,0Zm.27-5.1s0,.22,0,.27c0,.43,0,.85,0,1.28l0,.5.22,0a26.71,26.71,0,0,0,3.29.18c.94,0,1.89,0,2.81-.06l2.11,0h.28l0-.27c-.06-.51-.11-1-.16-1.52l0-.22-1.1,0c-2.39-.06-4.73-.13-7.07-.36l-.27,0Zm-.49-3.63c.09.34.17.7.24,1.06l0,.18.18,0c2.4.26,4.78.34,7.43.4l.94,0v-.25c0-.49,0-1,0-1.44l0-.26H129.6c-1.55,0-2.86,0-4.11-.07h-.33Zm9.44-4.78c-2.46.17-4.93.2-7.45.22l-3.52.06h-.41l.21.35c.29.51.56,1,.81,1.57l.06.14h.15c1.49.08,3.1.11,5.06.11h4.79l0-.2a17.33,17.33,0,0,1,.51-1.92l.12-.34ZM128.63,189c-7.86,0-16.26,5.46-16.26,13.59,0,5.81,3.18,9.53,6.56,13.48.93,1.09,2,2.32,2.93,3.59l.08.1h.13c1.73-.07,3.5-.09,5.15-.1,2.81,0,5.71,0,8.55-.31l.15,0h.14l.08-.12a20.48,20.48,0,0,1,3.75-4.31c2.68-2.52,5-4.7,5-10.66A15.81,15.81,0,0,0,128.63,189Zm92,44.77a1,1,0,0,1-.72-.28c-2.41-2.31-4.66-4.16-6.83-5.95-1.49-1.23-2.9-2.38-4.22-3.58l-.15-.14-.16.13c-2.5,2-5.05,4-7.51,5.93l-4.28,3.36a1,1,0,0,1-.63.22c-7.78.12-16.07.24-24.46.24-3.12,0-6.14,0-9-.05a1,1,0,0,1-.73-.31,1,1,0,0,1-.29-.74c.1-7.75.29-15.57.46-23.12.26-11.17.54-22.71.56-34.05a1,1,0,0,1,1-1c4.92-.05,9.91-.05,14.32-.05h1.09c5.12,0,9.38,0,13.81-.06H193l.06,0c3.62-3,7.45-5.76,11.15-8.44l2.57-1.87a1,1,0,0,1,.61-.2,1,1,0,0,1,.69.27,160,160,0,0,1,12.14,12.16l.07.08h.1c6,.13,12.11.14,18.84.14a1,1,0,0,1,1,1c.48,9,.61,18.06.73,26.85v.06c.13,9.28.26,18.88.81,28.3a1.06,1.06,0,0,1-.28.78,1.07,1.07,0,0,1-.76.32c-1.89,0-3.78,0-5.67,0s-3.9,0-5.85,0c-3.36,0-6.08.06-8.59.19Zm-11.87-12.36a1,1,0,0,1,.71.29c1.5,1.42,3.16,2.78,4.92,4.23,2,1.65,4.24,3.49,6.55,5.67l.08.08h.1c2.4-.11,5-.16,8.15-.16,1.95,0,3.91,0,5.87,0l4.3,0h.26l0-.26c-.48-9-.61-18.21-.74-27.08-.11-8.37-.23-17-.66-25.56v-.24H238c-5.88,0-12.13,0-18.22-.14a1.11,1.11,0,0,1-.76-.35,151.73,151.73,0,0,0-11.57-11.72l-.14-.13-1.85,1.34c-3.82,2.77-7.76,5.63-11.43,8.68a1,1,0,0,1-.65.23c-4.93.06-9.9.06-14.29.06H178c-4,0-8.57,0-13,0h-.24v.24c0,11-.3,22.08-.55,32.83-.17,7.12-.34,14.5-.45,21.81v.25H164c2.45,0,5,0,7.7,0,8.36,0,16.75-.12,24-.24h.08l.07-.05,3.9-3.06.14-.11c2.72-2.13,5.54-4.34,8.25-6.53A1,1,0,0,1,208.74,221.39ZM75.5,233.54a1,1,0,0,1-1-1c-.52-7.1-.79-13.65-.84-20a1,1,0,0,1,.34-.77,1,1,0,0,1,.71-.28h.09c2.25.2,4.65.3,7.34.3,3.58,0,7.22-.17,10.74-.34,2.83-.14,5.84-.28,8.79-.33h.56a1,1,0,0,1,1,1c.19,3.43.41,6.92.63,10.29q.25,4.07.5,8.13l.05.82a1,1,0,0,1-1,1.09c-4.44.2-9,.36-13.36.53-4.74.17-9.64.35-14.53.57Zm9-10.23-1.24,1.35c-1.68,1.79-3.76,4-5.55,6.3l-.33.42.53,0c4.34-.18,8.72-.35,12-.47q5.44-.19,10.88-.42l.63,0L101,230c-3.1-2.64-5.56-4.92-7.76-7.19l-.15-.15-.17.12a7,7,0,0,1-3.81,1.48,8.15,8.15,0,0,1-4-1.35l-.17-.1Zm-8.79-7.79c.08,4.3.26,8.64.55,13.26l0,.62.39-.48c1.6-2,3.3-3.8,5-5.68l1.45-1.57-.22-.16a64.15,64.15,0,0,1-6.84-6.17l-.43-.44Zm25.16-.65a60.08,60.08,0,0,1-6,6.36l-.2.17.18.18c2,2,4.21,4.1,6.79,6.32l.44.38-.08-1.29c-.09-1.49-.18-3-.28-4.46-.16-2.51-.31-5-.46-7.52l0-.61ZM78,214.22c5.39,5.38,9,8,11.16,8,1.91,0,5.29-2.87,10-8.53l.36-.42-.55,0c-1.81.06-3.78.14-6,.25-3.55.17-7.22.35-10.84.35-1.24,0-2.5,0-3.94-.09l-.63,0Zm109.36,9.86h-.12a72.83,72.83,0,0,0-8.3-.35h-2.81c-1.79,0-3.72,0-5.67-.12a1,1,0,0,1,.06-2.08h.06c1.89.11,3.78.13,5.55.13h2.81a75.51,75.51,0,0,1,8.54.37,1,1,0,0,1-.12,2.07Zm37.85-2c-1.94,0-3.89,0-5.82-.12a1,1,0,0,1-.84-.54l0-.07-.08,0a21.74,21.74,0,0,1-3.9-2.29,27.3,27.3,0,0,0-2.64-1.68,1,1,0,0,1,.49-2,1.09,1.09,0,0,1,.49.13,26.88,26.88,0,0,1,2.83,1.8,18.06,18.06,0,0,0,3.86,2.23,1,1,0,0,1,.39.27l.07.08h.1c1.79.07,3.58.1,5.32.1s3.71,0,5.5-.11H231a1,1,0,0,1,1,1,1,1,0,0,1-1,1.08C229.08,222.07,227.13,222.11,225.19,222.11Zm-54.37-3.32a1,1,0,0,1,0-2.08c5.44,0,10.66-.15,16.18-.31h.47a1.08,1.08,0,0,1,1.07,1,1,1,0,0,1-1,1.06l-.46,0C181.52,218.64,176.29,218.79,170.82,218.79Zm28-.59a1,1,0,0,1-.73-1.77,44.12,44.12,0,0,1,3.72-3.25l0,0c.75-.61,1.53-1.24,2.26-1.89a1,1,0,0,1,.69-.26,1,1,0,0,1,.77.35,1,1,0,0,1,.26.75,1,1,0,0,1-.34.71c-.76.68-1.57,1.34-2.36,2-1.21,1-2.45,2-3.59,3.12A1,1,0,0,1,198.78,218.2Zm20.63-3.58a1,1,0,0,1-.55-.17l-6.74-4.33a1,1,0,0,1,.56-1.91,1.1,1.1,0,0,1,.56.16l6,3.84h.08c.8-.06,1.72-.09,2.81-.09.91,0,1.92,0,3.18.06,1.06,0,2.14.07,3.2.07.59,0,1.12,0,1.64,0a1.05,1.05,0,0,1,1.08,1,1.08,1.08,0,0,1-.27.75,1.05,1.05,0,0,1-.72.33c-.54,0-1.1,0-1.71,0-1.1,0-2.21,0-3.29-.08-1.23,0-2.22-.06-3.11-.06-.65,0-1.25,0-1.78,0h-.1l-.07.07A1,1,0,0,1,219.41,214.62Zm-36.81-.84c-1.71,0-3.41-.11-5.06-.23s-3.34-.23-5.07-.23h-1a1,1,0,0,1-1.07-1,1.08,1.08,0,0,1,.29-.75,1,1,0,0,1,.72-.32l1.06,0c1.76,0,3.48.12,5.16.24s3.31.23,4.95.23a25.08,25.08,0,0,0,3.94-.28h.16a1,1,0,0,1,1,.87,1,1,0,0,1-.86,1.19A26.77,26.77,0,0,1,182.6,213.78Zm-126.83-.9a6.55,6.55,0,0,1-5-2.19,63.58,63.58,0,0,1-13.23-20.54l-.07-.17-.18,0c-.72.07-1.35.11-1.93.11C28.29,190.11,22,185.24,21,179V179a11.45,11.45,0,0,1-.14-1.63c0-9.1,10.53-13,21.69-17.05,12.69-4.66,25.82-9.47,25.82-22.09a26.65,26.65,0,0,0-.36-4.09,1,1,0,0,1,.75-1.16c1.42-.39,2.8-.85,4.25-1.34l2-.66a1.13,1.13,0,0,1,.32,0,1,1,0,0,1,1,.65c2.66,6.55,5.11,13.12,6.95,18.11l0,.1.1,0a13.15,13.15,0,0,1,7.88,11.66,13.65,13.65,0,0,1-1.45,6l0,.1,0,.1c2.17,5.94,4.77,13,7.59,20A1.05,1.05,0,0,1,96.8,189l-2.13.91c-2.32,1-4.72,2-7.15,3a1.09,1.09,0,0,1-.36.06,1,1,0,0,1-.79-.36c-6.21-7.31-15.33-12.41-22.19-12.41-4.23,0-8.48,2.25-13,4.63-.92.49-1.84,1-2.77,1.44l-.21.11.1.21a51.45,51.45,0,0,0,12,16.26l.47.4,0,0c1,.88,2.33,2,2.33,3.79a5,5,0,0,1-2.72,4.09l-.82.48-.52.31-.05,0A5.1,5.1,0,0,1,55.77,212.88Zm-9.64-25.57a31.52,31.52,0,0,1-6.29,2.25l-.28.07.11.26a61.53,61.53,0,0,0,12.6,19.36,4.39,4.39,0,0,0,3.5,1.55,3.11,3.11,0,0,0,2.15-.66l.62-.37.79-.46A3.13,3.13,0,0,0,61,207c0-.8-.6-1.36-1.59-2.2l-.56-.49a53.48,53.48,0,0,1-12.43-16.88l-.11-.22Zm27.53-53.73c-1.06.36-2.17.73-3.28,1.06l-.2.06,0,.21c.07.58.13,1.13.17,1.68v0l0,.06,0,.06C75.9,152,86.32,183.76,88.36,190l.08.25.24-.1c1.89-.75,3.75-1.55,5.17-2.16l1.2-.52-.09-.22c-3.51-8.77-6.77-17.77-9.92-26.48-3.25-9-6.61-18.25-10.25-27.31l-.09-.21ZM64.18,178c6.5,0,14.31,3.78,20.91,10.11l.4-.25c-2.88-8.79-10.13-30.77-15.14-45.18l-.27-.76-.2.78c-2.47,9.62-12.79,14.27-22.27,17.88l-.23.09.09.23c2.05,4.84,4.22,9.68,6.26,14.22.71,1.56,1.41,3.13,2.11,4.69l.1.23.22-.1A20.22,20.22,0,0,1,64.18,178Zm-27.76,1a1,1,0,0,1,.95.63,1,1,0,0,1,0,.79,1,1,0,0,1-.55.57,56.89,56.89,0,0,0-8.41,4.69l-.32.21.33.21A13.33,13.33,0,0,0,35.36,188c5.19,0,10.11-2.6,14.86-5.11,1.34-.71,2.46-1.3,3.62-1.87l.21-.11-.09-.21c-.71-1.58-1.41-3.15-2.12-4.72-2.07-4.6-4.26-9.49-6.32-14.36l-.09-.21-2.18.8C33.11,166,23.52,169.47,23,176.71l0,.46.39-.22c4.14-2.3,7.6-4.06,10.89-5.54a1,1,0,0,1,.42-.09,1,1,0,0,1,.43,2c-3.49,1.56-7.1,3.42-11.7,6l-.17.09.05.19a10.92,10.92,0,0,0,3,4.84l.15.13.16-.11A62.65,62.65,0,0,1,36,179.1,1.15,1.15,0,0,1,36.42,179Zm48.2-25.5c.8,2.18,1.59,4.36,2.37,6.52l1.69,4.65.18-.81a10.58,10.58,0,0,0,.28-2.42A10.8,10.8,0,0,0,85,153.24l-.69-.55Zm114,59.33a1,1,0,0,1-.69-.26,1,1,0,0,1-.09-1.47,25.43,25.43,0,0,1,6.23-4.69,1,1,0,0,1,.53-.15,1,1,0,0,1,.54,1.93,23.71,23.71,0,0,0-5.75,4.29A1,1,0,0,1,198.57,212.85ZM122,210.93a1,1,0,0,1-1-1c0-.13,0-.26,0-.39,0-3.24,1.56-6.77,5-6.88.94,0,1.25.74,1.76,2.16.62,1.71,1.37,3.47,2.21,3.61l.18,0,.08-.16a6.91,6.91,0,0,0,.38-1.69c.24-1.61.6-4,3.05-4,1.82,0,2.68,2.07,3.3,3.59a12.36,12.36,0,0,0,.6,1.3l0,.08.08,0a1,1,0,0,1-.35,2c-1.21,0-1.73-1.28-2.29-2.63s-.94-2.13-1.32-2.29l-.05,0h0c-.52,0-.71.6-1,2.28s-.69,3.6-2.58,3.6c-2.46,0-3.59-3.13-4.27-5-.06-.16-.12-.35-.19-.52l-.08-.22-.23.08c-1.74.63-2.2,3.23-2.2,4.67,0,.1,0,.2,0,.3a1.07,1.07,0,0,1-.27.75,1.11,1.11,0,0,1-.72.34Zm60.92-2.21c-1.92,0-3.86-.14-5.74-.27s-3.76-.26-5.66-.26h-1.09a1,1,0,0,1-1-1,1,1,0,0,1,.28-.74,1.06,1.06,0,0,1,.73-.33h1.08c1.93,0,3.88.14,5.76.27s3.79.25,5.72.25a27.45,27.45,0,0,0,3.38-.18h.13a1.05,1.05,0,0,1,1,.92,1,1,0,0,1-.22.76,1,1,0,0,1-.69.39A30.55,30.55,0,0,1,182.93,208.72Zm36.13-1.36a.86.86,0,0,1-.32-.05,7.64,7.64,0,0,1-3.28-2.51,5.63,5.63,0,0,0-2.17-1.79,1,1,0,0,1-.63-1.33,1.06,1.06,0,0,1,1-.69,1,1,0,0,1,.35.06,7.48,7.48,0,0,1,3,2.37A8.11,8.11,0,0,0,218.7,205l.08.05.1,0a1.66,1.66,0,0,1,.26,0c.92.07,2,.11,3.29.11,1,0,2.16,0,3.68-.07,1.35,0,2.57-.07,3.77-.07.69,0,1.32,0,1.93,0a1,1,0,0,1,1,1.08,1,1,0,0,1-1,1c-.63,0-1.24,0-1.92,0-1.22,0-2.47,0-3.67.08s-2.51.07-3.78.07c-.85,0-1.67,0-2.57-.07h-.09l-.07.06A1,1,0,0,1,219.06,207.36Zm-20.71-1.78a1,1,0,0,1-.94-.61,1,1,0,0,1,.51-1.37,17.44,17.44,0,0,0,3-1.92,19.07,19.07,0,0,1,3.4-2.15,1,1,0,0,1,.86,1.9,16.32,16.32,0,0,0-3,1.92,19.62,19.62,0,0,1-3.4,2.14A1,1,0,0,1,198.35,205.58Zm-28.49-2a1.05,1.05,0,0,1-1-1,1,1,0,0,1,1-1.12c2.06-.18,4.15-.2,5.74-.2h4.56a60.63,60.63,0,0,0,6.67-.3h.12a1,1,0,0,1,.12,2.07,60.79,60.79,0,0,1-6.91.32l-2.29,0h-2.27c-1.64,0-3.59,0-5.56.2Zm28.49-3.31a1,1,0,0,1-.83-.42,1.11,1.11,0,0,1-.2-.77,1,1,0,0,1,.41-.68l1.1-.85a27.78,27.78,0,0,1,4.62-3.1,1.07,1.07,0,0,1,.46-.11,1,1,0,0,1,.93.57,1,1,0,0,1,.06.8,1.1,1.1,0,0,1-.52.6,25,25,0,0,0-4.26,2.87L199,200A1.11,1.11,0,0,1,198.35,200.24Zm21-.28a1.11,1.11,0,0,1-.43-.09,26.28,26.28,0,0,1-6.8-4.91,1,1,0,0,1-.33-.75v-.28c0-4.74.36-9.5.76-14.36a1,1,0,0,1,.71-.9,1,1,0,0,1,.33-.06,1.07,1.07,0,0,1,.78.35l1.08,1.23c1.28,1.46,2.61,3,4,4.32l.07.06h.09c1.53.1,3,.28,4.5.45a61.76,61.76,0,0,0,7,.53h.32a1,1,0,0,1,.74.3,1,1,0,0,1,.31.74c0,3.48.11,7,.22,10.37l.06,1.82a1,1,0,0,1-.29.75,1.07,1.07,0,0,1-.75.32h-2.15l-3.15,0c-2.84,0-5,0-7,.13Zm-5-17.22c-.25,3.21-.5,7-.51,10.9v.11l.08.07a23.18,23.18,0,0,0,5.55,4l.06,0h.06c2-.09,4.05-.12,6.78-.12h4.23l0-.89c-.09-2.95-.19-6-.21-9v-.24h-.24c-2.12-.05-4.22-.3-6.26-.53-1.59-.18-3.23-.37-4.85-.47a1.06,1.06,0,0,1-.65-.28c-1.31-1.22-2.55-2.58-3.58-3.74l-.38-.43Zm-31.74,15.2c-1.82,0-3.65-.08-5.42-.17s-3.55-.17-5.36-.17h-1.37a1.07,1.07,0,0,1-1-1,1,1,0,0,1,.29-.75,1,1,0,0,1,.72-.32l1.4,0c1.82,0,3.65.09,5.43.18s3.56.17,5.32.17a36.73,36.73,0,0,0,5.06-.31h.14a1,1,0,0,1,.14,2.06A37.57,37.57,0,0,1,182.62,197.94Zm15.52-2.41a1,1,0,0,1-.83-.42,1,1,0,0,1-.2-.77,1,1,0,0,1,.41-.68l2.65-2,2.69-2.05a1,1,0,0,1,1.65,1,1,1,0,0,1-.4.68l-2.49,1.89-.19.14c-.91.7-1.81,1.39-2.67,2A1,1,0,0,1,198.14,195.53Zm-14.79-3.22c-2.73,0-5.47-.23-8.13-.46-1.41-.12-2.87-.24-4.3-.33a1.06,1.06,0,0,1-.72-.35,1.08,1.08,0,0,1-.26-.75,1.06,1.06,0,0,1,1.05-1h0c1.43.08,2.89.21,4.3.33h.06c2.67.23,5.51.44,8.12.44,1.2,0,2.27,0,3.24-.13h.09a1,1,0,0,1,1,.94,1,1,0,0,1-.94,1.13C185.81,192.26,184.63,192.31,183.35,192.31ZM197.71,190a1,1,0,0,1-.43-2,11.8,11.8,0,0,0,3.1-2.37,16.25,16.25,0,0,1,2.78-2.28,1,1,0,0,1,.54-.15,1,1,0,0,1,.89.5,1.09,1.09,0,0,1,.12.79,1.06,1.06,0,0,1-.48.64,14.18,14.18,0,0,0-2.42,2,13.87,13.87,0,0,1-3.67,2.76A1.07,1.07,0,0,1,197.71,190Zm56.09-.68a1,1,0,0,1-1-1c0-1.51-.11-3-.21-4.45l0-.49h-.31a15.63,15.63,0,0,1-4.14-.47,1,1,0,0,1-.73-1.28,1,1,0,0,1,1-.76.86.86,0,0,1,.28,0,13.35,13.35,0,0,0,3.53.4h.26l0-.35c0-.52,0-1,0-1.59,0-.83,0-1.6.09-2.36a1,1,0,0,1,1-.95h.09a1,1,0,0,1,.71.36,1.05,1.05,0,0,1,.24.76c-.06.7-.09,1.41-.09,2.19,0,.52,0,1,.05,1.55v.31h.38c.85-.05,1.82-.1,2.74-.1.64,0,1.21,0,1.74.07a1,1,0,0,1-.09,2.08h-.1c-.48,0-1-.06-1.57-.06-.83,0-1.69,0-2.51.08l-.47,0,0,.4c.11,1.5.21,3,.21,4.61A1,1,0,0,1,253.8,189.29Zm-56.52-4a1,1,0,0,1-1-1.37,1,1,0,0,1,.52-.6,18.65,18.65,0,0,0,3.74-2.74,27.79,27.79,0,0,1,3-2.34,1,1,0,0,1,.55-.16,1,1,0,0,1,.56,1.91,25,25,0,0,0-2.75,2.16,21.06,21.06,0,0,1-4.18,3A1.08,1.08,0,0,1,197.28,185.27Zm-69.06-16.91c-4.54,0-8-3.07-8-7.15l0-3.69c0-3,.09-6,.09-9.07,0-1.19,0-2.37,0-3.56v-.23c0-6.85,3.4-7.42,9-7.56,1,0,2.09,0,3.32,0,1.82,0,3.69,0,5.33.05l3.33,0c3.6,0,6.53,2.63,6.53,5.79a7.28,7.28,0,0,1-.07.93v.06a5.52,5.52,0,0,0-.05.71c0,5.47-.17,10.94-.33,16.09-.13,4-2.72,6.94-6.15,7.09l-3.17.14c-3.12.14-6.36.28-9.57.39Zm4.2-29.22c-.94,0-1.92,0-3,0-5.65.14-7,.66-7,5.48v.19c0,1.21,0,2.41,0,3.6,0,3.09,0,6.15-.08,9.1l0,3.6A4.71,4.71,0,0,0,124.2,165a6.57,6.57,0,0,0,4,1.28h.25c3.23-.11,6.45-.25,9.55-.39l3.17-.14c2.63-.11,4.08-2.64,4.16-5.08.17-5.12.33-10.58.33-16a7.93,7.93,0,0,1,.07-1v-.07c0-.21,0-.43,0-.65,0-2-2.05-3.7-4.47-3.72l-3.34,0h-.19C136,139.17,134.22,139.14,132.42,139.14ZM105.55,167.3l-.23,0A44.86,44.86,0,0,1,100.9,166c-1.48-.49-2.85-.95-4.24-1.26a1,1,0,0,1-.65-.45,1.05,1.05,0,0,1-.14-.79,1,1,0,0,1,1-.81.85.85,0,0,1,.23,0,44.81,44.81,0,0,1,4.42,1.3,43.56,43.56,0,0,0,4.24,1.26,1,1,0,0,1,.79,1.24A1,1,0,0,1,105.55,167.3Zm74.61-2c-7,0-16.86-4.75-16.86-15.31,0-9.48,6.92-16.18,13.61-17.18a17.4,17.4,0,0,1,2.49-.19c10.29,0,18,9.07,18,17.17C197.38,157.12,190,165.31,180.16,165.31Zm-.76-30.6a14.54,14.54,0,0,0-2.18.16c-7.32,1.1-11.85,8.71-11.85,15.13,0,9.13,8.65,13.24,14.79,13.24,8.67,0,15.14-7.1,15.14-13.44C195.3,142.68,188.5,134.71,179.4,134.71ZM246,164.19a1,1,0,0,1-.55-.16,1,1,0,0,1-.49-.8c-.17-2.29-.31-4.64-.44-6.92-.05-.79-.15-2.59-.15-2.59l-1.73.07h-.25c-3.9,0-4-2.8-4-4,0-.14,0-.27,0-.4-.14-2.14-.25-4.27-.36-6.4-.15-2.78-.31-5.65-.51-8.51,0-.43-.06-.92-.06-1.36,0-2,2.35-4.31,5.73-4.31h.14c1.94.06,4,.12,6.05.12,3.36,0,4.92-.13,6.74-.28,2.13-.18,4.55-.38,10.41-.38h1.71c2.45,0,5,1.82,5.24,5.85s.61,8.32,1.17,13.19a13.63,13.63,0,0,1,.13,1.72c0,2.72-1.83,4.41-3.53,4.41l-.67,0-.54,0h-5.63c-2.86,0-5.23,0-7.47,0h-.15l-.07.15c-2.3,5.06-6,8.81-10.3,10.56A1.07,1.07,0,0,1,246,164.19Zm-.66-12.59a1,1,0,0,1,1,1l.21,3.57c.1,1.72.2,3.39.31,5.06l0,.39.34-.2a18.74,18.74,0,0,0,7.84-9.41,1.06,1.06,0,0,1,.95-.64c2.49,0,5.14,0,8.36,0H270c.24,0,.46,0,.69,0l.52,0c.49,0,1.45-.7,1.45-2.33a12.75,12.75,0,0,0-.11-1.48c-.57-4.91-.95-9.27-1.18-13.32-.16-2.85-1.74-3.87-3.17-3.88h-1.71c-5.79,0-8.15.19-10.24.37-1.78.15-3.47.29-6.91.29-2.08,0-4.16-.06-6.13-.12-2.41,0-3.72,1.47-3.72,2.23,0,.38,0,.79.06,1.21.2,2.88.36,5.76.51,8.55q.16,3.18.36,6.38c0,.15,0,.3,0,.47,0,1.41.13,2,1.94,2h.15l2.76-.12ZM13.42,158.76a1,1,0,0,1-.81-.4,1,1,0,0,1-.19-.9c.83-3.16,1.83-6.19,3.16-10.05l.06-.18-.16-.1a4.79,4.79,0,0,1-2.21-4.06,5.12,5.12,0,0,1,4.95-5.15,4.69,4.69,0,0,1,1.56.26c1.37.45,5.52,1.84,5.52,5.15a4.5,4.5,0,0,1-1.88,3.75l-.17.13.7,1.27c1.52,2.76,3.06,5.58,4.72,8.27a1,1,0,0,1-.79,1.58c-4,.36-8,.39-11.93.41Zm4.06-10.49c-1,3-1.88,5.53-2.61,8.09l-.09.32h1.16c3.19,0,6.46,0,9.69-.25l.4,0-.21-.34c-1.28-2.17-2.5-4.39-3.68-6.54l-.8-1.46-.18,0a7.06,7.06,0,0,1-1.68.22,7.76,7.76,0,0,1-1.72-.2l-.21-.05Zm.74-8.28a3.07,3.07,0,0,0-2.87,3.08c0,2.58,3.06,3.16,4.13,3.16,1.8,0,3.75-.91,3.75-2.9,0-1.22-1.34-2.26-4.1-3.18A2.73,2.73,0,0,0,18.22,140Zm200.45,15.76a1,1,0,0,1-1-1v-5.35h-.25a22.42,22.42,0,0,0-4.5.38l-.2,0a1,1,0,0,1-1-.84,1,1,0,0,1,.82-1.22,24.89,24.89,0,0,1,4.91-.42h.24v-4.55a1,1,0,1,1,2.08,0v4.6H220c.84,0,1.71,0,2.56,0,1.08,0,2,0,2.81-.12h.1a1,1,0,0,1,1,.94,1,1,0,0,1-.23.76,1,1,0,0,1-.7.37,27.06,27.06,0,0,1-3,.14c-.86,0-1.74,0-2.59-.05h-.26l0,.25v5.06A1,1,0,0,1,218.67,155.75Zm-40.22-.12a1,1,0,0,1-.67-.25c-.77-.64-1.61-1.26-2.42-1.85a20.34,20.34,0,0,1-5.58-5.31,1.06,1.06,0,0,1,.32-1.44,1.1,1.1,0,0,1,.56-.16,1,1,0,0,1,.88.48,18.31,18.31,0,0,0,5,4.75c.56.41,1.12.82,1.67,1.25l.16.13.16-.14c2.79-2.53,5.53-5.26,8.17-7.9l1.48,1.45c-2.94,2.94-6,6-9.09,8.73A1.07,1.07,0,0,1,178.45,155.63ZM94,154.79a1,1,0,0,1-1-.91,1,1,0,0,1,.21-.76,1,1,0,0,1,.69-.4,18,18,0,0,0,4.29-1.28c.85-.33,1.72-.68,2.61-.93a.9.9,0,0,1,.28,0,1,1,0,0,1,.29,2c-.78.22-1.56.53-2.4.85a19.29,19.29,0,0,1-4.81,1.42Zm-2.24-7.7a1,1,0,0,1-.65-.22,1.07,1.07,0,0,1-.38-.7,1,1,0,0,1,.22-.76,17.2,17.2,0,0,0,1.58-2.54A21.34,21.34,0,0,1,94.3,140a1,1,0,0,1,.82-.39,1,1,0,0,1,.64.23,1,1,0,0,1,.17,1.45,18.7,18.7,0,0,0-1.59,2.54,18.94,18.94,0,0,1-1.78,2.83A1,1,0,0,1,91.75,147.09Zm155.57-1.28c-1.72,0-3.72-1.46-3.72-3.34,0-.05,0-.17,0-.22.26-2.05,1.14-3.17,2.86-3.6a2.07,2.07,0,0,1,.5-.06,3.83,3.83,0,0,1,3.77,3.57A3.55,3.55,0,0,1,247.32,145.81Zm-.42-5.13c-.61.16-1.05.39-1.23,1.83,0,.53,1,1.22,1.65,1.22a1.5,1.5,0,0,0,1.34-1.57c0-.85-1-1.49-1.69-1.49h-.07Zm17.7,4.22a3.65,3.65,0,0,1-3.3-3.61c0-.08,0-.15,0-.22a3.34,3.34,0,0,1,3.3-3.21h.16a4.11,4.11,0,0,1,1.77.33,3.07,3.07,0,0,1,1.79,2.93A3.59,3.59,0,0,1,264.6,144.9Zm0-5a1.3,1.3,0,0,0-1.23,1.31,1.79,1.79,0,0,0,.55,1.24,1.06,1.06,0,0,0,.67.35,1.53,1.53,0,0,0,1.65-1.71,1,1,0,0,0-.58-1.05,2.23,2.23,0,0,0-.89-.14Zm-8.72,4.57a3,3,0,0,1-2.94-2.89v-.51a2.9,2.9,0,0,1,1.73-2.67,2.3,2.3,0,0,1,1-.22,3.26,3.26,0,0,1,3.4,3.17A3.12,3.12,0,0,1,255.89,144.5Zm-.33-4.19a.78.78,0,0,0-.55.8v.51c0,.42.57.78.86.8a1,1,0,0,0,1.11-1,1.17,1.17,0,0,0-1.32-1.09h-.06ZM39.3,129.59a1.12,1.12,0,0,1-.47-.11,1,1,0,0,1-.57-.88l0-.46h-.35c-.54,0-1,0-1.53,0a1,1,0,0,1-1-1s0-.1,0-.15c0-2.09-.07-4.14-.1-6.19v-.09l-.07-.07a16.92,16.92,0,0,1-4.93-11.78,26.88,26.88,0,0,1,1-7l0-.19-.17-.09a8.53,8.53,0,0,1-4.42-7l0-.4-.35.21a8.1,8.1,0,0,0-1.66,1.26,1.05,1.05,0,0,1-1.47,0,1.05,1.05,0,0,1,0-1.47,10.45,10.45,0,0,1,4.32-2.62l.27-.09-.13-.26,0-.09-.05-.12a.54.54,0,0,1-.05-.11,10.31,10.31,0,0,1-1-4.32,9.42,9.42,0,0,1,.14-1.6,1,1,0,0,1,1-.86l.18,0a1,1,0,0,1,.84,1.2,7.24,7.24,0,0,0-.1,1.24c0,.25,0,.49.05.73l.09.72.36-.45A9.49,9.49,0,0,1,36,83.92h.61a9.8,9.8,0,0,1,9.94,9.22,9,9,0,0,1-2.8,6.7l-.15.14.12.18a8.54,8.54,0,0,0,6.7,3.59c4.18,0,10-3.79,11.86-9.44a1,1,0,0,1,1-.7,1,1,0,0,1,1,.74,23.78,23.78,0,0,1,1.06,6.8c0,.4,0,.79,0,1.18l0,.52.42-.31A9.47,9.47,0,0,0,67,101.42a1,1,0,0,1,.74-.3,1,1,0,0,1,.41.08,1,1,0,0,1,.62,1c-.15,4.18-1.07,7.41-2.83,9.88l-.42.6.7-.23.67-.23a1.1,1.1,0,0,1,.36-.07,1,1,0,0,1,.88,1.6c-5,7.88-12.21,12.39-19.86,12.39a18.39,18.39,0,0,1-3.54-.35l-.12,0-.09.09a37.24,37.24,0,0,1-4.6,3.57A1,1,0,0,1,39.3,129.59Zm1-3.45v.48l.38-.29c.46-.34.88-.69,1.24-1l.33-.27-.4-.15c-.41-.16-.82-.33-1.25-.54l-.36-.17S40.23,125.68,40.25,126.14Zm-2.89-2.22,0,1.88V126l.78,0s0-.81,0-1.08,0-.67,0-1l0-1-.1-.07-.26-.18-.39-.28ZM33.2,102.54a24.71,24.71,0,0,0-.9,6.23c0,8.29,7.3,15.29,15.93,15.29,5.93,0,11.64-3,16.07-8.58l.4-.5-.63.11c-.36.06-.73.1-1.1.13l-.25,0-.06,0a16,16,0,0,1-10.4,3.55c-6.89,0-14.22-4.3-14.22-12.26v-.22a1.1,1.1,0,0,1,1.08-1,1,1,0,0,1,1,1.05v.17c0,6.62,6.26,10.2,12.14,10.2a14,14,0,0,0,9-3l0,0,0,0a1.06,1.06,0,0,1,.29-.33c2.63-1.73,4.21-4.47,4.82-8.37l.08-.53-.45.28a14.73,14.73,0,0,1-1.72.91,1,1,0,0,1-.42.09,1,1,0,0,1-.66-.23,1.05,1.05,0,0,1-.36-1,15.2,15.2,0,0,0,.37-3.37,19,19,0,0,0-.2-2.68l-.09-.65-.35.55c-2.38,3.71-7.33,7.45-12.19,7.45A10.6,10.6,0,0,1,42,101.35l-.12-.17-.19.1a12.15,12.15,0,0,1-5.78,1.36,11,11,0,0,1-2.43-.27l-.23-.05ZM36.59,86h-.53a7.66,7.66,0,0,0-6.31,4.31l-.07.12.07.12a7.42,7.42,0,0,0,.61.93,1,1,0,0,1,.13,1,1.06,1.06,0,0,1-.85.62,2.57,2.57,0,0,0-.4.07l-.2.05-.19,0v.19l0,.21c0,.14,0,.27,0,.4,0,2.6,1.9,6.48,7.14,6.48s8.54-3,8.54-7.44C44.46,93.06,43.75,86,36.59,86Zm67,41.26c-9.46,0-15.11-7.28-15.11-14.31a14.88,14.88,0,0,1,5.47-11.57,12.11,12.11,0,0,1,4-2.1,11.84,11.84,0,0,1,3.6-.54c8.2,0,15.39,6.94,15.39,14.85A13.52,13.52,0,0,1,103.55,127.24Zm-2.07-26.44a10,10,0,0,0-3,.44A10.55,10.55,0,0,0,95.2,103a12.83,12.83,0,0,0-4.69,10c0,5.93,4.57,12.23,13,12.23,6.73,0,11.25-6,11.25-11.59C114.8,106.77,108.57,100.8,101.48,100.8Zm48.22,24a1,1,0,0,1-.71-.28,1.08,1.08,0,0,1-.33-.74c-.15-6-.39-11.56-.62-17-.37-8.6-.72-16.72-.72-25.94,0-2.93,0-5.18.12-7.29a.4.4,0,0,0,0-.15.53.53,0,0,1,0-.22l0-.07c.12-2.63.3-5.1.56-8.57a1.08,1.08,0,0,1,1.08-1c.39,0,.79,0,1.19,0,.13,0,12.8-.76,27.17-.76,11,0,20.88.32,31.29.66h.14c5.9.2,12,.4,18.38.53a1.05,1.05,0,0,1,1,1.06c0,1.1,0,1.75,0,2.26,0,1,0,1.41,0,3.54,0,11,.29,20.77.6,31.13v.16c.19,6.25.37,12.7.5,19.48a1,1,0,0,1-.31.75,1,1,0,0,1-.71.31c-1.57,0-3-.06-4.29-.06a53.33,53.33,0,0,0-5.81.26l-1.25.1c-13.42,1.09-26.83,1.17-39.79,1.24-9,0-18.27.11-27.4.49Zm76.19-51.1c-10.25.12-20.27.14-29.1.16-15.84,0-30.8.07-47.07.52h-.23v.23c0,1.81-.08,3.79-.08,6.25,0,9.18.35,17.28.71,25.85.22,5,.44,10.2.59,15.71v.25H151c8.76-.34,17.6-.4,26.16-.45,12.93-.07,26.3-.15,39.66-1.23l1.24-.1a58.12,58.12,0,0,1,6-.26l3,0h.25v-.26c-.13-6.27-.3-12.28-.47-18.09v-.19c-.26-9-.54-18.27-.58-28.18v-.24Zm-48.43-8.74c-14,0-26.58.72-27.11.75H150l0,.23c-.18,2.39-.31,4.25-.41,6.1v.27h.26c16.28-.45,31.87-.48,46.94-.52,8.87,0,18.93,0,29.11-.16h.24V70.9c0-2.12,0-2.57,0-3.56,0-.3,0-1.24,0-1.24H226c-6-.14-11.68-.32-17.21-.5h-.06C198.29,65.25,188.48,64.93,177.46,64.93ZM103,121.33a1,1,0,0,1-1-1c-.07-1.46-.2-2.92-.33-4.42l0-.22h-.68a18.75,18.75,0,0,0-3.51.27l-.2,0a1,1,0,0,1-.19-2.06,21.25,21.25,0,0,1,3.9-.31h.5l0-.27c-.14-1.75-.3-3.82-.3-5.89a1,1,0,0,1,2.08,0c0,2,.15,4.09.32,6l0,.22h.21c.85,0,1.61.06,2.37.06.56,0,1.06,0,1.54,0h.08a1,1,0,0,1,0,2.07c-.5,0-1,0-1.61,0-.75,0-1.52,0-2.19,0h-.27l0,.28c.12,1.34.24,2.77.31,4.21a1,1,0,0,1-1,1.08Zm29.87-4.7a1,1,0,0,1-1-1.08c.06-1.4.09-2.89.09-4.55,0-2.42-.07-4.88-.13-7.26s-.12-4.87-.12-7.34.07-4.6.21-6.73l-.45-.15a16.32,16.32,0,0,1-2.54,3.32,1.07,1.07,0,0,1-.72.28,1,1,0,0,1-.75-.33,1,1,0,0,1,0-1.46,16.52,16.52,0,0,0,2.58-3.5A26.84,26.84,0,0,1,132,85l0,0,0,0a.9.9,0,0,1,.36-.48,1,1,0,0,1,.58-.18,1.06,1.06,0,0,1,.86.45A26.22,26.22,0,0,0,139.44,91a1,1,0,0,1,.4.69,1,1,0,0,1-1,1.17,1,1,0,0,1-.63-.21,23.36,23.36,0,0,1-3.72-3.63l-.38-.46-.05.6c-.17,2.23-.26,4.58-.26,7.2,0,2.41.07,4.88.13,7.26s.12,4.9.12,7.34c0,1.7,0,3.22-.09,4.64a1,1,0,0,1-1,1Zm23.37-.65a1,1,0,0,1-1-.93,1,1,0,0,1,.23-.76,1,1,0,0,1,.69-.38,54.92,54.92,0,0,1,6.15-.29c1.16,0,2.33,0,3.49,0h.13c1.12,0,2.25,0,3.37,0h.89a11.06,11.06,0,0,0,2.59-.19.9.9,0,0,1,.28,0,1.05,1.05,0,0,1,1,.75,1,1,0,0,1-.71,1.28,12,12,0,0,1-3.18.27h-.87c-1.18,0-2.35,0-3.52,0h-.13c-1.11,0-2.23,0-3.34,0a56,56,0,0,0-5.92.27Zm25.18-.85a1,1,0,0,1-1-1,1.06,1.06,0,0,1,.29-.74,1,1,0,0,1,.73-.32c2.29,0,4.6-.08,6.86-.08s4.57,0,6.87.08a1.07,1.07,0,0,1,.73.32,1,1,0,0,1,.28.74,1,1,0,0,1-1,1c-2.31-.05-4.6-.07-6.85-.07s-4.54,0-6.82.07Zm22.3-.43a1,1,0,0,1,0-2.08c2.24-.09,4.54-.13,6.57-.16,2.85,0,5.78-.08,8.69-.26H219a1,1,0,0,1,1,1,1,1,0,0,1-.25.75,1.06,1.06,0,0,1-.72.35c-3,.18-5.91.23-8.77.27-2.16,0-4.36.07-6.54.16ZM7.13,112.41a1,1,0,0,1-1-.82A41.2,41.2,0,0,1,5.34,106l0-.25-.25,0A39.26,39.26,0,0,1,1,106a1,1,0,1,1,0-2.07c1.3,0,2.66-.12,3.94-.25l.23,0v-.23c-.06-1.81-.07-3.57-.07-5.52a1,1,0,1,1,2.08,0c0,1.87,0,3.56.06,5.28v.26l.26,0c1-.1,2.38-.21,3.73-.21.61,0,1.18,0,1.72.07a1,1,0,0,1-.09,2.07h-.08c-.5,0-1-.06-1.58-.06a35.86,35.86,0,0,0-3.61.21l-.24,0,0,.24a39.23,39.23,0,0,0,.74,5.39,1,1,0,0,1-.15.79,1,1,0,0,1-.65.45Zm251-.48c-9.46,0-15.11-7.28-15.11-14.31a14.88,14.88,0,0,1,5.47-11.57,12.21,12.21,0,0,1,4-2.1,11.84,11.84,0,0,1,3.6-.54c8.2,0,15.4,6.94,15.4,14.85A13.53,13.53,0,0,1,258.13,111.93Zm-2.07-26.44a10,10,0,0,0-3,.44,10.55,10.55,0,0,0-3.3,1.74,12.82,12.82,0,0,0-4.68,10c0,5.93,4.56,12.23,13,12.23,6.73,0,11.25-6,11.25-11.59C269.38,91.46,263.15,85.49,256.06,85.49Zm-99.51,25.57a1,1,0,0,1,0-2.07c1.91,0,3.82-.13,5.68-.21h.06c2.58-.11,5.24-.23,7.92-.23l1.68,0a1,1,0,0,1,1,1.06,1,1,0,0,1-1,1h-1.69c-2.59,0-5.19.11-7.71.23h-.09c-1.87.08-3.81.17-5.78.21Zm24.27-1a1,1,0,0,1-1-1,1,1,0,0,1,.26-.75,1,1,0,0,1,.71-.35c2-.14,4.19-.2,7-.2l3.84,0,3.78,0a1,1,0,1,1,0,2.07l-3.8,0-3.82,0c-2.78,0-4.9,0-6.88.19Zm37-.43c-1.58,0-3.18,0-4.73,0s-3.18,0-4.76,0c-1.76,0-3.29,0-4.68.09h0a1,1,0,0,1,0-2.07c1.41-.07,3-.1,4.77-.1,1.63,0,3.31,0,4.79,0h.1c1.51,0,3.08,0,4.6,0a1,1,0,1,1,0,2.07ZM257.56,106a1,1,0,0,1-1-1c-.07-1.46-.2-2.92-.33-4.42l0-.22h-.68a18.75,18.75,0,0,0-3.51.27l-.2,0a1,1,0,0,1-.19-2.06,21.25,21.25,0,0,1,3.9-.31h.5l0-.27c-.14-1.75-.29-3.82-.29-5.89a1,1,0,1,1,2.07,0c0,2,.15,4.08.32,6l0,.22h.21c.74,0,1.57,0,2.37,0,.56,0,1.07,0,1.54,0h.06a1,1,0,0,1,.07,2.07c-.5,0-1,0-1.61,0-.75,0-1.52,0-2.18,0h-.28l0,.28c.12,1.34.24,2.78.32,4.21a1,1,0,0,1-.27.74,1,1,0,0,1-.72.34Zm-95.46-.4c-1.84,0-3.65,0-5.38-.11a1,1,0,0,1-.72-.33,1,1,0,0,1-.28-.75,1.07,1.07,0,0,1,1.08-1c1.72.07,3.51.11,5.3.11,3.09,0,6.26-.11,9.67-.33h.08a1,1,0,0,1,.77,1.73,1.1,1.1,0,0,1-.72.35C168.45,105.51,165.24,105.61,162.1,105.61Zm31-.32c-1.56,0-3.1-.07-4.6-.14-1.26-.06-2.92-.12-4.51-.12a34.3,34.3,0,0,0-3.48.15h-.12a1,1,0,0,1-.8-1.69,1,1,0,0,1,.7-.38A35.68,35.68,0,0,1,184,103c1.29,0,2.71,0,4.6.13,1.29.06,3,.13,4.56.13,1.11,0,2,0,2.87-.1h.09a1,1,0,0,1,1,1,1,1,0,0,1-.24.75,1,1,0,0,1-.71.37C195.23,105.26,194.22,105.29,193.09,105.29Zm10.61-.64a1,1,0,0,1-.14-2.07,50.18,50.18,0,0,1,6.5-.3h1.07a42.43,42.43,0,0,0,7.25-.44l.18,0a1,1,0,0,1,1,.86,1,1,0,0,1-.84,1.2,43.59,43.59,0,0,1-7.61.47h-1.07a47.39,47.39,0,0,0-6.23.29Zm-47.15-4.49a1,1,0,1,1,0-2.08c2.16,0,4.35-.06,6.47-.12h.06c2,0,4.34-.11,6.62-.11.72,0,1.44,0,2.16,0a1,1,0,0,1,1,1,1,1,0,0,1-1.06,1l-2.17,0c-2.2,0-4.39.06-6.5.12S158.78,100.16,156.55,100.16Zm35.7-.55c-1.6,0-3.27-.07-4.74-.13h-.16c-1.47-.06-3-.12-4.49-.12-.76,0-1.45,0-2.1,0a1,1,0,0,1-1.09-1,1.07,1.07,0,0,1,.27-.75,1,1,0,0,1,.72-.34c.69,0,1.4,0,2.19,0,1.59,0,3.19.06,4.74.12s3.14.11,4.74.11c1.1,0,2,0,2.85-.08h.11a1,1,0,0,1,1,1,1,1,0,0,1-1,1.1C194.38,99.58,193.37,99.61,192.25,99.61Zm21.1-.49c-1.49,0-3,0-4.45-.07s-3-.07-4.45-.07a1,1,0,1,1,0-2.08c1.48,0,3,0,4.42.07H209c1.43,0,2.91.07,4.4.07,1.64,0,3.07,0,4.39-.14h.06a1.06,1.06,0,0,1,1,1,1,1,0,0,1-1,1.11C216.52,99.07,215,99.12,213.35,99.12ZM156.7,94.38a1.05,1.05,0,0,1-.73-.29,1,1,0,0,1-.31-.73c0-2.2-.1-4.43-.18-6.58v-.1c-.07-1.8-.14-3.66-.17-5.48a1,1,0,0,1,.32-.76,1,1,0,0,1,.71-.3h.06c1.32.07,2.79.1,4.5.1,2.72,0,5.59-.09,8-.18h.12l3.31-.11h.06a1,1,0,0,1,.69.29,1,1,0,0,1,.32.73c0,1.3.08,2.62.13,3.93.07,2.17.16,4.41.16,6.63,0,.39,0,.78,0,1.17a1,1,0,0,1-1,1c-1.7.07-3.42.16-5.13.25C164,94.16,160.34,94.34,156.7,94.38Zm.72-11.85c0,1.39.08,2.78.14,4.17.06,1.77.12,3.57.16,5.35v.24H158c3.15-.07,6.36-.23,9.46-.38l.33,0,3.65-.18h.24v-.23c0-2.17-.08-4.37-.16-6.49l-.09-2.67v-.24l-2.37.08c-2.64.09-5.33.19-8,.19-1.2,0-2.3,0-3.37-.06h-.26ZM35.63,93.72A2.7,2.7,0,0,1,32.85,91a3.23,3.23,0,0,1,.74-2.07,1.85,1.85,0,0,1,1.47-.63,3.18,3.18,0,0,1,3.31,2.56s0,.19,0,.23A3,3,0,0,1,35.63,93.72ZM35,90.51a1.28,1.28,0,0,0-.09.46.63.63,0,0,0,.68.67h.06a1.08,1.08,0,0,0,.64-.55l0-.07,0-.07c-.06-.26-.6-.52-1-.58l-.19,0Zm157,3.17c-3.65,0-7.45-.06-11.63-.18a1,1,0,0,1-1-1l0-2.11c-.07-2.92-.15-6.21-.18-9.4a1.07,1.07,0,0,1,.32-.76,1,1,0,0,1,.7-.29h.07c1.45.07,3,.11,4.75.11s3.63,0,5.41-.08h.08c1.34,0,2.68,0,4-.06a1.07,1.07,0,0,1,.74.29,1,1,0,0,1,.31.74c0,4.5.16,8.2.4,11.62a1,1,0,0,1-1,1.11ZM181.24,82.31c0,2.57.1,5.2.16,7.74l0,1.4h.23c3.67.09,7.1.14,10.48.14h1.67l0-.26c-.16-2.74-.26-5.72-.3-9.11V82h-.25l-2.41,0h-.31c-1.72,0-3.73.07-5.62.07-1.29,0-2.4,0-3.4,0h-.26ZM203.58,93.5a1,1,0,0,1-1-1c-.23-3.89-.46-8-.58-12.18a1,1,0,0,1,1-1.06h.1c4.39.41,8.73.5,13.91.51a1,1,0,0,1,1,1V81c.19,3.47.39,7.05.76,10.55a1,1,0,0,1-.88,1.14,85.68,85.68,0,0,1-10.27.68c-1.32,0-2.68.07-4,.13Zm.5-11.78c.12,3.3.3,6.61.46,9.42v.24h.24l2.8-.08c2.89-.08,5.87-.16,8.8-.5l.24,0,0-.24c-.27-2.87-.44-5.73-.58-8.42l0-.23h-.23c-4.81,0-8.23-.14-11.43-.39l-.28,0ZM82,92a1,1,0,0,1-.54-.15,1,1,0,0,1-.34-1.43C84.71,84.6,95.72,84.14,99,84.14c1.22,0,2.41,0,3.57.08h.08c1.1,0,2.24.07,3.36.07,5.93,0,8.93-.88,9.44-2.75V80.28a4.14,4.14,0,0,0-1.39-2.07l-.1-.06a.56.56,0,0,1-.17-.11c-.93-.93-2.38-1-6.8-1a56.28,56.28,0,0,0-28.36,7.39,1.07,1.07,0,0,1-.52.14,1,1,0,0,1-.51-.14,1,1,0,0,1-.53-.88L77,79.94c0-2.19-.08-4.37-.11-6.56v-.27l-.28,0a94.81,94.81,0,0,0-16,3.58.81.81,0,0,1-.31,0,1.1,1.1,0,0,1-.61-.19,1.07,1.07,0,0,1-.43-.83L59.09,62c-.25-16.52-.5-33.56-1-50.31a1.06,1.06,0,0,1,.65-1C66.4,7.53,75.51,6,86.58,6c8.8,0,16.75.29,24.9,3.78,2.72,1.17,4.28,3.07,4.39,5.35.1,2.11.25,4.31.46,6.74,1.09,12.87,1.18,26.12,1.18,37.52V71.1c0,3.47,0,6.32,0,9a5,5,0,0,1,.08.91c0,5.41-8.42,5.41-11.59,5.41-1.17,0-2.36,0-3.51-.08h-.05c-1.13,0-2.29-.07-3.45-.07-6.21,0-13.71,1.39-16.1,5.31A1,1,0,0,1,82,92Zm5.64-19.64a84.26,84.26,0,0,0-8.48.45l-.22,0v.22c0,2.09.06,4.32.11,6.8l0,1.91.35-.19a58.82,58.82,0,0,1,26-6.58l.05-.48A80.3,80.3,0,0,0,87.66,72.39Zm0-2.08c.19,0,19.31.34,26.89,5.69a1.4,1.4,0,0,1,.18.13l.14.1.17.12.4.31v-.5c0-1.69,0-3.37,0-5.06l0-11.7c0-11.36-.09-24.55-1.18-37.35-.21-2.44-.36-4.67-.46-6.81-.09-2-2-3.06-3.14-3.54-7.78-3.34-15.51-3.61-24.08-3.61-10.41,0-19,1.36-26.24,4.16l-.16.06v.17c.49,16.56.74,33.28,1,49.45L61.35,74v.32l.31-.09A90.74,90.74,0,0,1,87.66,70.31ZM244.74,74a1,1,0,0,1-1-1.32,61.05,61.05,0,0,1,2.67-7.62l.06-.14-.09-.12a4.47,4.47,0,0,1-1-2.82c0-1.49.67-3.21,2.17-3.72a5.56,5.56,0,0,1,1.73-.31c1.85,0,4.67,1.85,4.67,4.13a4.3,4.3,0,0,1-.75,2.49l-.09.12.07.13c1.19,2.27,2.39,4.66,3.66,7.32a1,1,0,0,1,0,1,1.07,1.07,0,0,1-.82.52c-3.12.25-6.31.3-9.4.35Zm3.38-7.66a55.27,55.27,0,0,0-1.88,5.24l-.1.32h.4c2.42,0,4.92-.07,7.37-.21l.37,0-.17-.34c-.87-1.8-1.72-3.47-2.57-5.11l-.1-.2-.2.09a4.45,4.45,0,0,1-1.59.31,3.91,3.91,0,0,1-1.23-.22l-.21-.07ZM249.25,60a3.41,3.41,0,0,0-1.07.2c-.45.15-.76,1-.76,1.75a2.35,2.35,0,0,0,2.23,2.36,2.18,2.18,0,0,0,2.19-2.26C251.84,61.17,250.11,60,249.25,60ZM29.67,73.57a1,1,0,0,1-.74-.39c-6.86-8.59-10.06-16.08-10.06-23.6s3.6-10.94,11.66-10.94S43,42.86,43,50.84c0,9.4-6.69,16.93-12.52,22.45a1.07,1.07,0,0,1-.72.28Zm.86-32.86c-8,0-9.58,3.4-9.58,8.87,0,6.72,2.77,13.46,8.74,21.2l.16.21.2-.19c5.06-4.91,10.86-11.62,10.86-20C40.91,43.93,37.61,40.71,30.53,40.71ZM134,63.77a1,1,0,0,1-1-1c0-1.5-.1-3-.2-4.44l0-.5h-.31a15.59,15.59,0,0,1-4.14-.48,1,1,0,0,1-.63-.49,1.06,1.06,0,0,1-.1-.78,1,1,0,0,1,1-.77.84.84,0,0,1,.27,0,13.35,13.35,0,0,0,3.53.4h.26l0-.35c0-.52,0-1,0-1.59,0-.83,0-1.61.09-2.36a1,1,0,0,1,1-1h.1a1,1,0,0,1,.71.37,1,1,0,0,1,.24.75c-.06.7-.08,1.41-.08,2.19,0,.52,0,1,0,1.54v.32H135c.85-.05,1.81-.1,2.73-.1.65,0,1.22,0,1.76.08a1,1,0,0,1,.7.37,1,1,0,0,1,.23.75,1,1,0,0,1-1,1h-.11c-.49,0-1-.06-1.58-.06-.83,0-1.68,0-2.51.09l-.47,0,0,.4c.1,1.5.21,3,.21,4.61A1,1,0,0,1,134,63.77Zm-25.86-.54a1,1,0,0,1-.3,0,43.56,43.56,0,0,0-12.66-1.72c-.57,0-1.14,0-1.71,0h-.07a1,1,0,0,1-1-.94c-.08-.89-.17-1.78-.26-2.67l0-.13c-.27-2.64-.55-5.37-.57-8.11a1,1,0,0,1,.3-.75,1.17,1.17,0,0,1,.76-.3,73.38,73.38,0,0,1,15.25,2.21,1,1,0,0,1,.82,1c0,2.15.15,4.33.28,6.44.08,1.21.16,2.56.22,3.91a1,1,0,0,1-1,1.08Zm-13-3.84a47.33,47.33,0,0,1,11.53,1.33l.33.08,0-.33c0-.7-.09-1.4-.13-2.09v-.06c-.11-1.79-.23-3.63-.27-5.48v-.19l-.18,0A72.75,72.75,0,0,0,93.88,50.7h-.27V51c.08,2.23.31,4.44.54,6.58,0,.55.19,1.87.19,1.87ZM68.8,63.2a1.07,1.07,0,0,1-.6-.19,1,1,0,0,1-.43-.77c-.58-7.53-1.11-14.91-1.27-22.39a1,1,0,0,1,.72-1c6.06-2,12.32-2.55,18.19-2.84a1.11,1.11,0,0,1,.75.27,1.05,1.05,0,0,1,.33.72c.17,4.06.39,8.2.6,12.19.21,3.78.42,7.66.57,11.51a1,1,0,0,1-.28.76,1.07,1.07,0,0,1-.75.32h-1.7c-5.48,0-10.82.1-15.87,1.4A1.09,1.09,0,0,1,68.8,63.2ZM84.21,38.14a65.33,65.33,0,0,0-15.43,2.38l-.18.06v.19c.18,6.92.67,13.86,1.12,19.82l0,.28.27-.06a71.55,71.55,0,0,1,14.91-1.12h.61v-.25c-.14-3.36-.33-6.78-.51-10.08v0c-.18-3.38-.39-7.22-.55-10.94v-.24ZM30.48,57a5.21,5.21,0,0,1-4.85-5.4,4.6,4.6,0,0,1,4-4.75,10.78,10.78,0,0,1,1.77-.2,5.5,5.5,0,0,1,5,5.65C36.39,55.13,32.51,57,30.48,57Zm.88-8.27a8.66,8.66,0,0,0-1.42.17,2.58,2.58,0,0,0-2.24,2.7,3.2,3.2,0,0,0,2.78,3.32c1.34,0,3.83-1.35,3.83-2.62A3.43,3.43,0,0,0,31.36,48.69Zm148.88,3.46c-7.61,0-22.53-6.18-22.53-20.48,0-8.65,5.42-17.65,13.18-21.9a19.12,19.12,0,0,1,9.41-2.24c13.08,0,21.87,9.36,21.87,23.3C202.17,42.59,192.33,52.15,180.24,52.15ZM180.3,9.6a17.13,17.13,0,0,0-8.42,2c-7,3.84-12.09,12.28-12.09,20.08,0,13.88,15.21,18.41,20.45,18.41,10.95,0,19.85-8.63,19.85-19.25S194,9.6,180.3,9.6Zm68.4,39.62c-6.11,0-13.26-.44-19.56-.83h-.06c-4.94-.31-9.2-.57-12-.57-.83,0-1.58,0-2.31.07h-.07a1,1,0,0,1-1-1c-.31-3.52-.56-7.26-.81-12.13v-.14c-.39-7.62-.61-15.06-.79-22a1,1,0,0,1,1-1.06h.09a1,1,0,0,1,1,1c.16,6.15.36,13.31.71,20.44v.32l.31-.1c1.93-.64,4.06-1.31,6.71-2.1,3.75-1.12,7.62-2.28,11.22-3.71a1.09,1.09,0,0,1,.39-.08,1,1,0,0,1,.93.59c.3.63.59,1.26.88,1.9.44,1,.84,1.86,1.29,2.73l.1.2.21-.09c2.57-1.11,5.19-2.15,7.72-3.15l.13-.05c2.29-.91,4.65-1.86,7-2.84l.5-.21-.49-.23a14.85,14.85,0,0,1-4.47-2.6,1,1,0,0,1-.33-.72,1.09,1.09,0,0,1,.28-.75,1,1,0,0,1,.76-.32,1,1,0,0,1,.71.28,12.92,12.92,0,0,0,3.85,2.19c.71.31,1.35.6,2,.91l.1.05.1,0a1.19,1.19,0,0,1,.4-.08,1,1,0,0,1,.46.11,1.06,1.06,0,0,1,.51.61,1,1,0,0,1-.07.79,19.51,19.51,0,0,0-1.53,4.78c-.22,1-.45,2-.77,3a1,1,0,0,1-1,.72.86.86,0,0,1-.32,0,1,1,0,0,1-.67-1.3c.28-.89.49-1.81.71-2.78s.37-1.56.55-2.19l.13-.49-.46.19c-2.18.93-4.54,1.9-7.24,3s-5.83,2.31-8.73,3.59a1,1,0,0,1-.42.09,1,1,0,0,1-.89-.52,41.47,41.47,0,0,1-1.93-3.9l-.46-1-.21.08c-3.36,1.27-6.87,2.32-10.27,3.33-2.37.71-4.89,1.48-7.34,2.31l-.17.06v.18c.2,3.82.41,7,.65,9.85l0,.23h.24l1.19,0c2.91,0,7.2.27,12.18.57,6.3.39,13.43.83,19.48.83,2.59,0,5-.07,7.28-.21H256a1,1,0,0,1,1,1,1.09,1.09,0,0,1-.26.75,1.06,1.06,0,0,1-.72.35C253.75,49.15,251.33,49.22,248.7,49.22ZM107.89,47a.81.81,0,0,1-.31-.05,48.67,48.67,0,0,0-14.4-2.7c-.41,0-.83,0-1.24,0a1,1,0,0,1-1.08-1c0-1.37,0-2.8-.08-4.05,0-1,0-2.07-.06-3.08a1,1,0,0,1,1-1c.87-.05,1.76-.08,2.63-.08a42.2,42.2,0,0,1,13.8,2.34,1,1,0,0,1,.69,1c0,.84,0,1.66,0,2.48,0,2.06,0,3.63.13,5.11a1,1,0,0,1-.4.88A1.05,1.05,0,0,1,107.89,47ZM94.28,37c-.41,0-.82,0-1.23,0h-.24l0,2.06c0,.93,0,1.86.06,2.79v.24h.24a47.2,47.2,0,0,1,13.29,2.27l.32.09v-.34c0-1,0-2.11,0-3.4V39l-.17-.06A40.14,40.14,0,0,0,94.28,37Zm87.41,8.26a1,1,0,0,1-1-1v-2.3a1,1,0,1,1,2.07,0v2.3A1,1,0,0,1,181.69,45.28ZM174,41.45a1,1,0,0,1-.44-.1A1,1,0,0,1,173.1,40c.92-1.93,2-3.81,3.05-5.63.71-1.23,1.43-2.48,2.1-3.75l.09-.16-.13-.12c-1.8-1.84-3.47-3.84-5.09-5.77-1.2-1.43-2.42-2.89-3.68-4.27a1.06,1.06,0,0,1-.27-.74,1.09,1.09,0,0,1,.34-.72,1,1,0,0,1,.7-.27,1.07,1.07,0,0,1,.77.33c1.28,1.42,2.53,2.9,3.73,4.33,1.8,2.16,3.65,4.36,5.62,6.29a1,1,0,0,1,.2,1.22c-.81,1.59-1.7,3.14-2.57,4.64-1,1.79-2.09,3.64-3,5.52A1,1,0,0,1,174,41.45ZM66.2,35.25a1,1,0,0,1-1-1c0-1.4,0-2.8,0-4.2V29.8c0-2.64,0-5.34-.15-8a1,1,0,0,1,.73-1,.81.81,0,0,1,.31-.05,1,1,0,0,1,.87.48c1.07,1.66,2.34,3.45,4,5.62l.48.63L70.83,18a1,1,0,0,1,.26-.75,1,1,0,0,1,.72-.34h0a1,1,0,0,1,1,1l.69,12.74a1,1,0,0,1-.67,1,.89.89,0,0,1-.36.07,1,1,0,0,1-.82-.4c-1.38-1.75-2.8-3.56-4.16-5.42l-.45-.63v.78c0,1.22,0,2.44,0,3.63v.08c0,1.47,0,2.94,0,4.42A1,1,0,0,1,66.2,35.25Zm35.17-2.35a1,1,0,0,1-.18-2.06c3.79-.67,6-1.76,6-2.91,0-.63-.69-.86-2.65-1.17S99.81,26,99.81,23.1c0-2.69,3.19-3.94,5.35-3.94A5.14,5.14,0,0,1,109,20.67a1,1,0,0,1-1.51,1.43,3.08,3.08,0,0,0-2.3-.86c-1.31,0-3.28.74-3.28,1.86,0,1,.76,1.24,3,1.61,1.86.3,4.4.7,4.4,3.22,0,3.59-5.84,4.62-7.76,5Zm61.95-.25a1,1,0,0,1,0-2.07h2.49a1,1,0,1,1,0,2.07Zm-34.8-.27a1.06,1.06,0,0,1-.83-.42,1,1,0,0,1-.15-.95,127.48,127.48,0,0,1,4.83-12.28l.08-.19-.17-.12a6.31,6.31,0,0,1-2.92-5.3c0-3.47,2.44-7.2,6.39-7.2a6.77,6.77,0,0,1,1.09.09l.42.07a6,6,0,0,1,3,1.12,8,8,0,0,1,2.85,5.72,7.31,7.31,0,0,1-3.18,5.71l-.18.12.09.19a96.06,96.06,0,0,0,6.58,11.18,1,1,0,0,1-.8,1.6c-3.57.23-7.17.34-10.65.44h-.12c-2.05.07-4.17.13-6.26.22Zm5.74-12.81c-1.47,3.21-2.82,6.59-4.14,10.33l-.12.34h.36l4.53-.14c2.74-.09,5.57-.17,8.37-.31l.42,0-.23-.36a82.61,82.61,0,0,1-5.55-9.67l-.09-.17-.18,0a5.54,5.54,0,0,1-1,.11,8,8,0,0,1-2.07-.27l-.2-.05ZM135.75,8c-2.58,0-4.31,2.65-4.31,5.13,0,2.82,2.63,4.5,5.18,4.5,2.32,0,4.39-2.63,4.39-4.7a6,6,0,0,0-2-4.08,4.07,4.07,0,0,0-2-.71l-.46-.07A3.61,3.61,0,0,0,135.75,8ZM76.06,30a1,1,0,0,1-.67-.25A1,1,0,0,1,75,29c-.14-3-.15-6-.15-8.54V18.08a1,1,0,0,1,1-1c1.2,0,2.42-.07,3.59-.12,1.33-.06,2.68-.13,4-.13l1.18,0a1,1,0,0,1,1,1.07,1,1,0,0,1-1,1H83.56c-1.35,0-2.73.06-4,.12-.8,0-1.61.08-2.42.1H77V20.5c0,.49,0,1.78,0,1.78l.27,0A21.54,21.54,0,0,1,80.86,22a1,1,0,0,1,0,2.07,20.26,20.26,0,0,0-3.42.23l-.43.06,0,.22c0,1,0,1.95.07,2.95v.28l.27-.05,1.81-.29c1.45-.25,2.91-.5,4.41-.61h.09a1,1,0,0,1,1,1,1,1,0,0,1-.25.76,1,1,0,0,1-.71.35c-1.39.11-2.75.34-4.18.58-1.09.18-2.21.37-3.34.5Zm12.47-.45a1,1,0,0,1-.9-.53c-.53-.95-1-1.71-1.55-2.45a23.53,23.53,0,0,1-2.23-3.83,1,1,0,0,1,.53-1.37,1,1,0,0,1,.42-.09,1,1,0,0,1,1,.61,20.83,20.83,0,0,0,2,3.49l.51.76.15-.51c.12-.43.25-.89.37-1.35l0-.17a24.2,24.2,0,0,1,1.8-5.23,1.08,1.08,0,0,1,.84-.49,1,1,0,0,1,.88.42,18.39,18.39,0,0,1,1.86,4.48l0,.08c.17.51.35,1.06.54,1.59l.21.6.25-.58c.64-1.53,1.29-3.05,1.94-4.54L98.28,18a1,1,0,0,1,1-.63,1,1,0,0,1,.41.09,1,1,0,0,1,.56.57,1,1,0,0,1,0,.79l-1.08,2.49c-1,2.35-2.06,4.77-3,7.21a1.06,1.06,0,0,1-.81.65h-.15a1,1,0,0,1-.81-.39,17.78,17.78,0,0,1-2-4.78c-.14-.4-.27-.81-.41-1.22l-.25-.72-.22.73-.5,1.79,0,.12A27.65,27.65,0,0,1,89.46,29,1.07,1.07,0,0,1,88.53,29.58Zm102.53-.37a1,1,0,0,1-.21-2.06c.54-.1,1.1-.15,1.64-.2h.07a11.31,11.31,0,0,0,1.35-.17l.21,0a1,1,0,0,1,.2,2.06c-.53.1-1.09.15-1.64.2h-.07a11.85,11.85,0,0,0-1.35.17Zm-10.9-10.52a1,1,0,0,1-1-1c0-.2,0-.42,0-.64s0-.42,0-.6a1.9,1.9,0,0,0-.13-.78,1,1,0,0,1,.46-1.39,1,1,0,0,1,.46-.11,1,1,0,0,1,.93.57,3.7,3.7,0,0,1,.35,1.71c0,.24,0,.48,0,.72s0,.37,0,.52A1,1,0,0,1,180.16,18.69Zm50.47-5.39a1,1,0,0,1-1-1c0-1.51-.11-3-.21-4.45l0-.49H229a15.19,15.19,0,0,1-4.14-.48,1,1,0,0,1,.27-2,.9.9,0,0,1,.28,0,13.35,13.35,0,0,0,3.53.4h.26l0-.34c0-.52,0-1.06,0-1.59,0-.84,0-1.62.09-2.37a1,1,0,0,1,1-.95h.1a1,1,0,0,1,1,1.13c-.06.68-.09,1.4-.09,2.19,0,.51,0,1,.05,1.52v.34l.38,0c1,0,1.87-.09,2.74-.09.64,0,1.21,0,1.74.07a1,1,0,0,1-.09,2.07H236a15.11,15.11,0,0,0-1.57-.07c-.83,0-1.69.05-2.53.09l-.45,0,0,.41c.11,1.49.21,3,.21,4.61A1,1,0,0,1,230.63,13.3ZM128.36,160.52a1.05,1.05,0,0,1-1-1.33,63,63,0,0,1,2.68-7.62l.06-.14-.09-.11a4.49,4.49,0,0,1-1-2.82c0-1.49.67-3.22,2.17-3.72a5.55,5.55,0,0,1,1.73-.32c1.85,0,4.67,1.85,4.67,4.13a4.28,4.28,0,0,1-.75,2.49l-.09.12.07.13c1.19,2.27,2.38,4.67,3.66,7.32a1,1,0,0,1-.85,1.49c-3.12.26-6.31.3-9.4.35Zm3.38-7.67a55.51,55.51,0,0,0-1.88,5.25l-.1.31h.4c2.42,0,4.92-.07,7.37-.21l.37,0-.17-.33c-.88-1.8-1.72-3.48-2.57-5.12l-.1-.19-.21.08a4,4,0,0,1-2.81.1l-.21-.07Zm1.13-6.31a3.46,3.46,0,0,0-1.07.21c-.45.15-.76,1-.76,1.75a2.36,2.36,0,0,0,2.23,2.36,2.19,2.19,0,0,0,2.19-2.27C135.46,147.67,133.73,146.54,132.87,146.54Z"/></g></g></svg>