<svg xmlns="http://www.w3.org/2000/svg" viewBox="0 0 141.73 139.35"><defs><style>.cls-1{fill:#ffcc80;}.cls-2{fill:#525d7d;}</style></defs><title>007_c</title><g id="Layer_2" data-name="Layer 2"><g id="Layer_1-2" data-name="Layer 1"><path class="cls-1" d="M27.13,105.92a3.6,3.6,0,0,0-2.9-.26,1.48,1.48,0,0,0-1,1.81,3.89,3.89,0,0,1-.3,1.21,1.4,1.4,0,0,0,1.37,2.08s0,0,.18.09.23.1.35.13a2.65,2.65,0,0,0,.93,0,1.85,1.85,0,0,0,1.58-1.33,2,2,0,0,0-.13-1.35,1.31,1.31,0,0,0,.42-.45A1.46,1.46,0,0,0,27.13,105.92Z"/><path class="cls-1" d="M104.32,11.62a1.58,1.58,0,0,0-.34-.29c-.4-.24-.81-.48-1.22-.7a1.56,1.56,0,0,0-2,.48.79.79,0,0,0-1,.31v0a2.65,2.65,0,0,0-.44,1.77,1.27,1.27,0,0,0,1.59,1.22,7.26,7.26,0,0,1,1.36-.33,3.73,3.73,0,0,0,1.07.26,1.55,1.55,0,0,0,1.54-1.54A1.46,1.46,0,0,0,104.32,11.62Z"/><path class="cls-1" d="M122.58,95.44a1.64,1.64,0,0,0-.79-1.49.53.53,0,0,1,.08-.17.28.28,0,0,0,0-.39,1.33,1.33,0,0,0-2.22.53,2.72,2.72,0,0,0-1.09,2.3,1.48,1.48,0,0,0,2.2,1.26,2.18,2.18,0,0,0,.88-.77A1.43,1.43,0,0,0,122.58,95.44Z"/><path class="cls-1" d="M123.2,88.11c-.16-1-1.54-.94-2-.27a5.91,5.91,0,0,0-.59,3c0,.58-.09,1.73.82,1.59.75-.11,1-1.14,1.21-1.73A4.61,4.61,0,0,0,123.2,88.11Z"/><path class="cls-1" d="M71,82a2.53,2.53,0,0,0-2,3,2.05,2.05,0,0,0,.18.61,1.86,1.86,0,0,0,1.2,2c1.52.5,2.64-1.14,3-2.41C73.69,83.65,72.7,81.85,71,82Z"/><path class="cls-1" d="M74.09,91.66c-1.63-2.37-4.37,1.59-5.59,2.54a.57.57,0,0,0,0,.81l.12.1a.76.76,0,0,0,.87.12,20,20,0,0,0,1.75-1.12c.27-.18.56-.34.84-.5l.5-.27h0A1.07,1.07,0,0,0,74,92.9l.06-.11A1.09,1.09,0,0,0,74.09,91.66Z"/><path class="cls-1" d="M74.88,98.89A24.88,24.88,0,0,0,71,100.77,46.21,46.21,0,0,0,66.91,103c-.58.38-.23,1.37.48,1.15a44.65,44.65,0,0,0,4.34-1.67,25.34,25.34,0,0,0,3.93-1.79C76.58,100.14,76,98.54,74.88,98.89Z"/><path class="cls-1" d="M77.17,106.39c-2.91,1.93-5.93,3.64-9,5.27-.64.33-.2,1.43.5,1.18a54.17,54.17,0,0,0,9.57-4.64C79.39,107.5,78.3,105.65,77.17,106.39Z"/><path class="cls-1" d="M117.41,56.84a1.27,1.27,0,0,0-.56-.65,1.46,1.46,0,0,0-1.24-.07A1.79,1.79,0,0,0,114,57.41a1.32,1.32,0,0,0,.61,1.48,2.19,2.19,0,0,0,1.59.17,1.77,1.77,0,0,0,1.31-1.33A1.51,1.51,0,0,0,117.41,56.84Z"/><path class="cls-1" d="M21.18,42.85A2.79,2.79,0,0,0,20,42a1.18,1.18,0,0,0-1.39.68,1.26,1.26,0,0,0-.05.77,1.77,1.77,0,0,0,.3.64v.1a.62.62,0,0,0,.83.72,1.31,1.31,0,0,0,1.48-.24A1.33,1.33,0,0,0,21.18,42.85Z"/><path class="cls-1" d="M58.48,31.85A1.34,1.34,0,0,0,57,31.78a1.47,1.47,0,0,0-2.26,1.81,7.86,7.86,0,0,0,1.14,1.9c0,.37,0,.73,0,1.1,0,1.5-.1,3-.22,4.5A1.31,1.31,0,0,0,57.9,42c1-1,2.51-1,3.56-1.94a2.83,2.83,0,0,0,.3-.3A1.74,1.74,0,0,0,63.37,39C65.78,36,60.46,33.08,58.48,31.85Zm-.14,6.85c0-.46,0-.94-.06-1.42l.21.1.93.91c-.27.14-.66.24-.94.35Z"/><path class="cls-1" d="M50.78,120c-.09-.45-.27-.89-.37-1.35a3.21,3.21,0,0,0-.35-1.33.83.83,0,0,0-1.28-.17,2.65,2.65,0,0,0-.49,1.69,5.79,5.79,0,0,0,.14,1.81A1.22,1.22,0,0,0,50.78,120Z"/><path class="cls-1" d="M70.78,18.91a1.85,1.85,0,0,0-1.42.26L69.05,19a.2.2,0,0,0-.21.35.62.62,0,0,1,.14.14,1.43,1.43,0,0,0-.33,1.06,1.24,1.24,0,0,0,1.22,1.22,1.19,1.19,0,0,0,1-.64,1.84,1.84,0,0,0,.55-.56A1.15,1.15,0,0,0,70.78,18.91Z"/><path class="cls-1" d="M88.61,17.38h0Z"/><path class="cls-1" d="M89.38,18.1a1.49,1.49,0,0,0-.52-.59l-.25-.13s0,0,0,0c-.38-.3-.89-.64-1.33-.49a.47.47,0,0,0-.31.56,1.24,1.24,0,0,0,.29.46l.08.12a.21.21,0,0,0,0,.07.72.72,0,0,0-.06.36c0,.06,0,.08,0,.07a1.21,1.21,0,0,0,.32,1,1.19,1.19,0,0,0,1.86-1.43Z"/><path class="cls-1" d="M30.1,70.84c-.28-2.66-.48-5.32-.63-8-.14-2.46.08-5.19-.62-7.56a.85.85,0,0,0-1.64.07c-.76,2.32-.54,5.08-.5,7.49,0,2.66.22,5.32.47,8C27.35,72.7,30.29,72.7,30.1,70.84Z"/><path class="cls-2" d="M115.1,60.57a.39.39,0,0,1-.15,0,.53.53,0,0,1-.37-.43c-.07-.56-.13-1.12-.19-1.67l-.06-.53a7,7,0,0,1-1.25-.64.51.51,0,0,1-.23-.48.52.52,0,0,1,.31-.43,12.35,12.35,0,0,1,1.65-.56l.09,0c0-.07,0-.13,0-.2a8.64,8.64,0,0,1,.21-1.48.54.54,0,0,1,.38-.38.56.56,0,0,1,.52.16l.08.1c.26.28.5.55.76.81a8.47,8.47,0,0,1,1.33,0l.44,0a.53.53,0,0,1,.43.28.52.52,0,0,1,0,.51c-.3.5-.56,1-.84,1.54.12.43.22.87.32,1.3.06.23.11.47.17.7a.54.54,0,0,1-.19.54.5.5,0,0,1-.56,0,13.05,13.05,0,0,1-1.24-.71l-1.23,1.35A.52.52,0,0,1,115.1,60.57Zm-.41-3.63.33.13a.53.53,0,0,1,.32.43l.09.84c0,.16,0,.33,0,.5l.77-.83a.53.53,0,0,1,.67-.08c.17.12.34.22.5.32-.08-.33-.17-.67-.26-1a.51.51,0,0,1,0-.38l0-.09.5-1a5.21,5.21,0,0,0-1,0,.48.48,0,0,1-.43-.13c-.12-.11-.23-.22-.34-.34l0,.28c0,.2,0,.39,0,.58a.53.53,0,0,1-.37.45l-.43.12Z"/><path class="cls-2" d="M68.06,80.05h0a.52.52,0,0,1-.49-.55c0-.32,0-.63,0-.92,0-4.27-2-5.29-4.27-6.48-2.71-1.41-5.78-3-5.91-10a4,4,0,0,1-1,.11A2.46,2.46,0,0,1,54,59.93a4.24,4.24,0,0,1,2.07-3.72A12.57,12.57,0,0,1,55,52a23.55,23.55,0,0,1,1.15-7.44c1-2.88,2.71-4.4,4.84-4.4a3.06,3.06,0,0,1,.9.12C64,37.12,68.62,34,75.73,34c3.56,0,3.89.25,6,4.37a.52.52,0,1,1-.93.47c-1.9-3.79-1.9-3.79-5-3.79-4.37,0-10.46,1.62-13.23,6.19a.5.5,0,0,1-.36.24.5.5,0,0,1-.42-.11,1.22,1.22,0,0,0-.75-.16c-1.67,0-3,1.25-3.86,3.71A22.5,22.5,0,0,0,56,52a12.07,12.07,0,0,0,1.22,4.3.53.53,0,0,1,0,.41A.55.55,0,0,1,57,57a3.14,3.14,0,0,0-1.91,3c0,.77.9,1.24,1.38,1.24a3.75,3.75,0,0,0,1.3-.25.56.56,0,0,1,.47.07.53.53,0,0,1,.22.43v.23c0,6.73,2.72,8.14,5.36,9.51,2.37,1.23,4.82,2.51,4.82,7.41q0,.48,0,1A.53.53,0,0,1,68.06,80.05Z"/><path class="cls-2" d="M59.33,59.44a.52.52,0,0,1-.52-.51,36.23,36.23,0,0,0-.61-4.76c-.06-.37-.13-.75-.19-1.12a.52.52,0,0,1,.3-.57c2.41-1.11,3.85-3.78,3.85-7.12a12.1,12.1,0,0,0-.1-1.47.53.53,0,0,1,.45-.59.54.54,0,0,1,.59.45,12.32,12.32,0,0,1,.1,1.61c0,3.6-1.52,6.51-4.09,7.9,0,.24.08.49.13.74a37.06,37.06,0,0,1,.62,4.9.53.53,0,0,1-.51.54Z"/><path class="cls-2" d="M84.22,54.63h-.11a.53.53,0,0,1-.4-.63l.05-.23a28.79,28.79,0,0,0,.89-6.11c0-4.06-3.11-8.42-7.74-8.42a7,7,0,0,0-1.36.14.52.52,0,0,1-.62-.41.51.51,0,0,1,.41-.61,7.61,7.61,0,0,1,1.57-.16A8.56,8.56,0,0,1,83,40.86a9.66,9.66,0,0,1,2.72,6.79A30.3,30.3,0,0,1,84.79,54l-.05.24A.54.54,0,0,1,84.22,54.63Z"/><path class="cls-2" d="M81.42,48.5a.51.51,0,0,1-.35-.13c-1.36-1.19-3.75-1.27-6.28-1.35-3.76-.12-8-.26-10.33-4a.52.52,0,1,1,.89-.55c2,3.3,5.81,3.42,9.47,3.54,2.73.09,5.3.18,6.94,1.61a.52.52,0,0,1,0,.74A.51.51,0,0,1,81.42,48.5Z"/><path class="cls-2" d="M97.19,80.24a3.17,3.17,0,0,1-2.72-1.68,4.14,4.14,0,0,0-3.94-2c-2.31,0-5,1.22-7.69,3.52a.54.54,0,0,1-.37.13c-2-.11-3.93-.41-5.84-.71l-2.06-.3a.52.52,0,0,1-.45-.51v-.11c0-4.76,2.08-5.93,4.1-7.07,2.44-1.37,5.21-2.93,5.21-11.75a21.83,21.83,0,0,0-1.76-8.66.53.53,0,0,1,.27-.69.51.51,0,0,1,.69.27,22.85,22.85,0,0,1,1.85,9.08c0,9.43-3.06,11.15-5.75,12.67-1.93,1.08-3.47,2-3.56,5.8l1.62.24c1.81.28,3.69.56,5.54.68,2.89-2.41,5.65-3.64,8.2-3.64a5.14,5.14,0,0,1,4.78,2.41c.56.76.94,1.26,1.88,1.26a10.6,10.6,0,0,0,2.44-.4l.4-.09c-.41-3.14-1-7.51-1.33-9.91a.51.51,0,0,1,.33-.55,18.88,18.88,0,0,1,6.9-1.51h.24a1.31,1.31,0,0,1,1,.26,1.63,1.63,0,0,1,.31,1.21c0,2.26-2.33,2.9-4.4,3.46a10.24,10.24,0,0,0-2.4.85.53.53,0,0,1-.44,0c.29,2.18.62,4.61.86,6.49a.54.54,0,0,1-.41.58l-.85.19A11.79,11.79,0,0,1,97.19,80.24Zm2.6-11.18.35,2.57,0,0a11.3,11.3,0,0,1,2.66-.95c2.19-.6,3.63-1.09,3.63-2.45a3.2,3.2,0,0,0,0-.42h-.52A17.53,17.53,0,0,0,99.79,69.06Z"/><path class="cls-2" d="M74.22,80.13v0a.53.53,0,0,1,.46-.58.51.51,0,0,1,.58.45l-.52.07.53,0-.52.1Z"/><path class="cls-2" d="M72.11,64.43a2.74,2.74,0,0,1-1.28-.28.53.53,0,0,1-.23-.7.52.52,0,0,1,.7-.23,1.8,1.8,0,0,0,.81.16c.52,0,1.75-.06,1.75-.65a.77.77,0,0,0,0-.15c-.08-.24-.19-.3-.63-.47C72.07,61.69,71,61,71,57.55c0-.49,0-1,0-1.47s0-.94,0-1.4c0-.26,0-.5,0-.72a.53.53,0,0,1,1-.07c0,.25,0,.5,0,.79,0,.48,0,1-.05,1.45s0,.95,0,1.42c0,3,.79,3.32,1.49,3.58a1.72,1.72,0,0,1,1.26,1.14,1.47,1.47,0,0,1,.07.46C74.91,63.36,74.55,64.43,72.11,64.43Z"/><path class="cls-2" d="M66.07,58a1.47,1.47,0,0,1-1.51-1.36,1.82,1.82,0,0,1,.77-1.28l.19-.18a.52.52,0,0,1,.69,0l.29.2a4.69,4.69,0,0,1,.72.57.77.77,0,0,1,.23.56A1.4,1.4,0,0,1,66.07,58Zm-.13-1.78c-.15.14-.34.32-.34.42a.46.46,0,0,0,.47.32c.24,0,.31-.22.33-.4A3.9,3.9,0,0,0,65.94,56.19Zm.54.42Z"/><path class="cls-2" d="M76.46,58.23A1.31,1.31,0,0,1,75,57c0-.43.2-1,1.16-1.51a.53.53,0,0,1,.61.1.69.69,0,0,0,.26.13,1.35,1.35,0,0,1,.9.88.75.75,0,0,1,0,.26A1.55,1.55,0,0,1,76.46,58.23Zm-.07-1.69c-.2.14-.32.29-.32.42s.21.22.39.22a.54.54,0,0,0,.48-.35c0-.06-.08-.09-.29-.18Zm.56.33Z"/><path class="cls-2" d="M63.74,53.65a.51.51,0,0,1-.42-.21.54.54,0,0,1,.11-.74,7.3,7.3,0,0,1,3.18-1.28.52.52,0,0,1,.6.43.52.52,0,0,1-.44.6,6.29,6.29,0,0,0-2.72,1.1A.5.5,0,0,1,63.74,53.65Z"/><path class="cls-2" d="M78.65,53.81a.53.53,0,0,1-.43-.22,3.39,3.39,0,0,0-2-1.46.52.52,0,1,1,.17-1A4.23,4.23,0,0,1,79.08,53a.54.54,0,0,1-.13.73A.55.55,0,0,1,78.65,53.81Z"/><path class="cls-2" d="M68.91,70c-2.28,0-3.81-2.38-4.09-4.61a.52.52,0,0,1,.37-.57.53.53,0,0,1,.62.27A3.63,3.63,0,0,0,69.12,67,3.27,3.27,0,0,0,71,66.41a.52.52,0,0,1,.6.86h0a.55.55,0,0,1,0,.18C71.12,69.07,70.14,70,68.91,70Zm-2.34-2.66A2.8,2.8,0,0,0,68.91,69a1.65,1.65,0,0,0,1.4-1.09,4.62,4.62,0,0,1-1.19.15A5.23,5.23,0,0,1,66.57,67.34Z"/><path class="cls-2" d="M66.86,37.08a.53.53,0,0,1-.24-.06.51.51,0,0,1-.22-.7,12.56,12.56,0,0,0,1.38-5.93c-.08-6.27-4.43-11.12-10.36-11.54a.53.53,0,0,1-.48-.56.53.53,0,0,1,.56-.49c6.48.46,11.24,5.75,11.33,12.58a13.61,13.61,0,0,1-1.5,6.42A.53.53,0,0,1,66.86,37.08Z"/><path class="cls-2" d="M43.6,29.68h-.05a.52.52,0,0,1-.47-.57,12.29,12.29,0,0,1,5.7-9.29.52.52,0,0,1,.55.89,11.25,11.25,0,0,0-5.21,8.51A.52.52,0,0,1,43.6,29.68Z"/><path class="cls-2" d="M56.21,43.62a13.49,13.49,0,0,1-7.9-2.76.52.52,0,1,1,.62-.84,12.37,12.37,0,0,0,7.55,2.55l.84,0a.52.52,0,1,1,.11,1c-.31,0-.61,0-.92.06Z"/><path class="cls-2" d="M41.57,45.59A8.88,8.88,0,0,1,35.4,43a8.55,8.55,0,0,1-2.65-6.33,8.37,8.37,0,0,1,4.9-7.53,9.29,9.29,0,0,1,2.08-.68,8.49,8.49,0,0,1,1.66-.16,8.65,8.65,0,0,1,.5,17.27Zm-.21-16.23a7.79,7.79,0,0,0-1.44.13,8.54,8.54,0,0,0-1.85.62,7.33,7.33,0,0,0-4.28,6.59,7.58,7.58,0,0,0,2.34,5.56,7.82,7.82,0,0,0,5.72,2.28,7.6,7.6,0,0,0-.46-15.18Z"/><path class="cls-2" d="M41.18,38.5a.57.57,0,0,1-.33-.11.52.52,0,0,1-.19-.36c-.12-1.13-.2-2.29-.28-3.41,0-.62-.08-1.24-.13-1.86a.51.51,0,0,1,.41-.55l.06,0a.54.54,0,0,1,.63.4.53.53,0,0,1,0,.33l.12,1.63c.06.93.13,1.89.22,2.84l.67-.11A12.48,12.48,0,0,1,44.55,37a.52.52,0,0,1,.52.52.52.52,0,0,1-.52.53,12.14,12.14,0,0,0-2,.23c-.41.07-.83.14-1.26.19Z"/><path class="cls-2" d="M40.81,31.46a.77.77,0,0,1-.69-.47.76.76,0,0,1,.18-.84.59.59,0,0,1,.27-.14.52.52,0,0,1,.72-.1.83.83,0,0,1,.38.67A1,1,0,0,1,40.81,31.46Z"/><path class="cls-2" d="M35.24,38.37a.8.8,0,0,1-.75-.8.92.92,0,0,1,.54-.81.53.53,0,0,1,.46,0,.91.91,0,0,1,.49.81A.79.79,0,0,1,35.24,38.37Zm.07-1,.18.37a.21.21,0,0,0,0-.13A.24.24,0,0,0,35.31,37.33Zm-.1,0a.27.27,0,0,0-.27.25s0,.08.09.13Z"/><path class="cls-2" d="M41.47,43.74a.76.76,0,0,1-.8-.77.82.82,0,0,1,.37-.72l.07-.06a.52.52,0,0,1,.37-.16c.73,0,.77.51.77.61v.11c0,.06,0,.12,0,.18A.75.75,0,0,1,41.47,43.74Zm-.22-.89a.44.44,0,0,0,.23.22v-.38A.31.31,0,0,0,41.25,42.85Z"/><path class="cls-2" d="M47.05,38a.73.73,0,0,1-.79-.57.9.9,0,0,1,.63-.93.52.52,0,0,1,.53.12l0,0a.68.68,0,0,1,.31.54.61.61,0,0,1-.08.3A.63.63,0,0,1,47.05,38Zm0-1,.17.49c.09,0,.08-.18.08-.21a.4.4,0,0,0-.22-.31l0,0,0,0h0a.44.44,0,0,0-.32.18v0a.51.51,0,0,0,0,.13Zm-.21-.13Z"/><path class="cls-2" d="M45.44,20.8c-2.55,0-4.88-.11-6.18-1.41a3.65,3.65,0,0,1-1-2.7,5.64,5.64,0,0,1,5.27-5,12.6,12.6,0,0,1,1.85-1.81,9.66,9.66,0,0,1,5.2-2.38,4.91,4.91,0,0,1,4.35,4.23,4.06,4.06,0,0,1,3.76,4.4,4.39,4.39,0,0,1-1.33,3.09,5,5,0,0,1-3.31,1.43l-2.81.05c-1.62,0-3.31.06-5,.07Zm-2.66-8a4.67,4.67,0,0,0-3.47,3.84,2.63,2.63,0,0,0,.69,2c1.13,1.13,3.63,1.12,6.28,1.1,1.64,0,3.33,0,4.95-.07l2.82-.05a3.91,3.91,0,0,0,2.56-1.1,3.34,3.34,0,0,0,1-2.37,3,3,0,0,0-2.72-3.34A3.48,3.48,0,0,1,51.65,16c-.86,0-1.73-.46-1.73-1.34,0-1.41,1.24-2.92,3.95-2.92a3.92,3.92,0,0,0-3.28-3.11,8.76,8.76,0,0,0-4.54,2.15,11.12,11.12,0,0,0-1.4,1.3,4.23,4.23,0,0,1,2,3.47,1.84,1.84,0,0,1-2,1.84,2.61,2.61,0,0,1-2.39-2.71A3.75,3.75,0,0,1,42.78,12.85Zm1.21,0a3.38,3.38,0,0,0-.67,1.76c0,.78.57,1.66,1.34,1.66.09,0,.9,0,.9-.79A3.07,3.07,0,0,0,44,12.87Zm9.88-.14c-2,0-2.9,1-2.9,1.88,0,.17.4.29.68.29A2.39,2.39,0,0,0,53.87,12.73Z"/><path class="cls-2" d="M56.16,32.27a2.63,2.63,0,0,1-1.86-.77,2.44,2.44,0,0,1-.75-1.86,2.31,2.31,0,0,1,1-1.83,2.69,2.69,0,0,1,1.51-.49h0a2.68,2.68,0,0,1,1.87.75,2.44,2.44,0,0,1,.71,1.74,2.56,2.56,0,0,1-2.39,2.46Zm-1-3.6a1.24,1.24,0,0,0-.55,1A1.45,1.45,0,0,0,55,30.76a1.63,1.63,0,0,0,1.2.46,1.5,1.5,0,0,0,1.39-1.42,1.32,1.32,0,0,0-.4-1,1.56,1.56,0,0,0-1.15-.45A1.6,1.6,0,0,0,55.15,28.67Z"/><path class="cls-2" d="M69.71,22.5a2.45,2.45,0,0,1-1.7-.66,2.31,2.31,0,0,1-.74-1.66,2.37,2.37,0,0,1,1.86-2.38,1.83,1.83,0,0,1,.4-.05,2.34,2.34,0,0,1,1.74.73,2.49,2.49,0,0,1,.7,1.86,2.24,2.24,0,0,1-2.12,2.15Zm-.36-3.68a1.34,1.34,0,0,0-1,1.34,1.25,1.25,0,0,0,.41.92,1.45,1.45,0,0,0,1.07.37,1.21,1.21,0,0,0,1.13-1.17,1.43,1.43,0,0,0-.42-1.07,1.24,1.24,0,0,0-1-.41Z"/><path class="cls-2" d="M79.15,28.23a2.35,2.35,0,0,1-1.62-.61,2.13,2.13,0,0,1-.68-1.5,2.25,2.25,0,0,1,1-1.95A2.35,2.35,0,0,1,79,23.84a2.21,2.21,0,0,1,1.64.69,2.36,2.36,0,0,1,.7,1.7,2.12,2.12,0,0,1-2,2Zm-.71-3.16a1.17,1.17,0,0,0-.54,1,1,1,0,0,0,.34.75,1.32,1.32,0,0,0,1,.33,1,1,0,0,0,1-1,1.34,1.34,0,0,0-.4-.9,1.09,1.09,0,0,0-1.42-.19Z"/><path class="cls-2" d="M88.37,20.31a2.37,2.37,0,0,1-2.31-2.19,2.52,2.52,0,0,1,.69-1.82,2.25,2.25,0,0,1,1.57-.72,1.87,1.87,0,0,1,.62.1,2.18,2.18,0,0,1,1,.63,2.71,2.71,0,0,1,.66,2A2.26,2.26,0,0,1,88.37,20.31Zm0-3.68a1.18,1.18,0,0,0-.83.39,1.41,1.41,0,0,0-.4,1.06,1.32,1.32,0,0,0,1.26,1.18,1.21,1.21,0,0,0,1.22-1.09A1.62,1.62,0,0,0,89.17,17a1.29,1.29,0,0,0-.57-.31A.82.82,0,0,0,88.34,16.63Z"/><path class="cls-2" d="M58,28.82a.53.53,0,0,1-.27-1c1.77-1,3.47-2.29,5.11-3.49s3.13-2.29,4.8-3.31a.52.52,0,0,1,.72.17.51.51,0,0,1-.17.72c-1.63,1-3.21,2.15-4.73,3.27-1.67,1.21-3.39,2.47-5.2,3.54A.5.5,0,0,1,58,28.82Z"/><path class="cls-2" d="M77.22,25.79h-.11c-.89-.2-5.5-3.63-6-4.05a.52.52,0,0,1-.07-.73.53.53,0,0,1,.74-.07,49.86,49.86,0,0,0,5.55,3.83.54.54,0,0,1,.37.64A.51.51,0,0,1,77.22,25.79Z"/><path class="cls-2" d="M80.31,25.51a.49.49,0,0,1-.35-.14.51.51,0,0,1,0-.74c1.72-1.84,3.6-3.52,5.42-5.16l.87-.78a.53.53,0,0,1,.74,0,.52.52,0,0,1,0,.74l-.87.78c-1.8,1.62-3.67,3.29-5.35,5.1A.54.54,0,0,1,80.31,25.51Z"/><path class="cls-2" d="M79.47,16.16c-.46,0-.93,0-1.38,0a16,16,0,0,0-2,0,.53.53,0,0,1-.56-.49.51.51,0,0,1,.49-.55,18.17,18.17,0,0,1,2.09,0c.43,0,.88,0,1.32,0a.52.52,0,0,1,.52.53A.52.52,0,0,1,79.47,16.16Z"/><path class="cls-2" d="M78.17,17.93H77.4c-.43,0-.86,0-1.27,0a.53.53,0,0,1-.56-.49.54.54,0,0,1,.49-.56c.45,0,.91,0,1.37,0h.74a6.57,6.57,0,0,0,1.46-.13.51.51,0,0,1,.63.39.52.52,0,0,1-.39.63A7.74,7.74,0,0,1,78.17,17.93Z"/><path class="cls-2" d="M69.84,26.09c-.46,0-.93,0-1.38,0s-.9,0-1.35,0-.81,0-1.16,0a.51.51,0,0,1-.57-.47.52.52,0,0,1,.47-.57c.39,0,.8-.05,1.26-.05s.94,0,1.39,0c.66,0,1.35,0,2,0a.51.51,0,0,1,.54.5.53.53,0,0,1-.5.55Z"/><path class="cls-2" d="M66.26,28.13l-.59,0a.51.51,0,0,1-.5-.54.52.52,0,0,1,.52-.5h0a24.25,24.25,0,0,0,3.63-.21l1.44-.14a.52.52,0,0,1,.09,1l-1.42.14A29.92,29.92,0,0,1,66.26,28.13Z"/><path class="cls-2" d="M55.22,43.3a.52.52,0,0,1-.52-.52c0-1.67.12-3.35.24-5s.25-3.25.25-4.88c0-.21,0-.41,0-.62a.53.53,0,0,1,1,0c0,.21,0,.43,0,.64,0,1.67-.13,3.34-.25,5s-.24,3.26-.24,4.89A.52.52,0,0,1,55.22,43.3Z"/><path class="cls-2" d="M65.33,37.37a.53.53,0,0,1-.3-.09c-2.5-1.74-5-3.59-7.4-5.38l-.13-.09a.53.53,0,1,1,.63-.84l.12.09c2.41,1.79,4.89,3.63,7.38,5.36a.52.52,0,0,1-.3.95Z"/><path class="cls-2" d="M67.79,31.68h-.05c-1.21-.11-2.41-.29-3.58-.47a37.42,37.42,0,0,0-5.64-.56.53.53,0,0,1-.53-.53.52.52,0,0,1,.53-.52,38,38,0,0,1,5.8.58c1.15.17,2.34.35,3.51.46a.52.52,0,0,1,0,1Z"/><path class="cls-2" d="M66.75,10.75c-2.57,0-4-1.53-4-3,0-2.88,3.14-5,4.47-5l.37,0a3.6,3.6,0,0,1,1.09.07A4.87,4.87,0,0,1,72.91.94a2.51,2.51,0,0,1,2.32,2.69,4.3,4.3,0,0,1,.61,0c1,0,2.93.43,2.93,1.73v.05c-.08,3-3.16,4.47-6,4.57a.53.53,0,1,1,0-1c1.69-.06,4.91-.88,5-3.54,0-.3-1-.71-1.89-.71a3.33,3.33,0,0,0-.78.09c-.33,1-1.09,2-2,2a1,1,0,0,1-1.07-1c0-.64,1-1.37,2.15-1.77a2.11,2.11,0,0,0,0-.25A1.51,1.51,0,0,0,72.91,2a3.94,3.94,0,0,0-3.23,1.34,2.47,2.47,0,0,1,.92,2c0,1.1-.66,1.75-1.31,1.75A1.66,1.66,0,0,1,68,5.33a4.19,4.19,0,0,1,.27-1.51,4.47,4.47,0,0,0-.52,0l-.44,0c-.8,0-3.42,1.67-3.42,3.93,0,.8.9,1.92,2.91,1.92a14.88,14.88,0,0,0,2.61-.32c.55-.09,1.07-.19,1.57-.24a.52.52,0,0,1,.11,1c-.46.05-1,.14-1.49.24A16.58,16.58,0,0,1,66.75,10.75Zm2.42-6.48A3.19,3.19,0,0,0,69,5.33a.89.89,0,0,0,.32.72.9.9,0,0,0,.24-.7A1.53,1.53,0,0,0,69.17,4.27Zm4.42,1a2.37,2.37,0,0,0-.45.34A.88.88,0,0,0,73.59,5.29Z"/><path class="cls-2" d="M52,4.86a.53.53,0,0,1-.24-.06.52.52,0,0,1-.23-.7A3.08,3.08,0,0,1,54,2.25,1.94,1.94,0,0,1,55.53,3c.26.28.38.4.71.4.51,0,.93-.55,1.34-1.09s.91-1.2,1.61-1.2a2.93,2.93,0,0,1,1.59.71,2.44,2.44,0,0,0,1,.52c.29,0,.67-.42,1-.83A3.48,3.48,0,0,1,65.71,0a.52.52,0,0,1,.47.57.54.54,0,0,1-.57.48h-.17c-.76,0-1.32.61-1.86,1.2a2.66,2.66,0,0,1-1.81,1.16,3,3,0,0,1-1.59-.7,2.37,2.37,0,0,0-1-.52c-.18,0-.53.45-.78.78a2.91,2.91,0,0,1-2.17,1.51,1.85,1.85,0,0,1-1.49-.75A.93.93,0,0,0,54,3.29c-.61,0-1.22.67-1.52,1.28A.53.53,0,0,1,52,4.86Z"/><path class="cls-2" d="M83.43,9.77a.52.52,0,0,1-.52-.45,21.19,21.19,0,0,1-.16-3.09V5.78a.52.52,0,1,1,1,0v.45a20.31,20.31,0,0,0,.15,2.94.51.51,0,0,1-.44.59Z"/><path class="cls-2" d="M81.24,8.42a.53.53,0,0,1-.52-.49.53.53,0,0,1,.49-.56l1.2,0a14,14,0,0,0,2.84-.28.52.52,0,0,1,.64.38.52.52,0,0,1-.38.63,13.39,13.39,0,0,1-3.07.31c-.4,0-.78,0-1.17.05Z"/><path class="cls-2" d="M91.52,5h-.08c-1-.15-1.92-.39-2.84-.63a18.12,18.12,0,0,0-4.4-.75,6.06,6.06,0,0,0-.75,0,.53.53,0,1,1-.09-1.05c.27,0,.55,0,.84,0a18.63,18.63,0,0,1,4.66.79c.9.23,1.83.47,2.74.61a.52.52,0,0,1,.43.6A.52.52,0,0,1,91.52,5Z"/><path class="cls-2" d="M93.91,6.22a.63.63,0,0,1-.65-.64,1.27,1.27,0,0,1,.08-.37s0,0,0-.07a.51.51,0,0,1,.32-.44.52.52,0,0,1,.57.11,1.12,1.12,0,0,1,.33.75A.64.64,0,0,1,93.91,6.22Zm0-1a.4.4,0,0,0-.37.36l.34-.35h0Zm-.55,0Z"/><path class="cls-2" d="M99.37,18.38a.52.52,0,0,1-.52-.49c-.08-1.45-.08-2.94-.08-4.39,0-1.05,0-2.15,0-3.21a.53.53,0,1,1,1,0c0,1.08,0,2.18,0,3.24,0,1.43,0,2.9.09,4.33a.53.53,0,0,1-.49.55Z"/><path class="cls-2" d="M99.29,15.41a.53.53,0,0,1-.05-1.05c1.94-.21,3.73-.39,5.53-.47a2.83,2.83,0,0,1-.56-1.66,2.13,2.13,0,0,1,.51-1.39c-.64,0-1.39,0-2.11,0h-1.32c-.8,0-1.46,0-2.06,0a.54.54,0,0,1-.5-.56.53.53,0,0,1,.56-.49c.58,0,1.22.05,2,.05h2.63c.84,0,1.52,0,2.14.06a.52.52,0,0,1,.28.95c-.67.47-1.09.88-1.09,1.44a2.32,2.32,0,0,0,1,1.75.52.52,0,0,1-.32.93c-2.15,0-4.26.24-6.61.5Z"/><path class="cls-2" d="M112.1,18.53H112a1.86,1.86,0,0,1-1.8-1.78,1.77,1.77,0,0,1,.84-1.55l.11-.08a1.48,1.48,0,0,1,.75-.3,2.09,2.09,0,0,1,1.52.5,1.72,1.72,0,0,1,.59,1.22,2,2,0,0,1-1.94,2Zm-.49-2.44a.73.73,0,0,0-.33.63.8.8,0,0,0,.79.76.83.83,0,0,0,.66-.27.86.86,0,0,0,.26-.62.68.68,0,0,0-.24-.49,1,1,0,0,0-.75-.23.63.63,0,0,0-.23.12Z"/><path class="cls-2" d="M118.05,26.49a.52.52,0,0,1-.52-.52c0-1.46-.08-3-.17-4.62a.51.51,0,0,1,.49-.55.51.51,0,0,1,.55.49c.09,1.62.17,3.19.17,4.68A.52.52,0,0,1,118.05,26.49Z"/><path class="cls-2" d="M115.94,24.13a.53.53,0,0,1-.12-1A5,5,0,0,1,117,23l.67,0h.62a4.06,4.06,0,0,0,.93-.09.53.53,0,0,1,.63.4.52.52,0,0,1-.39.62,5,5,0,0,1-1.17.12l-.66,0H117a4,4,0,0,0-.92.08Z"/><path class="cls-2" d="M109.8,44.7c-3,0-6-.17-9-.34-2.45-.14-5-.28-7.44-.32a.53.53,0,0,1-.52-.51l-.59-17.36v-.06c0-1.21,1.27-1.84,2.54-1.84,1.87,0,3.75,0,5.58.07s4,.06,6,.06c1.54,0,2.92,0,4.21-.06h.07c1.18,0,1.9,1,1.92,2.66,0,.8,0,1.6,0,2.4,0,1.41,0,2.83,0,4.24s0,2.82,0,4.23c0,2.43,0,4.42.12,6.25a.47.47,0,0,1-.14.37.48.48,0,0,1-.37.17C111.42,44.69,110.64,44.7,109.8,44.7ZM93.9,43c2.33,0,4.69.19,7,.32,2.92.16,5.94.33,8.91.33.63,0,1.23,0,1.82,0-.06-1.7-.09-3.54-.09-5.76,0-1.41,0-2.82,0-4.24s0-2.82,0-4.23c0-.8,0-1.59,0-2.39,0-.61-.13-1.62-.87-1.62-1.34,0-2.73.06-4.28.06-2,0-4,0-6-.07-1.82,0-3.7-.06-5.56-.06-.62,0-1.5.24-1.5.79l-.52,0h.52Z"/><path class="cls-2" d="M97.21,27a.53.53,0,0,1-.52-.5c-.08-1.48-.08-2.87-.08-4.35a.52.52,0,0,1,.53-.52.52.52,0,0,1,.52.52c0,1.46,0,2.84.08,4.3a.54.54,0,0,1-.5.55Z"/><path class="cls-2" d="M106.94,26.52a.52.52,0,0,1-.53-.52c0-.58,0-1.17.09-1.74s.08-1.15.08-1.7a4.87,4.87,0,0,0,0-.54.53.53,0,0,1,.5-.55.52.52,0,0,1,.55.49c0,.2,0,.4,0,.6,0,.59,0,1.19-.09,1.77s-.08,1.13-.08,1.67A.52.52,0,0,1,106.94,26.52Z"/><path class="cls-2" d="M112.1,29.15H92.89a.53.53,0,0,1-.53-.53.52.52,0,0,1,.53-.52H112.1a.52.52,0,0,1,.52.52A.52.52,0,0,1,112.1,29.15Z"/><path class="cls-2" d="M96,41.9a.5.5,0,0,1-.35-.14.49.49,0,0,1-.18-.38,105.5,105.5,0,0,0-.6-10.69.52.52,0,0,1,.46-.58.51.51,0,0,1,.58.46c.41,3.39.52,6.66.6,10.23,1.92-.16,4-.24,6.52-.24,1.66,0,3.35,0,5,.07l1,0c0-.77,0-1.56,0-2.41,0-2.14,0-4.26.09-6.42-.74.06-1.51.08-2.34.08-2,0-4-.16-6-.31l-2.93-.21a.51.51,0,0,1-.49-.55.52.52,0,0,1,.56-.49c1,.05,2,.13,2.94.21,2,.15,4,.31,5.94.31a27.55,27.55,0,0,0,2.82-.13.56.56,0,0,1,.41.14.49.49,0,0,1,.16.39c0,2.35-.09,4.66-.09,7,0,1,0,2,0,2.93a.51.51,0,0,1-.16.38.52.52,0,0,1-.38.15l-1.49,0c-1.63,0-3.32-.07-5-.07-2.73,0-5,.09-7,.29Z"/><path class="cls-2" d="M99.68,40.85a.53.53,0,0,1-.52-.45,38.14,38.14,0,0,1-.23-4.75,40.52,40.52,0,0,0-.15-4.12.52.52,0,0,1,1-.11c.15,1.41.15,2.84.16,4.22a37.61,37.61,0,0,0,.22,4.62.52.52,0,0,1-.45.59Z"/><path class="cls-2" d="M104.23,41.1a.52.52,0,0,1-.52-.49c-.06-1.18-.1-2.36-.14-3.5,0-1.7-.11-3.46-.24-5.21a.51.51,0,0,1,.48-.56.52.52,0,0,1,.56.48c.14,1.77.2,3.55.25,5.26,0,1.13.08,2.31.14,3.47a.53.53,0,0,1-.5.55Z"/><path class="cls-2" d="M95.83,36.71a.53.53,0,0,1-.06-1.05,44.76,44.76,0,0,1,4.61-.21c1.28,0,2.59,0,3.85.07,1.6,0,3.25.09,4.85.06a.53.53,0,0,1,.54.51.54.54,0,0,1-.52.54c-1.63,0-3.29,0-4.9-.06-1.25,0-2.55-.07-3.82-.07a42.62,42.62,0,0,0-4.5.2Z"/><path class="cls-2" d="M89.34,49.23a1.93,1.93,0,0,1-2-1.83,2,2,0,0,1,1.71-2.08h.25a2,2,0,0,1,1.16.4,1.81,1.81,0,0,1,.8,1.42,2,2,0,0,1-.54,1.44,2,2,0,0,1-1.32.65Zm-.12-2.87h-.06a.92.92,0,0,0-.75,1,.88.88,0,0,0,1,.82,1,1,0,0,0,.59-.31.92.92,0,0,0,.26-.69c0-.16,0-.36-.39-.63a1.08,1.08,0,0,0-.58-.19Z"/><path class="cls-2" d="M87,35.77a.52.52,0,0,1-.51-.4,15.71,15.71,0,0,1-.33-3.52c0-.42,0-.84,0-1.26a.53.53,0,1,1,1.05-.05c0,.43,0,.86,0,1.3a14.42,14.42,0,0,0,.31,3.28.52.52,0,0,1-.38.63Z"/><path class="cls-2" d="M85.17,33.57c-.27,0-.54,0-.81,0a.51.51,0,0,1-.49-.55.51.51,0,0,1,.55-.49l.75,0a22.58,22.58,0,0,0,3.53-.33.53.53,0,0,1,.17,1A23.43,23.43,0,0,1,85.17,33.57Z"/><path class="cls-2" d="M106,52.07h-.12a1.64,1.64,0,0,1-1.52-1.62,1.8,1.8,0,0,1,.86-1.64,1.49,1.49,0,0,1,.63-.22A1.81,1.81,0,0,1,107.83,50a2.78,2.78,0,0,1,0,.45,1.72,1.72,0,0,1-.6,1.19A1.85,1.85,0,0,1,106,52.07Zm0-2.44H106a.46.46,0,0,0-.18.07.8.8,0,0,0-.37.71A.6.6,0,0,0,106,51a.75.75,0,0,0,.57-.21.72.72,0,0,0,.25-.44,1.31,1.31,0,0,0,0-.27C106.76,49.86,106.33,49.63,106,49.63Z"/><path class="cls-2" d="M124.71,46.67a6.06,6.06,0,0,1-4.27-1.79.48.48,0,0,1-.14-.34c-.24-4.17-.36-8.59-.39-13.53a.52.52,0,0,1,.16-.37,6.6,6.6,0,0,1,4.58-1.7,5.24,5.24,0,0,1,3.5,1,.54.54,0,0,1,.19.39c.06,1.85.15,3.74.23,5.57.12,2.77.25,5.64.3,8.46a.54.54,0,0,1-.12.34A5.12,5.12,0,0,1,124.71,46.67Zm-3.38-2.39a5,5,0,0,0,3.38,1.34,4.09,4.09,0,0,0,3.11-1.4c-.06-2.73-.18-5.53-.3-8.23-.08-1.75-.16-3.55-.22-5.33a4.52,4.52,0,0,0-2.65-.67A5.67,5.67,0,0,0,121,31.24C121,36,121.11,40.25,121.33,44.28Z"/><path class="cls-2" d="M123.47,33.07a3.45,3.45,0,0,1-3.11-1.72.52.52,0,0,1,.91-.52,2.37,2.37,0,0,0,2.2,1.19,5.47,5.47,0,0,0,3.47-1.46.52.52,0,1,1,.72.76A6.47,6.47,0,0,1,123.47,33.07Z"/><path class="cls-2" d="M123.14,36.26a3.71,3.71,0,0,1-3-1.37.53.53,0,0,1,.08-.74.53.53,0,0,1,.74.09,2.69,2.69,0,0,0,2.22,1,5.72,5.72,0,0,0,3.09-1,.52.52,0,0,1,.73.13.53.53,0,0,1-.14.73A6.78,6.78,0,0,1,123.14,36.26Z"/><path class="cls-2" d="M124.94,39.51A6.3,6.3,0,0,1,120.78,38a.51.51,0,0,1,0-.73.52.52,0,0,1,.74,0,5.25,5.25,0,0,0,3.47,1.28,5.33,5.33,0,0,0,2.57-.65.52.52,0,0,1,.71.2.52.52,0,0,1-.21.71A6.29,6.29,0,0,1,124.94,39.51Z"/><path class="cls-2" d="M124.38,42.41a8.54,8.54,0,0,1-3.55-.89.53.53,0,1,1,.44-1c2.2,1,3.88,1.07,5.29.19a.52.52,0,1,1,.55.89A5.09,5.09,0,0,1,124.38,42.41Z"/><path class="cls-2" d="M123.83,44.41a5,5,0,0,1-2.93-.86.52.52,0,0,1,.6-.86c1.15.8,2.79.88,4.79.24a.52.52,0,0,1,.32,1A9.18,9.18,0,0,1,123.83,44.41Z"/><path class="cls-2" d="M135.46,49.25a.51.51,0,0,1-.31-.11c-.89-.67-1.94-1.48-3-2.38a.58.58,0,0,1-.17-.37.53.53,0,0,1,.13-.38c1-1.08,2-2.23,3.15-3.27a.52.52,0,0,1,.74,0,21.32,21.32,0,0,0,2.73,2.38.52.52,0,0,1,.21.37.56.56,0,0,1-.14.41c-.41.44-.83.88-1.24,1.3-.59.6-1.19,1.22-1.74,1.85A.52.52,0,0,1,135.46,49.25Zm-2.17-2.93c.72.62,1.45,1.19,2.11,1.69.47-.52,1-1,1.44-1.52q.42-.42.84-.87a21,21,0,0,1-2-1.77C134.82,44.64,134.05,45.47,133.29,46.32Z"/><path class="cls-2" d="M115.49,36a.52.52,0,0,1-.52-.49c0-.36,0-.72,0-1.07a6.47,6.47,0,0,0-.25-2.18.54.54,0,0,1,.32-.67.53.53,0,0,1,.67.32,7.36,7.36,0,0,1,.31,2.53c0,.33,0,.67,0,1a.53.53,0,0,1-.49.56Z"/><path class="cls-2" d="M118,47.89h-.1c-1.56-.3-3.42-1.35-3.42-4.66a18.19,18.19,0,0,1,1.1-5.43.52.52,0,1,1,1,.33,16.74,16.74,0,0,0-1,5.1c0,2.11.84,3.3,2.57,3.63a.54.54,0,0,1,.42.62A.53.53,0,0,1,118,47.89Z"/><path class="cls-2" d="M120,49.45a.69.69,0,0,1-.72-.73c0-.07,0-.14,0-.21a.17.17,0,0,0,0-.07.54.54,0,0,1,.53-.52.76.76,0,0,1,.75.62,1.26,1.26,0,0,1,0,.28A.61.61,0,0,1,120,49.45Zm-.43-.67a.28.28,0,0,0,.26.19v-.52h.31a.24.24,0,0,0-.14-.05A.44.44,0,0,0,119.56,48.78Z"/><path class="cls-2" d="M112.46,70.54a.53.53,0,0,1-.53-.49q-.17-3.35-.38-6.68c-.21-3.6-.43-7.33-.58-11a.53.53,0,0,1,.5-.54l2.94-.16c3.74-.19,7.59-.38,11.36-.79a.5.5,0,0,1,.39.11.52.52,0,0,1,.19.36c.15,1.58.29,3.15.42,4.72.3,3.39.61,6.9,1,10.36a.51.51,0,0,1-.18.45l-1.21,1c-.8.68-1.63,1.37-2.38,2.11a.52.52,0,0,1-.35.14l-4.36.16C117,70.39,114.75,70.47,112.46,70.54ZM112,52.83c.15,3.51.36,7.05.56,10.48q.18,3.07.35,6.17l6.3-.22,4.16-.16c.74-.7,1.53-1.37,2.29-2l1-.84c-.38-3.38-.68-6.8-1-10.11-.12-1.39-.24-2.78-.37-4.18-3.63.37-7.32.56-10.89.74Z"/><path class="cls-2" d="M121.58,55.46a7.5,7.5,0,0,1-1.21-.1.52.52,0,0,1,.18-1,6.43,6.43,0,0,0,1,.08c.35,0,.69,0,1.06,0s.76,0,1.16,0a.52.52,0,0,1,.52.52.53.53,0,0,1-.52.53c-.37,0-.74,0-1.1,0S122,55.46,121.58,55.46Z"/><path class="cls-2" d="M121.69,57.84a11.91,11.91,0,0,1-1.48-.08.52.52,0,0,1-.47-.57.53.53,0,0,1,.58-.47,12.07,12.07,0,0,0,1.37.07,22.14,22.14,0,0,0,2.25-.13.52.52,0,0,1,.58.46.53.53,0,0,1-.47.58A21.51,21.51,0,0,1,121.69,57.84Z"/><path class="cls-2" d="M120.66,60a.53.53,0,0,1-.52-.46.54.54,0,0,1,.45-.59,22.16,22.16,0,0,1,3-.2.52.52,0,0,1,.52.52.53.53,0,0,1-.52.53,21.72,21.72,0,0,0-2.87.19Z"/><path class="cls-2" d="M114.06,63.43a.52.52,0,0,1,0-1c.73-.06,1.46-.06,2.16-.06a19.12,19.12,0,0,0,3.31-.2.52.52,0,0,1,.61.42.53.53,0,0,1-.42.61,20.85,20.85,0,0,1-3.49.22c-.69,0-1.4,0-2.1,0Z"/><path class="cls-2" d="M119.33,65.63h-.12a14,14,0,0,0-2.69-.25c-.53,0-1.09,0-1.64-.07a.53.53,0,0,1,.1-1c.51,0,1,.06,1.56.08a13.9,13.9,0,0,1,2.91.27.52.52,0,0,1-.12,1Z"/><path class="cls-2" d="M114.4,67.56a.52.52,0,0,1-.15-1,9.93,9.93,0,0,1,2.8-.33l1.26,0c.6,0,1.2,0,1.8,0a.53.53,0,0,1,.54.51.52.52,0,0,1-.5.54c-.62,0-1.25,0-1.87,0-.41,0-.82,0-1.23,0a9.44,9.44,0,0,0-2.51.29A.34.34,0,0,1,114.4,67.56Z"/><path class="cls-2" d="M123.13,70.23h0a.52.52,0,0,1-.49-.55c0-.17,0-.35,0-.52a14.28,14.28,0,0,0-.14-1.84c-.1-.81-.17-1.39.26-1.79s1.52-.37,4.49.2a.51.51,0,0,1,.41.61.53.53,0,0,1-.61.42,14.41,14.41,0,0,0-3.56-.47,3.84,3.84,0,0,0,0,.9,14,14,0,0,1,.15,2c0,.19,0,.38,0,.57A.52.52,0,0,1,123.13,70.23Z"/><path class="cls-2" d="M128.87,55.72a.75.75,0,0,1-.72-.55.77.77,0,0,1,0-.15.74.74,0,0,1,.14-.42.49.49,0,0,1,.08-.23.5.5,0,0,1,.44-.25.87.87,0,0,1,.71.43.7.7,0,0,1,.11.37.77.77,0,0,1-.65.8Zm-.26-.62a.23.23,0,0,0,.18.07V55h-.13l.13,0v-.31a.33.33,0,0,0-.23.24A.35.35,0,0,0,128.61,55.1Zm-.28-.22Z"/><path class="cls-2" d="M129.79,65.16a.51.51,0,0,1-.52-.47l-.18-2.26c-.12-1.52-.24-3.09-.42-4.66a.53.53,0,0,1,.46-.58.52.52,0,0,1,.58.46c.19,1.59.31,3.17.43,4.7q.08,1.11.18,2.25a.52.52,0,0,1-.48.56Z"/><path class="cls-2" d="M134.22,71.14a2.43,2.43,0,0,1-2.44-2.4,2.52,2.52,0,0,1,1.95-2.6,2.35,2.35,0,0,1,.59,0,2.45,2.45,0,0,1,2.37,2.39,2.65,2.65,0,0,1-.74,1.93A2.38,2.38,0,0,1,134.22,71.14Zm-.3-4a1.47,1.47,0,0,0-1.1,1.54,1.37,1.37,0,0,0,1.4,1.38,1.32,1.32,0,0,0,1-.41,1.62,1.62,0,0,0,.44-1.16,1.41,1.41,0,0,0-1.34-1.39A1.69,1.69,0,0,0,133.92,67.17Z"/><path class="cls-2" d="M132.14,75.81a.53.53,0,0,1-.3-.09.51.51,0,0,1-.22-.35,7.1,7.1,0,0,1-.11-1.29,5.68,5.68,0,0,1,1.21-3.64.52.52,0,0,1,.81.66,4.64,4.64,0,0,0-1,3c0,.19,0,.39,0,.59,1.25-.23,2.49-.38,3.67-.5a4.78,4.78,0,0,0-1.34-3.07.52.52,0,0,1,0-.74.51.51,0,0,1,.74,0,6,6,0,0,1,1.72,4.3.5.5,0,0,1-.47.54c-1.47.15-3.05.33-4.62.64Z"/><path class="cls-2" d="M132.53,70a.51.51,0,0,1-.35-.13.52.52,0,0,1-.05-.74,9.81,9.81,0,0,1,3.67-2.67.52.52,0,1,1,.39,1,8.93,8.93,0,0,0-3.27,2.39A.51.51,0,0,1,132.53,70Z"/><path class="cls-2" d="M138.26,68.23a.57.57,0,0,1-.18,0,.53.53,0,0,1-.32-.67,17.54,17.54,0,0,0,1.05-5.9,14.46,14.46,0,0,0-.53-3.93c-.55.19-1.12.4-1.67.61a.53.53,0,0,1-.57-.12.52.52,0,0,1-.1-.58,22.17,22.17,0,0,0,1.31-3.89.51.51,0,0,1,.32-.36.49.49,0,0,1,.47,0c.45.28.88.57,1.31.86.68.46,1.39.94,2.11,1.33a.53.53,0,0,1-.05.95c-.72.3-1.46.57-2.14.81a15.42,15.42,0,0,1,.59,4.28,18.86,18.86,0,0,1-1.11,6.25A.51.51,0,0,1,138.26,68.23Zm-.17-13.55c-.22.78-.46,1.52-.73,2.23l1-.36.06,0L140,56c-.43-.27-.85-.55-1.26-.83Z"/><path class="cls-2" d="M112.6,80.09a.5.5,0,0,1-.36-.14.53.53,0,0,1,0-.74,12.27,12.27,0,0,1,8.8-4,9.76,9.76,0,0,1,1.32.09.52.52,0,0,1,.45.58.53.53,0,0,1-.58.46A11,11,0,0,0,113,79.93.51.51,0,0,1,112.6,80.09Z"/><path class="cls-2" d="M124.86,77.4a1,1,0,0,1-.88-.89.7.7,0,0,1,.1-.36.53.53,0,0,1,.52-.44.54.54,0,0,1,.22.05.54.54,0,0,1,.72.15,1,1,0,0,1,.16.55A.9.9,0,0,1,124.86,77.4Zm-.79-1.16Z"/><path class="cls-2" d="M137.43,87.67a.52.52,0,0,1-.51-.43,26.72,26.72,0,0,1-.28-3.13c0-.53-.06-1.08-.1-1.63a.52.52,0,1,1,1-.09c0,.57.08,1.13.1,1.67a25.14,25.14,0,0,0,.27,3,.52.52,0,0,1-.43.61Z"/><path class="cls-2" d="M134.79,85.76a.52.52,0,0,1-.52-.5.53.53,0,0,1,.5-.55,22.46,22.46,0,0,0,4.23-.58.52.52,0,1,1,.25,1,23.76,23.76,0,0,1-4.43.62Z"/><path class="cls-2" d="M121,98.13a3,3,0,0,1-2.14-.9A3.06,3.06,0,0,1,118,95a3,3,0,0,1,2.33-2.93A3.11,3.11,0,0,1,121,92h0a3.09,3.09,0,0,1,3.06,3,3.16,3.16,0,0,1-.92,2.19A3,3,0,0,1,121,98.13Zm0-5.07a1.76,1.76,0,0,0-.46.06A1.92,1.92,0,0,0,119.05,95a2,2,0,0,0,.59,1.46,1.89,1.89,0,0,0,2.77,0A2.05,2.05,0,0,0,123,95,2,2,0,0,0,121,93.06Z"/><path class="cls-2" d="M123.73,96.05a.52.52,0,0,1-.52-.52c0-1.21,0-2.42-.07-3.63,0-1.76-.08-3.57-.09-5.37-1,2.25-2.15,4.55-3.4,6.76a.52.52,0,1,1-.91-.51c1.34-2.38,2.52-4.89,3.66-7.32l.71-1.52a.54.54,0,0,1,.6-.29.53.53,0,0,1,.4.52c0,.54,0,1.08,0,1.62,0,2,.05,4.09.09,6.09,0,1.21,0,2.42.07,3.64A.53.53,0,0,1,123.73,96.05Z"/><path class="cls-2" d="M111,97.37a.52.52,0,0,1-.51-.42,15.11,15.11,0,0,1-.29-2.94c0-8.32,6.42-14.13,12.18-14.13,7.49,0,9.56,10.05,10.56,14.87l.15.73a.52.52,0,0,1-.47.63c-1,.09-2,.12-3,.15a36.73,36.73,0,0,0-4.32.29.53.53,0,0,1-.59-.44.52.52,0,0,1,.44-.6,39.24,39.24,0,0,1,4.43-.3c.78,0,1.58,0,2.37-.1l0-.14c-1-4.91-2.9-14-9.53-14-6.37,0-11.14,6.91-11.14,13.08a13.82,13.82,0,0,0,.19,2.24c2.35-.37,4.77-.74,7.25-1.07a.52.52,0,0,1,.14,1c-2.64.35-5.23.75-7.74,1.14Z"/><path class="cls-2" d="M114.2,96.16a.53.53,0,0,1-.52-.45,9.73,9.73,0,0,1-.1-1.43,9.94,9.94,0,0,1,8.28-9.9.54.54,0,0,1,.59.45.53.53,0,0,1-.45.59,8.88,8.88,0,0,0-7.38,8.86,7.59,7.59,0,0,0,.1,1.27.53.53,0,0,1-.44.6Z"/><path class="cls-2" d="M129.25,96a.53.53,0,0,1-.52-.5c-.29-5-1.72-8-4.4-9.06a.53.53,0,0,1,.39-1c3.09,1.24,4.75,4.51,5.06,10a.54.54,0,0,1-.5.55Z"/><path class="cls-2" d="M113.87,91a.39.39,0,0,1-.15,0c-.25-.07-.49-.16-.73-.24s-.45-.16-.67-.22a.53.53,0,0,1,.29-1c.25.07.49.16.73.24s.45.16.67.23a.52.52,0,0,1,.36.64A.53.53,0,0,1,113.87,91Z"/><path class="cls-2" d="M115.8,87a.53.53,0,0,1-.27-.08,3.11,3.11,0,0,1-.54-.44,1.71,1.71,0,0,0-.33-.29.52.52,0,0,1,.54-.9,2.74,2.74,0,0,1,.54.45,1.37,1.37,0,0,0,.33.28.52.52,0,0,1,.18.72A.52.52,0,0,1,115.8,87Z"/><path class="cls-2" d="M119.13,84.83a.53.53,0,0,1-.5-.36c0-.16-.09-.32-.13-.49a3.48,3.48,0,0,0-.24-.71.53.53,0,0,1,.94-.47,4.53,4.53,0,0,1,.31.92c0,.14.07.28.12.42a.53.53,0,0,1-.33.66A.51.51,0,0,1,119.13,84.83Z"/><path class="cls-2" d="M121.93,83.76a.52.52,0,0,1-.52-.52V83c0-.08,0-.15,0-.22a.75.75,0,0,0-.07-.39.52.52,0,0,1,.9-.54,1.8,1.8,0,0,1,.21.93V83c0,.08,0,.15,0,.23A.52.52,0,0,1,121.93,83.76Z"/><path class="cls-2" d="M126.59,85.49a.68.68,0,0,1-.23,0,.53.53,0,0,1-.23-.71c.06-.12.12-.27.19-.41s.14-.31.21-.45a.52.52,0,0,1,.7-.24.53.53,0,0,1,.23.71c-.06.12-.12.27-.19.41s-.14.31-.21.45A.5.5,0,0,1,126.59,85.49Z"/><path class="cls-2" d="M128.75,89.17a.78.78,0,0,1-.26,0,.52.52,0,0,1,.25-1l.06,0a1.11,1.11,0,0,1,.46-.11.52.52,0,0,1,0,1l-.08,0A1.29,1.29,0,0,1,128.75,89.17Zm.51-.15Z"/><path class="cls-2" d="M123.33,105.05a1.84,1.84,0,0,1-1.86-1.82,1.9,1.9,0,0,1,1.74-2h.13a2,2,0,0,1,1.23.5,1.88,1.88,0,0,1,.63,1.37,2,2,0,0,1-.56,1.43A1.87,1.87,0,0,1,123.33,105.05Zm0-2.8h0a.87.87,0,0,0-.74.94.81.81,0,0,0,1.38.57.94.94,0,0,0,.26-.67.84.84,0,0,0-.26-.6,1,1,0,0,0-.59-.24Z"/><path class="cls-2" d="M124.54,115.13a1.47,1.47,0,0,1-.79-.25.51.51,0,0,1-.16-.72.52.52,0,0,1,.72-.16.46.46,0,0,0,.23.08c.28,0,.6-.51.6-1a5,5,0,0,0-.1-.81,6.39,6.39,0,0,1-.11-1c0-1.59,1.25-1.63,1.91-1.65.85,0,1.23,0,1.23-1.2,0-.24,0-.49,0-.74s0-.51,0-.76c0-1,1-1.12,1.65-1.19.94-.1,1.13-.21,1.13-.65a3,3,0,0,0-.23-.9,3.7,3.7,0,0,1-.27-1.14c0-.92,1-1.13,1.78-1.3,1.2-.26,1.92-.48,1.92-1.46a1.28,1.28,0,0,0,0-.19.52.52,0,0,1,.48-.56.53.53,0,0,1,.57.47c0,.1,0,.19,0,.28,0,1.89-1.72,2.26-2.75,2.48a3.1,3.1,0,0,0-1,.3,3.93,3.93,0,0,0,.22.77,4,4,0,0,1,.29,1.25c0,1.46-1.35,1.61-2.07,1.69a2.31,2.31,0,0,0-.73.15c0,.21,0,.44.05.69s0,.54,0,.81c0,2.18-1.46,2.23-2.25,2.25s-.89.07-.89.6a4.72,4.72,0,0,0,.1.8,6.38,6.38,0,0,1,.11,1A1.91,1.91,0,0,1,124.54,115.13Z"/><path class="cls-2" d="M117,112.27h-.25a2.52,2.52,0,0,1-2.23-2.51,2.49,2.49,0,0,1,1.64-2.42,3,3,0,0,1,1.28-.22,2.49,2.49,0,0,1,2.22,2.37,2.63,2.63,0,0,1-.78,2.06A2.7,2.7,0,0,1,117,112.27Zm-.49-4a1.44,1.44,0,0,0-.94,1.42,1.48,1.48,0,0,0,1.27,1.48,1.66,1.66,0,0,0,1.31-.43,1.55,1.55,0,0,0,.46-1.26,1.44,1.44,0,0,0-1.26-1.38A2,2,0,0,0,116.48,108.32Z"/><path class="cls-2" d="M115.08,117.4a.5.5,0,0,1-.24-.06.53.53,0,0,1-.27-.35,8.83,8.83,0,0,1-.24-2A4.19,4.19,0,0,1,116,111.4a.52.52,0,0,1,.73.12.53.53,0,0,1-.12.73,3.18,3.18,0,0,0-1.18,2.76,6.74,6.74,0,0,0,.1,1.16,35.89,35.89,0,0,1,4-1.12,6.05,6.05,0,0,0-1.34-3.22.52.52,0,0,1,.06-.73.51.51,0,0,1,.74.06,7.33,7.33,0,0,1,1.64,4.25.52.52,0,0,1-.41.56,35.31,35.31,0,0,0-4.9,1.39A.41.41,0,0,1,115.08,117.4Z"/><path class="cls-2" d="M106.35,103.87a.55.55,0,0,1-.38-.16.54.54,0,0,1-.12-.53c.22-.66.38-1.35.54-2,.08-.34.16-.69.25-1a.52.52,0,0,1,.35-.37.53.53,0,0,1,.5.1c.35.3.69.62,1,.93s.77.74,1.17,1.06a.55.55,0,0,1,.19.48.52.52,0,0,1-.32.41l-.09,0a27.49,27.49,0,0,1-3,1.08Zm1.1-2.64,0,.16c-.09.38-.18.77-.28,1.16.4-.14.81-.3,1.22-.46l-.57-.55Z"/><path class="cls-2" d="M113.31,110.14a.54.54,0,0,1-.22,0,10.33,10.33,0,0,1-5.86-7.09.52.52,0,1,1,1-.2,9.28,9.28,0,0,0,5.27,6.33.53.53,0,0,1,.26.7A.51.51,0,0,1,113.31,110.14Z"/><path class="cls-2" d="M114,125.44a.52.52,0,0,1-.52-.49c-.09-1.39-.17-2.74-.17-4a.53.53,0,0,1,.53-.53.52.52,0,0,1,.52.53c0,1.27.08,2.6.16,4a.53.53,0,0,1-.49.56Z"/><path class="cls-2" d="M111.91,123.72a.52.52,0,0,1-.06-1,13.46,13.46,0,0,1,1.77-.09,11.54,11.54,0,0,0,2-.15.52.52,0,0,1,.62.42.54.54,0,0,1-.42.61,13.23,13.23,0,0,1-2.23.16,15.07,15.07,0,0,0-1.65.09Z"/><path class="cls-2" d="M83.6,121.51a.51.51,0,0,1-.51-.41,13.59,13.59,0,0,1-.27-3.06v-.74c0-.24,0-.49,0-.73a.52.52,0,1,1,1,0V118a13.1,13.1,0,0,0,.24,2.83.53.53,0,0,1-.4.63Z"/><path class="cls-2" d="M81.63,119.24l-.53,0a.53.53,0,0,1-.48-.56.53.53,0,0,1,.56-.49A10.12,10.12,0,0,0,83,118.1c.48,0,1-.09,1.5-.09a.52.52,0,0,1,.52.52.52.52,0,0,1-.52.53,13.33,13.33,0,0,0-1.4.09C82.62,119.19,82.13,119.24,81.63,119.24Z"/><path class="cls-2" d="M89.41,139.35a.52.52,0,0,1-.5-.36,2.87,2.87,0,0,1-.13-.82,3,3,0,0,1,2.87-3c.44,0,.7.36.93.67s.54.72,1,.72c.7,0,.86-.35,1.12-1.29s.53-1.9,1.86-1.9a2.16,2.16,0,0,1,1.44.68,1.82,1.82,0,0,0,1.24.58c.49,0,.63-.27.88-1s.52-1.44,1.5-1.44a4.87,4.87,0,0,1,1.22.21,4,4,0,0,0,.9.16.82.82,0,0,0,.73-.4.54.54,0,0,1,.74-.11.52.52,0,0,1,.11.73,1.9,1.9,0,0,1-1.58.83,4.63,4.63,0,0,1-1.17-.2,3.9,3.9,0,0,0-1-.17c-.2,0-.29.13-.51.75s-.6,1.67-1.87,1.67a2.77,2.77,0,0,1-1.91-.83c-.33-.27-.52-.43-.77-.43-.47,0-.6.24-.85,1.13s-.57,2.06-2.13,2.06a2.19,2.19,0,0,1-1.83-1.16l-.18-.23a1.9,1.9,0,0,0-1.72,1.91,1.69,1.69,0,0,0,.08.5.53.53,0,0,1-.35.66A.39.39,0,0,1,89.41,139.35Z"/><path class="cls-2" d="M104.28,129.72a3.55,3.55,0,0,1-.46,0,80,80,0,0,0-9.46-.56c-1.65,0-3.36-.07-5-.16a.5.5,0,0,1-.49-.52v-2.28c0-3.13,0-6.42-.14-10.07a.55.55,0,0,1,.16-.39.52.52,0,0,1,.41-.14c1.59.13,3.21.34,4.78.54a59.86,59.86,0,0,0,7.65.67,20.63,20.63,0,0,0,5.23-.61.54.54,0,0,1,.46.1.52.52,0,0,1,.2.42l0,1.36c0,3.37-.07,6.85-.31,10.28a.53.53,0,0,1-1-.08c.24-3.39.28-6.86.32-10.21v-.69a22.72,22.72,0,0,1-4.83.48,59.78,59.78,0,0,1-7.79-.68c-1.36-.18-2.76-.36-4.15-.49.09,3.42.13,6.54.13,9.51V128c1.5.07,3,.1,4.5.13a82.58,82.58,0,0,1,9.59.57,2.57,2.57,0,0,0,1.23-.14.53.53,0,0,1,.33,1A4,4,0,0,1,104.28,129.72Z"/><path class="cls-2" d="M106.35,130.35a.52.52,0,0,1-.11-1,10.67,10.67,0,0,0,1.5-.48c.15-3.56.22-7,.3-10.4a.52.52,0,0,1,1,0c-.07,3.47-.15,7.06-.3,10.75a.54.54,0,0,1-.32.46,10.19,10.19,0,0,1-2,.67Z"/><path class="cls-2" d="M97.82,125.33h-.15a2.24,2.24,0,0,1-2-2.28,2.19,2.19,0,0,1,2-2.09H98a2.24,2.24,0,0,1,2.11,2.15,2.14,2.14,0,0,1-.69,1.59A2.39,2.39,0,0,1,97.82,125.33Zm.11-3.33h-.21a1.14,1.14,0,0,0-1,1.07,1.18,1.18,0,0,0,1,1.2,1.26,1.26,0,0,0,1-.36,1.05,1.05,0,0,0,.36-.81A1.2,1.2,0,0,0,98,122Z"/><path class="cls-2" d="M91,121.92h-.11a.52.52,0,0,1-.4-.62,9.88,9.88,0,0,0,.15-1.67c0-.39,0-.78.07-1.18a.55.55,0,0,1,.22-.37.48.48,0,0,1,.42-.08,18.27,18.27,0,0,0,4,.35.52.52,0,0,1,0,1,21.38,21.38,0,0,1-3.63-.25c0,.17,0,.34,0,.53a9.82,9.82,0,0,1-.18,1.85A.52.52,0,0,1,91,121.92Z"/><path class="cls-2" d="M105,122.09a.53.53,0,0,1-.52-.45,8.87,8.87,0,0,1-.1-1.4c0-.15,0-.3,0-.47-.73,0-1.46,0-2.17,0a.52.52,0,1,1,0-1c.88,0,1.8,0,2.7,0a.56.56,0,0,1,.4.15.53.53,0,0,1,.14.4c0,.38,0,.7,0,1a7.94,7.94,0,0,0,.09,1.24.54.54,0,0,1-.44.6Z"/><path class="cls-2" d="M91.9,127.05h-.38a.52.52,0,0,1-.5-.5c0-.31,0-.62,0-.94s-.06-.91-.06-1.37c0-.19,0-.38,0-.58a.53.53,0,0,1,1,.07,4.35,4.35,0,0,0,0,.51c0,.43,0,.87.06,1.31l0,.46c.41,0,.83,0,1.24-.06s1-.07,1.44-.07a.52.52,0,0,1,0,1c-.44,0-.89,0-1.36.07S92.39,127.05,91.9,127.05Z"/><path class="cls-2" d="M101.85,128a.53.53,0,0,1-.52-.42.53.53,0,0,1,.42-.62,11.6,11.6,0,0,1,1.92-.17l.51,0v-.64a10.33,10.33,0,0,1,.18-2.12.53.53,0,0,1,.63-.4.52.52,0,0,1,.4.62,8.75,8.75,0,0,0-.17,1.9c0,.21,0,.42,0,.64s0,.32,0,.49a.52.52,0,0,1-.48.52c-.36,0-.71,0-1.05,0A10.1,10.1,0,0,0,102,128Z"/><path class="cls-2" d="M83.34,137.4c-1.83,0-3.69-.06-5.48-.11s-3.64-.11-5.46-.11-3.17,0-4.55.14a.51.51,0,0,1-.51-.75c.74-1.54,1.58-3.07,2.39-4.55,1-1.79,2-3.63,2.83-5.52.51-1.11.94-2.29,1.36-3.43s.84-2.28,1.34-3.4a.52.52,0,0,1,.44-.3.52.52,0,0,1,.48.23,189.5,189.5,0,0,1,10,16.91.53.53,0,0,1,0,.49.52.52,0,0,1-.4.27A14,14,0,0,1,83.34,137.4ZM72.4,136.13c1.83,0,3.69.05,5.49.11s3.64.11,5.45.11c.8,0,1.24,0,1.58,0-2.56-4.87-5.54-9.9-9.08-15.32-.34.81-.64,1.64-.94,2.45-.42,1.15-.86,2.34-1.38,3.49-.87,1.93-1.89,3.79-2.88,5.59-.66,1.21-1.34,2.45-2,3.7C69.82,136.16,71.05,136.13,72.4,136.13Z"/><path class="cls-2" d="M69.85,133.38a.53.53,0,0,1,0-1c1.58-.09,3.29-.13,5.23-.13s3.94.05,5.86.09l2.2,0a.54.54,0,0,1,.52.54.53.53,0,0,1-.52.51l-2.22,0c-1.92,0-3.9-.08-5.84-.08s-3.61,0-5.17.13Z"/><path class="cls-2" d="M75.71,129.79H72a.53.53,0,0,1,0-1.05h3.74c1.65,0,3.6,0,5.55-.17a.52.52,0,1,1,.09,1C79.35,129.77,77.38,129.79,75.71,129.79Z"/><path class="cls-2" d="M73.86,126.5a.52.52,0,0,1,0-1l1.07,0a28,28,0,0,0,4.1-.35.52.52,0,0,1,.61.41.53.53,0,0,1-.42.62,29,29,0,0,1-4.25.37l-1.06,0Z"/><path class="cls-2" d="M68.87,125.26a.49.49,0,0,1-.28-.09c-.52-.33-1-.7-1.51-1s-.94-.68-1.42-1a.5.5,0,0,1-.24-.48.55.55,0,0,1,.31-.44c1-.42,1.93-.93,2.85-1.43l.27-.14a.52.52,0,0,1,.54,0,.51.51,0,0,1,.23.48c-.1,1-.15,2.13-.2,3.18l0,.44a.51.51,0,0,1-.29.44A.48.48,0,0,1,68.87,125.26ZM67,122.77l.69.5.71.51c0-.59.06-1.18.1-1.77C68,122.27,67.51,122.53,67,122.77Z"/><path class="cls-2" d="M61.34,133.71l-.13,0a.51.51,0,0,1-.38-.63c.69-2.9,2.19-6.89,5.42-9.45a.51.51,0,0,1,.73.08.52.52,0,0,1-.08.74c-3,2.38-4.4,6.14-5.06,8.87A.51.51,0,0,1,61.34,133.71Z"/><path class="cls-2" d="M61,120.68H61a2.11,2.11,0,0,1-2-2.11,1.92,1.92,0,0,1,.44-1.2,2.07,2.07,0,0,1,1.55-.84H61a2.09,2.09,0,0,1,2.11,1.88,2.19,2.19,0,0,1-.63,1.62A2,2,0,0,1,61,120.68ZM60.24,118a.83.83,0,0,0-.2.55,1.06,1.06,0,0,0,1,1.06,1,1,0,0,0,.75-.33,1.13,1.13,0,0,0,.34-.83,1,1,0,0,0-1.06-.9h0A1.09,1.09,0,0,0,60.24,118Z"/><path class="cls-2" d="M53.89,131.92a3,3,0,0,1-2.12-.87,2.91,2.91,0,0,1-.89-2.15,2.72,2.72,0,0,1,1.37-2.33,3.35,3.35,0,0,1,1.87-.47,2.92,2.92,0,0,1-.09,5.81Zm0-4.77a2.3,2.3,0,0,0-1.16.33,1.67,1.67,0,0,0-.84,1.44,1.86,1.86,0,0,0,.57,1.38,2,2,0,0,0,1.48.57A1.85,1.85,0,0,0,55.67,129a1.78,1.78,0,0,0-1.61-1.86Z"/><path class="cls-2" d="M51.25,137.77a.53.53,0,0,1-.45-.25,5.25,5.25,0,0,1-.73-2.7,4.52,4.52,0,0,1,1.61-3.6.52.52,0,0,1,.65.82,3.51,3.51,0,0,0-1.21,2.78,4.2,4.2,0,0,0,.41,1.84c1.36-.26,2.91-.55,4.53-.8a10.39,10.39,0,0,0-1.46-4,.53.53,0,0,1,.13-.73.52.52,0,0,1,.73.13,12.11,12.11,0,0,1,1.7,4.78l0,.16a.53.53,0,0,1-.08.41.51.51,0,0,1-.35.22c-1.94.28-3.82.63-5.41.94Z"/><path class="cls-2" d="M49.14,132.4h-.07c-3.68-.5-6.5-3.21-9-6.06a.52.52,0,0,1,.79-.69c2.36,2.7,5,5.26,8.35,5.71a.53.53,0,0,1-.07,1.05Z"/><path class="cls-2" d="M40.46,130a.52.52,0,0,1-.52-.52,22.35,22.35,0,0,0-.4-3.74.53.53,0,0,1,.59-.61h0a14.61,14.61,0,0,0,1.86.17,4.52,4.52,0,0,0,1.75-.32.52.52,0,0,1,.69.28.53.53,0,0,1-.28.68,5.47,5.47,0,0,1-2.16.4,11.9,11.9,0,0,1-1.34-.09,20.74,20.74,0,0,1,.3,3.22A.52.52,0,0,1,40.46,130Z"/><path class="cls-2" d="M32.37,129.35a.53.53,0,0,1-.52-.43,23.23,23.23,0,0,1-.26-4.17.52.52,0,0,1,.53-.52.52.52,0,0,1,.52.52,22.28,22.28,0,0,0,.24,4,.52.52,0,0,1-.42.61Z"/><path class="cls-2" d="M30.15,127.65a.52.52,0,0,1-.52-.52.52.52,0,0,1,.52-.53,15.42,15.42,0,0,0,3.8-.39.53.53,0,1,1,.26,1A16.55,16.55,0,0,1,30.15,127.65Z"/><path class="cls-2" d="M51.29,122.23h-.06l-.66-.07a64.07,64.07,0,0,0-7.92-.42c-1.59,0-3.21,0-4.78.06-2.23,0-4.55.1-6.83,0a.41.41,0,0,1-.19,0c-1.12-.45-2.23-1-3.3-1.54-.73-.37-1.5-.75-2.25-1.1a.52.52,0,0,1,0-1L28,117.14c1.09-.44,2.21-.89,3.33-1.32a.41.41,0,0,1,.16,0l2.7-.15c3.09-.17,6.29-.35,9.43-.35a57.46,57.46,0,0,1,8.61.58.51.51,0,0,1,.36.23,4.71,4.71,0,0,1,.74,2.54,4.23,4.23,0,0,1-1.67,3.48A.54.54,0,0,1,51.29,122.23Zm-8.64-1.55a66.48,66.48,0,0,1,8,.43l.44,0a3.2,3.2,0,0,0,1.11-2.52,3.62,3.62,0,0,0-.46-1.77,56.62,56.62,0,0,0-8.21-.53c-3.11,0-6.3.18-9.37.35l-2.63.14c-1.07.41-2.17.86-3.22,1.28l-1.52.62,1.19.59c1,.52,2.08,1.05,3.14,1.48,2.23,0,4.5,0,6.69,0C39.42,120.71,41.05,120.68,42.65,120.68Z"/><path class="cls-2" d="M31.67,121.49h-.06a.53.53,0,0,1-.47-.57.11.11,0,0,0,0,0,1.6,1.6,0,0,0-.16-.55,2,2,0,0,1-.21-.79,1.34,1.34,0,0,1,.68-1.11c.23-.17.27-.21.27-.28s-.18-.24-.3-.36a1.86,1.86,0,0,1-.64-.92.53.53,0,1,1,1-.25,1.16,1.16,0,0,0,.34.41,1.57,1.57,0,0,1,.62,1.12,1.34,1.34,0,0,1-.69,1.12c-.22.17-.25.21-.25.27a1.48,1.48,0,0,0,.12.39,2.32,2.32,0,0,1,.24,1V121A.53.53,0,0,1,31.67,121.49Z"/><path class="cls-2" d="M28.19,120.28h-.13a.53.53,0,0,1-.38-.64.79.79,0,0,0,0-.17,2.56,2.56,0,0,0-.06-.44,3.57,3.57,0,0,1-.06-.59,1.41,1.41,0,0,1,.26-.86.53.53,0,0,1,.86.61.39.39,0,0,0-.07.25,2.17,2.17,0,0,0,.05.41,3.91,3.91,0,0,1,.07.62,2,2,0,0,1-.05.43A.52.52,0,0,1,28.19,120.28Z"/><path class="cls-2" d="M50,121.84h-.12a.52.52,0,0,1-.39-.63,12.44,12.44,0,0,0,.33-2.67,7.34,7.34,0,0,0-.17-1.6.54.54,0,0,1,.4-.63.52.52,0,0,1,.62.4,8.29,8.29,0,0,1,.19,1.83,13.2,13.2,0,0,1-.35,2.9A.53.53,0,0,1,50,121.84Z"/><path class="cls-2" d="M48.09,121.91h0a.52.52,0,0,1-.5-.54c0-.79,0-1.56,0-2.35s0-1.81-.06-2.76a.52.52,0,0,1,.5-.54.51.51,0,0,1,.55.5c0,1,.06,1.87.06,2.8s0,1.58,0,2.39A.53.53,0,0,1,48.09,121.91Z"/><path class="cls-2" d="M26.71,124.46a.39.39,0,0,1-.18,0,11.73,11.73,0,0,1-4.16-3.18c-.37-.39-.72-.75-1.09-1.1a.52.52,0,1,1,.72-.76c.38.36.76.75,1.12,1.13a11.09,11.09,0,0,0,3.78,2.94.51.51,0,0,1,.3.67A.53.53,0,0,1,26.71,124.46Z"/><path class="cls-2" d="M18,116.49a1.08,1.08,0,0,1-1.14-1.2,1,1,0,0,1,.27-.73.52.52,0,0,1,.58-.11.53.53,0,0,1,.55-.15l.14,0a1,1,0,0,1,.84,1.07A1.09,1.09,0,0,1,18,116.49Zm-.07-1H18a.66.66,0,0,0,.19,0v0h-.05l-.21-.06h0A.24.24,0,0,0,17.9,115.44Z"/><path class="cls-2" d="M15.17,112.58a.53.53,0,0,1-.41-.19,43.91,43.91,0,0,1-5.49-9.49c-.23-.5-.47-1-.71-1.49a.53.53,0,0,1,.25-.7.52.52,0,0,1,.7.25c.24.49.47,1,.71,1.49a43,43,0,0,0,5.35,9.28.52.52,0,0,1-.4.85Z"/><path class="cls-2" d="M22.65,115.69a.52.52,0,0,1-.52-.5c-.06-1.29-.15-2.59-.24-3.86l0-.46c-.13-1.75-.26-3.56-.31-5.37a.51.51,0,0,1,.15-.38.5.5,0,0,1,.37-.15c1,0,1.9,0,2.81.06s1.82.06,2.73.06c.69,0,1.31,0,1.89,0a.52.52,0,0,1,.4.9c-.72.68-1.45,1.44-2.29,2.39a14.54,14.54,0,0,0,1.67,1.85.52.52,0,0,1,.15.54.53.53,0,0,1-.43.37c-1.82.25-3.7.43-5.52.61l-.51,0c.08,1.12.15,2.26.2,3.4a.52.52,0,0,1-.5.54Zm0-9.67c.06,1.57.17,3.15.28,4.69l.49,0c1.45-.14,2.95-.29,4.42-.47a20,20,0,0,1-1.28-1.57.53.53,0,0,1,0-.66c.6-.69,1.15-1.29,1.67-1.82h-.6c-.93,0-1.86,0-2.77-.06C24.11,106.05,23.36,106,22.61,106Z"/><path class="cls-2" d="M45,114.06a.53.53,0,0,1-.52-.47c-.16-1.9-.22-3.8-.28-5.64,0-1.26-.09-2.55-.16-3.83a.52.52,0,0,1,.14-.39.51.51,0,0,1,.37-.16c1.33,0,2.67-.1,3.91-.19-1.88-2-3.83-4.25-5.9-6.77-2.13,1.75-5.37,4.54-7.45,6.56,1.27,0,2.55-.06,3.81-.11a.51.51,0,0,1,.39.14.55.55,0,0,1,.16.38v.72c0,.57,0,1.15,0,1.73,0,2.31,0,4.78.26,7.22a.53.53,0,0,1-.48.57.54.54,0,0,1-.57-.48c-.22-2.48-.25-5-.25-7.31v-1.9c-1.53.06-3.07.1-4.59.11a.53.53,0,0,1-.48-.32.54.54,0,0,1,.1-.57c2.06-2.15,6.41-5.9,8.85-7.88a.51.51,0,0,1,.73.07c2.47,3,4.74,5.59,6.94,7.92a.53.53,0,0,1-.34.88c-1.37.11-2.94.23-4.52.26.06,1.12.1,2.23.13,3.31.06,1.83.12,3.72.29,5.59a.52.52,0,0,1-.48.56Z"/><path class="cls-2" d="M39.81,95h-.06a15.16,15.16,0,0,1-4.38-1.39c-.62-.26-1.25-.54-1.88-.76a.53.53,0,0,1,.36-1c.66.24,1.31.52,1.93.79A14.35,14.35,0,0,0,39.87,94a.53.53,0,0,1,.46.58A.52.52,0,0,1,39.81,95Z"/><path class="cls-2" d="M49.55,97.13A.94.94,0,0,1,49.1,97c-.3-.09-.57-.35-.57-1a.53.53,0,0,1,.91-.37.85.85,0,0,1,.38.19.68.68,0,0,1,.36.62A.63.63,0,0,1,49.55,97.13Zm0-.94Z"/><path class="cls-2" d="M13.23,101.06a.52.52,0,0,1-.52-.48c-.19-2.18-.33-4.4-.47-6.55s-.29-4.36-.48-6.54a.53.53,0,0,1,.41-.56,38,38,0,0,1,8.51-.8c1.58,0,3.19.05,4.75.1l2.71.08a.53.53,0,0,1,.51.49c.29,3.85.31,7.75.31,11.11v2.18a.51.51,0,0,1-.16.37.52.52,0,0,1-.37.16h-.31c-2.51,0-5.07.11-7.56.22S15.67,101.05,13.23,101.06Zm-.39-13.2c.17,2,.31,4.1.44,6.11s.27,4,.43,6c2.27,0,4.57-.12,6.81-.22,2.42-.11,4.93-.22,7.39-.22V97.91c0-3.2,0-6.89-.27-10.56l-2.24-.07c-1.55,0-3.16-.1-4.72-.1A37.66,37.66,0,0,0,12.84,87.86Z"/><path class="cls-2" d="M23.77,87.3a.52.52,0,0,1-.49-.33,7.54,7.54,0,0,1-.25-.76c-.46-1.51-1-2.76-2.44-2.76-1.8,0-3.95,1.29-4.16,3.14a.52.52,0,0,1-.58.46.53.53,0,0,1-.46-.58c.27-2.43,2.91-4.07,5.2-4.07s3.05,2.2,3.44,3.51c.08.27.15.5.22.67a.52.52,0,0,1-.29.68A.43.43,0,0,1,23.77,87.3Z"/><path class="cls-2" d="M18.09,96.55a.54.54,0,0,1-.52-.42,16.47,16.47,0,0,1-.39-3,.54.54,0,0,1,.15-.38.5.5,0,0,1,.38-.15h1.73c.78,0,1.8,0,2.81-.1a.53.53,0,0,1,.41.15.49.49,0,0,1,.15.41c0,.72-.08,1.4-.08,2.08,0,.28,0,.56,0,.85a.59.59,0,0,1-.14.38.52.52,0,0,1-.37.16C20.79,96.54,19.34,96.55,18.09,96.55Zm.16-2.94a14.33,14.33,0,0,0,.27,1.89l3.17,0v-.36c0-.52,0-1,0-1.55-.84,0-1.64.06-2.29.06Z"/><path class="cls-2" d="M17.38,94.85h-.05c-2.73-.24-4.22-2.51-5.32-4.7a.53.53,0,1,1,.94-.47c1,2,2.26,3.93,4.47,4.13a.52.52,0,0,1,0,1Z"/><path class="cls-2" d="M22.54,95.49a.52.52,0,0,1-.49-.35.52.52,0,0,1,.31-.67c2.68-1,4.36-2.39,5-4.26a.53.53,0,0,1,.67-.33.54.54,0,0,1,.33.67c-.76,2.19-2.66,3.84-5.64,4.91A.57.57,0,0,1,22.54,95.49Z"/><path class="cls-2" d="M5.49,92.41a.52.52,0,0,1-.37-.89A.89.89,0,0,0,5.43,91c0-.33-.41-.72-.81-1.1A2.82,2.82,0,0,1,3.5,88a2.73,2.73,0,0,1,.89-1.72,2.38,2.38,0,0,0,.76-1.38c0-.29-.17-.39-1-.59S2,83.81,2,82.25a4.53,4.53,0,0,1,.88-2.18,3.62,3.62,0,0,0,.43-.81c0-.23-.37-.49-.73-.75-.56-.4-1.27-.9-1.27-1.77a2.48,2.48,0,0,1,1.58-2.07.52.52,0,0,1,.68.28.52.52,0,0,1-.28.69,1.45,1.45,0,0,0-.93,1.1c0,.31.33.56.83.92s1.17.83,1.17,1.6a3,3,0,0,1-.59,1.37A3.83,3.83,0,0,0,3,82.25c0,.66.37.81,1.34,1,.78.19,1.84.44,1.84,1.61a3.21,3.21,0,0,1-1,2.06c-.32.38-.63.74-.63,1s.41.73.8,1.11A2.78,2.78,0,0,1,6.47,91a1.83,1.83,0,0,1-.61,1.29A.55.55,0,0,1,5.49,92.41Z"/><path class="cls-2" d="M2.65,70.2a.52.52,0,0,1-.51-.44A24,24,0,0,1,1.8,65.5a.53.53,0,1,1,1.05,0,22.9,22.9,0,0,0,.32,4.08.52.52,0,0,1-.43.61Z"/><path class="cls-2" d="M.52,68.23A.52.52,0,0,1,0,67.71a.52.52,0,0,1,.52-.53,20.58,20.58,0,0,0,2.88-.27l1-.13a.52.52,0,0,1,.58.45.53.53,0,0,1-.45.59l-1,.13A21.45,21.45,0,0,1,.52,68.23Z"/><path class="cls-2" d="M6.07,63.51H5.93a1.88,1.88,0,0,1-1.69-1.91,2,2,0,0,1,1-1.76,2,2,0,0,1,.91-.23,1.8,1.8,0,0,1,1.92,1.66,2.43,2.43,0,0,1,0,.54A2.05,2.05,0,0,1,6.07,63.51Zm-.33-2.76a.91.91,0,0,0-.45.83.85.85,0,0,0,.72.88,1,1,0,0,0,1-.75,2,2,0,0,0,0-.35.77.77,0,0,0-.87-.71A.93.93,0,0,0,5.74,60.75Z"/><path class="cls-2" d="M2.27,58.89A.89.89,0,0,1,1.42,58a1.23,1.23,0,0,1,.37-.85A.52.52,0,0,1,2.16,57a.92.92,0,0,1,.91.61,1.13,1.13,0,0,1,.05.35C3.12,58.84,2.41,58.89,2.27,58.89Zm-.17-1s0,.06.07.06v-.12A.13.13,0,0,0,2.1,57.94Z"/><path class="cls-2" d="M2.73,55.3h0a.53.53,0,0,1-.49-.56,17.18,17.18,0,0,1,2.37-8.1.53.53,0,0,1,.72-.17.52.52,0,0,1,.17.72,16.14,16.14,0,0,0-2.21,7.62A.53.53,0,0,1,2.73,55.3Z"/><path class="cls-2" d="M10.13,43.31a.53.53,0,0,1-.52-.45,39,39,0,0,1-.32-4c0-.31,0-.63,0-1a.53.53,0,0,1,.5-.55.54.54,0,0,1,.55.5c0,.32,0,.64,0,1a35.44,35.44,0,0,0,.31,3.86.53.53,0,0,1-.45.59Z"/><path class="cls-2" d="M7.23,41.14a.53.53,0,0,1-.52-.49.54.54,0,0,1,.5-.56l.88,0a18.12,18.12,0,0,0,3.36-.35.52.52,0,0,1,.63.39.52.52,0,0,1-.39.63,19.39,19.39,0,0,1-3.56.38l-.87,0Z"/><path class="cls-2" d="M19.41,45.63h-.13a1.88,1.88,0,0,1-1.66-2,1.81,1.81,0,0,1,1.25-1.73,2.07,2.07,0,0,1,.42-.08,2,2,0,0,1,1.45.55,1.84,1.84,0,0,1,0,2.74A1.91,1.91,0,0,1,19.41,45.63Zm-.23-2.71a.79.79,0,0,0-.52.76.83.83,0,0,0,.69.9.84.84,0,0,0,.66-.22.79.79,0,0,0,0-1.21.84.84,0,0,0-.65-.26A.57.57,0,0,0,19.18,42.92Z"/><path class="cls-2" d="M19.83,32.21h-.16A2.44,2.44,0,0,1,18,31.3a2.81,2.81,0,0,1-.63-1.95,2.66,2.66,0,0,1,.75-1.7A2.27,2.27,0,0,1,19.43,27a2.92,2.92,0,0,1,2.23.68,2.51,2.51,0,0,1,.85,1.86,2.69,2.69,0,0,1-.84,1.91A2.64,2.64,0,0,1,19.83,32.21Zm-.06-4.15h-.22a1.29,1.29,0,0,0-.73.32,1.59,1.59,0,0,0-.44,1,1.72,1.72,0,0,0,.39,1.22,1.39,1.39,0,0,0,1,.52A1.55,1.55,0,0,0,21,30.72a1.62,1.62,0,0,0,.51-1.14A1.44,1.44,0,0,0,21,28.5,1.8,1.8,0,0,0,19.77,28.06Z"/><path class="cls-2" d="M17.85,36.58a.54.54,0,0,1-.25-.06.5.5,0,0,1-.25-.32,4.36,4.36,0,0,1,1.37-4.44.52.52,0,1,1,.61.85,3.06,3.06,0,0,0-1.08,2.47c0,.11,0,.22,0,.32A22.28,22.28,0,0,1,21.38,35l.22,0a15.53,15.53,0,0,0-1-3l-.12-.3a.52.52,0,0,1,.29-.68.53.53,0,0,1,.68.3l.12.29a13.83,13.83,0,0,1,1.12,3.81.53.53,0,0,1-.47.58l-.76.07a17.69,17.69,0,0,0-3.48.55Z"/><path class="cls-2" d="M18,31.07a.5.5,0,0,1-.39-.17.52.52,0,0,1,0-.74l.51-.47a17.44,17.44,0,0,1,2.25-1.87.53.53,0,0,1,.73.15.52.52,0,0,1-.15.72,17.45,17.45,0,0,0-2.12,1.77l-.52.48A.53.53,0,0,1,18,31.07Z"/><path class="cls-2" d="M30.3,20.7a.54.54,0,0,1-.41-.21A13.27,13.27,0,0,0,27.35,18a.52.52,0,0,1-.21-.5.54.54,0,0,1,.34-.42c.83-.3,1.69-.53,2.51-.76.51-.14,1-.29,1.54-.45a.53.53,0,0,1,.63.73,13.07,13.07,0,0,0-1.34,3.7.53.53,0,0,1-.38.43Zm-1.57-3A13.09,13.09,0,0,1,30,19a13.57,13.57,0,0,1,.7-1.86l-.45.13C29.76,17.42,29.24,17.56,28.73,17.72Z"/><path class="cls-2" d="M24,25.34a.51.51,0,0,1-.2,0,.51.51,0,0,1-.28-.68c1-2.44,3-4.21,4.85-5.91l.35-.32a.52.52,0,0,1,.71.77l-.36.33c-1.8,1.62-3.66,3.31-4.58,5.53A.53.53,0,0,1,24,25.34Z"/><path class="cls-2" d="M35,25.43a.52.52,0,0,1-.51-.43,21.21,21.21,0,0,1-.26-4,.53.53,0,0,1,1,0,20.33,20.33,0,0,0,.24,3.84.54.54,0,0,1-.42.61Z"/><path class="cls-2" d="M32.53,23.79a.53.53,0,1,1,0-1.05,24.44,24.44,0,0,0,4.16-.32.53.53,0,0,1,.61.43.52.52,0,0,1-.43.6A24.5,24.5,0,0,1,32.53,23.79Z"/><path class="cls-2" d="M36,49a.45.45,0,0,1-.16,0,10,10,0,0,1-6.48-8.81,7.06,7.06,0,0,1,.25-1.89.52.52,0,0,1,1,.27,6.33,6.33,0,0,0-.22,1.62A8.88,8.88,0,0,0,36.21,48,.52.52,0,0,1,36,49Z"/><path class="cls-2" d="M40.89,49.26A5.4,5.4,0,0,1,39.14,49a.54.54,0,0,1-.32-.67.53.53,0,0,1,.67-.32,5.2,5.2,0,0,0,3.79-.31.51.51,0,0,1,.69.27.52.52,0,0,1-.27.69A7,7,0,0,1,40.89,49.26Z"/><path class="cls-2" d="M16.33,72a.52.52,0,0,1-.53-.52v-.12c0-3.17-.12-6.39-.24-9.51s-.24-6.37-.24-9.56c0-1.17,0-2.26,0-3.33-.61,0-1.23.06-1.83.08l-1.35,0c0,1.14,0,2.31,0,3.57,0,3.68.16,7.43.32,11.06.11,2.51.22,5.11.28,7.67a.53.53,0,0,1-.51.54.52.52,0,0,1-.54-.51c-.06-2.56-.17-5.15-.28-7.66-.16-3.63-.32-7.39-.32-11.1,0-1.45,0-2.78.07-4.09a.52.52,0,0,1,.5-.5c.61,0,1.23-.06,1.84-.08.78,0,1.59-.05,2.38-.11a.5.5,0,0,1,.4.15.55.55,0,0,1,.16.39c-.05,1.23-.07,2.5-.07,3.87,0,3.17.12,6.4.24,9.52s.24,6.36.24,9.55v.12A.52.52,0,0,1,16.33,72Z"/><path class="cls-2" d="M22.05,72.1a.52.52,0,0,1-.52-.53c0-7,0-13,.08-19.06-.62,0-1.24,0-1.84-.09-.81-.05-1.64-.1-2.46-.1-.51,0-1,0-1.42.06a.53.53,0,1,1-.09-1.05c.47,0,1-.06,1.51-.06.85,0,1.7,0,2.52.1s1.54.1,2.31.11a.51.51,0,0,1,.37.15.54.54,0,0,1,.15.38c-.08,6.26-.09,12.31-.09,19.56A.52.52,0,0,1,22.05,72.1Z"/><path class="cls-2" d="M27.11,72.25a.52.52,0,0,1-.52-.52c-.14-6.81-.28-14.52-.37-22.11-.69,0-1.37,0-2-.07-.46,0-.93,0-1.39-.06l-.15,1.25-.15,1.32a.53.53,0,0,1-.58.46.52.52,0,0,1-.46-.58l.15-1.32c.07-.57.14-1.15.2-1.72a.51.51,0,0,1,.52-.47c.64,0,1.29,0,1.91.07.81,0,1.66.08,2.49.07a.48.48,0,0,1,.37.15.51.51,0,0,1,.16.37c.09,7.75.24,15.65.37,22.62A.53.53,0,0,1,27.11,72.25Z"/><path class="cls-2" d="M29.44,72.32a.53.53,0,0,1-.53-.5c-.1-2.62-.14-5.51-.14-9.11,0-1.75,0-3.5,0-5.25,0-.83,0-1.67,0-2.51-.63,0-1.27,0-1.91,0H26.8a.53.53,0,0,1-.52-.53.52.52,0,0,1,.53-.52h.08c.69,0,1.4,0,2.08-.05l.34,0a.54.54,0,0,1,.38.15.51.51,0,0,1,.16.38c0,1,0,2,0,3.06,0,1.75,0,3.5,0,5.24,0,3.58,0,6.47.14,9.07a.52.52,0,0,1-.5.54Z"/><path class="cls-2" d="M32,72.08a.53.53,0,0,1-.52-.5c-.18-3.54-.21-7.13-.24-10.6,0-2.34-.05-4.76-.11-7.14a.51.51,0,0,1,.49-.53c.64,0,1.34-.06,2.18-.06h1.42a.52.52,0,0,1,.52.52c0,.9-.05,1.82-.09,2.71s-.09,1.76-.09,2.62a.53.53,0,0,1-.53.53.52.52,0,0,1-.52-.53c0-.88,0-1.8.09-2.68,0-.7.07-1.42.08-2.13h-.88c-.6,0-1.13,0-1.61,0,.05,2.22.07,4.46.09,6.64,0,3.46.07,7,.25,10.56a.53.53,0,0,1-.5.55Z"/><path class="cls-2" d="M24.34,65.37a.53.53,0,0,1-.52-.54c.08-3.43.08-6.92.08-10.3a.52.52,0,0,1,.52-.52.52.52,0,0,1,.53.52c0,3.38,0,6.88-.09,10.33A.52.52,0,0,1,24.34,65.37Z"/><path class="cls-2" d="M13.38,58.2c-.75,0-1.13-.76-1.13-2.26,0-.42,0-.84.06-1.25s.06-.8.06-1.18c0-.11,0-.23,0-.34a.53.53,0,0,1,.36-.53,2.21,2.21,0,0,1,.35-.08,1.15,1.15,0,0,0,.34-.1.51.51,0,0,1,.46-.06.5.5,0,0,1,.33.33A10.12,10.12,0,0,1,14.76,56C14.76,57.35,14.67,58.2,13.38,58.2Zm0-4.44c0,.33,0,.67-.06,1s0,.79,0,1.17a3.16,3.16,0,0,0,.16,1.21h.16a3.67,3.67,0,0,0,.1-1.18A8.27,8.27,0,0,0,13.41,53.76Z"/><path class="cls-2" d="M13.05,60.78a.52.52,0,1,1,0-1,3.12,3.12,0,0,0,.4-.05,2.89,2.89,0,0,1,.93,0,.54.54,0,0,1,.41.62.53.53,0,0,1-.62.41,1.8,1.8,0,0,0-.55,0A3.32,3.32,0,0,1,13.05,60.78Z"/><path class="cls-2" d="M13.56,62.49a1.21,1.21,0,0,1-.58-.13.52.52,0,1,1,.46-.93,1,1,0,0,0,.42,0,2.71,2.71,0,0,1,.41,0,.53.53,0,0,1,.53.53.52.52,0,0,1-.53.52l-.26,0A3,3,0,0,1,13.56,62.49Z"/><path class="cls-2" d="M18.46,58.44a1.51,1.51,0,0,1-1.35-1.58,1.58,1.58,0,0,1,.61-1.28.51.51,0,0,1,.41-.09.56.56,0,0,1,.4-.46,1.54,1.54,0,0,1,1.87,1.43A2.23,2.23,0,0,1,18.46,58.44Zm.1-2.38a.5.5,0,0,1-.21.36.61.61,0,0,0,.11,1,1.25,1.25,0,0,0,.9-.93.5.5,0,0,0-.5-.42h-.08A.55.55,0,0,1,18.56,56.06Z"/><path class="cls-2" d="M18.86,66.76a.53.53,0,0,1-.52-.44,30.28,30.28,0,0,1-.29-4.4c0-.57,0-1.14,0-1.72a.53.53,0,0,1,.5-.55.54.54,0,0,1,.54.51c0,.58,0,1.16.05,1.74a30.13,30.13,0,0,0,.27,4.25.51.51,0,0,1-.43.6Z"/><path class="cls-2" d="M59.87,82.16A8.14,8.14,0,0,1,54.51,80a6.08,6.08,0,0,0-4-1.71c-1,0-3.24.67-6.76,2-.45.17-.45.17-.55.17a.79.79,0,0,1-.57-.24c-.67-.68-.72-2.9-.66-7.45a32.5,32.5,0,0,0-.15-5.06c-3.28-.45-5.51-.8-6.13-1-1.09.06-1.17,1.61-1.17,2.09a5.25,5.25,0,0,0,0,.56.54.54,0,0,1-.47.58.52.52,0,0,1-.57-.47,4.92,4.92,0,0,1,0-.67c0-1.93.87-3.13,2.28-3.13a.52.52,0,0,1,.21,0s.76.21,6.21,1c.84.11.9,1.18.84,6.08,0,2.17-.06,5.7.29,6.57l.08,0c3.69-1.39,6-2.06,7.13-2.06a7.12,7.12,0,0,1,4.62,1.93,7.1,7.1,0,0,0,4.72,1.92,12.06,12.06,0,0,0,5-1.43c.75-.33,1.6-.71,2.57-1.08a.53.53,0,0,1,.58.16,5,5,0,0,0,3.77,1.83A3.49,3.49,0,0,0,75,78.94l.37-.44a.52.52,0,0,1,.74,0,.51.51,0,0,1,0,.73c-.12.14-.23.28-.35.41a4.47,4.47,0,0,1-4,2,5.94,5.94,0,0,1-4.32-1.93c-.79.32-1.5.63-2.18.93A13.08,13.08,0,0,1,59.87,82.16Z"/><path class="cls-2" d="M37,71.42A8.24,8.24,0,0,1,34.05,71a.53.53,0,0,1-.31-.68.52.52,0,0,1,.67-.31,7.12,7.12,0,0,0,2.55.39c.66,0,1.33-.05,2-.09a19.45,19.45,0,0,1,3.22,0,.53.53,0,0,1,.47.58.52.52,0,0,1-.58.46,18.31,18.31,0,0,0-3,0C38.35,71.37,37.65,71.42,37,71.42Z"/><path class="cls-2" d="M57.69,114.59h-.1a.53.53,0,0,1-.41-.62,2.86,2.86,0,0,1,.07-.28,2.32,2.32,0,0,0,.07-.37v0a.76.76,0,0,0-.22,0h-.28l-.34,0a1,1,0,0,1-1.11-1,1.13,1.13,0,0,1,.41-.79l.11-.12c-.18-1.24-1.75-12.24-2.53-17.3a12,12,0,0,1-2.17.21c-2.57,0-18.8-2.45-18.8-8.14a68.77,68.77,0,0,1,.77-8.91c.25-1.91.5-3.88.64-5.81a.53.53,0,0,1,.56-.49.53.53,0,0,1,.49.56c-.14,2-.4,4-.65,5.87a69.17,69.17,0,0,0-.76,8.78c0,1.86,2.75,3.71,7.74,5.21a46.7,46.7,0,0,0,10,1.88A11.42,11.42,0,0,0,53.68,93a.54.54,0,0,1,.41.08.51.51,0,0,1,.22.35c.79,5,2.61,17.83,2.63,18a.17.17,0,0,1,0,.07,1.11,1.11,0,0,1-.39.78h.18l.36,0a1.14,1.14,0,0,1,1.27,1.12,2.44,2.44,0,0,1-.11.63,1.89,1.89,0,0,0,0,.23A.53.53,0,0,1,57.69,114.59Z"/><path class="cls-2" d="M52.51,83.8a.54.54,0,0,1-.25-.06A4.69,4.69,0,0,0,50,83.23a12.83,12.83,0,0,0-3,.46.52.52,0,0,1-.25-1,13.45,13.45,0,0,1,3.27-.5,5.85,5.85,0,0,1,2.76.63.53.53,0,0,1,.22.71A.52.52,0,0,1,52.51,83.8Z"/><path class="cls-2" d="M53.34,85.93h-.06c-.31,0-.62-.11-.91-.17a6.29,6.29,0,0,0-1.35-.2.52.52,0,0,1,0-1,7.17,7.17,0,0,1,1.58.22c.28.06.55.12.81.15a.52.52,0,0,1-.07,1Z"/><path class="cls-2" d="M53.57,74.63a.53.53,0,0,1-.52-.46A9.36,9.36,0,0,1,53,72.9c0-.36,0-.71,0-1.07s0-.69,0-1,0-.46,0-.67a.53.53,0,0,1,.49-.56.53.53,0,0,1,.56.49c0,.23,0,.47,0,.74s0,.7,0,1.06,0,.69,0,1A7.51,7.51,0,0,0,54.09,74a.53.53,0,0,1-.45.59Z"/><path class="cls-2" d="M52.72,73,52,73a.53.53,0,0,1-.48-.57.52.52,0,0,1,.56-.48c.21,0,.42,0,.64,0,.62,0,1.23-.06,1.86-.12l1-.08a.52.52,0,1,1,.08,1l-.92.08A18.1,18.1,0,0,1,52.72,73Z"/><path class="cls-2" d="M30.12,75.21c-4.39,0-9.94-.32-14.4-.58-2.84-.16-5.28-.3-6.5-.3a.55.55,0,0,1-.55-.49c-.05-.74-.09-1.53-.13-2.5A.5.5,0,0,1,8.69,71a.52.52,0,0,1,.37-.16c7.63.08,15.89.3,25.25.65a.53.53,0,0,1,0,1c-9.13-.35-17.2-.56-24.66-.65,0,.52.05,1,.08,1.44,1.34,0,3.48.15,6.09.3,4.45.25,10,.57,14.34.57,1.36,0,2.63,0,3.88-.07a.52.52,0,1,1,0,1C32.78,75.19,31.49,75.21,30.12,75.21Z"/><path class="cls-2" d="M19.15,78.51c-1.06,0-2.32-.67-2.32-3.86a.52.52,0,1,1,1,0c0,1.87.43,2.82,1.28,2.82.51,0,.62-.89.71-2,0-.28,0-.55.08-.79a.52.52,0,1,1,1,.16c0,.2,0,.45-.07.71C20.81,76.76,20.66,78.51,19.15,78.51Z"/><path class="cls-2" d="M33.24,78.61h-.06c-1.85-.23-2-2.15-2.06-3a.57.57,0,0,0,0-.13l0,0a.51.51,0,0,1,0-.74.6.6,0,0,1,.64-.16c.38.14.41.53.45,1,.09,1.19.3,1.9,1.14,2a.52.52,0,0,1-.07,1Z"/><path class="cls-2" d="M11.18,77.24h-.91l-.9,0a.52.52,0,0,1,0-1h1.81a10.69,10.69,0,0,0,1.73-.11.53.53,0,0,1,.6.44.54.54,0,0,1-.44.6A12.77,12.77,0,0,1,11.18,77.24Z"/><path class="cls-2" d="M42.86,74.71a.52.52,0,0,1-.52-.48.52.52,0,0,1,.47-.57l1-.11L45,73.42c0-.17,0-.34,0-.51l0-.73h-1a8.6,8.6,0,0,1-1.35-.09.52.52,0,0,1-.43-.61.52.52,0,0,1,.6-.43,6.55,6.55,0,0,0,1.18.08h1.55a.52.52,0,0,1,.52.52c0,.41,0,.81,0,1.22s0,.69,0,1a.53.53,0,0,1-.51.54c-.54,0-1.07.08-1.64.15l-1,.12Z"/><path class="cls-2" d="M36.06,66.82a.53.53,0,0,1-.53-.53V66.1c0-.37,0-.75,0-1.13s0-.77,0-1.16c0-6.83,3.76-8.61,9.94-10.74A1.86,1.86,0,0,1,46,53a3,3,0,0,1,2.28,1.39,19,19,0,0,1,2.42,7,.53.53,0,0,1-.22.52A14.36,14.36,0,0,1,44.77,64a2.37,2.37,0,0,1-2.62-1.83c-.2-.56-.26-.6-.52-.6a2.16,2.16,0,0,0-1,.46l-.41.27a.52.52,0,0,1-.54-.9l.36-.23a2.8,2.8,0,0,1,1.54-.65c1,0,1.32.78,1.51,1.3S43.54,63,44.77,63a13.91,13.91,0,0,0,4.87-1.76,17.88,17.88,0,0,0-2.22-6.28A1.92,1.92,0,0,0,46,54a.67.67,0,0,0-.24,0c-5.9,2-9.23,3.48-9.23,9.75,0,.38,0,.76,0,1.15s0,.76,0,1.14v.2A.52.52,0,0,1,36.06,66.82Z"/><path class="cls-2" d="M46.05,63.44a.52.52,0,0,1-.51-.43,6.19,6.19,0,0,0-1.39-2.62c-.3-.41-.61-.82-.87-1.26a.52.52,0,0,1,.9-.54A13,13,0,0,0,45,59.76a7.09,7.09,0,0,1,1.58,3.07.52.52,0,0,1-.43.61Z"/><path class="cls-2" d="M48.12,62.44A.53.53,0,0,1,47.6,62a9.53,9.53,0,0,0-1-2.52c-.2-.4-.4-.81-.58-1.24a.52.52,0,0,1,.28-.68.51.51,0,0,1,.68.28c.17.39.36.77.56,1.18a10.56,10.56,0,0,1,1.07,2.78.53.53,0,0,1-.41.62Z"/><path class="cls-2" d="M45.4,66.11c-1,0-1.73-.9-1.73-2.19a.52.52,0,0,1,.52-.53.53.53,0,0,1,.53.53c0,.39.14,1.15.68,1.15.76,0,1.2-1.23,1.35-1.76a.53.53,0,0,1,1,.29C47.29,65.22,46.46,66.11,45.4,66.11Z"/><path class="cls-2" d="M40.86,67.24a.54.54,0,0,1-.21,0,.53.53,0,0,1-.27-.69l.11-.23a6.63,6.63,0,0,1,2-3,.52.52,0,1,1,.62.84,5.83,5.83,0,0,0-1.65,2.55l-.11.23A.51.51,0,0,1,40.86,67.24Z"/><path class="cls-2" d="M87.06,81.61a.54.54,0,0,1-.36-.14.52.52,0,0,1,0-.74A4.52,4.52,0,0,1,90,79.4a6.4,6.4,0,0,1,3.12.82.53.53,0,0,1,.19.72.52.52,0,0,1-.71.19,5.45,5.45,0,0,0-2.6-.68,3.48,3.48,0,0,0-2.59,1A.54.54,0,0,1,87.06,81.61Z"/><path class="cls-2" d="M86.07,84.4a.52.52,0,0,1-.06-1,5.3,5.3,0,0,0,1.88-.52.52.52,0,0,1,.47.93,6.44,6.44,0,0,1-2.23.63Z"/><path class="cls-2" d="M88.15,72.2a2,2,0,0,1-2.1-1.88,2.17,2.17,0,0,1,1.74-2.27,1.84,1.84,0,0,1,.33,0,2.15,2.15,0,0,1,2.07,2.06,2.12,2.12,0,0,1-2,2.11Zm0-3.14-.13,0a1.12,1.12,0,0,0-.89,1.17,1,1,0,0,0,1.1.9,1.08,1.08,0,0,0,.94-1.06A1.13,1.13,0,0,0,88.12,69.06Z"/><path class="cls-2" d="M84.92,114.29a.48.48,0,0,1-.26-.07,2.31,2.31,0,0,1-1.27-1.75,1.75,1.75,0,0,1,0-.32l0-.15a6.71,6.71,0,0,1-1.13-3.54c0-1.5.89-5.28,1.84-9.29.55-2.31,1.12-4.7,1.49-6.61a.53.53,0,0,1,.48-.42,62,62,0,0,0,13.69-2.62c3.62-1.23,7.93-3.37,7.93-6.63a35.63,35.63,0,0,0-.63-5.7,36.48,36.48,0,0,1-.65-5.92,2.71,2.71,0,0,1,0-.29.52.52,0,0,1,.52-.52.53.53,0,0,1,.52.54v.27a35,35,0,0,0,.64,5.75,37.25,37.25,0,0,1,.64,5.87c0,6.64-13.76,9.56-22.2,10.27-.37,1.85-.9,4.09-1.42,6.26a67.06,67.06,0,0,0-1.81,9,5.5,5.5,0,0,0,1,3,.84.84,0,0,1,.17.44,2,2,0,0,1-.06.48.69.69,0,0,0,0,.13c0,.23.31.59.74.83a.54.54,0,0,1,.2.72A.53.53,0,0,1,84.92,114.29Z"/><path class="cls-2" d="M105.53,67.57a.53.53,0,0,1-.52-.43c-1.37-8-1.6-8.12-2.67-8.48a6.8,6.8,0,0,1-2-1L99.5,57c-1.22-.94-2.6-2-3.8-2-1.65,0-3.82,3.25-3.82,5.16a4.76,4.76,0,0,0,4.35,4.17c.85,0,1-.37,1.2-1.11a2.19,2.19,0,0,1,2.31-1.9,4.3,4.3,0,0,1,1.28.22.53.53,0,0,1,.33.66.52.52,0,0,1-.67.33,3.25,3.25,0,0,0-.94-.16c-.95,0-1.08.41-1.31,1.16a2.13,2.13,0,0,1-2.2,1.85c-2.62,0-5.4-2.68-5.4-5.22S93.44,54,95.7,54c1.56,0,3.09,1.19,4.44,2.23l.77.59a5.91,5.91,0,0,0,1.76.9c1.68.56,2,1,3.38,9.29a.53.53,0,0,1-.43.6Z"/><path class="cls-2" d="M92.64,63.63a.53.53,0,0,1-.52-.44,4.9,4.9,0,0,1-.06-.77,8.56,8.56,0,0,1,1.27-4,.53.53,0,1,1,.92.52,7.47,7.47,0,0,0-1.14,3.49,3.83,3.83,0,0,0,0,.6.52.52,0,0,1-.44.6Z"/><path class="cls-2" d="M94.77,65a.52.52,0,0,1-.52-.52A7.22,7.22,0,0,1,95.34,60a.52.52,0,0,1,.84.62,6.34,6.34,0,0,0-.88,3.88A.52.52,0,0,1,94.77,65Z"/><path class="cls-2" d="M95.27,66.75A2.38,2.38,0,0,1,93,64.42a.52.52,0,0,1,.52-.52.52.52,0,0,1,.53.52,1.32,1.32,0,0,0,1.2,1.28c.16,0,.26-.12.51-.55l.11-.18a.51.51,0,0,1,.71-.18.52.52,0,0,1,.18.72l-.09.16A1.68,1.68,0,0,1,95.27,66.75Z"/><path class="cls-2" d="M100.69,67.82h0a.53.53,0,0,1-.49-.56.25.25,0,0,0,0-.08c0-.41-.27-.7-.71-1.13a2.4,2.4,0,0,1-1-1.73,4.21,4.21,0,0,1,.06-.63,3.13,3.13,0,0,0,0-.5.53.53,0,0,1,.53-.53.52.52,0,0,1,.52.53,4.49,4.49,0,0,1-.06.66,2.79,2.79,0,0,0,0,.47c0,.33.24.58.65,1a2.62,2.62,0,0,1,1,1.88v.15A.52.52,0,0,1,100.69,67.82Z"/><path class="cls-2" d="M66.64,84.88a.39.39,0,0,1-.15,0,.52.52,0,0,1-.34-.32,15.55,15.55,0,0,0-2-3.81.51.51,0,0,1,.1-.73.53.53,0,0,1,.74.11,16.22,16.22,0,0,1,1.94,3.45,21.27,21.27,0,0,1,4.81-2.31.55.55,0,0,1,.45,0c.44.28.87.57,1.28.86.69.46,1.34.91,2,1.29,0-.45,0-.85,0-1.22a8.94,8.94,0,0,0-.36-2.71.53.53,0,0,1,.35-.66.52.52,0,0,1,.65.35,10,10,0,0,1,.41,3c0,.61,0,1.27-.12,2.09a.49.49,0,0,1-.26.4.51.51,0,0,1-.48,0A21.34,21.34,0,0,1,72.84,83l-1-.7a20.06,20.06,0,0,0-4.86,2.47A.53.53,0,0,1,66.64,84.88Z"/><path class="cls-2" d="M71.14,88.18c-2.31,0-2.66-2.05-2.94-3.7,0-.25-.08-.5-.13-.74a.52.52,0,1,1,1-.21c.06.25.1.51.14.77.3,1.76.55,2.83,1.91,2.83s2-.73,2-2.52c0-.21,0-.43,0-.65s0-.44,0-.66a.52.52,0,1,1,1,0c0,.21,0,.42,0,.64s0,.45,0,.67C74.14,87,73.13,88.18,71.14,88.18Z"/><path class="cls-2" d="M72.3,117a.51.51,0,0,1-.35-.13c-1.86-1.61-3.22-2.67-4.42-3.6-.87-.68-1.62-1.27-2.38-1.92a.54.54,0,0,1-.18-.45c.09-.9.22-1.59.5-3.1.48-2.63,1.39-7.55,3.33-20.12a.53.53,0,0,1,.6-.44.52.52,0,0,1,.44.6c-2,12.59-2.86,17.51-3.34,20.15-.25,1.36-.37,2-.45,2.74.67.57,1.35,1.1,2.13,1.71,1.13.88,2.41,1.88,4.13,3.35.89-.72,1.86-1.41,2.87-2.14S77.5,112,78.67,111c-1.75-8-4-16-6.24-23.7a.53.53,0,1,1,1-.29c2.24,7.85,4.56,16,6.32,24.08a.54.54,0,0,1-.18.52c-1.27,1-2.55,2-3.79,2.86s-2.19,1.58-3.16,2.38A.5.5,0,0,1,72.3,117Z"/><path class="cls-2" d="M68.34,94.91a.56.56,0,0,1-.4-.17A.52.52,0,0,1,68,94a26.24,26.24,0,0,1,5.36-3.69.53.53,0,0,1,.7.22.52.52,0,0,1-.22.71,25.81,25.81,0,0,0-5.15,3.54A.5.5,0,0,1,68.34,94.91Z"/><path class="cls-2" d="M68.5,97a.55.55,0,0,1-.43-.22.52.52,0,0,1,.12-.73,59.84,59.84,0,0,1,5.39-3.56.51.51,0,0,1,.71.19.52.52,0,0,1-.2.72,61.3,61.3,0,0,0-5.29,3.5A.57.57,0,0,1,68.5,97Z"/><path class="cls-2" d="M67.27,103.12a.52.52,0,0,1-.27-1c2.61-1.58,5.31-3.07,8.24-4.53a.53.53,0,0,1,.71.23.52.52,0,0,1-.24.7c-2.9,1.46-5.58,2.93-8.17,4.5A.54.54,0,0,1,67.27,103.12Z"/><path class="cls-2" d="M66.53,106.16a.52.52,0,0,1-.27-1,88,88,0,0,1,9.58-5.12.52.52,0,0,1,.69.26.53.53,0,0,1-.26.7,86.87,86.87,0,0,0-9.47,5.06A.52.52,0,0,1,66.53,106.16Z"/><path class="cls-2" d="M67.19,112.65a.55.55,0,0,1-.42-.2.54.54,0,0,1,.09-.74,41.45,41.45,0,0,1,6.63-4c1.25-.65,2.55-1.32,3.77-2a.52.52,0,0,1,.54.9c-1.25.75-2.56,1.43-3.83,2.08a40.22,40.22,0,0,0-6.46,3.88A.56.56,0,0,1,67.19,112.65Z"/><path class="cls-2" d="M69.07,114.05a.53.53,0,0,1-.28-1,86.39,86.39,0,0,1,8.92-5.28.52.52,0,0,1,.7.23.52.52,0,0,1-.23.7A85.88,85.88,0,0,0,69.36,114,.52.52,0,0,1,69.07,114.05Z"/><path class="cls-2" d="M96.25,111.75a.53.53,0,0,1-.52-.45c-.44-3.13-1.1-6.25-1.74-9.28-1.7.39-3.14.69-4.5.93a.52.52,0,0,1-.53-.22.55.55,0,0,1,0-.58c1.88-2.86,3.61-5.64,5.29-8.51a.51.51,0,0,1,.75-.16,71.43,71.43,0,0,0,7.94,4.81.51.51,0,0,1,.28.47.52.52,0,0,1-.29.46c-1.1.55-2,1-2.85,1.33a25.09,25.09,0,0,0,3.9,9.38.52.52,0,0,1-.84.62A27.38,27.38,0,0,1,99,100.35a.53.53,0,0,1,.32-.6c.71-.29,1.44-.61,2.28-1a71.84,71.84,0,0,1-6.69-4.07c-1.39,2.37-2.83,4.68-4.35,7,1.14-.23,2.36-.49,3.76-.82a.51.51,0,0,1,.4.06.54.54,0,0,1,.23.34l0,.18c.67,3.15,1.36,6.41,1.83,9.69a.53.53,0,0,1-.44.59Z"/><path class="cls-2" d="M88.89,96.36a.52.52,0,0,1-.51-.4.53.53,0,0,1,.38-.64l.45-.09a2,2,0,0,0,.68-.18.53.53,0,0,1,.71.24.52.52,0,0,1-.24.7,3.36,3.36,0,0,1-1,.28l-.38.07Z"/><path class="cls-2" d="M101.72,92.94a.53.53,0,0,1-.46-.26.54.54,0,0,1,.2-.72c.67-.38,1.37-.72,2-1s1.58-.78,2.29-1.22a.52.52,0,0,1,.72.18.53.53,0,0,1-.17.72c-.76.46-1.58.87-2.38,1.26s-1.34.65-2,1A.48.48,0,0,1,101.72,92.94Z"/><path class="cls-2" d="M109.42,58.41a10.43,10.43,0,0,1-1.48-.13.52.52,0,0,1,.17-1,9.51,9.51,0,0,0,1.31.11.53.53,0,0,1,0,1Zm-4-.95a.64.64,0,0,1-.23-.05,11.55,11.55,0,0,1-1.27-.73.52.52,0,0,1,.57-.87,11,11,0,0,0,1.16.65.52.52,0,0,1,.24.7A.51.51,0,0,1,105.37,57.46ZM102,55a.56.56,0,0,1-.39-.17,12.92,12.92,0,0,1-.92-1.13.52.52,0,1,1,.85-.61,10.47,10.47,0,0,0,.84,1,.52.52,0,0,1,0,.74A.49.49,0,0,1,102,55Zm-2.27-3.5a.53.53,0,0,1-.48-.32,14.08,14.08,0,0,1-.5-1.37.53.53,0,0,1,1-.3,11.84,11.84,0,0,0,.45,1.26.51.51,0,0,1-.27.68A.54.54,0,0,1,99.77,51.46Zm-1-4.06a.52.52,0,0,1-.52-.5c0-.2,0-.39,0-.59a8.44,8.44,0,0,1,0-.87.52.52,0,0,1,1,.08c0,.26,0,.52,0,.79s0,.36,0,.54a.52.52,0,0,1-.49.55Z"/><path class="cls-2" d="M53,51.2h-.17a.53.53,0,0,1,0-1.05H53a5.29,5.29,0,0,0,.8-.06.51.51,0,0,1,.59.44.53.53,0,0,1-.43.6A7.75,7.75,0,0,1,53,51.2Zm-2.85-.68a.53.53,0,0,1-.23-.06,7.6,7.6,0,0,1-1.27-.78.51.51,0,0,1-.1-.73.52.52,0,0,1,.73-.11,6.67,6.67,0,0,0,1.1.68.53.53,0,0,1-.23,1Zm-3.06-2.78a.53.53,0,0,1-.45-.25A8,8,0,0,1,46,46.14a.51.51,0,0,1,.32-.67.52.52,0,0,1,.67.31,5.9,5.9,0,0,0,.56,1.16.52.52,0,0,1-.18.72A.53.53,0,0,1,47.09,47.74Z"/><path class="cls-2" d="M21.38,110.41a4.09,4.09,0,0,1-1.56-.3.52.52,0,1,1,.4-1,3,3,0,0,0,1.16.22.52.52,0,0,1,.52.53A.52.52,0,0,1,21.38,110.41ZM18,108.28a.53.53,0,0,1-.45-.27,7.78,7.78,0,0,1-.61-1.37.54.54,0,0,1,.34-.66.52.52,0,0,1,.66.33,5.77,5.77,0,0,0,.52,1.18.53.53,0,0,1-.19.72A.68.68,0,0,1,18,108.28Zm-.94-4h0a.54.54,0,0,1-.5-.55,2.64,2.64,0,0,1,.49-1.59.52.52,0,0,1,.73-.13.53.53,0,0,1,.12.73,1.62,1.62,0,0,0-.29,1A.52.52,0,0,1,17.07,104.25Z"/><path class="cls-2" d="M37,100.4a.52.52,0,0,1-.38-.17c-.19-.2-.38-.4-.58-.59a.53.53,0,0,1,0-.74.52.52,0,0,1,.74,0c.22.2.42.41.62.63a.53.53,0,0,1,0,.74A.54.54,0,0,1,37,100.4Zm-2.78-2.35A.45.45,0,0,1,33.9,98a9.36,9.36,0,0,0-1.17-.61.54.54,0,0,1-.27-.69.52.52,0,0,1,.69-.27,10.23,10.23,0,0,1,1.3.69.52.52,0,0,1-.28,1ZM28.85,96.9a.53.53,0,0,1-.52-.42.54.54,0,0,1,.42-.62,6.72,6.72,0,0,1,1.35-.13h.15a.53.53,0,0,1,0,1H30.1a6.31,6.31,0,0,0-1.15.11Z"/><path class="cls-2" d="M49.23,109.2a.53.53,0,0,1,0-1,8.37,8.37,0,0,0,1.31-.11.52.52,0,0,1,.6.43.52.52,0,0,1-.43.6A10.56,10.56,0,0,1,49.23,109.2Zm-2.74-.44a.47.47,0,0,1-.17,0,7.94,7.94,0,0,1-1.36-.61.54.54,0,0,1-.2-.72.53.53,0,0,1,.72-.19,7,7,0,0,0,1.18.53.53.53,0,0,1,.32.67A.51.51,0,0,1,46.49,108.76Zm6.8-.49a.52.52,0,0,1-.22-1,8.79,8.79,0,0,0,1.17-.63.53.53,0,0,1,.56.89,11.46,11.46,0,0,1-1.29.69A.44.44,0,0,1,53.29,108.27Z"/><path class="cls-2" d="M23.24,33.45a.57.57,0,0,1-.3-.1.52.52,0,0,1-.12-.73,6.69,6.69,0,0,1,1-1.13.52.52,0,1,1,.7.78,6.49,6.49,0,0,0-.85,1A.53.53,0,0,1,23.24,33.45ZM26.54,31a.52.52,0,0,1-.49-.33.53.53,0,0,1,.31-.68,9.31,9.31,0,0,1,1.42-.41.52.52,0,1,1,.21,1,9.71,9.71,0,0,0-1.26.37A.58.58,0,0,1,26.54,31Zm5.51-.39H32a11.92,11.92,0,0,0-1.32-.17.53.53,0,0,1-.49-.56.51.51,0,0,1,.56-.48,10.28,10.28,0,0,1,1.45.19.52.52,0,0,1,.41.61A.52.52,0,0,1,32.05,30.57Z"/><path class="cls-2" d="M85.19,134.65a.52.52,0,0,1-.51-.43.52.52,0,0,1,.43-.61,11.78,11.78,0,0,0,1.31-.29.52.52,0,0,1,.64.37.51.51,0,0,1-.36.64,13.29,13.29,0,0,1-1.42.32Zm4-1.34a.49.49,0,0,1-.45-.27.52.52,0,0,1,.2-.71,9.61,9.61,0,0,0,1.11-.72.53.53,0,0,1,.63.84,10.39,10.39,0,0,1-1.23.8A.58.58,0,0,1,89.14,133.31Zm3.09-2.77a.52.52,0,0,1-.43-.81,6.11,6.11,0,0,0,.38-.65.53.53,0,0,1,.71-.22.52.52,0,0,1,.22.71,8,8,0,0,1-.44.74A.53.53,0,0,1,92.23,130.54Z"/><path class="cls-2" d="M93.58,114.24a.54.54,0,0,1-.52-.45,6.92,6.92,0,0,0-.31-1.25.52.52,0,0,1,.32-.67.53.53,0,0,1,.67.32,9.19,9.19,0,0,1,.36,1.44.52.52,0,0,1-.44.6Zm-1.7-3.78a.53.53,0,0,1-.41-.19,8.13,8.13,0,0,0-.9-1,.52.52,0,1,1,.71-.77,10.22,10.22,0,0,1,1,1.07.53.53,0,0,1-.08.74A.51.51,0,0,1,91.88,110.46Zm-3.26-2.58a.46.46,0,0,1-.23-.06,9.85,9.85,0,0,0-1.22-.51.53.53,0,0,1-.33-.67.51.51,0,0,1,.66-.32,12.52,12.52,0,0,1,1.36.56.53.53,0,0,1-.24,1Zm-5.41-1a.53.53,0,0,1,0-1,10.28,10.28,0,0,1,1.47,0,.53.53,0,0,1-.06,1,8.17,8.17,0,0,0-1.31,0Z"/><path class="cls-2" d="M88.3,24.48a6.16,6.16,0,0,1-1.46-.19.53.53,0,0,1-.38-.64.52.52,0,0,1,.63-.38,4.76,4.76,0,0,0,1.22.16.52.52,0,0,1,.52.53A.53.53,0,0,1,88.3,24.48Zm2.6-.66a.54.54,0,0,1-.46-.27.52.52,0,0,1,.21-.71,5.84,5.84,0,0,0,1-.71.51.51,0,0,1,.74,0,.52.52,0,0,1,0,.74,6.4,6.4,0,0,1-1.2.86A.54.54,0,0,1,90.9,23.82Zm-6.35-.7a.54.54,0,0,1-.32-.11,7.26,7.26,0,0,1-1.06-1,.53.53,0,0,1,.07-.74.52.52,0,0,1,.74.06,6.05,6.05,0,0,0,.89.86.53.53,0,0,1,.09.74A.51.51,0,0,1,84.55,23.12Zm9-2.31a.57.57,0,0,1-.18,0A.54.54,0,0,1,93,20.1a4.85,4.85,0,0,0,.31-1.19.52.52,0,1,1,1,.14A6.4,6.4,0,0,1,94,20.48.53.53,0,0,1,93.5,20.81Zm-11.11-1a.52.52,0,0,1-.51-.42,6,6,0,0,1-.12-1.05v-.12c0-.1,0-.21,0-.31a.53.53,0,0,1,1,.06,2.09,2.09,0,0,0,0,.25v.1a4.93,4.93,0,0,0,.1.86.54.54,0,0,1-.41.62Zm11.23-3a.53.53,0,0,1-.5-.37,5.08,5.08,0,0,0-.49-1.12.52.52,0,0,1,.9-.54,6.78,6.78,0,0,1,.6,1.35.52.52,0,0,1-.35.65A.41.41,0,0,1,93.62,16.83Zm-10.57-1a.47.47,0,0,1-.25-.07.51.51,0,0,1-.2-.71,6.33,6.33,0,0,1,.86-1.19.52.52,0,1,1,.77.7,6.33,6.33,0,0,0-.72,1A.53.53,0,0,1,83.05,15.86Zm8.17-2.2a.52.52,0,0,1-.29-.09,4.89,4.89,0,0,0-1.1-.54.54.54,0,0,1-.32-.67.53.53,0,0,1,.67-.32,5.79,5.79,0,0,1,1.32.65.52.52,0,0,1,.16.73A.54.54,0,0,1,91.22,13.66ZM86,13.2a.51.51,0,0,1-.48-.32.52.52,0,0,1,.27-.69,7.12,7.12,0,0,1,1.41-.42l.11.52.08.51a6,6,0,0,0-1.19.35A.46.46,0,0,1,86,13.2Z"/><path class="cls-2" d="M64.27,14.89c-2.74,0-5.69-1.84-5.87-4.92a.53.53,0,1,1,1.05-.07c.14,2.47,2.56,3.95,4.82,3.95a5,5,0,0,0,1.29-.17.52.52,0,1,1,.27,1A5.81,5.81,0,0,1,64.27,14.89Z"/><path class="cls-2" d="M68.82,15.06a.77.77,0,0,1-.69-.84v-.16a.52.52,0,0,1,.08-.63.53.53,0,0,1,.74,0,.75.75,0,0,1,.18.28.51.51,0,0,1,.32.48,1.29,1.29,0,0,1-.07.47A.63.63,0,0,1,68.82,15.06Zm-.6-.89Z"/><path class="cls-2" d="M88,61.91a.52.52,0,0,1-.52-.45,33.33,33.33,0,0,1-.41-4.6,11.66,11.66,0,0,1,.85-4.63.53.53,0,0,1,.69-.28.52.52,0,0,1,.27.69,10.7,10.7,0,0,0-.77,4.22,35,35,0,0,0,.4,4.46.53.53,0,0,1-.44.59Z"/><path class="cls-2" d="M88.44,65.77a.73.73,0,0,1-.59-.25,1,1,0,0,1-.17-.86.76.76,0,0,0,0-.15.52.52,0,0,1,.53-.52.5.5,0,0,1,.48.33.72.72,0,0,1,.46.65A.79.79,0,0,1,88.44,65.77Zm.26-.8h0Z"/><path class="cls-2" d="M60.54,78.68a10.74,10.74,0,0,1-4.26-1.21.53.53,0,0,1-.26-.7.53.53,0,0,1,.7-.25,9.8,9.8,0,0,0,3.82,1.11c.82,0,2.2-.32,2.2-1.55a.53.53,0,0,1,1,0C63.79,77.87,62.1,78.68,60.54,78.68Z"/><path class="cls-2" d="M61.42,74.68a.75.75,0,0,1-.65-.26.58.58,0,0,1-.09-.44.77.77,0,0,1,0-.15.62.62,0,0,1,.65-.61.54.54,0,0,1,.46.25l.14,0a.53.53,0,0,1,.23.71A.78.78,0,0,1,61.42,74.68Z"/></g></g></svg>