<svg xmlns="http://www.w3.org/2000/svg" viewBox="0 0 141.73 129.73"><defs><style>.cls-1{fill:#ffcc80;}.cls-2{fill:#525d7d;}</style></defs><title>008_c</title><g id="Layer_2" data-name="Layer 2"><g id="Layer_1-2" data-name="Layer 1"><path class="cls-1" d="M98,70.68A9.48,9.48,0,0,0,99.18,68c.32-1.54-1-3.08-2.18-4.37-.21-.55-.43-1.09-.68-1.62a.88.88,0,0,0-1.15-.44,1.07,1.07,0,0,0-1.53-1.14l-3.86,2.14A8,8,0,0,0,87.27,64a.83.83,0,0,0-.29.93l-.33.26a1.93,1.93,0,0,0-.21.17.87.87,0,0,0-.17,1.18l-.32.3A.92.92,0,0,0,85.78,68c-.27.32-.55.63-.81,1a1.08,1.08,0,0,0-1.09-.32,1,1,0,0,0-1.42,0,24,24,0,0,0-1.74,2v0a.9.9,0,0,0-.46-.54l.84-.56c.87-.57.34-2.18-.74-1.78a40.6,40.6,0,0,0-3.83,1.66,1,1,0,0,0-.35,1.35l.08.13A1,1,0,0,0,76.93,72q2.34,3.72,4.69,7.44c.16.48.31,1,.47,1.44a1,1,0,0,0,.82.68l-.63.54c-.93.82.26,2,1.24,1.6l.64-.3a1,1,0,0,0,1.21.15c1.61-1.11,3.26-2.14,5-3.11,1.85-.92,3.7-1.87,5.53-2.85a1,1,0,0,0-.07-1.73,35.08,35.08,0,0,0,3.37-3.52A1,1,0,0,0,98,70.68Zm-1.2-2.44a4.63,4.63,0,0,1-.19.56h-.13c0-.25,0-.49,0-.74A.86.86,0,0,0,96.76,68.24Zm-14.32,6c0,.4-.07.81-.09,1.21L81.52,73a2.5,2.5,0,0,1,.37-.36v.73A.92.92,0,0,0,82.44,74.27Zm4.31-1c0,1-.11,2.07-.21,3.11l-.64.41C86.13,75.65,86.41,74.48,86.75,73.32Zm2.75-.79c-.13,1.22-.27,2.44-.42,3.65a.62.62,0,0,0,0,.13l-.45.18C88.93,75.21,89.2,73.87,89.5,72.53Zm4.65-5.74a1.14,1.14,0,0,0,0-1,1.06,1.06,0,0,0-1-.68,2.88,2.88,0,0,0-.58,0,3.08,3.08,0,0,1,2-.44,16.61,16.61,0,0,0,1.24,2.41,1.1,1.1,0,0,0-1.3.68L94,69C94.06,68.23,94.11,67.51,94.15,66.79ZM78.72,71.08,78.9,71a.31.31,0,0,0,0,.13c.06.2.13.4.19.6Zm5.42,7.1,0-.62a1.25,1.25,0,0,0,.4.26Zm6.17-.1.24-.18A1.19,1.19,0,0,0,91,76.74a1.26,1.26,0,0,0,.12-.29c.19-.92.38-1.84.59-2.76l-.15,2.38a.86.86,0,0,0,.78,1C91.63,77.37,91,77.72,90.31,78.08Z"/><path class="cls-1" d="M54.52,28.38a.93.93,0,1,0,1.32-1.32l-.33-.34a1,1,0,0,0-1.33,0,1,1,0,0,0-.25.55.88.88,0,0,0-.22-.1,5.66,5.66,0,0,0-6.82,2.74c-.53,1.05,1,2,1.59.93l0,0a1,1,0,0,0,.61.22c1.86-.06,3.72-.11,5.57-.24,1.27-.08,1.29-2,0-2l-.6,0a.94.94,0,0,0,.3-.58Z"/><path class="cls-1" d="M72,110.07l-.9.8a.92.92,0,0,0-1,.69l-1.13.5c-.9-.36-1.46.77-1.13,1.47a1.46,1.46,0,0,0,1.64,1c-.2.41-.4.82-.59,1.24-2-2.51-4.95-6.32-3-8.58.76-.87-.45-2.11-1.28-1.28-3.77,3.77,1.49,9.2,3.65,12.31A1,1,0,0,0,70,118a44.81,44.81,0,0,1,3.53-6.72A1,1,0,0,0,72,110.07Z"/><path class="cls-1" d="M72.09,107.4a4.5,4.5,0,0,0-4.48-2.9c-1.17.08-1.19,1.91,0,1.84a2.59,2.59,0,0,1,2.61,1.58,1,1,0,0,0,1.19.67A1,1,0,0,0,72.09,107.4Z"/><path class="cls-1" d="M131.5,34a4.41,4.41,0,0,1-2-2.38c-.13-.66.49-1.88,1.3-1.42a1,1,0,0,0,1-1.69,2.73,2.73,0,0,0-3.58.82c-.41-.9-1.91-.39-1.7.69a18.07,18.07,0,0,1,.28,4.87,1,1,0,0,0,1,1l3.22,0A1,1,0,0,0,131.5,34Z"/><path class="cls-1" d="M20.72,51.23v-.09c0-.84-1.27-1.38-1.74-.61a1,1,0,0,0-1.74-.2,3,3,0,0,0-.43,1.17.92.92,0,0,0-1.7.49c.05,1.28.09,2.55.15,3.82A1,1,0,0,0,17,56.3a14.5,14.5,0,0,0,1-1.9l.05,0a1,1,0,0,0,1.15-.12,1,1,0,0,0,1.55-.78c0-.62,0-1.23,0-1.84A1,1,0,0,0,20.72,51.23Z"/><path class="cls-2" d="M20.08,121.51a.58.58,0,0,1-.58-.57l0-1.8c0-1.93-.08-3.92-.08-5.87a61,61,0,0,1,1.06-12.94A22.46,22.46,0,0,0,21,95.65C21,93,20.78,91,20.6,89c-.16-1.68-.31-3.27-.31-5.06,0-12.41.43-12.89,6.08-15.42a58.4,58.4,0,0,0,6.73-3.41.58.58,0,1,1,.59,1,62.63,62.63,0,0,1-6.85,3.48C21.75,71.89,21.44,72,21.44,84c0,1.73.15,3.3.31,5,.18,2,.37,4,.37,6.71a23.62,23.62,0,0,1-.55,4.89,60.09,60.09,0,0,0-1,12.73c0,1.94,0,3.93.08,5.85l0,1.8A.57.57,0,0,1,20.08,121.51Z"/><path class="cls-2" d="M31.84,88.87l-.19,0a.58.58,0,0,1-.36-.73c.44-1.3,2.5-2.86,5.11-4.82,3.5-2.63,7.86-5.91,7.86-8.66,0-.86-.61-1.87-1.4-1.87-4.25,0-12.29,6.34-12.37,6.4a.59.59,0,0,1-.36.13A1.2,1.2,0,0,1,28.9,78c0-1.45,1.94-3.33,2.75-3.45a.57.57,0,0,1,.29-.08.56.56,0,0,1,.57.56.65.65,0,0,1-.71.72h-.08c-.47.31-1.67,1.47-1.67,2.26,1.52-1.15,8.59-6.42,12.81-6.42,1.5,0,2.55,1.6,2.55,3,0,3.33-4.42,6.65-8.32,9.58-2.15,1.62-4.38,3.3-4.71,4.27A.57.57,0,0,1,31.84,88.87Z"/><path class="cls-2" d="M27.37,105.59a.58.58,0,0,1-.11-1.14c6.73-1.3,10-6.85,10-17,0-1.36-.06-2.79-.18-4.36a.59.59,0,0,1,.53-.62.58.58,0,0,1,.62.53c.12,1.6.18,3.06.18,4.45,0,10.62-3.68,16.71-10.93,18.11Z"/><path class="cls-2" d="M31.22,110.93a.57.57,0,0,1-.57-.57v-6.74a.58.58,0,1,1,1.15,0v6.74A.57.57,0,0,1,31.22,110.93Z"/><path class="cls-2" d="M35.79,129.73a.58.58,0,0,1-.58-.55c-.19-4.89-.25-9.76-.31-14.46l-.06-3.78h-2c-1.65,0-3.32,0-4.94,0s-3.3,0-5,0c-1.09,0-2.08,0-3,0a.58.58,0,0,1-.56-.59.56.56,0,0,1,.59-.56c.93,0,1.91,0,3,0,1.65,0,3.32,0,4.94,0s3.3,0,5,0c.91,0,1.74,0,2.53,0a.59.59,0,0,1,.57.57l.06,4.33c.06,4.7.12,9.56.32,14.43a.58.58,0,0,1-.56.6Z"/><path class="cls-2" d="M31.91,117.88a4.5,4.5,0,0,1-1.84-.26.58.58,0,0,1,.45-1.06,3.75,3.75,0,0,0,1.39.16.58.58,0,0,1,0,1.16Z"/><path class="cls-2" d="M30.77,120.83H30a.58.58,0,0,1,0-1.16h.76a2.94,2.94,0,0,0,.95-.13.58.58,0,0,1,.37,1.1A4.09,4.09,0,0,1,30.77,120.83Z"/><path class="cls-2" d="M33.64,74.18a.57.57,0,0,1-.57-.55c-.27-6.92-.4-13.85-.4-21.2,0-3.19,0-6.48.07-9.78a4.12,4.12,0,0,1,4-4c4.4-.16,7.67-.34,10.55-.5,4.86-.28,8.7-.49,15.43-.49h3.21a.58.58,0,0,1,.57.59.59.59,0,0,1-.58.57l-3.2,0c-6.7,0-10.52.21-15.36.49-2.89.16-6.17.34-10.58.51a2.94,2.94,0,0,0-2.84,2.9c0,3.29-.08,6.57-.08,9.76,0,7.33.13,14.25.4,21.16a.58.58,0,0,1-.55.59Z"/><path class="cls-2" d="M90.54,39.24c-2.63,0-5.46-.06-9.17-.14a.58.58,0,0,1,0-1.15c3.71.08,6.53.12,9.16.14a.58.58,0,0,1,0,1.15Z"/><path class="cls-2" d="M109,74.37a.58.58,0,0,1-.58-.54c-.68-11.21-1.07-21.25-1.17-30.7a4.15,4.15,0,0,0-4.34-4.1c-1.56.07-3.22.12-4.93.16a.59.59,0,0,1-.59-.57A.57.57,0,0,1,98,38c1.71,0,3.36-.09,4.91-.16a5.3,5.3,0,0,1,5.54,5.23c.11,9.43.49,19.46,1.17,30.65a.58.58,0,0,1-.54.61Z"/><path class="cls-2" d="M38.18,70.74h0a.59.59,0,0,1-.55-.61c.13-2.3.18-4.69.18-7.32,0-4.94-.21-10-.42-14.84l-.18-4.27a.54.54,0,0,1,.16-.42.56.56,0,0,1,.42-.18h1l.3,0a168.89,168.89,0,0,1,21.73-1.64c1.05,0,2.14,0,3.21,0a.58.58,0,1,1,0,1.15l-3.19,0a167.94,167.94,0,0,0-21.57,1.62l-.43.05h-.47c0,1.22.1,2.44.15,3.66.21,4.88.43,9.92.43,14.89,0,2.65-.06,5.06-.19,7.38A.57.57,0,0,1,38.18,70.74Z"/><path class="cls-2" d="M91,98.93h0c-4.14-.14-8.35-.24-12.42-.33-5.68-.14-11.55-.28-17.32-.53-1,0-2.06-.06-3.19-.06-2.08,0-7,.2-14.74.59l-.8,0c-1.49,0-3.56-.25-4.16-2.37A.57.57,0,1,1,39.4,96c.31,1.08,1.23,1.53,3.06,1.53l.75,0c7.72-.4,12.69-.59,14.79-.59,1.15,0,2.21,0,3.24.06,5.76.25,11.62.39,17.3.53,4.07.09,8.28.19,12.43.33a.58.58,0,0,1,.55.6A.57.57,0,0,1,91,98.93Z"/><path class="cls-2" d="M98.37,98.94a6.21,6.21,0,0,1-1.77-.26.58.58,0,0,1-.38-.72.56.56,0,0,1,.72-.38,4.85,4.85,0,0,0,1.43.21,10.42,10.42,0,0,0,4.46-1.37.58.58,0,0,1,.52,1A11.52,11.52,0,0,1,98.37,98.94Z"/><path class="cls-2" d="M121.36,123.67a.58.58,0,0,1-.57-.52c-1.27-13.06-1.27-14.67-1.27-16.69v-.18c0-3.65.28-7.32.54-10.88s.55-7.18.55-10.79v-.25c0-5.11,0-8.49-1.78-11.37l-8.39-7.39c-.77-.61-1.54-1.2-2.34-1.79a.58.58,0,0,1,.7-.92c.8.6,1.58,1.19,2.38,1.83l4.25,3.74,2.9,2.56a16.66,16.66,0,0,1,1.42,1.3c2,3.16,2,6.69,2,12v.25c0,3.66-.28,7.33-.55,10.88s-.54,7.18-.54,10.79v.18c0,2,0,3.57,1.27,16.57a.57.57,0,0,1-.52.63Z"/><path class="cls-2" d="M108.35,87.05A.55.55,0,0,1,108,87a38.61,38.61,0,0,1-4.31-3.58c-.83-.77-1.7-1.56-2.61-2.31-1.31-1.08-3.5-2.88-3.5-5.13A4.14,4.14,0,0,1,101.54,72c1.87,0,3.87,2.08,5.82,4.09,1.52,1.57,3.25,3.36,4.33,3.36.24,0,.27-.54.27-.55,0-.75-.87-1.61-1.5-2.24l-.15-.15a.56.56,0,0,1,0-.81.58.58,0,0,1,.81,0l.15.14c.77.78,1.84,1.83,1.84,3.06a1.54,1.54,0,0,1-1.42,1.7c-1.57,0-3.31-1.8-5.16-3.71-1.69-1.75-3.61-3.74-5-3.74a3,3,0,0,0-2.77,2.78c0,1.57,1.58,3,3.07,4.24.94.77,1.81,1.57,2.66,2.35A38.64,38.64,0,0,0,108.67,86a.57.57,0,0,1,.16.8A.61.61,0,0,1,108.35,87.05Z"/><path class="cls-2" d="M112.05,103.66c-6.8,0-7.67-5-7.67-9.27,0-1.77,0-3.57.07-5.31s.08-3.49.08-5.23a.57.57,0,0,1,.58-.57.56.56,0,0,1,.57.57c0,1.75,0,3.53-.07,5.25s-.08,3.53-.08,5.29c0,5.77,1.89,8.12,6.52,8.12.8,0,1.61-.08,2.44-.16a.57.57,0,1,1,.11,1.14A24.44,24.44,0,0,1,112.05,103.66Z"/><path class="cls-2" d="M111.18,108.55a.57.57,0,0,1-.57-.56l-.16-4.93a.58.58,0,1,1,1.15,0l.16,4.93A.58.58,0,0,1,111.18,108.55Z"/><path class="cls-2" d="M105.3,129.7a.57.57,0,0,1-.57-.56c-.12-3.95-.2-7.95-.28-11.82-.07-3-.13-6.1-.21-9.15a.57.57,0,0,1,.56-.59l4.68-.14c3.47-.09,7-.19,10.6-.34a.56.56,0,0,1,.6.55.57.57,0,0,1-.55.6c-3.56.15-7.15.25-10.62.34l-4.1.12q.11,4.31.19,8.59c.08,3.86.17,7.86.28,11.81A.58.58,0,0,1,105.3,129.7Z"/><path class="cls-2" d="M108.24,115.55a.57.57,0,0,1-.54-.36.59.59,0,0,1,.32-.75,3.12,3.12,0,0,1,1.12-.18l.5,0h.4a.58.58,0,1,1,0,1.15h-.46l-.44,0a1.83,1.83,0,0,0-.69.1A.52.52,0,0,1,108.24,115.55Z"/><path class="cls-2" d="M108.59,119.53a3.31,3.31,0,0,1-.55,0,.58.58,0,0,1,.17-1.14,4.77,4.77,0,0,0,1.18,0,7.49,7.49,0,0,1,1-.08.57.57,0,0,1,.57.58.56.56,0,0,1-.57.57,8.12,8.12,0,0,0-.85.07A7,7,0,0,1,108.59,119.53Z"/><path class="cls-2" d="M82.5,68.76a.57.57,0,0,1-.45-.23c-7.79-10-16.88-24.39-16.88-32.11,0-9.18,10.21-15.58,19.37-15.58,4.95,0,8.7,1.93,11.14,5.75A21.43,21.43,0,0,1,98.57,38c0,11.23-8.36,22.23-15.64,30.56A.57.57,0,0,1,82.5,68.76Zm2-46.77c-10.74,0-18.22,7.6-18.22,14.43,0,7.76,10,22.77,16.21,30.85,7-8.11,14.89-18.66,14.89-29.27C97.42,34.24,96.49,22,84.54,22Z"/><path class="cls-2" d="M82.48,46.89a8.65,8.65,0,0,1-8.4-8.66,8.86,8.86,0,0,1,5.57-7.88,8,8,0,0,1,3.17-.66,8.79,8.79,0,0,1,5.51,2.06A7.9,7.9,0,0,1,91.15,38,8.82,8.82,0,0,1,82.48,46.89ZM80.1,31.4a7.74,7.74,0,0,0-4.87,6.83,7.48,7.48,0,0,0,7.25,7.51A7.65,7.65,0,0,0,90,38a7.1,7.1,0,0,0-7.17-7.14A7,7,0,0,0,80.1,31.4Z"/><path class="cls-2" d="M104.56,71.14a.59.59,0,0,1-.58-.54c-.38-4.89-.46-9.9-.53-14.74-.06-3.83-.12-7.79-.34-11.66l-2.25,0c-1.18,0-2.36,0-3.53,0a.56.56,0,0,1-.58-.56.57.57,0,0,1,.56-.59c1.18,0,2.37,0,3.56,0l2.25,0h.53a.57.57,0,0,1,.58.55c.24,4.07.31,8.23.37,12.25.07,4.83.15,9.82.53,14.67a.57.57,0,0,1-.53.62Z"/><path class="cls-2" d="M96.7,94.63c-1.26,0-4-.14-7.54-.33-6.48-.35-15.36-.82-22.69-.82-2.57,0-4.7,0-7,.12-2.43.06-5,.13-8.2.13-4.32,0-6.28-.13-8.76-.29L41,93.34a.59.59,0,0,1-.54-.52l-.07-.71a35.57,35.57,0,0,1-.27-3.77q0-.53,0-1a.58.58,0,0,1,1.15.07c0,.32,0,.65,0,1A35,35,0,0,0,41.48,92l0,.23,1.1.07c2.46.16,4.41.29,8.69.29,3.23,0,5.74-.07,8.17-.13,2.27-.07,4.42-.13,7-.13,7.36,0,16.26.48,22.75.83,3.49.18,6.26.33,7.48.33,1.44,0,2.83-.12,4.29-.26l.62,0c0-.5,0-1,0-1.6,0-1,0-2.11.07-3.13s.07-2.08.07-3.12q0-.78,0-1.47a.58.58,0,0,1,.56-.6.56.56,0,0,1,.59.55c0,.48,0,1,0,1.52,0,1.06,0,2.13-.07,3.16s-.07,2.06-.07,3.09c0,.76,0,1.44.06,2.09a.58.58,0,0,1-.53.61l-1.16.1C99.67,94.5,98.19,94.63,96.7,94.63Z"/><path class="cls-2" d="M68.83,121h0a.58.58,0,0,1-.42-.22c-2-2.52-6-8.85-6-12.36,0-2.73,2.78-4.79,6.47-4.79,3.23,0,5.66,3.48,5.66,6.59,0,3.69-2.63,8-5.23,10.61A.55.55,0,0,1,68.83,121Zm0-16.22c-3,0-5.32,1.56-5.32,3.64,0,2.62,3,7.93,5.39,11.12,2.67-2.88,4.43-6.56,4.43-9.32C73.31,107.65,71.34,104.73,68.81,104.73Z"/><path class="cls-2" d="M68.23,112.79a2.88,2.88,0,0,1-2.61-3.05,3,3,0,0,1,2.73-3,2.56,2.56,0,0,1,.39,0,4.43,4.43,0,0,1,1,.28,2.84,2.84,0,0,1,1.74,2.59,3.65,3.65,0,0,1-3.11,3.15Zm.12-4.9a1.83,1.83,0,0,0-1.58,1.85,1.77,1.77,0,0,0,1.46,1.9,2.52,2.52,0,0,0,2.07-2,1.68,1.68,0,0,0-1-1.52,3.06,3.06,0,0,0-.74-.21A.68.68,0,0,0,68.35,107.89Z"/><path class="cls-2" d="M94.48,123.08a.57.57,0,0,1-.28-.08,33.08,33.08,0,0,1-9-7,.58.58,0,0,1,0-.75,112.24,112.24,0,0,1,8.55-8.63.59.59,0,0,1,.63-.11.56.56,0,0,1,.34.53v.08c0,.73,0,1.47,0,2.2,0,1,0,1.88.07,2.68,1,0,2.22,0,3.34,0s2.34.05,3.32,0a.58.58,0,0,1,.6.55.57.57,0,0,1-.55.6c-1,0-2.25,0-3.4,0l-2,0c-.65,0-1.23,0-1.76,0a.58.58,0,0,1-.62-.53c-.07-1-.1-2-.1-3.33v-.94c-2.5,2.35-4.92,4.7-7.15,7.25a31.75,31.75,0,0,0,7.51,5.91c0-.64,0-1.28.06-1.9s0-1.09.07-1.63a.57.57,0,0,1,.54-.56l1.58-.09c1.91-.1,3.88-.22,5.79-.22a.58.58,0,0,1,.57.58.57.57,0,0,1-.57.57c-1.88,0-3.83.12-5.73.22l-1,.06c0,.38,0,.75-.05,1.12,0,.93-.07,1.89-.08,2.83a.58.58,0,0,1-.28.5A.6.6,0,0,1,94.48,123.08Z"/><path class="cls-2" d="M80.23,126.58a3.15,3.15,0,0,1-3.08-3.32,3.26,3.26,0,0,1,2.18-3.2,1.53,1.53,0,0,1,.49-.07c2.22,0,3.84,1.41,3.84,3.36A3.29,3.29,0,0,1,80.23,126.58Zm-.41-5.44h-.13a2.16,2.16,0,0,0-1.39,2.11,2,2,0,0,0,1.93,2.17,2.16,2.16,0,0,0,2.28-2.08C82.51,121.83,81.11,121.14,79.82,121.14Z"/><path class="cls-2" d="M68.2,127.25c-5.29,0-10.55-3.61-13.1-9a.58.58,0,0,1,.27-.76.57.57,0,0,1,.77.27c2.36,5,7.21,8.33,12.06,8.33a20.57,20.57,0,0,0,9-2.17.58.58,0,0,1,.78.24.59.59,0,0,1-.25.78A21.75,21.75,0,0,1,68.2,127.25Z"/><path class="cls-2" d="M53.53,121.55a.5.5,0,0,1-.23,0,.57.57,0,0,1-.29-.76,17.54,17.54,0,0,0,1-2.86c.43-1.69.89-1.66,2.75-1.25.66.15,1.56.35,2.82.56a.58.58,0,0,1,.47.66.57.57,0,0,1-.66.47c-1.29-.21-2.21-.41-2.88-.56a6.94,6.94,0,0,0-1.2-.22,5.37,5.37,0,0,0-.18.63,19.39,19.39,0,0,1-1,3A.58.58,0,0,1,53.53,121.55Z"/><path class="cls-2" d="M47.44,129.37a.59.59,0,0,1-.4-.16c-.69-.68-1.37-1.4-2-2.09l-.15-.17a.57.57,0,0,1,0-.8c.74-.73,1.58-1.47,2.55-2.28a.57.57,0,0,1,.8.07c.79.9,1.4,1.58,2,2.19a.62.62,0,0,1,.16.43.57.57,0,0,1-.2.4c-.94.83-1.68,1.53-2.33,2.23A.56.56,0,0,1,47.44,129.37Zm-1.34-2.79c.44.47.88.94,1.33,1.39.46-.47,1-1,1.56-1.48-.39-.4-.79-.85-1.25-1.37C47.14,125.63,46.6,126.11,46.1,126.58Z"/><path class="cls-2" d="M45.12,115.69h-.55a2.6,2.6,0,0,1-2.33-2.57A2.35,2.35,0,0,1,43.41,111a3.51,3.51,0,0,1,1.76-.51,2.39,2.39,0,0,1,2.45,2.31A2.77,2.77,0,0,1,45.12,115.69ZM44,112a1.19,1.19,0,0,0-.59,1.07,1.48,1.48,0,0,0,1.17,1.42h.55a1.65,1.65,0,0,0,1.35-1.71,1.22,1.22,0,0,0-1.3-1.16A2.36,2.36,0,0,0,44,112Z"/><path class="cls-2" d="M129.49,95.71a3.14,3.14,0,0,1-2.85-2.94,3,3,0,0,1,2.84-3.22,3.33,3.33,0,0,1,1.9.62,3,3,0,0,1-1.89,5.54Zm0-5a1.88,1.88,0,0,0-1.69,2.07,1.89,1.89,0,0,0,3.77-.13,2,2,0,0,0-.85-1.52A2,2,0,0,0,129.48,90.7Z"/><path class="cls-2" d="M130.19,102.93a.56.56,0,0,1-.55-.42.58.58,0,0,1,.39-.71c5.93-1.69,8-8,8-12.93a11.06,11.06,0,0,0-.59-3.31.58.58,0,0,1,.38-.72.56.56,0,0,1,.72.38,12.26,12.26,0,0,1,.64,3.65,16.46,16.46,0,0,1-2.72,9.54,11.46,11.46,0,0,1-6.14,4.5Z"/><path class="cls-2" d="M135.41,88.92a.55.55,0,0,1-.32-.1.58.58,0,0,1-.16-.79c.49-.73.86-1.31,1.15-1.76.84-1.31,1-1.62,1.54-1.63s.62.31.81.58a4.46,4.46,0,0,0,2.88,1.87.57.57,0,0,1,.4.71.57.57,0,0,1-.71.4,5.68,5.68,0,0,1-3.4-2.15c-.15.21-.34.52-.55.85s-.67,1-1.16,1.76A.56.56,0,0,1,135.41,88.92Z"/><path class="cls-2" d="M133.74,76.54a.57.57,0,0,1-.57-.58c0-3,0-6.5-.21-10a.58.58,0,0,1,.54-.61.57.57,0,0,1,.61.54c.18,3.5.21,7,.21,10A.58.58,0,0,1,133.74,76.54Z"/><path class="cls-2" d="M128,72.11a.58.58,0,0,1,0-1.15c.86-.07,1.81-.11,3-.11l1.81,0,1.79,0c1.14,0,2.06,0,2.89-.1a.57.57,0,1,1,.1,1.14c-.87.08-1.82.11-3,.11l-1.81,0h-1.79c-1.14,0-2.07,0-2.9.1Z"/><path class="cls-2" d="M131.45,69.67a.62.62,0,0,1-.32-.09,14.74,14.74,0,0,1-2.27-1.9.58.58,0,0,1,.82-.82,13,13,0,0,0,2.09,1.76.59.59,0,0,1,.16.8A.61.61,0,0,1,131.45,69.67Z"/><path class="cls-2" d="M135.8,69.24a.55.55,0,0,1-.32-.1.57.57,0,0,1-.16-.8,5.34,5.34,0,0,1,1.46-1.46.58.58,0,0,1,.64,1A4.12,4.12,0,0,0,136.28,69,.58.58,0,0,1,135.8,69.24Z"/><path class="cls-2" d="M129.1,76.81a.59.59,0,0,1-.38-.14.57.57,0,0,1-.06-.81,9.93,9.93,0,0,1,1.84-1.66.58.58,0,0,1,.81.13.59.59,0,0,1-.14.81,9.06,9.06,0,0,0-1.64,1.47A.57.57,0,0,1,129.1,76.81Z"/><path class="cls-2" d="M137.62,76.11a.54.54,0,0,1-.37-.14,16.18,16.18,0,0,1-1.72-1.8.58.58,0,0,1,.07-.81.57.57,0,0,1,.81.06A14.89,14.89,0,0,0,138,75.1a.57.57,0,0,1-.38,1Z"/><path class="cls-2" d="M135.67,59.63a.59.59,0,0,1-.39-.16,35.49,35.49,0,0,1-2.74-2.87.58.58,0,0,1,0-.76c.65-.71,1.32-1.41,2-2.09l1.07-1.12a.55.55,0,0,1,.44-.18.54.54,0,0,1,.42.21c.82,1,1.7,2,2.61,2.88a.57.57,0,0,1,0,.82l0,0c-1,1-2,2-2.92,3a.57.57,0,0,1-.4.2Zm-1.92-3.39q.84,1,1.89,2c.72-.78,1.46-1.54,2.2-2.27-.65-.67-1.27-1.36-1.87-2.06l-.62.66C134.82,55.1,134.28,55.67,133.75,56.24Z"/><path class="cls-2" d="M126.87,46.51a2.78,2.78,0,0,1-2.78-2.78c0-1.41.88-2.87,2.39-2.77h.44a3.62,3.62,0,0,1,1.3.2,2.8,2.8,0,0,1,1.55,2.46A2.87,2.87,0,0,1,126.87,46.51Zm-.53-4.4c-.75,0-1.09,1-1.09,1.62a1.65,1.65,0,0,0,1.62,1.63,1.73,1.73,0,0,0,1.75-1.73,1.7,1.7,0,0,0-.82-1.39,2.32,2.32,0,0,0-.9-.11l-.49,0Z"/><path class="cls-2" d="M126.55,42a.58.58,0,0,1-.58-.54c-.24-4-.42-7.86-.62-12.49a.58.58,0,0,1,.56-.6.56.56,0,0,1,.59.55c.2,4.63.38,8.52.62,12.47a.57.57,0,0,1-.54.61Z"/><path class="cls-2" d="M126.63,37.23a.57.57,0,0,1-.58-.57.58.58,0,0,1,.58-.58c1.88,0,4.28,0,6.73-.18a30.34,30.34,0,0,1-2-2.4l-.62-.78a.59.59,0,0,1,0-.67c.73-1.15,1.42-2.21,2.14-3.23-.85,0-1.7.09-2.53.14-1.39.09-2.83.18-4.27.18A.58.58,0,1,1,126,28c1.4,0,2.82-.09,4.2-.18,1.22-.08,2.48-.16,3.74-.18a.58.58,0,0,1,.52.32.57.57,0,0,1,0,.6c-.89,1.2-1.69,2.43-2.56,3.78.12.15.24.31.37.46a20.52,20.52,0,0,0,2.84,3.15.57.57,0,0,1,.18.61.58.58,0,0,1-.5.4C131.83,37.2,128.87,37.23,126.63,37.23Z"/><path class="cls-2" d="M115.06,38.6a.68.68,0,0,1-.31-.08c-1-.65-1.93-1.25-2.74-1.84a.57.57,0,0,1-.16-.75,40.46,40.46,0,0,1,2.36-3.73.53.53,0,0,1,.38-.23.56.56,0,0,1,.43.11l.81.62c.67.52,1.37,1,2.07,1.53a.56.56,0,0,1,.24.39.57.57,0,0,1-.12.44c-.94,1.2-1.76,2.28-2.5,3.3A.55.55,0,0,1,115.06,38.6Zm-2-2.55c.55.39,1.14.79,1.8,1.2.56-.77,1.16-1.57,1.83-2.42-.55-.4-1.09-.81-1.61-1.22l-.34-.25C114.18,34.24,113.63,35.16,113.11,36.05Z"/><path class="cls-2" d="M117.05,20.7a5,5,0,0,1-5.16-4.61,4.94,4.94,0,0,1,4.89-4.9,5.32,5.32,0,0,1,4.76,2.86,4.74,4.74,0,0,1,.45,2C122,19.53,118.6,20.7,117.05,20.7Zm-.42-8.36A3.82,3.82,0,0,0,113,16.09a3.8,3.8,0,0,0,4,3.46c1,0,3.79-.83,3.79-3.51a3.57,3.57,0,0,0-.34-1.5,4.22,4.22,0,0,0-3.76-2.2Z"/><path class="cls-2" d="M116.15,14.69a.57.57,0,0,1-.57-.52c-.12-1.12-.16-2.25-.2-3.35,0-.55,0-1.09-.06-1.64a.58.58,0,0,1,1.15-.06c0,.55,0,1.11.06,1.66,0,1.08.08,2.19.2,3.27a.57.57,0,0,1-.52.63Z"/><path class="cls-2" d="M110.24,17.3a.58.58,0,0,1-.58-.58.57.57,0,0,1,.58-.57c1.43,0,2.94-.09,4.49-.18a.56.56,0,0,1,.6.54.57.57,0,0,1-.54.61C113.23,17.21,111.7,17.3,110.24,17.3Z"/><path class="cls-2" d="M119.37,16.86a.58.58,0,0,1,0-1.15c.62,0,1.25,0,1.86-.06,1,0,2-.07,2.87,0a.59.59,0,0,1,.55.61.57.57,0,0,1-.61.54c-.82,0-1.83,0-2.76,0C120.65,16.83,120,16.86,119.37,16.86Z"/><path class="cls-2" d="M116.94,25a.57.57,0,0,1-.58-.55c0-.28,0-.57,0-.86,0-.68,0-1.36.06-2s.06-1.31.06-2c0-.27,0-.54,0-.81a.57.57,0,0,1,.55-.6.58.58,0,0,1,.6.55c0,.28,0,.57,0,.86,0,.68,0,1.36-.07,2s-.06,1.31-.06,2c0,.27,0,.54,0,.81a.57.57,0,0,1-.55.6Z"/><path class="cls-2" d="M66.65,23.22a.56.56,0,0,1-.35-.11,35.75,35.75,0,0,1-2.85-2.41.58.58,0,0,1,0-.8c.91-1,1.89-1.94,2.91-2.9a.58.58,0,0,1,.8,0,30.14,30.14,0,0,0,2.37,2.18.56.56,0,0,1,.21.39.56.56,0,0,1-.13.43l-1.64,2-.85,1A.59.59,0,0,1,66.65,23.22Zm-2-3c.58.53,1.2,1.05,1.9,1.6l.5-.6,1.27-1.53c-.54-.46-1-.95-1.61-1.5C66,18.9,65.31,19.57,64.66,20.25Z"/><path class="cls-2" d="M78.91,14.61c-5,0-5.41-2.68-5.41-3.5a4.13,4.13,0,0,1,4.36-3.95,3.31,3.31,0,0,1,.55,0c0-.1-.06-.19-.08-.28s-.22-1.27-.22-1.44A5.84,5.84,0,0,1,84.26,0a5.22,5.22,0,0,1,5.21,4.92,3,3,0,0,1,1.46-.34,4.69,4.69,0,0,1,4.42,4.81C95.35,14,87,14.61,78.91,14.61Zm-1-6.3a3,3,0,0,0-3.21,2.8c0,1.47,1.59,2.35,4.26,2.35,4.18,0,15.28,0,15.28-4.07a3.53,3.53,0,0,0-3.26-3.66,1.56,1.56,0,0,0-1.49.78.6.6,0,0,1-.72.33c-.44-.13-.43-.54-.42-.85s0-.47,0-.9a4.06,4.06,0,0,0-4.06-3.94c-2.42,0-5,1.74-5,4.33,0,.11.15,1,.18,1.15A3.21,3.21,0,0,0,80,8L80.1,8a.58.58,0,0,1,0,.8.57.57,0,0,1-.8,0,.6.6,0,0,1-.08-.08A1.81,1.81,0,0,0,77.86,8.31Z"/><path class="cls-2" d="M63.57,9.8a2.67,2.67,0,0,1-2.75-2.64,2.34,2.34,0,0,1,1-1.93,3.36,3.36,0,0,1,1.07-.52,3,3,0,0,1,.67-.08A2.56,2.56,0,0,1,66.19,7v.09A2.83,2.83,0,0,1,63.57,9.8Zm0-4a1.75,1.75,0,0,0-.4,0,2,2,0,0,0-.68.35,1.19,1.19,0,0,0-.49,1,1.53,1.53,0,0,0,1.6,1.49A1.69,1.69,0,0,0,65,7.07,1.42,1.42,0,0,0,63.54,5.78Z"/><path class="cls-2" d="M101.69,23.23a2.67,2.67,0,0,1-2.75-2.64,2.31,2.31,0,0,1,1-1.93,3.16,3.16,0,0,1,1.07-.52,2.91,2.91,0,0,1,.66-.08,2.55,2.55,0,0,1,2.65,2.35s0,.05,0,.09A2.83,2.83,0,0,1,101.69,23.23Zm0-4a1.83,1.83,0,0,0-.4.05,2,2,0,0,0-.67.35,1.17,1.17,0,0,0-.5,1,1.53,1.53,0,0,0,1.6,1.49,1.69,1.69,0,0,0,1.47-1.58A1.41,1.41,0,0,0,101.66,19.21Z"/><path class="cls-2" d="M45.56,25.11c-3.87,0-5.82-2.17-7.21-4.3A.57.57,0,0,1,38.5,20c1.4-1,3.2-2.13,5.28-3.43,3.27-2.05,7-4.38,10.43-7a.57.57,0,0,1,.89.28A14.85,14.85,0,0,1,56,14.61C56,21.46,49.92,25.11,45.56,25.11Zm-5.93-4.47C41.29,23,43,24,45.56,24c5.95,0,9.24-5.53,9.24-9.35A12.74,12.74,0,0,0,54.24,11c-3.3,2.44-6.77,4.62-9.85,6.55C42.55,18.73,40.93,19.74,39.63,20.64Z"/><path class="cls-2" d="M44.74,17.13a.57.57,0,0,1-.56-.46,4.44,4.44,0,0,0-.57-1.2,4.1,4.1,0,0,1-.73-1.94,1.73,1.73,0,0,1,1.79-1.72c1.6,0,2.72,1.69,3.39,2.69a.57.57,0,0,1-.16.8.56.56,0,0,1-.79-.16C46.6,14.38,45.65,13,44.67,13a.6.6,0,0,0-.64.57,3.37,3.37,0,0,0,.58,1.36,5.43,5.43,0,0,1,.7,1.56.57.57,0,0,1-.45.67Z"/><path class="cls-2" d="M52.26,25.94A3.14,3.14,0,0,1,49.53,24a.58.58,0,0,1,1-.48,2,2,0,0,0,1.68,1.24c.62,0,.85-.62.85-1,0-.94-1-1.23-1.4-1.23a.58.58,0,1,1,0-1.15,2.5,2.5,0,0,1,2.55,2.38A2.08,2.08,0,0,1,52.26,25.94Z"/><path class="cls-2" d="M46.8,34.17a.57.57,0,0,1-.57-.54l0-.52c0-.51-.06-1-.06-1.56a6.22,6.22,0,0,1,6-6.41c5,0,5.88,5.24,6.37,8a.58.58,0,0,1-.11.46.6.6,0,0,1-.42.22c-3.08.18-6.23.23-9.27.27Zm5.35-7.88a5,5,0,0,0-4.86,5.26c0,.48,0,1,.06,1.46l1.36,0c2.81,0,5.71-.09,8.56-.24C56.66,29.52,55.61,26.29,52.15,26.29Z"/><path class="cls-2" d="M54.07,32.08c-1,0-2,0-3,0-1.41,0-2.86-.06-4.27,0a.58.58,0,0,1,0-1.15c1.43,0,2.91,0,4.33,0,1,0,2,0,2.92,0,1.25,0,2.28,0,3.25-.11A.58.58,0,1,1,57.4,32C56.41,32.05,55.35,32.08,54.07,32.08Z"/><path class="cls-2" d="M40.31,14.35a.52.52,0,0,1-.21,0,.59.59,0,0,1-.37-.5V13.6c0-1.67,1.27-4.15,4.78-4.15h.68c.42,0,.84,0,1.26,0a.57.57,0,0,1,.61.53.58.58,0,0,1-.54.62c-.45,0-.9,0-1.35,0l-.66,0c-2.69,0-3.53,1.72-3.62,2.79a.58.58,0,0,1-.09.7l-.09.09A.56.56,0,0,1,40.31,14.35Z"/><path class="cls-2" d="M37.52,12.78a.56.56,0,0,1-.57-.57,5.2,5.2,0,0,1,5-5.29,14.44,14.44,0,0,1,3.16.39.57.57,0,0,1,.39.71.58.58,0,0,1-.72.39,13.83,13.83,0,0,0-2.83-.34,4.09,4.09,0,0,0-3.82,4.14A.57.57,0,0,1,37.52,12.78Z"/><path class="cls-2" d="M34,12a.57.57,0,0,1-.57-.51,5.74,5.74,0,0,1,0-.71c0-4.43,4.75-7.16,9.16-7.16a5.71,5.71,0,0,1,2.52.43.57.57,0,0,1,.26.77.58.58,0,0,1-.77.26,4.71,4.71,0,0,0-2-.31c-3.85,0-8,2.3-8,6a5.63,5.63,0,0,0,0,.58.58.58,0,0,1-.51.64Z"/><path class="cls-2" d="M26.38,28.71a.57.57,0,0,1-.56-.49,50.32,50.32,0,0,1-.4-6.8c0-.75,0-1.49-.05-2.23a.59.59,0,0,1,.56-.6.58.58,0,0,1,.6.56c0,.75,0,1.5,0,2.25A50.93,50.93,0,0,0,27,28.05a.57.57,0,0,1-.48.65Z"/><path class="cls-2" d="M21.86,24.88a.58.58,0,0,1-.07-1.15c1.21-.14,2.44-.2,3.63-.25A34.85,34.85,0,0,0,30.71,23a.57.57,0,0,1,.68.44.58.58,0,0,1-.45.68,35.21,35.21,0,0,1-5.47.55c-1.17.05-2.38.11-3.54.24Z"/><path class="cls-2" d="M27.6,22.36a.57.57,0,0,1-.18,0,.58.58,0,0,1-.36-.73,5.64,5.64,0,0,1,1-1.69c.13-.16.25-.31.36-.47a.56.56,0,0,1,.8-.13.58.58,0,0,1,.14.8c-.12.17-.26.34-.39.51A4.55,4.55,0,0,0,28.15,22,.59.59,0,0,1,27.6,22.36Z"/><path class="cls-2" d="M23.6,22.36a.51.51,0,0,1-.26-.07,5.19,5.19,0,0,1-1.25-1,7.56,7.56,0,0,0-.65-.56.58.58,0,0,1-.14-.8.59.59,0,0,1,.81-.14,9.58,9.58,0,0,1,.77.66,4.24,4.24,0,0,0,1,.77.59.59,0,0,1,.26.78A.6.6,0,0,1,23.6,22.36Z"/><path class="cls-2" d="M23.18,28.49l-.9-.72a8.32,8.32,0,0,1,1.22-1.31.58.58,0,0,1,.81.09.57.57,0,0,1-.09.81A7.58,7.58,0,0,0,23.18,28.49Zm-.45-.36Z"/><path class="cls-2" d="M29.6,27.58a.59.59,0,0,1-.22,0,3.59,3.59,0,0,1-.92-.61,2.71,2.71,0,0,0-.65-.43.58.58,0,0,1-.3-.76.56.56,0,0,1,.75-.3,3.82,3.82,0,0,1,.93.6,2.82,2.82,0,0,0,.64.44.58.58,0,0,1,.3.76A.56.56,0,0,1,29.6,27.58Z"/><path class="cls-2" d="M16.57,42.19c-2.41,0-4.09-1.85-4.09-4.49A4.59,4.59,0,0,1,17,33.18a4.24,4.24,0,0,1,.94.11,6.18,6.18,0,0,1,1.15.38,3.78,3.78,0,0,1,2.21,3.6A5,5,0,0,1,16.57,42.19ZM17,34.34a3.43,3.43,0,0,0-3.4,3.36c0,2,1.16,3.34,2.94,3.34a3.79,3.79,0,0,0,3.61-3.77,2.66,2.66,0,0,0-1.52-2.55,5.43,5.43,0,0,0-.94-.31A3.23,3.23,0,0,0,17,34.34Z"/><path class="cls-2" d="M13.27,50.14a.58.58,0,0,1-.54-.39,9.26,9.26,0,0,1-.52-3,6.16,6.16,0,0,1,2.84-5.58.56.56,0,0,1,.78.21.58.58,0,0,1-.21.79,5,5,0,0,0-2.26,4.58,8.1,8.1,0,0,0,.46,2.67.57.57,0,0,1-.35.73A.48.48,0,0,1,13.27,50.14Z"/><path class="cls-2" d="M21.86,49.07h-.09a.58.58,0,0,1-.48-.66A8.85,8.85,0,0,0,21.4,47a6.16,6.16,0,0,0-2.71-5.53.57.57,0,0,1-.19-.79.56.56,0,0,1,.78-.2A7.3,7.3,0,0,1,22.56,47a11.19,11.19,0,0,1-.13,1.63A.58.58,0,0,1,21.86,49.07Z"/><path class="cls-2" d="M14.73,49.83a15,15,0,0,1-1.54-.07.58.58,0,0,1-.52-.63.57.57,0,0,1,.63-.51c.45,0,.92.06,1.43.06,1.2,0,2.44-.13,3.63-.24,1-.11,2.08-.21,3.14-.25a.57.57,0,0,1,.59.56.57.57,0,0,1-.56.59c-1,0-2.05.14-3.05.24C17.26,49.7,16,49.83,14.73,49.83Z"/><path class="cls-2" d="M15.26,57.39a1,1,0,0,1-.83-.28c-.3-.31-.26-.72-.2-1.33a18.18,18.18,0,0,0,.1-1.86c0-.72,0-1.46-.05-2.17s0-1.47,0-2.21a.57.57,0,0,1,.57-.58.58.58,0,0,1,.58.58c0,.72,0,1.46,0,2.17s.05,1.47.05,2.21a19.52,19.52,0,0,1-.1,2,2.14,2.14,0,0,0,0,.34l.45,0c.43,0,1-.07,1.84-.07.6,0,2.29-.17,2.84-.23a.57.57,0,0,1,.63.52.57.57,0,0,1-.51.63c-1.57.16-2.51.23-3,.23-.78,0-1.35,0-1.76.07Zm.08-.94Z"/><path class="cls-2" d="M20.54,57.06a.58.58,0,0,1-.57-.5,22.62,22.62,0,0,1-.19-3.1c0-1.48.11-3,.2-4.31a.58.58,0,1,1,1.15.08c-.09,1.31-.2,2.79-.2,4.23a22.14,22.14,0,0,0,.18,2.95.59.59,0,0,1-.49.65Z"/><path class="cls-2" d="M17.4,57h0a.59.59,0,0,1-.55-.6c0-.28,0-.56,0-.84,0-.76,0-1.54-.08-2.29s-.09-1.57-.09-2.35a.58.58,0,0,1,.58-.58.57.57,0,0,1,.57.58c0,.75.05,1.53.09,2.29s.08,1.56.08,2.35c0,.3,0,.59,0,.89A.57.57,0,0,1,17.4,57Z"/><path class="cls-2" d="M12.64,50.76a2.18,2.18,0,0,1-2.05-2.22c0-.78.45-1.93,1.44-1.93a.58.58,0,0,1,0,1.15,1.13,1.13,0,0,0-.29.78,1,1,0,0,0,.9,1.07l.12,0a.57.57,0,0,1,.51,1A1.33,1.33,0,0,1,12.64,50.76Z"/><path class="cls-2" d="M21.42,49.5a.57.57,0,0,1-.55-.43.58.58,0,0,1,.42-.7,2.56,2.56,0,0,1,.36-.07c.92-.16,1.19-.33,1.19-.74a.91.91,0,0,0-.42-.68h-.21a.57.57,0,0,1-.58-.57.58.58,0,0,1,.57-.58h.25A1.87,1.87,0,0,1,24,47.56c0,1.5-1.5,1.76-2.14,1.87l-.29.06Z"/><path class="cls-2" d="M1.05,63.19a.57.57,0,0,1-.57-.51C.12,59.46.06,56.15,0,52.94v-.41A.57.57,0,0,1,.54,52l1.71-.11c1.43-.09,2.9-.19,4.35-.32a.55.55,0,0,1,.55.29.56.56,0,0,1,0,.62L7,52.65A24,24,0,0,0,5.5,54.77a13.81,13.81,0,0,0,2,2.54.57.57,0,1,1-.81.81,15.32,15.32,0,0,1-2.32-3,.61.61,0,0,1,0-.57,16,16,0,0,1,1.1-1.74c-1,.09-2.09.15-3.11.22l-1.16.07c.06,3.13.12,6.37.46,9.49a.58.58,0,0,1-.51.64Z"/><path class="cls-2" d="M1.1,58.55l0-.57V57.4c1.88-.08,3.83-.17,5.76-.17a.57.57,0,0,1,.57.57.58.58,0,0,1-.57.58C4.91,58.38,3,58.47,1.1,58.55Zm0-.57h0Z"/><path class="cls-2" d="M4,83.86a.55.55,0,0,1-.37-.14C3,83.17,2.35,82.58,1.73,82l-.46-.43a.58.58,0,0,1-.06-.79c.56-.68,1.18-1.33,1.77-2l.48-.52a.51.51,0,0,1,.42-.18.57.57,0,0,1,.43.19,21.44,21.44,0,0,0,2,2,.58.58,0,0,1,.06.8c-.65.81-1.33,1.71-1.9,2.52a.55.55,0,0,1-.4.24ZM2.45,81.12l.06,0,1.4,1.27c.4-.55.82-1.11,1.25-1.65-.49-.44-.91-.84-1.28-1.23l-.06.06C3.34,80.13,2.89,80.61,2.45,81.12Z"/><path class="cls-2" d="M10.41,98.26a2.74,2.74,0,0,1-2.59-2.62A2.6,2.6,0,0,1,9.76,93a3.05,3.05,0,0,1,.6-.06,2.67,2.67,0,0,1,2.7,2.64A2.83,2.83,0,0,1,10.41,98.26Zm-.05-4.14a1.69,1.69,0,0,0-.38,0,1.47,1.47,0,0,0-1,1.48c0,1.14,1.27,1.47,1.44,1.47a1.68,1.68,0,0,0,1.5-1.5A1.52,1.52,0,0,0,10.36,94.12Z"/><path class="cls-2" d="M27.15,63.33a2.74,2.74,0,0,1-2.59-2.62A2.6,2.6,0,0,1,26.5,58.1a3.05,3.05,0,0,1,.6-.06,2.68,2.68,0,0,1,2.71,2.64A2.84,2.84,0,0,1,27.15,63.33Zm0-4.14a1.55,1.55,0,0,0-.37,0,1.46,1.46,0,0,0-1,1.48c0,1.14,1.26,1.47,1.43,1.47a1.68,1.68,0,0,0,1.51-1.5A1.53,1.53,0,0,0,27.1,59.19Z"/><path class="cls-2" d="M53.64,90.26a.56.56,0,0,1-.51-.32c-.87-1.77-1.84-3.52-2.79-5.21-.52-.94-1.06-1.91-1.58-2.89-.88.56-1.78,1.1-2.66,1.62-1.06.63-2.17,1.29-3.21,2a.58.58,0,1,1-.64-1c1.07-.7,2.19-1.36,3.27-2s2.12-1.26,3.14-1.93a.57.57,0,0,1,.46-.08.58.58,0,0,1,.36.29c.61,1.15,1.25,2.3,1.87,3.42.95,1.7,1.93,3.47,2.81,5.27a.56.56,0,0,1-.52.82Z"/><path class="cls-2" d="M64.5,90.84a.57.57,0,0,1-.42-.19c-.84-.88-6.58-11.16-7.68-13.74a.56.56,0,0,1,.3-.75.58.58,0,0,1,.76.3,148.51,148.51,0,0,0,7.46,13.41.58.58,0,0,1,0,.81A.59.59,0,0,1,64.5,90.84Z"/><path class="cls-2" d="M69.15,90.66a.59.59,0,0,1-.48-.26C67,87.94,60.92,74.68,59.49,71.53a.59.59,0,0,1,.19-.71c1.92-1.35,6.05-3.87,14.81-8.17l.44-.22a.58.58,0,0,1,.78.24.57.57,0,0,1-.24.77l-.47.24a123.88,123.88,0,0,0-14.26,7.81c2.08,4.57,7.46,16.12,8.89,18.28a.56.56,0,0,1-.16.79A.55.55,0,0,1,69.15,90.66Z"/><path class="cls-2" d="M42.05,68.65a.59.59,0,0,1-.49-.27.57.57,0,0,1,.18-.79c1.77-1.14,3.61-2.24,5.39-3.3l3-1.8c-1.65-3.08-3.53-6.08-5.34-9l-1.31-2.09a.59.59,0,0,1,.19-.8.58.58,0,0,1,.79.19l1.3,2.09c1.93,3.07,3.91,6.25,5.64,9.54a.58.58,0,0,1-.21.76l-3.46,2.09c-1.77,1.06-3.6,2.15-5.36,3.28A.61.61,0,0,1,42.05,68.65Z"/><path class="cls-2" d="M56.75,60.23a.56.56,0,0,1-.52-.32c-1.21-2.4-2.58-4.74-3.9-7-.87-1.49-1.76-3-2.61-4.57a.58.58,0,0,1,1-.55c.84,1.53,1.73,3.06,2.59,4.54,1.24,2.12,2.52,4.31,3.68,6.56,1.74-.88,3.48-1.84,5.17-2.76,2-1.13,4.18-2.3,6.34-3.36a.58.58,0,1,1,.5,1c-2.13,1-4.24,2.2-6.29,3.33-1.86,1-3.79,2.07-5.72,3A.57.57,0,0,1,56.75,60.23Z"/><path class="cls-2" d="M83.38,87.15a.39.39,0,0,1-.15,0,.55.55,0,0,1-.35-.28c-.27-.47-.65-1.19-1.23-2.29-1.27-2.39-3.63-6.82-7.91-14.7a.59.59,0,0,1,0-.45.58.58,0,0,1,.29-.34l.29-.15A23.6,23.6,0,0,0,78,66.74a.58.58,0,1,1,.7.92A23.19,23.19,0,0,1,75,69.82c4.11,7.57,6.39,11.87,7.63,14.2l.94,1.75c4.44-2.68,8.15-4.71,11.62-6.38a.57.57,0,0,1,.77.27.56.56,0,0,1-.27.76c-3.57,1.72-7.4,3.83-12,6.65A.61.61,0,0,1,83.38,87.15Z"/><path class="cls-2" d="M99.65,64.21a.54.54,0,0,1-.42-.19,19.06,19.06,0,0,1-2.62-4c-.22-.4-.44-.82-.68-1.22l-.56.36c-1.84,1.19-3.74,2.43-5.71,3.51a.58.58,0,0,1-.55-1c1.93-1.06,3.81-2.28,5.64-3.47l1.07-.69a.58.58,0,0,1,.8.19c.35.59.68,1.2,1,1.79a17.75,17.75,0,0,0,2.46,3.77.59.59,0,0,1,0,.82A.58.58,0,0,1,99.65,64.21Z"/><path class="cls-2" d="M69.74,78.92a2.67,2.67,0,0,1-2.29-2.67c0-1.17,1-2.27,1.73-2.27a.85.85,0,0,1,.25,0,1.34,1.34,0,0,1,.46-.09h.39a2,2,0,0,1,2.1,2,1.15,1.15,0,0,0,0,.19v.2A2.78,2.78,0,0,1,69.74,78.92Zm-.62-3.72a1.47,1.47,0,0,0-.52,1,1.6,1.6,0,0,0,1.14,1.52,1.64,1.64,0,0,0,1.5-1.48,1,1,0,0,0,0-.17V75.9a.91.91,0,0,0-1-.82h-.39a.86.86,0,0,0-.26.11A.57.57,0,0,1,69.12,75.2Zm0-1,.26.51Z"/><path class="cls-2" d="M72.8,84.36a2.39,2.39,0,0,1-2.2-2.23c0-1.07.93-2.12,1.63-2.12l.18,0a2.48,2.48,0,0,1,.65-.09c1.23,0,2,.67,2,1.7A2.87,2.87,0,0,1,72.8,84.36Zm-.52-3.19a1.34,1.34,0,0,0-.53,1c0,.75.9,1.07,1,1.07a1.87,1.87,0,0,0,1.13-1.56q0-.54-.87-.54a1.9,1.9,0,0,0-.4.05A.79.79,0,0,1,72.28,81.17Z"/><path class="cls-2" d="M76.19,90.06H75.9a2.22,2.22,0,0,1-2.06-2.19,2.1,2.1,0,0,1,.85-1.72.3.3,0,0,0,.08-.08,1.23,1.23,0,0,1,.51-.35,3.09,3.09,0,0,1,1-.15,2.09,2.09,0,0,1,2.26,2A2.54,2.54,0,0,1,76.19,90.06Zm-.83-3a1,1,0,0,0-.37.79,1.1,1.1,0,0,0,.91,1h.29a1.4,1.4,0,0,0,1.15-1.35c0-.49-.47-.85-1.11-.85a2,2,0,0,0-.59.09.15.15,0,0,1,0,.06A1.79,1.79,0,0,1,75.36,87.07Z"/><path class="cls-2" d="M21.54,95.93a.6.6,0,0,1-.41-.17l-.49-.51a.58.58,0,0,1,.84-.79c.16.16.31.33.48.49a.58.58,0,0,1-.42,1ZM19,93.14a.55.55,0,0,1-.44-.21c-.34-.4-.67-.8-1-1.2a.57.57,0,1,1,.9-.71l1,1.18a.57.57,0,0,1-.44.94Zm-2.8-3.66a.55.55,0,0,1-.47-.25c-.3-.43-.59-.86-.87-1.28a.58.58,0,0,1,1-.63c.27.42.55.84.85,1.26a.58.58,0,0,1-.15.8A.56.56,0,0,1,16.22,89.48Zm-2.44-3.9a.6.6,0,0,1-.51-.3c-.24-.46-.48-.93-.71-1.4a.59.59,0,0,1,.28-.77.57.57,0,0,1,.76.28c.22.45.45.9.69,1.34a.58.58,0,0,1-.24.78A.52.52,0,0,1,13.78,85.58Zm-1.87-4.21a.57.57,0,0,1-.54-.38c-.17-.49-.33-1-.48-1.49a.58.58,0,0,1,.39-.72.59.59,0,0,1,.71.39c.14.48.3,1,.47,1.44a.58.58,0,0,1-.35.73A.69.69,0,0,1,11.91,81.37Zm-1.17-4.45a.57.57,0,0,1-.57-.47c-.09-.52-.17-1-.23-1.55a.58.58,0,0,1,1.15-.14c.05.49.13,1,.22,1.49a.59.59,0,0,1-.47.67Zm-.4-4.58a.57.57,0,0,1-.57-.58c0-.53,0-1.05.06-1.57a.59.59,0,0,1,.62-.53.57.57,0,0,1,.53.62c0,.49-.06,1-.06,1.49A.57.57,0,0,1,10.34,72.34Zm.51-4.57h-.13a.57.57,0,0,1-.43-.69c.11-.52.25-1,.4-1.52a.58.58,0,0,1,.72-.39.58.58,0,0,1,.38.72c-.14.47-.27,1-.38,1.44A.58.58,0,0,1,10.85,67.77Zm1.52-4.33a.58.58,0,0,1-.52-.83c.23-.48.49-.94.76-1.39a.58.58,0,0,1,.79-.2.58.58,0,0,1,.2.79c-.26.42-.5.86-.72,1.31A.57.57,0,0,1,12.37,63.44Z"/><path class="cls-2" d="M118.52,57.85a7.05,7.05,0,0,1-1.49-.2.57.57,0,0,1-.43-.69.57.57,0,0,1,.69-.43,5.94,5.94,0,0,0,1.23.17h.15a.58.58,0,0,1,0,1.16Zm3.1-.79a.58.58,0,0,1-.26-1.09,7.31,7.31,0,0,0,1.19-.77.58.58,0,0,1,.72.9,7.9,7.9,0,0,1-1.38.89A.54.54,0,0,1,121.62,57.06Zm-7.38-.34a.52.52,0,0,1-.21,0c-.45-.18-.94-.37-1.44-.59a.57.57,0,0,1-.31-.75A.58.58,0,0,1,113,55c.45.2.93.39,1.4.58a.57.57,0,0,1-.2,1.11ZM110,54.87a.56.56,0,0,1-.25,0l-.09,0-.57-.27a1.83,1.83,0,0,0-.26.11.58.58,0,0,1-.52-1,1.91,1.91,0,0,1,.86-.24c.16,0,.17,0,1,.38l.09.05a.57.57,0,0,1,.28.76A.58.58,0,0,1,110,54.87ZM125,54a.56.56,0,0,1-.31-.09.57.57,0,0,1-.17-.8,11,11,0,0,0,.7-1.27.57.57,0,1,1,1,.48,10.75,10.75,0,0,1-.78,1.42A.56.56,0,0,1,125,54Zm1.69-4.25h-.12a.58.58,0,0,1-.44-.69c.1-.47.18-1,.24-1.46a.57.57,0,1,1,1.14.14c-.06.53-.15,1.06-.25,1.56A.59.59,0,0,1,126.64,49.7Z"/><path class="cls-2" d="M39.9,38.34a.57.57,0,0,1-.43-.19,8.69,8.69,0,0,1-1-1.3.58.58,0,0,1,.18-.8.57.57,0,0,1,.79.19,8.63,8.63,0,0,0,.87,1.14.58.58,0,0,1-.43,1Zm-1.82-4.13a.57.57,0,0,1-.58-.56,5,5,0,0,1,.29-1.7.57.57,0,0,1,1.08.38,4,4,0,0,0-.22,1.29A.59.59,0,0,1,38.08,34.21Zm2.14-3.84a.61.61,0,0,1-.49-.26.58.58,0,0,1,.17-.8,6.6,6.6,0,0,1,1.51-.73.58.58,0,1,1,.37,1.09,5.79,5.79,0,0,0-1.25.6A.54.54,0,0,1,40.22,30.37Zm5.93-.95h-.08a12.48,12.48,0,0,0-1.46-.12.57.57,0,0,1-.56-.59.55.55,0,0,1,.58-.56,12.61,12.61,0,0,1,1.6.13.57.57,0,0,1,.49.65A.58.58,0,0,1,46.15,29.42Z"/><path class="cls-2" d="M74.94,114.94h-.11a5.37,5.37,0,0,1-1.61-.59.58.58,0,0,1-.22-.79.59.59,0,0,1,.78-.22,4.14,4.14,0,0,0,1.27.47.58.58,0,0,1-.11,1.14Zm3-.3a.56.56,0,0,1-.53-.36.57.57,0,0,1,.32-.75,5.13,5.13,0,0,0,1.2-.68.57.57,0,0,1,.8.12.57.57,0,0,1-.11.8,6,6,0,0,1-1.47.83A.52.52,0,0,1,78,114.64Zm3.28-3.09a.57.57,0,0,1-.51-.84,7.62,7.62,0,0,0,.54-1.32.57.57,0,0,1,1.1.33,8.08,8.08,0,0,1-.62,1.52A.56.56,0,0,1,81.23,111.55Zm.89-4.45a.57.57,0,0,1-.57-.52,5.28,5.28,0,0,0-.3-1.34.57.57,0,0,1,.32-.74.58.58,0,0,1,.75.32,5.77,5.77,0,0,1,.37,1.65.57.57,0,0,1-.52.63Zm-2-4a.58.58,0,0,1-.48-.25,4.81,4.81,0,0,1-.73-1.56A.57.57,0,1,1,80,101a3.75,3.75,0,0,0,.57,1.2.58.58,0,0,1-.15.8A.55.55,0,0,1,80.09,103.07Z"/><path class="cls-2" d="M40.23,103.78c-.25,0-.49,0-.74,0a.58.58,0,0,1,.09-1.15,8.66,8.66,0,0,0,1.44,0,.58.58,0,0,1,.62.53.57.57,0,0,1-.52.62C40.82,103.76,40.52,103.78,40.23,103.78Zm-3.67-.71a.54.54,0,0,1-.22,0,10.23,10.23,0,0,1-1.45-.71.57.57,0,0,1-.21-.79.58.58,0,0,1,.79-.2,11.18,11.18,0,0,0,1.3.64.56.56,0,0,1,.32.74A.58.58,0,0,1,36.56,103.07ZM44,103a.58.58,0,0,1-.22-1.11,8.65,8.65,0,0,0,1.29-.65.57.57,0,0,1,.79.19.58.58,0,0,1-.19.8,10.87,10.87,0,0,1-1.45.72A.59.59,0,0,1,44,103Zm3.72-2.64a.58.58,0,0,1-.43-1,9.73,9.73,0,0,0,.88-1.15.58.58,0,1,1,1,.63,11.2,11.2,0,0,1-1,1.28A.57.57,0,0,1,47.76,100.38Z"/></g></g></svg>