<svg xmlns="http://www.w3.org/2000/svg" viewBox="0 0 141.73 140.09"><defs><style>.cls-1{fill:#ffcc80;}.cls-2{fill:#fff;}</style></defs><title>009_w</title><g id="Layer_2" data-name="Layer 2"><g id="Layer_1-2" data-name="Layer 1"><path class="cls-1" d="M81.14,97.21a4.34,4.34,0,0,0-2-1.21,11,11,0,0,0-2.07.13,2.31,2.31,0,0,0-3.73.3l-.11,0a.94.94,0,0,0-1.06-.09,11.8,11.8,0,0,0-2.82,3.16,1.8,1.8,0,0,0-1.61,2.87c.42,1.44,1,2.86,1.49,4.26a1.35,1.35,0,0,0,.72.76,5,5,0,0,0,2,1.71,7.12,7.12,0,0,0,6.36.1,1.09,1.09,0,0,0,.46-.38,2.17,2.17,0,0,0,1.49-.7,5.51,5.51,0,0,0,1.34-3.31,7.45,7.45,0,0,0,.89-2.67A5.5,5.5,0,0,0,81.14,97.21Zm-9.25,1.47a2.66,2.66,0,0,1-1,.55Zm7.63,2.55-.16.07a1.37,1.37,0,0,0-1.19,1,3.37,3.37,0,0,0,.31,2.93,3.4,3.4,0,0,1-.22.68c-.05-.1-.44-.15-.56-.2a5.76,5.76,0,0,0-4.28.16,1.69,1.69,0,0,0-.74.64,2.47,2.47,0,0,1-.4-.45c-.55-.87,0-2-.69-3a1.26,1.26,0,0,0-1.47-.52l-.27-.77c-.28-.76-.28-.82,0-.16l.59-.13a4.71,4.71,0,0,0,1.75-.51A3.1,3.1,0,0,0,74,98.64a1.39,1.39,0,0,0,1-.09l.25,0a2.8,2.8,0,0,0,2.42.6c.87-.09,1.44.07,1.77,1A2.6,2.6,0,0,1,79.52,101.23Z"/><path class="cls-1" d="M36.64,125.59a.88.88,0,0,0-1.58-.2l-.15.3h-.16a1,1,0,0,0-1.12-.15,2.36,2.36,0,0,0-.36.26.77.77,0,0,0-.49.1.37.37,0,0,0-.32.18,3.74,3.74,0,0,0-.3,1.28c0,.13,0,.26,0,.39h0a.77.77,0,0,0,1.43.39,1.24,1.24,0,0,0,.1-.2,1,1,0,0,0,1.07.11.81.81,0,0,0,1.13-.33v0a.7.7,0,0,0,.56.05C37.43,127.49,36.84,126.2,36.64,125.59Z"/><path class="cls-1" d="M135.82,94.71c.7-.39.62-1.63-.36-1.59a2.38,2.38,0,0,0-.91.2.82.82,0,0,0-.64-.21.92.92,0,0,0-1.38.19l-.12.18a.3.3,0,0,0-.13.09,5,5,0,0,0-.7,1.77.71.71,0,0,0,.25.82c-.53.61.39,1.76,1.16,1l.1-.1a.85.85,0,0,0,1.36-.48c0-.05,0-.11,0-.17a.92.92,0,0,0,1.56-.88C136,95.28,135.89,95,135.82,94.71Z"/><path class="cls-1" d="M47.94,64l-.85.71-.24.19-.12-.19L46,63.51a1.36,1.36,0,0,0-2.31,0,10.19,10.19,0,0,1-5.31,3.6,1.21,1.21,0,0,0-.75.59c-.11-.3-.2-.62-.31-.85A16.17,16.17,0,0,0,36.26,65a.43.43,0,0,0-.78.32c.2,1.36.44,3.86,1.47,4.89s3.17.9,4.39.93c1.42,0,3.28,0,4.52-.78a10.91,10.91,0,0,0,2.67-3.15c.52-.41,1-.91,1.41-1.26C51.33,64.77,49.32,62.78,47.94,64Zm-3.27,2.68-.45.15.35-.31Z"/><path class="cls-1" d="M97.36,25c.24-.11.42-.24,0,0Z"/><path class="cls-1" d="M98.27,25.1a1,1,0,0,0-1-.06l.09-.05a1.15,1.15,0,0,1-.33.11c-.17.17-.22.17-.16,0l-.4-.22a5.89,5.89,0,0,0-3.72-.66,1,1,0,0,0,0,1.87l.89.17A1.49,1.49,0,0,0,92.37,28c0,.38.56.61.77.21s.31-.64.66-.71a.62.62,0,0,1,.74.59.82.82,0,0,0,1.6.22c.08-.2.18-.43.29-.67a1.85,1.85,0,0,0,2.28-.86A1.27,1.27,0,0,0,98.27,25.1Z"/><path class="cls-1" d="M95.46,23.73a.12.12,0,0,0,0,.23A.12.12,0,0,0,95.46,23.73Z"/><path class="cls-1" d="M77.92,8.66c-1,.16-1.92.27-2.86.5a1,1,0,0,0-.75,1.14,1.08,1.08,0,0,0,1,.9,5.24,5.24,0,0,1,.73.22c-.23.39-.42.79-.62,1.18-.36.7.24,1.74,1.1,1.44,1.13-.41,2.36-1.22,2.12-2.61a1.48,1.48,0,0,0,0-.47,1.46,1.46,0,0,0,.19-.13C80.08,10.12,79.18,8.45,77.92,8.66Z"/><path class="cls-1" d="M43.68,19.05a2.31,2.31,0,0,1-.57-1.16,3.25,3.25,0,0,0-.82-1.58,1.1,1.1,0,0,0-1.83.48A1.86,1.86,0,0,0,40.52,18a2,2,0,0,0,.28.49c0,.07,0,.13,0,.19s0,.13,0,.19a.57.57,0,0,0-.13-.08c-.7-.34-2-.26-2.16.65a.41.41,0,0,0,.28.49c.34.12,1.37.06,1,.73A1,1,0,0,0,41,22.18a2.6,2.6,0,0,0,1.67-1l.17,0A1.27,1.27,0,0,0,43.68,19.05Z"/><path class="cls-1" d="M20,86.47a3.74,3.74,0,0,0-.28-2.26c-.16-.35-.71-.17-.7.19,0,1.06-.74,2-1.13,3a3.4,3.4,0,0,0,0,2.81c.48,1.15,2.13.29,1.91-.8l-.05-.22a.84.84,0,0,0-.17-.37A7.9,7.9,0,0,1,20,86.47Z"/><path class="cls-1" d="M116.42,22.2a.92.92,0,0,0-.36-.2,1.08,1.08,0,0,0-.35-.28.32.32,0,0,0-.11-.12.78.78,0,0,0-.81,0,1.24,1.24,0,0,0-.88.58,1.12,1.12,0,0,0,.15,1.35,1.66,1.66,0,0,0,.8.41,1.5,1.5,0,0,0,1.08-.13,1.57,1.57,0,0,0,.61-.59A.85.85,0,0,0,116.42,22.2Z"/><path class="cls-2" d="M95.65,31.27A.52.52,0,0,1,95.2,31c-.38-.66-.79-1.36-1.22-2a15.35,15.35,0,0,0-2.53.7.52.52,0,0,1-.63-.74l.38-.66c.39-.67.79-1.36,1.21-2-.57-1-1.15-2-1.77-3a.52.52,0,0,1,.6-.77c.5.17,1,.31,1.52.46s.88.24,1.31.38l.52-.62c.43-.52.87-1.05,1.26-1.6a.52.52,0,0,1,.57-.19.54.54,0,0,1,.37.48c0,.59,0,1.17.08,1.75s.06,1,.08,1.55l.94.37c.57.23,1.07.42,1.86.7a.53.53,0,0,1,.35.5.52.52,0,0,1-.37.48,6.7,6.7,0,0,0-1.45.67,6.64,6.64,0,0,1-1.49.7c-.06.23-.12.46-.17.69l-.18.68c-.13.55-.22,1-.28,1.36a.51.51,0,0,1-.42.43Zm-1.42-3.39a.51.51,0,0,1,.43.24c.26.4.51.81.75,1.21l0-.11c0-.23.11-.46.17-.69s.12-.45.17-.67,0-.2.07-.29a.55.55,0,0,1,.39-.39,5.69,5.69,0,0,0,1.52-.67l.42-.24L97.51,26c-.36-.14-.75-.3-1.25-.48a.52.52,0,0,1-.33-.47c0-.62-.06-1.25-.09-1.87,0-.12,0-.25,0-.37-.15.18-.29.36-.44.53l-.72.88a.51.51,0,0,1-.57.17c-.53-.17-1.07-.33-1.61-.48l-.26-.07c.43.72.84,1.44,1.24,2.15a.53.53,0,0,1,0,.53c-.36.58-.72,1.17-1.06,1.76.59-.16,1.17-.29,1.74-.4Z"/><path class="cls-2" d="M72.18,138.49a.54.54,0,0,1-.45-.26c-.38-.65-.78-1.35-1.21-2a15.46,15.46,0,0,0-2.54.7.52.52,0,0,1-.63-.74l.39-.67c.39-.67.78-1.35,1.2-2-.56-1-1.14-2-1.77-3a.52.52,0,0,1,.6-.77c.5.17,1,.31,1.53.45l1.31.39.52-.63c.42-.51.86-1,1.25-1.59a.52.52,0,0,1,.57-.19.51.51,0,0,1,.37.48c0,.58.05,1.17.09,1.75s0,1,.07,1.55l.94.37c.57.22,1.07.42,1.86.7a.5.5,0,0,1,.35.5.51.51,0,0,1-.37.48,6.26,6.26,0,0,0-1.45.67,6.88,6.88,0,0,1-1.49.7c0,.23-.11.46-.17.68s-.12.46-.17.69a13.76,13.76,0,0,0-.29,1.36.51.51,0,0,1-.41.43Zm-1.42-3.39a.52.52,0,0,1,.44.24c.26.4.5.81.74,1.21l0-.11.18-.69.17-.68.07-.29a.49.49,0,0,1,.38-.38,5.47,5.47,0,0,0,1.53-.68l.41-.23-.67-.26-1.24-.49a.51.51,0,0,1-.34-.46c0-.63,0-1.25-.09-1.87,0-.13,0-.25,0-.37-.14.18-.29.35-.43.52l-.73.89a.51.51,0,0,1-.57.17c-.52-.17-1.07-.33-1.6-.48l-.26-.07c.42.72.83,1.44,1.23,2.15a.51.51,0,0,1,0,.53c-.36.58-.71,1.17-1.06,1.76.59-.16,1.18-.29,1.74-.4Z"/><path class="cls-2" d="M38.63,23.64a.52.52,0,0,1-.29-.09.54.54,0,0,1-.21-.57c.2-.73.41-1.51.59-2.3a16.24,16.24,0,0,0-2.28-1.3.54.54,0,0,1-.31-.52.52.52,0,0,1,.39-.45l.74-.19c.75-.2,1.52-.4,2.29-.58.31-1.1.63-2.23.89-3.37a.52.52,0,0,1,1-.12c.23.47.49.95.75,1.41s.44.79.65,1.2l.81-.08c.66-.05,1.35-.11,2-.22a.52.52,0,0,1,.46.87c-.4.42-.79.86-1.18,1.29s-.7.77-1,1.14c.16.35.28.65.4.93.24.57.45,1.06.82,1.82a.52.52,0,0,1-.12.6.51.51,0,0,1-.6.07,6.1,6.1,0,0,0-1.5-.55,7.5,7.5,0,0,1-1.54-.57l-.61.36-.61.36c-.32.19-.75.46-1.16.76A.57.57,0,0,1,38.63,23.64Zm-.54-4.57c.52.3,1,.63,1.5.95a.51.51,0,0,1,.22.54c-.1.47-.22.93-.33,1.39l.09-.06.62-.36.6-.36L41,21a.52.52,0,0,1,.54,0,5.73,5.73,0,0,0,1.56.61l.45.13c-.09-.23-.19-.44-.28-.66s-.32-.74-.53-1.23a.5.5,0,0,1,.09-.56l1.27-1.38.24-.28-.67.07-1.15.1a.52.52,0,0,1-.52-.28c-.24-.5-.52-1-.79-1.48,0-.08-.08-.16-.13-.24-.21.82-.43,1.61-.65,2.4a.53.53,0,0,1-.39.36C39.42,18.73,38.75,18.9,38.09,19.07Z"/><path class="cls-2" d="M72.4,106.73a.53.53,0,0,1-.3-.09.51.51,0,0,1-.2-.56c.19-.73.4-1.5.58-2.3a16.41,16.41,0,0,0-2.28-1.3.52.52,0,0,1-.3-.52.5.5,0,0,1,.38-.45l.73-.19c.75-.2,1.53-.4,2.31-.58.31-1.1.62-2.23.88-3.37a.51.51,0,0,1,.45-.4.52.52,0,0,1,.52.28c.23.47.5,1,.75,1.41s.44.79.65,1.2l.81-.08c.67-.06,1.36-.12,2-.22a.51.51,0,0,1,.54.27.52.52,0,0,1-.08.59c-.41.43-.8.86-1.19,1.3s-.69.76-1,1.14c.16.35.29.65.41.93.24.57.45,1.06.81,1.81a.52.52,0,0,1-.72.68,6.35,6.35,0,0,0-1.49-.56,7,7,0,0,1-1.55-.56l-.61.36-.6.36a12.87,12.87,0,0,0-1.17.75A.49.49,0,0,1,72.4,106.73Zm-.55-4.56c.53.3,1,.63,1.51,1a.52.52,0,0,1,.21.54c-.1.47-.22.93-.33,1.39l.1-.06.61-.36.6-.36.26-.15a.52.52,0,0,1,.54,0,5.67,5.67,0,0,0,1.55.61l.46.12-.29-.65c-.15-.36-.31-.74-.53-1.23a.51.51,0,0,1,.1-.57q.63-.68,1.26-1.38l.25-.27-.68.06-1.14.11a.52.52,0,0,1-.52-.28c-.25-.5-.52-1-.79-1.48,0-.08-.09-.16-.13-.24-.21.81-.44,1.61-.66,2.39a.51.51,0,0,1-.38.37C73.18,101.83,72.51,102,71.85,102.17Z"/><path class="cls-2" d="M74.7,16a.45.45,0,0,1-.25-.07.5.5,0,0,1-.26-.54l.27-1.73.24-1.53-.84-.55c-.52-.34-1-.64-1.68-1.07a.51.51,0,0,1-.24-.56.52.52,0,0,1,.46-.4A6.49,6.49,0,0,0,74,9.16a7,7,0,0,1,1.6-.38c.1-.22.2-.43.31-.64s.2-.42.31-.63c.24-.51.41-.9.55-1.27a.53.53,0,0,1,.49-.34.52.52,0,0,1,.49.35c.24.73.49,1.49.77,2.25a15.51,15.51,0,0,0,2.63-.18.51.51,0,0,1,.53.27.5.5,0,0,1-.07.59l-.51.58c-.52.57-1,1.16-1.59,1.73.34,1.09.71,2.21,1.12,3.3a.54.54,0,0,1-.15.58.53.53,0,0,1-.6.05c-.45-.26-.93-.51-1.4-.75L77.24,14l-.64.5c-.52.42-1.06.85-1.56,1.3A.49.49,0,0,1,74.7,16Zm-.87-5.68.6.39,1.12.73a.52.52,0,0,1,.23.53c-.11.61-.2,1.23-.3,1.85,0,.12,0,.24,0,.36l.53-.43c.3-.24.6-.47.89-.72a.53.53,0,0,1,.6-.05c.47.28,1,.55,1.47.8l.24.13c-.27-.8-.53-1.59-.77-2.36a.53.53,0,0,1,.12-.52c.47-.49.94-1,1.39-1.51-.61,0-1.21,0-1.78,0a.52.52,0,0,1-.48-.33c-.17-.45-.33-.9-.48-1.34l0,.1-.31.64c-.11.21-.21.42-.31.63l-.13.27a.51.51,0,0,1-.45.29,5.55,5.55,0,0,0-1.63.35Z"/><path class="cls-2" d="M16.25,29.48h-.12a2.23,2.23,0,0,1-2.25-2.1,2.6,2.6,0,0,1,1.7-2.54,1.4,1.4,0,0,1,.47-.1,2.42,2.42,0,0,1,2.69,2.08,2.44,2.44,0,0,1-2.49,2.67Zm-.31-3.68a1.55,1.55,0,0,0-1,1.5,1.22,1.22,0,0,0,1.26,1.14A1.48,1.48,0,0,0,17.32,28a1.46,1.46,0,0,0,.38-1.14,1.39,1.39,0,0,0-1.59-1.11A.42.42,0,0,0,15.94,25.8Z"/><path class="cls-2" d="M32.15,16.06a.51.51,0,0,1-.51-.39A18.52,18.52,0,0,1,31.27,13c-.05-.62-.1-1.22-.19-1.78a.52.52,0,1,1,1-.17c.1.61.15,1.25.21,1.87a15.77,15.77,0,0,0,.34,2.52.52.52,0,0,1-.38.63Z"/><path class="cls-2" d="M29.58,14.23a.52.52,0,0,1-.09-1c1.41-.23,2.86-.47,4.3-.59a.51.51,0,0,1,.56.47.52.52,0,0,1-.47.56c-1.4.12-2.83.35-4.22.59Z"/><path class="cls-2" d="M26.23,70.26a.52.52,0,0,1-.5-.39,16.27,16.27,0,0,1-.37-2.69c-.05-.63-.1-1.22-.2-1.79a.51.51,0,0,1,.43-.59.5.5,0,0,1,.59.42c.1.61.16,1.25.21,1.87a15.74,15.74,0,0,0,.34,2.53.51.51,0,0,1-.37.62Z"/><path class="cls-2" d="M23.66,68.43a.52.52,0,0,1-.08-1c1.4-.23,2.86-.48,4.3-.6a.52.52,0,0,1,.56.48.51.51,0,0,1-.48.55c-1.4.12-2.83.36-4.21.59Z"/><path class="cls-2" d="M74,123.69a.52.52,0,0,1-.51-.4,18.52,18.52,0,0,1-.37-2.69c0-.62-.1-1.21-.19-1.78a.52.52,0,0,1,.42-.6.53.53,0,0,1,.6.43c.1.61.15,1.25.21,1.87a15.77,15.77,0,0,0,.34,2.52.52.52,0,0,1-.38.63Z"/><path class="cls-2" d="M71.47,121.85a.51.51,0,0,1-.09-1c1.41-.24,2.86-.48,4.3-.6a.52.52,0,0,1,.56.47.51.51,0,0,1-.47.56c-1.4.12-2.84.36-4.22.59Z"/><path class="cls-2" d="M43,9.69h0a2,2,0,0,1-2.06-2,2.1,2.1,0,0,1,.89-1.82A2.28,2.28,0,0,1,43,5.46a2.21,2.21,0,0,1,1.54.63,2.07,2.07,0,0,1,.6,1.51,2.07,2.07,0,0,1-.61,1.5A2.16,2.16,0,0,1,43,9.69Zm-.66-3a1.11,1.11,0,0,0-.4.92,1,1,0,0,0,1,1,1.18,1.18,0,0,0,.83-.29,1.07,1.07,0,0,0,.29-.78,1,1,0,0,0-.29-.76,1.2,1.2,0,0,0-.8-.34A1.31,1.31,0,0,0,42.32,6.72Z"/><path class="cls-2" d="M55.52,10.25c-2.49,0-4.3-1.42-4.3-3.38a3.39,3.39,0,0,1,3.13-3.39A4.5,4.5,0,0,1,58.52,0C60,0,61.16,1.53,61.68,3.05a3.31,3.31,0,0,1,3,3.36A3.76,3.76,0,0,1,64.29,8c-1.18,1.42-3.1,1.6-4.49,1.72-.49,0-1,.13-1.57.22A16.53,16.53,0,0,1,55.52,10.25ZM54.31,4.52a2.38,2.38,0,0,0-2.05,2.35c0,1.61,1.69,2.35,3.26,2.35a16,16,0,0,0,2.54-.29c.58-.09,1.12-.18,1.64-.23,1.57-.14,2.94-.34,3.78-1.33a4.08,4.08,0,0,0,.19-1,2.36,2.36,0,0,0-1.74-2.29,3.8,3.8,0,0,1,0,.46,1.86,1.86,0,0,1-2,1.89,1.23,1.23,0,0,1-1.36-1.31,2.41,2.41,0,0,1,2-2C60.18,2.07,59.37,1,58.52,1a3.44,3.44,0,0,0-3.14,2.59,1.88,1.88,0,0,1,1.28,1.61c0,.23-.19,1.07-.81,1.07C54.91,6.3,54.42,5.46,54.31,4.52Zm6.57-.38a1.49,1.49,0,0,0-1.24,1c0,.21,0,.28.33.28a.86.86,0,0,0,1-.86A2.25,2.25,0,0,0,60.88,4.14Zm-5.43.74a.69.69,0,0,0,.18.3A.66.66,0,0,0,55.45,4.88Z"/><path class="cls-2" d="M71.13,3.8a2.18,2.18,0,0,1-1.42-.48A1.74,1.74,0,0,1,69.1,2.1,2,2,0,0,1,70.37.16a2.14,2.14,0,0,1,2.47,1,2,2,0,0,1,.16.72,1.91,1.91,0,0,1-1.59,1.9ZM70.6,1.17a1.13,1.13,0,0,0-.46.87.68.68,0,0,0,.24.49,1.23,1.23,0,0,0,.92.23A.91.91,0,0,0,72,1.91a1.11,1.11,0,0,0-.07-.3A1.12,1.12,0,0,0,70.6,1.17Z"/><path class="cls-2" d="M88,5.61a2,2,0,0,1-2-1.92A2.17,2.17,0,0,1,86.17,3c0-.06,0-.12,0-.19a1.07,1.07,0,0,1,.6-.63L87,2a1.75,1.75,0,0,1,.75-.35,2.19,2.19,0,0,1,.36,0,2,2,0,0,1-.1,4Zm-.84-2.5c0,.05,0,.09,0,.14a1.81,1.81,0,0,0-.08.42,1,1,0,0,0,1,.9,1,1,0,0,0,1-1,1,1,0,0,0-.9-.92H88a.84.84,0,0,0-.33.18,2.11,2.11,0,0,1-.4.24v0ZM87,2.63l.2.44Z"/><path class="cls-2" d="M84.6,2.52h-.1a30.84,30.84,0,0,0-6.34-.73,19.18,19.18,0,0,0-3.87.37.52.52,0,1,1-.21-1,19.81,19.81,0,0,1,4.08-.4,32.81,32.81,0,0,1,6.55.75.52.52,0,0,1-.11,1Z"/><path class="cls-2" d="M95.73,14.48c-3.82,0-6.16-.15-6.16-3,0-2.43,2.69-4,4.47-4h.24a5.83,5.83,0,0,1,4.85-3.23c1.91,0,3.51,1.92,3.52,4.2a3.37,3.37,0,0,1,1.92,2.85,2.12,2.12,0,0,1-.35,1.13A3.33,3.33,0,0,1,102,13.9,38.57,38.57,0,0,1,95.73,14.48Zm-1.83-6c-1.35.08-3.3,1.35-3.3,3s.87,2,5.13,2a36.67,36.67,0,0,0,6.07-.58,2.23,2.23,0,0,0,1.54-1.06,1.06,1.06,0,0,0,.2-.58,2.34,2.34,0,0,0-1-1.73,2.18,2.18,0,0,1-2.25,1.82A1.41,1.41,0,0,1,98.7,10a2.33,2.33,0,0,1,2.47-1.94l.43,0c-.12-1.56-1.22-2.88-2.47-2.88a4.81,4.81,0,0,0-3.81,2.45A2.74,2.74,0,0,1,97,10.31a1.4,1.4,0,0,1-1.46,1.26c-1,0-1.7-.89-1.7-2.32A3.21,3.21,0,0,1,93.9,8.44Zm1,.18a2.39,2.39,0,0,0-.09.63c0,.48.09,1.29.67,1.29a.45.45,0,0,0,.43-.24A1.68,1.68,0,0,0,94.92,8.62Zm6.25.49a1.4,1.4,0,0,0-1.44.9c0,.23.39.28.54.28.31,0,1.06,0,1.28-1.16A2.36,2.36,0,0,0,101.17,9.11Z"/><path class="cls-2" d="M102.23,18.37a.52.52,0,0,1-.15-1,9.34,9.34,0,0,0,5.72-4.59.54.54,0,0,1,.7-.23.53.53,0,0,1,.23.7,10.44,10.44,0,0,1-6.34,5.11A.44.44,0,0,1,102.23,18.37Z"/><path class="cls-2" d="M115.11,24.66h0a2.38,2.38,0,0,1-2.41-2.19,2.89,2.89,0,0,1,.66-1.91,2,2,0,0,1,.59-.46,2.21,2.21,0,0,1,1.08-.29,2.6,2.6,0,0,1,1.94.67,2.48,2.48,0,0,1-1.83,4.18Zm-1-3.44a1.8,1.8,0,0,0-.42,1.2,1.35,1.35,0,0,0,1.39,1.21h0a1.45,1.45,0,0,0,1.45-1.33,1.4,1.4,0,0,0-.36-1.08,1.6,1.6,0,0,0-1.18-.38,1.2,1.2,0,0,0-.57.15A1.17,1.17,0,0,0,114.13,21.22Z"/><path class="cls-2" d="M10.41,53.52a.51.51,0,0,1-.5-.39c-.21-.82-.45-1.64-.69-2.42-.17-.57-.34-1.14-.5-1.71a.55.55,0,0,1,.06-.4.49.49,0,0,1,.32-.24c.89-.23,1.84-.43,2.89-.63-.6-.69-1.19-1.41-1.76-2.1s-1-1.18-1.45-1.76c-1.66,1.42-3,2.63-4.25,3.78h.6c.45,0,.9,0,1.35,0a.51.51,0,0,1,.39.19.54.54,0,0,1,.11.41c-.11.6-.2,1.21-.29,1.81-.15,1-.3,2-.51,3a.51.51,0,0,1-.61.4.52.52,0,0,1-.4-.62c.2-1,.35-1.94.5-2.9.06-.41.12-.82.19-1.23H5.12c-.61,0-1.25,0-1.87,0a.51.51,0,0,1-.46-.34.53.53,0,0,1,.12-.55c1.58-1.53,3.31-3.07,5.59-5a.51.51,0,0,1,.72.06c.62.7,1.23,1.44,1.81,2.16.76.92,1.54,1.87,2.34,2.77a.51.51,0,0,1,.11.51.51.51,0,0,1-.4.34c-1.18.2-2.24.41-3.21.64.11.4.23.79.34,1.18.24.8.49,1.62.7,2.47a.51.51,0,0,1-.38.62Z"/><path class="cls-2" d="M6.74,68.19c-1.19,0-5.05-.26-5.05-3.52A3.67,3.67,0,0,1,5.3,61.24a3,3,0,0,1,.63.07,5.75,5.75,0,0,1,3.81-2.64,3.34,3.34,0,0,1,3.38,3.18,3,3,0,0,1,2.27,2.78A2.4,2.4,0,0,1,14.06,67a14.61,14.61,0,0,1-5.33,1.11l-.7.06Q7.34,68.19,6.74,68.19ZM5.3,62.28a2.62,2.62,0,0,0-2.57,2.39c0,1.6,1.42,2.48,4,2.48.37,0,.77,0,1.2-.05L8.65,67a13.39,13.39,0,0,0,5-1,1.37,1.37,0,0,0,.74-1.39,1.87,1.87,0,0,0-1.28-1.72,2.31,2.31,0,0,1-2.18,2.25h-.16a1.11,1.11,0,0,1-1-1.21,2.6,2.6,0,0,1,2.32-2.2A2.32,2.32,0,0,0,9.74,59.7a4.92,4.92,0,0,0-2.83,2A2.94,2.94,0,0,1,8.1,64.12c0,1.45-1,1.56-1.26,1.56-1.12,0-1.52-1.36-1.52-2.27a3.7,3.7,0,0,1,.17-1.12Zm1.15.41a2.84,2.84,0,0,0-.1.72c0,.56.23,1.24.49,1.24.08,0,.23,0,.23-.53A2,2,0,0,0,6.45,62.69Zm5.59.14A1.59,1.59,0,0,0,10.79,64a.41.41,0,0,0,0,.16C11.19,64.09,11.84,64,12,62.83Z"/><path class="cls-2" d="M6.66,84.78c-1.07,0-2.16,0-3.22-.07-.84,0-1.68-.06-2.51-.07a.53.53,0,0,1-.38-.16.56.56,0,0,1-.13-.39c.17-3,.35-6,.37-9.1a.5.5,0,0,1,.15-.37.55.55,0,0,1,.38-.15c1.32.06,2.67.14,4,.22l1.48.09a.52.52,0,0,1,.48.53c0,.42,0,.85,0,1.27,0,.67,0,1.33,0,2s0,1.33,0,2c0,1.48,0,2.63-.1,3.71A.52.52,0,0,1,6.66,84.78ZM1.48,83.62l2,0c.89,0,1.8.06,2.71.07,0-.92.06-1.92.06-3.16,0-.67,0-1.33,0-2s0-1.33,0-2v-.79l-1-.07c-1.12-.07-2.28-.14-3.41-.19C1.79,78.25,1.64,81,1.48,83.62Z"/><path class="cls-2" d="M7,82.45a.53.53,0,0,1-.48-.31.52.52,0,0,1,.27-.68c.87-.38,1.37-.82,1.37-1.22,0-.6-.88-1-1.34-1a.52.52,0,0,1-.52-.52.52.52,0,0,1,.52-.52,2.39,2.39,0,0,1,2.38,2.08c0,.86-.69,1.61-2,2.17A.51.51,0,0,1,7,82.45Z"/><path class="cls-2" d="M18.69,81a.59.59,0,0,1-.23,0A14.58,14.58,0,0,0,12,79.84h-.91a4.26,4.26,0,0,0-1.49.38l-.54.19a.52.52,0,0,1-.33-1l.51-.18a5.13,5.13,0,0,1,1.85-.44H12A15.56,15.56,0,0,1,18.92,80a.52.52,0,0,1,.23.7A.51.51,0,0,1,18.69,81Z"/><path class="cls-2" d="M16.39,91.36a.32.32,0,0,1-.14,0,.52.52,0,0,1-.34-.29,35.11,35.11,0,0,0-3.29-6.23.54.54,0,0,1-.09-.44.55.55,0,0,1,.28-.34c.8-.39,1.64-.8,2.48-1.25a13.4,13.4,0,0,0-6.38-1.46.53.53,0,0,1-.5-.54.51.51,0,0,1,.54-.5c2.63.12,5.59.46,7.64,2.16a.55.55,0,0,1,.19.45.52.52,0,0,1-.27.4c-.91.51-1.83,1-2.71,1.41a37.77,37.77,0,0,1,2.82,5.37l.48-.27a.52.52,0,0,1,.69.23.52.52,0,0,1-.23.7,7.93,7.93,0,0,0-.87.53A.55.55,0,0,1,16.39,91.36Z"/><path class="cls-2" d="M19.75,83.37h-.07a1.56,1.56,0,0,1-1.41-1.63,1.66,1.66,0,0,1,.86-1.46,1.32,1.32,0,0,1,.48-.13,1.64,1.64,0,0,1,1.72,1.65,1.59,1.59,0,0,1-.5,1.14A1.54,1.54,0,0,1,19.75,83.37Zm0-2.19h0l-.09,0a.62.62,0,0,0-.3.55c0,.27.16.57.42.58a.51.51,0,0,0,.39-.14.53.53,0,0,0,.17-.41.55.55,0,0,0-.19-.43A.6.6,0,0,0,19.72,81.18Z"/><path class="cls-2" d="M18.2,91.8l-.13,0a.52.52,0,0,1-.36-.33c-.36-1-.81-2.1-1.24-3.11l-.23-.53a.5.5,0,0,1,.06-.5,19.89,19.89,0,0,0,2.38-4.61.52.52,0,0,1,.67-.31.55.55,0,0,1,.31.34.52.52,0,0,1,.59.36,18,18,0,0,1,.67,5.3c0,.43,0,.87,0,1.3a.52.52,0,0,1-.21.4l-.67.47a13,13,0,0,0-1.48,1.11A.53.53,0,0,1,18.2,91.8Zm-.89-4.13.11.27c.35.8.7,1.63,1,2.48.33-.26.66-.49,1-.72l.44-.3c0-.34,0-.67,0-1a17.93,17.93,0,0,0-.52-4.62A19.84,19.84,0,0,1,17.31,87.67Zm3.07,2h0Z"/><path class="cls-2" d="M18.45,80.5a.52.52,0,0,1-.46-.29,7.2,7.2,0,0,0-.56-.87,7.12,7.12,0,0,1-1.64-4.25,3.71,3.71,0,0,1,4-3.89c2.76,0,4.2,2.53,4.2,5,0,1.76-1.17,3.2-3.29,4A.52.52,0,0,1,20,80a.5.5,0,0,1,.29-.67c1.2-.48,2.63-1.41,2.63-3.09,0-2-1.08-4-3.16-4a2.7,2.7,0,0,0-2.93,2.86,6.23,6.23,0,0,0,1.45,3.65,8.08,8.08,0,0,1,.65,1,.53.53,0,0,1-.23.69A.53.53,0,0,1,18.45,80.5Z"/><path class="cls-2" d="M21.18,78.31a.52.52,0,0,1-.29-.09.53.53,0,0,1-.15-.72,4.06,4.06,0,0,1,.32-.37,1.18,1.18,0,0,0,.22-.27s-.28-.28-.41-.39a2,2,0,0,1-.94-1.5,1.43,1.43,0,0,1,0-.29.52.52,0,0,1,1,.18A.41.41,0,0,0,21,75c0,.23.21.41.55.7a1.66,1.66,0,0,1,.79,1.21,1.41,1.41,0,0,1-.5,1,1.8,1.8,0,0,0-.2.24A.52.52,0,0,1,21.18,78.31Z"/><path class="cls-2" d="M17.21,77.48h-.07a.51.51,0,0,1-.45-.51V76.9a.5.5,0,0,1,.08-.27A8.9,8.9,0,0,1,21,72a.51.51,0,0,1,.7.19.52.52,0,0,1-.19.71,8,8,0,0,0-3.84,4.25A.53.53,0,0,1,17.21,77.48Z"/><path class="cls-2" d="M7,88.66a.39.39,0,0,1-.15,0,20.6,20.6,0,0,1-2-.76c-.59-.24-1.21-.5-1.89-.72A3.11,3.11,0,0,0,2,87a3,3,0,0,0-.69.08h.05a.51.51,0,0,1,.4.61.52.52,0,0,1-.61.41C.41,88,0,87.6,0,87.1,0,86.4.73,86,2,86a4.23,4.23,0,0,1,1.28.2c.72.23,1.35.49,2,.75s1.15.47,1.75.66c2.1-.94,4.1-1.88,6-2.81a.53.53,0,0,1,.69.23.52.52,0,0,1-.23.7c-1.92,1-4,1.94-6.17,2.91A.52.52,0,0,1,7,88.66Z"/><path class="cls-2" d="M5.73,91.1A.56.56,0,0,1,5.41,91l-.59-.47a10.38,10.38,0,0,0-4-2.34.51.51,0,0,1-.39-.62.5.5,0,0,1,.61-.39,11.2,11.2,0,0,1,4.42,2.54c.12.1.24.2.37.29.43-.13.88-.24,1.31-.35a15,15,0,0,0,1.72-.5c1.83-.69,3.53-1.36,5.2-2.05a.52.52,0,0,1,.67.28.52.52,0,0,1-.28.68c-1.67.69-3.38,1.37-5.23,2.06a14,14,0,0,1-1.83.53c-.52.13-1,.25-1.5.42A.47.47,0,0,1,5.73,91.1Z"/><path class="cls-2" d="M2.9,94.76c-1,0-1.14-.69-1.14-1,0-1.28,1.64-1.53,3.55-1.81,2.67-.41,4.74-.85,4.88-2.56a.52.52,0,1,1,1,.09C11,92.15,7.8,92.63,5.46,93c-1,.15-2.53.38-2.66.74a1,1,0,0,0,.25,0c6.26-.3,7.91-.5,8.56-.61a14.39,14.39,0,0,1,3.11-4.39.52.52,0,0,1,.73,0,.51.51,0,0,1,0,.73,13.58,13.58,0,0,0-3,4.31.51.51,0,0,1-.37.3c-.56.12-1.61.33-9,.69Z"/><path class="cls-2" d="M20.64,86.06a.51.51,0,0,1-.31-.11.52.52,0,0,1-.1-.73c.61-.78,1.24-1.53,1.85-2.25a40.31,40.31,0,0,0,3.1-4,4.72,4.72,0,0,1,3.5-1.93c1.3-.24,1.75-.38,1.75-1.43,0-.64-.42-1.4-.77-1.4l-.22,0a2,2,0,0,1-.37,0,.79.79,0,0,1-.85-.77,1.08,1.08,0,0,0-.22.72c0,2.39-3.52,4.06-5,4.66a.52.52,0,0,1-.68-.29.53.53,0,0,1,.29-.67c2.12-.85,4.39-2.27,4.39-3.7,0-1.16.73-1.87,1.41-1.87a.88.88,0,0,1,.89.85,2.13,2.13,0,0,1,.39,0c1.16,0,1.81,1.44,1.81,2.43,0,2-1.45,2.23-2.6,2.45A3.74,3.74,0,0,0,26,79.56a41.44,41.44,0,0,1-3.17,4.08c-.6.71-1.22,1.45-1.82,2.22A.51.51,0,0,1,20.64,86.06Z"/><path class="cls-2" d="M16.6,99.14a2.1,2.1,0,0,1-1.52-.62,2.15,2.15,0,0,1-.6-1.64A2,2,0,0,1,16,95a1.51,1.51,0,0,1,.3,0,2.4,2.4,0,0,1,2,.94,2,2,0,0,1,.33,1.13,2.14,2.14,0,0,1-2,2.07ZM16.25,96h-.08c-.38,0-.64.56-.66.89a1.17,1.17,0,0,0,.31.87,1,1,0,0,0,.81.31,1.09,1.09,0,0,0,1-1,1,1,0,0,0-.14-.54,1.43,1.43,0,0,0-1.2-.5Z"/><path class="cls-2" d="M21,97.85a.87.87,0,0,1-.87-.89.89.89,0,0,1,.36-.71l.31.41-.31-.41A.89.89,0,0,1,21,96l.17,0,.05,0a.72.72,0,0,1,.61.71v0a1.24,1.24,0,0,1,0,.18A1,1,0,0,1,21,97.85Zm.09-.8,0,0s0,0,0,0h0a.19.19,0,0,0,0-.08.16.16,0,0,0-.13-.14V97L21,96.84v0h0l-.12-.17.12.17h-.05s0,0,0,.08a.43.43,0,0,0,0,.07l.05-.14L21,97v.1Z"/><path class="cls-2" d="M24.81,97.56a.88.88,0,0,1-.86-.94.67.67,0,0,1,.33-.58,1.17,1.17,0,0,1,.58-.15c.75,0,.87.47.87.75A.87.87,0,0,1,24.81,97.56Zm0-1a.22.22,0,0,0-.12.13.41.41,0,0,0,.17.23.35.35,0,0,0,.13-.27A.25.25,0,0,0,24.81,96.53Z"/><path class="cls-2" d="M28.11,97.57a.89.89,0,0,1-.46-1.64,1.14,1.14,0,0,1,.64-.14h0a.69.69,0,0,1,.7.64v.08s0,.07,0,.11A.91.91,0,0,1,28.11,97.57Zm.06-.79,0,0a.18.18,0,0,0,.06-.1c0-.12-.13-.22-.22-.13ZM28,96.59a.4.4,0,0,0,.14.18l-.12-.2Z"/><path class="cls-2" d="M34.11,102.22a.5.5,0,0,1-.36-.14,29.06,29.06,0,0,1-2.1-2.35.5.5,0,0,1,0-.7c.8-.75,1.65-1.46,2.48-2.14a15.61,15.61,0,0,1-1.71-1.64c-.22-.23-.44-.47-.67-.69a.56.56,0,0,1-.15-.41.54.54,0,0,1,.22-.38c.38-.27.75-.59,1.12-.89a18,18,0,0,1,1.45-1.12.5.5,0,0,1,.68.1l.3.35a35,35,0,0,0,4.1,4.33.53.53,0,0,1,.18.39.52.52,0,0,1-.17.39c-1.66,1.46-3.31,3-5.05,4.75A.51.51,0,0,1,34.11,102.22Zm-1.35-2.77c.48.58,1,1.12,1.35,1.52,1.46-1.45,2.87-2.77,4.28-4a40.9,40.9,0,0,1-3.76-4c-.33.24-.66.51-1,.79l-.7.57a3.83,3.83,0,0,0,.28.29,11.06,11.06,0,0,0,2.08,1.88.52.52,0,0,1,.05.84l-.38.31C34.23,98.18,33.47,98.8,32.76,99.45Z"/><path class="cls-2" d="M67.6,39.74a2.1,2.1,0,0,1-1.52-.62,2.15,2.15,0,0,1-.6-1.64A2,2,0,0,1,67,35.61l.3,0a2.43,2.43,0,0,1,2,.95,2,2,0,0,1,.33,1.13,2.13,2.13,0,0,1-2,2.07Zm-.35-3.11h-.08c-.38.06-.64.57-.66.9a1.17,1.17,0,0,0,.31.87,1.06,1.06,0,0,0,1.81-.73.91.91,0,0,0-.14-.54,1.43,1.43,0,0,0-1.2-.5Z"/><path class="cls-2" d="M72,38.45a.89.89,0,0,1-.51-1.6l.31.41-.3-.42a.9.9,0,0,1,.52-.22l.18,0,0,0a.7.7,0,0,1,.61.71v0a1.37,1.37,0,0,1,0,.19A1,1,0,0,1,72,38.45Zm.09-.8,0,0s0,0,0,0h0a.2.2,0,0,0,0-.09.15.15,0,0,0-.13-.13v.13L72,37.44v0h0l-.12-.16.12.16,0,0a.31.31,0,0,1,0,.08l0,.06,0-.13.08.11v.1Zm-.29-.39-.31-.41Z"/><path class="cls-2" d="M75.81,38.16a.88.88,0,0,1-.86-.94.67.67,0,0,1,.33-.58,1.17,1.17,0,0,1,.58-.15c.76,0,.87.47.87.75A.87.87,0,0,1,75.81,38.16Zm0-1s-.11.08-.12.13a.41.41,0,0,0,.17.23.37.37,0,0,0,.13-.27A.25.25,0,0,0,75.81,37.13Z"/><path class="cls-2" d="M79.11,38.16a.85.85,0,0,1-.88-.84.89.89,0,0,1,.42-.8,1.08,1.08,0,0,1,.54-.13h.15A.69.69,0,0,1,80,37v.07a.49.49,0,0,1,0,.12A.9.9,0,0,1,79.11,38.16Zm.06-.78,0,0a.18.18,0,0,0,.06-.1c0-.12-.13-.22-.22-.13Zm-.15-.2a.43.43,0,0,0,.14.19l-.12-.2Z"/><path class="cls-2" d="M85.11,42.82a.54.54,0,0,1-.36-.14,29.06,29.06,0,0,1-2.1-2.35.5.5,0,0,1,0-.7c.8-.75,1.65-1.46,2.48-2.14a15.55,15.55,0,0,1-1.7-1.64l-.68-.7a.53.53,0,0,1-.15-.4.54.54,0,0,1,.22-.38c.38-.28.75-.59,1.12-.89a18,18,0,0,1,1.45-1.12.51.51,0,0,1,.68.09l.3.36a35.72,35.72,0,0,0,4.1,4.33.52.52,0,0,1,.18.39.52.52,0,0,1-.17.39c-1.66,1.46-3.31,3-5,4.75A.51.51,0,0,1,85.11,42.82Zm-1.35-2.77c.35.43.87,1,1.35,1.52,1.46-1.45,2.87-2.78,4.28-4a39.92,39.92,0,0,1-3.76-4.06c-.33.25-.65.52-1,.8l-.7.57.28.29A11.42,11.42,0,0,0,86.3,37a.52.52,0,0,1,.24.4.53.53,0,0,1-.19.44l-.4.32C85.22,38.78,84.47,39.4,83.76,40.05Z"/><path class="cls-2" d="M128.25,109.35h-.08a2.55,2.55,0,0,1-2.13-1,2,2,0,0,1-.35-1.2,2.22,2.22,0,1,1,4.43.2,2.12,2.12,0,0,1-1.63,2Zm0-1h.13c.43-.06.73-.62.75-1a1.26,1.26,0,0,0-.35-1,1.13,1.13,0,0,0-.9-.35,1.22,1.22,0,0,0-1.12,1.16,1,1,0,0,0,.17.6A1.57,1.57,0,0,0,128.21,108.32Z"/><path class="cls-2" d="M123.09,108.24l-.17,0,0,0a.74.74,0,0,1-.63-.73s0,0,0,0a1.5,1.5,0,0,1,0-.2,1,1,0,0,1,.91-.87.91.91,0,0,1,.52,1.65l-.31-.41.31.41-.31-.41.31.41A1,1,0,0,1,123.09,108.24Zm-.1-1s0,0,0,.06a.15.15,0,0,0,.11.11v-.18Zm.23.07,0,.09h0a.13.13,0,0,0,0-.06Z"/><path class="cls-2" d="M119,108.39c-.74,0-.9-.42-.9-.77a.9.9,0,0,1,1-1,.91.91,0,0,1,.89,1,.68.68,0,0,1-.34.59A1.12,1.12,0,0,1,119,108.39Zm0-1a.35.35,0,0,0-.1.24.27.27,0,0,0,.15.06s.07,0,.09-.09A.43.43,0,0,0,119,107.4Z"/><path class="cls-2" d="M115.4,108.5h-.16a.7.7,0,0,1-.71-.64v-.09a.49.49,0,0,1,0-.12.93.93,0,0,1,1-1,.89.89,0,0,1,.92.86.92.92,0,0,1-.44.83A1.07,1.07,0,0,1,115.4,108.5Zm0-1a.09.09,0,0,0,0,.06c0,.07.06.14.11.14a.09.09,0,0,0,.06,0A.33.33,0,0,0,115.39,107.5Z"/><path class="cls-2" d="M108.36,112.93a.51.51,0,0,1-.39-.18l-.32-.38a38.32,38.32,0,0,0-4.42-4.67.53.53,0,0,1-.18-.39.49.49,0,0,1,.17-.39c1.79-1.58,3.56-3.25,5.44-5.12a.52.52,0,0,1,.72,0c.83.81,1.86,2,2.26,2.52a.54.54,0,0,1,0,.71c-.87.82-1.81,1.59-2.71,2.34a15.78,15.78,0,0,1,1.87,1.78q.36.39.72.75a.49.49,0,0,1,.15.41.52.52,0,0,1-.21.38c-.41.3-.82.63-1.21,1a17,17,0,0,1-1.56,1.2A.52.52,0,0,1,108.36,112.93Zm-4-5.63a43.5,43.5,0,0,1,4.09,4.4v0c.37-.27.73-.57,1.1-.88l.79-.64-.33-.35a12.91,12.91,0,0,0-2.25-2,.52.52,0,0,1-.24-.4.5.5,0,0,1,.19-.43l.42-.35c.8-.66,1.63-1.34,2.4-2-.39-.47-1-1.14-1.51-1.7C107.42,104.48,105.88,105.93,104.35,107.3Z"/><path class="cls-2" d="M23.13,121.2a.52.52,0,0,1-.52-.46,24.19,24.19,0,0,1-.12-2.54c0-.26,0-.52,0-.78h-.71c-.66,0-1.33,0-2,0a.57.57,0,0,1-.38-.15.54.54,0,0,1-.15-.38c0-.11,0-.22,0-.33,0-.55,0-1.11-.06-1.66,0-.39,0-.79-.05-1.19H16.38a.52.52,0,0,1-.52-.5c0-.26,0-.52,0-.77s0-.5,0-.75v-1.09c-.83,0-1.7,0-2.58,0h-.16a.5.5,0,0,1-.36-.16.51.51,0,0,1-.15-.37c0-.15,0-.31,0-.46,0-1-.07-2-.15-2.84H12a17.11,17.11,0,0,1-2-.1.51.51,0,1,1,.11-1,17.76,17.76,0,0,0,1.87.09l.89,0a.51.51,0,0,1,.53.47c.09,1,.19,2.21.19,3.37.92,0,1.84,0,2.7-.06a.51.51,0,0,1,.53.5c0,.3,0,.6,0,.9s0,.5,0,.75v1h2.78a.53.53,0,0,1,.52.52c0,.55,0,1.12,0,1.66s.05,1,.06,1.53l1.51,0H23a.57.57,0,0,1,.37.16.54.54,0,0,1,.15.38c0,.42,0,.85,0,1.27a22.23,22.23,0,0,0,.11,2.43.51.51,0,0,1-.46.57Z"/><path class="cls-2" d="M20.76,106.83h0a.5.5,0,0,1-.47-.56,14.06,14.06,0,0,1,.21-1.49,12.73,12.73,0,0,0,.22-1.9.49.49,0,0,1,.19-.39.52.52,0,0,1,.43-.11l.4.1a2.74,2.74,0,0,0,.72.13c.28,0,.55,0,.8,0a7.25,7.25,0,0,0,1,0,.52.52,0,1,1,.1,1,7,7,0,0,1-1.22,0c-.24,0-.48,0-.72,0a2.82,2.82,0,0,1-.74-.1c-.05.48-.13,1-.2,1.41s-.16.94-.2,1.41A.53.53,0,0,1,20.76,106.83Z"/><path class="cls-2" d="M27.8,110.73a.48.48,0,0,1-.38-.17l-6.57-7.09a.53.53,0,0,1,0-.74.52.52,0,0,1,.73,0l6.57,7.1a.51.51,0,0,1,0,.73A.47.47,0,0,1,27.8,110.73Z"/><path class="cls-2" d="M29.16,113.7h-.09a2,2,0,0,1-1.87-2A2.12,2.12,0,0,1,29,109.61a.68.68,0,0,1,.2,0,2,2,0,0,1,1.42.66,2.14,2.14,0,0,1,.6,1.55A2,2,0,0,1,29.16,113.7Zm.06-3.07h-.07a1.09,1.09,0,0,0-.92,1.07.94.94,0,0,0,.88,1,1,1,0,0,0,1.11-.91,1.15,1.15,0,0,0-.32-.79A1,1,0,0,0,29.22,110.63Z"/><path class="cls-2" d="M34.49,125.64h0a4.28,4.28,0,0,1-4.26-4.22,4.06,4.06,0,0,1,3.3-4.12,2.57,2.57,0,0,1,.4,0,4.82,4.82,0,0,1,3.63,1.2,3.94,3.94,0,0,1,1.32,2.85,4.21,4.21,0,0,1-1.22,3A4.48,4.48,0,0,1,34.49,125.64Zm-.21-7.37H34l-.31,0a3,3,0,0,0-2.43,3.1,3.27,3.27,0,0,0,3.23,3.18,3.39,3.39,0,0,0,2.42-1,3.12,3.12,0,0,0,.92-2.29,2.88,2.88,0,0,0-1-2.1A3.77,3.77,0,0,0,34.28,118.27Z"/><path class="cls-2" d="M34.23,122.87a1.33,1.33,0,0,1-1.3-1.34,1.29,1.29,0,0,1,.36-.91,1.09,1.09,0,0,1,.72-.33h.42c.62,0,.9.71.9,1.21A1.31,1.31,0,0,1,34.23,122.87Zm-.17-1.55,0,0a.23.23,0,0,0-.07.18.33.33,0,0,0,.21.3.51.51,0,0,0,.12-.33.62.62,0,0,0,0-.18Z"/><path class="cls-2" d="M32.3,130.36a.42.42,0,0,1-.22-.05.51.51,0,0,1-.3-.46,44.56,44.56,0,0,0-.23-5,.52.52,0,0,1,.45-.58.53.53,0,0,1,.58.46c.16,1.4.21,2.8.23,4.07.41-.3.82-.58,1.23-.86l.44-.31a.53.53,0,0,1,.59,0l.32.22.88.58q-.06-.8-.06-1.68c0-.61,0-1.27.07-2a.53.53,0,0,1,.55-.48.52.52,0,0,1,.48.55c-.05.71-.07,1.34-.07,1.93a18.22,18.22,0,0,0,.17,2.56.51.51,0,0,1-.2.49.53.53,0,0,1-.54.05c-.65-.34-1.26-.75-1.86-1.14l0,0-.16.11c-.7.49-1.37.94-2,1.47A.5.5,0,0,1,32.3,130.36Z"/><path class="cls-2" d="M44.72,111.2a.51.51,0,0,1-.5-.41c-.66-3.3-1.92-4.77-4.07-4.77a4.66,4.66,0,0,0-2.59.84.53.53,0,0,1-.72-.14A.52.52,0,0,1,37,106a5.72,5.72,0,0,1,3.17-1c3.55,0,4.6,3.19,5.08,5.6a.5.5,0,0,1-.41.6Z"/><path class="cls-2" d="M43,106.59a.53.53,0,0,1-.35-.13.52.52,0,0,1,0-.73c4.47-5,15.06-15.57,18.13-18.3-1.21-1-2.21-2.05-3.64-3.51C55,81.78,52.12,78.85,46.5,73.74a.53.53,0,0,1,0-.74.52.52,0,0,1,.73,0c5.64,5.14,8.5,8.08,10.6,10.23a44.12,44.12,0,0,0,4,3.82.53.53,0,0,1,.19.4.5.5,0,0,1-.19.4c-2.21,1.82-13.77,13.29-18.49,18.6A.52.52,0,0,1,43,106.59Z"/><path class="cls-2" d="M57.74,84.11a.56.56,0,0,1-.32-.11.53.53,0,0,1-.09-.73c5.21-6.65,6.53-6.93,8.25-6.84.89,0,1.81.09,4.31-2a.51.51,0,0,1,.73.06.52.52,0,0,1-.07.73c-2.81,2.34-4,2.28-5,2.23-1.2-.06-2.23-.11-7.37,6.45A.54.54,0,0,1,57.74,84.11Z"/><path class="cls-2" d="M45.87,97H45.8a1.71,1.71,0,0,1-1.65-1.64,2.22,2.22,0,0,1,.26-1.14,1.67,1.67,0,0,1,1-.74,1.6,1.6,0,0,1,.54-.09,1.76,1.76,0,0,1,1.21,3.06A1.82,1.82,0,0,1,45.87,97Zm.07-2.58a1,1,0,0,0-.61.28,1.25,1.25,0,0,0-.15.61.68.68,0,0,0,.67.65.76.76,0,0,0,.57-.24.82.82,0,0,0,.26-.61A.84.84,0,0,0,45.94,94.46Z"/><path class="cls-2" d="M49.4,94h-.08a1.68,1.68,0,0,1-1.56-1.76,1.52,1.52,0,0,1,.79-1.32,2.33,2.33,0,0,1,.7-.28,1.37,1.37,0,0,1,.35,0,1.67,1.67,0,0,1,1.55,1.59,1.69,1.69,0,0,1-.52,1.27A1.76,1.76,0,0,1,49.4,94Zm.12-2.36h-.08a1.32,1.32,0,0,0-.39.17.48.48,0,0,0-.26.44.68.68,0,0,0,.58.7.7.7,0,0,0,.53-.22.68.68,0,0,0,.22-.51.65.65,0,0,0-.57-.59Z"/><path class="cls-2" d="M53.21,90.63a1.74,1.74,0,0,1-1.24-.5,1.82,1.82,0,0,1-.52-1.31,1.75,1.75,0,0,1,.67-1.39A2,2,0,0,1,53.25,87h.11A1.81,1.81,0,0,1,55,88.74a1.86,1.86,0,0,1-.52,1.33A1.8,1.8,0,0,1,53.21,90.63Zm.09-2.55a.87.87,0,0,0-.54.17.72.72,0,0,0-.28.57.78.78,0,0,0,.22.57.66.66,0,0,0,1,0,.78.78,0,0,0,.23-.58A.77.77,0,0,0,53.3,88.08Z"/><path class="cls-2" d="M39.69,88a.54.54,0,0,1-.31-.1,15.44,15.44,0,0,1-6.3-11.7.52.52,0,0,1,1,0A14.35,14.35,0,0,0,40,87a.52.52,0,0,1-.32.93Z"/><path class="cls-2" d="M36.91,81.21a.49.49,0,0,1-.35-.15.51.51,0,0,1,0-.73C37.65,79.17,38.86,78,40,76.89c5-4.76,10.1-9.68,10.1-16.72,0-1.43-.14-2.94-.27-4.27-.1-1.06-.18-2-.18-2.68a20.17,20.17,0,0,1,.15-2.29.5.5,0,0,1,.57-.45.52.52,0,0,1,.46.57,18.27,18.27,0,0,0-.15,2.17c0,.65.09,1.54.18,2.58.13,1.36.28,2.89.28,4.37,0,7.48-5.3,12.56-10.43,17.47-1.16,1.11-2.36,2.27-3.45,3.41A.55.55,0,0,1,36.91,81.21Z"/><path class="cls-2" d="M57.74,53.75a.63.63,0,0,1-.19,0,29.53,29.53,0,0,1-4.46-2.35c-1-.61-2.05-1.24-3.11-1.75a.53.53,0,0,1-.27-.61,10.24,10.24,0,0,1,6.22-6.76.52.52,0,0,1,.62.21,8.71,8.71,0,0,0,6.16,4,.52.52,0,0,1-.14,1,9.8,9.8,0,0,1-6.67-4.16,9.26,9.26,0,0,0-5.07,5.51c1,.5,1.89,1.06,2.79,1.6a28.12,28.12,0,0,0,4.31,2.27.52.52,0,0,1,.29.67A.5.5,0,0,1,57.74,53.75Z"/><path class="cls-2" d="M61.88,46.77a.45.45,0,0,1-.2,0,.51.51,0,0,1-.27-.68l.11-.26a6.17,6.17,0,0,0,.68-2.45,3.2,3.2,0,0,0-1.37-2.73,14.64,14.64,0,0,0-3.68,3,.52.52,0,1,1-.84-.6c.61-.85,3.57-3.48,4.52-3.48s2.41,1.82,2.41,3.76a7,7,0,0,1-.77,2.86l-.11.26A.52.52,0,0,1,61.88,46.77Z"/><path class="cls-2" d="M63.29,66.06a.52.52,0,0,1-.51-.53v-.28a22.47,22.47,0,0,0-4.16-13.19.52.52,0,0,1,.84-.61,23.47,23.47,0,0,1,4.35,13.8v.29A.52.52,0,0,1,63.29,66.06Z"/><path class="cls-2" d="M60.22,51.57A.59.59,0,0,1,60,51.5L59.16,51a18.29,18.29,0,0,1-4.52-3.25.51.51,0,0,1,0-.73.52.52,0,0,1,.73,0,17.26,17.26,0,0,0,4.27,3c.27.15.55.3.81.46a.51.51,0,0,1,.19.71A.52.52,0,0,1,60.22,51.57Z"/><path class="cls-2" d="M63,57.44c-1.78,0-1.78-1.94-1.78-3.1A21.48,21.48,0,0,1,62,49.25c.14-.57.29-1.16.41-1.74a.52.52,0,0,1,1,.21c-.12.6-.27,1.2-.41,1.78a20.47,20.47,0,0,0-.79,4.84c0,1.78.22,2.07.74,2.07,1,0,1.95-2.38,2.68-4.28a13.36,13.36,0,0,1,1.69-3.51.51.51,0,0,1,.72-.07.52.52,0,0,1,.07.73,13.73,13.73,0,0,0-1.52,3.22C65.7,54.93,64.74,57.44,63,57.44Z"/><path class="cls-2" d="M65.92,60.19c-.86,0-1.89-.4-1.89-2.28a9.21,9.21,0,0,1,.44-2.46c.11-.37.2-.72.28-1.08a.51.51,0,0,1,.61-.4.52.52,0,0,1,.4.62c-.08.38-.19.77-.29,1.14a8.35,8.35,0,0,0-.41,2.18c0,1.15.41,1.25.86,1.25,1.73,0,4.48-3.46,6-5.31l.73-.9a.52.52,0,0,1,.8.66l-.72.89C70.88,56.76,68.15,60.19,65.92,60.19Z"/><path class="cls-2" d="M69.8,62.94A1.77,1.77,0,0,1,68,61a9,9,0,0,1,1.25-4,.51.51,0,0,1,.92.46A8.2,8.2,0,0,0,69.07,61c0,.43.13.93.73.93,1.82,0,4.12-2.64,5.36-4l.46-.53a.52.52,0,0,1,.74,0,.51.51,0,0,1,0,.73l-.45.52C74.5,60.18,72.09,62.94,69.8,62.94Z"/><path class="cls-2" d="M74.14,64.82A1.81,1.81,0,0,1,72.23,63a6.55,6.55,0,0,1,1.1-2.92.51.51,0,0,1,.7-.19.52.52,0,0,1,.19.71,6,6,0,0,0-1,2.4c0,.78.85.79.88.79,1.27,0,3-2.35,3.22-2.88a.52.52,0,0,1,.38-.6.53.53,0,0,1,.63.38,1,1,0,0,1,0,.25C78.4,61.7,76.07,64.82,74.14,64.82Z"/><path class="cls-2" d="M77.91,61.43a.52.52,0,0,1-.5-.39c0-.14-3.81-14.51-11.71-14.51a5.17,5.17,0,0,0-1.64.27.52.52,0,0,1-.66-.32.51.51,0,0,1,.32-.65,5.89,5.89,0,0,1,2-.34c3.64,0,7,2.67,9.71,7.72a38,38,0,0,1,2.67,6.42,21.08,21.08,0,0,0,.43-3.81c0-4.45-6.31-12.12-12.76-12.12a11.79,11.79,0,0,0-2.91.32.51.51,0,0,1-.62-.38.52.52,0,0,1,.37-.63,13.29,13.29,0,0,1,3.16-.35c3.14,0,6.6,1.68,9.48,4.61,2.66,2.71,4.32,6,4.32,8.55C79.55,55.87,79.53,61.43,77.91,61.43Z"/><path class="cls-2" d="M60,96.85A5.57,5.57,0,0,1,55.5,95c-.22-.2-.45-.42-.7-.63a.52.52,0,0,1-.06-.73.51.51,0,0,1,.73-.06c.27.23.51.45.74.67A4.56,4.56,0,0,0,60,95.82a4.75,4.75,0,0,0,4.88-3.12,15.18,15.18,0,0,0,.72-5.44v-.1c0-1.67-.07-3.36-.14-5s-.14-3.34-.14-5a.52.52,0,1,1,1,0c0,1.66.07,3.35.14,5s.15,3.34.15,5v.1a15.87,15.87,0,0,1-.8,5.82A5.76,5.76,0,0,1,60,96.85Z"/><path class="cls-2" d="M60,93.05a2.45,2.45,0,0,1-1.33-.39.51.51,0,0,1-.15-.71.52.52,0,0,1,.71-.16A1.44,1.44,0,0,0,60,92c1.8,0,2.89-2.58,2.89-3.71,0-.3,0-.6,0-.9s0-.59,0-.89a12.43,12.43,0,0,0-.36-2.94,12.27,12.27,0,0,1-.31-2,.52.52,0,0,1,.49-.54.53.53,0,0,1,.55.49,10.89,10.89,0,0,0,.28,1.88A13.8,13.8,0,0,1,64,86.52c0,.31,0,.61,0,.92s0,.58,0,.87a5.86,5.86,0,0,1-1,2.87A3.56,3.56,0,0,1,60,93.05Z"/><path class="cls-2" d="M77.79,89.9c-1.61,0-3.23-.07-4.8-.12l-2.14-.08a.5.5,0,0,1-.5-.46c-.33-3.42-.44-11-.54-17.7,0-3.36-.09-6.53-.16-8.94a.51.51,0,0,1,.5-.53.51.51,0,0,1,.53.5c.07,2.42.12,5.6.17,9,.09,6.39.2,13.59.49,17.15l1.68.06c1.38.05,2.8.1,4.2.12l0-.34c-.06-.64-.12-1.29-.15-2-.07-2.13-.13-4.3-.19-6.39-.07-2.85-.15-5.8-.28-8.7-.14-3.23-.24-6.1-.3-8.77a.51.51,0,0,1,.51-.52.52.52,0,0,1,.53.5c0,2.66.15,5.52.29,8.75.13,2.9.21,5.86.29,8.71,0,2.09.11,4.25.19,6.38,0,.63.08,1.27.14,1.89,0,.31.06.62.08.92a.53.53,0,0,1-.14.4A.51.51,0,0,1,77.79,89.9Z"/><path class="cls-2" d="M70.64,91.5a.51.51,0,0,1-.5-.38.51.51,0,0,1,.36-.63A53.13,53.13,0,0,1,76,90.07c.23,0,.46,0,.68,0a5.89,5.89,0,0,0,.94,0,.52.52,0,0,1,.56.48.54.54,0,0,1-.48.56,9.64,9.64,0,0,1-1.08,0l-.62,0c-.41,0-4.54.2-5.19.37A.3.3,0,0,1,70.64,91.5Z"/><path class="cls-2" d="M74.6,94.13a2.26,2.26,0,0,1-1.2-.6,21.1,21.1,0,0,0-1.84-1.21.51.51,0,0,1-.18-.71.5.5,0,0,1,.7-.18c.9.53,1.49.95,1.92,1.26.23.16.46.33.58.39a7.05,7.05,0,0,0,.49-.66c.28-.41.66-1,1.22-1.67a.5.5,0,0,1,.72-.09.51.51,0,0,1,.09.73c-.54.68-.91,1.22-1.18,1.61-.48.7-.72,1-1.16,1.12Z"/><path class="cls-2" d="M75.5,110.56a8.13,8.13,0,0,1-5.83-2.49,8.27,8.27,0,0,1-2.41-6,7.82,7.82,0,0,1,5.83-7.33,8.2,8.2,0,0,1,1-.21,7.59,7.59,0,0,1,1.17-.09h.09a8.28,8.28,0,0,1,5.88,2.34,8,8,0,0,1,2.35,5.7,8.09,8.09,0,0,1-8,8ZM73.35,95.78a6.77,6.77,0,0,0-5,6.35,7.23,7.23,0,0,0,2.11,5.22,7,7,0,0,0,12.13-4.83,6.93,6.93,0,0,0-2-5,7.24,7.24,0,0,0-5.23-2,9,9,0,0,0-1,.09A8.77,8.77,0,0,0,73.35,95.78Z"/><path class="cls-2" d="M71.08,113.66h0c-2.8-.1-4.81-2.76-5.28-5.21a.52.52,0,0,1,1-.2c.39,2.06,2,4.29,4.3,4.38a.52.52,0,0,1,0,1Z"/><path class="cls-2" d="M80.78,124.73a.52.52,0,0,1-.52-.5,19.89,19.89,0,0,0-.17-2.08L79.94,121l-.12-.9a.51.51,0,0,1,.41-.58c1-.18,1.91-.31,2.63-.4l1-.12-.12-.6c-.09-.48-.19-1-.27-1.43a.53.53,0,0,1,.1-.41.55.55,0,0,1,.37-.2c1-.07,2-.2,3-.32H87l1.33-.16c-.08-.56-.15-1-.2-1.5s-.1-.84-.14-1.26a.51.51,0,0,1,.45-.55l.64-.09c.84-.1,1.71-.19,2.54-.27l.41,0c-.15-.84-.26-1.65-.35-2.36,0-.29-.07-.59-.11-.88a.55.55,0,0,1,.12-.39.51.51,0,0,1,.35-.19l1.08-.09c.62,0,1.26-.09,1.89-.17a13.88,13.88,0,0,0,1.71-.31.52.52,0,0,1,.26,1,16.21,16.21,0,0,1-1.85.34c-.64.08-1.3.13-1.93.18l-.54,0c0,.11,0,.23,0,.35.1.84.24,1.84.45,2.83a.51.51,0,0,1-.09.41.49.49,0,0,1-.36.21l-1,.1c-.83.08-1.68.17-2.52.27l-.13,0c0,.24.05.48.08.72.08.59.17,1.23.29,2a.52.52,0,0,1-.1.4.57.57,0,0,1-.36.2c-.62.06-1.24.14-1.86.22H87.1c-.83.1-1.67.21-2.52.29,0,.28.11.56.17.85s.15.78.22,1.16a.48.48,0,0,1-.09.4.5.5,0,0,1-.36.21l-.24,0-1.3.15c-.58.07-1.31.17-2.07.3,0,.14,0,.27,0,.41.06.39.11.77.16,1.15.1.86.16,1.53.18,2.18A.52.52,0,0,1,80.78,124.73Z"/><path class="cls-2" d="M83.06,52.76a.51.51,0,0,1-.51-.52c0-1,0-1.93,0-2.9a.51.51,0,0,1,.49-.49c.62,0,1.3-.05,2.13-.05h1c0-.21,0-.41,0-.61,0-.49-.07-1-.1-1.47a.53.53,0,0,1,.55-.54c1,.05,2,.05,3,.05h1.41c0-.57,0-1.06,0-1.52s0-.84,0-1.26a.52.52,0,0,1,.51-.5c1.07,0,2.15,0,3.19,0h.43c0-.86-.06-1.67-.06-2.38v-.9a.52.52,0,0,1,.16-.37.57.57,0,0,1,.37-.14l1.08,0c.69,0,1.41.07,2.1.06,0-.39,0-.79.05-1.17s0-1,0-1.46v-.2a.54.54,0,0,1,.44-.53,10.82,10.82,0,0,1,1.48-.08h.74a9.07,9.07,0,0,0,1.37-.08.51.51,0,0,1,.59.42.52.52,0,0,1-.42.6,10.29,10.29,0,0,1-1.54.1h-.74L100,37c0,.42,0,.85-.06,1.27s-.05,1-.05,1.48v.13a.52.52,0,0,1-.5.52c-.89,0-1.8,0-2.67,0l-.54,0v.36c0,.84,0,1.84.11,2.86a.53.53,0,0,1-.14.4.49.49,0,0,1-.39.16l-1,0c-.87,0-1.77,0-2.66,0v.73c0,.59,0,1.24,0,2a.54.54,0,0,1-.15.38.49.49,0,0,1-.38.16c-1.47,0-3,0-4.46,0l.06.87c0,.39.06.79.08,1.18a.49.49,0,0,1-.14.38.5.5,0,0,1-.38.17H85.21c-.61,0-1.13,0-1.6,0,0,.79,0,1.6,0,2.38A.52.52,0,0,1,83.06,52.76Z"/><path class="cls-2" d="M117.82,120.86h0a.5.5,0,0,1-.49-.54c.08-1.83.08-3.57.08-5.42v-.06a.52.52,0,0,1,.52-.52.52.52,0,0,1,.52.52v.06c0,1.86,0,3.61-.09,5.47A.52.52,0,0,1,117.82,120.86Z"/><path class="cls-2" d="M120.13,120.6a.52.52,0,0,1-.52-.52v-5.43a.52.52,0,1,1,1,0v5.43A.52.52,0,0,1,120.13,120.6Z"/><path class="cls-2" d="M115.69,117.12a.52.52,0,1,1,0-1c.74,0,1.5,0,2.24-.06,1.17,0,2.44-.08,3.47,0a.52.52,0,0,1,.49.54.52.52,0,0,1-.54.49c-1,0-2.23,0-3.38,0C117.22,117.09,116.44,117.12,115.69,117.12Z"/><path class="cls-2" d="M116,119.16a.52.52,0,0,1,0-1l1.88-.11c1.18-.08,2.41-.16,3.65-.16a.52.52,0,0,1,.52.52.52.52,0,0,1-.52.52c-1.21,0-2.37.07-3.59.15l-1.89.11Z"/><path class="cls-2" d="M126.34,119.52a.52.52,0,0,1-.52-.52c0-1.21,0-2.38.07-3.44-.59.3-1.21.61-1.81.89a.52.52,0,1,1-.44-.94c.66-.3,1.33-.64,2-1l.59-.29a.54.54,0,0,1,.52,0,.51.51,0,0,1,.23.45c0,1.25-.1,2.74-.1,4.27A.52.52,0,0,1,126.34,119.52Z"/><path class="cls-2" d="M92,102.13h0a.52.52,0,0,1-.49-.54c.09-1.84.09-3.58.09-5.42V96.1a.52.52,0,0,1,1,0v.07c0,1.85,0,3.6-.09,5.47A.52.52,0,0,1,92,102.13Z"/><path class="cls-2" d="M94.33,101.87a.51.51,0,0,1-.51-.51V95.93a.52.52,0,1,1,1,0v5.43A.51.51,0,0,1,94.33,101.87Z"/><path class="cls-2" d="M89.9,98.4a.52.52,0,0,1-.52-.52.52.52,0,0,1,.52-.52c.73,0,1.5,0,2.24-.06,1.16,0,2.41-.08,3.46,0a.51.51,0,0,1,.49.54.53.53,0,0,1-.54.5c-1,0-2.23,0-3.38,0C91.42,98.37,90.65,98.4,89.9,98.4Z"/><path class="cls-2" d="M90.16,100.44a.52.52,0,0,1,0-1L92,99.29c1.18-.08,2.41-.15,3.65-.15a.52.52,0,1,1,0,1c-1.21,0-2.36.08-3.58.15-.63,0-1.26.09-1.89.12Z"/><path class="cls-2" d="M100.55,100.79a.52.52,0,0,1-.52-.52c0-1.2,0-2.38.07-3.43l-1.82.89a.53.53,0,0,1-.69-.25.52.52,0,0,1,.25-.69c.66-.31,1.34-.65,2-1l.59-.3a.52.52,0,0,1,.51,0,.55.55,0,0,1,.24.46c0,1.25-.11,2.73-.11,4.26A.51.51,0,0,1,100.55,100.79Z"/><path class="cls-2" d="M126.11,51.45h0a.52.52,0,0,1-.49-.54c.09-1.84.09-3.58.09-5.42v-.06a.52.52,0,1,1,1,0v.06c0,1.77,0,3.6-.09,5.47A.51.51,0,0,1,126.11,51.45Z"/><path class="cls-2" d="M128.41,51.2a.51.51,0,0,1-.51-.52V45.25a.52.52,0,1,1,1,0v5.43A.52.52,0,0,1,128.41,51.2Z"/><path class="cls-2" d="M124,47.72a.52.52,0,1,1,0-1c.73,0,1.49,0,2.24-.06,1.16,0,2.42-.08,3.46,0a.5.5,0,0,1,.49.54.52.52,0,0,1-.54.49c-1-.05-2.23,0-3.38,0C125.5,47.69,124.73,47.72,124,47.72Z"/><path class="cls-2" d="M124.24,49.76a.51.51,0,0,1-.51-.49.5.5,0,0,1,.49-.54l1.87-.11c1.18-.08,2.41-.16,3.65-.16a.52.52,0,1,1,0,1c-1.21,0-2.36.08-3.59.16l-1.88.11Z"/><path class="cls-2" d="M134.63,50.12a.52.52,0,0,1-.52-.52c0-1.21,0-2.38.07-3.44-.6.3-1.21.61-1.82.89a.52.52,0,1,1-.44-.94c.66-.3,1.33-.64,2-1l.6-.29a.52.52,0,0,1,.51,0,.54.54,0,0,1,.24.45c-.06,1.25-.11,2.74-.11,4.27A.52.52,0,0,1,134.63,50.12Z"/><path class="cls-2" d="M36.53,53.58h0A.52.52,0,0,1,36,53c.09-1.84.09-3.58.09-5.42v-.06a.52.52,0,0,1,.52-.52.52.52,0,0,1,.52.52v.06c0,1.77,0,3.6-.09,5.47A.52.52,0,0,1,36.53,53.58Z"/><path class="cls-2" d="M38.84,53.33a.52.52,0,0,1-.52-.52V47.38a.52.52,0,1,1,1,0v5.43A.51.51,0,0,1,38.84,53.33Z"/><path class="cls-2" d="M34.4,49.85a.52.52,0,1,1,0-1c.73,0,1.5,0,2.24-.06s1.54-.06,2.31-.06c.42,0,.8,0,1.15,0a.52.52,0,0,1,.5.54.52.52,0,0,1-.55.49c-1,0-2.22,0-3.37,0C35.93,49.82,35.15,49.85,34.4,49.85Z"/><path class="cls-2" d="M34.67,51.89a.52.52,0,0,1,0-1l1.87-.11c1.18-.08,2.41-.16,3.66-.16a.52.52,0,1,1,0,1c-1.22,0-2.37.08-3.59.16l-1.89.11Z"/><path class="cls-2" d="M45.05,52.25a.52.52,0,0,1-.52-.52c0-1.21,0-2.38.07-3.44-.6.3-1.21.61-1.82.89a.52.52,0,1,1-.43-.94c.65-.31,1.33-.64,2-1l.59-.29a.52.52,0,0,1,.51,0,.5.5,0,0,1,.24.45c-.05,1.25-.1,2.73-.1,4.27A.53.53,0,0,1,45.05,52.25Z"/><path class="cls-2" d="M49.36,138.07h-.1a2.43,2.43,0,0,1-2.41-2.31,2.61,2.61,0,0,1,1.91-2.63,2.8,2.8,0,0,1,.58-.08h0a2.53,2.53,0,0,1,2.52,2.25,2.65,2.65,0,0,1-.72,1.91,2.35,2.35,0,0,1-1.62.85Zm0-4a1.15,1.15,0,0,0-.33,0,1.57,1.57,0,0,0-1.14,1.58A1.37,1.37,0,0,0,49.28,137h.21a1.42,1.42,0,0,0,.9-.51,1.63,1.63,0,0,0,.46-1.16A1.5,1.5,0,0,0,49.36,134.09Z"/><path class="cls-2" d="M83.55,136.25h-.06a2.15,2.15,0,0,1-2.12-2A2.59,2.59,0,0,1,82.43,132a1.8,1.8,0,0,1,.79-.28h0a2.56,2.56,0,0,1,.39,0,2.21,2.21,0,0,1,2.17,1.95,2.55,2.55,0,0,1-.69,1.88A2.16,2.16,0,0,1,83.55,136.25Zm-.5-3.39a1.55,1.55,0,0,0-.65,1.28,1.14,1.14,0,0,0,1.12,1.07,1.19,1.19,0,0,0,.87-.38,1.49,1.49,0,0,0,.41-1.08,1.17,1.17,0,0,0-1.15-1H83.4A1.26,1.26,0,0,0,83.05,132.86Z"/><path class="cls-2" d="M54.67,114.68h-.16a2.27,2.27,0,0,1-2.08-2.14,2.37,2.37,0,0,1,2.1-2.56h.17a2.46,2.46,0,0,1,1.13.3,2.28,2.28,0,0,1,.52,3.73A2.43,2.43,0,0,1,54.67,114.68Zm0-3.67h0a1.32,1.32,0,0,0-1.12,1.48,1.23,1.23,0,0,0,1.11,1.15,1.38,1.38,0,0,0,1.06-.39,1.25,1.25,0,0,0-.31-2.07,1.38,1.38,0,0,0-.67-.17Z"/><path class="cls-2" d="M46.48,128.74a.52.52,0,0,1-.44-.24.54.54,0,0,1,0-.52c.79-1.48,1.62-3,2.42-4.4a85.53,85.53,0,0,0,4.94-9.74.52.52,0,1,1,1,.38,84.51,84.51,0,0,1-5,9.87c-.65,1.17-1.32,2.37-2,3.57L63,126.89l-6.48-10.53-.25-.33a3.75,3.75,0,0,1-.9-1.85.52.52,0,1,1,1-.12,2.77,2.77,0,0,0,.7,1.34l.27.37,0,0,7,11.29a.53.53,0,0,1,0,.52.51.51,0,0,1-.43.27l-17.43.86Z"/><path class="cls-2" d="M58.3,119.07c-.82,0-1.67,0-2.49,0-1.25,0-2.61-.08-3.7,0a.51.51,0,0,1-.54-.49.52.52,0,0,1,.5-.54c.39,0,.8,0,1.25,0,.84,0,1.7,0,2.53,0s1.65.06,2.45.06a.52.52,0,1,1,0,1Z"/><path class="cls-2" d="M49.52,123.51A.52.52,0,0,1,49,123a.51.51,0,0,1,.5-.53c3.58-.09,7.28-.18,11.09-.36a.52.52,0,0,1,.54.49.53.53,0,0,1-.49.55C56.82,123.34,53.11,123.43,49.52,123.51Z"/><path class="cls-2" d="M53.14,121.59a.69.69,0,0,1-.47-.16.71.71,0,0,1-.22-.53v-.05a.49.49,0,0,1,.15-.43,1,1,0,0,1,.72-.33.62.62,0,0,1,.55.32.58.58,0,0,1,.05.76l0,.07a.5.5,0,0,1-.47.32h-.07Zm.18-.43,0,0Zm.46-.48Z"/><path class="cls-2" d="M56.71,121.42c-.24,0-.91-.17-.91-.7a.83.83,0,0,1,.13-.42.54.54,0,0,1,.51-.4,1.07,1.07,0,0,1,.81.24.56.56,0,0,1,.15.37v.11a.76.76,0,0,1-.18.61A.69.69,0,0,1,56.71,121.42Zm-.1-1h.12l0,0Zm-.69,0Z"/><path class="cls-2" d="M54.72,117a.63.63,0,0,1-.57-.37,1.16,1.16,0,0,1-.09-.49.5.5,0,0,1,.33-.48.62.62,0,0,1,.65-.05l.1,0a.53.53,0,0,1,.32.48A.82.82,0,0,1,54.72,117Z"/><path class="cls-2" d="M50.83,126.46a.88.88,0,0,1-.79-.75.65.65,0,0,1,.31-.55.5.5,0,0,1,.17-.11.64.64,0,0,1,.48-.22.71.71,0,0,1,.59.34.58.58,0,0,1,0,.78.64.64,0,0,1,0,.07.55.55,0,0,1-.35.3A.88.88,0,0,1,50.83,126.46Zm.3-.12Zm.36-.89h0Z"/><path class="cls-2" d="M55.2,126.35a.83.83,0,0,1-.94-.83,1,1,0,0,1,.3-.67.57.57,0,0,1,.37-.16h.18c.13,0,.78,0,.78.92a.57.57,0,0,1-.15.42A.58.58,0,0,1,55.2,126.35Zm-.1-.26Zm-.18-.46h0Z"/><path class="cls-2" d="M59.18,126.29a.77.77,0,0,1-.8-.7.83.83,0,0,1,.13-.41.48.48,0,0,1,.14-.25,1.21,1.21,0,0,1,.84-.4.75.75,0,0,1,.76.77A1,1,0,0,1,60,126,1.1,1.1,0,0,1,59.18,126.29Zm0-1h.09a.12.12,0,0,0-.08,0S59.21,125.28,59.21,125.3Zm-.72,0Z"/><path class="cls-2" d="M132,64.89h-.16a2.28,2.28,0,0,1-2.08-2.15,2.35,2.35,0,0,1,2.1-2.55H132a2.46,2.46,0,0,1,1.13.3,2.28,2.28,0,0,1,.52,3.73A2.43,2.43,0,0,1,132,64.89Zm0-3.67h0a1.32,1.32,0,0,0-1.12,1.48,1.23,1.23,0,0,0,1.11,1.15,1.38,1.38,0,0,0,1.06-.39,1.25,1.25,0,0,0-.31-2.07,1.38,1.38,0,0,0-.67-.17Z"/><path class="cls-2" d="M123.78,79a.52.52,0,0,1-.44-.24.54.54,0,0,1,0-.52c.79-1.48,1.62-3,2.42-4.39a85.67,85.67,0,0,0,4.94-9.75.52.52,0,1,1,1,.39,85.16,85.16,0,0,1-5,9.86c-.65,1.17-1.33,2.37-2,3.57l15.65-.77-6.48-10.53-.25-.33a3.75,3.75,0,0,1-.9-1.85.52.52,0,0,1,1-.12,2.77,2.77,0,0,0,.7,1.34l.27.37,0,0,6.95,11.3a.52.52,0,0,1,0,.51.49.49,0,0,1-.43.27L123.81,79Z"/><path class="cls-2" d="M135.6,69.29c-.82,0-1.67,0-2.49-.06-1.25,0-2.61-.08-3.7,0a.52.52,0,1,1,0-1l1.25,0c.84,0,1.7,0,2.53,0s1.65.06,2.45.06a.52.52,0,0,1,.52.52A.52.52,0,0,1,135.6,69.29Z"/><path class="cls-2" d="M126.82,73.72a.52.52,0,0,1,0-1c3.41-.08,7.27-.17,11.09-.36a.52.52,0,0,1,.54.5.53.53,0,0,1-.49.54C134.1,73.55,130.24,73.64,126.82,73.72Z"/><path class="cls-2" d="M130.44,71.8a.65.65,0,0,1-.69-.68v-.06a.5.5,0,0,1,.15-.43,1,1,0,0,1,.72-.33.64.64,0,0,1,.55.32.6.6,0,0,1,.17.41.58.58,0,0,1-.12.35l0,.07a.5.5,0,0,1-.47.32h-.07Zm.18-.43,0,0Zm.46-.48Z"/><path class="cls-2" d="M134,71.63c-.24,0-.91-.16-.91-.7a.91.91,0,0,1,.13-.42.54.54,0,0,1,.51-.4,1,1,0,0,1,.81.25.51.51,0,0,1,.15.36v.11a.76.76,0,0,1-.18.61A.69.69,0,0,1,134,71.63Zm-.1-1H134l0,0Zm-.69,0Z"/><path class="cls-2" d="M132,67.23a.63.63,0,0,1-.57-.37,1.16,1.16,0,0,1-.09-.49.51.51,0,0,1,.33-.48.62.62,0,0,1,.65,0l.1,0a.53.53,0,0,1,.32.48A.82.82,0,0,1,132,67.23Z"/><path class="cls-2" d="M128.13,76.67a.87.87,0,0,1-.79-.75.66.66,0,0,1,.31-.55.71.71,0,0,1,.17-.11.64.64,0,0,1,.48-.21.71.71,0,0,1,.59.33.63.63,0,0,1,.17.42.65.65,0,0,1-.13.37s0,0,0,.06a.5.5,0,0,1-.35.3A.88.88,0,0,1,128.13,76.67Zm.3-.12Zm.36-.89Z"/><path class="cls-2" d="M132.5,76.56a.83.83,0,0,1-.94-.82,1,1,0,0,1,.3-.68.51.51,0,0,1,.37-.15h.18c.13,0,.78,0,.78.92a.57.57,0,0,1-.15.42A.58.58,0,0,1,132.5,76.56Zm-.1-.25Zm-.18-.47h0Z"/><path class="cls-2" d="M136.48,76.5a.77.77,0,0,1-.8-.69.83.83,0,0,1,.13-.42.45.45,0,0,1,.14-.24,1.18,1.18,0,0,1,.84-.41.75.75,0,0,1,.76.77,1,1,0,0,1-.29.68A1.1,1.1,0,0,1,136.48,76.5Zm0-1h.09a.2.2,0,0,0-.08,0S136.51,75.49,136.51,75.51Zm-.72,0Z"/><path class="cls-2" d="M92.89,126.77h-.23a2.72,2.72,0,0,1-2.53-2.69,2.86,2.86,0,0,1,2.54-2.94h.07a3.08,3.08,0,0,1,.54,0,2.93,2.93,0,0,1,2.7,2.74,2.73,2.73,0,0,1-.89,2.06A3.2,3.2,0,0,1,92.89,126.77Zm.27-4.64-.31,0h-.08A1.81,1.81,0,0,0,91.16,124a1.71,1.71,0,0,0,1.57,1.69,2.17,2.17,0,0,0,1.64-.59,1.74,1.74,0,0,0,.58-1.3,1.89,1.89,0,0,0-1.73-1.71Z"/><path class="cls-2" d="M89.62,131.53a.51.51,0,0,1-.49-.36,2.48,2.48,0,0,1-.12-.77,3.13,3.13,0,0,1,1.76-2.74c.59-.4.92-.64.92-1.06,0,0,0-.09,0-.14a.52.52,0,0,1,.44-.58.51.51,0,0,1,.58.44,1.32,1.32,0,0,1,0,.28c0,1-.73,1.48-1.37,1.92s-1.3.87-1.31,1.86a29.27,29.27,0,0,1,5.67-.5A3.86,3.86,0,0,0,94,127.17a.56.56,0,0,1-.27-.46,2.83,2.83,0,0,1,0-.41,1.48,1.48,0,0,0,0-.27.52.52,0,1,1,1,0c0,.14,0,.29,0,.41a4.86,4.86,0,0,1,2,3.89v.07a.51.51,0,0,1-.51.51,28.55,28.55,0,0,0-6.51.6A.3.3,0,0,1,89.62,131.53Z"/><path class="cls-2" d="M98.13,121.42H98a3.49,3.49,0,0,1-3.2-3.66,3.55,3.55,0,0,1,3.29-3.51h.31a3.78,3.78,0,0,1,2.63,1.39,3.24,3.24,0,0,1,.72,2.06,3.56,3.56,0,0,1-1.1,2.64A3.66,3.66,0,0,1,98.13,121.42Zm0-6.14h-.06a2.51,2.51,0,0,0-2.29,2.49A2.47,2.47,0,0,0,98,120.38a2.61,2.61,0,0,0,1.89-.77,2.57,2.57,0,0,0,.79-1.88,2.22,2.22,0,0,0-.48-1.41,2.78,2.78,0,0,0-1.91-1Z"/><path class="cls-2" d="M95.26,123.56a.55.55,0,0,1-.37-.15.52.52,0,0,1,0-.73A4.37,4.37,0,0,1,96,122c.57-.3.82-.45.86-.95a.51.51,0,0,1,.56-.46.5.5,0,0,1,.47.56,2.08,2.08,0,0,1-1.41,1.76,3.27,3.27,0,0,0-.81.54A.53.53,0,0,1,95.26,123.56Z"/><path class="cls-2" d="M97.53,126.3c-.42,0-.82,0-1.21,0a.52.52,0,0,1-.49-.54.52.52,0,0,1,.54-.49c.37,0,.75,0,1.16,0,1.15,0,2.32-.06,3.45-.12l.69,0c0-.1,0-.2,0-.29a3.25,3.25,0,0,0-.54-2.08,1.93,1.93,0,0,0-.77-.45c-.52-.22-1.22-.51-1.22-1.27,0-.08,0-.15,0-.23s0-.11,0-.17a.52.52,0,1,1,1,0,1.77,1.77,0,0,1,0,.23V121c0,.09.39.23.58.31a2.78,2.78,0,0,1,1.19.78,4.22,4.22,0,0,1,.75,2.71c0,.22,0,.45,0,.68v.12a.51.51,0,0,1-.5.5l-1.16.06C99.89,126.23,98.71,126.3,97.53,126.3Z"/><path class="cls-2" d="M98.62,123.76a2,2,0,0,1-2.07-1.66.52.52,0,0,1,.47-.56.51.51,0,0,1,.56.47c0,.43.57.71,1,.71s1.09-.36,1.12-.54a.53.53,0,0,1,.6-.43.52.52,0,0,1,.42.6C100.61,123.26,99.27,123.76,98.62,123.76Z"/><path class="cls-2" d="M92.92,128.61a1.63,1.63,0,0,1-1.44-.78.52.52,0,0,1,.17-.71.51.51,0,0,1,.71.18.61.61,0,0,0,.56.27,1.21,1.21,0,0,0,1-.53.51.51,0,0,1,.9.5A2.24,2.24,0,0,1,92.92,128.61Z"/><path class="cls-2" d="M106.58,124.75h-.11a3,3,0,0,1-2.85-2.76,3.08,3.08,0,0,1,3.11-3.16,3,3,0,0,1,2.93,3,2.88,2.88,0,0,1-.91,2.07A3.07,3.07,0,0,1,106.58,124.75Zm.09-4.88-.33,0a2,2,0,0,0-1.68,2.07,1.94,1.94,0,0,0,1.85,1.75,2.07,2.07,0,0,0,1.52-.58,1.86,1.86,0,0,0,.59-1.33,1.92,1.92,0,0,0-1.91-1.93Z"/><path class="cls-2" d="M102.8,129.67a.52.52,0,0,1-.48-.33,2.26,2.26,0,0,1-.17-.85c0-1.69,1.21-2.19,2.1-2.55s1-.46,1-.81a2.81,2.81,0,0,0-.18-.74l1-.33-.49.16.49-.16a3.53,3.53,0,0,1,.23,1.07c0,1.09-.91,1.47-1.64,1.77-.9.37-1.45.64-1.45,1.59v0a29.18,29.18,0,0,1,6.74-.92c-.09-.76-.55-.91-1.23-1.12s-1.52-.49-1.52-1.59a2.62,2.62,0,0,1,.14-.82.53.53,0,0,1,.66-.33.52.52,0,0,1,.32.66,1.73,1.73,0,0,0-.08.49c0,.3.11.38.8.6a2.29,2.29,0,0,1,2,2.39,2.62,2.62,0,0,1,0,.28.52.52,0,0,1-.51.46,28,28,0,0,0-7.52,1Z"/><path class="cls-2" d="M106.28,126.63a1.6,1.6,0,0,1-1.06-.39.52.52,0,0,1,.67-.79.56.56,0,0,0,.39.15,1.19,1.19,0,0,0,.86-.45.52.52,0,0,1,.8.67A2.23,2.23,0,0,1,106.28,126.63Z"/><path class="cls-2" d="M91.56,135.4a.54.54,0,0,1-.36-.14.52.52,0,0,1-.16-.37v-2a.52.52,0,0,1,.52-.52.52.52,0,0,1,.52.52v1.45c2.31-.14,4.63-.26,7-.39s5-.26,7.47-.41c0-.25,0-.51,0-.79,0-.65,0-1.28.1-2a.53.53,0,0,1,.56-.47.52.52,0,0,1,.48.56c-.06.67-.11,1.28-.11,1.89a8.72,8.72,0,0,0,.08,1.2.52.52,0,0,1-.11.4.52.52,0,0,1-.37.19c-2.66.16-5.38.31-8,.45s-5,.26-7.49.41Z"/><path class="cls-2" d="M99.78,134.58a.52.52,0,0,1-.52-.46,45.5,45.5,0,0,1-.18-4.93.52.52,0,1,1,1,0,43.33,43.33,0,0,0,.18,4.82.52.52,0,0,1-.46.57Z"/><path class="cls-2" d="M133.44,93.49h-.19A4.41,4.41,0,0,1,129,89.37a5,5,0,0,1,3.79-5,3.86,3.86,0,0,1,.89-.1,4.79,4.79,0,0,1,4.54,4.62,4.4,4.4,0,0,1-1.36,3.27A5,5,0,0,1,133.44,93.49Zm.19-8.22a2.57,2.57,0,0,0-.62.08,3.91,3.91,0,0,0-3,4,3.4,3.4,0,0,0,3.28,3.14,4,4,0,0,0,2.83-1.07,3.4,3.4,0,0,0,1-2.52,3.78,3.78,0,0,0-3.52-3.59Z"/><path class="cls-2" d="M133.4,90.19a1,1,0,0,1-1-1,1,1,0,0,1,0-.29v0c0-.39.31-.78,1-.78a1.17,1.17,0,0,1,.79.27,1,1,0,0,1,.3.7A1.16,1.16,0,0,1,133.4,90.19Z"/><path class="cls-2" d="M131.52,99a.59.59,0,0,1-.23,0,.52.52,0,0,1-.29-.47V92.91a.52.52,0,0,1,.52-.52.52.52,0,0,1,.52.52v4.5c.62-.45,1.2-.84,1.78-1.19a.51.51,0,0,1,.57,0l.5.36.6.43c-.05-1.5-.05-3-.05-4.48a.52.52,0,0,1,1,0c0,1.8,0,3.67.1,5.48a.51.51,0,0,1-.26.48.52.52,0,0,1-.55,0l-1.47-1-.23-.16c-.69.44-1.41,1-2.22,1.58A.56.56,0,0,1,131.52,99Z"/><path class="cls-2" d="M113.06,94.05a.54.54,0,0,1-.27-.07c-1.08-.66-2.1-1.43-3.09-2.17L108.6,91a.52.52,0,1,1,.61-.83c.38.27.75.55,1.11.83.85.63,1.73,1.29,2.63,1.87l2.53-3a.5.5,0,0,1,.72-.06.51.51,0,0,1,.07.72l-2.81,3.34A.52.52,0,0,1,113.06,94.05Z"/><path class="cls-2" d="M109.23,98.89a.52.52,0,0,1-.51-.44c-.15-1-.33-2-.51-2.92-.22-1.24-.46-2.53-.63-3.79a4.14,4.14,0,0,0-.09-.46.51.51,0,1,1,1-.24,3.82,3.82,0,0,1,.11.55c.18,1.25.41,2.52.63,3.75.15.82.3,1.65.44,2.49,2.2-.11,4.31-.13,6.11-.13h5.69a44,44,0,0,1,.6-6.81.51.51,0,0,1,.6-.41.52.52,0,0,1,.42.6,44.32,44.32,0,0,0-.59,7.15.52.52,0,0,1-.52.5c-1.19,0-2.38,0-3.57,0h-2.63c-1.91,0-4.18,0-6.52.15Z"/><path class="cls-2" d="M107.62,91.72h-.08a2,2,0,0,1-1.94-1.85,2.28,2.28,0,0,1,1.07-2,1.81,1.81,0,0,1,.84-.26,2.24,2.24,0,0,1,1.63.62,2,2,0,0,1,.64,1.4,2.07,2.07,0,0,1-.65,1.48A2.14,2.14,0,0,1,107.62,91.72Zm0-3.08h0a.59.59,0,0,0-.33.1,1.25,1.25,0,0,0-.6,1.07.94.94,0,0,0,1,.87,1.11,1.11,0,0,0,.83-.32,1,1,0,0,0,.33-.73.93.93,0,0,0-.31-.66A1.24,1.24,0,0,0,107.61,88.64Z"/><path class="cls-2" d="M119,93.8a.56.56,0,0,1-.37-.15,36.57,36.57,0,0,1-2.54-3,.46.46,0,0,1-.21,0h-.18a1.85,1.85,0,0,1-.52-3.57,2.3,2.3,0,0,1,1-.16,1.75,1.75,0,0,1,1.63,1.82,1.87,1.87,0,0,1-.75,1.48c.63.79,1.25,1.56,1.92,2.27a21.45,21.45,0,0,1,2.38-1.79l.55-.39a.52.52,0,0,1,.72.13.51.51,0,0,1-.13.72l-.56.39a18.65,18.65,0,0,0-2.62,2A.48.48,0,0,1,119,93.8Zm-3.13-4.12.15,0,.14-.07a.94.94,0,0,0,.66-.82.76.76,0,0,0-.68-.8,1.35,1.35,0,0,0-.6.1.82.82,0,0,0,.24,1.57Z"/><path class="cls-2" d="M123.1,91.63H123a2.09,2.09,0,0,1,.13-4.17,2.1,2.1,0,0,1,1.51.59,2,2,0,0,1,0,3A2.17,2.17,0,0,1,123.1,91.63Zm.06-3.13h0a.64.64,0,0,0-.2,0,1,1,0,0,0-.73,1,1,1,0,0,0,.84,1,1.11,1.11,0,0,0,.82-.32,1,1,0,0,0,.33-.73,1,1,0,0,0-.3-.75A1.05,1.05,0,0,0,123.16,88.5Z"/><path class="cls-2" d="M112.77,81.18a2.28,2.28,0,0,1-2.37-2,2.55,2.55,0,0,1,.69-1.93,2.23,2.23,0,0,1,1.7-.72,2,2,0,0,1,.75.15,1.76,1.76,0,0,1,.84.59,2.61,2.61,0,0,1,.6,1.69,2.35,2.35,0,0,1-2.08,2.24Zm0-3.64a1.23,1.23,0,0,0-.89.4,1.55,1.55,0,0,0-.41,1.14,1.29,1.29,0,0,0,1.41,1.07A1.35,1.35,0,0,0,114,78.91a1.68,1.68,0,0,0-.38-1,.78.78,0,0,0-.4-.27,1.42,1.42,0,0,0-.41-.08Z"/><path class="cls-2" d="M96.46,66.53a.52.52,0,0,1-.51-.45l0-.26c-.17-1.3-.35-2.65-.6-4a.52.52,0,0,1,.1-.4.5.5,0,0,1,.36-.21c.75-.08,1.52-.21,2.26-.33l.85-.13a71.12,71.12,0,0,1-4.72-5.91c-1.88,1.9-3.81,3.85-5.81,5.7h.4l2.33-.05a.52.52,0,0,1,.39.17.55.55,0,0,1,.13.41l-.12,1c-.16,1.29-.32,2.64-.55,3.93a.52.52,0,0,1-1-.18c.23-1.27.39-2.59.54-3.87,0-.14,0-.28.05-.42l-1.71.05-1.8,0a.53.53,0,0,1-.49-.32.52.52,0,0,1,.13-.58c2.48-2.23,4.87-4.64,7.17-7l0,0a.49.49,0,0,1,.41-.15.52.52,0,0,1,.38.21,66.47,66.47,0,0,0,5.67,7,.52.52,0,0,1-.31.87l-1.8.27c-.58.1-1.18.2-1.77.27.2,1.18.35,2.35.5,3.49L97,66a.53.53,0,0,1-.45.58Z"/><path class="cls-2" d="M109.51,70.53A.52.52,0,0,1,109,70c0-.31,0-.62,0-.93s0-.78,0-1.17,0-.77,0-1.15c0-.1,0-.21,0-.31a.53.53,0,0,1,.45-.52c1.78-.26,3.61-.35,5.38-.45l1.92-.11a.5.5,0,0,1,.39.14.49.49,0,0,1,.16.38v3.47a.52.52,0,1,1-1,0V66.47l-1.39.08c-1.59.08-3.24.17-4.84.38,0,.34,0,.69,0,1s0,.77,0,1.15,0,.59,0,.88a.53.53,0,0,1-.5.54Z"/><path class="cls-2" d="M110.84,66.45a.51.51,0,0,1-.51-.48c-.21-2.62-1.14-3.17-2.13-3.74s-2.37-1.37-2.37-4.59c0-.41,0-.81,0-1.21s.05-.77.05-1.15a8.24,8.24,0,0,0-1.05-3.75l-.37-.84a.54.54,0,0,1-.05-.22c0-.44.49-.78,1.11-.78,2,0,3.36,2.21,4,3.43a2,2,0,0,0,0-.38c0-.29-.13-1.19-.27-2.15a42.88,42.88,0,0,1-.5-4.69A2.47,2.47,0,0,1,110,43.65a.52.52,0,0,1,.27-.07c.39,0,.71.22,1,.74.07-.73.32-1.63,1.17-1.63,1.11,0,1.61,1.44,1.9,3.73.14-1.67.42-2.7,1.39-2.7,1.33,0,1.54,3,1.57,3.86a.66.66,0,0,1,.65-.29c.56.06,1.15.12,1.15,7.55a19.64,19.64,0,0,1-1.43,8.31,6.82,6.82,0,0,0-.65,2.69.52.52,0,0,1-.52.52.52.52,0,0,1-.52-.52,7.62,7.62,0,0,1,.73-3.07A18.57,18.57,0,0,0,118,54.84a43.78,43.78,0,0,0-.26-6,29.42,29.42,0,0,0-1,3.75.53.53,0,0,1-.58.41.51.51,0,0,1-.44-.56c.05-.52.12-1,.19-1.56a25,25,0,0,0,.27-3.09,7.61,7.61,0,0,0-.58-3,12,12,0,0,0-.41,3.4,39.16,39.16,0,0,1-.4,4.43.5.5,0,0,1-.49.43.51.51,0,0,1-.52-.4,19.27,19.27,0,0,1-.25-2.6,42,42,0,0,0-.44-4.4c-.28-1.53-.61-1.84-.71-1.9a2.69,2.69,0,0,0-.19,1.32,28.08,28.08,0,0,0,.23,3,27.31,27.31,0,0,1,.24,3.15c0,.49,0,.83,0,1.06s0,.8-.52.82-.54-.19-.68-1.6c-.47-4.71-.91-6.33-1.22-6.8a1.53,1.53,0,0,0-.39,1.18,41.34,41.34,0,0,0,.5,4.54c.17,1.24.27,2,.27,2.3,0,1.11-.63,1.88-1.19,1.88a.51.51,0,0,1-.48-.32c-.39-1-1.72-3.48-3.3-3.57.06.13.11.25.17.37A9.26,9.26,0,0,1,107,55.28c0,.41,0,.82,0,1.21s0,.78,0,1.15c0,2.62.81,3.1,1.85,3.69s2.39,1.39,2.64,4.56a.51.51,0,0,1-.48.55Z"/><path class="cls-2" d="M101.7,50.91h0a.52.52,0,0,1-.49-.55,3.52,3.52,0,0,1,3-3,.52.52,0,0,1,.62.39.52.52,0,0,1-.4.62,2.51,2.51,0,0,0-2.16,2A.52.52,0,0,1,101.7,50.91Z"/><path class="cls-2" d="M99.39,49.76h-.11a.51.51,0,0,1-.39-.62c.48-2.14,2.28-4.31,4.76-4.31a.52.52,0,0,1,.52.52.52.52,0,0,1-.52.52c-1.94,0-3.36,1.76-3.75,3.5A.52.52,0,0,1,99.39,49.76Z"/><path class="cls-2" d="M127.08,39.91a.53.53,0,0,1-.5-.38,34.84,34.84,0,0,1-1.18-5.76.51.51,0,0,1,.41-.55l1.76-.43,1-.25a43.42,43.42,0,0,1-4.52-3.78l-.59.63c-1.23,1.3-2.5,2.65-3.7,4l1-.05a.54.54,0,0,1,.38.12.52.52,0,0,1,.18.35c.12,1.48.24,3.23.24,4.93a.52.52,0,1,1-1,0c0-1.48-.1-3-.2-4.34l-.87,0-.79,0a.51.51,0,0,1-.49-.28.53.53,0,0,1,.06-.57c1.44-1.73,3-3.38,4.51-5,.31-.34.63-.67,1-1a.51.51,0,0,1,.37-.16.51.51,0,0,1,.37.15,42.87,42.87,0,0,0,5.7,4.7.52.52,0,0,1,.21.53.51.51,0,0,1-.4.4l-2.14.51-1.33.32a34.3,34.3,0,0,0,1.1,5.13.51.51,0,0,1-.36.64Z"/><path class="cls-2" d="M19.61,60.77h0a.53.53,0,0,1-.5-.54c0-.3,0-.59.05-.89,0-.53.06-1.08.06-1.62,0-.3-.46-2.13-.91-3.91-1-4.08-2.59-10.26-2.59-12.94a2.54,2.54,0,0,1,.76-2.16.52.52,0,0,1,.62.83c-.34.26-.34.9-.34,1.33,0,2.55,1.53,8.65,2.55,12.69a34.87,34.87,0,0,1,.95,4.16c0,.57,0,1.13-.07,1.68,0,.29,0,.58-.05.87A.52.52,0,0,1,19.61,60.77Z"/><path class="cls-2" d="M27.51,62.36a.51.51,0,0,1-.52-.51c0-.71,0-1.41-.06-2.09s-.05-1.24-.05-1.87A13.25,13.25,0,0,1,25.3,58c-1,0-2-.09-2.95-.17l-.57,0a.53.53,0,0,1-.47-.56.52.52,0,0,1,.56-.47l.58.05c.93.08,1.9.17,2.85.17a11.1,11.1,0,0,0,2-.16.52.52,0,0,1,.43.11.49.49,0,0,1,.18.4v.38c0,.68,0,1.38.06,2s.05,1.4.05,2.13A.51.51,0,0,1,27.51,62.36Z"/><path class="cls-2" d="M25.73,57.57a.51.51,0,0,1-.51-.47c0-.23-.07-.47-.11-.72a6.79,6.79,0,0,1-.14-1.2c0-1.47,1-2.32,1.9-3.08a4.67,4.67,0,0,0,1.48-1.71,4.7,4.7,0,0,0,.25-1.52,8.18,8.18,0,0,1,.17-1.43,7.93,7.93,0,0,1,.91-2.06,5.42,5.42,0,0,0,.93-2.88c0-.83-.34-1.12-.67-1.12s-1.22,1.58-1.63,2.3c-.77,1.33-1.15,2-1.77,1.83S26,44.61,26,44.2v-.07a36.8,36.8,0,0,0,.34-4.42c0-3.67-.56-4.72-.79-4.88-.64.75-1.1,6-1.1,7.3v1.29a.52.52,0,1,1-1,0C23.25,37.52,22.3,35,21.84,35c0,0-.28.3-.28,2.07v1.55c.12,1.21.16,2.42.16,3.24s0,1.28-.55,1.28-.56-.33-.6-1.74c0-.7,0-1.63,0-2.74A8.54,8.54,0,0,0,19.62,35c-.05-.07-.09-.09-.1-.09a2,2,0,0,0-.41,1,7,7,0,0,0-.17,1.62,18.58,18.58,0,0,0,.62,4.08c.16.71.33,1.44.45,2.16a.54.54,0,0,1-.34.58.52.52,0,0,1-.62-.23,9.6,9.6,0,0,1-1.13-4.24.53.53,0,0,1,.15-.4,12.73,12.73,0,0,1-.17-2,8.53,8.53,0,0,1,.2-1.85c.28-1.21.75-1.83,1.42-1.83s1,.43,1.25,1a1.14,1.14,0,0,1,1.07-.92c.69,0,1.48.67,2,3.19.43-2.75,1-3.34,1.63-3.34.46,0,1.88,0,1.88,5.93a34.73,34.73,0,0,1-.29,4l.35-.59c1-1.71,1.68-2.82,2.53-2.82s1.7.66,1.7,2.15a6.45,6.45,0,0,1-1.06,3.39,6.86,6.86,0,0,0-.8,1.79,7.36,7.36,0,0,0-.15,1.25,5.67,5.67,0,0,1-.31,1.83,5.63,5.63,0,0,1-1.78,2.13c-.82.7-1.53,1.3-1.53,2.29a6.41,6.41,0,0,0,.12,1c0,.26.09.53.12.81a.53.53,0,0,1-.47.56Z"/><path class="cls-2" d="M18.51,41.55a.52.52,0,0,1-.47-.3,10.21,10.21,0,0,0-1.18-2,.5.5,0,0,1,.1-.72.51.51,0,0,1,.72.1A11.78,11.78,0,0,1,19,40.82a.52.52,0,0,1-.26.68A.42.42,0,0,1,18.51,41.55Z"/><path class="cls-2" d="M22.09,55.62a.51.51,0,0,1-.51-.49.52.52,0,0,1,.48-.55,8,8,0,0,0,3.05-1.08l.94-.47a.52.52,0,0,1,.43.94l-.9.45a8.92,8.92,0,0,1-3.46,1.2Z"/><path class="cls-2" d="M34.79,64.89h-.12A2,2,0,0,1,32.81,63a2.08,2.08,0,0,1,1.51-2.16,1.5,1.5,0,0,1,.37,0A2.07,2.07,0,0,1,36.91,63a1.94,1.94,0,0,1-.66,1.34A2.13,2.13,0,0,1,34.79,64.89Zm-.24-3.09a1.06,1.06,0,0,0-.71,1.11.92.92,0,0,0,.88.94,1.09,1.09,0,0,0,.83-.29.89.89,0,0,0,.33-.62,1.11,1.11,0,0,0-.3-.87,1.08,1.08,0,0,0-.84-.3A.58.58,0,0,0,34.55,61.8Z"/><path class="cls-2" d="M43.26,62h0a2.08,2.08,0,0,1-2-2,2.19,2.19,0,0,1,1.13-2,2.06,2.06,0,0,1,.85-.22,2.17,2.17,0,0,1,2.25,2,2.25,2.25,0,0,1-.65,1.62A2.07,2.07,0,0,1,43.26,62Zm-.49-3.1a1.16,1.16,0,0,0-.56,1,1,1,0,0,0,1,1,1,1,0,0,0,.77-.32,1.19,1.19,0,0,0,.35-.86,1.14,1.14,0,0,0-1.17-1A1.19,1.19,0,0,0,42.77,58.91Z"/><path class="cls-2" d="M42.06,73.46a38.52,38.52,0,0,1-5.64-.31.51.51,0,0,1-.43-.46A35.12,35.12,0,0,0,34.39,65a.52.52,0,1,1,1-.35A34.3,34.3,0,0,1,37,72.18a40.33,40.33,0,0,0,5.09.25h2.13a.52.52,0,0,1,0,1H42.06Z"/><path class="cls-2" d="M39.45,66.29a.42.42,0,0,1-.22-.05,17.2,17.2,0,0,1-1.58-.87,14.81,14.81,0,0,0-1.49-.84.51.51,0,0,1-.25-.68.52.52,0,0,1,.69-.25,16.21,16.21,0,0,1,1.59.88c.38.23.74.45,1.11.64l.88-1.18c.61-.84,1.25-1.7,1.93-2.51a.52.52,0,0,1,.73-.07.51.51,0,0,1,.06.73c-.65.79-1.28,1.64-1.89,2.46-.38.52-.76,1-1.15,1.54A.53.53,0,0,1,39.45,66.29Z"/><path class="cls-2" d="M47.13,65.3a.52.52,0,0,1-.37-.16A20.13,20.13,0,0,1,44,61.86a.53.53,0,0,1,.16-.72.52.52,0,0,1,.71.16,19.07,19.07,0,0,0,2.31,2.81l.66-.43c.63-.42,1.28-.84,1.89-1.28a.52.52,0,0,1,.72.12.51.51,0,0,1-.12.72c-.63.45-1.29.88-1.92,1.3l-1,.67A.47.47,0,0,1,47.13,65.3Z"/><path class="cls-2" d="M42.86,71.69c-1.27,0-2.55-.07-3.78-.15-.86-.05-1.75-.1-2.63-.12a.52.52,0,0,1-.5-.54.54.54,0,0,1,.54-.5c.89,0,1.78.08,2.65.13,1.22.07,2.48.15,3.72.15.82,0,1.56,0,2.26-.1a.52.52,0,0,1,.09,1C44.48,71.66,43.71,71.69,42.86,71.69Z"/><path class="cls-2" d="M43.92,41.34a.52.52,0,0,1-.35-.14.55.55,0,0,1-.16-.38V37.69h-3a.52.52,0,0,1-.52-.5c0-.33,0-.66,0-1s0-.74,0-1.11c0-.17,0-.34,0-.52-.54,0-1.13,0-1.81,0H36.2a.51.51,0,0,1-.51-.48c-.06-.73-.06-1.47-.06-2.18,0-.2,0-.41,0-.61l-.95,0a20.39,20.39,0,0,0-2.48.13.51.51,0,1,1-.14-1,19.41,19.41,0,0,1,2.61-.15c.47,0,1,0,1.44,0a.57.57,0,0,1,.38.14.5.5,0,0,1,.17.37c0,.38,0,.77,0,1.16s0,1.09,0,1.63h1.38c.89,0,1.63,0,2.3-.06a.52.52,0,0,1,.39.14.55.55,0,0,1,.16.38c0,.36,0,.72,0,1.08s0,.73,0,1.09v.46h3a.51.51,0,0,1,.52.51v3.11h1.49l.92,0a.52.52,0,1,1,0,1H45c-.4,0-.72,0-1,0Z"/><path class="cls-2" d="M55.82,40.8l-.13,0a.53.53,0,0,1-.38-.63A18.06,18.06,0,0,0,55.72,37c0-.32,0-.65.07-1l-.21-.19a4.46,4.46,0,0,1-1.79-2.56,29.94,29.94,0,0,1-.2-3.59c0-1.18,0-2.37.1-3.51s.1-2.29.1-3.43c0-.74.42-1.25,1-1.25a1.07,1.07,0,0,1,.75.31c.22-1.17.7-2.46,1.67-2.46.38,0,.71.22,1,.92a3,3,0,0,1,.63-1.64,1,1,0,0,1,.88-.3c1,.22,1.41,1.31,1.59,2.75.22-.6.5-.82.86-.82a.52.52,0,0,1,.42.22,4.09,4.09,0,0,1,.86,2.74c0,.84-.22,2.65-.38,4-.07.57-.14,1.17-.14,1.28a2.22,2.22,0,0,0,0,.44,4.36,4.36,0,0,0,.4-.68c.42-.79,1-1.87,2.28-1.87.9,0,.93,1.65.93,1.84,0,2.06-1.55,3.12-2.91,4.06s-2.35,1.61-2.35,3a12.69,12.69,0,0,0,.15,1.61c0,.17.05.33.07.48a.53.53,0,0,1-.45.58.53.53,0,0,1-.58-.45l-.06-.47a12.23,12.23,0,0,1-.16-1.75c0-1.9,1.48-2.92,2.79-3.82s2.46-1.69,2.46-3.2a3.66,3.66,0,0,0-.11-.78c-.48.11-.77.6-1.14,1.3s-.7,1.3-1.42,1.3c-.44,0-1-.27-1-1.55,0-.15,0-.54.15-1.4.14-1.23.36-3.08.36-3.86a3.76,3.76,0,0,0-.25-1.47,35.37,35.37,0,0,0-.62,4.58c-.11,1.24-.14,1.49-.65,1.47s-.51-.5-.52-.85,0-.63,0-1.17c0-.38,0-.75,0-1.13s0-.74,0-1.12c0-3.29-.5-4-.84-4.17-.13.11-.43.66-.41,3.42V23c0,.6,0,1.19,0,1.78s0,1.2,0,1.8v1.12c0,.29,0,.77-.51.79h0c-.49,0-.51-.43-.54-1-.27-5.46-.74-6.8-1-7.13a5.69,5.69,0,0,0-.74,3V24a19.43,19.43,0,0,1,.21,2.8c0,.84,0,1.39-.58,1.39s-.57-.48-.61-1.44c0-.64,0-1.54,0-2.64a3.12,3.12,0,0,0-.54-1.62.53.53,0,0,0,0,.2c0,1.16,0,2.33-.1,3.47s-.09,2.31-.09,3.47a28.12,28.12,0,0,0,.19,3.47c.09.7.78,1.31,1.44,1.91.15.12.29.25.42.37a.56.56,0,0,1,.16.43c0,.4-.06.8-.09,1.2a19.67,19.67,0,0,1-.43,3.38A.52.52,0,0,1,55.82,40.8Z"/><path class="cls-2" d="M70.28,32.37h0a.52.52,0,0,1-.48-.55c0-.16,0-.31,0-.47,0-.41,0-.81-.06-1.24s-.06-.87-.06-1.32a.53.53,0,0,1,.42-.51l.44-.08q1.11-.22,2.25-.42l0-.79c0-.35,0-.71,0-1.06a.49.49,0,0,1,.14-.38.5.5,0,0,1,.37-.17c.88,0,1.9,0,2.94-.08,0-.37,0-.73,0-1.09s0-.75,0-1.13v-.17a.53.53,0,0,1,.51-.52h1.77c.44,0,.91,0,1.39,0,0-.37,0-.73.08-1.1s.07-.79.09-1.18a.52.52,0,0,1,.52-.48c.45,0,.9,0,1.34.05a18.59,18.59,0,0,0,2,.05.52.52,0,0,1,.55.48.52.52,0,0,1-.49.55,18,18,0,0,1-2.08,0l-.8-.05-.06.71c0,.51-.08,1-.11,1.53a.52.52,0,0,1-.48.49c-.67,0-1.31.05-1.91.05H77.2c0,.27,0,.54,0,.81s0,.75,0,1.12c0,.14,0,.28,0,.42a.53.53,0,0,1-.48.53c-1,.08-2,.1-3,.11,0,.18,0,.36,0,.54,0,.41,0,.82.06,1.24a.53.53,0,0,1-.44.54c-.89.13-1.75.3-2.67.48,0,.28,0,.55,0,.83,0,.43,0,.87,0,1.31,0,.18,0,.36,0,.53A.52.52,0,0,1,70.28,32.37Z"/><path class="cls-2" d="M44.55,30.06h0a.52.52,0,0,1-.49-.55,9.34,9.34,0,0,1,.57-2.44c.09-.27.17-.54.25-.81a.52.52,0,0,1,.64-.35,16.3,16.3,0,0,0,3.17.45.51.51,0,0,1,.48.55.51.51,0,0,1-.54.49A19,19,0,0,1,45.7,27l-.12.38a9.13,9.13,0,0,0-.52,2.17A.51.51,0,0,1,44.55,30.06Z"/><path class="cls-2" d="M49.78,34.05a.5.5,0,0,1-.45-.26c-.56-1-1.23-2-1.88-2.95A29.26,29.26,0,0,1,45,26.74a.53.53,0,0,1,.26-.69.52.52,0,0,1,.68.26,28.49,28.49,0,0,0,2.4,4c.67,1,1.35,2,1.93,3A.52.52,0,0,1,50,34,.54.54,0,0,1,49.78,34.05Z"/><path class="cls-2" d="M91.6,86.77a.5.5,0,0,1-.45-.26.52.52,0,0,1,.19-.71,2,2,0,0,0,1-1.83c0-1.76-.69-2-1.94-2.35l-.75-.24c-3.41-1.24-3.56-5.06-3.68-8.14,0-.35,0-.7,0-1a.52.52,0,0,1,.14-.39.63.63,0,0,1,.38-.16l2.59,0c1.26,0,2.57,0,3.85,0,2.28,0,4.13-.07,5.84-.22a.51.51,0,0,1,.55.44,27.29,27.29,0,0,1,.42,4.2c0,3-1.67,3.83-3,4.48-1.17.57-2,1-2,2.57a2.53,2.53,0,0,0,1.19,2.29.52.52,0,1,1,0,1c-1,0-2.23-1.53-2.23-3.32,0-2.24,1.38-2.91,2.59-3.5s2.44-1.19,2.44-3.55a23.71,23.71,0,0,0-.34-3.57c-1.6.13-3.34.19-5.44.19-1.29,0-2.6,0-3.87,0l-2,0c0,.16,0,.33,0,.5.12,3,.24,6.21,3,7.2.23.09.47.16.69.23,1.26.38,2.68.82,2.68,3.34a3.08,3.08,0,0,1-1.51,2.74A.57.57,0,0,1,91.6,86.77Z"/><path class="cls-2" d="M89.2,88.86a.49.49,0,0,1-.35-.15.5.5,0,0,1-.16-.4l0-1c0-.26,0-.53,0-.79a.52.52,0,0,1,.45-.5,76,76,0,0,1,7.67-.49.54.54,0,0,1,.53.43c0,.19.07.37.1.56.07.35.14.71.19,1.08a.54.54,0,0,1-.1.39.49.49,0,0,1-.35.19c-1.33.16-2.69.26-4,.36s-2.65.2-4,.35Zm.56-1.9c0,.11,0,.22,0,.33s0,.31,0,.47c1.14-.12,2.29-.21,3.41-.29s2.28-.18,3.42-.3l-.09-.49,0-.14C94.3,86.59,92,86.69,89.76,87Z"/><path class="cls-2" d="M89.4,76.39a.52.52,0,0,1,0-1c.91,0,1.8-.13,2.75-.23a31,31,0,0,1,3.52-.25.52.52,0,1,1,0,1,32.19,32.19,0,0,0-3.41.25c-.92.1-1.88.2-2.82.23Z"/><path class="cls-2" d="M86.1,81.48a1.3,1.3,0,0,1-1.43-1.32,1.07,1.07,0,0,1,.94-1h-.39A3.33,3.33,0,0,1,81.59,76a4.3,4.3,0,0,1,4.63-4.1.52.52,0,0,1-.1,1A3.24,3.24,0,0,0,82.62,76c0,1.05.9,2.11,2.6,2.11h.51c.72,0,2.4,0,2.4,1.53A1.93,1.93,0,0,1,86.1,81.48Zm-.35-1.35,0,0c0,.1,0,.28.4.28s1-.15,1-.84c0-.21,0-.47-1.17-.49a2.47,2.47,0,0,1,.47.12.51.51,0,0,1,.33.65.5.5,0,0,1-.64.33A1.93,1.93,0,0,0,85.75,80.13Z"/><path class="cls-2" d="M100,80.28a1.67,1.67,0,0,1-1.7-1.64c0-1.36,1.31-1.63,2.46-1.87,1.69-.35,2.71-.68,2.71-2.32a2.31,2.31,0,0,0-2.5-2.31,5.34,5.34,0,0,0-2,.44.53.53,0,0,1-.68-.29.51.51,0,0,1,.29-.67,6.49,6.49,0,0,1,2.39-.51,3.32,3.32,0,0,1,3.53,3.34c0,2.6-2.12,3-3.53,3.33-.4.08-.71.16-1,.23a1.06,1.06,0,0,1,1,1.15A1,1,0,0,1,100,80.28Zm-.37-1.14a.7.7,0,0,0,.37.1s0,0,0-.08a.22.22,0,0,0,0-.12h-.09s0,0-.1,0A.58.58,0,0,1,99.6,79.14Z"/><path class="cls-2" d="M128.46,66.64a.48.48,0,0,1-.2,0,5.45,5.45,0,0,1-1.3-.81.51.51,0,0,1-.06-.72.52.52,0,0,1,.73-.07,4.14,4.14,0,0,0,1,.65.52.52,0,0,1,.27.68A.54.54,0,0,1,128.46,66.64Zm7.5-.91a.51.51,0,0,1-.35-.89,3.36,3.36,0,0,0,.72-.94.52.52,0,0,1,.69-.24.52.52,0,0,1,.24.69,4.12,4.12,0,0,1-.94,1.24A.5.5,0,0,1,136,65.73Zm-10.14-2.1a.51.51,0,0,1-.49-.38,4.72,4.72,0,0,1-.19-1.34c0-.06,0-.12,0-.18a.52.52,0,1,1,1,0v.14a4.3,4.3,0,0,0,.14,1.07.5.5,0,0,1-.36.63ZM137.2,62a.51.51,0,0,1-.51-.48,4.67,4.67,0,0,0-.27-1.2.52.52,0,0,1,.31-.67.51.51,0,0,1,.66.31,5.15,5.15,0,0,1,.33,1.48.53.53,0,0,1-.48.56Zm-10.57-2.23a.49.49,0,0,1-.3-.1.51.51,0,0,1-.11-.72,6.56,6.56,0,0,1,1-1.1.52.52,0,0,1,.73.05.53.53,0,0,1,0,.73,5.4,5.4,0,0,0-.86.93A.51.51,0,0,1,126.63,59.72Zm8.62-1.26a.57.57,0,0,1-.31-.1,4.64,4.64,0,0,0-1.1-.6.52.52,0,0,1-.28-.68.52.52,0,0,1,.67-.28,6,6,0,0,1,1.32.72.52.52,0,0,1,.12.72A.54.54,0,0,1,135.25,58.46Zm-5.27-1a.52.52,0,0,1-.13-1,6.06,6.06,0,0,1,1.33-.17h.17a.51.51,0,0,1,.51.52.5.5,0,0,1-.52.51h-.16a4.45,4.45,0,0,0-1.08.14Z"/><path class="cls-2" d="M112.8,83.77h0a5.24,5.24,0,0,1-1.5-.27.52.52,0,0,1-.32-.66.5.5,0,0,1,.65-.32,4.39,4.39,0,0,0,1.21.22.52.52,0,0,1,.49.54A.51.51,0,0,1,112.8,83.77Zm2.61-.73a.54.54,0,0,1-.44-.24.53.53,0,0,1,.16-.72,4.19,4.19,0,0,0,.93-.8.53.53,0,0,1,.73,0,.51.51,0,0,1,0,.73,4.94,4.94,0,0,1-1.15,1A.49.49,0,0,1,115.41,83Zm-6.12-1.16a.53.53,0,0,1-.43-.22,5,5,0,0,1-.67-1.37.52.52,0,0,1,1-.32,4.5,4.5,0,0,0,.54,1.1.51.51,0,0,1-.42.81Zm8.29-2.21h-.07a.51.51,0,0,1-.44-.58,4.53,4.53,0,0,0,0-.52v-.18a4.6,4.6,0,0,0-.06-.52.52.52,0,0,1,.42-.6.53.53,0,0,1,.6.43,4.62,4.62,0,0,1,.07.65v.22a4.63,4.63,0,0,1,0,.65A.52.52,0,0,1,117.58,79.67Zm-8.91-1.74-.15,0a.51.51,0,0,1-.34-.65,5.15,5.15,0,0,1,.66-1.38.51.51,0,0,1,.71-.13.51.51,0,0,1,.14.71,4.37,4.37,0,0,0-.53,1.11A.5.5,0,0,1,108.67,77.93Zm7.58-2a.55.55,0,0,1-.34-.13,4,4,0,0,0-1-.64.52.52,0,0,1,.41-1,4.76,4.76,0,0,1,1.3.81.52.52,0,0,1,.06.73A.55.55,0,0,1,116.25,75.93ZM111.39,75a.52.52,0,0,1-.17-1,4.38,4.38,0,0,1,1.35-.27h.17a.51.51,0,0,1,.52.51.5.5,0,0,1-.51.52h-.13a3.77,3.77,0,0,0-1.05.21A.57.57,0,0,1,111.39,75Z"/><path class="cls-2" d="M51.23,115.94a.49.49,0,0,1-.32-.12,6.26,6.26,0,0,1-1-1.07A.5.5,0,0,1,50,114a.51.51,0,0,1,.73.09,5.31,5.31,0,0,0,.87.9.51.51,0,0,1,.09.72A.54.54,0,0,1,51.23,115.94Zm8-1.09a.52.52,0,0,1-.35-.9,4.26,4.26,0,0,0,.75-1,.51.51,0,0,1,.7-.2.53.53,0,0,1,.2.71,5,5,0,0,1-.95,1.21A.52.52,0,0,1,59.18,114.85Zm-10-2.39a.52.52,0,0,1-.51-.43,6.38,6.38,0,0,1-.09-1,4.89,4.89,0,0,1,0-.54.52.52,0,0,1,.57-.46.52.52,0,0,1,.46.57c0,.15,0,.29,0,.43a4.25,4.25,0,0,0,.07.8.52.52,0,0,1-.42.6Zm11.45-1.35a.51.51,0,0,1-.51-.47,4.25,4.25,0,0,0-.3-1.19.52.52,0,0,1,1-.39,5.61,5.61,0,0,1,.36,1.48.53.53,0,0,1-.47.57Zm-10.49-2.56a.52.52,0,0,1-.31-.1.51.51,0,0,1-.11-.72,6.31,6.31,0,0,1,1-1.1.52.52,0,0,1,.73.07.51.51,0,0,1-.07.72,4.94,4.94,0,0,0-.85.92A.53.53,0,0,1,50.11,108.55Zm8.56-1a.5.5,0,0,1-.33-.12,5.19,5.19,0,0,0-1.05-.7.52.52,0,1,1,.47-.92,6.31,6.31,0,0,1,1.25.83.52.52,0,0,1-.34.91Zm-5.17-1.23a.52.52,0,0,1-.12-1,7.22,7.22,0,0,1,1.48-.17.53.53,0,0,1,.52.51.5.5,0,0,1-.51.52,6.58,6.58,0,0,0-1.26.15Z"/><path class="cls-2" d="M63.05,19.78a.43.43,0,0,1-.19,0,.51.51,0,0,1-.29-.67,9.39,9.39,0,0,1,.65-1.31.52.52,0,0,1,.71-.17.5.5,0,0,1,.18.7,9.09,9.09,0,0,0-.58,1.17A.52.52,0,0,1,63.05,19.78Zm2.36-3.36a.52.52,0,0,1-.38-.17.51.51,0,0,1,0-.73,11.1,11.1,0,0,1,1.12-.91.52.52,0,1,1,.61.83,9.5,9.5,0,0,0-1,.84A.54.54,0,0,1,65.41,16.42Zm3.44-2.26a.53.53,0,0,1-.47-.31.51.51,0,0,1,.26-.68A13.83,13.83,0,0,1,70,12.63a.52.52,0,1,1,.36,1c-.43.16-.85.33-1.24.51A.59.59,0,0,1,68.85,14.16Zm3.94-1.25a.52.52,0,0,1-.51-.42.53.53,0,0,1,.41-.61L74,11.67a.52.52,0,0,1,.58.45.53.53,0,0,1-.45.58c-.43.05-.86.12-1.28.2Z"/><path class="cls-2" d="M22.46,32.43h0a.53.53,0,0,1-.49-.54,11.33,11.33,0,0,1,.15-1.44.52.52,0,1,1,1,.18,11,11,0,0,0-.14,1.3A.52.52,0,0,1,22.46,32.43Zm1-4a.44.44,0,0,1-.22-.05A.51.51,0,0,1,23,27.7a11.19,11.19,0,0,1,.69-1.27.52.52,0,0,1,.71-.16.51.51,0,0,1,.17.71,9.34,9.34,0,0,0-.63,1.16A.53.53,0,0,1,23.43,28.43Zm2.37-3.36a.52.52,0,0,1-.37-.88,13.86,13.86,0,0,1,1.05-1,.51.51,0,0,1,.73.06.53.53,0,0,1-.06.73,12.16,12.16,0,0,0-1,.9A.5.5,0,0,1,25.8,25.07Zm3.26-2.53a.49.49,0,0,1-.44-.26.51.51,0,0,1,.18-.71c.4-.23.82-.46,1.25-.67a.52.52,0,1,1,.45.93c-.4.2-.8.41-1.18.63A.5.5,0,0,1,29.06,22.54Zm3.77-1.69a.52.52,0,0,1-.15-1c.45-.15.91-.27,1.36-.38a.51.51,0,1,1,.24,1q-.64.16-1.29.36A.41.41,0,0,1,32.83,20.85Z"/><path class="cls-2" d="M112.14,42.15a.51.51,0,0,1-.52-.52v-.07a.52.52,0,0,1,.52-.5h0a.52.52,0,0,1,.5.54v0A.5.5,0,0,1,112.14,42.15Zm0-2.81a.52.52,0,0,1-.51-.5c0-.46-.05-.91-.09-1.34a.52.52,0,1,1,1-.11q.07.69.09,1.41A.52.52,0,0,1,112.16,39.34Zm-.59-4.09a.5.5,0,0,1-.49-.37c-.13-.44-.27-.86-.43-1.26a.53.53,0,0,1,.29-.67.5.5,0,0,1,.67.29,11.43,11.43,0,0,1,.46,1.36.52.52,0,0,1-.36.64Zm-1.75-3.72a.51.51,0,0,1-.42-.21,10.1,10.1,0,0,0-.84-1,.52.52,0,0,1,.74-.72,11,11,0,0,1,.94,1.11.54.54,0,0,1-.12.73A.55.55,0,0,1,109.82,31.53Zm-3.07-2.72a.45.45,0,0,1-.25-.07,10.52,10.52,0,0,0-1.18-.55.51.51,0,0,1,.36-1,8.79,8.79,0,0,1,1.32.61.52.52,0,0,1-.25,1Zm-5.32-1.16a.51.51,0,0,1-.51-.47.5.5,0,0,1,.47-.56,8.87,8.87,0,0,1,1.46,0,.52.52,0,0,1,.48.55.51.51,0,0,1-.55.48,8,8,0,0,0-1.3,0Z"/><path class="cls-2" d="M63.55,140.09a.52.52,0,1,1,0-1c.45,0,.9,0,1.33-.09a.53.53,0,0,1,.57.46A.52.52,0,0,1,65,140C64.52,140.05,64,140.08,63.55,140.09ZM60.8,140h-.06c-.45-.05-.92-.12-1.4-.2a.5.5,0,0,1-.42-.59.52.52,0,0,1,.59-.43c.46.08.91.14,1.34.19a.52.52,0,0,1,.46.57A.51.51,0,0,1,60.8,140Zm6.83-.48a.53.53,0,0,1-.5-.37.51.51,0,0,1,.36-.64c.34-.1.68-.22,1-.34a.52.52,0,0,1,.67.3.53.53,0,0,1-.3.67c-.36.13-.73.25-1.09.36Zm-10.9-.29a.3.3,0,0,1-.13,0c-.45-.11-.9-.24-1.35-.37a.52.52,0,0,1-.35-.64.53.53,0,0,1,.65-.35c.43.13.87.25,1.31.36a.52.52,0,0,1,.37.63A.51.51,0,0,1,56.73,139.19Zm-4-1.2-.17,0-1.3-.46a.52.52,0,0,1-.32-.66.51.51,0,0,1,.66-.31l1.3.45a.52.52,0,0,1-.17,1Z"/></g></g></svg>