<svg xmlns="http://www.w3.org/2000/svg" viewBox="0 0 141.73 139.23"><defs><style>.cls-1{fill:#ffcc80;}.cls-2{fill:#525d7d;}</style></defs><title>010_c</title><g id="Layer_2" data-name="Layer 2"><g id="Layer_1-2" data-name="Layer 1"><path class="cls-1" d="M93.88,53.61a4.49,4.49,0,0,0-1.19.25,14.19,14.19,0,0,0-2.16-.08A1,1,0,0,0,90,54a.6.6,0,0,0-.93.34,1.8,1.8,0,0,0,.64,1.76c.38.33,1.28.61,1.48,1.09s.87,1,1.42.58a6.54,6.54,0,0,0,2.15-2.6A1,1,0,0,0,93.88,53.61Z"/><path class="cls-1" d="M61,127.83c-1.37-.76-3-.2-4.33.75-.31-.19-.61-.38-.86-.56a.83.83,0,0,0-.35-.15,3,3,0,0,0-1.09-.53.89.89,0,0,0-.66.12l-.17.15c-.92-.1-1.82,1.15-1.84,2.17A3.1,3.1,0,0,0,53,132.27c.95.76,2.89,1.11,3.36,2.34.29.77,1.45,1.38,2.09.56a33.29,33.29,0,0,0,3.42-4.47A2.09,2.09,0,0,0,61,127.83ZM54,130a2.39,2.39,0,0,1-.13-.21,1.57,1.57,0,0,1-.08-.49,2.16,2.16,0,0,0,.35-.24C54.06,129.34,54,129.65,54,130Zm2.71,1.59.12-.13.16.06a2.14,2.14,0,0,0,.67.59l.09,0-.09.11A4.87,4.87,0,0,0,56.69,131.55Zm2-.53a.87.87,0,0,0,0-.28,1.8,1.8,0,0,0-.17-.51c.41-.19.85-.35.85-.21S59,130.67,58.67,131Z"/><path class="cls-1" d="M108.4,10c-.26-.35-.51-.71-.8-1a.88.88,0,0,0-.61-.29.44.44,0,0,0-.72,0,6.17,6.17,0,0,0-1,2.62.92.92,0,0,0,1.32,1,8.35,8.35,0,0,0,1.66-1.18A1,1,0,0,0,108.4,10Z"/><path class="cls-1" d="M36.82,14.17a1.2,1.2,0,0,0-1.55-.36c-.69.45-1.36.92-2,1.41a14.38,14.38,0,0,1-2.06-1.12,1.1,1.1,0,0,0-1.68,1,1,1,0,0,0-.63.8c-.09.63.45,1.17.82,1.6a14.11,14.11,0,0,1,2,2.91c.73,1.44,1.87,1.72,2.92.37a10.48,10.48,0,0,0,1.66-3.06,2.41,2.41,0,0,0,1.64-1.39,1,1,0,0,0,.14-.31l.09-.43A1.22,1.22,0,0,0,36.82,14.17Zm-3.57,5-.41-.62a1.67,1.67,0,0,0,.16-.12l.86-.72.06,0C33.8,18,33.52,18.66,33.25,19.13Z"/><path class="cls-1" d="M124.38,56.21a.86.86,0,0,0-.47-.47.82.82,0,0,0-1.29-.23l-.18.11a1.17,1.17,0,0,0-1.8.23.78.78,0,0,0,.28,1l0,0a.63.63,0,0,0,.56.28h0a2.16,2.16,0,0,0,1.1,0,.86.86,0,0,0,.68.11.7.7,0,0,0,.46.07A.86.86,0,0,0,124.38,56.21Z"/><path class="cls-1" d="M90.74,80c-1.3.12-2.43,1.3-3.26,2.36a1.08,1.08,0,0,0-.28-.16c-.55-.22-.83.53-.52.89.09.11.07.51.11.65a1.82,1.82,0,0,0,.33.77,1.85,1.85,0,0,0,1.6.69,4,4,0,0,0,2-1c.17-.12.35-.23.52-.36.74.31,1.58-.59,1.27-1.4A1.75,1.75,0,0,0,90.74,80Z"/><path class="cls-1" d="M71.93,78.45a9.3,9.3,0,0,1-1-2.61,8.11,8.11,0,0,0,0-2.41c-.09-.57-.84-.41-1,0-.07.17-.13.34-.19.52a1,1,0,0,0-.79.9c0,.16,0,.32,0,.49a11.6,11.6,0,0,1-.54,3c-.32,1,1.11,1.54,1.66.78a3.26,3.26,0,0,0,.45.46A.91.91,0,0,0,71.93,78.45Z"/><path class="cls-1" d="M72.37,85.15A1,1,0,0,0,71,84.59l-.17.14c0-.07-.1-.15-.16-.22a.69.69,0,0,0-.61-.25.92.92,0,0,0-.88.13,1,1,0,0,0-.33,1,3.07,3.07,0,0,0,1.09,1.89,1,1,0,0,0,1.16.15C71.79,86.9,72.59,86.07,72.37,85.15Z"/><path class="cls-1" d="M32.13,95.63a9.75,9.75,0,0,1-1.05-.45,17.09,17.09,0,0,0-3.38-2.56.72.72,0,0,0-.53-.28,1.21,1.21,0,0,0-1.2,2l.19.19-.06.66a6,6,0,0,0,.08,2.64,1.71,1.71,0,0,0,1.59,1.06,12.33,12.33,0,0,0,2.9.18,1.74,1.74,0,0,0,1.5-1A1.31,1.31,0,0,0,32.13,95.63Zm-4,1.2-.09,0a3.28,3.28,0,0,0-.06-.69,11.65,11.65,0,0,0,1.1.73A5,5,0,0,0,28.15,96.83Z"/><path class="cls-1" d="M119.34,34.82a1.61,1.61,0,0,0-.75.23,1.88,1.88,0,0,0-2.28-.48A2.43,2.43,0,0,0,115,35.68a1.63,1.63,0,0,0,1.17,2.57,2.81,2.81,0,0,0,1.75-.62,1.75,1.75,0,0,0,.48-.32,1.3,1.3,0,0,0,.4,0A1.6,1.6,0,0,0,120.25,36,1,1,0,0,0,119.34,34.82Z"/><path class="cls-2" d="M74.92,85a29.9,29.9,0,0,1-21.25-8.72A29.26,29.26,0,0,1,45,54.92c.22-15.74,13.42-28.53,29.44-28.53h0c.6,0,1.22,0,1.82.06A29.26,29.26,0,0,1,98.11,37.83a28.75,28.75,0,0,1,5.66,16.72,31,31,0,0,1-7.55,20.88A27.94,27.94,0,0,1,75.61,85Zm-.53-57.59c-15.45,0-28.18,12.33-28.39,27.5a28.25,28.25,0,0,0,8.41,20.63A28.92,28.92,0,0,0,75.59,84a26.86,26.86,0,0,0,19.84-9.24,30,30,0,0,0,7.29-20.17,27.73,27.73,0,0,0-5.44-16.1,28.24,28.24,0,0,0-21.09-11c-.59,0-1.18-.06-1.76-.06Z"/><path class="cls-2" d="M74.83,80.83a25.6,25.6,0,0,1-15.55-5.18.52.52,0,0,1-.11-.73.54.54,0,0,1,.74-.11,24.61,24.61,0,0,0,15.5,5A22.9,22.9,0,0,0,92.3,71.91a25.5,25.5,0,0,0,6.21-17.17A23.6,23.6,0,0,0,93.87,41a22,22,0,0,0-1.9-2.2.52.52,0,1,1,.75-.73,24.19,24.19,0,0,1,2,2.29,24.75,24.75,0,0,1,4.85,14.33,26.57,26.57,0,0,1-6.47,17.89,23.91,23.91,0,0,1-17.66,8.22Z"/><path class="cls-2" d="M54.77,71a.53.53,0,0,1-.41-.2A25.09,25.09,0,0,1,49.16,55c.19-13.49,11.5-24.45,25.23-24.45h0c.52,0,1,0,1.56.05a26.53,26.53,0,0,1,11.63,3.48.52.52,0,0,1,.19.72.53.53,0,0,1-.72.19,25.32,25.32,0,0,0-11.16-3.34c-.5,0-1-.05-1.5-.05h0c-13.16,0-24,10.5-24.18,23.41a24,24,0,0,0,5,15.09.51.51,0,0,1-.1.73A.48.48,0,0,1,54.77,71Z"/><path class="cls-2" d="M60.72,76.13a.53.53,0,0,1-.52-.44,5.11,5.11,0,0,1-.07-.76c0-3.21,2.44-3.78,4.39-4.23,1.79-.42,2.81-.72,2.81-2,0-1-.83-1.58-2.3-2.44-2.1-1.25-5-2.95-5-8,0-1.75.15-3.5.29-5.2s.28-3.42.28-5.13v-.61a.53.53,0,0,1,.51-.54.53.53,0,0,1,.54.52v.63c0,1.76-.14,3.52-.28,5.22s-.29,3.41-.29,5.11c0,4.43,2.38,5.84,4.47,7.07,1.44.86,2.8,1.66,2.8,3.35,0,2.23-1.92,2.68-3.61,3.07-1.92.45-3.58.84-3.58,3.21a3.9,3.9,0,0,0,0,.58.52.52,0,0,1-.42.61Z"/><path class="cls-2" d="M82.67,50.71h-.1c-4.28-.85-6.69-5.42-6.91-9.49a9.92,9.92,0,0,0-7.15,4.57c-.47.66-.76,1-1.25.89s-.52-.8-.52-1.77v-.38c-.35.41-.8,1-1.08,1.44-.92,1.28-1.2,1.65-1.63,1.65-.8,0-.91-1.15-.91-1.84a9.3,9.3,0,0,1,.07-1.07c0-.11,0-.23,0-.34A13.32,13.32,0,0,0,59.87,48a.54.54,0,0,1-.61.22.55.55,0,0,1-.36-.53c0-.64.07-1.22.1-1.76.16-3.23.25-5,2.08-6.28s4.9-1.83,11.27-3.14l4-.83a3.44,3.44,0,0,1,.78-.08,2.16,2.16,0,0,1,2.4,2.3c2.72.59,3.95,4.64,3.95,7.51,0,1-.08,2-.16,2.92,0,.64-.11,1.29-.14,1.93a.5.5,0,0,1-.2.39A.52.52,0,0,1,82.67,50.71Zm-6.5-10.6a.52.52,0,0,1,.36.14.52.52,0,0,1,.17.38c0,3.6,1.93,7.8,5.48,8.89,0-.44.07-.89.1-1.32.08-.94.16-1.91.16-2.84,0-3-1.31-6.39-3.44-6.52a.53.53,0,0,1-.49-.52c0-1.17-.17-1.72-1.37-1.72a2.83,2.83,0,0,0-.57.06l-4,.83c-6.23,1.28-9.35,1.92-10.88,3s-1.48,2.38-1.63,5.47c1.37-1.64,3.07-3,3.81-2.83a.64.64,0,0,1,.45.62c0,.38,0,.74-.07,1.09a8.19,8.19,0,0,0-.07,1c0,.13,0,.28,0,.42.2-.25.42-.57.61-.84,1.19-1.66,1.79-2.45,2.47-2.23.35.11.53.44.53,1,0,.13,0,.27,0,.4V45a10.86,10.86,0,0,1,8.35-4.88Z"/><path class="cls-2" d="M86.35,77.42a.52.52,0,0,1-.52-.52,6.22,6.22,0,0,0-6.35-6.21H77.76c-2.49,0-3.92-.38-3.92-2.31,0-3.86,2-5.06,3.83-6.23s3.86-2.37,4-6.69a.52.52,0,0,1,.41-.5c2.5-.52,2.5-1.72,2.5-2.11a2.64,2.64,0,0,0-1.7-2.14h0l-.24,0a.52.52,0,0,1-.53-.52.53.53,0,0,1,.53-.53h.29a3.53,3.53,0,0,1,2.73,3.19c0,1.06-.53,2.42-2.93,3.05-.25,4.56-2.48,5.93-4.46,7.15-1.79,1.1-3.33,2.05-3.33,5.33,0,.68,0,1.26,2.87,1.26h1.72a7.2,7.2,0,0,1,7.4,7.26A.52.52,0,0,1,86.35,77.42Z"/><path class="cls-2" d="M82.5,53.73h-.1A.52.52,0,0,1,82,53.1a3.12,3.12,0,0,0,.07-.51.46.46,0,0,0-.1-.33.51.51,0,0,1,0-.74.53.53,0,0,1,.74,0,1.46,1.46,0,0,1,.41,1.07,4,4,0,0,1-.09.72A.53.53,0,0,1,82.5,53.73Z"/><path class="cls-2" d="M67.94,59.55c-1.14,0-1.87-.6-1.87-1.53a1.75,1.75,0,0,1,1.31-1.67c.7-.31,1.36-.61,1.36-2.36a13.92,13.92,0,0,0-.3-2.43c0-.19-.07-.37-.1-.54a.52.52,0,1,1,1-.18c0,.17.06.34.1.53A14.56,14.56,0,0,1,69.79,54c0,2.43-1.19,3-2,3.32-.57.25-.69.34-.69.71s.44.48.82.48a5.05,5.05,0,0,0,.74-.08l.37-.05a.52.52,0,1,1,.13,1l-.34.05A6.53,6.53,0,0,1,67.94,59.55Z"/><path class="cls-2" d="M70.63,63.4a4.3,4.3,0,0,1-1.72-.35.53.53,0,0,1,.42-1A3.78,3.78,0,0,0,73,61.54a.51.51,0,0,1,.73.09.53.53,0,0,1-.09.74A5.09,5.09,0,0,1,70.63,63.4Z"/><path class="cls-2" d="M64.53,54.63a1.11,1.11,0,0,1-1.05-1.13A1.89,1.89,0,0,1,64,52.31a.52.52,0,0,1,.44-.15,1.29,1.29,0,0,1,1.13,1.3A1.12,1.12,0,0,1,64.53,54.63Zm0-1.18a.43.43,0,0,1,0,0v0A.17.17,0,0,0,64.54,53.45Z"/><path class="cls-2" d="M72.67,54c-.59,0-1-.67-1-1.13a1.23,1.23,0,0,1,.54-1,.54.54,0,0,1,.48,0,1.34,1.34,0,0,1,.84,1.2A1,1,0,0,1,72.67,54Z"/><path class="cls-2" d="M69.48,75.73h-.4a.53.53,0,0,1-.48-.44l-.15-.85c-.14-.83-.29-1.68-.36-2.53a.53.53,0,0,1,.14-.4.58.58,0,0,1,.4-.17,16.07,16.07,0,0,0,2.89-.21.55.55,0,0,1,.44.14.51.51,0,0,1,.16.44,6.12,6.12,0,0,0,0,.76,18.46,18.46,0,0,0,.14,1.93l0,.42a.54.54,0,0,1-.39.57A9.7,9.7,0,0,1,69.48,75.73Zm-.28-3.35c.07.62.18,1.25.29,1.87l.07.43a7.9,7.9,0,0,0,1.61-.22,18.64,18.64,0,0,1-.14-2v-.21A16.58,16.58,0,0,1,69.2,72.38Z"/><path class="cls-2" d="M68.77,72.19a3.07,3.07,0,0,1-2.36-1.27.53.53,0,0,1,.13-.73.52.52,0,0,1,.73.12,2,2,0,0,0,1.5.83.52.52,0,0,1,.52.52A.52.52,0,0,1,68.77,72.19Z"/><path class="cls-2" d="M71.65,71.93a.52.52,0,0,1-.43-.24.53.53,0,0,1,.14-.73c.8-.53,1.69-1.06,2.56-1.58a.52.52,0,1,1,.54.9c-.85.51-1.74,1-2.52,1.56A.5.5,0,0,1,71.65,71.93Z"/><path class="cls-2" d="M66.69,76.7l-.11,0a.53.53,0,0,1-.35-.25c-.33-.59-.61-1.21-.88-1.81a15.74,15.74,0,0,0-1.47-2.74.52.52,0,1,1,.85-.61,16.29,16.29,0,0,1,1.58,2.92c.19.42.38.83.57,1.22l.92-.51c.34-.18.66-.34,1-.53a.53.53,0,0,1,.72.16.52.52,0,0,1-.16.73c-.32.2-.67.39-1,.57a10.35,10.35,0,0,0-1.3.77A.57.57,0,0,1,66.69,76.7Z"/><path class="cls-2" d="M74,76.2a.65.65,0,0,1-.2,0c-.42-.18-.82-.39-1.2-.6A11.83,11.83,0,0,0,71.38,75a.51.51,0,0,1-.3-.67.52.52,0,0,1,.67-.31,10.89,10.89,0,0,1,1.37.67l.62.33.19-.46a14.22,14.22,0,0,1,2.59-4.61.52.52,0,0,1,.74,0,.53.53,0,0,1,0,.75,13.19,13.19,0,0,0-2.38,4.28l-.4,1A.52.52,0,0,1,74,76.2Z"/><path class="cls-2" d="M68.33,79.36h0a.51.51,0,0,1-.48-.56,17,17,0,0,1,.35-2.27c.1-.47.19-1,.26-1.44a.53.53,0,1,1,1,.15c-.07.5-.17,1-.27,1.5a16.65,16.65,0,0,0-.34,2.14A.52.52,0,0,1,68.33,79.36Z"/><path class="cls-2" d="M72.83,80.27a.52.52,0,0,1-.51-.42,19.82,19.82,0,0,0-.67-2.2,16.28,16.28,0,0,1-.78-2.75.52.52,0,0,1,.44-.6.51.51,0,0,1,.6.43,14.45,14.45,0,0,0,.73,2.57,18.92,18.92,0,0,1,.7,2.33.52.52,0,0,1-.4.62Z"/><path class="cls-2" d="M75.5,78a.48.48,0,0,1-.2,0,.53.53,0,0,1-.28-.69c.41-1,.79-2,1.15-3,.47-1.3,1-2.64,1.57-3.94a.52.52,0,1,1,1,.44c-.58,1.26-1.07,2.58-1.54,3.86-.36,1-.74,2-1.16,3A.53.53,0,0,1,75.5,78Z"/><path class="cls-2" d="M70.49,89.7a.52.52,0,0,1-.43-.23c-.47-.69-.93-1.4-1.37-2.08-.64-1-1.3-2-2-3a.54.54,0,0,1,.11-.74.53.53,0,0,1,.74.12c.73,1,1.4,2,2,3l.9,1.39c.11-.16.22-.33.32-.5.68-1,1.37-2.14,2-3.26a.51.51,0,0,1,.71-.21.52.52,0,0,1,.21.71c-.62,1.15-1.33,2.26-2,3.33l-.75,1.17A.51.51,0,0,1,70.49,89.7Z"/><path class="cls-2" d="M70.6,97a.53.53,0,0,1-.52-.46,38.73,38.73,0,0,1-.25-4.68c0-1,0-2.05-.1-3.05a.53.53,0,1,1,1-.07c.07,1,.08,2.08.1,3.1a38.48,38.48,0,0,0,.24,4.56.52.52,0,0,1-.44.59Z"/><path class="cls-2" d="M40.18,49.3a2.77,2.77,0,0,1-.42,0,1.87,1.87,0,0,1-1.57-1.9,2,2,0,0,1,1-1.77,1.67,1.67,0,0,1,.62-.2,2.17,2.17,0,0,1,1.58.56,1.87,1.87,0,0,1,.63,1.45A2,2,0,0,1,40.3,49.3ZM40,46.45H40a.68.68,0,0,0-.23.07.94.94,0,0,0-.48.84.84.84,0,0,0,.63.87,2.3,2.3,0,0,0,.37,0,.92.92,0,0,0,.76-.86.83.83,0,0,0-.28-.65A1.13,1.13,0,0,0,40,46.45Z"/><path class="cls-2" d="M55,27.54a2.2,2.2,0,0,1-2.24-2.16A2.32,2.32,0,0,1,54.63,23a1.69,1.69,0,0,1,.52-.06,2.29,2.29,0,0,1,2.08,2.27,2.35,2.35,0,0,1-.68,1.68,2.18,2.18,0,0,1-1.53.68ZM55.09,24a.86.86,0,0,0-.21,0,1.28,1.28,0,0,0-1.07,1.35,1.15,1.15,0,0,0,2,.78,1.3,1.3,0,0,0,.38-.93A1.27,1.27,0,0,0,55.09,24Z"/><path class="cls-2" d="M61.77,24.94h-.06a.51.51,0,0,1-.46-.58,1.86,1.86,0,0,1,1.88-1.62,2.36,2.36,0,0,1,1.28.48,1.61,1.61,0,0,0,.62.28c.14,0,.29-.15.53-.41a2.45,2.45,0,0,1,1.87-1,2.09,2.09,0,0,1,1.41.81c.31.32.61.62.93.62s.43-.19.74-.61a1.77,1.77,0,0,1,1.42-1,1.74,1.74,0,0,1,.61.12.53.53,0,1,1-.38,1c-.33-.13-.45,0-.8.48a1.93,1.93,0,0,1-1.59,1.05,2.44,2.44,0,0,1-1.68-.93c-.23-.23-.5-.5-.66-.5a1.48,1.48,0,0,0-1.1.64,1.78,1.78,0,0,1-1.3.74,2.19,2.19,0,0,1-1.17-.44,1.53,1.53,0,0,0-.73-.32.83.83,0,0,0-.84.69A.52.52,0,0,1,61.77,24.94Z"/><path class="cls-2" d="M88.63,24.94a.52.52,0,0,1-.53-.52c0-.91.08-1.86.16-2.78,0-.43.08-.86.1-1.28a.53.53,0,0,1,.56-.49.53.53,0,0,1,.49.56c0,.43-.06.86-.1,1.3-.08.9-.16,1.82-.16,2.69A.52.52,0,0,1,88.63,24.94Z"/><path class="cls-2" d="M89.09,23c-.34,0-.68,0-1,0a10.1,10.1,0,0,0-1.34,0,.53.53,0,0,1-.08-1.05,12.23,12.23,0,0,1,1.49,0c.33,0,.64,0,.94,0a4.26,4.26,0,0,0,1.14-.13.52.52,0,0,1,.65.36.51.51,0,0,1-.36.64A4.82,4.82,0,0,1,89.09,23Z"/><path class="cls-2" d="M74.88,20.5a.52.52,0,0,1-.33-.12l-.68-.54a27.52,27.52,0,0,1-2.64-2.3.53.53,0,0,1,0-.72c1.18-1.3,2.36-2.55,3.74-4l-.75-.61-.51-.41a.53.53,0,0,1,.14-.9c1.35-.52,2.75-.94,4.1-1.36s2.53-.77,3.76-1.23a.54.54,0,0,1,.53.09.54.54,0,0,1,.17.51c-.11.54-.23,1.09-.34,1.64A46.69,46.69,0,0,0,81.11,16a.56.56,0,0,1-.27.41.53.53,0,0,1-.49,0c-.47-.23-1-.48-1.45-.78a46.5,46.5,0,0,1-2.82,3.72l-.79,1a.52.52,0,0,1-.35.2Zm-2.55-3.34c.68.65,1.45,1.26,2.2,1.86l.27.22.46-.57a40.4,40.4,0,0,0,3-4.06.52.52,0,0,1,.34-.24.53.53,0,0,1,.41.08,9,9,0,0,0,1.11.66c.2-1.62.54-3.22.87-4.77l.15-.72c-1,.34-2,.64-2.93.94s-2.12.65-3.17,1l1,.81a.52.52,0,0,1,0,.76C74.69,14.61,73.5,15.87,72.33,17.16Z"/><path class="cls-2" d="M80.38,5.93a3.22,3.22,0,0,1-2.09-.81A2.81,2.81,0,0,1,77.36,3a2.91,2.91,0,0,1,.87-2,2.85,2.85,0,0,1,4.25.21A2.9,2.9,0,0,1,83.11,3a2.88,2.88,0,0,1-2.45,2.95Zm-.13-4.74A1.82,1.82,0,0,0,79,1.74,1.86,1.86,0,0,0,78.41,3,1.76,1.76,0,0,0,79,4.34a2.1,2.1,0,0,0,1.56.53A1.83,1.83,0,0,0,82.06,3a2,2,0,0,0-.37-1.09A2,2,0,0,0,80.25,1.19Z"/><path class="cls-2" d="M85.56,5.35h0a5.31,5.31,0,0,1-1.92-.64,6.55,6.55,0,0,0-1.06-.43.53.53,0,0,1-.37-.65.52.52,0,0,1,.65-.36,7.37,7.37,0,0,1,1.23.5,4.58,4.58,0,0,0,1.56.53.53.53,0,0,1,.48.57A.54.54,0,0,1,85.56,5.35Z"/><path class="cls-2" d="M96.43,15.36l-.9,0c-1.91-.06-3.89-.12-5.82-.12h-.33a.53.53,0,0,1-.53-.47c0-.34-.08-.67-.12-1a14.62,14.62,0,0,1-.19-2.08.52.52,0,0,1,.52-.53.53.53,0,0,1,.53.53,15.06,15.06,0,0,0,.18,1.94c0,.19,0,.38.07.57,1.91,0,3.85.06,5.72.12h.34c0-1-.08-1.95-.14-2.9-.06-1.12-.13-2.27-.13-3.42a.52.52,0,0,1,.52-.52.52.52,0,0,1,.53.52c0,1.11.06,2.25.13,3.35s.14,2.27.14,3.42v.1a.52.52,0,0,1-.16.37A.51.51,0,0,1,96.43,15.36Z"/><path class="cls-2" d="M93,14.54h0a.53.53,0,0,1-.48-.56c0-.14,0-.28,0-.42a13.38,13.38,0,0,0-.16-1.76c-.06-.44-.12-.88-.16-1.34a.53.53,0,0,1,1.05-.08c0,.43.09.86.15,1.27a14.9,14.9,0,0,1,.17,1.91c0,.17,0,.33,0,.49A.53.53,0,0,1,93,14.54Z"/><path class="cls-2" d="M63.45,14.15A7.76,7.76,0,0,1,58.28,12a6.72,6.72,0,0,1-2.13-5,7.18,7.18,0,0,1,6.41-7,7.49,7.49,0,0,1,1,0,6.81,6.81,0,0,1,6.56,6.85,7.06,7.06,0,0,1-6.4,7.29Zm-.11-13.1-.69,0a6.12,6.12,0,0,0-5.45,6A5.67,5.67,0,0,0,59,11.28a6.6,6.6,0,0,0,4.71,1.81,6,6,0,0,0,5.4-6.23,5.77,5.77,0,0,0-5.55-5.81Z"/><path class="cls-2" d="M62.86,8.66a.54.54,0,0,1-.35-.13.55.55,0,0,1-.18-.38c0-.64-.08-1.3-.14-1.95C62.11,5.38,62,4.53,62,3.68a.52.52,0,0,1,.52-.52.52.52,0,0,1,.53.52c0,.81.08,1.63.15,2.43.05.47.09,1,.12,1.46h.12a21.44,21.44,0,0,0,2.31-.28.52.52,0,0,1,.2,1,18.76,18.76,0,0,1-2.42.29l-.66.06Z"/><path class="cls-2" d="M53,4.27c-.67,0-1.34,0-2,0-1,0-2-.06-3,0a.53.53,0,0,1,0-1c1,0,2.05,0,3,0,.64,0,1.3,0,2,0s1.2,0,1.73-.06a.53.53,0,0,1,.08,1C54.26,4.25,53.66,4.27,53,4.27Z"/><path class="cls-2" d="M48.6,8.25l-.76,0a.53.53,0,0,1-.51-.54.55.55,0,0,1,.55-.51,31.66,31.66,0,0,0,3.23-.08C52.19,7,53.32,7,54.44,7a.53.53,0,0,1,.5.55.52.52,0,0,1-.54.5,29,29,0,0,0-3.23.09C50.33,8.2,49.46,8.25,48.6,8.25Z"/><path class="cls-2" d="M48.21,12.17a.53.53,0,0,1-.53-.48.54.54,0,0,1,.49-.57c1-.07,1.94-.08,2.9-.1a33.12,33.12,0,0,0,4.23-.24.52.52,0,0,1,.6.44.54.54,0,0,1-.44.6,34,34,0,0,1-4.38.25c-.94,0-1.9,0-2.84.1Z"/><path class="cls-2" d="M49.74,15.51h-.67a.53.53,0,0,1-.51-.54.53.53,0,0,1,.54-.51,41.27,41.27,0,0,0,5.44-.33c1-.11,2.11-.22,3.17-.29a.53.53,0,1,1,.06,1.05c-1,.07-2.1.18-3.12.28A47.07,47.07,0,0,1,49.74,15.51Z"/><path class="cls-2" d="M49.78,18.3a.53.53,0,0,1-.05-1.05C51.85,17,54,17,56.11,16.9s4.22-.13,6.3-.35a.52.52,0,1,1,.11,1c-2.12.22-4.28.29-6.38.36s-4.22.13-6.3.34Z"/><path class="cls-2" d="M43.08,21.16a.52.52,0,0,1-.52-.52c0-.59-.06-1.17-.11-1.78s-.12-1.24-.12-1.87a5.15,5.15,0,0,1,0-.56.53.53,0,0,1,.55-.5.53.53,0,0,1,.49.56c0,.17,0,.33,0,.5,0,.58,0,1.16.11,1.77s.12,1.24.12,1.88A.52.52,0,0,1,43.08,21.16Z"/><path class="cls-2" d="M41.12,19.17a.52.52,0,0,1-.09-1A7.62,7.62,0,0,1,42.28,18h1.28l.67,0a.51.51,0,0,1,.56.47.52.52,0,0,1-.48.57c-.23,0-.47,0-.75,0H42.28a6.52,6.52,0,0,0-1.07.07Z"/><path class="cls-2" d="M40.61,8.27a1.9,1.9,0,0,1-1.36-.56,1.82,1.82,0,0,1-.54-1.33,1.79,1.79,0,0,1,1-1.64,2.21,2.21,0,0,1,1-.2A1.82,1.82,0,0,1,42.49,6.3,1.88,1.88,0,0,1,42,7.7,1.93,1.93,0,0,1,40.61,8.27Zm0-2.68a1,1,0,0,0-.46.1.76.76,0,0,0-.41.7A.8.8,0,0,0,40,7a.89.89,0,0,0,.63.25.81.81,0,0,0,.6-.25.86.86,0,0,0,.23-.63.8.8,0,0,0-.78-.75Z"/><path class="cls-2" d="M33.25,22.66h0a.5.5,0,0,1-.39-.2,29.67,29.67,0,0,0-3.08-3.37c-1.19-1.16-2-1.92-2-3.35a2.5,2.5,0,0,1,2.43-2.62,3.9,3.9,0,0,1,2.59,1.27,4.83,4.83,0,0,1,3.32-1.88A2.41,2.41,0,0,1,38.7,15c0,2.69-2,4.57-3.72,6.22-.48.45-.93.88-1.34,1.32A.52.52,0,0,1,33.25,22.66Zm-3-8.5a1.45,1.45,0,0,0-1.38,1.57c0,1,.52,1.49,1.66,2.59a31.55,31.55,0,0,1,2.8,3c.32-.32.65-.63,1-.93,1.66-1.58,3.39-3.22,3.39-5.46a1.37,1.37,0,0,0-1.53-1.4c-1.08,0-2,1-2.92,1.95a.52.52,0,0,1-.39.17.51.51,0,0,1-.39-.17A3.38,3.38,0,0,0,30.21,14.16Z"/><path class="cls-2" d="M43.05,32.21h0a4.07,4.07,0,0,1-2.63-1.05,3.77,3.77,0,0,1-1.25-2.84,3.72,3.72,0,0,1,2.53-3.53,4.54,4.54,0,0,1,1.58-.25A3.72,3.72,0,0,1,47,28a4,4,0,0,1-1.12,3A4,4,0,0,1,43.05,32.21Zm.09-6.62a3.72,3.72,0,0,0-1.13.19,2.73,2.73,0,0,0-.9,4.6,3,3,0,0,0,1.92.78,2.88,2.88,0,0,0,2.07-.93,2.94,2.94,0,0,0,.83-2.18,2.68,2.68,0,0,0-2.7-2.46Z"/><path class="cls-2" d="M39.89,30.11a.5.5,0,0,1-.35-.15.51.51,0,0,1,0-.74l.41-.43a11.86,11.86,0,0,1,4.61-3.55.52.52,0,0,1,.67.32.53.53,0,0,1-.32.67,11.13,11.13,0,0,0-4.19,3.27l-.41.44A.56.56,0,0,1,39.89,30.11Z"/><path class="cls-2" d="M39.33,39a.52.52,0,0,1-.52-.47,15.08,15.08,0,0,1-.11-1.81c0-2.76.91-4.57,2.8-5.51a.53.53,0,0,1,.47.94c-1.52.76-2.22,2.21-2.22,4.57,0,.37,0,.76,0,1.19.86,0,1.73-.07,2.57-.08,1.12,0,2.27,0,3.39-.17a10.72,10.72,0,0,0-1.84-5.77.53.53,0,0,1,.87-.59,11.77,11.77,0,0,1,2,6.55,2.71,2.71,0,0,1,0,.29.52.52,0,0,1-.45.51,35.5,35.5,0,0,1-4,.23c-1,0-2,0-3,.12Zm7-.87Z"/><path class="cls-2" d="M42.89,34.88l-.13,0a2.55,2.55,0,0,1-1.38-1.21,7.09,7.09,0,0,0-.72-.9A.52.52,0,0,1,41.4,32a7.09,7.09,0,0,1,.84,1,3.73,3.73,0,0,0,.52.65c.51-.61,1-1.19,1.56-1.76a.52.52,0,0,1,.74,0,.53.53,0,0,1,0,.74c-.6.66-1.22,1.34-1.8,2A.53.53,0,0,1,42.89,34.88Z"/><path class="cls-2" d="M16.77,37.83c-5.09,0-8.12-1.83-8.12-4.89,0-1.36,1.44-4.39,3.78-5,.79-3.55,4.73-6,7.48-6,2.51,0,5.2,2.41,5.2,6a5.71,5.71,0,0,1-.06.86,4,4,0,0,1,1.6,2.89,1.83,1.83,0,0,1,0,.33C26.33,35.69,22.74,37.83,16.77,37.83Zm-4.48-8.76A5.36,5.36,0,0,0,9.7,32.94c0,3.56,5.41,3.84,7.07,3.84,2.53,0,8.47-.48,8.82-4.91v0a1.48,1.48,0,0,0,0-.21,2.7,2.7,0,0,0-.83-1.74,2.86,2.86,0,0,1-2.55,2,1.8,1.8,0,0,1-1.78-1.73A2.54,2.54,0,0,1,23.08,28a2.79,2.79,0,0,1,1,.19c0-.09,0-.19,0-.29,0-2.33-1.71-4.94-4.15-4.94a7.44,7.44,0,0,0-6.36,4.83A2.7,2.7,0,0,1,16,30.57a1.8,1.8,0,0,1-2,1.79c-1,0-1.7-1.88-1.7-3.18Zm1.06-.24c0,.11,0,.23,0,.35A3.27,3.27,0,0,0,14,31.31c.3,0,.9-.1.9-.74C14.93,30.55,14.89,28.84,13.35,28.83Zm9.73.21a1.52,1.52,0,0,0-1.59,1.15.76.76,0,0,0,.73.68c.4,0,1.29-.32,1.67-1.62A1.78,1.78,0,0,0,23.08,29Z"/><path class="cls-2" d="M16.18,42.11l-1.15,0a.53.53,0,0,1-.51-.54.54.54,0,0,1,.54-.51l1.12,0c2.46,0,5.56-.25,7.7-2.24a.52.52,0,1,1,.71.77C22.19,41.82,18.83,42.11,16.18,42.11Z"/><path class="cls-2" d="M7.7,48.83a.53.53,0,0,1-.52-.42A12.46,12.46,0,0,1,7,46c0-.36,0-.72,0-1.08s0-.71,0-1.07,0-.54,0-.81a.53.53,0,0,1,.5-.55.53.53,0,0,1,.55.5c0,.29,0,.57,0,.86s0,.73,0,1.09S8,45.69,8,46a11.78,11.78,0,0,0,.18,2.17.52.52,0,0,1-.41.61Z"/><path class="cls-2" d="M5.16,46.38a.52.52,0,0,1-.51-.4A.53.53,0,0,1,5,45.34,12.75,12.75,0,0,1,8,45.07h1c.62,0,1.23,0,1.83,0a.53.53,0,1,1,0,1c-.63,0-1.26,0-1.89,0H8a11.59,11.59,0,0,0-2.68.25Z"/><path class="cls-2" d="M36.57,69.91a.52.52,0,0,1-.52-.5L35,40.81c-3.32,1.88-16.5,9.28-24.8,13.48l.89.31a24.21,24.21,0,0,0,4.61,1.32,118.06,118.06,0,0,1,18.21,4.56l.54.17a.53.53,0,0,1-.17,1,5.62,5.62,0,0,1-.69-.21,116,116,0,0,0-18-4.52,25.15,25.15,0,0,1-4.8-1.37c-.68-.24-1.37-.49-2.06-.7a.53.53,0,0,1-.08-1c9.61-4.77,26.5-14.37,26.62-14.44a.53.53,0,0,1,.52,0,.55.55,0,0,1,.28.44l1.12,29.47a.51.51,0,0,1-.5.54Z"/><path class="cls-2" d="M26.77,54.87a.53.53,0,0,1-.51-.41,16.63,16.63,0,0,1-.33-2.56v-.2l-1,.62-.44.28a.53.53,0,0,1-.57-.89l.45-.28c.58-.37,1.12-.71,1.66-1.1a.51.51,0,0,1,.52,0,.52.52,0,0,1,.31.42c0,.38.07.75.09,1.12a15.59,15.59,0,0,0,.3,2.4.52.52,0,0,1-.39.63Z"/><path class="cls-2" d="M26.29,56h-.05a4.16,4.16,0,0,1-2.76-1.34,4.11,4.11,0,0,1-1.15-2.93A3.85,3.85,0,0,1,25.78,48h.13a4.52,4.52,0,0,1,3.3,1.07,3.92,3.92,0,0,1,1.1,2.55A4.17,4.17,0,0,1,27,56C26.74,56,26.52,56,26.29,56ZM26,49h-.09a2.8,2.8,0,0,0-2.48,2.73,3,3,0,0,0,.86,2.16,3.14,3.14,0,0,0,2,1c.19,0,.39,0,.59,0a3.15,3.15,0,0,0,2.42-3.25,2.83,2.83,0,0,0-.77-1.83A3.42,3.42,0,0,0,26,49Z"/><path class="cls-2" d="M2,60.2a.51.51,0,0,1-.5-.38A12.85,12.85,0,0,1,1,56.22,34.06,34.06,0,0,1,2,49.46l.06-.3a.53.53,0,0,1,.62-.41.52.52,0,0,1,.41.62l-.06.3a33.3,33.3,0,0,0-.9,6.55,12,12,0,0,0,.43,3.32.52.52,0,0,1-.37.64A.32.32,0,0,1,2,60.2Z"/><path class="cls-2" d="M4.2,59.07a.53.53,0,0,1-.51-.39,4.67,4.67,0,0,1-.16-1.28c0-.36,0-2.19.56-2.73a.51.51,0,0,1,.74,0,.52.52,0,0,1,0,.73,6.45,6.45,0,0,0-.26,2,3.86,3.86,0,0,0,.12,1,.52.52,0,0,1-.36.65Z"/><path class="cls-2" d="M34.82,69.13a.53.53,0,0,1-.52-.51l-1-27.38V41a.52.52,0,0,1,.52-.53.53.53,0,0,1,.53.53v.26l1.05,27.36a.53.53,0,0,1-.51.55Z"/><path class="cls-2" d="M35.62,77c-3.18,0-3.9-4.41-3.9-6,0-1.78.83-2.81,2.28-2.81,2.51,0,3.77,4,3.77,4.84a1,1,0,0,1-.67,1,2.83,2.83,0,0,1,.3,1.27C37.4,76.08,37.09,77,35.62,77ZM34,69.26c-.34,0-1.23,0-1.23,1.76,0,1,.48,4.91,2.85,4.91.7,0,.73-.2.73-.61a2.22,2.22,0,0,0-.45-1.26.5.5,0,0,1-.27-.35c-.1-.13-.22-.26-.33-.38a.54.54,0,0,1,.05-.75.52.52,0,0,1,.74,0l.39.45a.81.81,0,0,0,.24,0v0C36.73,72.42,35.6,69.26,34,69.26Z"/><path class="cls-2" d="M35.7,73.59a.51.51,0,0,1-.35-.13,6.36,6.36,0,0,1-1.62-2.2.52.52,0,1,1,1-.42A5.26,5.26,0,0,0,36,72.67a.52.52,0,0,1,.05.74A.51.51,0,0,1,35.7,73.59Z"/><path class="cls-2" d="M34.35,79.28c-1.68,0-3-1.83-3-4.07a4.15,4.15,0,0,1,.32-1.65.52.52,0,1,1,1,.41,3.19,3.19,0,0,0-.23,1.24c0,1.61.93,3,2,3h0s.11-.11.11-.72c0-.13,0-.27,0-.4s0-.25,0-.36a.53.53,0,0,1,.53-.53.52.52,0,0,1,.52.53c0,.1,0,.22,0,.33s0,.29,0,.43C35.54,78.68,35.14,79.28,34.35,79.28Z"/><path class="cls-2" d="M51.31,89.77c-5.66,0-8.3-4.8-10-9a5.32,5.32,0,0,1-.36-2,13.55,13.55,0,0,1,.89-4.12,10.39,10.39,0,0,0,.43-1.56,26.88,26.88,0,0,1-2.57-7.28,4.16,4.16,0,0,0-1.44-2.3,1.55,1.55,0,0,0-.82-.44,3.59,3.59,0,0,0-.28,1.46,2.64,2.64,0,0,0,1.49,2.58.53.53,0,0,1,.32.67.52.52,0,0,1-.67.32,3.52,3.52,0,0,1-2.19-3.57c0-.1,0-2.52,1.23-2.52a2.42,2.42,0,0,1,1.62.71,5.23,5.23,0,0,1,1.77,2.9,26,26,0,0,0,2.49,7,.65.65,0,0,1,.11.34,7.46,7.46,0,0,1-.5,2A13,13,0,0,0,42,78.8a4.06,4.06,0,0,0,.29,1.59c2.3,5.76,5.08,8.33,9,8.33,3.48,0,6.75-2.89,7.6-6.73a.54.54,0,0,1,.63-.4.53.53,0,0,1,.4.63C59,86.6,55.34,89.77,51.31,89.77Z"/><path class="cls-2" d="M37.16,90.25h0c-.69,0-1.36-.11-2-.19a.55.55,0,0,1-.47-.54c0-.44,0-.87,0-1.31,0-1.54,0-3.1-.1-4.61s-.11-3.1-.11-4.65c0-.76,0-1.46,0-2.14a.53.53,0,0,1,1.05,0c0,.67,0,1.36,0,2.11,0,1.54.06,3.1.1,4.61s.11,3.09.11,4.65c0,.28,0,.57,0,.86l.91.09c-.33-4.61-.37-9.27-.37-12.86a.52.52,0,0,1,.53-.52.52.52,0,0,1,.52.52c0,4,0,8.64.41,13.38a.53.53,0,0,1-.52.57Z"/><path class="cls-2" d="M50.38,98c-5.61,0-10.94-4-13.59-10.12a.52.52,0,1,1,1-.41c3,7,8.69,9.48,12.63,9.48,5.07,0,10.06-3.71,11.2-5.61a.52.52,0,1,1,.9.54C61.2,94,55.91,98,50.38,98Z"/><path class="cls-2" d="M62.47,99a.52.52,0,0,1-.52-.44,38.62,38.62,0,0,1-.36-4.64,32.79,32.79,0,0,0-.51-5.4.53.53,0,1,1,1-.21,33,33,0,0,1,.53,5.57A35.9,35.9,0,0,0,63,98.35a.52.52,0,0,1-.44.6Z"/><path class="cls-2" d="M48,85a.52.52,0,0,1-.37-.89,3.1,3.1,0,0,1,2.11-1,3.65,3.65,0,0,1,1.52.51,3.4,3.4,0,0,0,.78.33,3.92,3.92,0,0,0,.77-.37A4.52,4.52,0,0,1,55,82.71a2.63,2.63,0,0,1,1.2.32,2.68,2.68,0,0,0,1.34.33,2,2,0,0,0,.95-.21.53.53,0,0,1,.71.24.52.52,0,0,1-.24.7,3.15,3.15,0,0,1-1.42.32,3.8,3.8,0,0,1-1.8-.43,1.5,1.5,0,0,0-.74-.22,3.76,3.76,0,0,0-1.66.65,2.92,2.92,0,0,1-1.29.51,3,3,0,0,1-1.25-.44,3.16,3.16,0,0,0-1-.4,2.26,2.26,0,0,0-1.37.73A.51.51,0,0,1,48,85Z"/><path class="cls-2" d="M36.83,83.48a.53.53,0,0,1-.16-1,33.91,33.91,0,0,0,3.79-1.61l.61-.29a.53.53,0,0,1,.45,1l-.61.29A34.75,34.75,0,0,1,37,83.45.51.51,0,0,1,36.83,83.48Z"/><path class="cls-2" d="M7.62,93.66H7.54a.52.52,0,0,1-.36-.23l-.75-1.14c-.33-.51-.68-1-1-1.53A.51.51,0,0,1,5.54,90c.87-.6,1.72-1.24,2.46-1.81a.55.55,0,0,1,.39-.1.5.5,0,0,1,.35.21c.54.72,1.1,1.51,1.83,2.56a.54.54,0,0,1-.12.72c-1,.77-1.79,1.36-2.51,1.94A.54.54,0,0,1,7.62,93.66Zm-1-3.07.74,1.13c.14.22.28.44.43.65l1.68-1.3c-.45-.64-.84-1.19-1.21-1.69C7.7,89.77,7.14,90.19,6.57,90.59Z"/><path class="cls-2" d="M20,88a.5.5,0,0,1-.17,0,.53.53,0,0,1-.33-.67,2.28,2.28,0,0,1,2.1-1.53,3.47,3.47,0,0,1,1.63.57,2.67,2.67,0,0,0,1.11.44,1.48,1.48,0,0,0,.78-.46,2.48,2.48,0,0,1,1.63-.78,2,2,0,0,1,1.48.84c.18.19.37.4.49.4a2.2,2.2,0,0,0,.61-.33,2.91,2.91,0,0,1,1.55-.63,1.55,1.55,0,0,1,1,.36.53.53,0,0,1,.09.74.52.52,0,0,1-.74.08.52.52,0,0,0-.34-.13,2.15,2.15,0,0,0-1,.45,2.25,2.25,0,0,1-1.19.51,1.75,1.75,0,0,1-1.26-.74c-.29-.32-.48-.5-.71-.5a1.62,1.62,0,0,0-.95.52,2.25,2.25,0,0,1-1.46.72,3.44,3.44,0,0,1-1.62-.57,2.76,2.76,0,0,0-1.12-.44,1.23,1.23,0,0,0-1.1.82A.53.53,0,0,1,20,88Z"/><path class="cls-2" d="M41.24,104.78a2.06,2.06,0,0,1-2-2.08,2,2,0,0,1,1.44-2.06,2.68,2.68,0,0,1,.68-.08,1.93,1.93,0,0,1,2.09,1.94A2.36,2.36,0,0,1,41.24,104.78Zm.09-3.17a1.7,1.7,0,0,0-.44,0,1,1,0,0,0-.63,1,1,1,0,0,0,1,1,1.31,1.31,0,0,0,1.13-1.23C42.37,101.94,42,101.61,41.33,101.61Z"/><path class="cls-2" d="M42.17,108.23a.55.55,0,0,1-.3-.09.52.52,0,0,1-.13-.73A64.36,64.36,0,0,1,46,102.05l.16-.19a.52.52,0,0,1,.8.68l-.16.19A65.87,65.87,0,0,0,42.6,108,.53.53,0,0,1,42.17,108.23Z"/><path class="cls-2" d="M46.74,109.47c-1.77,0-2-1.11-2-1.78a2.32,2.32,0,0,1,1.36-2,1.33,1.33,0,0,1,.55-.12,2.13,2.13,0,0,1,.39,0l.24,0c.87,0,1.34,1.44,1.34,1.91A2.09,2.09,0,0,1,46.74,109.47Zm-.24-2.86a1.29,1.29,0,0,0-.75,1.08c0,.38.08.73,1,.73a1.07,1.07,0,0,0,.79-.9,1.8,1.8,0,0,0-.37-.86l-.34,0A.5.5,0,0,0,46.5,106.61Z"/><path class="cls-2" d="M24.39,120.41h-.06a2.79,2.79,0,0,1-2.78-2.47,2.75,2.75,0,0,1,2-2.9,4,4,0,0,1,1-.11,2.64,2.64,0,0,1,2.83,2.24,3,3,0,0,1-.8,2.29A2.85,2.85,0,0,1,24.39,120.41Zm-.64-4.35a1.69,1.69,0,0,0,.6,3.3,1.79,1.79,0,0,0,1.39-.61,2,2,0,0,0,.53-1.46c-.08-.63-.59-1.3-1.8-1.31A3.78,3.78,0,0,0,23.75,116.06Z"/><path class="cls-2" d="M28.42,122.19a.53.53,0,0,1-.35-.13,18,18,0,0,1-1.59-1.71c-.22-.27-.46-.55-.71-.83a.52.52,0,1,1,.78-.7l.74.85a14.94,14.94,0,0,0,1.48,1.61.51.51,0,0,1,0,.74A.52.52,0,0,1,28.42,122.19Z"/><path class="cls-2" d="M40,122.08a4.66,4.66,0,0,1-3.18-1.29,4.13,4.13,0,0,1-1.31-3,4.38,4.38,0,0,1,3.32-4.21,4.37,4.37,0,0,1,5.38,3.94,4.43,4.43,0,0,1-4.05,4.53Zm-.92-7.45a3.33,3.33,0,0,0-2.52,3.19,3.06,3.06,0,0,0,1,2.21,3.53,3.53,0,0,0,2.57,1,3.43,3.43,0,0,0,3.05-3.45,3.22,3.22,0,0,0-3.31-3A3.27,3.27,0,0,0,39.08,114.63Z"/><path class="cls-2" d="M44.06,128.87H44c-.63-.06-1.29-.08-2.15-.08h-2.5c-1.47,0-2.52-.1-2.72-.12h-.18a.53.53,0,0,1-.59-.42,13.13,13.13,0,0,1-.24-2.42c0-2.53.93-4.17,2.7-4.74a.52.52,0,0,1,.66.34.53.53,0,0,1-.33.66c-1.32.42-2,1.68-2,3.74a11.57,11.57,0,0,0,.15,1.79c.3,0,1.26.11,2.53.11h2.5c.65,0,1.2,0,1.7,0,0-.31,0-.66,0-1,0-2.57-.65-4-2.09-4.76a.52.52,0,0,1-.24-.7.53.53,0,0,1,.71-.24c2.39,1.2,2.67,3.83,2.67,5.7,0,.6,0,1.18-.06,1.62a.51.51,0,0,1-.52.49Z"/><path class="cls-2" d="M40.46,125.75a.58.58,0,0,1-.37-.15c-.45-.46-.85-.95-1.24-1.43a12.28,12.28,0,0,0-1.48-1.63.52.52,0,1,1,.68-.79,12.68,12.68,0,0,1,1.61,1.76c.25.3.49.6.75.9.6-.78,1.26-1.49,1.89-2.18a.53.53,0,0,1,.75,0,.52.52,0,0,1,0,.74,24.77,24.77,0,0,0-2.19,2.59.57.57,0,0,1-.38.22Z"/><path class="cls-2" d="M36.13,119.35a.54.54,0,0,1-.37-.16.53.53,0,0,1,0-.74A12.9,12.9,0,0,1,42.9,115a.54.54,0,0,1,.6.44.52.52,0,0,1-.44.6,11.89,11.89,0,0,0-6.56,3.13A.52.52,0,0,1,36.13,119.35Z"/><path class="cls-2" d="M15.32,112.32a.51.51,0,0,1-.41-.2,43.41,43.41,0,0,1-6.47-11.31.52.52,0,0,1,.29-.68.53.53,0,0,1,.68.3,42.83,42.83,0,0,0,6.32,11,.52.52,0,0,1-.09.73A.49.49,0,0,1,15.32,112.32Z"/><path class="cls-2" d="M13,103.77a.53.53,0,0,1-.44-.23l-.48-.71a12.27,12.27,0,0,1-1.95-3.64.53.53,0,0,1,.37-.65.52.52,0,0,1,.64.37,11.85,11.85,0,0,0,1.8,3.33c.17.24.34.48.49.72a.51.51,0,0,1-.14.72A.52.52,0,0,1,13,103.77Z"/><path class="cls-2" d="M24.76,111.08c-4.18,0-10-3.44-10-9.91,0-5,3.08-8.15,8-8.34a.55.55,0,0,1,.55.52,62.86,62.86,0,0,0,.6,6.86l.18,1.47c1.59.1,3.35.2,5.09.2a30.68,30.68,0,0,0,4.25-.26.54.54,0,0,1,.46.17.53.53,0,0,1,.12.48C33.36,105.13,31.91,111.08,24.76,111.08ZM22.32,93.91c-4,.37-6.48,3.11-6.48,7.26A9,9,0,0,0,24.76,110c5.46,0,7.13-3.63,8.09-7.27-1.11.11-2.3.17-3.62.17-1.93,0-3.88-.12-5.6-.23a.53.53,0,0,1-.49-.47c-.07-.63-.15-1.26-.22-1.89C22.66,98.24,22.39,96.07,22.32,93.91Z"/><path class="cls-2" d="M25.86,99.45a.52.52,0,0,1-.52-.46c-.2-1.67-.3-3.36-.39-5-.05-.76-.09-1.52-.14-2.28a.46.46,0,0,1,.16-.41.51.51,0,0,1,.42-.14c3.77.47,8,3.17,8.64,7.42a.51.51,0,0,1-.1.41.53.53,0,0,1-.38.2c-1.53.09-3.09.13-4.59.16l-3.08.09Zm0-7.14c0,.54.06,1.09.1,1.63.08,1.46.17,3,.33,4.44l2.6-.07c1.3,0,2.63-.06,4-.13C32.06,95,28.92,92.9,25.9,92.31Z"/><path class="cls-2" d="M7.36,82.18a.53.53,0,0,1-.53-.47c0-.33-.08-.65-.12-1a49.39,49.39,0,0,1-.41-7.66V72.5A.52.52,0,0,1,6.82,72c1.47,0,3,0,4.43.07,1.2,0,2.44.07,3.66.07,2.39,0,5.06-.25,7.89-.51,2.39-.22,4.87-.45,7.45-.56a.53.53,0,1,1,0,1c-2.55.11-5,.34-7.39.56-2.86.26-5.55.51-8,.51-1.23,0-2.48,0-3.7-.07S8.64,73,7.35,73v.06a47.86,47.86,0,0,0,.4,7.52c0,.17,0,.34.07.51C9.93,81,12,81,13.61,81h5.11c5,0,7.28-.13,9.65-.26,1.1-.07,2.24-.14,3.72-.19a.53.53,0,0,1,0,1c-1.47,0-2.6.12-3.7.18-2.39.14-4.64.27-9.71.27H13.61c-1.72,0-4,0-6.23.1Z"/><path class="cls-2" d="M10,78.85a.51.51,0,0,1-.38-.18c-.29-.31-.57-.65-.84-1s-.44-.54-.67-.79a.52.52,0,0,1,.05-.74.53.53,0,0,1,.74,0c.23.26.46.54.69.82s.28.33.41.5l.2-.21c.26-.29.51-.56.73-.85a.49.49,0,0,1,.4-.21.53.53,0,0,1,.42.18c.23.27.45.56.67.84a1.13,1.13,0,0,1,.1.13c.21-.26.41-.51.62-.75l.56-.69a.53.53,0,0,1,.82.66l-.57.69c-.34.41-.68.83-1,1.25a.51.51,0,0,1-.41.21.46.46,0,0,1-.41-.19l-.53-.66-.25-.32L11,78a8.15,8.15,0,0,0-.56.63A.59.59,0,0,1,10,78.85Z"/><path class="cls-2" d="M15.55,78.62a.51.51,0,0,1-.38-.16,15.08,15.08,0,0,1-1.52-1.87.52.52,0,1,1,.87-.58,11.5,11.5,0,0,0,1,1.29c.22-.23.46-.44.69-.65l.33-.3a.62.62,0,0,1,.39-.14.5.5,0,0,1,.36.18c.2.21.41.42.64.64l.18.16.84-.83.53-.52a.53.53,0,0,1,.74,0,.51.51,0,0,1,0,.74c-.17.18-.35.35-.54.53-.39.38-.8.78-1.16,1.19a.52.52,0,0,1-.39.17.54.54,0,0,1-.39-.16c-.16-.18-.35-.35-.53-.52l-.33-.32a5.8,5.8,0,0,0-.92.94.53.53,0,0,1-.39.21Z"/><path class="cls-2" d="M24.16,78.38a.52.52,0,0,1-.32-.11l-.17-.13c-.3-.22-.61-.46-.91-.71l-.33.27-.65.55a.52.52,0,0,1-.7,0c-.16-.15-.34-.28-.53-.43a4,4,0,0,1-1.34-1.47.52.52,0,1,1,.95-.43,3,3,0,0,0,1,1.07l.25.19.32-.27.67-.57a.55.55,0,0,1,.71,0,9.73,9.73,0,0,0,.91.77,17.36,17.36,0,0,1,1.39-1.54.52.52,0,1,1,.74.74,13.58,13.58,0,0,0-1.59,1.84.59.59,0,0,1-.35.22Z"/><path class="cls-2" d="M26.58,79a.55.55,0,0,1-.37-.13l-.07,0a.53.53,0,0,1-.32-.48s0,0,0-.06,0-.11,0-.16a.72.72,0,0,1,.41-.67l.13,0,.09,0h.13a.87.87,0,0,1,.79.81.78.78,0,0,1-.34.61l0,0A.58.58,0,0,1,26.58,79Zm.08-.63v0Z"/><path class="cls-2" d="M2.05,79.35a.53.53,0,0,1-.48-.3C.18,76.18.09,73,0,70v-.37a.53.53,0,0,1,1.05,0v.37c.08,3,.16,6,1.46,8.67a.54.54,0,0,1-.25.71A.59.59,0,0,1,2.05,79.35Z"/><path class="cls-2" d="M3.34,68.16H3.26A2.35,2.35,0,0,1,1,66a2.61,2.61,0,0,1,1.57-2.54A1.89,1.89,0,0,1,3,63.37a2.61,2.61,0,0,1,2,.71,2.33,2.33,0,0,1,.79,1.84A2.41,2.41,0,0,1,3.34,68.16ZM2.82,64l.2.48a1.59,1.59,0,0,0-.94,1.51,1.32,1.32,0,0,0,1.21,1.17A1.37,1.37,0,0,0,4.7,65.88a1.27,1.27,0,0,0-.45-1,1.61,1.61,0,0,0-1.15-.44l-.08,0Z"/><path class="cls-2" d="M10.4,66.14h-.05A.52.52,0,0,1,10,66c-.64-.81-1.24-1.64-1.76-2.39L8,63.7c-.84.58-1.71,1.18-2.59,1.75a.53.53,0,0,1-.73-.15.52.52,0,0,1,.16-.73c.86-.56,1.73-1.16,2.56-1.74l.63-.43a.53.53,0,0,1,.73.14c.49.71,1.06,1.52,1.67,2.32,1-.85,2.06-1.65,3.14-2.47a.51.51,0,0,1,.7.06c.47.52.92,1,1.36,1.57.19.23.38.46.58.68.26-.23.53-.45.8-.66a13,13,0,0,0,1.63-1.47.52.52,0,0,1,.79.69,14.7,14.7,0,0,1-1.76,1.6c-.39.31-.79.63-1.15,1a.52.52,0,0,1-.39.14.51.51,0,0,1-.37-.18l-.93-1.09c-.33-.39-.67-.79-1-1.18-1.08.82-2.13,1.64-3.1,2.49A.51.51,0,0,1,10.4,66.14Z"/><path class="cls-2" d="M20.2,64.41a.49.49,0,0,1-.36-.15A15.34,15.34,0,0,1,17.78,62a.52.52,0,0,1,.26-.79c1-.35,2.23-.78,3.46-1.33a.52.52,0,0,1,.58.11.54.54,0,0,1,.11.59c-.27.61-.54,1.24-.8,1.86s-.47,1.12-.71,1.67a.52.52,0,0,1-.38.31Zm-1.13-2.47A13.47,13.47,0,0,0,20,63l.41-1c.09-.22.19-.45.28-.68C20.14,61.56,19.59,61.76,19.07,61.94Z"/><path class="cls-2" d="M43.13,70.88a.53.53,0,0,1,0-1c1.22-.11,2.43-.12,3.6-.13.78,0,1.57,0,2.37,0a.52.52,0,0,1,.55.5.53.53,0,0,1-.51.55c-.81,0-1.62,0-2.4,0-1.15,0-2.33,0-3.52.12Z"/><path class="cls-2" d="M43.74,80.24a.53.53,0,0,1-.06-1c1.35-.15,2.7-.25,4-.34s2.61-.19,3.93-.34l-.06-.36a19.11,19.11,0,0,1-.32-3.06c0-.29,0-.57,0-.85a.53.53,0,0,1,1,.1,6.06,6.06,0,0,0,0,.75,18.77,18.77,0,0,0,.31,2.9c0,.3.09.6.14.9a.54.54,0,0,1-.11.4.52.52,0,0,1-.35.2c-1.52.19-3,.3-4.51.4-1.3.1-2.63.19-4,.34Z"/><path class="cls-2" d="M105.59,16.18a4.4,4.4,0,0,1-4.47-4.11,4.73,4.73,0,0,1,1.31-3.47,4.29,4.29,0,0,1,3.13-1.39,3.63,3.63,0,0,1,.93.1,4.6,4.6,0,0,1,3.18,2.34,3.78,3.78,0,0,1,.4,1.48,4.83,4.83,0,0,1-1.29,3.62A4.4,4.4,0,0,1,105.59,16.18Zm0-7.92a3.27,3.27,0,0,0-2.39,1.06,3.65,3.65,0,0,0-1,2.7,3.35,3.35,0,0,0,3.42,3.11A3.43,3.43,0,0,0,108,14a3.78,3.78,0,0,0,1-2.83,2.65,2.65,0,0,0-.28-1.07,3.6,3.6,0,0,0-2.47-1.8A3.23,3.23,0,0,0,105.58,8.26Z"/><path class="cls-2" d="M105.36,12.53a.53.53,0,0,1-.52-.48c0-.67-.08-1.37-.08-2.13s0-1.26,0-2a.53.53,0,0,1,.55-.5.52.52,0,0,1,.5.55c0,.69,0,1.32,0,1.92s0,1,0,1.48l.38-.05a19.87,19.87,0,0,1,3.13-.32.53.53,0,0,1,.53.53.52.52,0,0,1-.53.52,20.2,20.2,0,0,0-3,.3l-1,.14Z"/><path class="cls-2" d="M100.53,5.35h-.11A16.22,16.22,0,0,1,96.57,4a14.36,14.36,0,0,0-4.35-1.38.53.53,0,1,1,.16-1A15.88,15.88,0,0,1,97,3.05a14.29,14.29,0,0,0,3.62,1.26.52.52,0,0,1,.41.62A.53.53,0,0,1,100.53,5.35Z"/><path class="cls-2" d="M111.49,22a2.09,2.09,0,0,1-2.31-1.94A2.38,2.38,0,0,1,111.55,18v0a1.92,1.92,0,0,1,1.42.41l.13.12a1.62,1.62,0,0,1,.55,1.49A2.05,2.05,0,0,1,111.49,22Zm.06-3.53V19c-.62,0-1.32.56-1.32,1.06,0,.7.83.89,1.26.89a1,1,0,0,0,1.11-1c0-.51,0-.54-.21-.71s-.11-.1-.16-.16a1.34,1.34,0,0,0-.68-.1Z"/><path class="cls-2" d="M113,25a.57.57,0,0,1-.18,0,.54.54,0,0,1-.32-.67,22.3,22.3,0,0,1,2-3.82c.47-.76,1-1.55,1.36-2.36a.53.53,0,1,1,.94.47c-.42.85-.92,1.66-1.4,2.44a20,20,0,0,0-1.9,3.63A.52.52,0,0,1,113,25Z"/><path class="cls-2" d="M117.34,24.86a1.84,1.84,0,0,1-2-1.89,2.28,2.28,0,0,1,.82-1.75.52.52,0,0,1,.46-.11.5.5,0,0,1,.4-.19c2,0,2.4,1,2.4,1.79A2.22,2.22,0,0,1,117.34,24.86Zm-.4-2.9-.07.06a1.29,1.29,0,0,0-.44.95.79.79,0,0,0,.91.84,1.19,1.19,0,0,0,1.07-1.1c0-.28,0-.74-1.35-.74Z"/><path class="cls-2" d="M100.51,27h-.11a4,4,0,0,1-4-4,4.08,4.08,0,0,1,2.81-4,4.61,4.61,0,0,1,1.41-.22,4.08,4.08,0,0,1,4.21,3.7,4.2,4.2,0,0,1-1.24,3.13A4.32,4.32,0,0,1,100.51,27Zm-1-7A3,3,0,0,0,97.44,23a3,3,0,0,0,3,2.95,3.31,3.31,0,0,0,2.4-1,3.13,3.13,0,0,0,.94-2.34,3,3,0,0,0-3.16-2.71A3.55,3.55,0,0,0,99.51,20Z"/><path class="cls-2" d="M97.87,31.81a.52.52,0,0,1-.51-.43,9.16,9.16,0,0,1-.16-1.68,4.7,4.7,0,0,1,1.6-3.85.52.52,0,0,1,.65.82,3.66,3.66,0,0,0-1.2,3,7.33,7.33,0,0,0,.07,1c1.22-.07,2.45-.19,3.65-.3l2.34-.21v-.08a4.5,4.5,0,0,0-1.89-3.71.51.51,0,0,1-.16-.72.54.54,0,0,1,.73-.16,5.48,5.48,0,0,1,2.37,4.59c0,.21,0,.42,0,.63a.52.52,0,0,1-.48.46c-.93.07-1.87.16-2.79.25-1.36.12-2.77.26-4.16.33Zm6.94-1.1Z"/><path class="cls-2" d="M97.46,24.77a.45.45,0,0,1-.31-.11.52.52,0,0,1-.11-.73c1.32-1.75,3.15-3.83,5.66-4.31a.51.51,0,0,1,.61.41.53.53,0,0,1-.41.62c-2.16.41-3.82,2.31-5,3.91A.51.51,0,0,1,97.46,24.77Z"/><path class="cls-2" d="M101.3,29.43a.51.51,0,0,1-.37-.15,18.39,18.39,0,0,1-1.48-1.7c-.13-.15-.25-.31-.38-.47a.52.52,0,0,1,.81-.66l.38.47c.32.4.63.78,1,1.15a10.11,10.11,0,0,0,.67-1.77l.06-.2a.52.52,0,0,1,.65-.34.51.51,0,0,1,.35.65l-.06.2a7.77,7.77,0,0,1-1.18,2.62.51.51,0,0,1-.38.2Z"/><path class="cls-2" d="M124.5,29.32A.52.52,0,0,1,124,29a5.48,5.48,0,0,0-1.83-2.29l-.21-.19a.52.52,0,0,1,0-.74.53.53,0,0,1,.74,0l.21.19A6.46,6.46,0,0,1,125,28.64a.53.53,0,0,1-.35.66Z"/><path class="cls-2" d="M130.27,34.22a.51.51,0,0,1-.46-.28l-.17-.32c-1.66-3.16-3.38-6.43-5.95-8.91a.53.53,0,0,1,0-.74.51.51,0,0,1,.74,0c2.69,2.59,4.45,5.93,6.15,9.17l.17.32a.54.54,0,0,1-.22.71A.57.57,0,0,1,130.27,34.22Z"/><path class="cls-2" d="M117.44,44a7.27,7.27,0,0,1-5.17-2.16A7.61,7.61,0,0,1,110,36.11a6.87,6.87,0,0,1,6.29-6.49,8.26,8.26,0,0,1,3.45.56,6.88,6.88,0,0,1,4.4,6.79,6.76,6.76,0,0,1-6.27,7Zm-.72-13.32h-.37a5.81,5.81,0,0,0-5.31,5.5,6.6,6.6,0,0,0,2,4.9,6.21,6.21,0,0,0,4.8,1.85,5.73,5.73,0,0,0,5.28-6,5.78,5.78,0,0,0-3.71-5.79A7.76,7.76,0,0,0,116.72,30.66Z"/><path class="cls-2" d="M108.31,49a1.72,1.72,0,0,1-1.49-1.7c0-1.53,1.76-3.56,3.72-5.68.32-.35.59-.64.78-.87a.53.53,0,0,1,.74-.06.52.52,0,0,1,.06.74c-.2.24-.48.55-.81.9-1.2,1.3-3.44,3.72-3.44,5a.75.75,0,0,0,.45.65c.58-.1,2.75-2.6,3.79-3.8.62-.7,1.15-1.31,1.52-1.68a.52.52,0,0,1,.74.74c-.35.35-.86.94-1.46,1.63C110.36,47.72,109.15,49,108.31,49Z"/><path class="cls-2" d="M116.22,40.31h-.12a.56.56,0,0,1-.39-.37c-.07-.26-.15-.52-.23-.78-.15-.51-.3-1-.43-1.56-.62-.17-1.14-.33-1.61-.51a.52.52,0,0,1,0-1,16,16,0,0,0,1.75-1l.38-.23a14.52,14.52,0,0,1-.1-1.49c0-.25,0-.49,0-.71a.52.52,0,0,1,.36-.44.5.5,0,0,1,.54.13c.22.22.42.45.63.67s.39.43.59.63a10.26,10.26,0,0,0,1.57,0,12.91,12.91,0,0,1,1.39,0,.52.52,0,0,1,.46.73c-.06.14-.12.28-.17.42a9.57,9.57,0,0,1-.82,1.63v0a3.78,3.78,0,0,0,.47,1.72A.53.53,0,0,1,120,39a16.86,16.86,0,0,1-2-.34c-.39.43-.86,1-1.31,1.48A.53.53,0,0,1,116.22,40.31ZM115,36.48l.65.18a.52.52,0,0,1,.38.39c.12.55.29,1.12.45,1.67.33-.38.65-.73.92-1a.52.52,0,0,1,.53-.15,10.93,10.93,0,0,0,1.29.27A4.45,4.45,0,0,1,119,36.5c0-.08,0-.16,0-.24a.56.56,0,0,1,.1-.28,5.69,5.69,0,0,0,.66-1.25l-.53,0a11.18,11.18,0,0,1-1.94,0,.51.51,0,0,1-.3-.15,5.11,5.11,0,0,1-.45-.48c0,.27,0,.53.08.8l0,.24a.55.55,0,0,1-.25.51l-.66.39Z"/><path class="cls-2" d="M130.52,49.08a.49.49,0,0,1-.32-.12c-.38-.29-.77-.59-1.16-.87s-.79-.58-1.18-.88a.53.53,0,0,1-.08-.74c.7-.9,1.45-1.86,2.22-2.82a.52.52,0,0,1,.72-.09,32.67,32.67,0,0,1,2.57,2.12.52.52,0,0,1,.17.38.5.5,0,0,1-.15.38c-.77.78-1.59,1.61-2.41,2.47A.52.52,0,0,1,130.52,49.08Zm-1.59-2.38.73.55.81.59c.57-.6,1.15-1.19,1.71-1.74-.6-.53-1.15-1-1.68-1.39C130,45.38,129.43,46.05,128.93,46.7Z"/><path class="cls-2" d="M116.18,53.47a.53.53,0,0,1-.51-.43,14.74,14.74,0,0,1-.18-2.47,15.71,15.71,0,0,0-.09-1.85.54.54,0,0,1,.46-.59.52.52,0,0,1,.58.46,16.19,16.19,0,0,1,.1,2,13.07,13.07,0,0,0,.16,2.29.53.53,0,0,1-.42.62Z"/><path class="cls-2" d="M117.94,51.19H114a.52.52,0,0,1-.53-.52.53.53,0,0,1,.53-.53h3.94a.53.53,0,0,1,.52.53A.52.52,0,0,1,117.94,51.19Z"/><path class="cls-2" d="M134.09,67c-2.17,0-5.61-1-5.61-3.81,0-1.35,1.66-2.72,3.28-2.72h.07A4.73,4.73,0,0,1,136,57.8c2.06,0,3.24,1.26,3.24,3.46a4,4,0,0,1-.23,1.42,2,2,0,0,1,.39,2.08,1.58,1.58,0,0,1-.65.87A11.1,11.1,0,0,1,134.09,67Zm-2.58-5.47c-1.08.14-2,1.08-2,1.66,0,2.09,3.07,2.77,4.56,2.77a10.33,10.33,0,0,0,4.13-1.18.67.67,0,0,0,.22-.35,1.09,1.09,0,0,0,.06-.36,1.05,1.05,0,0,0-.1-.44,2.11,2.11,0,0,1-1.4.47,1,1,0,0,1-1.08-1c0-.75.78-1.1,1.5-1.1a2.06,2.06,0,0,1,.7.12,3.43,3.43,0,0,0,.09-.84c0-1.62-.71-2.41-2.19-2.41a3.69,3.69,0,0,0-3.14,1.85A2,2,0,0,1,134,62.53c0,1.13-.63,1.53-1.22,1.53-.79,0-1.28-.77-1.28-2A3.41,3.41,0,0,1,131.51,61.49Zm1,.23c0,.11,0,.21,0,.32a1.49,1.49,0,0,0,.23,1c.14,0,.17-.27.17-.49A1,1,0,0,0,132.53,61.72Z"/><path class="cls-2" d="M139.46,76.91a.52.52,0,0,1-.51-.37,16.13,16.13,0,0,1-.5-3.84c0-.25,0-.5,0-.74a.53.53,0,0,1,.49-.56.53.53,0,0,1,.56.5c0,.25,0,.49,0,.74a14.86,14.86,0,0,0,.46,3.6.53.53,0,0,1-.35.65A.39.39,0,0,1,139.46,76.91Z"/><path class="cls-2" d="M139,74.65h-1.5a.53.53,0,0,1-.53-.53.52.52,0,0,1,.53-.52H139a10.84,10.84,0,0,0,2.15-.17.52.52,0,0,1,.62.4.52.52,0,0,1-.4.62A11.15,11.15,0,0,1,139,74.65Z"/><path class="cls-2" d="M109,59.7h-.15a2.23,2.23,0,0,1-2.16-2.09,2.47,2.47,0,0,1,1.6-2.52,3,3,0,0,1,.76-.17h.36a2.29,2.29,0,0,1,2.07,2.31,2.41,2.41,0,0,1-.73,1.78A2.52,2.52,0,0,1,109,59.7Zm-.36-3.64a1.44,1.44,0,0,0-.9,1.46A1.18,1.18,0,0,0,109,58.64a1.45,1.45,0,0,0,1.11-.4,1.32,1.32,0,0,0,.41-1,1.24,1.24,0,0,0-1.1-1.29h-.19A3.22,3.22,0,0,0,108.68,56.06Z"/><path class="cls-2" d="M105.37,69.72a1.86,1.86,0,1,1,0-3.72,1.83,1.83,0,0,1,1.83,1.8,2,2,0,0,1-.55,1.36,1.87,1.87,0,0,1-1.31.56Zm-.25-2.63a.86.86,0,0,0-.61.81.88.88,0,0,0,.86.77.82.82,0,0,0,.58-.25.87.87,0,0,0,.25-.6.77.77,0,0,0-.8-.77A.82.82,0,0,0,105.12,67.09Z"/><path class="cls-2" d="M103.85,77.31a17.66,17.66,0,0,1-.53-3.72.53.53,0,0,1,.53-.53.52.52,0,0,1,.52.53,17,17,0,0,0,.5,3.48l-.51.13Z"/><path class="cls-2" d="M102.27,76a.52.52,0,0,1-.52-.53.52.52,0,0,1,.52-.52,8,8,0,0,0,1.4-.17,9.33,9.33,0,0,1,1.58-.18.52.52,0,0,1,.52.52.52.52,0,0,1-.52.53,8.08,8.08,0,0,0-1.4.17A9.21,9.21,0,0,1,102.27,76Z"/><path class="cls-2" d="M89.34,46.87a17.46,17.46,0,0,1-.52-3.72.52.52,0,0,1,.53-.52.52.52,0,0,1,.52.52,16.23,16.23,0,0,0,.5,3.48l-.51.13Z"/><path class="cls-2" d="M87.77,45.6a.52.52,0,0,1-.52-.52.52.52,0,0,1,.52-.53,8.08,8.08,0,0,0,1.4-.17,10.47,10.47,0,0,1,1.58-.18.52.52,0,0,1,.52.53.52.52,0,0,1-.52.52,8,8,0,0,0-1.4.17A9.33,9.33,0,0,1,87.77,45.6Z"/><path class="cls-2" d="M112.43,90.05a2.36,2.36,0,0,1-2.2-2.29,2.26,2.26,0,0,1,2.4-2.18h.19a1.84,1.84,0,0,1,1.05.27,2.18,2.18,0,0,1,.84,1.79A2.3,2.3,0,0,1,112.43,90.05Zm.06-3.43a1.23,1.23,0,0,0-1.21,1.14A1.31,1.31,0,0,0,112.43,89a1.26,1.26,0,0,0,1.23-1.36,1.17,1.17,0,0,0-.41-.94,1.26,1.26,0,0,0-.46-.07h-.3Z"/><path class="cls-2" d="M136.75,90.5a.52.52,0,0,1-.32-.11l-3-2.22a.55.55,0,0,1-.09-.76l.49-.57c.62-.75,1.21-1.44,1.76-2.18a.54.54,0,0,1,.36-.21.53.53,0,0,1,.4.13,29,29,0,0,0,2.8,2.23.51.51,0,0,1,.13.75c-.36.48-.74,1-1.11,1.4s-.72.88-1.05,1.33a.55.55,0,0,1-.35.2Zm-2.19-2.84,2.09,1.58c.25-.32.51-.64.76-.94l.75-.94a24.28,24.28,0,0,1-2-1.62c-.48.6-1,1.19-1.46,1.77Z"/><path class="cls-2" d="M130.23,103.57h0a2.31,2.31,0,0,1-2.32-2.31,2.36,2.36,0,0,1,1.11-2,2.25,2.25,0,0,1,.94-.29,2.68,2.68,0,0,1,2,.6,2.18,2.18,0,0,1,.71,1.58,2.41,2.41,0,0,1-2.41,2.46Zm0-3.6H130a1.08,1.08,0,0,0-.48.14,1.31,1.31,0,0,0-.6,1.14,1.27,1.27,0,0,0,1.29,1.26,1.33,1.33,0,0,0,1-.41,1.35,1.35,0,0,0,.39-1,1.08,1.08,0,0,0-.36-.82A1.55,1.55,0,0,0,130.18,100Z"/><path class="cls-2" d="M118.9,95.92a.53.53,0,0,1-.53-.49c0-.38,0-.76,0-1.13a11.45,11.45,0,0,0-.13-1.89.51.51,0,0,1,.42-.61.52.52,0,0,1,.61.41,12.09,12.09,0,0,1,.15,2.07c0,.19,0,.39,0,.58.78,0,1.56,0,2.35,0h1.39a33.06,33.06,0,0,0,3.74-.17q-.09-1.07-.15-2.13c-.14-2-.28-4-.57-6a.52.52,0,1,1,1-.14c.3,2.07.44,4.13.57,6.12.06.87.12,1.74.19,2.61a.53.53,0,0,1-.45.57,32.38,32.38,0,0,1-4.37.24h-1.4C120.8,95.9,119.85,95.9,118.9,95.92Z"/><path class="cls-2" d="M123,95.55a.53.53,0,0,1-.52-.45c-.26-1.82-.35-3.7-.44-5.53v-.12a.53.53,0,1,1,1,0v.12c.09,1.8.18,3.66.43,5.43a.52.52,0,0,1-.45.59Z"/><path class="cls-2" d="M111.55,80.33a.54.54,0,0,1-.53-.51c0-1.31-.13-2.66-.21-4l-.15-2.27a.62.62,0,0,1,.14-.39.58.58,0,0,1,.37-.17c2.31-.07,4.2-.19,6-.35a.52.52,0,0,1,.57.47.54.54,0,0,1-.48.58c-1.63.15-3.38.26-5.47.33,0,.58.08,1.15.11,1.73.09,1.32.18,2.68.22,4a.51.51,0,0,1-.5.54Z"/><path class="cls-2" d="M132.72,79.54a.52.52,0,0,1-.52-.49l0-.46c-.13-1.85-.25-3.6-.34-5.39-.86.07-1.78.11-2.86.11-.88,0-1.77,0-2.63,0h-.07a.53.53,0,1,1,0-1.05h.06c.86,0,1.75.05,2.61.05a29.14,29.14,0,0,0,3.3-.16.52.52,0,0,1,.4.12.51.51,0,0,1,.18.38c.09,2,.22,3.89.36,5.92l0,.46a.52.52,0,0,1-.48.56Z"/><path class="cls-2" d="M117.41,80.25a.52.52,0,0,1-.52-.48c-.16-1.81-.19-3.65-.23-5.43a66.16,66.16,0,0,0-.38-7,15.53,15.53,0,0,1-.11-2.08.55.55,0,0,1,.16-.4c1.11-1.06,2.16-2.2,3.18-3.3l.43-.46a.58.58,0,0,1,.38-.17h.6c1.39,0,2.83,0,4.23-.16a.53.53,0,0,1,.57.48c.24,2.76.52,5.59.79,8.31.3,3.07.61,6.24.87,9.35a.52.52,0,1,1-1,.09c-.27-3.1-.58-6.27-.88-9.33-.25-2.56-.51-5.21-.74-7.81-1.27.09-2.55.11-3.79.12h-.37l-.28.29c-1,1.06-2,2.16-3.06,3.19a12.43,12.43,0,0,0,.1,1.75,65.89,65.89,0,0,1,.39,7.09c0,1.76.07,3.59.22,5.36a.52.52,0,0,1-.48.57Z"/><path class="cls-2" d="M116.88,67.2a.53.53,0,0,1-.51-.41.54.54,0,0,1,.4-.63,40.91,40.91,0,0,1,6.62-.7l1.86-.09a.52.52,0,0,1,.56.49.51.51,0,0,1-.49.55l-1.88.1a39.23,39.23,0,0,0-6.44.68Z"/><path class="cls-2" d="M117.5,77.35a.53.53,0,0,1-.52-.45.52.52,0,0,1,.44-.59A32.83,32.83,0,0,1,121.7,76a32.61,32.61,0,0,0,4.61-.34.53.53,0,0,1,.61.42.52.52,0,0,1-.43.61,32.29,32.29,0,0,1-4.76.36,32.4,32.4,0,0,0-4.16.27Z"/><path class="cls-2" d="M120.33,76.84a.53.53,0,0,1-.52-.46c-.22-1.64-.3-3.32-.37-4.95s-.15-3.26-.36-4.86a.52.52,0,0,1,1-.14c.22,1.64.29,3.33.37,4.95s.14,3.27.36,4.86a.52.52,0,0,1-.45.59Z"/><path class="cls-2" d="M123.46,76.7a.52.52,0,0,1-.52-.48c-.09-1.17-.22-2.33-.34-3.47a63.45,63.45,0,0,1-.47-6.69.52.52,0,0,1,.53-.52.52.52,0,0,1,.52.52,61,61,0,0,0,.47,6.58c.12,1.14.24,2.32.33,3.5a.52.52,0,0,1-.48.56Z"/><path class="cls-2" d="M117.23,70a.53.53,0,0,1,0-1c1.12-.07,2.25-.17,3.35-.26,1.66-.15,3.38-.3,5.07-.35a.52.52,0,0,1,.54.51.53.53,0,0,1-.51.54c-1.66,0-3.36.2-5,.34-1.1.1-2.25.2-3.37.27Z"/><path class="cls-2" d="M117.41,72.8a.52.52,0,0,1-.52-.49.53.53,0,0,1,.49-.56c.78,0,1.58-.07,2.36-.09a24.87,24.87,0,0,0,5.67-.59.52.52,0,1,1,.27,1,25.71,25.71,0,0,1-5.91.63c-.77,0-1.56,0-2.33.09Z"/><path class="cls-2" d="M120.56,61.78h0a.53.53,0,0,1-.5-.55c0-.18,0-.35,0-.53,0-.9-.09-1.84-.18-2.74s-.19-1.89-.19-2.83a.53.53,0,0,1,.53-.53.52.52,0,0,1,.52.53c0,.89.1,1.82.18,2.72s.19,1.9.19,2.85c0,.19,0,.39,0,.58A.52.52,0,0,1,120.56,61.78Z"/><path class="cls-2" d="M120.56,58.63a.52.52,0,0,1-.52-.5.51.51,0,0,1,.49-.55c1.22-.06,2.43-.16,3.61-.3a4.49,4.49,0,0,1-.23-1.37,3.87,3.87,0,0,1,0-.48,31.9,31.9,0,0,1-3.76,0,.53.53,0,0,1,.06-1,32.06,32.06,0,0,0,4.32-.1.54.54,0,0,1,.46.2.53.53,0,0,1,.08.5,2.8,2.8,0,0,0-.14.88,2.58,2.58,0,0,0,.39,1.44.5.5,0,0,1,.11.53.52.52,0,0,1-.42.35c-1.45.19-3,.32-4.45.4Z"/><path class="cls-2" d="M121,108.09h-.25a3.62,3.62,0,0,1-3.41-3.71,3.81,3.81,0,0,1,2.09-3.51,4.13,4.13,0,0,1,1.63-.37,3.74,3.74,0,0,1,2.77,6.46A4.1,4.1,0,0,1,121,108.09Zm.13-6.55h-.06a3,3,0,0,0-1.2.28,2.72,2.72,0,0,0-1.48,2.53,2.57,2.57,0,0,0,2.42,2.68,3,3,0,0,0,2.29-.84,2.7,2.7,0,0,0,.85-2A2.73,2.73,0,0,0,121.16,101.54Z"/><path class="cls-2" d="M117.76,114.26a.53.53,0,0,1-.52-.44,13.15,13.15,0,0,1-.17-2,6,6,0,0,1,1.82-4.68.52.52,0,0,1,.74,0,.51.51,0,0,1,0,.74,5,5,0,0,0-1.48,3.91,11.36,11.36,0,0,0,.09,1.37h1.53c1.59,0,3.23,0,4.81-.17a7.37,7.37,0,0,0,0-.82,5.38,5.38,0,0,0-2.23-4.58.52.52,0,1,1,.58-.87,6.39,6.39,0,0,1,2.7,5.45,8.08,8.08,0,0,1-.13,1.39.53.53,0,0,1-.45.43,47.51,47.51,0,0,1-5.33.22C119.09,114.24,118.43,114.24,117.76,114.26Zm7.25-.77Z"/><path class="cls-2" d="M121.67,111.26a.52.52,0,0,1-.39-.17l-.55-.61a10.12,10.12,0,0,0-2.11-2,.52.52,0,0,1-.17-.72.54.54,0,0,1,.73-.17,11.31,11.31,0,0,1,2.34,2.17l0,.07a15.79,15.79,0,0,1,1.48-2.13.52.52,0,1,1,.8.68,16.34,16.34,0,0,0-1.72,2.59.52.52,0,0,1-.4.27Z"/><path class="cls-2" d="M118,105.87a.5.5,0,0,1-.28-.08.52.52,0,0,1-.16-.72c1.23-1.94,3.26-3,5.23-4a.53.53,0,0,1,.7.25.52.52,0,0,1-.24.7c-1.84.88-3.72,1.89-4.8,3.59A.52.52,0,0,1,118,105.87Z"/><path class="cls-2" d="M113.82,118.47a.5.5,0,0,1-.4-.19.52.52,0,0,1,.07-.74,8.33,8.33,0,0,1,.67-.5,8.05,8.05,0,0,0,1-.78.54.54,0,0,1,.75,0,.53.53,0,0,1,0,.74,7.89,7.89,0,0,1-1.09.89,7.47,7.47,0,0,0-.61.46A.54.54,0,0,1,113.82,118.47Z"/><path class="cls-2" d="M115,122.23a.5.5,0,0,1-.44-.24.53.53,0,0,1,.16-.73,29.11,29.11,0,0,0,3.82-3c.62-.54,1.25-1.11,1.9-1.64a.52.52,0,0,1,.74.07.53.53,0,0,1-.07.74c-.64.52-1.26,1.08-1.87,1.62a30.35,30.35,0,0,1-4,3.14A.48.48,0,0,1,115,122.23Z"/><path class="cls-2" d="M100.42,131.21h0a2.25,2.25,0,0,1-2.28-2.33,2.44,2.44,0,0,1,.83-1.9,2.25,2.25,0,0,1,1.45-.54,2.34,2.34,0,0,1,2.48,2.46,2.31,2.31,0,0,1-.72,1.62A2.49,2.49,0,0,1,100.42,131.21Zm0-3.72h0a1.27,1.27,0,0,0-.8.28,1.45,1.45,0,0,0-.46,1.1,1.22,1.22,0,0,0,1.26,1.29,1.41,1.41,0,0,0,1-.4,1.27,1.27,0,0,0,.4-.88,1.33,1.33,0,0,0-.38-1A1.37,1.37,0,0,0,100.44,127.49Z"/><path class="cls-2" d="M108.81,125.6a.53.53,0,0,1-.42-.21,23.21,23.21,0,0,0-2.57-2.85.54.54,0,0,1-.14-.54.52.52,0,0,1,.42-.36l1-.18a40.5,40.5,0,0,0,4.28-.85.53.53,0,0,1,.57.21.54.54,0,0,1,0,.6l-.77,1.08c-.65.93-1.33,1.88-2,2.86a.56.56,0,0,1-.42.24Zm-1.52-3.1c.52.54,1,1.1,1.48,1.68.51-.76,1-1.5,1.55-2.23-1,.22-2,.39-3,.55Z"/><path class="cls-2" d="M102.19,128.18a.53.53,0,0,1-.48-.3.53.53,0,0,1,.25-.7,24.56,24.56,0,0,0,4.14-2.68c.42-.31.85-.63,1.29-.94a.52.52,0,1,1,.61.85l-1.28.94a27.17,27.17,0,0,1-4.31,2.78A.44.44,0,0,1,102.19,128.18Z"/><path class="cls-2" d="M95.35,121.71a.53.53,0,0,1-.52-.41,11.5,11.5,0,0,1-.19-2.23c0-.28,0-.57,0-.85s0-.54,0-.8a.52.52,0,0,1,.53-.52.52.52,0,0,1,.52.52c0,.27,0,.54,0,.82s0,.55,0,.83a9.79,9.79,0,0,0,.17,2,.52.52,0,0,1-.4.62Z"/><path class="cls-2" d="M93.26,120a.53.53,0,0,1-.1-1,30.38,30.38,0,0,1,3.92-.54.53.53,0,0,1,.07,1.05,28.24,28.24,0,0,0-3.78.52Z"/><path class="cls-2" d="M84.55,131.8h-.09a2.34,2.34,0,0,1-2.25-2.2A2.54,2.54,0,0,1,84.58,127h.24A2.39,2.39,0,0,1,87,128.93a2.66,2.66,0,0,1,0,.4v.13a2.36,2.36,0,0,1-.78,1.65A2.41,2.41,0,0,1,84.55,131.8Zm.17-3.76h-.07a1.5,1.5,0,0,0-1.39,1.51,1.29,1.29,0,0,0,1.24,1.2,1.4,1.4,0,0,0,1-.4,1.37,1.37,0,0,0,.45-.91.76.76,0,0,1,0-.15,1.77,1.77,0,0,0,0-.24,1.32,1.32,0,0,0-1.18-1Z"/><path class="cls-2" d="M84.44,136.3H84a6.58,6.58,0,0,1-6.17-6.62,7.22,7.22,0,0,1,5.45-7.28,4.48,4.48,0,0,1,1-.12,7.29,7.29,0,0,1,5.29,1.89,6.7,6.7,0,0,1,2.08,4.75,7.07,7.07,0,0,1-2.16,5.34A7.26,7.26,0,0,1,84.44,136.3Zm-.89-12.89a6.17,6.17,0,0,0-4.64,6.23,5.55,5.55,0,0,0,5.18,5.6,6.21,6.21,0,0,0,4.65-1.75,6,6,0,0,0,1.84-4.55,5.56,5.56,0,0,0-1.75-4,6.2,6.2,0,0,0-4.53-1.61A4,4,0,0,0,83.55,123.41Z"/><path class="cls-2" d="M84.68,124.6a.52.52,0,0,1-.52-.44,12.43,12.43,0,0,1-.18-2,8.37,8.37,0,0,1,.1-1.34.53.53,0,1,1,1,.18,7.18,7.18,0,0,0-.09,1.16,11.31,11.31,0,0,0,.16,1.82.52.52,0,0,1-.43.6Z"/><path class="cls-2" d="M76.12,130.72a.53.53,0,0,1-.18-1,6.91,6.91,0,0,1,2.11-.33,7.09,7.09,0,0,0,1.6-.21.52.52,0,0,1,.28,1,7.89,7.89,0,0,1-1.83.25,6.06,6.06,0,0,0-1.81.27Z"/><path class="cls-2" d="M85.56,138.59a.53.53,0,0,1-.5-.38,14.11,14.11,0,0,1-.46-4,.53.53,0,0,1,.53-.53.52.52,0,0,1,.52.53,13.17,13.17,0,0,0,.42,3.7.52.52,0,0,1-.36.65A.39.39,0,0,1,85.56,138.59Z"/><path class="cls-2" d="M91.87,130H91a13.26,13.26,0,0,0-1.41,0,.53.53,0,0,1-.56-.49.53.53,0,0,1,.49-.56c.5,0,1,0,1.51,0h.81a6.06,6.06,0,0,0,1.61-.17.52.52,0,0,1,.64.37.53.53,0,0,1-.37.65A7.39,7.39,0,0,1,91.87,130Z"/><path class="cls-2" d="M67,139.23h0a.54.54,0,0,1-.36-.18,35.34,35.34,0,0,1-2.27-2.93.52.52,0,0,1,.1-.71l.8-.66c.62-.51,1.26-1,1.92-1.53a.53.53,0,0,1,.73.09l.68.9c.49.64,1,1.31,1.52,1.93a.51.51,0,0,1-.06.73c-.36.31-.73.61-1.1.91-.53.42-1.07.86-1.57,1.31A.52.52,0,0,1,67,139.23Zm-1.53-3.31c.51.72,1,1.4,1.58,2,.4-.35.81-.68,1.21-1l.68-.56c-.42-.51-.82-1-1.21-1.56l-.36-.47c-.5.39-1,.79-1.47,1.19Z"/><path class="cls-2" d="M57.61,136.22a.52.52,0,0,1-.31-.1l-1.27-.9c-2.55-1.79-5.18-3.63-5.18-5.61A3.57,3.57,0,0,1,54.23,126,4.06,4.06,0,0,1,57,127.22a4.07,4.07,0,0,1,2.53-1,3,3,0,0,1,3,3c0,2.27-1.59,3.9-3.13,5.47-.45.46-.91.93-1.32,1.41A.52.52,0,0,1,57.61,136.22ZM54.23,127a2.51,2.51,0,0,0-2.33,2.6c0,1.43,2.62,3.27,4.73,4.75l.9.63c.34-.37.7-.74,1-1.1,1.45-1.48,2.83-2.89,2.83-4.73a1.93,1.93,0,0,0-1.9-1.94,3.37,3.37,0,0,0-2.2,1.11.51.51,0,0,1-.39.15.53.53,0,0,1-.38-.18A3.19,3.19,0,0,0,54.23,127Z"/><path class="cls-2" d="M92.31,59.54a.52.52,0,0,1-.31-.1c-.27-.2-.55-.4-.85-.6-1.75-1.23-3.55-2.49-3.55-3.91A2.57,2.57,0,0,1,90,52.31a2.83,2.83,0,0,1,1.86.79,2.8,2.8,0,0,1,1.68-.65,2.17,2.17,0,0,1,2.16,2.18c0,1.59-1.1,2.71-2.15,3.79-.3.3-.61.62-.88.94A.52.52,0,0,1,92.31,59.54ZM90,53.36a1.53,1.53,0,0,0-1.39,1.57c0,.87,1.79,2.13,3.1,3l.48.33.61-.63c1-1,1.85-1.89,1.85-3a1.12,1.12,0,0,0-1.11-1.13,2.09,2.09,0,0,0-1.35.7.54.54,0,0,1-.77,0A2,2,0,0,0,90,53.36Z"/><path class="cls-2" d="M47.33,136.41a.53.53,0,0,1-.52-.49c0-.2,0-.39-.05-.58,0-.51-.08-1-.08-1.56a7.28,7.28,0,0,1,.23-1.88.53.53,0,0,1,.64-.38.54.54,0,0,1,.38.65,6.11,6.11,0,0,0-.2,1.61c0,.48,0,1,.08,1.47,0,.2,0,.4,0,.6a.52.52,0,0,1-.49.55Z"/><path class="cls-2" d="M45.41,134.22a.53.53,0,0,1-.51-.39.52.52,0,0,1,.37-.64,8.4,8.4,0,0,1,1.91-.21,5.85,5.85,0,0,0,2.06-.3.52.52,0,0,1,.68.29.53.53,0,0,1-.29.69,6.89,6.89,0,0,1-2.42.37,7.51,7.51,0,0,0-1.67.17Z"/><path class="cls-2" d="M51,106.22a.53.53,0,0,1-.53-.48.54.54,0,0,1,.48-.57c27.59-2.2,27.67-5.42,27.79-9.87.08-3,.17-6.61,7-10.72a.52.52,0,0,1,.72.18.53.53,0,0,1-.18.72c-6.35,3.81-6.44,7-6.51,9.85-.13,5-.23,8.61-28.75,10.89Z"/><path class="cls-2" d="M51.18,122.85a.52.52,0,0,1-.52-.52.51.51,0,0,1,.51-.53c6.83-.1,16.87-.94,21.34-1.52-.54-4.29-1-8.66-1.35-12.89-.12-1.34-.25-2.67-.38-4a.53.53,0,0,1,.47-.58.54.54,0,0,1,.58.47c.13,1.34.25,2.68.38,4,.41,4.39.84,8.92,1.41,13.36a.52.52,0,0,1-.45.59C68.88,121.85,58.43,122.75,51.18,122.85Z"/><path class="cls-2" d="M59.94,119.88a1.65,1.65,0,0,1-1.79-1.55,1.84,1.84,0,0,1,1.15-1.66,1.67,1.67,0,1,1,.64,3.21Zm0-2.28a.7.7,0,0,0-.25.05.8.8,0,0,0-.48.68c0,.34.38.5.74.5a.67.67,0,0,0,.65-.68A.61.61,0,0,0,59.93,117.6Z"/><path class="cls-2" d="M64,119.34a1.58,1.58,0,0,1-1.66-1.59,1.63,1.63,0,0,1,1.1-1.62,1.71,1.71,0,0,1,2.19,1.63A1.5,1.5,0,0,1,64,119.34Zm-.12-2.22-.17,0a.64.64,0,0,0-.32.61.55.55,0,0,0,.61.54c.48,0,.58-.21.58-.53A.65.65,0,0,0,63.91,117.12Z"/><path class="cls-2" d="M68.27,119a1.62,1.62,0,0,1-1.59-1.59A1.67,1.67,0,0,1,68,115.68l.19,0c.65,0,1.34.46,1.34,1.76C69.52,118.33,69,119,68.27,119Zm-.13-2.24a.67.67,0,0,0-.41.65c0,.44.47.54.54.54s.2-.46.2-.48C68.47,117.24,68.43,116.67,68.14,116.71Z"/><path class="cls-2" d="M75.61,107.51a.53.53,0,0,1-.49-.33c-.17-.44-.37-.88-.56-1.31a19.16,19.16,0,0,1-1.23-3.38.52.52,0,1,1,1-.23,18.81,18.81,0,0,0,1.17,3.19c.2.44.39.89.58,1.34a.53.53,0,0,1-.3.68A.43.43,0,0,1,75.61,107.51Z"/><path class="cls-2" d="M74.41,114.25a3.2,3.2,0,0,1-2.35-.77l-.2-.16a.51.51,0,0,1-.1-.73.52.52,0,0,1,.73-.11l.22.17a2.16,2.16,0,0,0,1.7.55c2.26,0,4-1.71,4-2.82a2.73,2.73,0,0,0-2.51-2.88,4.12,4.12,0,0,0-2.39.89.53.53,0,0,1-.64-.84,5.18,5.18,0,0,1,3-1.1,3.78,3.78,0,0,1,3.56,3.93C79.41,112.13,77.18,114.25,74.41,114.25Z"/><path class="cls-2" d="M78.39,116.46a.52.52,0,0,1-.51-.4,10.55,10.55,0,0,0-.39-1.16,7.75,7.75,0,0,1-.59-2.16.54.54,0,0,1,.49-.57.53.53,0,0,1,.56.49,7.1,7.1,0,0,0,.52,1.87,10.68,10.68,0,0,1,.43,1.28.52.52,0,0,1-.38.63Z"/><path class="cls-2" d="M75.44,117.45a.54.54,0,0,1-.48-.31,9.78,9.78,0,0,1-.48-1.41,7.47,7.47,0,0,0-.58-1.56.53.53,0,0,1,.93-.5,8.49,8.49,0,0,1,.66,1.77,8.87,8.87,0,0,0,.43,1.26.53.53,0,0,1-.26.7A.59.59,0,0,1,75.44,117.45Z"/><path class="cls-2" d="M72.88,118.56a.54.54,0,0,1-.48-.31.52.52,0,0,1,.26-.69c5-2.29,7.32-2.33,9.57-2.36,3.77,0,7.33-.09,24.62-12.28l.36-.25c2.1-1.47,4.72-3.31,4.72-5.4a3.9,3.9,0,0,0-3.24-2.21,1.84,1.84,0,0,0-.33,0,.53.53,0,0,1-.15-1,3.88,3.88,0,0,1,.48,0c2.17,0,4.29,2.06,4.29,3.26,0,2.64-2.87,4.65-5.17,6.26l-.36.25C89.9,116.15,86.18,116.2,82.24,116.25c-2.14,0-4.35.06-9.14,2.26A.59.59,0,0,1,72.88,118.56Z"/><path class="cls-2" d="M104.2,99.66a.51.51,0,0,1-.42-.21.52.52,0,0,1,.1-.73c1.71-1.28,4.57-3.88,4.57-6.9,0-2.08-.74-2.47-2.12-2.47h-.39a.52.52,0,0,1-.08-1,3.77,3.77,0,0,1,.47,0c2.16,0,3.17,1.12,3.17,3.52,0,3.48-3.12,6.34-5,7.74A.5.5,0,0,1,104.2,99.66Z"/><path class="cls-2" d="M100.88,94.67a.56.56,0,0,1-.4-.17.53.53,0,0,1,0-.74c.4-.36.87-.71,1.36-1.08,1.74-1.33,3.72-2.83,3.72-5.28,0-1.42-.77-2-2.65-2.06a.52.52,0,0,1-.52-.53.52.52,0,0,1,.54-.51c2.44,0,3.67,1.09,3.67,3.1,0,3-2.29,4.71-4.13,6.11-.47.36-.92.7-1.29,1A.5.5,0,0,1,100.88,94.67Z"/><path class="cls-2" d="M97.29,92.05a.56.56,0,0,1-.41-.19.53.53,0,0,1,.07-.74c.36-.3.74-.59,1.13-.89,2.12-1.65,4.32-3.35,4.32-5.89a3.73,3.73,0,0,0-4-3.62,6.73,6.73,0,0,0-4,1.51.53.53,0,1,1-.63-.84,7.76,7.76,0,0,1,4.67-1.72,4.76,4.76,0,0,1,5,4.67c0,3.06-2.51,5-4.73,6.72-.38.29-.75.58-1.1.87A.52.52,0,0,1,97.29,92.05Z"/><path class="cls-2" d="M87.63,91.36a5.5,5.5,0,0,1-1.51-.21.51.51,0,0,1-.36-.64.54.54,0,0,1,.65-.37,4.13,4.13,0,0,0,1.22.17c3.07,0,9.48-4.54,9.53-5.56-.06-.11-.45-.19-.62-.22l-.06,0a.52.52,0,1,1,.21-1h0c.48.09,1.47.29,1.47,1.26C98.21,86.73,90.79,91.36,87.63,91.36Z"/><path class="cls-2" d="M88.91,90.36a.52.52,0,0,1-.47-.29c-.44-.87-.87-1.78-1.29-2.66-.68-1.43-1.38-2.9-2.14-4.3a.53.53,0,0,1,.93-.5C86.7,84,87.41,85.52,88.1,87c.41.87.84,1.78,1.28,2.64a.52.52,0,0,1-.24.7A.46.46,0,0,1,88.91,90.36Z"/><path class="cls-2" d="M95.09,85.66a.53.53,0,0,1-.48-.3,30.56,30.56,0,0,0-2.07-3.65c-.43-.7-.88-1.42-1.31-2.18a.52.52,0,0,1,.2-.71.53.53,0,0,1,.72.2c.41.73.85,1.44,1.29,2.13a34.1,34.1,0,0,1,2.12,3.77.52.52,0,0,1-.25.7A.57.57,0,0,1,95.09,85.66Z"/><path class="cls-2" d="M87.49,86.8a.52.52,0,0,1-.52-.46.53.53,0,0,1,.45-.59,9.42,9.42,0,0,0,5.17-2.47.54.54,0,0,1,.75,0,.53.53,0,0,1,0,.74,10.47,10.47,0,0,1-5.75,2.75Z"/><path class="cls-2" d="M105.57,115.64a2.77,2.77,0,0,1-2.81-1.77,22.41,22.41,0,0,0-1.72-3.06c-.45-.72-.92-1.46-1.33-2.24a.53.53,0,0,1,.22-.71.52.52,0,0,1,.71.22c.39.75.85,1.47,1.29,2.17a23.9,23.9,0,0,1,1.79,3.2,1.76,1.76,0,0,0,1.85,1.14c1.14,0,3.64-.8,3.64-3.19v-.15c-.38-.69-1.48-2.37-4-6.22a.53.53,0,0,1,.88-.59c2.75,4.14,3.8,5.75,4.15,6.41a.66.66,0,0,1,.06.2c0,.12,0,.23,0,.35C110.26,114.29,107.47,115.64,105.57,115.64Z"/><path class="cls-2" d="M30.26,21.83a.39.39,0,0,1-.18,0,.51.51,0,0,1-.31-.67c.09-.23.18-.46.29-.68a.52.52,0,1,1,1,.44c-.09.2-.18.4-.26.61A.53.53,0,0,1,30.26,21.83Z"/><path class="cls-2" d="M35.25,35.26A.53.53,0,0,1,35,35.2c-.4-.22-.8-.45-1.18-.71a.52.52,0,0,1-.14-.72.52.52,0,0,1,.73-.15,9.88,9.88,0,0,0,1.08.64.53.53,0,0,1-.25,1Zm-3.09-2.39a.52.52,0,0,1-.39-.17,11,11,0,0,1-.86-1.08.53.53,0,0,1,.87-.6,9,9,0,0,0,.77,1,.53.53,0,0,1,0,.74A.53.53,0,0,1,32.16,32.87Zm-2-3.35a.51.51,0,0,1-.49-.35,11.17,11.17,0,0,1-.38-1.32.52.52,0,0,1,.4-.62.51.51,0,0,1,.63.4,9.08,9.08,0,0,0,.34,1.19.53.53,0,0,1-.32.67A.57.57,0,0,1,30.16,29.52Zm-.62-3.85a.52.52,0,0,1-.52-.53,10.39,10.39,0,0,1,.09-1.37.52.52,0,0,1,1,.13,10.36,10.36,0,0,0-.08,1.25A.52.52,0,0,1,29.54,25.67Z"/><path class="cls-2" d="M38.41,36.23a4.16,4.16,0,0,1-.8-.09.51.51,0,0,1-.41-.61.53.53,0,0,1,.61-.42,2.91,2.91,0,0,0,.6.07.52.52,0,0,1,.52.53A.52.52,0,0,1,38.41,36.23Z"/><path class="cls-2" d="M52.75,27.68a.57.57,0,0,1-.3-.1.53.53,0,0,1-.12-.74c.15-.2.31-.4.47-.58a.52.52,0,1,1,.78.7c-.14.16-.27.32-.4.5A.53.53,0,0,1,52.75,27.68Z"/><path class="cls-2" d="M51.66,34.24a.51.51,0,0,1-.51-.39,9.61,9.61,0,0,1-.23-1.19.53.53,0,0,1,1-.13,9.4,9.4,0,0,0,.19,1.06.52.52,0,0,1-.37.64Zm-.17-3.4h-.08a.52.52,0,0,1-.44-.6A8.18,8.18,0,0,1,51.24,29a.53.53,0,0,1,1,.31,6.27,6.27,0,0,0-.24,1A.54.54,0,0,1,51.49,30.84Z"/><path class="cls-2" d="M52.93,36.93a.51.51,0,0,1-.42-.21c-.15-.2-.29-.41-.42-.62a.52.52,0,0,1,.18-.72.53.53,0,0,1,.72.17,5.07,5.07,0,0,0,.36.54.54.54,0,0,1-.1.74A.55.55,0,0,1,52.93,36.93Z"/><path class="cls-2" d="M55.46,41.6a.57.57,0,0,1-.4-.18c-.16-.2-.32-.4-.46-.6a.52.52,0,1,1,.86-.6,5.93,5.93,0,0,0,.4.51.52.52,0,0,1-.06.74A.55.55,0,0,1,55.46,41.6Z"/><path class="cls-2" d="M57.25,43A.46.46,0,0,1,57,43a5.27,5.27,0,0,1-.72-.43.53.53,0,0,1-.14-.73.52.52,0,0,1,.73-.13,6.21,6.21,0,0,0,.6.35.53.53,0,0,1-.24,1Z"/><path class="cls-2" d="M59.22,43.5a5.46,5.46,0,0,1-.58,0,.52.52,0,0,1-.45-.59.51.51,0,0,1,.58-.45,4.19,4.19,0,0,0,.61,0,.52.52,0,0,1,.55.5.53.53,0,0,1-.5.55Z"/><path class="cls-2" d="M83.55,71.75h-.12a.53.53,0,0,1-.39-.63,4.48,4.48,0,0,1,.23-.74.51.51,0,0,1,.67-.3.52.52,0,0,1,.31.68,5,5,0,0,0-.19.59A.51.51,0,0,1,83.55,71.75Z"/><path class="cls-2" d="M85.25,68.59a.52.52,0,0,1-.33-.11.53.53,0,0,1-.08-.74c.31-.38.65-.76,1-1.13a.52.52,0,0,1,.74,0,.53.53,0,0,1,0,.75,13.09,13.09,0,0,0-.94,1.05A.5.5,0,0,1,85.25,68.59Zm3.2-3A.51.51,0,0,1,88,65.4a.52.52,0,0,1,.13-.73,13,13,0,0,1,1.28-.8.52.52,0,0,1,.71.2.54.54,0,0,1-.2.72,13.72,13.72,0,0,0-1.19.74A.49.49,0,0,1,88.45,65.63Zm3.91-1.92a.53.53,0,0,1-.15-1,11.33,11.33,0,0,1,1.48-.35.53.53,0,0,1,.17,1,11,11,0,0,0-1.35.31Z"/><path class="cls-2" d="M97.38,63.44h-.12c-.21,0-.43-.09-.64-.12a.52.52,0,1,1,.14-1l.73.13a.54.54,0,0,1,.4.63A.53.53,0,0,1,97.38,63.44Z"/><path class="cls-2" d="M102.48,65.2a.53.53,0,0,1-.24-.06,3.37,3.37,0,0,0-.56-.24.51.51,0,0,1-.34-.65.52.52,0,0,1,.65-.35,4.3,4.3,0,0,1,.74.31.53.53,0,0,1-.25,1Z"/><path class="cls-2" d="M104.55,66.94a.51.51,0,0,1-.37-.15l-.21-.21-.28-.29a.52.52,0,1,1,.74-.74l.29.29.2.2a.53.53,0,0,1,0,.75A.53.53,0,0,1,104.55,66.94Z"/><path class="cls-2" d="M109.05,60.63H109a.52.52,0,0,1-.45-.59c0-.25.09-.5.15-.74a.52.52,0,0,1,.63-.38.52.52,0,0,1,.39.63,4.53,4.53,0,0,0-.13.64A.52.52,0,0,1,109.05,60.63Z"/><path class="cls-2" d="M112.5,68a.55.55,0,0,1-.28-.07A8.7,8.7,0,0,1,111,67a.52.52,0,1,1,.69-.79,7.47,7.47,0,0,0,1.09.8.52.52,0,0,1,.18.72A.54.54,0,0,1,112.5,68Zm-2.86-3.15a.53.53,0,0,1-.48-.32,7.8,7.8,0,0,1-.48-1.46.52.52,0,1,1,1-.23,6.75,6.75,0,0,0,.42,1.27.52.52,0,0,1-.27.69A.54.54,0,0,1,109.64,64.87Z"/><path class="cls-2" d="M115.84,69.3a.45.45,0,0,1-.2,0l-.14,0c-.12,0-.28-.06-.48-.12a.52.52,0,0,1,.27-1l.45.11.29.08a.52.52,0,0,1-.19,1Z"/><path class="cls-2" d="M131.75,53a.52.52,0,0,1-.51-.44.53.53,0,0,1,.42-.61,5.48,5.48,0,0,0,1.18-.34.53.53,0,0,1,.69.29.52.52,0,0,1-.29.68,6.32,6.32,0,0,1-1.39.41Zm-2.66-.09-.12,0a7.05,7.05,0,0,1-1.36-.47.52.52,0,1,1,.44-1,6.62,6.62,0,0,0,1.16.4.52.52,0,0,1,.39.63A.52.52,0,0,1,129.09,52.91Zm6.15-1.79a.51.51,0,0,1-.36-.15.51.51,0,0,1,0-.74,5.41,5.41,0,0,0,.74-1,.53.53,0,0,1,.72-.19.52.52,0,0,1,.18.72,6.63,6.63,0,0,1-.87,1.16A.53.53,0,0,1,135.24,51.12Zm-9.56-.23a.56.56,0,0,1-.39-.17,7.43,7.43,0,0,1-.85-1.17.52.52,0,1,1,.9-.53,5.88,5.88,0,0,0,.73,1,.53.53,0,0,1-.39.88Zm11.21-3.36h-.06a.51.51,0,0,1-.46-.58,7,7,0,0,0,0-.81v0c0-.13,0-.26,0-.39a.53.53,0,0,1,1-.08c0,.16,0,.31,0,.47v0a7,7,0,0,1-.06.93A.53.53,0,0,1,136.89,47.53Zm-12.82-.25a.52.52,0,0,1-.52-.48,4.58,4.58,0,0,1,0-.53v-.05a6.25,6.25,0,0,1,.06-.87.52.52,0,0,1,.59-.45.52.52,0,0,1,.45.59,5.84,5.84,0,0,0-.05.73v0c0,.15,0,.3,0,.45a.52.52,0,0,1-.47.57Zm12.05-3.63a.52.52,0,0,1-.45-.26,5.74,5.74,0,0,0-.73-1,.53.53,0,0,1,0-.74.51.51,0,0,1,.74,0,6.83,6.83,0,0,1,.86,1.16.53.53,0,0,1-.19.72A.52.52,0,0,1,136.12,43.65ZM125,43.44a.53.53,0,0,1-.27-.08.51.51,0,0,1-.17-.72,7,7,0,0,1,.87-1.15.53.53,0,0,1,.75,0,.52.52,0,0,1,0,.74,5.92,5.92,0,0,0-.75,1A.53.53,0,0,1,125,43.44ZM133.2,41a.46.46,0,0,1-.23,0,6.51,6.51,0,0,0-1.16-.43.52.52,0,0,1-.37-.64.53.53,0,0,1,.64-.38,6.92,6.92,0,0,1,1.35.51.52.52,0,0,1,.24.7A.53.53,0,0,1,133.2,41ZM128,40.83a.54.54,0,0,1-.48-.31.51.51,0,0,1,.27-.69,6.55,6.55,0,0,1,1.38-.45l.13.51.09.52a5.42,5.42,0,0,0-1.18.38A.52.52,0,0,1,128,40.83Z"/><path class="cls-2" d="M108.69,40.56h-.43a.53.53,0,0,1-.49-.56.51.51,0,0,1,.55-.49h.38c.3,0,.62,0,.93,0a.53.53,0,0,1,.58.47.52.52,0,0,1-.47.57A9.24,9.24,0,0,1,108.69,40.56Zm-3.09-.72a.46.46,0,0,1-.23-.05A7.43,7.43,0,0,1,104.1,39a.52.52,0,0,1-.08-.74.53.53,0,0,1,.74-.08,6.23,6.23,0,0,0,1.08.7.52.52,0,0,1,.23.7A.5.5,0,0,1,105.6,39.84Zm-3-2.87a.52.52,0,0,1-.45-.26,9.09,9.09,0,0,1-.65-1.33.53.53,0,0,1,1-.38,8,8,0,0,0,.57,1.18.52.52,0,0,1-.18.72A.54.54,0,0,1,102.62,37Zm-1.23-4a.52.52,0,0,1-.52-.48c0-.24,0-.47,0-.7a7.09,7.09,0,0,1,0-.79.52.52,0,0,1,1,.09c0,.24,0,.47,0,.7s0,.41,0,.62a.53.53,0,0,1-.49.56Z"/><path class="cls-2" d="M8.32,98H8a.52.52,0,0,1-.5-.54.53.53,0,0,1,.55-.51h.42a6.11,6.11,0,0,0,.86-.09.52.52,0,0,1,.61.43.53.53,0,0,1-.43.61,8.43,8.43,0,0,1-1,.1Zm-3-.72a.53.53,0,0,1-.24-.06,7.09,7.09,0,0,1-1.26-.84.53.53,0,0,1-.06-.74.52.52,0,0,1,.74-.06,6.41,6.41,0,0,0,1.07.71.53.53,0,0,1-.25,1ZM12,96.78a.52.52,0,0,1-.42-.22.52.52,0,0,1,.11-.73,5.11,5.11,0,0,0,.92-.88.52.52,0,0,1,.74-.06.53.53,0,0,1,.07.74,6.43,6.43,0,0,1-1.11,1A.51.51,0,0,1,12,96.78ZM2.51,94.25A.53.53,0,0,1,2,94a7.46,7.46,0,0,1-.49-1.42.52.52,0,1,1,1-.24A6.42,6.42,0,0,0,3,93.5a.52.52,0,0,1-.25.7A.44.44,0,0,1,2.51,94.25Zm11.74-.91h-.13a.53.53,0,0,1-.38-.64,6,6,0,0,0,.19-1.28.52.52,0,0,1,.54-.5.52.52,0,0,1,.5.54,6.87,6.87,0,0,1-.21,1.5A.53.53,0,0,1,14.25,93.34ZM2.06,90.16l-.12,0a.51.51,0,0,1-.39-.63,6.05,6.05,0,0,1,.52-1.42.52.52,0,1,1,.93.47,5.64,5.64,0,0,0-.43,1.19A.53.53,0,0,1,2.06,90.16Zm11.85-.92a.52.52,0,0,1-.47-.3,5.59,5.59,0,0,0-.68-1.08.53.53,0,0,1,.82-.66,7,7,0,0,1,.81,1.29.53.53,0,0,1-.25.7A.48.48,0,0,1,13.91,89.24ZM4.35,86.75a.51.51,0,0,1-.43-.23.52.52,0,0,1,.13-.73,6.25,6.25,0,0,1,1.36-.7,7.71,7.71,0,0,1,1.41-.37.53.53,0,0,1,.17,1,6.45,6.45,0,0,0-1.22.32,4.58,4.58,0,0,0-1.12.58A.58.58,0,0,1,4.35,86.75ZM11,86.33a.46.46,0,0,1-.23,0,6.45,6.45,0,0,0-1.21-.43.53.53,0,0,1-.39-.64.52.52,0,0,1,.64-.38,7.3,7.3,0,0,1,1.42.51.52.52,0,0,1,.24.7A.53.53,0,0,1,11,86.33Z"/><path class="cls-2" d="M76.93,134.31h0a11.48,11.48,0,0,1-1.45-.16.52.52,0,1,1,.18-1,11.51,11.51,0,0,0,1.33.14.53.53,0,0,1,.49.56A.51.51,0,0,1,76.93,134.31Zm-4.06-1a.49.49,0,0,1-.21,0,10.78,10.78,0,0,1-1.3-.69.52.52,0,1,1,.55-.89,10.18,10.18,0,0,0,1.18.62.52.52,0,0,1-.22,1ZM69.45,131a.51.51,0,0,1-.37-.15,11.38,11.38,0,0,1-1-1.1.52.52,0,0,1,.09-.73.53.53,0,0,1,.74.08,9.51,9.51,0,0,0,.88,1,.52.52,0,0,1,0,.74A.53.53,0,0,1,69.45,131ZM67,127.54a.51.51,0,0,1-.47-.3,11.09,11.09,0,0,1-.57-1.33.53.53,0,0,1,.31-.68.52.52,0,0,1,.67.32c.16.42.33.83.53,1.23a.52.52,0,0,1-.24.7A.49.49,0,0,1,67,127.54Zm-1.23-4a.53.53,0,0,1-.52-.45,12.11,12.11,0,0,1-.11-1.46.53.53,0,0,1,1,0,11.9,11.9,0,0,0,.1,1.33.53.53,0,0,1-.45.6Z"/></g></g></svg>