<svg xmlns="http://www.w3.org/2000/svg" viewBox="0 0 141.73 143.42"><defs><style>.cls-1{fill:#ffcc80;}.cls-2{fill:#fff;}</style></defs><title>011_w</title><g id="Layer_2" data-name="Layer 2"><g id="Layer_1-2" data-name="Layer 1"><path class="cls-1" d="M29.46,77.65a7.23,7.23,0,0,0-.64-1.92,1.42,1.42,0,0,1-.05-.22,4.06,4.06,0,0,0-.53-2.82,1.27,1.27,0,0,0-2.32.41,5.75,5.75,0,0,0-2.35-.27,21.11,21.11,0,0,0-3.56.53c-.31-.28-.86-.29-1,.23,0,0,0,0,0,.08-1.17.48-1.85,1.23-.95,2.42a1.35,1.35,0,0,0,.54.45c0,1.06.22,2,1.13,2.32a6.82,6.82,0,0,0,3-.27l1.42-.29a5.25,5.25,0,0,1,.47.75,9.24,9.24,0,0,0,.45,1.32,1.23,1.23,0,0,0,2.37-.65,5.19,5.19,0,0,0-.28-1.06A1.24,1.24,0,0,0,29.46,77.65Z"/><path class="cls-1" d="M91.31,22.37a7.87,7.87,0,0,0,.5-5A2.6,2.6,0,0,0,91,15.14,1.06,1.06,0,0,0,89.75,15l-.17.12c-3.12-1.29-6.26.77-8.61,2.69-.82.67-.08,1.84.79,1.9a3.82,3.82,0,0,1,1.95.69,1,1,0,0,0-.15.39,9.53,9.53,0,0,0-.08,2.77c.1.8,1,1.48,1.71,1.06a3,3,0,0,0,1.47-.07,9.11,9.11,0,0,0,2-.88,3,3,0,0,0,.53.74,3,3,0,0,0,1.31.6,1.18,1.18,0,0,0,1.32-1.71C91.66,23,91.47,22.67,91.31,22.37Zm-2.86-3a3.17,3.17,0,0,1-.15.58,11,11,0,0,1-1,1.44A16,16,0,0,1,88.45,19.36Zm-3.67-.9a4.88,4.88,0,0,0-.58-.34A6.85,6.85,0,0,1,87,16.94C86.27,17.46,85.53,18,84.78,18.46Z"/><path class="cls-1" d="M123.57,55.77l-.1.1a.79.79,0,0,0-.26-.13,5.42,5.42,0,0,0-3.27.68,4.31,4.31,0,0,0-1.63,1.06.64.64,0,0,0-.89.58,2.78,2.78,0,0,0,.44,1.47,1.61,1.61,0,0,0-.08.48A2.22,2.22,0,0,0,121,61.88l.39-.21a5.28,5.28,0,0,0,.56,0c2.13-.16,3.93-3,3.87-5A1.32,1.32,0,0,0,123.57,55.77Z"/><path class="cls-1" d="M48.78,123c-1.18-.83-2.6.88-2.85,1.91-.15.65.8,1.12,1.12.47a2.73,2.73,0,0,1,.8-1,3.51,3.51,0,0,0,1.08-.83A.42.42,0,0,0,48.78,123Z"/><path class="cls-1" d="M46.08,48.16a1.76,1.76,0,0,0-2.37.19,2,2,0,0,0,0,2.6A1.07,1.07,0,0,0,45.1,51a1.67,1.67,0,0,0,1.47-.78A1.61,1.61,0,0,0,46.08,48.16Z"/><path class="cls-1" d="M88.47,44.06,88.36,44a1.29,1.29,0,0,0-1.51-.2l-.11.09a1.32,1.32,0,0,0-.28.25l-2.15-2a.92.92,0,0,0-1.44,1.12c.32.69-2.82,1.17-3.36,1.3a4.49,4.49,0,0,0-.83.27c-.45-.21-1.11.08-.88.66s.45,1,.71,1.55.44,1.11.95,1.35a.61.61,0,0,0,.86-.29,5.48,5.48,0,0,0,2.83-.59,1.43,1.43,0,0,1,.28-.1l.65-.15,0,.06c0,.4.06.81.06,1.21a1.11,1.11,0,0,0,2,.56,11.13,11.13,0,0,1,1.93-2,1,1,0,0,0,.2-1.17,2.94,2.94,0,0,0,.32-.37A1.27,1.27,0,0,0,88.47,44.06Z"/><path class="cls-1" d="M139.28,93.84a.78.78,0,0,0-.48-.54.83.83,0,0,0-.6,0,1,1,0,0,0-.91.52,1.23,1.23,0,0,0-.62.83c-.08.62.44.92,1,.93h.12a1.1,1.1,0,0,0,.43.22,1.25,1.25,0,0,0,1.32-.53A1.06,1.06,0,0,0,139.28,93.84Z"/><path class="cls-1" d="M90.48,73a1.32,1.32,0,0,0-.45-.14l-.13-.12a.87.87,0,0,0-.73-.15,1.5,1.5,0,0,0-1.07,1.84,1.34,1.34,0,0,0,.12.3.61.61,0,0,0,.43.47,1.45,1.45,0,0,0,1.6,0,1.51,1.51,0,0,0,.7-1.23A1.06,1.06,0,0,0,90.48,73Z"/><path class="cls-1" d="M25.23,22a1.48,1.48,0,0,0-1.23-.1,1.58,1.58,0,0,0-1,1.06,2.94,2.94,0,0,0,.08,1.61.92.92,0,0,0,.88.67l.24,0c.86.1,1.45-.89,1.61-1.67A1.37,1.37,0,0,0,25.23,22Z"/><path class="cls-1" d="M44.51,134.3l0-.09h0a.63.63,0,0,0,0-.27.53.53,0,0,0-.26-.37l-.15-.05a.71.71,0,0,0-.62,0,1,1,0,0,0-.46.84c0,.49.53,1,1,.81A.75.75,0,0,0,44.51,134.3Z"/><path class="cls-2" d="M36.07,23.78a.55.55,0,0,1-.34-.13.52.52,0,0,1-.17-.37c-.05-.91-.07-1.9-.07-3.11,0-.74,0-1.48,0-2.22s0-1.48,0-2.22c0-1,0-1.73,0-2.46a.57.57,0,0,1,.14-.38.52.52,0,0,1,.37-.16l4.8,0c2.55,0,5.18,0,7.77-.08a.53.53,0,0,1,.53.48c.09,1.2.22,2.43.33,3.62.2,2,.4,4.06.51,6.12a.49.49,0,0,1-.14.38.51.51,0,0,1-.37.16c-2.19,0-9.64.08-13.3.39Zm.46-10c0,.6,0,1.23,0,2s0,1.48,0,2.23,0,1.47,0,2.21c0,1,0,1.78,0,2.53,3.57-.26,9.74-.33,12.31-.35-.11-1.85-.3-3.72-.48-5.53-.1-1-.2-2.1-.29-3.15-2.44,0-4.91.05-7.31.06Z"/><path class="cls-2" d="M50.65,9.74A3.41,3.41,0,0,1,48.5,8.62a2.88,2.88,0,0,0-1.68-.95A3.67,3.67,0,0,0,44.51,9a.52.52,0,1,1-.73-.73,4.5,4.5,0,0,1,3-1.63,3.72,3.72,0,0,1,2.36,1.2,2.65,2.65,0,0,0,1.47.87c.48,0,.85-.38,1.42-1a4.4,4.4,0,0,1,3.42-1.87c.82,0,1.31.66,1.73,1.25s.77,1,1.24,1a1.64,1.64,0,0,0,1.28-.67,2.51,2.51,0,0,1,1.87-.92,1.61,1.61,0,0,1,1.1.42.53.53,0,0,1,0,.74.52.52,0,0,1-.73,0,.61.61,0,0,0-.41-.16c-.49,0-.74.22-1.14.62a2.61,2.61,0,0,1-2,1,2.66,2.66,0,0,1-2.07-1.43c-.37-.5-.62-.83-.9-.83a3.48,3.48,0,0,0-2.66,1.53A3,3,0,0,1,50.65,9.74Z"/><path class="cls-2" d="M42.57,19.13c-1.37,0-3-1.47-6.69-5.54a.52.52,0,0,1,0-.73.53.53,0,0,1,.74,0c3.15,3.44,4.94,5.2,5.92,5.2h0c.54,0,1.06-.64,1.84-1.59A22.63,22.63,0,0,1,48,12.87a.52.52,0,1,1,.64.81,21.18,21.18,0,0,0-3.44,3.49c-.93,1.12-1.6,1.94-2.61,2Z"/><path class="cls-2" d="M36.13,23.5a.68.68,0,0,1-.27-.07.53.53,0,0,1-.18-.71,12,12,0,0,1,5-4.84.53.53,0,0,1,.69.24.52.52,0,0,1-.25.69,11.05,11.05,0,0,0-4.59,4.43A.5.5,0,0,1,36.13,23.5Z"/><path class="cls-2" d="M49,22.61a.49.49,0,0,1-.28-.09,23.62,23.62,0,0,1-2.84-2.28c-.67-.6-1.37-1.21-2.09-1.74a.52.52,0,0,1,.62-.84c.76.56,1.47,1.2,2.16,1.81a22.76,22.76,0,0,0,2.71,2.19.52.52,0,0,1-.28.95Z"/><path class="cls-2" d="M23.65,26.48a2.47,2.47,0,0,1-2.57-2.35,2.69,2.69,0,0,1,2.13-2.69,3,3,0,0,1,.42-.05,2.48,2.48,0,0,1,1.74.76A2.62,2.62,0,0,1,26.12,24a2.52,2.52,0,0,1-2.37,2.49Zm0-4.05-.18,0a1.65,1.65,0,0,0-1.33,1.64,1.49,1.49,0,0,0,3-.12,1.55,1.55,0,0,0-.45-1.1A1.4,1.4,0,0,0,23.62,22.43Z"/><path class="cls-2" d="M59.15,3.41A1.53,1.53,0,0,1,58,2.92a1.66,1.66,0,0,1-.47-1.28A1.52,1.52,0,0,1,58.43.31a.67.67,0,0,1,.27,0h0l.14,0a1.41,1.41,0,0,1,1.78,1,1.22,1.22,0,0,1,0,.26v0a1.48,1.48,0,0,1,0,.2,1.59,1.59,0,0,1-1.52,1.61Zm-.43-2.09a.86.86,0,0,0-.15.39.66.66,0,0,0,.18.5.55.55,0,0,0,.41.17.56.56,0,0,0,.51-.58V1.74a.17.17,0,0,0,0-.07v0s0-.1,0-.16a.46.46,0,0,0-.33-.25l-.22,0-.21,0ZM58.66.8l-.06.52Z"/><path class="cls-2" d="M66.8,12c-2.06,0-4.24-1.32-4.24-3.77a4.29,4.29,0,0,1,4.59-4.49c2.16,0,3.5,1.06,3.5,2.77s-1,3.31-2.53,3.31c-.5,0-1.66-.18-1.66-1.91a6.88,6.88,0,0,1,.37-2,.52.52,0,0,1,1,.33,5.78,5.78,0,0,0-.32,1.69c0,.88.37.88.63.88.86,0,1.5-1.2,1.5-2.28,0-1.57-1.73-1.74-2.47-1.74a3.26,3.26,0,0,0-3.56,3.46c0,2,2,2.73,3.21,2.73a4,4,0,0,0,3-1.2.52.52,0,0,1,.73.07.51.51,0,0,1-.07.72A5,5,0,0,1,66.8,12Z"/><path class="cls-2" d="M65.71,9.61A1.59,1.59,0,0,1,64.1,8.05c0-1.41,1.38-2.16,2.69-2.16a.52.52,0,0,1,0,1c-.64,0-1.66.31-1.66,1.13a.57.57,0,0,0,.58.53,1.29,1.29,0,0,0,1-.48.51.51,0,0,1,.71-.18.53.53,0,0,1,.18.71A2.29,2.29,0,0,1,65.71,9.61Z"/><path class="cls-2" d="M83.83,3.53c-.69,0-1.38,0-2-.06-1,0-2.07-.08-3.1,0a.52.52,0,0,1-.43-.2.54.54,0,0,1-.09-.46c.2-.7.44-1.52.64-2.37a.52.52,0,0,1,.28-.35.51.51,0,0,1,.45,0,30.07,30.07,0,0,1,4.6,2.54.52.52,0,0,1,.19.58A.51.51,0,0,1,83.83,3.53ZM79.55,2.38c.77,0,1.53,0,2.27.06H82c-.73-.41-1.49-.79-2.31-1.18-.1.39-.2.76-.3,1.12Z"/><path class="cls-2" d="M90.14,7.13a.52.52,0,0,1-.51-.45c-.12-1-.16-2-.21-2.95,0-.47,0-.93-.07-1.39a.52.52,0,0,1,.49-.55.52.52,0,0,1,.55.48c0,.47,0,.94.07,1.41,0,.95.08,1.93.2,2.87a.53.53,0,0,1-.45.58Z"/><path class="cls-2" d="M87.82,4.87a.52.52,0,1,1,0-1,18.74,18.74,0,0,0,2.08-.16c.71-.07,1.45-.15,2.19-.15a.52.52,0,1,1,0,1c-.69,0-1.36.08-2.08.15A19.62,19.62,0,0,1,87.82,4.87Z"/><path class="cls-2" d="M74.18,15.74a.51.51,0,0,1-.47-.71,10.45,10.45,0,0,1,6.64-5.82.52.52,0,0,1,.32,1,9.45,9.45,0,0,0-6,5.24A.52.52,0,0,1,74.18,15.74Z"/><path class="cls-2" d="M100.89,14.18a.51.51,0,0,1-.36-.15,24.79,24.79,0,0,1-2.29-2.66L98,11.1a.51.51,0,0,1,.06-.7A32.7,32.7,0,0,1,101.23,8a.55.55,0,0,1,.39-.09.57.57,0,0,1,.34.22,21.32,21.32,0,0,0,2.47,2.92.51.51,0,0,1-.07.78l-.72.49c-.85.58-1.66,1.12-2.42,1.74A.52.52,0,0,1,100.89,14.18Zm-1.74-3.33A24.91,24.91,0,0,0,100.93,13c.69-.53,1.42-1,2.13-1.5l.2-.14a22.73,22.73,0,0,1-1.86-2.19C100.65,9.67,99.87,10.24,99.15,10.85Z"/><path class="cls-2" d="M60,47a.57.57,0,0,1-.28-.08.53.53,0,0,1-.21-.59c.73-2.33,1.37-4.75,1.94-7.36a14.45,14.45,0,0,1-2.26.24c-2.41,0-3.9-1.2-3.9-3.14a.41.41,0,0,1,0-.11s.92-4.13,2.06-13.42c.25-2,2.3-2.69,3.88-2.63l3.63.15c2.17.11,4.42.22,6.61.22s4.19-.15,6-.29c1.56-.12,3-.23,4.65-.26h0a1.48,1.48,0,0,1,1.57,1.69,8.12,8.12,0,0,1-.18,1.4,6.18,6.18,0,0,0-.11.61c-.36,3-.59,5.41-.77,7.32-.66,7-.72,7.52-4.57,7.52-1.15,0-2.31-.07-3.43-.14S72.53,38,71.44,38l-1,0a21,21,0,0,0-2.17,1.45.52.52,0,0,1-.73-.11.51.51,0,0,1,.11-.72A25.17,25.17,0,0,1,70,37a.62.62,0,0,1,.23-.07c.38,0,.77,0,1.19,0,1.12,0,2.27.06,3.37.13s2.25.14,3.37.14c1.77,0,2.26-.08,2.6-.68.45-.81.63-2.62.94-5.9.18-1.92.41-4.3.77-7.35q0-.32.12-.69a6.5,6.5,0,0,0,.16-1.2c0-.61-.2-.66-.53-.66-1.61,0-3.07.14-4.61.26-1.88.14-3.83.29-6.13.29s-4.47-.11-6.66-.21c-1.18-.06-2.41-.12-3.61-.16h-.14c-.25,0-2.47.05-2.68,1.72-1.08,8.75-1.95,12.93-2.07,13.47,0,1.84,2,2,2.87,2a14.22,14.22,0,0,0,2.3-.26l.54-.09a.53.53,0,0,1,.46.16.54.54,0,0,1,.13.46c-.48,2.28-1,4.4-1.59,6.44a55.12,55.12,0,0,0,5-4.92.52.52,0,1,1,.78.68,65.08,65.08,0,0,1-6.21,6l-.25.21A.47.47,0,0,1,60,47Z"/><path class="cls-2" d="M63,25.9a.51.51,0,0,1-.12-1,13.61,13.61,0,0,1,3.33-.38.52.52,0,0,1,.52.52.52.52,0,0,1-.52.52,12.63,12.63,0,0,0-3.08.34Z"/><path class="cls-2" d="M75.31,25.74c-1.06,0-2.15,0-3.19-.1S70,25.55,69,25.55A.51.51,0,0,1,68.5,25a.52.52,0,0,1,.51-.52c1,0,2.12,0,3.16.1s2.1.09,3.14.09c.85,0,1.6,0,2.3-.09a.51.51,0,0,1,.56.46.5.5,0,0,1-.46.56C77,25.7,76.19,25.74,75.31,25.74Z"/><path class="cls-2" d="M67.94,28.54c-1.61,0-3.27-.05-4.93-.14a.52.52,0,0,1-.48-.55.51.51,0,0,1,.54-.48c1.64.09,3.28.14,4.87.14A77.41,77.41,0,0,0,76.86,27,.52.52,0,0,1,77,28,79.51,79.51,0,0,1,67.94,28.54Z"/><path class="cls-2" d="M62.42,31.43a.52.52,0,0,1-.05-1c1.56-.14,3.21-.21,5.36-.21,1,0,1.91,0,2.87,0l2.85,0c1.43,0,2.6,0,3.69-.09a.52.52,0,0,1,.06,1c-1.11.06-2.3.09-3.75.09l-2.86,0-2.86,0c-2.12,0-3.74.06-5.26.2Z"/><path class="cls-2" d="M67.86,34.1c-1.68,0-3.4,0-5.11-.09a.52.52,0,1,1,0-1c1.68.09,3.4.09,5.06.09a.52.52,0,0,1,0,1Z"/><path class="cls-2" d="M70.35,34a.52.52,0,0,1,0-1l1.27,0a34.81,34.81,0,0,0,4.9-.39.52.52,0,0,1,.6.42.51.51,0,0,1-.42.6,37.5,37.5,0,0,1-5.05.41l-1.26,0Z"/><path class="cls-2" d="M39.26,40.81a.54.54,0,0,1-.42-.21.5.5,0,0,1,0-.58,17.32,17.32,0,0,0,1.38-2.86,5.6,5.6,0,0,1-1.68-4.08c.06-3.39,3.18-5.54,6.15-5.67a7,7,0,0,1,1,0,7.47,7.47,0,0,1,4.41,1.83A5.4,5.4,0,0,1,51.79,33a5.74,5.74,0,0,1-1.71,4.13,6.94,6.94,0,0,1-4.9,2.09A7.22,7.22,0,0,1,43.35,39a13.57,13.57,0,0,1-4,1.8ZM45,28.44h-.25c-2.5.11-5.12,1.88-5.17,4.66a4.65,4.65,0,0,0,1.6,3.54.51.51,0,0,1,.14.56,18.53,18.53,0,0,1-.94,2.18A12,12,0,0,0,43,38a.57.57,0,0,1,.46-.07,5.55,5.55,0,0,0,1.74.28,5.85,5.85,0,0,0,4.18-1.78,4.67,4.67,0,0,0,1.41-3.37,4.34,4.34,0,0,0-1.34-3,6.38,6.38,0,0,0-3.83-1.55A6.08,6.08,0,0,0,45,28.44Z"/><path class="cls-2" d="M42,35a.6.6,0,0,1-.46-.2.77.77,0,0,1-.18-.63v-.09a.53.53,0,0,1,.32-.48l.09,0a.57.57,0,0,1,.34-.11.6.6,0,0,1,.27.06.78.78,0,0,1,.47.73.66.66,0,0,1-.17.52A.9.9,0,0,1,42,35Zm-.08-.92h.36A.43.43,0,0,0,42,34,.33.33,0,0,0,41.87,34.12Z"/><path class="cls-2" d="M44.79,34.68a.71.71,0,0,1-.73-.77,1.12,1.12,0,0,1,.16-.55.52.52,0,0,1,.46-.29h.14c.84,0,1,.48,1,.76A.89.89,0,0,1,44.79,34.68Zm0-1,.16.08A.3.3,0,0,0,44.83,33.66Z"/><path class="cls-2" d="M47.81,34.06a.73.73,0,0,1-.76-.68,1.23,1.23,0,0,1,0-.2.47.47,0,0,1,0-.17v0a.51.51,0,0,1,.51-.52h.53a.51.51,0,0,1,.48.32.14.14,0,0,1,0,.07.58.58,0,0,1,.12.35.56.56,0,0,1-.17.4C48.28,33.87,48.08,34.06,47.81,34.06Zm.65-.71Zm-1.41,0Z"/><path class="cls-2" d="M84,19.4a.72.72,0,0,1-.34-.09.52.52,0,0,1-.49-.28.53.53,0,0,1,.19-.68l0,0A.84.84,0,0,1,84,18a.75.75,0,0,1,.74.7A.72.72,0,0,1,84,19.4Zm.29-.55Z"/><path class="cls-2" d="M86.66,19.13q-1,0-1-.87a.51.51,0,0,1,.15-.37.79.79,0,0,1,.56-.28c.12,0,1,.15,1,.76A.75.75,0,0,1,86.66,19.13Zm-.25-.51,0,0a.39.39,0,0,0,.14,0l-.15-.15Zm-.08-.25a.37.37,0,0,0,0,.15l0-.1Zm.1-.11h.29a.16.16,0,0,0-.28-.09Zm-.07,0h0l0-.08A.27.27,0,0,0,86.36,18.26Z"/><path class="cls-2" d="M89.56,18.92a.83.83,0,0,1-.76-.73.65.65,0,0,1,0-.21.58.58,0,0,1,.15-.39.71.71,0,0,1,.51-.23.8.8,0,0,1,.73.84.76.76,0,0,1-.13.44A.64.64,0,0,1,89.56,18.92Z"/><path class="cls-2" d="M93.23,26.44A7.1,7.1,0,0,1,89,25a7,7,0,0,1-3.52.86h-.2l-.62,0a6.16,6.16,0,0,1-2-.6.52.52,0,0,1,.46-.93,5.09,5.09,0,0,0,1.66.5,4.52,4.52,0,0,0,.52,0h.22a6,6,0,0,0,3.28-.9.51.51,0,0,1,.61.05,5.82,5.82,0,0,0,3,1.34,7.46,7.46,0,0,1-1.71-2.78.47.47,0,0,1,.07-.46,6.41,6.41,0,0,0,1.22-4,5.88,5.88,0,0,0-4.88-5.27,7.33,7.33,0,0,0-5.36,2,5.83,5.83,0,0,0-2,4.61c0,.08,0,.16,0,.24v.08a3.35,3.35,0,0,0,.06.47.52.52,0,0,1-1,.21,4.17,4.17,0,0,1-.08-.59V19.8c0-.1,0-.19,0-.29A6.87,6.87,0,0,1,81,14.09a8.29,8.29,0,0,1,6.21-2.31A6.84,6.84,0,0,1,93,18a7.28,7.28,0,0,1-1.26,4.48,6.46,6.46,0,0,0,2.39,3,.52.52,0,0,1,.22.55.51.51,0,0,1-.45.39A4.4,4.4,0,0,1,93.23,26.44Z"/><path class="cls-2" d="M44.93,52.27a2.7,2.7,0,0,1-2.71-2.54A2.93,2.93,0,0,1,43,47.64a2.56,2.56,0,0,1,1.79-.82h.13a2.69,2.69,0,0,1,2.66,2.87,2.77,2.77,0,0,1-2.65,2.58Zm-.08-4.41h0a1.52,1.52,0,0,0-1.06.49,1.91,1.91,0,0,0-.5,1.34,1.64,1.64,0,0,0,1.66,1.54,1.71,1.71,0,0,0,1.64-1.58A1.94,1.94,0,0,0,46,48.28a1.81,1.81,0,0,0-1.12-.42Z"/><path class="cls-2" d="M45.15,57a.52.52,0,0,1-.51-.46,13.21,13.21,0,0,1-.09-1.63c0-.39,0-.78,0-1.16s0-.76,0-1.15c0-.22,0-.44,0-.66a.52.52,0,0,1,.5-.54.53.53,0,0,1,.54.5c0,.23,0,.47,0,.7,0,.4,0,.79,0,1.17s0,.76,0,1.14a13.57,13.57,0,0,0,.07,1.51.52.52,0,0,1-.45.58Z"/><path class="cls-2" d="M43.26,57.22a.52.52,0,0,1-.52-.52.52.52,0,0,1,.52-.52c1.24,0,2.41,0,3.63-.11a.52.52,0,0,1,.57.46.53.53,0,0,1-.47.57C45.72,57.22,44.52,57.22,43.26,57.22Z"/><path class="cls-2" d="M41.06,48.48h-.12a.53.53,0,0,1-.39-.62c.55-2.39,3.33-3.51,5.05-3.51a3.65,3.65,0,0,1,3.55,2.81.51.51,0,0,1-.32.65.52.52,0,0,1-.66-.32,2.63,2.63,0,0,0-2.57-2.11c-1.4,0-3.64,1-4,2.71A.51.51,0,0,1,41.06,48.48Z"/><path class="cls-2" d="M51.7,47a.52.52,0,0,1-.51-.43A3.72,3.72,0,0,0,48,43.43a.52.52,0,1,1,.06-1,4.74,4.74,0,0,1,4.17,4,.52.52,0,0,1-.43.59Z"/><path class="cls-2" d="M53.83,45.22a.52.52,0,0,1-.51-.52,2.47,2.47,0,0,0-.75-1.91.51.51,0,1,1,.62-.82,3.36,3.36,0,0,1,1.16,2.73A.52.52,0,0,1,53.83,45.22Z"/><path class="cls-2" d="M55.58,44.21l-.14,0a.52.52,0,0,1-.35-.64s0,0,0-.08A1.7,1.7,0,0,0,55,43a2.47,2.47,0,0,1-.13-.52.51.51,0,0,1,.44-.58.51.51,0,0,1,.58.44,2,2,0,0,0,.09.35,2.44,2.44,0,0,1,.15.75,1.49,1.49,0,0,1-.05.36A.51.51,0,0,1,55.58,44.21Z"/><path class="cls-2" d="M83.82,51.86a.51.51,0,0,1-.17,0,.53.53,0,0,1-.35-.47c0-1-.09-1.87-.18-2.74-.59,0-1.18.07-1.76.13-.8.07-1.63.15-2.45.15a.52.52,0,1,1,0-1c.78,0,1.58-.08,2.36-.15s1.53-.14,2.3-.15a.51.51,0,0,1,.52.45c.08.65.14,1.32.19,2,1.39-1.57,2.87-3.07,4.31-4.53l.14-.15a28.45,28.45,0,0,1-3.8-2.87c-.41-.35-.81-.69-1.21-1,0,.77,0,1.53.07,2.28v.47a.53.53,0,0,1-.48.53h-.2s-1-.08-2.21-.08c-.74,0-1.49,0-2.22,0-1,0-2,.06-3,0a.52.52,0,0,1-.51-.53.51.51,0,0,1,.53-.5c1,0,2,0,3,0,.73,0,1.49,0,2.25,0s1.43,0,1.84,0c0-1.08,0-2.19-.12-3.28a.55.55,0,0,1,.27-.49.5.5,0,0,1,.55,0c.71.51,1.41,1.11,2.15,1.73a24.31,24.31,0,0,0,4.21,3.08.5.5,0,0,1,.27.38.48.48,0,0,1-.14.44l-.62.63c-1.72,1.75-3.5,3.56-5.1,5.47A.55.55,0,0,1,83.82,51.86Z"/><path class="cls-2" d="M109,27.64h0a2.18,2.18,0,0,1-2.12-2.07,2.24,2.24,0,0,1,.68-1.71,2.29,2.29,0,0,1,1.77-.63,2.13,2.13,0,0,1,.87.24,1.76,1.76,0,0,1,.61.55,2.25,2.25,0,0,1,.41,1.2,2.33,2.33,0,0,1-.64,1.74A2.19,2.19,0,0,1,109,27.64Zm.13-3.39a1.31,1.31,0,0,0-.89.35,1.25,1.25,0,0,0-.36.93A1.15,1.15,0,0,0,109,26.6a1,1,0,0,0,.82-.36,1.27,1.27,0,0,0,.36-1,1.2,1.2,0,0,0-.23-.66.62.62,0,0,0-.23-.23,1.07,1.07,0,0,0-.48-.13Z"/><path class="cls-2" d="M134.43,42.33h0a2.29,2.29,0,0,1-2.21-2.23A2.35,2.35,0,0,1,134,37.77a2.06,2.06,0,0,1,.44,0,2.22,2.22,0,0,1,2.28,2,2.47,2.47,0,0,1-.67,1.85A2.22,2.22,0,0,1,134.43,42.33Zm-.21-3.55a1.29,1.29,0,0,0-1,1.31,1.27,1.27,0,0,0,1.19,1.21h0a1.23,1.23,0,0,0,.88-.39,1.44,1.44,0,0,0,.38-1.07,1.2,1.2,0,0,0-1.24-1.08Z"/><path class="cls-2" d="M139.48,51.73a.5.5,0,0,1-.51-.47c-.13-1.47-.27-2.86-.44-4.24a.51.51,0,1,1,1-.13c.18,1.4.32,2.8.45,4.28a.52.52,0,0,1-.48.56Z"/><path class="cls-2" d="M137.49,49.67a.52.52,0,0,1,0-1l.73,0a19.76,19.76,0,0,0,2.88-.26.52.52,0,1,1,.2,1,21.7,21.7,0,0,1-3,.27l-.72,0Z"/><path class="cls-2" d="M10.66,105.21a.5.5,0,0,1-.51-.47c-.13-1.47-.27-2.86-.44-4.24a.51.51,0,1,1,1-.13c.18,1.4.32,2.8.45,4.28a.53.53,0,0,1-.48.56Z"/><path class="cls-2" d="M8.68,103.15a.52.52,0,0,1-.52-.49.53.53,0,0,1,.49-.55l.73,0a18.46,18.46,0,0,0,2.88-.25.52.52,0,0,1,.61.41.51.51,0,0,1-.41.6,20.34,20.34,0,0,1-3,.28l-.72,0Z"/><path class="cls-2" d="M92.06,111.81a.52.52,0,0,1-.51-.48c-.12-1.47-.27-2.85-.44-4.24a.52.52,0,0,1,1-.13c.17,1.4.32,2.8.44,4.29a.51.51,0,0,1-.47.55Z"/><path class="cls-2" d="M90.08,109.74a.52.52,0,0,1,0-1l.73,0a18.59,18.59,0,0,0,2.89-.26.52.52,0,0,1,.6.41.53.53,0,0,1-.41.61,19,19,0,0,1-3,.27l-.72,0Z"/><path class="cls-2" d="M134,58.38a.51.51,0,0,1-.37-.15l-.92-1L131,55.55a.52.52,0,0,1-.12-.53.54.54,0,0,1,.43-.35l1.43-.16c.61-.06,1.22-.13,1.82-.21a.53.53,0,0,1,.57.66c-.27.94-.46,1.92-.66,3a.52.52,0,0,1-.36.4A.39.39,0,0,1,134,58.38Zm-1.48-2.8.93,1,.23.24c.09-.47.19-.92.3-1.37l-1.08.12Z"/><path class="cls-2" d="M133,55.2a.51.51,0,0,1-.5-.38c-1.34-4.91-3.19-9.7-9.75-9.7a24.33,24.33,0,0,0-6.08,1,.52.52,0,1,1-.26-1,25.45,25.45,0,0,1,6.34-1c7.29,0,9.37,5.4,10.75,10.45a.53.53,0,0,1-.37.64Z"/><path class="cls-2" d="M121.12,60.23h-.05a.52.52,0,0,1-.47-.57,2.3,2.3,0,0,0,0-.37,8.94,8.94,0,0,0-.16-1.44,9,9,0,0,1-.18-1.57.51.51,0,0,1,.52-.51.52.52,0,0,1,.52.51,7.6,7.6,0,0,0,.16,1.39,10.57,10.57,0,0,1,.18,1.62,3.48,3.48,0,0,1,0,.47A.51.51,0,0,1,121.12,60.23Z"/><path class="cls-2" d="M119.31,58.64a.51.51,0,0,1-.51-.48.52.52,0,0,1,.48-.55l.81,0a18,18,0,0,0,2.35-.19.52.52,0,0,1,.17,1,21.29,21.29,0,0,1-2.47.21l-.8,0Z"/><path class="cls-2" d="M121,63.09a5.15,5.15,0,0,1-3.72-1.59,5.57,5.57,0,0,1-1.55-4.11,5,5,0,0,1,4.39-4.73,4.18,4.18,0,0,1,.88-.08,5,5,0,0,1,5.15,4.63,5.76,5.76,0,0,1-1.5,4.27,4.92,4.92,0,0,1-3.58,1.61Zm-.7-9.42a4,4,0,0,0-3.54,3.76A4.57,4.57,0,0,0,118,60.78a4.1,4.1,0,0,0,3,1.28,3.9,3.9,0,0,0,2.83-1.28,4.73,4.73,0,0,0,1.23-3.5A3.91,3.91,0,0,0,121,53.62,3.87,3.87,0,0,0,120.32,53.67Z"/><path class="cls-2" d="M113.47,74a.44.44,0,0,1-.22,0,.54.54,0,0,1-.29-.42c0-.44-.08-.87-.13-1.31-.12-1.2-.25-2.44-.28-3.69a.51.51,0,0,1,.84-.41,32,32,0,0,0,4,2.72.53.53,0,0,1,0,.89l-1.34.79c-.76.44-1.54.9-2.28,1.4A.55.55,0,0,1,113.47,74Zm.17-4.38c0,.84.14,1.68.22,2.5,0,.15,0,.31,0,.47l1.61-1,.58-.34C115.23,70.7,114.39,70.13,113.64,69.57Z"/><path class="cls-2" d="M90.06,62.72a.52.52,0,0,1-.5-.4,20.19,20.19,0,0,1-.41-4.67.52.52,0,1,1,1,0,18.72,18.72,0,0,0,.39,4.43.52.52,0,0,1-.39.62Z"/><path class="cls-2" d="M87.64,60.49a.52.52,0,0,1,0-1c.56,0,1.13,0,1.7-.06s1.12,0,1.68-.06a.52.52,0,0,1,.55.49.53.53,0,0,1-.49.55l-1.71.06q-.84,0-1.68.06Z"/><path class="cls-2" d="M94,53.53a.51.51,0,0,1-.46-.28,21.54,21.54,0,0,1-2.34-9.64,21.28,21.28,0,0,1,1.37-7c.53-1.42,1.6-3.79,2.8-3.79.34,0,.81.18,1.08,1a8,8,0,0,1,.25,2.32c0,4.51-2.26,7.34-2.9,7.74a.51.51,0,0,1-.71-.17.52.52,0,0,1,.16-.71c.32-.21,2.42-2.6,2.42-6.86,0-1.71-.26-2.19-.34-2.29-.84.3-3.1,5.31-3.1,9.75a20.46,20.46,0,0,0,2.23,9.17.52.52,0,0,1-.23.7A.46.46,0,0,1,94,53.53Z"/><path class="cls-2" d="M108.81,52.05a.53.53,0,0,1-.24-.06.51.51,0,0,1-.26-.58,18.61,18.61,0,0,0,.48-4.45,40.15,40.15,0,0,0-.39-5.34,31.84,31.84,0,0,1-.3-3.26.52.52,0,1,1,1,0c0,1.08.16,2.09.29,3.16a40,40,0,0,1,.4,5.47c0,.85,0,1.64-.11,2.39a14.57,14.57,0,0,0,1.92-6.76c0-6.39-3.56-10.68-6.88-10.68a12.46,12.46,0,0,0-7.7,2.38.5.5,0,0,1-.72-.09.51.51,0,0,1,.08-.72,13.48,13.48,0,0,1,8.34-2.6c4.73,0,7.91,6.05,7.91,11.71a15.35,15.35,0,0,1-3.47,9.29A.52.52,0,0,1,108.81,52.05Z"/><path class="cls-2" d="M101.06,41.67H101c-1.55-.26-3.74-3-4.56-6.85a.52.52,0,1,1,1-.21c.78,3.74,2.81,5.89,3.72,6a.51.51,0,0,1-.08,1Z"/><path class="cls-2" d="M103.71,39.67a.54.54,0,0,1-.22,0,10.11,10.11,0,0,1-4.55-5.05.53.53,0,0,1,.24-.69.52.52,0,0,1,.69.24,9.07,9.07,0,0,0,4.06,4.56.51.51,0,0,1-.22,1Z"/><path class="cls-2" d="M106.75,38.71c-.94,0-3.38-1.87-3.82-5.48a.52.52,0,0,1,.46-.57.51.51,0,0,1,.57.45c.37,3,2.33,4.52,2.8,4.56.65,0,1-1.16,1-2v-.39a3.63,3.63,0,0,1-.11-1,.54.54,0,0,1,.55-.57c.51,0,.58.45.6,1.41a2.5,2.5,0,0,0,.46,1,1.27,1.27,0,0,0,.92.48.52.52,0,0,1-.09,1,2.29,2.29,0,0,1-1.48-.68A2.1,2.1,0,0,1,106.75,38.71Z"/><path class="cls-2" d="M95.84,43.79l-.12,0a.5.5,0,0,1-.38-.62,3.66,3.66,0,0,1,3.39-2.75,1.77,1.77,0,0,1,2,1.75.52.52,0,0,1-1,.21c-.15-.73-.18-.93-1-.93a2.6,2.6,0,0,0-2.38,2A.52.52,0,0,1,95.84,43.79Z"/><path class="cls-2" d="M98.39,43.76a1.32,1.32,0,0,1-1-1.27,1.07,1.07,0,0,1,.24-.68.51.51,0,0,1,.73-.06l.11.11a.52.52,0,0,1,.51.13,1.2,1.2,0,0,1,.35.83A.9.9,0,0,1,98.39,43.76Zm.15-1Z"/><path class="cls-2" d="M106.13,43.25a.52.52,0,0,1-.52-.52.52.52,0,0,1,.52-.52.42.42,0,0,0,0-.13c0-.64,0-1-1-1a1.88,1.88,0,0,0-1.71,1.25.53.53,0,0,1-.65.34.51.51,0,0,1-.34-.65,2.89,2.89,0,0,1,2.7-2,1.81,1.81,0,0,1,2,2.07A1,1,0,0,1,106.13,43.25Z"/><path class="cls-2" d="M105.05,43.36a1,1,0,0,1-.88-1,.81.81,0,0,1,.54-.8.51.51,0,0,1,.62.26.37.37,0,0,1,.2.12.78.78,0,0,1,.26.58A.83.83,0,0,1,105.05,43.36Z"/><path class="cls-2" d="M102.14,49.08a.51.51,0,0,1-.47-.32.49.49,0,0,1,.27-.67c.25-.11.41-.2.51-.25a11.34,11.34,0,0,1-1.18-4.19.52.52,0,0,1,.49-.54.52.52,0,0,1,.54.5,10.87,10.87,0,0,0,1.21,4,.51.51,0,0,1,.06.25c0,.62-.74.94-1.23,1.15A.65.65,0,0,1,102.14,49.08Z"/><path class="cls-2" d="M101.71,50.6a4.74,4.74,0,0,1-1.73-.43.52.52,0,0,1,.4-1,3.67,3.67,0,0,0,1.33.36,1.09,1.09,0,0,0,.53-.13.52.52,0,1,1,.52.89A2.05,2.05,0,0,1,101.71,50.6Z"/><path class="cls-2" d="M94.78,64.66a.51.51,0,0,1-.51-.47l-.06-.76c-.08-.84-.15-1.7-.15-2.55,0-5.5,3.67-6.71,7.07-7.05,0-.32,0-.64,0-1C98,52.34,94.4,49.38,94,46a.52.52,0,0,1,1-.13c.39,3,4,5.77,6.64,6a.53.53,0,0,1,.47.5v.1c0,.58.05,1.18.1,1.76a.53.53,0,0,1-.12.38.5.5,0,0,1-.36.18c-4.71.35-6.63,2.11-6.63,6.06,0,.81.07,1.65.15,2.46l.06.77a.51.51,0,0,1-.47.55Z"/><path class="cls-2" d="M112.06,64.17a.51.51,0,0,1-.51-.52c0-.47,0-.95,0-1.42s0-.95,0-1.42v-.32c0-1.55,0-3.47-1.19-4.67-.88-.89-2.37-1.34-4.42-1.34-.52,0-1.07,0-1.68.09a.57.57,0,0,1-.4-.13.56.56,0,0,1-.17-.38c0-.2,0-.4,0-.6s0-.47,0-.7a7.79,7.79,0,0,1,.07-1.15.52.52,0,0,1,.36-.41c.95-.31,4.09-1.52,4.52-4.26a.52.52,0,1,1,1,.16c-.33,2.16-2.16,4-4.91,5,0,.21,0,.43,0,.69s0,.45,0,.67v.06c.43,0,.83,0,1.22,0,2.37,0,4.06.54,5.15,1.64,1.51,1.51,1.5,3.67,1.49,5.4v.32c0,.48,0,.95,0,1.43s0,.94,0,1.41A.52.52,0,0,1,112.06,64.17Z"/><path class="cls-2" d="M103.29,64.12c-1.37,0-2-1.73-2.61-3.39-.2-.54-.4-1.09-.62-1.56s-.48-1-.73-1.44a17.6,17.6,0,0,1-1.18-2.52.51.51,0,1,1,1-.34,17.53,17.53,0,0,0,1.12,2.37c.26.49.52,1,.76,1.5s.45,1.08.65,1.63c.44,1.21,1,2.71,1.64,2.71,2.27,0,3.47-5,4.19-8,.09-.38.17-.72.25-1a.52.52,0,1,1,1,.25c-.07.32-.16.66-.25,1C107.64,58.83,106.37,64.12,103.29,64.12Z"/><path class="cls-2" d="M103.17,58.43A13.47,13.47,0,0,1,100,58a.52.52,0,0,1-.38-.63.51.51,0,0,1,.62-.38,12.55,12.55,0,0,0,2.93.36,8.18,8.18,0,0,0,3.56-.74.52.52,0,0,1,.69.24.52.52,0,0,1-.24.69A9.16,9.16,0,0,1,103.17,58.43Z"/><path class="cls-2" d="M100.41,70.89a.5.5,0,0,1-.34-.13,22.29,22.29,0,0,1-2-1.86.53.53,0,0,1,0-.73c.4-.37.81-.72,1.21-1.06s.93-.81,1.36-1.23a.53.53,0,0,1,.4-.14.49.49,0,0,1,.37.2,16.94,16.94,0,0,0,1.88,2,.55.55,0,0,1,.16.39.58.58,0,0,1-.19.39l-1.14.88c-.51.38-1,.74-1.44,1.13A.5.5,0,0,1,100.41,70.89Zm-1.18-2.32c.39.4.8.78,1.19,1.12.37-.3.76-.59,1.13-.88l.66-.5A15.45,15.45,0,0,1,101,67c-.33.3-.67.59-1,.87Z"/><path class="cls-2" d="M88.84,76.25h-.07A2.26,2.26,0,0,1,86.55,74,2.42,2.42,0,0,1,88,71.71a1.61,1.61,0,0,1,.42-.11,2.5,2.5,0,0,1,2,.71,2.42,2.42,0,0,1,.75,2A2.3,2.3,0,0,1,88.84,76.25Zm-.15-3.63h-.14a.39.39,0,0,0-.15,0A1.38,1.38,0,0,0,87.59,74a1.22,1.22,0,0,0,1.21,1.27h0a1.28,1.28,0,0,0,1.33-1,1.38,1.38,0,0,0-.44-1.13A1.52,1.52,0,0,0,88.69,72.62Z"/><path class="cls-2" d="M105,84.91a.52.52,0,0,1-.51-.48c0-.38,0-.79,0-1.29,0-.32,0-.63,0-1s0-.62,0-.92v-.14c-.17-2.84-.23-5.22-.26-6.85l-13.1.11a.52.52,0,0,1-.52-.51.51.51,0,0,1,.51-.52l13.62-.12a.52.52,0,0,1,.52.52c0,1.6.08,4.18.26,7.31,0,.12,0,.19,0,.2,0,.31,0,.63,0,.94s0,.62,0,.93c0,.47,0,.85.05,1.21a.53.53,0,0,1-.47.56Z"/><path class="cls-2" d="M104.94,89a.54.54,0,0,1-.41-.2c-.29-.38-.61-.75-.91-1.12a19.42,19.42,0,0,1-1.69-2.2.52.52,0,0,1,0-.51.53.53,0,0,1,.43-.28c1.59-.11,3.13-.16,4.55-.2a.5.5,0,0,1,.45.24.52.52,0,0,1,0,.51c-.38.75-.8,1.47-1.21,2.17-.26.43-.51.87-.76,1.32A.56.56,0,0,1,105,89Zm-1.63-3.33c.34.45.71.89,1.1,1.35l.45.54.4-.68c.26-.43.52-.88.77-1.33C105.15,85.53,104.24,85.56,103.31,85.62Z"/><path class="cls-2" d="M89.47,87.46A.52.52,0,0,1,89,87l-.26-7.11a.51.51,0,0,1,.47-.54c.73-.06,1.49-.09,2.33-.09,1.36,0,2.73.08,4.06.16.82.05,1.66.1,2.5.13a.51.51,0,0,1,.49.5c0,.9.08,1.8.13,2.71.07,1.35.14,2.75.17,4.12a.55.55,0,0,1-.14.37.52.52,0,0,1-.37.16C95,87.42,92.28,87.45,89.47,87.46Zm.27-7.16L90,86.42c2.49,0,5,0,7.83-.08,0-1.19-.09-2.39-.15-3.57,0-.75-.08-1.5-.11-2.25l-2-.11c-1.32-.08-2.67-.16-4-.16C90.87,80.25,90.29,80.27,89.74,80.3Z"/><path class="cls-2" d="M93.77,85a.83.83,0,0,1-.61-.32l0,0c-.73-.68-1.43-1.38-2.1-2.05s-1.42-1.42-2.17-2.11a.51.51,0,0,1,0-.73.52.52,0,0,1,.73,0c.76.71,1.49,1.43,2.2,2.14s1.36,1.36,2.08,2h0a12.63,12.63,0,0,0,1.38-1.62,13.91,13.91,0,0,1,2.17-2.41.51.51,0,0,1,.72.12.51.51,0,0,1-.11.72,13.22,13.22,0,0,0-2,2.21C95,84.29,94.38,85,93.77,85Z"/><path class="cls-2" d="M89.66,87.11a.53.53,0,0,1-.27-.08.51.51,0,0,1-.16-.72,12.21,12.21,0,0,1,2.24-2.45l.54-.5a.53.53,0,0,1,.73,0,.52.52,0,0,1,0,.73c-.19.18-.37.35-.56.51a11.71,11.71,0,0,0-2.06,2.24A.52.52,0,0,1,89.66,87.11Z"/><path class="cls-2" d="M98,87a.52.52,0,0,1-.42-.22c-.37-.52-.8-1-1.21-1.52s-.86-1-1.25-1.58a.51.51,0,1,1,.83-.6c.38.52.8,1,1.21,1.52s.86,1,1.26,1.58a.51.51,0,0,1-.12.72A.47.47,0,0,1,98,87Z"/><path class="cls-2" d="M113.73,84.48a1.81,1.81,0,0,1-2-1.92,1.68,1.68,0,0,1,1.46-1.89c.48-.13.59-.16.59-.65v-.39a1.88,1.88,0,0,1,1.84-1.89c1,0,1.2.89,1.29,1.43.16.85.29,1.58,2.26,1.58,4.08,0,4.7-1.19,5.43-2.57s1.63-3.1,6.23-3.14a.52.52,0,0,1,0,1c-4,0-4.61,1.22-5.33,2.59s-1.64,3.13-6.34,3.13c-2.83,0-3.11-1.53-3.27-2.44-.11-.57-.14-.57-.28-.57a.85.85,0,0,0-.81.85V80a1.52,1.52,0,0,1-1.35,1.65c-.51.13-.7.18-.7.89a.8.8,0,0,0,.92.89c.28,0,5.54-.31,6.16-.4l.61-.12a7.36,7.36,0,0,1,1.43-.19.52.52,0,0,1,.51.52.51.51,0,0,1-.51.52,6.15,6.15,0,0,0-1.23.17l-.65.12C119.3,84.18,113.77,84.48,113.73,84.48Z"/><path class="cls-2" d="M130.9,77.6h0a.52.52,0,0,1-.5-.54c0-.25,0-.5,0-.75,0-2.14-.7-2.57-1.59-3.11-1-.62-2.21-1.32-2.21-4.33,0-5.71,3-8.85,8.34-8.85,2.33,0,5.58,1.68,5.58,4.42a23,23,0,0,1-.2,3.13c.91.23,1.41.75,1.41,1.46s-.52,1.94-2.44,2.13a7.38,7.38,0,0,1-3.37,3.26c-1.14.65-1.68,1-1.68,2.09a2.1,2.1,0,0,0,0,.43.51.51,0,0,1-.36.63.53.53,0,0,1-.64-.37,2.67,2.67,0,0,1-.09-.69c0-1.73,1.07-2.34,2.21-3a6.42,6.42,0,0,0,3.07-3.09.54.54,0,0,1,.45-.3c1.75,0,1.77-1.07,1.77-1.11,0-.3-.55-.47-1-.52a.53.53,0,0,1-.45-.6,20.11,20.11,0,0,0,.26-3.47c0-2-2.73-3.39-4.54-3.39-6,0-7.3,4.25-7.3,7.82,0,2.42.79,2.9,1.7,3.45s2.1,1.26,2.1,4c0,.26,0,.53,0,.79A.53.53,0,0,1,130.9,77.6Z"/><path class="cls-2" d="M131.91,71.54h-.06c-.85-.09-1.77-.49-1.77-1.32v0a3.83,3.83,0,0,1,.74-1.87,3.87,3.87,0,0,0,.57-1.18.53.53,0,0,1,.62-.4.51.51,0,0,1,.39.62,4.86,4.86,0,0,1-.7,1.51,3,3,0,0,0-.59,1.37,1.49,1.49,0,0,0,.85.3.51.51,0,0,1,.45.57A.52.52,0,0,1,131.91,71.54Z"/><path class="cls-2" d="M139.3,67.67A4.35,4.35,0,0,1,136.17,66a6.36,6.36,0,0,0-5.08-2.25,6.54,6.54,0,0,0-2.49.49.52.52,0,0,1-.39-1,7.54,7.54,0,0,1,2.88-.56,7.35,7.35,0,0,1,5.81,2.54,3.45,3.45,0,0,0,2.4,1.37h.11a.52.52,0,0,1,.55.49.53.53,0,0,1-.49.55Z"/><path class="cls-2" d="M137.61,83.72h0a.52.52,0,0,1-.48-.55c0-.63.15-1.27.25-1.88a13.07,13.07,0,0,0,.26-2.17c0-2-.63-2.56-2.69-2.56-.3,0-.58,0-.85,0a.52.52,0,0,1,0-1c.28,0,.59,0,.9,0,2.61,0,3.72,1.07,3.72,3.59a14.22,14.22,0,0,1-.27,2.35,16.45,16.45,0,0,0-.24,1.76A.52.52,0,0,1,137.61,83.72Z"/><path class="cls-2" d="M131.69,80.78c-2.4,0-3.48-2-3.48-4.06a3.81,3.81,0,0,1,0-.59.51.51,0,0,1,.57-.45.5.5,0,0,1,.45.57c0,.15,0,.31,0,.47,0,1.4.64,3,2.44,3,2.16,0,3.06-1.57,3.6-2.93a3.2,3.2,0,0,1,.16-.35.51.51,0,1,1,.88.53,1.6,1.6,0,0,1-.08.2C135.9,78.08,134.83,80.78,131.69,80.78Z"/><path class="cls-2" d="M126.67,92.74a.52.52,0,0,1-.41-.83l.89-1.17c.58-.75,1.17-1.53,1.73-2.32a.52.52,0,0,1,.89.08l.31.67a25.65,25.65,0,0,0,1.29,2.5.53.53,0,0,1,0,.49.51.51,0,0,1-.4.29,23,23,0,0,1-2.81.21c-.54,0-1,0-1.46.07Zm2.54-3c-.41.56-.83,1.1-1.24,1.64l-.2.27.39,0c.59,0,1.24,0,1.93-.1C129.77,90.93,129.48,90.33,129.21,89.73Z"/><path class="cls-2" d="M137.84,96.69h-.16a2.25,2.25,0,0,1-2-2.24,2.4,2.4,0,0,1,1.15-2.11A2.22,2.22,0,0,1,138,92a2.19,2.19,0,0,1,2.29,2,2.46,2.46,0,0,1-.73,1.94A2.38,2.38,0,0,1,137.84,96.69Zm-.5-3.47a1.37,1.37,0,0,0-.65,1.2,1.22,1.22,0,0,0,1.06,1.23,1.32,1.32,0,0,0,1-.41,1.47,1.47,0,0,0,.43-1.13,1.28,1.28,0,0,0-1.88-.89Z"/><path class="cls-2" d="M129.79,113.32a.52.52,0,0,1-.38-.17.54.54,0,0,1-.13-.46,18.56,18.56,0,0,0,.39-3.42.52.52,0,0,1,.54-.5.52.52,0,0,1,.49.54,20.94,20.94,0,0,1-.27,2.89l1-.14c.61-.09,1.25-.19,1.89-.26a.52.52,0,0,1,.57.46.52.52,0,0,1-.46.57c-.62.07-1.24.16-1.85.25s-1.12.17-1.69.23Z"/><path class="cls-2" d="M130.18,113a.5.5,0,0,1-.33-.13.52.52,0,0,1-.06-.73,32.25,32.25,0,0,0,6.61-13.34.52.52,0,0,1,1,.25,33.39,33.39,0,0,1-6.82,13.77A.53.53,0,0,1,130.18,113Z"/><path class="cls-2" d="M123.28,119.16h-.13a2,2,0,0,1-1.86-2,2.07,2.07,0,0,1,1.25-2,2.5,2.5,0,0,1,1.27-.2,1.81,1.81,0,0,1,1.65,1.7,2.28,2.28,0,0,1-.62,1.81A2.14,2.14,0,0,1,123.28,119.16Zm-.35-3a1.05,1.05,0,0,0-.61,1,1,1,0,0,0,.89,1,1.13,1.13,0,0,0,.88-.35,1.24,1.24,0,0,0,.34-1,.77.77,0,0,0-.74-.77A1.53,1.53,0,0,0,122.93,116.15Z"/><path class="cls-2" d="M90.35,124.81h-.09a2,2,0,0,1-2-2,2.17,2.17,0,0,1,1.6-2.09,2.25,2.25,0,0,1,.74-.07,2,2,0,0,1,1.88,1.91,2.19,2.19,0,0,1-2.17,2.27Zm-.18-3.11a1.11,1.11,0,0,0-.83,1.07,1,1,0,0,0,1,1,1.16,1.16,0,0,0,1.19-1.19,1,1,0,0,0-.91-.93A1.36,1.36,0,0,0,90.17,121.7Z"/><path class="cls-2" d="M105.34,134.2a.52.52,0,0,1-.51-.44,24.25,24.25,0,0,1-.2-2.78l0-1a.5.5,0,0,1,.49-.54.51.51,0,0,1,.54.49c0,.34,0,.67,0,1a25.83,25.83,0,0,0,.18,2.67.52.52,0,0,1-.44.59Z"/><path class="cls-2" d="M103.57,132.62a.52.52,0,0,1-.51-.44.51.51,0,0,1,.43-.59c.58-.09,1.18-.14,1.76-.18s1.14-.09,1.68-.17a.52.52,0,1,1,.16,1c-.58.09-1.18.14-1.76.18s-1.14.09-1.68.17Z"/><path class="cls-2" d="M91.67,139.22a.58.58,0,0,1-.35-.13c-.9-.8-1.91-1.77-2.64-2.53a.51.51,0,0,1,0-.71c.66-.72,1.36-1.43,2-2.11l.92-.94a.48.48,0,0,1,.41-.15.47.47,0,0,1,.38.22,18.32,18.32,0,0,0,2.4,2.85.53.53,0,0,1,0,.76c-1,.84-1.9,1.67-2.77,2.58A.54.54,0,0,1,91.67,139.22Zm-1.9-3c.56.57,1.23,1.21,1.87,1.79.67-.66,1.36-1.29,2.07-1.92A19.38,19.38,0,0,1,91.94,134c-.16.16-.32.33-.49.49Z"/><path class="cls-2" d="M98,125.43a.52.52,0,0,1-.52-.51c0-.53,0-1.08-.1-1.67s-.11-1.45-.11-2.19c0-4,2.26-6.21,6.37-6.21,1,0,2.12.08,3,.16a.51.51,0,0,1,.47.56.52.52,0,0,1-.56.47c-.88-.08-1.92-.16-2.93-.16-3.54,0-5.34,1.75-5.34,5.18,0,.7.06,1.41.11,2.11s.1,1.17.11,1.73A.52.52,0,0,1,98,125.43Z"/><path class="cls-2" d="M107.13,117.47h0a.52.52,0,0,1-.48-.55c0-.19,0-.39,0-.59,0-1.81-.93-2-2.47-2.4-2.06-.49-4.86-1.16-5.08-6.8-2.56-.11-3.12-1.35-3.12-2.4a2,2,0,0,1,1.67-1.82,11.67,11.67,0,0,1-.07-1.18c0-6.73,5.46-11.8,12.7-11.8,5.45,0,8.22,3.07,8.22,9.12a11.93,11.93,0,0,1-.24,2.36,2.13,2.13,0,0,1,2,2.06c0,.94-.71,1.82-2.07,2.54,0,.5.1,1,.1,1.51,0,3.67-2.61,5-4.7,6-1.8.89-2.9,1.5-2.9,2.87a1.63,1.63,0,0,0,0,.43.53.53,0,0,1-.39.62.52.52,0,0,1-.62-.38,3.07,3.07,0,0,1-.08-.67c0-2.08,1.77-3,3.49-3.8,2-1,4.11-2,4.11-5,0-.45,0-.93-.08-1.4l0-.37a.53.53,0,0,1,.29-.51c1.15-.55,1.81-1.2,1.81-1.77s-.59-1-1.43-1h-.16a.53.53,0,0,1-.43-.18.49.49,0,0,1-.11-.45,11.66,11.66,0,0,0,.35-2.74c0-5.52-2.29-8.09-7.19-8.09-7.66,0-11.66,5.42-11.66,10.77a10.56,10.56,0,0,0,.11,1.49.5.5,0,0,1-.39.58c-1.12.27-1.32.52-1.32.93s0,1.37,2.44,1.37h.12a.48.48,0,0,1,.38.14.52.52,0,0,1,.16.37c.06,5.31,2.21,5.82,4.3,6.32,1.53.36,3.27.77,3.27,3.4,0,.22,0,.44,0,.65A.52.52,0,0,1,107.13,117.47Z"/><path class="cls-2" d="M115.33,126.2h-.07a.52.52,0,0,1-.44-.58c.07-.46.14-.91.22-1.36a24.1,24.1,0,0,0,.43-3.93c0-3-1.08-4.2-3.74-4.2q-.49,0-1,0h-.32a.52.52,0,1,1,0-1l.31,0c.34,0,.69,0,1,0,3.21,0,4.77,1.71,4.77,5.24a25.1,25.1,0,0,1-.44,4.1c-.08.44-.15.89-.21,1.34A.53.53,0,0,1,115.33,126.2Z"/><path class="cls-2" d="M108.17,119.63c-3.34,0-4.31-2.18-5-3.77a.52.52,0,0,1,.94-.43c.69,1.56,1.4,3.16,4.07,3.16a5,5,0,0,0,4.5-2.58.51.51,0,0,1,.69-.23.52.52,0,0,1,.24.69A6.11,6.11,0,0,1,108.17,119.63Z"/><path class="cls-2" d="M98.46,103.27a.52.52,0,0,1-.21-1,7.38,7.38,0,0,0,2-2.41c1.41-2.13,3.17-4.78,6-4.78a3.3,3.3,0,0,1,2.86,2,5.94,5.94,0,0,1,3.82-2.19c2.21,0,3.17,2.56,3.8,4.25a7,7,0,0,0,.5,1.18.52.52,0,0,1-.4,1c-.48-.15-.7-.76-1.07-1.77-.57-1.51-1.33-3.58-2.83-3.58-.65,0-2.11.63-3.49,2.36a.57.57,0,0,1-.44.2.56.56,0,0,1-.41-.25l-.15-.26c-.58-1-1.08-1.81-2.19-1.81-2.26,0-3.78,2.29-5.12,4.31-.86,1.3-1.6,2.42-2.48,2.8A.79.79,0,0,1,98.46,103.27Z"/><path class="cls-2" d="M105.1,104.64a.91.91,0,0,1-.9-1,1.32,1.32,0,0,1,.14-.56,7.23,7.23,0,0,0-1.23.93c-.17.16-.33.3-.47.41a.52.52,0,1,1-.64-.81c.13-.1.27-.23.43-.37a4.08,4.08,0,0,1,2.29-1.31,1.32,1.32,0,0,1,.68.2.55.55,0,0,1,.43.22.57.57,0,0,1,.1.3,1.42,1.42,0,0,1,.23.74A1.22,1.22,0,0,1,105.1,104.64Z"/><path class="cls-2" d="M113.11,104.52a.85.85,0,0,1-.88-1,1.75,1.75,0,0,1,.17-.74,1.28,1.28,0,0,0-.78.54.52.52,0,0,1-.71.18.5.5,0,0,1-.18-.7,2.7,2.7,0,0,1,2.43-1.16,1.24,1.24,0,0,1,1.32,1.4v.08A1.45,1.45,0,0,1,113.11,104.52Zm.34-1.43a1.15,1.15,0,0,0-.16.31.39.39,0,0,0,.16-.23Z"/><path class="cls-2" d="M106.89,109.46c-.72,0-1.49-.43-1.49-1.12a.52.52,0,0,1,.21-.41,6.57,6.57,0,0,0,2.34-4.8,4.36,4.36,0,0,0,0-.51.52.52,0,0,1,.48-.56.51.51,0,0,1,.55.47q0,.3,0,.6a7.45,7.45,0,0,1-2.33,5.26,2.41,2.41,0,0,0,1.15-.12,5.52,5.52,0,0,1,.68-.15.53.53,0,0,1,.59.44.52.52,0,0,1-.44.58l-.58.13A4.61,4.61,0,0,1,106.89,109.46Z"/><path class="cls-2" d="M108.31,112.32a2,2,0,0,1-1.17-.35.5.5,0,0,1-.14-.71.53.53,0,0,1,.72-.15,1,1,0,0,0,.59.18,3.68,3.68,0,0,0,1.66-.61.51.51,0,0,1,.7.19.52.52,0,0,1-.19.71A4.51,4.51,0,0,1,108.31,112.32Z"/><path class="cls-2" d="M81.4,143.42a1.07,1.07,0,0,1-.67-.19.76.76,0,0,1-.31-.63,3.94,3.94,0,0,1,.09-.91,36.52,36.52,0,0,1-7.63.62H72a.52.52,0,0,1-.51-.53.52.52,0,0,1,.53-.51h.91c3.91,0,6.85-.3,8.25-.86a.55.55,0,0,1,.69.14.52.52,0,0,1,0,.67,2,2,0,0,0-.34,1.16,11.42,11.42,0,0,0,1.87-.46,16.23,16.23,0,0,1,1.85-.47.52.52,0,0,1,.6.42.53.53,0,0,1-.43.6,15.73,15.73,0,0,0-1.73.44A8.79,8.79,0,0,1,81.4,143.42Z"/><path class="cls-2" d="M64.3,139.17a.55.55,0,0,1-.36-.15.55.55,0,0,1-.16-.38c0-.77,0-1.53.07-2.29,0-1.15.08-2.34.08-3.5s0-1.93-.09-2.78c-.18-2.29-.33-4.62-.47-6.87-.09-1.4-.18-2.8-.28-4.2a.51.51,0,0,1,.49-.55l16.63-.89a.52.52,0,0,1,.38.13.58.58,0,0,1,.17.37c0,1.4.12,2.83.21,4.22l.12,2.13c.07,1.42.09,3,.11,4.55,0,1.86,0,3.62.15,5.11a.53.53,0,0,1-.15.4,23.64,23.64,0,0,0-3,3.61.52.52,0,0,1-.41.24l-13.43.84Zm-.14-19.72.24,3.68c.14,2.25.29,4.58.47,6.86.06.87.1,1.81.1,2.86s0,2.38-.09,3.53c0,.57,0,1.14,0,1.72l12.61-.8a24.29,24.29,0,0,1,2.86-3.38c-.1-1.48-.12-3.24-.14-4.95,0-1.53,0-3.1-.1-4.51,0-.7-.08-1.41-.13-2.12-.07-1.22-.14-2.48-.19-3.72Z"/><path class="cls-2" d="M68.57,122.93a.52.52,0,0,1-.11-1,17.57,17.57,0,0,1,3.2-.3,19,19,0,0,0,2.76-.24.52.52,0,1,1,.18,1,20.52,20.52,0,0,1-2.9.25,17.48,17.48,0,0,0-3,.28Z"/><path class="cls-2" d="M68.92,126.08a.51.51,0,0,1-.07-1c2.16-.31,4.35-.43,6.46-.54a.51.51,0,0,1,.55.48.52.52,0,0,1-.49.55c-2.09.11-4.26.23-6.37.53Z"/><path class="cls-2" d="M76.12,129.59h-.07a25.76,25.76,0,0,0-3.18-.18c-1.44,0-2.87.09-4.08.18a.52.52,0,1,1-.08-1c1.23-.09,2.69-.19,4.16-.19a28,28,0,0,1,3.31.19.52.52,0,0,1-.06,1Z"/><path class="cls-2" d="M69.4,133.39a.52.52,0,1,1,0-1c1.24,0,2.43-.1,3.69-.21.64-.05,1.28-.11,1.92-.15a.52.52,0,0,1,.55.49.51.51,0,0,1-.48.54l-1.9.15C72,133.29,70.68,133.39,69.4,133.39Z"/><path class="cls-2" d="M77.6,138.32a.52.52,0,0,1-.52-.49c0-1.12-.2-2.22-.37-3.44a.54.54,0,0,1,.1-.39.57.57,0,0,1,.36-.2c1.22-.12,2.43-.22,3.66-.31a.52.52,0,0,1,.08,1c-1,.08-2.07.16-3.1.26.14,1,.26,2,.31,3a.52.52,0,0,1-.49.54Z"/><path class="cls-2" d="M59.38,138.46a19.8,19.8,0,0,1-3.3-.31c-.43-.07-.84-.14-1.26-.19a.52.52,0,0,1-.35-.18c-3.23-3.93-8.57-10.47-10.15-12.4a.52.52,0,0,1,.06-.72c.74-.66,1.54-1.26,2.31-1.85s1.26-1,1.86-1.46a.52.52,0,0,1,.73.06l10.41,12.27a.57.57,0,0,1,.12.26c.06.49.13,1,.19,1.47q.15,1.23.33,2.46a.57.57,0,0,1-.12.41.53.53,0,0,1-.39.18ZM55.14,137c.37,0,.73.1,1.11.17a18.19,18.19,0,0,0,3,.3c-.09-.63-.17-1.26-.25-1.89,0-.44-.11-.87-.17-1.31l-10-11.76c-.5.4-1,.79-1.5,1.16s-1.27,1-1.88,1.48C47.3,127.38,52.09,133.25,55.14,137Z"/><path class="cls-2" d="M54.49,137.61a.47.47,0,0,1-.17,0,.51.51,0,0,1-.32-.65,6.93,6.93,0,0,1,4.6-4,.53.53,0,0,1,.66.33.52.52,0,0,1-.33.65c-1,.32-3.24,1.28-4,3.36A.52.52,0,0,1,54.49,137.61Z"/><path class="cls-2" d="M57.46,138a.52.52,0,0,1-.31-.1.51.51,0,0,1-.11-.72A5.49,5.49,0,0,1,59,135.44a.52.52,0,0,1,.46.93,4.63,4.63,0,0,0-1.53,1.44A.54.54,0,0,1,57.46,138Z"/><path class="cls-2" d="M46.23,127a.54.54,0,0,1-.37-.16.52.52,0,0,1,0-.73,19.38,19.38,0,0,1,3.54-2.8.51.51,0,1,1,.55.87,18.29,18.29,0,0,0-3.36,2.66A.52.52,0,0,1,46.23,127Z"/><path class="cls-2" d="M57.75,123.53a.52.52,0,0,1-.51-.47c-.12-1.36-.12-2.77-.12-4v-.2a.52.52,0,0,1,1,0v.2c0,1.22,0,2.6.12,3.92a.53.53,0,0,1-.47.56Z"/><path class="cls-2" d="M55.67,121.27a.52.52,0,0,1-.51-.44.52.52,0,0,1,.43-.59,23.32,23.32,0,0,1,3.53-.24.52.52,0,1,1,0,1,22.26,22.26,0,0,0-3.36.23Z"/><path class="cls-2" d="M43.44,135.87h-.12a1.91,1.91,0,0,1-1.77-2,2,2,0,0,1,.77-1.58,2,2,0,0,1,1.16-.4h0a1.93,1.93,0,0,1,1.37,3.36A2.12,2.12,0,0,1,43.44,135.87Zm.07-2.93a1,1,0,0,0-.57.19.93.93,0,0,0-.36.76.89.89,0,0,0,.81.94,1,1,0,0,0,.77-.31.93.93,0,0,0,.32-.67A1,1,0,0,0,43.51,132.94Z"/><path class="cls-2" d="M33.81,131.5a.5.5,0,0,1-.24-.06A29.12,29.12,0,0,1,30.11,129c-1.11-.88-2.36-1.86-3.69-2.8a.52.52,0,0,1-.07-.78,42.09,42.09,0,0,1,3.31-3c1-.85,2.07-1.73,3-2.69a.52.52,0,0,1,.53-.13.51.51,0,0,1,.35.41c.19,1.29.34,2.37.46,3.38.77-.09,1.54-.19,2.28-.3,1-.14,2.07-.28,3.11-.37a.52.52,0,0,1,.56.48.53.53,0,0,1-.48.56c-1,.08-2,.22-3,.36s-1.88.26-2.83.34a.51.51,0,0,1-.56-.45c-.11-.87-.23-1.79-.38-2.84-.77.72-1.57,1.39-2.35,2-.95.79-1.92,1.61-2.82,2.49,1.17.84,2.26,1.7,3.24,2.47s1.78,1.4,2.47,1.88c-.07-.88-.13-1.78-.18-2.66a.54.54,0,0,1,.14-.38.52.52,0,0,1,.37-.16h.07a35,35,0,0,0,6-.44.51.51,0,1,1,.2,1,33.08,33.08,0,0,1-5.75.45c0,.77.11,1.54.16,2.29l.06.83a.49.49,0,0,1-.23.47A.54.54,0,0,1,33.81,131.5Z"/><path class="cls-2" d="M41.64,118.29a.49.49,0,0,1-.3-.1A24.36,24.36,0,0,1,39,116.27a.49.49,0,0,1-.17-.36.54.54,0,0,1,.15-.38l.53-.54c.54-.56,1.09-1.13,1.68-1.67a.51.51,0,0,1,.69,0c.25.22.49.45.72.67.46.44.9.85,1.37,1.24a.52.52,0,0,1,.19.37A.54.54,0,0,1,44,116c-.74.78-1.46,1.56-2,2.15A.51.51,0,0,1,41.64,118.29Zm-1.53-2.42c.52.47,1,.88,1.47,1.21l1.33-1.42-1-.91c-.11-.12-.23-.23-.35-.34-.44.42-.87.86-1.28,1.29Z"/><path class="cls-2" d="M40.52,106.48A.52.52,0,0,1,40,106a27.36,27.36,0,0,1-.24-3.81.52.52,0,1,1,1,0,25.4,25.4,0,0,0,.24,3.67.52.52,0,0,1-.44.58Z"/><path class="cls-2" d="M38.44,104.69a.52.52,0,0,1,0-1l.85-.09a26.74,26.74,0,0,1,2.83-.21.52.52,0,0,1,.52.52.53.53,0,0,1-.52.52,25.25,25.25,0,0,0-2.72.2l-.85.09Z"/><path class="cls-2" d="M13.16,85a2.2,2.2,0,0,1-1.57-.62,2.17,2.17,0,0,1,.64-3.5,3.35,3.35,0,0,1,.52-.16l.32,0a2.28,2.28,0,0,1,1.6.64,2.15,2.15,0,0,1,.64,1.56A2.1,2.1,0,0,1,13.2,85Zm-.05-3.27h-.18a1.5,1.5,0,0,0-.3.1,1.05,1.05,0,0,0-.63,1,1.14,1.14,0,0,0,.32.82,1.15,1.15,0,0,0,.87.32,1.08,1.08,0,0,0,1.09-1.09,1.13,1.13,0,0,0-.34-.81A1.16,1.16,0,0,0,13.11,81.69Z"/><path class="cls-2" d="M25.61,106.42h-.06c-2.6-.29-5.68-3.57-8.07-6.39l-.39-.46a2.25,2.25,0,0,1,.08-4.49,9,9,0,0,1-.12-1.4,6.19,6.19,0,0,1,2.65-4.94,9.22,9.22,0,0,1,5.5-1.85,5.29,5.29,0,0,1,4.53,2.22,2.73,2.73,0,0,1,.64-.07,3.16,3.16,0,0,1,3.14,3.25c0,7.87-2.72,9.73-4.91,11.23a6,6,0,0,0-2.51,2.59A.54.54,0,0,1,25.61,106.42ZM17.73,96.05c-1.13,0-1.65.71-1.65,1.19a1.33,1.33,0,0,0,1.22,1.29c.28,0,.33.07,1,.82,1.27,1.5,4.55,5.37,7,6A7.44,7.44,0,0,1,28,102.65c2.09-1.43,4.45-3,4.45-10.37a2.11,2.11,0,0,0-2.1-2.22,1.8,1.8,0,0,0-.66.12.51.51,0,0,1-.62-.2,4.32,4.32,0,0,0-3.89-2.07c-3.37,0-7.12,2.36-7.12,5.76a9.67,9.67,0,0,0,.2,1.77.52.52,0,0,1-.11.43.5.5,0,0,1-.4.18Z"/><path class="cls-2" d="M18.36,97.74h-.1a.51.51,0,0,1-.41-.6,7.7,7.7,0,0,1,3.6-4.55A15.37,15.37,0,0,1,30,90.29a.51.51,0,0,1,.43.24,5.94,5.94,0,0,0,2.89,2.35.52.52,0,1,1-.35,1,7,7,0,0,1-3.25-2.52c-6.61.09-10.35,3.61-10.8,6A.52.52,0,0,1,18.36,97.74Z"/><path class="cls-2" d="M25.79,101.13a.51.51,0,0,1-.5-.39.52.52,0,0,1,.37-.63,1,1,0,0,0,.48-.26c-.5-.46-1.34-1.63-1.34-4.2v-.74c0-.21,0-.42,0-.64a.51.51,0,0,1,.49-.53.52.52,0,0,1,.54.49c0,.23,0,.46,0,.68v.74c0,2.84,1.14,3.55,1.15,3.56a.53.53,0,0,1,.26.41.25.25,0,0,1,0,.08,1.59,1.59,0,0,1-1.35,1.41Z"/><path class="cls-2" d="M15.27,118.12h-.06a.51.51,0,0,1-.45-.58,45.18,45.18,0,0,0,.33-7c-.07-3.87.25-4,5.67-5.36l2.16-.57a.51.51,0,0,1,.63.36.52.52,0,0,1-.36.64L21,106.2c-2.5.65-3.88,1-4.45,1.53s-.48,1.06-.44,2.81a46.9,46.9,0,0,1-.35,7.13A.51.51,0,0,1,15.27,118.12Z"/><path class="cls-2" d="M32.24,116.09a.52.52,0,0,1-.51-.45,48.24,48.24,0,0,1-.57-8.81c0-.15,0-.3,0-.42h0a10.09,10.09,0,0,1-4.71-1.48.52.52,0,0,1,.48-.92,9.25,9.25,0,0,0,4.27,1.37,1,1,0,0,1,.8.26c.24.26.23.56.21,1.23a47,47,0,0,0,.56,8.64.53.53,0,0,1-.45.58Zm-.87-9.66Z"/><path class="cls-2" d="M25.77,109.29c-1.51,0-1.68-1.44-1.78-2.3a3.12,3.12,0,0,0-.12-.68.53.53,0,0,1,.32-.66.51.51,0,0,1,.66.31,4.75,4.75,0,0,1,.17.91c.13,1.11.27,1.38.75,1.38a.74.74,0,0,0,.75-.78,1.76,1.76,0,0,0-.75-1.28.52.52,0,1,1,.63-.82,2.76,2.76,0,0,1,1.15,2.1A1.78,1.78,0,0,1,25.77,109.29Z"/><path class="cls-2" d="M26.32,120.23a.51.51,0,0,1-.36-.15,20,20,0,0,0-3.14-2.59.53.53,0,0,1-.22-.56,57.64,57.64,0,0,0,1.48-8.11.52.52,0,0,1,.57-.46.5.5,0,0,1,.46.56,57.28,57.28,0,0,1-1.42,7.9A20.42,20.42,0,0,1,26.3,119c.43-.45.88-.88,1.31-1.31a68.94,68.94,0,0,0-1.55-8.73.51.51,0,1,1,1-.24,69.61,69.61,0,0,1,1.61,9.11.54.54,0,0,1-.16.43l-.18.17c-.54.54-1.11,1.09-1.63,1.66A.56.56,0,0,1,26.32,120.23Z"/><path class="cls-2" d="M18.84,118.12h-.13a.52.52,0,0,1-.38-.63,16.06,16.06,0,0,0,.35-2.45,15.81,15.81,0,0,1,.37-2.6.51.51,0,0,1,.62-.38.52.52,0,0,1,.38.63,14.79,14.79,0,0,0-.34,2.44,16.91,16.91,0,0,1-.37,2.61A.51.51,0,0,1,18.84,118.12Z"/><path class="cls-2" d="M37.08,89.1a.54.54,0,0,1-.36-.14.52.52,0,0,1-.11-.6,16.82,16.82,0,0,0,1-2.82,5.21,5.21,0,0,1-.47-8.07,7,7,0,0,1,5.25-1.77,7.63,7.63,0,0,1,1.46.27,5.27,5.27,0,0,1,3.86,4.15,5.07,5.07,0,0,1,.05.56,5.59,5.59,0,0,1-1.57,4.24,6.56,6.56,0,0,1-4.85,1.86l-.7,0A17.73,17.73,0,0,1,37.33,89,.57.57,0,0,1,37.08,89.1Zm4.79-12.38a5.89,5.89,0,0,0-4,1.5,4.2,4.2,0,0,0,.63,6.67.5.5,0,0,1,.22.56c-.17.68-.36,1.3-.57,1.89a13.48,13.48,0,0,0,2-1.53.52.52,0,0,1,.44-.14,5.93,5.93,0,0,0,4.9-1.47,4.55,4.55,0,0,0,1.28-3.48,3.44,3.44,0,0,0,0-.45A4.24,4.24,0,0,0,43.58,77a6.07,6.07,0,0,0-1.25-.22A3.54,3.54,0,0,0,41.87,76.72Z"/><path class="cls-2" d="M27.49,83a.57.57,0,0,1-.3-.1,29.16,29.16,0,0,1-3.62-3.1l-.85.08c-1.39.15-2.82.3-4.23.34a.52.52,0,0,1-.53-.47c-.27-2.69-.29-5.4-.29-7.95a.51.51,0,0,1,.43-.51,62.77,62.77,0,0,1,10.5-.94h.67a.52.52,0,0,1,.51.5c.08,2.25.29,4.64.67,7.76a.51.51,0,0,1-.41.57,24.69,24.69,0,0,1-2.64.35c.19,1.08.38,2,.59,2.82a.52.52,0,0,1-.21.56A.5.5,0,0,1,27.49,83ZM23.77,78.7a.53.53,0,0,1,.38.16,24.79,24.79,0,0,0,2.51,2.29c-.13-.62-.25-1.3-.37-2.05a.49.49,0,0,1,.1-.41.56.56,0,0,1,.38-.19,26.15,26.15,0,0,0,2.6-.29c-.32-2.69-.51-4.85-.6-6.87a61.25,61.25,0,0,0-10.07.85c0,2.25,0,4.6.24,6.93,1.22-.05,2.47-.18,3.67-.31l1.11-.11Z"/><path class="cls-2" d="M20.8,76.43a.65.65,0,0,1-.65-.66.86.86,0,0,1,0-.16.54.54,0,0,1,.24-.39.55.55,0,0,1,.35-.08h.14a.6.6,0,0,1,.6.64A.69.69,0,0,1,20.8,76.43Zm0-1a.35.35,0,0,0-.34.38.3.3,0,0,0,.07.19l.15-.3h.48A.39.39,0,0,0,20.8,75.39Zm-.64.22v0Zm.74-.42h0Z"/><path class="cls-2" d="M23.83,76.12a.7.7,0,0,1-.7-.7.64.64,0,0,1,.18-.43.58.58,0,0,1,.26-.23.53.53,0,0,1,.54.09.6.6,0,0,1,.29.44.75.75,0,0,1,0,.23A.58.58,0,0,1,23.83,76.12Zm-.43-.6,0,.06.34-.34h.34a.31.31,0,0,0-.28-.15A.44.44,0,0,0,23.4,75.52Zm-.15-.28Zm0,0Zm.88-.37Z"/><path class="cls-2" d="M26.81,75.76l-.14,0a.68.68,0,0,1-.53-.67.78.78,0,0,1,.23-.55.51.51,0,0,1,.37-.15.77.77,0,0,1,.61.34.68.68,0,0,1-.54,1.05Zm0-1a.36.36,0,0,0-.32.57.28.28,0,0,0,.25.11v-.52l.06.07Zm.05.28.24.25a.24.24,0,0,0,.07-.18.35.35,0,0,0-.25-.33Z"/><path class="cls-2" d="M8,73.7a5.94,5.94,0,0,1-2.2-.43,9.59,9.59,0,0,1-2,.21,10.36,10.36,0,0,1-3.39-.57.54.54,0,0,1-.35-.5.5.5,0,0,1,.36-.48,10,10,0,0,0,2.41-1.18,5.79,5.79,0,0,1-.84-3.82,4.81,4.81,0,0,1,4.19-4l.66-.06a5.73,5.73,0,0,1,4.47,1.66A5.84,5.84,0,0,1,12.88,69a4.7,4.7,0,0,1-4.22,4.66A5.52,5.52,0,0,1,8,73.7ZM5.8,72.21a.46.46,0,0,1,.2.05,4.91,4.91,0,0,0,2.54.37,3.69,3.69,0,0,0,3.31-3.71,4.66,4.66,0,0,0-5-5,5.42,5.42,0,0,0-.58.06A3.78,3.78,0,0,0,3,67.07a4.84,4.84,0,0,0,.95,3.5.51.51,0,0,1-.11.72,10.58,10.58,0,0,1-1.64,1,8.91,8.91,0,0,0,3.53-.08Z"/><path class="cls-2" d="M8.87,56.35a.54.54,0,0,1-.34-.12,39.37,39.37,0,0,1-2.87-2.7.52.52,0,0,1,0-.71c.77-.82,1.61-1.56,2.42-2.28l1-.88a.51.51,0,0,1,.71,0l.33.33a24.88,24.88,0,0,0,2.57,2.37.55.55,0,0,1,.21.39.52.52,0,0,1-.18.41l-3.49,3A.5.5,0,0,1,8.87,56.35ZM6.75,53.17c.66.67,1.37,1.33,2.11,2l2.69-2.35c-.77-.64-1.47-1.35-2.16-2l-.63.57C8.08,51.91,7.39,52.52,6.75,53.17Z"/><path class="cls-2" d="M10.4,39.5a.48.48,0,0,1-.28-.08,23.85,23.85,0,0,1-2.95-2.25A.5.5,0,0,1,7,36.71a.49.49,0,0,1,.29-.4l4.08-1.93a.5.5,0,0,1,.55.07.51.51,0,0,1,.17.53c-.44,1.58-.82,2.9-1.2,4.15a.5.5,0,0,1-.31.34A.57.57,0,0,1,10.4,39.5Zm-2-2.6c.57.47,1.11.89,1.65,1.27.22-.75.44-1.52.68-2.37Z"/><path class="cls-2" d="M8,51.12a.53.53,0,0,1-.4-.19,10.46,10.46,0,0,1-2.24-6.51,9.17,9.17,0,0,1,2.52-6.5.52.52,0,0,1,.73,0,.51.51,0,0,1,0,.73A8.16,8.16,0,0,0,6.4,44.42a9.43,9.43,0,0,0,2,5.86.5.5,0,0,1-.08.72A.49.49,0,0,1,8,51.12Z"/><path class="cls-2" d="M19.07,38.92a.54.54,0,0,1-.46-.29.64.64,0,0,1-.07-.27.53.53,0,0,1,.35-.5.56.56,0,0,1,.33-.1c3.62-1.54,10.44-2,11.09-2a11.51,11.51,0,0,1,4.08.74l.17.05a.52.52,0,0,1-.31,1l-.16-.05a10.32,10.32,0,0,0-3.78-.69c-1,0-7.86.57-11,2.08A.46.46,0,0,1,19.07,38.92Z"/><path class="cls-2" d="M22,41.62a4,4,0,0,1-3.55-2.88.5.5,0,0,1,.32-.65.52.52,0,0,1,.66.32A2.92,2.92,0,0,0,22,40.58c1.59,0,2.42-1.63,2.42-3.25a.52.52,0,1,1,1,0C25.41,39.46,24.23,41.62,22,41.62Z"/><path class="cls-2" d="M31.66,41.29c-2.3,0-4.11-2.16-4.71-4.3a.52.52,0,0,1,.36-.63.51.51,0,0,1,.64.36c.49,1.75,1.93,3.54,3.71,3.54.21,0,1-.83,1.13-3a.52.52,0,1,1,1,.05C33.69,39.91,32.61,41.29,31.66,41.29Z"/><path class="cls-2" d="M22.34,39.57a.51.51,0,0,1-.36-.15.68.68,0,0,1-.21-.52.76.76,0,0,1,0-.15v0a.52.52,0,0,1,1-.3.93.93,0,0,1,.05.29s0,.09,0,.13a.52.52,0,0,1-.1.59A.53.53,0,0,1,22.34,39.57Zm-.55-.83Z"/><path class="cls-2" d="M30.72,38.8a.52.52,0,0,1-.52-.52v-.53a.52.52,0,0,1,.52-.52.52.52,0,0,1,.52.52v.53A.52.52,0,0,1,30.72,38.8Z"/><path class="cls-2" d="M27.47,43.91a1.16,1.16,0,0,1-.37-.07.52.52,0,0,1-.29-.67.51.51,0,0,1,.67-.29c.23,0,1-.38,1-.68a.14.14,0,0,0,0-.07l-.2,0a2.51,2.51,0,0,1-.51.07c-.72,0-1.8-.68-1.8-2.53,0-.11,0-.22,0-.33a.51.51,0,0,1,.55-.49.52.52,0,0,1,.48.55,2.44,2.44,0,0,0,0,.27c0,1.13.51,1.49.76,1.49a1.81,1.81,0,0,0,.29,0,2,2,0,0,1,.45-.07,1.08,1.08,0,0,1,1,1.11C29.48,43.32,28,43.91,27.47,43.91Z"/><path class="cls-2" d="M27.15,47.46A5.64,5.64,0,0,1,25.07,47a.51.51,0,1,1,.37-1,3.54,3.54,0,0,0,2.85.13.51.51,0,1,1,.42.94A3.73,3.73,0,0,1,27.15,47.46Z"/><path class="cls-2" d="M24.86,33.91a4.28,4.28,0,0,1-2.65-.8.5.5,0,0,1-.1-.72.51.51,0,0,1,.72-.11,3.3,3.3,0,0,0,2,.59A11.16,11.16,0,0,0,29,31.78a9.39,9.39,0,0,1,3.17-.88,4.7,4.7,0,0,1,1.67.38l.62.21a.51.51,0,0,1,.35.63.51.51,0,0,1-.64.36l-.68-.23a4,4,0,0,0-1.32-.32,8.58,8.58,0,0,0-2.78.81A12.16,12.16,0,0,1,24.86,33.91Z"/><path class="cls-2" d="M16.51,62.6a.52.52,0,0,1-.51-.44L16,62a7.92,7.92,0,0,1-.1-1.13c0-5.48,2.88-8.8,8.33-9.6v-.06c0-1.22-.22-1.68-.88-1.83-4.26-1-4.34-3.8-4.38-5.48,0-1.27-.13-1.33-.44-1.33-.91,0-1.65-1.1-1.65-2a2.49,2.49,0,0,1,1.44-2.49c0-.53-.06-1.58-.09-2,0-.23,0-.39,0-.43,0-6.4,10.22-7.7,13-7.7s4.48.22,4.48,3.25A7.4,7.4,0,0,1,35,34.1a3.3,3.3,0,0,0-.27,1,19.15,19.15,0,0,0,.62,2.8l.17.09A2.24,2.24,0,0,1,37,40.14a2.54,2.54,0,0,1-1.06,1.92,2,2,0,0,0-.36.38c0,.34,0,.72.07,1.11s.07.82.07,1.24c0,3.06-1.91,3.45-3.46,3.76s-2.39.48-2.39,2.31c0,.24,0,.5,0,.8h.36c4.78,0,7.87,2.73,7.87,7,0,.37,0,.75-.05,1.1s0,.7,0,1c0,.11,0,.22,0,.33a.52.52,0,0,1-.5.54.51.51,0,0,1-.54-.49c0-.12,0-.25,0-.38,0-.38,0-.75,0-1.12s.05-.69.05-1c0-2.86-1.8-5.92-6.84-5.92l-.78,0a.53.53,0,0,1-.53-.44,8.91,8.91,0,0,1-.14-1.41c0-2.67,1.79-3,3.23-3.33s2.63-.53,2.63-2.74c0-.37,0-.75-.07-1.15s-.07-.81-.07-1.22a1.61,1.61,0,0,1,.7-1.13c.44-.39.72-.68.72-1.15a1.22,1.22,0,0,0-.87-1.24,1.12,1.12,0,0,1-.64-.57,18.85,18.85,0,0,1-.72-3.24,3.8,3.8,0,0,1,.35-1.36,6.58,6.58,0,0,0,.53-2.47c0-2-.7-2.22-3.45-2.22-2.37,0-11.93,1.19-11.93,6.67,0,0,0,.18,0,.37.14,2.44.09,2.61-.11,2.83a.58.58,0,0,1-.39.17c-.56,0-.85.88-.85,1.52,0,.47.4,1,.61,1,1.41,0,1.44,1.29,1.47,2.33.05,1.64.1,3.69,3.58,4.5,1.68.39,1.68,2,1.68,2.84v.53a.52.52,0,0,1-.46.5c-5.22.62-7.87,3.53-7.87,8.63a6.78,6.78,0,0,0,.1,1V62a.51.51,0,0,1-.43.59Z"/><path class="cls-2" d="M27,57.41a5.22,5.22,0,0,1-5-4.84.52.52,0,0,1,.49-.54.52.52,0,0,1,.55.49A4.13,4.13,0,0,0,27,56.37c2.28,0,3.19-1.19,4-3.24a.52.52,0,0,1,.67-.3.51.51,0,0,1,.29.67C31.13,55.53,30,57.41,27,57.41Z"/><path class="cls-2" d="M37.44,68.3c-7.07,0-10.24-3.75-10.24-7.45a2.45,2.45,0,0,1,0-.48.52.52,0,1,1,1,.15,1.77,1.77,0,0,0,0,.33c0,3,2.41,6.41,9.2,6.41h1.4c.69,0,1.38,0,2,0a.51.51,0,0,1,.51.52.52.52,0,0,1-.52.51c-.67,0-1.35,0-2,0Z"/><path class="cls-2" d="M41.25,69.74a.59.59,0,0,1-.23,0,.55.55,0,0,1-.29-.39c-.11-.78-.15-1.58-.19-2.35,0-.42,0-.83-.08-1.25a.53.53,0,0,1,.23-.47.51.51,0,0,1,.52,0l.73.37a13.45,13.45,0,0,0,3.15,1.3.52.52,0,0,1,.4.44.51.51,0,0,1-.27.52c-.55.29-1.11.55-1.65.81s-1.4.66-2.07,1A.47.47,0,0,1,41.25,69.74Zm.3-3.21c0,.12,0,.25,0,.37,0,.52,0,1,.1,1.51.49-.25,1-.48,1.46-.71l.46-.22A20,20,0,0,1,41.55,66.53Z"/><path class="cls-2" d="M64,88.47l-.16,0a.53.53,0,0,1-.33-.66l0-.09a1.88,1.88,0,0,0,.07-.72c0-2.65-1.69-3.32-4-4.24-3.33-1.33-7.46-3-8.19-11a3.75,3.75,0,0,1-1.45.34c-1.5,0-2-1.79-2-3.46,0-2.12.75-3.27,2.24-3.43,0-.22-.07-.44-.1-.66a21.23,21.23,0,0,1-.28-3.08c0-9.25,6-12.7,9.75-12.7,0,0,.67,0,1.43.07a17.31,17.31,0,0,1,7.88-1.93c9.88,0,13.23,7.23,15.37,15a15.9,15.9,0,0,1,.56,4.33c0,9.43-5.68,20.54-7.57,22.12a.52.52,0,1,1-.66-.8c1.74-1.45,7.19-12.35,7.19-21.32a15.52,15.52,0,0,0-.51-4.06c-2.36-8.57-5.7-14.29-14.38-14.29a16.3,16.3,0,0,0-7.54,1.89.58.58,0,0,1-.29.05c-.78-.08-1.46-.08-1.48-.08-3.37,0-8.72,3.17-8.72,11.67a20.2,20.2,0,0,0,.28,2.93c.06.41.12.83.17,1.26a.55.55,0,0,1-.15.42.48.48,0,0,1-.41.15h-.18c-.77,0-1.57.28-1.57,2.41,0,.84.21,2.43,1,2.43a4.38,4.38,0,0,0,1.69-.55.51.51,0,0,1,.48,0,.53.53,0,0,1,.26.42c.49,8.07,4.27,9.57,7.6,10.89,2.4,1,4.67,1.86,4.67,5.21A2.59,2.59,0,0,1,64.51,88l0,.08A.52.52,0,0,1,64,88.47Z"/><path class="cls-2" d="M69.88,88.35a.52.52,0,0,1-.51-.41,7.48,7.48,0,0,1-.15-1.47c0-3.1,2.19-5.11,4.3-7,2.34-2.15,4.76-4.38,4.76-8.22a1.21,1.21,0,0,0,0-.19.52.52,0,0,1,.47-.56.5.5,0,0,1,.56.47,2.64,2.64,0,0,1,0,.28c0,4.3-2.71,6.78-5.1,9-2.13,2-4,3.65-4,6.29a6.91,6.91,0,0,0,.13,1.26.51.51,0,0,1-.4.61Z"/><path class="cls-2" d="M77.13,93.94a.53.53,0,0,1-.24-.06,5.62,5.62,0,0,1-3-4.65A8.87,8.87,0,0,1,74.72,86a7.94,7.94,0,0,0,.68-2.43c-.05-.14-.22-.51-.37-.88-.34-.77-.85-1.94-1.29-3.07a.52.52,0,1,1,1-.37c.43,1.11.93,2.27,1.27,3,.44,1,.46,1.07.46,1.22a8.39,8.39,0,0,1-.76,2.87,8.29,8.29,0,0,0-.75,2.82A4.63,4.63,0,0,0,77.36,93a.52.52,0,0,1,.23.69A.53.53,0,0,1,77.13,93.94ZM75.42,83.66Z"/><path class="cls-2" d="M79.44,82.71a.51.51,0,0,1-.51-.52,7.85,7.85,0,0,0-.85-2.49,13.92,13.92,0,0,1-1.17-3.24.52.52,0,1,1,1-.18,13,13,0,0,0,1.09,3A8,8,0,0,1,80,82.19.52.52,0,0,1,79.44,82.71Z"/><path class="cls-2" d="M77.84,97.05a.52.52,0,0,1-.51-.44.5.5,0,0,1,.35-.57,7,7,0,0,0,1.39-3.92,13,13,0,0,0-1.47-5,.53.53,0,0,1,.27-.69.52.52,0,0,1,.68.27,13.76,13.76,0,0,1,1.56,5.44c0,1.92-1.27,4.76-2.19,4.92Z"/><path class="cls-2" d="M76.35,109.27a.51.51,0,0,1-.43-.23.52.52,0,0,1,.15-.72,3.75,3.75,0,0,0,1.64-3.16c0-1.72-.91-2.57-1.95-3.56a5.56,5.56,0,0,1-2.26-4.28,3.83,3.83,0,0,1,1-2.71.52.52,0,0,1,.73,0,.51.51,0,0,1,0,.73,2.89,2.89,0,0,0-.77,2c0,1.7.9,2.55,1.94,3.53a5.58,5.58,0,0,1,2.27,4.31,4.75,4.75,0,0,1-2.1,4A.52.52,0,0,1,76.35,109.27Z"/><path class="cls-2" d="M76.35,101.6a.5.5,0,0,1-.37-.16.51.51,0,0,1,0-.73A3.86,3.86,0,0,0,77.2,98c0-1.49-.79-1.85-1.79-2.3s-2.19-1-2.19-2.8a4,4,0,0,1,.86-2.12.53.53,0,0,1,.72-.15.52.52,0,0,1,.14.72,3.2,3.2,0,0,0-.69,1.55c0,1.1.55,1.39,1.58,1.86s2.4,1.08,2.4,3.24a4.92,4.92,0,0,1-1.52,3.42A.5.5,0,0,1,76.35,101.6Z"/><path class="cls-2" d="M77,113.07a.63.63,0,0,1-.19,0,.53.53,0,0,1-.3-.67,4.35,4.35,0,0,0,.34-1.51c0-.74-.45-1.06-1.32-1.59a4.19,4.19,0,0,1-2.44-3.9,4.45,4.45,0,0,1,.88-2.69.51.51,0,1,1,.82.62,3.46,3.46,0,0,0-.67,2.07c0,1.81,1,2.39,2,3,.84.52,1.8,1.12,1.8,2.47a5.48,5.48,0,0,1-.4,1.88A.52.52,0,0,1,77,113.07Z"/><path class="cls-2" d="M75.84,114c-1,0-2.12-1-2.12-2.91a9.19,9.19,0,0,1,.16-1.58.52.52,0,0,1,1,.18,8.56,8.56,0,0,0-.14,1.4c0,1.29.63,1.88,1.08,1.88a1,1,0,0,0,.21-.07,2.45,2.45,0,0,1,.38-.12.52.52,0,0,1,.61.41.51.51,0,0,1-.41.6l-.21.07A1.59,1.59,0,0,1,75.84,114Z"/><path class="cls-2" d="M73,118.54H73a.52.52,0,0,1-.44-.59,12.09,12.09,0,0,1,.95-2.83c.24-.58.49-1.17.68-1.76a.51.51,0,1,1,1,.31,17.72,17.72,0,0,1-.71,1.85,11,11,0,0,0-.87,2.59A.52.52,0,0,1,73,118.54Z"/><path class="cls-2" d="M77.54,118.06a.52.52,0,0,1-.52-.51,7.9,7.9,0,0,0-.49-2.4,13.42,13.42,0,0,1-.45-1.74.5.5,0,0,1,.43-.59.51.51,0,0,1,.59.42,12.34,12.34,0,0,0,.42,1.61,8.82,8.82,0,0,1,.54,2.7A.51.51,0,0,1,77.54,118.06Z"/><path class="cls-2" d="M48.13,116.1a.51.51,0,0,1-.5-.38,37,37,0,0,1-1.21-8.58,21,21,0,0,1,1-5.86,29.44,29.44,0,0,0,.84-3.7,29.78,29.78,0,0,0,.22-3.8c.06-4.7.11-8.41,11.18-8.41.74,0,1.5,0,2.33.07a.52.52,0,0,1,.49.55.5.5,0,0,1-.55.48c-.81,0-1.55-.07-2.27-.07-10.05,0-10.09,2.78-10.15,7.39a29.1,29.1,0,0,1-.23,3.93,29.94,29.94,0,0,1-.86,3.83,20.07,20.07,0,0,0-1,5.59,36.24,36.24,0,0,0,1.17,8.31.51.51,0,0,1-.37.63A.3.3,0,0,1,48.13,116.1Z"/><path class="cls-2" d="M75.46,85.86h-.07a15.8,15.8,0,0,0-2.17-.12h-1c-.64,0-1.27,0-1.91,0a.52.52,0,0,1-.49-.54.51.51,0,0,1,.53-.49c.62,0,1.24,0,1.85,0h1.06a16.54,16.54,0,0,1,2.31.13.52.52,0,0,1,.44.58A.51.51,0,0,1,75.46,85.86Z"/><path class="cls-2" d="M85.92,115.8a.5.5,0,0,1-.51-.44c-.25-1.86-.7-11.09-.7-11.72,0-1.36.08-2.47.17-3.55s.15-2,.15-3c0-4.65-3.08-9.38-6.59-10.13a.52.52,0,0,1,.22-1c4,.87,7.41,6,7.41,11.15,0,1.12-.08,2.09-.16,3.12s-.17,2.15-.17,3.47c0,.38.44,9.72.69,11.58a.52.52,0,0,1-.44.58Z"/><path class="cls-2" d="M80.93,113.84h0a.51.51,0,0,1-.49-.54c.06-1,.2-2,.34-3a26.56,26.56,0,0,0,.34-3.59,27.8,27.8,0,0,0-.34-3.75c-.14-1-.29-2.1-.34-3.18a.53.53,0,0,1,.49-.54.51.51,0,0,1,.54.5c0,1,.19,2.07.33,3.08a27.84,27.84,0,0,1,.35,3.89,27.93,27.93,0,0,1-.34,3.73c-.14,1-.28,2-.34,3A.51.51,0,0,1,80.93,113.84Z"/><path class="cls-2" d="M67,105.48c-3.9,0-6.78-2.19-8.56-6.5-1.64-4-2-8.93-2-12.39a.52.52,0,1,1,1,0c0,3.37.33,8.18,1.9,12s4.17,5.86,7.61,5.86a23.38,23.38,0,0,0,3.31-.31,22,22,0,0,1,3.17-.3.52.52,0,1,1,0,1,22.8,22.8,0,0,0-3,.29A23.34,23.34,0,0,1,67,105.48Z"/><path class="cls-2" d="M68.39,104.81a.52.52,0,0,1-.5-.38,6.51,6.51,0,0,1-.19-1.74v-.54c0-.18,0-.35,0-.53s0-.34,0-.51a.52.52,0,1,1,1,0c0,.19,0,.37,0,.56v.55c0,.17,0,.35,0,.52a5.55,5.55,0,0,0,.16,1.47.51.51,0,0,1-.36.63A.34.34,0,0,1,68.39,104.81Z"/><path class="cls-2" d="M55.44,114.85a.53.53,0,0,1-.41-.19c-1.5-1.88-2.86-15.31-2.86-19.88a47.5,47.5,0,0,1,.68-8,.52.52,0,0,1,.6-.42.5.5,0,0,1,.42.59,46.61,46.61,0,0,0-.66,7.87c0,5.63,1.55,17.88,2.63,19.23a.52.52,0,0,1-.08.73A.48.48,0,0,1,55.44,114.85Z"/><path class="cls-2" d="M74.39,103.5a.5.5,0,0,1-.34-.13.51.51,0,0,1,0-.73,3.8,3.8,0,0,0,.57-.94,5.52,5.52,0,0,1,.6-1,.52.52,0,1,1,.8.65,4.9,4.9,0,0,0-.47.82,5.21,5.21,0,0,1-.73,1.16A.52.52,0,0,1,74.39,103.5Z"/><path class="cls-2" d="M77.78,107.31a.52.52,0,0,1-.52-.49c0-.63-.58-1-1.43-1.44-.24-.13-.49-.27-.71-.42a.51.51,0,0,1-.15-.71.52.52,0,0,1,.72-.15,5.24,5.24,0,0,0,.63.37c.86.47,1.92,1,2,2.3a.53.53,0,0,1-.5.54Z"/><path class="cls-2" d="M80.45,75.4a.53.53,0,0,1-.51-.42c-.89-4.94-4.37-7.69-8-10.61s-7.64-6.06-9.44-11.71c-6.52,1.54-7,6-7.36,9.9-.3,2.91-.57,5.65-3.54,6.18a.52.52,0,1,1-.18-1c2.09-.37,2.37-2.15,2.69-5.26.42-4.16.94-9.33,8.65-10.91a.52.52,0,0,1,.6.36c1.63,5.63,5.49,8.69,9.23,11.65S80,69.48,81,74.79a.51.51,0,0,1-.41.6Z"/><path class="cls-2" d="M76.37,62.78c-3,0-9.65-7-10.68-11.24a.52.52,0,0,1,.38-.63.5.5,0,0,1,.62.38c.78,3.19,6.53,9.88,9.34,10.42a23.23,23.23,0,0,0-1.51-2.25.51.51,0,0,1,.09-.73.5.5,0,0,1,.72.09S77.2,61.28,77.2,62A.8.8,0,0,1,76.37,62.78Z"/><path class="cls-2" d="M77.19,59.18a.52.52,0,0,1-.45-.26,18.79,18.79,0,0,0-4.16-4.48,10.43,10.43,0,0,1-2.26-2.3.51.51,0,0,1,.19-.7.52.52,0,0,1,.71.19,9.78,9.78,0,0,0,2,2,19.47,19.47,0,0,1,4.38,4.75.52.52,0,0,1-.18.71A.51.51,0,0,1,77.19,59.18Z"/><path class="cls-2" d="M53.89,56a.53.53,0,0,1-.24-.06.52.52,0,0,1-.21-.7,9.27,9.27,0,0,1,3.43-3.15l.66-.42a.5.5,0,0,1,.71.14.52.52,0,0,1-.14.72l-.67.43a8.37,8.37,0,0,0-3.08,2.77A.53.53,0,0,1,53.89,56Z"/><path class="cls-2" d="M56.21,65.66a.56.56,0,0,1-.37-.16.52.52,0,0,1,0-.73,9.25,9.25,0,0,1,4.71-2.28.52.52,0,0,1,.62.4.51.51,0,0,1-.39.61,8.25,8.25,0,0,0-4.2,2A.56.56,0,0,1,56.21,65.66Z"/><path class="cls-2" d="M71.48,64.23l-.15,0a5.57,5.57,0,0,0-1.63-.28.52.52,0,1,1,0-1,6.58,6.58,0,0,1,1.93.32.52.52,0,0,1,.35.64A.53.53,0,0,1,71.48,64.23Z"/><path class="cls-2" d="M59.49,70a1.25,1.25,0,0,1-1.09-1.24,1.28,1.28,0,0,1,.79-1.27H59c-1.19,0-2.13,1.29-2.48,1.85a.52.52,0,0,1-.71.16.52.52,0,0,1-.17-.72c.45-.7,1.66-2.32,3.36-2.32a1.47,1.47,0,0,1,1.59,1,.56.56,0,0,1,.09.19.55.55,0,0,1,0,.22,4.09,4.09,0,0,1,0,.63c0,1-.39,1.34-1,1.48l-.09,0Zm-.07-1Zm.29-.57c-.25.08-.28.17-.28.36a.35.35,0,0,0,.1.19l.14,0a2.19,2.19,0,0,0,0-.43Z"/><path class="cls-2" d="M73.18,70.23a1.09,1.09,0,0,1-1-1,.61.61,0,0,1,0-.14A2,2,0,0,1,72.92,68l.22-.19a.37.37,0,0,1,.2-.12.54.54,0,0,0-.59-.43,4.35,4.35,0,0,0-2.91,1.51.51.51,0,0,1-.73,0,.52.52,0,0,1,0-.73,5.48,5.48,0,0,1,3.67-1.83c.51,0,1.7.2,1.7,2.07C74.45,69.22,74.05,70.23,73.18,70.23Zm0-1Z"/><path class="cls-2" d="M66,76.5a2.38,2.38,0,0,1-.46,0,.5.5,0,0,1-.42-.59.52.52,0,0,1,.59-.43,1.72,1.72,0,0,0,.44,0,17.67,17.67,0,0,1-.92-6.06,20.87,20.87,0,0,1,.12-2.24.52.52,0,0,1,1,.11,19,19,0,0,0-.11,2.13,16.13,16.13,0,0,0,.91,5.84.52.52,0,0,1,0,.21C67.25,76.15,66.84,76.5,66,76.5Z"/><path class="cls-2" d="M66.37,79.63a3.69,3.69,0,0,1-3.31-1.7.56.56,0,0,1,.24-.61c.38-.22.7.11.82.23a.55.55,0,0,1,.15.28,3.2,3.2,0,0,0,2.1.77,2.67,2.67,0,0,0,1.7-.56.52.52,0,0,1,.73.09.51.51,0,0,1-.09.72A3.71,3.71,0,0,1,66.37,79.63Z"/><path class="cls-2" d="M119.59,33c-4.31,0-4.66-3.05-4.84-4.69a5.48,5.48,0,0,0-.16-.94,3.72,3.72,0,0,0-1,.73.52.52,0,0,1-.73-.05.51.51,0,0,1,0-.73c.83-.73,1.51-1.17,2.1-.94s.69,1,.79,1.81c.19,1.68.43,3.78,3.81,3.78a.9.9,0,0,0,.75-.57.52.52,0,0,1,.93.46A1.91,1.91,0,0,1,119.59,33Z"/><path class="cls-2" d="M122.51,37.58c-2.45,0-5.1-1.74-5.1-4.56a1.48,1.48,0,0,1,0-.21.51.51,0,0,1,.54-.49.52.52,0,0,1,.49.54s0,.11,0,.16c0,2.18,2.12,3.52,4.07,3.52a7.68,7.68,0,0,0,4.16-1.47,4.16,4.16,0,0,1-1.28-.81.5.5,0,0,1-.12-.6,7.65,7.65,0,0,0,.76-3,4.65,4.65,0,0,1-3.2,1.19.53.53,0,0,1-.44-.28.54.54,0,0,1,0-.52,5.38,5.38,0,0,0,.87-3c0-1.88-1-3.9-3.23-3.9A7.34,7.34,0,0,0,117,25.33a2.38,2.38,0,0,1-1.07.47c-.87,0-1-1.69-1-1.71a1.37,1.37,0,0,1,0-.28.52.52,0,0,1,.58-.44A.53.53,0,0,1,116,24a.57.57,0,0,0,0,.13,2.17,2.17,0,0,0,.12.56l.36-.21a8,8,0,0,1,3.62-1.38c2.8,0,4.26,2.48,4.26,4.94a6.6,6.6,0,0,1-.55,2.71,4.74,4.74,0,0,0,2.36-1.59.51.51,0,0,1,.9.3c0,.36,0,.68,0,1a8.3,8.3,0,0,1-.69,3.34,3.57,3.57,0,0,0,1.49.61.52.52,0,0,1,.42.37.53.53,0,0,1-.16.53A9,9,0,0,1,122.51,37.58Z"/><path class="cls-2" d="M118.72,27.23a.69.69,0,0,1-.67-.43.87.87,0,0,1,.3-1,.5.5,0,0,1,.73,0l0,0a1,1,0,0,1,.21.23.69.69,0,0,1,.12.39A.78.78,0,0,1,118.72,27.23Zm0-1,.28.28a.28.28,0,0,0,0-.12A.36.36,0,0,0,118.74,26.2Zm0,0a.24.24,0,0,0-.26.26Z"/><path class="cls-2" d="M100.36,31.59a.52.52,0,0,1-.48-.33c-.09-.22-.17-.45-.25-.68a.52.52,0,0,1,.34-.65.51.51,0,0,1,.65.34c.07.2.14.41.22.61a.52.52,0,0,1-.29.67A.46.46,0,0,1,100.36,31.59Z"/><path class="cls-2" d="M99.69,28.4a.52.52,0,0,1-.52-.5v-.41a7.72,7.72,0,0,1,0-1,.52.52,0,1,1,1,.12,7.89,7.89,0,0,0,0,.84c0,.12,0,.25,0,.37a.53.53,0,0,1-.5.54Zm.72-3.78a.45.45,0,0,1-.2,0,.53.53,0,0,1-.27-.68,9.94,9.94,0,0,1,.63-1.21.52.52,0,0,1,.71-.17.51.51,0,0,1,.17.71,9.21,9.21,0,0,0-.56,1.08A.52.52,0,0,1,100.41,24.62Zm2.22-3.16a.51.51,0,0,1-.36-.88,12.5,12.5,0,0,1,1-.89.52.52,0,0,1,.72.09.51.51,0,0,1-.09.73,9,9,0,0,0-.93.81A.5.5,0,0,1,102.63,21.46Zm15.22-1a.53.53,0,0,1-.38-.17,6.25,6.25,0,0,0-.89-.8.51.51,0,0,1-.1-.72.5.5,0,0,1,.72-.1,7.59,7.59,0,0,1,1,.92.51.51,0,0,1,0,.73A.52.52,0,0,1,117.85,20.44Zm-12-1.17a.52.52,0,0,1-.22-1c.4-.19.82-.36,1.24-.51a.52.52,0,0,1,.35,1,11.44,11.44,0,0,0-1.14.48A.64.64,0,0,1,105.8,19.27Zm8.81-.89-.17,0a6.83,6.83,0,0,0-1.18-.31.53.53,0,0,1-.41-.61.51.51,0,0,1,.6-.41,9,9,0,0,1,1.33.35.51.51,0,0,1-.17,1Zm-5.11-.25a.52.52,0,0,1-.51-.44.51.51,0,0,1,.42-.59c.44-.07.88-.12,1.33-.16a.53.53,0,0,1,.56.48.51.51,0,0,1-.48.55c-.42,0-.83.09-1.24.15Z"/><path class="cls-2" d="M119.43,23.29a.51.51,0,0,1-.49-.37,5.46,5.46,0,0,0-.21-.61.52.52,0,0,1,1-.38c.08.23.16.46.23.7a.52.52,0,0,1-.35.64A.39.39,0,0,1,119.43,23.29Z"/><path class="cls-2" d="M113.2,41.7a6.19,6.19,0,0,1-.76-.05.52.52,0,0,1-.44-.58.5.5,0,0,1,.57-.45c.21,0,.43,0,.64.05a.52.52,0,0,1,0,1Z"/><path class="cls-2" d="M116.3,41.15a.52.52,0,0,1-.19-1,7.16,7.16,0,0,0,1.32-.68.51.51,0,0,1,.71.14.52.52,0,0,1-.15.72,8.12,8.12,0,0,1-1.49.78A.48.48,0,0,1,116.3,41.15Z"/><path class="cls-2" d="M119.9,38.15a.5.5,0,0,1-.26-.08.51.51,0,0,1-.19-.7q.17-.28.3-.57a.52.52,0,0,1,.94.43,6,6,0,0,1-.35.66A.51.51,0,0,1,119.9,38.15Z"/><path class="cls-2" d="M25.49,23.18A.49.49,0,0,1,25.1,23a.52.52,0,0,1,0-.73l.54-.46a.52.52,0,0,1,.66.8c-.18.14-.35.29-.51.44A.54.54,0,0,1,25.49,23.18Z"/><path class="cls-2" d="M28,21.24A.52.52,0,0,1,27.6,21a.51.51,0,0,1,.15-.71q.53-.36,1.08-.69a.52.52,0,0,1,.53.89c-.35.21-.7.43-1,.66A.51.51,0,0,1,28,21.24Zm3.27-1.88a.5.5,0,0,1-.46-.29.52.52,0,0,1,.23-.69c.4-.19.79-.38,1.17-.54a.52.52,0,1,1,.41.95c-.36.16-.74.33-1.12.52A.59.59,0,0,1,31.3,19.36Z"/><path class="cls-2" d="M34.81,18a.52.52,0,0,1-.5-.39.52.52,0,0,1,.37-.63c.25-.07.5-.12.72-.16a.52.52,0,0,1,.17,1c-.19,0-.4.08-.63.14Z"/><path class="cls-2" d="M49.2,16.33a.52.52,0,0,1,0-1l.7,0a.49.49,0,0,1,.54.48.51.51,0,0,1-.48.55l-.68,0Z"/><path class="cls-2" d="M62.68,18.59a.53.53,0,0,1-.27-.08,12,12,0,0,0-1.24-.65.51.51,0,1,1,.42-.94,13.3,13.3,0,0,1,1.36.71.52.52,0,0,1-.27,1ZM58.62,17a.27.27,0,0,1-.13,0c-.45-.11-.92-.22-1.4-.31a.51.51,0,1,1,.19-1c.5.09,1,.2,1.46.32a.52.52,0,0,1,.38.63A.51.51,0,0,1,58.62,17Zm-4.34-.69h0l-1.43-.06a.51.51,0,0,1-.51-.52.51.51,0,0,1,.52-.51c.49,0,1,0,1.5.06a.52.52,0,0,1,0,1Z"/><path class="cls-2" d="M65.25,21.09a.51.51,0,0,1-.45-.27c-.11-.17-.22-.35-.35-.52a.52.52,0,0,1,.83-.61,6,6,0,0,1,.41.62.51.51,0,0,1-.19.71A.47.47,0,0,1,65.25,21.09Z"/><path class="cls-2" d="M21.43,80.89a.53.53,0,0,1-.52-.52v-.69a.52.52,0,1,1,1,0v.69A.52.52,0,0,1,21.43,80.89Z"/><path class="cls-2" d="M21.83,84.55a.51.51,0,0,1-.5-.39,10.86,10.86,0,0,1-.27-1.25.51.51,0,0,1,.42-.59.52.52,0,0,1,.6.43c.06.36.14.74.25,1.16a.53.53,0,0,1-.37.63Z"/><path class="cls-2" d="M22.82,87.55a.52.52,0,0,1-.48-.33l-.25-.65a.52.52,0,0,1,.31-.67.51.51,0,0,1,.66.31q.12.3.24.63a.51.51,0,0,1-.29.67A.43.43,0,0,1,22.82,87.55Z"/><path class="cls-2" d="M6.52,74.64h0A.52.52,0,0,1,6,74.1c0-.22,0-.45,0-.68a.53.53,0,0,1,.54-.5.52.52,0,0,1,.5.53l0,.7A.51.51,0,0,1,6.52,74.64Z"/><path class="cls-2" d="M12.17,95.53a.39.39,0,0,1-.15,0A7.59,7.59,0,0,1,10.74,95a.51.51,0,0,1-.22-.7.5.5,0,0,1,.69-.22,6,6,0,0,0,1.11.44.52.52,0,0,1-.15,1ZM9,93.45a.5.5,0,0,1-.39-.18,8.57,8.57,0,0,1-.81-1.11.52.52,0,0,1,.88-.54,8.21,8.21,0,0,0,.71,1,.51.51,0,0,1-.06.73A.5.5,0,0,1,9,93.45ZM7.14,90.06a.52.52,0,0,1-.49-.36c-.13-.4-.25-.83-.36-1.28a.51.51,0,1,1,1-.24c.1.42.22.82.34,1.2A.51.51,0,0,1,7.3,90,.41.41,0,0,1,7.14,90.06Zm-.79-3.79a.52.52,0,0,1-.51-.46c0-.43-.09-.87-.12-1.31a.52.52,0,1,1,1-.07q0,.64.12,1.26a.52.52,0,0,1-.46.57Zm-.19-3.88a.52.52,0,0,1-.52-.52l0-1.3a.52.52,0,0,1,1,0c0,.43,0,.85,0,1.28A.51.51,0,0,1,6.16,82.39Zm.15-3.87h0A.52.52,0,0,1,5.79,78l.08-1.29a.52.52,0,1,1,1,.06L6.82,78A.52.52,0,0,1,6.31,78.52Z"/><path class="cls-2" d="M14.74,95.87a.51.51,0,0,1-.52-.51.52.52,0,0,1,.51-.53c.22,0,.44,0,.65,0a.52.52,0,0,1,.56.47.51.51,0,0,1-.47.56Z"/><path class="cls-2" d="M33.62,97.41h0l-.73-.1a.52.52,0,0,1,.18-1c.22,0,.43.07.65.09a.52.52,0,0,1-.05,1Z"/><path class="cls-2" d="M36.54,97.34a.52.52,0,0,1-.07-1A9.09,9.09,0,0,0,37.83,96a.53.53,0,0,1,.64.37.52.52,0,0,1-.36.63,11.21,11.21,0,0,1-1.51.3Zm4-1.56a.53.53,0,0,1-.4-.19.51.51,0,0,1,.08-.73,5.18,5.18,0,0,0,.91-1,.51.51,0,0,1,.72-.11.52.52,0,0,1,.11.73,6.19,6.19,0,0,1-1.09,1.14A.52.52,0,0,1,40.57,95.78Zm2.13-3.72h-.1a.51.51,0,0,1-.4-.61,9.73,9.73,0,0,0,.15-1.37.52.52,0,0,1,.52-.5h0a.51.51,0,0,1,.49.54,10.53,10.53,0,0,1-.17,1.53A.52.52,0,0,1,42.7,92.06Z"/><path class="cls-2" d="M42.67,87.68a.52.52,0,0,1-.52-.49c0-.14,0-.27,0-.41s0-.22,0-.33A.52.52,0,0,1,42.7,86a.51.51,0,0,1,.48.54v.28c0,.12,0,.24,0,.35a.53.53,0,0,1-.49.55Z"/><path class="cls-2" d="M90.42,128h0a5.35,5.35,0,0,1-1.54-.32.52.52,0,0,1,.35-1,4.42,4.42,0,0,0,1.25.26.52.52,0,0,1,0,1Zm2.71-.71a.52.52,0,0,1-.43-.23.51.51,0,0,1,.14-.71,4.46,4.46,0,0,0,.93-.86.51.51,0,0,1,.81.63,5,5,0,0,1-1.16,1.09A.6.6,0,0,1,93.13,127.32Zm-6.39-1.23a.51.51,0,0,1-.41-.2,5.43,5.43,0,0,1-.79-1.36.52.52,0,1,1,1-.38,4.86,4.86,0,0,0,.64,1.1.52.52,0,0,1-.4.84Zm8.47-2.36h0a.52.52,0,0,1-.47-.56c0-.13,0-.26,0-.39a4.41,4.41,0,0,0-.09-.89.52.52,0,0,1,1-.19,5.49,5.49,0,0,1,.1,1.08c0,.16,0,.32,0,.48A.52.52,0,0,1,95.21,123.73Zm-9.44-1.68h-.12a.51.51,0,0,1-.38-.62,4.55,4.55,0,0,1,.61-1.48.52.52,0,0,1,.71-.16.51.51,0,0,1,.17.71,3.93,3.93,0,0,0-.49,1.16A.5.5,0,0,1,85.77,122.05Zm8-2.23a.51.51,0,0,1-.36-.15,4.07,4.07,0,0,0-1-.72.52.52,0,0,1-.24-.7.51.51,0,0,1,.69-.23,4.91,4.91,0,0,1,1.3.91.52.52,0,0,1,0,.73A.5.5,0,0,1,93.81,119.82Zm-5.35-.91a.51.51,0,0,1-.47-.31.52.52,0,0,1,.27-.68,5.12,5.12,0,0,1,1.52-.41.52.52,0,0,1,.58.46.51.51,0,0,1-.44.57h0a3.89,3.89,0,0,0-1.22.33A.78.78,0,0,1,88.46,118.91Z"/><path class="cls-2" d="M92.89,88.53h0a.51.51,0,0,1-.46-.56c0-.24.05-.47.08-.71a.52.52,0,0,1,1,.15c0,.22-.06.44-.09.66A.51.51,0,0,1,92.89,88.53Z"/><path class="cls-2" d="M95.25,97.6a.52.52,0,0,1-.43-.24A15.21,15.21,0,0,1,94,95.93a.51.51,0,0,1,.22-.69.52.52,0,0,1,.7.22,11.67,11.67,0,0,0,.77,1.34.52.52,0,0,1-.16.71A.47.47,0,0,1,95.25,97.6Zm-2-4.34a.51.51,0,0,1-.5-.38,13.82,13.82,0,0,1-.35-1.62.52.52,0,0,1,1-.16,13.37,13.37,0,0,0,.32,1.5.51.51,0,0,1-.36.64Z"/><path class="cls-2" d="M98,100.19a1.68,1.68,0,0,1-.92-.32.51.51,0,1,1,.55-.87.73.73,0,0,0,.37.15.52.52,0,0,1,.51.52A.51.51,0,0,1,98,100.19Z"/><path class="cls-2" d="M118.62,109.5c-.25,0-.49,0-.73,0a.51.51,0,0,1-.47-.55.51.51,0,0,1,.55-.48l.66,0a.51.51,0,0,1,.51.52A.52.52,0,0,1,118.62,109.5Z"/><path class="cls-2" d="M121.19,109.24a.52.52,0,0,1-.12-1,9.28,9.28,0,0,0,1.17-.35.52.52,0,1,1,.36,1,9.3,9.3,0,0,1-1.3.39Zm3.49-1.6a.56.56,0,0,1-.42-.21.53.53,0,0,1,.11-.73,8.74,8.74,0,0,0,.94-.79.52.52,0,0,1,.71.75,9.48,9.48,0,0,1-1,.87A.51.51,0,0,1,124.68,107.64Zm2.62-2.83a.57.57,0,0,1-.28-.08.52.52,0,0,1-.15-.72c.22-.34.42-.7.62-1.07a.51.51,0,0,1,.69-.23.52.52,0,0,1,.23.7c-.21.4-.44.79-.68,1.16A.5.5,0,0,1,127.3,104.81Zm1.61-3.51a.4.4,0,0,1-.15,0,.51.51,0,0,1-.34-.64c.12-.39.22-.8.31-1.21a.52.52,0,0,1,.62-.39.5.5,0,0,1,.39.61c-.09.44-.21.87-.33,1.29A.53.53,0,0,1,128.91,101.3Zm.7-3.81h0a.52.52,0,0,1-.48-.55c0-.42,0-.84,0-1.26a.52.52,0,0,1,1,0c0,.45,0,.89,0,1.33A.51.51,0,0,1,129.61,97.49Z"/><path class="cls-2" d="M129.32,93.63a.51.51,0,0,1-.5-.38c0-.17-.08-.27-.09-.29a.47.47,0,0,1,0-.17c0-.06,0-.13,0-.19v-.16a.52.52,0,0,1,.52-.51.51.51,0,0,1,.52.51,1.55,1.55,0,0,1,0,.22v0c0,.06,0,.15.08.27a.52.52,0,0,1-.37.63A.3.3,0,0,1,129.32,93.63Z"/><path class="cls-2" d="M78.54,1.76a.54.54,0,0,1-.21-.05c-1-.48-4.53-.64-6.06-.64a22,22,0,0,0-5.14.58.53.53,0,0,1-.63-.39.53.53,0,0,1,.39-.62A23,23,0,0,1,72.27,0s4.92,0,6.49.73a.52.52,0,0,1,.25.69A.51.51,0,0,1,78.54,1.76Z"/></g></g></svg>