<svg xmlns="http://www.w3.org/2000/svg" viewBox="0 0 141.73 146.46"><defs><style>.cls-1{fill:#ffcc80;}.cls-2{fill:#525d7d;}</style></defs><title>012_c</title><g id="Layer_2" data-name="Layer 2"><g id="Layer_1-2" data-name="Layer 1"><path class="cls-1" d="M59.69,61.13a19.66,19.66,0,0,0-6.15,2.43,8.69,8.69,0,0,1-.44-1.19.46.46,0,0,0-.83-.11,2.81,2.81,0,0,0,.28,3,1.45,1.45,0,0,0,.76.78,9.93,9.93,0,0,0,1.79.76c1.28.59.76,3.07.54,4.16a1,1,0,0,0,1.74.73c1.08-1.63.28-3.29.72-5s2.52-1.9,2.92-3.6A1.27,1.27,0,0,0,59.69,61.13Z"/><path class="cls-1" d="M121.63,28.17c-.77-1.59-2.76-3.41-4.64-3.41a1.56,1.56,0,0,0-1.64,1.8.54.54,0,0,0,0,.22,11.81,11.81,0,0,0,.29,3.46c.35,1,1.29,1.1,2.19,1.12a6.71,6.71,0,0,0,3.28-.59A1.88,1.88,0,0,0,121.63,28.17Z"/><path class="cls-1" d="M95.7,94.34c-1-.59-3-.72-3.57.55a1.07,1.07,0,0,0,0,1,1.22,1.22,0,0,0,1.17.94A3.07,3.07,0,0,0,95.9,96,1,1,0,0,0,95.7,94.34Z"/><path class="cls-1" d="M97.37,115.23a1.37,1.37,0,0,0-2,1.17,7.37,7.37,0,0,1-.26,1.22,1.4,1.4,0,0,0-.63.32l-1.6,1.38c.36-.55.73-1.08,1.14-1.6.61-.78.33-2.31-.92-2.21a5.74,5.74,0,0,0-3.32,1.32c-.68.55-1.34,1.57-2.08,2.31,0-.31,0-.6.07-.68a9.66,9.66,0,0,1,.57-2c.17-.43-.42-.64-.71-.41-1.43,1.19-3.28,4.22-1.61,5.9a1.24,1.24,0,0,0,1.2.32,4,4,0,0,0,.72-.35,1.85,1.85,0,0,0-.14.14,2.38,2.38,0,0,0,.22,3.46c1.33,1.19,3.15.75,4.53-.1a10,10,0,0,0,.92-.64c1.79-.65,3.17-2.82,4.11-4.26C98.69,118.81,99.44,116.6,97.37,115.23Zm-8.63,6.09c-.06.12-.12.24-.17.36a.91.91,0,0,0-.39.08C88.37,121.62,88.56,121.48,88.74,121.32Z"/><path class="cls-1" d="M37.19,107.55a1.09,1.09,0,0,0-.78-.7c0-.1,0-.2,0-.29a10.14,10.14,0,0,0-.46-3.84c-.22-.62-.84-.37-1,0,0,0,0,0,0,0a.32.32,0,0,0,0,.14,37.64,37.64,0,0,0-.79,6.15,3.5,3.5,0,0,0,1.94,3.58,1.11,1.11,0,0,0,1.63-.94A8.39,8.39,0,0,0,37.19,107.55Z"/><path class="cls-1" d="M8.94,68.18c0-.17,0-3.28-.95-2.84-1.25.59-1,3-1,4.22-.1,2.29-.11,4.59-.13,6.89a1.08,1.08,0,0,0,2.16,0C9,73.69,9.11,70.93,8.94,68.18Z"/><path class="cls-1" d="M46.28,40.37c-1.39.07-3.33,1.34-3.09,2.87a6.39,6.39,0,0,0-.95,1.34,1,1,0,0,0,1.16,1.5,6.44,6.44,0,0,0,4.05-4.18A1.22,1.22,0,0,0,46.28,40.37Z"/><path class="cls-1" d="M85.69,8.65a2.47,2.47,0,0,0-3.33.87.87.87,0,0,0,0,1l-.15,0A3.1,3.1,0,0,0,82,10a.51.51,0,0,0-1,0c-.41,1-.48,2.4.89,2.46a13.11,13.11,0,0,0,2.42-.29,3,3,0,0,0,1.6-.56A1.84,1.84,0,0,0,85.69,8.65Z"/><path class="cls-1" d="M93.84,45.12c-1.29-.84-3.32-.73-4.78-.54a5.87,5.87,0,0,0-3.6,1.78.12.12,0,0,0,.14.18,10.63,10.63,0,0,1,4-.79c1.34,0,2.67.42,4,.27A.49.49,0,0,0,93.84,45.12Z"/><path class="cls-1" d="M133.85,87.37s0,0,0,0a.84.84,0,0,0-1-1c-.76.2-1.53.38-2.28.61a.82.82,0,0,0-.54,1,.82.82,0,0,0,.45,1.3,4.56,4.56,0,0,0,3.41-.41A.85.85,0,0,0,133.85,87.37Z"/><path class="cls-2" d="M58.19,7a.52.52,0,0,1-.33-.12l-2-1.7L55,4.47a.51.51,0,0,1-.18-.38A.53.53,0,0,1,55,3.7c.68-.67,1.39-1.33,2.08-2s1.13-1,1.68-1.57a.51.51,0,0,1,.69,0c.82.67,1.66,1.3,2.5,1.88a.49.49,0,0,1,.22.35.54.54,0,0,1-.11.4c-.55.7-1.14,1.37-1.71,2s-1.17,1.34-1.72,2a.52.52,0,0,1-.35.2ZM56.11,4l.41.36,1.6,1.35c.46-.57,1-1.12,1.42-1.66s.9-1,1.33-1.56c-.59-.42-1.17-.86-1.75-1.32-.45.43-.91.86-1.36,1.27Z"/><path class="cls-2" d="M47.4,13.11h0a4.17,4.17,0,0,1-2.93-1.27,4.27,4.27,0,0,1-1.2-3A3.94,3.94,0,0,1,46.47,5a5.85,5.85,0,0,1,.8-.08h.11a4.06,4.06,0,0,1,4.28,3.78,4.32,4.32,0,0,1-1.22,3.16A4.22,4.22,0,0,1,47.4,13.11Zm0-7.18H47.3a5.22,5.22,0,0,0-.66.06,2.92,2.92,0,0,0-2.39,2.85,3.24,3.24,0,0,0,.92,2.28,3.08,3.08,0,0,0,2.19,1,3.23,3.23,0,0,0,3.26-3.35A3,3,0,0,0,47.38,5.93Z"/><path class="cls-2" d="M47.25,6.87a.51.51,0,0,1-.51-.47q0-.55-.06-1.08a8.19,8.19,0,0,0-.2-2,.52.52,0,0,1,1-.26,10.16,10.16,0,0,1,.23,2.2c0,.33,0,.68.05,1a.52.52,0,0,1-.47.56Z"/><path class="cls-2" d="M47.52,15.06a.52.52,0,0,1-.51-.44c0-.22-.06-.41-.09-.58a7.33,7.33,0,0,1-.14-1.42,6.8,6.8,0,0,1,.14-1.45.52.52,0,0,1,.62-.4.51.51,0,0,1,.4.61,6.2,6.2,0,0,0-.13,1.24,7,7,0,0,0,.13,1.25l.1.6a.53.53,0,0,1-.45.59Z"/><path class="cls-2" d="M45.11,9.65H45a6.32,6.32,0,0,0-1.32-.12c-.33,0-.65,0-1,0s-.67,0-1,0a.54.54,0,0,1-.57-.52.52.52,0,0,1,.53-.52.32.32,0,0,1,.17,0h.11l.73,0c.33,0,.67,0,1,0a7.75,7.75,0,0,1,1.53.14.52.52,0,0,1-.1,1Z"/><path class="cls-2" d="M50.59,9.42a9.05,9.05,0,0,1-1-.05.51.51,0,0,1-.47-.56.52.52,0,0,1,.57-.47,7.38,7.38,0,0,0,.87,0l.93,0,.92,0a.52.52,0,0,1,.52.52.52.52,0,0,1-.52.52l-.89,0Z"/><path class="cls-2" d="M95.9,20.68h-.05a4.09,4.09,0,0,1-2.93-1.27,4.23,4.23,0,0,1-1.2-3A4,4,0,0,1,95,12.54a5.78,5.78,0,0,1,.81-.07,4.06,4.06,0,0,1,4.38,3.78,4.28,4.28,0,0,1-1.22,3.15A4.18,4.18,0,0,1,95.9,20.68Zm0-7.17H95.8a3.85,3.85,0,0,0-.66.06,2.9,2.9,0,0,0-2.38,2.84,3.2,3.2,0,0,0,.91,2.28,3.05,3.05,0,0,0,2.19,1,3.19,3.19,0,0,0,2.34-1,3.25,3.25,0,0,0,.92-2.39A3,3,0,0,0,95.88,13.51Z"/><path class="cls-2" d="M95.75,14.45a.52.52,0,0,1-.51-.48c0-.37,0-.73,0-1.07a8.83,8.83,0,0,0-.21-2,.52.52,0,0,1,1-.25,10.1,10.1,0,0,1,.23,2.2c0,.33,0,.67,0,1a.52.52,0,0,1-.47.56Z"/><path class="cls-2" d="M96,22.64a.52.52,0,0,1-.51-.45c0-.22-.06-.4-.09-.57a7.36,7.36,0,0,1-.14-1.43,6.86,6.86,0,0,1,.15-1.45.51.51,0,0,1,.61-.4.52.52,0,0,1,.4.62,6.11,6.11,0,0,0-.12,1.23,6.89,6.89,0,0,0,.12,1.25c0,.18.06.38.1.61a.52.52,0,0,1-.44.58Z"/><path class="cls-2" d="M93.61,17.22h-.1a7.36,7.36,0,0,0-1.33-.11c-.32,0-.65,0-1,0l-1,0a.52.52,0,1,1,0-1,.49.49,0,0,1,.17,0h.11l.73,0c.34,0,.67,0,1,0a7.8,7.8,0,0,1,1.53.13.53.53,0,0,1,.41.61A.52.52,0,0,1,93.61,17.22Z"/><path class="cls-2" d="M99.09,17a9.29,9.29,0,0,1-1,0,.52.52,0,1,1,.1-1c.25,0,.54,0,.87,0l.93,0,.92,0a.52.52,0,1,1,0,1l-.89,0Z"/><path class="cls-2" d="M66.22,2.22a.52.52,0,0,1-.51-.44.51.51,0,0,1,.44-.59l.59-.1A33.62,33.62,0,0,1,71.8.57a14.18,14.18,0,0,1,1.63.09.52.52,0,1,1-.12,1,14.35,14.35,0,0,0-1.51-.08,32,32,0,0,0-4.9.51l-.6.09Z"/><path class="cls-2" d="M78,1.81a.78.78,0,0,1-.77-.8,1.33,1.33,0,0,1,.17-.59.59.59,0,0,1,.31-.29,1.12,1.12,0,0,1,.31,0c.44,0,1.12.39,1.12.88a.78.78,0,0,1-.76.79l-.09,0A1.19,1.19,0,0,1,78,1.81Zm.38-1.1Z"/><path class="cls-2" d="M90.92,3.56H90.8c-1.2-.3-2.44-.51-3.64-.71a36.47,36.47,0,0,1-5-1.09.52.52,0,0,1-.33-.66.52.52,0,0,1,.65-.33,33.75,33.75,0,0,0,4.84,1.05c1.22.21,2.48.42,3.72.73a.52.52,0,0,1,.38.63A.53.53,0,0,1,90.92,3.56Z"/><path class="cls-2" d="M69.53,15.47c-.79,0-1.58-.06-2.34-.13s-1.52-.12-2.26-.12c-.32,0-.65,0-.88,0h-.31c-1.86,0-3.07-.85-3.07-2.17a2.6,2.6,0,0,1,2.71-2.53h.22v-.33a2.93,2.93,0,0,1,3-3.15,2.47,2.47,0,0,1,2.29,1.67,2.8,2.8,0,0,1,1.89-.63c.93,0,1.56.76,1.56,1.9a2,2,0,0,1,0,.25h.3a2.35,2.35,0,0,1,1.86.92,2,2,0,0,1,.25.5A3.63,3.63,0,0,1,75,12.94C75,14.09,74.05,15.47,69.53,15.47Zm-4.6-1.29c.78,0,1.57.07,2.34.13s1.51.12,2.26.12c1.33,0,4.43-.15,4.43-1.49a2.89,2.89,0,0,0-.22-.89,1.12,1.12,0,0,0-.11-.22,1.28,1.28,0,0,0-1-.52,2.54,2.54,0,0,0-.56,0,.73.73,0,0,1-.63.41.57.57,0,0,1-.58-.58.77.77,0,0,1,.4-.63,3.17,3.17,0,0,0,0-.53c0-.14,0-.87-.52-.87A1.6,1.6,0,0,0,69,10.49a.51.51,0,0,1-.52.46.52.52,0,0,1-.52-.52.25.25,0,0,1,0-.08,5.36,5.36,0,0,0,0-.57,1.5,1.5,0,0,0-1.42-1.65,1.9,1.9,0,0,0-1.93,2.11,6.74,6.74,0,0,0,.06,1.13.51.51,0,0,1-.33.6.54.54,0,0,1-.63-.22s-.09-.15-.36-.15a1.58,1.58,0,0,0-1.67,1.49c0,1.08,1.69,1.13,2,1.13H64C64.24,14.2,64.59,14.18,64.93,14.18Z"/><path class="cls-2" d="M102.31,9.81a.51.51,0,0,1-.52-.49c-.06-1.15-.06-2.27-.06-3.36v0a.51.51,0,0,1,.52-.51.52.52,0,0,1,.52.51V6c0,1.08,0,2.19,0,3.3a.51.51,0,0,1-.49.55Z"/><path class="cls-2" d="M100.58,8a.51.51,0,0,1-.1-1,10.07,10.07,0,0,1,1.9-.15H103c.43,0,.86,0,1.29,0a.54.54,0,0,1,.55.5.52.52,0,0,1-.5.54c-.45,0-.9,0-1.35,0h-.6a8.69,8.69,0,0,0-1.71.13Z"/><path class="cls-2" d="M61.51,37.75a.52.52,0,0,1-.52-.52V33.07a.52.52,0,0,1,.16-.37.48.48,0,0,1,.36-.15h.59c.67,0,2.89,0,4.86-.11,0-.62-.07-1.24-.11-1.86,0-.83-.1-1.69-.16-2.54a.48.48,0,0,1,.13-.38.5.5,0,0,1,.36-.18c.84-.05,1.69-.06,2.52-.07a34,34,0,0,0,3.49-.15v0C73.1,25.5,73,23.71,73,21.93a.52.52,0,0,1,.15-.38.48.48,0,0,1,.38-.15l2,0c1.88,0,3.82.09,5.72.09,1,0,2,0,2.88,0a.53.53,0,0,1,.53.51.52.52,0,0,1-.5.53c-.91,0-1.87,0-2.91,0-1.91,0-3.86,0-5.74-.09l-1.46,0c0,1.59.11,3.18.19,4.73l0,.52a.54.54,0,0,1-.45.54,33.16,33.16,0,0,1-4.09.21l-1.95,0c0,.68.09,1.37.13,2S68,32.1,68,32.89a.53.53,0,0,1-.13.38.49.49,0,0,1-.36.17c-2.12.14-4.71.15-5.45.15H62v3.64A.52.52,0,0,1,61.51,37.75Z"/><path class="cls-2" d="M52.24,27.88a.63.63,0,0,1-.19,0,.51.51,0,0,1-.33-.46l-.18-3.21-6.72.46h0l-.11,0a1.29,1.29,0,0,1-.65,0,.52.52,0,0,1,.29-1l.12,0a1.63,1.63,0,0,1,.33,0L52,23.11a.52.52,0,0,1,.38.13.54.54,0,0,1,.18.36l.14,2.67.11-.09c1.83-1.61,3.54-3.26,5.12-4.83l-5.49-4.21c0,.5,0,1,0,1.5s0,1.26,0,1.89a.52.52,0,0,1-.49.53c-.36,0-.72,0-1.12,0-1,0-2.08-.07-3.09-.14s-2-.13-3-.13a.52.52,0,0,1-.52-.52.52.52,0,0,1,.52-.52c1,0,2.08.07,3.09.14s2,.13,3,.13h.56l0-1.37c0-.86,0-1.73,0-2.59a.5.5,0,0,1,.28-.47.52.52,0,0,1,.55.05L59,20.88a.54.54,0,0,1,.21.38.54.54,0,0,1-.16.4c-1.71,1.71-3.57,3.53-5.59,5.3a3.88,3.88,0,0,1-.31.26,5.57,5.57,0,0,0-.56.51A.53.53,0,0,1,52.24,27.88Z"/><path class="cls-2" d="M63.18,23.28h0a2,2,0,0,1-2-1.82,2.12,2.12,0,0,1,1.05-1.93l0,0a2,2,0,0,1,.53-.24,1.8,1.8,0,0,1,.52-.05,2,2,0,0,1,2,1.93,2.09,2.09,0,0,1-.62,1.5A2.12,2.12,0,0,1,63.18,23.28Zm.07-3a.85.85,0,0,0-.23,0,1.13,1.13,0,0,0-.25.12l-.06,0a1.08,1.08,0,0,0-.53,1,1,1,0,0,0,1,.84,1.07,1.07,0,0,0,.78-.33,1,1,0,0,0,.31-.73,1,1,0,0,0-1-.93Z"/><path class="cls-2" d="M111.5,17.61h0a2,2,0,0,1-2-1.82,2.09,2.09,0,0,1,1-1.92l0,0a2,2,0,0,1,.53-.24,2.29,2.29,0,0,1,.52,0,2,2,0,0,1,2,1.93A2.06,2.06,0,0,1,113,17,2.15,2.15,0,0,1,111.5,17.61Zm.07-3-.23,0-.25.13,0,0a1.08,1.08,0,0,0-.54,1,1,1,0,0,0,1,.84,1.1,1.1,0,0,0,.78-.32,1.06,1.06,0,0,0,.32-.74,1,1,0,0,0-1-.92Z"/><path class="cls-2" d="M48.68,32a.52.52,0,0,1,0-1l3.17-.1c2.1-.07,4.27-.14,6.42-.26a.53.53,0,0,1,.55.49.52.52,0,0,1-.49.55c-2.17.12-4.34.19-6.45.25L48.7,32Z"/><path class="cls-2" d="M55,34.16H53.57c-.78,0-1.56,0-2.36,0a.54.54,0,0,1-.54-.5.52.52,0,0,1,.5-.54c.82,0,1.62,0,2.42,0s1.56,0,2.35,0a.52.52,0,0,1,.54.5.52.52,0,0,1-.5.54Z"/><path class="cls-2" d="M52.09,36.41a.52.52,0,0,1,0-1h.16c.85-.06,1.73-.12,2.55-.23a.52.52,0,0,1,.14,1c-.86.12-1.76.18-2.62.23h-.19Z"/><path class="cls-2" d="M41.08,36.64a.54.54,0,0,1-.36-.14c-.49-.47-.95-1-1.39-1.48-.28-.31-.56-.63-.85-.93a.53.53,0,0,1,0-.73A32.59,32.59,0,0,1,41.15,31a.52.52,0,0,1,.69,0c.76.74,1.59,1.44,2.39,2.12l.14.12a.52.52,0,0,1,.18.4.51.51,0,0,1-.19.4l-.32.26c-.88.7-1.78,1.42-2.61,2.19A.52.52,0,0,1,41.08,36.64Zm-1.5-2.9.52.59c.34.37.66.73,1,1.08.69-.62,1.42-1.21,2.13-1.78-.59-.5-1.2-1-1.77-1.56C40.81,32.59,40.19,33.15,39.58,33.74Z"/><path class="cls-2" d="M33.58,17.17h-.06a2.18,2.18,0,0,1-2.22-2.12,2.23,2.23,0,0,1,.85-1.83,2.52,2.52,0,0,1,1.61-.54,2.23,2.23,0,0,1,2.19,2,2.42,2.42,0,0,1-.67,1.79A2.32,2.32,0,0,1,33.58,17.17Zm.1-3.45a1.57,1.57,0,0,0-.9.32,1.18,1.18,0,0,0-.44,1,1.15,1.15,0,0,0,1.2,1.12,1.26,1.26,0,0,0,1-.4,1.33,1.33,0,0,0,.38-1,1.2,1.2,0,0,0-1.19-1Z"/><path class="cls-2" d="M23.83,21.27c-.59,0-1.19,0-1.76-.07a20.54,20.54,0,0,0-2.46,0,.52.52,0,1,1-.07-1c.26,0,.53,0,.83,0,.59,0,1.18,0,1.76.07a19.61,19.61,0,0,0,2.76,0,.53.53,0,0,1,.57.47.52.52,0,0,1-.47.57C24.63,21.25,24.25,21.27,23.83,21.27Z"/><path class="cls-2" d="M22.25,18.82a.73.73,0,0,1-.78-.78.63.63,0,0,1,.51-.65,1,1,0,0,1,.24,0,.8.8,0,0,1,.83.75A.75.75,0,0,1,22.25,18.82Zm-.07-.43h0a.41.41,0,0,0,.31-.36.34.34,0,0,0-.27-.26.32.32,0,0,0-.23.33.27.27,0,0,0,.17.28l-.1-.49Z"/><path class="cls-2" d="M27.78,34.29c-1,0-2-.06-2.8-.11l-1.12,0c-.38,0-.75,0-1.15.06s-.82.06-1.24.06c-2.69,0-3.9-1.68-3.9-2.88a2.9,2.9,0,0,1,2.72-2.64,1.86,1.86,0,0,1,.87.21,4,4,0,0,1,3.48-3.86,1.62,1.62,0,0,1,1.44,1A5.07,5.07,0,0,1,30.39,23c.83,0,2.14.74,2.23,2.69a2.75,2.75,0,0,1,.73-.09c2.06,0,3.17,2.1,3.17,4.08a4.33,4.33,0,0,1-1.73,3.21A6.84,6.84,0,0,1,31.43,34c-.27,0-.54.07-.8.12A16.34,16.34,0,0,1,27.78,34.29Zm-3.92-1.2c.25,0,.66,0,1.18,0,.8,0,1.81.11,2.74.11a16.33,16.33,0,0,0,2.67-.2l.84-.13A5.93,5.93,0,0,0,34.16,32a3.24,3.24,0,0,0,1.32-2.38c0-1.48-.75-3-2.13-3-.6,0-.78.21-.82.26a.51.51,0,0,1-.5.39.52.52,0,0,1-.52-.52.66.66,0,0,1,0-.23,3.09,3.09,0,0,0,0-.62c0-1.42-.81-1.88-1.2-1.88a4.28,4.28,0,0,0-3.77,4.18,2.64,2.64,0,0,1,0,.36.53.53,0,0,1-.52.59c-.09,0-.51,0-.53-.59V28.2a3.72,3.72,0,0,0-.6-1.91.45.45,0,0,0-.35-.17,3,3,0,0,0-2.45,3.23c0,.49,0,.77,0,.91,0,.47-.22.62-.42.66a.53.53,0,0,1-.61-.4c-.18-.52-.46-.75-.89-.75a1.9,1.9,0,0,0-1.69,1.6c0,.74.91,1.84,2.87,1.84.38,0,.76,0,1.16-.06S23.44,33.09,23.86,33.09Z"/><path class="cls-2" d="M21.19,38.7h-.85a.52.52,0,0,1-.51-.53.53.53,0,0,1,.53-.51c2.58,0,5.21-.11,7.74-.25,1.61-.09,3.26-.18,4.9-.23a.52.52,0,0,1,0,1c-1.62.05-3.27.14-4.87.23C25.88,38.57,23.52,38.7,21.19,38.7Z"/><path class="cls-2" d="M29.67,41.05c-1,0-2-.07-2.89-.14a28.08,28.08,0,0,0-3.55-.12.52.52,0,0,1-.54-.5.52.52,0,0,1,.5-.54,31.82,31.82,0,0,1,3.66.12c.93.07,1.89.14,2.82.14a13.38,13.38,0,0,0,1.6-.08.52.52,0,0,1,.11,1A15.11,15.11,0,0,1,29.67,41.05Z"/><path class="cls-2" d="M25.12,43.05a.52.52,0,0,1,0-1c.65,0,1.31,0,2,0H28c.66,0,1.17,0,1.63,0a.51.51,0,0,1,.56.47.52.52,0,0,1-.47.56c-.5,0-1,.06-1.72.06h-.93c-.64,0-1.28,0-1.91,0Z"/><path class="cls-2" d="M10.09,38h0a.52.52,0,0,1-.49-.54c0-.25,0-.51,0-.76,0-.52,0-1,0-1.55s0-1.06,0-1.59A.52.52,0,0,1,10,33a.52.52,0,0,1,.52.52c0,.51,0,1,0,1.55s0,1.06,0,1.59c0,.27,0,.54,0,.81A.53.53,0,0,1,10.09,38Z"/><path class="cls-2" d="M7.88,35.78a.52.52,0,0,1,0-1c.71-.06,1.43-.06,2.13-.07a21.74,21.74,0,0,0,2.56-.11.52.52,0,1,1,.12,1,24,24,0,0,1-2.67.12c-.68,0-1.39,0-2.06.06Z"/><path class="cls-2" d="M3,58.62a.51.51,0,0,1-.52-.51c0-3-.32-6.15-.59-9.14l-.24-2.64a.52.52,0,0,1,.14-.39.5.5,0,0,1,.38-.17l4.34,0C7,43,8.8,42.42,10.26,42.42s2.46,1.1,2.68,3.27l3.93,0a.52.52,0,0,1,.52.51c0,1.87.06,3.74.08,5.61,0,2.08.06,4.16.1,6.26a.53.53,0,0,1-.15.37.51.51,0,0,1-.37.15ZM2.76,46.8l.18,2.08c.26,2.84.53,5.78.59,8.7l13,0c0-1.92-.06-3.83-.09-5.74,0-1.69,0-3.39-.07-5.09l-3.9,0a.52.52,0,0,1-.52-.5c-.13-2.47-1-2.79-1.68-2.79-1.69,0-2.54.89-2.76,2.86a.52.52,0,0,1-.52.46Z"/><path class="cls-2" d="M6.94,51.91c-1.51,0-2.33-.91-2.33-1.76A2.08,2.08,0,0,1,6,48a1.2,1.2,0,0,1,.48-.2,2.12,2.12,0,0,1,.44,0,2.29,2.29,0,0,1,2.24,2.23A2.1,2.1,0,0,1,6.94,51.91Zm0-3.16a1,1,0,0,0-.24,0c-.07,0-.07,0-.09,0a.53.53,0,0,1-.33.15c-.41,0-.6.73-.6,1.19,0,.22.33.72,1.29.72,0,0,1.17,0,1.17-.93A1.26,1.26,0,0,0,6.91,48.75Z"/><path class="cls-2" d="M5.3,55.73a.51.51,0,0,1-.51-.46,10.94,10.94,0,0,1-.06-1.12,3.38,3.38,0,0,1,1.32-3.1.51.51,0,0,1,.71.15.52.52,0,0,1-.15.72,2.46,2.46,0,0,0-.85,2.23c0,.39,0,.76.06,1a.51.51,0,0,1-.47.56Z"/><path class="cls-2" d="M8.89,55.53A.53.53,0,0,1,8.37,55c0-2-.6-2.93-.77-3.08a.52.52,0,0,1,.1-1c.82,0,1.71,1.57,1.71,4.11A.52.52,0,0,1,8.89,55.53ZM7.7,51.94Z"/><path class="cls-2" d="M11.52,49.8a.52.52,0,0,1-.09-1,5.65,5.65,0,0,1,1.07-.07c.2,0,.93-.1,1.28-.15s.9-.13,1,.38-.07.49-.49.6l-.69.14a.49.49,0,0,1-.24,0,8.1,8.1,0,0,1-.84.09,5.14,5.14,0,0,0-.89,0Z"/><path class="cls-2" d="M12.26,51.84l-.32,0a.52.52,0,0,1-.46-.57.52.52,0,0,1,.57-.46,4.27,4.27,0,0,0,.79,0,4.74,4.74,0,0,1,1,0,.52.52,0,0,1,.46.57.52.52,0,0,1-.57.46,4.27,4.27,0,0,0-.79,0C12.72,51.81,12.49,51.84,12.26,51.84Z"/><path class="cls-2" d="M11.7,54.45a.52.52,0,1,1,0-1A3.34,3.34,0,0,0,13,53.2a.52.52,0,0,1,.37,1A4.72,4.72,0,0,1,11.7,54.45Z"/><path class="cls-2" d="M9.65,46.4a.83.83,0,0,1-.82-.76.6.6,0,0,1,.08-.29.5.5,0,0,1,.48-.29A.44.44,0,0,1,9.47,45a.52.52,0,0,1,.73,0,.81.81,0,0,1,.25.58A.88.88,0,0,1,9.65,46.4Zm.19-.59Z"/><path class="cls-2" d="M.84,77.75a.51.51,0,0,1-.36-.14.52.52,0,0,1-.16-.37c0-1.39-.1-2.81-.18-4.18-.05-1-.1-1.93-.14-2.89a.52.52,0,0,1,.46-.54c.72-.08,1.44-.09,2.14-.11l.94,0a.59.59,0,0,1,.38.14.52.52,0,0,1,.16.37c0,.48,0,1,0,1.57,0,2,0,3.94-.06,5.64a.52.52,0,0,1-.5.51c-.4,0-.8,0-1.21,0H.84Zm.22-7.13c0,.8.08,1.6.12,2.38.07,1.22.14,2.47.17,3.71H3c0-1.58,0-3.37,0-5.13v-1H2.62C2.11,70.57,1.58,70.58,1.06,70.62Z"/><path class="cls-2" d="M9.57,77.57l-1,0c-.57,0-1.16,0-1.75,0A.52.52,0,0,1,6.29,77c-.14-2.25-.43-7.37-.43-8.83v-1c0-.89,0-1.64-.05-2.4a.52.52,0,0,1,.49-.55c.63,0,1.42,0,2.15,0,.33,0,.66,0,1,0a.52.52,0,0,1,.51.5c.11,2.83.12,5.69.12,8.45,0,1.26,0,2.51,0,3.77a.54.54,0,0,1-.15.38A.55.55,0,0,1,9.57,77.57ZM7.3,76.49l1.24,0h.51c0-1.08,0-2.16,0-3.23,0-2.6,0-5.28-.1-7.93l-.53,0c-.5,0-1.05,0-1.53,0,0,.61,0,1.23,0,1.93v1C6.9,69.42,7.13,73.69,7.3,76.49Z"/><path class="cls-2" d="M11.93,77.71a.52.52,0,0,1-.35-.14.56.56,0,0,1-.17-.38c0-1.25,0-2.52-.06-3.75,0-1.51-.06-3.07-.06-4.61v-.72a.52.52,0,0,1,.47-.52c1-.08,1.91-.09,2.63-.1a.47.47,0,0,1,.37.16.48.48,0,0,1,.15.37c0,.52,0,1,0,1.57,0,1.59,0,3.22.09,4.79,0,.93.06,1.87.08,2.8a.51.51,0,0,1-.16.38.53.53,0,0,1-.4.14,19.64,19.64,0,0,0-2.54,0Zm.39-9.12v.24c0,1.53,0,3.08.07,4.59,0,1.06,0,2.14.06,3.22.56,0,1.07,0,1.57,0L14,74.41c-.05-1.58-.1-3.21-.1-4.82,0-.35,0-.7,0-1C13.39,68.54,12.87,68.56,12.32,68.59Z"/><path class="cls-2" d="M17.48,77a.52.52,0,0,1-.52-.48c-.09-1.5-.12-3-.15-4.48V72a.51.51,0,0,1,.42-.52,15.62,15.62,0,0,1,2-.21l.32,0a.53.53,0,0,1,.38.14.56.56,0,0,1,.17.37c0,.64,0,1.29.06,1.93,0,.88.07,1.8.08,2.7a.53.53,0,0,1-.48.53L17.94,77h-.46Zm.38-4.59c0,1.16.05,2.36.11,3.54l1.22-.06c0-.73,0-1.46-.07-2.18,0-.47,0-.94-.05-1.41C18.67,72.31,18.26,72.34,17.86,72.4Z"/><path class="cls-2" d="M7.48,90.37H7.36a4,4,0,0,1-3.93-3.75,4.17,4.17,0,0,1,1.17-3.1,4.35,4.35,0,0,1,3.11-1.28l.32,0a4,4,0,0,1,3.38,2.31,4,4,0,0,1,.32,1.49,4.1,4.1,0,0,1-1.2,3A4.34,4.34,0,0,1,7.48,90.37Zm.15-7.09a3.19,3.19,0,0,0-2.28,1,3.06,3.06,0,0,0-.88,2.32,3,3,0,0,0,2.92,2.76,3.24,3.24,0,0,0,2.41-1,3.12,3.12,0,0,0,.9-2.28A3.32,3.32,0,0,0,10.45,85a3,3,0,0,0-2.52-1.68h-.3Z"/><path class="cls-2" d="M7.19,84.58a.52.52,0,0,1-.52-.52c0-.53,0-1.07,0-1.6s0-1.06,0-1.58a.52.52,0,0,1,1,0c0,.53,0,1.07,0,1.6s0,1.06,0,1.58A.52.52,0,0,1,7.19,84.58Z"/><path class="cls-2" d="M7.55,91.8A.52.52,0,0,1,7,91.36,6.54,6.54,0,0,1,7,90.3c0-.25,0-.5,0-.75s0-.47,0-.7,0-.27,0-.4a.52.52,0,0,1,.49-.55.51.51,0,0,1,.54.49c0,.15,0,.31,0,.46s0,.49,0,.74,0,.47,0,.71a5.75,5.75,0,0,0,.06.89.51.51,0,0,1-.42.6Z"/><path class="cls-2" d="M5.17,87h0L4,86.91c-.65,0-1.31,0-2-.1a.52.52,0,0,1,.1-1c.65.06,1.27.08,1.92.09l1.2,0a.52.52,0,0,1,.49.54A.53.53,0,0,1,5.17,87Z"/><path class="cls-2" d="M10.05,86.66a.53.53,0,0,1-.5-.4.52.52,0,0,1,.39-.63,6.31,6.31,0,0,1,1.44-.13h.44a7.81,7.81,0,0,0,.83,0,.53.53,0,0,1,.58.46.52.52,0,0,1-.46.57,7.86,7.86,0,0,1-.95.05h-.44a5.11,5.11,0,0,0-1.21.1Z"/><path class="cls-2" d="M5.85,102.65a.52.52,0,0,1-.52-.53c0-.16,0-.31,0-.46,0-.76,0-1.54-.09-2.29S5.17,98,5.17,97.31a.51.51,0,0,1,.46-.52c1.31-.13,2.65-.3,3.94-.47l1.84-.23c0-.75-.07-1.52-.09-2.28a.55.55,0,0,1,.14-.37.52.52,0,0,1,.37-.16l1.08,0c1.12,0,2.26,0,3.39-.12,0-.41,0-.81-.05-1.22,0-.68-.05-1.37-.08-2a.55.55,0,0,1,.14-.37.58.58,0,0,1,.37-.17h3.15c0-1,0-2,0-3.13a.53.53,0,0,1,.49-.53l.49,0c1.18-.07,2.4-.13,3.57-.25a.52.52,0,0,1,.11,1c-1.2.12-2.42.19-3.61.25,0,1.13,0,2.22,0,3.15a.52.52,0,0,1-.51.52c-.67,0-1.34,0-2,0H17.23l.06,1.51.06,1.72a.52.52,0,0,1-.47.53c-1.31.12-2.65.14-3.95.16h-.56q0,1.1.09,2.16v.07a.5.5,0,0,1-.45.53l-2.31.29c-1.14.15-2.32.3-3.49.42,0,.52,0,1,.08,1.54,0,.77.09,1.56.09,2.35,0,.16,0,.32,0,.49A.52.52,0,0,1,5.85,102.65Z"/><path class="cls-2" d="M23.91,83.63a.52.52,0,0,1-.52-.49c-.08-1.67-.15-3.35-.22-5-.06-1.33-.11-2.65-.17-4a.51.51,0,0,1,.51-.54c.89,0,1.79,0,2.66,0,.67,0,1.37,0,2.06,0H29c0-.46,0-1,0-1.56V70.87c0-.39,0-.79,0-1.19v-.84a.51.51,0,0,1,.51-.53h4.06c1.1,0,2.56,0,4.05-.1a.51.51,0,0,1,.55.51l0,1c0,.81,0,1.62,0,2.42A27.08,27.08,0,0,0,38.42,75h2.46c.74,0,1.63,0,2.51-.05a.5.5,0,0,1,.55.47l.12,1.49c.16,1.91.32,3.88.41,5.82a.51.51,0,0,1-.51.54Zm.15-9,.15,3.45c.06,1.51.12,3,.2,4.52l19-.34c-.1-1.74-.24-3.52-.38-5.24l-.09-1c-.73,0-1.44,0-2.06,0H38a.52.52,0,0,1-.53-.46v0a31.25,31.25,0,0,1-.24-3.36c0-.8,0-1.6,0-2.4v-.49c-1.32.07-2.58.08-3.57.08H30.05v.33c0,.4,0,.8,0,1.21s0,.79,0,1.19c0,.8,0,1.44.07,2a.56.56,0,0,1-.13.39.53.53,0,0,1-.37.17c-.42,0-.87,0-1.37,0-.7,0-1.4,0-2.09,0S24.74,74.62,24.06,74.62Z"/><path class="cls-2" d="M33.83,75a.52.52,0,0,1-.51-.42,18.29,18.29,0,0,1-.25-1.94l-.14.06-.67.28a.52.52,0,0,1-.44-.94l.72-.3.79-.34a.5.5,0,0,1,.49,0,.52.52,0,0,1,.25.42,16.78,16.78,0,0,0,.27,2.54.52.52,0,0,1-.41.61Z"/><path class="cls-2" d="M28.34,80.64c-.3,0-.6,0-.9,0a13.64,13.64,0,0,0-1.43,0,.51.51,0,0,1-.46-.22.5.5,0,0,1-.05-.5c.16-.37.36-.75.56-1.12a5.88,5.88,0,0,0,.67-1.56.72.72,0,0,0-.39-.11,2.54,2.54,0,0,0-1,.28.52.52,0,1,1-.43-1,3.52,3.52,0,0,1,1.43-.37c.7,0,1.43.42,1.43,1.13a5.25,5.25,0,0,1-.8,2.07c0,.1-.1.2-.16.3l.67,0,.86,0a.52.52,0,0,1,0,1Z"/><path class="cls-2" d="M39.14,81.77a.52.52,0,0,1-.16-1c1.59-.53,1.66-1,1.66-1s0-.29-1-.35a.51.51,0,0,1-.31-.9l.35-.33c-.17,0-.35.13-.45.17a.52.52,0,1,1-.4-1A3.17,3.17,0,0,1,40,77.11a.84.84,0,0,1,.88.9,1.11,1.11,0,0,1-.16.57,1.24,1.24,0,0,1,.94,1.22c0,.78-.78,1.41-2.38,1.94A.45.45,0,0,1,39.14,81.77Z"/><path class="cls-2" d="M52.3,52.24a.55.55,0,0,1-.36-.15.51.51,0,0,1-.16-.37c0-.44,0-.88-.05-1.33s0-1.13,0-1.71a.52.52,0,1,1,1,0c0,.56,0,1.12.05,1.67,0,.27,0,.55,0,.83,1.31,0,2.64-.08,3.93-.11L58,51c0-.58,0-1.16,0-1.74s0-1.21,0-1.82a27.18,27.18,0,0,1,.14-2.92.52.52,0,0,1,1,.12,25,25,0,0,0-.13,2.8c0,.6,0,1.2,0,1.8s0,1.22,0,1.82v.46a.53.53,0,0,1-.51.51l-1.8,0c-1.46,0-3,.06-4.45.12Z"/><path class="cls-2" d="M55.34,51.42a.52.52,0,0,1-.52-.52c0-.65,0-1.3,0-1.94s0-1.29,0-2a.52.52,0,0,1,.52-.52.52.52,0,0,1,.52.52c0,.65,0,1.3,0,1.94s0,1.29,0,1.95A.51.51,0,0,1,55.34,51.42Z"/><path class="cls-2" d="M33.33,68.09l-.69,0a10.69,10.69,0,0,1-10-9.68,11.42,11.42,0,0,1,2.88-8.49,11.91,11.91,0,0,1,8.27-3.84c.29,0,.59,0,.88,0,4.77.2,10,3.68,10.4,9.75a11.89,11.89,0,0,1-3.39,8.91A11.6,11.6,0,0,1,33.33,68.09Zm1-21h-.45a10.83,10.83,0,0,0-7.55,3.5,10.36,10.36,0,0,0-2.61,7.73,9.62,9.62,0,0,0,9,8.7A10.41,10.41,0,0,0,40.93,64,10.74,10.74,0,0,0,44,55.88c-.33-5.47-5.09-8.61-9.4-8.79Z"/><path class="cls-2" d="M33.51,64.46h-.46a7.17,7.17,0,0,1-6.72-6.51,7.62,7.62,0,0,1,1.92-5.68,8,8,0,0,1,5.55-2.58h.59a7.14,7.14,0,0,1,7,6.56,7.91,7.91,0,0,1-2.26,6A7.76,7.76,0,0,1,33.51,64.46Zm.62-13.75h-.29A6.94,6.94,0,0,0,29,53a6.64,6.64,0,0,0-1.66,4.93,6.11,6.11,0,0,0,5.74,5.53,6.66,6.66,0,0,0,5.26-1.94,6.91,6.91,0,0,0,2-5.17,6.11,6.11,0,0,0-6-5.58Z"/><path class="cls-2" d="M33.69,60.82h-.24A3.67,3.67,0,0,1,30,57.5a3.89,3.89,0,0,1,1-2.88,4,4,0,0,1,2.8-1.3h.3a3.63,3.63,0,0,1,3.55,3.34,4.06,4.06,0,0,1-1.15,3A3.93,3.93,0,0,1,33.69,60.82ZM34,54.35h-.12a3,3,0,0,0-2.08,1,2.83,2.83,0,0,0-.71,2.12,2.6,2.6,0,0,0,2.44,2.34A2.88,2.88,0,0,0,35.77,59a3,3,0,0,0,.85-2.23,2.61,2.61,0,0,0-2.55-2.37Z"/><path class="cls-2" d="M34.07,57.07a.53.53,0,0,1-.35-.13.52.52,0,0,1,0-.73,7.85,7.85,0,0,0,.63-.83,9,9,0,0,1,.88-1.1l.62-.76c1.59-2,5.81-7.19,9.27-11a.51.51,0,0,1,.73,0,.52.52,0,0,1,0,.73c-3.44,3.83-7.65,9-9.23,11-.59.73-.65.8-.69.84a7,7,0,0,0-.77,1,10.15,10.15,0,0,1-.7.92A.52.52,0,0,1,34.07,57.07Z"/><path class="cls-2" d="M44.77,46.48l-1.12,0h-.86a.52.52,0,0,1-.51-.47c0-.41-.09-.82-.14-1.22-.08-.69-.17-1.41-.21-2.13a.51.51,0,0,1,.16-.41c1.2-1.11,2.38-2.24,3.37-3.19A.51.51,0,0,1,46,38.9a.54.54,0,0,1,.36.39,2.17,2.17,0,0,0,2.06,2h.16a.54.54,0,0,1,.51.26.53.53,0,0,1,0,.57,50.23,50.23,0,0,0-2.92,4.15.51.51,0,0,1-.41.25Zm-1.51-1.07h.41c.57,0,1.13,0,1.7,0,.63-1,1.36-2,2.25-3.24a3,3,0,0,1-2-1.83c-.8.76-1.68,1.61-2.59,2.45.05.61.12,1.23.19,1.83Z"/><path class="cls-2" d="M65.75,44.43a.53.53,0,0,1-.52-.46,32.71,32.71,0,0,1-.18-4.18.52.52,0,0,1,.52-.52.52.52,0,0,1,.52.52,32.36,32.36,0,0,0,.17,4.05.52.52,0,0,1-.45.58Z"/><path class="cls-2" d="M63.9,42.4a.52.52,0,0,1-.51-.44.5.5,0,0,1,.42-.59,11.2,11.2,0,0,1,1.91-.12c.49,0,1,0,1.4-.07a.52.52,0,0,1,.12,1c-.51.05-1,.06-1.51.06a12.36,12.36,0,0,0-1.75.11Z"/><path class="cls-2" d="M79.92,34.55a.5.5,0,0,1-.34-.13c-.88-.76-1.59-1.41-2.25-2a.51.51,0,0,1-.16-.37.51.51,0,0,1,.15-.37c.81-.8,1.65-1.56,2.46-2.29l.25-.22a.51.51,0,0,1,.74.06,17,17,0,0,0,2.14,2.09.53.53,0,0,1,.19.4.51.51,0,0,1-.19.4l-.1.08a32.94,32.94,0,0,0-2.52,2.23A.51.51,0,0,1,79.92,34.55ZM78.44,32c.44.41.92.84,1.46,1.31.61-.57,1.24-1.11,1.87-1.63a19.37,19.37,0,0,1-1.44-1.42C79.7,30.83,79.06,31.41,78.44,32Z"/><path class="cls-2" d="M77.08,22.17h0a.52.52,0,0,1-.49-.55,3.66,3.66,0,0,1,3.5-3.53,3.48,3.48,0,0,1,3.45,3.41A.52.52,0,0,1,83,22a.51.51,0,0,1-.52-.51,2.46,2.46,0,0,0-2.41-2.37,2.65,2.65,0,0,0-2.46,2.56A.52.52,0,0,1,77.08,22.17Z"/><path class="cls-2" d="M80.36,18.89a.52.52,0,0,1-.52-.53c0-.4,0-.79,0-1.19,0-1.38,0-2.77-.07-4.12s-.07-2.76-.07-4.15V8.5a.52.52,0,1,1,1,0v.4c0,1.38,0,2.77.07,4.12s.07,2.76.07,4.15c0,.4,0,.81,0,1.21A.51.51,0,0,1,80.36,18.89Z"/><path class="cls-2" d="M80.3,13.46a.52.52,0,0,1-.52-.51.54.54,0,0,1,.51-.53c.93,0,1.88-.05,2.8-.09l2-.08a3.21,3.21,0,0,1-.06-.63,4.31,4.31,0,0,1,.84-2.46L80.22,9a.51.51,0,0,1-.5-.53A.5.5,0,0,1,80.25,8L87,8.15a.52.52,0,0,1,.46.32.51.51,0,0,1-.1.55,3.92,3.92,0,0,0-1.23,2.6,1.88,1.88,0,0,0,.19.88.52.52,0,0,1,0,.51.51.51,0,0,1-.44.26c-.91,0-1.84.06-2.74.1S81.25,13.45,80.3,13.46Z"/><path class="cls-2" d="M98.17,41.12a13.89,13.89,0,0,1-10.85-5.24.53.53,0,0,1,0-.68,14.33,14.33,0,0,1,10.42-4.63c4.85,0,7.28,2.32,9.63,4.57l.37.34a.53.53,0,0,1,0,.73C103.69,40.75,101.11,41.12,98.17,41.12Zm-9.75-5.55a12.83,12.83,0,0,0,9.75,4.51c2.69,0,4.89-.31,8.5-4.2-2.3-2.19-4.48-4.27-8.91-4.27A13.25,13.25,0,0,0,88.42,35.57Z"/><path class="cls-2" d="M98.08,39.73a4.25,4.25,0,0,1-3-1.18,4,4,0,0,1-1.23-2.8v-.06A4.15,4.15,0,0,1,98,31.75h.17a4.15,4.15,0,0,1,3,1.22,3.54,3.54,0,0,1,1,2.34A4.33,4.33,0,0,1,101,38.46a3.91,3.91,0,0,1-2.78,1.27ZM98,32.79a3.09,3.09,0,0,0-3.11,2.92v0a3,3,0,0,0,.91,2,3.19,3.19,0,0,0,2.35.89,2.86,2.86,0,0,0,2-.93,3.26,3.26,0,0,0,.85-2.38,2.49,2.49,0,0,0-.68-1.69,3.22,3.22,0,0,0-2.24-.9H98Z"/><path class="cls-2" d="M97.9,36.75a1.09,1.09,0,0,1-1.15-1.11,1.08,1.08,0,0,1,2.15,0A1.07,1.07,0,0,1,97.9,36.75Zm-.18-1.61.08.51h0a.1.1,0,0,0,0,0h.06a.43.43,0,0,0,0-.05h0Z"/><path class="cls-2" d="M89.16,33.8a.5.5,0,0,1-.44-.24L88.36,33a15.2,15.2,0,0,1-1.19-2,.52.52,0,0,1,.94-.44,15.69,15.69,0,0,0,1.11,1.88c.13.18.25.37.37.56a.52.52,0,0,1-.15.72A.5.5,0,0,1,89.16,33.8Z"/><path class="cls-2" d="M93.25,31.54a.53.53,0,0,1-.52-.45c0-.32-.08-.63-.13-.95-.09-.63-.19-1.29-.23-1.95a.52.52,0,0,1,1-.07c0,.62.13,1.26.22,1.87.05.32.09.64.13,1a.52.52,0,0,1-.45.58Z"/><path class="cls-2" d="M98.62,30.47A.52.52,0,0,1,98.1,30a16.42,16.42,0,0,1,.12-2.41.52.52,0,0,1,1,.16A15.15,15.15,0,0,0,99.14,30,.53.53,0,0,1,98.62,30.47Z"/><path class="cls-2" d="M105.6,33.27a.57.57,0,0,1-.28-.08.53.53,0,0,1-.16-.72l.3-.49a7.87,7.87,0,0,1,1.08-1.51.52.52,0,0,1,.74.74,6.52,6.52,0,0,0-.93,1.31L106,33A.54.54,0,0,1,105.6,33.27Z"/><path class="cls-2" d="M111,43.1h0a8.43,8.43,0,0,1-7.2-4,.52.52,0,1,1,.88-.56A7.41,7.41,0,0,0,111,42.07a7.56,7.56,0,0,0,5.43-2.25,7.65,7.65,0,0,0,2.22-5.38l-2.27,0a43.69,43.69,0,0,0-4.7.19.56.56,0,0,1-.4-.12.55.55,0,0,1-.18-.37c-.09-1.89-.14-3.85-.14-5.81,0-.51,0-1,0-1.53a7.51,7.51,0,0,0-7.34,5.66.53.53,0,0,1-.63.39.52.52,0,0,1-.38-.63A8.55,8.55,0,0,1,111,25.79a4.87,4.87,0,0,1,.54,0,.5.5,0,0,1,.49.52c0,.68,0,1.35,0,2,0,1.76,0,3.51.11,5.21,1.37-.12,2.72-.13,4.26-.14.87,0,1.77,0,2.78,0a.53.53,0,0,1,.53.5c0,.12,0,.24,0,.37a8.7,8.7,0,0,1-2.52,6.29A8.59,8.59,0,0,1,111,43.1Z"/><path class="cls-2" d="M114.84,31.71a.51.51,0,0,1-.51-.47c-.11-1.24-.15-2.49-.19-3.7,0-1-.06-2-.13-3a.52.52,0,0,1,.13-.38.54.54,0,0,1,.36-.18h.71c4.36,0,6.79,2.38,6.86,6.7a.52.52,0,0,1-.49.52c-.26,0-.72.08-1.26.15a37.29,37.29,0,0,1-4.33.38h-.14c-.35,0-.66,0-1,0Zm.24-6.74c0,.86.08,1.71.1,2.54,0,1,.06,2.09.14,3.14H116a38.33,38.33,0,0,0,4.2-.37l.82-.1c-.21-3.41-2.21-5.21-5.8-5.21Z"/><path class="cls-2" d="M127.67,33.24a.52.52,0,0,1-.52-.47c-.12-1.22-.12-2.44-.12-3.51V29a.53.53,0,0,1,.52-.52.52.52,0,0,1,.52.52v.27c0,1,0,2.24.11,3.42a.51.51,0,0,1-.46.56Z"/><path class="cls-2" d="M125.46,31.3a.53.53,0,0,1-.51-.43.52.52,0,0,1,.43-.6,19.76,19.76,0,0,1,4.22-.36.52.52,0,1,1,0,1,19.32,19.32,0,0,0-4,.35Z"/><path class="cls-2" d="M124.8,44.22a.52.52,0,0,1-.52-.5l0-.84c0-.59,0-1.2-.08-1.8a.51.51,0,0,1,.48-.55.52.52,0,0,1,.56.47c0,.62.06,1.24.08,1.84,0,.11,0,.22,0,.32l6.07-.16c-.14-2.13-.16-4.16-.16-5.89a.52.52,0,0,1,.52-.52.52.52,0,0,1,.52.52c0,1.85,0,4.06.19,6.36a.56.56,0,0,1-.13.39.58.58,0,0,1-.37.17Z"/><path class="cls-2" d="M128.44,43.9a.53.53,0,0,1-.52-.44,18.43,18.43,0,0,1-.18-2.86v-.82c0-.27,0-.55,0-.82a.52.52,0,0,1,.52-.52.52.52,0,0,1,.52.52c0,.27,0,.55,0,.83v.81a17.09,17.09,0,0,0,.17,2.7.52.52,0,0,1-.43.59Z"/><path class="cls-2" d="M134.61,52.52h-.06a1.9,1.9,0,0,1-1.9-1.92,2,2,0,0,1,1-1.76,2.07,2.07,0,0,1,1.11-.29,2,2,0,0,1,1.9,1.93,2.09,2.09,0,0,1-.61,1.47A2,2,0,0,1,134.61,52.52Zm.08-2.94a1.14,1.14,0,0,0-.54.14,1,1,0,0,0-.46.85.88.88,0,0,0,.89.91,1,1,0,0,0,.71-.28,1.1,1.1,0,0,0,.32-.71,1,1,0,0,0-.9-.91Z"/><path class="cls-2" d="M115.86,50.39a.43.43,0,0,1-.25-.07.51.51,0,0,1-.27-.43c0-.29,0-.57,0-.86s0-.75,0-1.13,0-.58,0-.87a.52.52,0,0,1,.21-.41.51.51,0,0,1,.45-.08c1.1.3,2.2.66,3.26,1h0a.53.53,0,0,1,.35.45.52.52,0,0,1-.27.5l-.72.39c-.84.46-1.72.93-2.56,1.42A.59.59,0,0,1,115.86,50.39Zm.52-2.67v.2c0,.36,0,.71,0,1.07l1.48-.82C117.36,48,116.87,47.86,116.38,47.72Z"/><path class="cls-2" d="M112.56,63.47h-.07a2.79,2.79,0,0,1-2.72-2.6,2.88,2.88,0,0,1,2.6-3h.45a1.83,1.83,0,0,1,.52.09,2.79,2.79,0,0,1,2.13,2.67,2.92,2.92,0,0,1-2.91,2.86Zm-.07-4.59h-.07a1.82,1.82,0,0,0-1.62,1.95,1.77,1.77,0,0,0,1.72,1.6,1.88,1.88,0,0,0,1.91-1.81,1.78,1.78,0,0,0-1.4-1.69,1,1,0,0,0-.28,0h-.26Z"/><path class="cls-2" d="M109.45,67.72a.5.5,0,0,1-.33-.12.51.51,0,0,1-.19-.4c0-1.11.23-4.73,2.6-5a.52.52,0,1,1,.1,1c-1.06.1-1.53,1.73-1.64,3.31a38.46,38.46,0,0,1,4.51-.38,4.39,4.39,0,0,0-1.31-3.07.52.52,0,0,1,.69-.78,5.67,5.67,0,0,1,1.69,4.33.52.52,0,0,1-.5.54h-.15a37.22,37.22,0,0,0-5.37.49Z"/><path class="cls-2" d="M122.65,59.93h-.06a3.38,3.38,0,0,1-2.39-1,3.83,3.83,0,0,1-1-2.71,3.49,3.49,0,0,1,2.47-3.36,4.88,4.88,0,0,1,.7-.11,3.83,3.83,0,0,1,2.84,1,3.59,3.59,0,0,1,1.1,2.69A3.64,3.64,0,0,1,122.65,59.93Zm-.11-6.2h-.16a2.51,2.51,0,0,0-.49.08,2.42,2.42,0,0,0-1.7,2.37,2.76,2.76,0,0,0,.76,2,2.31,2.31,0,0,0,1.66.73h0a2.58,2.58,0,0,0,2.57-2.47,2.51,2.51,0,0,0-.78-1.93A2.78,2.78,0,0,0,122.54,53.73Z"/><path class="cls-2" d="M126.59,67.21h-.08a29.19,29.19,0,0,0-4.49-.39,16.41,16.41,0,0,0-3.15.28.49.49,0,0,1-.41-.09.51.51,0,0,1-.21-.37c0-.46,0-1,0-1.29,0-3.43,1.05-5.66,3.13-6.62A.51.51,0,0,1,122,59a.52.52,0,0,1-.25.69c-1.68.78-2.54,2.69-2.54,5.67,0,.18,0,.4,0,.64a18.7,18.7,0,0,1,2.77-.2,29.38,29.38,0,0,1,4.11.32,14.82,14.82,0,0,0,.09-1.53c0-3.33-1.63-4.72-2.65-4.81a.52.52,0,0,1,.09-1c1.45.13,3.59,1.8,3.59,5.85a20.15,20.15,0,0,1-.14,2.18.57.57,0,0,1-.2.36A.51.51,0,0,1,126.59,67.21Z"/><path class="cls-2" d="M132.61,62.52h-.08a2.35,2.35,0,0,1-.16-4.69h.28A2.27,2.27,0,0,1,135.08,60a2.4,2.4,0,0,1-.7,1.83A2.44,2.44,0,0,1,132.61,62.52Zm0-3.66h-.18a1.34,1.34,0,0,0-1.21,1.35,1.36,1.36,0,0,0,1.3,1.26,1.43,1.43,0,0,0,1.08-.41,1.49,1.49,0,0,0,.41-1.06A1.26,1.26,0,0,0,132.65,58.86Z"/><path class="cls-2" d="M131.05,67a.53.53,0,0,1-.49-.34,4.72,4.72,0,0,1-.28-1.57c0-1.69,1.22-3.57,2-3.57a.66.66,0,0,1,.3.07.52.52,0,0,1-.24,1,3.75,3.75,0,0,0-1.06,2.52,3.55,3.55,0,0,0,.09.79,31.55,31.55,0,0,1,4.05-.45,3.6,3.6,0,0,0-2.16-2.88.53.53,0,0,1-.34-.65.51.51,0,0,1,.65-.34c1.88.58,2.77,2.6,3,4.29a.52.52,0,0,1-.11.4.55.55,0,0,1-.37.18,30.57,30.57,0,0,0-4.94.56Zm1.1-4.48Z"/><path class="cls-2" d="M98.68,73.6c-.26,0-.78,0-.8-.52s.27-.54,1.44-.62l2.34-.14,5.61-.31,1.85-.1a.52.52,0,0,1,.56.48.53.53,0,0,1-.47.56l-1.89.1c-2.18.12-6.92.37-8.38.48A.59.59,0,0,1,98.68,73.6Z"/><path class="cls-2" d="M101.36,75.63a.52.52,0,0,1-.08-1,21.48,21.48,0,0,1,3.17-.17,24.52,24.52,0,0,0,2.7-.13.52.52,0,0,1,.57.46.5.5,0,0,1-.45.57,22.37,22.37,0,0,1-2.81.13,21.58,21.58,0,0,0-3,.17Z"/><path class="cls-2" d="M103.09,77.89a.52.52,0,1,1,0-1,11,11,0,0,0,1.46-.15c.39-.06.79-.12,1.19-.15a.52.52,0,1,1,.07,1c-.36,0-.72.08-1.11.14A10.58,10.58,0,0,1,103.09,77.89Z"/><path class="cls-2" d="M129.46,70.85a.52.52,0,0,1-.05-1l3.41-.28c2.19-.17,4.46-.34,6.66-.62a.53.53,0,0,1,.58.46.52.52,0,0,1-.45.57c-2.23.28-4.51.46-6.71.63q-1.71.12-3.39.27Z"/><path class="cls-2" d="M135.3,73a32.76,32.76,0,0,1-3.45-.24.52.52,0,0,1-.46-.57.52.52,0,0,1,.57-.46c1.1.11,2.24.23,3.34.23a13.25,13.25,0,0,0,1.73-.11.52.52,0,0,1,.14,1A13.78,13.78,0,0,1,135.3,73Z"/><path class="cls-2" d="M135.53,75.46c-.46,0-.91,0-1.35,0s-.87,0-1.32,0a.52.52,0,1,1,0-1c.47,0,.93,0,1.37,0,.66,0,1.29,0,1.94,0a.52.52,0,1,1,.06,1Z"/><path class="cls-2" d="M139.09,84.16a.52.52,0,0,1-.52-.5l0-.43c0-.76-.07-1.55-.07-2.33,0-.62,0-1.18.07-1.72a.52.52,0,0,1,1,.08c0,.51-.06,1-.06,1.64,0,.76,0,1.5.07,2.29v.43a.51.51,0,0,1-.49.54Z"/><path class="cls-2" d="M137.22,82.19a.53.53,0,0,1-.52-.45.51.51,0,0,1,.45-.58,18,18,0,0,1,2.47-.14h1.59a.52.52,0,1,1,0,1h-1.59a17.25,17.25,0,0,0-2.33.12Z"/><path class="cls-2" d="M110.15,90a.52.52,0,0,1-.51-.46c-.06-.54-.14-1.08-.22-1.61s-.16-1.16-.23-1.75a.55.55,0,0,1,.12-.39.51.51,0,0,1,.38-.18c.42,0,.88,0,1.4,0l1.56,0c.72,0,1.44,0,2.16,0a.53.53,0,0,1,.53.46,29.66,29.66,0,0,1,.23,3.32v.08a.51.51,0,0,1-.15.37.56.56,0,0,1-.37.15h-2.32Zm.14-3.38c0,.39.11.78.16,1.16s.11.78.16,1.17h3.92c0-.78-.09-1.55-.17-2.3-.58,0-1.15,0-1.73,0h-2.34Z"/><path class="cls-2" d="M120,89.82l-.76,0a.51.51,0,0,1-.5-.5c0-.44,0-.87,0-1.3,0-.73,0-1.46,0-2.2a.51.51,0,0,1,.47-.53c.85-.08,1.71-.08,2.54-.09s1.61,0,2.4-.07a.5.5,0,0,1,.39.13.48.48,0,0,1,.17.37l.06,1.44c0,.7.06,1.4.08,2.1a.54.54,0,0,1-.15.38.57.57,0,0,1-.37.16c-.63,0-1.28,0-1.91.06S120.78,89.82,120,89.82Zm-.23-1c.84,0,1.71,0,2.55-.07l1.41,0c0-.52,0-1-.06-1.57,0-.3,0-.61,0-.91-.65,0-1.3,0-1.93,0s-1.32,0-2,0l0,1.72C119.75,88.25,119.76,88.51,119.76,88.78Z"/><path class="cls-2" d="M132.33,90l-1.44,0h-1.61a.52.52,0,0,1-.52-.5c0-.37,0-.76,0-1.21s0-1,0-1.5c0-.31,0-.62,0-.93a.51.51,0,0,1,.47-.51,13.24,13.24,0,0,1,1.48-.07c.45,0,.9,0,1.35,0,.67,0,1.35,0,2,0a.52.52,0,0,1,.54.47c0,.26.05.52.08.77.07.72.15,1.46.15,2.21,0,.25,0,.48,0,.7a.53.53,0,0,1-.47.48C133.77,90,133.12,90,132.33,90Zm-2.55-1.07,1.13,0,1.42,0c.56,0,1,0,1.49,0v-.18a18.37,18.37,0,0,0-.15-2.1l0-.3c-.53,0-1.07,0-1.6,0-.78,0-1.59,0-2.24,0,0,.15,0,.3,0,.46,0,.49,0,1,0,1.48Z"/><path class="cls-2" d="M121.17,85.71h0a.53.53,0,0,1-.5-.54c.07-1.81.09-3.65.12-5.42,0-2.86.08-5.82.3-8.74a.53.53,0,0,1,.56-.48.51.51,0,0,1,.47.56c-.22,2.89-.26,5.83-.29,8.67,0,1.78,0,3.63-.12,5.45A.52.52,0,0,1,121.17,85.71Z"/><path class="cls-2" d="M112.28,86.39h0a.52.52,0,0,1-.49-.54c.06-1.25.09-2.52.12-3.76l.06-2.23a.52.52,0,0,1,.52-.5h19.13a.52.52,0,0,1,.52.52V80c0,.5,0,1,0,1.49s0,1,0,1.49c0,.94,0,1.71-.06,2.41a.51.51,0,0,1-.54.49.52.52,0,0,1-.49-.55c0-.68.05-1.43.05-2.35,0-.5,0-1,0-1.49,0-.34,0-.69,0-1H113c0,.57,0,1.14,0,1.72,0,1.24-.06,2.52-.12,3.78A.52.52,0,0,1,112.28,86.39Z"/><path class="cls-2" d="M114.1,101.88a.52.52,0,0,1-.52-.48l-.06-.65c-.07-.82-.15-1.67-.15-2.5a.52.52,0,0,1,1,0c0,.79.07,1.61.15,2.41v.14c1.55-.12,3.23-.17,5.23-.17h1.11v-.16a32.46,32.46,0,0,0-.37-4.16c-.09-.66-.18-1.34-.25-2a.53.53,0,0,1,.47-.57.52.52,0,0,1,.57.46c.06.66.15,1.34.24,2a33.85,33.85,0,0,1,.38,4.29c0,.24,0,.47,0,.7a.52.52,0,0,1-.52.5H119.8c-2.19,0-4,.06-5.66.2Z"/><path class="cls-2" d="M117.77,101.22a.52.52,0,0,1-.51-.4,16.61,16.61,0,0,1-.31-3.88.52.52,0,0,1,1,0,15.67,15.67,0,0,0,.28,3.64.52.52,0,0,1-.38.63Z"/><path class="cls-2" d="M125.16,109.63a.51.51,0,0,1-.51-.47c-.12-1.33-.18-2.67-.24-4a.52.52,0,0,1,1,0c0,1.28.11,2.61.23,3.91a.52.52,0,0,1-.47.57Z"/><path class="cls-2" d="M123,107.66a.51.51,0,0,1-.52-.49.53.53,0,0,1,.49-.55c1.27-.06,2.5-.12,3.67-.12a.53.53,0,0,1,.52.52.52.52,0,0,1-.52.52c-1.15,0-2.37.06-3.62.12Z"/><path class="cls-2" d="M133.44,100.57a2.1,2.1,0,0,1-2.13-2.14,2,2,0,0,1,.3-1,2.15,2.15,0,0,1,3.93.9,2.19,2.19,0,0,1-.59,1.6,2,2,0,0,1-1.49.66Zm-.94-2.63a1.05,1.05,0,0,0,.15,1.28,1.11,1.11,0,0,0,.8.32,1,1,0,0,0,.74-.34,1.14,1.14,0,0,0,.31-.83,1.07,1.07,0,0,0-1.09-.9A1,1,0,0,0,132.5,97.94Z"/><path class="cls-2" d="M115.06,121.37a.5.5,0,0,1-.33-.12,60.38,60.38,0,0,1-4.61-4.26l-1.39-1.36a.52.52,0,0,1,0-.7l1.27-1.55a51,51,0,0,0,3.88-5.15.52.52,0,0,1,.58-.23.53.53,0,0,1,.38.5v0c0,1.3.1,2.6.22,3.81h1c1.4,0,3.25.09,4,.13l.32,0c.36,0,.71,0,1.09,0s.76,0,1.16,0a.52.52,0,1,1,0,1c-.37,0-.75,0-1.11,0s-.75,0-1.14,0H120c-.79,0-2.61-.13-4-.13-.48,0-1,0-1.42,0a.53.53,0,0,1-.53-.47c-.09-.89-.18-1.83-.24-2.79-1,1.36-2,2.64-3,3.89l-1,1.17,1,1c1.17,1.15,2.36,2.34,3.62,3.43v-.08c-.06-1-.13-2-.13-3a.55.55,0,0,1,.55-.52l1,.05c1.43.07,2.91.15,4.35.15,1.08,0,2,0,3-.13a.5.5,0,0,1,.56.47.52.52,0,0,1-.46.57c-.94.08-1.93.13-3,.13-1.47,0-3-.08-4.4-.15l-.41,0c0,.79.06,1.58.11,2.36,0,.43,0,.86.07,1.29a.51.51,0,0,1-.28.49A.46.46,0,0,1,115.06,121.37Z"/><path class="cls-2" d="M118,120.74h-.52a.52.52,0,0,1-.5-.54.53.53,0,0,1,.54-.5c.74,0,1.5,0,2.23-.06s1.19-.06,1.8-.06.9,0,1.31.06a.53.53,0,0,1,.47.57.53.53,0,0,1-.57.47,11.39,11.39,0,0,0-1.21-.06c-.58,0-1.17,0-1.74.06S118.58,120.74,118,120.74Z"/><path class="cls-2" d="M119.09,124.32a.8.8,0,0,1-.72-.86.87.87,0,0,1,.16-.5.51.51,0,0,1,.66-.17.39.39,0,0,1,.15,0,.65.65,0,0,1,.71.7A.86.86,0,0,1,119.09,124.32Z"/><path class="cls-2" d="M106.25,129.38h-.12a2.71,2.71,0,0,1-2.59-2.52,2.78,2.78,0,0,1,2.3-2.83l.35,0a2.89,2.89,0,0,1,2.13.81,2.58,2.58,0,0,1,.79,1.92,2.49,2.49,0,0,1-.79,1.83A3.08,3.08,0,0,1,106.25,129.38Zm0-4.35h-.06l-.23,0a1.75,1.75,0,0,0-1.41,1.77,1.7,1.7,0,0,0,1.59,1.52,2.08,2.08,0,0,0,1.44-.54,1.47,1.47,0,0,0,.46-1.09,1.54,1.54,0,0,0-.48-1.17A1.84,1.84,0,0,0,106.28,125Z"/><path class="cls-2" d="M103.67,134.15a.52.52,0,0,1-.51-.43,6.77,6.77,0,0,1-.08-1c0-2.91,2-4.44,2.71-4.44h.14a.52.52,0,0,1,.53.52.51.51,0,0,1-.5.52h-.11a3.71,3.71,0,0,0-1.73,3.4c0,.12,0,.24,0,.35,1.31-.11,2.64-.16,3.91-.2,0-.16,0-.32,0-.48a3.44,3.44,0,0,0-1.25-3,.52.52,0,1,1,.58-.86,4.32,4.32,0,0,1,1.71,3.83,7.75,7.75,0,0,1-.07,1.06.51.51,0,0,1-.5.45c-1.79,0-3.28.1-4.79.26Z"/><path class="cls-2" d="M90.17,132.29c-1.43,0-3-1.14-3-4.32,0-.19,0-.38,0-.57v-.55a4.58,4.58,0,0,0-1.83-3.76,5.57,5.57,0,0,1-2.12-4.42,7.15,7.15,0,0,1,2.36-4.83A8.18,8.18,0,0,1,92,111.4a9.73,9.73,0,0,1,2.46.5c2,.74,4.24,3.59,4.24,6.93,0,2.6-1.56,3.92-2.93,5.08-1.09.93-2,1.73-2,3,0,.2,0,.41,0,.62s0,.46,0,.69A3.9,3.9,0,0,1,90.17,132.29Zm1.24-19.88c-2.8,0-7.1,2.69-7.1,6.26a4.52,4.52,0,0,0,1.8,3.67,5.62,5.62,0,0,1,2.15,4.51v.57c0,.18,0,.37,0,.55,0,2.05.72,3.28,1.92,3.28a2.85,2.85,0,0,0,2.62-3c0-.21,0-.42,0-.63s0-.46,0-.68c0-1.79,1.22-2.83,2.4-3.83s2.56-2.17,2.56-4.29-1.46-5.19-3.55-6a8.55,8.55,0,0,0-2.2-.45Z"/><path class="cls-2" d="M87.46,119.12a.47.47,0,0,1-.25-.07.51.51,0,0,1-.2-.7,4.29,4.29,0,0,1,2.34-1.77c.41,0,.59.36.76.66s.39.72.67.72.45-.28.75-.7.73-1,1.39-1c.35,0,.5.28.69.62s.62,1.17,1,1.17c.2,0,.22,0,.42-.25l.2-.21a.52.52,0,0,1,.73,0,.51.51,0,0,1,0,.74l-.16.17a1.42,1.42,0,0,1-1.19.59c-1,0-1.56-1-1.89-1.65a5.12,5.12,0,0,0-.34.44,2.07,2.07,0,0,1-1.6,1.13,1.88,1.88,0,0,1-1.59-1.27,3.8,3.8,0,0,0-1.27,1.12A.53.53,0,0,1,87.46,119.12Z"/><path class="cls-2" d="M91.92,126.48c-.8,0-1.6-.07-2.38-.14-.58,0-1.17-.1-1.74-.12a.53.53,0,0,1-.5-.54.52.52,0,0,1,.54-.5c.59,0,1.2.07,1.79.13a19.84,19.84,0,0,0,3,.11.52.52,0,1,1,.08,1C92.48,126.47,92.21,126.48,91.92,126.48Z"/><path class="cls-2" d="M91.34,128.92l-1.22,0c-.65,0-1.29,0-1.92,0a.52.52,0,0,1-.54-.5.52.52,0,0,1,.5-.54c.65,0,1.32,0,2,0h1.2a16.11,16.11,0,0,0,1.67-.07.52.52,0,0,1,.58.45.53.53,0,0,1-.46.58A15.78,15.78,0,0,1,91.34,128.92Z"/><path class="cls-2" d="M76.72,142.16a.52.52,0,0,1-.52-.52c0-1.32-.09-2.61-.2-3.8a.53.53,0,0,1,.14-.4.52.52,0,0,1,.38-.17h.59c.86,0,1.74,0,2.59-.06,0-.29,0-.58,0-.87,0-.85,0-1.73,0-2.59a.51.51,0,0,1,.47-.52c.34,0,.7,0,1.12,0l1,0,1.09,0c0-.47-.06-.94-.09-1.4-.06-.84-.12-1.7-.12-2.57a.54.54,0,0,1,.52-.54l1.08,0h1c.49,0,.89,0,1.25,0a.52.52,0,1,1,.08,1c-.39,0-.82.05-1.33.05h-1.6c0,.67.06,1.34.11,2s.09,1.3.11,2a.51.51,0,0,1-.5.53c-.56,0-1.11,0-1.67,0s-1.07,0-1.51,0l0,2.09,0,1.36a.53.53,0,0,1-.47.53c-1.06.1-2.16.1-3.2.1.09,1.06.16,2.18.16,3.33A.52.52,0,0,1,76.72,142.16Z"/><path class="cls-2" d="M82.21,142.56a.52.52,0,0,1-.16-1,13.6,13.6,0,0,1,2.87-.5,6.2,6.2,0,0,0,2-.39.52.52,0,0,1,.72.14.53.53,0,0,1-.15.72,6.07,6.07,0,0,1-2.49.56,13.49,13.49,0,0,0-2.64.45A.51.51,0,0,1,82.21,142.56Z"/><path class="cls-2" d="M90.78,140.6a.83.83,0,0,1-.47-1.48.67.67,0,0,1,.41-.13c.39,0,.93.23.93.74a.75.75,0,0,1-.61.81l-.07,0Zm-.17-.85a.43.43,0,0,0,.13.28h0l-.1-.37A.31.31,0,0,0,90.61,139.75Zm.17,0V140a.26.26,0,0,0,.15-.07Zm0,0,.16.2a.21.21,0,0,0,.09-.17.24.24,0,0,0-.25-.22Z"/><path class="cls-2" d="M94.5,139.28a.52.52,0,0,1-.09-1,13.89,13.89,0,0,0,5.92-2.53.52.52,0,1,1,.63.83,14.81,14.81,0,0,1-6.36,2.72Z"/><path class="cls-2" d="M81.66,125.16a.51.51,0,0,1-.36-.15,9,9,0,0,1-2.23-6.41.52.52,0,0,1,.52-.52.52.52,0,0,1,.52.52c0,1.4.25,4,1.92,5.67a.53.53,0,0,1,0,.74A.51.51,0,0,1,81.66,125.16Z"/><path class="cls-2" d="M83.64,126.93a.57.57,0,0,1-.56-.58.66.66,0,0,1,.2-.48.51.51,0,0,1,.73,0,.68.68,0,0,1,.2.49A.57.57,0,0,1,83.64,126.93Zm0-1a.47.47,0,0,0-.47.46.35.35,0,0,0,.11.25l.36-.37.37.37a.35.35,0,0,0,.11-.25A.48.48,0,0,0,83.64,125.89Z"/><path class="cls-2" d="M81.85,112.43a.48.48,0,0,1-.38-.17c-.36-.39-.69-.82-1-1.23l-.56-.69a.52.52,0,0,1,.81-.66l.56.71c.33.42.64.81,1,1.18a.52.52,0,0,1,0,.73A.51.51,0,0,1,81.85,112.43Z"/><path class="cls-2" d="M86.27,109.45a.51.51,0,0,1-.5-.38c-.09-.32-.19-.61-.29-.93s-.22-.64-.31-1a.53.53,0,0,1,.37-.64.52.52,0,0,1,.63.37c.09.31.19.61.29.92s.22.64.31,1a.51.51,0,0,1-.36.63A.36.36,0,0,1,86.27,109.45Z"/><path class="cls-2" d="M91.22,108.86h0a.52.52,0,0,1-.48-.55c0-.14,0-.27,0-.4,0-.39,0-.78-.08-1.18l-.06-.61a.52.52,0,0,1,1-.08c0,.2,0,.39,0,.59,0,.41.09.84.09,1.28,0,.16,0,.31,0,.48A.52.52,0,0,1,91.22,108.86Z"/><path class="cls-2" d="M96.05,109.63a.43.43,0,0,1-.19,0,.5.5,0,0,1-.29-.67,5.5,5.5,0,0,1,.36-.73,3.67,3.67,0,0,0,.39-.91.52.52,0,0,1,1,.2,4.41,4.41,0,0,1-.5,1.2c-.11.22-.22.42-.31.62A.5.5,0,0,1,96.05,109.63Z"/><path class="cls-2" d="M99.33,112.14A.48.48,0,0,1,99,112a.5.5,0,0,1,0-.73c.22-.22.45-.43.68-.62l.63-.57a.52.52,0,0,1,.73.73c-.22.22-.45.43-.68.62l-.63.57A.49.49,0,0,1,99.33,112.14Z"/><path class="cls-2" d="M101.72,116a.52.52,0,1,1,0-1c.63,0,1.35,0,2-.06a.52.52,0,1,1,.1,1C103.12,116,102.37,116,101.72,116Z"/><path class="cls-2" d="M72,105.34a.52.52,0,0,1-.44-.26c-.34-.59-1.2-2.09-1.88-3.38a.52.52,0,0,1,.2-.69c.32-.18.63-.37.94-.56a25.5,25.5,0,0,1,2.25-1.24.52.52,0,0,1,.68.23c.34.65.66,1.32,1,2s.51,1.07.77,1.59a.52.52,0,0,1-.2.69c-.58.34-1.19.64-1.78.94l-1.26.65A.55.55,0,0,1,72,105.34Zm-1.17-3.68c.49.9,1,1.85,1.37,2.46l.85-.43c.43-.21.87-.44,1.3-.67-.2-.39-.39-.79-.57-1.17s-.47-1-.72-1.48c-.58.3-1.15.64-1.7,1Z"/><path class="cls-2" d="M51.77,142.88a.51.51,0,0,1-.5-.38.52.52,0,0,1,.36-.64c3.78-1,10.53-6.58,10.53-14.11a16,16,0,0,0-1.43-7.07.51.51,0,0,1,.18-.66c3.51-2.27,6.81-4.43,10.11-6.6a.46.46,0,0,1,.41-.07.51.51,0,0,1,.33.26c2.45,4.64,2.48,6.41,2.53,9.09,0,.69,0,1.46.09,2.37a.52.52,0,1,1-1,.06c-.06-.92-.07-1.71-.09-2.41,0-2.52-.07-4.08-2.14-8.12-3,2-6.06,4-9.25,6a17.38,17.38,0,0,1,1.34,7.11c0,8.06-7.24,14-11.3,15.12Z"/><path class="cls-2" d="M66.87,146.46a.48.48,0,0,1-.34-.13.51.51,0,0,1,0-.73c4.66-5.33,6.74-8.07,7.22-17.25a.52.52,0,0,1,.55-.49.53.53,0,0,1,.49.55c-.5,9.52-2.66,12.36-7.48,17.87A.51.51,0,0,1,66.87,146.46Z"/><path class="cls-2" d="M64.35,118.92a.53.53,0,0,1-.48-.32c-1.13-2.75-2.38-5-6.22-5-.37,0-.75,0-1.12,0s-.78,0-1.17,0c-4.73,0-7.83-8.19-7.85-8.62v0c0-.83,1.12-1.59,2.35-1.59s2.39,1,3.25,1.83c.41.39,1,.92,1.22.92.71,0,2.11-.47,2.11-1.54a5.43,5.43,0,0,0-.08-.78l0-.17c-.69-4.87-4.15-4.91-7.2-5-2.08,0-4.22,0-4.22-2.2s2.59-2.28,5.1-2.28c.67,0,1.06,0,1.43.05s.75,0,1.44,0l1.41,0,1.43,0c6.25,0,11.07,8.84,11.15,9.32a20.07,20.07,0,0,0,2.73,6.61c.61,1.09,1.25,2.22,1.77,3.41a.52.52,0,0,1-1,.42,37.13,37.13,0,0,0-1.72-3.32,21.25,21.25,0,0,1-2.84-6.91C65.51,103,61,95.3,55.72,95.3c-.47,0-.93,0-1.4,0l-1.44,0c-.72,0-1.12,0-1.51,0s-.72,0-1.36,0c-3.23,0-4.06.25-4.06,1.24s.87,1.14,3.19,1.16c2.94,0,7.4.09,8.22,5.84l0,.16a7.3,7.3,0,0,1,.09.94c0,1.68-1.83,2.58-3.15,2.58-.65,0-1.25-.56-1.93-1.21s-1.63-1.54-2.54-1.54a1.57,1.57,0,0,0-1.31.55c.25.84,3.12,7.63,6.81,7.63l1.13,0c.38,0,.77,0,1.16,0,4.84,0,6.2,3.27,7.18,5.67a.5.5,0,0,1-.28.67A.45.45,0,0,1,64.35,118.92Zm1.49-15.17v0Z"/><path class="cls-2" d="M53,116.73h-.09a6.84,6.84,0,0,1-5.68-5.9.53.53,0,0,1,.49-.56.52.52,0,0,1,.55.49,5.77,5.77,0,0,0,4.82,5,.52.52,0,0,1-.09,1Z"/><path class="cls-2" d="M57.49,117.1a.93.93,0,0,1-.91-.89.52.52,0,0,1,.52-.52.49.49,0,0,1,.31.11h.09a.66.66,0,1,1,0,1.31Zm.13-.89Z"/><path class="cls-2" d="M49.3,128h0a2.39,2.39,0,0,1-2.33-2.33,2.44,2.44,0,0,1,.71-1.73,2.35,2.35,0,0,1,1.65-.71,1.83,1.83,0,0,1,.33,0,2.69,2.69,0,0,1,1,.36,2.55,2.55,0,0,1,1.1,2.12A2.41,2.41,0,0,1,49.3,128Zm0-3.73a1.29,1.29,0,0,0-.92.4,1.44,1.44,0,0,0-.41,1,1.34,1.34,0,0,0,1.3,1.3,1.37,1.37,0,0,0,1.38-1.26,1.57,1.57,0,0,0-.59-1.2,1.6,1.6,0,0,0-.59-.22Z"/><path class="cls-2" d="M37.65,132.48a.45.45,0,0,1-.16,0,.52.52,0,0,1-.35-.44c-.06-.67-.17-1.35-.28-2-.06-.41-.13-.83-.19-1.25l-6.83.21a3.67,3.67,0,0,1-.84.12.52.52,0,0,1,0-1,3.45,3.45,0,0,0,.65-.1l.11,0,7.35-.22a.52.52,0,0,1,.53.46c.07.55.16,1.12.25,1.67,0,.31.1.62.14.94l5.66-6.24L37.87,120c0,.52.05,1.06.07,1.56L38,123a.49.49,0,0,1-.14.38.56.56,0,0,1-.37.17h-.17c-.53,0-1.89-.15-3.07-.15-2,0-5.39.16-6,.48a.52.52,0,1,1-.47-.92c1.17-.59,6.29-.59,6.51-.59,1,0,2,.06,2.68.11l0-.84c0-.88-.08-1.86-.13-2.68a.52.52,0,0,1,.84-.44l7.16,5.53a.51.51,0,0,1,.2.36.57.57,0,0,1-.13.4L38,132.31A.52.52,0,0,1,37.65,132.48Z"/><path class="cls-2" d="M41.23,138.51a.52.52,0,0,1-.52-.48c-.12-1.43-.19-2.84-.24-4.08a.52.52,0,0,1,.5-.54.52.52,0,0,1,.54.5c.05,1.23.11,2.62.23,4a.5.5,0,0,1-.47.56Z"/><path class="cls-2" d="M40.47,136.61H39a.52.52,0,0,1-.52-.52.52.52,0,0,1,.52-.52h1.45a14.21,14.21,0,0,0,2.11-.13.52.52,0,0,1,.59.44.51.51,0,0,1-.43.59A15.26,15.26,0,0,1,40.47,136.61Z"/><path class="cls-2" d="M46.24,132.72a.53.53,0,0,1-.52-.52v-.06a.52.52,0,0,1,.52-.52.54.54,0,0,1,.22,0l10-.47a.52.52,0,0,1,0,1l-10.26.48Z"/><path class="cls-2" d="M53,135c-1.2,0-2.41-.08-3.57-.16l-1.88-.11a.53.53,0,0,1-.5-.55.52.52,0,0,1,.55-.49l1.89.11c1.16.08,2.35.16,3.51.16.71,0,1.36,0,2-.09a.52.52,0,1,1,.1,1A19.34,19.34,0,0,1,53,135Z"/><path class="cls-2" d="M50.43,137.62H50a.52.52,0,0,1-.49-.55.53.53,0,0,1,.55-.49,11.78,11.78,0,0,0,1.67,0c.43,0,.89-.07,1.34-.07a.52.52,0,0,1,.52.52.52.52,0,0,1-.52.52c-.42,0-.83,0-1.26.07S50.89,137.62,50.43,137.62Z"/><path class="cls-2" d="M25.6,121.27a.54.54,0,0,1-.32-.11,30.55,30.55,0,0,1-2.83-2.44.58.58,0,0,1-.15-.38.56.56,0,0,1,.17-.37c.65-.6,1.37-1.14,2.06-1.66l.6-.44a.5.5,0,0,1,.69.06,19.08,19.08,0,0,0,2.52,2.4.51.51,0,0,1,.2.38.49.49,0,0,1-.15.4,19.75,19.75,0,0,1-2.18,1.83l-.3.22A.45.45,0,0,1,25.6,121.27Zm-2-2.9c.56.54,1.27,1.14,2,1.73.58-.44,1.13-.86,1.63-1.32a21,21,0,0,1-1.85-1.8l-.23.17C24.63,117.54,24.09,117.94,23.59,118.37Z"/><path class="cls-2" d="M12.8,108h0a2.5,2.5,0,0,1-1.73-.76,2.72,2.72,0,0,1-.74-1.94A2.6,2.6,0,0,1,11.7,103a2,2,0,0,1,.53-.17,2.6,2.6,0,0,1,.39,0,2.66,2.66,0,0,1,1.94.74,2.54,2.54,0,0,1,.79,1.91,2.6,2.6,0,0,1-.79,1.84A2.53,2.53,0,0,1,12.8,108Zm-.64-4.06a1.56,1.56,0,0,0-.82,1.38,1.64,1.64,0,0,0,.45,1.2,1.44,1.44,0,0,0,1,.44h0a1.45,1.45,0,0,0,1-.43,1.62,1.62,0,0,0,.49-1.1,1.57,1.57,0,0,0-1.65-1.6,1,1,0,0,0-.24,0A1.25,1.25,0,0,0,12.16,103.94Z"/><path class="cls-2" d="M10.88,111.7a.51.51,0,0,1-.5-.38,3.94,3.94,0,0,1-.14-1A3.8,3.8,0,0,1,12,107a.53.53,0,0,1,.71.2.51.51,0,0,1-.2.7,2.76,2.76,0,0,0-1.27,2.4c0,.12,0,.23,0,.35.74,0,1.53-.07,2.41-.07h1.22a7.65,7.65,0,0,0-1-2.81l-.23-.45a.52.52,0,1,1,.93-.47c.07.15.15.29.22.44A7.93,7.93,0,0,1,16,110.83c0,.1,0,.21,0,.32a.54.54,0,0,1-.53.48l-1.73,0c-1,0-2,0-2.79.09Z"/><path class="cls-2" d="M22.28,106.91h-.07a3,3,0,0,1-2.1-1,3.2,3.2,0,0,1,.18-4.55,2.43,2.43,0,0,1,1.08-.53l.6-.09a3.41,3.41,0,0,1,2.51.85,2.91,2.91,0,0,1,.94,2.07,3.14,3.14,0,0,1-.94,2.27A3.1,3.1,0,0,1,22.28,106.91Zm-.07-5.08H22a2.36,2.36,0,0,0-.44.07,1.28,1.28,0,0,0-.62.28,2.14,2.14,0,0,0-.69,1.51,2.11,2.11,0,0,0,.58,1.56,1.9,1.9,0,0,0,1.36.62,2.15,2.15,0,0,0,2.15-2.14,1.84,1.84,0,0,0-.6-1.32A2.31,2.31,0,0,0,22.21,101.83Z"/><path class="cls-2" d="M23.37,111.79c-.73,0-1.47,0-2.19,0s-1.43,0-2.15,0a.55.55,0,0,1-.38-.16.57.57,0,0,1-.13-.4c.1-1.37.3-4.23,2.57-5.25a.52.52,0,0,1,.69.25.53.53,0,0,1-.26.69c-1.35.61-1.75,2.16-1.92,3.84.54,0,1.08,0,1.61,0,.71,0,1.44.05,2.16.05.57,0,1.08,0,1.56,0a4.94,4.94,0,0,0-1.9-4,.51.51,0,0,1-.12-.72.52.52,0,0,1,.72-.13,6,6,0,0,1,2.34,5c0,.13,0,.27,0,.41a.52.52,0,0,1-.48.49C24.84,111.77,24.15,111.79,23.37,111.79Z"/><path class="cls-2" d="M35.12,102.24A6,6,0,0,1,30.17,100a3.37,3.37,0,0,1-.69.07c-1.71,0-1.9-1-1.9-1.47A2.9,2.9,0,0,1,29,96.24v-.18a5.68,5.68,0,0,1,2.45-4.83,7.3,7.3,0,0,1,4-1.32c3.44,0,5.67,2.43,5.67,6.2A7.85,7.85,0,0,1,41,97.48a5.75,5.75,0,0,1-1.37,2.81A5.84,5.84,0,0,1,35.12,102.24Zm-4.73-3.39a.51.51,0,0,1,.44.24,4.92,4.92,0,0,0,4.29,2.11,4.78,4.78,0,0,0,4.82-3.91,6.56,6.56,0,0,0,.11-1.18c0-2.5-1.22-5.16-4.63-5.16-1.75,0-5.37,1.25-5.37,5.11,0,.15,0,.3,0,.44a.55.55,0,0,1-.27.49,2,2,0,0,0-1.17,1.56c0,.16,0,.43.86.43a3.47,3.47,0,0,0,.79-.11Z"/><path class="cls-2" d="M30.86,97.84A2.46,2.46,0,0,1,29.17,97a.52.52,0,0,1,0-.73.5.5,0,0,1,.73,0,1.59,1.59,0,0,0,1,.58c.42,0,.9-.57,1.52-1.27a10.22,10.22,0,0,1,6.81-4,.53.53,0,0,1,.58.45.51.51,0,0,1-.45.58,9.14,9.14,0,0,0-6.16,3.62c-.78.89-1.4,1.59-2.27,1.62Z"/><path class="cls-2" d="M36.79,98.85a.44.44,0,0,1-.22,0,.52.52,0,0,1-.25-.69,1.74,1.74,0,0,0,.16-.77,5.63,5.63,0,0,0-.18-1.24,7.9,7.9,0,0,1-.2-1.46,3,3,0,0,1,0-.31.51.51,0,0,1,.56-.47.52.52,0,0,1,.47.56,1.55,1.55,0,0,0,0,.22,6.4,6.4,0,0,0,.18,1.24,7,7,0,0,1,.2,1.46,2.73,2.73,0,0,1-.26,1.22A.53.53,0,0,1,36.79,98.85Z"/><path class="cls-2" d="M30,112.61a.52.52,0,0,1-.52-.48c0-.44-.07-.89-.11-1.32a20.72,20.72,0,0,1-.16-2.25c0-2.52,1.17-6,4.47-7.38a.52.52,0,1,1,.4.95c-3.72,1.6-3.83,5.94-3.83,6.43,0,.71.08,1.44.15,2.14,0,.45.09.91.12,1.36a.52.52,0,0,1-.49.55Z"/><path class="cls-2" d="M41.65,112.11a.52.52,0,0,1-.52-.52c0-.45,0-.91,0-1.35s0-.88,0-1.31c0-6.25-3.55-6.94-3.58-6.94a.52.52,0,0,1-.45-.59.53.53,0,0,1,.59-.44c1.25.18,4.48,2,4.48,8,0,.44,0,.88,0,1.32s0,.89,0,1.34A.51.51,0,0,1,41.65,112.11Z"/><path class="cls-2" d="M36.45,105.33H36.4c-.8-.07-1.36-.12-1.72-.13a.54.54,0,0,1-.5-.47,2.89,2.89,0,0,0-.24-.89,2.92,2.92,0,0,1-.2-1.08,3.2,3.2,0,0,0-.06-.56.52.52,0,0,1,.4-.62.5.5,0,0,1,.61.39,4.13,4.13,0,0,1,.09.74,1.89,1.89,0,0,0,.11.71,4,4,0,0,1,.25.76l.88.08c.16-.89.34-1.78.52-2.64a.52.52,0,0,1,.62-.4.51.51,0,0,1,.4.61c-.21,1-.43,2.05-.6,3.07A.52.52,0,0,1,36.45,105.33Z"/><path class="cls-2" d="M36,113.73h0a.49.49,0,0,1-.37-.2,20.41,20.41,0,0,0-3-3.09.52.52,0,0,1-.16-.56l.06-.2a44.59,44.59,0,0,0,1.29-4.86.52.52,0,0,1,.62-.39.51.51,0,0,1,.39.62c-.61,2.74-1,4-1.26,4.82A21.6,21.6,0,0,1,36,112.45l1.13-1,.87-.74a31.74,31.74,0,0,1-1.51-4.18l-.42-1.32a.52.52,0,1,1,1-.33l.42,1.34a28.8,28.8,0,0,0,1.62,4.38.52.52,0,0,1-.11.61c-.39.36-.79.7-1.18,1s-1,.87-1.5,1.33A.51.51,0,0,1,36,113.73Z"/><path class="cls-2" d="M53.67,89.62a4.18,4.18,0,0,1-2.91-1.21,4,4,0,0,1-1.22-2.89,4.17,4.17,0,0,1,3.82-4.14h.18a4.13,4.13,0,0,1,.22,8.25Zm-.22-7.21a3.13,3.13,0,0,0-2.87,3.11,2.94,2.94,0,0,0,.9,2.15,3.22,3.22,0,0,0,2.26.91,3.09,3.09,0,0,0,2.91-3.11,3,3,0,0,0-.89-2.17,3.12,3.12,0,0,0-2.18-.89Z"/><path class="cls-2" d="M53.46,83.86a.52.52,0,0,1-.51-.43,15.27,15.27,0,0,1-.16-2.19c0-.34,0-.68,0-1a.52.52,0,0,1,.49-.55.51.51,0,0,1,.55.49c0,.36,0,.72,0,1.07a13.66,13.66,0,0,0,.14,2,.51.51,0,0,1-.43.6Z"/><path class="cls-2" d="M53.93,91.32a.53.53,0,0,1-.51-.43,18.65,18.65,0,0,1-.24-3.14.51.51,0,0,1,.52-.51.52.52,0,0,1,.52.51,16.55,16.55,0,0,0,.23,3,.52.52,0,0,1-.42.6Z"/><path class="cls-2" d="M48.33,86.42a.52.52,0,1,1,0-1c1,0,2-.06,3-.12a.52.52,0,0,1,.55.49.51.51,0,0,1-.49.54C50.4,86.36,49.36,86.42,48.33,86.42Z"/><path class="cls-2" d="M56.3,86h-.38a.52.52,0,0,1-.47-.56.51.51,0,0,1,.55-.48,6.68,6.68,0,0,0,1.09,0,8.49,8.49,0,0,1,1.24,0,.52.52,0,0,1,.48.56.53.53,0,0,1-.56.48,6.59,6.59,0,0,0-1.08,0C56.89,85.94,56.6,86,56.3,86Z"/><path class="cls-2" d="M76.31,94.11l-1.47,0h-.36a.51.51,0,0,1-.5-.49c0-.42,0-.88,0-1.44,0-.26,0-.52,0-.78V90.5h-.67c-.85,0-1.7-.05-2.53-.11L70,90.35a.5.5,0,0,1-.49-.49c0-.45-.05-.9-.07-1.35,0-.94-.1-1.9-.17-2.85-1.08,0-2.16,0-3.23,0l-1,0a.52.52,0,0,1-.52-.46c-.11-1-.13-1.94-.15-2.88,0-.33,0-.66,0-1-.56,0-1.23,0-1.87,0s-1.25,0-1.88,0a.51.51,0,0,1-.53-.5.5.5,0,0,1,.5-.53c.65,0,1.29,0,1.94,0l1.18,0c.42,0,.79,0,1.12,0a.51.51,0,0,1,.38.13.46.46,0,0,1,.17.36c0,.51,0,1,0,1.54,0,.76,0,1.55.09,2.31h.52c1.25,0,2.5,0,3.74,0a.51.51,0,0,1,.51.47c.08,1.12.14,2.25.2,3.35,0,.29,0,.59,0,.89h.27c.81.06,1.65.11,2.46.11.41,0,.79,0,1.14,0a.54.54,0,0,1,.39.13.52.52,0,0,1,.17.38c0,.22,0,.44,0,.66s0,.52,0,.78v.77c0,.34,0,.63,0,.9.44,0,.88,0,1.32,0a13.56,13.56,0,0,0,2.29-.17.52.52,0,0,1,.18,1A13.71,13.71,0,0,1,76.31,94.11Z"/><path class="cls-2" d="M88.46,75.56a2.23,2.23,0,0,1-1.54-.67,2,2,0,0,1-.07-2.77,2,2,0,0,1,.46-.36,2.32,2.32,0,0,1,1-.29,2.23,2.23,0,0,1,1.63.62,2,2,0,0,1,.61,1.46,2.18,2.18,0,0,1-2.08,2Zm0-3h0a1.23,1.23,0,0,0-.56.16.78.78,0,0,0-.2.16,1,1,0,0,0-.25.6,1,1,0,0,0,.3.73,1.16,1.16,0,0,0,.82.36,1.13,1.13,0,0,0,1-1,1,1,0,0,0-.29-.71A1.21,1.21,0,0,0,88.41,72.51Z"/><path class="cls-2" d="M68.85,78.77a.57.57,0,0,1-.22,0,.52.52,0,0,1-.29-.41c-.07-.46-.12-.93-.18-1.4-.08-.69-.16-1.4-.27-2.09a.53.53,0,0,1,.26-.53.5.5,0,0,1,.58,0,14.44,14.44,0,0,0,2.81,1.78.52.52,0,0,1,.29.43.5.5,0,0,1-.23.46l-.56.39c-.62.43-1.26.87-1.91,1.28A.46.46,0,0,1,68.85,78.77Zm.24-2.86c0,.3.07.59.1.89s0,.38.07.57l1-.71C69.84,76.4,69.43,76.15,69.09,75.91Z"/><path class="cls-2" d="M76.49,85.47a.5.5,0,0,1-.4-.19L74,82.8c-1.38-1.64-2.82-3.33-4.18-5a.52.52,0,0,1,.82-.65c1.35,1.71,2.77,3.39,4.15,5,.71.83,1.41,1.65,2.1,2.49a.51.51,0,0,1-.06.73A.54.54,0,0,1,76.49,85.47Z"/><path class="cls-2" d="M70.45,64.52a.53.53,0,0,1-.52-.49c0-.17,0-.33,0-.49,0-.43,0-.85,0-1.26s0-.81,0-1.2A8.55,8.55,0,0,0,70,60a.52.52,0,0,1,.44-.58.51.51,0,0,1,.58.45,8.57,8.57,0,0,1,.08,1.19c0,.42,0,.84,0,1.25s0,.81,0,1.21c0,.15,0,.29,0,.44a.52.52,0,0,1-.5.54Z"/><path class="cls-2" d="M68.73,62.56a.53.53,0,0,1-.52-.47.51.51,0,0,1,.47-.56,13.68,13.68,0,0,1,1.39-.06h.75c.51,0,1,0,1.52,0a.53.53,0,0,1,.55.5.52.52,0,0,1-.49.54c-.53,0-1.06,0-1.59,0h-.74a12.05,12.05,0,0,0-1.29.05Z"/><path class="cls-2" d="M59.14,72.88h0c-1.18-.06-2.37-.07-3.52-.07H53.73a.53.53,0,0,1-.47-.3.51.51,0,0,1,.07-.54l.2-.25c.72-.9,1.54-1.93,1.54-2.75s-.39-1.1-1.33-1.52c-1.44-.64-3.41-1.52-3.41-6.4v-.33a.51.51,0,0,1,.49-.51L56,59.94l4.93-.24a.52.52,0,0,1,.54.45c.16,1.2.37,3.1.37,3.3a4,4,0,0,1-1.47,2.64,4.74,4.74,0,0,0-1.7,3.3,4.68,4.68,0,0,0,.88,2.66.52.52,0,0,1-.42.83ZM54.8,71.77h.8l2.61,0a5.74,5.74,0,0,1-.56-2.41,5.67,5.67,0,0,1,2-4c.63-.68,1.18-1.26,1.18-1.93,0-.15-.15-1.5-.3-2.69L56.06,61l-4.7.23c0,4.06,1.51,4.71,2.8,5.28.91.41,1.94.87,1.94,2.47A5,5,0,0,1,54.8,71.77Z"/><path class="cls-2" d="M51,68.47a.54.54,0,0,1-.45-.26.53.53,0,0,1,.19-.71c.51-.29.86-.66.86-.9s-.41-.27-1.26-.34c-1.26-.11-3.15-.27-3.15-2.43a3.26,3.26,0,0,1,3.45-3.26.52.52,0,0,1,.46.57.52.52,0,0,1-.57.46,2.24,2.24,0,0,0-2.3,2.23c0,1.09.7,1.27,2.2,1.39.93.08,2.21.19,2.21,1.38,0,.88-.87,1.5-1.38,1.8A.48.48,0,0,1,51,68.47Z"/><path class="cls-2" d="M60.66,67.39a.59.59,0,0,1-.23,0,1.58,1.58,0,0,1-.66-1.12.93.93,0,0,1,.3-.62,4.75,4.75,0,0,1,1.74-.87c1.14-.39,1.78-.66,1.78-1.59A2.18,2.18,0,0,0,61.16,61a.52.52,0,0,1-.58-.45A.51.51,0,0,1,61,60l.39,0a3.24,3.24,0,0,1,3.21,3.19c0,1.72-1.38,2.19-2.48,2.57a4.42,4.42,0,0,0-1.29.58l.08.14a.51.51,0,0,1,.18.67A.5.5,0,0,1,60.66,67.39Zm.23-1Z"/><path class="cls-2" d="M79.52,49.23A4.31,4.31,0,0,1,78,48.86l-.11,0a1.47,1.47,0,0,1-.58-.3c-.21-.19-.38-.39-.55-.57a3.28,3.28,0,0,0-.8-.74,3.5,3.5,0,0,0-1.2-.36c-.66-.13-1.58-.3-1.58-1.23a4.51,4.51,0,0,1,0-.54,3.17,3.17,0,0,0,0-.41c0-.31-.18-.48-.52-.76a1.77,1.77,0,0,1-.82-1.37c0-1.59,2.78-4.17,4.13-4.17l.38,0h.41c2.61,0,5.25,2.27,5.25,6.6C82.05,47.08,81.27,49.23,79.52,49.23ZM78.35,47.9a3.53,3.53,0,0,0,1.17.29c1.09,0,1.49-2,1.49-3.24,0-3.65-2.12-5.57-4.21-5.57l-.35,0H76c-.73,0-3.1,2.08-3.1,3.14,0,.18.13.31.45.57a2,2,0,0,1,.9,1.56,4.55,4.55,0,0,1,0,.53,3.29,3.29,0,0,0,0,.42,2.31,2.31,0,0,0,.73.21,4.56,4.56,0,0,1,1.54.48,4.22,4.22,0,0,1,1,1c.16.17.3.34.47.49l.19.07Z"/><path class="cls-2" d="M79.58,44.05a1.47,1.47,0,0,1-1.52-1.23l0,0a16.44,16.44,0,0,0-2.52.46,19.48,19.48,0,0,1-2.44.47.52.52,0,0,1-.11-1,16.17,16.17,0,0,0,2.31-.44,15.56,15.56,0,0,1,3.1-.51.51.51,0,0,1,.49.31c.07.16.12.31.17.45.17.5.18.53.54.53a4.72,4.72,0,0,0,1.62-.4.52.52,0,1,1,.47.93A5.76,5.76,0,0,1,79.58,44.05Z"/><path class="cls-2" d="M75.79,71.32a.51.51,0,0,1-.5-.41A11.32,11.32,0,0,1,75,68.53a12.52,12.52,0,0,1,2.15-6.65A8.1,8.1,0,0,0,78.65,58c0-1.89-.51-4-1.19-4a86.36,86.36,0,0,0-9,1.9,23,23,0,0,1-2.58.59A1.94,1.94,0,0,1,64,54.36c0-2.07,1.7-2.28,4-2.58a24.44,24.44,0,0,0,10.22-3.25.53.53,0,0,1,.71.18.52.52,0,0,1-.18.71,25.36,25.36,0,0,1-10.62,3.39c-2.55.33-3.15.51-3.15,1.55a.93.93,0,0,0,.82,1c.21,0,1.26-.29,2.36-.56a75.71,75.71,0,0,1,9.21-1.92c2.17,0,2.23,4.53,2.23,5a9,9,0,0,1-1.6,4.44,11.52,11.52,0,0,0-2,6.13,10.31,10.31,0,0,0,.15,1.74c1.15,0,2.54-.1,4-.13a11.94,11.94,0,0,1-.12-1.67,12.27,12.27,0,0,1,2.76-7.24.53.53,0,0,1,.43-.22.51.51,0,0,1,.42.24,14.64,14.64,0,0,0,8.48,5.81c.23-1,.49-2,.76-3a14.72,14.72,0,0,1-7.16-12.39.52.52,0,0,1,.19-.43.54.54,0,0,1,.46-.1A29.66,29.66,0,0,1,95.14,55a.73.73,0,0,0,.06-.28c0-3.28-6.27-6.38-12.91-6.38-.43,0-.87,0-1.3,0a.52.52,0,0,1,0-1c.45,0,.9,0,1.34,0,6.58,0,13.95,3.17,13.95,7.41a1.28,1.28,0,0,1-1.14,1.39.51.51,0,0,1-.3-.09,28.51,28.51,0,0,0-8-3.67,13.68,13.68,0,0,0,7,11A.52.52,0,0,1,94,64c-.36,1.22-.68,2.47-1,3.82a.53.53,0,0,1-.23.33.51.51,0,0,1-.4.07,16.14,16.14,0,0,1-9.19-5.76,10.84,10.84,0,0,0-2.13,6,12.59,12.59,0,0,0,.19,2.09.5.5,0,0,1-.11.42.51.51,0,0,1-.39.19c-1.78,0-3.59.1-5,.15Z"/><path class="cls-2" d="M80.79,51a2.36,2.36,0,0,1-2.18-1.91.52.52,0,0,1,1-.31c.11.36.44,1.18,1.17,1.18,0,0,.22-.12.47-1a.52.52,0,1,1,1,.29C82.12,49.72,81.75,51,80.79,51Z"/><path class="cls-2" d="M83.47,48.19a.51.51,0,0,1-.45-.27.49.49,0,0,1,0-.47l-.1.08a.52.52,0,1,1-.66-.8c2.93-2.39,6.8-2.87,10.2-3a.49.49,0,0,1,.33.11,10.93,10.93,0,0,0,1.72,1.12.53.53,0,0,1,.3.42.55.55,0,0,1-.22.47,13,13,0,0,0-1.09.94l-.41.38a.52.52,0,0,1-.46.12,21.42,21.42,0,0,0-4.49-.48,6.35,6.35,0,0,0-4,1.06c-.16.1-.3.19-.45.27A.45.45,0,0,1,83.47,48.19Zm8.83-3.43a19.06,19.06,0,0,0-7.58,1.6,8.19,8.19,0,0,1,3.4-.61,22.3,22.3,0,0,1,4.44.45l.21-.19.57-.52A12.18,12.18,0,0,1,92.3,44.76Z"/><path class="cls-2" d="M79.41,57.91a.52.52,0,0,1-.1-1c.92-.18,1.84-.32,2.74-.46a35.48,35.48,0,0,0,4.32-.84.52.52,0,0,1,.64.36.53.53,0,0,1-.36.64,36.74,36.74,0,0,1-4.45.86c-.88.14-1.79.28-2.69.46Z"/><path class="cls-2" d="M69.62,55a.51.51,0,0,1-.48-.35,5.77,5.77,0,0,1-.28-1.22,6.88,6.88,0,0,0-.15-.79.5.5,0,0,1,.36-.63.51.51,0,0,1,.64.36,7.86,7.86,0,0,1,.17.9,5.71,5.71,0,0,0,.23,1,.51.51,0,0,1-.31.66A.39.39,0,0,1,69.62,55Z"/><path class="cls-2" d="M92.23,54.09A.53.53,0,0,1,92,54a.52.52,0,0,1-.21-.71c.22-.4.46-.79.7-1.16s.47-.73.67-1.1a.52.52,0,0,1,.7-.21.5.5,0,0,1,.21.7c-.21.41-.46.79-.7,1.17s-.47.73-.67,1.1A.52.52,0,0,1,92.23,54.09Z"/><path class="cls-2" d="M75.71,73.36a.52.52,0,0,1-.46-.29.51.51,0,0,1,.23-.69,8.92,8.92,0,0,1,3-.51,12.53,12.53,0,0,0,2.42-.3.52.52,0,1,1,.3,1,13,13,0,0,1-2.65.35,9.1,9.1,0,0,0-2.64.39A.46.46,0,0,1,75.71,73.36Z"/><path class="cls-2" d="M94.26,69.18h0a.52.52,0,0,1-.5-.54,12.87,12.87,0,0,1,.31-2.08,10.68,10.68,0,0,0,.29-2.13.52.52,0,0,1,1,0,11.89,11.89,0,0,1-.31,2.34,11.9,11.9,0,0,0-.29,1.92A.51.51,0,0,1,94.26,69.18Z"/><path class="cls-2" d="M102.07,62.15l-.14,0c-2.41-.68-5.84-1.73-6.51-1.94a.52.52,0,0,1-.35-.6,54.59,54.59,0,0,1,1.59-5.74c.33-1.06.68-2.15,1-3.24a.51.51,0,0,1,.63-.36l6.5,1.64a.51.51,0,0,1,.38.6,85.26,85.26,0,0,1-2.59,9.3A.51.51,0,0,1,102.07,62.15Zm-5.89-2.81c1.09.33,3.57,1.09,5.55,1.65a83.57,83.57,0,0,0,2.3-8.22L98.5,51.38c-.27.94-.57,1.88-.85,2.79C97.11,55.85,96.57,57.59,96.18,59.34Z"/><path class="cls-2" d="M98.26,61a.5.5,0,0,1-.29-.09.52.52,0,0,1-.14-.72A15.26,15.26,0,0,0,100,53.43a8.66,8.66,0,0,0-.27-2,.53.53,0,0,1,.38-.62.52.52,0,0,1,.63.38,9.51,9.51,0,0,1,.3,2.26,16.24,16.24,0,0,1-2.39,7.37A.52.52,0,0,1,98.26,61Z"/><path class="cls-2" d="M91.26,96c-7.77-.1-8.93-1.17-8.93-8.16,0-1.22,0-2.44.08-3.46a.52.52,0,0,1,.52-.5l22.1.3a.51.51,0,0,1,.51.5v.14c0,.54,0,1.09,0,1.64v.09c0,7,0,9.17-9.38,9.42a.51.51,0,0,1-.54-.5.52.52,0,0,1,.51-.53c8.37-.23,8.37-1.48,8.37-8.39V86.5c0-.42,0-.84,0-1.25L83.43,85c0,.9-.07,1.91-.07,2.92,0,6.43.67,7,7.91,7.12a.52.52,0,0,1,0,1Z"/><path class="cls-2" d="M87.46,84.93h0a.53.53,0,0,1-.48-.56,2.08,2.08,0,0,1,2-1.8,2.53,2.53,0,0,1,1.92,1.23.52.52,0,1,1-.83.63c-.43-.57-.75-.82-1.09-.82a1,1,0,0,0-1,.84A.52.52,0,0,1,87.46,84.93Z"/><path class="cls-2" d="M99.45,85.11a.52.52,0,0,1-.52-.52c0-.31-.39-.86-.8-.86a.84.84,0,0,0-.79.64.52.52,0,0,1-1-.15,1.89,1.89,0,0,1,1.82-1.53,2,2,0,0,1,1.84,1.9A.52.52,0,0,1,99.45,85.11Z"/><path class="cls-2" d="M89.13,83.5a.47.47,0,0,1-.25-.07.51.51,0,0,1-.2-.7,5.49,5.49,0,0,1,4.56-2.93,4.93,4.93,0,0,1,4.31,2.92.52.52,0,1,1-.92.48,3.93,3.93,0,0,0-3.39-2.36,4.45,4.45,0,0,0-3.66,2.4A.5.5,0,0,1,89.13,83.5Z"/><path class="cls-2" d="M104.38,102.92l-20.62-.14a.52.52,0,0,1-.51-.47c-.13-1.53-.17-3.09-.22-4.6s-.08-3-.2-4.48a.51.51,0,0,1,.47-.56.5.5,0,0,1,.56.47c.13,1.52.17,3.06.21,4.54s.08,2.71.18,4.07l19.59.13c0-.49,0-1,0-1.58,0-1,0-1.93,0-2.87s0-1.9,0-2.85c0-.57,0-1.08,0-1.56a.51.51,0,0,1,.5-.53.52.52,0,0,1,.53.5c0,.49,0,1,0,1.59,0,1,0,1.93,0,2.87s0,1.9,0,2.85c0,.76,0,1.44,0,2.08a.49.49,0,0,1-.14.38A.55.55,0,0,1,104.38,102.92Z"/><path class="cls-2" d="M93.19,98h0c-1.33-.11-2.17-.67-2.28-1.54l0-.17c-.11-.83-.22-1.69-.25-2.56a.5.5,0,0,1,.15-.38.46.46,0,0,1,.37-.15l5.18,0a.52.52,0,0,1,.39.17.57.57,0,0,1,.13.4c-.06.63-.09,1.27-.12,1.89v.23c-.07,1.73-1.9,1.92-3,2l-.47,0Zm-1.54-3.76c0,.64.13,1.28.22,1.91l0,.17c0,.37.68.58,1.3.64l.39,0c1.38-.14,2-.33,2.07-1v-.23c0-.46,0-.92.07-1.39Z"/><path class="cls-2" d="M17.45,122.67a.55.55,0,0,1-.34-.13,20.63,20.63,0,0,1-3.27-4.08l-.57-.85a.52.52,0,0,1,.13-.72.51.51,0,0,1,.72.13l.58.86a19.65,19.65,0,0,0,3.1,3.88.52.52,0,0,1,0,.73A.5.5,0,0,1,17.45,122.67Z"/><path class="cls-2" d="M20.15,125.31a.86.86,0,0,1-.9-.83.76.76,0,0,1,0-.15v0a.58.58,0,0,1,.15-.36l0,0a1,1,0,0,1,.23-.22.86.86,0,0,1,1.31.71A.84.84,0,0,1,20.15,125.31Zm-.2-.84a.29.29,0,0,0,.1.09Zm.1-.18h.16A.15.15,0,0,0,20.05,124.29Z"/><path class="cls-2" d="M26.58,131.44a.55.55,0,0,1-.34-.13,27,27,0,0,1-3.92-3.93.52.52,0,1,1,.83-.62,25.27,25.27,0,0,0,3.77,3.76.52.52,0,0,1,0,.74A.5.5,0,0,1,26.58,131.44Z"/><path class="cls-2" d="M33.44,20.14h0a5,5,0,0,1-1.45-.37.52.52,0,0,1-.27-.68.51.51,0,0,1,.68-.27,4.16,4.16,0,0,0,1.14.29.52.52,0,0,1-.05,1ZM36,19.58a.5.5,0,0,1-.45-.26.51.51,0,0,1,.19-.71,3.76,3.76,0,0,0,.92-.72.52.52,0,1,1,.76.71,5,5,0,0,1-1.17.92A.57.57,0,0,1,36,19.58Zm-5.87-1.47a.49.49,0,0,1-.43-.24,4.74,4.74,0,0,1-.6-1.36.5.5,0,0,1,.36-.63.52.52,0,0,1,.64.36,3.79,3.79,0,0,0,.47,1.07.52.52,0,0,1-.16.72A.54.54,0,0,1,30.14,18.11Zm8-1.72h-.08a.52.52,0,0,1-.44-.59,3.67,3.67,0,0,0,0-.66,4.45,4.45,0,0,0,0-.53.52.52,0,0,1,.45-.57.51.51,0,0,1,.58.45,4.44,4.44,0,0,1,0,.63v0a5.66,5.66,0,0,1-.06.82A.52.52,0,0,1,38.19,16.39Zm-8.58-2.13-.15,0a.52.52,0,0,1-.35-.65,4.73,4.73,0,0,1,.64-1.34.52.52,0,1,1,.86.58,4.15,4.15,0,0,0-.51,1.06A.51.51,0,0,1,29.61,14.26Zm7.53-1.6a.53.53,0,0,1-.4-.18,4,4,0,0,0-.89-.76.52.52,0,1,1,.54-.88,5,5,0,0,1,1.14,1,.53.53,0,0,1-.05.73A.55.55,0,0,1,37.14,12.66Zm-4.89-1.22a.52.52,0,0,1-.18-1,5.06,5.06,0,0,1,1.45-.3l0,.51,0,.52h0a4.08,4.08,0,0,0-1.15.25Z"/><path class="cls-2" d="M111.89,20.22a.52.52,0,0,1-.52-.47.53.53,0,0,1,.48-.57,3.3,3.3,0,0,0,1.07-.27.52.52,0,0,1,.69.26.53.53,0,0,1-.27.69,4.25,4.25,0,0,1-1.4.36Zm-2.49-.51a.42.42,0,0,1-.24-.07A4.85,4.85,0,0,1,108,18.8a.52.52,0,0,1,.73-.74,4.28,4.28,0,0,0,.91.67.52.52,0,0,1,.22.7A.53.53,0,0,1,109.4,19.71ZM115,18.22a.6.6,0,0,1-.28-.08.53.53,0,0,1-.16-.72,4.09,4.09,0,0,0,.48-1,.52.52,0,0,1,1,.31,5.39,5.39,0,0,1-.6,1.29A.51.51,0,0,1,115,18.22Zm-7.86-1.52a.51.51,0,0,1-.51-.42,5.26,5.26,0,0,1-.08-.89v-.05a4.19,4.19,0,0,1,0-.5.52.52,0,1,1,1,.12c0,.13,0,.26,0,.39v0a4.14,4.14,0,0,0,.06.7.52.52,0,0,1-.42.6Zm8.33-2.17a.53.53,0,0,1-.49-.34,3.87,3.87,0,0,0-.54-1,.51.51,0,1,1,.82-.62,5,5,0,0,1,.7,1.25.52.52,0,0,1-.31.67A.58.58,0,0,1,115.51,14.53Zm-7.4-1.46a.54.54,0,0,1-.33-.12.51.51,0,0,1-.06-.73,4.67,4.67,0,0,1,1.08-1l.29.43.26.44a3.71,3.71,0,0,0-.84.75A.52.52,0,0,1,108.11,13.07Zm4.72-1.15a.51.51,0,0,1-.17,0,4.53,4.53,0,0,0-1.13-.22.52.52,0,0,1,.07-1,5.19,5.19,0,0,1,1.39.27.52.52,0,0,1-.16,1Z"/><path class="cls-2" d="M105.81,43h-.07a.51.51,0,0,1-.44-.59,5,5,0,0,1,.16-.75.52.52,0,1,1,1,.3,5.29,5.29,0,0,0-.13.6A.51.51,0,0,1,105.81,43Z"/><path class="cls-2" d="M111.79,48.71h-.06a15.63,15.63,0,0,1-1.6-.27.52.52,0,1,1,.23-1c.45.1.94.18,1.5.25a.52.52,0,0,1-.07,1Zm-4.42-1.48a.5.5,0,0,1-.32-.11,4.55,4.55,0,0,1-1.16-1.32.52.52,0,0,1,.19-.71.53.53,0,0,1,.71.19,3.35,3.35,0,0,0,.9,1,.52.52,0,0,1-.32.93Z"/><path class="cls-2" d="M115.62,49h-.05L114.9,49a.52.52,0,0,1-.49-.55.52.52,0,0,1,.56-.48l.7,0a.53.53,0,0,1,.47.57A.52.52,0,0,1,115.62,49Z"/><path class="cls-2" d="M133.27,103.48h0a4.14,4.14,0,0,1-.7-.06.52.52,0,1,1,.17-1,4.9,4.9,0,0,0,.54,0,3.78,3.78,0,0,0,.6,0,.52.52,0,0,1,.15,1A5.81,5.81,0,0,1,133.27,103.48Zm2.94-1.17a.57.57,0,0,1-.38-.16.53.53,0,0,1,0-.74,3.67,3.67,0,0,0,.71-.9.52.52,0,1,1,.9.52,4.88,4.88,0,0,1-.89,1.13A.51.51,0,0,1,136.21,102.31Zm-5.87-.06a.54.54,0,0,1-.36-.14,5.42,5.42,0,0,1-.88-1.14.53.53,0,0,1,.19-.71.52.52,0,0,1,.71.19,4.26,4.26,0,0,0,.71.92.52.52,0,0,1,0,.73A.51.51,0,0,1,130.34,102.25Zm7.31-3.45a.52.52,0,0,1-.52-.51,2.44,2.44,0,0,0,0-.27,3.47,3.47,0,0,0-.17-.85.52.52,0,0,1,.32-.66.53.53,0,0,1,.66.32,4.64,4.64,0,0,1,.23,1.12c0,.11,0,.22,0,.32A.52.52,0,0,1,137.65,98.8Zm-8.7-.06h0a.52.52,0,0,1-.48-.55,5,5,0,0,1,.33-1.42.52.52,0,0,1,.67-.29.51.51,0,0,1,.29.67,3.88,3.88,0,0,0-.25,1.11A.52.52,0,0,1,129,98.74Zm6.89-3.21a.6.6,0,0,1-.28-.08,3.62,3.62,0,0,0-1-.47.52.52,0,1,1,.28-1,4.89,4.89,0,0,1,1.32.59.53.53,0,0,1,.16.72A.51.51,0,0,1,135.84,95.53Zm-5,0a.5.5,0,0,1-.44-.25.51.51,0,0,1,.16-.71A4.19,4.19,0,0,1,132,94a.52.52,0,0,1,.24,1h0a3.29,3.29,0,0,0-1,.42A.53.53,0,0,1,130.87,95.5Z"/><path class="cls-2" d="M99.12,119.31l-.12,0-.64-.12a.51.51,0,0,1-.43-.59.52.52,0,0,1,.59-.44l.71.14a.52.52,0,0,1-.11,1Z"/><path class="cls-2" d="M103.24,121.42a.53.53,0,0,1-.37-.15,6.38,6.38,0,0,0-1.14-.88.53.53,0,0,1-.16-.72.52.52,0,0,1,.71-.17,8.14,8.14,0,0,1,1.32,1,.52.52,0,0,1,0,.74A.53.53,0,0,1,103.24,121.42Z"/><path class="cls-2" d="M104.88,124.78a.5.5,0,0,1-.51-.46,6.17,6.17,0,0,0-.11-.62.52.52,0,0,1,.39-.62.5.5,0,0,1,.62.38,5.86,5.86,0,0,1,.13.75.52.52,0,0,1-.46.57Z"/><path class="cls-2" d="M72.07,115.48a.51.51,0,0,1-.45-.27.52.52,0,0,1,.2-.71q.27-.15.54-.33a.52.52,0,1,1,.6.84,6.18,6.18,0,0,1-.64.4A.45.45,0,0,1,72.07,115.48Z"/><path class="cls-2" d="M74.33,113.42a.52.52,0,0,1-.29-.09.53.53,0,0,1-.13-.73,7,7,0,0,0,.56-.95.52.52,0,0,1,.7-.24.52.52,0,0,1,.24.69,8.14,8.14,0,0,1-.65,1.1A.5.5,0,0,1,74.33,113.42Zm1.28-3.31h-.06a.52.52,0,0,1-.46-.57,4.78,4.78,0,0,0,0-.64c0-.16,0-.31,0-.46a.52.52,0,1,1,1-.08,4.75,4.75,0,0,1,0,.54c0,.24,0,.49,0,.75A.53.53,0,0,1,75.61,110.11Z"/><path class="cls-2" d="M75,106.64a.53.53,0,0,1-.46-.27,4.32,4.32,0,0,0-.34-.53.51.51,0,0,1,.12-.72.51.51,0,0,1,.72.11,6.29,6.29,0,0,1,.41.64.51.51,0,0,1-.2.7A.47.47,0,0,1,75,106.64Z"/><path class="cls-2" d="M52.24,126.5h0l-.7,0a.52.52,0,1,1,.07-1l.69,0a.52.52,0,0,1,.49.55A.53.53,0,0,1,52.24,126.5Z"/><path class="cls-2" d="M55.7,126.6l-1.17,0a.52.52,0,0,1,0-1l1.15,0a.52.52,0,0,1,.52.52A.53.53,0,0,1,55.7,126.6Zm2.3,0a.52.52,0,0,1,0-1l1.15,0a.52.52,0,0,1,0,1Z"/><path class="cls-2" d="M61.46,126.49a.52.52,0,0,1-.52-.5.51.51,0,0,1,.5-.53l.69,0h0a.52.52,0,0,1,0,1Z"/><path class="cls-2" d="M40.65,66.63a.52.52,0,0,1-.49-.35,4.89,4.89,0,0,1-.21-.72.5.5,0,0,1,.38-.62.52.52,0,0,1,.63.38,6.32,6.32,0,0,0,.18.62.53.53,0,0,1-.32.66Z"/><path class="cls-2" d="M47.53,71.53h-.05a11.66,11.66,0,0,1-1.55-.26.53.53,0,0,1-.37-.64.52.52,0,0,1,.63-.37,10.62,10.62,0,0,0,1.39.24.52.52,0,0,1,0,1Zm3-.19a.52.52,0,0,1-.51-.4.51.51,0,0,1,.38-.62,6.68,6.68,0,0,0,1.3-.47.52.52,0,0,1,.69.24.52.52,0,0,1-.24.7,7.19,7.19,0,0,1-1.5.53Zm-7.14-1.26a.52.52,0,0,1-.29-.09,8,8,0,0,1-1.22-1,.52.52,0,0,1,.74-.73,7,7,0,0,0,1.06.88.52.52,0,0,1,.14.72A.51.51,0,0,1,43.35,70.08Z"/><path class="cls-2" d="M54.18,69a.5.5,0,0,1-.33-.12.51.51,0,0,1-.06-.73l.07-.09a2.42,2.42,0,0,1,.5-.51.52.52,0,1,1,.58.86,2.43,2.43,0,0,0-.28.31l-.08.1A.52.52,0,0,1,54.18,69Z"/><path class="cls-2" d="M64.61,21.1a.51.51,0,0,1-.51-.47.52.52,0,0,1,.46-.57,6.43,6.43,0,0,1,.76,0,.52.52,0,0,1,0,1,4.42,4.42,0,0,0-.63,0Z"/><path class="cls-2" d="M70.91,24.9a.53.53,0,0,1-.48-.3,6.52,6.52,0,0,0-.54-1,.53.53,0,0,1,.13-.72.54.54,0,0,1,.73.13,8.23,8.23,0,0,1,.63,1.12.51.51,0,0,1-.47.73Zm-2.27-2.71a.52.52,0,0,1-.29-.09,6,6,0,0,0-.95-.54.51.51,0,0,1-.26-.68.5.5,0,0,1,.68-.26,6.18,6.18,0,0,1,1.12.63.52.52,0,0,1,.13.72A.5.5,0,0,1,68.64,22.19Z"/><path class="cls-2" d="M71.41,27.9h0a.52.52,0,0,1-.46-.57c0-.16,0-.33,0-.49V26.7a.52.52,0,0,1,.51-.53.51.51,0,0,1,.53.51v.16c0,.19,0,.39,0,.59A.51.51,0,0,1,71.41,27.9Z"/></g></g></svg>