<svg xmlns="http://www.w3.org/2000/svg" viewBox="0 0 141.73 143.89"><defs><style>.cls-1{fill:#ffcc80;}.cls-2{fill:#fff;}</style></defs><title>013_w</title><g id="Layer_2" data-name="Layer 2"><g id="Layer_1-2" data-name="Layer 1"><path class="cls-1" d="M34.8,51.31a18.94,18.94,0,0,0,2.81-.86,1.42,1.42,0,0,0-.25-.3c-.16-.71-.25-1.81-.34-2.4-.19-1.26-.31-2.52-.4-3.79-.11-1.65-.57-3.67-2.27-4.05A2.55,2.55,0,0,0,32,38.5c-2.63,0-3.18,2.81-3.36,4.84,0,.41-.07.83-.1,1.24a15.26,15.26,0,0,1-1,1.86,22.4,22.4,0,0,1-2.25,2.87C28.43,50.47,31.66,51.58,34.8,51.31Z"/><path class="cls-1" d="M72,74.86a1.74,1.74,0,0,0-2,2.62.71.71,0,0,0-.81,0,6.45,6.45,0,0,0-1.3,1.72A2.61,2.61,0,0,0,67.45,81a.16.16,0,0,0,.2.12,3.42,3.42,0,0,0,1.26-1.16c.43-.55.93-1,1.32-1.62a.52.52,0,0,0,.07-.53,1.36,1.36,0,0,0,.38.24A1.71,1.71,0,0,0,73,77.5,1.85,1.85,0,0,0,72,74.86Z"/><path class="cls-1" d="M73.45,59.12A3.56,3.56,0,0,0,71.56,59c-.7,0-1.41.05-2.11.05s-1,1.3-.19,1.44a12.66,12.66,0,0,0,2.3.17,3,3,0,0,0,2-.49A.7.7,0,0,0,73.45,59.12Z"/><path class="cls-1" d="M101.51,93.87c0-.37,0-.74,0-1.11a1,1,0,0,0-.53-.85c-.07-.17-.14-.34-.22-.49A.94.94,0,0,0,99.66,91a3.71,3.71,0,0,1-1.15.15.91.91,0,0,0-.75.37,4.64,4.64,0,0,0-.12-.47.64.64,0,0,0-1.22,0h0a.31.31,0,0,0,0,.13,8.74,8.74,0,0,0-.08,3.34c.27,1.23,1.55,1,2.51,1s1.73,0,2.18-.77A.91.91,0,0,0,101.51,93.87ZM97.93,93c.13.23.26.47.4.7l-.39,0A6.06,6.06,0,0,1,97.93,93Z"/><path class="cls-1" d="M95.32,17.82a4,4,0,0,0-3.1,5.23,1.41,1.41,0,0,0,1.57,1c1.92.84,4.75,0,5.27-2.16A3.34,3.34,0,0,0,95.32,17.82Zm-.14,3.91a1.18,1.18,0,0,0-.36-.42,1,1,0,0,1,.27-.52,1.88,1.88,0,0,0,.26,1.11h-.09C95.23,21.84,95.21,21.78,95.18,21.73Z"/><path class="cls-1" d="M86.82,128.75a4.2,4.2,0,0,0-3.95,1.52,1,1,0,0,0-1.52.42,2.42,2.42,0,0,0,.22,2.73c1.45,1.83,4,1.61,5.63.21a3.63,3.63,0,0,0,1.45-2.69A2.36,2.36,0,0,0,86.82,128.75Z"/><path class="cls-1" d="M22.44,98.68a1.22,1.22,0,0,0-1.51-1.15L18.5,98l-.22.08a2.74,2.74,0,0,0-2,.57,1.63,1.63,0,0,0-.41,1.2.9.9,0,0,0,.1.71,7,7,0,0,0,.21.71c0,.47,0,.95,0,1.44a.92.92,0,0,0,.91.9h.37a1.3,1.3,0,0,0,.9.16c.6,1.44.94,3,1.6,4.5a1.22,1.22,0,0,0,1.37.56c1.4-.4,1.83-1.66,1.81-3C23.08,103.46,22.66,101,22.44,98.68Zm-2.83,2.26.16-.68a.84.84,0,0,1,.23,0c.24.08.33.85.37,1.63a1.38,1.38,0,0,0-.27-.08A9.25,9.25,0,0,0,19.61,100.94Z"/><path class="cls-1" d="M129.78,61.84c-1.45-1-3.76-.71-5.42-.79a1.16,1.16,0,0,0-1.2.76A9.23,9.23,0,0,0,121.29,66a4.75,4.75,0,0,0,5.09,5.37,5.59,5.59,0,0,0,5-5.8A4.56,4.56,0,0,0,129.78,61.84Zm-3.81,7c-1.84,0-2.53-1.72-2.26-3.33a7.62,7.62,0,0,1,.5-1.76l.15,0a25.39,25.39,0,0,1,2.9.11c1.13.19,1.47.59,1.49,1.73A3,3,0,0,1,126,68.8Z"/><path class="cls-1" d="M46.4,66.76a.23.23,0,0,0-.35,0,4.49,4.49,0,0,0-.7,2.87c-.1,1.69-.19,3.39-.26,5.08q-.21,4.92-.41,9.84c0,1.24,2,1,1.79-.07.09-3.14.19-6.29.28-9.43,0-1.58.09-3.16.11-4.74C46.87,69.05,47.13,67.79,46.4,66.76Z"/><path class="cls-1" d="M128.87,102.93a5.59,5.59,0,0,0-.92-.45.72.72,0,0,0-.86.41l-.29,0a4.83,4.83,0,0,0,.9-4.3.93.93,0,0,0-.87-.66h-.17a.82.82,0,0,0-.31.07.74.74,0,0,0-.38-.22l-.06-.15c-.29-.66-1.22-.27-1.25.35a7.57,7.57,0,0,1-1.34,5.39.94.94,0,0,0,1.14,1.47h0a.84.84,0,0,0,.55.16l3.32-.22A1,1,0,0,0,128.87,102.93Z"/><path class="cls-2" d="M37.76,24.62h0c-3.11-.29-6.34-.6-9.53-.72a.51.51,0,0,1-.49-.49c-.09-2.47-.15-5-.18-7.44a.52.52,0,0,1,.16-.37.5.5,0,0,1,.37-.14c1.51.05,3,.16,4.49.28,1.86.14,3.78.29,5.67.29a.48.48,0,0,1,.37.17.49.49,0,0,1,.14.38l-.06.8c-.16,2.22-.32,4.51-.38,6.75a.51.51,0,0,1-.51.5ZM28.7,22.89c2.87.13,5.76.39,8.57.66.07-2.09.22-4.2.36-6.25l0-.26c-1.75,0-3.5-.17-5.2-.3-1.28-.09-2.6-.2-3.91-.25C28.57,18.62,28.62,20.76,28.7,22.89Z"/><path class="cls-2" d="M36.18,12.44a.49.49,0,0,1-.39-.19.51.51,0,0,1,.08-.72,20.87,20.87,0,0,1,3.4-2.07l.58-.3a.5.5,0,0,1,.62.11c.57.64,1.18,1.27,1.78,1.88l1.28-1,1.4-1.08a.51.51,0,0,1,.68,0c.58.58,1.2,1.2,1.86,1.79.94-.73,1.9-1.5,2.86-2.29a.51.51,0,0,1,.71.06,9.59,9.59,0,0,0,2.05,1.94.51.51,0,0,1-.55.86,9.6,9.6,0,0,1-1.95-1.76c-1,.78-1.9,1.54-2.83,2.25a.51.51,0,0,1-.64,0c-.69-.59-1.32-1.21-1.91-1.8L44.15,11l-1.63,1.27a.52.52,0,0,1-.68,0L41.63,12c-.55-.56-1.11-1.14-1.66-1.74a1.71,1.71,0,0,1-.23.13,20.09,20.09,0,0,0-3.24,2A.46.46,0,0,1,36.18,12.44Z"/><path class="cls-2" d="M60.88,8.86h-.14a2.1,2.1,0,0,1-2-2.1,2.12,2.12,0,0,1,1.05-1.91,2.64,2.64,0,0,1,1-.33,1.79,1.79,0,0,1,.4,0,2.12,2.12,0,0,1,1.34,3.68A2.34,2.34,0,0,1,60.88,8.86Zm-.56-3.13a1.14,1.14,0,0,0-.54,1,1.08,1.08,0,0,0,1,1.1,1.35,1.35,0,0,0,1-.39,1.16,1.16,0,0,0,.37-.89,1.11,1.11,0,0,0-1.07-1,.55.55,0,0,0-.18,0A1.74,1.74,0,0,0,60.32,5.73Z"/><path class="cls-2" d="M85.77,11.48h0a.51.51,0,0,1-.36-.2c-.72-1-1.57-2.19-2.15-3a.5.5,0,0,1,.08-.67c1.17-1,2.33-1.92,3.46-2.73a.53.53,0,0,1,.39-.09.57.57,0,0,1,.33.22,32.64,32.64,0,0,0,2.2,2.82.55.55,0,0,1,.12.39.5.5,0,0,1-.21.35,40.51,40.51,0,0,0-3.47,2.8A.49.49,0,0,1,85.77,11.48ZM84.31,8.05c.45.65,1,1.45,1.53,2.16.88-.78,1.8-1.49,2.7-2.16C88,7.39,87.44,6.7,86.92,6,86.06,6.62,85.19,7.31,84.31,8.05Z"/><path class="cls-2" d="M98.32,11a.49.49,0,0,1-.38-.18c-.27-.31-.54-.63-.8-.95s-.51-.61-.77-.9a24,24,0,0,0-2.09,1.32.51.51,0,0,1-.72-.11.52.52,0,0,1,.11-.71A26.61,26.61,0,0,1,96,8.06l.26-.15a.5.5,0,0,1,.63.1c.38.41.73.84,1.08,1.25l.47.58c1-.75,2.16-1.48,3.41-2.25a.52.52,0,0,1,.64.1c.4.44.77.91,1.13,1.37a18.93,18.93,0,0,1,1.94-1.26.51.51,0,0,1,.69.21.5.5,0,0,1-.2.69,18,18,0,0,0-1.88,1.21l-.37.26a.5.5,0,0,1-.69-.1l-.23-.29c-.28-.36-.57-.73-.87-1.09-1.23.76-2.32,1.5-3.34,2.25A.5.5,0,0,1,98.32,11Z"/><path class="cls-2" d="M34,20.68c-1,0-2.8-1.48-5.44-3.75l-.67-.58a.51.51,0,0,1-.05-.72.52.52,0,0,1,.72-.06l.67.58c1.4,1.2,4,3.41,4.73,3.51A14.49,14.49,0,0,0,35.65,18c.57-.59,1.21-1.26,1.85-1.84a.51.51,0,1,1,.69.75c-.61.56-1.25,1.22-1.81,1.8C34.94,20.2,34.44,20.68,34,20.68Z"/><path class="cls-2" d="M28.25,23.45a.51.51,0,0,1-.37-.15.53.53,0,0,1,0-.72c.21-.2.42-.41.62-.62a14,14,0,0,1,3.1-2.63.51.51,0,0,1,.7.2.5.5,0,0,1-.2.69,13.16,13.16,0,0,0-2.87,2.45l-.62.63A.51.51,0,0,1,28.25,23.45Z"/><path class="cls-2" d="M37,24.1a.5.5,0,0,1-.41-.19,20.16,20.16,0,0,1-1.9-3.29l-.26-.53a.51.51,0,0,1,.91-.45l.27.53a18.06,18.06,0,0,0,1.79,3.11.5.5,0,0,1-.4.82Z"/><path class="cls-2" d="M19.1,26.24a2.28,2.28,0,0,1-2.32-2.38c0-1.39,1-2.47,1.8-2.47h.49a1.13,1.13,0,0,1,.78.31A2.21,2.21,0,0,1,21.32,24,2.08,2.08,0,0,1,19.1,26.24Zm-.52-3.83a1.51,1.51,0,0,0-.78,1.45,1.27,1.27,0,0,0,1.3,1.36c.8,0,1.2-.42,1.2-1.25a1.2,1.2,0,0,0-.82-1.29.48.48,0,0,1-.25-.14c-.11-.11-.12-.11-.16-.11h-.49Z"/><path class="cls-2" d="M25.79,43.49c-1.55,0-3.11,0-4.62-.08s-3.08-.07-4.63-.07c-4.09,0-4.57-2.51-4.57-4.4a5.25,5.25,0,0,1,1.83-3.89,5.59,5.59,0,0,1,3-1.48,5.34,5.34,0,0,1,2.23-2.93,7.24,7.24,0,0,1,3.63-1.29,2.4,2.4,0,0,1,2.23,1.39,5.35,5.35,0,0,1,1.45-.21,4.94,4.94,0,0,1,5.19,4.9,5.35,5.35,0,0,1-.2,1.42.51.51,0,1,1-1-.28,4.48,4.48,0,0,0,.16-1.14,3.94,3.94,0,0,0-4.17-3.88,4.25,4.25,0,0,0-1.11.16,5.12,5.12,0,0,1,.09,1c0,.79-.4,1.95-1.25,1.95a1.67,1.67,0,0,1-1.47-1.68A2.15,2.15,0,0,1,24,31.12a1.42,1.42,0,0,0-1.27-.75c-1.25,0-4.05,1.13-4.8,3.25a2.67,2.67,0,0,1,2.16,2.65c0,.45,0,1.38-1.27,1.38-1,0-2.1-.77-2.1-2.93v-.1A4.77,4.77,0,0,0,13,38.94c0,2.46,1,3.38,3.55,3.38,1.56,0,3.14,0,4.65.07,2,0,4.13.1,6.2.06a.51.51,0,0,1,0,1Zm-8.08-8.86v.09c0,1.2.4,1.91,1.08,1.91a.76.76,0,0,0,.22,0,1.35,1.35,0,0,0,0-.34A1.65,1.65,0,0,0,17.71,34.63Zm6.59-2.51c-.38.23-.64.52-.64.82a.72.72,0,0,0,.42.65,1.77,1.77,0,0,0,.26-.92A3.39,3.39,0,0,0,24.3,32.12Z"/><path class="cls-2" d="M31.57,56.11a17.59,17.59,0,0,1-9.82-3.21.51.51,0,0,1-.22-.39.49.49,0,0,1,.18-.41c4.26-3.68,4.9-7.47,5.42-10.52s.93-5.49,5-5.49c4.42,0,5.09,4.64,5.68,8.73.49,3.33.94,6.48,3.06,7.33a.49.49,0,0,1,.31.42.51.51,0,0,1-.23.48A17.16,17.16,0,0,1,31.57,56.11Zm-8.7-3.69a16.4,16.4,0,0,0,8.7,2.67,15.77,15.77,0,0,0,8.13-2.44c-2-1.42-2.42-4.6-2.87-7.69-.68-4.74-1.38-7.85-4.67-7.85s-3.52,1.65-4,4.64S27,48.63,22.87,52.42Z"/><path class="cls-2" d="M33.76,51.84a14.93,14.93,0,0,1-6.25-1.1A12.53,12.53,0,0,0,25.08,50a.51.51,0,0,1-.42-.59.52.52,0,0,1,.59-.42,13.27,13.27,0,0,1,2.62.78,14.28,14.28,0,0,0,5.89,1c2.56,0,3.32-.4,3.77-.65A2.13,2.13,0,0,1,38,50a.51.51,0,1,1,.25,1,1.09,1.09,0,0,0-.26.12C37.48,51.35,36.58,51.84,33.76,51.84Z"/><path class="cls-2" d="M32.48,58.22a4.51,4.51,0,0,1-3.63-2.57.51.51,0,1,1,.9-.48,3.55,3.55,0,0,0,2.73,2,1.58,1.58,0,0,0,1.61-1.47.51.51,0,0,1,.26-.6.52.52,0,0,1,.69.23.68.68,0,0,1,.07.32A2.59,2.59,0,0,1,32.48,58.22Z"/><path class="cls-2" d="M9.94,52.34a.51.51,0,0,1-.37-.15c-.52-.55-1-1.12-1.51-1.68l-.6-.69-.83.64a27.93,27.93,0,0,1-2.31,1.69A.52.52,0,0,1,3.61,52a.53.53,0,0,1,.17-.71A26.58,26.58,0,0,0,6,49.66c.4-.31.8-.63,1.22-.94a.51.51,0,0,1,.68.07q.48.52.93,1.05c.37.42.74.85,1.12,1.26,1.35-1.36,2.89-2.76,4.59-4.17a.5.5,0,0,1,.72.06.52.52,0,0,1-.06.72,65.17,65.17,0,0,0-4.89,4.48A.51.51,0,0,1,9.94,52.34Z"/><path class="cls-2" d="M14.87,50.73a.51.51,0,0,1-.51-.51c0-.93,0-1.88.09-2.84h-.7a9.08,9.08,0,0,0-1.52.1.51.51,0,1,1-.17-1,10.51,10.51,0,0,1,1.69-.11H15a.52.52,0,0,1,.38.17.5.5,0,0,1,.12.41,25.71,25.71,0,0,0-.14,3.28A.51.51,0,0,1,14.87,50.73Z"/><path class="cls-2" d="M44,47a5.32,5.32,0,0,1-2-.42.51.51,0,0,1,.4-.94A4.19,4.19,0,0,0,44,46c1,0,2.21-.42,2.21-.93s-.45-.75-1.7-.9c-.87-.1-2.07-.24-2.07-1.34,0-.82,1.29-2.08,2.87-2.08a2.53,2.53,0,0,1,.83.13.5.5,0,0,1,.34.63.51.51,0,0,1-.64.34,1.84,1.84,0,0,0-.53-.08,2.13,2.13,0,0,0-1.85,1.07c0,.18.68.26,1.16.32,1,.12,2.61.3,2.61,1.91C47.26,46.46,45.28,47,44,47Z"/><path class="cls-2" d="M44.7,41.14a.51.51,0,0,1-.5-.41,7.82,7.82,0,0,1-.1-1.51.51.51,0,0,1,1,0,7.1,7.1,0,0,0,.08,1.31.5.5,0,0,1-.4.6Z"/><path class="cls-2" d="M44.87,49.15a.51.51,0,0,1-.5-.45,19.23,19.23,0,0,1-.09-2.26.51.51,0,0,1,1,0,18.87,18.87,0,0,0,.08,2.13.5.5,0,0,1-.44.57Z"/><path class="cls-2" d="M46.11,59.57h-.06a.48.48,0,0,1-.37-.23c-.22-.33-.42-.68-.61-1s-.31-.54-.47-.8c-.36.23-.71.47-1.06.71s-.85.6-1.3.87a.5.5,0,0,1-.7-.16.52.52,0,0,1,.16-.71c.43-.26.83-.54,1.26-.84s1-.69,1.53-1a.5.5,0,0,1,.68.14c.29.42.54.85.78,1.28.09.14.18.29.26.44.76-.68,1.56-1.3,2.34-1.9s1.27-1,1.89-1.5a.52.52,0,0,1,.72,0,.51.51,0,0,1-.06.72c-.63.55-1.29,1.05-1.93,1.54a28.57,28.57,0,0,0-2.7,2.26A.55.55,0,0,1,46.11,59.57Z"/><path class="cls-2" d="M50.51,58a.51.51,0,0,1-.51-.51,11.37,11.37,0,0,1,.2-2l-.31,0a13.56,13.56,0,0,0-1.67-.13.51.51,0,0,1-.51-.51.51.51,0,0,1,.51-.51,14.75,14.75,0,0,1,1.79.14l.84.09a.52.52,0,0,1,.46.62A11.3,11.3,0,0,0,51,57.52.51.51,0,0,1,50.51,58Z"/><path class="cls-2" d="M74,35.17h0a.49.49,0,0,1-.36-.17c-.72-.82-1.5-1.6-2.26-2.32-1.17.73-2.3,1.51-3.29,2.2a.5.5,0,0,1-.66-.07c-.66-.69-1.28-1.38-2-2.17a9.38,9.38,0,0,0-2.83,2.07.5.5,0,0,1-.72.06.51.51,0,0,1-.06-.71,11.18,11.18,0,0,1,3.43-2.49l0,0a.52.52,0,0,1,.63.11c.7.79,1.31,1.46,1.93,2.13,1-.7,2.14-1.48,3.3-2.19a.51.51,0,0,1,.62.06c.75.71,1.53,1.47,2.27,2.27a24.35,24.35,0,0,1,2.45-2,.53.53,0,0,1,.63,0c.75.64,1.52,1.27,2.33,1.9A30.77,30.77,0,0,1,82.06,32a.5.5,0,0,1,.68.11,4.24,4.24,0,0,0,1,1,.51.51,0,0,1,.17.7.53.53,0,0,1-.71.17,4.5,4.5,0,0,1-1-.86,22.05,22.05,0,0,0-2.43,1.83.5.5,0,0,1-.65,0c-.84-.65-1.63-1.29-2.4-1.93a25.57,25.57,0,0,0-2.41,2A.5.5,0,0,1,74,35.17Z"/><path class="cls-2" d="M79.43,25.85H77.34c-13.65,0-14.64-.49-14.64-3.56a4.45,4.45,0,0,1,3.06-4.41c.72-3,4.13-6.55,7.23-6.55a3.36,3.36,0,0,1,3.23,2.13,8.3,8.3,0,0,1,2.09-.28,5.26,5.26,0,0,1,5,5.46,4.07,4.07,0,0,1,0,.5A3.8,3.8,0,0,1,86,22.34C86,24.77,82.69,25.85,79.43,25.85ZM65.63,19a3.55,3.55,0,0,0-1.91,3.29c0,1.13,0,1.56,1.42,1.93,1.69.44,5.11.61,12.2.61h2.09c2.66,0,5.52-.78,5.52-2.49,0-1-1.08-1.89-1.9-2.22A2.89,2.89,0,0,1,81,22.05a1.43,1.43,0,0,1-1.26-1.25c0-1.21,1.76-1.79,2.58-1.85a3.25,3.25,0,0,0,0-.33,4.24,4.24,0,0,0-4-4.44,7.42,7.42,0,0,0-1.77.23,5.13,5.13,0,0,1,.13,1.05c0,1.88-1.07,2.16-1.71,2.16a1.46,1.46,0,0,1-1.5-1.51,2.62,2.62,0,0,1,1.79-2.33A2.38,2.38,0,0,0,73,12.33c-2.48,0-5.39,3-6.15,5.46a2.38,2.38,0,0,1,2,1.94.34.34,0,0,1,0,.1,1.5,1.5,0,0,1-1.55,1.25C65.68,21.08,65.63,19.56,65.63,19Zm15.1,1.8A.67.67,0,0,0,81,21a2.13,2.13,0,0,0,1-1C81.41,20.18,80.76,20.5,80.73,20.78Zm-14.08-2v.12c0,1.14.29,1.14.58,1.14s.52-.16.54-.34A1.48,1.48,0,0,0,66.65,18.8Zm8.91-4a1.61,1.61,0,0,0-1.08,1.35.44.44,0,0,0,.48.48c.26,0,.69,0,.69-1.13A4.62,4.62,0,0,0,75.56,14.76Z"/><path class="cls-2" d="M94.44,25.09h-.12a4.63,4.63,0,0,1-.16-9.24h.17a4.91,4.91,0,0,1,3.51,1.35,4.43,4.43,0,0,1,1.4,3.12,4.64,4.64,0,0,1-1.43,3.35A4.74,4.74,0,0,1,94.44,25.09Zm0-8.23h-.22a3.59,3.59,0,0,0-3.37,3.53,3.55,3.55,0,0,0,3.5,3.68,3.79,3.79,0,0,0,2.74-1.13,3.61,3.61,0,0,0,1.13-2.61,3.43,3.43,0,0,0-1.08-2.4A3.94,3.94,0,0,0,94.44,16.86Z"/><path class="cls-2" d="M93.81,22.3a.53.53,0,0,1-.39-.18,10.41,10.41,0,0,1-.85-1.27c-.14-.25-.28-.48-.43-.7a.52.52,0,0,1,.14-.71.51.51,0,0,1,.71.14c.17.25.32.5.46.75l.34.56.56-.69a10.35,10.35,0,0,0,.7-.88.49.49,0,0,1,.7-.14.5.5,0,0,1,.15.7,9.23,9.23,0,0,1-.77,1A9.25,9.25,0,0,0,94.25,22a.51.51,0,0,1-.39.26Z"/><path class="cls-2" d="M52.22,23.59H52a4.42,4.42,0,0,1-4.32-4.64,4.69,4.69,0,0,1,4.49-4.76h.29a5.3,5.3,0,0,1,2.69.84,4.23,4.23,0,0,1,1.93,3.64,4.82,4.82,0,0,1-1.37,3.57A4.91,4.91,0,0,1,52.22,23.59Zm0-8.39h-.08a3.7,3.7,0,0,0-3.49,3.74A3.4,3.4,0,0,0,52,22.56,3.93,3.93,0,0,0,55,21.5a3.72,3.72,0,0,0,1.07-2.82,3.22,3.22,0,0,0-1.46-2.81,4.37,4.37,0,0,0-2.18-.67Z"/><path class="cls-2" d="M56,20.22a1.44,1.44,0,0,1-1.26-.83,2.74,2.74,0,0,1-.21-.88c-.09-.75-.18-1.52-4-1.52a10.74,10.74,0,0,0-1.62.12.51.51,0,0,1-.58-.42.52.52,0,0,1,.43-.59A11.43,11.43,0,0,1,50.53,16c4.35,0,4.83,1.09,5,2.42a1.73,1.73,0,0,0,.12.54c0,.07.18.31.41.26a.51.51,0,0,1,.6.4.52.52,0,0,1-.4.6A1.24,1.24,0,0,1,56,20.22Z"/><path class="cls-2" d="M51.39,21.43h-.13a1.23,1.23,0,0,0-.39,0c-.39,0-1.22,0-1.22-1.3a4.36,4.36,0,0,1,.14-1,4.36,4.36,0,0,0,.12-.84.51.51,0,1,1,1,0,4.92,4.92,0,0,1-.15,1,4.69,4.69,0,0,0-.11.75,1,1,0,0,0,0,.27h.19a2.87,2.87,0,0,1,.62.06.51.51,0,0,1,.37.62A.5.5,0,0,1,51.39,21.43Zm-.68-1Z"/><path class="cls-2" d="M45.54,36.09a14,14,0,0,1-2.18-.22c-.4-.06-.8-.13-1.2-.17a.5.5,0,0,1-.46-.49c-.06-3-.06-6-.06-8.83a.48.48,0,0,1,.15-.36.51.51,0,0,1,.37-.15c1.23,0,2.49.11,3.71.19,1.38.09,2.82.19,4.2.19h.21a.56.56,0,0,1,.37.16.53.53,0,0,1,.14.38L50.73,28c-.06,1.36-.13,2.77-.15,4.15a.49.49,0,0,1-.51.5.51.51,0,0,1-.51-.52c0-1.39.09-2.81.15-4.18l0-.65c-1.31,0-2.65-.1-3.94-.19-1-.07-2.1-.15-3.14-.18,0,2.51,0,5.16.05,7.84l.81.12a12.83,12.83,0,0,0,2,.21,6.06,6.06,0,0,0,.76,0,.52.52,0,0,1,.58.44.51.51,0,0,1-.44.57A6.58,6.58,0,0,1,45.54,36.09Z"/><path class="cls-2" d="M46.17,27.1a.48.48,0,0,1-.26-.07.51.51,0,0,1-.18-.7,8.64,8.64,0,0,1,5.32-4,.51.51,0,0,1,.62.38.51.51,0,0,1-.38.61,7.62,7.62,0,0,0-4.68,3.55A.54.54,0,0,1,46.17,27.1Z"/><path class="cls-2" d="M48.88,36.11c-1.27,0-3.16-.72-3.16-2.26a2.51,2.51,0,0,1,2.79-2.42,9.51,9.51,0,0,1,1.33.13,8.28,8.28,0,0,0,1.18.12c2.14,0,3.57-1.89,4.79-3.93a.51.51,0,0,1,.88.52c-1.38,2.3-3,4.43-5.67,4.43a8.33,8.33,0,0,1-1.33-.13,8.28,8.28,0,0,0-1.18-.12c-1.71,0-1.76,1.26-1.76,1.4,0,.76,1.26,1.24,2.13,1.24a12.32,12.32,0,0,0,4.62-1.64,7.57,7.57,0,0,0,4.06-6.78c0-1.52-1.87-3-3.54-3.31a.51.51,0,0,1-.41-.6.52.52,0,0,1,.6-.41c2.07.39,4.37,2.26,4.37,4.32C58.58,34.24,50.09,36.11,48.88,36.11Z"/><path class="cls-2" d="M53.06,27.94a.55.55,0,0,1-.38-.16c-.42-.46-.83-1-1.22-1.48-.56-.72-1.4-1.79-1.74-1.79a.51.51,0,1,1,0-1c.84,0,1.59,1,2.54,2.18.24.3.48.61.73.91l.32-.53A18.89,18.89,0,0,1,55,23.49a.52.52,0,0,1,.72-.06.5.5,0,0,1,.06.72,18.15,18.15,0,0,0-1.64,2.43c-.22.37-.45.75-.69,1.13a.52.52,0,0,1-.39.23Z"/><path class="cls-2" d="M54.73,51.08a.54.54,0,0,1-.34-.12.51.51,0,0,1,0-.72c1.31-1.49,2.89-3.12,5.11-3.6a.51.51,0,0,1,.22,1c-1.92.42-3.36,1.91-4.57,3.27A.52.52,0,0,1,54.73,51.08Z"/><path class="cls-2" d="M50.42,50.12a.46.46,0,0,1-.29-.1.51.51,0,0,1-.13-.71A16.3,16.3,0,0,1,60.54,42.5a.52.52,0,0,1,.59.42.51.51,0,0,1-.42.59,15.25,15.25,0,0,0-9.87,6.39A.52.52,0,0,1,50.42,50.12Z"/><path class="cls-2" d="M69.43,44.13a.51.51,0,0,1-.37-.15.51.51,0,0,1,0-.72l1.58-1.53c.51-.48,1-1,1.56-1.51a.52.52,0,0,1,.73,0,.51.51,0,0,1,0,.72c-.54.54-1.07,1-1.58,1.53s-1,1-1.56,1.51A.51.51,0,0,1,69.43,44.13Z"/><path class="cls-2" d="M72.42,43.78a.48.48,0,0,1-.24-.06,6,6,0,0,1-1.64-1.45,6.34,6.34,0,0,0-1.29-1.21.51.51,0,1,1,.53-.86,6.54,6.54,0,0,1,1.52,1.39,5.56,5.56,0,0,0,1.36,1.23.51.51,0,0,1,.21.69A.53.53,0,0,1,72.42,43.78Z"/><path class="cls-2" d="M91,38.69A2.24,2.24,0,0,1,89.43,38a2,2,0,0,1,.49-3.18,1.91,1.91,0,0,1,.78-.21,2.89,2.89,0,0,1,.65,0A2,2,0,0,1,93,36.27a2.19,2.19,0,0,1-.54,1.7,2.12,2.12,0,0,1-1.49.72Zm-.06-3h-.13a1.12,1.12,0,0,0-.39.09,1,1,0,0,0-.22,1.56,1.2,1.2,0,0,0,.8.36,1.1,1.1,0,0,0,.76-.38,1.18,1.18,0,0,0,.29-.92,1.05,1.05,0,0,0-.78-.7Z"/><path class="cls-2" d="M23.94,77.66h0a4.87,4.87,0,0,1-4.73-5,4.35,4.35,0,0,1,2.37-3.88l0,0a5.09,5.09,0,0,1,1.52-.56,7,7,0,0,1,1-.07,4.49,4.49,0,0,1,4.67,4.34,5,5,0,0,1-1.4,3.69A4.76,4.76,0,0,1,23.94,77.66ZM24,69.17a4.9,4.9,0,0,0-.77.06A4,4,0,0,0,22,69.7l0,0a3.34,3.34,0,0,0-1.81,3,3.81,3.81,0,0,0,1.08,2.76,3.74,3.74,0,0,0,2.64,1.17h0a3.7,3.7,0,0,0,2.7-1.17,4,4,0,0,0,1.12-2.93,3.46,3.46,0,0,0-3.66-3.37Z"/><path class="cls-2" d="M24.05,74.72a.58.58,0,0,1-.26-.06,12.69,12.69,0,0,1-1.88-1.42l-.55-.46a.5.5,0,0,1-.07-.71A.52.52,0,0,1,22,72l.56.47a14.2,14.2,0,0,0,1.29,1,10.7,10.7,0,0,1,1.5-2.24.51.51,0,1,1,.75.69,11.62,11.62,0,0,0-1.61,2.51.52.52,0,0,1-.31.25A.34.34,0,0,1,24.05,74.72Z"/><path class="cls-2" d="M36.45,74.64H36.4a2.11,2.11,0,0,1-1.11-3.86,2,2,0,0,1,1-.31,3.73,3.73,0,0,1,.66,0,2.11,2.11,0,0,1,1.65,1.81A2.25,2.25,0,0,1,38,74,2.11,2.11,0,0,1,36.45,74.64Zm0-3.15h-.1a1,1,0,0,0-.51.15,1.06,1.06,0,0,0-.47.87,1,1,0,0,0,1,1.11h0a1.08,1.08,0,0,0,.81-.34,1.2,1.2,0,0,0,.33-.9,1.11,1.11,0,0,0-.78-.87A2.11,2.11,0,0,0,36.46,71.49Z"/><path class="cls-2" d="M25,87.8a.5.5,0,0,1-.43-.77,8.09,8.09,0,0,1,1.81-2,9.59,9.59,0,0,0,1.36-1.34.51.51,0,0,1,.81.63A11.16,11.16,0,0,1,27,85.85a7.55,7.55,0,0,0-1.6,1.7A.5.5,0,0,1,25,87.8Z"/><path class="cls-2" d="M27.77,87.63a.59.59,0,0,1-.22,0,5.91,5.91,0,0,1-2-1.81,7.33,7.33,0,0,0-1.17-1.24.51.51,0,0,1,.62-.81,7.76,7.76,0,0,1,1.34,1.41A5.15,5.15,0,0,0,28,86.65a.51.51,0,0,1,.24.68A.5.5,0,0,1,27.77,87.63Z"/><path class="cls-2" d="M4.77,84.59a2.21,2.21,0,0,1-1.6-.69,2.49,2.49,0,0,1-.65-1.82,2.27,2.27,0,0,1,1.84-2A2.32,2.32,0,0,1,5,80,2.25,2.25,0,0,1,7,81.8a4.44,4.44,0,0,1,0,.82A2.43,2.43,0,0,1,4.77,84.59ZM4.87,81a1.13,1.13,0,0,0-.3,0,1.24,1.24,0,0,0-1,1.09,1.46,1.46,0,0,0,.38,1.07,1.13,1.13,0,0,0,.84.37,1.42,1.42,0,0,0,1.25-1,2.41,2.41,0,0,0,0-.6A1.27,1.27,0,0,0,4.93,81Z"/><path class="cls-2" d="M2.15,70.16A2.53,2.53,0,0,1,1.34,70a1.86,1.86,0,0,0-.31-.1.51.51,0,0,1-.37-.62.51.51,0,0,1,.62-.37,3.24,3.24,0,0,1,.41.13,1.65,1.65,0,0,0,.46.12c.81,0,2-.3,2-1,0-.32-.28-.68-1.09-.68H2.22C.7,67.53,0,66.61,0,66a3.12,3.12,0,0,1,3.2-2.25c.31,0,1.89.05,1.89,1a.51.51,0,0,1-.51.51.52.52,0,0,1-.49-.35,2.47,2.47,0,0,0-.89-.15A2.37,2.37,0,0,0,1,66c.05.13.39.51,1.2.51h.84c1.45,0,2.11.88,2.11,1.7C5.17,69.54,3.6,70.16,2.15,70.16Z"/><path class="cls-2" d="M2.46,64.63A.51.51,0,0,1,2,64.12a3.86,3.86,0,0,0-.15-1.33.52.52,0,0,1,.33-.65.51.51,0,0,1,.64.33A4.84,4.84,0,0,1,3,64.12.5.5,0,0,1,2.46,64.63Z"/><path class="cls-2" d="M3,71.43a.51.51,0,0,1-.51-.51c0-.17,0-.34,0-.51s0-.38,0-.57a.51.51,0,0,1,1,0c0,.17,0,.34,0,.51s0,.38,0,.57A.51.51,0,0,1,3,71.43Z"/><path class="cls-2" d="M74.27,8a2.29,2.29,0,0,1-.81-.18l-.3-.1a.51.51,0,0,1,.25-1,3.1,3.1,0,0,1,.4.13,1.74,1.74,0,0,0,.46.12c.81,0,2-.3,2-.95,0-.31-.29-.68-1.09-.68h-.85c-1.51,0-2.21-.92-2.21-1.54a3.12,3.12,0,0,1,3.19-2.26c.32,0,1.89,0,1.89,1a.51.51,0,0,1-.51.51.5.5,0,0,1-.48-.35,2.73,2.73,0,0,0-.9-.15,2.35,2.35,0,0,0-2.17,1.25c0,.14.39.51,1.19.51h.85c1.45,0,2.11.88,2.11,1.7C77.3,7.43,75.73,8,74.27,8Z"/><path class="cls-2" d="M74.59,2.52A.51.51,0,0,1,74.08,2,3.89,3.89,0,0,0,73.93.67.5.5,0,0,1,74.25,0a.51.51,0,0,1,.65.32A4.93,4.93,0,0,1,75.1,2,.51.51,0,0,1,74.59,2.52Z"/><path class="cls-2" d="M75.16,9.31a.51.51,0,0,1-.51-.51c0-.17,0-.34,0-.51s0-.38,0-.56a.51.51,0,0,1,1,0c0,.16,0,.33,0,.5s0,.38,0,.57A.51.51,0,0,1,75.16,9.31Z"/><path class="cls-2" d="M15.44,70.35h-4a.51.51,0,0,1-.51-.51.51.51,0,0,1,.51-.51h4a.51.51,0,0,1,.51.51A.51.51,0,0,1,15.44,70.35Z"/><path class="cls-2" d="M14.45,73.45c-.6,0-1.19,0-1.77-.07a24,24,0,0,0-2.41,0,.51.51,0,0,1-.53-.48.5.5,0,0,1,.48-.54,23.34,23.34,0,0,1,2.52,0,21.39,21.39,0,0,0,2.41,0,.5.5,0,0,1,.53.48.51.51,0,0,1-.48.54Z"/><path class="cls-2" d="M10.82,76.88h-3a.51.51,0,0,1,0-1h3c1.21,0,2.13,0,3-.11a.51.51,0,0,1,.09,1C13,76.85,12.06,76.88,10.82,76.88Z"/><path class="cls-2" d="M15,94.46A3.41,3.41,0,0,1,11.32,92c-1,0-2.72-.18-2.72-1.48a1.63,1.63,0,0,1,.91-1.46,4.15,4.15,0,0,1-.25-1.46,4.68,4.68,0,0,1,4.54-4.45h.39c4.15,0,6.44,1.82,6.44,5.13C20.63,92,18.35,94.46,15,94.46ZM9.92,90a.62.62,0,0,0-.3.53c0,.07.1.46,2.08.46a.52.52,0,0,1,.5.38A2.45,2.45,0,0,0,15,93.44c3.44,0,4.66-2.79,4.66-5.17,0-2.72-1.83-4.11-5.42-4.11h-.36a3.68,3.68,0,0,0-3.55,3.43,3,3,0,0,0,.52,1.74.51.51,0,0,1-.42.81A.68.68,0,0,1,9.92,90Z"/><path class="cls-2" d="M10.56,90h-.09a.51.51,0,0,1-.41-.59c.36-2,3.74-5,7-5.52a.51.51,0,0,1,.14,1c-3,.42-5.9,3.18-6.17,4.68A.51.51,0,0,1,10.56,90Z"/><path class="cls-2" d="M15.34,91a.51.51,0,0,1-.16-1,1.08,1.08,0,0,0,.23-.1,7.14,7.14,0,0,0-.26-.92,4.9,4.9,0,0,1-.36-1.64,2.09,2.09,0,0,1,0-.25.52.52,0,0,1,.56-.46.51.51,0,0,1,.46.55.86.86,0,0,0,0,.16,4.2,4.2,0,0,0,.31,1.32,7.8,7.8,0,0,1,.33,1.22V90c0,.44-.32.77-.95,1Zm.09-1Z"/><path class="cls-2" d="M14.1,109.63c-3.66,0-7.24-4.27-7.24-8.63,0-3.63,3-6.35,5.86-7.69a.51.51,0,0,1,.43.93c-2.55,1.2-5.27,3.6-5.27,6.76,0,3.77,3.14,7.61,6.22,7.61a1.48,1.48,0,0,0,.76-.19,1.68,1.68,0,0,1,.76-.21.55.55,0,0,1,.25.07,1.55,1.55,0,0,0,.7.18,2,2,0,0,0,2.07-1.72A1.64,1.64,0,0,0,17.05,105a1.39,1.39,0,0,0-.94.4,2.73,2.73,0,0,1-1.83.68c-2.66,0-4.51-2.82-4.51-5.35A7.75,7.75,0,0,1,10.35,98a.5.5,0,0,1,.65-.3.51.51,0,0,1,.3.66,6.89,6.89,0,0,0-.51,2.37c0,2,1.49,4.33,3.49,4.33a1.72,1.72,0,0,0,1.21-.47,2.4,2.4,0,0,1,1.56-.61,2.67,2.67,0,0,1,2.61,2.76,3,3,0,0,1-3.09,2.74,2.47,2.47,0,0,1-1.05-.24l-.21.1A2.52,2.52,0,0,1,14.1,109.63Z"/><path class="cls-2" d="M15.41,109.18a.51.51,0,0,1-.48-.35,14.77,14.77,0,0,1-.54-2.52c0-.25-.07-.5-.11-.75a.5.5,0,0,1,.42-.58.52.52,0,0,1,.59.42c0,.25.08.5.11.76a15.31,15.31,0,0,0,.49,2.35.5.5,0,0,1-.32.64A.45.45,0,0,1,15.41,109.18Z"/><path class="cls-2" d="M18,109.42a.51.51,0,0,1,0-1l.95,0c1.41,0,2.86-.09,4.26-.27a46.58,46.58,0,0,1-.23-5.24c0-.65,0-1.29,0-1.94s0-1.29,0-1.94c0-.42,0-.85,0-1.28l-1.58,0c-1,0-1.85,0-2.61-.09-1.45-.08-2.5-.14-2.87.29-.56.66-.22,2.9.57,6.55a.52.52,0,0,1-.4.61.51.51,0,0,1-.6-.39c-.93-4.33-1.2-6.43-.35-7.43.7-.81,1.9-.75,3.71-.65.74,0,1.58.09,2.55.09.75,0,1.42,0,2.06,0a.51.51,0,0,1,.53.5c0,.61,0,1.22,0,1.82s0,1.3,0,2,0,1.29,0,1.93a44.77,44.77,0,0,0,.28,5.61.51.51,0,0,1-.43.57,39.87,39.87,0,0,1-4.87.35l-.94,0Z"/><path class="cls-2" d="M20.21,97.27a.51.51,0,0,1-.47-.31C19,95.21,18.11,94.27,16.88,94a.51.51,0,1,1,.21-1c1.57.33,2.74,1.5,3.59,3.56a.5.5,0,0,1-.28.66A.43.43,0,0,1,20.21,97.27Z"/><path class="cls-2" d="M15,99.05a.46.46,0,0,1-.28-.08,13,13,0,0,1-2-1.8A12.69,12.69,0,0,0,11,95.52a.51.51,0,0,1-.13-.71.5.5,0,0,1,.71-.13,12.49,12.49,0,0,1,2,1.79,11.6,11.6,0,0,0,1.81,1.65.51.51,0,0,1,.14.71A.5.5,0,0,1,15,99.05Z"/><path class="cls-2" d="M17.25,97.54a.46.46,0,0,1-.23-.05.51.51,0,0,1-.23-.69,5.64,5.64,0,0,1,1.3-1.58c.22-.22.43-.42.62-.64a.51.51,0,0,1,.72,0,.52.52,0,0,1,.05.72,9,9,0,0,1-.69.69,5.18,5.18,0,0,0-1.09,1.31A.5.5,0,0,1,17.25,97.54Z"/><path class="cls-2" d="M18.13,116.64a.51.51,0,0,1-.4-.2.5.5,0,0,1,.08-.71c1.05-.83,2.18-1.57,3.27-2.28l.25-.16a.53.53,0,0,1,.65.07l.55.58c.37.39.75.78,1.13,1.16.7-.55,1.42-1.06,2.13-1.57s1.15-.82,1.71-1.24a.51.51,0,0,1,.61.81c-.56.43-1.16.86-1.73,1.26-.81.58-1.66,1.18-2.44,1.82a.51.51,0,0,1-.68,0c-.5-.49-1-1-1.47-1.5l-.25-.27c-1,.67-2.12,1.37-3.1,2.15A.51.51,0,0,1,18.13,116.64Z"/><path class="cls-2" d="M28.16,115.49h0a.5.5,0,0,1-.47-.54c0-.19,0-.41,0-.67s0-.35,0-.53v-.94l-1.1-.14c-.49-.07-1-.14-1.43-.17a.51.51,0,0,1,.07-1c.5,0,1,.11,1.5.17s1,.15,1.53.18a.51.51,0,0,1,.48.55c0,.24,0,.5,0,.83v.53c0,.18,0,.36,0,.54s0,.52,0,.74A.51.51,0,0,1,28.16,115.49Z"/><path class="cls-2" d="M25.06,126a.53.53,0,0,1-.37-.16,37,37,0,0,1-2.56-3.08.5.5,0,0,1,.08-.7c.73-.62,1.51-1.21,2.26-1.79l.93-.72a.51.51,0,0,1,.69.06,15.9,15.9,0,0,1,1.38,1.85c.23.34.47.7.72,1a.5.5,0,0,1-.05.66l-1.31,1.29-1.41,1.4A.55.55,0,0,1,25.06,126Zm-1.82-3.47c.61.8,1.26,1.58,1.83,2.22l1.05-1,1-1-.48-.7c-.34-.5-.66-1-1-1.38l-.55.42C24.47,121.5,23.84,122,23.24,122.48Z"/><path class="cls-2" d="M41.87,118.2c-1.62,0-3.26-.1-4.84-.18L36,118c-.66,0-1.36,0-2,0l-1.81,0a.52.52,0,0,1-.48-.44,9.68,9.68,0,0,1-.11-1.46,4.9,4.9,0,0,1,2.31-4.54c.8-.59,1.21-.94,1.21-1.79s-.4-1-1.16-1.59a4.17,4.17,0,0,1-2.17-3.87,15.44,15.44,0,0,1,.12-1.66c0-.29.07-.57.09-.86a.52.52,0,0,1,.46-.47c1.34-.12,2.76-.18,4.5-.18,1.17,0,2.36,0,3.5,0l2.83,0a.49.49,0,0,1,.49.41l.07.34a13.69,13.69,0,0,1,.39,2.78,5,5,0,0,1-2.23,4.28c-.59.48-.92.77-.92,1.16s.49.75,1,1.18a5.31,5.31,0,0,1,1.59,1.64,9,9,0,0,1,.79,3.81c0,.29,0,.59,0,1a.51.51,0,0,1-.48.48C43.29,118.18,42.61,118.2,41.87,118.2Zm-9.27-1.34,1.34,0c.68,0,1.39,0,2.08,0l1.07.06c1.57.08,3.19.18,4.78.18.55,0,1.06,0,1.56,0v-.43a7.9,7.9,0,0,0-.68-3.34,4.47,4.47,0,0,0-1.3-1.3c-.71-.54-1.45-1.1-1.45-2s.66-1.43,1.29-2a4,4,0,0,0,1.85-3.49,12.93,12.93,0,0,0-.34-2.51l-2.43,0c-1.14,0-2.32,0-3.48,0-1.52,0-2.8,0-4,.14,0,.16,0,.31,0,.47a14.22,14.22,0,0,0-.12,1.54,3.18,3.18,0,0,0,1.73,3,2.86,2.86,0,0,1,1.6,2.43,3,3,0,0,1-1.62,2.61,3.94,3.94,0,0,0-1.9,3.72A7,7,0,0,0,32.6,116.86Z"/><path class="cls-2" d="M32.29,115.32a.52.52,0,0,1-.51-.49.51.51,0,0,1,.49-.53c3.71-.18,7.51-.18,11.2-.18a.51.51,0,1,1,0,1c-3.67,0-7.47,0-11.15.18Z"/><path class="cls-2" d="M34.14,104.58a.51.51,0,0,1-.1-1,28.88,28.88,0,0,1,4.14-.33c.93,0,1.87.06,2.77.11s1.79.11,2.67.11a.51.51,0,1,1,0,1c-.91,0-1.83-.06-2.73-.11s-1.81-.11-2.71-.11a28.31,28.31,0,0,0-3.94.31Z"/><path class="cls-2" d="M47.4,123.25h-.07a2,2,0,0,1-1.15-3.47,2.21,2.21,0,0,1,.8-.39,1.57,1.57,0,0,1,.37,0,2.18,2.18,0,0,1,1.54.59,1.86,1.86,0,0,1,.59,1.32,2,2,0,0,1-.61,1.4A2.14,2.14,0,0,1,47.4,123.25Zm-.58-2.69a.93.93,0,0,0,.55,1.66,1.05,1.05,0,0,0,.78-.31,1,1,0,0,0,.31-.66.86.86,0,0,0-.27-.59,1.13,1.13,0,0,0-.8-.31l-.16,0A1.3,1.3,0,0,0,46.82,120.56Z"/><path class="cls-2" d="M50.43,135.72l-12.92-.07a.51.51,0,0,1-.5-.49c0-.78,0-1.6,0-2.53,0-1.24,0-2.51,0-3.73,0-.94,0-1.87.05-2.81a.5.5,0,0,1,.48-.5c.84-.06,1.74-.09,2.73-.09,1.42,0,2.85.06,4.24.11s2.8.11,4.19.11l1.7,0a.49.49,0,0,1,.37.14.52.52,0,0,1,.16.37c0,.85,0,1.69,0,2.53,0,1,0,2,0,3.06,0,1.3,0,2.39,0,3.41a.49.49,0,0,1-.15.36A.52.52,0,0,1,50.43,135.72ZM38,134.63l11.9.06c0-.87,0-1.81,0-2.9s0-2,0-3.07c0-.66,0-1.33,0-2-.53,0-1,0-1.21,0-1.41,0-2.84,0-4.23-.11s-2.8-.11-4.2-.11c-.79,0-1.51,0-2.2.06,0,.78,0,1.56,0,2.34,0,1.22,0,2.48,0,3.71C38,133.35,38,134,38,134.63Z"/><path class="cls-2" d="M45.06,132.36c-.39,0-1.8-1-4.19-2.81-.51-.4-1-.81-1.43-1.21a16,16,0,0,0-2-1.58.51.51,0,0,1-.15-.7.51.51,0,0,1,.7-.16,17,17,0,0,1,2.1,1.68c.44.39.89.79,1.37,1.17,1,.76,2.94,2.21,3.55,2.54a23.1,23.1,0,0,0,1.76-1.89A37.33,37.33,0,0,1,50,126a.51.51,0,0,1,.66.78,36.51,36.51,0,0,0-3.1,3.26C45.91,132,45.51,132.36,45.06,132.36Z"/><path class="cls-2" d="M37.48,135.29a.49.49,0,0,1-.32-.12.51.51,0,0,1-.07-.72l.79-1a18.06,18.06,0,0,1,3.81-3.8.51.51,0,1,1,.57.85,16.79,16.79,0,0,0-3.59,3.6c-.26.32-.52.65-.79,1A.53.53,0,0,1,37.48,135.29Z"/><path class="cls-2" d="M50.16,134.86a.51.51,0,0,1-.4-.2,31.13,31.13,0,0,0-3-3.23l-.61-.6a.51.51,0,0,1,.72-.72l.6.6a29.42,29.42,0,0,1,3.06,3.34.5.5,0,0,1-.41.81Z"/><path class="cls-2" d="M60.89,132a.51.51,0,0,1-.33-.9c.47-.4,1-.77,1.46-1.13a17.63,17.63,0,0,0,2-1.66.51.51,0,0,1,.72.72,18.78,18.78,0,0,1-2.15,1.76c-.47.35-1,.71-1.4,1.09A.52.52,0,0,1,60.89,132Z"/><path class="cls-2" d="M64.41,132.39a.54.54,0,0,1-.35-.14,35.28,35.28,0,0,1-3-3.3.51.51,0,0,1,.06-.72.52.52,0,0,1,.72.06,36.24,36.24,0,0,0,2.94,3.21.51.51,0,0,1,0,.72A.52.52,0,0,1,64.41,132.39Z"/><path class="cls-2" d="M68.32,121.72l-3.56-.07c-2.43-.05-4.94-.1-7.42-.1h-.59a.48.48,0,0,1-.36-.15c-1.12-1.11-2.17-2.23-3.12-3.33a.51.51,0,0,1-.13-.33V117c0-2.31-.08-4.69-.08-7,0-3,.06-5.39.19-7.7a.52.52,0,0,1,.53-.48c3,.13,6.77.3,10.36.3,1.24,0,2.39,0,3.51-.06a.53.53,0,0,1,.37.14.52.52,0,0,1,.16.37c0,3.88.2,7.82.38,11.64.1,2.32.21,4.71.28,7.06a.5.5,0,0,1-.15.38A.48.48,0,0,1,68.32,121.72Zm-11-1.19c2.49,0,5,0,7.44.1l3,.06c-.07-2.17-.17-4.38-.26-6.51-.17-3.66-.34-7.43-.38-11.16-1,0-2,0-3,0-3.42,0-7-.15-9.9-.28-.1,2.14-.15,4.43-.15,7.14,0,2.35,0,4.73.07,7v.58c.86,1,1.8,2,2.8,3Z"/><path class="cls-2" d="M56.55,121.36a.51.51,0,0,1-.51-.52c0-1.09.06-2.21.11-3.28-.86.1-1.67.18-2.46.24a.49.49,0,0,1-.55-.46.5.5,0,0,1,.46-.55c1-.08,1.95-.19,3-.32a.51.51,0,0,1,.41.13.5.5,0,0,1,.16.4l0,.52c-.06,1.09-.12,2.22-.12,3.33A.51.51,0,0,1,56.55,121.36Z"/><path class="cls-2" d="M62.41,107.09c-.58,0-1.17,0-1.74-.07S59.53,107,59,107a10.78,10.78,0,0,0-1.35.08.52.52,0,0,1-.58-.44.51.51,0,0,1,.44-.57,11.25,11.25,0,0,1,1.49-.09c.59,0,1.18,0,1.75.06a18.65,18.65,0,0,0,2.68,0,.51.51,0,0,1,.55.46.5.5,0,0,1-.46.55C63.16,107.07,62.8,107.09,62.41,107.09Z"/><path class="cls-2" d="M63.62,109.77h0c-.73,0-1.47,0-2.2,0-1.1,0-2.23,0-3.36-.12a.51.51,0,0,1-.46-.56.5.5,0,0,1,.55-.46c1.09.1,2.21.11,3.28.12.74,0,1.49,0,2.24,0a.53.53,0,0,1,.49.54A.51.51,0,0,1,63.62,109.77Z"/><path class="cls-2" d="M63.31,112.63l-.6,0c-.81,0-2.33-.14-3.4-.14-.53,0-1,0-1.56,0a.51.51,0,0,1-.54-.48.52.52,0,0,1,.48-.54c.54,0,1.07,0,1.62,0,1.11,0,2.64.09,3.46.14l.54,0a4.73,4.73,0,0,0,1.06-.11.51.51,0,1,1,.25,1A5.78,5.78,0,0,1,63.31,112.63Z"/><path class="cls-2" d="M63.71,114.79H58.34a.51.51,0,0,1,0-1h5.37a.51.51,0,0,1,0,1Z"/><path class="cls-2" d="M58.1,141.23h0A2,2,0,0,1,57,137.65a1.8,1.8,0,0,1,1-.33,3.09,3.09,0,0,1,.6,0,2,2,0,0,1-.44,3.88Zm0-2.89H58a.8.8,0,0,0-.45.14,1,1,0,0,0-.41.81,1,1,0,0,0,1.66.61.89.89,0,0,0-.39-1.54Z"/><path class="cls-2" d="M75,142.28a.54.54,0,0,1-.22-.05,11.33,11.33,0,0,1-2.88-2.11c-.51.34-1,.71-1.55,1.09l-1,.73a.5.5,0,0,1-.65-.06,11,11,0,0,1-1-1.22c-.29-.37-.73-.94-.91-1a.51.51,0,0,1-.51-.51.52.52,0,0,1,.52-.51c.65,0,1.12.6,1.71,1.37.2.27.41.54.64.81l.66-.47c.62-.45,1.27-.92,1.93-1.34a.5.5,0,0,1,.63.06,11.38,11.38,0,0,0,2.61,2.06c.69-.57,1.53-1.27,2.37-1.94a.51.51,0,0,1,.66,0c.48.42,1,.83,1.49,1.23l.66.53.58-.42c.38-.28.77-.55,1.15-.84a.51.51,0,0,1,.61.82l-1.16.84-.9.66a.53.53,0,0,1-.63,0l-.94-.77c-.4-.32-.81-.65-1.21-1-.83.67-1.65,1.35-2.29,1.88A.49.49,0,0,1,75,142.28Z"/><path class="cls-2" d="M73.47,132.55a3.6,3.6,0,0,1-1.69-.4.52.52,0,0,1-.21-.7.51.51,0,0,1,.69-.2,2.63,2.63,0,0,0,1.21.28,2.07,2.07,0,0,0,1.68-.71c-.19-.49-.75-.61-1.61-.73s-1.9-.28-1.9-1.37c0-.73.64-1.58,2.45-1.58h.53a.51.51,0,1,1,0,1h-.53c-1,0-1.43.33-1.43.56s.22.24,1,.36,2.28.32,2.53,1.74a.52.52,0,0,1-.06.34A3,3,0,0,1,73.47,132.55Z"/><path class="cls-2" d="M84.42,135.49h0a4.89,4.89,0,0,1-4.93-4.72,5,5,0,0,1,4.78-4.92h.14a4.86,4.86,0,0,1,4.94,3.61,3.4,3.4,0,0,1,.09.64,5.1,5.1,0,0,1-5,5.39Zm-.16-8.62a3.93,3.93,0,0,0-3.78,3.89,3.87,3.87,0,0,0,3.92,3.71,4.07,4.07,0,0,0,4-4.31,2.42,2.42,0,0,0-.06-.47A3.91,3.91,0,0,0,84.26,126.87Z"/><path class="cls-2" d="M84.33,132.51a.5.5,0,0,1-.29-.09,13.22,13.22,0,0,1-2.06-2,.51.51,0,0,1,0-.72.52.52,0,0,1,.72,0,15.24,15.24,0,0,0,1.43,1.46c.45-.79,1-1.6,1.55-2.46a.51.51,0,0,1,.71-.13.5.5,0,0,1,.13.71,31.17,31.17,0,0,0-1.78,2.89.54.54,0,0,1-.33.26Z"/><path class="cls-2" d="M74,134.15a.51.51,0,0,1-.51-.51v-1.59a.51.51,0,0,1,1,0v1.59A.51.51,0,0,1,74,134.15Z"/><path class="cls-2" d="M73.47,127.72a.5.5,0,0,1-.45-.28,2.93,2.93,0,0,1-.27-1.26c0-.16,0-.32,0-.47a.5.5,0,0,1,.42-.58.5.5,0,0,1,.58.42,3.94,3.94,0,0,1,.06.58,2.08,2.08,0,0,0,.16.85.51.51,0,0,1-.23.69A.46.46,0,0,1,73.47,127.72Z"/><path class="cls-2" d="M95.3,127.81h-.06a22,22,0,0,0-4.73,0,.51.51,0,0,1-.56-.45.52.52,0,0,1,.45-.57,22.75,22.75,0,0,1,4.95,0,.52.52,0,0,1,.45.57A.51.51,0,0,1,95.3,127.81Z"/><path class="cls-2" d="M92.36,130.56c-.52,0-1,0-1.48,0a.51.51,0,0,1-.5-.53.51.51,0,0,1,.53-.49l1.45,0c1,0,1.94,0,2.89,0s2-.06,3-.06a.51.51,0,0,1,0,1c-1,0-2,0-2.92.06S93.34,130.56,92.36,130.56Z"/><path class="cls-2" d="M90.81,133.35a.51.51,0,0,1,0-1c1-.06,1.92-.07,2.86-.08a27.57,27.57,0,0,0,5.59-.44.51.51,0,0,1,.61.39.52.52,0,0,1-.39.61,28.48,28.48,0,0,1-5.8.46c-.93,0-1.89,0-2.81.07Z"/><path class="cls-2" d="M92.23,122.09a.5.5,0,0,1-.35-.14c-.42-.4-.82-.81-1.21-1.21s-.61-.63-.92-.93a.51.51,0,0,1,0-.72l.57-.6c.56-.59,1.13-1.2,1.73-1.79a.53.53,0,0,1,.37-.15.52.52,0,0,1,.36.16c.68.71,1.41,1.46,2.2,2.14a.53.53,0,0,1,.18.37.51.51,0,0,1-.16.38l-.85.83c-.52.5-1,1-1.55,1.51A.51.51,0,0,1,92.23,122.09Zm-1.41-2.66.58.59.83.84,1.2-1.17.46-.44c-.53-.48-1-1-1.5-1.46l-1.34,1.4Z"/><path class="cls-2" d="M109.78,129.23h-.13a2.29,2.29,0,0,1-2.18-2.23,2.46,2.46,0,0,1,1.61-2.43,2.15,2.15,0,0,1,.67-.13,2.52,2.52,0,0,1,2.57,2.18,2.41,2.41,0,0,1-.74,1.84A2.57,2.57,0,0,1,109.78,129.23Zm0-3.77h0a1.59,1.59,0,0,0-.38.07,1.46,1.46,0,0,0-.92,1.43,1.25,1.25,0,0,0,1.22,1.25,1.52,1.52,0,0,0,1.15-.47,1.41,1.41,0,0,0,.44-1.07A1.52,1.52,0,0,0,109.83,125.46Z"/><path class="cls-2" d="M116.94,121.74a.49.49,0,0,1-.3-.1.5.5,0,0,1-.11-.71,10.89,10.89,0,0,1,1.79-1.8A10.54,10.54,0,0,0,120,117.5a.51.51,0,1,1,.82.6,10.89,10.89,0,0,1-1.79,1.8,10.12,10.12,0,0,0-1.64,1.63A.49.49,0,0,1,116.94,121.74Z"/><path class="cls-2" d="M120.55,121.3a.52.52,0,0,1-.29-.09,29.79,29.79,0,0,1-3.07-2.46l-.76-.65a.51.51,0,0,1,.67-.78l.76.66a29.76,29.76,0,0,0,3,2.38.51.51,0,0,1-.28.94Z"/><path class="cls-2" d="M115.29,98.26a2.12,2.12,0,0,1-2.14-2,2.2,2.2,0,0,1,.16-.85,2.28,2.28,0,0,1,1.19-1.31,1.79,1.79,0,0,1,.71-.16,2.24,2.24,0,0,1,1.57.67,2.15,2.15,0,0,1,.68,1.52A2.21,2.21,0,0,1,115.29,98.26Zm-1-2.47a1.14,1.14,0,0,0-.08.41,1.09,1.09,0,0,0,1.11,1,1.2,1.2,0,0,0,1.16-1.13,1.13,1.13,0,0,0-.38-.78,1.16,1.16,0,0,0-.82-.38,1,1,0,0,0-.33.07A1.29,1.29,0,0,0,114.25,95.79Z"/><path class="cls-2" d="M134,97a.51.51,0,0,1-.38-.16.52.52,0,0,1,0-.73c.34-.3.7-.59,1.05-.87a13.64,13.64,0,0,0,1.64-1.46.51.51,0,0,1,.76.68A14.52,14.52,0,0,1,135.36,96c-.36.29-.69.56-1,.84A.5.5,0,0,1,134,97Z"/><path class="cls-2" d="M137.22,80.7a.5.5,0,0,1-.35-.14,24.18,24.18,0,0,1-2.1-2.25.5.5,0,0,1,.06-.7l.47-.42c.51-.46,1-.93,1.52-1.42a.52.52,0,0,1,.71,0l.62.58,1.45,1.31a.51.51,0,0,1,.18.37.51.51,0,0,1-.15.37c-.84.84-1.52,1.55-2,2.14a.54.54,0,0,1-.36.18ZM135.88,78c.43.5.87,1,1.31,1.41.37-.42.82-.89,1.33-1.41l-1.06-1-.26-.25c-.4.39-.82.76-1.22,1.12Z"/><path class="cls-2" d="M137.62,97.89a.55.55,0,0,1-.32-.1,13.2,13.2,0,0,1-3.77-4.38.51.51,0,0,1,.32-.65.5.5,0,0,1,.64.33A12.78,12.78,0,0,0,137.93,97a.52.52,0,0,1,.09.72A.5.5,0,0,1,137.62,97.89Z"/><path class="cls-2" d="M129,91.43h-1.47c-2.46,0-5,0-7.52-.16a.5.5,0,0,1-.46-.37,7.2,7.2,0,0,1-.29-2A4.85,4.85,0,0,1,121,85.1c.51-.51.78-.8.78-1.24s-.28-.7-.87-1.11a4.07,4.07,0,0,1-2-3.81,14.19,14.19,0,0,1,.11-1.61c0-.24,0-.47.07-.71a.52.52,0,0,1,.48-.47c.85,0,1.77-.05,2.79-.05,1.26,0,2.54,0,3.78.05l2.16,0a.52.52,0,0,1,.5.42,15.2,15.2,0,0,1,.29,2.59,4.18,4.18,0,0,1-1.8,3.83c-.48.37-.64.53-.64.84,0,.69.48,1.17,1.09,1.78a5.13,5.13,0,0,1,1.88,3.89,11.11,11.11,0,0,1-.11,1.45A.51.51,0,0,1,129,91.43Zm-8.56-1.17c2.37.11,4.77.13,7.1.14h1c0-.39.05-.75.05-.86A4.15,4.15,0,0,0,127,86.38a3.52,3.52,0,0,1-1.38-2.5,2,2,0,0,1,1-1.64,3.21,3.21,0,0,0,1.41-3,11.12,11.12,0,0,0-.21-2l-1.74,0c-1.23,0-2.51,0-3.76,0-.83,0-1.59,0-2.3,0l0,.28c0,.5-.1,1-.1,1.5a3.06,3.06,0,0,0,1.57,3,2.33,2.33,0,0,1,1.3,2,2.72,2.72,0,0,1-1.08,2,3.85,3.85,0,0,0-1.43,3.12A6.25,6.25,0,0,0,120.4,90.26Z"/><path class="cls-2" d="M123.09,79.26c-.63,0-1.25,0-1.85,0a.51.51,0,0,1,0-1c.6,0,1.22,0,1.84,0,1.56,0,3.22,0,5.39-.14a.5.5,0,0,1,.54.48.53.53,0,0,1-.49.54C126.34,79.22,124.67,79.26,123.09,79.26Z"/><path class="cls-2" d="M122.51,89.64c-.48,0-1,0-1.45,0a.5.5,0,0,1-.49-.52.5.5,0,0,1,.51-.5c2.28.06,4.6,0,6.84-.13l1.08,0a.51.51,0,0,1,.53.49.5.5,0,0,1-.49.53l-1.08,0C126.18,89.56,124.33,89.64,122.51,89.64Z"/><path class="cls-2" d="M112.38,85.32a5.18,5.18,0,0,1-1.93-.38.51.51,0,0,1-.28-.66.52.52,0,0,1,.66-.29,4.15,4.15,0,0,0,1.55.3c1,0,2.31-.46,2.31-.92a.54.54,0,0,0-.41-.58,3.29,3.29,0,0,0-1-.12h-.45a4.46,4.46,0,0,1-1.91-.33,1.23,1.23,0,0,1-.8-1.12c0-1.08,1.5-2,3.22-2a4.13,4.13,0,0,1,1.25.2.51.51,0,0,1,.34.64.5.5,0,0,1-.64.33,3.08,3.08,0,0,0-.95-.14c-1.35,0-2.2.7-2.2,1,0,.06.09.14.22.2a3.4,3.4,0,0,0,1.47.23h.44a4.25,4.25,0,0,1,1.41.18,1.56,1.56,0,0,1,1.08,1.54C115.71,84.83,113.42,85.32,112.38,85.32Z"/><path class="cls-2" d="M112.89,87.16a.51.51,0,0,1-.51-.51V85.07a.51.51,0,1,1,1,0v1.58A.51.51,0,0,1,112.89,87.16Z"/><path class="cls-2" d="M112.72,79.68a.51.51,0,0,1-.46-.28A3,3,0,0,1,112,78a.51.51,0,0,1,1,0,2.24,2.24,0,0,0,.12.91.51.51,0,0,1-.23.69A.59.59,0,0,1,112.72,79.68Z"/><path class="cls-2" d="M122.68,105.66a.5.5,0,0,1-.5-.46,2.82,2.82,0,0,1,0-.41,3.84,3.84,0,0,1,1.31-3.29c0-.84-.07-1.68-.09-2.5,0-.6,0-1.21,0-1.81a.5.5,0,0,1,.14-.37.52.52,0,0,1,.37-.16h0a18.39,18.39,0,0,1,2.87.31l1,.15a.51.51,0,0,1,.44.49c0,1.46.1,2.7.23,3.94a4.54,4.54,0,0,1,2,3.47.51.51,0,0,1-.5.53l-3.06,0C125.49,105.61,124.08,105.62,122.68,105.66Zm1.69-8,0,1.29c0,.9,0,1.84.11,2.75a.52.52,0,0,1-.26.48,2.68,2.68,0,0,0-1.07,2.42l3.65-.06,2.48,0a3.64,3.64,0,0,0-1.64-2.25.48.48,0,0,1-.25-.38c-.14-1.24-.21-2.45-.26-3.84l-.57-.1C125.86,97.86,125.1,97.73,124.37,97.69Z"/><path class="cls-2" d="M126.2,110.59a.5.5,0,0,1-.47-.31c-.32-.73-.58-1.56-.84-2.36a14.81,14.81,0,0,0-.92-2.46.51.51,0,0,1,.9-.49,15.3,15.3,0,0,1,1,2.64l.27.85.09-.28c.28-.91.57-1.86.77-2.8a.51.51,0,1,1,1,.2c-.21,1-.51,2-.8,2.91-.17.56-.36,1.15-.51,1.73a.5.5,0,0,1-.46.37Z"/><path class="cls-2" d="M126.64,72.47a6.3,6.3,0,0,1-4.54-1.9,6.55,6.55,0,0,1-1.84-5,5.88,5.88,0,0,1,4.59-5.38,6,6,0,0,1,1-.14,6.59,6.59,0,0,1,4.81,1.74A5.89,5.89,0,0,1,132.6,66c.07,3-2.09,6.32-5.7,6.46Zm-1.58-11.3a4.84,4.84,0,0,0-3.78,4.44,5.57,5.57,0,0,0,1.55,4.25,5.31,5.31,0,0,0,4,1.59A5.17,5.17,0,0,0,131.58,66,5,5,0,0,0,130,62.51a5.56,5.56,0,0,0-4.07-1.46A5.08,5.08,0,0,0,125.06,61.17Z"/><path class="cls-2" d="M126.36,69.63h-.11a3.26,3.26,0,0,1-3.06-3.34,3.16,3.16,0,0,1,2.55-3.19l.41-.05a3.44,3.44,0,0,1,2.53,1,3.3,3.3,0,0,1,1,2.48A3.43,3.43,0,0,1,126.36,69.63Zm-.06-5.56h-.09a2.58,2.58,0,0,0-.29,0,2.17,2.17,0,0,0-1.71,2.2,2.27,2.27,0,0,0,2.08,2.31,2.41,2.41,0,0,0,2.42-2.08,2.35,2.35,0,0,0-.74-1.71A2.5,2.5,0,0,0,126.3,64.07Z"/><path class="cls-2" d="M129.27,67.3c-1.18,0-2.23,0-3.22-.12a.51.51,0,1,1,.08-1c1,.07,2,.11,3.14.11,1.44,0,2.9-.06,4.32-.11.84,0,1.67-.07,2.51-.09a.51.51,0,0,1,.53.49.52.52,0,0,1-.5.53c-.83,0-1.67.05-2.5.09C132.2,67.24,130.73,67.3,129.27,67.3Z"/><path class="cls-2" d="M138.92,68.76l-.15,0a9.57,9.57,0,0,1-3.15-1.9.5.5,0,0,1-.19-.43.52.52,0,0,1,.24-.4,21.32,21.32,0,0,0,2.74-1.93.46.46,0,0,1,.34-.12H139c.49,0,1,0,1.47,0a.5.5,0,0,1,.47.31.5.5,0,0,1-.09.56,2.43,2.43,0,0,0-.78,1.82,1.75,1.75,0,0,0,.52,1,.53.53,0,0,1,.12.52.51.51,0,0,1-.4.34l-.7.11-.65.1Zm-2.1-2.26A7.53,7.53,0,0,0,139,67.72l.41-.06a2.2,2.2,0,0,1-.28-1A3.34,3.34,0,0,1,139.5,65h-.58A20.84,20.84,0,0,1,136.82,66.5Z"/><path class="cls-2" d="M136.72,58.09h-.14a2.22,2.22,0,0,1-2.07-2.17,2.14,2.14,0,0,1,1.6-2.12A2.51,2.51,0,0,1,139,55.08a2.21,2.21,0,0,1,.18.82,2.06,2.06,0,0,1-.67,1.49A2.64,2.64,0,0,1,136.72,58.09Zm0-3.34a2.33,2.33,0,0,0-.38,0,1.17,1.17,0,0,0-.77,1.12,1.2,1.2,0,0,0,1.11,1.15,1.51,1.51,0,0,0,1.13-.42,1,1,0,0,0,.35-.74,1.27,1.27,0,0,0-.09-.4A1.41,1.41,0,0,0,136.68,54.75Z"/><path class="cls-2" d="M123.36,55a.39.39,0,0,1-.15,0,.52.52,0,0,1-.36-.49v-.08a.5.5,0,0,1,.29-.46,13.38,13.38,0,0,1,1.1-1.15,8.52,8.52,0,0,0,1.17-1.25.53.53,0,0,1,.72-.11.5.5,0,0,1,.11.71A9.53,9.53,0,0,1,125,53.49a9.66,9.66,0,0,0-1.17,1.25A.51.51,0,0,1,123.36,55Z"/><path class="cls-2" d="M126.53,54.43a.45.45,0,0,1-.25-.07,18.63,18.63,0,0,1-2.87-2.14l-.55-.46a.51.51,0,0,1-.06-.72.5.5,0,0,1,.71-.07l.56.47a18.24,18.24,0,0,0,2.71,2,.51.51,0,0,1-.25,1Z"/><path class="cls-2" d="M131.62,46.72a.49.49,0,0,1-.32-.12c-.64-.52-1.25-1.09-1.84-1.63l-.27-.26-.94.55c-.54.32-1.1.64-1.61,1a.52.52,0,0,1-.71-.15.5.5,0,0,1,.14-.7c.54-.36,1.11-.7,1.67-1s.84-.49,1.24-.74a.51.51,0,0,1,.62.06l.56.52c.48.44,1,.9,1.47,1.33.69-.55,1.34-1.08,2-1.62a.5.5,0,0,1,.7,0c.39.41.8.84,1.24,1.23l.22-.2c.46-.41.93-.84,1.43-1.25a.52.52,0,0,1,.72.08.51.51,0,0,1-.08.71c-.47.39-.93.81-1.38,1.22l-.55.49a.5.5,0,0,1-.66,0A13.49,13.49,0,0,1,133.91,45c-.64.53-1.29,1-2,1.59A.56.56,0,0,1,131.62,46.72Z"/><path class="cls-2" d="M130.65,39.42h-.1a2,2,0,0,1-1.86-1.91,2,2,0,0,1,1.08-1.89,1.52,1.52,0,0,1,.78-.27,2.25,2.25,0,0,1,1.57.6,1.89,1.89,0,0,1,.64,1.3,2.08,2.08,0,0,1-.62,1.56A2.15,2.15,0,0,1,130.65,39.42Zm-.3-3c-.44.31-.65.48-.64,1a.94.94,0,0,0,.89.92,1.11,1.11,0,0,0,.82-.32,1,1,0,0,0,.31-.79.79.79,0,0,0-.3-.58,1.23,1.23,0,0,0-.82-.34A.48.48,0,0,0,130.35,36.46Z"/><path class="cls-2" d="M105.71,120h0a9.45,9.45,0,0,1-6.74-2.81,9.73,9.73,0,0,1-2.77-6.9,9.25,9.25,0,0,1,6.17-8.72,10.61,10.61,0,0,1,3.41-.57,9.52,9.52,0,0,1,9.57,9.53,9.36,9.36,0,0,1-2.79,6.63A9.74,9.74,0,0,1,105.71,120Zm0-18a9.4,9.4,0,0,0-3.08.52,8.21,8.21,0,0,0-5.48,7.76,8.68,8.68,0,0,0,2.48,6.17,8.41,8.41,0,0,0,6,2.51h0a8.72,8.72,0,0,0,6.1-2.54,8.29,8.29,0,0,0,2.48-5.92,8.5,8.5,0,0,0-8.54-8.5Z"/><path class="cls-2" d="M108.76,112.06c-.68,0-1.38,0-2.05-.06L105,112a.51.51,0,0,1-.51-.51c0-1.55,0-3.22.09-4.93a.49.49,0,0,1,.53-.48.51.51,0,0,1,.49.53c-.06,1.5-.08,3-.08,4.38l1.26,0c.66,0,1.35.06,2,.06a.51.51,0,0,1,0,1Z"/><path class="cls-2" d="M104.93,104.32a.6.6,0,0,1-.42-.16.64.64,0,0,1-.17-.45,1.24,1.24,0,0,1,.18-.57.51.51,0,0,1,.37-.28.54.54,0,0,1,.44.14l0,0a.77.77,0,0,1,.33.6A.71.71,0,0,1,104.93,104.32Zm0-1a.33.33,0,0,0-.26.33v0l.3-.3.34.17a.46.46,0,0,0-.28-.23l-.06.06.06-.06Z"/><path class="cls-2" d="M100.56,106.7a.76.76,0,0,1-.8-.73.87.87,0,0,1,.09-.37.61.61,0,0,1,.19-.2.59.59,0,0,1,.53-.32.83.83,0,0,1,.8.79.84.84,0,0,1-.26.62A.81.81,0,0,1,100.56,106.7Zm-.21-.85.41.21Z"/><path class="cls-2" d="M98.91,112.18a.73.73,0,0,1-.73-.42.84.84,0,0,1,.27-.92.51.51,0,0,1,.36-.15.83.83,0,0,1,.63.24.51.51,0,0,1,.15.36v0a.71.71,0,0,1,0,.14A.68.68,0,0,1,98.91,112.18Zm-.1-.63-.09.1a.16.16,0,0,0,.09,0Zm.18-.18.16.17a.3.3,0,0,0,0-.2.34.34,0,0,0-.22-.19.32.32,0,0,0-.24.14h.16v-.09l.09.09h.18Z"/><path class="cls-2" d="M101.72,116.46a.71.71,0,0,1-.72-.68c0-.26.26-.87.76-.87a.5.5,0,0,1,.17,0,.65.65,0,0,1,.5.65,1.64,1.64,0,0,1,0,.22,0,0,0,0,1,0,0A.69.69,0,0,1,101.72,116.46Zm.08-1-.12.47a.48.48,0,0,0,.34-.08v-.06A.34.34,0,0,0,101.8,115.45Zm-.38.17a.38.38,0,0,0,.26.3l.12-.47h-.08A.32.32,0,0,0,101.42,115.62Z"/><path class="cls-2" d="M105.85,117.8a.84.84,0,0,1-.8-.79.72.72,0,0,1,.35-.61.5.5,0,0,1,.27-.08.65.65,0,0,1,.71.18.7.7,0,0,1,.17.47A.8.8,0,0,1,105.85,117.8Z"/><path class="cls-2" d="M109.55,116.28A.66.66,0,0,1,109,116a1.08,1.08,0,0,1-.08-.19.5.5,0,0,1,0-.66.76.76,0,0,1,.53-.26.79.79,0,0,1,.71.77A.66.66,0,0,1,109.55,116.28Zm.34-.8Z"/><path class="cls-2" d="M112.24,111.82a1.44,1.44,0,0,1-.59-.26.49.49,0,0,1-.13-.47.31.31,0,0,1,0-.1.57.57,0,0,1,.59-.57l.12,0a.61.61,0,0,1,.71.64.79.79,0,0,1-.37.64A.63.63,0,0,1,112.24,111.82Zm-.59-1Z"/><path class="cls-2" d="M109.82,106.73a.62.62,0,0,1-.48-.22.71.71,0,0,1-.13-.61v0a.59.59,0,0,1,.59-.63v.47a.58.58,0,0,0-.16,0,.44.44,0,0,0-.05.19.31.31,0,0,0,.25.32.45.45,0,0,0,.35-.25.47.47,0,0,0-.1-.16.43.43,0,0,0-.29-.14l0-.47h0a.71.71,0,0,1,.74.7A.89.89,0,0,1,109.82,106.73Zm0-.48h0Z"/><path class="cls-2" d="M49,98.86c-.42,0-2.22-.28-2.7-1.08a.51.51,0,1,1,.87-.53,3.6,3.6,0,0,0,1.83.59c1,0,2.2-.72,2.2-1.2s-.73-.59-1.19-.59a5.92,5.92,0,0,0-.71,0c-.26,0-.53,0-.8,0-1,0-2.09-.49-2.09-1.28a.57.57,0,0,1,0-.13c.35-1.55,1.84-2.47,4-2.47a6.85,6.85,0,0,1,.79,0,.51.51,0,0,1,.45.56.51.51,0,0,1-.56.46,5.17,5.17,0,0,0-.68,0c-.76,0-2.55.15-3,1.55a1.8,1.8,0,0,0,1,.29c.23,0,.46,0,.71,0s.53,0,.8,0c1.31,0,2.21.66,2.21,1.61C52.2,97.87,50.44,98.86,49,98.86Z"/><path class="cls-2" d="M48.84,93.32a.52.52,0,0,1-.49-.35,2.16,2.16,0,0,1-.11-.72c0-.11,0-.21,0-.32a2.44,2.44,0,0,0,0-.27,1.06,1.06,0,0,0,0-.26.53.53,0,0,1,.42-.59.51.51,0,0,1,.59.42,2.81,2.81,0,0,1,0,.43c0,.11,0,.22,0,.32s0,.18,0,.27a1.2,1.2,0,0,0,.06.4.51.51,0,0,1-.32.64Z"/><path class="cls-2" d="M49.71,100.71a.51.51,0,0,1-.5-.42,2.77,2.77,0,0,1,0-.42,6.15,6.15,0,0,1,.06-.75,4.4,4.4,0,0,0,0-.59.51.51,0,0,1,1,0,5.83,5.83,0,0,1-.06.72c0,.22,0,.43,0,.62a1.54,1.54,0,0,0,0,.24.5.5,0,0,1-.42.59Z"/><path class="cls-2" d="M43.41,66.51A17.75,17.75,0,0,1,41,66.3a13.09,13.09,0,0,0-2.5-.17.51.51,0,0,1-.54-.48.52.52,0,0,1,.48-.54,13.08,13.08,0,0,1,2.69.18,16.55,16.55,0,0,0,2.3.2c7.06,0,8.93-3.23,11.1-7,2.75-4.75,5.87-10.13,19.87-10.13h.87c1.77,0,3,0,3.82.74a2.73,2.73,0,0,1,.68,2.07c0,5.43-8.64,6.87-13.2,6.87a17.6,17.6,0,0,1-2.66-.2.5.5,0,0,1-.42-.58.51.51,0,0,1,.58-.43,15.46,15.46,0,0,0,2.5.19c4.89,0,12.18-1.56,12.18-5.85a1.93,1.93,0,0,0-.37-1.35c-.48-.46-1.58-.45-3.1-.44h-.88c-13.41,0-16.24,4.89-19,9.62C53.16,62.87,51.06,66.51,43.41,66.51Z"/><path class="cls-2" d="M64.06,62.61a.51.51,0,0,1-.31-.92,12.16,12.16,0,0,0,3.47-4.4.53.53,0,0,1,.69-.24.51.51,0,0,1,.23.68,13.18,13.18,0,0,1-3.77,4.78A.52.52,0,0,1,64.06,62.61Z"/><path class="cls-2" d="M85.79,50.38a.53.53,0,0,1-.4-.19A9.67,9.67,0,0,0,81.73,47a.51.51,0,1,1,.37-1,10.47,10.47,0,0,1,4.09,3.5.51.51,0,0,1-.08.72A.54.54,0,0,1,85.79,50.38Z"/><path class="cls-2" d="M88.78,50.56a.51.51,0,0,1-.49-.39c-1-3.93-3.32-6-5-6.5a.51.51,0,1,1,.31-1c2.05.65,4.63,2.89,5.71,7.22a.51.51,0,0,1-.37.62Z"/><path class="cls-2" d="M96.12,49.05A3,3,0,0,1,95,48.73l-.21-.09a.51.51,0,0,1,.38-.94l.23.09a2.2,2.2,0,0,0,.77.23c.86,0,2.18-.38,2.18-.85,0-.26-.28-.34-1.36-.37s-2.75-.09-2.75-1.8c0-.9,1.56-1.55,2.61-1.55a3.57,3.57,0,0,1,.92.12.5.5,0,0,1,.35.63.49.49,0,0,1-.62.35,2.89,2.89,0,0,0-.65-.08,2.49,2.49,0,0,0-1.59.58c0,.55.37.68,1.76.73,1,0,2.35.07,2.35,1.39C99.32,48.7,97,49.05,96.12,49.05Z"/><path class="cls-2" d="M96,44.31a.52.52,0,0,1-.5-.39,5.83,5.83,0,0,1-.19-1.27.51.51,0,0,1,1,0,4.83,4.83,0,0,0,.16,1,.5.5,0,0,1-.37.62Z"/><path class="cls-2" d="M97.49,50.47a.52.52,0,0,1-.5-.41,7.74,7.74,0,0,1-.09-1.42.51.51,0,0,1,.51-.51.51.51,0,0,1,.51.51A7,7,0,0,0,98,49.86a.51.51,0,0,1-.4.6Z"/><path class="cls-2" d="M24.81,60.67a.49.49,0,0,1-.43-.24.5.5,0,0,1,.17-.7,3,3,0,0,0,.6-.58,3.42,3.42,0,0,1,.36-.4.51.51,0,0,1,.72.72c-.11.11-.2.22-.3.34a3.61,3.61,0,0,1-.85.79A.54.54,0,0,1,24.81,60.67Z"/><path class="cls-2" d="M28.6,61.64h-.1a.5.5,0,0,1-.4-.6,2.71,2.71,0,0,1,.23-.64,1.88,1.88,0,0,0,.2-.67.51.51,0,0,1,1,0,2.59,2.59,0,0,1-.29,1.08,2.12,2.12,0,0,0-.16.43A.51.51,0,0,1,28.6,61.64Z"/><path class="cls-2" d="M32.38,61.91a.51.51,0,0,1-.51-.51V60.25a.51.51,0,0,1,1,0V61.4A.51.51,0,0,1,32.38,61.91Z"/><path class="cls-2" d="M36,60.83a2.92,2.92,0,0,1-.4-1.28.51.51,0,0,1,.51-.51.51.51,0,0,1,.51.51,2.14,2.14,0,0,0,.29.82Z"/><path class="cls-2" d="M39.07,58.21h-.13a2.09,2.09,0,0,1-.82-.51l-.21-.18a.51.51,0,1,1,.56-.85,2.16,2.16,0,0,1,.33.27,1.2,1.2,0,0,0,.39.27.51.51,0,0,1,.37.62A.49.49,0,0,1,39.07,58.21Z"/><path class="cls-2" d="M35.2,90.59a.51.51,0,0,1,0-1c2.88-.12,6-.28,9-.67,0-1.31-.1-2.63-.16-3.91-.11-2.65-.23-5.39-.23-8.11a86.72,86.72,0,0,1,.51-8.66c.07-.76.15-1.53.21-2.33a.52.52,0,0,1,.56-.46.5.5,0,0,1,.46.55c-.07.8-.14,1.57-.21,2.34a85.18,85.18,0,0,0-.51,8.56c0,2.7.12,5.43.23,8.07.06,1.43.13,2.92.17,4.38a.51.51,0,0,1-.44.53c-3.26.43-6.54.6-9.59.73Z"/><path class="cls-2" d="M39.32,88.65c-.55,0-.72-.17-.83-.42-.26-.64.49-1.09,2-2l.74-.46-.52,0a14.42,14.42,0,0,0-2,.18c-.55.07-1.13.14-1.7.17a.5.5,0,0,1-.53-.48.51.51,0,0,1,.48-.54,15.65,15.65,0,0,0,1.62-.17,17,17,0,0,1,2.16-.18c2.14,0,2.14.52,2.14.78,0,.46-.44.75-1.83,1.59l-.65.4c.54-.1,1.32-.27,2.45-.55a.51.51,0,0,1,.62.37.52.52,0,0,1-.38.62A19.29,19.29,0,0,1,39.32,88.65Z"/><path class="cls-2" d="M73.09,95.13c-8.31,0-19.73-1-23.46-9.63l-.87.07a30.37,30.37,0,0,0-3.87.44.51.51,0,0,1-.2-1,31.2,31.2,0,0,1,4-.45l1.23-.09a.5.5,0,0,1,.51.32c3.34,8.36,14.53,9.33,22.66,9.33a26.15,26.15,0,0,0,4.59-.39l.48-.08c4.13-.72,10.37-1.81,10.37-6.76,0-1-1.76-1.83-2.91-1.83a.51.51,0,1,1,0-1c1.6,0,3.93,1.11,3.93,2.85,0,5.8-7,7-11.22,7.76l-.47.08A27.23,27.23,0,0,1,73.09,95.13Z"/><path class="cls-2" d="M84.21,90.9A8.47,8.47,0,0,1,80.54,90a3.24,3.24,0,0,1-2.06-2.77,3.45,3.45,0,0,1,3.35-3.06.51.51,0,0,1,.51.51.51.51,0,0,1-.51.51,2.47,2.47,0,0,0-2.33,2c0,1.62,2.75,2.62,4.71,2.62A4,4,0,0,0,86,89.62a.51.51,0,1,1,.46.92A5,5,0,0,1,84.21,90.9Z"/><path class="cls-2" d="M89.15,86.13a.51.51,0,0,1-.5-.41.5.5,0,0,1,.4-.6,3.93,3.93,0,0,0,3-3.91c0-3.83-4.89-4.24-7-4.24s-6.18.83-6.18,2.82c0,.15,0,.3,0,.44s0,.23,0,.34c0,1.26,1.19,2.6,4.55,2.6l.92,0a.51.51,0,0,1,.53.49.5.5,0,0,1-.49.53l-1,0c-4.11,0-5.58-1.87-5.58-3.62,0-.13,0-.26,0-.4s0-.25,0-.38c0-.9.49-2.17,2.8-3.05a13,13,0,0,1,4.4-.79c5.1,0,8,1.91,8,5.26a4.94,4.94,0,0,1-3.86,4.91Z"/><path class="cls-2" d="M89.71,77.49a.49.49,0,0,1-.44-.26.5.5,0,0,1,.19-.69c1.28-.74,2.06-1.27,2.06-2.5,0-1.94-.41-3.55-5.45-3.55-2.48,0-7.6.78-7.6,3.16,0,1.82,1.27,2.21,2.47,2.43l.2,0a.5.5,0,0,1,.4.6.51.51,0,0,1-.6.4l-.18,0c-.91-.16-3.31-.6-3.31-3.43,0-1.09.65-2.59,3.76-3.49a19.45,19.45,0,0,1,4.86-.69c4.66,0,6.47,1.28,6.47,4.57,0,1.91-1.43,2.73-2.58,3.38A.45.45,0,0,1,89.71,77.49Z"/><path class="cls-2" d="M82.54,70.62l-.14,0c-3.4-.93-4.17-3.33-4.17-4.09,0-2.37,2.81-3.57,8.34-3.57,2.05,0,4.78.38,4.78,3.72,0,2.06-.76,3.22-2.44,3.79a.52.52,0,0,1-.65-.33.5.5,0,0,1,.32-.64c1.08-.36,1.74-1,1.74-2.82s-1-2.7-3.75-2.7c-3.34,0-7.32.44-7.32,2.55,0,.46.58,2.33,3.42,3.1a.52.52,0,0,1,.36.63A.51.51,0,0,1,82.54,70.62Z"/><path class="cls-2" d="M70.79,92.28h-.46a14.55,14.55,0,0,1-14.2-14.11c-.2-8.21,6.31-15.33,14.22-15.55a17.92,17.92,0,0,1,8.85,2.27l.09,0a.5.5,0,0,1,.2.69.51.51,0,0,1-.69.21l-.08,0a16.89,16.89,0,0,0-8.34-2.15C63,63.85,57,70.49,57.15,78.14A13.53,13.53,0,0,0,70.36,91.26,14.33,14.33,0,0,0,79,88.67a.51.51,0,1,1,.58.84A15.33,15.33,0,0,1,70.79,92.28Z"/><path class="cls-2" d="M70.56,89.56h-.37A11.87,11.87,0,0,1,58.59,78c-.16-6.69,5.15-12.51,11.61-12.68a14.44,14.44,0,0,1,7.22,1.85l.07,0a.51.51,0,0,1-.49.9l-.06,0a13.41,13.41,0,0,0-6.71-1.73c-5.91.16-10.77,5.49-10.62,11.64A10.86,10.86,0,0,0,70.22,88.53a11.52,11.52,0,0,0,6.94-2.07.5.5,0,0,1,.71.12.51.51,0,0,1-.13.71A12.46,12.46,0,0,1,70.56,89.56Z"/><path class="cls-2" d="M71.43,79.59h0a2.66,2.66,0,0,1-1.89-.83,2.81,2.81,0,0,1-.81-2.06A2.75,2.75,0,0,1,71.35,74h.29a2.77,2.77,0,0,1,2.49,2.14,1.84,1.84,0,0,1,.06.47,2.94,2.94,0,0,1-.85,2.13A2.69,2.69,0,0,1,71.43,79.59Zm0-4.58h0a1.72,1.72,0,0,0-1.64,1.7,1.86,1.86,0,0,0,.52,1.34,1.64,1.64,0,0,0,1.17.52A1.7,1.7,0,0,0,72.61,78a1.94,1.94,0,0,0,.56-1.38,1.53,1.53,0,0,0,0-.3A1.78,1.78,0,0,0,71.55,75Z"/><path class="cls-2" d="M65.3,83.8a.51.51,0,0,1-.44-.77l.48-.83A49.58,49.58,0,0,1,68.58,77a.5.5,0,0,1,.71-.11.52.52,0,0,1,.11.72,40.53,40.53,0,0,0-2.56,4c1.12-.77,2.22-1.55,3.31-2.32l.92-.65a.51.51,0,0,1,.71.13.5.5,0,0,1-.13.71l-.91.65c-1.68,1.18-3.42,2.41-5.16,3.56A.47.47,0,0,1,65.3,83.8Z"/><path class="cls-2" d="M70.83,68.68a.51.51,0,0,1-.51-.51v-.88a.51.51,0,0,1,.51-.51.51.51,0,0,1,.51.51v.88A.51.51,0,0,1,70.83,68.68Z"/><path class="cls-2" d="M60.63,78.54a.51.51,0,0,1-.51-.51.5.5,0,0,1,.51-.51,2.67,2.67,0,0,0,.53-.09,2.78,2.78,0,0,1,1.05-.08.52.52,0,0,1,.42.58.51.51,0,0,1-.59.42,1.9,1.9,0,0,0-.65.07A2.88,2.88,0,0,1,60.63,78.54Z"/><path class="cls-2" d="M71.89,87.6a.54.54,0,0,1-.49-.35,2.39,2.39,0,0,1-.1-.72c0-.11,0-.21,0-.32s0-.18,0-.27a2,2,0,0,0,0-.26.51.51,0,0,1,.42-.59.5.5,0,0,1,.58.42,1.91,1.91,0,0,1,0,.43c0,.11,0,.22,0,.33a2.17,2.17,0,0,0,0,.26,1.22,1.22,0,0,0,.05.4.5.5,0,0,1-.32.64A.45.45,0,0,1,71.89,87.6Z"/><path class="cls-2" d="M68,63.49a.51.51,0,0,1-.51-.51c0-2.94,0-4,.62-4.58A2.17,2.17,0,0,1,69.81,58h.49l1.35,0c.7,0,1.4,0,2.1,0a.54.54,0,0,1,.39.15.52.52,0,0,1,.14.39c0,.31,0,.65,0,1s0,.7,0,1.06,0,.71,0,1.07,0,.73,0,1a.51.51,0,0,1-.54.48.51.51,0,0,1-.48-.54c0-.29,0-.61,0-1s0-.7,0-1.05,0-.72,0-1.08V59.1c-.54,0-1.08,0-1.62,0l-1.32,0h-.51c-.47,0-.83,0-.94.09-.3.29-.32,1.85-.32,3.85A.51.51,0,0,1,68,63.49Z"/><path class="cls-2" d="M73.74,61.11H68.28a.51.51,0,0,1-.51-.51.51.51,0,0,1,.51-.51h5.46a.51.51,0,0,1,.51.51A.51.51,0,0,1,73.74,61.11Z"/><path class="cls-2" d="M47.52,85a.51.51,0,0,1-.51-.49c-.08-1.85-.12-3.88-.12-6.2,0-2.06,0-4.17.06-6.2S47,68,47,66a.51.51,0,0,1,.51-.51A.51.51,0,0,1,48,66c0,2.06,0,4.15-.06,6.18s-.06,4.12-.06,6.18c0,2.31,0,4.32.12,6.15a.52.52,0,0,1-.49.54Z"/><path class="cls-2" d="M96.44,111.18l-18.92-.07a3.12,3.12,0,0,1-2.61-3.25c0-1.74,0-3.27,0-4.68,0-2.71,0-5.13.11-7.4a.5.5,0,0,1,.52-.49.51.51,0,0,1,.5.53c-.07,2.25-.1,4.66-.1,7.36,0,1.41,0,2.93,0,4.67,0,1,.64,2.17,1.63,2.24l18.88.07a.51.51,0,0,1,0,1Z"/><path class="cls-2" d="M99.76,84.51h-.41a.51.51,0,0,1-.5-.49l-.09-2.26c-.06-1.4-.13-2.85-.16-4.29a.5.5,0,0,1,.49-.52c.86,0,1.71,0,2.7,0a.5.5,0,0,1,.51.5c0,1.78.11,4.13.21,6.48a.51.51,0,0,1-.47.53C101.2,84.46,100.49,84.51,99.76,84.51Zm-.13-6.57c0,1.26.09,2.53.15,3.76,0,.6,0,1.19.07,1.79.53,0,1.05,0,1.62-.07-.08-2-.13-3.92-.17-5.5Z"/><path class="cls-2" d="M96.73,81.46c-.63,0-1.26,0-1.87,0s-1.23-.06-1.85-.06a.51.51,0,1,1,0-1c.64,0,1.28,0,1.9.06.91,0,1.9.08,2.73,0a.51.51,0,0,1,.54.48.51.51,0,0,1-.48.54C97.39,81.46,97.07,81.46,96.73,81.46Z"/><path class="cls-2" d="M107.09,101.41a.51.51,0,0,1-.52-.5l-.06-17.78a.34.34,0,0,1,0-.14,1.57,1.57,0,0,0,0-.37,1.53,1.53,0,0,0-1.27-1.5c-1.36-.06-2.32-.07-3.22,0a.51.51,0,0,1-.53-.49.51.51,0,0,1,.49-.53c.93,0,1.91,0,3.31,0a2.53,2.53,0,0,1,2.24,2.52,2.87,2.87,0,0,1-.07.58l.07,17.7A.51.51,0,0,1,107.09,101.41Z"/><path class="cls-2" d="M106.73,88l-15.66-.17a4.45,4.45,0,0,1-.68-.07,2.29,2.29,0,0,0-.73,0,.51.51,0,0,1-.59-.42.52.52,0,0,1,.42-.59,4,4,0,0,1,1,0,3.39,3.39,0,0,0,.54,0l15.67.18a.51.51,0,0,1,0,1Z"/><path class="cls-2" d="M96.26,106.78l-15.57-.08a.51.51,0,0,1-.51-.51c0-4,0-8.16.17-12.43a.51.51,0,0,1,.53-.49.51.51,0,0,1,.49.53c-.15,4.07-.17,8.09-.17,11.88l15.07.08a.5.5,0,0,1,.5.51A.51.51,0,0,1,96.26,106.78Z"/><path class="cls-2" d="M102.16,102.21a.51.51,0,0,1-.51-.51l-.16-10.9-12.72-.3h-.25a.51.51,0,0,1,0-1h.26l13.23.31a.51.51,0,0,1,.5.5l.16,11.4A.52.52,0,0,1,102.16,102.21Z"/><path class="cls-2" d="M81.13,96.57a.51.51,0,0,1,0-1c1.42-.08,2.86-.08,4.25-.08h16.46a.51.51,0,0,1,.51.51.51.51,0,0,1-.51.51H85.35c-1.37,0-2.8,0-4.19.08Z"/><path class="cls-2" d="M101.81,101.5H81a.51.51,0,1,1,0-1h20.77a.51.51,0,0,1,0,1Z"/><path class="cls-2" d="M96.09,105.9a.5.5,0,0,1-.51-.51l.08-14.87a.52.52,0,0,1,.52-.51.5.5,0,0,1,.5.51l-.08,14.87A.51.51,0,0,1,96.09,105.9Z"/><path class="cls-2" d="M90.63,106.17a.53.53,0,0,1-.51-.52l.09-15.4a.5.5,0,0,1,.51-.5.51.51,0,0,1,.51.51l-.09,15.4A.51.51,0,0,1,90.63,106.17Z"/><path class="cls-2" d="M86,106.08a.51.51,0,0,1-.51-.52L85.63,92a.51.51,0,0,1,.51-.5.5.5,0,0,1,.51.51l-.17,13.55A.52.52,0,0,1,86,106.08Z"/><path class="cls-2" d="M102.07,43l-1.73,0a.52.52,0,0,1-.49-.48c0-.25,0-.52,0-.8,0-3.16.9-4.19,1.56-5a1.81,1.81,0,0,0,.63-1.37c0-.49-.17-.62-.71-1-.88-.53-2.07-1.25-2.07-4.38,0-.6,0-1.2.08-1.78l0-.47a.51.51,0,0,1,.51-.48c3.42,0,6.77,0,10.12-.14h0a.52.52,0,0,1,.51.49c0,.33,0,.65.08,1,0,.5.09,1,.09,1.55A4,4,0,0,1,108.75,34c-.6.44-.91.7-1,1.27a1.62,1.62,0,0,0,.18.23c.76,1,2.56,3.24,2.56,6,0,.38,0,.75-.05,1.11A.52.52,0,0,1,110,43c-.73,0-1.52-.05-2.41-.05s-1.83,0-2.72,0S103,43,102.07,43Zm-1.22-1h1.22l2.73,0c.89,0,1.82,0,2.74,0,.71,0,1.36,0,2,0,0-.17,0-.35,0-.53,0-2.38-1.64-4.46-2.34-5.34-.31-.39-.41-.52-.41-.73a2.61,2.61,0,0,1,1.38-2.24,3,3,0,0,0,1.5-2.9c0-.48,0-1-.09-1.46,0-.17,0-.34,0-.52-3,.11-6.09.12-9.19.12,0,.56-.08,1.14-.08,1.71,0,2.55.84,3.06,1.58,3.51A2,2,0,0,1,103,35.42a2.79,2.79,0,0,1-.89,2c-.61.7-1.31,1.51-1.31,4.28A2.44,2.44,0,0,0,100.85,42Z"/><path class="cls-2" d="M99.78,30.14a.51.51,0,0,1,0-1c1.33,0,2.7,0,4-.06s2.72,0,4.08,0l2,0a.51.51,0,0,1,0,1l-2,0c-1.35,0-2.73,0-4.06.06S101.12,30.14,99.78,30.14Z"/><path class="cls-2" d="M102,41.09c-.54,0-1,0-1.54,0a.5.5,0,0,1-.48-.53.51.51,0,0,1,.53-.49c.48,0,1,0,1.49,0,1.5,0,3-.1,4.55-.2,1.09-.07,2.22-.14,3.33-.17a.51.51,0,0,1,0,1c-1.09,0-2.21.1-3.3.17C105.1,41,103.54,41.09,102,41.09Z"/><path class="cls-2" d="M115.27,32.52a.5.5,0,0,1-.39-.18.51.51,0,0,1,.06-.72c.47-.41,1-.8,1.5-1.17a20,20,0,0,0,2-1.59.49.49,0,0,1,.37-.14.52.52,0,0,1,.36.16l.53.58c.49.53,1,1.08,1.54,1.57l.75-.75c.72-.72,1.46-1.46,2.21-2.16a.5.5,0,0,1,.72,0,.52.52,0,0,1,0,.72c-.74.7-1.48,1.43-2.19,2.14l-1.08,1.08a.51.51,0,0,1-.68,0,17.64,17.64,0,0,1-2-2l-.18-.2c-.55.47-1.12.9-1.68,1.32s-1,.74-1.45,1.12A.48.48,0,0,1,115.27,32.52Z"/><path class="cls-2" d="M124.86,31.37a.51.51,0,0,1-.51-.51,22.59,22.59,0,0,1,.1-2.29,8.52,8.52,0,0,1-1.73.07.51.51,0,1,1,.06-1,8.35,8.35,0,0,0,2.16-.18.49.49,0,0,1,.46.13.51.51,0,0,1,.15.44,19.76,19.76,0,0,0-.18,2.84A.51.51,0,0,1,124.86,31.37Z"/><path class="cls-2" d="M116.68,24.33a.5.5,0,0,1-.27-.07.51.51,0,0,1-.17-.7,7.48,7.48,0,0,1,1.49-1.62A7.35,7.35,0,0,0,119,20.63a.51.51,0,0,1,.71-.13.5.5,0,0,1,.13.71,8.37,8.37,0,0,1-1.41,1.49,6.54,6.54,0,0,0-1.3,1.39A.5.5,0,0,1,116.68,24.33Z"/><path class="cls-2" d="M120.11,24.07a.59.59,0,0,1-.23-.05,8.09,8.09,0,0,1-2-1.63,8.28,8.28,0,0,0-1.51-1.3.51.51,0,1,1,.52-.87,8.93,8.93,0,0,1,1.71,1.44,6.92,6.92,0,0,0,1.78,1.44.51.51,0,0,1,.22.69A.49.49,0,0,1,120.11,24.07Z"/><path class="cls-2" d="M104.06,17a5,5,0,0,1-1.82-.29.51.51,0,1,1,.36-1,4.12,4.12,0,0,0,1.46.22l1,0a10.68,10.68,0,0,1,1.79,0,.51.51,0,0,1,.44.57.52.52,0,0,1-.57.45,9.36,9.36,0,0,0-1.6,0C104.74,17,104.4,17,104.06,17Z"/><path class="cls-2" d="M101.89,19.49a.51.51,0,0,1,0-1,77.31,77.31,0,0,1,8-.38.51.51,0,0,1,0,1,78.28,78.28,0,0,0-7.87.37Z"/><path class="cls-2" d="M101.89,22.66a.51.51,0,0,1,0-1c1.71-.1,3.43-.11,5.1-.13,1.1,0,2.24,0,3.37,0a.5.5,0,0,1,.52.49.51.51,0,0,1-.49.53c-1.14,0-2.29,0-3.4.05-1.65,0-3.36,0-5,.12Z"/><path class="cls-2" d="M100.52,67.41c-5.52,0-9.37-4-9.37-7.57a6,6,0,0,1,2.41-4.42A10.14,10.14,0,0,1,100,53.26s5.11.2,5.11,1.62a.51.51,0,0,1-1,.17,11.31,11.31,0,0,0-4.12-.77c-5.06,0-7.85,3.29-7.85,5.56,0,3.1,3.43,6.55,8.35,6.55a12.91,12.91,0,0,0,4.3-.88c1.52-.61,2.38-1.37,2.38-2.09s-.35-.79-.93-1.07l-.12-.06a.51.51,0,0,1-.23-.68.52.52,0,0,1,.69-.23l.11,0a2.18,2.18,0,0,1,1.51,2C108.23,66,103.14,67.41,100.52,67.41Z"/><path class="cls-2" d="M98.18,63.59a.51.51,0,0,1-.5-.44,16.2,16.2,0,0,1-.12-2.2c0-.5,0-1,0-1.49a5.28,5.28,0,0,1-1.37.58.51.51,0,0,1-.62-.37.51.51,0,0,1,.37-.62,5.87,5.87,0,0,0,1.69-.82l.2-.13a.53.53,0,0,1,.52,0,.54.54,0,0,1,.26.46c0,.27,0,.54,0,.81,0,.52,0,1.06,0,1.59A15.87,15.87,0,0,0,98.69,63a.51.51,0,0,1-.44.57Z"/><path class="cls-2" d="M101.38,62h-.06a2.2,2.2,0,0,1-1.95-2.32,2,2,0,0,1,1.11-1.85l.31.41-.28-.43a1.63,1.63,0,0,1,.88-.27h0a2.15,2.15,0,0,1,2.08,1.9,2.52,2.52,0,0,1-.64,1.91A2,2,0,0,1,101.38,62Zm-.31-3.33h0c-.42.28-.63.42-.65,1s.38,1.26,1,1.28a1,1,0,0,0,.75-.33,1.43,1.43,0,0,0,.37-1.12,1.14,1.14,0,0,0-1.06-1A.58.58,0,0,0,101.07,58.64Z"/><path class="cls-2" d="M107.29,60.87a.54.54,0,0,1-.3-.1.51.51,0,0,1-.21-.44,48.51,48.51,0,0,1,.63-5.33c.16-1,.32-2,.44-3.07a.55.55,0,0,1,.1-.25L120.18,36a.48.48,0,0,1,.5-.19,6.76,6.76,0,0,1,4.92,3.52.51.51,0,0,1,0,.48L114.33,58.1a.54.54,0,0,1-.24.21c-1.38.56-2.8,1.09-4.17,1.6l-2.45.92A.39.39,0,0,1,107.29,60.87Zm1.56-8.68c-.12,1-.28,2-.43,3-.23,1.45-.46,2.94-.58,4.44l1.72-.65c1.31-.48,2.67-1,4-1.52l11-18a5.78,5.78,0,0,0-3.77-2.63Z"/><path class="cls-2" d="M113.94,58.27a.51.51,0,0,1-.49-.37,13.09,13.09,0,0,1-.43-2.47,7.94,7.94,0,0,1-1.1-.06l-.41,0a.52.52,0,0,1-.47-.48c0-.53-.12-1.07-.2-1.63l0-.11c-.79,0-1.68.08-2.59.08a.52.52,0,0,1,0-1c1.07,0,2.12-.05,3-.1a.51.51,0,0,1,.53.44l.09.57c.06.42.13.85.17,1.28a5.9,5.9,0,0,0,1.39,0,.52.52,0,0,1,.4.11.52.52,0,0,1,.19.36,13.1,13.1,0,0,0,.43,2.78.51.51,0,0,1-.35.63Z"/><path class="cls-2" d="M110.08,59.35a.51.51,0,0,1-.29-.08,7.74,7.74,0,0,1-1-.83,3.69,3.69,0,0,0-1.14-.88.51.51,0,1,1,.38-1,4.69,4.69,0,0,1,1.48,1.1,5.28,5.28,0,0,0,.81.71.51.51,0,0,1,.14.71A.52.52,0,0,1,110.08,59.35Z"/><path class="cls-2" d="M111.4,53a.52.52,0,0,1-.38-.17.51.51,0,0,1,0-.72,8.37,8.37,0,0,0,1.46-2,12.11,12.11,0,0,1,1.13-1.72c1.53-1.85,3-3.74,4.35-5.56s3-3.89,4.54-5.79a.51.51,0,1,1,.79.65c-1.57,1.88-3.07,3.85-4.52,5.75s-2.83,3.73-4.37,5.6a11.17,11.17,0,0,0-1,1.59,9.06,9.06,0,0,1-1.65,2.24A.51.51,0,0,1,111.4,53Z"/><path class="cls-2" d="M113.6,55.13a.51.51,0,0,1-.42-.81c2.51-3.42,7.09-10.57,9.29-14a17.66,17.66,0,0,1,1.25-1.9.51.51,0,0,1,.72,0,.49.49,0,0,1,0,.66l-1.13,1.76c-2.21,3.45-6.8,10.62-9.32,14.06A.51.51,0,0,1,113.6,55.13Z"/><path class="cls-2" d="M38.48,100.21a.52.52,0,0,1-.48-.33,8.42,8.42,0,0,0-.53-1.17.51.51,0,0,1,.2-.7.52.52,0,0,1,.69.2,11.29,11.29,0,0,1,.6,1.31.51.51,0,0,1-.3.66A.57.57,0,0,1,38.48,100.21ZM23.8,99.36a.52.52,0,0,1-.37-.16.51.51,0,0,1,0-.72,12,12,0,0,1,1.07-.92.51.51,0,1,1,.63.81c-.35.27-.69.56-1,.85A.52.52,0,0,1,23.8,99.36ZM27.13,97a.5.5,0,0,1-.45-.28.51.51,0,0,1,.22-.69,13.26,13.26,0,0,1,1.28-.58.51.51,0,0,1,.38,1,12.67,12.67,0,0,0-1.2.54A.46.46,0,0,1,27.13,97Zm9-.11a.49.49,0,0,1-.3-.1,5.47,5.47,0,0,0-1.07-.63.51.51,0,0,1-.26-.67.5.5,0,0,1,.67-.26,6.2,6.2,0,0,1,1.27.74.51.51,0,0,1-.31.92ZM31,95.75a.51.51,0,0,1-.5-.44.52.52,0,0,1,.44-.58,10,10,0,0,1,1.43-.08.51.51,0,0,1,.5.52.49.49,0,0,1-.52.5,8.07,8.07,0,0,0-1.28.08Z"/><path class="cls-2" d="M35.91,130.29a.5.5,0,0,1-.28-.08,4.83,4.83,0,0,1-1.1-1,.51.51,0,0,1,.08-.72.52.52,0,0,1,.72.09,3.89,3.89,0,0,0,.87.82.51.51,0,0,1,.14.71A.53.53,0,0,1,35.91,130.29ZM33.67,127a.5.5,0,0,1-.49-.35,7.82,7.82,0,0,1-.31-1.43.51.51,0,0,1,1-.11,5.94,5.94,0,0,0,.27,1.23.52.52,0,0,1-.34.64A.39.39,0,0,1,33.67,127Zm.09-4a.57.57,0,0,1-.18,0,.51.51,0,0,1-.3-.65,9,9,0,0,1,.61-1.31.51.51,0,0,1,.89.5,8,8,0,0,0-.54,1.16A.5.5,0,0,1,33.76,123Zm2.18-3.42a.5.5,0,0,1-.34-.13.51.51,0,0,1,0-.72c.3-.33.63-.67,1-1a.52.52,0,0,1,.72,0,.5.5,0,0,1,0,.72c-.33.32-.64.64-.92,1A.52.52,0,0,1,35.94,119.54Z"/><path class="cls-2" d="M59.45,143.89a.51.51,0,0,1-.12-1,3.52,3.52,0,0,0,1.06-.49.5.5,0,0,1,.71.12.51.51,0,0,1-.12.71,4.36,4.36,0,0,1-1.4.65Zm-2.66-.25a.51.51,0,0,1-.2,0,4.87,4.87,0,0,1-1.28-.81A.51.51,0,1,1,56,142a3.59,3.59,0,0,0,1,.64.52.52,0,0,1,.26.68A.5.5,0,0,1,56.79,143.64Zm5.47-2.48-.16,0a.52.52,0,0,1-.33-.64,3.72,3.72,0,0,0,.18-1.14v-.05a.51.51,0,0,1,1,0v.05a4.78,4.78,0,0,1-.23,1.45A.5.5,0,0,1,62.26,141.16Zm-7.95-.55a.52.52,0,0,1-.5-.42,4.91,4.91,0,0,1-.07-.86v-.11a5.09,5.09,0,0,1,0-.55.52.52,0,0,1,.58-.44.51.51,0,0,1,.43.58,3.15,3.15,0,0,0,0,.44v.08a3.63,3.63,0,0,0,.06.67.52.52,0,0,1-.41.6Zm7.27-3.31a.49.49,0,0,1-.39-.19,3.66,3.66,0,0,0-.89-.77.51.51,0,1,1,.52-.87,4.13,4.13,0,0,1,1.16,1,.52.52,0,0,1-.07.72A.57.57,0,0,1,61.58,137.3Zm-6.09-.43a.53.53,0,0,1-.38-.17.51.51,0,0,1,0-.72,4,4,0,0,1,1.31-.82,4.86,4.86,0,0,1,1.45-.3.5.5,0,0,1,.55.47.52.52,0,0,1-.48.55,3.46,3.46,0,0,0-1.15.24,2.7,2.7,0,0,0-1,.61A.54.54,0,0,1,55.49,136.87Z"/><path class="cls-2" d="M74,121.73h0c-.45,0-.93-.07-1.41-.14a.51.51,0,0,1,.16-1,11.92,11.92,0,0,0,1.3.13.51.51,0,0,1,.49.53A.52.52,0,0,1,74,121.73Zm2.7-.23a.51.51,0,0,1-.11-1,8.67,8.67,0,0,0,1.23-.36.51.51,0,0,1,.36,1,10.9,10.9,0,0,1-1.38.4Zm-6.7-.56a.44.44,0,0,1-.16,0c-.42-.14-.86-.3-1.31-.48a.51.51,0,0,1,.38-1c.43.17.85.32,1.25.46a.51.51,0,0,1,.33.64A.52.52,0,0,1,70,120.94Zm10.39-1.1a.54.54,0,0,1-.42-.21.53.53,0,0,1,.11-.72,8.63,8.63,0,0,0,1-.83.51.51,0,0,1,.72,0,.5.5,0,0,1,0,.72,13.13,13.13,0,0,1-1.09.91A.57.57,0,0,1,80.38,119.84Zm2.8-2.94a.52.52,0,0,1-.29-.09.5.5,0,0,1-.12-.71c.24-.36.48-.73.7-1.12a.51.51,0,1,1,.88.51c-.23.41-.49.81-.75,1.19A.5.5,0,0,1,83.18,116.9Zm1.91-3.61a.43.43,0,0,1-.19,0,.5.5,0,0,1-.28-.66c.2-.52.36-1,.46-1.26a.51.51,0,1,1,1,.33c-.11.3-.27.77-.48,1.31A.52.52,0,0,1,85.09,113.29Z"/><path class="cls-2" d="M127,115.09a.51.51,0,0,1-.5-.43.5.5,0,0,1,.42-.58,3.57,3.57,0,0,0,1.12-.39.51.51,0,1,1,.48.9,4.66,4.66,0,0,1-1.44.5Zm-2.5-.81a.5.5,0,0,1-.34-.13,4.43,4.43,0,0,1-.94-1.21.51.51,0,0,1,.91-.47,3.58,3.58,0,0,0,.72.93.51.51,0,0,1-.35.88Zm5.68-1.53a.52.52,0,0,1-.24,0,.52.52,0,0,1-.21-.7,3.45,3.45,0,0,0,.38-1.12.51.51,0,0,1,.59-.42.5.5,0,0,1,.42.59,4.58,4.58,0,0,1-.49,1.43A.49.49,0,0,1,130.16,112.75Zm-6.72-2.17a.39.39,0,0,1-.18,0,.49.49,0,0,1-.29-.66,3.19,3.19,0,0,1,.93-1.29.51.51,0,1,1,.66.77,2.23,2.23,0,0,0-.64.89A.5.5,0,0,1,123.44,110.58Zm6.24-1.5a.5.5,0,0,1-.31-.1,2.63,2.63,0,0,0-1-.48.51.51,0,0,1-.39-.61.52.52,0,0,1,.62-.39,3.79,3.79,0,0,1,1.42.67.51.51,0,0,1-.31.91Z"/><path class="cls-2" d="M110.05,132.43h-.14a.51.51,0,1,1,0-1h.11a4.32,4.32,0,0,0,1.08-.14.51.51,0,0,1,.63.35.52.52,0,0,1-.36.63A5.11,5.11,0,0,1,110.05,132.43Zm-2.68-.82a.5.5,0,0,1-.29-.09,5.65,5.65,0,0,1-1.1-1,.52.52,0,0,1,.08-.72.51.51,0,0,1,.72.08,4.07,4.07,0,0,0,.88.83.51.51,0,0,1,.13.71A.52.52,0,0,1,107.37,131.61Zm6.18-.75a.47.47,0,0,1-.34-.14.51.51,0,0,1,0-.72,4.38,4.38,0,0,0,.7-1,.51.51,0,0,1,.91.48,5.73,5.73,0,0,1-.86,1.22A.55.55,0,0,1,113.55,130.86Zm-8.21-2.66a.51.51,0,0,1-.5-.45,5,5,0,0,1,0-.67V127a4.37,4.37,0,0,1,.06-.72.5.5,0,0,1,.58-.42.51.51,0,0,1,.43.58,3.68,3.68,0,0,0-.05.58v.09a4.89,4.89,0,0,0,0,.54.5.5,0,0,1-.44.57Zm9.57-1.08a.51.51,0,0,1-.51-.48,3.83,3.83,0,0,0-.26-1.16.5.5,0,0,1,.28-.66.51.51,0,0,1,.67.28,5,5,0,0,1,.33,1.48.51.51,0,0,1-.48.54Zm-8.42-2.71a.49.49,0,0,1-.34-.14.51.51,0,0,1,0-.72,4.65,4.65,0,0,1,1.17-1l.09,0,.08-.06a5.25,5.25,0,0,1,1.39-.49h0a.51.51,0,0,1,.18,1l-.09-.51.07.51a3.62,3.62,0,0,0-1.11.4l-.07,0-.07,0a3.92,3.92,0,0,0-.92.76A.52.52,0,0,1,106.49,124.41Zm6.4-.66a.6.6,0,0,1-.28-.08,4.63,4.63,0,0,0-1.1-.52.51.51,0,1,1,.3-1,5.44,5.44,0,0,1,1.36.63.52.52,0,0,1,.15.71A.51.51,0,0,1,112.89,123.75Z"/><path class="cls-2" d="M104.55,80.34h-.12a.5.5,0,0,1-.38-.61,12.46,12.46,0,0,1,.39-1.36.51.51,0,1,1,1,.33A11.33,11.33,0,0,0,105,80,.5.5,0,0,1,104.55,80.34Zm1.53-3.76a.59.59,0,0,1-.26-.07.52.52,0,0,1-.17-.71c.24-.39.5-.79.78-1.17a.52.52,0,0,1,.72-.1.51.51,0,0,1,.1.71c-.26.36-.51.72-.73,1.09A.51.51,0,0,1,106.08,76.58Zm2.58-3.15a.52.52,0,0,1-.35-.89c.34-.31.7-.62,1.07-.91a.51.51,0,1,1,.63.81c-.35.27-.69.56-1,.85A.54.54,0,0,1,108.66,73.43ZM112,71.06a.51.51,0,0,1-.24-1c.41-.22.83-.43,1.26-.62a.51.51,0,1,1,.41.93c-.4.18-.8.38-1.19.59A.5.5,0,0,1,112,71.06Zm3.79-1.49a.51.51,0,0,1-.12-1c.45-.11.91-.21,1.37-.29a.51.51,0,1,1,.17,1c-.43.07-.87.16-1.29.27Zm4.87-.47h0c-.26,0-.53,0-.79,0a.51.51,0,1,1,0-1c.29,0,.58,0,.86,0a.52.52,0,0,1,.48.55A.51.51,0,0,1,120.63,69.1Z"/><path class="cls-2" d="M136.51,60.88h-.29a4.89,4.89,0,0,1-1.08-.19.51.51,0,0,1-.33-.64.51.51,0,0,1,.64-.34,3.37,3.37,0,0,0,.83.15h.32a.51.51,0,1,1,0,1Zm2.6-.83a.5.5,0,0,1-.42-.22.51.51,0,0,1,.13-.71,4.17,4.17,0,0,0,.88-.8.51.51,0,1,1,.78.66,5.6,5.6,0,0,1-1.08,1A.52.52,0,0,1,139.11,60.05Zm-5.93-.9a.52.52,0,0,1-.41-.22,5.26,5.26,0,0,1-.68-1.31.51.51,0,0,1,1-.33,4,4,0,0,0,.54,1.05.51.51,0,0,1-.12.71A.54.54,0,0,1,133.18,59.15Zm8-2.39h-.07a.51.51,0,0,1-.43-.58,4.53,4.53,0,0,0,0-.52,1.93,1.93,0,0,0,0-.24,3.05,3.05,0,0,0,0-.41.52.52,0,0,1,.42-.59.51.51,0,0,1,.59.42,4.35,4.35,0,0,1,.06.52c0,.1,0,.2,0,.3a4.87,4.87,0,0,1,0,.66A.52.52,0,0,1,141.18,56.76Zm-8.73-1.43h-.12a.51.51,0,0,1-.37-.62,4.74,4.74,0,0,1,.55-1.36.51.51,0,1,1,.88.51A3.9,3.9,0,0,0,133,55,.51.51,0,0,1,132.45,55.33Zm7.47-2.2a.51.51,0,0,1-.33-.13,3.85,3.85,0,0,0-1-.62.52.52,0,0,1-.27-.67.51.51,0,0,1,.67-.27,4.63,4.63,0,0,1,1.26.79.53.53,0,0,1,.05.73A.52.52,0,0,1,139.92,53.13Zm-5-.8a.5.5,0,0,1-.47-.3.51.51,0,0,1,.26-.68,4.07,4.07,0,0,1,1.46-.36l.05.5,0,.51a3.35,3.35,0,0,0-1.13.28A.46.46,0,0,1,134.89,52.33Z"/><path class="cls-2" d="M14.69,62.22h-.14A2.22,2.22,0,0,1,12.48,60a2.16,2.16,0,0,1,1.6-2.12,2.52,2.52,0,0,1,2.85,1.29,2.25,2.25,0,0,1,.18.82,2,2,0,0,1-.67,1.49A2.57,2.57,0,0,1,14.69,62.22Zm-.42-3.29A1.16,1.16,0,0,0,13.5,60a1.21,1.21,0,0,0,1.12,1.16,1.58,1.58,0,0,0,1.12-.42,1,1,0,0,0,.35-.74,1.32,1.32,0,0,0-.09-.41A1.52,1.52,0,0,0,14.27,58.93Z"/><path class="cls-2" d="M14.48,65h-.29a4.9,4.9,0,0,1-1.08-.2.52.52,0,0,1-.33-.64.5.5,0,0,1,.64-.33,3.91,3.91,0,0,0,.83.15h.32a.51.51,0,0,1,0,1Zm2.6-.83a.52.52,0,0,1-.42-.22.51.51,0,0,1,.13-.71,4.24,4.24,0,0,0,.88-.81.52.52,0,0,1,.72-.06.5.5,0,0,1,.06.72,5.34,5.34,0,0,1-1.08,1A.52.52,0,0,1,17.08,64.19Zm-5.92-.91a.51.51,0,0,1-.42-.21,5.15,5.15,0,0,1-.68-1.32.51.51,0,0,1,1-.33,4,4,0,0,0,.54,1,.51.51,0,0,1-.41.81Zm8-2.38h-.07a.5.5,0,0,1-.43-.57,4.67,4.67,0,0,0,0-.52v-.24c0-.14,0-.28-.05-.41a.51.51,0,0,1,1-.18,4.52,4.52,0,0,1,.06.53c0,.1,0,.2,0,.3a4.87,4.87,0,0,1,0,.66A.52.52,0,0,1,19.15,60.9Zm-8.73-1.43a.25.25,0,0,1-.12,0,.5.5,0,0,1-.37-.61,5.24,5.24,0,0,1,.55-1.37.52.52,0,0,1,.7-.18.51.51,0,0,1,.18.7,4,4,0,0,0-.44,1.09A.52.52,0,0,1,10.42,59.47Zm7.48-2.21a.48.48,0,0,1-.34-.13,3.85,3.85,0,0,0-1-.62.51.51,0,0,1-.27-.67.5.5,0,0,1,.67-.26,4.49,4.49,0,0,1,1.26.79.51.51,0,0,1,.05.72A.52.52,0,0,1,17.9,57.26Zm-5-.8a.51.51,0,0,1-.47-.3.51.51,0,0,1,.26-.67,4.3,4.3,0,0,1,1.46-.37l.05.51,0,.51a3.24,3.24,0,0,0-1.12.28A.52.52,0,0,1,12.86,56.46Z"/><path class="cls-2" d="M88.7,29.32a.51.51,0,0,1-.5-.41.52.52,0,0,1,.4-.6A6.79,6.79,0,0,0,89.82,28a.51.51,0,1,1,.37.95,7.63,7.63,0,0,1-1.39.41ZM86,29.25l-.13,0a7.61,7.61,0,0,1-1.37-.53.51.51,0,0,1,.47-.91,5.46,5.46,0,0,0,1.16.45.51.51,0,0,1,.37.63A.52.52,0,0,1,86,29.25Zm6.29-1.76a.51.51,0,0,1-.36-.15.52.52,0,0,1,0-.73,4.87,4.87,0,0,0,.78-.94.5.5,0,0,1,.7-.17.51.51,0,0,1,.17.7,6.24,6.24,0,0,1-.94,1.15A.5.5,0,0,1,92.29,27.49ZM82.7,27a.52.52,0,0,1-.42-.22,5.1,5.1,0,0,1-.67-1.34.51.51,0,1,1,1-.32,4.24,4.24,0,0,0,.55,1.08.51.51,0,0,1-.13.71A.52.52,0,0,1,82.7,27Z"/><path class="cls-2" d="M61,11.4H60.9a5.16,5.16,0,0,1-.79-.09.51.51,0,0,1-.41-.6.52.52,0,0,1,.6-.4,4.53,4.53,0,0,0,.62.07H61a3.15,3.15,0,0,0,.44,0,.52.52,0,0,1,.57.45.51.51,0,0,1-.44.57A5.44,5.44,0,0,1,61,11.4Zm2.89-1.1a.49.49,0,0,1-.38-.18.5.5,0,0,1,0-.72,4.41,4.41,0,0,0,.78-.89.51.51,0,0,1,.71-.14.5.5,0,0,1,.14.7,5.07,5.07,0,0,1-1,1.1A.46.46,0,0,1,63.91,10.3Zm-6-.22a.53.53,0,0,1-.37-.15,4.8,4.8,0,0,1-.86-1.2A.51.51,0,0,1,56.9,8a.51.51,0,0,1,.68.23,3.47,3.47,0,0,0,.68.94.52.52,0,0,1,0,.73A.54.54,0,0,1,57.9,10.08ZM65.58,6.8a.52.52,0,0,1-.52-.52v-.1c0-.08,0-.17,0-.26a4.08,4.08,0,0,0-.14-.79.51.51,0,0,1,.34-.64.52.52,0,0,1,.64.35,5.57,5.57,0,0,1,.18,1c0,.1,0,.21,0,.32v.13A.5.5,0,0,1,65.58,6.8Zm-8.81-.38h-.09a.52.52,0,0,1-.42-.59,5.58,5.58,0,0,1,.42-1.39.51.51,0,0,1,.68-.26.51.51,0,0,1,.25.67A4.74,4.74,0,0,0,57.27,6,.5.5,0,0,1,56.77,6.42Zm7.1-3a.46.46,0,0,1-.29-.1,4,4,0,0,0-1-.52.51.51,0,0,1-.32-.65.5.5,0,0,1,.64-.32,5.1,5.1,0,0,1,1.32.66.51.51,0,0,1,.12.71A.52.52,0,0,1,63.87,3.39Zm-5-.24a.5.5,0,0,1-.43-.24.5.5,0,0,1,.16-.7A4.13,4.13,0,0,1,60,1.64a.51.51,0,0,1,.61.39.5.5,0,0,1-.38.6h0a3.24,3.24,0,0,0-1.06.43A.5.5,0,0,1,58.83,3.15Z"/><path class="cls-2" d="M29.15,32.47a.52.52,0,0,1-.47-.31.51.51,0,0,1,.27-.67A6.94,6.94,0,0,0,30,30.87a.51.51,0,0,1,.59.83,7.32,7.32,0,0,1-1.27.73A.78.78,0,0,1,29.15,32.47Zm3-2.64a.52.52,0,0,1-.44-.78,6.3,6.3,0,0,0,.57-1.13.51.51,0,0,1,.66-.3.51.51,0,0,1,.29.66,7,7,0,0,1-.65,1.31A.52.52,0,0,1,32.19,29.83Zm1-3.89a.51.51,0,0,1-.51-.48,5.63,5.63,0,0,0-.19-1.23.5.5,0,0,1,.36-.63.51.51,0,0,1,.62.36,6.45,6.45,0,0,1,.23,1.45.51.51,0,0,1-.49.53Z"/><path class="cls-2" d="M82.45,63.84h0a.51.51,0,0,1-.49-.53,7.8,7.8,0,0,1,.2-1.44.51.51,0,1,1,1,.24A5.89,5.89,0,0,0,83,63.35.51.51,0,0,1,82.45,63.84ZM83.75,60a.49.49,0,0,1-.28-.09.51.51,0,0,1-.14-.71,10,10,0,0,1,.92-1.12.53.53,0,0,1,.73,0,.52.52,0,0,1,0,.73,7.6,7.6,0,0,0-.8,1A.53.53,0,0,1,83.75,60ZM92,57.42a.54.54,0,0,1-.33-.12,2.11,2.11,0,0,0-1-.44.51.51,0,0,1-.41-.6.52.52,0,0,1,.6-.4,3.12,3.12,0,0,1,1.47.66.52.52,0,0,1,0,.72A.5.5,0,0,1,92,57.42Zm-5.21,0a.51.51,0,0,1-.21-1A7.69,7.69,0,0,1,88,56a.51.51,0,1,1,.24,1,6.39,6.39,0,0,0-1.18.42A.54.54,0,0,1,86.82,57.41Z"/></g></g></svg>