<svg xmlns="http://www.w3.org/2000/svg" viewBox="0 0 141.73 142.81"><defs><style>.cls-1{fill:#ffcc80;}.cls-2{fill:#525d7d;}</style></defs><title>014_c</title><g id="Layer_2" data-name="Layer 2"><g id="Layer_1-2" data-name="Layer 1"><path class="cls-1" d="M137,50.17a1.13,1.13,0,0,0-2-.34.48.48,0,0,0-.76.23,3.48,3.48,0,0,1-2.11,2.25.87.87,0,0,0,.47,1.68c.81-.17.62,1.18,1.07,1.61a1.31,1.31,0,0,0,1.6.16c.6-.38.72-1.16.89-1.79l.06-.21a.93.93,0,0,0,.78-.14l.07-.06a1.23,1.23,0,0,0,1.14-.54,11,11,0,0,0,.69-1.32A1.23,1.23,0,0,0,137,50.17Z"/><path class="cls-1" d="M65.36,56.72a1.51,1.51,0,0,1-.19-.35A5.43,5.43,0,0,0,65,55.26,1.13,1.13,0,0,0,64,54.45c.24-.43-.38-.8-.73-.5-1.12.93-2.15,2-3.18,3a7.83,7.83,0,0,0-1.86,2.63,1,1,0,0,0,.95,1.26,3.57,3.57,0,0,0,2.11-1c.3-.27.63-.76,1-.9s.62,0,1,0a1.52,1.52,0,0,0,1.32-.61A1.09,1.09,0,0,0,65.36,56.72Zm-3-.09c.14-.19.29-.37.44-.56a2.62,2.62,0,0,0,.07.57A1.24,1.24,0,0,0,62.35,56.63Z"/><path class="cls-1" d="M93.79,7.76A1.54,1.54,0,0,0,91,7.48a1.13,1.13,0,0,0-.57,0A19.15,19.15,0,0,0,85.75,10a8.87,8.87,0,0,1,1.74-2c.44-.37-.12-1-.59-.77a9.57,9.57,0,0,0-4.38,5.62c-.28.88.85,1.84,1.65,1.26l.63-.45a1.44,1.44,0,0,0,.5,2c1.12.77,2.14,0,3.07-.66l0,0a1.36,1.36,0,0,0,.91.7h0a2,2,0,0,0,1.88.33,2.69,2.69,0,0,0,1.25-1,4.43,4.43,0,0,0,1.22-1.29C94.85,11.88,94.49,9.68,93.79,7.76Z"/><path class="cls-1" d="M57.6,93.11a1.47,1.47,0,0,0-.71-1.55l-6.52-4.08a1.45,1.45,0,0,0-1.17-.17c0-.1,0-.21,0-.32,0-.39-.61-.51-.7-.1s-.16.74-.22,1.11a1.51,1.51,0,0,0-.26.83c0,.2,0,.4,0,.6-.2,1.42-.35,2.86-.57,4.29a7,7,0,0,0-.38,2.5c.22.83,1.37,1.35,2,1.76,1.32.82,3.72,2.87,5.42,2.31a5.49,5.49,0,0,0,2.11-1.84c.85-1,1.69-1.94,2.53-2.91A1.49,1.49,0,0,0,57.6,93.11Zm-8.51-1a3.38,3.38,0,0,0,.28.33A2.55,2.55,0,0,1,49,93.58C49,93.09,49.07,92.6,49.09,92.12Z"/><path class="cls-1" d="M104.3,128.35l-.41-.42a7,7,0,0,0-1.68-2.1,1.52,1.52,0,0,0-2.53,1.24,4.44,4.44,0,0,0-.22.6,12.2,12.2,0,0,0-.4,2.17c-.08.61.58,1.11,1.12,1.12.92,0,1.82-.12,2.74-.1A1.52,1.52,0,0,0,104.3,128.35Z"/><path class="cls-1" d="M11,51.13C10.9,50,9.3,49.3,8.66,50.36a7,7,0,0,0-.11-2,.46.46,0,0,0-.83-.11,9,9,0,0,0-.78,2.3A2.7,2.7,0,0,0,5,51.93a1.22,1.22,0,0,0,.43,1.64,1.76,1.76,0,0,0,1.5.09,5,5,0,0,0,.58-.35,2.34,2.34,0,0,0,.55.22,2.07,2.07,0,0,0,1-.08,1.25,1.25,0,0,0,2-1.05Z"/><path class="cls-1" d="M49.76,50.47a1.49,1.49,0,0,0-2.69.34l-.16.08-.28.17a1.08,1.08,0,0,0-1.56-1.19l-.11.07a.59.59,0,0,0-.3,0,4.57,4.57,0,0,0-3.36,2.48.93.93,0,0,0,.84,1.4L42,54a1.24,1.24,0,0,0,1.5,1.94l.08-.05a1,1,0,0,0,.38.67c1.66,1.35,3.41-.18,4.83-1.21C50.62,54,50.74,52.44,49.76,50.47Z"/><path class="cls-1" d="M18.25,96.81a10.18,10.18,0,0,1-1,.26l0-.14A2.56,2.56,0,0,0,17,95.58,1.54,1.54,0,0,0,14.86,95a5.69,5.69,0,0,0-2.57,2.65,1.79,1.79,0,0,0,.17,1.8,6.32,6.32,0,0,1-1.53.16c-.72.3-.86.14-.4-.48,0-.23-.07-.47-.1-.7-.08-.52-.93-.49-1,0-.18.85-.52,2.21.14,2.91.83.89,3,.46,4,.43,2.94-.09,5.84.26,6.4-3.31A1.4,1.4,0,0,0,18.25,96.81Z"/><path class="cls-1" d="M123.85,107.73a1.44,1.44,0,0,0-1.67-1,1,1,0,0,0-1.34-.11l-1.14.82a.44.44,0,0,0-.54-.47c-2.06.61-3.1,2.44-4,4.22-.43.84.52,2.11,1.44,1.43l.3-.22a1.22,1.22,0,0,0,.67,1.22,1.43,1.43,0,0,0,1.31.86,4,4,0,0,0,3.35-1.64,1.14,1.14,0,0,0,.73-.43A4.74,4.74,0,0,0,123.85,107.73Z"/><path class="cls-1" d="M43.84,10.23A3.72,3.72,0,0,0,40.39,7.4a1.5,1.5,0,0,0-1.31,2.21l-.23.17c.17-.39-.24-.89-.67-.63a10,10,0,0,0-3.36,3.67A1,1,0,0,0,36,14.34a4.26,4.26,0,0,0,.54-.15,1.19,1.19,0,0,0,.68,1.15,3,3,0,0,0,2.7-.3,1.36,1.36,0,0,0,2.13.12A5.3,5.3,0,0,0,43.84,10.23Z"/><path class="cls-1" d="M37.86,133.06v0C37.87,133,37.87,133,37.86,133.06Z"/><path class="cls-1" d="M39.1,131.7a.61.61,0,0,0-.86.18.36.36,0,0,1,0,.11,1,1,0,0,0-.29.7.2.2,0,0,0,0,.05l0,.08s0,.26,0,.28v0a1.23,1.23,0,0,0,0,.19,1,1,0,0,0,.2.55.89.89,0,0,0,1.17.24,1.58,1.58,0,0,0,.71-1.41A1,1,0,0,0,39.1,131.7Z"/><path class="cls-2" d="M21.16,42.28h0c-1.9-.11-3.81-.11-5.65-.11-1.24,0-2.53,0-3.81,0a.5.5,0,0,1-.49-.48c0-1.34-.16-2.7-.27-4-.15-1.75-.31-3.56-.31-5.36,0-.54,0-1.05,0-1.54a.53.53,0,0,1,.54-.48.5.5,0,0,1,.47.53c0,.48,0,1,0,1.49,0,1.75.16,3.54.3,5.27.1,1.18.21,2.39.26,3.59,1.11,0,2.23,0,3.31,0,1.86,0,3.78,0,5.71.11a.51.51,0,0,1,0,1Z"/><path class="cls-2" d="M13.62,33.06a.51.51,0,0,1-.36-.15c-.42-.43-.88-.82-1.32-1.2l-.66-.58a8.3,8.3,0,0,0-1.63,1.61.51.51,0,0,1-.71.11.5.5,0,0,1-.11-.71A10.92,10.92,0,0,1,11,30.07a.51.51,0,0,1,.66,0c.3.29.62.56.95.84s.93.8,1.38,1.26a.5.5,0,0,1,0,.71A.51.51,0,0,1,13.62,33.06Z"/><path class="cls-2" d="M19.13,44.53a.51.51,0,0,1-.36-.15.51.51,0,0,1,0-.71l.94-.93c.32-.3.63-.61.94-.92a18.65,18.65,0,0,1-1.29-1.94.51.51,0,0,1,.89-.49,18.93,18.93,0,0,0,1.47,2.18.49.49,0,0,1,0,.65c-.41.42-.83.83-1.25,1.25l-.93.91A.51.51,0,0,1,19.13,44.53Z"/><path class="cls-2" d="M16.78,37.6h0a2.19,2.19,0,0,1-2.19-2,2.38,2.38,0,0,1,1.62-2.38,2.14,2.14,0,0,1,.72-.11A2.11,2.11,0,0,1,19,35.19a2.34,2.34,0,0,1-.64,1.74A2.26,2.26,0,0,1,16.78,37.6Zm.07-3.47a1.17,1.17,0,0,0-.35.06,1.37,1.37,0,0,0-.93,1.35,1.18,1.18,0,0,0,1.19,1.05,1.26,1.26,0,0,0,.9-.37,1.31,1.31,0,0,0,.36-1,1.11,1.11,0,0,0-1.15-1.11Z"/><path class="cls-2" d="M24.75,29.15a2.44,2.44,0,0,1-2.42-2.63A2,2,0,0,1,23,25.19a2.5,2.5,0,0,1,1.72-.7h0a2.36,2.36,0,0,1,2.39,2.07,2.57,2.57,0,0,1-.66,1.82,2.26,2.26,0,0,1-1.59.77Zm-.06-3.65a1.54,1.54,0,0,0-1.05.42,1,1,0,0,0-.3.68,1.41,1.41,0,0,0,1.46,1.53,1.17,1.17,0,0,0,.86-.43,1.48,1.48,0,0,0,.41-1.07A1.35,1.35,0,0,0,24.69,25.5Z"/><path class="cls-2" d="M35.13,24.36H35a2.13,2.13,0,0,1-2-2.05,2.25,2.25,0,0,1,.66-1.69,2.3,2.3,0,0,1,1.71-.68,3,3,0,0,1,.42,0,2.07,2.07,0,0,1,1.54,1.26,1.92,1.92,0,0,1,.14.62,2.28,2.28,0,0,1-.67,1.79A2.32,2.32,0,0,1,35.13,24.36ZM35.27,21A1.28,1.28,0,0,0,34,22.27a1.1,1.1,0,0,0,1.06,1.08,1.36,1.36,0,0,0,1-.41,1.24,1.24,0,0,0,.37-1,1.28,1.28,0,0,0-.07-.34,1.14,1.14,0,0,0-.83-.63l-.22,0Z"/><path class="cls-2" d="M17.67,34.52a.52.52,0,0,1-.38-.17.51.51,0,0,1,.05-.71,62.87,62.87,0,0,0,5.24-5.39.5.5,0,0,1,.76.66A60.76,60.76,0,0,1,18,34.4.54.54,0,0,1,17.67,34.52Z"/><path class="cls-2" d="M26.44,26.43A.5.5,0,0,1,26,26a.49.49,0,0,1,.37-.61A22.55,22.55,0,0,0,32.92,23a.52.52,0,0,1,.7.17.51.51,0,0,1-.17.7,23.53,23.53,0,0,1-6.89,2.53Z"/><path class="cls-2" d="M27,20.35a.51.51,0,0,1-.48-.35,9.09,9.09,0,0,1-.3-2.33A8.31,8.31,0,0,0,26,15.61a.5.5,0,1,1,1-.3,8.67,8.67,0,0,1,.31,2.32,7.88,7.88,0,0,0,.26,2.07.5.5,0,0,1-.34.63A.39.39,0,0,1,27,20.35Z"/><path class="cls-2" d="M24.3,18.1a.51.51,0,0,1-.5-.43.51.51,0,0,1,.43-.57c1.58-.23,3-.34,4.65-.46a.51.51,0,0,1,.07,1c-1.59.12-3,.23-4.57.45Z"/><path class="cls-2" d="M39.17,16.75H39a5,5,0,0,1-4.83-4.69,5.33,5.33,0,0,1,3.55-5.25,5,5,0,0,1,1.65-.27h0A5,5,0,0,1,44.45,11,5.37,5.37,0,0,1,43,15.14,5.2,5.2,0,0,1,39.17,16.75ZM38,7.76A4.38,4.38,0,0,0,35.14,12,3.92,3.92,0,0,0,39,15.73a4.21,4.21,0,0,0,3.26-1.29,4.42,4.42,0,0,0,1.18-3.39,4,4,0,0,0-4.08-3.5A4.24,4.24,0,0,0,38,7.76Z"/><path class="cls-2" d="M39.71,13.27a.48.48,0,0,1-.26-.07l-.59-.36a12.9,12.9,0,0,0-1.81-1,.5.5,0,0,1-.29-.65.52.52,0,0,1,.66-.29,13.67,13.67,0,0,1,2,1.06l.18.1c.37-.52.76-1,1.15-1.51l.73-.94a.51.51,0,1,1,.81.61l-.74.95c-.48.6-1,1.22-1.38,1.85A.49.49,0,0,1,39.71,13.27Z"/><path class="cls-2" d="M119.12,114.91h-.21a4.94,4.94,0,0,1-4.83-4.69,5.33,5.33,0,0,1,3.55-5.25,5.1,5.1,0,0,1,1.68-.27,5,5,0,0,1,5.09,4.43,5.39,5.39,0,0,1-1.46,4.17A5.2,5.2,0,0,1,119.12,114.91Zm-1.16-9a4.37,4.37,0,0,0-2.87,4.25A3.93,3.93,0,0,0,119,113.9a4.18,4.18,0,0,0,3.26-1.3,4.38,4.38,0,0,0,1.18-3.38,4.18,4.18,0,0,0-5.43-3.29Z"/><path class="cls-2" d="M119.66,111.43a.48.48,0,0,1-.26-.07l-.59-.35a12.46,12.46,0,0,0-1.82-1,.51.51,0,1,1,.38-.94,13.62,13.62,0,0,1,2,1l.18.11c.37-.53.76-1,1.15-1.52.25-.31.49-.62.73-.94a.51.51,0,0,1,.81.61l-.74,1a22.78,22.78,0,0,0-1.38,1.85A.51.51,0,0,1,119.66,111.43Z"/><path class="cls-2" d="M40.35,27.9a1.55,1.55,0,0,1-1.63-1.48,2.31,2.31,0,0,1,2.23-2,.47.47,0,0,1,.35.15l.12.12A1.56,1.56,0,0,1,42.08,26,1.78,1.78,0,0,1,40.35,27.9Zm.41-2.47c-.49.11-1,.59-1,1,0,.23.23.46.62.46.71,0,.72-.86.72-.87a.84.84,0,0,0,0-.27A1.33,1.33,0,0,0,40.76,25.43Z"/><path class="cls-2" d="M17.78,27.44A1.55,1.55,0,0,1,16.15,26a2.32,2.32,0,0,1,2.23-2,.55.55,0,0,1,.36.15l.12.12a2,2,0,0,1,.56.75,1.72,1.72,0,0,1,.1.6A1.78,1.78,0,0,1,17.78,27.44ZM18.2,25c-.5.1-1,.59-1,1,0,.22.21.47.61.47.72,0,.73-.87.73-.87a.76.76,0,0,0-.05-.27A1.28,1.28,0,0,0,18.2,25Z"/><path class="cls-2" d="M134.61,42.24A1.55,1.55,0,0,1,133,40.76a2.32,2.32,0,0,1,2.23-2,.51.51,0,0,1,.36.15l.12.11a2,2,0,0,1,.56.76,2,2,0,0,1,.1.59A1.78,1.78,0,0,1,134.61,42.24Zm.42-2.46c-.5.11-1,.59-1,1,0,.23.21.47.61.47.72,0,.72-.86.72-.87a.84.84,0,0,0,0-.27A1.5,1.5,0,0,0,135,39.78Z"/><path class="cls-2" d="M126.41,125.27a1.54,1.54,0,0,1-1.63-1.48,2.31,2.31,0,0,1,2.22-2,.51.51,0,0,1,.36.15l.12.12a1.9,1.9,0,0,1,.56.75,1.7,1.7,0,0,1,.1.59A1.78,1.78,0,0,1,126.41,125.27Zm.41-2.47c-.49.11-1,.6-1,1,0,.22.22.46.62.46.71,0,.72-.86.72-.87a1.26,1.26,0,0,0,0-.27A2,2,0,0,0,126.82,122.8Z"/><path class="cls-2" d="M26,43.53H23.85a.51.51,0,0,1-.5-.51.5.5,0,0,1,.5-.5H26a24.71,24.71,0,0,0,2.5-.1c0-3.74,1.27-5.62,3.7-5.54h.23a1.61,1.61,0,0,1,.79.1c.85-2.94,2.57-4.54,4.88-4.54s3.35,1.06,3.42,3.34a3.32,3.32,0,0,1,1.12-.2,2.48,2.48,0,0,1,2.43,2.56A2.74,2.74,0,0,1,48,40.73a21.4,21.4,0,0,0,4.38-.79.51.51,0,0,1,.63.33.5.5,0,0,1-.33.64,25.18,25.18,0,0,1-5.11.88.52.52,0,0,1-.38-.13.5.5,0,0,1-.17-.37c0-1.47-.67-2.15-2.09-2.15a2.06,2.06,0,0,0-.35,0,.53.53,0,0,1-.42-.15.53.53,0,0,1-.14-.42,2.8,2.8,0,0,0,0-.4,1.49,1.49,0,0,0-1.42-1.61,3.09,3.09,0,0,0-1.41.41.49.49,0,0,1-.51,0,.5.5,0,0,1-.23-.46c0-.17,0-.34,0-.51,0-2.14-.88-2.56-2.41-2.56-2.51,0-3.59,2.39-4.06,4.39a.5.5,0,0,1-.77.31,1.21,1.21,0,0,0-.57-.27H32.5l-.28,0h-.16c-.63,0-2.56,0-2.56,4.69v.29a.5.5,0,0,1-.44.51A26.18,26.18,0,0,1,26,43.53Z"/><path class="cls-2" d="M32.85,44.08a.51.51,0,0,1-.06-1c2.35-.3,4.69-.4,7-.5,1.12,0,2.28-.1,3.42-.18a.51.51,0,0,1,.54.48.49.49,0,0,1-.47.53c-1.16.08-2.32.13-3.44.18-2.24.1-4.56.2-6.87.5Z"/><path class="cls-2" d="M33.86,46.55a.51.51,0,0,1-.49-.38.5.5,0,0,1,.37-.61,45.34,45.34,0,0,1,5.1-.88l1.81-.26a.51.51,0,0,1,.15,1L39,45.68a44.08,44.08,0,0,0-5,.86Z"/><path class="cls-2" d="M38.47,41.16H37.24a.51.51,0,1,1,0-1h1.23a.51.51,0,0,1,0,1Z"/><path class="cls-2" d="M45.35,23.26a.51.51,0,0,1-.49-.66c.38-1.23.78-2.47,1.17-3.63a.48.48,0,0,1,.38-.33.49.49,0,0,1,.48.16c.47.53.92,1.09,1.37,1.63.29.36.59.73.89,1.08a.54.54,0,0,1,.11.44.5.5,0,0,1-.3.35,11.65,11.65,0,0,1-3.57.95Zm1.36-3.12c-.22.65-.44,1.33-.65,2a10.67,10.67,0,0,0,1.87-.51l-.46-.56Z"/><path class="cls-2" d="M55.82,36.34A2.27,2.27,0,0,1,53.47,34a2.44,2.44,0,0,1,.92-1.92,1.92,1.92,0,0,1,.73-.32l.1,0a1.67,1.67,0,0,1,.4-.07,2.42,2.42,0,0,1,1.71.69A2.21,2.21,0,0,1,58.06,34a2.31,2.31,0,0,1-2.12,2.38ZM55.7,32.7h0l-.17,0-.11,0a1,1,0,0,0-.36.14A1.41,1.41,0,0,0,54.48,34a1.3,1.3,0,0,0,.39.95,1.33,1.33,0,0,0,1,.35A1.28,1.28,0,0,0,57,34a1.17,1.17,0,0,0-.4-.85A1.44,1.44,0,0,0,55.7,32.7Z"/><path class="cls-2" d="M54.1,34a.49.49,0,0,1-.23-.06c-4.43-2.27-6.25-7.31-7.34-11.45a.51.51,0,1,1,1-.26c1,3.94,2.74,8.72,6.82,10.81a.5.5,0,0,1,.22.68A.49.49,0,0,1,54.1,34Z"/><path class="cls-2" d="M67.32,35.26A2.2,2.2,0,0,1,65.1,33a2.3,2.3,0,0,1,.74-1.63,1.92,1.92,0,0,1,1.16-.5,2.4,2.4,0,0,1,1.78.62,2.13,2.13,0,0,1-1.42,3.73Zm-.79-3.11a1.29,1.29,0,0,0-.42.9,1.21,1.21,0,0,0,.36.85,1.17,1.17,0,0,0,.85.35h0a1.12,1.12,0,0,0,1.14-1.19,1.1,1.1,0,0,0-.38-.78,1.36,1.36,0,0,0-1-.36A1,1,0,0,0,66.53,32.15Z"/><path class="cls-2" d="M68.38,32.5a.51.51,0,0,1-.44-.26.52.52,0,0,1,.19-.69,12.58,12.58,0,0,0,6.3-10.77v-.11a.5.5,0,0,1,.5-.5.5.5,0,0,1,.51.5v.11a13.61,13.61,0,0,1-6.81,11.65A.45.45,0,0,1,68.38,32.5Z"/><path class="cls-2" d="M76.11,21.23c-.64,0-1.28-.05-1.9-.1l-1-.08a.48.48,0,0,1-.41-.25.5.5,0,0,1,0-.49c.27-.51.53-1,.78-1.58.44-.91.9-1.86,1.44-2.74a.52.52,0,0,1,.47-.24.5.5,0,0,1,.42.31c.56,1.29,1.11,2.75,1.69,4.44a.52.52,0,0,1-.05.44.53.53,0,0,1-.37.23A9.18,9.18,0,0,1,76.11,21.23Zm-2-1.13.23,0c.6.05,1.22.1,1.82.1h.34c-.36-1-.7-1.95-1-2.81-.31.58-.6,1.18-.89,1.77Q74.3,19.63,74.06,20.1Z"/><path class="cls-2" d="M58.55,29.24a8.57,8.57,0,0,1-1.74-.18.51.51,0,0,1-.4-.5,14.66,14.66,0,0,1,.19-2.71,6.08,6.08,0,0,1-1-.91c-.45.21-.91.43-1.35.67a.52.52,0,0,1-.63-.13,7.33,7.33,0,0,1-1.59-4,.51.51,0,0,1,.35-.52c.59-.19,1.19-.41,1.79-.67,0-.21,0-.43,0-.65a6.68,6.68,0,0,1,.1-1.17,10.36,10.36,0,0,1-1.53-1.15.52.52,0,0,1-.11-.6A10.25,10.25,0,0,1,56,13a.53.53,0,0,1,.67.07c.45.49.86,1,1.24,1.52a12.62,12.62,0,0,1,1.92-.71V12.56a.5.5,0,0,1,.44-.5,14.93,14.93,0,0,1,2-.14,9,9,0,0,1,3.25.54.48.48,0,0,1,.3.29.53.53,0,0,1,0,.41l-.45.86c-.2.37-.41.76-.6,1.14a8.28,8.28,0,0,1,1.61,1.57c.57-.09,1.15-.21,1.69-.34a.5.5,0,0,1,.57.3,11.44,11.44,0,0,1,1,3.86.51.51,0,0,1-.35.51,12.45,12.45,0,0,1-1.76.43,7.23,7.23,0,0,1-.42,2.21,8.75,8.75,0,0,0,.83.37.52.52,0,0,1,.3.28.53.53,0,0,1,0,.41,9.94,9.94,0,0,1-2.31,3.16.52.52,0,0,1-.67,0c-.41-.36-.82-.75-1.28-1.24a7.15,7.15,0,0,1-2.57.57c0,.36,0,.71,0,1v.12a.5.5,0,0,1-.35.49A7.89,7.89,0,0,1,58.55,29.24Zm-1.13-1.1A7.25,7.25,0,0,0,60.33,28a12.91,12.91,0,0,1,.08-1.32.5.5,0,0,1,.54-.45,5.78,5.78,0,0,0,2.9-.61.52.52,0,0,1,.59.12,14.49,14.49,0,0,0,1.1,1.11,9.07,9.07,0,0,0,1.51-2.05,7.75,7.75,0,0,1-.86-.44.5.5,0,0,1-.2-.64A6.34,6.34,0,0,0,66.51,21a.51.51,0,0,1,.46-.5,8.87,8.87,0,0,0,1.61-.33,10.86,10.86,0,0,0-.75-2.74c-.54.12-1.1.23-1.66.31a.51.51,0,0,1-.48-.21,7.14,7.14,0,0,0-1.89-1.82.5.5,0,0,1-.18-.63c.25-.53.53-1.07.8-1.58l.17-.31a9.79,9.79,0,0,0-3.8-.22v1.28a.49.49,0,0,1-.38.49,11.6,11.6,0,0,0-2.47.92.5.5,0,0,1-.65-.15c-.34-.47-.71-1-1.12-1.43a9.3,9.3,0,0,0-2.47,2.7,8.8,8.8,0,0,0,1.36.94.51.51,0,0,1,.25.55,6.14,6.14,0,0,0-.15,1.32,4.94,4.94,0,0,0,.07.87A.49.49,0,0,1,55,21a16,16,0,0,1-1.86.74,6.35,6.35,0,0,0,1.08,2.73L55.25,24l.28-.14a.5.5,0,0,1,.62.16,5.21,5.21,0,0,0,1.29,1.19.51.51,0,0,1,.22.54A10.68,10.68,0,0,0,57.42,28.14Z"/><path class="cls-2" d="M60.8,23.9h-.06a3.52,3.52,0,0,1-3.5-3.49,3.42,3.42,0,0,1,2.86-3.59A3.92,3.92,0,0,1,64,18.57a3.06,3.06,0,0,1,.37,1.08,4.09,4.09,0,0,1-1,3A3.34,3.34,0,0,1,60.8,23.9Zm-.58-6.08a2.43,2.43,0,0,0-2,2.58,2.52,2.52,0,0,0,2.51,2.48A2.4,2.4,0,0,0,62.64,22a3.13,3.13,0,0,0,.77-2.21,2.32,2.32,0,0,0-.24-.73A2.92,2.92,0,0,0,60.22,17.82Z"/><path class="cls-2" d="M52,6.64a.52.52,0,0,1-.42-.22.51.51,0,0,1,.13-.71c1.08-.74,2.11-1.55,3.19-2.42l.14-.1a.46.46,0,0,1,.37-.11.55.55,0,0,1,.35.2,18.92,18.92,0,0,0,1.75,2c1.58-1.38,3.24-2.7,5.07-4.06a.51.51,0,0,1,.69.09c.94,1.12,1.78,2,2.6,2.86l1.14-1c.94-.85,1.91-1.74,2.87-2.58a.5.5,0,0,1,.71,0,.51.51,0,0,1,0,.72c-1,.83-1.92,1.72-2.86,2.57L66.17,5.27a.51.51,0,0,1-.69,0c-.87-.84-1.74-1.77-2.71-2.91-1.79,1.34-3.42,2.66-5,4a.52.52,0,0,1-.69,0A22.19,22.19,0,0,1,55.23,4.3c-1,.77-2,1.55-3,2.25A.47.47,0,0,1,52,6.64Z"/><path class="cls-2" d="M70.52,3.82A.5.5,0,0,1,70,3.4a7.74,7.74,0,0,1-.1-1.31c0-.35,0-.7,0-1-.36,0-.73.07-1.11.07A4.28,4.28,0,0,1,67.69,1a.51.51,0,0,1-.36-.62A.51.51,0,0,1,68,0a3.58,3.58,0,0,0,.9.11c.33,0,.66,0,1-.07L70.49,0a.54.54,0,0,1,.4.15A.56.56,0,0,1,71,.56a14.38,14.38,0,0,0-.1,1.53A6.84,6.84,0,0,0,71,3.23a.51.51,0,0,1-.42.59Z"/><path class="cls-2" d="M72,12.59a.51.51,0,0,1-.48-.35,12.74,12.74,0,0,1-.41-3.41c0-.43,0-.88-.06-1.32A.51.51,0,0,1,71.5,7a.5.5,0,0,1,.54.47c0,.46,0,.92.06,1.36a11.41,11.41,0,0,0,.37,3.14.5.5,0,0,1-.34.63A.39.39,0,0,1,72,12.59Z"/><path class="cls-2" d="M69.62,10.57a.51.51,0,1,1,0-1,19.68,19.68,0,0,0,3.62-.22.5.5,0,0,1,.59.41.51.51,0,0,1-.41.59A21.31,21.31,0,0,1,69.62,10.57Z"/><path class="cls-2" d="M84,30.1a.52.52,0,0,1-.38-.17c-.55-.64-1.1-1.31-1.62-1.95-.28-.34-.55-.68-.83-1l-.73.67A28.22,28.22,0,0,1,78,29.7a.51.51,0,0,1-.6-.82,25.88,25.88,0,0,0,2.31-2l1.14-1a.53.53,0,0,1,.38-.12.46.46,0,0,1,.34.18c.4.46.78.94,1.17,1.42s.87,1.06,1.31,1.58l1.41-1c.67-.44,1.36-.9,2-1.38a.51.51,0,0,1,.67.08c.6.67,1.19,1.29,1.88,2l.65-.45a13.32,13.32,0,0,0,2-1.51.51.51,0,0,1,.72,0,.51.51,0,0,1,0,.71A15.11,15.11,0,0,1,91.27,29c-.32.22-.66.44-1,.68a.5.5,0,0,1-.66,0c-.71-.71-1.32-1.34-1.92-2-.56.39-1.13.76-1.68,1.13s-1.19.79-1.77,1.2A.52.52,0,0,1,84,30.1Z"/><path class="cls-2" d="M88.57,21.43a2.27,2.27,0,0,1-2.48-2v0a1,1,0,0,0,0-.17c0-1.81-1.22-2.52-2.62-3.34S80.23,14,80.23,11.4c0-3.95,4.69-7.81,8.18-7.81,4.22,0,7.3,5.64,7.3,8s-.6,2.88-1.6,3.57c-.84.59-1.89,1.31-2.87,4.58A2.71,2.71,0,0,1,88.57,21.43Zm-1.46-2c0,.17.25,1,1.46,1a1.74,1.74,0,0,0,1.71-.94c1.08-3.61,2.34-4.48,3.25-5.12s1.17-.81,1.17-2.74-2.79-7-6.29-7c-3,0-7.17,3.43-7.17,6.8,0,2,1.27,2.74,2.75,3.6s3.12,1.81,3.12,4.21Z"/><path class="cls-2" d="M85.7,17a.5.5,0,0,1-.5-.47.5.5,0,0,1,.47-.54c.75-.05,1.52-.16,2.27-.27a23.49,23.49,0,0,1,3.16-.29.5.5,0,0,1,.5.5.5.5,0,0,1-.5.51,20.71,20.71,0,0,0-3,.29c-.76.11-1.56.22-2.35.27Z"/><path class="cls-2" d="M86.6,19.45a.49.49,0,0,1-.49-.39.5.5,0,0,1,.38-.61c.51-.11,1-.21,1.56-.3a14.29,14.29,0,0,0,2.87-.69.5.5,0,0,1,.65.29.51.51,0,0,1-.29.66,15.49,15.49,0,0,1-3.06.74c-.53.09-1,.18-1.51.29Z"/><path class="cls-2" d="M84.46,11.81a.47.47,0,0,1-.35-.15.51.51,0,0,1,0-.72,6.49,6.49,0,0,0,.47-.58c.51-.67,1.13-1.51,2.16-1.51a2.12,2.12,0,0,1,1.5.84c.25.26.48.5.7.5s.46-.22.77-.73A1.91,1.91,0,0,1,91.29,8.3a1.81,1.81,0,0,1,1.32.82,1.93,1.93,0,0,0,.51.49.51.51,0,1,1-.45.91,2.84,2.84,0,0,1-.83-.74c-.2-.23-.4-.47-.55-.47s-.42.22-.72.69a2,2,0,0,1-1.63,1.21,2,2,0,0,1-1.43-.81c-.32-.34-.53-.54-.77-.54-.52,0-.94.56-1.35,1.1a6,6,0,0,1-.57.7A.51.51,0,0,1,84.46,11.81Z"/><path class="cls-2" d="M78.84,13.94a.5.5,0,0,1-.46-.3,6.16,6.16,0,0,1-.26-.67.5.5,0,0,1,.31-.64.51.51,0,0,1,.65.32c.06.19.14.39.22.58a.5.5,0,0,1-.25.67A.52.52,0,0,1,78.84,13.94Z"/><path class="cls-2" d="M78.28,10.51h0a.51.51,0,0,1-.45-.56,7.77,7.77,0,0,1,.3-1.48.51.51,0,0,1,1,.29,7.61,7.61,0,0,0-.27,1.29A.49.49,0,0,1,78.28,10.51ZM79.85,6.6a.47.47,0,0,1-.3-.1.49.49,0,0,1-.11-.7,10.16,10.16,0,0,1,1-1.15.51.51,0,1,1,.73.7,9.3,9.3,0,0,0-.86,1A.51.51,0,0,1,79.85,6.6Zm15.9-1a.52.52,0,0,1-.41-.21,7.51,7.51,0,0,0-.88-1,.51.51,0,0,1,0-.72.52.52,0,0,1,.72,0,8.17,8.17,0,0,1,1,1.13.51.51,0,0,1-.1.71A.57.57,0,0,1,95.75,5.59ZM83,3.71a.5.5,0,0,1-.27-.93A11,11,0,0,1,84,2.06a.5.5,0,0,1,.67.24.5.5,0,0,1-.24.67,10.78,10.78,0,0,0-1.19.66A.53.53,0,0,1,83,3.71ZM92.44,3a.52.52,0,0,1-.21,0A7.94,7.94,0,0,0,91,2.45a.51.51,0,0,1-.34-.63.49.49,0,0,1,.62-.34,9,9,0,0,1,1.4.52.49.49,0,0,1,.25.67A.51.51,0,0,1,92.44,3Zm-5.55-.81a.5.5,0,0,1-.08-1A8.36,8.36,0,0,1,88.21,1h.1a.5.5,0,0,1,.5.51.5.5,0,0,1-.51.5h-.09A7.4,7.4,0,0,0,87,2.15Z"/><path class="cls-2" d="M97.09,8.81a.49.49,0,0,1-.49-.42c0-.21-.08-.42-.13-.62a.51.51,0,0,1,.36-.62.51.51,0,0,1,.62.37c0,.23.1.46.14.7a.51.51,0,0,1-.41.59Z"/><path class="cls-2" d="M107.24,19.05a4.84,4.84,0,0,1-4.93-4.56,5.08,5.08,0,0,1,1.44-3.7,4.89,4.89,0,0,1,3.58-1.52,5.58,5.58,0,0,1,.81.09,4.89,4.89,0,0,1,4,4.43,5.13,5.13,0,0,1-1.42,3.73,4.77,4.77,0,0,1-3.45,1.53Zm0-8.76a3.85,3.85,0,0,0-2.79,1.2,4,4,0,0,0-1.15,3A3.8,3.8,0,0,0,107.26,18,3.75,3.75,0,0,0,110,16.82a4.1,4.1,0,0,0,1.14-3A3.87,3.87,0,0,0,108,10.35a3.57,3.57,0,0,0-.65-.06Z"/><path class="cls-2" d="M107.13,15.94a.47.47,0,0,1-.3-.1l-1-.74-1.09-.8a.52.52,0,0,1-.11-.71.5.5,0,0,1,.71-.11l1.09.81.56.42c.42-.63.92-1.38,1.47-2.13a.5.5,0,1,1,.81.59c-.67.93-1.27,1.84-1.72,2.54a.45.45,0,0,1-.33.22Z"/><path class="cls-2" d="M117.42,18.93a.49.49,0,0,1-.49-.37,8.66,8.66,0,0,1-.27-2.37c0-.23,0-.46,0-.7s0-.47,0-.7a.51.51,0,1,1,1,0c0,.24,0,.48,0,.72v.68a7.82,7.82,0,0,0,.22,2.1.51.51,0,0,1-.35.63Z"/><path class="cls-2" d="M115.27,17.43a.5.5,0,0,1-.5-.51.5.5,0,0,1,.5-.5A21.06,21.06,0,0,0,119,16.2a.5.5,0,0,1,.58.41.51.51,0,0,1-.4.59A22.66,22.66,0,0,1,115.27,17.43Z"/><path class="cls-2" d="M101.33,30.7a.51.51,0,0,1,0-1c1.14-.12,2.3-.14,3.41-.17l.67,0a6.75,6.75,0,0,1-.37-2.15,3.38,3.38,0,0,1,3.17-3.64,2.5,2.5,0,0,1,1,.21c.51-1.87,1.84-3.16,3.33-3.16A3.08,3.08,0,0,1,115.71,23a3.54,3.54,0,0,1,2.23-.89c2.27,0,2.61,1.79,2.66,2.87,1.35.23,2.12,1.3,2.32,3.21l2.35-.06c1.36,0,2.75-.05,4.15-.11a.52.52,0,0,1,.53.49.51.51,0,0,1-.49.52c-1.41.06-2.81.09-4.16.11l-2.83.07a.5.5,0,0,1-.52-.48c-.12-2.43-1-2.76-1.85-2.78a.52.52,0,0,1-.5-.5c0-1.95-.62-2.33-1.66-2.33a3.17,3.17,0,0,0-2.14,1.18.48.48,0,0,1-.51.15.51.51,0,0,1-.36-.39c-.27-1.4-.78-2.27-2.43-2.27-1.15,0-2.22,1.3-2.49,3a.51.51,0,0,1-.31.4.53.53,0,0,1-.5-.08,1.61,1.61,0,0,0-1-.38A2.39,2.39,0,0,0,106,27.35a6.55,6.55,0,0,0,.54,2.44.52.52,0,0,1,0,.47.53.53,0,0,1-.41.23l-1.38,0c-1.1,0-2.23.06-3.34.17Z"/><path class="cls-2" d="M114.21,30.5H112l-2.2,0a.5.5,0,0,1-.5-.5.5.5,0,0,1,.5-.51l2.21,0h2.24c1.79,0,3.15,0,4.4-.14a.5.5,0,0,1,.54.47.51.51,0,0,1-.46.54C117.41,30.46,116,30.5,114.21,30.5Z"/><path class="cls-2" d="M112.24,33.4a.51.51,0,0,1-.51-.51.5.5,0,0,1,.51-.5c2.17,0,4.47-.11,6.83-.23a.5.5,0,0,1,.53.48.5.5,0,0,1-.48.53C116.75,33.29,114.43,33.4,112.24,33.4Z"/><path class="cls-2" d="M113.71,28.41a6.74,6.74,0,0,1-1.71-.2.51.51,0,1,1,.25-1,6.65,6.65,0,0,0,2.51.1.51.51,0,0,1,.57.44.51.51,0,0,1-.44.56A8.26,8.26,0,0,1,113.71,28.41Z"/><path class="cls-2" d="M103.43,23h-.05c-2.62-.24-4-2.87-4-5.22a5.12,5.12,0,0,1,0-.56.49.49,0,0,1,.55-.45.5.5,0,0,1,.45.55c0,.15,0,.3,0,.46,0,1.93,1.17,4,3.13,4.21a.51.51,0,0,1,0,1Z"/><path class="cls-2" d="M117.52,37.67a.5.5,0,0,1-.5-.44.51.51,0,0,1,.44-.57,40.82,40.82,0,0,1,5.24-.34.51.51,0,0,1,.5.51.5.5,0,0,1-.5.5,38.92,38.92,0,0,0-5.11.34Z"/><path class="cls-2" d="M129.6,36.86a.47.47,0,0,1-.32-.12q-.65-.52-1.29-1.08l-1.23-1a.5.5,0,0,1,.64-.78l1.24,1,.84.71a20.59,20.59,0,0,1,2.29-3.05.5.5,0,0,1,.71,0,.51.51,0,0,1,0,.72A22.65,22.65,0,0,0,130,36.62a.5.5,0,0,1-.35.23Z"/><path class="cls-2" d="M134.33,57.28a.5.5,0,0,1-.44-.25l-.36-.6a15.18,15.18,0,0,1-1.2-2.26,18.58,18.58,0,0,1-2.82-1.34.5.5,0,0,1-.24-.5.49.49,0,0,1,.35-.42c.66-.2,1.33-.38,2-.55l1-.26c.08-.67.1-1.36.13-2a21.53,21.53,0,0,1,.19-2.52.5.5,0,0,1,.93-.2c.57.91,1.12,1.8,1.62,2.76h1.93c.69,0,1.22,0,1.71,0a.5.5,0,0,1,.47.27.49.49,0,0,1,0,.54c-.43.58-.84,1.2-1.25,1.8l-.11.17a.91.91,0,0,0-.16.54,4.25,4.25,0,0,0,.54,1.61c.1.2.19.4.28.6a.51.51,0,0,1-.56.7c-.51-.1-1-.17-1.54-.23L136,55l-.5.81c-.25.4-.52.82-.75,1.23A.51.51,0,0,1,134.33,57.28Zm-3.22-4.74c.54.26,1.13.51,1.79.77a.5.5,0,0,1,.3.3,11.84,11.84,0,0,0,1.12,2.18c.12-.18.23-.36.34-.54l.66-1.08a.49.49,0,0,1,.51-.24l1,.14.64.08a4.37,4.37,0,0,1-.5-1.76,1.92,1.92,0,0,1,.33-1.1l.11-.17.68-1c-.46,0-1,0-1.56,0h-1.4a.52.52,0,0,1-.46-.28c-.29-.57-.6-1.12-.93-1.67,0,.31,0,.62,0,.94a23.17,23.17,0,0,1-.18,2.46.51.51,0,0,1-.36.41l-1.32.36Z"/><path class="cls-2" d="M125.36,80.78a1.67,1.67,0,0,1-1.66-1.53c-.37-4.66-.63-9.2-.76-13.49a1.66,1.66,0,0,1,1.52-1.7c2.28-.2,4.56-.23,6.29-.23l2.63,0H136c1.19,0,2.17,0,3.1,0a1.59,1.59,0,0,1,1.18.45,1.65,1.65,0,0,1,.52,1.16A114.69,114.69,0,0,0,141.72,78a1.7,1.7,0,0,1-.35,1.27,1.6,1.6,0,0,1-1.13.62C135.86,80.33,130.66,80.78,125.36,80.78Zm-.65-1.61a.65.65,0,0,0,.64.59c5.27,0,10.43-.44,14.79-.87a.61.61,0,0,0,.44-.24.64.64,0,0,0,.13-.5,117,117,0,0,1-.91-12.69.72.72,0,0,0-.2-.46.71.71,0,0,0-.46-.17c-.94,0-1.93,0-3.13,0h-2.64l-2.62,0c-1.71,0-4,0-6.2.23a.65.65,0,0,0-.6.66C124.08,70,124.34,74.52,124.71,79.17Z"/><path class="cls-2" d="M123.59,67.69a.51.51,0,0,1-.5-.43.51.51,0,0,1,.43-.57,38.4,38.4,0,0,1,5.47-.34c1.41,0,2.84.05,4.22.09s2.83.1,4.24.1c1,0,2,0,2.85-.08a.51.51,0,0,1,.06,1c-.9,0-1.85.08-2.91.08-1.43,0-2.87,0-4.27-.1s-2.8-.09-4.19-.09a36.14,36.14,0,0,0-5.32.33Z"/><path class="cls-2" d="M126.68,66.32a.5.5,0,0,1-.5-.51,11.49,11.49,0,0,0-.14-1.49,12.81,12.81,0,0,1-.14-1.63.51.51,0,0,1,.51-.51.5.5,0,0,1,.5.51,11.49,11.49,0,0,0,.14,1.49,12.81,12.81,0,0,1,.14,1.63A.51.51,0,0,1,126.68,66.32Z"/><path class="cls-2" d="M135.87,65.64a.5.5,0,0,1-.49-.4,8.38,8.38,0,0,1-.17-1.84c0-.24,0-.48,0-.72s0-.45,0-.67a.51.51,0,0,1,.51-.5.5.5,0,0,1,.5.5v.69c0,.23,0,.47,0,.7a7.29,7.29,0,0,0,.14,1.62.5.5,0,0,1-.39.6Z"/><path class="cls-2" d="M130.23,76.8a.5.5,0,0,1-.48-.35,19.54,19.54,0,0,1-.66-5.63l-.26.14c-.54.28-1.07.56-1.64.84a.49.49,0,0,1-.67-.23.49.49,0,0,1,.22-.67c.56-.28,1.09-.56,1.62-.84l1-.52a.5.5,0,0,1,.49,0,.53.53,0,0,1,.25.43v.51a19.34,19.34,0,0,0,.61,5.65.5.5,0,0,1-.33.64Z"/><path class="cls-2" d="M134.28,76.08c-2.81,0-2.81-2.52-2.81-3.35,0-1.82.57-3,1.69-3.53a1.08,1.08,0,0,1,.44-.09,3.39,3.39,0,0,1,2.87,3.64C136.47,75,135.73,76.08,134.28,76.08Zm-.9-6.42.21.46c-.74.34-1.11,1.22-1.11,2.61,0,1.94.72,2.34,1.8,2.34.58,0,1.18-.27,1.18-2.32a2.42,2.42,0,0,0-1.86-2.63Z"/><path class="cls-2" d="M131.24,78.49a.51.51,0,0,1-.11-1,20.75,20.75,0,0,1,4.61-.35.51.51,0,0,1,0,1,20,20,0,0,0-4.39.32Z"/><path class="cls-2" d="M119.73,92.16a2.48,2.48,0,0,1-1.7-.71,2.35,2.35,0,0,1-.73-1.71,2.46,2.46,0,0,1,1.5-2.26,1.82,1.82,0,0,1,.66-.15,2.52,2.52,0,0,1,1.86.72,2.43,2.43,0,0,1,.72,1.88,2.35,2.35,0,0,1-2.25,2.23Zm-.14-3.83h-.06a1.14,1.14,0,0,0-.34.07,1.44,1.44,0,0,0-.88,1.33,1.33,1.33,0,0,0,.42,1,1.42,1.42,0,0,0,1,.42A1.32,1.32,0,0,0,121,89.88a1.45,1.45,0,0,0-.42-1.11A1.52,1.52,0,0,0,119.59,88.33Z"/><path class="cls-2" d="M124.27,90.52a.54.54,0,0,1-.35-.14.5.5,0,0,1,0-.71,25.11,25.11,0,0,1,3-2.68.51.51,0,0,1,.64,0c.72.6,1.48,1.14,2.29,1.7l.34.24c1.2-.92,2.38-1.87,3.38-2.69a.5.5,0,0,1,.69,0,13.91,13.91,0,0,0,2,1.88c1.27-.94,2.72-2,4.11-3.27a.52.52,0,0,1,.72,0,.51.51,0,0,1,0,.71c-1.53,1.35-3.12,2.54-4.47,3.54a.51.51,0,0,1-.58,0,11.27,11.27,0,0,1-2.16-1.89c-1,.83-2.16,1.75-3.34,2.64a.49.49,0,0,1-.59,0l-.64-.45c-.68-.48-1.38-1-2-1.49a21.59,21.59,0,0,0-2.56,2.32A.5.5,0,0,1,124.27,90.52Z"/><path class="cls-2" d="M136.59,98.08a.57.57,0,0,1-.3-.1,15.07,15.07,0,0,1-2-1.83.51.51,0,0,1,0-.71c.4-.39.78-.83,1.15-1.26s.63-.72,1-1.06a.52.52,0,0,1,.35-.16.55.55,0,0,1,.37.14A23.62,23.62,0,0,0,139.18,95a.52.52,0,0,1,.19.37.52.52,0,0,1-.14.39c-.46.46-.93.91-1.4,1.36l-.89.86A.47.47,0,0,1,136.59,98.08Zm-1.27-2.28a12,12,0,0,0,1.23,1.1l.58-.56,1-1c-.43-.35-.87-.74-1.35-1.2l-.59.66C135.9,95.16,135.61,95.49,135.32,95.8Z"/><path class="cls-2" d="M127.3,100a.5.5,0,0,1-.48-.38,4.63,4.63,0,0,1-.15-1.31c0-.25,0-.5,0-.75s0-.48,0-.71a3.89,3.89,0,0,0-.12-1,.51.51,0,0,1,.36-.62.49.49,0,0,1,.62.35,5.1,5.1,0,0,1,.15,1.32c0,.25,0,.5,0,.75s0,.47,0,.71a4,4,0,0,0,.11,1,.5.5,0,0,1-.35.62Z"/><path class="cls-2" d="M125.28,97.94a.51.51,0,0,1,0-1,25.07,25.07,0,0,0,4.08-.22.51.51,0,0,1,.17,1A26.71,26.71,0,0,1,125.28,97.94Z"/><path class="cls-2" d="M105.15,115.15a.53.53,0,0,1-.29-.1c-.33-.23-.64-.48-1-.72-.49-.38-1-.76-1.5-1.1a.5.5,0,0,1-.23-.34.52.52,0,0,1,.11-.4,23,23,0,0,1,2.13-2.24.49.49,0,0,1,.64,0c.83.6,1.52,1.1,2.26,1.59a.5.5,0,0,1,.12.73l-1.29,1.67-.59.75A.51.51,0,0,1,105.15,115.15Zm-1.73-2.45c.38.27.74.55,1.1.83l.54.41.28-.36,1-1.24c-.49-.34-1-.68-1.5-1.07C104.33,111.73,103.86,112.19,103.42,112.7Z"/><path class="cls-2" d="M133.71,106.22a2.5,2.5,0,0,1-2.37-2.19,2.28,2.28,0,0,1,2.51-2.53,2.71,2.71,0,0,1,1.35.48,2.24,2.24,0,0,1,.88,1.6,2.51,2.51,0,0,1-.66,1.9A2.29,2.29,0,0,1,133.71,106.22Zm-.12-3.72h-.06a1.47,1.47,0,0,0-1.18,1.48,1.51,1.51,0,0,0,1.36,1.23,1.28,1.28,0,0,0,1-.42,1.51,1.51,0,0,0,.39-1.14,1.24,1.24,0,0,0-.48-.86,1.66,1.66,0,0,0-.87-.28Z"/><path class="cls-2" d="M127.77,117.77a2.17,2.17,0,0,1-.36,0,2.5,2.5,0,0,1-.2-4.87,2.87,2.87,0,0,1,.46-.07,2.76,2.76,0,0,1,2,.71,2.47,2.47,0,0,1,.78,1.76,2.54,2.54,0,0,1-2.21,2.47Zm.06-4h-.1a2.09,2.09,0,0,0-.32.05,1.44,1.44,0,0,0-1,1.53,1.41,1.41,0,0,0,1.17,1.35,3.39,3.39,0,0,0,.63,0,1.56,1.56,0,0,0,1.29-1.46,1.42,1.42,0,0,0-.46-1A1.65,1.65,0,0,0,127.83,113.82Z"/><path class="cls-2" d="M115.86,125.51a2.22,2.22,0,0,1-1.63-.67,2.36,2.36,0,0,1-.64-1.75,2.31,2.31,0,0,1,1-1.86,1.62,1.62,0,0,1,.6-.24,2.53,2.53,0,0,1,2.12.61,2.31,2.31,0,0,1,.78,2A2.24,2.24,0,0,1,115.86,125.51Zm-.2-3.55-.25,0a.67.67,0,0,0-.23.08,1.41,1.41,0,0,0-.22,2.08,1.28,1.28,0,0,0,2.15-.68,1.34,1.34,0,0,0-.44-1.11A1.54,1.54,0,0,0,115.66,122Z"/><path class="cls-2" d="M117.3,123a.51.51,0,0,1-.47-.32.5.5,0,0,1,.28-.66c3.08-1.21,6.26-2.62,8.21-5.34a.51.51,0,1,1,.82.6c-2.11,2.93-5.44,4.42-8.66,5.68A.39.39,0,0,1,117.3,123Z"/><path class="cls-2" d="M128.88,114a.52.52,0,0,1-.29-.09.5.5,0,0,1-.13-.7,28.83,28.83,0,0,0,4.09-7.74.51.51,0,0,1,.63-.33.5.5,0,0,1,.34.63,29.75,29.75,0,0,1-4.22,8A.52.52,0,0,1,128.88,114Z"/><path class="cls-2" d="M109.67,128.25a.47.47,0,0,1-.35-.15.46.46,0,0,1-.15-.37c0-.37,0-.75,0-1.13,0-2.91-.19-5.89-.37-8.76l1-.08-.51,0,.51,0c.18,2.89.37,5.88.37,8.83,0,.21,0,.41,0,.62l2.69-.12c3-.13,6-.27,9-.2a.51.51,0,0,1,0,1c-3-.07-6,.07-9,.2l-3.23.14Z"/><path class="cls-2" d="M107.29,121a.5.5,0,0,1-.44-.75,14,14,0,0,1,1.12-1.68c.28-.38.57-.78.83-1.2a.52.52,0,0,1,.39-.23.49.49,0,0,1,.42.17c.86,1,1.82,1.85,2.74,2.7a.51.51,0,1,1-.68.75c-.79-.73-1.61-1.48-2.38-2.3l-.51.71a14.81,14.81,0,0,0-1,1.57A.49.49,0,0,1,107.29,121Z"/><path class="cls-2" d="M120.67,130a.49.49,0,0,1-.28-.09.5.5,0,0,1-.14-.7,10.61,10.61,0,0,1,1.34-1.59,5.63,5.63,0,0,1-1.29-2.27.49.49,0,0,1,.35-.62.51.51,0,0,1,.62.36,4.92,4.92,0,0,0,1.38,2.17.48.48,0,0,1,0,.72,11.79,11.79,0,0,0-1.56,1.79A.51.51,0,0,1,120.67,130Z"/><path class="cls-2" d="M99.51,136h-.13a5.36,5.36,0,0,1-3.93-1.76,6.51,6.51,0,0,1-1.7-4.56,5.64,5.64,0,0,1,4.48-5,7,7,0,0,1,1.79-.2,5.81,5.81,0,0,1,3.74,9.89A6,6,0,0,1,99.51,136Zm.31-10.56a6.7,6.7,0,0,0-1.38.18,4.68,4.68,0,0,0-3.68,4.11,5.41,5.41,0,0,0,1.43,3.81A4.39,4.39,0,0,0,99.4,135a5,5,0,0,0,3.65-1.38,4.8,4.8,0,0,0-3.08-8.16Z"/><path class="cls-2" d="M99.24,131.52a.51.51,0,0,1-.51-.45c-.06-.62-.09-1.27-.09-2,0-1,.06-1.93.11-2.88,0-.34,0-.68,0-1a.51.51,0,1,1,1,0c0,.35,0,.69,0,1-.05.93-.1,1.89-.1,2.82,0,.5,0,.95,0,1.39.91-.08,1.83-.12,2.72-.17l2.46-.15a.5.5,0,0,1,.54.47.51.51,0,0,1-.47.54l-2.48.15c-1,.05-2.12.11-3.19.21Z"/><path class="cls-2" d="M82.2,140.65a.47.47,0,0,1-.28-.09c-.94-.65-1.89-1.37-2.88-2.18l0,0c-.78.65-1.59,1.33-2.35,2a.51.51,0,0,1-.63,0,21.83,21.83,0,0,1-2.48-2.06l-.36.27a19.64,19.64,0,0,1-2.55,1.73.52.52,0,0,1-.69-.21.51.51,0,0,1,.21-.69,18.36,18.36,0,0,0,2.42-1.64l.72-.53a.5.5,0,0,1,.65,0,23.07,23.07,0,0,0,2.34,2c.68-.6,1.39-1.2,2.07-1.77l.34-.28a.5.5,0,0,1,.65,0c1,.79,1.87,1.5,2.78,2.14.81-.86,1.63-1.69,2.4-2.46a.5.5,0,0,1,.66-.05l.08.06a19.27,19.27,0,0,0,2.19,1.5c.68-.78,1.39-1.57,2.15-2.32a.5.5,0,0,1,.71.71c-.83.84-1.61,1.72-2.37,2.58a.52.52,0,0,1-.61.12A17.26,17.26,0,0,1,84.94,138c-.77.77-1.57,1.6-2.36,2.45A.51.51,0,0,1,82.2,140.65Z"/><path class="cls-2" d="M55.84,142.81a.53.53,0,0,1-.27-.08c-3.14-2-6.22-4.22-9-6.2a.52.52,0,0,1-.19-.52l.15-.72a23.68,23.68,0,0,1,1.11-4,.49.49,0,0,1,.49-.31c4.54.22,8.28.33,11.76.33,1,0,2.07,0,3.06,0a.49.49,0,0,1,.49.36c.24.82.52,1.64.8,2.43s.63,1.8.88,2.72a.52.52,0,0,1-.23.56c-1.19.74-2.42,1.47-3.61,2.17-1.72,1-3.51,2.08-5.21,3.19A.49.49,0,0,1,55.84,142.81Zm-8.35-6.91c2.56,1.87,5.43,3.95,8.35,5.8,1.64-1.06,3.33-2.06,5-3,1.08-.64,2.19-1.29,3.28-2-.22-.76-.48-1.5-.76-2.29s-.48-1.39-.7-2.1l-2.69,0c-3.4,0-7-.1-11.45-.31a25.43,25.43,0,0,0-.92,3.48C47.55,135.63,47.52,135.77,47.49,135.9Z"/><path class="cls-2" d="M60,137.08a.5.5,0,0,1-.26-.08l-.42-.24c-.68-.41-1.37-.82-2-1.3-.71.48-1.36.93-2,1.38a.51.51,0,0,1-.59,0l-.34-.25a6.2,6.2,0,0,0-3.34-1.55,4.73,4.73,0,0,0-2.31.95,10.42,10.42,0,0,1-1.46.81.51.51,0,1,1-.39-.94,8.69,8.69,0,0,0,1.31-.73A5.59,5.59,0,0,1,51.1,134,7,7,0,0,1,55,135.78l0,0c.62-.45,1.28-.91,2-1.4a.51.51,0,0,1,.6,0,19.57,19.57,0,0,0,2.21,1.45L60,136l.54-.38.84-.58a.54.54,0,0,1,.41-.08,13.4,13.4,0,0,1,2,.71c.31.14.64.27,1,.39a.52.52,0,0,1,.3.65.5.5,0,0,1-.65.3c-.35-.12-.69-.27-1-.41a15.25,15.25,0,0,0-1.59-.6l-.65.45-.8.57A.52.52,0,0,1,60,137.08Z"/><path class="cls-2" d="M56.35,142.36a.51.51,0,0,1-.49-.39,45.37,45.37,0,0,1-1-5.45.5.5,0,1,1,1-.13,45.54,45.54,0,0,0,1,5.34.5.5,0,0,1-.37.61Z"/><path class="cls-2" d="M55.69,128.07a.5.5,0,0,1-.3-.11l-.6-.43c-.4-.3-.82-.61-1.23-.94a.52.52,0,0,1-.07-.71l.44-.58a8.53,8.53,0,0,1,1.41-1.61.52.52,0,0,1,.69,0l.14.15c.53.54,1,1,1.55,1.54a.51.51,0,0,1,0,.7c-.37.41-.75.81-1.12,1.19l-.57.6A.52.52,0,0,1,55.69,128.07Zm-1.1-2c.26.2.52.4.8.6l.24.18.27-.28.76-.8-1-1a9.42,9.42,0,0,0-.91,1.12Z"/><path class="cls-2" d="M39.05,135h-.13a2.16,2.16,0,0,1-2-2.12,2.12,2.12,0,0,1,1.6-2,3.29,3.29,0,0,1,1,0,2,2,0,0,1,1.75,1.73,2.24,2.24,0,0,1-.63,1.77A2.19,2.19,0,0,1,39.05,135Zm-.33-3.15a1.13,1.13,0,0,0-.77,1,1.11,1.11,0,0,0,1.95.73,1.22,1.22,0,0,0,.35-1,1,1,0,0,0-.86-.83A2.73,2.73,0,0,0,38.72,131.87Z"/><path class="cls-2" d="M27.77,122.89c-1.25,0-2.51-.07-3.73-.14l-1.44-.07a.51.51,0,0,1-.49-.53.5.5,0,0,1,.53-.48l1.45.07c1,.06,2.05.11,3.08.13a11.41,11.41,0,0,1-.16-1.82c0-3.14,2-4.56,3.89-4.56a3.86,3.86,0,0,1,1.81.42,4,4,0,0,1,3.67-3,4.68,4.68,0,0,1,2.22.59,3.88,3.88,0,0,1,3.9-2.58,3.59,3.59,0,0,1,3.79,3.71,3.66,3.66,0,0,1-.49,2.17,2.68,2.68,0,0,1,2.12,2.51,2.85,2.85,0,0,1-.8,1.86c.57,0,1.14,0,1.7,0s1.15,0,1.73,0a17.14,17.14,0,0,1,2.15.12.51.51,0,0,1-.12,1,15.32,15.32,0,0,0-2-.11c-.57,0-1.14,0-1.7,0s-1.16,0-1.74,0-.92,0-1.32,0a.51.51,0,0,1-.26-.93c.42-.28,1.38-1,1.38-1.9A1.84,1.84,0,0,0,45,117.7a.52.52,0,0,1-.42-.78l.15-.23a2.84,2.84,0,0,0,.59-2,2.6,2.6,0,0,0-2.78-2.7,3,3,0,0,0-3.16,2.51.52.52,0,0,1-.34.34.5.5,0,0,1-.48-.11,3.51,3.51,0,0,0-2.14-.75c-1.59,0-2.59,1.45-2.87,2.89a.5.5,0,0,1-.81.29,2.71,2.71,0,0,0-1.8-.61c-1.43,0-2.88,1.1-2.88,3.55a12.15,12.15,0,0,0,.25,2.24.57.57,0,0,1-.11.42A.53.53,0,0,1,27.77,122.89Z"/><path class="cls-2" d="M36.05,123.85c-1,0-2,0-2.88,0a.51.51,0,1,1,0-1c.9,0,1.83,0,2.84,0,2.31,0,4.64-.08,6.9-.16a.51.51,0,1,1,0,1C40.72,123.77,38.38,123.85,36.05,123.85Z"/><path class="cls-2" d="M35,126.61a.5.5,0,0,1-.51-.46.52.52,0,0,1,.47-.55l1-.09c.81-.08,1.64-.16,2.45-.16.3,0,.57,0,.83,0a.5.5,0,0,1,.46.55.51.51,0,0,1-.54.46c-.24,0-.48,0-.75,0-.76,0-1.57.08-2.35.16l-1,.09Z"/><path class="cls-2" d="M39.26,121.44h-2.7a.5.5,0,0,1-.5-.5.5.5,0,0,1,.5-.51h2.7a.51.51,0,0,1,.51.51A.5.5,0,0,1,39.26,121.44Z"/><path class="cls-2" d="M72.89,131.54H72.8a2.47,2.47,0,0,1-2.4-2.44,2.57,2.57,0,0,1,2.41-2.65,2.81,2.81,0,0,1,1.22.25,2.51,2.51,0,0,1,1.44,2,2.66,2.66,0,0,1-.73,2A2.51,2.51,0,0,1,72.89,131.54Zm0-4.08a1.55,1.55,0,0,0-1.43,1.61,1.47,1.47,0,0,0,1.42,1.46,1.51,1.51,0,0,0,1.18-.47,1.66,1.66,0,0,0,.45-1.27,1.49,1.49,0,0,0-.82-1.16A2,2,0,0,0,72.84,127.46Z"/><path class="cls-2" d="M70.82,128.92h-.11C65.4,127.73,61,123.28,58.9,117a.51.51,0,0,1,1-.32c2,5.94,6.11,10.14,11.07,11.24a.51.51,0,0,1-.11,1Z"/><path class="cls-2" d="M57.59,118.28a.48.48,0,0,1-.26-.07.5.5,0,0,1-.25-.43c0-2,0-3.87-.08-5.66a.49.49,0,0,1,.28-.47.5.5,0,0,1,.55.06c.87.72,1.73,1.48,2.57,2.21.5.44,1,.88,1.5,1.31a.51.51,0,0,1,.17.43.51.51,0,0,1-.25.4c-1.24.71-2.55,1.42-4,2.17A.46.46,0,0,1,57.59,118.28Zm.46-5.06c0,1.2,0,2.42,0,3.73.92-.48,1.78-1,2.61-1.42l-1-.85C59.18,114.2,58.62,113.7,58.05,113.22Z"/><path class="cls-2" d="M82.53,131h-.22a2.53,2.53,0,0,1-2.2-2.72,2.19,2.19,0,0,1,1.15-1.84,2.9,2.9,0,0,1,1.12-.36,2.75,2.75,0,0,1,1.91.77,2.24,2.24,0,0,1,.78,1.64,2.51,2.51,0,0,1-2.19,2.5Zm0-3.92h0a1.9,1.9,0,0,0-.71.24,1.2,1.2,0,0,0-.61,1A1.55,1.55,0,0,0,82.38,130a2,2,0,0,0,.42,0,1.54,1.54,0,0,0,1.26-1.48,1.26,1.26,0,0,0-.46-.91A1.78,1.78,0,0,0,82.49,127.11Z"/><path class="cls-2" d="M84.8,127.74a.5.5,0,0,1-.46-.3.51.51,0,0,1,.25-.67C90,124.32,94,119.34,94.65,114.1a.51.51,0,0,1,.57-.44.52.52,0,0,1,.44.57c-.72,5.58-4.9,10.87-10.65,13.46A.54.54,0,0,1,84.8,127.74Z"/><path class="cls-2" d="M97.72,114.86a23.28,23.28,0,0,1-2.66-.2c-.48,0-1-.11-1.48-.14a.5.5,0,0,1-.39-.24.53.53,0,0,1,0-.46c.33-.81.6-1.67.86-2.51a29.87,29.87,0,0,1,1.11-3.12.5.5,0,0,1,.49-.3.53.53,0,0,1,.46.36,59.3,59.3,0,0,0,2.12,5.91.52.52,0,0,1,0,.48A.5.5,0,0,1,97.72,114.86Zm-3.39-1.29.85.09c.58.06,1.18.13,1.77.16-.49-1.21-1-2.5-1.42-3.9-.2.56-.38,1.14-.55,1.7S94.57,112.92,94.33,113.57Z"/><path class="cls-2" d="M75.24,121.5l-1.78,0-.82,0a.5.5,0,0,1-.49-.5c0-1,0-1.75-.06-2.48A10,10,0,0,1,69,116.88c-.75.46-1.42.84-2.13,1.2a.52.52,0,0,1-.6-.11,14.51,14.51,0,0,1-3.23-6.53.5.5,0,0,1,.29-.59c.61-.26,1.27-.52,2.05-.79a9.34,9.34,0,0,1-.3-2.45,15.21,15.21,0,0,1,.13-1.92c-.84-.56-1.6-1.11-2.3-1.68a.5.5,0,0,1-.12-.65,20,20,0,0,1,4.69-5.59.51.51,0,0,1,.69.06l.33.36c.44.49.86,1,1.31,1.4A10.76,10.76,0,0,1,74.66,98l0-.24a19.08,19.08,0,0,0,.25-1.9.51.51,0,0,1,.51-.47,13.86,13.86,0,0,1,6.82,2,.5.5,0,0,1,.23.56c-.17.68-.37,1.37-.59,2.06a8.07,8.07,0,0,1,1.44,1.35l.08,0a17.59,17.59,0,0,0,3.15-.93.51.51,0,0,1,.65.24,18.82,18.82,0,0,1,2.18,6.22.5.5,0,0,1-.36.54,14,14,0,0,1-1.4.31c-.31.06-.61.11-.9.18,0,.24,0,.48,0,.72a11.62,11.62,0,0,1-.43,3.15A4.71,4.71,0,0,0,88.17,113a.5.5,0,0,1,.31.26.51.51,0,0,1,0,.4,12.22,12.22,0,0,1-2.72,4.18.51.51,0,0,1-.48.14,6.44,6.44,0,0,1-2.49-1.28,16.8,16.8,0,0,1-2.9,1.56v.16c0,.7,0,1.4.11,2.08a.49.49,0,0,1-.37.53A17,17,0,0,1,75.24,121.5Zm-2.09-1h.34l1.75,0a17.46,17.46,0,0,0,3.73-.33c0-.57-.09-1.15-.09-1.74,0-.18,0-.35,0-.53a.48.48,0,0,1,.32-.45,15.52,15.52,0,0,0,3.33-1.79.52.52,0,0,1,.63,0,5.78,5.78,0,0,0,2.08,1.23,11.31,11.31,0,0,0,2.1-3.16,6.89,6.89,0,0,1-2-1.54.51.51,0,0,1-.12-.5,10.93,10.93,0,0,0,.47-3.15c0-.35,0-.71-.05-1a.5.5,0,0,1,.36-.54c.46-.13.94-.22,1.39-.31l.89-.17a18.07,18.07,0,0,0-1.82-5,20,20,0,0,1-2.87.8l-.38.09a.52.52,0,0,1-.51-.17,7.06,7.06,0,0,0-1.72-1.59.51.51,0,0,1-.22-.59c.22-.66.42-1.33.6-2a13,13,0,0,0-5.52-1.63c0,.5-.14,1-.22,1.5,0,.21-.07.42-.1.63a.51.51,0,0,1-.47.43,9.57,9.57,0,0,0-5.05,1.72.51.51,0,0,1-.64,0c-.59-.56-1.14-1.16-1.66-1.75a18.72,18.72,0,0,0-3.86,4.63c.65.51,1.36,1,2.13,1.52a.5.5,0,0,1,.23.49,15.24,15.24,0,0,0-.16,2.1,7.94,7.94,0,0,0,.39,2.6.51.51,0,0,1-.31.64c-.78.27-1.44.52-2,.76A13.58,13.58,0,0,0,66.78,117c.65-.34,1.28-.72,2-1.17a.5.5,0,0,1,.58,0,8.91,8.91,0,0,0,3.34,1.73.49.49,0,0,1,.37.46C73.12,118.78,73.14,119.53,73.15,120.45Z"/><path class="cls-2" d="M76.35,114a5.87,5.87,0,0,1-4.14-1.76,5.68,5.68,0,0,1-1.64-4.11,5.77,5.77,0,0,1,2.07-4.39,5.47,5.47,0,0,1,3.28-1.18,5.79,5.79,0,0,1,6.18,5.31,6,6,0,0,1-1.65,4.38A5.64,5.64,0,0,1,76.37,114Zm-3.07-9.48a4.77,4.77,0,0,0-1.7,3.62,4.62,4.62,0,0,0,1.35,3.39A4.93,4.93,0,0,0,76.35,113a4.66,4.66,0,0,0,3.37-1.44,5,5,0,0,0,1.37-3.64A4.73,4.73,0,0,0,76,103.58,4.55,4.55,0,0,0,73.28,104.53Z"/><path class="cls-2" d="M76.43,110.75h-.05a2.18,2.18,0,0,1-1.56-.68,2.42,2.42,0,0,1-.63-1.71,2.21,2.21,0,0,1,.85-1.69,2.09,2.09,0,0,1,1.06-.42,2.41,2.41,0,0,1,1.85.64,2.17,2.17,0,0,1,.78,1.56A2.43,2.43,0,0,1,78,110.1,2.21,2.21,0,0,1,76.43,110.75Zm-.12-3.5H76.2a1,1,0,0,0-.54.21,1.18,1.18,0,0,0-.46.92,1.37,1.37,0,0,0,.36,1,1.13,1.13,0,0,0,.84.37,1.21,1.21,0,0,0,.89-.36,1.33,1.33,0,0,0,.42-.91,1.17,1.17,0,0,0-.43-.83A1.5,1.5,0,0,0,76.31,107.25Z"/><path class="cls-2" d="M95.38,93a2.25,2.25,0,0,1-2.57-2.23c-2-.19-3.42-3.92-4.6-7.57a1.13,1.13,0,0,1,0-.32c0-1.39,3.36-4.18,7.78-4.18a6.76,6.76,0,0,1,5.22,2.2.5.5,0,0,1,.12.37c-.21,2.66-.47,6-2.24,8.19,0,.21.06.43.1.65a5,5,0,0,1,.11.88C99.25,92.3,96.5,93,95.38,93Zm-2.12-3.25a.54.54,0,0,1,.32.11.5.5,0,0,1,.18.34C93.9,91.48,94,92,95.38,92a4.54,4.54,0,0,0,2.87-1c0-.14,0-.4-.1-.67a8.09,8.09,0,0,1-.14-1,.55.55,0,0,1,.12-.35c1.64-1.93,1.92-5,2.13-7.56a5.75,5.75,0,0,0-4.32-1.7c-4.07,0-6.77,2.56-6.77,3.17l-.48.17.48-.16c1.48,4.56,2.76,6.88,3.8,6.88l.23,0Z"/><path class="cls-2" d="M93.83,86.27c-2.74,0-4.8-1.19-5.67-3.26a.5.5,0,0,1,.93-.39c1,2.38,3.65,2.64,4.74,2.64a7.25,7.25,0,0,0,6.8-4,.5.5,0,0,1,.64-.32.52.52,0,0,1,.32.64C101,83.5,98.07,86.27,93.83,86.27Z"/><path class="cls-2" d="M91.43,85.68a.48.48,0,0,1-.36-.16.5.5,0,0,1,0-.71,7.7,7.7,0,0,1,5.25-2,7.22,7.22,0,0,1,2.23.35.51.51,0,0,1,.32.64.5.5,0,0,1-.64.32,6.06,6.06,0,0,0-1.91-.3,6.79,6.79,0,0,0-4.56,1.77A.51.51,0,0,1,91.43,85.68Z"/><path class="cls-2" d="M99.53,88.61a.51.51,0,0,1-.08-1c.76-.12,4.56-.82,4.56-2.83,0-.65-.19-1.39-1.66-1.39a4.23,4.23,0,0,0-1.41.25.5.5,0,1,1-.34-.95,5.16,5.16,0,0,1,1.75-.31c1.7,0,2.67.88,2.67,2.4,0,2.76-4.14,3.63-5.41,3.83Z"/><path class="cls-2" d="M103.47,82.87a.57.57,0,0,1-.33-.11,3.19,3.19,0,0,0-2-.9.51.51,0,1,1,0-1A4.18,4.18,0,0,1,103.79,82a.51.51,0,0,1,.07.71A.51.51,0,0,1,103.47,82.87Z"/><path class="cls-2" d="M101,97.85a.47.47,0,0,1-.3-.1,11.83,11.83,0,0,1-1.31-1.14.51.51,0,0,1,0-.69l1.22-1.42a51.75,51.75,0,0,1,5.51-5.78.48.48,0,0,1,.4-.11.53.53,0,0,1,.35.21c.25.38.53.75.81,1.1a.51.51,0,0,1,0,.71,39.52,39.52,0,0,0-6.19,7,.52.52,0,0,1-.33.21Zm-.56-1.63c.16.14.31.28.46.4a41.06,41.06,0,0,1,5.67-6.44l-.24-.32a52.5,52.5,0,0,0-5,5.3C101.06,95.51,100.76,95.87,100.45,96.22Z"/><path class="cls-2" d="M99.08,98.39a.46.46,0,0,1-.19,0,.5.5,0,0,1-.28-.65,2.55,2.55,0,0,1,.69-.9,1.6,1.6,0,0,0,.34-.38.51.51,0,0,1,.91.45,2.52,2.52,0,0,1-.56.67,1.64,1.64,0,0,0-.44.53A.51.51,0,0,1,99.08,98.39Z"/><path class="cls-2" d="M18.27,115.46a.5.5,0,0,1-.5-.44c-.07-.48-.13-1-.2-1.47-.13-1.1-.28-2.23-.51-3.3a.5.5,0,0,1,.39-.6.5.5,0,0,1,.6.39c.24,1.11.39,2.27.53,3.39.06.49.12,1,.19,1.45a.5.5,0,0,1-.43.57Z"/><path class="cls-2" d="M15.53,113.57a.51.51,0,0,1-.47-.33.5.5,0,0,1,.3-.65,10.46,10.46,0,0,1,3.52-.54c.47,0,1,0,1.53.06a.51.51,0,0,1-.08,1c-.53,0-1-.06-1.45-.06a9.5,9.5,0,0,0-3.18.48A.47.47,0,0,1,15.53,113.57Z"/><path class="cls-2" d="M9,102.3a.5.5,0,0,1-.49-.37c-.31-1.17-.55-2.35-.79-3.5-.13-.65-.26-1.3-.4-1.94A.51.51,0,0,1,7.48,96a.5.5,0,0,1,.54,0,12,12,0,0,1,1.48,1c.35.26.69.51,1,.73,1.28-1.54,2.4-2.81,3.51-4a.5.5,0,0,1,.7,0,26.43,26.43,0,0,1,2,2.06c.22.24.44.49.67.73,1.1-.57,2.15-1.08,3.21-1.55a.5.5,0,0,1,.69.59,39.75,39.75,0,0,0-1.08,5.57.5.5,0,0,1-.46.45c-1.48.12-3,.21-4.44.3-2.08.13-4.24.25-6.35.48Zm-.44-4.83c.05.25.11.5.16.76.2,1,.4,2,.66,3,2-.2,4-.32,6-.44,1.32-.08,2.67-.16,4-.26a37.46,37.46,0,0,1,.79-4.28c-.83.39-1.66.81-2.52,1.26a.5.5,0,0,1-.6-.09c-.33-.34-.64-.68-1-1-.54-.58-1.05-1.14-1.6-1.66-1.06,1.13-2.15,2.37-3.39,3.89a.5.5,0,0,1-.63.12,11.52,11.52,0,0,1-1.52-1Z"/><path class="cls-2" d="M11.2,104a12,12,0,0,1-1.22,0,.51.51,0,0,1,.09-1,10.22,10.22,0,0,0,1.13,0,27.45,27.45,0,0,0,2.83-.19,28.47,28.47,0,0,1,3-.2.5.5,0,0,1,.5.51.5.5,0,0,1-.5.5,26.92,26.92,0,0,0-2.87.2C13.17,103.85,12.19,104,11.2,104Z"/><path class="cls-2" d="M24.3,101.76a.44.44,0,0,1-.16,0,.51.51,0,0,1-.31-.65c.55-1.61,1-3.29,1.51-4.92s1-3.33,1.52-5a.51.51,0,0,1,.65-.32.52.52,0,0,1,.31.65c-.56,1.62-1,3.3-1.51,4.92s-1,3.33-1.53,5A.5.5,0,0,1,24.3,101.76Z"/><path class="cls-2" d="M41,107.23c-1.77,0-3.56,0-5.3,0s-3.53,0-5.29,0-3.44,0-4.93.06a.51.51,0,0,1-.51-.43l-.07-.47a17.23,17.23,0,0,1-.26-2.63,8.76,8.76,0,0,1,.05-.91.51.51,0,1,1,1,.11,6.87,6.87,0,0,0-.05.8,17.08,17.08,0,0,0,.25,2.48v0c1.36,0,2.84,0,4.5,0s3.56,0,5.3,0,3.53,0,5.29,0c3.08,0,5.59-.06,7.89-.18a.51.51,0,1,1,.06,1C46.63,107.17,44.11,107.23,41,107.23Z"/><path class="cls-2" d="M33.33,97.73a.51.51,0,0,1-.37-.16.53.53,0,0,1-.13-.45c.31-1.43.56-2.91.81-4.35a61.07,61.07,0,0,1,1.54-7.29.51.51,0,0,1,1,.29,61.38,61.38,0,0,0-1.52,7.17c-.2,1.22-.41,2.47-.66,3.7a68.76,68.76,0,0,1,7.46-.36c1.62,0,3.23,0,4.76.08a83.46,83.46,0,0,1,1.43-12.87l-.92,0c-2-.08-4.11-.16-6.15-.16-.73,0-1.41,0-2.06,0a.5.5,0,0,1-.52-.49.5.5,0,0,1,.49-.52c.66,0,1.35,0,2.09,0,2.06,0,4.16.08,6.19.16l1.49.06a.49.49,0,0,1,.38.18.51.51,0,0,1,.1.41,84,84,0,0,0-1.52,13.8.52.52,0,0,1-.16.36.47.47,0,0,1-.36.14c-1.66,0-3.45-.1-5.24-.1a63.56,63.56,0,0,0-8,.44Z"/><path class="cls-2" d="M54.42,101.62a.59.59,0,0,1-.23-.05l-.3-.16a71.1,71.1,0,0,1-7.49-4.35.5.5,0,0,1-.13-.7.51.51,0,0,1,.71-.13,68.5,68.5,0,0,0,7.31,4.25C56,98.32,58,95.9,60.15,93.69c-3.12-1.56-6.07-3.41-8.94-5.2-1.21-.76-2.47-1.55-3.72-2.3a.51.51,0,1,1,.52-.87c1.26.76,2.52,1.55,3.74,2.31a98.73,98.73,0,0,0,9.47,5.45.51.51,0,0,1,.27.37.5.5,0,0,1-.13.44c-2.37,2.43-4.62,5.17-6.54,7.55A.52.52,0,0,1,54.42,101.62Z"/><path class="cls-2" d="M55.36,91a.43.43,0,0,1-.19,0,.51.51,0,0,1-.28-.66C55.83,88,57,85.69,58.05,83.5l.46-.94a.53.53,0,0,1,.46-.28c1.7,0,3.43.06,5.1.08,3.38,0,6.89.1,10.3.29a.5.5,0,0,1,.48.53.51.51,0,0,1-.54.48c-3.39-.19-6.88-.24-10.26-.28l-4.77-.08L59,84c-1.08,2.17-2.2,4.42-3.12,6.69A.51.51,0,0,1,55.36,91Z"/><path class="cls-2" d="M80.34,95.7l-.13,0a.49.49,0,0,1-.35-.62l.63-2.43a68,68,0,0,1,2.89-9.31H78.62a.5.5,0,0,1-.51-.5.51.51,0,0,1,.51-.51h5.54a.5.5,0,0,1,.42.23.51.51,0,0,1,0,.48,60.44,60.44,0,0,0-3.15,9.87c-.21.81-.42,1.62-.64,2.44A.5.5,0,0,1,80.34,95.7Z"/><path class="cls-2" d="M65.57,100h0c-1,0-2-.13-2.92-.22A32.09,32.09,0,0,0,58,99.52a.51.51,0,0,1-.05-1,34.68,34.68,0,0,1,4.82.23c.94.09,1.91.18,2.87.22a.51.51,0,0,1,0,1Z"/><path class="cls-2" d="M44.55,88.16h-.11A11.08,11.08,0,0,0,42,87.92l-1.18,0c-.77,0-1.57,0-2.22,0a.5.5,0,0,1-.48-.53.51.51,0,0,1,.5-.48h0c.63,0,1.4,0,2.14,0,.4,0,.81,0,1.21,0a12.06,12.06,0,0,1,2.69.26.51.51,0,0,1-.1,1Z"/><path class="cls-2" d="M35.77,92.09a.5.5,0,0,1-.46-.3.51.51,0,0,1,.26-.67,6.61,6.61,0,0,1,2.61-.6,13,13,0,0,1,1.77.17,14,14,0,0,0,1.89.18,4.51,4.51,0,0,0,1.42-.21.51.51,0,1,1,.32,1,5.34,5.34,0,0,1-1.74.26,15.48,15.48,0,0,1-2-.19,13.32,13.32,0,0,0-1.63-.16,5.71,5.71,0,0,0-2.21.52A.45.45,0,0,1,35.77,92.09Z"/><path class="cls-2" d="M36.79,94.91a.51.51,0,0,1-.36-.87A4.18,4.18,0,0,1,39.59,93l.86,0,.83,0a4.65,4.65,0,0,0,1.53-.2.52.52,0,0,1,.64.32.5.5,0,0,1-.32.64,5.52,5.52,0,0,1-1.85.25l-.87,0-.82,0a3.17,3.17,0,0,0-2.45.8A.47.47,0,0,1,36.79,94.91Z"/><path class="cls-2" d="M49.49,96.37a.51.51,0,0,1-.42-.79,13.71,13.71,0,0,0,1.66-3c.24-.61.38-.73,1.29-1.34a.5.5,0,0,1,.7.14.49.49,0,0,1-.14.7c-.77.51-.77.51-.9.87a15.39,15.39,0,0,1-1.77,3.15A.48.48,0,0,1,49.49,96.37Z"/><path class="cls-2" d="M51.52,97.83a.48.48,0,0,1-.2,0,.5.5,0,0,1-.27-.66,12,12,0,0,1,2.4-3.32l.39-.42a.5.5,0,1,1,.75.67l-.39.44a11.09,11.09,0,0,0-2.22,3A.51.51,0,0,1,51.52,97.83Z"/><path class="cls-2" d="M54.1,98.05a.5.5,0,0,1-.35-.14.51.51,0,0,1,0-.72c.38-.38.74-.8,1.09-1.21s.75-.86,1.15-1.26a.51.51,0,0,1,.72,0,.5.5,0,0,1,0,.71c-.38.38-.75.8-1.1,1.21s-.74.86-1.15,1.27A.54.54,0,0,1,54.1,98.05Z"/><path class="cls-2" d="M60.06,90.63a.52.52,0,0,1-.44-.25.51.51,0,0,1,.19-.69l.3-.18a4.5,4.5,0,0,1,2.28-.81,3.38,3.38,0,0,1,1.68.54,2.07,2.07,0,0,0,1,.37,10.31,10.31,0,0,0,1.5-.21,16,16,0,0,1,2.54-.31,5.4,5.4,0,0,1,1.87.31.5.5,0,1,1-.34.95,4.68,4.68,0,0,0-1.53-.24,14.33,14.33,0,0,0-2.36.29,10.78,10.78,0,0,1-1.68.22,3,3,0,0,1-1.46-.49,2.34,2.34,0,0,0-1.18-.42,3.62,3.62,0,0,0-1.76.67l-.32.19A.54.54,0,0,1,60.06,90.63Z"/><path class="cls-2" d="M70.17,88.13a13.15,13.15,0,0,1-4-.85,9.48,9.48,0,0,0-2.53-.62,4.86,4.86,0,0,0-1.17.2c-.26.06-.53.13-.81.17a.5.5,0,1,1-.14-1c.22,0,.46-.09.71-.16a5.7,5.7,0,0,1,1.41-.22,10.07,10.07,0,0,1,2.84.66,12.49,12.49,0,0,0,3.64.81,6,6,0,0,0,1-.08.51.51,0,0,1,.17,1A7,7,0,0,1,70.17,88.13Z"/><path class="cls-2" d="M66.36,93.59a6.89,6.89,0,0,1-1.57-.16.51.51,0,1,1,.22-1,6.09,6.09,0,0,0,1.35.14c.52,0,1,0,1.59-.09s1.11-.09,1.67-.09a6.89,6.89,0,0,1,1.57.16.5.5,0,1,1-.22,1,6.12,6.12,0,0,0-1.35-.13c-.52,0-1,0-1.59.09S66.92,93.59,66.36,93.59Z"/><path class="cls-2" d="M62.76,95.69a.5.5,0,0,1-.5-.5.5.5,0,0,1,.5-.51c.76,0,1.53-.06,2.27-.12s1.52-.12,2.3-.12a12.73,12.73,0,0,1,1.81.13.52.52,0,0,1,.42.58.51.51,0,0,1-.58.42,10.57,10.57,0,0,0-1.65-.12c-.74,0-1.46.06-2.22.12S63.56,95.69,62.76,95.69Z"/><path class="cls-2" d="M76.16,93.34l-.25,0a2,2,0,0,1-1.83-1.85,2.16,2.16,0,0,1,1.52-2.09,2.82,2.82,0,0,1,.57-.09,2.39,2.39,0,0,1,1.68.65,1.87,1.87,0,0,1,.61,1.3,1.91,1.91,0,0,1-.65,1.46A2.44,2.44,0,0,1,76.16,93.34Zm-.26-3a1.16,1.16,0,0,0-.81,1.08,1,1,0,0,0,.93.89,1.46,1.46,0,0,0,1.1-.36.91.91,0,0,0,.32-.7.81.81,0,0,0-.29-.58,1.45,1.45,0,0,0-1-.38A1,1,0,0,0,75.9,90.35Z"/><path class="cls-2" d="M48.46,104.07c-3.45,0-7-.13-10.36-.26-3.86-.14-7.85-.29-11.77-.25a.51.51,0,0,1-.51-.5.5.5,0,0,1,.5-.51c3.94,0,8,.11,11.82.25,3.39.13,6.89.26,10.32.26,2.89,0,5.46-.09,7.85-.28a.51.51,0,1,1,.08,1C54,104,51.38,104.07,48.46,104.07Z"/><path class="cls-2" d="M90.42,101.2a.51.51,0,0,1,0-1c6.33-.34,12.77-.49,19-.63l4.63-.11c-2.69-9.09-5.25-18-7.21-27.14-3.18,0-6.41.21-9.54.39-2.87.17-5.84.34-8.76.39a.51.51,0,0,1-.51-.5.49.49,0,0,1,.49-.51c2.91,0,5.86-.22,8.72-.39,3.28-.18,6.67-.38,10-.4a.51.51,0,0,1,.5.4c2,9.44,4.67,18.68,7.46,28.1a.53.53,0,0,1-.08.44.48.48,0,0,1-.39.21l-5.3.13c-6.22.14-12.65.29-19,.63Z"/><path class="cls-2" d="M91.77,105.25a.5.5,0,0,1-.5-.5.49.49,0,0,1,.49-.51l4.5-.1c3.4-.08,6.91-.16,10.35-.16,1.24,0,2.38,0,3.5,0a.51.51,0,0,1,0,1c-1.12,0-2.26,0-3.49,0-3.43,0-6.94.09-10.33.16Z"/><path class="cls-2" d="M54.55,74.78a.51.51,0,0,1-.26-.94l2.33-1.48c1-.62,2-1.26,3-1.87a.5.5,0,0,1,.6.06c.83.75,1.72,1.5,2.79,2.36l2.22-1.37,1.49-.92a.5.5,0,0,1,.61.07,15.76,15.76,0,0,0,2.92,2.15c.72-.47,1.43-1,2.11-1.45L73,71a.51.51,0,0,1,.62,0,16.47,16.47,0,0,0,3.66,2.41c1.2-.83,2.37-1.75,3.5-2.65l.22-.18a.51.51,0,0,1,.64,0,14.15,14.15,0,0,0,4.06,2.66.51.51,0,0,1,.3.65.5.5,0,0,1-.65.3,13.85,13.85,0,0,1-4-2.57c-1.19.94-2.42,1.91-3.7,2.78a.51.51,0,0,1-.49,0A17.12,17.12,0,0,1,73.21,72l-.31.22c-.77.54-1.58,1.11-2.39,1.64a.51.51,0,0,1-.52,0,17.53,17.53,0,0,1-3.11-2.19l-1.16.71L63.2,74a.5.5,0,0,1-.58,0c-1.09-.86-2-1.62-2.84-2.37-.88.54-1.76,1.11-2.61,1.66s-1.56,1-2.35,1.49A.53.53,0,0,1,54.55,74.78Z"/><path class="cls-2" d="M88.06,64.43a.5.5,0,0,1-.5-.5v-4a.5.5,0,0,1,.5-.51.51.51,0,0,1,.51.51v4A.5.5,0,0,1,88.06,64.43Z"/><path class="cls-2" d="M85.92,62.86a.51.51,0,0,1,0-1c.42,0,.85-.05,1.26-.07a8.45,8.45,0,0,0,2.24-.25.51.51,0,1,1,.29,1,10.12,10.12,0,0,1-2.5.3c-.4,0-.8,0-1.2.06Z"/><path class="cls-2" d="M87.89,66a4.42,4.42,0,0,1-3-1.2,3.84,3.84,0,0,1-1.28-2.7A4.25,4.25,0,0,1,84.82,59a4,4,0,0,1,2.91-1.3h.2a4.76,4.76,0,0,1,2.71,1A3.72,3.72,0,0,1,92,61.4a4.39,4.39,0,0,1-1.13,3.21A4.05,4.05,0,0,1,88.06,66Zm-.12-7.26h0a3.08,3.08,0,0,0-2.19,1A3.26,3.26,0,0,0,84.62,62a2.9,2.9,0,0,0,1,2A3.46,3.46,0,0,0,88,65a3.07,3.07,0,0,0,2.1-1A3.39,3.39,0,0,0,91,61.45a2.67,2.67,0,0,0-1-2,3.66,3.66,0,0,0-2.13-.78Z"/><path class="cls-2" d="M65.93,67.25a.49.49,0,0,1-.36-.15c-.24-.24-.48-.5-.7-.74a6.76,6.76,0,0,0-1.58-1.43.52.52,0,0,1-.18-.7.51.51,0,0,1,.69-.18,7.88,7.88,0,0,1,1.82,1.63l.28.3c.75-1,1.42-2,2.12-3,.17-.26.34-.51.5-.77a.51.51,0,1,1,.85.57l-.51.75a37.46,37.46,0,0,1-2.54,3.57.55.55,0,0,1-.37.18Z"/><path class="cls-2" d="M55.11,55.55a.51.51,0,0,1-.5-.51A24.88,24.88,0,0,0,54.39,51a.51.51,0,1,1,1-.17A26.58,26.58,0,0,1,55.62,55,.51.51,0,0,1,55.11,55.55Z"/><path class="cls-2" d="M53.43,53.53a.5.5,0,0,1-.49-.39.5.5,0,0,1,.37-.61,5.72,5.72,0,0,1,1.4-.15l.82,0,.77,0a4.9,4.9,0,0,0,1.17-.12.5.5,0,1,1,.24,1,5.3,5.3,0,0,1-1.41.15l-.81,0-.78,0a4.75,4.75,0,0,0-1.16.12Z"/><path class="cls-2" d="M75.57,60.33a.54.54,0,0,1-.21,0c-6.48-3.07-11.12-7.85-13.07-13.47a.5.5,0,0,1,.12-.53A42.65,42.65,0,0,1,88.48,35a.49.49,0,0,1,.42.16.52.52,0,0,1,.12.43c-1.53,8.54-6,17-13.08,24.61A.51.51,0,0,1,75.57,60.33ZM63.35,46.78c1.89,5.13,6.17,9.53,12.1,12.43C82,52.05,86.31,44.06,87.9,36A41.54,41.54,0,0,0,63.35,46.78Z"/><path class="cls-2" d="M87.05,41.16l-.14,0a8.93,8.93,0,0,1-4-3c-.3-.33-.61-.66-.92-1a.5.5,0,0,1,.71-.71c.33.32.65.67.95,1a8.09,8.09,0,0,0,3.55,2.69.51.51,0,0,1-.13,1Z"/><path class="cls-2" d="M88.58,36.89a1.79,1.79,0,0,1-1.73-1.63,1.73,1.73,0,0,1,.53-1.12.5.5,0,0,1,.3-.27,1.28,1.28,0,0,1,.7-.28.74.74,0,0,1,.36.09A.5.5,0,0,1,89,34a1.55,1.55,0,0,1,1,1.37A1.57,1.57,0,0,1,88.58,36.89Zm-.46-2.06a.72.72,0,0,0-.25.43c0,.39.56.62.71.62s.37-.3.37-.52S88.54,34.81,88.12,34.83Z"/><path class="cls-2" d="M89.41,35.08a.52.52,0,0,1-.33-.12.5.5,0,0,1,0-.71,18.89,18.89,0,0,1,2.51-2.31,20.92,20.92,0,0,0,2.22-2,.51.51,0,1,1,.74.69,22.7,22.7,0,0,1-2.32,2.08,17.27,17.27,0,0,0-2.38,2.18A.56.56,0,0,1,89.41,35.08Z"/><path class="cls-2" d="M76.34,52.06h-.23a5.37,5.37,0,0,1-5-5.35,5.31,5.31,0,0,1,5-5.43,6.12,6.12,0,0,1,2.82.52,5,5,0,0,1,3,4.15,5.75,5.75,0,0,1-1.62,4.4A5.53,5.53,0,0,1,76.34,52.06Zm0-9.78h-.25a4.36,4.36,0,0,0-4,4.41,4.41,4.41,0,0,0,4,4.35,4.48,4.48,0,0,0,3.39-1.4A4.74,4.74,0,0,0,80.89,46a4,4,0,0,0-2.4-3.31A5,5,0,0,0,76.39,42.28Z"/><path class="cls-2" d="M76.52,50.23a3.82,3.82,0,0,1-2.58-1,3.35,3.35,0,0,1-1-2.44,3.65,3.65,0,0,1,2.27-3.45,2.56,2.56,0,0,1,.9-.2,3.62,3.62,0,0,1,2.76,1A3.7,3.7,0,0,1,80,46.65a3.41,3.41,0,0,1-3.42,3.58Zm-.23-6.14h-.17a1.68,1.68,0,0,0-.58.13,2.63,2.63,0,0,0-1.63,2.5,2.35,2.35,0,0,0,.74,1.72,2.76,2.76,0,0,0,1.93.77A2.41,2.41,0,0,0,79,46.65a2.71,2.71,0,0,0-.88-1.82A2.67,2.67,0,0,0,76.29,44.09Z"/><path class="cls-2" d="M75.24,64.41a.48.48,0,0,1-.26-.07.51.51,0,0,1-.25-.47c.08-1.09.12-2.18.12-3.22,0-.31,0-.61,0-.92a.51.51,0,0,1,1,0c0,.31,0,.62,0,.94,0,.75,0,1.52-.07,2.3.86-.51,1.74-1,2.6-1.48l.48-.27a13.13,13.13,0,0,0,.25-2.7c0-1.07-.09-2.14-.19-3.23a.51.51,0,0,1,.46-.55.51.51,0,0,1,.55.46c.1,1.12.19,2.21.19,3.32a14.31,14.31,0,0,1-.32,3.14.51.51,0,0,1-.24.33l-.69.38c-1.13.63-2.29,1.28-3.38,2A.45.45,0,0,1,75.24,64.41Zm4.09-2.88Z"/><path class="cls-2" d="M62.83,47.32h0c-1-.09-2-.1-2.81-.1H58.43a.52.52,0,0,1-.46-.29A.53.53,0,0,1,58,46.4a22.65,22.65,0,0,1,3.77-3.68.51.51,0,0,1,.31-.11h.71a25.65,25.65,0,0,1,4,.24.51.51,0,0,1-.16,1,24.6,24.6,0,0,0-3.8-.23h-.53a20.58,20.58,0,0,0-2.76,2.59H60c.86,0,1.87,0,2.9.1a.51.51,0,0,1,0,1Z"/><path class="cls-2" d="M67.72,58.62a.5.5,0,0,1-.27-.08A12.89,12.89,0,0,1,62.73,53a.48.48,0,0,1,.05-.5,23.93,23.93,0,0,1,1.51-1.91.52.52,0,0,1,.72,0,.51.51,0,0,1,0,.72c-.44.51-.87,1-1.28,1.59a11.87,11.87,0,0,0,3.94,4.69c.39-.26.8-.48,1.2-.7a11.67,11.67,0,0,0,1.21-.71.51.51,0,0,1,.58.83,14.47,14.47,0,0,1-1.31.77,12.14,12.14,0,0,0-1.37.83A.57.57,0,0,1,67.72,58.62Z"/><path class="cls-2" d="M58.15,61.28H58a.52.52,0,0,1-.36-.63A13,13,0,0,1,62,54.2a.52.52,0,0,1,.71.07.5.5,0,0,1-.07.71,12,12,0,0,0-4,5.93A.5.5,0,0,1,58.15,61.28Z"/><path class="cls-2" d="M59.72,61.28a.51.51,0,0,1-.5-.45.52.52,0,0,1,.45-.56A11.58,11.58,0,0,0,65,58.22a.52.52,0,0,1,.71.14.51.51,0,0,1-.14.7,12.84,12.84,0,0,1-5.74,2.22Z"/><path class="cls-2" d="M61.3,59.6a.52.52,0,0,1-.33-.12.51.51,0,0,1,0-.72,8,8,0,0,1,1.19-1.08,6.82,6.82,0,0,0,1-.94.51.51,0,1,1,.77.66,8.49,8.49,0,0,1-1.19,1.08,6.85,6.85,0,0,0-1.06.94A.49.49,0,0,1,61.3,59.6Z"/><path class="cls-2" d="M45.87,54.64a.51.51,0,0,1-.31-.11,8.93,8.93,0,0,1-.77-.73,3,3,0,0,0-1.56-1.07.51.51,0,0,1,.15-1,3.81,3.81,0,0,1,2.13,1.36c.11.11.21.22.32.32.21-.23.42-.46.64-.68a12.8,12.8,0,0,0,.94-1,.51.51,0,0,1,.71-.08.5.5,0,0,1,.08.71c-.31.4-.67.76-1,1.11s-.65.67-.93,1A.5.5,0,0,1,45.87,54.64Z"/><path class="cls-2" d="M45.53,57.61h-.08A4.87,4.87,0,0,1,42,56.05a5.05,5.05,0,0,1-1.39-3.66,4.73,4.73,0,0,1,.55-2,4.83,4.83,0,0,1,2.62-2.16,5.13,5.13,0,0,1,1.89-.34,4.8,4.8,0,0,1,4.93,4.38,5.11,5.11,0,0,1-1.46,3.81A4.94,4.94,0,0,1,45.53,57.61Zm.08-8.74a4.23,4.23,0,0,0-1.49.28A3.82,3.82,0,0,0,42,50.84a3.51,3.51,0,0,0-.44,1.59,4,4,0,0,0,1.12,2.92,3.86,3.86,0,0,0,2.75,1.25,4,4,0,0,0,2.92-1.25,4.18,4.18,0,0,0,1.18-3.06,3.81,3.81,0,0,0-3.93-3.42Z"/><path class="cls-2" d="M46.23,62.41a.46.46,0,0,1-.19,0A7.85,7.85,0,0,1,44,61c-.32-.26-.63-.5-1-.72-.29.21-.57.44-.85.65a18.77,18.77,0,0,1-2,1.39.51.51,0,0,1-.69-.18.52.52,0,0,1,.18-.7,17,17,0,0,0,1.86-1.31c.37-.29.76-.59,1.17-.87a.5.5,0,0,1,.54,0,10.9,10.9,0,0,1,1.34,1,7.5,7.5,0,0,0,1.83,1.2.51.51,0,0,1-.19,1Z"/><path class="cls-2" d="M45.22,65.11a.45.45,0,0,1-.29-.1c-.2-.13-.4-.3-.61-.47a3.83,3.83,0,0,0-1.76-1,2.32,2.32,0,0,0-1.11.56,5.42,5.42,0,0,1-1.11.66.51.51,0,0,1-.36-.95,4.47,4.47,0,0,0,.88-.53,3,3,0,0,1,1.7-.76A4.34,4.34,0,0,1,45,63.76c.2.16.38.31.55.43a.51.51,0,0,1-.29.92Z"/><path class="cls-2" d="M40.16,68.37a.54.54,0,0,1-.41-.21.52.52,0,0,1,.11-.71c.86-.62,1.74-1.26,2.52-1.93a.52.52,0,0,1,.69,0l.29.29a4.69,4.69,0,0,0,1.79,1.33.51.51,0,0,1-.32,1,5.58,5.58,0,0,1-2.15-1.53c-.71.58-1.48,1.14-2.22,1.68A.54.54,0,0,1,40.16,68.37Z"/><path class="cls-2" d="M33.89,54.58A2.22,2.22,0,0,1,32.36,54a1.92,1.92,0,0,1-.62-1.44A2.06,2.06,0,0,1,33,50.7a2.3,2.3,0,0,1,.69-.15,2.18,2.18,0,0,1,1.67.66,2.05,2.05,0,0,1,.58,1.63A2.11,2.11,0,0,1,34,54.58Zm-.52-2.94a1,1,0,0,0-.62.9.91.91,0,0,0,.31.7,1.18,1.18,0,0,0,.89.33,1.1,1.1,0,0,0,1-.82,1.05,1.05,0,0,0-.29-.84,1.15,1.15,0,0,0-.9-.35A1.05,1.05,0,0,0,33.37,51.64Z"/><path class="cls-2" d="M21.83,51.93a.53.53,0,0,1-.27-.08c-.17-.11-.34-.22-.5-.34a8.71,8.71,0,0,0-1.87-1,.5.5,0,1,1,.34-1,9.52,9.52,0,0,1,2.1,1.17l.11.07.27-.31a14.63,14.63,0,0,0,1.53-2,.49.49,0,0,1,.69-.16.5.5,0,0,1,.17.69,15.37,15.37,0,0,1-1.63,2.09l-.55.65A.5.5,0,0,1,21.83,51.93Z"/><path class="cls-2" d="M6.63,56.4h0a.5.5,0,0,1-.43-.34c-.08-.26-.16-.51-.25-.77-.26-.82-.51-1.6-.81-2.35-.53-.19-1-.41-1.51-.62l-.29-.13a.5.5,0,0,1,.06-1,20.35,20.35,0,0,0,2.72-1.06c0-.24,0-.49,0-.73A10.65,10.65,0,0,0,5.71,47a.51.51,0,0,1,.21-.56.5.5,0,0,1,.6,0,5,5,0,0,1,.85.94,4.2,4.2,0,0,0,.9.93,4.12,4.12,0,0,0,2.28.4c.68,0,1.27,0,1.49.47s-.11,1.08-1.53,2.57a6.93,6.93,0,0,0,1.84,2,.52.52,0,0,1,.18.57.5.5,0,0,1-.48.35,17.33,17.33,0,0,1-3-.35l-.84-.15c-.23.46-.49.9-.74,1.32l-.39.67A.51.51,0,0,1,6.63,56.4ZM4.89,51.77c.25.1.49.2.74.28a.52.52,0,0,1,.3.28c.32.75.59,1.55.84,2.32.24-.41.48-.84.69-1.27A.52.52,0,0,1,8,53.09c.41.06.82.14,1.23.21s.92.17,1.38.23a8.5,8.5,0,0,1-1.16-1.6.5.5,0,0,1,.08-.6,14.36,14.36,0,0,0,1.42-1.61h-.37a4.87,4.87,0,0,1-2.84-.56A3.35,3.35,0,0,1,7,48.52c0,.29,0,.58,0,.87s0,.7.07,1a.5.5,0,0,1-.3.51L6.64,51C6.07,51.28,5.49,51.54,4.89,51.77Z"/><path class="cls-2" d="M4.43,64.8a.52.52,0,0,1-.29-.09l-1.22-.83-1.49-1a.49.49,0,0,1-.11-.73c.72-.9,1.49-1.74,2.34-2.67A.46.46,0,0,1,4,59.31a.47.47,0,0,1,.36.13l.47.43c.54.51,1.11,1,1.68,1.52a.49.49,0,0,1,.11.64A20.33,20.33,0,0,1,5.31,64l-.47.64A.49.49,0,0,1,4.43,64.8Zm-2-2.45,1,.7.82.55.19-.26c.37-.49.72-1,1-1.46-.48-.42-.94-.85-1.39-1.26l-.09-.09C3.49,61.16,3,61.75,2.46,62.35Z"/><path class="cls-2" d="M4.75,88.79H4.58a2.27,2.27,0,0,1-2.05-2.33,2.38,2.38,0,0,1,.55-1.52A2,2,0,0,1,4,84.24a2.37,2.37,0,0,1,.58-.11,2.46,2.46,0,0,1,2.59,2,2.49,2.49,0,0,1,0,.62A2.4,2.4,0,0,1,4.75,88.79Zm0-3.66h-.1a1.43,1.43,0,0,0-.34.06,1,1,0,0,0-.45.38,1.36,1.36,0,0,0-.31.87,1.28,1.28,0,0,0,1.09,1.33,1.41,1.41,0,0,0,1.5-1.12,2.38,2.38,0,0,0,0-.43A1.46,1.46,0,0,0,4.75,85.13Z"/><path class="cls-2" d="M21.89,89.65H21.8a2.26,2.26,0,0,1-2.06-2.26,2.31,2.31,0,0,1,.68-1.62,2,2,0,0,1,.49-.36l.07,0a1.56,1.56,0,0,1,.73-.22,2.25,2.25,0,0,1,1.73.59,2.18,2.18,0,0,1,.7,1.61A2.37,2.37,0,0,1,23.43,89,2.2,2.2,0,0,1,21.89,89.65Zm0-3.5h-.1a.57.57,0,0,0-.28.08l-.08.05a1.09,1.09,0,0,0-.27.19,1.29,1.29,0,0,0-.38.91,1.24,1.24,0,0,0,1.08,1.25,1.18,1.18,0,0,0,.88-.35,1.32,1.32,0,0,0,.41-.92,1.2,1.2,0,0,0-.38-.89A1.23,1.23,0,0,0,21.87,86.15Z"/><path class="cls-2" d="M29.62,88.87h0a2.22,2.22,0,0,1-2.24-2.28,2.19,2.19,0,0,1,1.84-2.2,1.24,1.24,0,0,1,.27,0,2.28,2.28,0,0,1,2.44,1.92,2.47,2.47,0,0,1-.62,1.87A2.25,2.25,0,0,1,29.62,88.87Zm-.05-3.5h-.06l-.16,0a1.17,1.17,0,0,0-1,1.2,1.22,1.22,0,0,0,1.24,1.27,1.26,1.26,0,0,0,.94-.4,1.4,1.4,0,0,0,.35-1.09A1.28,1.28,0,0,0,29.57,85.37Z"/><path class="cls-2" d="M39.38,74.78a.5.5,0,0,1-.35-.14.51.51,0,0,1,0-.72.94.94,0,0,1,.1-.1,11.89,11.89,0,0,0,1.69-2.61c.24-.46.49-.94.77-1.39a.5.5,0,0,1,.49-.24.52.52,0,0,1,.42.35,14.34,14.34,0,0,0,1.89,4,.5.5,0,0,1,0,.54.53.53,0,0,1-.48.27c-1.47-.09-2.9-.11-4.24-.11A.49.49,0,0,1,39.38,74.78Zm1.18-1.12c.79,0,1.61,0,2.46.06a14.38,14.38,0,0,1-1.11-2.41c-.06.12-.13.24-.19.37A18.23,18.23,0,0,1,40.56,73.66Z"/><path class="cls-2" d="M31.39,85.8a.51.51,0,0,1-.19-1,15.86,15.86,0,0,0,9.37-10.77.49.49,0,0,1,.6-.38.5.5,0,0,1,.38.6,16.88,16.88,0,0,1-10,11.49A.43.43,0,0,1,31.39,85.8Z"/><path class="cls-2" d="M6.94,77.55a.56.56,0,0,1-.32-.11A.53.53,0,0,1,6.44,77c.08-.66.19-1.31.29-1.94.17-1.09.34-2.13.4-3.19a.5.5,0,0,1,.34-.45.51.51,0,0,1,.55.14,40.11,40.11,0,0,0,3.18,3.32.5.5,0,0,1-.13.83c-.44.2-.89.43-1.32.65a21.63,21.63,0,0,1-2.64,1.18A.51.51,0,0,1,6.94,77.55ZM8,73.09c-.09.71-.2,1.42-.31,2.11-.06.35-.11.7-.17,1.06.59-.25,1.17-.54,1.73-.82l.69-.35C9.35,74.49,8.71,73.84,8,73.09Z"/><path class="cls-2" d="M20.35,86.79h-.09A16.32,16.32,0,0,1,8.43,76.37a.51.51,0,0,1,.29-.66.5.5,0,0,1,.65.29,15.33,15.33,0,0,0,11.07,9.79.5.5,0,0,1,.41.59A.51.51,0,0,1,20.35,86.79Z"/><path class="cls-2" d="M21.93,82.26a.33.33,0,0,1-.17,0,15,15,0,0,1-5.42-3.55.51.51,0,0,1-.11-.54c.32-.85.57-1.62.76-2.33a12.05,12.05,0,0,1-2.91-4.91c-.9-.2-1.64-.4-2.31-.6a.51.51,0,0,1-.36-.47c0-.19,0-.37,0-.56a26.36,26.36,0,0,1,.32-3.9.5.5,0,0,1,.39-.42,19.45,19.45,0,0,1,3.49-.37,17.43,17.43,0,0,1,1.8-2.27,11.62,11.62,0,0,1-1.72-2.5.5.5,0,0,1,.16-.62,22,22,0,0,1,5.93-2.92.51.51,0,0,1,.61.23c.22.38.41.78.59,1.16s.36.75.56,1.1a11.88,11.88,0,0,1,3,.06,23.81,23.81,0,0,1,1.64-2.14.52.52,0,0,1,.61-.12,24.38,24.38,0,0,1,4.6,3,.5.5,0,0,1,.1.66c-.2.32-.39.65-.58,1l-.37.62a13.1,13.1,0,0,1,1.47,2c.75,0,1.51-.09,2.25-.18a.51.51,0,0,1,.54.32,17.14,17.14,0,0,1,.94,6.13c0,.17,0,.34,0,.51a.49.49,0,0,1-.4.48c-.68.14-1.35.21-2,.28A6.61,6.61,0,0,1,34.05,75c.39.55.83,1.08,1.25,1.59l.17.2a.51.51,0,0,1,0,.66A18,18,0,0,1,29.9,81.2l-.5.25a.52.52,0,0,1-.62-.13c-.41-.49-.77-1-1.12-1.51l-.27-.39a14.77,14.77,0,0,1-3.46.32h-.1c-.44.76-.93,1.51-1.48,2.3A.52.52,0,0,1,21.93,82.26Zm-4.64-4.08a13.93,13.93,0,0,0,4.45,2.95c.51-.73,1-1.44,1.36-2.15a.49.49,0,0,1,.44-.25h.39a13.3,13.3,0,0,0,3.53-.37.5.5,0,0,1,.55.19l.48.68c.27.39.54.77.82,1.13l.13-.07a18.36,18.36,0,0,0,5-3.19A20.37,20.37,0,0,1,33,75.26a.49.49,0,0,1,0-.63,5.73,5.73,0,0,0,1.33-3.77.5.5,0,0,1,.45-.49l.34,0c.55,0,1.07-.11,1.59-.19v-.08a16.61,16.61,0,0,0-.74-5.4c-.71.08-1.43.11-2.12.15h-.1a.48.48,0,0,1-.47-.25,12.42,12.42,0,0,0-1.75-2.39.5.5,0,0,1-.06-.62l.55-.92.37-.61a23.24,23.24,0,0,0-3.71-2.39c-.53.65-1,1.32-1.49,2a.51.51,0,0,1-.51.22,10.69,10.69,0,0,0-3.39-.06.53.53,0,0,1-.5-.24,13.78,13.78,0,0,1-.77-1.47l-.36-.73a21.1,21.1,0,0,0-4.91,2.38A14.34,14.34,0,0,0,18.46,62a.52.52,0,0,1,0,.67l-.24.27a15.27,15.27,0,0,0-1.88,2.4.5.5,0,0,1-.43.25,20,20,0,0,0-3.23.29,25.68,25.68,0,0,0-.25,3.4v.16c.62.19,1.32.36,2.16.54a.5.5,0,0,1,.38.35,11.21,11.21,0,0,0,2.93,5,.5.5,0,0,1,.15.49A22.55,22.55,0,0,1,17.29,78.18Z"/><path class="cls-2" d="M25,75.38h-.18a6.18,6.18,0,0,1-5.71-5.91,6,6,0,0,1,5.58-6.2,6.24,6.24,0,0,1,4.78,1.9,5.87,5.87,0,0,1,1.65,4.18,5.94,5.94,0,0,1-1.84,4.29A6.2,6.2,0,0,1,25,75.38Zm-.27-11.1a5,5,0,0,0-4.61,5.18,5.12,5.12,0,0,0,4.73,4.91,5.17,5.17,0,0,0,3.73-1.46,5,5,0,0,0,.17-7A5.28,5.28,0,0,0,24.7,64.28Z"/><path class="cls-2" d="M25.06,71.42h0a2.06,2.06,0,0,1-1.91-1.94,2.24,2.24,0,0,1,.11-.67c0-.06,0-.12.05-.18A1.71,1.71,0,0,1,25,67.4a2,2,0,0,1,1.53.57,2.08,2.08,0,0,1,.54,1.59A2,2,0,0,1,25.06,71.42Zm-.82-2.55a1.8,1.8,0,0,1-.06.22,1.41,1.41,0,0,0-.07.36,1.05,1.05,0,0,0,.93,1,1,1,0,0,0,1-.89,1.06,1.06,0,0,0-.26-.83,1,1,0,0,0-.77-.27C24.7,68.42,24.32,68.54,24.24,68.87Z"/><path class="cls-2" d="M100.43,71.85a.5.5,0,0,1-.49-.4c-1.49-6.92-3.06-9.73-4.32-12-1.56-2.81-2.69-4.83-2.69-12.34v-.89c0-4.23,0-8.23,1.49-9.74a2.06,2.06,0,0,1,1.52-.63c.71,0,2.28,1,2.28,4.14,0,.3,0,.61,0,.91a1.59,1.59,0,0,1,.6-.13c.51,0,1.06.42,1.06,1.57,0,2.39-3.28,4.17-5.22,4.85a.51.51,0,0,1-.34-1c1.83-.63,4.54-2.2,4.54-3.89a1.4,1.4,0,0,0-.09-.55,2.6,2.6,0,0,0-.84.37.51.51,0,0,1-.76-.46c0-.17,0-.35,0-.53,0-.39,0-.79,0-1.18,0-2.37-1-3.08-1.3-3.13a1.07,1.07,0,0,0-.78.34c-1.2,1.21-1.2,5.18-1.19,9v.89c0,7.24,1.08,9.17,2.57,11.84,1.29,2.32,2.9,5.21,4.42,12.28a.51.51,0,0,1-.39.6Z"/><path class="cls-2" d="M105.83,59.26a.59.59,0,0,1-.23,0,4.55,4.55,0,0,0-1.89-.35c-3.11-.14-5.42-1.14-6.71-12.76a.52.52,0,0,1,.45-.56A.51.51,0,0,1,98,46c1.29,11.66,3.56,11.76,5.75,11.86a5.41,5.41,0,0,1,2.29.45.51.51,0,0,1-.22,1Z"/><path class="cls-2" d="M115.16,82.2a.5.5,0,0,1-.5-.46c-.1-1-.15-2-.15-3,0-10.52,4.6-17.89,8.3-23.81,2.66-4.27,5-8,5-11.73,0-1.24-.14-3.33-1.14-3.33-1.29,0-1.43,1.31-1.52,3.47,0,.23,0,.46,0,.68a.49.49,0,0,1-.71.43,2.77,2.77,0,0,0-1.13-.27c-.29,0-.76.08-.76.28,0,.43,1.22,2.71,2.51,3.14a.51.51,0,1,1-.32,1c-1.75-.58-3.2-3.27-3.2-4.1s.69-1.29,1.77-1.29a3.69,3.69,0,0,1,.86.11c.08-1.87.18-4.42,2.53-4.42,1.43,0,2.16,1.46,2.16,4.34,0,4.06-2.38,7.86-5.12,12.27-3.82,6.11-8.14,13-8.14,23.27,0,1,0,2,.13,2.91a.51.51,0,0,1-.45.56Z"/><path class="cls-2" d="M112.31,59.51c-.22,0-.45,0-.67,0a.5.5,0,0,1-.47-.54.51.51,0,0,1,.54-.47c.2,0,.4,0,.6,0,6.63,0,9.94-7.77,11-11.12a.51.51,0,0,1,.64-.32.5.5,0,0,1,.32.64C123.14,51.24,119.6,59.51,112.31,59.51Z"/><path class="cls-2" d="M107.17,70.24h-.11a.52.52,0,0,1-.38-.35c-.18-.63-.37-1.25-.55-1.88a36.74,36.74,0,0,0-2.88-7.76.5.5,0,0,1,.2-.69.49.49,0,0,1,.68.2,37.41,37.41,0,0,1,3,8c.09.33.19.66.28,1,2.57-2.92,5.21-5.94,5.92-9.71a.51.51,0,1,1,1,.19c-.78,4.07-3.54,7.22-6.22,10.26l-.54.62A.52.52,0,0,1,107.17,70.24Z"/><path class="cls-2" d="M105.72,64.88a.54.54,0,0,1-.25-.06.51.51,0,0,1-.2-.69,9.22,9.22,0,0,0,1.18-4.45c0-1.63-.31-1.84-.74-2.13-1-.68-1.77-1.58-1.77-6.35,0-3.86.57-8,4.8-9a.51.51,0,0,1,.62.37.51.51,0,0,1-.37.61c-3.55.89-4,4.39-4,8,0,4.61.74,5.11,1.33,5.51s1.18,1,1.18,3a10.24,10.24,0,0,1-1.3,4.94A.51.51,0,0,1,105.72,64.88Z"/><path class="cls-2" d="M110.51,65.87a.5.5,0,0,1-.41-.22,8.78,8.78,0,0,1-1.18-5.21.51.51,0,0,1,.51-.51.5.5,0,0,1,.5.51,7.86,7.86,0,0,0,1,4.63.51.51,0,0,1-.13.71A.52.52,0,0,1,110.51,65.87Z"/><path class="cls-2" d="M108.86,61.28a3.84,3.84,0,0,1-1.68-.27.51.51,0,0,1-.23-.68.51.51,0,0,1,.68-.23,3,3,0,0,0,1.23.17c.69,0,.73-.7.73-.85,0-.61-.34-.7-.67-.7a5,5,0,0,0-.81.1,6,6,0,0,1-.93.1.5.5,0,0,1-.51-.5.51.51,0,0,1,.51-.51,4.57,4.57,0,0,0,.76-.09,6.39,6.39,0,0,1,1-.11,1.57,1.57,0,0,1,1.68,1.71A1.75,1.75,0,0,1,108.86,61.28Z"/><path class="cls-2" d="M110.21,60.16a.43.43,0,0,1-.19,0,.5.5,0,0,1-.27-.66,5.41,5.41,0,0,1,2.7-2.72c1.47-.86,2.86-1.68,3-5.33a.48.48,0,0,1,.42-.47c1-.16,1.92-.73,1.92-1.41,0-.35-.28-.62-.76-1l-.28-.25a.49.49,0,0,1-.13-.54,4.9,4.9,0,0,0,.28-1.68,5.41,5.41,0,0,0-5.65-5.39,9.19,9.19,0,0,0-7.47,4.22.51.51,0,0,1-.87-.53,10.25,10.25,0,0,1,8.34-4.7,6.39,6.39,0,0,1,6.66,6.4,6.32,6.32,0,0,1-.23,1.69l0,0a2.44,2.44,0,0,1,1.11,1.8c0,1.21-1.17,2-2.37,2.32-.27,3.87-2,4.88-3.49,5.76a4.56,4.56,0,0,0-2.28,2.24A.51.51,0,0,1,110.21,60.16Z"/><path class="cls-2" d="M115.63,49.45h-.09c-1.63-.3-2.86-1.68-3.36-3.73a7.27,7.27,0,0,1-1.71.21,4.79,4.79,0,0,1-4-1.94.51.51,0,0,1,.12-.71.5.5,0,0,1,.7.12,3.8,3.8,0,0,0,3.22,1.52,6.4,6.4,0,0,0,1.94-.32.56.56,0,0,1,.42,0,.5.5,0,0,1,.23.35c.13.72.69,3.08,2.67,3.46a.5.5,0,0,1-.1,1Z"/><path class="cls-2" d="M108.62,52.45a1.24,1.24,0,0,1-1.32-1.38,3.68,3.68,0,0,1,.28-1.23,4.79,4.79,0,0,0,.22-.82.5.5,0,1,1,1,.13,5.11,5.11,0,0,1-.27,1,3.17,3.17,0,0,0-.22.9c0,.37.1.37.31.37a1.08,1.08,0,0,0,.47-.11.51.51,0,0,1,.68.23.5.5,0,0,1-.23.67A2.08,2.08,0,0,1,108.62,52.45Z"/><path class="cls-2" d="M109,54.84a1.56,1.56,0,0,1-1.13-.45.51.51,0,0,1,0-.72.53.53,0,0,1,.72,0,.51.51,0,0,0,.41.16,2.08,2.08,0,0,0,1-.35.52.52,0,0,1,.7.18.51.51,0,0,1-.18.69A3.1,3.1,0,0,1,109,54.84Z"/><path class="cls-2" d="M2.15,82.79a.5.5,0,0,1-.46-.3q-.27-.63-.51-1.29a.51.51,0,1,1,1-.34,11.89,11.89,0,0,0,.48,1.22.51.51,0,0,1-.26.67A.52.52,0,0,1,2.15,82.79ZM1,78.93a.49.49,0,0,1-.49-.4c-.09-.45-.17-.91-.23-1.36a.49.49,0,0,1,.43-.57.5.5,0,0,1,.57.43c.06.44.13.88.22,1.3a.5.5,0,0,1-.4.59Zm-.43-4a.51.51,0,0,1-.51-.5c0-.25,0-.5,0-.76s0-.41,0-.61a.5.5,0,0,1,.51-.5.52.52,0,0,1,.5.52c0,.2,0,.39,0,.59s0,.49,0,.74A.51.51,0,0,1,.52,74.92Zm.16-4H.63a.5.5,0,0,1-.45-.55c0-.44.1-.9.16-1.36a.51.51,0,0,1,.57-.43.51.51,0,0,1,.44.57c-.07.45-.12.89-.16,1.32A.51.51,0,0,1,.68,70.87Zm.62-4H1.2a.49.49,0,0,1-.39-.59c.09-.45.19-.89.29-1.33a.49.49,0,0,1,.61-.38.49.49,0,0,1,.37.61c-.1.43-.19.86-.28,1.3A.5.5,0,0,1,1.3,66.87Z"/><path class="cls-2" d="M76.2,88.63a.45.45,0,0,1-.16,0,.5.5,0,0,1-.32-.64l.11-.32c.1-.31.21-.63.31-1a.51.51,0,1,1,1,.31c-.11.33-.22.65-.32,1l-.11.32A.5.5,0,0,1,76.2,88.63Zm1-3.91h0a.5.5,0,0,1-.46-.54c0-.15,0-.3,0-.44a3.29,3.29,0,0,0-.09-.76.52.52,0,0,1,.39-.6.51.51,0,0,1,.6.39,4.51,4.51,0,0,1,.11,1c0,.17,0,.34,0,.52A.5.5,0,0,1,77.21,84.72Zm-1.35-3.67a.52.52,0,0,1-.38-.17,7.65,7.65,0,0,0-.93-.84.5.5,0,1,1,.61-.8,7.68,7.68,0,0,1,1.07,1,.5.5,0,0,1,0,.71A.51.51,0,0,1,75.86,81.05ZM72.52,78.8a.53.53,0,0,1-.2,0c-.39-.17-.8-.32-1.21-.46a.5.5,0,1,1,.31-1,13.64,13.64,0,0,1,1.31.5.51.51,0,0,1,.26.66A.51.51,0,0,1,72.52,78.8ZM56,78.68h-.73a.52.52,0,0,1-.49-.52.5.5,0,0,1,.52-.49c.43,0,.89,0,1.32,0a.5.5,0,0,1,.52.49.51.51,0,0,1-.48.53Zm-3.39-.29h-.1A8.63,8.63,0,0,1,51.1,78a.51.51,0,0,1-.29-.66.5.5,0,0,1,.65-.29,8,8,0,0,0,1.22.35.51.51,0,0,1-.1,1Zm6.7-.06a.5.5,0,0,1-.1-1l.91-.18.41-.09a.52.52,0,0,1,.6.4.5.5,0,0,1-.4.59l-.4.09-.92.18Zm9.36-.64h-.08c-.43-.07-.87-.12-1.3-.15A.5.5,0,0,1,66.8,77a.5.5,0,0,1,.54-.47c.46,0,.92.09,1.38.16a.51.51,0,0,1-.08,1Zm-5.38-.06a.51.51,0,0,1-.06-1c.46-.05.91-.09,1.38-.11a.51.51,0,0,1,.53.47.52.52,0,0,1-.48.54c-.45,0-.88.06-1.31.1ZM49.12,76.48a.51.51,0,0,1-.4-.2A5.14,5.14,0,0,1,48,75a.51.51,0,0,1,.29-.66.51.51,0,0,1,.66.3,4,4,0,0,0,.58,1,.51.51,0,0,1-.09.71A.53.53,0,0,1,49.12,76.48ZM48,72.66a.51.51,0,0,1-.51-.5v-.11a8.47,8.47,0,0,1,.1-1.32.51.51,0,0,1,1,.15,7.78,7.78,0,0,0-.09,1.17v.1A.5.5,0,0,1,48,72.66Zm.84-3.93a.45.45,0,0,1-.2,0,.5.5,0,0,1-.26-.67A11.26,11.26,0,0,1,49,66.77a.5.5,0,0,1,.69-.19.51.51,0,0,1,.19.69,11.51,11.51,0,0,0-.59,1.16A.5.5,0,0,1,48.87,68.73Zm2.18-3.39a.46.46,0,0,1-.33-.13.51.51,0,0,1,0-.71,13,13,0,0,1,1-1,.51.51,0,1,1,.7.73c-.31.3-.61.62-.9.94A.49.49,0,0,1,51.05,65.34Zm3-2.68a.5.5,0,0,1-.29-.92A13.59,13.59,0,0,1,55,61a.51.51,0,0,1,.49.89c-.37.2-.75.43-1.11.67A.51.51,0,0,1,54.08,62.66Z"/></g></g></svg>