<svg xmlns="http://www.w3.org/2000/svg" viewBox="0 0 141.73 132.5"><defs><style>.cls-1{fill:#ffcc80;}.cls-2{fill:#525d7d;}</style></defs><title>015_c</title><g id="Layer_2" data-name="Layer 2"><g id="Layer_1-2" data-name="Layer 1"><path class="cls-1" d="M92.27,30.48a2.77,2.77,0,0,0-1.91-1.86,2.52,2.52,0,0,0-2.83,1.19,2.67,2.67,0,0,0-.26.66A2.64,2.64,0,0,0,87,31a2.25,2.25,0,0,0,.57,2.12,2.74,2.74,0,0,0,1.89.75,3,3,0,0,0,2.09-.82A2.69,2.69,0,0,0,92.27,30.48Z"/><path class="cls-1" d="M6.7,81.29A2.35,2.35,0,0,0,5.11,79.7c-.1,0-.2,0-.3-.06A1.88,1.88,0,0,0,2,80.23,2.39,2.39,0,0,0,2,82.56a2.75,2.75,0,0,0,1.43,1.3l-.19-.07a.8.8,0,0,1,.16.08,2.34,2.34,0,0,0,2.54-.18A2.28,2.28,0,0,0,6.7,81.29Z"/><path class="cls-1" d="M136.59,85.31a3.36,3.36,0,0,0-1.52-2,2.93,2.93,0,0,0-3.55.44,2.67,2.67,0,0,0-.64,1.21,2.58,2.58,0,0,0-.19,2.12,3.14,3.14,0,0,0,3.41,2A3,3,0,0,0,136.59,85.31Z"/><path class="cls-1" d="M78.31,88a2.38,2.38,0,0,0-3.52-.67,2.62,2.62,0,0,1,0-.28,2.51,2.51,0,0,0-3.25-2.22A2.5,2.5,0,0,0,68.74,84a3.13,3.13,0,0,0-.82-1,2.2,2.2,0,0,0-3.46.58,1.73,1.73,0,0,0-1.18,1.41c0,.11-.05.21-.07.32a1.54,1.54,0,0,0-1.33.49,7.08,7.08,0,0,0-1,1.17,2.61,2.61,0,0,0-1,2.65,1.53,1.53,0,0,0,2.28,1.27l.09.56c.21,1.6,2.13,1.73,3.18.88h.22c0,.28.07.55.11.82a2.56,2.56,0,0,0,3.14,2.13,2.62,2.62,0,0,0,2.48,1.08,2.36,2.36,0,0,0,3.18-.63A2.42,2.42,0,0,0,76.66,94l.09-.22a2.23,2.23,0,0,0,2.42-2.3A7.52,7.52,0,0,0,78.31,88Z"/><path class="cls-1" d="M44.36,19.7a2,2,0,0,0-1.12-.59,1.32,1.32,0,0,0-.71,0l-.19.06c-.21,0-.48.14-.44.4v.07a.82.82,0,0,0,0,.11,1.36,1.36,0,0,0,0,.72,2,2,0,0,0,.6,1.15,1.45,1.45,0,0,0,1,.41,1.38,1.38,0,0,0,1.37-1.38A1.65,1.65,0,0,0,44.36,19.7Z"/><path class="cls-1" d="M57.86,31.15c-1.52-3.21-4.89-5.54-8.07-6.89-6-2.56-15.21-1.22-17.95,5.39-2.3,1.9-3.82,3.8-4.26,6.89a13.77,13.77,0,0,0,1.63,8.85c3.09,5.4,9.87,7.93,15.85,7S56.08,46.52,58,40.8A13.23,13.23,0,0,0,57.86,31.15Zm-4.43,7.23a13,13,0,0,1-3.86,6.51A11.18,11.18,0,0,1,35,45.45a10.4,10.4,0,0,1-3.65-6.72,15.53,15.53,0,0,1,.35-5.45A2.48,2.48,0,0,0,36,33.19c1.35-2.44,3.08-4.26,6-4.77a12,12,0,0,1,8.37,2.19C53.24,32.52,54.27,34.94,53.43,38.38Z"/><path class="cls-2" d="M42.64,48a9.61,9.61,0,0,1-9.7-9.72,9.41,9.41,0,0,1,7.37-9.14h0a10.61,10.61,0,0,1,2.31-.25c5.4,0,9.79,4.06,9.79,9.05a10.49,10.49,0,0,1-2.79,6.79A9.41,9.41,0,0,1,42.64,48ZM40.56,30.33a8.21,8.21,0,0,0-6.43,8,8.43,8.43,0,0,0,8.51,8.53c4.83,0,8.57-4.77,8.57-8.87,0-4.33-3.85-7.86-8.59-7.86a9.71,9.71,0,0,0-2.06.23Z"/><path class="cls-2" d="M42.64,48a9.61,9.61,0,0,1-9.7-9.72,9.41,9.41,0,0,1,7.37-9.14h0a10.61,10.61,0,0,1,2.31-.25c5.4,0,9.79,4.06,9.79,9.05a10.49,10.49,0,0,1-2.79,6.79A9.41,9.41,0,0,1,42.64,48ZM40.56,30.33a8.21,8.21,0,0,0-6.43,8,8.43,8.43,0,0,0,8.51,8.53c4.83,0,8.57-4.77,8.57-8.87,0-4.33-3.85-7.86-8.59-7.86a9.71,9.71,0,0,0-2.06.23Z"/><path class="cls-2" d="M35.71,55.88a.57.57,0,0,1-.22,0A18.86,18.86,0,0,1,23.6,38.12,18.44,18.44,0,0,1,36.8,20.55a.6.6,0,0,1,.33,1.15A17.23,17.23,0,0,0,24.79,38.12,17.68,17.68,0,0,0,35.93,54.73a.59.59,0,0,1,.34.77A.6.6,0,0,1,35.71,55.88Z"/><path class="cls-2" d="M45.15,57a.6.6,0,0,1-.09-1.19c6.13-1,11.72-5.73,14.24-12.12a.61.61,0,0,1,.78-.33.59.59,0,0,1,.34.77C57.74,50.88,51.78,55.93,45.25,57Z"/><path class="cls-2" d="M61,35.54a.6.6,0,0,1-.59-.51A12.79,12.79,0,0,0,60,33.54a.6.6,0,0,1,1.16-.32c.14.54.26,1.08.35,1.62a.61.61,0,0,1-.49.69ZM59.48,31a.61.61,0,0,1-.54-.33c-.23-.45-.48-.9-.75-1.34a.6.6,0,1,1,1-.63A14.66,14.66,0,0,1,60,30.14a.59.59,0,0,1-.27.8A.58.58,0,0,1,59.48,31Zm-2.71-3.92a.6.6,0,0,1-.44-.2c-.35-.37-.71-.74-1.09-1.09a.6.6,0,0,1,0-.84.61.61,0,0,1,.85,0c.4.37.79.76,1.16,1.17a.59.59,0,0,1,0,.84A.57.57,0,0,1,56.77,27.08ZM53.12,24a.55.55,0,0,1-.32-.1c-.43-.27-.88-.54-1.33-.78A.59.59,0,1,1,52,22.08a15.48,15.48,0,0,1,1.42.83.59.59,0,0,1,.18.82A.58.58,0,0,1,53.12,24ZM48.82,22a.58.58,0,0,1-.19,0l-.32-.1a.6.6,0,0,1-.39-.75.6.6,0,0,1,.75-.39l.34.11A.6.6,0,0,1,48.82,22Z"/><path class="cls-2" d="M36.76,56.26a.57.57,0,0,1-.18,0,18.71,18.71,0,0,1-.35-35.5.6.6,0,0,1,.75.38.61.61,0,0,1-.38.76A17.5,17.5,0,0,0,37,55.09a.61.61,0,0,1,.38.76A.6.6,0,0,1,36.76,56.26Z"/><path class="cls-2" d="M46,56.82a.6.6,0,0,1-.59-.47.61.61,0,0,1,.46-.72,19.17,19.17,0,0,0,12.53-10,.59.59,0,0,1,.8-.26.6.6,0,0,1,.26.81A20.35,20.35,0,0,1,46.15,56.8Z"/><path class="cls-2" d="M60.72,34.41a.6.6,0,0,1-.58-.46c-.12-.49-.27-1-.43-1.47a.59.59,0,1,1,1.12-.4,15.19,15.19,0,0,1,.47,1.59.59.59,0,0,1-.44.72ZM58.93,30a.59.59,0,0,1-.52-.29Q58,29,57.57,28.41a.59.59,0,0,1,.14-.83.58.58,0,0,1,.83.13q.48.67.9,1.38a.59.59,0,0,1-.21.82A.54.54,0,0,1,58.93,30Zm-3-3.73a.63.63,0,0,1-.42-.17c-.36-.35-.75-.7-1.15-1a.6.6,0,1,1,.75-.93,16,16,0,0,1,1.23,1.09.59.59,0,0,1,0,.84A.63.63,0,0,1,56,26.26Zm-3.83-2.84a.67.67,0,0,1-.3-.08c-.44-.25-.91-.48-1.37-.7a.59.59,0,0,1-.3-.79.6.6,0,0,1,.79-.3q.75.35,1.47.75a.59.59,0,0,1,.23.81A.6.6,0,0,1,52.14,23.42Z"/><path class="cls-2" d="M43.41,71.81a29.64,29.64,0,0,1-5.19-.45.58.58,0,0,1-.44-.36c-.85-2.08-1.85-4.52-2.88-6.94a27.56,27.56,0,0,1-5.53-2.29l-.21.08c-2.18.83-4.44,1.69-6.73,2.35a.59.59,0,0,1-.56-.12,27.83,27.83,0,0,1-6.16-7.92.62.62,0,0,1,0-.64c.56-.76,1.14-1.52,1.71-2.28s1-1.23,1.41-1.86a26.61,26.61,0,0,1-2.34-5.65c-2.31-1-4.54-2.21-6.46-3.27a.59.59,0,0,1-.31-.5q0-.8,0-1.56a40.57,40.57,0,0,1,.75-7.82A.62.62,0,0,1,11,32.1a39.34,39.34,0,0,0,4.38-.86L16.44,31a25.93,25.93,0,0,1,1.88-4.84l-1.14-3.31-1.35-3.91a.6.6,0,0,1,.12-.6,51.47,51.47,0,0,1,6.74-5.94.61.61,0,0,1,.55-.1c1.47.47,2.9,1.09,4.29,1.68.63.27,1.29.56,1.94.82a25.54,25.54,0,0,1,4-1.72c.28-1,.55-2,.81-3s.55-2.07.84-3.11a.61.61,0,0,1,.5-.43,60.05,60.05,0,0,1,10.6-.34.6.6,0,0,1,.55.45c.39,1.56.77,3.15,1.13,4.7l.23,1A29.28,29.28,0,0,1,53.44,14c1.92-1.23,4-2.36,5.87-3.41a.61.61,0,0,1,.6,0,29,29,0,0,1,7,6.13.61.61,0,0,1,.08.65,39.66,39.66,0,0,0-2,5.41,26.09,26.09,0,0,1,3.26,5.63,37.39,37.39,0,0,0,5.27.28A.63.63,0,0,1,74,29a23.4,23.4,0,0,1,1.79,9.64c0,.41,0,.82,0,1.22a.6.6,0,0,1-.32.51c-2.55,1.37-4.51,2.47-6.32,3.55a27.5,27.5,0,0,1-2.32,5.61,43.68,43.68,0,0,0,3.46,6,.59.59,0,0,1,0,.67,27.53,27.53,0,0,1-8.56,8.55.6.6,0,0,1-.54,0c-2.27-1-4.37-1.95-6.41-3a28.05,28.05,0,0,1-4.19,1.91c-.44,2.51-.8,4.85-1.1,7.14a.59.59,0,0,1-.49.51A32,32,0,0,1,43.41,71.81Zm-4.65-1.57a29.74,29.74,0,0,0,9.6,0c.3-2.27.66-4.59,1.1-7.09a.59.59,0,0,1,.39-.46,26.43,26.43,0,0,0,4.61-2.1.63.63,0,0,1,.58,0c2,1.08,4.09,2.07,6.32,3a26.18,26.18,0,0,0,7.7-7.69,42.34,42.34,0,0,1-3.46-6.09.62.62,0,0,1,0-.55,26.39,26.39,0,0,0,2.43-5.84.58.58,0,0,1,.27-.36c1.8-1.08,3.74-2.17,6.26-3.53,0-.28,0-.56,0-.84a22.61,22.61,0,0,0-1.53-8.8,40.78,40.78,0,0,1-5.38-.33.6.6,0,0,1-.47-.37,24.61,24.61,0,0,0-3.43-5.92.61.61,0,0,1-.1-.54,43.72,43.72,0,0,1,2-5.53,27.82,27.82,0,0,0-6.14-5.41c-1.9,1-3.89,2.15-5.75,3.36a.59.59,0,0,1-.56,0,27.92,27.92,0,0,0-5.75-1.76.59.59,0,0,1-.47-.45l-.33-1.4c-.32-1.4-.66-2.84-1-4.25a58,58,0,0,0-9.55.31c-.25.9-.5,1.82-.73,2.71-.29,1.1-.59,2.24-.91,3.36a.61.61,0,0,1-.39.41A24.68,24.68,0,0,0,29.8,16a.57.57,0,0,1-.51,0c-.75-.29-1.51-.62-2.24-.93-1.26-.54-2.56-1.1-3.88-1.54a50.29,50.29,0,0,0-6.09,5.34l1.23,3.58c.41,1.18.81,2.36,1.22,3.55a.55.55,0,0,1,0,.47,24.89,24.89,0,0,0-2,5.18.61.61,0,0,1-.45.43l-1.39.32c-1.33.32-2.7.64-4.08.83a39.59,39.59,0,0,0-.64,7.17c0,.38,0,.78,0,1.18,1.91,1,4.09,2.21,6.32,3.17a.58.58,0,0,1,.34.39,25.56,25.56,0,0,0,2.5,6,.61.61,0,0,1,0,.66L18.43,54c-.5.65-1,1.3-1.48,2a26.38,26.38,0,0,0,5.46,7c2.14-.63,4.26-1.44,6.32-2.23l.48-.18a.59.59,0,0,1,.5,0A26.17,26.17,0,0,0,35.5,63a.59.59,0,0,1,.39.35C36.91,65.72,37.91,68.15,38.76,70.24Z"/><path class="cls-2" d="M42.58,22.78A2.7,2.7,0,0,1,40,20.13a2.63,2.63,0,0,1,.94-2h0a2.41,2.41,0,0,1,1.57-.57c1.1,0,2.84.65,2.84,2.39C45.32,20.77,44.36,22.78,42.58,22.78ZM41.69,19a1.42,1.42,0,0,0-.52,1.09,1.5,1.5,0,0,0,1.41,1.46c1,0,1.53-1.37,1.54-1.64,0-1-1.22-1.19-1.64-1.19a1.16,1.16,0,0,0-.79.28Z"/><path class="cls-2" d="M41.2,58.68A2.33,2.33,0,0,1,39,56.39c0-.94.52-1.9,1.51-1.9l.34,0,.25,0a2,2,0,0,1,2,2.09A1.82,1.82,0,0,1,41.2,58.68Zm-.68-3c-.22,0-.31.5-.31.7a1.13,1.13,0,0,0,1,1.09c.48,0,.75-.13.75-.86a.81.81,0,0,0-.84-.9l-.35,0Z"/><path class="cls-2" d="M61.89,40.73a2.25,2.25,0,0,1-2.27-2.17,1.29,1.29,0,0,1,.72-1.22h0A1,1,0,0,1,61,36.5a3.7,3.7,0,0,1,1.15-.21,2.12,2.12,0,0,1,2,2.21A2.29,2.29,0,0,1,61.89,40.73Zm-1-2.32s-.06,0-.06.15a1.07,1.07,0,0,0,1.07,1,1.09,1.09,0,0,0,1-1s0-1-.82-1a2.14,2.14,0,0,0-.61.1,1,1,0,0,1-.63.82Zm-.37-1.14h0Z"/><path class="cls-2" d="M63.46,121.18a.6.6,0,0,1,0-1.19l12.41-.45c-.21-5.58-.45-12.05-.57-18.34a.59.59,0,0,1,.58-.61.57.57,0,0,1,.61.58c.13,6.51.38,13.22.6,18.92a.58.58,0,0,1-.16.43.57.57,0,0,1-.41.19l-13,.47Z"/><path class="cls-2" d="M34,122.26c-.59,0-1.16,0-1.73,0a.65.65,0,0,1-.42-.19.58.58,0,0,1-.16-.43c.09-3,.13-6.12.13-9.6,0-5.26-.1-10.62-.2-15.8l-.12-6.32a.59.59,0,0,1,.59-.6l1,0c.73,0,1.45,0,2.16,0h2c2.92,0,5.93-.16,8.83-.31s5.93-.32,8.86-.32a.6.6,0,1,1,0,1.2c-2.9,0-5.9.16-8.79.31s-6,.32-8.9.32h-2l-2.13,0h-.37c0,1.9.07,3.81.1,5.72.1,5.18.21,10.55.21,15.82,0,3.26,0,6.22-.12,9H34l23.64-.86a.6.6,0,0,1,.62.58.61.61,0,0,1-.58.62L34,122.26Z"/><path class="cls-2" d="M73.46,100.47a.62.62,0,0,1-.32-.09C67.41,96.74,60.42,91.92,57.67,90a.68.68,0,0,1-.25-.41.63.63,0,0,1,.13-.46l4.14-5.07,4.54-5.57a.6.6,0,0,1,.82-.1c3.07,2.32,7.94,5.68,14.49,10a.65.65,0,0,1,.26.41.61.61,0,0,1-.13.47c-1.77,2.16-3.3,4.45-4.92,6.86-.9,1.34-1.83,2.73-2.8,4.08A.61.61,0,0,1,73.46,100.47ZM58.89,89.4c2.93,2,9.14,6.3,14.42,9.66.83-1.19,1.65-2.4,2.44-3.58,1.45-2.16,2.94-4.38,4.58-6.44-6-4-10.52-7.08-13.54-9.33-1.39,1.72-2.78,3.42-4.18,5.13Z"/><path class="cls-2" d="M69.73,92c-.86,0-3.45,0-3.78-12.88a.62.62,0,0,1,.59-.62.6.6,0,0,1,.61.59c.22,8.65,1.52,11.71,2.58,11.71a50.11,50.11,0,0,0,9.1-1.44L80.58,89a.6.6,0,0,1,.71.46.61.61,0,0,1-.47.71l-1.74.37A51,51,0,0,1,69.73,92Z"/><path class="cls-2" d="M53.65,110.47c-3.57,0-21-19.89-21.17-20.09a.6.6,0,0,1,.06-.84.59.59,0,0,1,.84.06c7.16,8.21,18.33,19.68,20.27,19.68,1.15,0,3.73-2.76,6.23-5.42A80.62,80.62,0,0,1,65.83,98a.6.6,0,1,1,.77.91,78,78,0,0,0-5.85,5.8C57.38,108.27,55.23,110.47,53.65,110.47Z"/><path class="cls-2" d="M32.47,121.88a.62.62,0,0,1-.41-.17.59.59,0,0,1,0-.84l.15-.16c4.77-5.08,9.28-9.88,14.46-14.45a.59.59,0,0,1,.84,0,.6.6,0,0,1-.05.85c-5.14,4.53-9.63,9.31-14.38,14.37l-.15.16A.63.63,0,0,1,32.47,121.88Z"/><path class="cls-2" d="M76.32,120.64a.54.54,0,0,1-.38-.14c-5.14-4.54-10.43-9.21-15.78-13.64a.6.6,0,0,1,.76-.92c5.37,4.44,10.66,9.12,15.78,13.64a.6.6,0,0,1-.38,1.06Z"/><path class="cls-2" d="M21.07,103a.57.57,0,0,1-.45-.21c-.36-.41-.71-.83-1.07-1.25-1.38-1.64-2.81-3.33-4.34-4.86a.63.63,0,0,1-.17-.4C15,95,15,93.64,15,92.15c0-2.82.09-5.69.17-8.46.06-2.11.13-4.29.16-6.44a.6.6,0,0,1,.6-.59h0l3.93,0,5.74,0c3.3,0,6,0,8.49-.09a.54.54,0,0,1,.42.16.61.61,0,0,1,.19.42l0,1.61c0,2.82.11,5.75.42,8.58a.6.6,0,1,1-1.19.13c-.32-2.89-.37-5.84-.43-8.69,0-.33,0-.67,0-1-2.33.05-4.86.08-7.91.08l-5.74,0-3.34,0c0,2-.1,4-.15,5.87-.09,2.76-.18,5.61-.18,8.42,0,1.39,0,2.66.07,3.87,1.49,1.52,2.89,3.17,4.24,4.77l.87,1,2.3-.08c1.2,0,2.43-.11,3.65-.11a29.77,29.77,0,0,1,3.43.18.6.6,0,0,1-.14,1.19,29.53,29.53,0,0,0-3.29-.17c-1.19,0-2.41,0-3.6.1-.85,0-1.73.08-2.6.09Z"/><path class="cls-2" d="M21.89,103a.61.61,0,0,1-.6-.55c0-.42,0-.87,0-1.42s0-.84,0-1.26,0-.83,0-1.24,0-1.27,0-1.65l-.37,0a27.2,27.2,0,0,1-2.72-.17c-.89-.08-1.73-.16-2.55-.16a.6.6,0,1,1,0-1.2c.88,0,1.79.09,2.67.17s1.75.17,2.6.17l.3,0a1.14,1.14,0,0,1,.91.21c.38.35.4.91.4,2.63,0,.42,0,.84,0,1.27s0,.82,0,1.23,0,.94,0,1.33a.6.6,0,0,1-.55.64Z"/><path class="cls-2" d="M21.73,82.69c-.63,0-1.27,0-1.91,0a.6.6,0,0,1,0-1.19h0c2.46,0,4.94,0,7.34-.08.83,0,1.67-.05,2.51-.06a.59.59,0,0,1,.61.58.59.59,0,0,1-.58.61l-2.51.06C25.42,82.64,23.57,82.69,21.73,82.69Z"/><path class="cls-2" d="M19.62,86.55A.58.58,0,0,1,19,86a.59.59,0,0,1,.58-.61c.93,0,2,0,3.14,0H25.9l3.11,0a.6.6,0,0,1,.6.6.59.59,0,0,1-.6.59H25.89l-3.14,0c-1.17,0-2.19,0-3.11,0Z"/><path class="cls-2" d="M22.24,90.08A13.66,13.66,0,0,1,20.66,90c-.51,0-1-.1-1.46-.1a.6.6,0,0,1-.6-.6.59.59,0,0,1,.6-.59c.53,0,1.06,0,1.58.1a12.58,12.58,0,0,0,1.46.11.6.6,0,0,1,0,1.19Z"/><path class="cls-2" d="M24.49,90a.59.59,0,0,1-.59-.6.58.58,0,0,1,.59-.59c.59,0,1.18,0,1.8-.08a21.49,21.49,0,0,1,2.54-.06.59.59,0,0,1,.57.62.6.6,0,0,1-.63.57,21.49,21.49,0,0,0-2.4.06C25.75,90,25.12,90,24.49,90Z"/><path class="cls-2" d="M25.41,93.33c-2.26,0-4.59-.08-6.65-.14a.6.6,0,0,1-.58-.62A.62.62,0,0,1,18.8,92c2.05.07,4.37.14,6.61.14a.6.6,0,1,1,0,1.2Z"/><path class="cls-2" d="M28.9,93.7a2.76,2.76,0,0,1-.53-.06,1.1,1.1,0,0,0-.39,0,.59.59,0,0,1-.69-.49.61.61,0,0,1,.49-.69,2.34,2.34,0,0,1,.81,0,.89.89,0,0,0,.39,0,.6.6,0,0,1,.69.5.58.58,0,0,1-.49.68Z"/><path class="cls-2" d="M25.4,97c-.63,0-1.22,0-1.81-.08a.6.6,0,0,1-.54-.65.59.59,0,0,1,.65-.54c.55.05,1.11.07,1.7.07.82,0,1.68,0,2.78-.14a.6.6,0,0,1,.11,1.19C27.15,97,26.26,97,25.4,97Z"/><path class="cls-2" d="M4.21,85.56C3,85.56,0,84.1,0,81.4a3.87,3.87,0,0,1,3.73-3.81,3.64,3.64,0,0,1,.57,0l.37.06a7.36,7.36,0,0,1,1.77.43,3.49,3.49,0,0,1,2,2.73c0,.11,0,.21,0,.32s0,.19,0,.29C8.37,82.87,6.75,85.56,4.21,85.56Zm-.48-6.78A2.65,2.65,0,0,0,1.2,81.4c0,2,2.44,3,3,3,1.78,0,3-2.06,3-2.9,0-.13,0-.25,0-.37s0-.16,0-.24A2.36,2.36,0,0,0,6,79.22a6.36,6.36,0,0,0-1.49-.35l-.39-.06h0A2.22,2.22,0,0,0,3.73,78.78Z"/><path class="cls-2" d="M4.46,88.58a.6.6,0,0,1-.59-.5,23,23,0,0,1-.23-3,19.59,19.59,0,0,0-.21-2.87.6.6,0,0,1,.49-.69.59.59,0,0,1,.69.49,23,23,0,0,1,.23,3,19.83,19.83,0,0,0,.21,2.88.6.6,0,0,1-.49.68Z"/><path class="cls-2" d="M19.46,116.73a.6.6,0,0,1-.59-.54l-.08-.81a58.65,58.65,0,0,1-.41-6,.6.6,0,0,1,1.2,0,57.09,57.09,0,0,0,.4,5.84l.08.81a.6.6,0,0,1-.53.66Z"/><path class="cls-2" d="M16.19,113.93a.6.6,0,0,1-.07-1.19c.72-.09,1.44-.15,2.13-.21,1.18-.1,2.3-.19,3.46-.4a.6.6,0,0,1,.21,1.18c-1.22.22-2.41.32-3.57.42-.68,0-1.39.11-2.09.2Z"/><path class="cls-2" d="M4.39,66.5a.6.6,0,0,1-.6-.56c-.13-1.91-.13-3.79-.13-5.6v-.07a.6.6,0,0,1,1.2,0v.07c0,1.88,0,3.65.12,5.52a.59.59,0,0,1-.55.64Z"/><path class="cls-2" d="M5.29,63.45c-.45,0-.9,0-1.33,0a17.79,17.79,0,0,0-2.06,0,.6.6,0,0,1-.09-1.2c.65,0,1.46,0,2.2,0,.42,0,.85,0,1.28,0a8.25,8.25,0,0,0,1.76-.16.59.59,0,0,1,.71.46.6.6,0,0,1-.46.71A10.07,10.07,0,0,1,5.29,63.45Z"/><path class="cls-2" d="M60.75,132.5a.62.62,0,0,1-.4-.15,31,31,0,0,1-3.84-4.29,43.41,43.41,0,0,1-4.87,2,.6.6,0,1,1-.38-1.13,42.52,42.52,0,0,0,5.17-2.14.59.59,0,0,1,.74.18,32,32,0,0,0,3.63,4.19c.77-.54,1.54-1.09,2.28-1.63,1.09-.78,2.21-1.59,3.35-2.36a.59.59,0,0,1,.76.07,28.9,28.9,0,0,0,4.35,3.55c.82-.63,1.66-1.24,2.48-1.84s1.73-1.27,2.57-1.92a.6.6,0,0,1,.83.09,23.2,23.2,0,0,0,3.49,3.42.6.6,0,0,1,.09.84.59.59,0,0,1-.84.09,24.94,24.94,0,0,1-3.29-3.14c-.71.54-1.44,1.07-2.15,1.59-.92.67-1.87,1.37-2.78,2.08a.6.6,0,0,1-.69,0,30.6,30.6,0,0,1-4.56-3.6c-1,.68-2,1.39-2.91,2.07s-1.78,1.28-2.69,1.91A.6.6,0,0,1,60.75,132.5Z"/><path class="cls-2" d="M28.12,72.58a.6.6,0,0,1-.48-.24,22.38,22.38,0,0,0-2.2-2.57l-1.33,1c-.71.51-1.44,1-2.17,1.54a.61.61,0,0,1-.77-.08A18.34,18.34,0,0,0,18.52,70L17,71.1c-.55.4-1.12.82-1.66,1.24a.6.6,0,0,1-.83-.09,15,15,0,0,0-2.23-2.19.59.59,0,0,1-.09-.84.6.6,0,0,1,.84-.08,15.67,15.67,0,0,1,2,1.91l1.23-.92c.6-.43,1.22-.88,1.8-1.34a.6.6,0,0,1,.69,0A19.65,19.65,0,0,1,21.67,71c.59-.41,1.17-.83,1.74-1.24s1.15-.83,1.74-1.23a.6.6,0,0,1,.74,0,19.51,19.51,0,0,1,2.41,2.67,30.83,30.83,0,0,1,3-1.22.6.6,0,0,1,.38,1.14,27.27,27.27,0,0,0-3.32,1.37A.58.58,0,0,1,28.12,72.58Z"/><path class="cls-2" d="M96.33,125.7a4.46,4.46,0,0,1-4.28-4.52,4,4,0,0,1,4.11-3.87,4.06,4.06,0,0,1,4,4,5.29,5.29,0,0,1-.64,2.48A3.52,3.52,0,0,1,96.33,125.7Zm-.17-7.19a2.79,2.79,0,0,0-2.91,2.67,3.3,3.3,0,0,0,3.08,3.33,2.37,2.37,0,0,0,2.07-1.27,4.22,4.22,0,0,0,.52-1.95A2.88,2.88,0,0,0,96.16,118.51Z"/><path class="cls-2" d="M96.56,121.86a.6.6,0,0,1-.6-.56.61.61,0,0,1,.57-.63c1-.06,2.09-.15,3.1-.24s2.09-.18,3.15-.24a.59.59,0,0,1,.63.56.6.6,0,0,1-.56.64c-1,0-2.09.14-3.11.23s-2.09.19-3.14.24Z"/><path class="cls-2" d="M87.4,114.41a2.52,2.52,0,0,1-2.32-2.62,2,2,0,0,1,1-1.79h0a2.94,2.94,0,0,1,1.41-.37c1.24,0,2.63.93,2.63,2.18A2.69,2.69,0,0,1,87.4,114.41Zm-.71-3.36a.76.76,0,0,0-.41.74c0,.66.49,1.43,1.12,1.43A1.5,1.5,0,0,0,89,111.81c0-.43-.69-1-1.43-1a1.64,1.64,0,0,0-.83.22Z"/><path class="cls-2" d="M41.25,129.18a2.26,2.26,0,0,1-2-2.28,1.63,1.63,0,0,1,1.1-1.6h0a2.34,2.34,0,0,1,.73-.13c1,0,2.21.8,2.21,1.79A2.25,2.25,0,0,1,41.25,129.18Zm-.54-2.75a.44.44,0,0,0-.3.47c0,.51.45,1.09.84,1.09s.81-.74.81-1a1.2,1.2,0,0,0-1-.59,1,1,0,0,0-.33.06Z"/><path class="cls-2" d="M78.62,77.07a4.9,4.9,0,0,1-4.73-4.83,4.59,4.59,0,0,1,3.82-4.43h0l.3,0a2.22,2.22,0,0,1,.56-.08c1.91,0,4.73,1.35,4.73,4.24C83.3,74.57,81,77.07,78.62,77.07ZM77.85,69a3.38,3.38,0,0,0-2.76,3.24,3.73,3.73,0,0,0,3.53,3.63c1.72,0,3.48-2,3.48-4s-2.11-3-3.53-3a1.4,1.4,0,0,0-.31.05l-.41.07Z"/><path class="cls-2" d="M78.32,68.88a.6.6,0,0,1-.57-.43A4.67,4.67,0,0,1,77.56,67c0-.3,0-.6,0-.89s0-.55,0-.82a3.54,3.54,0,0,0,0-.48.61.61,0,0,1,.54-.66.6.6,0,0,1,.65.54,5.47,5.47,0,0,1,0,.6c0,.3,0,.6,0,.89s0,.55,0,.82a3.78,3.78,0,0,0,.13,1.07.59.59,0,0,1-.4.74A.47.47,0,0,1,78.32,68.88Z"/><path class="cls-2" d="M78.8,80.42a.61.61,0,0,1-.6-.53v0A16.46,16.46,0,0,1,78.06,78a7.1,7.1,0,0,1,.14-1.44.61.61,0,0,1,.72-.45.6.6,0,0,1,.45.71A5.38,5.38,0,0,0,79.26,78a14.55,14.55,0,0,0,.13,1.74v.06a.6.6,0,0,1-.53.66Z"/><path class="cls-2" d="M83.82,72.69a3.85,3.85,0,0,1-1-.11.59.59,0,0,1-.43-.72.6.6,0,0,1,.72-.44,2.93,2.93,0,0,0,.7.08l.64,0a7.05,7.05,0,0,1,1.3,0,.59.59,0,1,1-.15,1.18,7.72,7.72,0,0,0-1.07,0Q84.18,72.69,83.82,72.69Z"/><path class="cls-2" d="M71.43,73.1c-.26,0-.5,0-.73,0a.58.58,0,0,1-.53-.65.6.6,0,0,1,.65-.54,11.86,11.86,0,0,0,2-.05c.49,0,1-.08,1.49-.08a.59.59,0,0,1,.6.59.6.6,0,0,1-.6.6c-.45,0-.91,0-1.39.08S71.94,73.1,71.43,73.1Z"/><path class="cls-2" d="M78.67,73.8a1.61,1.61,0,0,1-1.48-1.61,1.24,1.24,0,0,1,1.1-1.28,1,1,0,0,1,.34.06h0a1.62,1.62,0,0,1,1.44,1.43A1.48,1.48,0,0,1,78.67,73.8Zm-.28-1.65v0c0,.19.19.42.28.42a.41.41,0,0,0,.24-.2A.77.77,0,0,0,78.39,72.15Z"/><path class="cls-2" d="M62.65,73.13a2.13,2.13,0,0,1-2.08-2.23,2,2,0,0,1,1.55-2h0a2.12,2.12,0,0,1,.44,0A2.59,2.59,0,0,1,64.94,71,2.66,2.66,0,0,1,62.65,73.13ZM62.56,70l-.15,0h0a.85.85,0,0,0-.64.88.94.94,0,0,0,.88,1c.48,0,1.05-.76,1.1-1A1.6,1.6,0,0,0,62.56,70Z"/><path class="cls-2" d="M56,83.07a.62.62,0,0,1-.34-.11C54,81.8,52.22,80.79,50.5,79.8a46.39,46.39,0,0,1-7.12-4.67.6.6,0,0,1,.77-.91,45.48,45.48,0,0,0,6.94,4.54c1.75,1,3.56,2,5.24,3.22a.61.61,0,0,1,.14.84A.6.6,0,0,1,56,83.07Z"/><path class="cls-2" d="M51.68,84.35a.58.58,0,0,1-.56-.4.59.59,0,0,1,.36-.76c1.2-.43,2.44-.86,3.71-1.2a12.44,12.44,0,0,1-.27-3v-.92a.6.6,0,1,1,1.2,0V79a9.71,9.71,0,0,0,.4,3.24.56.56,0,0,1,0,.49.6.6,0,0,1-.38.3,38.06,38.06,0,0,0-4.21,1.32A.69.69,0,0,1,51.68,84.35Z"/><path class="cls-2" d="M99,70.92a.64.64,0,0,1-.3-.08A117.91,117.91,0,0,1,81.92,59a.59.59,0,0,1-.1-.78A98.94,98.94,0,0,1,90.93,46.8a.6.6,0,0,1,.82-.06l.54.44c.77.64,1.57,1.29,2.42,1.87,1.68,1.15,4.07,3.13,6.59,5.22,2.18,1.81,4.43,3.68,6.28,5.06a.58.58,0,0,1,.24.4.6.6,0,0,1-.13.45c-3,3.68-5.68,7-8.2,10.49A.61.61,0,0,1,99,70.92ZM83.11,58.47A118.68,118.68,0,0,0,98.84,69.53c2.33-3.2,4.8-6.27,7.53-9.62-1.77-1.34-3.83-3.06-5.83-4.72C98,53.12,95.67,51.15,94,50c-.9-.61-1.72-1.28-2.51-1.93l-.1-.08A94.4,94.4,0,0,0,83.11,58.47Z"/><path class="cls-2" d="M98.26,60.35c-5.09,0-5.57-.67-6-4.44a38.78,38.78,0,0,0-1.64-8.28.6.6,0,0,1,.39-.75.6.6,0,0,1,.75.39,39.38,39.38,0,0,1,1.69,8.52c.33,3.24.34,3.36,4.76,3.36,1.6,0,3.24-.1,4.82-.19,1.16-.07,2.36-.14,3.54-.18a.59.59,0,0,1,.61.58.6.6,0,0,1-.58.62c-1.16,0-2.35.1-3.5.17C101.55,60.25,99.9,60.35,98.26,60.35Z"/><path class="cls-2" d="M132.42,71.74c-6.1,0-9.89-3.87-9.89-10.11a8.73,8.73,0,0,1,5.81-8.08h0l.4-.16a6.89,6.89,0,0,1,.94-.32,12.1,12.1,0,0,1,2.75-.34c5.21,0,9.3,4.31,9.3,9.81a8.63,8.63,0,0,1-3.35,7.25A10.26,10.26,0,0,1,132.42,71.74Zm-3.67-17.06a7.5,7.5,0,0,0-5,7c0,5.59,3.25,8.92,8.69,8.92,2.81,0,8.12-1.68,8.12-8a8.29,8.29,0,0,0-8.11-8.61,10.82,10.82,0,0,0-2.47.3,5.29,5.29,0,0,0-.76.27l-.45.18Z"/><path class="cls-2" d="M132,64.72a1.38,1.38,0,0,1-1-.31c-.47-.42-.47-1.11-.47-2.6v-.09c0-.53,0-1.06,0-1.57s0-1,0-1.53,0-.85,0-1.22a.58.58,0,0,1,.53-.65.6.6,0,0,1,.66.53c0,.41.06.85.06,1.34s0,1.07-.05,1.58-.05,1-.05,1.52v.09a7.58,7.58,0,0,0,.09,1.7,4.75,4.75,0,0,0,1.05-.06,27.3,27.3,0,0,1,3.19-.19.6.6,0,0,1,.6.6.59.59,0,0,1-.6.59,25.46,25.46,0,0,0-3.06.19C132.57,64.68,132.24,64.72,132,64.72Z"/><path class="cls-2" d="M125.73,63.21l-.15,0a2.09,2.09,0,0,0-.58,0,.6.6,0,1,1,0-1.2,3,3,0,0,1,.87.09.6.6,0,0,1,.44.72A.61.61,0,0,1,125.73,63.21Z"/><path class="cls-2" d="M132.37,69.45a.58.58,0,0,1-.53-.33,1.55,1.55,0,0,1-.15-.7c0-.09,0-.17,0-.26s0-.12,0-.17a.6.6,0,0,1,.6-.6.59.59,0,0,1,.59.6v.24a1.21,1.21,0,0,0,0,.19c0,.12,0,.16,0,.17a.59.59,0,0,1-.27.8A.66.66,0,0,1,132.37,69.45Z"/><path class="cls-2" d="M138.82,63.49h-.47a.6.6,0,0,1-.6-.6.59.59,0,0,1,.6-.59h.28a1.15,1.15,0,0,0,.43,0,.6.6,0,1,1,.45,1.11A1.72,1.72,0,0,1,138.82,63.49Z"/><path class="cls-2" d="M131.77,56a.58.58,0,0,1-.59-.59v-.74a.58.58,0,0,1,.59-.59.59.59,0,0,1,.6.59v.74A.59.59,0,0,1,131.77,56Z"/><path class="cls-2" d="M133,90.2a4.56,4.56,0,0,1-4.27-4.26,4.36,4.36,0,0,1,4.22-4,3.87,3.87,0,0,1,4,3.55h0v.22C136.93,88.79,134.9,90.2,133,90.2ZM133,83.11c-2.38,0-3,2.49-3,2.83A3.37,3.37,0,0,0,133,89c1.35,0,2.71-1,2.71-3.32V85.5A2.66,2.66,0,0,0,133,83.11Z"/><path class="cls-2" d="M133.16,86.37a.6.6,0,0,1-.59-.53c-.14-1.26-.17-2.52-.19-3.74,0-1,0-2-.13-3a.6.6,0,0,1,1.2-.1c.08,1,.1,2.09.12,3.11,0,1.19.05,2.42.19,3.62a.6.6,0,0,1-.53.66Z"/><path class="cls-2" d="M129.52,98.67a2.11,2.11,0,0,1-2.07-2,1.83,1.83,0,0,1,1.7-1.85,2.21,2.21,0,0,1,2.13,2A1.81,1.81,0,0,1,129.52,98.67Zm-.34-3.31,0,.6a.65.65,0,0,0-.56.66.93.93,0,0,0,.87.86c.55,0,.57-.69.57-.69,0-.44-.63-.83-.87-.83Z"/><path class="cls-2" d="M88.79,87.73c-.94,0-1.89-1.21-1.89-2.4a1.62,1.62,0,0,1,.92-1.53h0a1.77,1.77,0,0,1,.77-.16,2.06,2.06,0,1,1,.2,4.09Zm-.2-2.9a.67.67,0,0,0-.26,0h0a.44.44,0,0,0-.24.45,1.48,1.48,0,0,0,.71,1.21c.23,0,.93-.45.93-.86S89.1,84.83,88.59,84.83Z"/><path class="cls-2" d="M109.14,108.57c-3.86,0-6.77-3.1-6.77-7.2,0-5.25,3.72-7.11,6.9-7.11q.38,0,.75,0h0a8.14,8.14,0,0,1,3.58,1.28,6.44,6.44,0,0,1,2.81,5C116.41,105,113.15,108.57,109.14,108.57Zm.13-13.11c-2.76,0-5.71,1.55-5.71,5.91,0,3.48,2.35,6,5.58,6s6.07-3.05,6.07-6.81a5.19,5.19,0,0,0-2.24-4,7,7,0,0,0-3.06-1.11Z"/><path class="cls-2" d="M109.12,104a2.41,2.41,0,0,1-2.3-2.64,2.44,2.44,0,0,1,2.32-2.57h.1a3.29,3.29,0,0,1,2.33.92,2.24,2.24,0,0,1,.54,1.44A3.07,3.07,0,0,1,109.12,104Zm0-4a1.25,1.25,0,0,0-1.13,1.37c0,.7.35,1.45,1.11,1.45a1.91,1.91,0,0,0,1.8-1.65,1,1,0,0,0-.26-.67,2.2,2.2,0,0,0-1.47-.5h0Z"/><path class="cls-2" d="M108.68,115.46l-.88,0a.61.61,0,0,1-.54-.38c-.3-.79-.55-1.59-.8-2.36-.11-.37-.23-.73-.35-1.1a10.65,10.65,0,0,1-4-2.58l-1.1.28c-.94.24-1.91.49-2.9.66a.6.6,0,0,1-.63-.31,16.91,16.91,0,0,1-1.6-5,.59.59,0,0,1,.26-.61c.85-.57,1.69-1.13,2.52-1.71a9.3,9.3,0,0,1-.08-2.41l-1.58-1.38c-.44-.4-.89-.79-1.34-1.18a.61.61,0,0,1-.14-.72c.52-1.05,1.1-2.08,1.71-3.07a.6.6,0,0,1,.64-.27c1.44.32,2.59.55,3.65.75a11.71,11.71,0,0,1,1.82-1.45c0-.29,0-.59,0-.88,0-.51,0-1,0-1.53s0-1,0-1.5v-.24a.59.59,0,0,1,.43-.58,21.92,21.92,0,0,1,4.9-.76.6.6,0,0,1,.58.35,31.87,31.87,0,0,0,1.72,3.3,9.54,9.54,0,0,1,1.91.48,30.56,30.56,0,0,1,3.64-2.16l0,0a.61.61,0,0,1,.7.1,21.62,21.62,0,0,1,2.86,3.29.59.59,0,0,1,0,.68,34.77,34.77,0,0,0-1.9,3,12.83,12.83,0,0,1,1,3,25.51,25.51,0,0,0,4,1.3.58.58,0,0,1,.38.26.58.58,0,0,1,.08.46,24.73,24.73,0,0,0-.65,5.56c0,.22,0,.44,0,.66a.58.58,0,0,1-.19.45.59.59,0,0,1-.45.17c-.84-.07-1.71-.1-2.61-.1l-2.28.06a9.8,9.8,0,0,1-2.92,2.78,11.06,11.06,0,0,1-1.07.58,18.18,18.18,0,0,0,.33,2.79.6.6,0,0,1-.39.67A14.14,14.14,0,0,1,108.68,115.46Zm-.44-1.2h.44a13.89,13.89,0,0,0,4-.51,19.51,19.51,0,0,1-.27-2.87.61.61,0,0,1,.37-.57,8.16,8.16,0,0,0,1.28-.66,8.7,8.7,0,0,0,2.73-2.67.57.57,0,0,1,.48-.27c1.12,0,2.41-.07,2.62-.07.7,0,1.38,0,2,0v0a25.37,25.37,0,0,1,.56-5.24,32.54,32.54,0,0,1-4-1.35.62.62,0,0,1-.37-.46,11.68,11.68,0,0,0-1.06-3.25.59.59,0,0,1,0-.56c.61-1.07,1.24-2.08,1.88-3a20.67,20.67,0,0,0-2.15-2.46,26.19,26.19,0,0,0-3.42,2.08.6.6,0,0,1-.59.08,7.74,7.74,0,0,0-2.19-.55.6.6,0,0,1-.45-.29,32.92,32.92,0,0,1-1.77-3.3,20.43,20.43,0,0,0-3.8.57c0,.44,0,.87,0,1.31s0,1,0,1.51,0,.79,0,1.18a.58.58,0,0,1-.29.53l0,0a10.47,10.47,0,0,0-2.06,1.64.6.6,0,0,1-.54.18c-1.07-.19-2.19-.41-3.6-.72-.43.72-.84,1.46-1.22,2.2l1,.88,1.81,1.57a.6.6,0,0,1,.21.54,8.18,8.18,0,0,0,.09,2.74.61.61,0,0,1-.24.61c-.83.58-1.67,1.14-2.53,1.71a15.91,15.91,0,0,0,1.21,3.88c.8-.15,1.6-.36,2.37-.56.49-.12,1-.25,1.46-.36a.6.6,0,0,1,.58.18,9.53,9.53,0,0,0,4,2.61.56.56,0,0,1,.38.37c.16.47.31.93.45,1.4C107.8,113,108,113.62,108.24,114.26Z"/><path class="cls-2" d="M91.69,104.6a.55.55,0,0,1-.3-.09,9.18,9.18,0,0,1-1-.74,7,7,0,0,0-1.21-.83,56.46,56.46,0,0,1-6.38-4c-1.08-.74-2.19-1.5-3.31-2.22a.59.59,0,0,1-.19-.82.6.6,0,0,1,.83-.19c1.14.73,2.26,1.5,3.35,2.25a54.7,54.7,0,0,0,6.24,3.91,8.48,8.48,0,0,1,1.41,1,10.41,10.41,0,0,0,.91.66.6.6,0,0,1-.31,1.11Z"/><path class="cls-2" d="M87.91,105.82a.6.6,0,0,1-.24-1.15,15.19,15.19,0,0,1,3.39-1,11.92,11.92,0,0,1-1-3.8.61.61,0,0,1,.55-.65.6.6,0,0,1,.65.55,10.65,10.65,0,0,0,1.3,4.12.61.61,0,0,1,0,.57.61.61,0,0,1-.48.31,11.87,11.87,0,0,0-3.88,1A.5.5,0,0,1,87.91,105.82Z"/><path class="cls-2" d="M97.74,91.62h0a.59.59,0,0,1-.55-.63c.31-4.65.43-9.42.54-14l.09-3.62a.6.6,0,0,1,.6-.58h0a.6.6,0,0,1,.58.62L98.87,77c-.11,4.63-.22,9.42-.54,14.09A.6.6,0,0,1,97.74,91.62Z"/><path class="cls-2" d="M117.13,86a.63.63,0,0,1-.35-.11,5.74,5.74,0,0,1-1.4-1.63l0,0a59.32,59.32,0,0,0-4.62-6A62.07,62.07,0,0,1,106.58,73a.59.59,0,0,1,.16-.83.61.61,0,0,1,.83.16,59,59,0,0,0,4.08,5.17,60.22,60.22,0,0,1,4.71,6.08l0,0a4.65,4.65,0,0,0,1.08,1.31.58.58,0,0,1,.14.83A.59.59,0,0,1,117.13,86Z"/><path class="cls-2" d="M106.54,77h-.07a.6.6,0,0,1-.52-.67,20.35,20.35,0,0,0,.15-2.55c0-.49,0-1,0-1.56a.59.59,0,0,1,.24-.5.59.59,0,0,1,.54-.1,14.29,14.29,0,0,0,4.13.87.59.59,0,0,1,.58.61.58.58,0,0,1-.61.58,14,14,0,0,1-3.65-.66c0,.26,0,.51,0,.76a20.86,20.86,0,0,1-.16,2.7A.59.59,0,0,1,106.54,77Z"/><path class="cls-2" d="M128.71,47a.59.59,0,0,1-.29-.07,26.17,26.17,0,0,1-4.16-3l-.09-.07c-1.18.94-2.35,1.92-3.48,2.91a.6.6,0,0,1-.72,0,33.66,33.66,0,0,1-4.36-3.49c-.77.43-1.57.84-2.35,1.25s-1.35.7-2,1.07a.6.6,0,0,1-.57-1.06c.68-.37,1.37-.72,2-1.08.94-.48,1.82-.94,2.7-1.43a.6.6,0,0,1,.71.08,35.2,35.2,0,0,0,4.13,3.41c1.16-1,2.36-2,3.57-2.95a.59.59,0,0,1,.75,0l.46.39a26.68,26.68,0,0,0,3.65,2.73l1.39-.91a36.26,36.26,0,0,0,3.73-2.68.6.6,0,0,1,.84.07.59.59,0,0,1-.06.84,36.41,36.41,0,0,1-3.86,2.77c-.56.36-1.12.73-1.67,1.11A.59.59,0,0,1,128.71,47Z"/><path class="cls-2" d="M128.48,36.44a.6.6,0,0,1-.59-.53c-.11-.92-.16-1.87-.21-2.79s-.1-1.84-.19-2.72a.59.59,0,1,1,1.18-.13c.11.92.16,1.87.21,2.79s.1,1.83.2,2.72a.61.61,0,0,1-.53.66Z"/><path class="cls-2" d="M125.58,33.74a.6.6,0,1,1,0-1.2,33.65,33.65,0,0,0,5.41-.29.6.6,0,0,1,.69.49.61.61,0,0,1-.5.69A34,34,0,0,1,125.58,33.74Z"/><path class="cls-2" d="M108.4,36a6,6,0,0,1-5.89-6.16c0-2.69,1.8-5.59,4.82-5.78l.39-.05a4.88,4.88,0,0,1,.7-.07c2.3,0,5.71,1.72,5.71,5.43C114.13,32.61,111.24,36,108.4,36Zm0-10.87a3.34,3.34,0,0,0-.51.06l-.51.06h0c-2.31.15-3.69,2.45-3.69,4.59a4.78,4.78,0,0,0,4.69,5c2.34,0,4.54-3.07,4.54-5.44C112.94,26.44,110.24,25.09,108.42,25.09Z"/><path class="cls-2" d="M108.12,31.77A1.73,1.73,0,0,1,106.4,30a2.24,2.24,0,0,1,.75-1.7.59.59,0,0,1,.61-.11,1.77,1.77,0,0,0,.51.1,2.16,2.16,0,0,1,1.15.4,1.44,1.44,0,0,1,.55,1.08A2,2,0,0,1,108.12,31.77Zm-.37-2.39a1.11,1.11,0,0,0-.16.57.56.56,0,0,0,.53.63c.58,0,.66-.85.66-.86a.52.52,0,0,0-.12-.16,1.28,1.28,0,0,0-.53-.13Z"/><path class="cls-2" d="M101.93,52.75a.6.6,0,0,1-.6-.59c0-1.2,0-2.44,0-3.68,0-5.3.31-11,1-17.44a.6.6,0,0,1,.66-.53.58.58,0,0,1,.53.65c-.64,6.4-1,12.06-1,17.32,0,1.23,0,2.45,0,3.65a.6.6,0,0,1-.58.62Z"/><path class="cls-2" d="M114.65,40.62a.6.6,0,0,1-.6-.55l-.9-10.22a.59.59,0,0,1,.55-.64.58.58,0,0,1,.64.54l.9,10.22a.6.6,0,0,1-.54.65Z"/><path class="cls-2" d="M122.16,97.7a.6.6,0,0,1-.59-.52c-1.6-12.27-2.71-20.53-3.52-26.57-1.82-13.62-2-15-2.59-23.23a.6.6,0,0,1,1.19-.09c.58,8.16.73,9.29,2.59,23.16.81,6,1.91,14.31,3.52,26.58a.6.6,0,0,1-.52.67Z"/><path class="cls-2" d="M89.05,35a4.21,4.21,0,0,1-4-4.09,3.82,3.82,0,0,1,3.84-3.55h0a.71.71,0,0,0,.21-.07,1.4,1.4,0,0,1,.65-.18,3.29,3.29,0,0,1,3.58,3.26C93.33,31.92,92.28,35,89.05,35ZM88.9,28.6A2.58,2.58,0,0,0,86.25,31a3,3,0,0,0,2.8,2.89c2.56,0,3.08-2.7,3.08-3.43a2.12,2.12,0,0,0-2.38-2.06l-.14.06a1.59,1.59,0,0,1-.71.19Z"/><path class="cls-2" d="M88.81,31.55a.59.59,0,0,1-.44-.19c-.45-.48-1-.94-1.43-1.39a17,17,0,0,1-2.57-2.78.6.6,0,1,1,1-.68,16.55,16.55,0,0,0,2.4,2.58c.5.46,1,.94,1.49,1.45a.6.6,0,0,1,0,.85A.61.61,0,0,1,88.81,31.55Z"/><path class="cls-2" d="M86.58,45.7a.62.62,0,0,1-.4-.15,37.19,37.19,0,0,1-4.76-5.43A43.54,43.54,0,0,0,78.05,36a.6.6,0,0,1,0-.85.59.59,0,0,1,.84,0,46.7,46.7,0,0,1,3.47,4.19A34.48,34.48,0,0,0,87,44.65a.6.6,0,0,1-.39,1.05Z"/><path class="cls-2" d="M78.28,39.81h-.06a.59.59,0,0,1-.53-.65v0a29.65,29.65,0,0,0,.21-3c0-.19,0-.38,0-.56a.67.67,0,0,1,.22-.5.6.6,0,0,1,.53-.11,8.6,8.6,0,0,0,2.15.21h1.68a.6.6,0,0,1,0,1.2H80.78a13.2,13.2,0,0,1-1.69-.1c0,1-.11,2-.21,3A.61.61,0,0,1,78.28,39.81Z"/><path class="cls-2" d="M77.43,53.35a.61.61,0,0,1-.59-.48,13.64,13.64,0,0,1-.2-2.62v-.84c0-.27,0-.54,0-.81a.6.6,0,0,1,1.2,0c0,.27,0,.55,0,.82s0,.55,0,.83A11.73,11.73,0,0,0,78,52.63a.6.6,0,0,1-.47.7Z"/><path class="cls-2" d="M79.14,51l-.13,0a7.74,7.74,0,0,0-1.63-.15l-.83,0h-.92a.59.59,0,0,1-.6-.59.6.6,0,0,1,.6-.6l.88,0,.87,0a8.18,8.18,0,0,1,1.89.19A.6.6,0,0,1,79.14,51Z"/><path class="cls-2" d="M85.94,20.43c-4.31,0-6.27-2.21-6.27-4.25a3.8,3.8,0,0,1,3.91-3.64,7.92,7.92,0,0,1,1.14.07A11.15,11.15,0,0,1,84.61,11c0-3.13,4-5.81,7.32-5.81,2,0,3.06,2,3.06,3.91,0,.32,0,.62,0,.89a5,5,0,0,1,1.58-.22,4.72,4.72,0,0,1,4,2.34,6.87,6.87,0,0,1,1.2,3.32,2.67,2.67,0,0,1-.06.53,1.29,1.29,0,0,0,0,.25c0,3.14-5,4-7.61,4l-1.6,0q-.78,0-1.56,0a15.89,15.89,0,0,0-2,.1A25.63,25.63,0,0,1,85.94,20.43Zm-2.36-6.7a2.61,2.61,0,0,0-2.71,2.45c0,1.47,1.58,3.05,5.07,3.05a23.71,23.71,0,0,0,2.83-.2h0a18.1,18.1,0,0,1,2.08-.1l1.59,0c.52,0,1,0,1.57,0,2.48,0,6.41-.76,6.41-2.78a3.08,3.08,0,0,1,0-.47,1.25,1.25,0,0,0,0-.31c0-1-1.24-4.46-4-4.46-1.24,0-1.7.36-1.83.51a.62.62,0,0,1-.59.44.6.6,0,0,1-.6-.6.82.82,0,0,1,.11-.38,7.53,7.53,0,0,0,.16-1.84c0-1.32-.65-2.71-1.86-2.71C88.69,6.38,85.81,9,85.81,11a7.91,7.91,0,0,0,.2,2,1.34,1.34,0,0,1,.84,1.1.72.72,0,0,1-.73.74c-.25,0-.71-.12-1.06-.93A5.64,5.64,0,0,0,83.58,13.73Z"/><path class="cls-2" d="M108.88,11.65a.6.6,0,0,1-.6-.6c0-.74,0-1.5,0-2.23s0-1.49,0-2.22c0-.37,0-.73,0-1.08a.6.6,0,1,1,1.2,0c0,.37,0,.75,0,1.13,0,.75,0,1.52,0,2.26s0,1.47,0,2.19A.6.6,0,0,1,108.88,11.65Z"/><path class="cls-2" d="M111.62,8.83c-1.77,0-3.44-.07-5.22-.14h-.21a.59.59,0,0,1-.57-.62.58.58,0,0,1,.62-.58h.21c1.77.08,3.43.15,5.17.15a.59.59,0,0,1,.6.59A.6.6,0,0,1,111.62,8.83Z"/><path class="cls-2" d="M72.86,8.89a4.06,4.06,0,0,1-4.08-4.08A3.86,3.86,0,0,1,71.65,1h.19A8.11,8.11,0,0,1,72.7.94c2.17,0,4.47,1.14,4.47,3.26A4.46,4.46,0,0,1,72.86,8.89ZM71.68,2.18a2.88,2.88,0,0,0,1.18,5.51A3.23,3.23,0,0,0,76,4.2c0-1.34-1.68-2.07-3.27-2.07a6,6,0,0,0-.74.05h-.28ZM71.81,1h0Z"/><path class="cls-2" d="M72.57,10.79a.6.6,0,0,1-.6-.57c0-.47-.07-1-.11-1.41-.06-.7-.13-1.42-.13-2.15a9.66,9.66,0,0,1,.09-1.35A.6.6,0,1,1,73,5.48a7.3,7.3,0,0,0-.08,1.18c0,.67.06,1.34.12,2,0,.48.09,1,.11,1.47a.59.59,0,0,1-.56.62Z"/><path class="cls-2" d="M121.5,23.57a4.05,4.05,0,0,1-4.08-4.08,3.86,3.86,0,0,1,2.87-3.83h.19a8.11,8.11,0,0,1,.86-.05c2.16,0,4.47,1.14,4.47,3.26A4.46,4.46,0,0,1,121.5,23.57Zm-1.18-6.71a2.89,2.89,0,0,0,1.18,5.52,3.24,3.24,0,0,0,3.11-3.5c0-1.34-1.68-2.07-3.27-2.07a6,6,0,0,0-.74.05h0a1,1,0,0,1-.25,0Zm.11-1.18Zm0,0Z"/><path class="cls-2" d="M121.21,25.47a.6.6,0,0,1-.6-.57c0-.46-.07-.95-.11-1.41-.06-.7-.13-1.42-.13-2.15a9.46,9.46,0,0,1,.09-1.35.61.61,0,0,1,.68-.51.61.61,0,0,1,.51.68,7.22,7.22,0,0,0-.08,1.18c0,.67.06,1.34.12,2,0,.48.09,1,.11,1.47a.59.59,0,0,1-.57.62Z"/><path class="cls-2" d="M54.94,6.26a.6.6,0,0,1-.6-.54c-.07-.75-.08-1.52-.1-2.26A25.76,25.76,0,0,0,54.08.68.6.6,0,0,1,55.26.52a23.93,23.93,0,0,1,.18,2.91c0,.72,0,1.47.09,2.18a.6.6,0,0,1-.54.65Z"/><path class="cls-2" d="M56.46,3.72c-.58,0-1.16,0-1.72-.07s-1.09-.06-1.63-.06c-.35,0-.67,0-1,0A.6.6,0,0,1,52,2.44a19.91,19.91,0,0,1,2.78,0,20,20,0,0,0,2.19,0,.6.6,0,0,1,.63.57.61.61,0,0,1-.57.63Z"/><path class="cls-2" d="M6.31,51.74a2.4,2.4,0,0,1-2.65-2.53,1.75,1.75,0,0,1,1.25-1.79,2.75,2.75,0,0,1,.7-.1c.92,0,2.63.76,2.63,1.84a2.64,2.64,0,0,0,0,.29,2.53,2.53,0,0,1,0,.38,2.16,2.16,0,0,1-1.81,1.91Zm-.7-3.22a1.49,1.49,0,0,0-.36,0h0c-.1,0-.39.12-.39.64,0,.89.49,1.33,1.45,1.33h.17c.19,0,.59-.5.62-.73,0-.06,0-.14,0-.22a3,3,0,0,1,0-.43A2.36,2.36,0,0,0,5.61,48.52Z"/></g></g></svg>