<svg xmlns="http://www.w3.org/2000/svg" viewBox="0 0 141.73 141.38"><defs><style>.cls-1{fill:#ffcc80;}.cls-2{fill:#525d7d;}</style></defs><title>016_c</title><g id="Layer_2" data-name="Layer 2"><g id="Layer_1-2" data-name="Layer 1"><path class="cls-1" d="M58.66,67.48a1.26,1.26,0,0,0-1.06-.11.67.67,0,0,0-1.33.09A46.06,46.06,0,0,0,56.2,75a1.15,1.15,0,0,0,1.95.76,1.09,1.09,0,0,0,1.51-.82l0-.19a1.25,1.25,0,0,0,.51,0,1.06,1.06,0,0,0,.47.35,1.29,1.29,0,0,0,.16.41,2.55,2.55,0,0,0,1.82,1.28,1.45,1.45,0,0,0,1.74-1.06,1,1,0,0,0,.4-.68C65.35,71.77,61.13,68.92,58.66,67.48Z"/><path class="cls-1" d="M99,86.13a2.28,2.28,0,0,0-.77-1.41,1.67,1.67,0,0,0-.46-.28,14.21,14.21,0,0,0-3.51-2.84,1.36,1.36,0,0,0-2,1.51,3.54,3.54,0,0,0,.28.87l0,0a.88.88,0,0,0,0,.15A7.78,7.78,0,0,0,92.21,87h0a1.08,1.08,0,0,0,1.39.94,1.2,1.2,0,0,0,.91,0,1.38,1.38,0,0,0,1.66-.17,1.17,1.17,0,0,0,1-.15A1.32,1.32,0,0,0,99,86.13Z"/><path class="cls-1" d="M134.84,67.49a4.36,4.36,0,0,0-2.57.86,11.38,11.38,0,0,0-1.66,1.14,5.46,5.46,0,0,0-.45.39,1.23,1.23,0,0,0,.38,2,3,3,0,0,0,0,.41c.17.91,1.41.6,1.49-.21h0a3.17,3.17,0,0,1,.17-.69,3.32,3.32,0,0,1,1.31-.43,1.29,1.29,0,0,0,1.24-1.23l.32-.09A1.08,1.08,0,0,0,134.84,67.49Z"/><path class="cls-1" d="M4.43,72.7c.24-.36.77-1,.27-1.33a.77.77,0,0,0-.45-.14,1.4,1.4,0,0,0-1.72,0C.7,72.85-.37,75.4.75,77.77c.54,1.15,2.09.43,2.1-.65A1,1,0,0,0,4,75.94,7.72,7.72,0,0,1,4.43,72.7Z"/><path class="cls-1" d="M59.14,124.7c-.79-.11-1.58-.18-2.38-.24a20,20,0,0,0-4-.38c-1.33,0-1.79,2-.62,2.49a1,1,0,0,0,1,1.11h0l.47-.05v.16a.26.26,0,0,0,.44-.18v0c.95-.1,1.89-.23,2.84-.36a14.94,14.94,0,0,0,1.89,0C60.16,127.17,60.67,124.91,59.14,124.7Z"/><path class="cls-1" d="M66,8.92l-.53-2.34a1.31,1.31,0,0,0-2.57.35,2.19,2.19,0,0,1,0,.36,11.17,11.17,0,0,0-1.31-.19,1.52,1.52,0,0,0-.94-.17c-.46.07-.92.16-1.37.26a1.26,1.26,0,0,0-1,1.31,13.87,13.87,0,0,0-1.63.6c-.63.28-.25,1.17.32,1.2a25.89,25.89,0,0,0,5-.42,7.94,7.94,0,0,1,2.11.56A1.36,1.36,0,0,0,66,8.92Z"/><path class="cls-1" d="M13.14,47.44a.93.93,0,0,0-.78-.89.91.91,0,0,0-1,.65,1.11,1.11,0,0,0,0,.72l0,.09a1.6,1.6,0,0,0,.16.48.76.76,0,0,0,1.37-.14,1.2,1.2,0,0,0,.13-.21A1.07,1.07,0,0,0,13.14,47.44Z"/><path class="cls-1" d="M19.4,46.55l-.18.15a.83.83,0,0,0-.14.13.58.58,0,0,0-.42.17.59.59,0,0,0-.15.58,1.23,1.23,0,0,0,.44.59s.11.09,0,0,.11.09.14.11a1.12,1.12,0,0,0,.53.15,1.24,1.24,0,0,0,.83-.27,1.2,1.2,0,0,0,.47-1A.91.91,0,0,0,19.4,46.55Z"/><path class="cls-1" d="M15.51,55.56a.69.69,0,0,0,0-.1.49.49,0,0,0-.06-.17l0,0c.07.16.06.13,0-.08A1.12,1.12,0,0,0,15,54.8a1.08,1.08,0,0,0-.8-.15,1.09,1.09,0,0,0-.68.53.93.93,0,0,0,.08,1,.89.89,0,0,0,1,.33,1.61,1.61,0,0,0,.36-.15.69.69,0,0,0,.13-.11.58.58,0,0,0,.47-.71Z"/><path class="cls-1" d="M22.42,54.42a.85.85,0,0,0-.71-.42A1,1,0,0,0,21,54a.94.94,0,0,0-.54,1.11,1.11,1.11,0,0,0,1.36.76A1,1,0,0,0,22.42,54.42Z"/><path class="cls-1" d="M11.51,40.41a.8.8,0,0,0-.76-.58,1.33,1.33,0,0,0-1.27.88.83.83,0,0,0,0,.54,1,1,0,0,0,.2.59v0a.58.58,0,0,0,.72.23.57.57,0,0,0,.35-.47,1,1,0,0,0,.29-.29l.06,0A.79.79,0,0,0,11.51,40.41Z"/><path class="cls-1" d="M16.26,36.9a.52.52,0,0,0-.6.28.63.63,0,0,0-.44.34,1,1,0,0,0,.33,1.33,1.07,1.07,0,0,0,1.28-.15A1.11,1.11,0,0,0,16.26,36.9Z"/><path class="cls-1" d="M23.83,40.94a.89.89,0,0,0-.59-.59,3,3,0,0,0-.22-.28c-.3-.33-.72.09-.57.44,0,0,0,0,0,.05a1.07,1.07,0,0,0-.24.38s-.08.26,0,.08a1.38,1.38,0,0,0-.13.54.89.89,0,0,0,.65.85.9.9,0,0,0,1-.41A1.39,1.39,0,0,0,23.83,40.94Z"/><path class="cls-1" d="M50.91,60.55a12.41,12.41,0,0,0-.34-2.71,2.18,2.18,0,0,0-.14-.34c-.11-.84-.22-1.67-.38-2.5a.89.89,0,0,0-1.7,0,12.5,12.5,0,0,0-.3,2.37,1.3,1.3,0,0,0-.29.85,12.47,12.47,0,0,0,.38,2.71C48.54,62.56,50.87,62,50.91,60.55Z"/><path class="cls-1" d="M74.34,56.25a1.41,1.41,0,0,0-1.09-1.34l-.12-.66c-.17-.91-.37-1.9-1.42-2-.42-.05-.62.41-.57.74A17.77,17.77,0,0,1,71,56.06c0,1.19-.07,2.38-.08,3.57,0,1.67,2.72,2.14,3,.41A19.47,19.47,0,0,0,74.34,56.25Z"/><path class="cls-1" d="M85.92,58.4a1.42,1.42,0,0,0-.3-.25c-.36-.79-.66-1.73-1.49-2a.78.78,0,0,0-.87.36c-.41.54-.19,1.36-.13,2a3,3,0,0,0,.63,2.11,1.52,1.52,0,0,0,2.12,0l0-.06A1.53,1.53,0,0,0,85.92,58.4Z"/><path class="cls-1" d="M90.93,20.31A2.55,2.55,0,0,0,89,19.07a1.15,1.15,0,0,0-1.22.8,2.25,2.25,0,0,0-1.48,1.71,2.38,2.38,0,0,0,2.26,2.77A2.55,2.55,0,0,0,91.33,22,2.8,2.8,0,0,0,90.93,20.31Z"/><path class="cls-1" d="M88.48,21.81c.14,0,0,0,0,0Z"/><path class="cls-2" d="M43.39,93.29c-5,0-6-5.26-6-14.33q0-.81,0-1.62c0-.53,0-1.07,0-1.61,0-2.38-.36-5.67-.75-9.16a127.38,127.38,0,0,1-1-13.21c0-5.35,0-8.58,3.84-8.82l36.05-1.92,15.76-.84c3,0,4.56,4,4.56,11.44,0,1.36,0,2.74-.1,4.08s-.09,2.71-.09,4,.06,2.69.17,3.81a.52.52,0,1,1-1,.11,38,38,0,0,1-.18-3.92c0-1.35,0-2.74.09-4.07s.1-2.71.1-4.05c0-9-2.2-10.39-3.51-10.39l-15.7.84L39.62,45.59c-2.68.17-2.82,2.13-2.82,7.77a126.1,126.1,0,0,0,1,13.1c.38,3.51.75,6.83.75,9.27,0,.55,0,1.1,0,1.64s0,1.06,0,1.59c0,11.1,1.8,13.28,4.92,13.28,6.79,0,13.69-.2,20.37-.39,5-.15,10.18-.3,15.28-.36a.54.54,0,0,1,.53.52.53.53,0,0,1-.52.53c-5.08.06-10.26.21-15.26.36C57.11,93.09,50.2,93.29,43.39,93.29Z"/><path class="cls-2" d="M45.8,91a4.59,4.59,0,0,1-3.35-1c-2.81-2.62-3-11.19-3.34-40.54,0-1.36,1.5-2.13,2.91-2.18,12.36-.45,21.58-1.06,28.32-1.5,12.07-.8,16.58-1.1,18.65.83,1.44,1.34,1.45,3.58,1.46,7.27a81.92,81.92,0,0,0,.7,11.6.52.52,0,1,1-1,.14,82.64,82.64,0,0,1-.71-11.73c0-3.42,0-5.48-1.13-6.51-1.73-1.62-6.45-1.31-17.86-.55-6.74.44-16,1-28.35,1.49-.78,0-1.9.45-1.9,1.12.3,27.77.53,37.48,3,39.79,1,.88,2.34.8,4.44.68.82-.05,1.74-.11,2.77-.11,3.93,0,7.94-.16,11.81-.32s7.9-.32,11.85-.32c1.62,0,3.12,0,4.58.08a.53.53,0,0,1,.51.55.52.52,0,0,1-.54.5c-1.45,0-2.94-.08-4.55-.08-3.93,0-7.94.16-11.81.32s-7.9.32-11.85.32c-1,0-1.9.06-2.71.11C47,91,46.38,91,45.8,91Z"/><path class="cls-2" d="M83.5,102.61a3,3,0,0,1-3-2.77L78.43,70.38a2.93,2.93,0,0,1,.77-2.22,3,3,0,0,1,2.15-1l17.35-.28h0a3,3,0,0,1,3,2.72l2.55,29.1A3,3,0,0,1,101.4,102l-17.79.64ZM81.36,68.24a1.93,1.93,0,0,0-1.89,2.07l2.12,29.46a1.9,1.9,0,0,0,2,1.78l17.78-.64a1.9,1.9,0,0,0,1.85-2.09l-2.55-29.1a1.93,1.93,0,0,0-2-1.76Z"/><path class="cls-2" d="M92.29,95.72h-.37a6.8,6.8,0,0,1-4.8-2.24A8.16,8.16,0,0,1,85,87.57a7.08,7.08,0,0,1,3.89-6.24,7.46,7.46,0,0,1,2.78-.71c4.21-.25,8,2.82,8.22,6.71a7.94,7.94,0,0,1-2.16,6.14A7.61,7.61,0,0,1,92.29,95.72Zm-.12-14.06h-.4a6.16,6.16,0,0,0-2.38.61,6.06,6.06,0,0,0-3.3,5.34,7.26,7.26,0,0,0,1.81,5.14A5.72,5.72,0,0,0,92,94.66a6.58,6.58,0,0,0,5-1.93,6.87,6.87,0,0,0,1.86-5.33C98.69,84.25,95.6,81.66,92.17,81.66Z"/><path class="cls-2" d="M92.31,89.35a.5.5,0,0,1-.31-.1.54.54,0,0,1-.21-.36c-.16-1.33-.22-2.68-.27-4,0-1.11-.1-2.26-.21-3.37a.53.53,0,0,1,.47-.58.51.51,0,0,1,.57.47c.12,1.15.17,2.31.22,3.44s.09,2.24.2,3.35C94,88,95.23,88,96.42,87.9c.84-.05,1.71-.1,2.55-.19a.54.54,0,0,1,.58.47.52.52,0,0,1-.47.57c-.86.1-1.74.15-2.59.2a35.38,35.38,0,0,0-4.09.4Z"/><path class="cls-2" d="M92,89.38a.53.53,0,0,1-.41-.19c-1.53-1.91-2.93-4-4.22-5.88a.53.53,0,0,1,.88-.58c1.27,1.9,2.65,3.92,4.16,5.8a.53.53,0,0,1-.08.74A.49.49,0,0,1,92,89.38Z"/><path class="cls-2" d="M83,79.22a.52.52,0,0,1-.52-.48c-.1-1.06-.23-2.2-.41-3.47a.53.53,0,0,1,.39-.58,14.23,14.23,0,0,1,2.71-.43.51.51,0,0,1,.55.48c.11,1.29.18,2.54.19,3.83a.52.52,0,0,1-.47.53c-.65.07-1.3.09-1.93.11H83Zm.18-3.62c.12.91.22,1.75.3,2.56.45,0,.91,0,1.37-.07,0-.91-.06-1.82-.13-2.74A12.63,12.63,0,0,0,83.18,75.6Z"/><path class="cls-2" d="M88.68,78.75a.53.53,0,0,1-.53-.5c-.07-1.1-.16-2.4-.34-3.71a.5.5,0,0,1,.11-.39.49.49,0,0,1,.36-.2c1-.09,1.93-.11,2.86-.12h.56a.56.56,0,0,1,.38.15.55.55,0,0,1,.16.38c0,1,0,2.31.08,3.65a.53.53,0,0,1-.47.55c-.79.08-1.59.12-2.36.15l-.79,0Zm.24-3.8c.11,1,.19,1.88.25,2.72h.27c.6,0,1.21-.06,1.81-.11,0-1,0-1.88-.06-2.67h0C90.42,74.89,89.67,74.9,88.92,75Z"/><path class="cls-2" d="M95.77,78.26H94.63a.53.53,0,0,1-.52-.49C94,76.69,94,75.64,94,74.48a.52.52,0,0,1,.42-.53,8.42,8.42,0,0,1,1.73-.16c.59,0,1.18,0,1.74.09H98a.53.53,0,0,1,.49.52v.31c0,.7,0,1.4,0,2.09,0,.29,0,.59,0,.88a.52.52,0,0,1-.49.51C97.18,78.25,96.37,78.26,95.77,78.26Zm-.64-1.06h.64c.47,0,1,0,1.67,0V76.8c0-.63,0-1.27,0-1.9a12.44,12.44,0,0,0-2.37,0C95.07,75.71,95.09,76.46,95.13,77.2Z"/><path class="cls-2" d="M81,98.65a.53.53,0,0,1,0-1.05c4.47,0,9-.27,13.41-.5,2.94-.15,6-.3,9-.4a.53.53,0,0,1,0,1c-3,.09-6,.25-9,.4C90.05,98.38,85.49,98.62,81,98.65Z"/><path class="cls-2" d="M90.57,100.34a.53.53,0,0,1,0-1c.79-.06,1.58-.08,2.34-.09s1.52,0,2.29-.09a.52.52,0,1,1,.08,1c-.8.07-1.58.08-2.35.1s-1.52,0-2.28.09Z"/><path class="cls-2" d="M55.52,87.15h-.13A10.3,10.3,0,0,1,48,83.92,11.19,11.19,0,0,1,44.9,76a10.72,10.72,0,0,1,9.6-10.24l.68,0A11.27,11.27,0,0,1,66.37,76.93C66.21,83.08,60.66,87.15,55.52,87.15ZM54.6,66.8A9.63,9.63,0,0,0,46,76a10.05,10.05,0,0,0,2.83,7.17A9.33,9.33,0,0,0,55.4,86.1h.12c4.64,0,9.66-3.66,9.8-9.2A10.21,10.21,0,0,0,55.21,66.76Z"/><path class="cls-2" d="M55.75,77a.53.53,0,0,1-.53-.49c-.07-1.22-.12-2.45-.16-3.65-.07-2.13-.15-4.34-.41-6.47a.53.53,0,0,1,.46-.59.51.51,0,0,1,.58.46c.27,2.18.35,4.41.42,6.56,0,1,.07,2.08.13,3.12,1.75,0,3.53-.07,5.25-.09l4-.07a.53.53,0,1,1,0,1l-4,.07C59.62,76.91,57.67,76.94,55.75,77Z"/><path class="cls-2" d="M55.77,76.68a.51.51,0,0,1-.42-.21,28.89,28.89,0,0,1-2.8-4.9,37.49,37.49,0,0,0-1.95-3.65.52.52,0,0,1,.16-.73.53.53,0,0,1,.72.16,40.22,40.22,0,0,1,2,3.76,27.69,27.69,0,0,0,2.69,4.73.54.54,0,0,1-.11.74A.5.5,0,0,1,55.77,76.68Z"/><path class="cls-2" d="M74.37,74.79c-1,0-2-.06-3-.11L70,74.6a.53.53,0,0,1-.5-.55.53.53,0,0,1,.55-.5l1.4.08c1,.05,1.94.11,2.91.11l1,0a.52.52,0,0,1,.55.5.53.53,0,0,1-.5.55Z"/><path class="cls-2" d="M74.84,78.66a29.18,29.18,0,0,1-3.12-.22l-1.23-.12a.53.53,0,0,1-.48-.57.52.52,0,0,1,.57-.48l1.25.12a27.7,27.7,0,0,0,3,.22,10.34,10.34,0,0,0,1.41-.09.53.53,0,0,1,.59.45.54.54,0,0,1-.46.59A10.68,10.68,0,0,1,74.84,78.66Z"/><path class="cls-2" d="M76.07,82h-5a.52.52,0,0,1-.52-.53.52.52,0,0,1,.52-.52h5a.52.52,0,0,1,.52.52A.52.52,0,0,1,76.07,82Z"/><path class="cls-2" d="M67.81,65.43a.52.52,0,0,1-.12-1,12.32,12.32,0,0,1,2.89-.29c.63,0,1.27,0,1.89.06s1.23,0,1.84,0a12.45,12.45,0,0,0,2.16-.16.53.53,0,1,1,.18,1,13.65,13.65,0,0,1-2.34.17c-.63,0-1.27,0-1.89,0s-1.23-.06-1.84-.06a12.09,12.09,0,0,0-2.66.26Z"/><path class="cls-2" d="M66,61.93a.52.52,0,0,1-.52-.48l-.1-1.25c-.08-1.09-.16-2.18-.26-3.27a.52.52,0,0,1,.12-.39.51.51,0,0,1,.37-.18c.79,0,1.58-.06,2.34-.06h.23a.53.53,0,0,1,.52.46c.18,1.38.33,2.82.48,4.41a.54.54,0,0,1-.43.57A17.18,17.18,0,0,1,66,61.93Zm.21-4.55c.08.91.15,1.83.22,2.74l.06.75c.56,0,1.09,0,1.6-.1-.12-1.22-.24-2.34-.37-3.42C67.21,57.35,66.7,57.36,66.2,57.38Z"/><path class="cls-2" d="M71.46,61.22H71a.52.52,0,0,1-.52-.46c-.22-1.78-.32-3.59-.41-5.33C70,54.3,70,53.13,69.88,52a.53.53,0,0,1,.14-.4.51.51,0,0,1,.4-.17l1.22,0c.77,0,1.55.07,2.32.05a.54.54,0,0,1,.54.49c.08,1.3.14,2.62.19,3.9.06,1.49.13,3,.24,4.54a.54.54,0,0,1-.43.56A16.31,16.31,0,0,1,71.46,61.22ZM71,52.49c.07,1,.13,1.93.18,2.88.08,1.58.17,3.21.35,4.8a17.54,17.54,0,0,0,2.35-.12c-.09-1.37-.15-2.76-.21-4.1,0-1.11-.1-2.25-.16-3.37-.63,0-1.27,0-1.89-.06Z"/><path class="cls-2" d="M77.66,61.1a.52.52,0,0,1-.52-.49l-.07-.79c-.15-1.9-.31-3.87-.4-5.82a.5.5,0,0,1,.16-.4.53.53,0,0,1,.4-.15l.45,0c.82.05,1.68.11,2.51.11h.09a.53.53,0,0,1,.53.49c0,.94.12,1.87.19,2.8.08,1.14.17,2.32.22,3.5a.53.53,0,0,1-.46.55C79.76,61,78.81,61.07,77.66,61.1Zm.09-6.56c.09,1.74.23,3.49.37,5.2l0,.29c.71,0,1.36,0,2-.1-.06-1-.13-2-.2-3-.06-.77-.11-1.55-.16-2.33C79.1,54.62,78.42,54.58,77.75,54.54Z"/><path class="cls-2" d="M86.27,61h0l-.71,0c-.63,0-1.28-.05-1.91-.05h-.12A.52.52,0,0,1,83,60.4c-.11-1-.15-2.06-.18-3.06,0-.67,0-1.36-.09-2a.53.53,0,0,1,.15-.4.51.51,0,0,1,.4-.16l1.13.07c.49,0,1,.07,1.47.08a.52.52,0,0,1,.51.5c.05,1,.15,2.08.25,3.09.06.63.12,1.26.16,1.9a.52.52,0,0,1-.14.41A.55.55,0,0,1,86.27,61ZM84,59.82l1.59,0h.12l-.12-1.3c-.08-.87-.16-1.76-.22-2.66-.35,0-.69,0-1-.06l-.52,0c0,.5,0,1,0,1.49C83.89,58.17,83.92,59,84,59.82Z"/><path class="cls-2" d="M45.42,63.13h-.79c-.47,0-.94,0-1.41,0a.52.52,0,0,1-.55-.46c-.17-1.5-.3-2.85-.34-4.27a.54.54,0,0,1,.15-.38.52.52,0,0,1,.37-.16,21.41,21.41,0,0,0,2.71-.18.55.55,0,0,1,.41.11.56.56,0,0,1,.19.38l.27,4.41a.52.52,0,0,1-.13.38.5.5,0,0,1-.37.17Zm-1.57-1.07h1.5l-.2-3.3c-.62.07-1.22.1-1.75.11,0,1,.14,2.07.26,3.17Z"/><path class="cls-2" d="M48.41,62.62a.52.52,0,0,1-.52-.46c-.18-1.53-.29-3.08-.39-4.58-.08-1.2-.16-2.43-.29-3.65a.53.53,0,0,1,.15-.41.48.48,0,0,1,.41-.16l.59,0c.71,0,1.45.08,2.18.1a.52.52,0,0,1,.51.48l.18,2.84c.1,1.67.2,3.41.38,5.13a.53.53,0,0,1-.48.58C50.16,62.6,49.21,62.62,48.41,62.62Zm-.09-8.18c.09,1,.16,2.06.23,3.07.09,1.33.18,2.71.33,4.06.51,0,1.06,0,1.63-.06-.15-1.57-.24-3.13-.33-4.64,0-.78-.09-1.56-.15-2.35Z"/><path class="cls-2" d="M54,62.38h-.73a.52.52,0,0,1-.52-.49c0-.74-.08-1.48-.11-2.2-.06-1.26-.11-2.57-.27-3.84a.54.54,0,0,1,.14-.43.56.56,0,0,1,.43-.16c1,.09,1.8.13,2.58.13h.24a.52.52,0,0,1,.53.5c.06,1.3.14,2.61.22,3.92,0,.65.08,1.3.11,1.95a.51.51,0,0,1-.48.55C55.38,62.38,54.63,62.38,54,62.38Zm-.23-1.05c.54,0,1.13,0,1.77,0,0-.48,0-.95-.08-1.43-.07-1.14-.14-2.29-.19-3.43-.56,0-1.14,0-1.79-.08.11,1.1.16,2.21.21,3.29C53.71,60.2,53.73,60.77,53.77,61.33Z"/><path class="cls-2" d="M56.15,85.29c-4.86,0-8.15-4.24-8.89-8.43a.52.52,0,0,1,.43-.61.54.54,0,0,1,.61.42c.69,3.94,3.85,7.91,8.44,7.55a.53.53,0,0,1,.57.48.53.53,0,0,1-.48.57C56.6,85.29,56.37,85.29,56.15,85.29Z"/><path class="cls-2" d="M94.63,94.07c-3.63,0-6.33-1.38-7.41-3.78a.53.53,0,0,1,1-.43C89.41,92.61,92.75,93,94.63,93a.52.52,0,0,1,.53.52A.53.53,0,0,1,94.63,94.07Z"/><path class="cls-2" d="M71.35,118.25a1.37,1.37,0,0,1-1-.29,1.19,1.19,0,0,1-.29-.87v0c0-.74,0-1.51,0-2.3,0-2.85-.22-5.73-.43-8.52s-.44-5.73-.44-8.63c0-1.09,1.26-1.15,3.36-1.25a43,43,0,0,0,6.1-.63.52.52,0,0,1,.61.42.52.52,0,0,1-.42.61,42.79,42.79,0,0,1-6.24.65,9.67,9.67,0,0,0-2.36.26c0,2.83.22,5.71.43,8.49s.44,5.72.44,8.6c0,.81,0,1.59-.05,2.34v.11a1.93,1.93,0,0,0,.34,0h.08a13.88,13.88,0,0,0,2.51-.31,18.4,18.4,0,0,1,2.28-.33.53.53,0,0,1,.56.5.53.53,0,0,1-.5.55,17.4,17.4,0,0,0-2.15.31,14,14,0,0,1-2.7.34h-.14Z"/><path class="cls-2" d="M95.41,118c-.89,0-1.8-.07-2.68-.14s-1.77-.14-2.63-.14a12.79,12.79,0,0,0-1.45.08.54.54,0,0,1-.59-.46.53.53,0,0,1,.46-.58,13,13,0,0,1,1.58-.09c.9,0,1.82.08,2.71.14s1.76.14,2.6.14c1.8,0,2.76-.17,3.13-.54s.31-.87.31-1.93v-.38a36.51,36.51,0,0,0-.48-5.1,37.94,37.94,0,0,1-.48-5.22v-.42a.53.53,0,1,1,1,0v.4a37.78,37.78,0,0,0,.47,5.07,38.23,38.23,0,0,1,.49,5.25v.37c0,1.15,0,2.06-.62,2.68S97.59,118,95.41,118Z"/><path class="cls-2" d="M73.27,113.51a.52.52,0,0,1-.52-.5c-.07-1.44-.18-2.92-.28-4.35-.18-2.48-.37-5.06-.37-7.63,0-.2,0-.36,0-.49a1.16,1.16,0,0,1,.22-1c.27-.27.6-.26,1.26-.24h1a14.34,14.34,0,0,0,3.36-.3.53.53,0,0,1,.24,1,15.82,15.82,0,0,1-3.6.33l-1,0h-.41a.57.57,0,0,1,0,.13c0,.14,0,.32,0,.53,0,2.54.19,5.09.36,7.56.11,1.43.21,2.91.28,4.37a.52.52,0,0,1-.5.55Z"/><path class="cls-2" d="M81.44,113.62a.52.52,0,0,1-.52-.53.52.52,0,0,1,.52-.52c6.19,0,12-.1,12.64-.81,0-.06,0-.17,0-.47a4.24,4.24,0,0,1,0-.53,35.61,35.61,0,0,0-.29-3.86c-.08-.69-.16-1.41-.22-2.13a.52.52,0,0,1,.48-.56.53.53,0,0,1,.57.48c.05.7.13,1.41.21,2.09a34.83,34.83,0,0,1,.3,4,2.83,2.83,0,0,0,0,.41,1.51,1.51,0,0,1-.28,1.29C94.13,113.28,92.11,113.62,81.44,113.62Z"/><path class="cls-2" d="M83.57,112.72a.54.54,0,0,1-.53-.48c-.09-1.06-.11-2.14-.13-3.17a37.93,37.93,0,0,0-.23-4,.54.54,0,0,1,.46-.59.51.51,0,0,1,.58.45,38,38,0,0,1,.24,4.1c0,1,0,2.07.13,3.09a.52.52,0,0,1-.48.57Z"/><path class="cls-2" d="M88.74,112.24a.52.52,0,0,1-.52-.45,24.2,24.2,0,0,1-.17-3.33v-.84c0-.77,0-1.66-.09-2.55a.52.52,0,0,1,.47-.57A.51.51,0,0,1,89,105c.09.93.1,1.86.1,2.65v.84a23.42,23.42,0,0,0,.16,3.19.53.53,0,0,1-.45.59Z"/><path class="cls-2" d="M80.62,108.65a.53.53,0,0,1-.53-.53.52.52,0,0,1,.53-.52c2.34,0,4.7-.14,7-.27,1.73-.1,3.52-.2,5.31-.25a.53.53,0,1,1,0,1c-1.77.05-3.55.15-5.27.25C85.37,108.51,83,108.65,80.62,108.65Z"/><path class="cls-2" d="M81.34,136.28a.53.53,0,0,1-.52-.45c-.33-2.17-1.85-3.3-3.19-4.29s-2.39-1.77-2.39-3.24c0-.14,0-.2.2-.56a17,17,0,0,0,1.81-6.5,33.35,33.35,0,0,0-1.18-7.16,19.68,19.68,0,0,1-.68-3.63c0-1.55.62-2.51,1.64-2.51,2.39,0,3.15,4,4,8.62a52.85,52.85,0,0,0,1.4,6.1.52.52,0,0,1-1,.32A53.8,53.8,0,0,1,80,116.76c-.69-3.64-1.48-7.77-3-7.77-.44,0-.59.87-.59,1.46a20.08,20.08,0,0,0,.65,3.39,34.14,34.14,0,0,1,1.21,7.4,17.81,17.81,0,0,1-1.91,6.94l-.09.21c0,.84.78,1.43,2,2.3,1.43,1.07,3.21,2.39,3.61,5a.52.52,0,0,1-.44.6Z"/><path class="cls-2" d="M93.22,134.18a1.78,1.78,0,0,1-.35,0h-.14a.53.53,0,0,1-.53-.53.52.52,0,0,1,.53-.52l.3,0,.19,0c.48,0,.48-3.2.48-6.3,0-4.29-.18-5.38-1.84-5.38a1.23,1.23,0,0,0-1,.47.5.5,0,0,1-.58.17.53.53,0,0,1-.36-.49,1.34,1.34,0,0,0-1.23-1.5c-.65,0-1.45.58-2.39,1.72a.52.52,0,0,1-.9-.16c-.52-1.55-1-1.91-1.06-1.93A2.6,2.6,0,0,0,82,122.27a.54.54,0,0,1-.59.45.54.54,0,0,1-.46-.59,3.67,3.67,0,0,1,3.42-3.46c.65,0,1.23.6,1.74,1.81A3.8,3.8,0,0,1,88.69,119a2.31,2.31,0,0,1,2.13,1.58,2.4,2.4,0,0,1,1-.23c2.89,0,2.89,2.56,2.89,6.43C94.75,132.32,94.75,134.18,93.22,134.18Z"/><path class="cls-2" d="M81.24,131.73a.52.52,0,0,1-.46-.27l-.26-.46a5.13,5.13,0,0,1-1-2.7.52.52,0,0,1,.53-.52.52.52,0,0,1,.52.52,4.21,4.21,0,0,0,.8,2.17c.09.16.19.31.28.48a.52.52,0,0,1-.21.71A.59.59,0,0,1,81.24,131.73Z"/><path class="cls-2" d="M96.86,136.18a.54.54,0,0,1-.44-.24.53.53,0,0,1,.16-.73c.73-.47,1.5-.9,2.25-1.31a19.58,19.58,0,0,0,4-2.67.52.52,0,0,1,.74,0,.53.53,0,0,1,0,.75,19.87,19.87,0,0,1-4.21,2.82c-.73.4-1.48.82-2.18,1.27A.52.52,0,0,1,96.86,136.18Z"/><path class="cls-2" d="M87.07,139.87a1.12,1.12,0,0,1-1.13-1.16,1.66,1.66,0,0,1,.51-1.15.52.52,0,0,1,.5-.14l.21,0c.38.07,1.15.22,1.22,1a.38.38,0,0,1,0,.1A1.31,1.31,0,0,1,87.07,139.87Zm0-1.36a.49.49,0,0,0-.06.2c0,.11.06.11.08.11s.27-.11.27-.22A.7.7,0,0,0,87.05,138.51Z"/><path class="cls-2" d="M70,126.12h-.08a1.88,1.88,0,0,1-1.78-1.72,2.12,2.12,0,0,1,.75-1.72,1.64,1.64,0,0,1,.94-.38A2,2,0,0,1,72,124a2.06,2.06,0,0,1-.59,1.55A1.89,1.89,0,0,1,70,126.12Zm-.44-2.64a1.09,1.09,0,0,0-.37.86.83.83,0,0,0,.78.73.82.82,0,0,0,.64-.28,1,1,0,0,0,.3-.73,1,1,0,0,0-1-.71A.57.57,0,0,0,69.58,123.48Z"/><path class="cls-2" d="M72.5,141.38h-.08a4.17,4.17,0,0,1-4-4.24,4.33,4.33,0,0,1,2.17-3.82,3.69,3.69,0,0,1,1.79-.5,4.26,4.26,0,0,1,4.34,3.92,4.48,4.48,0,0,1-1.24,3.37A4.18,4.18,0,0,1,72.5,141.38Zm0-7.51H72.4a2.77,2.77,0,0,0-1.31.36,3.33,3.33,0,0,0-1.63,2.91,3.08,3.08,0,0,0,3,3.19,3.15,3.15,0,0,0,2.28-1,3.42,3.42,0,0,0,.94-2.58A3.24,3.24,0,0,0,72.48,133.87Z"/><path class="cls-2" d="M70.8,138l-.37,0a.52.52,0,0,1-.48-.56.53.53,0,0,1,.57-.48,6.74,6.74,0,0,0,2.45-.43c.32-.1.66-.2,1-.28a.53.53,0,0,1,.64.38.52.52,0,0,1-.38.63c-.32.08-.65.18-1,.28A8.8,8.8,0,0,1,70.8,138Z"/><path class="cls-2" d="M105,119.83a1.26,1.26,0,0,1-1.26-1.11,1.46,1.46,0,0,1,.29-.75,1.09,1.09,0,0,0,.08-.15.55.55,0,0,1,.47-.29,1.59,1.59,0,0,1,1.49.67.79.79,0,0,1,.12.42A1.25,1.25,0,0,1,105,119.83Zm-.18-1.13a.25.25,0,0,0,.18.08s.07,0,.1-.1a.52.52,0,0,0-.23-.07A.41.41,0,0,0,104.86,118.7Z"/><path class="cls-2" d="M109.07,118.79a.53.53,0,0,1-.52-.46.54.54,0,0,1,.46-.59c1.81-.2,3.64-.32,5.41-.44.9,0,1.79-.11,2.69-.18a.52.52,0,0,1,.56.48.53.53,0,0,1-.48.57q-1.35.1-2.7.18c-1.76.12-3.57.23-5.36.44Z"/><path class="cls-2" d="M121.75,118.31a1.38,1.38,0,0,1-1.14-1.25.73.73,0,0,1,.28-.59,1,1,0,0,1,.6-.18.89.89,0,0,1,1,1,1,1,0,0,1,0,.17v.11a.82.82,0,0,1-.13.48A.68.68,0,0,1,121.75,118.31Z"/><path class="cls-2" d="M108.39,111.21h0a1.94,1.94,0,0,1-1.86-2,2.06,2.06,0,0,1,.68-1.52,1.71,1.71,0,0,1,.85-.39,2.2,2.2,0,0,1,1.7.53,1.9,1.9,0,0,1,.67,1.49,1.87,1.87,0,0,1-.59,1.33A2.08,2.08,0,0,1,108.39,111.21Zm-.11-2.89h-.1a.59.59,0,0,0-.32.14,1,1,0,0,0-.33.74.9.9,0,0,0,.84,1,1.05,1.05,0,0,0,.7-.28.87.87,0,0,0,.26-.59.86.86,0,0,0-.31-.68A1.18,1.18,0,0,0,108.28,108.32Z"/><path class="cls-2" d="M97.69,128.52a.51.51,0,0,1-.43-.23.52.52,0,0,1,.13-.73c.94-.64,1.86-1.4,2.76-2.14.24-.21.49-.41.74-.61a.53.53,0,0,1,.71,0l.22.23c.57.6,1.16,1.23,1.78,1.79.83-.67,1.68-1.36,2.55-2a.53.53,0,0,1,.65,0c.26.22.52.46.77.69s.73.68,1.11,1c.82-.63,1.6-1.34,2.37-2l.3-.27a.52.52,0,0,1,.72,0l.27.26a10.8,10.8,0,0,0,1.86,1.62c.74-.57,1.45-1.22,2.13-1.86l.46-.43a.52.52,0,0,1,.74,0,.51.51,0,0,1,0,.74l-.46.43a27.17,27.17,0,0,1-2.49,2.14.54.54,0,0,1-.56,0,10.11,10.11,0,0,1-2.31-1.88c-.85.77-1.74,1.57-2.68,2.27a.53.53,0,0,1-.62,0,16.2,16.2,0,0,1-1.52-1.3l-.43-.39c-.79.6-1.58,1.24-2.34,1.86l-.17.14a.52.52,0,0,1-.67,0c-.74-.64-1.42-1.35-2.08-2l-.35.3c-.92.75-1.86,1.53-2.83,2.2A.55.55,0,0,1,97.69,128.52Z"/><path class="cls-2" d="M116.44,112.67a.51.51,0,0,1-.3-.1.55.55,0,0,1-.22-.36c-.24-1.88-.51-3.78-.76-5.62s-.51-3.67-.74-5.52a.51.51,0,0,1,.38-.57,39.66,39.66,0,0,1,6.72-.94c.78-.06,1.59-.12,2.38-.21a.53.53,0,0,1,.38.12.52.52,0,0,1,.19.36c.16,1.58.35,3.2.54,4.76.24,1.94.49,4,.65,5.93a.53.53,0,0,1-.42.56c-1.37.27-2.77.51-4.12.74-1.51.26-3.06.53-4.57.84Zm-.92-11.26c.22,1.68.45,3.38.68,5s.47,3.37.69,5.08c1.35-.27,2.72-.5,4-.73s2.42-.42,3.63-.65c-.16-1.81-.38-3.64-.6-5.42-.17-1.4-.35-2.84-.49-4.27l-1.87.16A40.29,40.29,0,0,0,115.52,101.41Z"/><path class="cls-2" d="M118.18,103.68a.55.55,0,0,1-.37-.15.71.71,0,0,1-.1-.14.52.52,0,0,1-.19-.41c0-.74,1-.92,3.61-1l.31,0a.53.53,0,1,1,.1,1l-.35,0a16.87,16.87,0,0,0-2.47.23.66.66,0,0,1-.16.31A.52.52,0,0,1,118.18,103.68Z"/><path class="cls-2" d="M118.83,105.57a5.74,5.74,0,0,1-.6,0,.53.53,0,0,1-.47-.58.52.52,0,0,1,.58-.46,7.66,7.66,0,0,0,1.5,0c.36,0,.73-.07,1.13-.07a.53.53,0,0,1,.53.53.52.52,0,0,1-.53.52,9.24,9.24,0,0,0-1,.07C119.58,105.54,119.21,105.57,118.83,105.57Z"/><path class="cls-2" d="M118.8,108.65a.53.53,0,0,1-.52-.45.54.54,0,0,1,.45-.6c.64-.09,1.26-.12,1.86-.15a14.07,14.07,0,0,0,2.34-.25.53.53,0,0,1,.63.4.52.52,0,0,1-.41.62,16.08,16.08,0,0,1-2.5.28c-.58,0-1.18.06-1.77.14Z"/><path class="cls-2" d="M129.15,104.86a.9.9,0,0,1-.94-.91,2.09,2.09,0,0,1,.4-1.08.56.56,0,0,1,.38-.24.51.51,0,0,1,.38.12h0a1,1,0,0,1,.41.23,1.34,1.34,0,0,1,.4,1C130.23,104.29,130.09,104.86,129.15,104.86Z"/><path class="cls-2" d="M133,100.11a.54.54,0,0,1-.36-.14c-.71-.67-1.38-1.4-2-2.1l-.75-.81a.53.53,0,0,1-.06-.64c.25-.39.51-.77.77-1.16.37-.55.75-1.11,1.08-1.68a.52.52,0,0,1,.35-.24.51.51,0,0,1,.41.09l0,0a35.07,35.07,0,0,0,3.48,2.32.46.46,0,0,1,.26.33.53.53,0,0,1-.06.41,23.44,23.44,0,0,1-2.19,2.79l-.54.63a.53.53,0,0,1-.37.18Zm-2.08-3.47.47.52c.51.56,1,1.13,1.57,1.66l.19-.21a25.66,25.66,0,0,0,1.78-2.21c-.93-.54-1.81-1.17-2.67-1.79-.26.42-.54.84-.81,1.24Z"/><path class="cls-2" d="M135.57,91.89a.52.52,0,0,1-.29-.09.53.53,0,0,1-.16-.72c1.76-2.73,2.39-6.06,2.93-9.53a.53.53,0,0,1,.6-.44.54.54,0,0,1,.44.6c-.56,3.58-1.22,7-3.08,9.93A.52.52,0,0,1,135.57,91.89Z"/><path class="cls-2" d="M132.61,86.34a1.31,1.31,0,0,1-1.22-1.28.93.93,0,0,1,.29-.69,1.46,1.46,0,0,0,1-.55A1.12,1.12,0,0,1,133.92,85,1.39,1.39,0,0,1,132.61,86.34Zm-.16-1.26a.32.32,0,0,0,.18.21.4.4,0,0,0,.24-.31c0-.06,0-.08,0-.09a.44.44,0,0,0-.15,0l-.14,0A.54.54,0,0,1,132.45,85.08Z"/><path class="cls-2" d="M110.09,99.78a.53.53,0,0,1-.52-.45c-.17-1.23-.39-2.83-.5-4.41a.53.53,0,1,1,1.05-.08c.11,1.55.32,3.13.49,4.34a.53.53,0,0,1-.45.59Z"/><path class="cls-2" d="M108,97.68a.52.52,0,0,1-.09-1l1-.16a15.43,15.43,0,0,0,2.72-.55.54.54,0,0,1,.67.33.53.53,0,0,1-.34.67,15.65,15.65,0,0,1-2.91.59l-1,.15Z"/><path class="cls-2" d="M106.31,77.44a1,1,0,0,1-.9-1,1.47,1.47,0,0,1,.5-1,.52.52,0,0,1,.5-.14,1.14,1.14,0,0,1,.87,1.09A1,1,0,0,1,106.31,77.44Z"/><path class="cls-2" d="M120,77.45a2.13,2.13,0,0,1-1.41-.53,1.94,1.94,0,0,1-.63-1.35,2.28,2.28,0,0,1,.58-1.62,1.88,1.88,0,0,1,1-.54,1.57,1.57,0,0,1,.37,0,2,2,0,0,1,1.4.62,2.1,2.1,0,0,1,.6,1.54,2,2,0,0,1-1.79,1.92Zm-.68-2.79a1.23,1.23,0,0,0-.31.86.85.85,0,0,0,.29.62,1.06,1.06,0,0,0,.76.25.9.9,0,0,0,.8-.91,1,1,0,0,0-.3-.76,1,1,0,0,0-.64-.31l-.13,0A.81.81,0,0,0,119.32,74.66Z"/><path class="cls-2" d="M135.08,79a6.19,6.19,0,0,1-4.32-1.77,6.34,6.34,0,0,1,2.9-10.71,5.05,5.05,0,0,1,1.23-.15h.05a6.11,6.11,0,0,1,4.33,1.86,6.39,6.39,0,0,1,1.87,4.68A6.06,6.06,0,0,1,135.23,79Zm-.14-11.58h0a4.13,4.13,0,0,0-1,.12,5.28,5.28,0,0,0-2.42,8.93A5.11,5.11,0,0,0,135.2,78a5,5,0,0,0,4.89-5.06A5.41,5.41,0,0,0,138.53,69,5.1,5.1,0,0,0,134.94,67.44Z"/><path class="cls-2" d="M135.16,76.35a3.25,3.25,0,0,1-2.29-.93,3.38,3.38,0,0,1-1-2.62,3.07,3.07,0,0,1,1.81-2.74,2.42,2.42,0,0,1,.94-.24,3.23,3.23,0,0,1,2.6.91,3.44,3.44,0,0,1,1,2.61,3.26,3.26,0,0,1-2.9,3Zm-1-5.34a2,2,0,0,0-1.21,1.84,2.37,2.37,0,0,0,.67,1.83,2.21,2.21,0,0,0,1.69.62,2.25,2.25,0,0,0,1.92-2,2.43,2.43,0,0,0-.71-1.8,2.28,2.28,0,0,0-1.8-.61A1.44,1.44,0,0,0,134.15,71Z"/><path class="cls-2" d="M131.84,73.57a8.75,8.75,0,0,1-2.42-.23.53.53,0,1,1,.29-1,7.94,7.94,0,0,0,2.13.19.52.52,0,0,1,.53.52A.53.53,0,0,1,131.84,73.57Z"/><path class="cls-2" d="M136,71.5h-.1a.53.53,0,0,1-.42-.62,7.54,7.54,0,0,0,.14-1.09,6.08,6.08,0,0,1,.42-2,.52.52,0,0,1,.69-.27.54.54,0,0,1,.27.7,5,5,0,0,0-.33,1.68,10.58,10.58,0,0,1-.16,1.21A.51.51,0,0,1,136,71.5Z"/><path class="cls-2" d="M113.2,93.63a.53.53,0,0,1-.52-.41c-.7-3.15-1.11-6.36-1.52-9.47-.13-1-.26-2.07-.41-3.09a.53.53,0,0,1,.42-.59,35.39,35.39,0,0,1,5.85-.82.51.51,0,0,1,.52.35,2.56,2.56,0,0,0,2.64,1.81c.27,0,3.47-.39,5.6-.74a.52.52,0,0,1,.4.1.54.54,0,0,1,.21.36c.14,1.29.25,2.6.36,3.87.16,1.91.33,3.88.6,5.81a.53.53,0,0,1-.45.59c-2.42.36-4.82.76-7.14,1.16-2.12.36-4.31.74-6.48,1.06ZM111.86,81c.12.87.23,1.74.35,2.61.38,2.93.77,6,1.4,8.9,2-.31,4-.65,6-1,2.16-.36,4.39-.74,6.65-1.08-.24-1.79-.39-3.6-.54-5.35-.09-1.08-.19-2.2-.3-3.3-2.07.33-4.91.67-5.22.67a3.55,3.55,0,0,1-3.49-2.15A35.1,35.1,0,0,0,111.86,81Z"/><path class="cls-2" d="M114,82.85a4,4,0,0,1-.79-.08.53.53,0,1,1,.23-1,4.83,4.83,0,0,0,1.79-.09l.83-.13a.53.53,0,0,1,.58.47.51.51,0,0,1-.46.58l-.77.12A8,8,0,0,1,114,82.85Z"/><path class="cls-2" d="M113,70.85a.52.52,0,0,1-.33-.12,24,24,0,0,1-2.13-1.91l0,0a10.39,10.39,0,0,1-2.7,1.68.52.52,0,0,1-.68-.3.53.53,0,0,1,.31-.68A9.77,9.77,0,0,0,109.87,68c.14-.11.28-.22.43-.32a.52.52,0,0,1,.7.06,21.88,21.88,0,0,0,2,1.86c.83-.79,1.67-1.54,2.48-2.24a.51.51,0,0,1,.71,0,17.41,17.41,0,0,0,2,1.73c.79-.71,1.6-1.41,2.39-2.09a.53.53,0,0,1,.66,0l.31.24c.63.49,1.23,1,1.88,1.37a20,20,0,0,0,2.77-2.56.52.52,0,1,1,.8.68,21.45,21.45,0,0,1-3,2.75l-.22.18a.51.51,0,0,1-.6,0,22.26,22.26,0,0,1-2.26-1.6c-.79.67-1.58,1.37-2.35,2.07a.51.51,0,0,1-.65,0,15.82,15.82,0,0,1-2.11-1.75c-.79.69-1.61,1.42-2.4,2.2A.53.53,0,0,1,113,70.85Z"/><path class="cls-2" d="M108.16,65.19a2,2,0,0,1-2-1.93,2,2,0,0,1,1.34-1.95,1.61,1.61,0,0,1,.38-.08,2,2,0,0,1,1.61.61,2.06,2.06,0,0,1,.61,1.63A2,2,0,0,1,108.16,65.19Zm-.32-2.89a1,1,0,0,0-.62.94.92.92,0,0,0,.94.9.91.91,0,0,0,.91-.78,1.07,1.07,0,0,0-.32-.79.94.94,0,0,0-.78-.29Z"/><path class="cls-2" d="M114,63.43a.53.53,0,0,1-.05-1,36.47,36.47,0,0,1,3.75-.14,24.33,24.33,0,0,0,5.09-.37.52.52,0,0,1,.62.41.52.52,0,0,1-.4.62,25.73,25.73,0,0,1-5.31.39c-1.2,0-2.43,0-3.64.14Z"/><path class="cls-2" d="M132.45,64.8a2.67,2.67,0,0,1-2-.62c-.93-.9-1.26-2.94-1.26-7.77,0-3.2.45-4.07,2.07-4.07.28,0,.58,0,.87,0a8.27,8.27,0,0,0,.86,0,2.35,2.35,0,0,0,.83-.12.52.52,0,0,1,.68.29.53.53,0,0,1-.29.69,3.36,3.36,0,0,1-1.22.19c-.32,0-.64,0-.95,0s-.54,0-.78,0c-.65,0-1,0-1,3,0,4.33.27,6.37.94,7,.35.35.88.35,1.88.32l.79,0c3.95,0,5.6-.24,6.28-.92s.56-1.63.56-3.38V59c0-2.87-.69-6.07-1.62-6.07a8,8,0,0,0-.91.07,9.1,9.1,0,0,1-1.18.09,3.41,3.41,0,0,1-.89-.1.52.52,0,0,1-.37-.64.52.52,0,0,1,.64-.37A5.6,5.6,0,0,0,138,52a9.47,9.47,0,0,1,1-.08c1.05,0,1.81,1,2.25,3.07a20.76,20.76,0,0,1,.42,4.05v.39c0,1.95,0,3.24-.87,4.12s-2.64,1.23-7,1.23l-.76,0Z"/><path class="cls-2" d="M132.36,54.46a.52.52,0,0,1-.52-.41,4.62,4.62,0,0,1-.1-1c0-.16,0-.33,0-.49s0-.31,0-.47a3.86,3.86,0,0,0,0-.5.53.53,0,0,1,.46-.58.52.52,0,0,1,.58.46,5.7,5.7,0,0,1,0,.62c0,.17,0,.34,0,.5s0,.31,0,.46a3.56,3.56,0,0,0,.08.79.53.53,0,0,1-.4.63Z"/><path class="cls-2" d="M137.81,53.71a.52.52,0,0,1-.51-.41,11.34,11.34,0,0,1-.24-2.54.52.52,0,0,1,.52-.52.52.52,0,0,1,.53.52,10,10,0,0,0,.21,2.31.54.54,0,0,1-.4.63Z"/><path class="cls-2" d="M133.39,56.16h-3.18a.52.52,0,0,1-.53-.52.53.53,0,0,1,.53-.53h3.18a28.6,28.6,0,0,0,7-.66.53.53,0,0,1,.25,1A29.32,29.32,0,0,1,133.39,56.16Z"/><path class="cls-2" d="M136.32,62.52a.52.52,0,0,1-.51-.42,4.21,4.21,0,0,1-.07-.73,8.7,8.7,0,0,1,.16-1.46,8.2,8.2,0,0,0,.12-1.14c0-.9-.27-.9-.69-.9a6.93,6.93,0,0,0-.84.07,7.58,7.58,0,0,1-1.34.07.53.53,0,0,1,.09-1,6.51,6.51,0,0,0,1.14-.06,7.94,7.94,0,0,1,1-.08c1.17,0,1.74.64,1.74,2a8.33,8.33,0,0,1-.14,1.31,9.56,9.56,0,0,0-.13,1.29,2.93,2.93,0,0,0,0,.53.53.53,0,0,1-.42.62Z"/><path class="cls-2" d="M134.5,60.62a.52.52,0,0,1-.52-.52.52.52,0,0,1,.52-.53,14.19,14.19,0,0,0,2.79-.27.53.53,0,1,1,.21,1A15.57,15.57,0,0,1,134.5,60.62Z"/><path class="cls-2" d="M133.24,48.32a.42.42,0,0,1-.22,0,25.19,25.19,0,0,1-3.31-1.88.54.54,0,0,1-.19-.65c.35-.8.76-1.57,1.15-2.32.18-.33.35-.65.52-1a.52.52,0,0,1,.75-.2c.49.33,1,.68,1.43,1a20.41,20.41,0,0,0,1.88,1.3.51.51,0,0,1,.24.32.58.58,0,0,1-.06.41c-.2.32-.42.64-.63.95a12.8,12.8,0,0,0-1.08,1.8.53.53,0,0,1-.48.3Zm-2.57-2.56A23.53,23.53,0,0,0,133,47.1a15.77,15.77,0,0,1,.92-1.47l.32-.47c-.52-.34-1-.71-1.5-1.07l-.9-.65-.25.47C131.27,44.54,131,45.14,130.67,45.76Z"/><path class="cls-2" d="M132.82,39.34a.54.54,0,0,1-.43-.22c-.68-1-1.29-2-1.88-3a22,22,0,0,0-4.29-5.81.54.54,0,0,1,0-.75.53.53,0,0,1,.74-.05,22.94,22.94,0,0,1,4.51,6.08c.58,1,1.18,2,1.83,3a.52.52,0,0,1-.13.73A.55.55,0,0,1,132.82,39.34Z"/><path class="cls-2" d="M127,41.16a.89.89,0,0,1-.9-.94.53.53,0,0,1,.44-.52.53.53,0,0,1,.16-.39.52.52,0,0,1,.64-.08.63.63,0,0,1,.41.15.86.86,0,0,1,.22.67A1,1,0,0,1,127,41.16Zm.15-.94Z"/><path class="cls-2" d="M102,58.15a.52.52,0,0,1-.52-.46,63.76,63.76,0,0,1-.58-6.73.52.52,0,0,1,.48-.54h.08c.9-.07,1.75-.14,2.6-.29a.53.53,0,0,1,.42.1.55.55,0,0,1,.2.39v.08a64.6,64.6,0,0,0,.49,6.5.54.54,0,0,1-.1.39.56.56,0,0,1-.35.21l-.59.08c-.68.09-1.38.19-2.07.27Zm0-6.72c.07,2,.28,3.89.49,5.61l1.54-.2h.07c-.24-1.86-.33-3.74-.41-5.57C103.13,51.34,102.56,51.39,102,51.43Z"/><path class="cls-2" d="M108.06,57.34a.51.51,0,0,1-.52-.46c-.2-1.61-.36-3.24-.5-4.81-.12-1.29-.24-2.62-.39-3.92a.51.51,0,0,1,.41-.57,9.46,9.46,0,0,1,2.07-.18h1.05a.51.51,0,0,1,.51.48c.13,1.36.2,2.75.27,4.09.08,1.53.16,3.12.33,4.66a.55.55,0,0,1-.12.39.56.56,0,0,1-.37.19C109.89,57.28,109,57.32,108.06,57.34Zm-.31-8.82c.12,1.16.23,2.32.33,3.45.14,1.41.27,2.87.44,4.31l1.67-.07c-.14-1.4-.21-2.81-.28-4.17-.06-1.18-.12-2.39-.22-3.58h-.56A11,11,0,0,0,107.75,48.52Z"/><path class="cls-2" d="M114.16,57.06a.53.53,0,0,1-.53-.49c-.07-1-.17-2.09-.27-3.12s-.19-2-.26-3a.52.52,0,0,1,.13-.39.49.49,0,0,1,.36-.17c.63,0,1.26,0,1.89,0h.9a.53.53,0,0,1,.52.51c0,1.47.14,3,.23,4.43,0,.53.07,1.07.1,1.61a.52.52,0,0,1-.14.39.5.5,0,0,1-.38.17c-1,0-1.79,0-2.52.07Zm0-6.16c.06.82.14,1.65.22,2.45s.17,1.75.23,2.64l1.51-.05c0-.35,0-.7-.07-1.06-.08-1.29-.17-2.63-.22-4h-.41C115,50.9,114.61,50.89,114.19,50.9Z"/><path class="cls-2" d="M119.89,56.69a.54.54,0,0,1-.53-.47,57.7,57.7,0,0,1-.28-6.28c0-1.51,0-3.07-.12-4.6a.53.53,0,0,1,.14-.4.49.49,0,0,1,.39-.16c.65,0,1.3,0,1.93.07l1.16.06a.52.52,0,0,1,.5.52v.75c0,3.12,0,6.44.17,9.76a.52.52,0,0,1-.48.54C122,56.56,121,56.65,119.89,56.69ZM120,45.84c.07,1.38.08,2.75.09,4.09,0,1.87,0,3.81.22,5.69.65,0,1.28-.08,1.82-.14-.13-3.17-.14-6.32-.14-9.3v-.25l-.66,0Z"/><path class="cls-2" d="M101,46.63A2,2,0,0,1,99.53,46,2.12,2.12,0,0,1,99,44.44a2.06,2.06,0,0,1,.41-1.16,1.81,1.81,0,0,1,1-.67l.21,0a2.19,2.19,0,0,1,1.72.55,2,2,0,0,1,.7,1.46A2,2,0,0,1,101,46.63Zm-.15-3h-.12l-.11,0a.78.78,0,0,0-.41.27,1.07,1.07,0,0,0-.2.58,1,1,0,0,0,.29.79.94.94,0,0,0,.7.3,1,1,0,0,0,1-1,.93.93,0,0,0-.35-.67A1.19,1.19,0,0,0,100.84,43.61Z"/><path class="cls-2" d="M108,41a1.9,1.9,0,0,1-1.89-1.82,1.85,1.85,0,0,1,1.25-1.88,2.07,2.07,0,0,1,2.25.92,1.77,1.77,0,0,1,.26,1A1.88,1.88,0,0,1,108,41Zm-.16-2.7-.26,0c-.21.05-.43.48-.42.83a.86.86,0,0,0,.84.8.84.84,0,0,0,.82-.79.8.8,0,0,0-.11-.4A1,1,0,0,0,107.84,38.31Z"/><path class="cls-2" d="M114,45.27h0a2,2,0,0,1-1.89-2,2,2,0,0,1,.84-1.59,1.7,1.7,0,0,1,.61-.25,2.23,2.23,0,0,1,1.77.49,1.79,1.79,0,0,1,.7,1.41,1.92,1.92,0,0,1-.59,1.35A2,2,0,0,1,114,45.27Zm-.49-2.72a.93.93,0,0,0-.39.76.88.88,0,0,0,.86.91.93.93,0,0,0,.68-.27.88.88,0,0,0,.27-.61.74.74,0,0,0-.31-.59,1.18,1.18,0,0,0-.89-.27A.87.87,0,0,0,113.49,42.55Z"/><path class="cls-2" d="M121.3,39.08h0a1.82,1.82,0,0,1-1.33-.58,1.9,1.9,0,0,1-.51-1.41,1.72,1.72,0,0,1,.73-1.37,2,2,0,0,1,1-.34,2,2,0,0,1,1.48.51,1.73,1.73,0,0,1,.57,1.21,2,2,0,0,1-.56,1.41A1.87,1.87,0,0,1,121.3,39.08Zm0-2.65h-.06a1,1,0,0,0-.48.16.69.69,0,0,0-.27.55.84.84,0,0,0,.22.64.78.78,0,0,0,.59.25.77.77,0,0,0,.62-.25.89.89,0,0,0,.27-.63.71.71,0,0,0-.23-.49A1,1,0,0,0,121.28,36.43Z"/><path class="cls-2" d="M102.21,44.38a.51.51,0,0,1-.38-.16.53.53,0,0,1,0-.75c.53-.49,1.08-.95,1.6-1.39a20.81,20.81,0,0,0,2.47-2.3.52.52,0,1,1,.79.69,21.79,21.79,0,0,1-2.59,2.42c-.51.43-1,.88-1.55,1.35A.5.5,0,0,1,102.21,44.38Z"/><path class="cls-2" d="M112.57,42.8l-.14,0a8.38,8.38,0,0,1-3.68-2.38.52.52,0,0,1,.74-.74,7.51,7.51,0,0,0,3.22,2.1.53.53,0,0,1-.14,1Z"/><path class="cls-2" d="M115.09,43.17a.52.52,0,0,1-.35-.92c.74-.65,1.47-1.33,2.18-2s1.46-1.36,2.21-2a.52.52,0,0,1,.69.79c-.74.64-1.47,1.33-2.18,2s-1.45,1.36-2.2,2A.53.53,0,0,1,115.09,43.17Z"/><path class="cls-2" d="M113.48,36.17a.55.55,0,0,1-.32-.1,21.06,21.06,0,0,1-1.79-1.53.52.52,0,0,1-.06-.67c.39-.59.83-1.17,1.24-1.7a.57.57,0,0,1,.36-.2.51.51,0,0,1,.39.12,19.46,19.46,0,0,0,1.86,1.39.61.61,0,0,1,.23.36.54.54,0,0,1-.12.42c-.46.56-.93,1.14-1.37,1.71A.55.55,0,0,1,113.48,36.17Zm-1-2.08c.29.27.61.54,1,.82l.71-.88c-.36-.25-.71-.52-1-.79C112.85,33.52,112.63,33.8,112.43,34.09Z"/><path class="cls-2" d="M115.16,28.76c-2.8,0-4.76-1.43-4.76-3.49a4.42,4.42,0,0,1,4.15-4.75,2.86,2.86,0,0,1,.73.09,3.31,3.31,0,0,1,2.53-1.26,2.85,2.85,0,0,1,2.08,2,3.24,3.24,0,0,1,3.35,3.26,3,3,0,0,1-1.52,2.92,21.19,21.19,0,0,1-5.26,1.12l-.28,0A8.72,8.72,0,0,1,115.16,28.76Zm-.61-7.19a3.39,3.39,0,0,0-3.1,3.7c0,1.68,1.92,2.44,3.71,2.44a8.69,8.69,0,0,0,.89-.05l.28,0a20,20,0,0,0,5-1.05c.22-.09.85-.63.85-1.94a2.17,2.17,0,0,0-2.14-2.2c0,1.55-.91,2.35-1.79,2.35-.69,0-1.11-.91-1.11-1.4a2.22,2.22,0,0,1,1.68-1.86,2,2,0,0,0-1-1.12,2.21,2.21,0,0,0-1.57.76,3,3,0,0,1,.76,2.12c0,1.15-.51,2.31-1.64,2.31-.85,0-1.15-1.06-1.15-2a4.77,4.77,0,0,1,.48-2Zm1,.5a3.56,3.56,0,0,0-.37,1.54,2.18,2.18,0,0,0,.17.92c.42-.08.52-.92.52-1.25A2.22,2.22,0,0,0,115.6,22.07Zm3.39.52c-.45.2-.79.53-.79.79a.73.73,0,0,0,.15.34C118.61,23.66,118.94,23.3,119,22.59Z"/><path class="cls-2" d="M111.57,17.43a.51.51,0,0,1-.51-.43,16.06,16.06,0,0,1-.32-3.1.52.52,0,0,1,.52-.53.53.53,0,0,1,.53.53,15.77,15.77,0,0,0,.3,2.91.52.52,0,0,1-.42.61Z"/><path class="cls-2" d="M109.58,15.92a.53.53,0,0,1,0-1.05l1.08-.07a18.8,18.8,0,0,0,2-.2.52.52,0,0,1,.19,1,17.54,17.54,0,0,1-2.16.21l-1.06.08Z"/><path class="cls-2" d="M95.92,38.31h-.07A2.08,2.08,0,0,1,94,36.17a1.94,1.94,0,0,1,1.86-1.88H96a2,2,0,0,1,1.36.59A2.12,2.12,0,0,1,98,36.32a2.12,2.12,0,0,1-2,2Zm0-3h-.06a.86.86,0,0,0-.66.3.91.91,0,0,0-.23.57,1,1,0,0,0,.87,1,1,1,0,0,0,.69-.29,1,1,0,0,0,.33-.66,1.08,1.08,0,0,0-.33-.7A.87.87,0,0,0,96,35.34Z"/><path class="cls-2" d="M103.73,25h-.22a.5.5,0,0,1-.43-.25.5.5,0,0,1,0-.5l.38-.8a20.51,20.51,0,0,0,.95-2.11.53.53,0,0,1,.45-.35.56.56,0,0,1,.51.27A22.54,22.54,0,0,0,107,23.83a.55.55,0,0,1,.08.51.56.56,0,0,1-.39.33A15.13,15.13,0,0,1,103.73,25ZM105,22.7c-.18.41-.38.81-.57,1.21a10,10,0,0,0,1.25-.13C105.39,23.42,105.16,23.05,105,22.7Z"/><path class="cls-2" d="M97,35.61a.52.52,0,0,1-.49-.35.53.53,0,0,1,.32-.67c4-1.42,7.2-5.69,7.77-10.39a.53.53,0,0,1,.59-.46.52.52,0,0,1,.46.58c-.63,5.09-4.11,9.72-8.47,11.26A.57.57,0,0,1,97,35.61Z"/><path class="cls-2" d="M102.64,15.26a1.7,1.7,0,0,1-1.68-1.5,1.88,1.88,0,0,1,1.17-1.85,1.44,1.44,0,0,1,.46-.08h0a1.75,1.75,0,0,1,1.68,1.42,2,2,0,0,1-.47,1.44A1.61,1.61,0,0,1,102.64,15.26Zm0-2.38a.33.33,0,0,0-.15,0,.8.8,0,0,0-.46.76.62.62,0,0,0,.64.54A.55.55,0,0,0,103,14a.89.89,0,0,0,.22-.62A.71.71,0,0,0,102.62,12.88Z"/><path class="cls-2" d="M89.2,6.44A1.28,1.28,0,0,1,88,5.23a1.22,1.22,0,0,1,1-1.18A1.17,1.17,0,0,1,90.3,5.24,1.19,1.19,0,0,1,89.2,6.44Zm0-1.36a.16.16,0,0,0-.13.15s.08.13.14.16a.33.33,0,0,0,.07-.16A.21.21,0,0,0,89.17,5.08Z"/><path class="cls-2" d="M105.1,10.41a.58.58,0,0,1-.36-.14c-3.26-3.08-7.88-3.83-11.53-4.15a.53.53,0,0,1-.48-.57.52.52,0,0,1,.57-.48c3.82.33,8.66,1.14,12.16,4.43a.53.53,0,0,1,0,.75A.54.54,0,0,1,105.1,10.41Z"/><path class="cls-2" d="M81,9.2h-.2A2.22,2.22,0,0,1,78.9,6.94a2.16,2.16,0,0,1,.95-1.73,2.12,2.12,0,0,1,.68-.3,2.55,2.55,0,0,1,2.08.6,2.09,2.09,0,0,1,.74,1.76,2,2,0,0,1-.72,1.35A2.49,2.49,0,0,1,81,9.2ZM81,5.93a.68.68,0,0,0-.21,0,.76.76,0,0,0-.3.13A1.12,1.12,0,0,0,80,7a1.15,1.15,0,0,0,1,1.17,1.4,1.4,0,0,0,1-.32.92.92,0,0,0,.35-.63,1.07,1.07,0,0,0-.38-.89A1.51,1.51,0,0,0,81,5.93Z"/><path class="cls-2" d="M72.07,25.31a.55.55,0,0,1-.41-.19l-.22-.27a8.67,8.67,0,0,0-3.55-3,.52.52,0,0,1-.36-.52.52.52,0,0,1,.41-.49c1.1-.24,2.22-.38,3.31-.52.71-.09,1.44-.18,2.15-.3a.52.52,0,0,1,.5.2.51.51,0,0,1,.07.53,29,29,0,0,0-1.4,4.15.52.52,0,0,1-.39.38Zm-2.39-3.7a11.69,11.69,0,0,1,2.15,2.07c.26-.91.53-1.72.82-2.47l-1.26.16C70.82,21.45,70.25,21.52,69.68,21.61Z"/><path class="cls-2" d="M71,21.24a.54.54,0,0,1-.53-.48c0-.35,0-.71,0-1.07,0-4.86,3.29-9.64,8.81-12.78a.53.53,0,0,1,.72.2.52.52,0,0,1-.2.71c-5.18,2.95-8.28,7.39-8.28,11.87,0,.32,0,.65,0,1a.53.53,0,0,1-.47.58Z"/><path class="cls-2" d="M88.79,25.33h-.11A3.3,3.3,0,0,1,85.56,22a3.37,3.37,0,0,1,2.77-3.33,3.91,3.91,0,0,1,.83-.06,3.19,3.19,0,0,1,3,3.19,3.48,3.48,0,0,1-1,2.57A3.37,3.37,0,0,1,88.79,25.33Zm.2-5.72a2.56,2.56,0,0,0-.47,0A2.36,2.36,0,0,0,86.61,22a2.26,2.26,0,0,0,2.11,2.33,2.33,2.33,0,0,0,1.71-.7,2.45,2.45,0,0,0,.73-1.79,2.16,2.16,0,0,0-2-2.18Z"/><path class="cls-2" d="M88.7,22.72l-.13,0a1.17,1.17,0,0,1-1-.93s0-.06,0-.09a.6.6,0,0,1,.21-.45.54.54,0,0,1,.63-.23.51.51,0,0,1,.6-.1,1,1,0,0,1,.64.89A1,1,0,0,1,88.7,22.72Z"/><path class="cls-2" d="M85.53,19.86a.55.55,0,0,1-.41-.18.53.53,0,0,1,.07-.74c.22-.19.43-.4.65-.63a4.87,4.87,0,0,1,2.08-1.44.51.51,0,0,1,.65.35.52.52,0,0,1-.36.65,4.12,4.12,0,0,0-1.62,1.18c-.23.23-.47.47-.72.69A.54.54,0,0,1,85.53,19.86Z"/><path class="cls-2" d="M82.84,23a.53.53,0,0,1-.48-.31,5.68,5.68,0,0,1-.49-2.37,7.27,7.27,0,0,1,.32-2.09l-1-.88-.3-.27a.53.53,0,0,1-.1-.65,9,9,0,0,1,5-3.92.52.52,0,0,1,.32,1A7.93,7.93,0,0,0,82,16.58c.39.36.78.72,1.18,1.07a.53.53,0,0,1,.15.57,6.17,6.17,0,0,0-.37,2.08,4.61,4.61,0,0,0,.4,1.94.53.53,0,0,1-.27.69A.54.54,0,0,1,82.84,23Z"/><path class="cls-2" d="M87.68,15.87a.57.57,0,0,1-.3-.1,3,3,0,0,1-.89-1.16l-.15-.28a.51.51,0,0,1,.19-.71.52.52,0,0,1,.72.19l.17.31a2,2,0,0,0,.57.79.54.54,0,0,1,.12.74A.53.53,0,0,1,87.68,15.87Z"/><path class="cls-2" d="M93.19,16.82a.59.59,0,0,1-.22-.05A9.71,9.71,0,0,0,89.19,16a.53.53,0,0,1-.51-.54.54.54,0,0,1,.55-.51,11.46,11.46,0,0,1,3.82.71,7.58,7.58,0,0,1,2-1.54.54.54,0,0,1,.71.22.53.53,0,0,1-.22.71,6.25,6.25,0,0,0-1.94,1.59A.53.53,0,0,1,93.19,16.82Z"/><path class="cls-2" d="M93.58,14.47a.53.53,0,0,1-.24-.06,6.88,6.88,0,0,0-3.24-.72,10.1,10.1,0,0,0-1.21.08.54.54,0,0,1-.59-.46.52.52,0,0,1,.46-.58,10.4,10.4,0,0,1,1.34-.09,7.88,7.88,0,0,1,3.72.84.53.53,0,0,1,.23.71A.53.53,0,0,1,93.58,14.47Z"/><path class="cls-2" d="M97.51,18.09a.53.53,0,0,1-.51-.42,4.56,4.56,0,0,0-.47-1.11l-.18-.35a.53.53,0,0,1,.23-.71.54.54,0,0,1,.71.24c0,.11.11.22.17.33A5.71,5.71,0,0,1,98,17.45a.52.52,0,0,1-.4.62Z"/><path class="cls-2" d="M93.71,24.24a.45.45,0,0,1-.16,0,.52.52,0,0,1-.34-.66,12.26,12.26,0,0,0,.62-3.7c0-.14,0-.29,0-.43a.53.53,0,1,1,1.05,0c0,.15,0,.31,0,.47a13.43,13.43,0,0,1-.67,4A.52.52,0,0,1,93.71,24.24Z"/><path class="cls-2" d="M97.54,25.75a8.36,8.36,0,0,1-2.75-.59.53.53,0,0,1,.37-1,7.07,7.07,0,0,0,2.33.53,8.73,8.73,0,0,0,.58-3.56c0-.52,0-1,0-1.55l-.75,0a7.9,7.9,0,0,1-1.53-.14.53.53,0,1,1,.21-1,6.53,6.53,0,0,0,1.32.12c.42,0,.83,0,1.22,0a.56.56,0,0,1,.39.13.53.53,0,0,1,.17.37l0,.51c0,.53,0,1.08,0,1.62a9.35,9.35,0,0,1-.83,4.32.53.53,0,0,1-.43.28Z"/><path class="cls-2" d="M96.37,23.35h-.06a.54.54,0,0,1-.46-.59c0-.18.05-.35.08-.53A5.12,5.12,0,0,0,96,21.3a.52.52,0,0,1,.52-.52.52.52,0,0,1,.53.52A6.73,6.73,0,0,1,97,22.41c0,.16-.06.32-.08.48A.52.52,0,0,1,96.37,23.35Z"/><path class="cls-2" d="M93.77,29.44a.53.53,0,0,1-.37-.15.54.54,0,0,1,0-.75c.27-.27.56-.51.83-.75a7.88,7.88,0,0,0,1.1-1.05.53.53,0,0,1,.82.67,10.47,10.47,0,0,1-1.23,1.18c-.28.24-.54.46-.78.7A.51.51,0,0,1,93.77,29.44Z"/><path class="cls-2" d="M92.57,30.84a.52.52,0,0,1-.51-.4,13.92,13.92,0,0,0-.8-2.09c-.2-.46-.4-.93-.58-1.41a.52.52,0,0,1,.31-.67.51.51,0,0,1,.67.31c.17.45.37.91.57,1.35a15.52,15.52,0,0,1,.84,2.25.52.52,0,0,1-.37.64Z"/><path class="cls-2" d="M87.94,31a10.22,10.22,0,0,1-2.87-.44.54.54,0,0,1-.36-.66A14.6,14.6,0,0,0,85.26,27a.52.52,0,1,1,1,.09,15.63,15.63,0,0,1-.44,2.55,8.61,8.61,0,0,0,2.08.27,5.53,5.53,0,0,0,3.42-1.07.54.54,0,0,1,.74.11.53.53,0,0,1-.11.74A6.63,6.63,0,0,1,87.94,31Z"/><path class="cls-2" d="M84.64,27.47a.53.53,0,0,1-.3-.09,4.24,4.24,0,0,1-1.75-2.84.53.53,0,0,1,1-.14,3.13,3.13,0,0,0,1.3,2.12.53.53,0,0,1,.13.73A.54.54,0,0,1,84.64,27.47Z"/><path class="cls-2" d="M83.56,29.5a.54.54,0,0,1-.25-.06,8.63,8.63,0,0,1-3.65-4.26.51.51,0,0,1,.13-.59A12.64,12.64,0,0,1,82.09,23l.88-.51a.51.51,0,0,1,.72.17.52.52,0,0,1-.17.72l-.91.54a13.32,13.32,0,0,0-1.83,1.17,7.45,7.45,0,0,0,3,3.41.52.52,0,0,1-.25,1Z"/><path class="cls-2" d="M80.45,23a.53.53,0,0,1-.51-.39l-.06-.25a8.85,8.85,0,0,1-.4-2.29,3.39,3.39,0,0,1,.38-1.64.52.52,0,0,1,.71-.22.53.53,0,0,1,.22.71,2.35,2.35,0,0,0-.26,1.15,8,8,0,0,0,.36,2l.07.25a.54.54,0,0,1-.37.65Z"/><path class="cls-2" d="M88,28.62a.53.53,0,0,1-.07-1.05,11.87,11.87,0,0,0,2.48-.6.52.52,0,0,1,.68.3.53.53,0,0,1-.3.68,12.76,12.76,0,0,1-2.72.66Z"/><path class="cls-2" d="M71.17,36.4a.54.54,0,0,1-.34-.12A20.29,20.29,0,0,1,68.64,34l-.29-.33c-.92.69-1.75,1.35-2.52,2a.52.52,0,0,1-.74,0,.51.51,0,0,1,0-.74c.9-.79,1.87-1.57,3-2.37a.52.52,0,0,1,.7.07l.62.7a21.87,21.87,0,0,0,1.74,1.86c.92-.75,1.88-1.46,2.82-2.15l.06,0a.53.53,0,0,1,.66,0l.81.71c.44.4.9.8,1.38,1.19.94-.76,1.87-1.49,2.68-2.11a.52.52,0,0,1,.69,0A22.52,22.52,0,0,0,82.67,35a.53.53,0,0,1,.1.74.51.51,0,0,1-.73.1,21,21,0,0,1-2.17-1.89c-.81.63-1.73,1.34-2.63,2.08a.53.53,0,0,1-.65,0c-.62-.48-1.2-1-1.76-1.5l-.48-.42c-.95.71-1.93,1.44-2.85,2.2A.5.5,0,0,1,71.17,36.4Z"/><path class="cls-2" d="M79.18,39.72a.53.53,0,0,1-.07-1,56.16,56.16,0,0,1,6.18-.44c1,0,2-.07,3.06-.13a.51.51,0,0,1,.55.49.51.51,0,0,1-.49.55c-1,.07-2.07.1-3.08.14a56.29,56.29,0,0,0-6.07.43Z"/><path class="cls-2" d="M65.54,30A.53.53,0,0,1,65,29.5,26,26,0,0,1,64.69,26c0-.19,0-.37,0-.56a.52.52,0,0,1,.55-.5.53.53,0,0,1,.5.55c0,.17,0,.34,0,.51a25.91,25.91,0,0,0,.32,3.39.51.51,0,0,1-.44.59Z"/><path class="cls-2" d="M63.2,28.36a.52.52,0,0,1-.52-.46.51.51,0,0,1,.45-.58c.61-.08,1.23-.11,1.83-.13a14.37,14.37,0,0,0,2.74-.31.53.53,0,0,1,.26,1,15.1,15.1,0,0,1-3,.34c-.6,0-1.17.05-1.74.12Z"/><path class="cls-2" d="M62.35,21.67a.52.52,0,0,1-.29-.09l-.77-.5c-.6-.4-1.22-.81-1.85-1.17a.49.49,0,0,1-.25-.34.47.47,0,0,1,.08-.41c.4-.58.78-1.18,1.15-1.76s.67-1.07,1-1.61a.52.52,0,0,1,.71-.14l1,.68c.57.37,1.15.76,1.74,1.1a.52.52,0,0,1,.2.69,15.33,15.33,0,0,1-1.94,2.8l-.45.55A.53.53,0,0,1,62.35,21.67Zm-1.9-2.38,1.42.91.37.24.16-.19A15.59,15.59,0,0,0,64,18.07c-.46-.28-.91-.58-1.35-.87L62,16.81c-.25.38-.5.77-.73,1.15S60.75,18.85,60.45,19.29Z"/><path class="cls-2" d="M65.87,11.58H65.3c-10.65,0-10.65-1.66-10.65-2.2S55,7.81,56.84,7.29C58,7,59.17,6.49,60.31,6a20.18,20.18,0,0,1,7.25-1.86,3.09,3.09,0,0,1,3.08,3.39,3.79,3.79,0,0,1-1.06,2.82A5.36,5.36,0,0,1,65.87,11.58Zm1.69-6.35A19.27,19.27,0,0,0,60.7,7c-1.16.46-2.37.93-3.57,1.28-.53.15-1.43.49-1.43,1.07.37.74,5.23,1.15,9.6,1.15h.2a4.82,4.82,0,0,0,3.35-.88,2.79,2.79,0,0,0,.74-2.07C69.59,7.18,69.49,5.23,67.56,5.23Z"/><path class="cls-2" d="M67.13,11.5a.5.5,0,0,1-.27-.08A4.62,4.62,0,0,1,65.21,8a3.46,3.46,0,0,1,2.43-3.47.52.52,0,0,1,.63.38.53.53,0,0,1-.38.64A2.43,2.43,0,0,0,66.26,8a3.71,3.71,0,0,0,1.14,2.56.53.53,0,0,1-.27,1Z"/><path class="cls-2" d="M67.63,9.07a.53.53,0,0,1-.48-.32,2.85,2.85,0,0,1-.28-1.17,1.89,1.89,0,0,1,.33-1.09.52.52,0,1,1,.87.58.9.9,0,0,0-.15.51,1.88,1.88,0,0,0,.19.75.52.52,0,0,1-.26.69A.59.59,0,0,1,67.63,9.07Z"/><path class="cls-2" d="M59.83,3.9a1.82,1.82,0,0,1-1.26-.5A1.81,1.81,0,0,1,58,2.09,1.83,1.83,0,0,1,58.42,1,1.65,1.65,0,0,1,59,.54,1.81,1.81,0,0,1,61.54,2.3a1.75,1.75,0,0,1-1.62,1.6Zm-.11-2.48h-.06a.65.65,0,0,0-.21.06.54.54,0,0,0-.2.16.79.79,0,0,0-.17.47.72.72,0,0,0,.22.53.74.74,0,0,0,.57.21.71.71,0,0,0,.63-.61.81.81,0,0,0-.24-.6A.76.76,0,0,0,59.72,1.42Z"/><path class="cls-2" d="M45,15.47a7.42,7.42,0,0,1-6.34-3.4.54.54,0,0,1,0-.56,8.87,8.87,0,0,1,7.3-4c2.49,0,4.26,1,6.13,3.37a.54.54,0,0,1-.09.74.56.56,0,0,1-.46.1l-.09.14A7.24,7.24,0,0,1,45,15.47ZM39.71,11.8A6.44,6.44,0,0,0,45,14.42a6.18,6.18,0,0,0,5.58-3.12l.17-.26.05-.07a5.86,5.86,0,0,0-4.83-2.4A7.84,7.84,0,0,0,39.71,11.8Z"/><path class="cls-2" d="M46.55,13.71h0A2.44,2.44,0,0,1,44.77,13a2.54,2.54,0,0,1-.68-1.85,2.4,2.4,0,0,1,1.07-2,2.29,2.29,0,0,1,1.1-.37,2.7,2.7,0,0,1,2,.66,2.35,2.35,0,0,1,.8,1.64,2.59,2.59,0,0,1-.71,1.9A2.5,2.5,0,0,1,46.55,13.71Zm-.08-3.9h-.13a1.25,1.25,0,0,0-.6.19,1.38,1.38,0,0,0-.6,1.15,1.43,1.43,0,0,0,.39,1.09,1.39,1.39,0,0,0,1,.42,1.37,1.37,0,0,0,1.06-.44A1.46,1.46,0,0,0,48,11.11a1.29,1.29,0,0,0-.45-.9A1.63,1.63,0,0,0,46.47,9.81Z"/><path class="cls-2" d="M47.18,12a1,1,0,0,1-1-1,1,1,0,0,1,.36-.71.52.52,0,0,1,.62-.09.47.47,0,0,1,.22-.2.52.52,0,0,1,.7.23,1.26,1.26,0,0,1,.14.6A1,1,0,0,1,47.18,12Z"/><path class="cls-2" d="M40.3,9.27a.53.53,0,0,1-.43-.22l-.46-.69c-.13-.21-.27-.43-.43-.64A.54.54,0,0,1,39.1,7a.53.53,0,0,1,.74.13l.46.68c.14.22.27.43.43.65a.53.53,0,0,1-.13.73A.49.49,0,0,1,40.3,9.27Z"/><path class="cls-2" d="M43.15,7.37a.52.52,0,0,1-.5-.39,9.31,9.31,0,0,1-.27-1.4A.52.52,0,0,1,42.82,5a.53.53,0,0,1,.6.44,9.46,9.46,0,0,0,.24,1.27.51.51,0,0,1-.36.64A.4.4,0,0,1,43.15,7.37Z"/><path class="cls-2" d="M46.13,6.54A.52.52,0,0,1,45.61,6V5a.52.52,0,0,1,.52-.52.52.52,0,0,1,.53.52V6A.52.52,0,0,1,46.13,6.54Z"/><path class="cls-2" d="M49.37,7.05h-.1a.54.54,0,0,1-.42-.62A2.9,2.9,0,0,1,49,6a.73.73,0,0,0,.1-.28,0,0,0,0,0,0,0,.53.53,0,1,1,1-.17,1.5,1.5,0,0,1,0,.2,1.76,1.76,0,0,1-.19.72,1.71,1.71,0,0,0-.09.22A.51.51,0,0,1,49.37,7.05Z"/><path class="cls-2" d="M51,8.19A.51.51,0,0,1,50.6,8a.53.53,0,0,1,.1-.74l.15-.1a1.72,1.72,0,0,0,.48-.44.52.52,0,1,1,.9.54,2.59,2.59,0,0,1-.77.75l-.13.09A.45.45,0,0,1,51,8.19Z"/><path class="cls-2" d="M32.81,20.05a.52.52,0,0,1-.52-.5l-.19-3.93a.53.53,0,1,1,1,0l.19,3.93a.53.53,0,0,1-.5.55Z"/><path class="cls-2" d="M30.66,18.28a.54.54,0,0,1-.53-.49.52.52,0,0,1,.48-.56c1.49-.13,3-.26,4.53-.51a.53.53,0,0,1,.6.44.52.52,0,0,1-.43.6c-1.54.26-3.1.39-4.61.51Z"/><path class="cls-2" d="M46.67,31.53c-6.88,0-7.76-2.73-7.76-5.11a5.13,5.13,0,0,1,3.57-5,8,8,0,0,1,7.19-4.61c1.69,0,4,1.7,4.39,4.53,2,.05,4.16,1.63,4.16,3.74,0,2.41-2.77,4.65-4.7,5.15A19,19,0,0,1,46.67,31.53ZM42.1,22.67A4.25,4.25,0,0,0,40,26.42c0,1.42,0,4.06,6.71,4.06a18,18,0,0,0,6.5-1.28l.06,0c1.59-.4,3.94-2.31,3.94-4.14a3.1,3.1,0,0,0-3.05-2.68c-.06,1.78-1.06,4.13-2.89,4.13a1.89,1.89,0,0,1-1.64-1.9c0-1.12,1.47-2.76,3.42-3.19-.35-2.21-2.1-3.58-3.34-3.58a7,7,0,0,0-6,3.51,2.61,2.61,0,0,1,2.08,2.46,1.72,1.72,0,0,1-1.71,1.84c-1.3,0-2-1.33-2-2.58A2.53,2.53,0,0,1,42.1,22.67Zm11-.2a3.27,3.27,0,0,0-2.42,2.12.92.92,0,0,0,.59.85C52.28,25.44,53,23.76,53.06,22.47Zm-9.81-.14a2.62,2.62,0,0,0-.13.72c0,.63.3,1.53,1,1.53.41,0,.66-.31.66-.79A1.55,1.55,0,0,0,43.25,22.33Z"/><path class="cls-2" d="M52.22,33.18a.53.53,0,0,1,0-1,11.73,11.73,0,0,0,6.25-2.38.52.52,0,0,1,.6.86A12.79,12.79,0,0,1,52.22,33.18Z"/><path class="cls-2" d="M33.15,36.43h-.08a2,2,0,0,1-.32-4h.14l0,.53,0-.53,0,.53v-.53h.19a3.86,3.86,0,0,1,.5,0,2,2,0,0,1,1.66,1.89,2.09,2.09,0,0,1-.61,1.51A2.15,2.15,0,0,1,33.15,36.43Zm.1-3h-.36a1,1,0,0,0-.7,1,1,1,0,0,0,.92.94,1.08,1.08,0,0,0,.8-.31,1,1,0,0,0,.3-.72.92.92,0,0,0-.74-.89Z"/><path class="cls-2" d="M31.05,28.92a.54.54,0,0,1-.45-.26.56.56,0,0,1,0-.57c.34-.48.66-1,1-1.5s.55-.92.85-1.36a.52.52,0,0,1,.78-.1,13.09,13.09,0,0,1,1.36,1.43c.29.33.58.67.88,1a.52.52,0,0,1,.12.54.51.51,0,0,1-.43.35L34,28.57c-1,.12-1.94.25-2.91.35ZM33,26.34l-.48.79-.38.62,1.79-.22.11,0-.22-.26C33.5,26.93,33.24,26.62,33,26.34Z"/><path class="cls-2" d="M33.38,33.31a.52.52,0,0,1-.51-.41,22.62,22.62,0,0,1-.37-3.25c0-.42,0-.84-.08-1.26a.52.52,0,1,1,1-.09c0,.42.07.86.09,1.29a21,21,0,0,0,.35,3.08.53.53,0,0,1-.4.63Z"/><path class="cls-2" d="M27.17,35.72a.52.52,0,0,1-.52-.45.53.53,0,0,1,.45-.6c.7-.09,1.42-.16,2.11-.23s1.39-.14,2.08-.24a.52.52,0,1,1,.14,1c-.71.1-1.42.17-2.12.24s-1.38.14-2.07.23Z"/><path class="cls-2" d="M35,35a.53.53,0,0,1-.1-1,17.27,17.27,0,0,1,2.54-.27,17,17,0,0,0,2-.18.53.53,0,0,1,.18,1,18.18,18.18,0,0,1-2.17.19,16.83,16.83,0,0,0-2.38.25Z"/><path class="cls-2" d="M18.18,29.85a9.15,9.15,0,0,1-3-.34,2.57,2.57,0,0,1-1.81-2.61A4.27,4.27,0,0,1,15,23.7a5.19,5.19,0,0,1,2.89-1.29C19,21,21.05,19.79,22.1,19.79c2,0,3,2.1,3,4.16a2.73,2.73,0,0,1,0,.41,2.27,2.27,0,0,1,1,2.13,2.57,2.57,0,0,1-1.55,2.42l-.23.14a2.45,2.45,0,0,1-1,.33h-.05A38.82,38.82,0,0,1,18.18,29.85Zm-1-6.23c-1.3.44-2.8,1.79-2.8,3.28a1.52,1.52,0,0,0,1.11,1.62,8.4,8.4,0,0,0,2.7.28,37.16,37.16,0,0,0,5-.45h.05a1.27,1.27,0,0,0,.55-.18L24,28a1.56,1.56,0,0,0,1-1.51,1.59,1.59,0,0,0-.29-1.07,2.86,2.86,0,0,1-2.2,1.47,1.06,1.06,0,0,1-1-1.08c0-.87.71-1.76,2.3-1.76h.25s0-.07,0-.11c0-1.25-.53-3.11-2-3.11a6,6,0,0,0-3,1.81,2.7,2.7,0,0,1,1.5,2.4,1.34,1.34,0,0,1-1.46,1.37,2.11,2.11,0,0,1-2.09-2A2.51,2.51,0,0,1,17.17,23.62Zm6.53,1.49c-.68,0-1.12.3-1.12.7A1.74,1.74,0,0,0,23.7,25.11Zm-5.33-1.6a2,2,0,0,0-.31,1,1.06,1.06,0,0,0,1,.9c.41,0,.41-.2.41-.32A1.64,1.64,0,0,0,18.37,23.51Z"/><path class="cls-2" d="M14.38,56.89a1.86,1.86,0,0,1-.28-3.7,2,2,0,0,1,1.76.62,1.71,1.71,0,0,1,.41.92,2,2,0,0,1-.52,1.53A1.86,1.86,0,0,1,14.38,56.89Zm-.18-2.66a.81.81,0,0,0,.17,1.61.83.83,0,0,0,.6-.28,1,1,0,0,0,.25-.72.56.56,0,0,0-.16-.35A1,1,0,0,0,14.2,54.23Z"/><path class="cls-2" d="M21.2,56.73h0a1.85,1.85,0,0,1-1.85-1.87A1.8,1.8,0,0,1,20.4,53.2a2.12,2.12,0,0,1,.52-.17,2.36,2.36,0,0,1,.37,0,1.78,1.78,0,0,1,1.8,1.68,2,2,0,0,1-1.89,2Zm0-2.67h-.16a1.09,1.09,0,0,0-.25.09.75.75,0,0,0-.44.7.8.8,0,0,0,.81.82.86.86,0,0,0,.59-.28.88.88,0,0,0,.25-.65.73.73,0,0,0-.77-.69Z"/><path class="cls-2" d="M19.21,49.34h0a2,2,0,0,1-1.93-2.05,1.93,1.93,0,0,1,1.24-1.78,2.24,2.24,0,0,1,.73-.13,2,2,0,0,1,2,1.71,2.13,2.13,0,0,1-.58,1.6A2,2,0,0,1,19.21,49.34Zm0-2.91a1.09,1.09,0,0,0-.4.07.85.85,0,0,0-.53.81.93.93,0,0,0,.89,1,1,1,0,0,0,.7-.32,1.06,1.06,0,0,0,.3-.78A.91.91,0,0,0,19.23,46.43Z"/><path class="cls-2" d="M12.29,49.57a2,2,0,0,1-.48-4,1.54,1.54,0,0,1,.3,0,2.07,2.07,0,0,1,1.55.56,2,2,0,0,1,.63,1.39,2,2,0,0,1-2,2ZM12,46.65A1,1,0,1,0,13,48.23a1,1,0,0,0,.28-.69.92.92,0,0,0-.3-.64,1,1,0,0,0-.77-.27Z"/><path class="cls-2" d="M10.49,43.05a1.91,1.91,0,0,1-1.38-.61,2,2,0,0,1-.55-1.51,1.83,1.83,0,0,1,1.61-1.72h.28A2,2,0,0,1,12,40a1.88,1.88,0,0,1,.41,1.21,1.93,1.93,0,0,1-1.85,1.83Zm-.17-2.8h-.05a.78.78,0,0,0-.66.73.91.91,0,0,0,.25.72.88.88,0,0,0,.64.29.89.89,0,0,0,.82-.82.86.86,0,0,0-.2-.54,1,1,0,0,0-.74-.38Z"/><path class="cls-2" d="M16,39.92a1.94,1.94,0,0,1-1.36-.58A1.91,1.91,0,0,1,14.07,38a1.73,1.73,0,0,1,.43-1.12,2,2,0,0,1,1.55-.69A1.88,1.88,0,0,1,17.87,38a1.93,1.93,0,0,1-.54,1.39,1.85,1.85,0,0,1-1.3.58Zm-.7-2.4a.72.72,0,0,0-.17.46.83.83,0,0,0,.26.62.88.88,0,0,0,.63.27.9.9,0,0,0,.57-.25.88.88,0,0,0,.24-.64.82.82,0,0,0-.8-.79A.93.93,0,0,0,15.29,37.52Z"/><path class="cls-2" d="M22.26,42.34h0a1.94,1.94,0,0,1-1.89-2,1.9,1.9,0,0,1,1.51-1.88l.3,0a2,2,0,0,1,2.09,1.7,2.08,2.08,0,0,1-.58,1.52A2,2,0,0,1,22.26,42.34Zm0-2.82H22.2l-.15,0a.86.86,0,0,0-.66.85.9.9,0,0,0,.86.9A1,1,0,0,0,22.9,41a1,1,0,0,0,.29-.71A.9.9,0,0,0,22.25,39.52Z"/><path class="cls-2" d="M28.22,55.67a.52.52,0,0,1-.43-.23c-.52-.74-1-1.52-1.5-2.27-.33-.51-.66-1-1-1.54a.52.52,0,0,1,.46-.81,35.1,35.1,0,0,0,4.35-.1.54.54,0,0,1,.48.22.56.56,0,0,1,0,.53c-.46.93-.91,1.86-1.37,2.78l-.56,1.13a.55.55,0,0,1-.43.29Zm-1.5-3.78c.15.24.3.48.46.72.31.49.64,1,1,1.49l.16-.32,1-2Q28,51.91,26.72,51.89Z"/><path class="cls-2" d="M20,79.05l-.15,0a.53.53,0,0,1-.37-.42c-.24-1.61-.52-3.22-.79-4.79-.16-.93-.33-1.86-.48-2.79-1-.91-2.14-2.15-3.32-3.46s-2.54-2.8-3.9-4.08a.48.48,0,0,1-.17-.37v-.33c0-.38,0-.75,0-1.12,0-.64,0-1.16.06-1.64a.52.52,0,0,1,.45-.48,112.55,112.55,0,0,1,12.09-.8c1.5,0,3.05-.09,4.58-.16a.56.56,0,0,1,.39.15.54.54,0,0,1,.16.39c0,.57,0,1.24,0,1.92,0,1,0,1.77.1,2.52a.52.52,0,0,1-.15.43,53.77,53.77,0,0,0-5.85,6.71A51.88,51.88,0,0,0,23,76.24a.54.54,0,0,1-.2.49,18.9,18.9,0,0,0-2.44,2.15A.52.52,0,0,1,20,79.05ZM11.84,62.88c1.33,1.27,2.58,2.65,3.8,4A46.4,46.4,0,0,0,19,70.36a.53.53,0,0,1,.17.31l.51,3c.22,1.24.44,2.51.64,3.78.53-.5,1.08-.94,1.59-1.34a52.73,52.73,0,0,1-.4-5.52.46.46,0,0,1,.1-.32,55,55,0,0,1,5.88-6.82c-.06-.71-.08-1.49-.08-2.37,0-.48,0-.95,0-1.38l-4,.13c-3.8.12-7.72.23-11.55.73,0,.34,0,.71,0,1.14s0,.73,0,1.1Z"/><path class="cls-2" d="M11.25,63.5a.52.52,0,0,1-.52-.44.53.53,0,0,1,.43-.6,51.6,51.6,0,0,1,15.64-.13.53.53,0,0,1-.15,1,50.15,50.15,0,0,0-15.32.13Z"/><path class="cls-2" d="M7.08,82.75A6.91,6.91,0,0,1,0,75.9a7.22,7.22,0,0,1,6-7.23,7.69,7.69,0,0,1,1.33-.09,7,7,0,0,1,6.74,6.84,7.21,7.21,0,0,1-6.91,7.33Zm.09-13.12a7.33,7.33,0,0,0-1,.08,6.14,6.14,0,0,0-5.11,6.17,5.88,5.88,0,0,0,6,5.82h.07a6,6,0,0,0,4.15-1.88,6,6,0,0,0-4-10.19Z"/><path class="cls-2" d="M6.59,79.46H6.28A3.73,3.73,0,0,1,4.34,73,3.65,3.65,0,0,1,5,72.58a3.25,3.25,0,0,1,1.57-.46,3.8,3.8,0,0,1,2.77,1,3.53,3.53,0,0,1,1.13,2.49,3.69,3.69,0,0,1-1.18,2.76A3.92,3.92,0,0,1,6.59,79.46Zm.13-6.29H6.6a2.26,2.26,0,0,0-1.09.32A2.5,2.5,0,0,0,4.2,75.7a2.6,2.6,0,0,0,2.17,2.7,2.8,2.8,0,0,0,2.18-.79,2.64,2.64,0,0,0,.86-2,2.45,2.45,0,0,0-.8-1.75A2.73,2.73,0,0,0,6.72,73.17Z"/><path class="cls-2" d="M5.6,73.15a.54.54,0,0,1-.45-.26,7.93,7.93,0,0,1-.68-1.63,6.63,6.63,0,0,0-.59-1.41.53.53,0,0,1,.18-.73.54.54,0,0,1,.72.18,7.84,7.84,0,0,1,.68,1.63,7.55,7.55,0,0,0,.59,1.42.52.52,0,0,1-.18.72A.53.53,0,0,1,5.6,73.15Z"/><path class="cls-2" d="M1.29,79.23a.53.53,0,0,1-.53-.49.51.51,0,0,1,.49-.55,5.25,5.25,0,0,0,2.59-.93.53.53,0,0,1,.73.14.52.52,0,0,1-.13.73,6.22,6.22,0,0,1-3.12,1.1Z"/><path class="cls-2" d="M2.59,66.07a1.25,1.25,0,0,1-1.16-1.3,1.72,1.72,0,0,1,.5-1.21.53.53,0,0,1,.63-.09.5.5,0,0,1,.38,0l.14.06a1.13,1.13,0,0,1,.78,1.26A1.33,1.33,0,0,1,2.59,66.07Zm0-1.59a.59.59,0,0,0-.07.29c0,.18.1.25.12.25s.2-.14.21-.21a1.84,1.84,0,0,0,0-.23l-.1,0Z"/><path class="cls-2" d="M31.5,76.71a.53.53,0,0,1-.52-.44,21.25,21.25,0,0,1-.24-3.35c0-.44,0-.9,0-1.4a.5.5,0,0,1,.54-.5.53.53,0,0,1,.51.54c0,.49,0,.93,0,1.36A19.13,19.13,0,0,0,32,76.1a.53.53,0,0,1-.43.6Z"/><path class="cls-2" d="M31.54,74.55c-.39,0-.78,0-1.16,0s-.75,0-1.12,0a.52.52,0,0,1-.52-.53.52.52,0,0,1,.52-.52c.39,0,.79,0,1.17,0s.75,0,1.11,0A6.54,6.54,0,0,0,33,73.37a.53.53,0,0,1,.62.42.52.52,0,0,1-.41.61A7.87,7.87,0,0,1,31.54,74.55Z"/><path class="cls-2" d="M3.78,92.33a.53.53,0,0,1-.52-.44c-.13-.78-.21-1.53-.3-2.26s-.16-1.46-.29-2.21a.53.53,0,0,1,1-.17c.13.77.21,1.53.3,2.26s.16,1.46.29,2.2a.53.53,0,0,1-.43.61Z"/><path class="cls-2" d="M1.22,90.59a.53.53,0,0,1-.05-1,17.41,17.41,0,0,0,3.64-.74.54.54,0,0,1,.66.34.53.53,0,0,1-.35.66,19.23,19.23,0,0,1-3.84.79Z"/><path class="cls-2" d="M8.68,100.32a.53.53,0,0,1-.52-.43l-.11-.65c-.24-1.32-.48-2.68-.61-4a.52.52,0,0,1,.46-.56l1.21-.15c1.27-.14,2.58-.3,3.84-.54a.51.51,0,0,1,.41.09.53.53,0,0,1,.21.35c.1.74.21,1.47.32,2.21s.22,1.47.32,2.2a.51.51,0,0,1-.39.58,48.77,48.77,0,0,1-5.07.94Zm-.14-4.71c.13,1.15.34,2.32.54,3.45l0,.14c1.53-.22,2.82-.46,4-.74-.09-.57-.17-1.14-.26-1.72s-.17-1.11-.24-1.67c-1.13.2-2.27.33-3.38.46Z"/><path class="cls-2" d="M21.13,98.21a.5.5,0,0,1-.31-.1.51.51,0,0,1-.21-.34c-.09-.6-.19-1.19-.3-1.78-.16-.94-.33-1.91-.45-2.86a.54.54,0,0,1,.13-.42.52.52,0,0,1,.39-.17,28.15,28.15,0,0,0,4.7-.36.56.56,0,0,1,.41.11.53.53,0,0,1,.2.37c.1,1.35.26,2.72.41,4l0,.2a.52.52,0,0,1-.43.57c-.75.14-1.51.25-2.25.37s-1.48.22-2.22.35ZM21,93.58c.11.75.24,1.5.37,2.23l.21,1.27,1.72-.27L25,96.53c-.12-1.06-.24-2.14-.33-3.22A30.35,30.35,0,0,1,21,93.58Z"/><path class="cls-2" d="M31,97a.52.52,0,0,1-.52-.48c-.16-1.66-.26-3.29-.29-4.84a.55.55,0,0,1,.16-.38.58.58,0,0,1,.39-.15c.54,0,1.09,0,1.63.09.91.05,1.84.1,2.75.1h.14a.53.53,0,0,1,.53.51v.06c.05,1.34.09,2.72.09,4.09a.52.52,0,0,1-.44.52c-1.5.25-3,.37-4.4.48Zm.26-4.78c0,1.19.11,2.43.22,3.69,1.08-.09,2.22-.19,3.35-.36,0-1,0-2.12-.07-3.16-.82,0-1.65-.06-2.45-.11Z"/><path class="cls-2" d="M10.29,94.4a.54.54,0,0,1-.52-.55v-.29a20.4,20.4,0,0,0-.28-3c-.09-.65-.19-1.33-.24-2A.52.52,0,0,1,9.69,88c.48-.08,1-.18,1.46-.29l1-.22c.43-.08,14.52-2.68,20.06-3.58a.54.54,0,0,1,.41.11.51.51,0,0,1,.2.38c.05.72.12,1.46.19,2.18.13,1.34.26,2.73.26,4.13v.49a.53.53,0,0,1-.53.51.54.54,0,0,1-.53-.54c0-.15,0-.31,0-.46,0-1.35-.13-2.71-.26-4,0-.53-.1-1.08-.14-1.63-6,1-19.37,3.46-19.47,3.48l-1,.21-1,.22c.05.49.12,1,.19,1.47a21.28,21.28,0,0,1,.29,3.12v.33A.53.53,0,0,1,10.29,94.4Z"/><path class="cls-2" d="M21.9,92.11a.53.53,0,0,1-.52-.45,32.6,32.6,0,0,1-.32-4.26.53.53,0,0,1,.53-.53.52.52,0,0,1,.52.53,30.5,30.5,0,0,0,.31,4.12.53.53,0,0,1-.45.59Z"/><path class="cls-2" d="M6.7,105.18c-.65,0-1.06-.49-1.06-1.25v-.19s0-.07,0-.1a.52.52,0,0,1,.29-.47.5.5,0,0,1,.3-.3,1.5,1.5,0,0,1,.57-.12A1.16,1.16,0,0,1,8,103.85,1.36,1.36,0,0,1,6.7,105.18Zm0-1h0Zm0-.33v.11a.66.66,0,0,0,0,.19.29.29,0,0,0,.24-.27.24.24,0,0,0-.14,0A.35.35,0,0,0,6.69,103.82Z"/><path class="cls-2" d="M18.79,114.63a.54.54,0,0,1-.35-.14l-.19-.17c-2.65-2.46-5.39-5-6.73-8.53a.52.52,0,0,1,.3-.68.54.54,0,0,1,.68.31c1.26,3.29,3.9,5.75,6.47,8.13l.18.17a.52.52,0,0,1-.36.91Z"/><path class="cls-2" d="M18.29,119.2a.5.5,0,0,1-.24-.06,9.65,9.65,0,0,1-3.54-4l-.29-.49a.52.52,0,0,1,.9-.54l.29.49a8.76,8.76,0,0,0,3.12,3.63.51.51,0,0,1,.22.7A.52.52,0,0,1,18.29,119.2Z"/><path class="cls-2" d="M19.45,106h-.06a1.88,1.88,0,0,1-1.8-1.86,2,2,0,0,1,.78-1.65,1.76,1.76,0,0,1,.87-.33,2,2,0,0,1,1.51.57,1.91,1.91,0,0,1,.63,1.44A2,2,0,0,1,19.45,106Zm-.07-2.8h-.05a.6.6,0,0,0-.32.12,1,1,0,0,0-.37.79.83.83,0,0,0,.78.83h0a.89.89,0,0,0,.88-.82.91.91,0,0,0-.31-.64A1,1,0,0,0,19.38,103.19Z"/><path class="cls-2" d="M35.43,109.22a2,2,0,0,1-2.08-2.11,2,2,0,0,1,.59-1.38,1.86,1.86,0,0,1,.85-.47,1.67,1.67,0,0,1,.39-.06,2,2,0,0,1,.41,4Zm-.75-2.75a1,1,0,0,0-.28.68,1,1,0,0,0,.3.74,1.05,1.05,0,0,0,.82.27,1,1,0,0,0,.81-.89,1,1,0,0,0-.32-.72.94.94,0,0,0-.77-.3l-.19,0A.82.82,0,0,0,34.68,106.47Z"/><path class="cls-2" d="M28.37,128.16A.5.5,0,0,1,28,128l-1.23-1c-.45-.38-.9-.75-1.35-1.14a.51.51,0,0,1-.06-.73c.36-.44.76-.87,1.15-1.28s.66-.69,1-1a.57.57,0,0,1,.38-.18.5.5,0,0,1,.4.16l.87.92c.43.46.87.93,1.33,1.35a.53.53,0,0,1,.08.68A18.9,18.9,0,0,1,28.77,128,.53.53,0,0,1,28.37,128.16Zm-1.84-2.74.94.78.85.7c.39-.44.77-.9,1.12-1.38-.37-.36-.72-.73-1.05-1.09-.16-.17-.31-.34-.47-.5l-.62.66C27.05,124.86,26.78,125.14,26.53,125.42Z"/><path class="cls-2" d="M38.68,131.74H38.6A4.54,4.54,0,0,1,34.29,127,4.68,4.68,0,0,1,37,122.79a3.13,3.13,0,0,1,1-.25,5,5,0,0,1,3.64,1.27A4.34,4.34,0,0,1,43.18,127a4.64,4.64,0,0,1-1.36,3.41A4.46,4.46,0,0,1,38.68,131.74Zm-.27-8.17-.3,0a2.44,2.44,0,0,0-.67.16,3.62,3.62,0,0,0-2.1,3.28,3.49,3.49,0,0,0,3.28,3.66h.06a3.43,3.43,0,0,0,2.4-1A3.63,3.63,0,0,0,42.13,127a3.31,3.31,0,0,0-1.19-2.44A4,4,0,0,0,38.41,123.57Z"/><path class="cls-2" d="M37.06,127.63a.51.51,0,0,1-.52-.49.53.53,0,0,1,.5-.56c.55,0,1.12,0,1.69,0h.78a13.12,13.12,0,0,0,1.37-.06.53.53,0,0,1,.58.47.54.54,0,0,1-.48.58c-.42,0-.88.06-1.47.06h-.8c-.54,0-1.09,0-1.62,0Z"/><path class="cls-2" d="M44.49,136a1.64,1.64,0,0,1-.38,0c-.67,0-1.34-.65-1.34-1.84a1.58,1.58,0,0,1,1.62-1.57A1.62,1.62,0,0,1,46.06,134C46.06,134.7,45.6,136,44.49,136Zm-.08-2.4a.51.51,0,0,1-.36.34c-.06,0-.16,0-.16.3,0,.64.42.71.6.71s.52-.67.52-.88A.57.57,0,0,0,44.41,133.56Z"/><path class="cls-2" d="M46.37,102.63a.51.51,0,0,1-.35-.13c-.68-.6-1.3-1.26-1.91-1.89l-.46-.48c-.82.65-1.66,1.33-2.42,2.05a.54.54,0,0,1-.57.1.53.53,0,0,1-.32-.48v-.06a.53.53,0,0,1,.36-.5c.76-.71,1.58-1.36,2.38-2l.29-.23a.52.52,0,0,1,.7,0c.27.28.54.55.8.83.49.51,1,1,1.51,1.52q.84-.72,1.68-1.41l1.29-1.07a.51.51,0,0,1,.72,0c.55.59,1.15,1.15,1.74,1.69l.57.52.21-.21,1.68-1.67a.52.52,0,0,1,.74,0,17,17,0,0,0,1.65,1.44c.81-.77,1.65-1.57,2.52-2.3a.52.52,0,1,1,.68.8c-.89.75-1.76,1.58-2.6,2.38l-.19.19a.54.54,0,0,1-.67,0,16.87,16.87,0,0,1-1.74-1.45l-1.33,1.32-.58.56a.53.53,0,0,1-.73,0l-.92-.86c-.48-.44-1-.9-1.45-1.38l-.92.76c-.67.55-1.36,1.12-2,1.7A.5.5,0,0,1,46.37,102.63Z"/><path class="cls-2" d="M64.59,109.26a.51.51,0,0,1-.51-.41,26.46,26.46,0,0,1-.58-4.55.53.53,0,0,1,.5-.55.51.51,0,0,1,.55.5,25.35,25.35,0,0,0,.56,4.38.52.52,0,0,1-.41.62Z"/><path class="cls-2" d="M62.5,107.27a.51.51,0,0,1-.51-.42.52.52,0,0,1,.41-.62,21.54,21.54,0,0,1,2.6-.29c.42,0,.84,0,1.25-.1a.54.54,0,0,1,.58.47.53.53,0,0,1-.47.58l-1.29.1a19.85,19.85,0,0,0-2.47.27Z"/><path class="cls-2" d="M66.5,117.93a.54.54,0,0,1-.53-.46c-.09-.77-.16-1.54-.22-2.27s-.13-1.48-.22-2.24a.53.53,0,0,1,.46-.58.52.52,0,0,1,.58.46c.1.77.16,1.53.23,2.27s.12,1.48.22,2.23a.54.54,0,0,1-.46.59Z"/><path class="cls-2" d="M26,120.54a.52.52,0,0,1-.52-.46c-.44-3.55-.59-7.19-.73-10.7-.05-1.17-.1-2.33-.16-3.49a.54.54,0,0,1,.5-.56.53.53,0,0,1,.55.5c.06,1.17.11,2.34.16,3.51.13,3.32.28,6.75.66,10.1,3.54-.36,16.61-1.64,32.76-2.31a.53.53,0,0,1,.55.51.52.52,0,0,1-.5.54c-17.06.71-30.66,2.09-33.21,2.36Z"/><path class="cls-2" d="M25.58,107.53a.53.53,0,0,1-.06-1,7.47,7.47,0,0,1,.84,0h.35a2,2,0,0,0,.53,0,.53.53,0,0,1,.23,1,3.81,3.81,0,0,1-.76.07h-.39c-.23,0-.46,0-.68,0Z"/><path class="cls-2" d="M27.8,110.51a.45.45,0,0,1-.16,0,3.54,3.54,0,0,0-.89-.13,6.24,6.24,0,0,1-.84-.11.53.53,0,0,1-.4-.63.52.52,0,0,1,.63-.39,6.57,6.57,0,0,0,.69.08,4.66,4.66,0,0,1,1.14.18.54.54,0,0,1,.33.67A.53.53,0,0,1,27.8,110.51Z"/><path class="cls-2" d="M27.42,114.82a5.22,5.22,0,0,1-1.08-.14c-.22-.05-.42-.09-.63-.12a.52.52,0,1,1,.12-1,7.34,7.34,0,0,1,.73.13,4.34,4.34,0,0,0,.86.12.53.53,0,0,1,.53.53A.52.52,0,0,1,27.42,114.82Z"/><path class="cls-2" d="M28.44,117.48a.5.5,0,0,1-.37-.14.53.53,0,0,1,0-.75,21.59,21.59,0,0,1,4.58-3.38.53.53,0,0,1,.46,0c1.44.54,2.75,1,4,1.32a77.94,77.94,0,0,1,6.4-5.15L44,109a.51.51,0,0,1,.38-.1c2.53.32,5,.78,7.49,1.23l1.93.36A32.65,32.65,0,0,1,59,105l.26-.23a.52.52,0,1,1,.69.78l-.25.23a30.3,30.3,0,0,0-5.29,5.57.51.51,0,0,1-.53.23l-2.27-.41c-2.36-.44-4.79-.89-7.22-1.2l-.28.21a76.74,76.74,0,0,0-6.53,5.27.52.52,0,0,1-.49.13c-1.31-.35-2.68-.79-4.17-1.34a20.74,20.74,0,0,0-4.15,3.08A.5.5,0,0,1,28.44,117.48Z"/><path class="cls-2" d="M59,116.6a.53.53,0,0,1-.52-.45c-.16-1.07-.24-2.14-.32-3.18s-.16-2.07-.32-3.1a.54.54,0,0,1,.44-.6.53.53,0,0,1,.6.44c.16,1.07.25,2.14.32,3.18s.16,2.08.32,3.1a.53.53,0,0,1-.44.6Z"/><path class="cls-2" d="M33.51,119.45A.53.53,0,0,1,33,119c0-.37-.09-.75-.14-1.13-.1-.76-.2-1.54-.24-2.32a.51.51,0,0,1,.49-.55.53.53,0,0,1,.56.49c0,.74.14,1.51.23,2.25,0,.38.1.76.14,1.15a.51.51,0,0,1-.46.58Z"/><path class="cls-2" d="M38.33,118.18a.52.52,0,0,1-.52-.52,2.87,2.87,0,0,0,0-.39,4.39,4.39,0,0,1,0-.53,1.56,1.56,0,0,1,0-.31.52.52,0,0,1,.6-.43.53.53,0,0,1,.44.6.71.71,0,0,0,0,.14,2.77,2.77,0,0,0,0,.39,4.34,4.34,0,0,1,0,.53A.52.52,0,0,1,38.33,118.18Z"/><path class="cls-2" d="M44.61,118.18a.53.53,0,0,1-.52-.45,32.3,32.3,0,0,1-.23-3.51c0-.67,0-1.37-.09-2a.53.53,0,1,1,1-.08c0,.7.07,1.41.09,2.09a32.51,32.51,0,0,0,.22,3.4.53.53,0,0,1-.45.59Z"/><path class="cls-2" d="M53.05,116.09a.53.53,0,0,1-.53-.53c0-.45,0-.89-.06-1.36s-.06-.93-.06-1.43a.52.52,0,0,1,.52-.52.52.52,0,0,1,.53.52c0,.46,0,.9.06,1.36s.06.94.06,1.43A.52.52,0,0,1,53.05,116.09Z"/><path class="cls-2" d="M52.68,140.78a3,3,0,0,1-3-2.84l-.6-13.42a3,3,0,0,1,.81-2.17,2.93,2.93,0,0,1,2.12-.93l8.56-.15h0a3,3,0,0,1,3,2.85l.55,13.35a3,3,0,0,1-2.9,3.1l-8.52.21Zm-.63-18.31a1.93,1.93,0,0,0-1.37.6,2,2,0,0,0-.52,1.41l.6,13.41a1.92,1.92,0,0,0,1.92,1.84h0l8.52-.21a1.93,1.93,0,0,0,1.88-2l-.55-13.36a1.92,1.92,0,0,0-2-1.84Z"/><path class="cls-2" d="M51.86,128.75a.52.52,0,0,1-.35-.14.47.47,0,0,1-.17-.37c-.05-1.13-.08-2.28-.1-3.41a.52.52,0,0,1,.47-.53,60.1,60.1,0,0,1,9-.26.54.54,0,0,1,.51.53c0,.34,0,.67,0,1s0,.74,0,1.12,0,.88,0,1.26a.58.58,0,0,1-.14.4.56.56,0,0,1-.39.17c-3.14,0-6,0-8.8.23Zm.44-3.46q0,1.18.06,2.37c2.52-.17,5-.19,7.79-.2,0-.24,0-.49,0-.77s0-.76,0-1.14c0-.16,0-.32,0-.48A61.05,61.05,0,0,0,52.3,125.29Z"/><path class="cls-2" d="M52.63,132.85h-.1a1.17,1.17,0,0,1-1.12-1.29,1.08,1.08,0,0,1,1-1.19,1.26,1.26,0,1,1,.23,2.49Zm-.14-1.46a.29.29,0,0,0,0,.16.41.41,0,0,0,0,.21.28.28,0,0,0,.14,0,.52.52,0,0,0,.22-.22.44.44,0,0,0-.36-.17Zm-.06-.51,0,.53,0,0Z"/><path class="cls-2" d="M56.51,132.86h-.32A1.29,1.29,0,0,1,55,131.53a1.36,1.36,0,0,1,1.16-1.42.54.54,0,0,1,.33.08l.16,0a1.33,1.33,0,0,1,.78.34l.06.06a1,1,0,0,1,.38.94A1.36,1.36,0,0,1,56.51,132.86Zm-.31-1.07h.31a.31.31,0,0,0,.28-.25.49.49,0,0,0,0-.14l-.12-.11a.44.44,0,0,0-.2-.05,2.22,2.22,0,0,1-.31-.07.45.45,0,0,0-.13.34A.27.27,0,0,0,56.2,131.79Z"/><path class="cls-2" d="M60,132.52a1.29,1.29,0,0,1-1.27-1.37,1.06,1.06,0,0,1,.71-1.05.51.51,0,0,1,.32,0,.55.55,0,0,1,.5,0l.19.08a1.06,1.06,0,0,1,.85,1.07A1.37,1.37,0,0,1,60,132.52Zm-.22-1.42v.05c0,.29.16.32.22.32a.37.37,0,0,0,.25-.25v0l-.15-.06-.22-.08-.07,0Z"/><path class="cls-2" d="M53.33,137.16a1.59,1.59,0,0,1-1.52-1.59,1.25,1.25,0,0,1,.68-1.15,10.63,10.63,0,0,0,1-.1.85.85,0,0,0,.22.06,1.18,1.18,0,0,1,1,1.3A1.48,1.48,0,0,1,53.33,137.16Zm-.27-1.86-.1.06s-.1,0-.1.21a.57.57,0,0,0,.47.54.45.45,0,0,0,.32-.43.49.49,0,0,0,0-.22l-.2-.05C53.32,135.38,53.19,135.35,53.06,135.3Z"/><path class="cls-2" d="M57,136.76a1.26,1.26,0,0,1-1.38-1.25,1.48,1.48,0,0,1,.86-1.29,4.23,4.23,0,0,0,1-.16,1.36,1.36,0,0,1,.93,1.27A1.44,1.44,0,0,1,57,136.76Zm.11-1.72a.61.61,0,0,1-.16.12.45.45,0,0,0-.28.35c0,.06,0,.2.33.2a.4.4,0,0,0,.39-.38C57.36,135.22,57.36,135.18,57.08,135Z"/><path class="cls-2" d="M60.36,136.66a1.31,1.31,0,0,1-1.2-1.41A1.33,1.33,0,0,1,60,134a.53.53,0,0,1,.49.07.56.56,0,0,1,.45.07,2,2,0,0,1,.64,1.35A1.41,1.41,0,0,1,60.36,136.66Zm0-1.71c-.13.06-.14.25-.14.3a.46.46,0,0,0,.13.35.73.73,0,0,0,.19-.2A1.32,1.32,0,0,0,60.35,135Z"/><path class="cls-2" d="M27.88,51.43h-.06a.53.53,0,0,1-.46-.58,7.9,7.9,0,0,0,0-.88v-.45a.52.52,0,0,1,.5-.54.53.53,0,0,1,.55.51V50a7.52,7.52,0,0,1-.05,1A.52.52,0,0,1,27.88,51.43Zm-.18-4.19a.52.52,0,0,1-.52-.48c-.05-.58-.08-1-.09-1.43a.53.53,0,0,1,.51-.54.53.53,0,0,1,.54.51c0,.39,0,.81.08,1.37a.53.53,0,0,1-.48.57Zm34.67-4a.51.51,0,0,1-.5-.38,7.58,7.58,0,0,1-.3-1.46A.53.53,0,0,1,62,40.8a.52.52,0,0,1,.57.47,8.43,8.43,0,0,0,.26,1.27.52.52,0,0,1-.35.66Zm-34.43-.14a.47.47,0,0,1-.17,0,.52.52,0,0,1-.32-.67A3.82,3.82,0,0,1,28.27,41,.53.53,0,0,1,29,41a.52.52,0,0,1,0,.74,2.66,2.66,0,0,0-.6,1A.53.53,0,0,1,27.94,43.08Zm3.21-2.32a.53.53,0,0,1-.08-1c.41-.06.87-.11,1.45-.14a.52.52,0,0,1,.55.49.51.51,0,0,1-.49.55c-.54,0-1,.08-1.34.14Zm4.2-.27a.53.53,0,0,1-.53-.49.54.54,0,0,1,.5-.56c.48,0,.91-.06,1.31-.11h0a.52.52,0,0,1,.58.46.53.53,0,0,1-.46.59h0c-.42.05-.87.09-1.38.12ZM39.52,40a.53.53,0,0,1-.52-.46.54.54,0,0,1,.46-.59l1.39-.17a.52.52,0,0,1,.58.46.51.51,0,0,1-.45.58L39.59,40Zm4.17-.51a.52.52,0,0,1-.52-.46.53.53,0,0,1,.46-.58l1.4-.16a.52.52,0,0,1,.58.46.53.53,0,0,1-.47.58l-1.38.16Zm18.09-.39a.54.54,0,0,1-.34-.12,2.09,2.09,0,0,0-1-.27.52.52,0,0,1,.11-1,2.78,2.78,0,0,1,1.61.51.52.52,0,0,1,.06.74A.52.52,0,0,1,61.78,39.13Zm-13.91-.05a.52.52,0,0,1-.52-.48.53.53,0,0,1,.48-.57l1.4-.12A.53.53,0,0,1,49.31,39l-1.39.12Zm4.19-.32a.52.52,0,0,1-.52-.49.53.53,0,0,1,.49-.56l1.41-.06a.52.52,0,0,1,.55.5.54.54,0,0,1-.51.55l-1.39.06Zm5.6-.12h-1.4a.52.52,0,0,1-.52-.52.52.52,0,0,1,.52-.53h1.41a.53.53,0,0,1,0,1.06Z"/><path class="cls-2" d="M48.39,41.48a.53.53,0,0,1-.52-.48c0-.46-.08-.94-.12-1.41a.53.53,0,0,1,1-.07q0,.69.12,1.38a.54.54,0,0,1-.48.58Zm-.23-4.2a.52.52,0,0,1-.53-.51c0-.47,0-.94,0-1.41a.53.53,0,0,1,.52-.53.54.54,0,0,1,.53.52c0,.47,0,.93,0,1.4A.51.51,0,0,1,48.16,37.28Zm0-4.2a.52.52,0,0,1-.52-.52v-1.4a.53.53,0,0,1,.53-.53.52.52,0,0,1,.52.53v1.4A.52.52,0,0,1,48.13,33.08Z"/><path class="cls-2" d="M41.35,45a.52.52,0,0,1-.52-.49c0-.25,0-.51-.07-.76a.53.53,0,0,1,.47-.58.53.53,0,0,1,.58.47c0,.27,0,.54.07.8a.54.54,0,0,1-.5.56ZM41,41.39a.53.53,0,0,1-.52-.49c0-.33,0-.62,0-.9s0-.38,0-.57a.53.53,0,0,1,1,.06c0,.17,0,.34,0,.51s0,.52,0,.82a.53.53,0,0,1-.49.56Z"/><path class="cls-2" d="M21.58,83.86a.53.53,0,0,1-.53-.5c0-.46,0-.92-.07-1.39a.51.51,0,0,1,.49-.55.53.53,0,0,1,.56.49c0,.47,0,.94.07,1.41a.52.52,0,0,1-.5.54Zm-.25-4.19a.52.52,0,0,1-.52-.5c0-.52,0-1,0-1.43a.52.52,0,0,1,.53-.52.52.52,0,0,1,.52.52c0,.42,0,.87,0,1.38a.53.53,0,0,1-.5.55Z"/><path class="cls-2" d="M118.65,98.55a.53.53,0,0,1-.52-.5c0-.29,0-.58,0-.87l0-.52a.54.54,0,0,1,.49-.56.53.53,0,0,1,.56.49l0,.52.06.88a.54.54,0,0,1-.5.56Zm-.18-4.2a.53.53,0,0,1-.53-.53c0-.5,0-1,.06-1.43a.53.53,0,0,1,.56-.49.54.54,0,0,1,.49.57c0,.43,0,.88-.06,1.36A.52.52,0,0,1,118.47,94.35Z"/><path class="cls-2" d="M79.6,4.64a.54.54,0,0,1-.36-.14,11.88,11.88,0,0,0-1-.87.52.52,0,1,1,.64-.83,14,14,0,0,1,1.1.94.52.52,0,0,1,0,.74A.51.51,0,0,1,79.6,4.64ZM76.15,2.31a.54.54,0,0,1-.22,0,12.48,12.48,0,0,0-1.25-.49.52.52,0,0,1-.34-.66A.53.53,0,0,1,75,.79a11.6,11.6,0,0,1,1.36.52.53.53,0,0,1,.27.69A.52.52,0,0,1,76.15,2.31ZM62.41,2.05a.53.53,0,0,1-.14-1c.46-.13.92-.25,1.38-.35a.52.52,0,0,1,.24,1c-.45.1-.89.22-1.33.34A.39.39,0,0,1,62.41,2.05Zm4.12-.84A.53.53,0,0,1,66,.75a.52.52,0,0,1,.45-.59c.48-.06,1-.11,1.42-.14a.52.52,0,0,1,.56.49.52.52,0,0,1-.48.56c-.45,0-.91.07-1.37.13Zm5.58,0H72c-.44-.06-.89-.1-1.35-.13A.53.53,0,0,1,70.2.49.51.51,0,0,1,70.75,0c.49,0,1,.08,1.44.14a.53.53,0,0,1,.44.59A.52.52,0,0,1,72.11,1.19Z"/><path class="cls-2" d="M1.85,62.12a.52.52,0,0,1-.52-.52c0-4.43.13-8.74,1.81-12.85a.52.52,0,0,1,.68-.29.53.53,0,0,1,.29.69c-1.6,3.93-1.73,8.13-1.73,12.45A.52.52,0,0,1,1.85,62.12Z"/><path class="cls-2" d="M8.94,35.94l-.15,0a.52.52,0,0,1-.36-.65A35.55,35.55,0,0,1,10.36,30a.52.52,0,0,1,.69-.26.52.52,0,0,1,.26.7,35.83,35.83,0,0,0-1.87,5.11A.53.53,0,0,1,8.94,35.94Z"/></g></g></svg>