<svg xmlns="http://www.w3.org/2000/svg" viewBox="0 0 141.73 138.98"><defs><style>.cls-1{fill:#ffcc80;}.cls-2{fill:#525d7d;}</style></defs><title>017_c</title><g id="Layer_2" data-name="Layer 2"><g id="Layer_1-2" data-name="Layer 1"><path class="cls-1" d="M26.46,76.76a3.65,3.65,0,0,0-.88-1.43,1.53,1.53,0,0,0-.64-.4,5.16,5.16,0,0,0-.35-1.29,1.32,1.32,0,0,0-1.49-.84l-.4,0a2.22,2.22,0,0,0-.37.09,1.37,1.37,0,0,0-1.25.71,1.14,1.14,0,0,0-.1.19,3.2,3.2,0,0,0-.79,2.47c-.31.55-.72.94-1.31.83s-.74-.83-.76-1.37a2.61,2.61,0,0,1,.09-.83c.11-.77.6-1,1.5-.6,0,.3.44.4.54.08a1.59,1.59,0,0,0-2.17-1.82c-1.65.54-2.43,2.87-2.15,4.43a3.24,3.24,0,0,0,3.52,2.73,1.59,1.59,0,0,0,1.88.82,5.31,5.31,0,0,0,1.06-.46l3.31-1.47A1.66,1.66,0,0,0,26.46,76.76Z"/><path class="cls-1" d="M130.29,75.71a3.48,3.48,0,0,0-1.62-1.28,2.77,2.77,0,0,1,.64-2.4,1.66,1.66,0,0,0-1.75-2.68.66.66,0,0,0-1.22,0c-1.16,1.7-1.92,3.63-3.17,5.28a1.42,1.42,0,0,0,.84,2.09c.63.11,1.34.11,2,.19.08.19.17.38.26.56a8.06,8.06,0,0,0,1.06,1.38,9,9,0,0,1-1,1.18,1.6,1.6,0,0,0,2.25,2.26c1.27-1.19,2.56-2.25,2.25-3.69A3.53,3.53,0,0,0,130.29,75.71Z"/><path class="cls-1" d="M87.51,29.88c-1.38-.54-2.79-1.21-4.23-1.74-.49-.27-1-.57-1.46-.9-.15-.11-.3-.22-.46-.32-1.85-1.24-3.52,1.71-1.73,3a18.39,18.39,0,0,0,7,3.12A1.63,1.63,0,0,0,87.51,29.88Z"/><path class="cls-1" d="M110.49,39.26c-2.35-1.4-5.25-2.23-7.79-3.26-1.26-.5-2.17.72-2.09,1.83a.73.73,0,0,0,.11.51,1.55,1.55,0,0,0,.67.77,34.91,34.91,0,0,0,5.52,2.63,1.51,1.51,0,0,0,.68.08,16.55,16.55,0,0,0,1.62.48A1.67,1.67,0,0,0,110.49,39.26Z"/><path class="cls-1" d="M60.79,22a1.65,1.65,0,0,0-1.74-1.11,2.09,2.09,0,0,0-.29-.23,1.47,1.47,0,0,0-1.47-.63l-.69,2.75c0,.13-.06.27-.1.4A1.6,1.6,0,0,1,55,24.45l0,0a2.31,2.31,0,0,0,.91.32,2.45,2.45,0,0,0,1.84-.44A1.88,1.88,0,0,0,59,24.8,2.07,2.07,0,0,0,60.79,22Z"/><path class="cls-1" d="M51.06,6.21a1.56,1.56,0,0,0-1.46.42.8.8,0,0,0-.92,0,2.34,2.34,0,0,0-1,1.68,1.68,1.68,0,0,0-.08.87v.21a1.21,1.21,0,0,0,.54,1,1.33,1.33,0,0,0,.56.59,1.47,1.47,0,0,0,1.65-.13,2.13,2.13,0,0,0,1.1-.71,3.88,3.88,0,0,0,.75-2.43A1.51,1.51,0,0,0,51.06,6.21Z"/><path class="cls-1" d="M93.08,127.69a5,5,0,0,1-.12-1.08c.18-.31.33-.62.46-.89a3.68,3.68,0,0,0-.11-3.44,1.47,1.47,0,0,0-2.52,0,5.82,5.82,0,0,0-.29.78,2.18,2.18,0,0,0-1.14.08.23.23,0,0,0,.06.45c.6,0-.2,1.61-.3,1.93a2.32,2.32,0,0,0-.07,1.33,1.89,1.89,0,0,0,1.08,1.28,4.82,4.82,0,0,0,.38,1.2c-.78.94-.55,2.73,1,2.54a4.74,4.74,0,0,0,3.1-1.56A1.58,1.58,0,0,0,93.08,127.69Z"/><path class="cls-1" d="M65,107.23a1.18,1.18,0,0,0-.53-.55v0a1.32,1.32,0,0,0-.61-.86l0,0a.76.76,0,0,0-.34-1.08.53.53,0,0,0-.52,0c-1.66,1.24-2.57,3.26-3.72,4.93-.73,1.07.75,2.62,1.83,1.83a10.38,10.38,0,0,0,1.07-.92,1.62,1.62,0,0,0,3-.14A4.12,4.12,0,0,0,65,107.23Z"/><path class="cls-1" d="M27,110.21a4.31,4.31,0,0,0-.24-1.12.7.7,0,0,0-1.34,0,3.9,3.9,0,0,0-.16.84,1.28,1.28,0,0,0-.93.9,4.77,4.77,0,0,0-.16.75,1.31,1.31,0,0,0,.74,1.52,1.55,1.55,0,0,0,.71.08,1.2,1.2,0,0,0,1.57-.46,2.93,2.93,0,0,0,.37-1.5A1.2,1.2,0,0,0,27,110.21Z"/><path class="cls-1" d="M85.76,12.46a1.88,1.88,0,0,0-.35.34c-.26.33-.29.37-.1.12a2.54,2.54,0,0,1-.86.22,5.72,5.72,0,0,1-1.88-.38.65.65,0,0,0-.72.93c.9,1.81,4.14,2,5.68,1.07C89.31,13.69,87.44,11.09,85.76,12.46Z"/><path class="cls-2" d="M23.16,51.46c-2.48,0-3.84-1.65-3.84-4.62,0-3.61,4.75-12.59,7.23-16.09a31.67,31.67,0,0,1,6.51-6.29,48.14,48.14,0,0,0,4.17-3.56.5.5,0,0,1,.73,0,.52.52,0,0,1,0,.73,47.91,47.91,0,0,1-4.25,3.64,30.47,30.47,0,0,0-6.31,6.08c-2.48,3.48-7,12.21-7,15.49,0,3.58,2.11,3.58,2.81,3.58a6,6,0,0,0,1.33-.16.51.51,0,0,1,.63.37.52.52,0,0,1-.38.63A6.52,6.52,0,0,1,23.16,51.46Z"/><path class="cls-2" d="M45.51,23.61a.53.53,0,0,1-.46-.28,5.23,5.23,0,0,0-4.84-2.54,8.84,8.84,0,0,0-2.14.27.52.52,0,0,1-.25-1,9.84,9.84,0,0,1,2.39-.3A6.15,6.15,0,0,1,46,22.85a.51.51,0,0,1-.22.7A.46.46,0,0,1,45.51,23.61Z"/><path class="cls-2" d="M37.24,53a16.36,16.36,0,0,1-6.61-1.22,6.69,6.69,0,0,0-2.34-.58l-.77,0-.78,0a.52.52,0,1,1,0-1l.74,0,.81,0a7.32,7.32,0,0,1,2.7.65A15.72,15.72,0,0,0,37.24,52a24.39,24.39,0,0,0,9.7-2.19.53.53,0,0,1,.69.27.52.52,0,0,1-.27.68A25.42,25.42,0,0,1,37.24,53Z"/><path class="cls-2" d="M48.68,55.64a.54.54,0,0,1-.33-.12,24.72,24.72,0,0,1-3.86-4,.51.51,0,0,1,.11-.72.5.5,0,0,1,.72.1A23.08,23.08,0,0,0,49,54.73a.52.52,0,0,1-.34.91Z"/><path class="cls-2" d="M32.05,42.43a.52.52,0,0,1-.52-.52c0-1.43.82-3.17,1.85-5.39a30.82,30.82,0,0,0,3.13-9.41.52.52,0,0,1,.51-.46,5.51,5.51,0,0,0,3.88-1.58.53.53,0,0,1,.52-.15.54.54,0,0,1,.37.39c.23,1.12.72,1.12.93,1.12a1.24,1.24,0,0,0,.69-.22l.21-.1a.51.51,0,0,1,.46.92l-.19.1a2.28,2.28,0,0,1-1.17.34A1.78,1.78,0,0,1,41,26.34a6.83,6.83,0,0,1-3.56,1.33A32.71,32.71,0,0,1,34.32,37c-.94,2-1.75,3.75-1.75,4.95A.53.53,0,0,1,32.05,42.43Z"/><path class="cls-2" d="M43.47,30.59a3.9,3.9,0,0,1-1-.18,2.83,2.83,0,0,0-.76-.15h-.28c-1.06,0-1.27-1.12-1.44-2a4.13,4.13,0,0,0-.43-1.4.52.52,0,0,1,.15-.72.51.51,0,0,1,.71.14A4.83,4.83,0,0,1,41,28.07c.1.49.23,1.17.43,1.17h.28a3.76,3.76,0,0,1,1,.18,3,3,0,0,0,.77.15c1.46,0,2.56-2.5,3.16-4A2.13,2.13,0,0,1,46,24a.52.52,0,1,1,1,0c0,.23,0,.79.38.93a.51.51,0,0,1,.29.67l0,.07C47,27.38,45.75,30.59,43.47,30.59Z"/><path class="cls-2" d="M32.87,42.54a.48.48,0,0,1-.32-.11.52.52,0,0,1-.08-.73,11.48,11.48,0,0,1,8.81-4A10.89,10.89,0,0,1,47,39.26a.52.52,0,1,1-.54.88,9.93,9.93,0,0,0-5.16-1.38,10.39,10.39,0,0,0-8,3.6A.52.52,0,0,1,32.87,42.54Z"/><path class="cls-2" d="M35.35,45.26a.52.52,0,0,1-.51-.43.52.52,0,0,1,.43-.6,36.77,36.77,0,0,1,4-.36,29.12,29.12,0,0,0,4.56-.46.52.52,0,0,1,.21,1,30.36,30.36,0,0,1-4.72.49,34.19,34.19,0,0,0-3.91.34Z"/><path class="cls-2" d="M23,50.26a.51.51,0,0,1-.43-.23.52.52,0,0,1,.14-.72,1.28,1.28,0,0,0,.79-1.42,1.63,1.63,0,0,0-.77-1.5.52.52,0,0,1-.26-.68.51.51,0,0,1,.68-.26,2.52,2.52,0,0,1,1.38,2.44,2.26,2.26,0,0,1-1.24,2.28A.52.52,0,0,1,23,50.26Z"/><path class="cls-2" d="M30.63,50h-.05a9.2,9.2,0,0,1-3.13-1.11.52.52,0,0,1,.46-.93,8.37,8.37,0,0,0,2.78,1,.52.52,0,0,1,.46.57A.53.53,0,0,1,30.63,50Z"/><path class="cls-2" d="M16.88,63.77a2.12,2.12,0,0,1-1.43-.51.52.52,0,1,1,.73-.73,1.12,1.12,0,0,0,.7.2c.75,0,1.65-.63,1.65-1,0-.56-.56-.83-1.48-1.2s-1.8-.73-1.8-1.71a2.78,2.78,0,0,1,2.52-2.52,2.22,2.22,0,0,1,.67.1.51.51,0,0,1,.34.65.51.51,0,0,1-.65.34,1.13,1.13,0,0,0-.36-.06c-.93,0-1.48,1.18-1.48,1.49s.58.52,1.15.75c.89.36,2.12.86,2.12,2.16C19.56,62.81,18.09,63.77,16.88,63.77Z"/><path class="cls-2" d="M19.89,57.9a.52.52,0,0,1-.11-1,14.12,14.12,0,0,1,1.7-.22,10.66,10.66,0,0,0,1.86-.28.52.52,0,0,1,.28,1,12,12,0,0,1-2.05.31,12.66,12.66,0,0,0-1.57.21Z"/><path class="cls-2" d="M21.75,63.28a.51.51,0,0,1-.51-.43,13.29,13.29,0,0,1-.17-2.33c0-.43,0-.87,0-1.31s0-.86,0-1.29c0-.22,0-.43,0-.65a.52.52,0,1,1,1,0c0,.23,0,.46,0,.69,0,.44,0,.88,0,1.32s0,.86,0,1.28a12.29,12.29,0,0,0,.16,2.16.52.52,0,0,1-.42.6Z"/><path class="cls-2" d="M25.34,64.05a.5.5,0,0,1-.51-.47l-.1-1c-.15-1.75-.31-3.55-.37-5.32a.52.52,0,0,1,.45-.54c.21,0,.42,0,.62,0A2.22,2.22,0,0,1,27.81,59a2.48,2.48,0,0,1-1.3,2.08,3.67,3.67,0,0,0-.34.27c.06.14.33.49,1.55,1.26l.08,0a.52.52,0,1,1-.56.87l-.07-.05a9.45,9.45,0,0,1-1.4-1l.09,1a.52.52,0,0,1-.47.56Zm.07-6.38c.05.93.11,1.86.19,2.8.1-.09.21-.16.31-.24.52-.38.87-.67.87-1.24A1.22,1.22,0,0,0,25.41,57.67Z"/><path class="cls-2" d="M29.73,63.59a.5.5,0,0,1-.33-.12.52.52,0,0,1-.19-.36l-.09-1.39c-.09-1.47-.18-3-.4-4.46a.54.54,0,0,1,.1-.39.52.52,0,0,1,.34-.2l1-.17c.44-.08.9-.16,1.36-.21a.51.51,0,0,1,.58.45.53.53,0,0,1-.45.58c-.44,0-.88.12-1.31.2l-.56.1c.17,1.34.26,2.71.34,4,0,.28,0,.56.05.85l1.6-.12H32a.52.52,0,0,1,.56.48.52.52,0,0,1-.49.55h-.16c-.69,0-1.4.09-2.1.17Z"/><path class="cls-2" d="M31.21,60.65c-.42,0-.84,0-1.25-.08l-.43,0a.5.5,0,0,1-.47-.55.52.52,0,0,1,.56-.48l.44,0a7.32,7.32,0,0,0,1.8,0,.53.53,0,0,1,.6.43.52.52,0,0,1-.43.59A4.18,4.18,0,0,1,31.21,60.65Z"/><path class="cls-2" d="M33.42,63.41h-.08a.52.52,0,0,1-.43-.6c.13-.79.25-1.58.37-2.37.17-1.12.35-2.27.54-3.41a.53.53,0,0,1,.43-.43.52.52,0,0,1,.54.27c.34.64.68,1.28,1,1.93.23.43.46.88.69,1.32V60c.08-1.2.16-2.44.19-3.66a.49.49,0,0,1,.52-.5.51.51,0,0,1,.51.53c0,1.23-.11,2.48-.19,3.69,0,.64-.08,1.29-.11,1.93a.55.55,0,0,1-.4.48.52.52,0,0,1-.57-.26c-.55-1-1.07-2-1.57-2.94l-.29-.55c-.1.63-.19,1.26-.29,1.88-.12.79-.24,1.58-.37,2.38A.52.52,0,0,1,33.42,63.41Z"/><path class="cls-2" d="M40.14,57.22a7.19,7.19,0,0,1-1.29-.1.52.52,0,1,1,.17-1,6.26,6.26,0,0,0,1.12.08l.81,0c.46,0,.93,0,1.41,0a.52.52,0,1,1-.06,1c-.44,0-.88,0-1.31,0Z"/><path class="cls-2" d="M40.74,63.31a.52.52,0,0,1-.51-.44A28.45,28.45,0,0,1,40,59.46c0-.94-.08-1.9-.19-2.85a.51.51,0,1,1,1-.13c.12,1,.16,2,.2,2.94a29.4,29.4,0,0,0,.26,3.29.52.52,0,0,1-.43.59Z"/><path class="cls-2" d="M43.87,62.83a.51.51,0,0,1-.51-.46c-.08-.81-.12-1.64-.16-2.44a30.15,30.15,0,0,0-.29-3.56.52.52,0,0,1,.43-.59.51.51,0,0,1,.59.43,30.62,30.62,0,0,1,.31,3.67c0,.79.07,1.6.15,2.39a.52.52,0,0,1-.47.56Z"/><path class="cls-2" d="M46.76,62.52a.51.51,0,0,1-.51-.42,21.44,21.44,0,0,1-.28-4c0-.7,0-1.42,0-2.12a.52.52,0,1,1,1-.06c0,.72,0,1.46.06,2.17a20.82,20.82,0,0,0,.26,3.79.52.52,0,0,1-.41.61Z"/><path class="cls-2" d="M46.24,60h-2.5a.51.51,0,0,1-.51-.52.52.52,0,0,1,.51-.52h2.5a.52.52,0,0,1,.52.52A.52.52,0,0,1,46.24,60Z"/><path class="cls-2" d="M8.23,60.39c-3.57,0-5.5-2.34-5.5-4.54a3.86,3.86,0,0,1,3.19-3.93c.42-1.34,1.81-6.29,2.75-9.71A3.63,3.63,0,0,0,8,41a6.17,6.17,0,0,1-1.38-3.51,4.6,4.6,0,0,1,4.74-4.32c2.21,0,5.18,2.33,5.18,4.7,0,1.85-1.79,3.34-3.1,4.42a8.91,8.91,0,0,0-1,.9A6.15,6.15,0,0,1,13,45.44a10.9,10.9,0,0,1-1.49,4.66A6.18,6.18,0,0,0,10.7,52a2.89,2.89,0,0,0,.85,1.66,4.46,4.46,0,0,1,1.27,2.89C12.82,59.18,10.44,60.39,8.23,60.39ZM6.09,53a2.84,2.84,0,0,0-2.32,2.9c0,2.28,2.29,3.51,4.46,3.51s3.56-1.11,3.56-2.83a3.52,3.52,0,0,0-1-2.24A3.75,3.75,0,0,1,9.67,52a6.13,6.13,0,0,1,.86-2.35,10,10,0,0,0,1.39-4.19,5.1,5.1,0,0,0-.48-2,.54.54,0,0,1-.06-.25c0-.53.53-1,1.42-1.71,1.15-1,2.72-2.26,2.72-3.62,0-1.73-2.46-3.66-4.14-3.66s-3.7,1.35-3.7,3.28a5.18,5.18,0,0,0,1.2,2.93,3.64,3.64,0,0,1,.83,1.85.34.34,0,0,1,0,.14C8.08,48.22,7.36,50.76,7,51.88a.53.53,0,0,1,.36.53.52.52,0,0,1-.55.48H6.58A.48.48,0,0,1,6.09,53Z"/><path class="cls-2" d="M12.37,40.45a.48.48,0,0,1-.36-.16.5.5,0,0,1,0-.73l.19-.19a4.69,4.69,0,0,0,1-1.22.51.51,0,1,1,.92.46,5.71,5.71,0,0,1-1.19,1.5l-.19.18A.5.5,0,0,1,12.37,40.45Z"/><path class="cls-2" d="M8.05,58.18a.51.51,0,0,1-.51-.44A.52.52,0,0,1,8,57.15a2.14,2.14,0,0,0,1.23-.89c.14-.15.27-.3.41-.44a.5.5,0,0,1,.73,0,.52.52,0,0,1,0,.73l-.36.39a3.08,3.08,0,0,1-1.87,1.24Z"/><path class="cls-2" d="M17.68,29h-.06a2.09,2.09,0,0,1-2-2,2.22,2.22,0,0,1,1.55-2.29,1,1,0,0,1,.35-.06,2.17,2.17,0,0,1,1.63.64,2.25,2.25,0,0,1,.68,1.7A2.13,2.13,0,0,1,17.68,29Zm-.05-3.3h-.05l-.12,0a1.16,1.16,0,0,0-.81,1.24,1,1,0,0,0,1,1h0a1.11,1.11,0,0,0,1.12-1,1.25,1.25,0,0,0-.37-.91A1.18,1.18,0,0,0,17.63,25.66Z"/><path class="cls-2" d="M21.47,32.9H21.4a.52.52,0,0,1-.5-.63,12.84,12.84,0,0,1,2.66-4.81c.46-.61.94-1.24,1.34-1.87a.52.52,0,0,1,.71-.16.51.51,0,0,1,.16.71c-.42.67-.91,1.32-1.39,1.95A12.75,12.75,0,0,0,22,32.25a.57.57,0,0,1,0,.13A.51.51,0,0,1,21.47,32.9Z"/><path class="cls-2" d="M26.94,21.92a.48.48,0,0,1-.34-.13c-.9-.78-1.78-1.58-2.63-2.36a.5.5,0,0,1-.08-.67l.66-1c.48-.73,1-1.48,1.53-2.17a.51.51,0,0,1,.78,0c.3.31.59.63.88.94.56.6,1.08,1.16,1.66,1.68a.53.53,0,0,1,.07.69c-.45.64-.93,1.27-1.4,1.89-.24.32-.48.63-.71.95a.54.54,0,0,1-.37.21Zm-2-3,1.87,1.68.38-.51c.38-.49.76-1,1.12-1.5-.48-.47-.93-1-1.38-1.44l-.45-.49c-.39.53-.76,1.09-1.12,1.63Z"/><path class="cls-2" d="M36.24,16.84a.53.53,0,0,1-.5-.37.51.51,0,0,1,.35-.64c1.81-.56,3.75-2,3.75-3.61,0-.8-.26-1.17-.9-1.26a1.8,1.8,0,0,1-1.77,1.45c-.21,0-.72-.08-.72-.9A1.68,1.68,0,0,1,38,10c0-1.06-.78-2.31-1.74-2.31s-2.12,1.09-2.66,2.22a2.13,2.13,0,0,1,1.54,1.92,1.64,1.64,0,0,1-1.57,1.53c-1,0-1.33-1.52-1.33-2.21V11c-.78.33-1.56,1.08-1.56,1.75,0,.89.79,1.84,3,1.84a10.87,10.87,0,0,0,1.65-.15.51.51,0,0,1,.6.42.52.52,0,0,1-.42.6,10.79,10.79,0,0,1-1.83.16c-3,0-4-1.55-4-2.87s1.5-2.63,2.84-2.91c.6-1.62,2.2-3.26,3.78-3.26S39,8.35,39.06,9.93a2,2,0,0,1,1.81,2.29c0,2.37-2.68,4-4.48,4.6Zm-2.92-6a2.09,2.09,0,0,0,0,.25,2.23,2.23,0,0,0,.33,1.17c.15,0,.5-.21.5-.49A1.1,1.1,0,0,0,33.32,10.85Zm4.35.33-.07.06Z"/><path class="cls-2" d="M48.15,13.13h-.09a.51.51,0,0,1-.41-.4,23.49,23.49,0,0,1-.44-3.82c-.35-.17-.72-.32-1.1-.48l-.39-.16a.52.52,0,0,1-.32-.46.51.51,0,0,1,.3-.48l.92-.46c.53-.26,1.07-.53,1.62-.77V6a10,10,0,0,1,.41-3.44.51.51,0,0,1,.48-.34.54.54,0,0,1,.49.33c.37,1,.77,2,1.22,3,.37.11.74.24,1.09.38a10.3,10.3,0,0,0,1.43.46.51.51,0,0,1,.4.37.53.53,0,0,1-.17.53c-.4.34-.82.69-1.19,1.06a18.07,18.07,0,0,0,.64,2.54.54.54,0,0,1-.12.53.51.51,0,0,1-.54.12,17.75,17.75,0,0,1-2.07-.86l-.25.3a19.14,19.14,0,0,0-1.48,1.91A.52.52,0,0,1,48.15,13.13Zm-1-5.38c.26.11.52.22.78.35a.51.51,0,0,1,.29.45,22.2,22.2,0,0,0,.22,2.77c.27-.34.54-.67.82-1l.5-.6a.52.52,0,0,1,.63-.13c.49.24.93.44,1.35.62-.16-.59-.29-1.23-.42-1.94a.55.55,0,0,1,.14-.44q.35-.36.72-.69l-.63-.24a10.68,10.68,0,0,0-1.21-.4A.52.52,0,0,1,50,6.21c-.25-.54-.48-1.08-.69-1.61,0,.45,0,.93,0,1.41v.42A.53.53,0,0,1,49,6.9C48.36,7.16,47.76,7.46,47.17,7.75Z"/><path class="cls-2" d="M50.58,20.69h-.12a2.22,2.22,0,0,1-2-2.21,2.37,2.37,0,0,1,.87-1.85A1.68,1.68,0,0,1,50,16.3a2.35,2.35,0,0,1,.59-.1,2.18,2.18,0,0,1,2.26,1.94A2.4,2.4,0,0,1,52.14,20,2.19,2.19,0,0,1,50.58,20.69ZM50,17.43a1.38,1.38,0,0,0-.48,1,1.18,1.18,0,0,0,1,1.19,1.17,1.17,0,0,0,.88-.37,1.4,1.4,0,0,0,.38-1.06,1.15,1.15,0,0,0-1.2-1,1.06,1.06,0,0,0-.31.05A.92.92,0,0,0,50,17.43Z"/><path class="cls-2" d="M67,19.16a.49.49,0,0,1-.38-.17,83.33,83.33,0,0,0-8.41-7.83.52.52,0,0,1-.16-.57.53.53,0,0,1,.48-.35c1.12,0,2.29-.07,3.73-.15-.1-1.28-.14-2.56-.17-3.8,0-1.52-.09-3.09-.26-4.62a.52.52,0,1,1,1-.11c.18,1.57.22,3.16.26,4.7s.08,2.85.22,4.26a.51.51,0,0,1-.12.39.54.54,0,0,1-.36.18c-1.1.07-2.06.12-3,.15a78.43,78.43,0,0,1,7,6.53,26.48,26.48,0,0,1,5.38-6.47c-.76-.08-1.53-.19-2.33-.32a.51.51,0,0,1-.43-.47c-.14-1.51-.2-3.15-.2-5.15,0-1.23,0-2.49,0-3.7l0-1.15A.52.52,0,0,1,69.85,0a.52.52,0,0,1,.51.53l0,1.15c0,1.21,0,2.45,0,3.68,0,1.79,0,3.29.16,4.66,1.07.17,2.08.29,3.09.36a.52.52,0,0,1,.29.92,25.3,25.3,0,0,0-6.43,7.59.5.5,0,0,1-.39.26Z"/><path class="cls-2" d="M66,13.87a.52.52,0,0,1-.52-.52c0-2.88,0-6.3-.39-9.75A.53.53,0,0,1,65.6,3a.51.51,0,0,1,.56.47c.35,3.5.39,6.94.39,9.85A.51.51,0,0,1,66,13.87Z"/><path class="cls-2" d="M65.88,14.49a.51.51,0,0,1-.33-.11L65.11,14a7,7,0,0,0-2-1.28.51.51,0,0,1-.31-.66.52.52,0,0,1,.67-.31,7.64,7.64,0,0,1,2.25,1.45l.11.09.87-.67.84-.66a.52.52,0,1,1,.65.81c-.28.23-.58.45-.87.67l-1.15.91A.54.54,0,0,1,65.88,14.49Z"/><path class="cls-2" d="M84.82,16.23a9.88,9.88,0,0,1-3.89-.8.52.52,0,0,1-.31-.44c-.12-1.9-.16-3.81-.2-5.66,0-1.28-.06-2.6-.12-3.9a.53.53,0,0,1,.39-.52,2.38,2.38,0,0,0,1.68-1.53.53.53,0,0,1,.46-.28h.51A20.61,20.61,0,0,0,86.15,3a.53.53,0,0,1,.55.31,1.55,1.55,0,0,0,1.71.94.48.48,0,0,1,.41.11.49.49,0,0,1,.18.38c.06,1.58.09,3.17.13,4.71,0,1.75.08,3.56.15,5.35a.52.52,0,0,1-.28.48A9,9,0,0,1,84.82,16.23ZM81.63,14.6a8.86,8.86,0,0,0,3.19.6,8,8,0,0,0,3.41-.74c-.06-1.69-.1-3.39-.14-5,0-1.37-.06-2.78-.1-4.18A2.55,2.55,0,0,1,85.93,4a23,23,0,0,1-2.59.12h-.2a3.25,3.25,0,0,1-1.79,1.65c.05,1.18.07,2.37.1,3.52C81.49,11,81.53,12.83,81.63,14.6Z"/><path class="cls-2" d="M83.19,12.77a.51.51,0,0,1-.09-1c.72-.13,1.43-.23,2.12-.33s1.38-.19,2.07-.32a.53.53,0,0,1,.61.42.52.52,0,0,1-.42.6c-.72.13-1.43.23-2.12.33s-1.37.19-2.07.32Z"/><path class="cls-2" d="M84.16,6.32A.53.53,0,0,1,83.68,6,.52.52,0,0,1,84,5.33,6.07,6.07,0,0,1,86.28,5h1.34a.5.5,0,0,1,.54.49.51.51,0,0,1-.49.54L87,6h-.72a4.92,4.92,0,0,0-1.92.28A.69.69,0,0,1,84.16,6.32Z"/><path class="cls-2" d="M93.58,4.66a1.5,1.5,0,0,1-1.09-.45A1.65,1.65,0,0,1,92,3a1.68,1.68,0,0,1,.54-1.21,1.35,1.35,0,0,1,.82-.34,1.67,1.67,0,0,1,1.25.4A1.54,1.54,0,0,1,95.14,3a1.69,1.69,0,0,1-.47,1.21A1.48,1.48,0,0,1,93.58,4.66Zm0-2.15h-.07a.38.38,0,0,0-.2.07.63.63,0,0,0-.2.47.59.59,0,0,0,.16.43.48.48,0,0,0,.71,0A.6.6,0,0,0,94.1,3a.47.47,0,0,0-.16-.37A.62.62,0,0,0,93.53,2.51Z"/><path class="cls-2" d="M111.59,16.6c-1,0-1.29-.86-1.5-1.43s-.28-.68-.44-.68a1.88,1.88,0,0,0-.86.31,3.23,3.23,0,0,1-1.7.53c-1.94,0-2.81-2.19-2.81-4.35a1.55,1.55,0,0,1,0-.22.68.68,0,0,0-.59-.44,2.18,2.18,0,0,0-1,.5,3.37,3.37,0,0,1-1.88.76c-1.81,0-2-1.43-2.09-2.37-.12-1.09-.23-1.44-1-1.44A6.39,6.39,0,0,0,95,8.93l-.59.36a.53.53,0,0,1-.71-.19.52.52,0,0,1,.19-.71l.57-.34a6.94,6.94,0,0,1,3.22-1.31c1.78,0,1.94,1.41,2,2.35.13,1.1.24,1.46,1.06,1.46a2.5,2.5,0,0,0,1.29-.59,3,3,0,0,1,1.61-.67,1.63,1.63,0,0,1,1.62,1.46V11c0,1.14.37,3.31,1.77,3.31a2.25,2.25,0,0,0,1.19-.39,2.75,2.75,0,0,1,1.37-.45c.92,0,1.22.83,1.42,1.37s.31.74.52.74.81-.49,1.17-.85a6.78,6.78,0,0,1,.78-.69.52.52,0,0,1,.72.14.53.53,0,0,1-.13.72,4.38,4.38,0,0,0-.64.57A3.06,3.06,0,0,1,111.59,16.6Z"/><path class="cls-2" d="M115.83,21.16a.52.52,0,0,1-.52-.52c0-.63,0-1.3-.06-1.94s-.06-1.33-.06-2a.52.52,0,1,1,1,0c0,.63,0,1.3.06,1.94s.07,1.33.07,2A.52.52,0,0,1,115.83,21.16Z"/><path class="cls-2" d="M113.83,19.29a.52.52,0,0,1-.52-.52.53.53,0,0,1,.52-.52,21.22,21.22,0,0,0,3.4-.18.52.52,0,0,1,.6.42.53.53,0,0,1-.43.6A21.56,21.56,0,0,1,113.83,19.29Z"/><path class="cls-2" d="M125.1,32.13a.69.69,0,0,1-.24-.05c-1.21-.62-2.2-1.15-3.1-1.67a.53.53,0,0,1-.21-.67c.32-.68.61-1.39.9-2.07s.45-1.09.7-1.63a.54.54,0,0,1,.32-.29.55.55,0,0,1,.43.06,18.23,18.23,0,0,0,3.28,1.69.59.59,0,0,1,.3.3.51.51,0,0,1,0,.42l-.51,1a28.92,28.92,0,0,1-1.4,2.63A.51.51,0,0,1,125.1,32.13Zm-2.41-2.38c.66.37,1.38.76,2.21,1.19.41-.69.76-1.42,1.11-2.13l.27-.56A18.65,18.65,0,0,1,123.85,27l-.45,1.07C123.18,28.62,122.94,29.19,122.69,29.75Z"/><path class="cls-2" d="M113.94,34a.54.54,0,0,1-.34-.12c-1.8-1.55-3.46-3.28-3.46-5.43,0-5.28,5.93-5.48,7.88-5.55a.5.5,0,0,1,.43.21.49.49,0,0,1,.07.48c-.52,1.44-.93,2.73-1.25,3.95a.51.51,0,0,1-.3.34c-.56.23-1.11.5-1.64.77l-.4.19a32.14,32.14,0,0,0-.47,4.65.53.53,0,0,1-.3.47A.57.57,0,0,1,113.94,34Zm3.35-10c-3,.19-6.12,1-6.12,4.48,0,1.44,1,2.73,2.29,3.91.08-1.28.28-2.57.47-3.84l0-.1a.5.5,0,0,1,.28-.39l.64-.31c.47-.24,1-.48,1.46-.69C116.6,26.06,116.91,25.05,117.29,24Z"/><path class="cls-2" d="M122,41.74c-3.24,0-5.34-2.24-5.34-5.72a8.24,8.24,0,0,1,.25-2,.52.52,0,0,1,.32-.36.5.5,0,0,1,.47.06,16.52,16.52,0,0,1,1.4,1.1c.44.37.86.73,1.3,1,.91-.38,1.81-.7,2.65-1a.53.53,0,0,1,.58.17l.36.46a15.69,15.69,0,0,0,1.1,1.3c.94-.08,1.89-.22,2.79-.35a.52.52,0,0,1,.55.73C127.85,38.28,126.22,41.74,122,41.74ZM117.71,35a8.22,8.22,0,0,0-.06,1c0,2.94,1.61,4.69,4.3,4.69a5.55,5.55,0,0,0,5-3.13c-.69.09-1.4.18-2.11.23a.49.49,0,0,1-.4-.14,14.39,14.39,0,0,1-1.36-1.58l-.12-.16c-.81.29-1.66.6-2.51,1a.52.52,0,0,1-.47,0,15.9,15.9,0,0,1-1.64-1.27C118.15,35.39,117.93,35.2,117.71,35Z"/><path class="cls-2" d="M82.34,24.92l-1.27,0a.53.53,0,0,1-.4-.22.52.52,0,0,1-.07-.45c.26-.81.59-1.6.91-2.37.19-.46.39-.93.56-1.4a.52.52,0,0,1,.47-.33.49.49,0,0,1,.49.3A18.35,18.35,0,0,0,85,24a.51.51,0,0,1,.06.52.5.5,0,0,1-.42.3A20.48,20.48,0,0,1,82.34,24.92Zm-.53-1c.63,0,1.24,0,1.82,0a17.84,17.84,0,0,1-1-1.9c0,.1-.08.2-.13.3C82.24,22.78,82,23.33,81.81,23.88Z"/><path class="cls-2" d="M94.8,21.68a.52.52,0,0,1-.51-.48c-.07-.86-.13-1.77-.13-2.62a.52.52,0,1,1,1,0c0,.81.07,1.7.13,2.54a.51.51,0,0,1-.48.55Z"/><path class="cls-2" d="M99.58,24.06h0a.52.52,0,0,1-.49-.55,10.08,10.08,0,0,1,.65-2.65l.15-.45a.52.52,0,0,1,.66-.32.51.51,0,0,1,.32.65l-.15.46a9.14,9.14,0,0,0-.6,2.38A.51.51,0,0,1,99.58,24.06Z"/><path class="cls-2" d="M103.13,25.35a.52.52,0,0,1-.34-.91A11.48,11.48,0,0,1,105.05,23c.29-.15.57-.29.85-.45a.52.52,0,0,1,.71.2.51.51,0,0,1-.2.7l-.88.47a10.75,10.75,0,0,0-2.07,1.28A.54.54,0,0,1,103.13,25.35Z"/><path class="cls-2" d="M88.67,34.28c-.12,0-11.31-1.75-11.31-5.93a2.25,2.25,0,0,1,2.26-2.29,18.64,18.64,0,0,1,3.95,1.14c1.14.39,2.32.8,3.32,1.09a9.64,9.64,0,0,1,4,2.25,1.68,1.68,0,0,1,.37,1.26A2.46,2.46,0,0,1,88.67,34.28Zm-9-7.18a1.22,1.22,0,0,0-1.23,1.25c0,2.84,9.06,4.8,10.3,4.89a1.44,1.44,0,0,0,1.55-1.44,1.43,1.43,0,0,0-.06-.53,8.75,8.75,0,0,0-3.57-2c-1-.29-2.23-.7-3.38-1.1A22,22,0,0,0,79.62,27.1Z"/><path class="cls-2" d="M109.73,43c-1.12,0-10.24-2.81-10.24-5.37,0-.64.6-2.89,2.51-2.89a6.32,6.32,0,0,1,2.15.51c.55.21,1.12.41,1.68.6,2.27.8,4.62,1.62,6.42,3.31a1,1,0,0,1,.26.72C112.51,40.54,111.82,43,109.73,43ZM102,35.77c-1.08,0-1.48,1.54-1.48,1.86s.86,1.32,4.1,2.69A23.93,23.93,0,0,0,109.73,42c1.43,0,1.74-2.07,1.74-2.09v0a16.8,16.8,0,0,0-6-3c-.57-.19-1.15-.4-1.71-.61A5.53,5.53,0,0,0,102,35.77Z"/><path class="cls-2" d="M84.42,27.93a.48.48,0,0,1-.32-.11.52.52,0,0,1-.09-.73c1.9-2.41,5.21-2.92,7.53-3.09a.52.52,0,1,1,.08,1c-2.13.16-5.14.61-6.79,2.71A.56.56,0,0,1,84.42,27.93Z"/><path class="cls-2" d="M88.61,29.61a.52.52,0,0,1-.43-.81c1.09-1.59,3.06-1.95,4.82-2.16a.53.53,0,0,1,.58.46.52.52,0,0,1-.46.57c-1.53.19-3.24.48-4.08,1.71A.51.51,0,0,1,88.61,29.61Z"/><path class="cls-2" d="M107.38,37.35h-.08a.5.5,0,0,1-.43-.59,11.51,11.51,0,0,0,.17-1.88c0-3-1.57-4.07-2-4.07a7.19,7.19,0,0,0-.91,0c0,.09.08.21.12.3a6.35,6.35,0,0,1,.58,2.59,4.52,4.52,0,0,1-.32,1.68.52.52,0,0,1-1-.38,3.53,3.53,0,0,0,.24-1.3,5.37,5.37,0,0,0-.49-2.19c-.19-.46-.38-.9-.11-1.3s.84-.48,1.85-.48,3,1.5,3,5.11a12.55,12.55,0,0,1-.18,2.05A.52.52,0,0,1,107.38,37.35Z"/><path class="cls-2" d="M93.19,27.48l-.15,0C91.77,27.06,91,26.23,91,25.3a2.08,2.08,0,0,1,.44-1.22.52.52,0,0,1,.83.61,1.05,1.05,0,0,0-.24.61c0,.52.67,1,1.34,1.17a.52.52,0,0,1-.16,1Z"/><path class="cls-2" d="M101.31,43.84c-6.34,0-18.18-3.14-18.18-10.68a.52.52,0,1,1,1,0c0,6.73,11.36,9.64,17.15,9.64,2,0,2.54-.82,2.91-1.37a1.91,1.91,0,0,1,.15-.21.51.51,0,0,1,.72-.11.52.52,0,0,1,.11.73l-.12.17A3.94,3.94,0,0,1,101.31,43.84Z"/><path class="cls-2" d="M98.59,40.13c-3.69,0-11.06-1.88-11.4-6.23a.51.51,0,0,1,.48-.55.53.53,0,0,1,.56.48c.26,3.45,6.88,5.26,10.36,5.26a4.2,4.2,0,0,0,1.88-.3.54.54,0,0,1,.7.23.53.53,0,0,1-.23.7A5.21,5.21,0,0,1,98.59,40.13Z"/><path class="cls-2" d="M76.53,44.71A4.53,4.53,0,0,1,72.07,40a4.21,4.21,0,0,1,3.55-4,4.85,4.85,0,0,1,.73-.07,4.45,4.45,0,0,1,3.15,1.23,4.35,4.35,0,0,1,1.26,3.13,4.3,4.3,0,0,1-4.05,4.38Zm-.73-7.66a3.2,3.2,0,0,0-2.7,3,3.49,3.49,0,0,0,3.56,3.63,3.27,3.27,0,0,0,3.06-3.35A3.22,3.22,0,0,0,76.39,37h0Z"/><path class="cls-2" d="M76.64,42.49a.51.51,0,0,1-.5-.4c-.06-.22-.11-.45-.16-.67a18.85,18.85,0,0,1-.52-2.59.51.51,0,1,1,1-.12,22.06,22.06,0,0,0,.5,2.47c.06.22.11.45.16.68a.51.51,0,0,1-.38.62Z"/><path class="cls-2" d="M74.74,41.22a.49.49,0,0,1-.32-.12.51.51,0,0,1-.19-.4v-.06a.51.51,0,0,1,.51-.52l.16,0,.48-.08a16.43,16.43,0,0,0,2.1-.49.52.52,0,0,1,.66.32.53.53,0,0,1-.33.66,16.15,16.15,0,0,1-2.25.52l-.71.14Z"/><path class="cls-2" d="M55.24,37.86a.52.52,0,0,1-.49-.37A17.65,17.65,0,0,1,54,32.23,28.15,28.15,0,0,1,57.8,18.28a.52.52,0,0,1,.91,0c.48.9.94,1.73,1.37,2.51,2.57,4.64,4.26,7.7,4.26,14.54A16,16,0,0,1,64.26,37a.52.52,0,0,1-.48.46c-1.19.09-2.39.11-3.55.14-1.62,0-3.29.07-4.92.27Zm3-18.24A27.07,27.07,0,0,0,55,32.23a16.84,16.84,0,0,0,.61,4.55c1.54-.17,3.08-.2,4.59-.24,1,0,2,0,3.06-.1,0-.34,0-.7,0-1.09,0-6.57-1.56-9.38-4.14-14C58.88,20.77,58.56,20.21,58.24,19.62Z"/><path class="cls-2" d="M57.77,39.65a.51.51,0,0,1-.49-.38,7.68,7.68,0,0,0-.66-1.73.53.53,0,0,1,.19-.71.52.52,0,0,1,.71.2,6.65,6.65,0,0,1,.63,1.54l.67-.07c.69-.06,1.4-.13,2.1-.23a6.83,6.83,0,0,1,.53-1.3.52.52,0,0,1,.7-.21.51.51,0,0,1,.21.7,5.48,5.48,0,0,0-.52,1.39.53.53,0,0,1-.43.39c-.83.13-1.67.22-2.49.29l-1.09.11Z"/><path class="cls-2" d="M53,39.68h-.1a.5.5,0,0,1-.39-.36,6.38,6.38,0,0,1-.3-1.9,4.21,4.21,0,0,1,1.45-3.36.52.52,0,0,1,.73.06.51.51,0,0,1-.06.73,3.27,3.27,0,0,0-1.08,2.57,5.31,5.31,0,0,0,.05.68A8.27,8.27,0,0,1,55,36.89a.52.52,0,0,1,.7.21.51.51,0,0,1-.2.7,7,7,0,0,0-2.07,1.69A.5.5,0,0,1,53,39.68Z"/><path class="cls-2" d="M66.5,38.8a.52.52,0,0,1-.29-.09,6.28,6.28,0,0,0-2.74-1.17A.51.51,0,0,1,63,37a.52.52,0,0,1,.57-.46,6.41,6.41,0,0,1,2.45.87A4.24,4.24,0,0,0,63.56,34,.52.52,0,0,1,64,33a5.25,5.25,0,0,1,3.08,4.56,4.9,4.9,0,0,1-.07.77.54.54,0,0,1-.31.39A.65.65,0,0,1,66.5,38.8Z"/><path class="cls-2" d="M59.17,33.59h-.11a2.24,2.24,0,0,1-1.53-.76A2.57,2.57,0,0,1,56.87,31a2.31,2.31,0,0,1,1-1.77,2.4,2.4,0,0,1,1.33-.44h.07A2.37,2.37,0,0,1,61.64,31a2.5,2.5,0,0,1-.75,1.91A2.41,2.41,0,0,1,59.17,33.59ZM58.43,30a1.27,1.27,0,0,0-.53,1,1.59,1.59,0,0,0,.4,1.11,1.24,1.24,0,0,0,.81.42,1.36,1.36,0,0,0,1-.43A1.46,1.46,0,0,0,60.6,31a1.33,1.33,0,0,0-1.43-1.22A1.28,1.28,0,0,0,58.43,30Z"/><path class="cls-2" d="M56.81,25a.51.51,0,0,1-.51-.49.5.5,0,0,1,.49-.54c.33,0,.66,0,1,0a8.58,8.58,0,0,0,2.79-.33.51.51,0,1,1,.34,1,9.67,9.67,0,0,1-3.12.4c-.32,0-.64,0-1,0Z"/><path class="cls-2" d="M55.59,59.17h-.06a3.24,3.24,0,0,1-3.08-3.26,3.64,3.64,0,0,1,1-2.43A3.46,3.46,0,0,1,52,50.76,4,4,0,0,1,54,47.49a3.87,3.87,0,0,1-.32-1.66,2.17,2.17,0,0,1,1.62-2.29,3.37,3.37,0,0,1-.18-1,3.76,3.76,0,0,1,2.38-3.38.52.52,0,0,1,.41.95,2.5,2.5,0,0,0-1.4,3.66.51.51,0,0,1,0,.52.5.5,0,0,1-.46.24h-.1c-1,0-1.21.72-1.21,1.33a2.28,2.28,0,0,0,.4,1.51.5.5,0,0,1,.12.44.55.55,0,0,1-.29.37,3,3,0,0,0-1.82,2.61,2.47,2.47,0,0,0,1.39,2.16.48.48,0,0,1,.3.4.53.53,0,0,1-.18.46,2.8,2.8,0,0,0-1.1,2.13,2.22,2.22,0,0,0,2.16,2.23.52.52,0,0,1,.45.57A.51.51,0,0,1,55.59,59.17Z"/><path class="cls-2" d="M70.16,49.6h-.09a.5.5,0,0,1-.42-.59,2.16,2.16,0,0,0,0-.35c0-1.32-1.36-1.69-1.77-1.77a.48.48,0,0,1-.34-.23.49.49,0,0,1-.06-.41,2.61,2.61,0,0,0,.09-.66,2.22,2.22,0,0,0-2.34-2.34,5.29,5.29,0,0,0-.86.08.53.53,0,0,1-.44-.11.56.56,0,0,1-.18-.42s0-.08,0-.13a2,2,0,0,0-1.63-2,.51.51,0,0,1-.44-.58.52.52,0,0,1,.59-.44,3,3,0,0,1,2.48,2.61l.47,0a3.24,3.24,0,0,1,3.37,3.38c0,.14,0,.28,0,.41a2.81,2.81,0,0,1,2.11,2.66,3.26,3.26,0,0,1,0,.52A.52.52,0,0,1,70.16,49.6Z"/><path class="cls-2" d="M60.83,81.6a.47.47,0,0,1-.34-.13.5.5,0,0,1-.18-.36L58.63,51.36a.54.54,0,0,1,.15-.4.53.53,0,0,1,.4-.14c.57,0,1.23.08,1.89.08a11.17,11.17,0,0,0,2.36-.23.51.51,0,0,1,.62.39.53.53,0,0,1-.39.62,12.11,12.11,0,0,1-2.59.25c-.47,0-.94,0-1.37,0l1.62,28.64.41,0c1.06-.07,2.15-.14,3.19-.29a.52.52,0,1,1,.15,1c-1.08.16-2.2.23-3.27.3l-.93.06Z"/><path class="cls-2" d="M66.17,51.69a.52.52,0,0,1,0-1c3.76-.19,7.61-.31,11.32-.43l5.75-.2a.52.52,0,0,1,.53.5.52.52,0,0,1-.49.54l-5.75.19c-3.72.12-7.56.25-11.31.43Z"/><path class="cls-2" d="M67.69,81.52a.52.52,0,0,1,0-1c3.79-.24,7.53-.38,11.66-.51a35.09,35.09,0,0,1,3.76-4.77l.2-.22-.09-.91c-.66-7.13-1.34-14.51-1.65-21.85a.52.52,0,0,1,.5-.54.52.52,0,0,1,.54.5c.3,7.31,1,14.67,1.64,21.8l.11,1.13a.52.52,0,0,1-.13.39l-.34.39a31.72,31.72,0,0,0-3.8,4.85.5.5,0,0,1-.43.25c-4.23.14-8.05.28-11.9.52Z"/><path class="cls-2" d="M63.39,63.68A1.48,1.48,0,0,1,62,63.05l-.15-.17a.51.51,0,0,1,0-.74.52.52,0,0,1,.73,0,2.6,2.6,0,0,1,.23.28c.14.18.18.23.62.23s1.49-.87,1.49-2.92c0-.08,0-2-.86-2a4.68,4.68,0,0,0-.77.09c-.24,0-.49.08-.74.1h-.07A1.38,1.38,0,0,1,61,56.67c0-1.34,1.36-2.09,2.63-2.35a.52.52,0,0,1,.61.41.51.51,0,0,1-.4.61c-.67.13-1.81.57-1.81,1.33a.57.57,0,0,0,.4.18,5.32,5.32,0,0,0,.64-.08,5,5,0,0,1,.94-.11c1.4,0,1.9,1.59,1.9,3.07C65.92,62.31,64.45,63.68,63.39,63.68Z"/><path class="cls-2" d="M67.22,62h0a.5.5,0,0,1-.48-.44c-.14-.86-.31-1.73-.47-2.57a39.72,39.72,0,0,1-.66-4.07.52.52,0,1,1,1-.09c.13,1.34.39,2.67.64,4l.09.42c.18-.58.38-1.14.59-1.7a.53.53,0,0,1,.47-.33.52.52,0,0,1,.48.31c.24.53.46,1.07.66,1.6.06.13.11.27.16.4a51.09,51.09,0,0,0,.45-5.39.52.52,0,0,1,1,0,63.33,63.33,0,0,1-.57,6.37l-.12,1a.53.53,0,0,1-.43.45.54.54,0,0,1-.55-.28c-.36-.72-.65-1.47-.94-2.2l-.13-.33c-.27.8-.51,1.63-.73,2.47A.52.52,0,0,1,67.22,62Z"/><path class="cls-2" d="M73.43,61.84c-.59,0-1.11-.49-1.47-1.37a8.29,8.29,0,0,1-.5-3,19.66,19.66,0,0,1,.22-2.65.57.57,0,0,1,.28-.39,1.57,1.57,0,0,1,1.4-1.15c.89,0,1.83,1,1.83,2.58,0,0,0,.44,0,1.2v.13C75.17,61.24,74.08,61.84,73.43,61.84Zm-.84-6c0,.51-.09,1.07-.09,1.63,0,2.21.67,3.3.93,3.33s.7-.79.7-3.61v-.13c0-.79,0-1.21,0-1.23,0-1-.58-1.52-.8-1.52s-.52.33-.52,1.09A.51.51,0,0,1,72.59,55.84Z"/><path class="cls-2" d="M77.72,54.65c-.58,0-1.17,0-1.73-.06a.53.53,0,0,1-.5-.55.52.52,0,0,1,.55-.49c.56,0,1.13.07,1.68.07a10,10,0,0,0,1.63-.12.51.51,0,0,1,.6.42.53.53,0,0,1-.43.6A10.94,10.94,0,0,1,77.72,54.65Z"/><path class="cls-2" d="M78,61.47a.51.51,0,0,1-.51-.43,19.84,19.84,0,0,1-.23-3.33A19.48,19.48,0,0,0,77,54.54a.52.52,0,1,1,1-.18,20,20,0,0,1,.23,3.34,19.28,19.28,0,0,0,.22,3.16.51.51,0,0,1-.42.6Z"/><path class="cls-2" d="M63.24,65.45a.52.52,0,0,1,0-1c.9-.06,1.81-.08,2.68-.1,1.15,0,2.34,0,3.53-.16a.52.52,0,0,1,.09,1c-1.22.11-2.43.13-3.59.16-.87,0-1.76,0-2.65.09Z"/><path class="cls-2" d="M73.34,64.75a.52.52,0,0,1-.09-1,15.36,15.36,0,0,1,2.11-.14,10.83,10.83,0,0,0,2.43-.23.5.5,0,0,1,.62.38.51.51,0,0,1-.37.63,11.67,11.67,0,0,1-2.66.25,13.91,13.91,0,0,0-2,.14Z"/><path class="cls-2" d="M63.62,67.55a.53.53,0,0,1-.52-.46.52.52,0,0,1,.46-.57,13.68,13.68,0,0,1,1.71-.09h1.65a.52.52,0,1,1,0,1H65.27a14.26,14.26,0,0,0-1.59.07Z"/><path class="cls-2" d="M69.59,67.1a.51.51,0,0,1-.52-.49.52.52,0,0,1,.5-.54l1.5-.06c2.4-.1,4.88-.2,7.28-.51a.51.51,0,0,1,.58.45.52.52,0,0,1-.44.58c-2.45.32-4.95.42-7.38.51l-1.5.06Z"/><path class="cls-2" d="M63.49,70a.52.52,0,1,1,0-1c2.68-.06,5.45-.13,8.17-.32a.52.52,0,0,1,.55.48.51.51,0,0,1-.48.55C69,69.83,66.2,69.9,63.49,70Z"/><path class="cls-2" d="M64.36,77.49a.51.51,0,0,1-.51-.47c-.06-.68-.14-1.35-.21-2l-.1-.94a.55.55,0,0,1,.14-.4.52.52,0,0,1,.39-.17h.34c.44,0,.88,0,1.32,0a.53.53,0,0,1,.54.49c.06,1,.16,2,.25,2.82a.52.52,0,0,1-.48.57c-.55,0-1.09.06-1.64.11Zm.27-2.95,0,.35c.06.51.11,1,.16,1.53l.6,0c-.05-.56-.12-1.19-.16-1.83Z"/><path class="cls-2" d="M69.37,77.21H69.1a.52.52,0,0,1-.51-.47c-.12-1.32-.21-2.75-.27-4.37a.54.54,0,0,1,.15-.38.52.52,0,0,1,.37-.16c.36,0,.7,0,1,0s.58,0,.86,0a.53.53,0,0,1,.51.49c0,.83.07,1.67.1,2.48,0,.57,0,1.14.05,1.72a.5.5,0,0,1-.47.54C70.36,77.19,69.85,77.21,69.37,77.21Zm0-4.33c.05,1.19.12,2.28.2,3.29l.77,0c0-.41,0-.82,0-1.23,0-.65,0-1.31-.07-2l-.43,0Z"/><path class="cls-2" d="M75.46,77H73.71a.52.52,0,0,1-.52-.48c-.06-.83-.1-1.66-.15-2.49s-.1-1.8-.17-2.7a.56.56,0,0,1,.13-.39.55.55,0,0,1,.38-.16c.76,0,1.33,0,1.86-.09a.54.54,0,0,1,.4.13.52.52,0,0,1,.17.39v.18c0,1.75.09,3.54.17,5.08a.58.58,0,0,1-.15.39A.51.51,0,0,1,75.46,77ZM74.19,76h.72c-.06-1.31-.13-2.76-.14-4.2l-.83,0c0,.73.09,1.46.13,2.17Z"/><path class="cls-2" d="M79,76.7h-.71a.52.52,0,0,1-.5-.47c-.22-2.22-.34-4-.35-5.75A.51.51,0,0,1,78,70c.52,0,1.07,0,1.63,0a.52.52,0,0,1,.52.48L80.25,72c.12,1.22.24,2.48.24,3.75v.4a.53.53,0,0,1-.46.5A8.16,8.16,0,0,1,79,76.7Zm-.23-1h.72c0-1.19-.12-2.4-.23-3.56,0-.36-.07-.71-.11-1.07h-.67C78.47,72.41,78.57,73.91,78.73,75.66Z"/><path class="cls-2" d="M72,79l-2.85,0c-1,0-1.89,0-2.84,0S64.71,79,64,79a.51.51,0,0,1-.53-.5A.52.52,0,0,1,64,78c.7,0,1.46,0,2.3,0l2.85,0c.94,0,1.89,0,2.84,0,1.75,0,3.16,0,4.44-.15a.52.52,0,0,1,.56.48.53.53,0,0,1-.48.56C75.18,79,73.74,79,72,79Z"/><path class="cls-2" d="M90.36,54.55a.5.5,0,0,1-.48-.33,23,23,0,0,0-2.55-4.56.52.52,0,0,1,.14-.72.53.53,0,0,1,.72.13,27.67,27.67,0,0,1,2.16,3.66c.31-.65.66-1.34,1.08-2.1a.5.5,0,0,1,.46-.27.52.52,0,0,1,.46.29c.27.56.54,1.13.81,1.72.52-1.25,1.13-2.46,1.76-3.68a.52.52,0,0,1,.7-.23.51.51,0,0,1,.22.7,41.26,41.26,0,0,0-2.15,4.71.52.52,0,0,1-.46.35.5.5,0,0,1-.5-.31q-.44-1-.87-1.89c-.41.79-.74,1.51-1,2.2A.52.52,0,0,1,90.36,54.55Z"/><path class="cls-2" d="M97.3,55.57a.5.5,0,0,1-.31-.1.51.51,0,0,1-.21-.41,45.64,45.64,0,0,0-.37-5.48l0-.32a.51.51,0,0,1,.37-.55,18.74,18.74,0,0,1,3.11-.64.52.52,0,0,1,.06,1,15,15,0,0,0-2.46.48c.16,1.4.3,2.75.35,4.79.34-.09.68-.16,1-.24l.9-.22a.52.52,0,0,1,.26,1l-.93.22c-.54.12-1.09.25-1.61.4A.39.39,0,0,1,97.3,55.57Z"/><path class="cls-2" d="M97.3,52.75a.53.53,0,0,1-.51-.43.52.52,0,0,1,.42-.6c.32-.06.63-.1.94-.13s.79-.1,1.16-.19a.52.52,0,0,1,.63.38.53.53,0,0,1-.39.63,11.53,11.53,0,0,1-1.27.2l-.88.13Z"/><path class="cls-2" d="M101.75,55.57h-.08a.52.52,0,0,1-.44-.59c.44-2.84,1-5.42,1.33-6.9a.52.52,0,0,1,1-.08,24.61,24.61,0,0,1,1.92,6.81.53.53,0,0,1-.47.56.52.52,0,0,1-.56-.47A20.14,20.14,0,0,0,103.2,50c-.3,1.42-.64,3.24-.94,5.18A.52.52,0,0,1,101.75,55.57Z"/><path class="cls-2" d="M102.51,52.65a.52.52,0,0,1-.06-1,7.71,7.71,0,0,1,.9,0h.84a.51.51,0,0,1,.51.52.52.52,0,0,1-.51.52h-.84a5.59,5.59,0,0,0-.77,0Z"/><path class="cls-2" d="M107.43,54.58h0a.5.5,0,0,1-.49-.54c0-.18,0-.36,0-.54,0-.8-.08-1.61-.15-2.4s-.15-1.65-.15-2.49c0-.27,0-.53,0-.77a.53.53,0,0,1,.55-.49.52.52,0,0,1,.49.55c0,.23,0,.46,0,.71,0,.79.07,1.6.14,2.39s.15,1.66.15,2.5c0,.19,0,.39,0,.59A.51.51,0,0,1,107.43,54.58Z"/><path class="cls-2" d="M110.51,54.65a.49.49,0,0,1-.34-.14,16.87,16.87,0,0,1-1.69-1.81c-.36-.42-.74-.86-1.13-1.26a.53.53,0,0,1,0-.7,34.39,34.39,0,0,0,2.49-3.22.53.53,0,0,1,.72-.15.52.52,0,0,1,.14.72,32.56,32.56,0,0,1-2.26,3c.29.32.57.65.85,1a17.5,17.5,0,0,0,1.59,1.72.52.52,0,0,1,0,.73A.56.56,0,0,1,110.51,54.65Z"/><path class="cls-2" d="M112.91,54.05h-.07a.52.52,0,0,1-.44-.59c.1-.74.18-1.26.24-1.65a24.78,24.78,0,0,0,.3-3.05.52.52,0,0,1,.38-.46.51.51,0,0,1,.56.2,26.6,26.6,0,0,1,1.73,2.91c.26-1.43.46-2.93.46-3.25a1.88,1.88,0,0,0-.06-.49.52.52,0,0,1,1-.26,3,3,0,0,1,.09.75,34.91,34.91,0,0,1-.8,4.94.5.5,0,0,1-.45.39.51.51,0,0,1-.52-.29c-.21-.45-.75-1.59-1.46-2.8-.05.52-.1.83-.21,1.56,0,.4-.13.91-.24,1.65A.51.51,0,0,1,112.91,54.05Z"/><path class="cls-2" d="M119.32,53.64a.53.53,0,0,1-.23-.06.53.53,0,0,1-.28-.37c-.25-1.45-.5-3.88-.65-5.67a.56.56,0,0,1,.15-.41.53.53,0,0,1,.42-.14l1.15.11c.77.08,1.57.17,2.35.19a.52.52,0,0,1,0,1c-.83,0-1.66-.11-2.45-.19l-.52-.05c.12,1.4.29,3.05.48,4.28a14.41,14.41,0,0,1,2.43-.74l.14,0a.52.52,0,1,1,.23,1l-.15,0a11.32,11.32,0,0,0-2.82.94A.48.48,0,0,1,119.32,53.64Z"/><path class="cls-2" d="M119.2,51a.52.52,0,0,1-.12-1,9,9,0,0,1,1.24-.17,6.82,6.82,0,0,0,.92-.1.52.52,0,0,1,.6.42.51.51,0,0,1-.42.6c-.35.06-.69.09-1,.12a7.23,7.23,0,0,0-1.08.14Z"/><path class="cls-2" d="M124.68,53.08a.52.52,0,0,1-.52-.52.52.52,0,0,1,.52-.52c.67,0,2-.89,2-1.49a.29.29,0,0,0,0-.16s-.08-.06-.44-.06H126c-1.41,0-2.36-.75-2.36-1.86a2.06,2.06,0,0,1,2.1-2.11,1.57,1.57,0,0,1,.43.08l.09,0a.52.52,0,0,1-.25,1l-.17-.05-.11,0a1,1,0,0,0-1.05,1.08c0,.8,1.18.82,1.32.82h.22c.37,0,1.5,0,1.5,1.25S125.69,53.08,124.68,53.08Z"/><path class="cls-2" d="M128.73,52.46a.51.51,0,0,1-.47-.3.53.53,0,0,1,.26-.7,3.44,3.44,0,0,1,.62-.14c.49-.08,1.64-.26,1.64-.72,0-.24-.42-.44-1-.69-.83-.35-2-.82-2-2.06a2.27,2.27,0,0,1,2-2.1.51.51,0,0,1,.6.42.51.51,0,0,1-.41.6c-.56.1-1.13.51-1.13,1.08s.5.76,1.33,1.1,1.67.7,1.67,1.65c0,1.34-1.7,1.61-2.51,1.74-.14,0-.32,0-.37.07A.54.54,0,0,1,128.73,52.46Z"/><path class="cls-2" d="M117.73,60.77a.51.51,0,0,1-.36-.15c-.71-.68-1.64-1.67-2.43-2.56l-.07,0c-.74.49-1.5,1-2.2,1.55a.52.52,0,0,1-.64-.81c.73-.58,1.51-1.1,2.27-1.6l.44-.29a.51.51,0,0,1,.68.09c.7.81,1.59,1.76,2.32,2.49,1-.89,2.23-1.92,3.17-2.67a.5.5,0,0,1,.67,0c.34.31.67.63,1,1l.68.66c.26.24.52.45.8.67.54-.55,1.21-1.17,1.86-1.78l.67-.63a.51.51,0,0,1,.69,0c.51.43,1,.88,1.42,1.27s.7.65,1,.9A31.14,31.14,0,0,1,132,56.35a.52.52,0,1,1,.74.74A28.72,28.72,0,0,0,130.19,60a.5.5,0,0,1-.34.2.47.47,0,0,1-.38-.1A19.31,19.31,0,0,1,128,58.79l-1-.94-.33.31c-.78.72-1.58,1.48-2.15,2.07a.51.51,0,0,1-.7.05l-.28-.22c-.31-.25-.64-.5-1-.8s-.46-.45-.69-.67L121.2,58c-1,.8-2.24,1.84-3.11,2.68A.54.54,0,0,1,117.73,60.77Z"/><path class="cls-2" d="M133.63,60.32a.52.52,0,0,1-.44-.8A21.35,21.35,0,0,1,137,55.44a.52.52,0,0,1,.72.13.51.51,0,0,1-.12.72,20.2,20.2,0,0,0-3.57,3.8A.52.52,0,0,1,133.63,60.32Z"/><path class="cls-2" d="M115.6,75.57a.56.56,0,0,1-.37-.15c-.4-.41-.86-.8-1.35-1.21s-1-.84-1.48-1.32a.53.53,0,0,1,0-.73c.66-.67,1.32-1.38,2-2.07l.72-.78a.54.54,0,0,1,.4-.16.47.47,0,0,1,.38.19,21.19,21.19,0,0,0,2.6,2.67.51.51,0,0,1,.06.73c-.4.48-.87.94-1.32,1.39A14.62,14.62,0,0,0,116,75.38a.54.54,0,0,1-.37.19Zm-2.1-3.06c.34.31.7.62,1,.91s.69.58,1,.88c.26-.29.57-.59.89-.91s.63-.62.92-.94a21.68,21.68,0,0,1-1.95-2l-.32.35Z"/><path class="cls-2" d="M109.67,66.84a2,2,0,0,1-2-2,2.11,2.11,0,0,1,1.23-2l0,0c.1,0,.23-.08.37-.11l.22,0a2.07,2.07,0,0,1,2.2,2.14A2,2,0,0,1,109.67,66.84Zm-.44-3a1.12,1.12,0,0,0-.55,1,1,1,0,0,0,2,0,1.05,1.05,0,0,0-.31-.79,1.09,1.09,0,0,0-.79-.29h-.1l-.2.07Z"/><path class="cls-2" d="M118.2,65.25c-.84,0-1.23,0-1.6,0s-.76,0-1.64,0h-1.11a19.89,19.89,0,0,1-2.52-.13.52.52,0,0,1-.44-.59.51.51,0,0,1,.58-.44,17.57,17.57,0,0,0,2.38.12H115c.91,0,1.31,0,1.7,0s.73,0,1.54,0c.64,0,1.29,0,1.92,0h.54a.51.51,0,0,1,.53.5.51.51,0,0,1-.5.53l-.55,0C119.51,65.23,118.85,65.25,118.2,65.25Z"/><path class="cls-2" d="M120,67.15a.53.53,0,0,1-.52-.47s0-.08,0-.12a3.25,3.25,0,0,1,1.14-1.85A7.17,7.17,0,0,1,119,63a.51.51,0,0,1,.15-.71.52.52,0,0,1,.72.15,5.74,5.74,0,0,0,1.77,1.73.53.53,0,0,1,.25.41.5.5,0,0,1-.18.44,3.72,3.72,0,0,0-1.27,1.52.51.51,0,0,1-.45.57Z"/><path class="cls-2" d="M138.32,72.33a.54.54,0,0,1-.36-.14l-1.07-1c-.67-.61-1.37-1.23-2-1.88a.51.51,0,0,1,0-.75c.8-.74,1.53-1.51,2.3-2.33l.44-.48a.53.53,0,0,1,.74,0,30.77,30.77,0,0,0,3.16,2.58.52.52,0,0,1,.21.38.51.51,0,0,1-.16.41,34.29,34.29,0,0,0-2.85,3,.52.52,0,0,1-.37.19ZM136,69c.52.5,1.07,1,1.6,1.47l.69.62c.57-.67,1.29-1.43,2.15-2.26-1-.72-1.75-1.36-2.4-2l-.09.1C137.3,67.62,136.66,68.31,136,69Z"/><path class="cls-2" d="M126.18,84.45h-.13a.53.53,0,0,1-.38-.42,12,12,0,0,1-.1-1.76,14.34,14.34,0,0,1,.39-3.51c.07-.36.15-.71.2-1.1l-2.26-.24a3.5,3.5,0,0,1-.63-.09c-.18,0-.54-.14-1.81-.39a.55.55,0,0,1-.4-.31.54.54,0,0,1,0-.48c1.28-2,3.47-5.84,3.82-8.89a.47.47,0,0,1,.19-.34.49.49,0,0,1,.38-.11c.44,0,.87.12,1.28.18s.77.13,1.17.18c.81.1,1.62.14,2.42.18.58,0,1.18,0,1.78.11a.5.5,0,0,1,.41.27.52.52,0,0,1,0,.5c-1.11,2-2.36,4.2-3.49,6.44l.54.27.89.43c.81.38,1.67.7,2.5,1l1.05.39a.52.52,0,0,1,.32.38.51.51,0,0,1-.16.48c-.81.76-1.76,1.5-2.77,2.29a30.61,30.61,0,0,0-4.83,4.37A.5.5,0,0,1,126.18,84.45Zm-3.83-8.4,1.18.26a1.51,1.51,0,0,0,.47.07c.39,0,1.14.11,2.8.3a.51.51,0,0,1,.45.56A13.75,13.75,0,0,1,127,79a13.89,13.89,0,0,0-.37,3.3c0,.14,0,.29,0,.42a38.39,38.39,0,0,1,4.16-3.59c.74-.58,1.44-1.13,2.08-1.67l-.23-.09c-.85-.31-1.73-.63-2.59-1-.31-.14-.62-.3-.92-.45s-.65-.33-1-.48a.46.46,0,0,1-.27-.29.53.53,0,0,1,0-.41c1.07-2.16,2.26-4.3,3.35-6.25l-.94,0c-.82,0-1.65-.08-2.5-.19l-1.2-.17-.74-.12A25.31,25.31,0,0,1,122.35,76.05Z"/><path class="cls-2" d="M135.54,85.89a1.91,1.91,0,0,1-1.42-.63,2.24,2.24,0,0,1-.55-1.7A1.8,1.8,0,0,1,135,82a2.28,2.28,0,0,1,.68-.07,1.87,1.87,0,0,1,1.81,1.76,2.17,2.17,0,0,1-.57,1.61,1.81,1.81,0,0,1-1.35.62Zm-.71-2.71a.74.74,0,0,0-.23.49,1.15,1.15,0,0,0,.29.89.87.87,0,0,0,.67.3.78.78,0,0,0,.59-.29,1.15,1.15,0,0,0,.31-.83.85.85,0,0,0-.83-.81,1.61,1.61,0,0,0-.37,0A.81.81,0,0,0,134.83,83.18Z"/><path class="cls-2" d="M118,86.25a.52.52,0,0,1-.52-.52c0-.57,0-1.14,0-1.71s0-1.14,0-1.72c0-.29,0-.58,0-.87a.53.53,0,0,1,.53-.51.51.51,0,0,1,.5.53c0,.29,0,.57,0,.85,0,.57,0,1.14,0,1.7s0,1.15,0,1.73A.52.52,0,0,1,118,86.25Z"/><path class="cls-2" d="M116.53,84h-.39a.52.52,0,0,1,0-1c.82,0,1.66,0,2.48-.09l1.67-.08a.52.52,0,0,1,0,1c-.54,0-1.1,0-1.64.08C118,84,117.25,84,116.53,84Z"/><path class="cls-2" d="M132,102.81a81.08,81.08,0,0,1-8.16-.45.51.51,0,0,1-.47-.53c0-.22,0-.44,0-.66,0-.63.07-1.27.07-2,0-.56,0-1.59,0-2.5,0-.71,0-1.34,0-1.61s0-.32,0-.49a.51.51,0,0,1,.5-.49L125,94c.51,0,1,0,1.55,0,1.11,0,3,.14,4.78.27l1.5.11a.5.5,0,0,1,.35.18.51.51,0,0,1,.13.37c0,.29-.05.65-.08,1.07a64.05,64.05,0,0,1-.61,6.4.53.53,0,0,1-.5.42Zm-7.57-1.43c1.23.12,4.14.37,7.22.39.24-1.48.41-4.18.52-5.85,0-.2,0-.38,0-.55l-1-.08c-1.78-.13-3.63-.26-4.7-.26-.5,0-1,0-1.51,0l-.58,0c0,.29,0,.88,0,1.54,0,.92.06,1.95.06,2.53,0,.78,0,1.44-.08,2.07Z"/><path class="cls-2" d="M129.63,94.74a.52.52,0,0,1-.52-.48c0-.12,0-.25,0-.38,0-4.67,1.72-5.66,3.16-5.66,2.22,0,2.22,2.18,2.22,3v.45c0,.14,0,.28,0,.42a.52.52,0,1,1-1,0v-.44c0-.14,0-.28,0-.43,0-1.65-.42-2-1.19-2-1.76,0-2.13,2.51-2.13,4.62,0,.1,0,.2,0,.3a.52.52,0,0,1-.47.56Z"/><path class="cls-2" d="M128,98.59a1.41,1.41,0,0,1-1.32-1.46,1.36,1.36,0,0,1,1.27-1.31l.11,0a.45.45,0,0,1,.16,0A1.32,1.32,0,0,1,129.65,97a.13.13,0,0,0,0,.06v.12a1.6,1.6,0,0,1-1.44,1.42H128Zm0-1.73c-.08,0-.25.14-.25.27a.4.4,0,0,0,.29.42h.26c.14,0,.38-.27.41-.4V97s-.11-.15-.35-.17A.48.48,0,0,1,127.92,96.86Zm-.06,0Zm.62-.26Z"/><path class="cls-2" d="M128.09,100.74a.53.53,0,0,1-.52-.46c0-.34,0-.67,0-1s0-.63,0-1a.53.53,0,0,1,.57-.46.52.52,0,0,1,.46.57,8.24,8.24,0,0,0,0,.85c0,.29,0,.57,0,.88a.52.52,0,0,1-.46.57Z"/><path class="cls-2" d="M110.93,109.17a2.07,2.07,0,0,1-1.46-.57,2.12,2.12,0,0,1,1.09-3.59h0a2.49,2.49,0,0,1,.56,0,2,2,0,0,1,1.8,2,2.28,2.28,0,0,1-.63,1.58,1.91,1.91,0,0,1-1.35.65Zm-.22-3.14a1.08,1.08,0,0,0-.83,1.06,1,1,0,0,0,.31.77,1.08,1.08,0,0,0,.77.27.88.88,0,0,0,.62-.32,1.17,1.17,0,0,0,.35-.83.94.94,0,0,0-.85-1,1.35,1.35,0,0,0-.32,0Z"/><path class="cls-2" d="M121.33,109.1A.51.51,0,0,1,121,109l0,0a.54.54,0,0,1-.14-.45.51.51,0,0,1,.28-.38,23.27,23.27,0,0,1,5.18-.7,4.31,4.31,0,0,1,1,.1.52.52,0,1,1-.21,1,3.71,3.71,0,0,0-.78-.07,29.37,29.37,0,0,0-4.56.52A.51.51,0,0,1,121.33,109.1Z"/><path class="cls-2" d="M98,120.92a.52.52,0,0,1-.52-.48c0-.22,0-.49-.06-.8-.07-.93-.16-2.21-.16-3.29a5.26,5.26,0,0,1,.06-.84.53.53,0,0,1,.6-.42.51.51,0,0,1,.42.6,4.13,4.13,0,0,0,0,.66c0,1,.1,2.3.17,3.22,0,.3,0,.58,0,.8a.52.52,0,0,1-.48.55Z"/><path class="cls-2" d="M95.76,116.21a.51.51,0,0,1-.5-.39.52.52,0,0,1,.38-.63,9.89,9.89,0,0,1,2.43-.35,7.59,7.59,0,0,0,1.16-.08.52.52,0,0,1,.59.44.52.52,0,0,1-.44.58,10.54,10.54,0,0,1-1.28.1,8.11,8.11,0,0,0-2.21.32Z"/><path class="cls-2" d="M101,120.74a.51.51,0,0,1-.5-.38,23.71,23.71,0,0,1-.32-4c0-.56,0-1.05-.05-1.35a.52.52,0,1,1,1-.08c0,.33,0,.82.06,1.4a24.75,24.75,0,0,0,.27,3.71.51.51,0,0,1-.36.64Z"/><path class="cls-2" d="M103.42,120.52a.52.52,0,0,1-.51-.45,9.59,9.59,0,0,1-.12-1.42c0-.41,0-.82,0-1.24s0-.86,0-1.29,0-.83.05-1.19a.52.52,0,0,1,1,.09c0,.33,0,.69,0,1.1s0,.84,0,1.26,0,.85,0,1.27a9.05,9.05,0,0,0,.1,1.28.51.51,0,0,1-.44.58Z"/><path class="cls-2" d="M100.84,118.28a.52.52,0,0,1,0-1h.46a12.38,12.38,0,0,0,1.74-.14.5.5,0,0,1,.59.42.51.51,0,0,1-.42.6,13.47,13.47,0,0,1-1.88.15l-.44,0Z"/><path class="cls-2" d="M104.9,120.49a.52.52,0,0,1-.51-.45c-.18-1.39-.22-2.82-.26-4.2l0-1.24a.52.52,0,1,1,1,0c0,.42,0,.83,0,1.25a39.93,39.93,0,0,0,.25,4.1.53.53,0,0,1-.45.58Z"/><path class="cls-2" d="M106.88,120.93a.52.52,0,0,1-.45-.25c-1.18-2-1.57-2.63-1.69-2.82a.41.41,0,0,1-.15-.21.54.54,0,0,1,0-.43,1.63,1.63,0,0,1,.77-.66c.55-.31.91-.55.91-1.08,0-.27-.55-.55-1.07-.55a4.12,4.12,0,0,0-.45,0l-.11,0a.52.52,0,0,1-.58-.44.51.51,0,0,1,.44-.59h.1a3.69,3.69,0,0,1,.6-.06c1,0,2.1.6,2.1,1.58a2.25,2.25,0,0,1-1.44,2l-.12.07.07.1c.31.49.81,1.34,1.5,2.53a.51.51,0,0,1-.18.7A.54.54,0,0,1,106.88,120.93Z"/><path class="cls-2" d="M111.06,120.61H111c-.9,0-1.78-.08-2.68-.18a.52.52,0,0,1-.47-.54c0-.89.07-1.79.1-2.69s.06-1.93.11-2.9a.52.52,0,0,1,.42-.49,13.67,13.67,0,0,1,1.91-.16h.3a.51.51,0,0,1,.54.49.52.52,0,0,1-.5.54l-.31,0c-.46,0-.91,0-1.35.08,0,.82-.06,1.64-.08,2.46s0,1.48-.08,2.22c.71.07,1.41.11,2.12.13a1.53,1.53,0,0,0,.46-.07.52.52,0,0,1,.65.33.53.53,0,0,1-.33.66A2.61,2.61,0,0,1,111.06,120.61Z"/><path class="cls-2" d="M109.72,117.66a9.29,9.29,0,0,1-1.42-.11.52.52,0,1,1,.16-1,8.38,8.38,0,0,0,2.35,0,.52.52,0,0,1,.13,1A10.1,10.1,0,0,1,109.72,117.66Z"/><path class="cls-2" d="M113.41,121.33a.52.52,0,0,1-.51-.42,11.46,11.46,0,0,1-.12-1.48,14.8,14.8,0,0,1,1.09-5.35.52.52,0,0,1,.44-.31.53.53,0,0,1,.48.25l.06.11a20.34,20.34,0,0,1,2.6,5.56.52.52,0,1,1-1,.21,16.78,16.78,0,0,0-2-4.41,14.18,14.18,0,0,0-.64,3.94,10.87,10.87,0,0,0,.11,1.28.52.52,0,0,1-.41.61Z"/><path class="cls-2" d="M113.59,118.25a.52.52,0,0,1-.51-.48.53.53,0,0,1,.47-.56c.8-.06,1.62-.13,2.42-.25a.51.51,0,0,1,.6.43.52.52,0,0,1-.43.59c-.85.13-1.69.2-2.5.27Z"/><path class="cls-2" d="M119,119.86a.52.52,0,0,1-.52-.47c-.07-.83-.11-1.68-.16-2.5,0-1-.1-2-.21-3a.52.52,0,0,1,.46-.57.52.52,0,0,1,.57.46c.11,1,.16,2.06.22,3.06,0,.81.08,1.65.16,2.47a.52.52,0,0,1-.47.56Z"/><path class="cls-2" d="M116.38,114.28a.52.52,0,0,1-.06-1c.6-.08,1.2-.09,1.79-.11a12.44,12.44,0,0,0,2-.15.52.52,0,0,1,.18,1,15.16,15.16,0,0,1-2.21.17,15.32,15.32,0,0,0-1.68.1Z"/><path class="cls-2" d="M104.85,124.79l-.91,0a.52.52,0,0,1-.5-.54.51.51,0,0,1,.54-.49h.87c1.29,0,3.09-.11,5-.22l2.81-.15a.5.5,0,0,1,.54.49.51.51,0,0,1-.49.54c-.92,0-1.87.1-2.8.16C108,124.68,106.18,124.79,104.85,124.79Z"/><path class="cls-2" d="M90.05,134.17a.47.47,0,0,1-.25-.07.52.52,0,0,1-.25-.57,34.84,34.84,0,0,0,.62-3.63c.06-.48.13-1,.2-1.46l-.46-.1c-.72-.15-1.47-.32-2.09-.5a.51.51,0,0,1-.33-.69c.9-2.24,1.63-4.08,2.29-5.8a.52.52,0,0,1,.62-.31,43.89,43.89,0,0,1,5,2,.55.55,0,0,1,.29.39.49.49,0,0,1-.16.46,13.58,13.58,0,0,0-1.83,2.23c0,.07-.1.14-.14.21a16.67,16.67,0,0,1,1.57.87,12.68,12.68,0,0,0,1.46.76.53.53,0,0,1,.3.42.51.51,0,0,1-.2.46l-.14.11A73,73,0,0,0,90.42,134,.51.51,0,0,1,90.05,134.17ZM88.67,127l1.46.33,1,.21a.52.52,0,0,1,.39.59c-.1.63-.19,1.28-.27,1.91s-.2,1.42-.32,2.14c1.38-1.21,3.14-2.57,4.54-3.65-.32-.17-.55-.3-.79-.45-.41-.24-.88-.52-2-1.09a.51.51,0,0,1-.27-.34.5.5,0,0,1,.08-.43l.49-.69a17,17,0,0,1,1.44-1.85c-1.58-.7-2.87-1.22-3.75-1.51C90,123.63,89.4,125.18,88.67,127Z"/><path class="cls-2" d="M86,118.78a.54.54,0,0,1-.32-.11l-1-.84c-.52-.43-1-.85-1.55-1.26a.52.52,0,0,1-.09-.72c.3-.4.6-.82.89-1.23s.64-.9,1-1.34a.52.52,0,0,1,.76-.07,15.67,15.67,0,0,0,2.6,1.9.52.52,0,0,1,.15.75l-.55.75c-.48.64-1,1.3-1.41,1.94a.54.54,0,0,1-.35.23Zm-1.87-2.71,1.17,1,.59.48c.37-.52.76-1,1.12-1.52l.21-.29a16.06,16.06,0,0,1-1.85-1.35l-.63.87C84.58,115.51,84.38,115.79,84.17,116.07Z"/><path class="cls-2" d="M83.39,137.93l-.28,0a2.35,2.35,0,0,1-2-2.24,2.58,2.58,0,0,1,.94-2.19,1.94,1.94,0,0,1,.42-.25,2.29,2.29,0,0,1,.91-.21,2.49,2.49,0,0,1,1.88.67,2.54,2.54,0,0,1,.7,1.86,2.29,2.29,0,0,1-.82,1.7A2.74,2.74,0,0,1,83.39,137.93Zm-.67-3.63a1.54,1.54,0,0,0-.55,1.32,1.31,1.31,0,0,0,1.06,1.26,1.65,1.65,0,0,0,1.26-.41,1.27,1.27,0,0,0,.46-.94,1.43,1.43,0,0,0-.39-1.1,1.5,1.5,0,0,0-1.11-.38,1.53,1.53,0,0,0-.51.11A1.4,1.4,0,0,0,82.72,134.3Z"/><path class="cls-2" d="M74.26,139a16,16,0,0,1-1.72-.13l-.79-.08c-.26,0-.51-.08-.74-.12a4,4,0,0,0-.82-.11.52.52,0,0,1-.52-.52.53.53,0,0,1,.52-.52,5.36,5.36,0,0,1,1,.13,4.9,4.9,0,0,0,.63.11l.81.08a15.09,15.09,0,0,0,1.61.12,14.31,14.31,0,0,0,2.36-.26.51.51,0,0,1,.6.41.51.51,0,0,1-.41.6A15,15,0,0,1,74.26,139Z"/><path class="cls-2" d="M60.82,136.61a.51.51,0,0,1-.31-.11,15.17,15.17,0,0,1-1.77-1.71l-.37-.38-.67.49c-.67.5-1.36,1-2.07,1.49a.53.53,0,0,1-.72-.14.52.52,0,0,1,.14-.72c.69-.47,1.38-1,2-1.46l1-.76a.52.52,0,0,1,.67.05l.69.73a18,18,0,0,0,1.31,1.31c.74-.69,1.74-1.61,2.59-2.34a.53.53,0,0,1,.7,0c.77.75,1.67,1.57,2.38,2.19.57-.42,1.15-.82,1.72-1.21l1.58-1.1a.5.5,0,0,1,.65,0l.94.87c.37.36.76.73,1.16,1.07l.13-.1c1-.82,2.1-1.66,3.22-2.42a.52.52,0,1,1,.58.86c-1.09.73-2.14,1.56-3.16,2.37l-.47.37a.51.51,0,0,1-.65,0c-.53-.44-1-.92-1.53-1.39L70,134l-1.25.87c-.67.46-1.36.93-2,1.43a.5.5,0,0,1-.64,0c-.67-.56-1.58-1.38-2.41-2.16-.89.78-1.9,1.71-2.53,2.3A.51.51,0,0,1,60.82,136.61Z"/><path class="cls-2" d="M48.51,135.57h-.14a2.28,2.28,0,0,1-2.06-2.37,2.31,2.31,0,0,1,1.48-2.1,2.07,2.07,0,0,1,.65-.12,2.21,2.21,0,0,1,2.42,2.1,2.39,2.39,0,0,1-.72,1.8A2.36,2.36,0,0,1,48.51,135.57Zm0-3.56h-.07a1.61,1.61,0,0,0-.33.06,1.27,1.27,0,0,0-.8,1.15,1.22,1.22,0,0,0,1.09,1.31,1.27,1.27,0,0,0,1-.39,1.35,1.35,0,0,0,.42-1A1.18,1.18,0,0,0,48.55,132Z"/><path class="cls-2" d="M44.06,132.83h0a16.89,16.89,0,0,1-4.8-.72l-1.68-.47a.53.53,0,0,1-.37-.64.52.52,0,0,1,.64-.36c.75.2,1.28.36,1.7.48a16.37,16.37,0,0,0,4.59.68.52.52,0,0,1,0,1Z"/><path class="cls-2" d="M28.48,127.83a2.47,2.47,0,0,1-1.83-.84,3.91,3.91,0,0,1-.92-3,3.38,3.38,0,0,1,1.89-2.83,1.73,1.73,0,0,1,.55-.1,2.52,2.52,0,0,1,1.84.7,3.8,3.8,0,0,1,1.08,2.64c0,1.43-.84,3.43-2.53,3.48ZM28,122.08a2.41,2.41,0,0,0-1.23,2,2.88,2.88,0,0,0,.65,2.24,1.46,1.46,0,0,0,1.11.51c1,0,1.55-1.44,1.54-2.43a2.8,2.8,0,0,0-.76-1.9,1.45,1.45,0,0,0-1.09-.43A.87.87,0,0,0,28,122.08Z"/><path class="cls-2" d="M42.07,127.93a2.28,2.28,0,0,1-1.64-.75A4.05,4.05,0,0,1,39.5,124a3.39,3.39,0,0,1,1.75-2.82,1.42,1.42,0,0,1,.53-.11,2.21,2.21,0,0,1,1.66.64,3.84,3.84,0,0,1,1.08,2.7c0,1.42-.8,3.42-2.38,3.48Zm-.42-5.76a2.42,2.42,0,0,0-1.12,2,3,3,0,0,0,.66,2.33,1.2,1.2,0,0,0,.92.42c.79,0,1.39-1.32,1.37-2.42a2.84,2.84,0,0,0-.75-2,1.21,1.21,0,0,0-.9-.36Z"/><path class="cls-2" d="M32.17,128.74a.52.52,0,0,1-.52-.49c0-.83-.08-1.66-.12-2.49-.07-1.44-.14-2.93-.19-4.41a.53.53,0,0,1,.47-.53l.38,0a2.66,2.66,0,0,1,2.87,2.57c0,1.83-1.82,2.33-2.42,2.49l-.06,0c0,.77.07,1.54.11,2.32a.52.52,0,0,1-.5.54Zm.23-6.89c0,1,.08,2,.12,3,.77-.23,1.5-.59,1.5-1.45A1.59,1.59,0,0,0,32.4,121.85Z"/><path class="cls-2" d="M36.27,128.58a.52.52,0,0,1-.52-.5l-.12-2.48c-.07-1.44-.14-2.94-.19-4.41a.52.52,0,0,1,.47-.53l.37,0a2.66,2.66,0,0,1,2.88,2.56c0,1.83-1.82,2.33-2.42,2.5h-.07c0,.78.08,1.55.11,2.33a.52.52,0,0,1-.49.54Zm.22-6.89c0,1,.08,2,.13,3,.77-.22,1.5-.59,1.5-1.45A1.59,1.59,0,0,0,36.49,121.69Z"/><path class="cls-2" d="M46,128.35a.52.52,0,0,1-.52-.51c0-.83,0-1.66,0-2.49,0-1.44-.07-2.93-.08-4.4a.52.52,0,0,1,.48-.52h.37A2.65,2.65,0,0,1,49,123.05c-.05,1.84-1.88,2.29-2.48,2.43l-.06,0c0,.77,0,1.55,0,2.33A.52.52,0,0,1,46,128.35Zm.39-6.88c0,1,0,2,0,3,.77-.21,1.51-.55,1.54-1.41A1.61,1.61,0,0,0,46.34,121.47Z"/><path class="cls-2" d="M48.42,128.18a.53.53,0,0,1-.48-.32,5.71,5.71,0,0,0-.73-1.22,8.52,8.52,0,0,1-.72-1.14.5.5,0,0,1,.23-.69.51.51,0,0,1,.69.23,8.41,8.41,0,0,0,.64,1,6.67,6.67,0,0,1,.85,1.43.52.52,0,0,1-.28.67A.45.45,0,0,1,48.42,128.18Z"/><path class="cls-2" d="M49.41,121.39a.52.52,0,0,1,0-1c1.19,0,2.42-.07,3.66-.07a.52.52,0,0,1,0,1C51.83,121.33,50.6,121.36,49.41,121.39Z"/><path class="cls-2" d="M51.15,127.78a.51.51,0,0,1-.51-.52c0-1,0-2,0-3l0-3a.52.52,0,0,1,1,0c0,1,0,2,0,3s0,2,0,3A.51.51,0,0,1,51.15,127.78Z"/><path class="cls-2" d="M55.5,127.83c-2.17,0-2.17-3.23-2.17-4.62a5.21,5.21,0,0,1,.17-1.43.52.52,0,0,1,1,.29,4.34,4.34,0,0,0-.12,1.14c0,.89,0,3.59,1.13,3.59.62,0,.84-1.32.84-2.46a13.8,13.8,0,0,0-.2-2.59.52.52,0,0,1,.41-.61.51.51,0,0,1,.61.4,14.35,14.35,0,0,1,.22,2.8C57.38,127.38,56.2,127.83,55.5,127.83Z"/><path class="cls-2" d="M59.19,127.71h0a.52.52,0,0,1-.47-.56c.13-1.83.21-3.69.29-5.49a.51.51,0,0,1,.39-.48.51.51,0,0,1,.57.21c.68,1.08,1.33,2.29,1.86,3.31.11-1.33.19-2.64.21-4a.52.52,0,0,1,1,0c0,2-.19,3.86-.37,5.81a.51.51,0,0,1-.41.46.52.52,0,0,1-.56-.26l-.44-.84c-.37-.72-.83-1.61-1.33-2.5-.06,1.27-.13,2.54-.22,3.81A.52.52,0,0,1,59.19,127.71Z"/><path class="cls-2" d="M65,127.33a.51.51,0,0,1-.51-.49c-.07-1.67-.08-3.3-.08-4.83v-1.35a.52.52,0,0,1,.52-.52.52.52,0,0,1,.52.52V122c0,1.52,0,3.13.07,4.79a.51.51,0,0,1-.49.53Z"/><path class="cls-2" d="M70.05,121.22h0l-.74-.07a16.32,16.32,0,0,0-1.68-.11,6.63,6.63,0,0,0-.79,0,.51.51,0,0,1-.57-.45.52.52,0,0,1,.45-.58,8.61,8.61,0,0,1,.91,0,17.34,17.34,0,0,1,1.78.12l.72.06a.53.53,0,0,1,.48.56A.52.52,0,0,1,70.05,121.22Z"/><path class="cls-2" d="M68.42,127.4a.5.5,0,0,1-.51-.5c0-2.06,0-4.17,0-6a.52.52,0,1,1,1,0c0,1.81,0,3.9,0,6A.51.51,0,0,1,68.42,127.4Z"/><path class="cls-2" d="M73.12,123.15c-1.41,0-2.35-1.5-2.35-2.89a.52.52,0,1,1,1,0c0,.86.58,1.85,1.32,1.85.35,0,1.09,0,1.09-2a.51.51,0,0,1,.52-.51.52.52,0,0,1,.52.51C75.25,122.12,74.53,123.15,73.12,123.15Z"/><path class="cls-2" d="M73.33,127.1a.51.51,0,0,1-.51-.52c0-.49,0-1,0-1.47s0-1,0-1.43c0-.3,0-.59,0-.89a.52.52,0,0,1,.5-.53.51.51,0,0,1,.54.5c0,.31,0,.61,0,.92,0,.49,0,1,0,1.46s0,1,0,1.44A.52.52,0,0,1,73.33,127.1Z"/><path class="cls-2" d="M58.26,113.08a.54.54,0,0,1-.42-.21.53.53,0,0,1-.05-.53C59.85,108,61.55,104,63,100.14a.53.53,0,0,1,.55-.33.53.53,0,0,1,.45.47,45.11,45.11,0,0,0,2.83,11.49.53.53,0,0,1,0,.5.52.52,0,0,1-.44.22A52.87,52.87,0,0,0,59,113l-.68.08Zm5-10.66c-1.18,3-2.53,6.15-4.09,9.52a60.08,60.08,0,0,1,6.44-.49A48.89,48.89,0,0,1,63.21,102.42Z"/><path class="cls-2" d="M58.88,116.18a.51.51,0,0,1-.49-.36.51.51,0,0,1,.33-.65,20.65,20.65,0,0,1,3.91-.81c-.17-1.26-.29-2.54-.41-3.78,0-.57-.11-1.13-.16-1.7a.51.51,0,0,1,.46-.57.52.52,0,0,1,.57.46c0,.57.11,1.14.16,1.71.13,1.4.27,2.85.48,4.26a.5.5,0,0,1-.1.39.55.55,0,0,1-.35.2,21.33,21.33,0,0,0-4.24.82Z"/><path class="cls-2" d="M74.47,111.31a.57.57,0,0,1-.28-.08c-2.1-1.37-2.72-4-2.87-5.9a.52.52,0,0,1,.48-.56.51.51,0,0,1,.55.48c.14,1.7.66,4,2.4,5.11a.51.51,0,0,1-.28,1Z"/><path class="cls-2" d="M78.2,110.44a.59.59,0,0,1-.23,0c-3.22-1.61-4.57-5.19-5.15-7.9a.53.53,0,0,1,.4-.61.52.52,0,0,1,.62.4c.52,2.49,1.75,5.76,4.59,7.18a.52.52,0,0,1,.23.7A.51.51,0,0,1,78.2,110.44Z"/><path class="cls-2" d="M85.26,107h0a7.29,7.29,0,0,1-7.34-7,7.5,7.5,0,0,1,2.32-5.65,7.81,7.81,0,0,1,5.94-2.2,7.62,7.62,0,0,1,3.25,1,6.54,6.54,0,0,1,3.23,5.08,8.17,8.17,0,0,1-2,6.37A7.25,7.25,0,0,1,85.26,107Zm.38-13.82a6.78,6.78,0,0,0-4.71,1.93,6.4,6.4,0,0,0-2,4.86,6.26,6.26,0,0,0,6.32,6h0a6.21,6.21,0,0,0,4.56-2.08A7.14,7.14,0,0,0,91.6,98.3,5.52,5.52,0,0,0,88.89,94a6.65,6.65,0,0,0-2.81-.84Z"/><path class="cls-2" d="M88.16,104a.56.56,0,0,1-.31-.11.52.52,0,0,1-.1-.72,9.29,9.29,0,0,0,1.56-5.25.5.5,0,0,1,.54-.49.51.51,0,0,1,.49.54,10.23,10.23,0,0,1-1.76,5.82A.51.51,0,0,1,88.16,104Z"/><path class="cls-2" d="M80.1,95.51a.52.52,0,0,1-.52-.48c0-.61-.13-1.26-.21-1.89,0-.25-.07-.51-.1-.76a.54.54,0,0,1,.21-.49,20,20,0,0,1,3.27-1.81.51.51,0,0,1,.6.13,21.3,21.3,0,0,1,1.6,2,.52.52,0,0,1-.13.73.53.53,0,0,1-.72-.13c-.38-.55-.8-1.08-1.27-1.64a18,18,0,0,0-2.49,1.38c0,.15,0,.3,0,.45.09.64.18,1.3.23,1.94a.53.53,0,0,1-.48.56Z"/><path class="cls-2" d="M80.74,91.62a.52.52,0,0,1-.46-.29c-.15-.29-.27-.61-.4-.92-.59-1.46-1-2.34-2.37-2.34a3.81,3.81,0,0,0-2.93,1.87.52.52,0,1,1-.88-.56A4.78,4.78,0,0,1,77.51,87c2.12,0,2.82,1.73,3.33,3,.12.31.24.6.36.85a.51.51,0,0,1-.23.69A.46.46,0,0,1,80.74,91.62Z"/><path class="cls-2" d="M70.55,89.69a7.37,7.37,0,0,1-1.17-.11l-.71-.08a.52.52,0,1,1,.08-1q.41,0,.78.09a7.19,7.19,0,0,0,1,.1.52.52,0,1,1,0,1Z"/><path class="cls-2" d="M69.92,93a.52.52,0,0,1-.42-.22.51.51,0,0,1,.12-.72,2.4,2.4,0,0,0,.63-.76.52.52,0,0,1,.9.52,3.25,3.25,0,0,1-.93,1.08A.47.47,0,0,1,69.92,93Z"/><path class="cls-2" d="M72.25,94.93a.52.52,0,0,1-.52-.52A3.86,3.86,0,0,1,71.91,93a.52.52,0,0,1,.66-.31.52.52,0,0,1,.31.67,3.11,3.11,0,0,0-.11,1A.52.52,0,0,1,72.25,94.93Z"/><path class="cls-2" d="M74.67,94.2a.51.51,0,0,1-.44-.25,1.48,1.48,0,0,1-.19-.64c0-.09,0-.17,0-.21a.51.51,0,0,1,.28-.67.52.52,0,0,1,.68.29,2.17,2.17,0,0,1,.1.45,1.79,1.79,0,0,0,0,.25.52.52,0,0,1-.17.71A.54.54,0,0,1,74.67,94.2Z"/><path class="cls-2" d="M72.78,86.88a.51.51,0,0,1-.39-.18,6.86,6.86,0,0,1-.93-1.3.51.51,0,0,1,.9-.5A6.26,6.26,0,0,0,73.17,86a.51.51,0,0,1,0,.73A.5.5,0,0,1,72.78,86.88Z"/><path class="cls-2" d="M71.52,87.8h-.1A2.61,2.61,0,0,1,69.87,87a.51.51,0,0,1,0-.73.52.52,0,0,1,.73,0,1.62,1.62,0,0,0,1,.47.51.51,0,0,1-.1,1Z"/><path class="cls-2" d="M64.6,95.26a.51.51,0,0,1-.52-.49c0-.33,0-.67-.07-1,0-.5-.09-1-.09-1.54a6.71,6.71,0,0,1,.06-.93.52.52,0,0,1,1,.13,5.05,5.05,0,0,0-.05.8c0,.48,0,1,.08,1.46s.06.7.08,1a.52.52,0,0,1-.5.54Z"/><path class="cls-2" d="M66,93.52l-1.61,0-1.58,0a.52.52,0,1,1,0-1l1.61,0,1.58,0a.52.52,0,1,1,0,1Z"/><path class="cls-2" d="M49.79,115.5h-.11a2.08,2.08,0,0,1-1.94-2,2.2,2.2,0,0,1,.66-1.61,2.16,2.16,0,0,1,1.58-.65,2,2,0,0,1,.8.2,2.33,2.33,0,0,1,.72.56,2,2,0,0,1,.5,1.2,2.22,2.22,0,0,1-2.21,2.33Zm.13-3.25a1.1,1.1,0,0,0-.79.35,1.12,1.12,0,0,0-.36.83,1,1,0,0,0,1,1,1.13,1.13,0,0,0,.89-.35,1.16,1.16,0,0,0,.35-.89,1,1,0,0,0-.27-.59,1.16,1.16,0,0,0-.37-.29.85.85,0,0,0-.38-.09Z"/><path class="cls-2" d="M49.76,112.28a.52.52,0,0,1-.51-.4,8.85,8.85,0,0,1-.23-2,8,8,0,0,1,3.34-6.56.52.52,0,0,1,.61.85,6.92,6.92,0,0,0-2.92,5.71,7.33,7.33,0,0,0,.21,1.74.52.52,0,0,1-.38.63Z"/><path class="cls-2" d="M52.86,106.12a.52.52,0,0,1-.51-.42,4.43,4.43,0,0,1-.08-.9,4.6,4.6,0,0,1,0-.74,5.2,5.2,0,0,1-1.61-.62.52.52,0,0,1,.52-.9,3.72,3.72,0,0,0,1.72.55.53.53,0,0,1,.4.21.54.54,0,0,1,.09.43,4.43,4.43,0,0,0-.14,1.07,3.35,3.35,0,0,0,.07.71.53.53,0,0,1-.41.61Z"/><path class="cls-2" d="M43.66,115.24a.52.52,0,0,1-.49-.72c0-.18,0-.63,0-1.34,0-.13,0-.22,0-.25,0-7.31,3-13.91,8.12-17.66a.54.54,0,0,1,.65,0c.5.44,1,.89,1.46,1.33l.79.73a26.37,26.37,0,0,1,4.3-8l-1.16-.08c-2.8-.2-5.69-.4-8.54-.78a12.35,12.35,0,0,0,.74,2.18.51.51,0,0,1-.15.63,20.32,20.32,0,0,0-5.87,6.9.52.52,0,0,1-.56.27.51.51,0,0,1-.41-.46c-.32-3.17-.51-6.65-.62-11a.52.52,0,0,1,.5-.53c.52,0,1,0,1.53,0h.4c-.29-.66-.57-1.32-.85-2-1-2.23-1.95-4.54-3.16-6.74-.69,1.2-1.45,2.43-2.24,3.72-1,1.62-2,3.29-3,5,.7,0,1.42,0,2.13-.09a.5.5,0,0,1,.39.13.53.53,0,0,1,.17.36c0,1.15.12,2.29.18,3.42.15,2.74.3,5.56.31,8.36a.51.51,0,0,1-.35.49.51.51,0,0,1-.58-.16,17.56,17.56,0,0,0-6.8-4.79.51.51,0,0,1-.26-.66c.31-.77.68-1.51,1-2.23.17-.34.34-.68.5-1-2.43.65-6.15,1.42-8.37,1.76,1.34,2.68,2.45,5.49,3.52,8.24l1.88-2.56a.52.52,0,0,1,.67-.14,14.8,14.8,0,0,1,7.3,12.74,14.39,14.39,0,0,1-.14,2,.53.53,0,0,1-.59.44.52.52,0,0,1-.44-.58,12.42,12.42,0,0,0,.13-1.83,13.8,13.8,0,0,0-6.37-11.61c-.63.85-1.31,1.77-2.16,3a.51.51,0,0,1-.9-.12l-.1-.24a94.22,94.22,0,0,0-4.05-9.43.57.57,0,0,1,0-.48.52.52,0,0,1,.4-.27,81.32,81.32,0,0,0,10-2.14.51.51,0,0,1,.54.15.5.5,0,0,1,.09.55c-.3.71-.64,1.4-1,2.07s-.55,1.13-.81,1.71a20.05,20.05,0,0,1,5.79,3.83c0-2.33-.17-4.67-.3-6.94l-.15-2.9L35,87.54l-.77,0a.49.49,0,0,1-.45-.24.51.51,0,0,1,0-.52c1-2,2.24-3.91,3.41-5.81,1-1.56,1.87-3,2.67-4.47a.5.5,0,0,1,.45-.27.52.52,0,0,1,.46.27l.21.38.17.29c1.26,2.29,2.28,4.67,3.27,7,.38.89.76,1.77,1.15,2.65a.52.52,0,0,1-.44.73c-.62,0-1,0-1.21,0h-1c.09,3.32.23,6.14.45,8.72a21.39,21.39,0,0,1,5-5.54A14.23,14.23,0,0,1,47.59,88a.54.54,0,0,1,.13-.46.55.55,0,0,1,.45-.16c3,.44,6.18.66,9.2.88l2.18.16a.51.51,0,0,1,.35.85,25.25,25.25,0,0,0-5,9.13.52.52,0,0,1-.35.34.55.55,0,0,1-.48-.11c-.48-.41-.94-.85-1.39-1.27l-1.12-1c-4.63,3.6-7.37,9.76-7.37,16.58v.21c.06,1.68.07,1.89-.32,2.06A.45.45,0,0,1,43.66,115.24Z"/><path class="cls-2" d="M53.34,93.57h0a1.69,1.69,0,0,1-.8-3.17,1.76,1.76,0,0,1,.71-.2,1.8,1.8,0,0,1,1.33.5,1.7,1.7,0,0,1,.52,1.23A1.73,1.73,0,0,1,53.34,93.57ZM53,91.31a.67.67,0,0,0-.32.58.65.65,0,0,0,.66.65.68.68,0,0,0,.7-.62.65.65,0,0,0-.2-.47.73.73,0,0,0-.56-.21A.68.68,0,0,0,53,91.31Z"/><path class="cls-2" d="M26,116.65a.53.53,0,0,1-.43-.22.54.54,0,0,1,0-.52l.71-1.52c.8-1.68,1.62-3.42,2.28-5.17a.52.52,0,0,1,1,.07,50.43,50.43,0,0,0,1.91,6.32.53.53,0,0,1-.06.46.49.49,0,0,1-.4.23l-1.72.13-3.21.22Zm2.88-5.56c-.54,1.27-1.13,2.52-1.7,3.75-.12.24-.23.48-.34.72l2.33-.17,1-.07C29.8,114,29.32,112.59,28.92,111.09Z"/><path class="cls-2" d="M25.82,113.62c-.63,0-1.25,0-1.83-.08a.55.55,0,0,1-.38-.2.52.52,0,0,1-.09-.42l.23-1.15c.37-1.84.76-3.74,1.22-5.6a.52.52,0,0,1,.47-.4.53.53,0,0,1,.51.34c.37,1,.82,1.91,1.26,2.82.21.44.42.87.62,1.31a.5.5,0,0,1-.25.68.52.52,0,0,1-.69-.25c-.19-.43-.4-.86-.61-1.29s-.45-.94-.67-1.42c-.3,1.34-.58,2.69-.84,4l-.12.58c.39,0,.78,0,1.17,0a10.93,10.93,0,0,0,1.33-.08.52.52,0,1,1,.13,1A11.08,11.08,0,0,1,25.82,113.62Z"/><path class="cls-2" d="M18.6,115.94a.53.53,0,0,1-.52-.46v-.14a24.35,24.35,0,0,1-.22-2.87c0-.3,0-.6,0-.89a.52.52,0,1,1,1,.08q0,.39,0,.81a25.84,25.84,0,0,0,.21,2.75l0,.14a.52.52,0,0,1-.45.57Z"/><path class="cls-2" d="M18.59,114.18c-.74,0-1.49,0-2.15-.06a.52.52,0,0,1-.5-.54.51.51,0,0,1,.54-.49c.65,0,1.39,0,2.11,0,.56,0,1.05,0,1.51,0a.52.52,0,1,1,.08,1Q19.46,114.18,18.59,114.18Z"/><path class="cls-2" d="M13.05,106.52c-.32,0-.63,0-1,0a.49.49,0,0,1-.41-.23.54.54,0,0,1,0-.48,20.75,20.75,0,0,0,1.23-4.22,2.85,2.85,0,0,1-1.09-2.18,3,3,0,0,1,2.3-3,2.33,2.33,0,0,1,.37,0,2.89,2.89,0,0,1,2.13.88,3.05,3.05,0,0,1,.89,2.26A2.78,2.78,0,0,1,15.6,102a8.38,8.38,0,0,0,1,3.67.51.51,0,0,1,0,.52.52.52,0,0,1-.44.26l-.78,0C14.61,106.49,13.83,106.52,13.05,106.52Zm-.18-1c.81,0,1.64,0,2.44,0a10.45,10.45,0,0,1-.76-3.82.51.51,0,0,1,.41-.52,1.82,1.82,0,0,0,1.48-1.65,2,2,0,0,0-.6-1.48,1.81,1.81,0,0,0-1.35-.58l-.2,0a1.89,1.89,0,0,0-1.47,2,1.77,1.77,0,0,0,.87,1.52.53.53,0,0,1,.26.53A21.52,21.52,0,0,1,12.87,105.48Z"/><path class="cls-2" d="M9.88,96.28l-.13,0a.5.5,0,0,1-.38-.45c-.16-1.65-.32-3-.5-4.29l-1.32.07c-.91,0-1.85.08-2.76.18a.52.52,0,0,1-.58-.45.51.51,0,0,1,.46-.57c1-.11,1.91-.15,2.83-.2.59,0,1.19,0,1.78-.09a.52.52,0,0,1,.55.44c.16,1,.3,2.16.43,3.44a38.94,38.94,0,0,1,4.42-4.77,30.31,30.31,0,0,1-3.09-4c-.52-.76-1.05-1.54-1.61-2.27,0,.39-.05.77-.07,1.16,0,.63-.09,1.29-.11,1.93a.51.51,0,0,1-.5.51c-1.25,0-2.53-.05-3.77-.13-.53,0-1.07-.08-1.6-.1a.52.52,0,1,1,0-1l1.62.11c1.05.07,2.14.14,3.19.13,0-.5.05-1,.08-1.48.06-.82.11-1.66.11-2.48a.53.53,0,0,1,.34-.49.51.51,0,0,1,.57.13A35.66,35.66,0,0,1,12.45,85a26.42,26.42,0,0,0,3.34,4.25.55.55,0,0,1,.16.38.48.48,0,0,1-.17.37,35.72,35.72,0,0,0-5.47,6.09A.54.54,0,0,1,9.88,96.28Z"/><path class="cls-2" d="M4.3,81.57a2.15,2.15,0,0,1-1.5-.63,2.05,2.05,0,0,1-.62-1.55A2,2,0,0,1,3,77.81a1.9,1.9,0,0,1,.77-.36l.26,0A2.13,2.13,0,0,1,5.67,78a2.18,2.18,0,0,1,.63,1.62,2,2,0,0,1-1.92,1.93Zm-.69-2.92a1,1,0,0,0-.39.77,1,1,0,0,0,.3.79,1.12,1.12,0,0,0,.81.32,1,1,0,0,0,.94-.94,1.14,1.14,0,0,0-.33-.83,1.1,1.1,0,0,0-.84-.32l-.09,0A1.18,1.18,0,0,0,3.61,78.65Z"/><path class="cls-2" d="M11.33,79.76H10.4a.52.52,0,0,1-.52-.52.52.52,0,0,1,.52-.52h.93a6.66,6.66,0,0,0,1.3-.1.52.52,0,0,1,.6.42.51.51,0,0,1-.41.6A8,8,0,0,1,11.33,79.76Z"/><path class="cls-2" d="M12.82,74.28h0l-.53,0A5.26,5.26,0,0,1,10.52,74a.52.52,0,1,1,.34-1,4.73,4.73,0,0,0,1.44.19l.56,0a.52.52,0,0,1,0,1Z"/><path class="cls-2" d="M15.58,69.48a.52.52,0,0,1-.47-.31c-.06-.13-.14-.27-.22-.41a3.26,3.26,0,0,1-.44-1,.52.52,0,1,1,1-.21,2.45,2.45,0,0,0,.32.68c.09.17.19.34.28.52a.53.53,0,0,1-.27.69A.46.46,0,0,1,15.58,69.48Z"/><path class="cls-2" d="M21.79,68.51a.52.52,0,0,1-.52-.52V66.68a.51.51,0,0,1,.52-.51.52.52,0,0,1,.52.51V68A.52.52,0,0,1,21.79,68.51Z"/><path class="cls-2" d="M26.59,69.38a.5.5,0,0,1-.31-.1.51.51,0,0,1-.11-.72,5.17,5.17,0,0,0,.67-1.12.52.52,0,0,1,.95.42A6.87,6.87,0,0,1,27,69.18.53.53,0,0,1,26.59,69.38Z"/><path class="cls-2" d="M28.53,73.31a.52.52,0,0,1-.12-1,3.48,3.48,0,0,0,.83-.36l.27-.13a.51.51,0,0,1,.46.92l-.25.13a4.08,4.08,0,0,1-1.08.45Z"/><path class="cls-2" d="M31.05,78.3h0l-.37,0a3.5,3.5,0,0,1-1.74-.39.52.52,0,1,1,.52-.89,2.78,2.78,0,0,0,1.26.25l.41,0a.52.52,0,0,1,0,1Z"/><path class="cls-2" d="M23.28,86.11c-2.6,0-3.61-3.56-4-5.26-3.25.1-4.72-2.54-4.72-5,0-2.93,2.46-6.35,5.63-6.35l.5,0c1.93.22,6.43.72,6.43,6.33a4.82,4.82,0,0,1-1.69,3.83,11.29,11.29,0,0,1,.24,2.22C25.66,83.47,25.16,86.11,23.28,86.11Zm-3.6-6.33a.53.53,0,0,1,.51.41c.72,3.29,1.73,4.89,3.09,4.89.93,0,1.35-1.86,1.35-3.17a10.81,10.81,0,0,0-.29-2.33.5.5,0,0,1,.22-.54,3.72,3.72,0,0,0,1.52-3.18c0-4.69-3.59-5.09-5.51-5.3l-.39,0c-2.55,0-4.6,2.91-4.6,5.31,0,2,1.08,4,3.5,4l.55,0Z"/><path class="cls-2" d="M18.45,77.43h-.1a.51.51,0,0,1-.41-.6c.3-1.66,1.13-2.76,2.28-3l.15,0c.6,0,.82.61,1,1a2.29,2.29,0,0,0,.22.5c.14-.08.28-.5.38-.79.19-.54.41-1.22,1.09-1.22.84,0,1.19,1.08,1.42,1.79,0,.11.06.2.08.26a.51.51,0,1,1-.95.39c0-.07-.07-.19-.12-.33a4.44,4.44,0,0,0-.39-1c0,.13-.11.29-.15.42-.2.6-.51,1.5-1.42,1.5-.69,0-1-.72-1.13-1.19,0-.1-.08-.22-.13-.32-.88.36-1.2,1.6-1.3,2.14A.51.51,0,0,1,18.45,77.43Z"/><path class="cls-2" d="M20,81.79a.51.51,0,0,1-.2-1A17.65,17.65,0,0,1,24,79.55a.52.52,0,0,1,.58.44.53.53,0,0,1-.44.59,16.71,16.71,0,0,0-3.95,1.17A.43.43,0,0,1,20,81.79Z"/><path class="cls-2" d="M21.16,83.63a.51.51,0,0,1-.14-1c.52-.15,1-.34,1.55-.54a17.34,17.34,0,0,1,2.11-.68.52.52,0,0,1,.23,1,15.09,15.09,0,0,0-2,.64c-.53.2-1.08.41-1.64.56A.36.36,0,0,1,21.16,83.63Z"/><path class="cls-2" d="M36.15,74a.53.53,0,0,1-.3-.09c-.4-.29-.81-.56-1.22-.84s-.76-.51-1.13-.78a.53.53,0,0,1-.22-.34.52.52,0,0,1,.1-.39c.66-.91,1.2-1.69,1.68-2.44a.52.52,0,0,1,.35-.23.51.51,0,0,1,.4.09,18.25,18.25,0,0,0,2.29,1.53.49.49,0,0,1,.25.34.49.49,0,0,1-.08.42c-.57.79-1.13,1.64-1.66,2.46l0,0a.49.49,0,0,1-.33.23Zm-1.63-2.26.69.47.8.55c.35-.54.72-1.09,1.09-1.63-.51-.31-1-.65-1.47-1C35.3,70.6,34.94,71.12,34.52,71.69Z"/><path class="cls-2" d="M47.38,74.72a.52.52,0,0,1,0-1c1-.05,6-.49,6.25-3.7a1.83,1.83,0,0,0-1.15-.86,2.31,2.31,0,0,1-2.05,1.8,1,1,0,0,1-.92-1.11c0-.75.56-1.61,2.11-1.76,0,0,0-.1,0-.15,0-1.19-.87-3-2.17-3a3.69,3.69,0,0,0-3,1.9,2.66,2.66,0,0,1,2,2.41,1.73,1.73,0,0,1-1.64,1.84c-1,0-1.79-1.45-1.79-2.69a3.17,3.17,0,0,1,0-.44,2.82,2.82,0,0,0-1.81,2.4c0,1.64.72,2.31,2.48,2.31a14.29,14.29,0,0,0,2.13-.23l1.15-.17a.53.53,0,0,1,.58.45.53.53,0,0,1-.46.58c-.36,0-.73.1-1.11.16a14.58,14.58,0,0,1-2.29.24c-2.33,0-3.51-1.12-3.51-3.34a3.88,3.88,0,0,1,3.14-3.56,4.73,4.73,0,0,1,4.16-2.89c2,0,3.2,2.35,3.2,4v.2c1.08.25,2,1.17,2,1.89v.08c-.29,3.15-3.92,4.46-7.23,4.64ZM46,67.78a2.78,2.78,0,0,0-.06.58c0,.9.55,1.65.76,1.65s.61-.3.61-.8A1.65,1.65,0,0,0,46,67.78Zm5.29,1.36c-.56.13-.82.4-.82.67,0,0,0,0,0,.07A1.32,1.32,0,0,0,51.33,69.14Z"/><path class="cls-2" d="M52.72,84.35a.52.52,0,0,1-.35-.14c-.71-.64-1.45-1.24-2.27-1.91a.49.49,0,0,1-.19-.35.52.52,0,0,1,.13-.39,28.33,28.33,0,0,0,1.83-2.4.54.54,0,0,1,.39-.22.5.5,0,0,1,.41.17l.51.54c.52.58,1.07,1.18,1.64,1.71a.51.51,0,0,1,0,.71l-.63.74c-.37.43-.76.88-1.11,1.34a.52.52,0,0,1-.37.19Zm-1.56-2.52c.53.43,1,.83,1.5,1.25.26-.32.53-.64.8-1l.3-.35c-.47-.46-.91-1-1.35-1.43l-.06-.07C51.93,80.87,51.54,81.37,51.16,81.83Z"/><path class="cls-2" d="M2.9,70.56a.52.52,0,0,1-.52-.5l-.21-4.85a.52.52,0,0,1,.5-.54.51.51,0,0,1,.54.5L3.41,70a.52.52,0,0,1-.49.54Z"/><path class="cls-2" d="M1.94,68.24a11.36,11.36,0,0,1-1.49-.09A.53.53,0,0,1,0,67.56a.52.52,0,0,1,.59-.44,9.34,9.34,0,0,0,1.35.08c.63,0,1.28,0,1.9-.08L5,67.05a.52.52,0,1,1,0,1l-1.11.07C3.27,68.19,2.6,68.24,1.94,68.24Z"/><path class="cls-2" d="M95.5,67.22a.53.53,0,0,1-.5-.38.55.55,0,0,1,0-.38l-.18,0a20.73,20.73,0,0,1-2.5.21c-2.89,0-4.56-1.23-4.56-3.37,0-3,3.16-4.63,4.21-4.63a1.39,1.39,0,0,1,.46.07,5,5,0,0,1,3.61-1.94,3.17,3.17,0,0,1,3.23,3.33v.17a2.14,2.14,0,0,1,1.89,2.18c0,2.36-3,4-5.57,4.69Zm-3.72-7.44c-.83.24-2.93,1.47-2.93,3.55,0,1.07.61,2.34,3.52,2.34a19,19,0,0,0,2.36-.21,19.43,19.43,0,0,1,2.41-.21.56.56,0,0,1,.37.15c1.48-.73,2.66-1.76,2.66-2.89a1.14,1.14,0,0,0-1-1.16,1.89,1.89,0,0,1-1.68,1.38,1,1,0,0,1-.92-.89.44.44,0,0,1,0-.16,1.84,1.84,0,0,1,1.72-1.39.57.57,0,0,0,0-.13,2.13,2.13,0,0,0-2.2-2.3,3.83,3.83,0,0,0-2.73,1.47,3.81,3.81,0,0,1,1,2.36,1.81,1.81,0,0,1-1.68,1.9c-.76,0-1.58-.48-1.58-1.83A4.18,4.18,0,0,1,91.78,59.78Zm1,.4a3.41,3.41,0,0,0-.54,1.58c0,.8.38.8.54.8.38,0,.65-.46.65-.87A2.7,2.7,0,0,0,92.73,60.18Zm4.84,1.74h0Zm.31-.43a.49.49,0,0,0-.14.11Z"/><path class="cls-2" d="M88.9,72.5h-.07a1.73,1.73,0,0,1-1.21-2.95A1.88,1.88,0,0,1,89.07,69a2,2,0,0,1,.42.07A1.72,1.72,0,0,1,90.21,72,1.89,1.89,0,0,1,88.9,72.5ZM89,70a.82.82,0,0,0-.6.25.79.79,0,0,0-.21.64.81.81,0,0,0,.71.57.84.84,0,0,0,.61-.25.7.7,0,0,0,.23-.51.72.72,0,0,0-.5-.66L89,70Z"/><path class="cls-2" d="M88.72,85.84h0a.52.52,0,0,1-.49-.55c.24-3.67.81-7.82,3.33-10.9a.51.51,0,0,1,.72-.08.52.52,0,0,1,.08.73c-2.33,2.85-2.87,6.81-3.09,10.31A.52.52,0,0,1,88.72,85.84Z"/><path class="cls-2" d="M85.86,86.43a.51.51,0,0,1-.5-.37,7.3,7.3,0,0,1-.28-2,7,7,0,0,1,.79-3.26.51.51,0,1,1,.91.48A6.07,6.07,0,0,0,86.11,84a6.29,6.29,0,0,0,.25,1.73.52.52,0,0,1-.36.64A.34.34,0,0,1,85.86,86.43Z"/><path class="cls-2" d="M104.33,93.85c-1.84,0-2.28-1.34-2.66-2.52-.47-1.44-1-2.92-3.69-3.21-3.39-.37-4.92-3.56-4.92-6.56,0-6.11,6.17-9.5,10.43-9.5,5,0,8.83,6,8.83,9A8.93,8.93,0,0,1,110.5,86a6,6,0,0,0-1.25,3c0,.27,0,.54,0,.83s0,.6,0,.91a5.22,5.22,0,0,1,0,.58c-.13,1.43-1.46,1.83-2.54,2.16l-.23.07A7.46,7.46,0,0,1,104.33,93.85Zm-.84-20.75c-3.84,0-9.39,3-9.39,8.46,0,2.54,1.23,5.23,4,5.53,3.4.37,4.06,2.42,4.55,3.91.4,1.23.64,1.82,1.68,1.82a6.76,6.76,0,0,0,1.88-.34l.24-.08c1.08-.33,1.75-.57,1.81-1.27,0-.14,0-.3,0-.48s0-.57,0-.85,0-.59,0-.89a6.75,6.75,0,0,1,1.42-3.51A8,8,0,0,0,111.28,81C111.28,78.67,108,73.1,103.49,73.1Z"/><path class="cls-2" d="M101.87,84.46a1.24,1.24,0,1,1-.06-2.48.53.53,0,0,1,.4.19,1,1,0,0,0,.26.19,1.1,1.1,0,0,1,.66.92A1.28,1.28,0,0,1,101.87,84.46Zm-.2-1.39a.51.51,0,0,0,0,.21c0,.13.17.14.23.14a.28.28,0,0,0,.18-.09l-.13-.09Z"/><path class="cls-2" d="M107.08,83.82A1.17,1.17,0,0,1,106,82.6c0-.47.45-1.33,1.08-1.33h.08a1.27,1.27,0,0,1-.06,2.54Zm.06-1.48a.79.79,0,0,0-.13.26.23.23,0,0,0,.07.18c.07,0,.16-.12.16-.24A.24.24,0,0,0,107.14,82.34Z"/><path class="cls-2" d="M103.82,91.34a.47.47,0,0,1-.25-.07.49.49,0,0,1-.25-.34c-.12-.53-.27-1.07-.42-1.59-.1-.33-.19-.65-.28-1a.51.51,0,0,1,.33-.62,19.42,19.42,0,0,1,5.92-.86.52.52,0,0,1,0,1,20.89,20.89,0,0,0-5.15.65l.14.5c.1.35.21.72.3,1.09a15.45,15.45,0,0,1,4.69-.78.52.52,0,1,1,0,1,14.74,14.74,0,0,0-4.88.91A.57.57,0,0,1,103.82,91.34Z"/><path class="cls-2" d="M105.46,90.87a.5.5,0,0,1-.48-.34,8.16,8.16,0,0,1-.42-2A.51.51,0,0,1,105,88a.53.53,0,0,1,.58.45,6.89,6.89,0,0,0,.36,1.75.52.52,0,0,1-.31.67A.57.57,0,0,1,105.46,90.87Z"/><path class="cls-2" d="M107.33,90.48a.52.52,0,0,1-.51-.41,4,4,0,0,1-.08-.91c0-.15,0-.31,0-.46s0-.29,0-.43,0-.3,0-.43a.51.51,0,0,1,.45-.57.53.53,0,0,1,.58.46c0,.16,0,.33,0,.54s0,.3,0,.46,0,.29,0,.43a3.27,3.27,0,0,0,.06.69.51.51,0,0,1-.39.62Z"/><path class="cls-2" d="M101.17,109.88c-1.12,0-2.26-.6-2.26-1.76a3.55,3.55,0,0,1,.12-.72,5,5,0,0,0,.13-.86v0a2.46,2.46,0,0,0-.7.34,2.8,2.8,0,0,1-1.38.52,2,2,0,0,1-1.74-2.11,2.93,2.93,0,0,1,3.07-3h.82c1.79,0,3.55-1.77,5.26-3.49a25,25,0,0,1,2.17-2,.52.52,0,0,1,.64.81,25.8,25.8,0,0,0-2.08,1.95c-1.85,1.87-3.77,3.79-6,3.79h-.82a1.91,1.91,0,0,0-2,1.92c0,.65.42,1.07.71,1.07a1.93,1.93,0,0,0,.84-.37,2.59,2.59,0,0,1,1.3-.49.94.94,0,0,1,1,1.06,6,6,0,0,1-.16,1.08,4.21,4.21,0,0,0-.09.5c0,.53.75.73,1.22.73,1.15,0,1.39-.88,1.67-2.87a5.74,5.74,0,0,1,1.2-3.42,21.16,21.16,0,0,1,3.61-2.61,15.12,15.12,0,0,0,4.21-3.34A4.77,4.77,0,0,1,114.65,95c.89-.24,1.13-.33,1.13-1s-.3-1.19-.51-1.19a.75.75,0,0,0-.5.2.62.62,0,0,1-.68.13c-.35-.16-.35-.49-.35-1s-.2-1.08-.78-1.08c-1.49,0-1.79.92-2.17,2.42a3.43,3.43,0,0,1-1.31,2.4A.52.52,0,0,1,109,95c.44-.25.63-1,.82-1.75.34-1.35.8-3.2,3.17-3.2a1.87,1.87,0,0,1,1.8,1.77,1.9,1.9,0,0,1,.51-.07c.89,0,1.54.93,1.54,2.22,0,1.46-1,1.73-1.89,2a3.8,3.8,0,0,0-2.24,1.28,16.33,16.33,0,0,1-4.48,3.58,19.75,19.75,0,0,0-3.44,2.48,5.17,5.17,0,0,0-.9,2.81C103.63,107.79,103.34,109.88,101.17,109.88Z"/><path class="cls-2" d="M103.42,99.6h-.09a6.49,6.49,0,0,1-1.33-.44,4.15,4.15,0,0,0-1.61-.43,9.3,9.3,0,0,0-1.63.2,9.43,9.43,0,0,1-1.8.22,2.17,2.17,0,0,1-2.43-2,2.1,2.1,0,0,1,1.89-2,3,3,0,0,1-.3-1.39,2.12,2.12,0,0,1,2.16-2.11c1.88,0,2.31,1.31,2.63,2.27a4.38,4.38,0,0,0,.34.87c.72,1.27,2.25,1.69,3.74,2.1l.8.23a.51.51,0,0,1,.34.64.51.51,0,0,1-.64.35l-.78-.22c-1.61-.45-3.43-1-4.36-2.59a5.74,5.74,0,0,1-.43-1.06c-.33-1-.56-1.56-1.64-1.56a1.08,1.08,0,0,0-1.12,1.08,1.7,1.7,0,0,0,.51,1.36.61.61,0,0,1,.2.69c-.14.36-.45.35-.92.35h-.22a1.12,1.12,0,0,0-1.16,1c0,.48.43,1,1.39,1a9.08,9.08,0,0,0,1.61-.2,9.74,9.74,0,0,1,1.82-.23,4.94,4.94,0,0,1,2,.51,5.93,5.93,0,0,0,1.12.38.52.52,0,0,1-.09,1Z"/><path class="cls-2" d="M116.25,105.51c-1.22,0-1.79-1-2.26-1.85a3.94,3.94,0,0,0-.86-1.2,7.37,7.37,0,0,0-3.92-1.13l-.48,0a.52.52,0,0,1,.11-1l.47,0a8.19,8.19,0,0,1,4.46,1.34,5,5,0,0,1,1.13,1.52c.46.82.77,1.32,1.35,1.32s1.31-.27,1.31-.93a2.12,2.12,0,0,0-.41-1,.51.51,0,0,1,.41-.79c.94,0,2.34-.52,2.34-1.41a1,1,0,0,0-1.13-1c-.3,0-.84.07-1.47.14a28.45,28.45,0,0,1-2.93.23,7.43,7.43,0,0,1-3.18-.62.51.51,0,0,1-.25-.68.52.52,0,0,1,.68-.26,6.37,6.37,0,0,0,2.75.52,26.79,26.79,0,0,0,2.81-.22,15.59,15.59,0,0,1,1.59-.14,2,2,0,0,1,2.16,2c0,1.36-1.34,2.08-2.53,2.34a2.46,2.46,0,0,1,.19.91A2.16,2.16,0,0,1,116.25,105.51Z"/><path class="cls-2" d="M81.07,126.77h0a.51.51,0,0,1-.46-.56,8.81,8.81,0,0,0,0-.94c0-.29,0-.58,0-.87s0-.6,0-.9a8.73,8.73,0,0,1,.14-1.72.51.51,0,0,1,.61-.4.52.52,0,0,1,.41.61,7.25,7.25,0,0,0-.13,1.51c0,.29,0,.58,0,.87s0,.6,0,.9,0,.72,0,1A.52.52,0,0,1,81.07,126.77Z"/><path class="cls-2" d="M81.26,124.6c-.27,0-.55,0-.82,0a8.58,8.58,0,0,0-1.35,0,.52.52,0,0,1-.57-.46.52.52,0,0,1,.45-.57,9.55,9.55,0,0,1,1.52,0l.77,0a3.66,3.66,0,0,0,1.5-.27.51.51,0,0,1,.42.94A4.56,4.56,0,0,1,81.26,124.6Z"/><path class="cls-2" d="M72.53,35.41c-.32-.35-.63-.7-.92-1.06a.52.52,0,1,1,.8-.65c.27.34.56.66.87,1l-.37.37Zm-1.88-3.25a.51.51,0,0,1-.49-.36,7,7,0,0,1-.29-1.47.51.51,0,0,1,.48-.55.51.51,0,0,1,.56.47,5.55,5.55,0,0,0,.23,1.24.52.52,0,0,1-.33.65Zm-.07-4.09-.11,0a.5.5,0,0,1-.39-.61,9.4,9.4,0,0,1,.41-1.4.51.51,0,1,1,1,.37,8.22,8.22,0,0,0-.36,1.25A.52.52,0,0,1,70.58,28.07Zm1.81-3.67a.5.5,0,0,1-.34-.13.52.52,0,0,1,0-.73,7.38,7.38,0,0,1,1.08-1,.52.52,0,0,1,.63.82,7.14,7.14,0,0,0-.94.88A.52.52,0,0,1,72.39,24.4Zm3.44-2.21a.52.52,0,0,1-.49-.36.52.52,0,0,1,.33-.65,9.5,9.5,0,0,1,1.42-.35.5.5,0,0,1,.59.42.52.52,0,0,1-.42.6,8.59,8.59,0,0,0-1.26.31A.51.51,0,0,1,75.83,22.19ZM81.28,22l-.13,0a8,8,0,0,0-1.28-.23.52.52,0,0,1-.46-.57.51.51,0,0,1,.57-.46,9.73,9.73,0,0,1,1.43.26.52.52,0,0,1,.37.63A.52.52,0,0,1,81.28,22Z"/><path class="cls-2" d="M39.81,114.8a.52.52,0,0,1-.52-.49c0-.28,0-.56,0-.84s0-.39,0-.58a.5.5,0,0,1,.54-.5.52.52,0,0,1,.5.53c0,.18,0,.37,0,.55s0,.53,0,.79a.52.52,0,0,1-.5.54Zm.28-4.12H40a.52.52,0,0,1-.42-.6q.12-.69.3-1.38a.51.51,0,0,1,.62-.38.52.52,0,0,1,.38.63c-.11.44-.2.88-.28,1.31A.52.52,0,0,1,40.09,110.68Zm1.12-4a.57.57,0,0,1-.18,0,.52.52,0,0,1-.3-.67c.17-.43.35-.87.55-1.3a.51.51,0,0,1,.68-.26.52.52,0,0,1,.26.69c-.19.41-.36.83-.52,1.24A.52.52,0,0,1,41.21,106.7ZM43,103a.59.59,0,0,1-.26-.07.52.52,0,0,1-.19-.71c.23-.4.47-.8.73-1.2a.52.52,0,1,1,.87.56c-.24.38-.48.77-.7,1.16A.54.54,0,0,1,43,103Zm2.29-3.45a.5.5,0,0,1-.31-.1.52.52,0,0,1-.1-.73l.87-1.1a.51.51,0,0,1,.72-.07.52.52,0,0,1,.08.73c-.29.35-.57.71-.84,1.07A.55.55,0,0,1,45.3,99.53ZM48,96.37a.54.54,0,0,1-.35-.14.52.52,0,0,1,0-.73c.32-.35.65-.68,1-1a.52.52,0,0,1,.73,0,.51.51,0,0,1,0,.73c-.32.32-.64.65-.95,1A.52.52,0,0,1,48,96.37Z"/><path class="cls-2" d="M19.36,46.45a.45.45,0,0,1-.16,0,9.14,9.14,0,0,1-1.35-.58.52.52,0,0,1-.21-.71.51.51,0,0,1,.7-.2,7.78,7.78,0,0,0,1.18.51.52.52,0,0,1-.16,1ZM16,44.13a.53.53,0,0,1-.42-.21,6.55,6.55,0,0,1-.76-1.28.52.52,0,0,1,.26-.69.52.52,0,0,1,.68.26,6.28,6.28,0,0,0,.65,1.09.52.52,0,0,1-.41.83Z"/><path class="cls-2" d="M14.44,35.27a.52.52,0,0,1-.51-.43,6,6,0,0,1-.1-1.11c0-.13,0-.25,0-.38a.52.52,0,1,1,1,.06c0,.1,0,.21,0,.32a5,5,0,0,0,.08.94.53.53,0,0,1-.43.6Zm.64-4a.5.5,0,0,1-.23-.05.52.52,0,0,1-.23-.69,8.44,8.44,0,0,1,.75-1.25.52.52,0,0,1,.85.6A7.12,7.12,0,0,0,15.55,31,.52.52,0,0,1,15.08,31.25Z"/><path class="cls-2" d="M135.69,54.53a.52.52,0,0,1-.51-.52c0-.44,0-.88,0-1.32a.52.52,0,1,1,1,0c0,.45,0,.9,0,1.35A.52.52,0,0,1,135.69,54.53Zm-.16-4.1A.51.51,0,0,1,135,50c0-.45-.08-.91-.13-1.36a.51.51,0,0,1,.45-.57.53.53,0,0,1,.58.45c.05.47.09.93.13,1.39a.5.5,0,0,1-.47.56Zm-.55-4.1a.5.5,0,0,1-.5-.42c-.09-.45-.18-.9-.28-1.34a.51.51,0,0,1,.39-.61.51.51,0,0,1,.62.39c.1.45.2.91.28,1.37a.51.51,0,0,1-.41.6Zm-1-4a.52.52,0,0,1-.5-.36c-.13-.43-.28-.86-.43-1.29a.52.52,0,1,1,1-.35c.16.44.31.89.45,1.33a.53.53,0,0,1-.34.65Zm-1.51-3.85a.52.52,0,0,1-.47-.29c-.2-.41-.41-.81-.62-1.2a.52.52,0,0,1,.2-.71.54.54,0,0,1,.71.21c.22.41.44.83.64,1.25a.51.51,0,0,1-.24.69A.44.44,0,0,1,132.49,38.46Zm-2.1-3.56a.54.54,0,0,1-.43-.22c-.26-.36-.53-.72-.81-1.07A.52.52,0,1,1,130,33c.29.36.58.74.86,1.12a.52.52,0,0,1-.12.72A.49.49,0,0,1,130.39,34.9Zm-2.71-3.12a.51.51,0,0,1-.36-.15c-.32-.3-.66-.6-1-.89a.51.51,0,0,1-.06-.73.52.52,0,0,1,.73-.07c.36.31.71.62,1,.94a.52.52,0,0,1,0,.74A.54.54,0,0,1,127.68,31.78Z"/><path class="cls-2" d="M91.09,135.68a.52.52,0,0,1-.49-.33.53.53,0,0,1,.3-.67l1.28-.5a.52.52,0,1,1,.39,1l-1.3.5Zm3.83-1.55a.51.51,0,0,1-.47-.32.53.53,0,0,1,.27-.68l1.25-.55a.52.52,0,0,1,.69.26.51.51,0,0,1-.26.68l-1.27.56A.54.54,0,0,1,94.92,134.13Zm3.76-1.74a.52.52,0,0,1-.23-1l1.23-.62a.52.52,0,0,1,.47.92l-1.24.63A.59.59,0,0,1,98.68,132.39Zm3.66-1.94a.52.52,0,0,1-.26-1l1.18-.69a.52.52,0,0,1,.71.17.51.51,0,0,1-.18.71c-.39.24-.79.48-1.2.71A.55.55,0,0,1,102.34,130.45Zm3.52-2.18a.51.51,0,0,1-.43-.23.52.52,0,0,1,.14-.72l1.13-.77a.52.52,0,0,1,.6.85l-1.15.78A.52.52,0,0,1,105.86,128.27Z"/><path class="cls-2" d="M52.78,4.07a.53.53,0,0,1-.46-.27.52.52,0,0,1,.21-.7,12,12,0,0,1,1.31-.61.52.52,0,0,1,.67.3.51.51,0,0,1-.29.67A9.36,9.36,0,0,0,53,4,.5.5,0,0,1,52.78,4.07Zm3.91-1.31a.52.52,0,0,1-.51-.43.51.51,0,0,1,.41-.6c.44-.08.9-.15,1.4-.22a.51.51,0,0,1,.57.45.51.51,0,0,1-.44.58c-.48.06-.92.13-1.34.21Z"/><path class="cls-2" d="M81.81,2.51h0l-1.4-.09a.53.53,0,0,1-.47-.56.51.51,0,0,1,.56-.47l1.36.09a.52.52,0,0,1,0,1Zm-4.12-.38h-.06l-.19,0L76.26,2a.51.51,0,0,1-.45-.57.52.52,0,0,1,.57-.46l1.18.14.19,0a.52.52,0,0,1,.45.58A.52.52,0,0,1,77.69,2.13Zm-4.12-.41h0c-.48,0-.92,0-1.35,0a.52.52,0,0,1-.52-.51.52.52,0,0,1,.52-.52c.45,0,.91,0,1.41,0a.52.52,0,0,1,.49.54A.52.52,0,0,1,73.57,1.72Z"/><path class="cls-2" d="M97,15.86a.51.51,0,0,1-.31-.11c-.27-.2-.54-.39-.84-.59s-.7-.49-1-.76a.52.52,0,0,1-.1-.71l.33-.45.76-1.06a.53.53,0,0,1,.69-.15c.66.4,1.38.81,2.19,1.27a.57.57,0,0,1,.26.35.52.52,0,0,1-.11.43c-.35.43-.73.84-1.1,1.23-.11.13-.23.26-.35.38A.52.52,0,0,1,97,15.86Zm-1.15-2,.59.42.5.34,0,0,.65-.71-1.26-.73-.5.68Z"/><path class="cls-2" d="M50.78,32.14a.52.52,0,0,1-.52-.47c-.06-.71-.09-1.3-.09-1.85A10,10,0,0,1,51,25.57a.52.52,0,0,1,.69-.26A.53.53,0,0,1,52,26a8.83,8.83,0,0,0-.76,3.82c0,.52,0,1.08.09,1.76a.52.52,0,0,1-.47.56Z"/><path class="cls-2" d="M88.27,46.06a.51.51,0,0,1-.2,0l-.47-.2a11.81,11.81,0,0,1-4.66-2.9.52.52,0,0,1,.8-.66A10.85,10.85,0,0,0,88,44.87l.48.2a.52.52,0,0,1,.27.68A.51.51,0,0,1,88.27,46.06Z"/></g></g></svg>