<svg xmlns="http://www.w3.org/2000/svg" viewBox="0 0 141.73 142.04"><defs><style>.cls-1{fill:#ffcc80;}.cls-2{fill:#fff;}</style></defs><title>018_w</title><g id="Layer_2" data-name="Layer 2"><g id="Layer_1-2" data-name="Layer 1"><path class="cls-1" d="M17.68,30.94l-.3.73a.45.45,0,0,0-.31-.12H17a.44.44,0,0,0-.44.44,1.41,1.41,0,0,0,0,.18v0a.52.52,0,0,1-.17-.13.91.91,0,0,0-.19-.13,6,6,0,0,0-.33-1.55.37.37,0,0,0-.72.2A6.3,6.3,0,0,1,15,32.88a3.55,3.55,0,0,0-.24.82v0a.78.78,0,0,0,0,.16c-.09.7,1,.76,1.18.16a4.44,4.44,0,0,0,.16-.6l0-.07a2.2,2.2,0,0,0,1.49.16.62.62,0,0,0,.27-.09,1.55,1.55,0,0,0,.58-.44.69.69,0,0,0,0-.9c.07-.31.13-.62.19-.92A.48.48,0,0,0,17.68,30.94Z"/><path class="cls-1" d="M82.67,111.55a.78.78,0,0,0-1.34-.22l-.08,0a.59.59,0,0,0-.35-.12.76.76,0,0,0-.51-.36.46.46,0,0,0-.62-.07,2.47,2.47,0,0,0-1,1.43.66.66,0,0,0,.74.81.75.75,0,0,0,.81.33,1.72,1.72,0,0,0,.8-.39,1.24,1.24,0,0,0,1,0A1.08,1.08,0,0,0,82.67,111.55Z"/><path class="cls-1" d="M43.49,72.22a.91.91,0,0,0-.65-.35c-.06-.15-.13-.3-.2-.44a.91.91,0,0,0-1.66.38.9.9,0,0,0-1.26.27,22.11,22.11,0,0,1-1.43,2,14.71,14.71,0,0,1,1.08-2.74A.8.8,0,0,0,38,70.54l-1.21,1.62c.17-.53.38-1.06.59-1.63a.25.25,0,0,0-.37-.28c-1.44,1-1.92,2.92-1.94,4.55a.7.7,0,0,0,1.18.49l.09-.1c-.1.55-.18,1.11-.23,1.68a.83.83,0,0,0,1.06.81,3.53,3.53,0,0,0,2.78,0,5.14,5.14,0,0,0,.92-.43,3.25,3.25,0,0,0,.56.29.94.94,0,0,0,1.05-.43,6.77,6.77,0,0,0,.63-1.78.76.76,0,0,0,.61-.26,2.63,2.63,0,0,0,.76-2A.86.86,0,0,0,43.49,72.22Zm-2.2.76a5.25,5.25,0,0,1,.09.55l-.26.39A6.42,6.42,0,0,1,41.29,73Zm-3,3.74c.38-.4.76-.81,1.11-1.23,0,.23.09.47.15.71a1,1,0,0,0,0,.1,3.36,3.36,0,0,1-.43.2A2.85,2.85,0,0,1,38.31,76.72Z"/><path class="cls-1" d="M89,22.14a1,1,0,0,0-1.27-.31,1,1,0,0,0-1.55,1,3.32,3.32,0,0,1,.09.55l0,0a1.8,1.8,0,0,0-.6-.28,2.23,2.23,0,0,0,0-.34A.89.89,0,0,0,84.28,22a6.57,6.57,0,0,0-1.38,1.18,3.73,3.73,0,0,0-1.93,2,3.39,3.39,0,0,0-.18,2.24,3.63,3.63,0,0,0,1.43,2.7c1.64,1.21,3.87.52,5.13-.92a5.51,5.51,0,0,0,1.25-3.92A2.44,2.44,0,0,0,89,22.14Z"/><path class="cls-1" d="M129.34,63.81a4.34,4.34,0,0,0-1.43.33.37.37,0,0,0-.49-.2,4.25,4.25,0,0,0-2.1,1.7,5,5,0,0,0-1.51,2.08,1,1,0,0,0,.42,1.13V69c.12,2.15,2.52,2.49,4.16,1.92a5.34,5.34,0,0,0,.92-.4,3,3,0,0,0,2.44-2C132.3,66.7,131.73,63.74,129.34,63.81Zm.65,3.37-.13-.1a1.49,1.49,0,0,0-.77-.25.64.64,0,0,0-.18-.06,3.59,3.59,0,0,0-.08-.35c.09-.18.18-.36.26-.55a.73.73,0,0,1,.61.1A1.56,1.56,0,0,1,130,67.18Zm-2.86,1c-.2.38-.47.49-.71.37A4.79,4.79,0,0,0,127.13,68.2Z"/><path class="cls-1" d="M18.7,95.45a1.3,1.3,0,0,0-1.25-.6,1.24,1.24,0,0,0-.83.5l-.19.09a.55.55,0,0,0-.78.28,5.28,5.28,0,0,0-.19.76,1.15,1.15,0,0,0-.33.77v.14a1.06,1.06,0,0,0,1.71.81,1.09,1.09,0,0,0,.6.08A1.11,1.11,0,0,0,18,98a1.07,1.07,0,0,0,.49-.15,1.2,1.2,0,0,0,.59-1A2.3,2.3,0,0,0,18.7,95.45Z"/><path class="cls-1" d="M42.19,18.62a1.13,1.13,0,0,0-.77-.82,1.14,1.14,0,0,0-.9-.41,1.26,1.26,0,0,0-1,.57,1.09,1.09,0,0,0-1.08.77L38,19.8h0a1,1,0,0,0,.39,1.1,1.19,1.19,0,0,0,.67.5,1.11,1.11,0,0,0,1.12-.34,1.21,1.21,0,0,0,1.39-.91,1.18,1.18,0,0,0,.22-.17A1.44,1.44,0,0,0,42.19,18.62Z"/><path class="cls-1" d="M108.79,28.19v-.05c0-.15,0-.29,0-.43a1.8,1.8,0,0,0-.49-1l-.25-.19a2.08,2.08,0,0,0-.42-.61,1.13,1.13,0,0,0-1.31-.12.48.48,0,0,0-.16.08c-.39.31-.48.81-.71,1.23a.85.85,0,0,0,.92,1.24.94.94,0,0,0,.18.12.17.17,0,0,0,0,.07,1.53,1.53,0,0,0,.5,1C107.94,30.35,109.46,29.33,108.79,28.19Z"/><path class="cls-1" d="M106.46,125a4.66,4.66,0,0,0-.57-1.56,1.23,1.23,0,0,0-1.78-.34,1.2,1.2,0,0,0-1.53.78,2.68,2.68,0,0,1-.07.27,1.34,1.34,0,0,0-.19,1.25,1.06,1.06,0,0,0,.63.63,1.39,1.39,0,0,0,.85.11,1.15,1.15,0,0,0,.66.08,1.17,1.17,0,0,0,1.14.29A1.28,1.28,0,0,0,106.46,125Z"/><path class="cls-1" d="M43.86,132.73a1.06,1.06,0,0,0-2,0,13.17,13.17,0,0,0,0,3.32c-.07,1.36,2,1.36,2.11,0A13.66,13.66,0,0,0,43.86,132.73Z"/><path class="cls-1" d="M47.19,130.53a.5.5,0,0,0-.66.4c-.57,1.69-.36,3.82-.5,5.59a1.16,1.16,0,0,0,2.27.31c.38-1.81.84-3.61,1.12-5.43C49.64,130,47.73,129.32,47.19,130.53Z"/><path class="cls-1" d="M55.71,129a1.21,1.21,0,0,0-2.31,0c-.16.53-.31,1.06-.44,1.6a1.09,1.09,0,0,0,.84,1.39c0,1.21,0,2.43-.16,3.63s1.87,1.48,2.2.3A12.71,12.71,0,0,0,55.71,129Z"/><path class="cls-1" d="M30.62,49.44a3.24,3.24,0,0,0-2.95,1.22,1.86,1.86,0,0,0-.33.19,1.93,1.93,0,0,0,0,3c.62.44,1.34-.28,1.19-.92,0,0,0-.06,0-.09.53,0,.14,0,0-.07l.31,0a15.49,15.49,0,0,1,1.61.65,2,2,0,0,0,2.64-1.71A2.54,2.54,0,0,0,30.62,49.44Z"/><path class="cls-2" d="M39.79,17.42h-.15a2.64,2.64,0,0,1-2.46-2.53A2.73,2.73,0,0,1,39.61,12l.26,0a2.71,2.71,0,0,1,1.87,4.66A2.77,2.77,0,0,1,39.79,17.42Zm-.09-4.37a1.7,1.7,0,0,0-1.47,1.8,1.59,1.59,0,0,0,1.46,1.53A1.79,1.79,0,0,0,41,15.9a1.68,1.68,0,0,0,.51-1.22A1.64,1.64,0,0,0,39.87,13Z"/><path class="cls-2" d="M38.08,21.49a.53.53,0,0,1-.48-.33,4.37,4.37,0,0,1-.32-1.62,3.66,3.66,0,0,1,1.39-2.93.52.52,0,1,1,.63.83,2.56,2.56,0,0,0-1,2.1,3.28,3.28,0,0,0,.24,1.23.54.54,0,0,1-.29.68A.71.71,0,0,1,38.08,21.49Z"/><path class="cls-2" d="M42.26,20.88a.35.35,0,0,1-.14,0,.51.51,0,0,1-.36-.64,2.27,2.27,0,0,0,.08-.59A4.61,4.61,0,0,0,40.7,17a.53.53,0,0,1,.07-.74.51.51,0,0,1,.73.08,5.54,5.54,0,0,1,1.38,3.29,3.22,3.22,0,0,1-.12.88A.51.51,0,0,1,42.26,20.88Z"/><path class="cls-2" d="M40,24.75H40A7.79,7.79,0,0,1,32.29,17,7.67,7.67,0,0,1,38.7,9.32a9.42,9.42,0,0,1,1.38-.12,8,8,0,0,1,5.27,2.08A7.55,7.55,0,0,1,47.89,17,7.84,7.84,0,0,1,40,24.75Zm-1.19-14.4A6.63,6.63,0,0,0,33.33,17a6.76,6.76,0,0,0,13.52,0,6.5,6.5,0,0,0-2.2-4.91,7,7,0,0,0-4.56-1.81A8.65,8.65,0,0,0,38.85,10.35Z"/><path class="cls-2" d="M34.46,26.23c-2,0-5.52-3-5.52-7.94,0-3.71,2.38-7.21,3.28-7.21a.52.52,0,0,1,.52.52.8.8,0,0,1-.24.51.53.53,0,0,1-.34.19,9.72,9.72,0,0,0-2.18,6c0,4.53,3.33,6.9,4.48,6.9h.15a.52.52,0,1,1,.15,1Z"/><path class="cls-2" d="M44.41,25.55a.53.53,0,0,1,0-1.05,6.74,6.74,0,0,0,6.17-5.87.52.52,0,0,1,1,.08,7.81,7.81,0,0,1-7.13,6.83Z"/><path class="cls-2" d="M49.47,15.34A.52.52,0,0,1,49,15c-2.33-5.89-6-7.27-7.53-7.59a.52.52,0,0,1,.22-1c5,1.07,7.44,6.11,8.28,8.23a.5.5,0,0,1-.29.67A.46.46,0,0,1,49.47,15.34Z"/><path class="cls-2" d="M20.6,26.92a.46.46,0,0,1-.28-.08.51.51,0,0,1-.16-.72c1.49-2.33,3.31-4.92,6-6.08a.52.52,0,0,1,.42,1c-2.44,1-4.15,3.48-5.56,5.68A.51.51,0,0,1,20.6,26.92Z"/><path class="cls-2" d="M50.2,8.91a.52.52,0,0,1-.52-.53V8.2a.53.53,0,0,1,.61-.52,21.1,21.1,0,0,1,7.62-3.12.53.53,0,0,1,.21,1,19.51,19.51,0,0,0-7.61,3.22A.57.57,0,0,1,50.2,8.91Z"/><path class="cls-2" d="M41,29.68h0l-1-.08a19.73,19.73,0,0,0-2-.13c-.25,0-.47,0-.69,0a.53.53,0,0,1-.56-.49.51.51,0,0,1,.48-.55c.25,0,.5,0,.77,0a20.39,20.39,0,0,1,2.09.13l1,.08a.52.52,0,0,1,0,1Z"/><path class="cls-2" d="M27.56,29.92a1.61,1.61,0,0,1-1.72-1.5,1.79,1.79,0,0,1,1.74-1.71,1.54,1.54,0,0,1,1.11.43,1.82,1.82,0,0,1,.47,1.23A1.49,1.49,0,0,1,27.56,29.92Zm0-2.17a.76.76,0,0,0-.69.67c0,.25.29.45.67.45s.55-.16.55-.5a.77.77,0,0,0-.16-.49A.52.52,0,0,0,27.58,27.75Z"/><path class="cls-2" d="M49.57,29.44c-.59,0-1.5-.57-1.5-1.33,0-.55.55-1.61,1.4-1.61a1.45,1.45,0,0,1,1.43,1.39,1.09,1.09,0,0,1,0,.18A1.34,1.34,0,0,1,49.57,29.44Zm-.1-1.89a.92.92,0,0,0-.35.56.77.77,0,0,0,.45.29.3.3,0,0,0,.3-.33.56.56,0,0,0-.36-.52Z"/><path class="cls-2" d="M56,10.76a.51.51,0,0,1-.17,0,.82.82,0,0,1-.6-.74.75.75,0,0,1,.49-.69.5.5,0,0,1,.61.11.4.4,0,0,1,.15.1.7.7,0,0,1,.22.52A.73.73,0,0,1,56,10.76Z"/><path class="cls-2" d="M56.12,13.72a.82.82,0,0,1-.76-.83.69.69,0,0,1,.4-.65.53.53,0,0,1,.39,0l.1,0a.75.75,0,0,1,.57.71A.79.79,0,0,1,56.12,13.72Z"/><path class="cls-2" d="M56.39,16.53a.76.76,0,0,1-.75-.75.5.5,0,0,1,.13-.49.87.87,0,0,1,.6-.3.77.77,0,0,1,.57,1.29A.73.73,0,0,1,56.39,16.53Z"/><path class="cls-2" d="M60.54,10.58h-1.7a.52.52,0,0,1,0-1h1.7a9.21,9.21,0,0,0,1.62-.11.53.53,0,0,1,.6.43.52.52,0,0,1-.43.6A10.2,10.2,0,0,1,60.54,10.58Z"/><path class="cls-2" d="M58.93,13.41a.54.54,0,0,1-.52-.48.52.52,0,0,1,.48-.56c1.13-.1,2.36-.1,3.45-.1a.53.53,0,0,1,0,1.05c-1.12,0-2.28,0-3.36.09Z"/><path class="cls-2" d="M62.43,15.89h-3.5a.52.52,0,0,1,0-1h3.5a.52.52,0,1,1,0,1Z"/><path class="cls-2" d="M58.75,29.7a.52.52,0,0,1-.51-.42,2.24,2.24,0,0,0-.11-.34c0-.13-.09-.27-.13-.44-.2-.88-.39-1.76-.6-2.64a9.17,9.17,0,0,1-1.61,1,.51.51,0,0,1-.69-.25.52.52,0,0,1,.25-.69,11,11,0,0,0,2.06-1.34.53.53,0,0,1,.49-.07.51.51,0,0,1,.33.37c.28,1.13.53,2.28.78,3.4a1.93,1.93,0,0,0,.11.34,4.93,4.93,0,0,1,.14.48.53.53,0,0,1-.41.62Z"/><path class="cls-2" d="M59.94,29.32a.52.52,0,1,1,0-1c1.14,0,2.36-.23,2.36-.85,0-.3,0-1.09-1.88-1.09l-.61,0a.48.48,0,0,1-.42-.16.52.52,0,0,1-.14-.43c.1-.69.17-1.41.22-2.14a.53.53,0,0,1,.44-.48L61,23a7.66,7.66,0,0,0,1.67-.27.52.52,0,0,1,.31,1,8.66,8.66,0,0,1-1.89.31l-.56.06c0,.39-.07.78-.11,1.16h.05c2.55,0,2.93,1.34,2.93,2.14S62.9,29.32,59.94,29.32Z"/><path class="cls-2" d="M65.55,25.73a1.26,1.26,0,0,1-1.27-1.31A1.28,1.28,0,0,1,65.47,23a.43.43,0,0,1,.25.07.47.47,0,0,1,.2-.1.78.78,0,0,1,.22,0c.66,0,1.15.8,1.15,1.34a1.63,1.63,0,0,1-1.42,1.41h-.32ZM65.79,24a.52.52,0,0,1-.32.11c-.06,0-.14.17-.14.35s0,.27.22.27h.32a.85.85,0,0,0,.37-.38.53.53,0,0,0-.15-.27A.51.51,0,0,1,65.79,24Zm.38.05Z"/><path class="cls-2" d="M66.29,30.1a.58.58,0,0,1-.19,0,.53.53,0,0,1-.3-.68,35.75,35.75,0,0,1,3.65-6.74.52.52,0,1,1,.87.58,34.31,34.31,0,0,0-3.55,6.54A.51.51,0,0,1,66.29,30.1Z"/><path class="cls-2" d="M70.43,29.13h-.14A1.54,1.54,0,0,1,69,27.52a1.59,1.59,0,0,1,.63-1.25,1.39,1.39,0,0,1,.75-.27,1.65,1.65,0,0,1,1.21.42,1.48,1.48,0,0,1,.52,1,1.6,1.6,0,0,1-.5,1.22A1.63,1.63,0,0,1,70.43,29.13Zm0-2.09h0a.38.38,0,0,0-.21.07.57.57,0,0,0,.18,1A.6.6,0,0,0,71,27.5a.42.42,0,0,0-.16-.3A.66.66,0,0,0,70.44,27Z"/><path class="cls-2" d="M49.1,36.28a.5.5,0,0,1-.37-.16c-.48-.5-.95-1-1.41-1.53-.27-.31-.55-.62-.83-.92a22.33,22.33,0,0,0-2.26,2.18.54.54,0,0,1-.38.17.5.5,0,0,1-.38-.15l-.5-.48c-.5-.5-1-1-1.55-1.47L41,34.2a24.39,24.39,0,0,0-2.1,1.57.51.51,0,0,1-.73-.05.52.52,0,0,1,0-.74,25.87,25.87,0,0,1,2.18-1.64l.72-.51a.53.53,0,0,1,.63,0c.68.56,1.32,1.19,1.93,1.79l.1.11a31.58,31.58,0,0,1,2.37-2.2.52.52,0,0,1,.72,0c.41.43.8.87,1.2,1.3s.7.78,1,1.16c.61-.48,1.24-.93,1.85-1.37l.85-.62a.51.51,0,0,1,.58,0c1,.58,1.81,1.12,2.63,1.65.55-.48,1.11-1,1.66-1.4l.57-.47a.52.52,0,0,1,.73.07.51.51,0,0,1-.06.73l-.57.47c-.68.56-1.31,1.09-1.94,1.65a.53.53,0,0,1-.64.05c-.81-.55-1.67-1.1-2.62-1.67l-.58.41c-.72.53-1.47,1.07-2.17,1.64A.54.54,0,0,1,49.1,36.28Z"/><path class="cls-2" d="M26.06,37.91a.52.52,0,0,1-.52-.48c-.1-1.41-.11-2.78-.12-4.06a.53.53,0,0,1,.49-.52c1.36-.09,2.74-.11,4.08-.14l1.08,0a.52.52,0,0,1,.38.15.54.54,0,0,1,.15.38v.47c0,1,.06,2,.12,3.09V37a.51.51,0,0,1-.47.55c-1.41.14-3.28.3-5.18.38Zm.41-4c0,1,0,2,.08,3,1.48-.07,2.92-.19,4.11-.3-.05-.92-.11-1.86-.11-2.79H30C28.85,33.78,27.65,33.8,26.47,33.86Z"/><path class="cls-2" d="M19.86,45.65c-.73,0-1.46,0-2.14,0a.54.54,0,0,1-.51-.5c-.07-1.3-.18-2.71-.33-4.19a.51.51,0,0,1,.13-.41.54.54,0,0,1,.4-.17c1.44,0,3,0,4.28-.06a.53.53,0,0,1,.53.49c.06.75.07,1.51.09,2.25s0,1.34.06,2a.51.51,0,0,1-.48.55C21.27,45.63,20.61,45.65,19.86,45.65Zm-1.63-1.07,1.63,0q.78,0,1.44,0c0-.51,0-1,0-1.53s0-1.13-.05-1.7c-1,0-2.15.06-3.23,0C18.08,42.5,18.17,43.57,18.23,44.58Z"/><path class="cls-2" d="M30.42,45.44c-.78,0-1.56,0-2.32-.06-.58,0-1.16-.05-1.74-.06a.51.51,0,0,1-.51-.49c0-.48-.05-1-.07-1.44,0-.78-.08-1.6-.14-2.4a.52.52,0,0,1,.14-.39.54.54,0,0,1,.39-.17c1,0,2.06,0,3.07,0l2,0a.53.53,0,0,1,.53.48c.07.72.07,1.42.07,2V44.9a.52.52,0,0,1-.5.53Zm-3.56-1.15,1.28.05c.87,0,1.76.07,2.63.06v-.08c0-.25,0-.5,0-.75v-.73c0-.43,0-.92,0-1.43l-1.49,0c-.83,0-1.69,0-2.54,0,0,.63.07,1.25.1,1.87C26.83,43.66,26.85,44,26.86,44.29Z"/><path class="cls-2" d="M28.65,54.18l-1.76,0a.52.52,0,0,1-.5-.48c-.05-.67-.1-1.33-.14-2l-.15-2.12a.51.51,0,0,1,.14-.4.55.55,0,0,1,.39-.16c.83,0,1.69,0,2.65,0l2.88,0a.48.48,0,0,1,.37.15.52.52,0,0,1,.16.37c0,.44,0,.88,0,1.32v1.27c0,.46,0,.91,0,1.36a.51.51,0,0,1-.46.53A33.21,33.21,0,0,1,28.65,54.18Zm-1.26-1.06A35.86,35.86,0,0,0,31.64,53c0-.3,0-.6,0-.9s0-.87,0-1.3c0-.25,0-.5,0-.76l-2.37,0c-.75,0-1.44,0-2.1,0,0,.52.07,1,.11,1.55S27.36,52.61,27.39,53.12Z"/><path class="cls-2" d="M41.26,44.69H38.74l-1.21,0A.53.53,0,0,1,37,44.2L36.93,43c0-.91-.08-1.85-.18-2.78a.56.56,0,0,1,.14-.41.5.5,0,0,1,.4-.16c1.11,0,2.24,0,3.34,0l1.31,0a.51.51,0,0,1,.53.5c0,.44,0,.88.07,1.32,0,.72.09,1.46.09,2.2,0,.2,0,.41,0,.61a.51.51,0,0,1-.51.5Zm-2.52-1.06h2.84v-.08c0-.71,0-1.43-.09-2.14,0-.27,0-.55,0-.83l-.8,0c-.71,0-1.45,0-2.17,0h-.63c.06.76.09,1.51.12,2.25l0,.72Z"/><path class="cls-2" d="M52.52,44.51c-1.29,0-2.81,0-4.32,0a.51.51,0,0,1-.51-.51c0-.24,0-.48,0-.72a19,19,0,0,0-.22-3.46.52.52,0,0,1,.11-.42.53.53,0,0,1,.39-.2l1.9-.08c.85,0,1.7-.08,2.55-.1a.52.52,0,0,1,.53.49c.06,1,.07,2,.08,3,0,.51,0,1,0,1.52a.54.54,0,0,1-.15.38A.52.52,0,0,1,52.52,44.51Zm-3.79-1.07,3.25,0c0-.33,0-.66,0-1,0-.79,0-1.61,0-2.42l-2,.08-1.33.06a24.39,24.39,0,0,1,.15,3.06Z"/><path class="cls-2" d="M39,54.19h-.55a.51.51,0,0,1-.5-.49c0-.62-.07-1.24-.11-1.85s-.09-1.39-.12-2.08a.52.52,0,0,1,.49-.55c1.27-.07,2.56-.08,3.8-.09l1.1,0a.64.64,0,0,1,.38.15.56.56,0,0,1,.15.37c0,.66,0,1.31,0,2s0,1.24,0,1.86a.53.53,0,0,1-.5.53c-.6,0-1.22.06-1.81.1C40.59,54.13,39.78,54.19,39,54.19Zm0-1c.79,0,1.59-.06,2.37-.12l1.34-.09,0-1.33c0-.48,0-1,0-1.46H42c-1.06,0-2.15,0-3.23.07,0,.51.06,1,.09,1.54S38.91,52.69,38.93,53.15Z"/><path class="cls-2" d="M39.57,63.9H39a.52.52,0,0,1-.52-.47c-.05-.53-.11-1.07-.17-1.61-.08-.72-.17-1.47-.22-2.2a.48.48,0,0,1,.13-.39.5.5,0,0,1,.38-.17,26.68,26.68,0,0,0,3-.29c.56-.08,1.14-.16,1.72-.22a.55.55,0,0,1,.39.12.52.52,0,0,1,.18.35c.1,1,.11,2.05.13,3.05,0,.36,0,.72,0,1.08a.51.51,0,0,1-.49.53c-.41,0-.8.06-1.2.09C41.64,63.82,40.78,63.9,39.57,63.9Zm-.08-1h.08c1.16,0,2-.07,2.74-.13l.73-.06c0-.19,0-.39,0-.59,0-.8,0-1.63-.08-2.43-.39,0-.78.1-1.16.15-.85.12-1.72.24-2.61.28.06.54.12,1.09.18,1.62S39.45,62.47,39.49,62.85Z"/><path class="cls-2" d="M39.94,49.72a.52.52,0,0,1-.52-.52c0-.69,0-1.38,0-2s0-1.32,0-2c0-.33,0-.66,0-1a.52.52,0,1,1,1,0c0,.35,0,.69,0,1,0,.68,0,1.36,0,2s0,1.33,0,2A.52.52,0,0,1,39.94,49.72Z"/><path class="cls-2" d="M40.93,59.6a.52.52,0,0,1-.52-.47c-.07-.69-.13-1.39-.18-2.07-.07-1-.14-2-.28-3a.52.52,0,1,1,1-.14c.14,1,.22,2,.3,3,0,.67.1,1.36.17,2a.51.51,0,0,1-.47.57Z"/><path class="cls-2" d="M42.28,42.81a.52.52,0,0,1-.52-.52.52.52,0,0,1,.52-.53,33.86,33.86,0,0,0,5.42-.38.52.52,0,1,1,.17,1A34.76,34.76,0,0,1,42.28,42.81Z"/><path class="cls-2" d="M35,43.22a.52.52,0,0,1-.12-1A9.14,9.14,0,0,1,36.15,42a7.62,7.62,0,0,0,1.11-.15.52.52,0,0,1,.62.4.51.51,0,0,1-.39.62,8.93,8.93,0,0,1-1.25.17,7.3,7.3,0,0,0-1.1.15Z"/><path class="cls-2" d="M31.57,43.28a.52.52,0,0,1-.06-1l.15,0c.53,0,1-.1,1.6-.1a.52.52,0,1,1,0,1c-.51,0-1,.05-1.5.1h-.19Z"/><path class="cls-2" d="M24.11,43.7a14.62,14.62,0,0,1-2.22-.14.51.51,0,0,1-.44-.59.52.52,0,0,1,.59-.44,13.7,13.7,0,0,0,2.07.12h1.43a.53.53,0,0,1,0,1H24.11Z"/><path class="cls-2" d="M28.67,40.75a.51.51,0,0,1-.52-.49l0-.5c0-.59-.08-1.21-.08-1.82,0-.24,0-.48,0-.72a.52.52,0,0,1,.55-.49.52.52,0,0,1,.49.55c0,.22,0,.44,0,.66,0,.58,0,1.15.08,1.75l0,.51a.52.52,0,0,1-.49.55Z"/><path class="cls-2" d="M29,49.74a.51.51,0,0,1-.51-.46,25.07,25.07,0,0,1-.17-2.86c0-.41,0-.83,0-1.24a.53.53,0,0,1,1.05,0l0,1.27a25.21,25.21,0,0,0,.16,2.75.51.51,0,0,1-.45.58Z"/><path class="cls-2" d="M6.2,53.68a1.9,1.9,0,0,1-1.4-.62,2,2,0,0,1-.53-1.61A1.66,1.66,0,0,1,5,50.19a2.18,2.18,0,0,1,1-.32,1.92,1.92,0,0,1,1.46.6A1.94,1.94,0,0,1,8,52a1.86,1.86,0,0,1-1.77,1.69Zm-.09-2.76h0a1,1,0,0,0-.49.15.65.65,0,0,0-.29.5,1,1,0,0,0,.27.78.85.85,0,0,0,.66.28A.81.81,0,0,0,7,51.91a.94.94,0,0,0-.25-.72A.87.87,0,0,0,6.11,50.92Z"/><path class="cls-2" d="M14,51.47h0a1.83,1.83,0,0,1-1.31-.6,2.09,2.09,0,0,1-.55-1.56A1.79,1.79,0,0,1,12.89,48a1.72,1.72,0,0,1,.79-.33,2,2,0,0,1,.47,0,1.86,1.86,0,0,1,1.77,1.92,2,2,0,0,1-.57,1.41A1.91,1.91,0,0,1,14,51.47Zm.06-2.84-.23,0a.83.83,0,0,0-.35.15.76.76,0,0,0-.32.59,1.07,1.07,0,0,0,.28.77.74.74,0,0,0,.55.26.85.85,0,0,0,.61-.24.94.94,0,0,0,.27-.66.84.84,0,0,0-.78-.89Z"/><path class="cls-2" d="M9.12,43.78a1.91,1.91,0,0,1-1.36-.6,2,2,0,0,1-.57-1.58,1.87,1.87,0,0,1,.29-.84,1.67,1.67,0,0,1,.77-.62A2.37,2.37,0,0,1,9,40a1.91,1.91,0,0,1,1.35.57A1.94,1.94,0,0,1,10.92,42a1.85,1.85,0,0,1-1.69,1.8ZM9,41a1.18,1.18,0,0,0-.42.1.57.57,0,0,0-.26.2,1,1,0,0,0-.13.38,1,1,0,0,0,.28.75.88.88,0,0,0,.65.29.81.81,0,0,0,.71-.8.88.88,0,0,0-.24-.68A.85.85,0,0,0,9,41Z"/><path class="cls-2" d="M7.74,51.88a.5.5,0,0,1-.5-.37.51.51,0,0,1,.35-.65c.78-.23,1.58-.5,2.35-.75s1.59-.53,2.39-.77a.52.52,0,0,1,.65.35.53.53,0,0,1-.35.65c-.78.23-1.58.5-2.36.76s-1.59.53-2.39.76A.32.32,0,0,1,7.74,51.88Z"/><path class="cls-2" d="M13.54,48.39a.51.51,0,0,1-.42-.21c-.28-.39-.56-.79-.85-1.18a41.47,41.47,0,0,0-2.53-3.32.52.52,0,0,1,.79-.68,42.18,42.18,0,0,1,2.59,3.39L14,47.56a.52.52,0,0,1-.11.73A.5.5,0,0,1,13.54,48.39Z"/><path class="cls-2" d="M15,36.94H15a.51.51,0,0,1-.43-.39A17,17,0,0,1,14,33.85c-.56-.2-1.13-.41-1.7-.59a.53.53,0,0,1-.36-.48.52.52,0,0,1,.34-.5c.63-.24,1.25-.53,1.88-.82,0-.2,0-.4,0-.62,0-.53,0-1.05.06-1.66a.52.52,0,0,1,.83-.39c.25.19.5.39.73.59s.49.42.74.61c.91-.16,1.75-.33,2.56-.53a.52.52,0,0,1,.54.2.51.51,0,0,1,0,.57c-.28.5-.53,1-.75,1.46.3.79.69,1.56,1.07,2.32l0,0a.54.54,0,0,1,0,.51.53.53,0,0,1-.43.25,8.87,8.87,0,0,1-2.47-.34l-.25.32a13.66,13.66,0,0,0-1.37,1.88A.53.53,0,0,1,15,36.94Zm-1-4.23.57.21.17.06a.51.51,0,0,1,.34.47,11.14,11.14,0,0,0,.22,1.66c.25-.34.51-.66.77-1l.46-.57a.52.52,0,0,1,.54-.19,11.39,11.39,0,0,0,1.64.35c-.3-.6-.58-1.23-.82-1.86a.55.55,0,0,1,0-.4c.11-.24.23-.48.35-.73-.55.12-1.12.22-1.72.32a.47.47,0,0,1-.38-.08,10.15,10.15,0,0,1-.89-.7v.57c0,.33,0,.62,0,.9a.53.53,0,0,1-.3.51Z"/><path class="cls-2" d="M2.91,64.39a.56.56,0,0,1-.32-.11c-.36-.27-.71-.56-1.07-.84s-.87-.69-1.31-1A.54.54,0,0,1,0,62.05a.55.55,0,0,1,.12-.39l1-1.13c.42-.48.85-1,1.25-1.46a.54.54,0,0,1,.37-.19A.52.52,0,0,1,3.1,59a28.76,28.76,0,0,0,2.24,1.81.53.53,0,0,1,.11.74c-.32.42-.66.84-1,1.23s-.77.91-1.11,1.39a.56.56,0,0,1-.35.21ZM1.28,61.92l.89.7.65.51c.27-.35.55-.68.83-1s.43-.51.65-.77c-.49-.37-1-.77-1.49-1.21-.3.37-.62.72-.92,1.07Z"/><path class="cls-2" d="M17.62,72.71h0l-1.52-.08c-.91-.06-1.86-.11-2.78-.1a.51.51,0,0,1-.37-.15.52.52,0,0,1-.16-.37c0-.29,0-.55,0-.81s0-.51,0-.76a7.33,7.33,0,0,0-.21-1.86l-.32.4a2.77,2.77,0,0,1-2.13,1.43H9.61A3.73,3.73,0,0,1,6.79,67a3,3,0,0,1,0-.46,1.91,1.91,0,0,0,0-.32c0-.79,1.3-3.25,3.14-3.25a2.39,2.39,0,0,1,1.66,1,2.15,2.15,0,0,0,.55.49,2,2,0,0,0,0-.53,27.41,27.41,0,0,0-.53-4.74.52.52,0,0,1,1-.18,28.13,28.13,0,0,1,.54,4.88,1.87,1.87,0,0,1-.37,1.35.94.94,0,0,1-.68.28,2,2,0,0,1-1.35-.83c-.3-.32-.61-.65-.9-.65-1.07,0-2.07,1.79-2.09,2.21a3.22,3.22,0,0,1,0,.48,1.69,1.69,0,0,0,0,.3,2.86,2.86,0,0,0,1.79,2.38h.52c.5,0,.85-.42,1.3-1s.7-.93,1.25-.93c1,0,1.15,1.64,1.15,3,0,.26,0,.52,0,.78v.27c.78,0,1.56.05,2.32.1l.95,0a4.16,4.16,0,0,0-.09-.79,1.9,1.9,0,0,0-.36-.64,2.32,2.32,0,0,1-.58-1.37v0c0-1.68,1.72-2.72,3.26-2.72A2.78,2.78,0,0,1,22.09,69,3.93,3.93,0,0,1,21.86,70a7,7,0,0,0-.34,1.51c.66,0,1.36-.07,2.17-.07h1c-.07-1-.08-2-.09-3V68a.52.52,0,0,1,.23-.43,2.21,2.21,0,0,1,1.31-.43,2.86,2.86,0,0,1,1,.23,4.39,4.39,0,0,0,1.63.33c1.06,0,1.58-.49,1.58-1.49a2.41,2.41,0,0,0-2.49-2.28,3.24,3.24,0,0,0-1.44.45,3.47,3.47,0,0,1-1.52.47h-.15a.51.51,0,0,1-.47-.49c-.06-1.09-.07-2.16-.07-3.07v-.83c-1,0-1.9.08-2.8.13a.52.52,0,0,1-.39-.14.54.54,0,0,1-.17-.37v0a4.91,4.91,0,0,1,.34-1.34,7.64,7.64,0,0,0,.5-2.09,1.89,1.89,0,0,0-2.09-1.79c-1.18,0-1.73,1.4-1.73,2.35a2.71,2.71,0,0,0,.75,1.52c.35.43.7.88.47,1.36s-.83.64-2.45.64a16.54,16.54,0,0,1-2.45-.25l-.42-.07a.51.51,0,0,1-.44-.59.52.52,0,0,1,.59-.44l.43.07a16.3,16.3,0,0,0,2.29.23A8.22,8.22,0,0,0,18,59.53a2,2,0,0,0-.18-.23,3.54,3.54,0,0,1-1-2.17c0-1.41.86-3.39,2.77-3.39a2.92,2.92,0,0,1,3.13,2.83A8,8,0,0,1,22.16,59l-.16.49c.88,0,1.8-.09,2.71-.1a.46.46,0,0,1,.37.15.52.52,0,0,1,.16.37c0,.45,0,.9,0,1.36,0,.73,0,1.58,0,2.46a5.38,5.38,0,0,0,.67-.3,4.17,4.17,0,0,1,1.9-.55,3.42,3.42,0,0,1,3.53,3.32,2.36,2.36,0,0,1-2.62,2.53,5.34,5.34,0,0,1-2-.39,2.26,2.26,0,0,0-.64-.17,1.24,1.24,0,0,0-.49.11v.24c0,1.14,0,2.33.14,3.46a.56.56,0,0,1-.14.41.53.53,0,0,1-.4.17c-.51,0-1,0-1.54,0a23.06,23.06,0,0,0-2.64.13.55.55,0,0,1-.39-.12.52.52,0,0,1-.19-.36c0-.11,0-.21,0-.31a7,7,0,0,1,.4-2.13,3.64,3.64,0,0,0,.19-.74c0-.08,0-1.88-1.73-1.88-1.05,0-2.19.66-2.22,1.71a1.42,1.42,0,0,0,.38.77,2.78,2.78,0,0,1,.54,1,6.65,6.65,0,0,1,.12,1.45v.1a.51.51,0,0,1-.16.38A.53.53,0,0,1,17.62,72.71Z"/><path class="cls-2" d="M9.6,79.37a1.69,1.69,0,0,1-1.24-.56,1.88,1.88,0,0,1-.5-1.42,1.48,1.48,0,0,1,.53-1,1.92,1.92,0,0,1,1.23-.48,1.72,1.72,0,0,1,1.19,2.93,1.69,1.69,0,0,1-1.16.54Zm-.55-2.18a.4.4,0,0,0-.15.3.82.82,0,0,0,.23.61.67.67,0,0,0,.49.22.59.59,0,0,0,.43-.2.75.75,0,0,0,.21-.54.77.77,0,0,0-.65-.64A.82.82,0,0,0,9.05,77.19Z"/><path class="cls-2" d="M4.43,84.3A.51.51,0,0,1,4,84c-1.23-3.13-1.4-6.57-1.56-9.9l0-.73a.51.51,0,0,1,.49-.54.52.52,0,0,1,.55.49l0,.73c.16,3.24.32,6.6,1.49,9.57a.52.52,0,0,1-.3.68A.58.58,0,0,1,4.43,84.3Z"/><path class="cls-2" d="M6.21,90.47l-.15,0a.53.53,0,0,1-.34-.66A10.66,10.66,0,0,1,12.12,83a.51.51,0,0,1,.67.31.52.52,0,0,1-.31.67,9.76,9.76,0,0,0-5.77,6.1A.53.53,0,0,1,6.21,90.47Z"/><path class="cls-2" d="M24.07,86.55a.53.53,0,0,1-.27-.08c-1.83-1.15-3.83-2.2-5.95-2a.53.53,0,0,1-.56-.48.51.51,0,0,1,.48-.56c2.42-.19,4.6.95,6.58,2.18a.52.52,0,0,1,.16.72A.5.5,0,0,1,24.07,86.55Z"/><path class="cls-2" d="M16.7,95.15a2.82,2.82,0,0,1-2.86-2.9,2.69,2.69,0,0,1,1.93-2.59,3.42,3.42,0,0,1,.83-.1,2.8,2.8,0,0,1,2,.79,2.76,2.76,0,0,1,.81,2,2.8,2.8,0,0,1-2.58,2.81Zm-.08-4.55a2.33,2.33,0,0,0-.59.08,1.63,1.63,0,0,0-1.15,1.59,1.78,1.78,0,0,0,.54,1.33,1.82,1.82,0,0,0,1.38.51,1.76,1.76,0,0,0-.18-3.51Z"/><path class="cls-2" d="M15,99a.53.53,0,0,1-.51-.39,6.34,6.34,0,0,1-.21-1.6,3.83,3.83,0,0,1,1.18-3,.51.51,0,0,1,.74,0,.52.52,0,0,1,0,.73A2.89,2.89,0,0,0,15.28,97a5.58,5.58,0,0,0,.17,1.33.52.52,0,0,1-.37.64Z"/><path class="cls-2" d="M19.51,98.2a.53.53,0,0,1-.53-.53A3.22,3.22,0,0,0,17.37,95a.52.52,0,0,1,.52-.9A4.27,4.27,0,0,1,20,97.67.53.53,0,0,1,19.51,98.2Z"/><path class="cls-2" d="M17,102a7.75,7.75,0,0,1-5.39-2.11,7.36,7.36,0,0,1-2.32-5.23,7.78,7.78,0,0,1,5.54-7.77,8,8,0,0,1,1.88-.26h.08a7.45,7.45,0,0,1,5.34,2.24,7.8,7.8,0,0,1,2.27,5.69A7.38,7.38,0,0,1,17.21,102Zm-2-14.6.14.5a6.74,6.74,0,0,0-4.77,6.73,6.38,6.38,0,0,0,2,4.5A6.76,6.76,0,0,0,17.18,101a6.35,6.35,0,0,0,6.13-6.4,6.83,6.83,0,0,0-2-4.95,6.45,6.45,0,0,0-4.67-1.92,6.33,6.33,0,0,0-1.62.22Z"/><path class="cls-2" d="M16.44,106.33c-6.16,0-9.09-4.7-9.73-8.73a.52.52,0,1,1,1-.16c.6,3.79,3.21,7.84,8.7,7.84,2.17,0,6.19,0,9.07-3.84a.54.54,0,0,1,.74-.11.52.52,0,0,1,.1.73C23.15,106.33,18.62,106.33,16.44,106.33Z"/><path class="cls-2" d="M18.12,115.7a.51.51,0,0,1-.35-.13,14,14,0,0,1-3.32-5.42c-.24-.57-.46-1.1-.7-1.62a.52.52,0,0,1,.25-.69.53.53,0,0,1,.7.25c.25.54.48,1.11.71,1.65a13.13,13.13,0,0,0,3.05,5,.52.52,0,0,1,.05.74A.51.51,0,0,1,18.12,115.7Z"/><path class="cls-2" d="M22.86,111.49a1.44,1.44,0,0,1-1.45-1.43,1.21,1.21,0,0,1,1.12-1.27.75.75,0,0,1,.21,0l.22,0a1.11,1.11,0,0,1,1,.49,1.4,1.4,0,0,1,.2.74A1.35,1.35,0,0,1,22.86,111.49Zm-.33-1.66a.39.39,0,0,0-.08.23.41.41,0,0,0,.41.38c.12,0,.25-.13.25-.38a.35.35,0,0,0,0-.17l-.18,0-.32,0Z"/><path class="cls-2" d="M22,109.17a.51.51,0,0,1-.49-.36c-.17-.5-.34-1-.51-1.56s-.34-1-.51-1.56a.52.52,0,1,1,1-.33c.17.51.34,1,.51,1.57s.34,1,.51,1.55a.52.52,0,0,1-.33.66A.51.51,0,0,1,22,109.17Z"/><path class="cls-2" d="M35.82,105.67a.59.59,0,0,1-.23,0c-1.41-.72-2.75-1.56-4.05-2.37l-1.27-.79A.52.52,0,0,1,30,102c0-.8,0-1.6,0-2.4s0-1.81,0-2.71a.53.53,0,0,1,.28-.45c1.26-.69,2.57-1.44,3.89-2.22a.54.54,0,0,1,.55,0,31.35,31.35,0,0,0,4.94,2.57.53.53,0,0,1,.33.46c.07,1.57.14,3.11.27,4.62a.53.53,0,0,1-.2.45l-1,.8a30.43,30.43,0,0,0-2.9,2.39A.53.53,0,0,1,35.82,105.67Zm-4.75-3.94,1,.63c1.17.74,2.38,1.5,3.63,2.16a33.52,33.52,0,0,1,2.73-2.22l.81-.62c-.1-1.33-.17-2.67-.23-4a32.51,32.51,0,0,1-4.53-2.36c-1.15.68-2.29,1.32-3.39,1.93,0,.8,0,1.61,0,2.4S31.09,101,31.07,101.73Z"/><path class="cls-2" d="M30.65,91.33a.46.46,0,0,1-.23-.06c-1.05-.52-2.08-1.1-3.07-1.67l-.19-.11a.52.52,0,0,1-.27-.43l0-.73c-.05-1-.09-2.08-.09-3.12a.51.51,0,0,1,.26-.45c.65-.38,1.3-.78,1.93-1.17s1.07-.67,1.62-1a.52.52,0,0,1,.55,0c1,.63,1.89,1.2,2.79,1.75a.53.53,0,0,1,.26.43,34,34,0,0,0,.24,3.84.52.52,0,0,1-.27.52A25.59,25.59,0,0,0,31,91.21.49.49,0,0,1,30.65,91.33Zm-2.72-2.6c.86.49,1.75,1,2.66,1.46a24.35,24.35,0,0,1,2.76-1.78c-.12-1.13-.17-2.25-.2-3.3-.75-.46-1.51-.94-2.31-1.45l-1.32.82-1.69,1c0,.93,0,1.87.08,2.78Z"/><path class="cls-2" d="M30.47,87.92a.93.93,0,0,1-.91-.94,1,1,0,0,1,.48-.9.52.52,0,0,1,.47,0c.53.21.8.53.8.94A.93.93,0,0,1,30.47,87.92Zm.06-1,0,.09,0,0A.19.19,0,0,0,30.53,86.89Z"/><path class="cls-2" d="M34.82,101A1.1,1.1,0,0,1,33.73,100a1.43,1.43,0,0,1,.73-1.15.52.52,0,0,1,.7.24.2.2,0,0,1,0,.08.79.79,0,0,1,.65.75A1.08,1.08,0,0,1,34.82,101Z"/><path class="cls-2" d="M42.06,87.69A1.77,1.77,0,0,1,40.31,86a1.84,1.84,0,0,1,.53-1.36,1.69,1.69,0,0,1,1.27-.55,3,3,0,0,1,.42.06,1.81,1.81,0,0,1,1.23,1.26,1,1,0,0,1,.05.3,1.89,1.89,0,0,1-.51,1.38A1.72,1.72,0,0,1,42.06,87.69Zm0-2.51a.69.69,0,0,0-.49.22.82.82,0,0,0-.24.59.72.72,0,0,0,.71.66.69.69,0,0,0,.48-.24.83.83,0,0,0,.23-.6s0,0,0-.06a.76.76,0,0,0-.52-.55A.41.41,0,0,0,42.08,85.18Z"/><path class="cls-2" d="M31.75,81.06c-.79-.66-1.61-1.33-2.37-2l-.25.15c-.66.4-1.34.82-2,1.26a.53.53,0,0,1-.65,0A16.17,16.17,0,0,1,25,78.81c-.74.5-1.45,1-2.13,1.55a.53.53,0,0,1-.63,0,11.49,11.49,0,0,1-1.7-1.49c-.91.63-1.86,1.28-2.83,1.89a.52.52,0,1,1-.55-.88c.95-.6,1.89-1.25,2.8-1.87l.36-.26a.52.52,0,0,1,.69.09,10.89,10.89,0,0,0,1.52,1.44c.74-.57,1.5-1.09,2.28-1.62a.52.52,0,0,1,.7.11,15.1,15.1,0,0,0,1.39,1.55c.55-.36,1.12-.71,1.67-1l.59-.36a.51.51,0,0,1,.64.07c.82.79,1.72,1.54,2.6,2.26Z"/><path class="cls-2" d="M39.56,79.25a5.48,5.48,0,0,1-3.92-1.58,5.61,5.61,0,0,1-1.63-4,5.52,5.52,0,0,1,5.22-5.52h.23a5.68,5.68,0,0,1,4.94,3,5.46,5.46,0,0,1-4.81,8.08Zm-.17-10h-.13a4.45,4.45,0,0,0-4.2,4.47,4.58,4.58,0,0,0,1.32,3.23,4.47,4.47,0,0,0,7.11-5.26,4.68,4.68,0,0,0-4-2.45Z"/><path class="cls-2" d="M38,77.33a.55.55,0,0,1-.3-.09.52.52,0,0,1-.12-.73,2.72,2.72,0,0,1,2.2-1.13,2.34,2.34,0,0,1,1.83.84.52.52,0,0,1-.06.74.53.53,0,0,1-.74-.07,1.29,1.29,0,0,0-1-.47,1.69,1.69,0,0,0-1.35.69A.51.51,0,0,1,38,77.33Z"/><path class="cls-2" d="M37.6,73.94a.86.86,0,0,1-.86-.89.78.78,0,0,1,.67-.82h.08a1,1,0,0,1,.86,1A.73.73,0,0,1,37.6,73.94Zm-.29-.73a.27.27,0,0,0,.18.06v-.35A.33.33,0,0,0,37.31,73.21Zm.19-.29,0,.34a.27.27,0,0,0,.25-.21.18.18,0,0,0-.18-.15Z"/><path class="cls-2" d="M40.6,73.65h-.05a.76.76,0,0,1-.72-.78.89.89,0,0,1,.83-.91h.06a.73.73,0,0,1,.66.78A.84.84,0,0,1,40.6,73.65Zm.07-1V73c.08,0,.21,0,.21-.14A.29.29,0,0,0,40.67,72.62Zm-.06.38h0l0-.4h0Zm0-.39a.29.29,0,0,0-.26.14.31.31,0,0,0,.26.25Z"/><path class="cls-2" d="M22.94,119.18a5.12,5.12,0,0,1-1.1-.15.53.53,0,0,1-.38-.64.52.52,0,0,1,.63-.38,3.38,3.38,0,0,0,.85.13A1.15,1.15,0,0,0,24.18,117c0-.3,0-.86-1.31-.9a.5.5,0,0,1-.47-.35.52.52,0,0,1,.16-.57c.41-.34,1-.81,1-1.21,0,0,0-.47-.4-.47a1.91,1.91,0,0,0-.7.17.52.52,0,1,1-.41-1,3.13,3.13,0,0,1,1.11-.25,1.45,1.45,0,0,1,1.45,1.51,2,2,0,0,1-.56,1.28A1.74,1.74,0,0,1,25.23,117,2.2,2.2,0,0,1,22.94,119.18Z"/><path class="cls-2" d="M27.68,117.78h0a2.2,2.2,0,0,1-1.5-.69,2.85,2.85,0,0,1-.76-2,3,3,0,0,1,.61-1.73,2.19,2.19,0,0,1,1.75-.83,2,2,0,0,1,1.44.65,2.93,2.93,0,0,1,.79,2.07A2.49,2.49,0,0,1,27.68,117.78Zm.05-4.25a1.2,1.2,0,0,0-.9.43,1.94,1.94,0,0,0-.39,1.11,1.79,1.79,0,0,0,.47,1.29,1.12,1.12,0,0,0,.76.37A1.48,1.48,0,0,0,29,115.18a1.9,1.9,0,0,0-.5-1.32A1,1,0,0,0,27.73,113.53Z"/><path class="cls-2" d="M32,114.05a1.17,1.17,0,0,1-.85-.37,1.34,1.34,0,0,1,0-1.82,1.1,1.1,0,0,1,.76-.34,1.26,1.26,0,0,1,1.3,1,1.42,1.42,0,0,1,0,.35A1.25,1.25,0,0,1,32,114.05Zm-.48-1.83.38.35a.29.29,0,0,0-.07.18.3.3,0,0,0,.07.21.13.13,0,0,0,.1,0,.24.24,0,0,0,.18-.17.62.62,0,0,0,0-.13.29.29,0,0,0-.22-.14h-.05Z"/><path class="cls-2" d="M33.32,117.5a.57.57,0,0,1-.18,0,.54.54,0,0,1-.32-.67,15.94,15.94,0,0,1,3-4.68l.15-.19a.53.53,0,0,1,.74-.07.52.52,0,0,1,.07.73l-.15.19a15.28,15.28,0,0,0-2.84,4.37A.52.52,0,0,1,33.32,117.5Z"/><path class="cls-2" d="M36.71,118a1.25,1.25,0,0,1-1.26-1.27,1.3,1.3,0,0,1,.31-.84,1.24,1.24,0,0,1,.93-.42h0A1.24,1.24,0,0,1,38,116.6a1.29,1.29,0,0,1-.36,1A1.26,1.26,0,0,1,36.71,118Zm-.16-1.43a.25.25,0,0,0-.06.16.22.22,0,0,0,.22.23.19.19,0,0,0,.16-.08.27.27,0,0,0,.08-.19c0-.11-.1-.18-.24-.17A.21.21,0,0,0,36.55,116.53Z"/><path class="cls-2" d="M26,125.6a1.75,1.75,0,0,1-1.21-.5,1.83,1.83,0,0,1,.5-2.93,1.57,1.57,0,0,1,.64-.14h0a1.72,1.72,0,0,1,1.2.48,1.76,1.76,0,0,1,.54,1.26,1.8,1.8,0,0,1-.51,1.3,1.68,1.68,0,0,1-1.18.53Zm0-2.53a.57.57,0,0,0-.24.05.76.76,0,0,0-.43.69.73.73,0,0,0,.23.54.61.61,0,0,0,.92,0,.8.8,0,0,0,.22-.57.69.69,0,0,0-.22-.51A.67.67,0,0,0,26,123.07Z"/><path class="cls-2" d="M32.61,130.84a.52.52,0,0,1-.4-.18c-.42-.48-.82-1-1.21-1.46s-.74-.92-1.12-1.36a.52.52,0,0,1,.06-.73c.39-.34.76-.7,1.13-1s1-1,1.54-1.4a.5.5,0,0,1,.39-.11.49.49,0,0,1,.35.2,24.46,24.46,0,0,0,2.25,2.64.52.52,0,0,1,.16.37.51.51,0,0,1-.16.38c-.31.31-.64.6-1,.88A14.86,14.86,0,0,0,33,130.65.51.51,0,0,1,32.61,130.84ZM31,127.55l.8,1,.8,1c.43-.46.89-.87,1.34-1.27l.54-.49c-.6-.63-1.14-1.31-1.63-1.94-.37.32-.72.66-1.07,1S31.28,127.31,31,127.55Z"/><path class="cls-2" d="M44.88,127a1.93,1.93,0,0,1-1.29-.53,1.74,1.74,0,0,1-.53-1.3,1.72,1.72,0,0,1,1.11-1.62,1.81,1.81,0,0,1,.57-.12,1.84,1.84,0,0,1,1.33.5,1.72,1.72,0,0,1,.54,1.26A1.8,1.8,0,0,1,44.94,127Zm-.35-2.48a.74.74,0,0,0-.43.67.69.69,0,0,0,.22.53.88.88,0,0,0,.58.24.79.79,0,0,0,.67-.76.73.73,0,0,0-.22-.52.79.79,0,0,0-.58-.2A.67.67,0,0,0,44.53,124.54Z"/><path class="cls-2" d="M54.1,126.71a1.83,1.83,0,0,1-1.3-.52,2,2,0,0,1-.58-1.43,1.84,1.84,0,0,1,1.54-1.82h.12a1.92,1.92,0,0,1,1.43.54,2,2,0,0,1,.6,1.44,1.88,1.88,0,0,1-1.72,1.8ZM54,124H53.9a.78.78,0,0,0-.63.8.91.91,0,0,0,.26.67.82.82,0,0,0,.61.22A.86.86,0,0,0,54,124Z"/><path class="cls-2" d="M40,128.88a.55.55,0,0,1-.43-.22.53.53,0,0,1,.14-.73c1-.68,1.87-1.42,2.8-2.2l.31-.25a.52.52,0,1,1,.66.8l-.3.25c-.91.76-1.86,1.55-2.88,2.26A.53.53,0,0,1,40,128.88Z"/><path class="cls-2" d="M52.37,125.84c-1.5,0-3-.07-4.53-.14l-1.45-.07a.53.53,0,0,1-.5-.55.52.52,0,0,1,.55-.49l1.45.06c1.47.07,3,.15,4.48.15a.52.52,0,1,1,0,1Z"/><path class="cls-2" d="M55.58,125.12a.52.52,0,0,1-.27-1c1.21-.74,2.43-1.33,3.71-2l.44-.21a.54.54,0,0,1,.7.24.53.53,0,0,1-.24.7l-.44.21c-1.27.62-2.46,1.19-3.63,1.91A.53.53,0,0,1,55.58,125.12Z"/><path class="cls-2" d="M44,137.57l-1.52-.08-1-.06A.52.52,0,0,1,41,137c-.13-1.78-.22-3.58-.27-5.37a.54.54,0,0,1,.15-.38.55.55,0,0,1,.38-.16h1.41a11.57,11.57,0,0,0,1.26-.05.53.53,0,0,1,.4.14.52.52,0,0,1,.17.39v.61c0,.65,0,1.31,0,2,0,1.13,0,2,0,2.9a.51.51,0,0,1-.15.39A.52.52,0,0,1,44,137.57Zm-2-1.16.55,0,.91.05c0-.71,0-1.48,0-2.38,0-.66,0-1.32,0-2v0c-.47,0-1,0-1.62,0h0C41.78,133.53,41.86,135,42,136.41Z"/><path class="cls-2" d="M49.51,137.63h0c-.59-.06-1.17-.06-1.8-.07-.34,0-.67,0-1,0a.52.52,0,0,1-.5-.5c0-1.12,0-2.23,0-3.56V132c0-.8,0-1.74,0-2.67a.49.49,0,0,1,.17-.39.52.52,0,0,1,.4-.14c.82.08,1.62.11,2.46.15l.41,0a.52.52,0,0,1,.5.52V131c0,.84,0,1.68,0,2.51,0,1.38,0,2.51,0,3.56a.51.51,0,0,1-.17.4A.49.49,0,0,1,49.51,137.63Zm-2.34-1.12h.5c.43,0,.87,0,1.31,0,0-.9,0-1.87,0-3V130c-.6,0-1.22-.05-1.84-.1,0,.74,0,1.47,0,2.11v1.45C47.14,134.6,47.15,135.57,47.17,136.51Z"/><path class="cls-2" d="M52.81,137.44a.52.52,0,0,1-.34-.12.51.51,0,0,1-.18-.37c-.07-1.14-.09-2.29-.11-3.41a46.16,46.16,0,0,0-.27-5.25.5.5,0,0,1,.11-.39.52.52,0,0,1,.35-.2c1.06-.11,2.13-.13,3.17-.14h.14a.52.52,0,0,1,.53.49c.07,1.36.08,2.73.09,4.06,0,1.5,0,3,.12,4.57a.53.53,0,0,1-.14.4.59.59,0,0,1-.4.16,15.5,15.5,0,0,0-2.25.12l-.77.08Zm.2-8.75c.17,1.62.19,3.25.22,4.83,0,.93,0,1.89.07,2.83l.22,0a18.31,18.31,0,0,1,1.83-.14c-.07-1.37-.08-2.74-.09-4.07,0-1.15,0-2.34-.07-3.51C54.47,128.62,53.73,128.64,53,128.69Z"/><path class="cls-2" d="M74.54,134.18a.5.5,0,0,1-.35-.14.52.52,0,0,1-.17-.38,8.13,8.13,0,0,1,.29-1.81,6.46,6.46,0,0,0,.23-1.35,1.24,1.24,0,0,0-1.25-1.24,1.76,1.76,0,0,0-1.81,1.3,12.72,12.72,0,0,1,.82,2.8.51.51,0,0,1-.11.43.53.53,0,0,1-.4.19c-1.29,0-2.64.06-4.14.14a.52.52,0,0,1-.55-.47c0-.49-.06-1-.06-1.66,0-1,0-1.81.06-2.33q-.18.17-.36.36a2.74,2.74,0,0,1-1.95,1.09c-1.51,0-2.35-1.85-2.35-3.14a2.56,2.56,0,0,1,2.28-2.73,8.44,8.44,0,0,1,2.78,1l0,0c0-.74,0-1.48-.06-2.2,0-.94-.06-1.91-.06-2.88a.52.52,0,0,1,1,0c0,1,0,1.92.07,2.85s.06,1.91.06,2.89a.63.63,0,0,1-.7.58c-.17,0-.3-.06-.85-.32a9.53,9.53,0,0,0-2.33-.89c-.74,0-1.23.88-1.23,1.69s.54,2.1,1.3,2.1c.45,0,.8-.36,1.2-.78a3.21,3.21,0,0,1,1.45-1l.15,0a.63.63,0,0,1,.61.72.13.13,0,0,1,0,.06s-.11,1-.11,3c0,.39,0,.74,0,1.06,1.07-.05,2.07-.09,3-.1a8.61,8.61,0,0,0-.66-2,.51.51,0,0,1-.06-.25,2.7,2.7,0,0,1,2.86-2.45,2.29,2.29,0,0,1,2.3,2.28,7.31,7.31,0,0,1-.26,1.59c-.08.34-.17.68-.22,1,.68,0,1.53,0,2.35,0s1.52,0,2.14,0c0-.4,0-.8.07-1.19,0-.64.08-1.29.09-1.93-.27,0-.54,0-.8,0-2,0-3-1.17-3-1.95a2.51,2.51,0,0,1,2.26-2.23h.08l.63,0,.74.05c0-.43,0-.89,0-1.44v-1.1a2.44,2.44,0,0,0,0-.27,7.86,7.86,0,0,1-1.75.25c-1.27,0-2.55-.59-2.55-1.7a2.4,2.4,0,0,1,.54-1.39,2.72,2.72,0,0,0,.58-1.63c0-.47-.11-1.55-1.12-1.55-.82,0-1.87.67-1.87,1.42a3.42,3.42,0,0,0,.31,1.15,4.28,4.28,0,0,1,.4,1.6c0,1.1-.83,1.75-2.23,1.75a9.81,9.81,0,0,1-1.62-.19,9.3,9.3,0,0,0-1-.16.52.52,0,0,1-.49-.55.53.53,0,0,1,.56-.49c.37,0,.78.1,1.17.17A8.11,8.11,0,0,0,72,122c1.19,0,1.19-.53,1.19-.71a3.49,3.49,0,0,0-.33-1.22,4.15,4.15,0,0,1-.38-1.53c0-1.39,1.57-2.46,2.91-2.46s2.16,1,2.16,2.59a3.77,3.77,0,0,1-.75,2.21,1.49,1.49,0,0,0-.37.81c0,.37.8.65,1.51.65a7.73,7.73,0,0,0,1.78-.28l.38-.08a.49.49,0,0,1,.44.1.51.51,0,0,1,.2.41c0,.31,0,.62,0,.93s0,.72,0,1.09c0,.77,0,1.36.07,1.91a.52.52,0,0,1-.48.57,9.81,9.81,0,0,1-1.44,0l-.58,0c-.74,0-1.24,1-1.24,1.19s.49.91,1.91.91c.37,0,.77,0,1.16-.08h.11a.56.56,0,0,1,.39.13.55.55,0,0,1,.18.38v.45c0,.72,0,1.43-.09,2.12,0,.54-.07,1.1-.08,1.64a.53.53,0,0,1-.49.51c-.44,0-.92,0-1.49,0H77.44l-1.2,0c-.64,0-1.17,0-1.66.06Z"/><path class="cls-2" d="M69.71,142a.56.56,0,0,1-.39-.17l-.53-.57c-.56-.6-1.13-1.2-1.64-1.86l-.72.47c-.67.45-1.37.9-2,1.38a.54.54,0,0,1-.73-.12.53.53,0,0,1,.13-.73c.67-.49,1.38-.95,2.06-1.4L67,138.3a.52.52,0,0,1,.72.13,25.12,25.12,0,0,0,1.86,2.15l.22.23c.7-.52,1.44-1,2.15-1.49l.88-.59a.51.51,0,0,1,.67.07c.52.53,1.07,1,1.66,1.59.77-.6,1.52-1.14,2.26-1.63a.51.51,0,0,1,.64,0A26.71,26.71,0,0,0,80.87,141a.52.52,0,0,1,.14.73.51.51,0,0,1-.72.13,26.73,26.73,0,0,1-2.65-2c-.72.49-1.45,1-2.22,1.63a.52.52,0,0,1-.67,0c-.62-.57-1.18-1.09-1.72-1.63l-.53.36c-.83.55-1.68,1.12-2.47,1.74A.54.54,0,0,1,69.71,142Z"/><path class="cls-2" d="M86.94,132.86a2,2,0,0,1-1.35-.57,1.81,1.81,0,0,1,1.09-3.11,2,2,0,0,1,1.94,1.16,1.67,1.67,0,0,1,.15.76A1.86,1.86,0,0,1,87,132.85Zm-.11-2.65h-.07a.78.78,0,0,0-.68.75.75.75,0,0,0,.25.58.89.89,0,0,0,.63.26.82.82,0,0,0,.77-.74.8.8,0,0,0-.06-.3A1,1,0,0,0,86.83,130.21Z"/><path class="cls-2" d="M84.86,139a.52.52,0,0,1-.07-1,18.67,18.67,0,0,0,7.76-2.58.52.52,0,0,1,.56.88A19.76,19.76,0,0,1,84.94,139Z"/><path class="cls-2" d="M103.54,122.85h-.17a2.66,2.66,0,0,1,0-5.3h.07a2.89,2.89,0,0,1,1.46.31,2.58,2.58,0,0,1,1.36,2.17,2.7,2.7,0,0,1-.8,2A2.82,2.82,0,0,1,103.54,122.85Zm0-4.26h0a1.57,1.57,0,0,0-1.46,1.62,1.6,1.6,0,0,0,1.43,1.59,1.75,1.75,0,0,0,1.33-.49,1.63,1.63,0,0,0,.48-1.25,1.5,1.5,0,0,0-.81-1.29A1.7,1.7,0,0,0,103.5,118.59Z"/><path class="cls-2" d="M101.59,126.33a.53.53,0,0,1-.51-.38,4.44,4.44,0,0,1-.16-1.22,3.67,3.67,0,0,1,1.31-3,.52.52,0,0,1,.63.83,2.69,2.69,0,0,0-.9,2.16,3.12,3.12,0,0,0,.13.93.52.52,0,0,1-.36.65Z"/><path class="cls-2" d="M106.49,126a.52.52,0,0,1-.53-.5,3.92,3.92,0,0,0-1.55-3,.52.52,0,0,1-.1-.73.54.54,0,0,1,.74-.1,5,5,0,0,1,2,3.83A.52.52,0,0,1,106.49,126Z"/><path class="cls-2" d="M103.72,130h-.1a7.61,7.61,0,0,1-5.4-2.27A8.11,8.11,0,0,1,96,121.84a7.83,7.83,0,0,1,7.49-7.77,8.37,8.37,0,0,1,1,.05,7.79,7.79,0,0,1,5.35,2.71,8.43,8.43,0,0,1-.54,10.86A7.73,7.73,0,0,1,103.72,130Zm-.09-14.85h-.13A6.78,6.78,0,0,0,97,121.85,7.1,7.1,0,0,0,99,127a6.52,6.52,0,0,0,4.66,1.95,6.7,6.7,0,0,0,4.92-2,7.13,7.13,0,0,0,2-5.28,7,7,0,0,0-1.49-4.2,6.86,6.86,0,0,0-4.66-2.32A5.79,5.79,0,0,0,103.63,115.12Z"/><path class="cls-2" d="M93.05,127.87a.53.53,0,0,1-.48-.3,11,11,0,0,1-1-4.56,10.54,10.54,0,0,1,2.3-6.73.53.53,0,0,1,.74-.06.52.52,0,0,1,.06.74A9.42,9.42,0,0,0,92.65,123a9.88,9.88,0,0,0,.87,4.12.52.52,0,0,1-.25.69A.63.63,0,0,1,93.05,127.87Z"/><path class="cls-2" d="M103.84,135a10.35,10.35,0,0,1-7.31-2.88.52.52,0,0,1,.73-.75,9.32,9.32,0,0,0,6.58,2.59c5,0,10-3.66,10-10.65a6.46,6.46,0,0,0-.11-1.27.53.53,0,0,1,.43-.61.52.52,0,0,1,.6.43,8.43,8.43,0,0,1,.12,1.45,11.73,11.73,0,0,1-3.35,8.56A10.91,10.91,0,0,1,103.84,135Z"/><path class="cls-2" d="M111.16,114.13a.52.52,0,0,1-.31-.1,12.05,12.05,0,0,0-7-2.5,8.28,8.28,0,0,0-4,1,.52.52,0,1,1-.5-.91,9.12,9.12,0,0,1,4.46-1.12,13.09,13.09,0,0,1,7.62,2.7.52.52,0,0,1,.11.73A.51.51,0,0,1,111.16,114.13Z"/><path class="cls-2" d="M107.47,105.13a1.43,1.43,0,0,1-1.37-1.32c0-.36.42-1.47,1.14-1.47h.12a1.68,1.68,0,0,1,1.36.92,1.06,1.06,0,0,1,.08.43A1.44,1.44,0,0,1,107.47,105.13Zm-.12-1.72a1.14,1.14,0,0,0-.2.42c0,.11.23.26.32.26s.29-.21.29-.39c0,0,0,0,0,0A.62.62,0,0,0,107.35,103.41Z"/><path class="cls-2" d="M106,110.7a.39.39,0,0,1-.15,0,.52.52,0,0,1-.35-.65,17.23,17.23,0,0,0,.48-2.59,18.79,18.79,0,0,1,.53-2.75.53.53,0,0,1,.65-.35.54.54,0,0,1,.35.65,16.05,16.05,0,0,0-.49,2.59,17.52,17.52,0,0,1-.52,2.75A.52.52,0,0,1,106,110.7Z"/><path class="cls-2" d="M119.07,120.15a.51.51,0,0,1-.42-.21.52.52,0,0,1,.11-.73,26.78,26.78,0,0,0,5.74-5.84.53.53,0,0,1,.85.62,28.18,28.18,0,0,1-6,6.06A.5.5,0,0,1,119.07,120.15Z"/><path class="cls-2" d="M118.49,114.21a.52.52,0,0,1-.33-.12,26.12,26.12,0,0,1-2.66-2.57.53.53,0,0,1,0-.68l.22-.26c.85-1,1.72-2.1,2.54-3.17a.52.52,0,0,1,.38-.21.5.5,0,0,1,.4.16c.22.21.44.43.65.65.62.62,1.26,1.27,1.92,1.86a.52.52,0,0,1,.06.71c-1,1.29-1.86,2.37-2.76,3.45A.52.52,0,0,1,118.49,114.21Zm-1.91-3.06a25.56,25.56,0,0,0,1.85,1.8c.68-.83,1.35-1.67,2.1-2.63-.55-.51-1.08-1-1.6-1.58l-.23-.22C118,109.41,117.29,110.29,116.58,111.15Z"/><path class="cls-2" d="M86.69,121.93a.54.54,0,0,1-.36-.14c-.4-.39-.82-.76-1.26-1.14s-.59-.51-.88-.78a.52.52,0,0,1-.17-.39.52.52,0,0,1,.17-.38l.55-.5c.47-.42,1-.86,1.45-1.26a.49.49,0,0,1,.4-.12.53.53,0,0,1,.35.21,10.84,10.84,0,0,0,1.61,1.72.52.52,0,0,1,.1.65,10,10,0,0,1-1.35,1.72l-.22.24a.48.48,0,0,1-.37.17Zm-1.37-2.44.43.37c.3.26.61.53.91.81a11.26,11.26,0,0,0,.86-1,14,14,0,0,1-1.08-1.14l-1,.89Z"/><path class="cls-2" d="M90.92,112.74A2.09,2.09,0,0,1,89.66,109a1.54,1.54,0,0,1,.72-.3,2.25,2.25,0,0,1,1.78.52,1.94,1.94,0,0,1,.7,1.48,2,2,0,0,1-1.82,2Zm-.63-2.92a1,1,0,0,0-.09,1.56,1,1,0,0,0,.78.31,1,1,0,0,0,.83-1,.88.88,0,0,0-.33-.69,1.18,1.18,0,0,0-.93-.29A.62.62,0,0,0,90.29,109.82Z"/><path class="cls-2" d="M96.35,104.41a2.13,2.13,0,0,1-1.5-.61,2.17,2.17,0,0,1-.64-1.59,2.23,2.23,0,0,1,.78-1.69,2,2,0,0,1,1.16-.44,2.14,2.14,0,0,1,1.64.62,2.26,2.26,0,0,1,.65,1.7,2.11,2.11,0,0,1-2,2Zm-.68-3.1a1.26,1.26,0,0,0-.42.91,1.15,1.15,0,0,0,.33.83,1.08,1.08,0,0,0,.8.31,1.06,1.06,0,0,0,1-1,1.26,1.26,0,0,0-.34-.91,1.17,1.17,0,0,0-.86-.32A1,1,0,0,0,95.67,101.31Z"/><path class="cls-2" d="M102.43,100.52a.53.53,0,0,1-.41-.19.52.52,0,0,1-.09-.48,6.61,6.61,0,0,1,1.49-2.23c.51-.59,1.08-1.25,1.08-1.63a.9.9,0,0,0-.62-.37,1.36,1.36,0,0,0-1.17,1.07.52.52,0,0,1-.61.42.53.53,0,0,1-.42-.61,2.4,2.4,0,0,1,2.14-1.92h.06c.67,0,1.67.59,1.67,1.41a4.12,4.12,0,0,1-1.34,2.31,11.49,11.49,0,0,0-.92,1.14h.29c.64,0,1.29-.06,1.94-.12a.52.52,0,0,1,.1,1c-.67.07-1.35.09-2,.12l-1.16,0Z"/><path class="cls-2" d="M108.26,100.07h-.12a2.47,2.47,0,0,1-2.06-2.6,2.85,2.85,0,0,1,1.09-2.21,2,2,0,0,1,1.2-.36,2.44,2.44,0,0,1,2.29,2.53,2.72,2.72,0,0,1-.81,2A2.29,2.29,0,0,1,108.26,100.07Zm.11-4.14a.94.94,0,0,0-.57.15,1.74,1.74,0,0,0-.67,1.38c0,.63.4,1.52,1.07,1.56a1.25,1.25,0,0,0,.93-.36,1.63,1.63,0,0,0,.49-1.23A1.41,1.41,0,0,0,108.37,95.93Z"/><path class="cls-2" d="M112.61,96.64h0a1.35,1.35,0,0,1-1.3-1.36A1.42,1.42,0,0,1,112,94a1.18,1.18,0,0,1,.49-.12,1.36,1.36,0,0,1,1,.37,1.3,1.3,0,0,1,.43.94,1.43,1.43,0,0,1-.4,1.07A1.4,1.4,0,0,1,112.61,96.64Zm0-1.74-.1,0a.37.37,0,0,0-.19.34.3.3,0,0,0,.29.33.32.32,0,0,0,.24-.09.41.41,0,0,0,.1-.29.26.26,0,0,0-.09-.21A.42.42,0,0,0,112.6,94.9Z"/><path class="cls-2" d="M112.86,100.21a.59.59,0,0,1-.26-.07.53.53,0,0,1-.19-.72A25.45,25.45,0,0,1,115.62,95a.52.52,0,1,1,.76.71,25.21,25.21,0,0,0-3.07,4.25A.5.5,0,0,1,112.86,100.21Z"/><path class="cls-2" d="M116.48,101h-.17a1.31,1.31,0,0,1-1.12-1.26,1.55,1.55,0,0,1,.28-1,1.29,1.29,0,0,1,1-.55,1.36,1.36,0,0,1,1.5,1.19,1.45,1.45,0,0,1-.44,1.18A1.48,1.48,0,0,1,116.48,101Zm.06-1.75h0l-.13.06-.05,0a.48.48,0,0,0-.08.31c0,.12.07.27.2.28a.39.39,0,0,0,.33-.12.41.41,0,0,0,.13-.33C116.88,99.25,116.65,99.22,116.54,99.22Z"/><path class="cls-2" d="M101.57,91.93a.5.5,0,0,1-.26-.08A11.49,11.49,0,0,1,99.08,90L99,90c-1.93,1.34-2.24,1.52-2.64,1.31a.58.58,0,0,1-.3-.5.52.52,0,0,1,.53-.52h.07c.34-.17,1.17-.75,1.75-1.15l.42-.29a.52.52,0,0,1,.66.06l.32.31a12.08,12.08,0,0,0,1.72,1.51l.53-.4a31.71,31.71,0,0,1,2.79-2,.53.53,0,0,1,.69.13l.16.23a20.26,20.26,0,0,0,1.55,1.92c.49-.37,1-.73,1.48-1.08.67-.49,1.36-1,2-1.5a.51.51,0,0,1,.7,0c.26.27.51.55.75.82a11,11,0,0,0,1.24,1.3.52.52,0,0,1-.67.8,13.84,13.84,0,0,1-1.36-1.41l-.39-.44c-.55.42-1.12.82-1.67,1.22s-1.22.89-1.81,1.35a.52.52,0,0,1-.68,0A15.56,15.56,0,0,1,105,89.53c-.79.52-1.56,1.1-2.3,1.67-.27.21-.54.42-.82.62A.51.51,0,0,1,101.57,91.93Zm-4.45-1.08Z"/><path class="cls-2" d="M126.44,108.26c-1.86,0-2.11-3.75-2.29-9.93,0-.7,0-1.39-.07-2-.65-1-1.13-1.71-1.47-2.2a.51.51,0,0,1,0-.53.51.51,0,0,1,.44-.29,59.16,59.16,0,0,1,6.58-.06.52.52,0,0,1,.42.25.51.51,0,0,1,0,.48,7.78,7.78,0,0,1-.72,1.23,3.87,3.87,0,0,0-.84,1.93l0,.13a43.51,43.51,0,0,1,.68,6.45C129.18,106.52,128.15,108.22,126.44,108.26Zm-2.45-14,1,1.57a.58.58,0,0,1,.09.26c0,.68,0,1.42.07,2.18.06,2.1.14,4.48.37,6.28.34,2.56.85,2.64.86,2.64,1.63,0,1.71-2.94,1.71-3.52a42.07,42.07,0,0,0-.66-6.29,1.47,1.47,0,0,1,0-.26,4.54,4.54,0,0,1,1-2.53l.25-.38C127.34,94.19,125.88,94.21,124,94.29Z"/><path class="cls-2" d="M124.74,100a.52.52,0,0,1-.29-.09.53.53,0,0,1-.14-.73,1.51,1.51,0,0,1,1.26-.7,1.92,1.92,0,0,1,.62.13l0,0a2.1,2.1,0,0,1,1.1-.39,2,2,0,0,1,.57.09.51.51,0,0,1,.34.65.53.53,0,0,1-.65.35.85.85,0,0,0-.26,0,1.21,1.21,0,0,0-.54.23,1.05,1.05,0,0,1-.58.23,1.18,1.18,0,0,1-.38-.09,1,1,0,0,0-.27-.08.5.5,0,0,0-.4.24A.52.52,0,0,1,124.74,100Z"/><path class="cls-2" d="M134.85,98h0a1.71,1.71,0,0,1-1.2-.55,2,2,0,0,1-.53-1.4,1.82,1.82,0,0,1,1.09-1.63,1.88,1.88,0,0,1,.59-.13,1.92,1.92,0,0,1,1.36.5,1.85,1.85,0,0,1,.59,1.28,2,2,0,0,1-.59,1.39A1.77,1.77,0,0,1,134.85,98Zm0-2.67h0a.86.86,0,0,0-.23,0,.78.78,0,0,0-.45.7,1,1,0,0,0,.24.66.72.72,0,0,0,.47.22.74.74,0,0,0,.54-.24.86.86,0,0,0,.28-.62.74.74,0,0,0-.25-.54A.83.83,0,0,0,134.83,95.36Z"/><path class="cls-2" d="M128.66,83.33h0a2.65,2.65,0,0,1-2.57-2.58A2.8,2.8,0,0,1,128,78.08a2.42,2.42,0,0,1,.48-.1h.05a1.83,1.83,0,0,1,.33,0,2.69,2.69,0,0,1,2.48,2.68,2.75,2.75,0,0,1-.8,1.94A2.59,2.59,0,0,1,128.66,83.33Zm.1-4.33h-.18l-.28,0a1.72,1.72,0,0,0-1.19,1.66,1.61,1.61,0,0,0,1.53,1.56h0a1.57,1.57,0,0,0,1.11-.45,1.66,1.66,0,0,0-1-2.84Z"/><path class="cls-2" d="M126.72,87.92a.53.53,0,0,1-.5-.38A5.92,5.92,0,0,1,126,86a4.63,4.63,0,0,1,1.47-3.53.52.52,0,0,1,.7.78A3.59,3.59,0,0,0,127.05,86a5.09,5.09,0,0,0,.06.77,31.22,31.22,0,0,1,3.32-.74,5.28,5.28,0,0,0-1.3-2.83.52.52,0,0,1,.05-.74.51.51,0,0,1,.73.06,6.11,6.11,0,0,1,1.59,4,.52.52,0,0,1-.45.52,32.17,32.17,0,0,0-4.19.93Z"/><path class="cls-2" d="M136.5,82.82h-.15a2.48,2.48,0,0,1-2.29-2.58,2.53,2.53,0,0,1,1.62-2.43,2.08,2.08,0,0,1,.74-.15,2.63,2.63,0,0,1,1.93.71,2.56,2.56,0,0,1,0,3.73A2.65,2.65,0,0,1,136.5,82.82Zm-.47-4a1.49,1.49,0,0,0-.93,1.45,1.44,1.44,0,0,0,1.31,1.54,1.62,1.62,0,0,0,1.18-.44,1.55,1.55,0,0,0,.49-1.1,1.48,1.48,0,0,0-.45-1.11,1.57,1.57,0,0,0-1.16-.43A1.23,1.23,0,0,0,136,78.78Z"/><path class="cls-2" d="M135,87.23a.53.53,0,0,1-.49-.34,4.81,4.81,0,0,1-.32-1.72A3.36,3.36,0,0,1,136,82a.52.52,0,1,1,.46.93,2.44,2.44,0,0,0-1.2,2.25,3.55,3.55,0,0,0,.1.86,21.64,21.64,0,0,1,3.21-.83,4.07,4.07,0,0,0-1.4-2.67.53.53,0,0,1-.1-.73.52.52,0,0,1,.73-.1,5.59,5.59,0,0,1,1.88,3.86.52.52,0,0,1-.44.58,20.41,20.41,0,0,0-4,1.06A.57.57,0,0,1,135,87.23Z"/><path class="cls-2" d="M123.63,87.37c-1.11,0-2.26-.05-3.37-.09l-1.62-.06a.52.52,0,0,1,0-1c.55,0,1.1,0,1.65.06,1.09,0,2.23.08,3.32.08a.53.53,0,0,1,0,1.05Z"/><path class="cls-2" d="M120.73,81.61a1.9,1.9,0,0,1-1.37-.55,2,2,0,0,1-.58-1.49,1.88,1.88,0,0,1,1.81-1.93,2,2,0,0,1,.2,4Zm-.06-2.92h0a.72.72,0,0,0-.29.06.89.89,0,0,0-.51.84,1,1,0,0,0,.26.73.92.92,0,0,0,.67.25,1,1,0,0,0,.84-.95.88.88,0,0,0-.29-.67A.92.92,0,0,0,120.67,78.69Z"/><path class="cls-2" d="M104.18,84.09c-1,0-2.06,0-3.07-.1-1.23-.07-2.5-.13-3.73-.1a.52.52,0,0,1,0-1c1.27,0,2.57,0,3.82.09,1,0,2,.11,3,.11a18.24,18.24,0,0,0,3.14-.24.52.52,0,0,1,.6.42.53.53,0,0,1-.42.61A19.36,19.36,0,0,1,104.18,84.09Z"/><path class="cls-2" d="M96.33,79.05h-.07a2,2,0,0,1-1.91-2V77a2.09,2.09,0,0,1,2-2.09h.09a2.29,2.29,0,0,1,1.18.42,1.73,1.73,0,0,1,.75,1.31,2.23,2.23,0,0,1-.57,1.75A2,2,0,0,1,96.33,79.05Zm0-3.09A1,1,0,0,0,95.4,77a.94.94,0,0,0,.9,1,.92.92,0,0,0,.72-.31,1.16,1.16,0,0,0,.3-.93A.7.7,0,0,0,97,76.2a1.18,1.18,0,0,0-.63-.24Z"/><path class="cls-2" d="M127.93,72.31a6.07,6.07,0,0,1-4.19-1.74A5.83,5.83,0,0,1,122,66.2a5.63,5.63,0,0,1,5.45-5.47h.34a6.26,6.26,0,0,1,1.58.23,5.68,5.68,0,0,1,4.06,5.55,5.51,5.51,0,0,1-5.28,5.78Zm-.32-10.53h-.11a4.64,4.64,0,0,0-4.44,4.45,4.76,4.76,0,0,0,1.41,3.6,5,5,0,0,0,3.66,1.43,4.52,4.52,0,0,0,4.28-4.74A4.65,4.65,0,0,0,129.1,62a5.66,5.66,0,0,0-1.32-.19Z"/><path class="cls-2" d="M125.92,66.08a.79.79,0,0,1-.85-.79,1,1,0,0,1,.54-.87.55.55,0,0,1,.38,0,.89.89,0,0,1,.66.86A.81.81,0,0,1,125.92,66.08Zm-.12-1c-.1,0-.19.09-.19.18a.17.17,0,0,0,.09.15Zm.12,0,.16.31s0,0,0-.06A.26.26,0,0,0,125.92,65Z"/><path class="cls-2" d="M129.11,65.84a.82.82,0,0,1-.8-.83,1.2,1.2,0,0,1,.17-.59.53.53,0,0,1,.7-.24l0,0h0a.74.74,0,0,1,.81.73A1,1,0,0,1,129.11,65.84Z"/><path class="cls-2" d="M127.56,70.08a2.83,2.83,0,0,1-2.77-1.88.52.52,0,1,1,1-.34A1.78,1.78,0,0,0,127.56,69a2.35,2.35,0,0,0,2.19-1.37.51.51,0,0,1,.37-.62.53.53,0,0,1,.64.39.91.91,0,0,1,0,.23C130.79,68.73,129.27,70.08,127.56,70.08Z"/><path class="cls-2" d="M139.5,63.26c-1.12,0-2.16,0-3.16-.13a.5.5,0,0,1-.43-.29.52.52,0,0,1,0-.51c.3-.47.59-1,.86-1.44.44-.75.9-1.53,1.42-2.26a.52.52,0,0,1,.42-.22.51.51,0,0,1,.43.22c.39.56.77,1.12,1.13,1.67.46.7.93,1.42,1.43,2.1a.52.52,0,0,1-.4.83Zm-2.23-1.11c.93.06,1.89.08,2.95.06-.31-.44-.6-.89-.89-1.33l-.68-1c-.33.51-.64,1-.94,1.56Z"/><path class="cls-2" d="M138.72,75.12a2.05,2.05,0,0,1,0-4.1,3.34,3.34,0,0,1,.43,0,2.08,2.08,0,0,1,1.35,1.05,2.15,2.15,0,0,1,.23,1,2,2,0,0,1-1.92,2Zm0-3.05a1,1,0,0,0-1,1,1,1,0,0,0,.31.74,1,1,0,0,0,.72.28,1,1,0,0,0,.9-1,1,1,0,0,0-.11-.49,1.05,1.05,0,0,0-.66-.5Z"/><path class="cls-2" d="M138.8,72h-.05a.51.51,0,0,1-.47-.56c.1-1.18.15-2.4.15-3.61a46.71,46.71,0,0,0-.25-4.7.52.52,0,0,1,1-.11,46,46,0,0,1,.25,4.81c0,1.24-.05,2.48-.15,3.69A.52.52,0,0,1,138.8,72Z"/><path class="cls-2" d="M125.88,57.67h0a.51.51,0,0,1-.37-.21c-.55-.72-1.08-1.47-1.6-2.2-.73.54-1.48,1.08-2.25,1.57a.52.52,0,1,1-.56-.88c.84-.54,1.69-1.16,2.5-1.75l.13-.09a.5.5,0,0,1,.39-.1.53.53,0,0,1,.34.22l.21.29c.43.61.87,1.23,1.32,1.84a32.45,32.45,0,0,1,2.63-2.26.52.52,0,0,1,.71.08c.44.52.9,1,1.34,1.52l.33.37c.9-.71,1.79-1.38,2.65-2a.53.53,0,0,1,.71.09c.42.51.86,1,1.3,1.48l.87-.77c.41-.36.83-.75,1.28-1.1a.51.51,0,0,1,.73.08.52.52,0,0,1-.08.73c-.42.34-.83.71-1.24,1.07s-.84.76-1.28,1.11a.52.52,0,0,1-.71-.05c-.45-.49-.91-1-1.36-1.51-.86.61-1.73,1.28-2.6,2a.53.53,0,0,1-.72-.06l-.65-.73-1-1.16a32,32,0,0,0-2.57,2.28A.56.56,0,0,1,125.88,57.67Z"/><path class="cls-2" d="M136.27,50a1.68,1.68,0,0,1-1.2-.5,1.77,1.77,0,0,1-.5-1.25,1.67,1.67,0,0,1,1.37-1.64l.32,0A1.68,1.68,0,0,1,138,48.2a1.73,1.73,0,0,1-.5,1.28A1.7,1.7,0,0,1,136.27,50Zm0-2.38-.14,0a.61.61,0,0,0-.51.62.69.69,0,0,0,.2.51.6.6,0,0,0,.44.18.62.62,0,0,0,.46-.21.69.69,0,0,0,.21-.51A.66.66,0,0,0,136.27,47.63Z"/><path class="cls-2" d="M119.3,43.7a1.56,1.56,0,0,1-1.11-.47,1.63,1.63,0,0,1-.46-1.16,1.54,1.54,0,0,1,1.37-1.5,1.08,1.08,0,0,1,.31,0,1.72,1.72,0,0,1,.67.21,1.6,1.6,0,0,1,.78,1.35A1.63,1.63,0,0,1,119.3,43.7Zm-.09-2.09h0a.51.51,0,0,0-.41.49.6.6,0,0,0,.17.4.49.49,0,0,0,.36.15.55.55,0,0,0,.51-.52.54.54,0,0,0-.27-.45.92.92,0,0,0-.28-.07Z"/><path class="cls-2" d="M120.52,48a.57.57,0,0,1-.18,0,.52.52,0,0,1-.31-.67c.18-.5.36-1,.53-1.51a29.71,29.71,0,0,1,2.3-5.39.52.52,0,1,1,.9.53,29.3,29.3,0,0,0-2.21,5.21L121,47.62A.53.53,0,0,1,120.52,48Z"/><path class="cls-2" d="M124.28,47.64a1.5,1.5,0,0,1-1.1-.49,1.67,1.67,0,0,1-.43-1.28,1.63,1.63,0,0,1,.38-.87,1.36,1.36,0,0,1,.65-.37,2.63,2.63,0,0,1,.39-.06,1.54,1.54,0,0,1,1.6,1.42,1.57,1.57,0,0,1-.41,1.18,1.46,1.46,0,0,1-1,.47Zm-.37-2a.58.58,0,0,0-.12.29.62.62,0,0,0,.16.46.52.52,0,0,0,.34.16.43.43,0,0,0,.3-.14.55.55,0,0,0,.14-.42.49.49,0,0,0-.5-.43h0l-.16,0Z"/><path class="cls-2" d="M110.43,49.36a3.53,3.53,0,0,1-1.2-.28.53.53,0,0,1-.31-.68.51.51,0,0,1,.67-.3,2.56,2.56,0,0,0,.84.22c.46,0,1.06-.52,1.06-.82,0-.48-.68-.76-1.08-.88a.52.52,0,0,1-.36-.4.53.53,0,0,1,.17-.5,3.79,3.79,0,0,0,1-1.09c0-.1-.19-.23-.52-.23a4.42,4.42,0,0,0-.7.08l-.25,0a.53.53,0,0,1-.59-.44.52.52,0,0,1,.45-.59l.23,0a5.67,5.67,0,0,1,.86-.09,1.39,1.39,0,0,1,1.56,1.29c0,.27-.1.63-.77,1.3a1.76,1.76,0,0,1,1,1.55A2.2,2.2,0,0,1,110.43,49.36Z"/><path class="cls-2" d="M115,48.46a2.26,2.26,0,0,1-1.57-.69,2.7,2.7,0,0,1-.75-2.06,2.79,2.79,0,0,1,.57-1.53,2.09,2.09,0,0,1,3.21-.11,3,3,0,0,1,.72,2.22A2.25,2.25,0,0,1,115,48.46Zm-.09-4.05a1.05,1.05,0,0,0-.83.41,1.77,1.77,0,0,0-.36,1,1.7,1.7,0,0,0,.46,1.27,1.17,1.17,0,0,0,.85.38,1.22,1.22,0,0,0,1.11-1.23,1.87,1.87,0,0,0-.45-1.41A1,1,0,0,0,114.87,44.41Z"/><path class="cls-2" d="M100.56,52.76a.47.47,0,0,1-.17,0,.5.5,0,0,1-.35-.45c0-.42-.11-.85-.17-1.27s-.15-1-.19-1.59c-.23-.16-.45-.33-.67-.5s-.62-.48-.94-.7a.52.52,0,0,1,.21-.94c.63-.11,1.29-.22,2-.38.09-.29.19-.57.28-.86.22-.65.42-1.27.57-1.91a.52.52,0,0,1,1-.08c.19.47.38.93.58,1.39.08.18.15.36.23.53l1.28.22,1.06.18a.5.5,0,0,1,.41.33.52.52,0,0,1-.09.52c-.28.33-.55.67-.82,1,.1.37.21.74.32,1.11s.22.72.32,1.09a.54.54,0,0,1-.12.5.52.52,0,0,1-.49.15l-1-.2-1-.19-.81.85-1,1A.53.53,0,0,1,100.56,52.76Zm-.91-4.67.83.62a.52.52,0,0,1,.22.41c0,.57.11,1.14.2,1.74l0,.22.24-.26,1-1a.51.51,0,0,1,.48-.15l1.25.25.2,0c0-.08-.05-.17-.08-.26-.14-.46-.28-.92-.4-1.38a.54.54,0,0,1,.09-.46l.44-.55-.19,0c-.51-.08-1-.18-1.54-.24a.54.54,0,0,1-.41-.32c-.11-.27-.23-.53-.34-.8v0l-.18.54c-.12.37-.24.74-.35,1.12a.54.54,0,0,1-.38.35C100.4,47.94,100,48,99.65,48.09Z"/><path class="cls-2" d="M90.11,56.77a.47.47,0,0,1-.25-.07c-.56-.3-1.12-.62-1.68-.94-.87-.5-1.76-1-2.66-1.46a.51.51,0,0,1-.29-.44c-.11-1.85-.18-3.35-.24-4.71a.51.51,0,0,1,.28-.49c.73-.37,1.47-.71,2.19-1s1.47-.67,2.18-1a.52.52,0,0,1,.58.07c1,.87,2,1.7,3,2.46a.53.53,0,0,1,.2.36c.09.75.16,1.5.23,2.25,0,.56.1,1.12.16,1.68a.52.52,0,0,1-.2.46,29.84,29.84,0,0,0-3.17,2.75A.55.55,0,0,1,90.11,56.77ZM86.26,53.5c.83.43,1.64.9,2.44,1.35L90,55.6a33.52,33.52,0,0,1,2.77-2.39c0-.46-.09-.93-.13-1.39-.06-.67-.13-1.34-.2-2-.89-.67-1.78-1.39-2.66-2.14-.63.31-1.28.61-1.91.9s-1.23.56-1.84.87C86.1,50.63,86.17,51.94,86.26,53.5Z"/><path class="cls-2" d="M89.42,52.79a1.49,1.49,0,0,1-1.27-1.48,1.22,1.22,0,0,1,.41-.93,1.1,1.1,0,0,1,.77-.3,1.33,1.33,0,0,1,1.32,1.15s0,.08,0,.11v.14A1.27,1.27,0,0,1,89.42,52.79Zm-.09-1.67-.06,0a.2.2,0,0,0-.08.17.62.62,0,0,0,.26.44.26.26,0,0,0,.17-.27s0-.07,0-.1v-.11A.55.55,0,0,0,89.33,51.12Z"/><path class="cls-2" d="M91.42,48.44a.54.54,0,0,1-.54-.59.51.51,0,0,1,.3-.47c.74-1,1.4-2.06,2-3.06s1.22-1.9,1.88-2.83a.53.53,0,0,1,.73-.12.52.52,0,0,1,.12.73c-.64.91-1.23,1.82-1.85,2.78s-1.42,2.21-2.23,3.33A.56.56,0,0,1,91.42,48.44Zm.5-.59ZM91,47.59h0Z"/><path class="cls-2" d="M97.41,43.08a.59.59,0,0,1-.26-.07,25.84,25.84,0,0,0-3.76-1.9.54.54,0,0,1-.34-.45C93,39.83,93,39,93,38.17c0-.38,0-.76,0-1.13a.5.5,0,0,1,.22-.44c1-.74,2.08-1.54,3.08-2.32l.24-.18a.54.54,0,0,1,.62,0c1,.69,2,1.36,3,2a.52.52,0,0,1,.25.39c.08.78.13,1.57.18,2.34l.09,1.31a.47.47,0,0,1-.19.44,30,30,0,0,0-2.63,2.37A.52.52,0,0,1,97.41,43.08Zm-3.33-2.82a25.75,25.75,0,0,1,3.24,1.64,29.45,29.45,0,0,1,2.23-2c0-.35,0-.71-.07-1.06,0-.67-.09-1.36-.15-2-.85-.53-1.68-1.09-2.51-1.66C95.9,35.87,95,36.6,94,37.29c0,.28,0,.57,0,.86C94,38.84,94,39.56,94.08,40.26Z"/><path class="cls-2" d="M96.5,39.57a1.07,1.07,0,0,1-1-1.06,1.35,1.35,0,0,1,.71-1.11.53.53,0,0,1,.65.11.5.5,0,0,1,.5.05,1,1,0,0,1,.43.81s0,.08,0,.12A1.29,1.29,0,0,1,96.5,39.57Zm.13-1.23a.45.45,0,0,0-.14.17.22.22,0,0,0,.19-.12Zm.1.08Z"/><path class="cls-2" d="M85.58,40.84a2.06,2.06,0,0,1-2.06-2A2.25,2.25,0,0,1,85,36.64a1.36,1.36,0,0,1,.49-.08h0a2.11,2.11,0,0,1,2.09,2.09A2.21,2.21,0,0,1,87,40.23,2,2,0,0,1,85.58,40.84Zm0-3.24a.54.54,0,0,0-.19,0,1.2,1.2,0,0,0-.81,1.18,1,1,0,0,0,1,1,1,1,0,0,0,.68-.29,1.22,1.22,0,0,0,.35-.84A1.08,1.08,0,0,0,85.56,37.6Z"/><path class="cls-2" d="M107.72,37.81a8.48,8.48,0,0,1-4.34-1.15.52.52,0,0,1,.53-.9,7.4,7.4,0,0,0,3.81,1A9.82,9.82,0,0,0,116.54,31a.52.52,0,0,1,.68-.29.53.53,0,0,1,.29.68A10.93,10.93,0,0,1,107.72,37.81Z"/><path class="cls-2" d="M112.59,41.08a.53.53,0,0,1-.47-.29,28,28,0,0,1-1.23-3.17l-.18-.53a.52.52,0,1,1,1-.34l.18.53a27.46,27.46,0,0,0,1.18,3,.53.53,0,0,1-.24.7A.48.48,0,0,1,112.59,41.08Z"/><path class="cls-2" d="M125.19,27.68a.5.5,0,0,1-.44-.25,13.45,13.45,0,0,0-3.93-4,.52.52,0,1,1,.57-.87,14.39,14.39,0,0,1,4.24,4.34.53.53,0,0,1-.16.72A.6.6,0,0,1,125.19,27.68Z"/><path class="cls-2" d="M125.92,35a4.4,4.4,0,0,1-1.12-.2,3.54,3.54,0,0,0-1-.19.53.53,0,0,1-.53-.53.52.52,0,0,1,.53-.52,4.69,4.69,0,0,1,1.26.23,3.31,3.31,0,0,0,.83.17.49.49,0,0,0,.22,0,2.59,2.59,0,0,0,.16-.73c0-.14,0-.29.07-.45a.52.52,0,0,1,.6-.43.53.53,0,0,1,.43.6c0,.16-.05.3-.07.44C127.21,34.14,127.09,35,125.92,35Z"/><path class="cls-2" d="M126.59,37.31a5.89,5.89,0,0,1-1.67-.33l-.11,0a.52.52,0,1,1,.29-1l.11,0a5.41,5.41,0,0,0,1.38.29c.59,0,.7-.23.94-1a3.83,3.83,0,0,1,.58-1.21.53.53,0,0,1,.74-.08.52.52,0,0,1,.08.73,2.92,2.92,0,0,0-.41.89C128.29,36.34,128,37.31,126.59,37.31Z"/><path class="cls-2" d="M131.72,41a.54.54,0,0,1-.36-.14c-.88-.84-1.68-1.75-2.45-2.63a27.78,27.78,0,0,0-3.26-3.34.53.53,0,0,1,.67-.81,29.77,29.77,0,0,1,3.38,3.46c.76.86,1.54,1.76,2.38,2.56a.52.52,0,0,1,0,.74A.51.51,0,0,1,131.72,41Z"/><path class="cls-2" d="M131.59,44.44a3.89,3.89,0,0,1-2.8-1.19,4.18,4.18,0,0,1-1.2-3,4,4,0,0,1,2.69-3.72,4.26,4.26,0,0,1,1.33-.22,3.9,3.9,0,0,1,2.8,1.18,4.1,4.1,0,0,1,1.19,2.95A4,4,0,0,1,131.59,44.44Zm0-7.09a3.27,3.27,0,0,0-1,.17,2.9,2.9,0,0,0-2,2.75,3.09,3.09,0,0,0,.91,2.25,2.83,2.83,0,0,0,2.05.88,3,3,0,0,0,3-3,3,3,0,0,0-.88-2.2A2.92,2.92,0,0,0,131.6,37.35Z"/><path class="cls-2" d="M131.73,42.17h0a1.81,1.81,0,0,1-1.29-.59,2,2,0,0,1-.52-1.41,1.69,1.69,0,0,1,.84-1.39,2.05,2.05,0,0,1,1.07-.3,1.86,1.86,0,0,1,1.79,1.89A1.81,1.81,0,0,1,131.73,42.17Zm0-2.64a1.1,1.1,0,0,0-.52.16.62.62,0,0,0-.3.53.84.84,0,0,0,.24.65.75.75,0,0,0,.53.26.77.77,0,0,0,.83-.77A.8.8,0,0,0,131.76,39.53Z"/><path class="cls-2" d="M107,26h-.07a2.56,2.56,0,0,1-1.85-.84,2.71,2.71,0,0,1-.76-2,2.41,2.41,0,0,1,.89-1.85,3.64,3.64,0,0,1,.48-.35,2.48,2.48,0,0,1,1.24-.36,2.81,2.81,0,0,1,2,.76,2.59,2.59,0,0,1,.81,1.84A2.8,2.8,0,0,1,107,26Zm-1.13-3.86a1.4,1.4,0,0,0-.51,1.08,1.75,1.75,0,0,0,.47,1.22,1.65,1.65,0,0,0,1.13.51,1.69,1.69,0,0,0,1.25-.49,1.76,1.76,0,0,0,.53-1.21,1.54,1.54,0,0,0-.49-1.1,1.78,1.78,0,0,0-1.29-.48,1.52,1.52,0,0,0-.74.22Z"/><path class="cls-2" d="M105,30.19a.51.51,0,0,1-.49-.36,5.94,5.94,0,0,1-.32-1.88,3.27,3.27,0,0,1,1.6-3,.52.52,0,0,1,.51.91A2.3,2.3,0,0,0,105.27,28a4.66,4.66,0,0,0,.14,1.09,21.35,21.35,0,0,1,3.23-.53,6,6,0,0,0-1.31-2.8.52.52,0,0,1,.06-.74.53.53,0,0,1,.74.07,7.16,7.16,0,0,1,1.63,3.9.54.54,0,0,1-.13.4.53.53,0,0,1-.37.18,21.25,21.25,0,0,0-4.1.65Z"/><path class="cls-2" d="M107.5,33.07a8.09,8.09,0,0,1-8-8.07,7.69,7.69,0,0,1,5.33-7.15,8.45,8.45,0,0,1,2.78-.38A7.42,7.42,0,0,1,115,24.81a7.78,7.78,0,0,1-7.17,8.25Zm-.11-14.56a7.68,7.68,0,0,0-2.28.34A6.64,6.64,0,0,0,100.52,25a7.06,7.06,0,0,0,7.27,7c4-.17,6.3-3.85,6.18-7.17a6.42,6.42,0,0,0-6.4-6.34Z"/><path class="cls-2" d="M95.74,27.46a.52.52,0,0,1-.48-.32,7.16,7.16,0,0,1-.55-2.82,7.68,7.68,0,0,1,2.6-5.83.51.51,0,0,1,.73.06.52.52,0,0,1-.06.74,6.6,6.6,0,0,0-2.23,5,6.29,6.29,0,0,0,.47,2.42.51.51,0,0,1-.28.68A.45.45,0,0,1,95.74,27.46Z"/><path class="cls-2" d="M116.38,20.1a.52.52,0,0,1-.46-.27C115,18,112.47,15,106.74,15a16.27,16.27,0,0,0-6.54,1.4.52.52,0,0,1-.69-.26.52.52,0,0,1,.26-.69,17.34,17.34,0,0,1,7-1.49c4.58,0,8.26,1.95,10.1,5.36a.52.52,0,0,1-.46.77Z"/><path class="cls-2" d="M84.17,31.09a6.18,6.18,0,0,1-4.45-1.84,6.42,6.42,0,0,1-1.88-4.67,6.07,6.07,0,0,1,3.65-5.5,7.16,7.16,0,0,1,2.74-.52h.24a6.27,6.27,0,0,1-.21,12.52Zm.1-11.48h0a6.08,6.08,0,0,0-2.35.43,5,5,0,0,0-3,4.57,5.33,5.33,0,0,0,1.57,3.9,5.21,5.21,0,1,0,4-8.9Z"/><path class="cls-2" d="M82.37,24.55a1.11,1.11,0,0,1-1.15-1.06,1.56,1.56,0,0,1,.1-.47.52.52,0,0,1,.41-.35,1.08,1.08,0,0,1,1.84.62c0,.05,0,.1,0,.16s0,.05,0,.07A1.11,1.11,0,0,1,82.37,24.55Zm-.09-1.11.13.06a.2.2,0,0,0,.1,0,.17.17,0,0,1,0-.07h0s0,0,0,0A.33.33,0,0,0,82.28,23.44Z"/><path class="cls-2" d="M86,24.54a1,1,0,0,1-1-1.05,1.28,1.28,0,0,1,.2-.68.53.53,0,0,1,.72-.17.52.52,0,0,1,.61.1.76.76,0,0,1,.44.77,1,1,0,0,1-.91,1Zm.07-1Z"/><path class="cls-2" d="M81.86,27.8a.54.54,0,0,1-.52-.48.52.52,0,0,1,.48-.56c1.16-.1,2.36-.2,3.55-.2a.52.52,0,0,1,0,1c-1.15,0-2.32.1-3.46.2Z"/><path class="cls-2" d="M89.64,15.82h-.13a.54.54,0,0,1-.38-.37c-.12-.46-.22-.93-.32-1.39-.06-.24-.11-.49-.17-.73a13.48,13.48,0,0,1-1.53-.68.51.51,0,0,1,0-.9L88.32,11l.6-.38c.08-.75.16-1.53.17-2.31A.52.52,0,0,1,90,8c.4.48.75,1,1.09,1.49l.07.11c.29,0,.57,0,.84.06.44,0,.84.07,1.25.07a.55.55,0,0,1,.47.26.53.53,0,0,1,0,.53c-.2.33-.43.7-.65,1.09q.14.27.24.54c.21.46.43,1,.67,1.4A.52.52,0,0,1,94,14a.54.54,0,0,1-.5.23c-.49-.06-1-.14-1.45-.21L91.67,14c-.6.58-1.14,1.12-1.65,1.66A.51.51,0,0,1,89.64,15.82Zm-1.2-3.71.82.33a.5.5,0,0,1,.33.36l.24,1,.09.43c.38-.38.78-.78,1.21-1.19a.54.54,0,0,1,.44-.14l.6.09.46.07c-.09-.19-.18-.38-.26-.57s-.23-.51-.34-.77a.52.52,0,0,1,0-.47l.34-.6-.45,0c-.36,0-.71-.06-1.05-.06a.55.55,0,0,1-.42-.23L90.23,10l-.17-.26c0,.34-.07.68-.11,1V11a.52.52,0,0,1-.25.39l-.83.51Z"/><path class="cls-2" d="M97.7,8.7a.51.51,0,0,1-.35-.13,11.55,11.55,0,0,0-7.47-3.25,7.73,7.73,0,0,0-1.08.07.52.52,0,0,1-.13-1,9.58,9.58,0,0,1,1.21-.08,12.6,12.6,0,0,1,8.17,3.52.52.52,0,0,1,0,.74A.48.48,0,0,1,97.7,8.7Z"/><path class="cls-2" d="M98.67,11.87a.52.52,0,0,1-.08-1,31.13,31.13,0,0,1,3.45-.25c.83,0,1.68-.06,2.52-.14a.52.52,0,0,1,.57.47.52.52,0,0,1-.47.57c-.87.08-1.74.11-2.59.14a29.63,29.63,0,0,0-3.32.24Z"/><path class="cls-2" d="M81.16,5.18a2.21,2.21,0,0,1-1.62-.7,2.3,2.3,0,0,1-.67-1.72,2.14,2.14,0,0,1,1.81-2,2,2,0,0,1,.24,0,2.39,2.39,0,0,1,1.81.62A2.23,2.23,0,0,1,83.41,3a2.28,2.28,0,0,1-2.22,2.22Zm-.08-3.43H81l-.15,0a1.09,1.09,0,0,0-.91,1,1.28,1.28,0,0,0,.37.94,1.24,1.24,0,0,0,.87.38h0A1.25,1.25,0,0,0,82.36,3,1.17,1.17,0,0,0,82,2.09,1.31,1.31,0,0,0,81.08,1.75Z"/><path class="cls-2" d="M68,17.34a.52.52,0,0,1-.52-.47,141.18,141.18,0,0,1-.73-15.1c0-.41,0-.83,0-1.25A.5.5,0,0,1,67.09,0a.52.52,0,0,1,.58.18,15.6,15.6,0,0,1,1.18,1.7c.3.52.57,1,11,14.19a.55.55,0,0,1,.06.55.53.53,0,0,1-.47.3c-2.16,0-4.38.12-6.51.21C71.3,17.23,69.63,17.3,68,17.34Zm-.2-15.2a141.12,141.12,0,0,0,.67,14.14c1.48,0,3-.1,4.44-.16,1.8-.08,3.66-.16,5.5-.2C68.54,3.46,68.29,3,67.94,2.43,67.9,2.35,67.85,2.27,67.77,2.14Z"/><path class="cls-2" d="M69.87,14.67a.53.53,0,0,1-.52-.47c-.1-.91-.18-1.84-.26-2.74C69,10.33,68.9,9.16,68.75,8A.51.51,0,0,1,69,7.5a.52.52,0,0,1,.6.1,11.42,11.42,0,0,1,1.17,1.47,13.6,13.6,0,0,0,.92,1.2c.91,1,1.8,1.93,2.74,2.9l.29.3a.51.51,0,0,1,.11.56.53.53,0,0,1-.48.33c-.9,0-1.82.09-2.7.17l-1.79.14ZM70,9.72c.05.55.1,1.11.14,1.66.06.73.13,1.47.2,2.21l1.27-.1c.52-.05,1.06-.1,1.6-.13C72.46,12.59,71.7,11.8,71,11A14.92,14.92,0,0,1,70,9.72Z"/><path class="cls-2" d="M56.21,73.25a.5.5,0,0,1-.34-.13c-2.7-2.33-4.14-4.78-4.14-7.07,0-3,8.94-5.72,11-5.72a2.65,2.65,0,0,1,2.59,2.52c0,1.33-2.11,2.34-5.09,3.62a18.31,18.31,0,0,0-2.1,1,.52.52,0,1,1-.54-.9,21.78,21.78,0,0,1,2.23-1c1.45-.62,4.46-1.92,4.46-2.66a1.62,1.62,0,0,0-1.55-1.48c-2.31,0-9.91,2.85-9.91,4.68,0,2.5,2,4.79,3.78,6.28a.53.53,0,0,1,0,.74A.52.52,0,0,1,56.21,73.25Z"/><path class="cls-2" d="M52.85,64.11a.52.52,0,0,1-.52-.49c0-.45-.11-.95-.19-1.48a14,14,0,0,1-.24-2.22c0-2.46,2.19-4.28,6.52-5.43a40.34,40.34,0,0,1,9.5-1.16,2.81,2.81,0,0,1,3,2.87c0,2.13-2.4,2.94-4.52,3.65a14.53,14.53,0,0,0-2.16.85.52.52,0,0,1-.51-.91,15.41,15.41,0,0,1,2.34-.93c1.87-.63,3.81-1.28,3.81-2.66a1.79,1.79,0,0,0-2-1.82,39,39,0,0,0-9.24,1.12c-2.62.69-5.74,2-5.74,4.42a13.54,13.54,0,0,0,.23,2c.08.53.17,1.08.21,1.58a.53.53,0,0,1-.49.56Z"/><path class="cls-2" d="M53.12,57a.51.51,0,0,1-.49-.37,6.29,6.29,0,0,1-.31-2c0-6.16,6.53-6.64,15.75-6.64,1.56,0,4.18,0,4.18,3,0,1.66-1.67,2.55-2.77,3.14l0,0a.53.53,0,0,1-.49-.93l0,0c.93-.5,2.21-1.18,2.21-2.22,0-1.64-1-1.92-3.13-1.92-10.17,0-14.71.81-14.71,5.6a5.53,5.53,0,0,0,.26,1.66.51.51,0,0,1-.34.65A.41.41,0,0,1,53.12,57Z"/><path class="cls-2" d="M56.64,49.9c-.09,0-.54,0-.54-.66,0-.05,0-.11,0-.16a.58.58,0,0,1,0-.37c0-3.7,2.49-5.74,6.93-5.74,1,0,9.42.09,9.42,3.21a3,3,0,0,1-2.42,2.53.52.52,0,1,1-.18-1,2,2,0,0,0,1.55-1.51c0-1.41-4.86-2.16-8.37-2.16-3.91,0-5.89,1.6-5.89,4.77,0,.24,0,.4,0,.5C57.15,49.86,56.76,49.9,56.64,49.9Z"/><path class="cls-2" d="M70.59,64.71h-.11a.52.52,0,0,1-.4-.62,8.71,8.71,0,0,1,1.24-2.65,11.73,11.73,0,0,0,.9-1.66.52.52,0,0,1,1,.4,12.38,12.38,0,0,1-1,1.8A7.76,7.76,0,0,0,71.1,64.3.51.51,0,0,1,70.59,64.71Z"/><path class="cls-2" d="M73.48,63h-.11a14.26,14.26,0,0,1-4.46-1.74.52.52,0,0,1,.54-.9A13.39,13.39,0,0,0,73.59,62a.52.52,0,0,1-.11,1Z"/><path class="cls-2" d="M74,107.35c-8.4,0-14.78-2.47-19-7.35a21.59,21.59,0,0,1-4.92-14c0-8.5,5.12-12.46,9.64-16C63.13,67.45,66,65.2,66,61.55c0-.37,0-.75,0-1.12s0-.76,0-1.14a.52.52,0,0,1,.53-.52.52.52,0,0,1,.52.52c0,.36,0,.71,0,1.09s0,.78,0,1.17c0,4.16-3.25,6.67-6.69,9.33C56.06,74.23,51.16,78,51.16,86c0,3.39,1.1,20.3,22.84,20.3a26.58,26.58,0,0,0,6.48-.74A15.2,15.2,0,0,0,91.25,94.29a32.7,32.7,0,0,0,.66-6.36c0-9.24-3.83-12.24-7.88-15.42s-8.22-6.44-8.22-16c0-.71,0-1.42,0-2.13s0-1.41,0-2.12,0-1.28,0-1.83c0-1.1-.15-2.2-.27-3.37-.15-1.51-.31-3.06-.31-4.6a13.83,13.83,0,0,1,1.65-7,11.05,11.05,0,0,0-4.47-.95,15.29,15.29,0,0,0-7.32,2.13,6.24,6.24,0,0,1,1.31,4.29A19.57,19.57,0,0,1,66.29,43a.53.53,0,0,1-.58.46.52.52,0,0,1-.46-.58,17.47,17.47,0,0,0,.12-1.93c0-2.94-1.26-3.83-1.32-3.86a.55.55,0,0,1-.23-.44c0-1,4.82-3.16,8.6-3.16,1.55,0,5.63.6,5.63,2a.57.57,0,0,1-.1.31,12.25,12.25,0,0,0-1.66,6.68,44.73,44.73,0,0,0,.3,4.49c.11,1.14.23,2.31.27,3.44,0,.56,0,1.18,0,1.87s0,1.42,0,2.13,0,1.41,0,2.12c0,9.08,3.8,12.06,7.82,15.21S93,78.18,93,87.93a34,34,0,0,1-.68,6.57,16.28,16.28,0,0,1-11.54,12.08A27.65,27.65,0,0,1,74,107.35Z"/><path class="cls-2" d="M58.84,97.64a.5.5,0,0,1-.36-.14.52.52,0,0,1,0-.74,8.49,8.49,0,0,0,.9-1.23,5.62,5.62,0,0,1,2.13-2.23.52.52,0,1,1,.47.93,4.66,4.66,0,0,0-1.72,1.87,9.63,9.63,0,0,1-1,1.38A.51.51,0,0,1,58.84,97.64Z"/><path class="cls-2" d="M62,96.29l-.13,0A8.79,8.79,0,0,1,58,94.38a.52.52,0,0,1,.72-.76,7.8,7.8,0,0,0,3.37,1.64.52.52,0,0,1-.14,1Z"/><path class="cls-2" d="M74.23,98.5a.45.45,0,0,1-.16,0,.49.49,0,0,1-.31-.27c-.69-1.42-1.26-2.92-1.81-4.37l-.09-.22-.6,1.71c-.28.81-.57,1.62-.85,2.44a.49.49,0,0,1-.51.35l-.66,0a18.07,18.07,0,0,1-3.18-.28.53.53,0,0,1-.41-.6c.61-3.81,1.06-7,1.41-9.92a14.51,14.51,0,0,0-3.18,2.51.54.54,0,0,1-.54.14.53.53,0,0,1-.36-.42c-.1-.65-.17-1.32-.23-2-.09-.81-.17-1.66-.32-2.47a.51.51,0,0,1,.3-.57c.87-.4,1.76-.69,2.54-1,2.43-.81,3.69-1.31,3.71-3s-2.68-2-3.69-2.24c-.5-.1-.9-.18-.9-.64a1.71,1.71,0,0,1,.83-1.33,18.32,18.32,0,0,1-.45-3.53c0-3.11,1.79-4.89,4.91-4.89,2.82,0,7.59,1.67,7.59,7.93a4.89,4.89,0,0,1-2.72,4.82c-.82.5-1.27.81-1.3,1.55a23.66,23.66,0,0,0,4.07,2.22c.81.39,1.44.69,1.75.88a.52.52,0,1,1-.54.89c-.26-.16-.91-.47-1.66-.83-3.8-1.81-4.67-2.38-4.67-3.07A2.88,2.88,0,0,1,74,79.79a3.86,3.86,0,0,0,2.22-3.93c0-2.56-1.38-6.88-6.54-6.88-1.76,0-3.86.66-3.86,3.84a18.72,18.72,0,0,0,.45,3.46l0,.18a.55.55,0,0,1-.18.5l-.22.17-.24.19c1.35.27,4.36,1,4.36,3.22,0,2.54-2.17,3.26-4.42,4-.68.23-1.38.47-2.09.76.12.72.19,1.44.27,2.15l.09.87a17.5,17.5,0,0,1,3.58-2.46.51.51,0,0,1,.53,0,.53.53,0,0,1,.23.49c-.36,3.09-.82,6.44-1.46,10.48a20.28,20.28,0,0,0,2.5.18h.29c.24-.7.48-1.39.73-2.09.36-1,.71-2,1.06-3a.53.53,0,0,1,.48-.36.52.52,0,0,1,.5.33l.6,1.57c.49,1.26,1,2.56,1.55,3.8a17.35,17.35,0,0,1,3.15-1.37,19.72,19.72,0,0,1-1.77-2.52c-.28-.46-.58-.93-.88-1.37a.52.52,0,0,1,.13-.73.54.54,0,0,1,.73.13c.32.47.62.95.91,1.41a13.63,13.63,0,0,0,2.25,3,.55.55,0,0,1,.15.53.52.52,0,0,1-.41.37,15.26,15.26,0,0,0-4.25,1.75A.54.54,0,0,1,74.23,98.5Z"/><path class="cls-2" d="M75.45,92.58a.53.53,0,0,1-.5-.39,26.74,26.74,0,0,1-.73-4.59l0-.47a.52.52,0,0,1,.21-.47.52.52,0,0,1,.51-.07c.59.24,1.17.54,1.73.82l.59.31A8.09,8.09,0,0,1,78,86.41a9.12,9.12,0,0,0,.59-1,.53.53,0,0,1,.7-.24.54.54,0,0,1,.24.71A11.39,11.39,0,0,1,78.85,87,4.6,4.6,0,0,0,78,88.56a.53.53,0,0,1-.73.36c-.39-.18-.78-.39-1.16-.58l-.84-.42a24.08,24.08,0,0,0,.66,4,.53.53,0,0,1-.37.65Z"/><path class="cls-2" d="M74.45,91.46c-.8,0-1.61-.1-2.39-.17s-1.79-.17-2.66-.17a9.38,9.38,0,0,0-2.08.21.52.52,0,0,1-.62-.4.51.51,0,0,1,.39-.62,10.27,10.27,0,0,1,2.31-.23c.92,0,1.86.08,2.76.17s1.55.14,2.31.16A.54.54,0,0,1,75,91,.53.53,0,0,1,74.45,91.46Z"/><path class="cls-2" d="M71.73,89.12c-1.06,0-2.27-1.58-2.27-2.61a3.78,3.78,0,0,1,.6-2,4.88,4.88,0,0,0,.23-.48l-.36-.16a2.84,2.84,0,0,1-1.17-.71.52.52,0,0,1,0-.74.51.51,0,0,1,.73,0,2.18,2.18,0,0,0,.77.43,1.83,1.83,0,0,1,.9.57.53.53,0,0,1,.52.27,7.71,7.71,0,0,1,1.17,3.49,2.67,2.67,0,0,1-.25,1.28A1,1,0,0,1,71.73,89.12Zm-.63-4.29-.13.23a2.87,2.87,0,0,0-.47,1.45,2.25,2.25,0,0,0,.77,1.3,1,1,0,0,0,.46.27,1.69,1.69,0,0,0,.13-.8A5.79,5.79,0,0,0,71.1,84.83Zm-.75-.71h0Z"/><path class="cls-2" d="M71.45,83.92a.52.52,0,0,1-.51-.42.52.52,0,0,1,.41-.62,2.1,2.1,0,0,0,.69-.34,3.38,3.38,0,0,1,.78-.41.53.53,0,0,1,.66.33.52.52,0,0,1-.33.66,2.74,2.74,0,0,0-.55.3,3,3,0,0,1-1,.49Z"/><path class="cls-2" d="M66,76.38a.53.53,0,0,1-.4-.19.52.52,0,0,1,.07-.74c1-.88,2-1.77,2.11-3a.53.53,0,0,1,.49-.48l.39,0a15.62,15.62,0,0,0,6.3-1.16.52.52,0,0,1,.46.94A16.69,16.69,0,0,1,68.72,73a6.17,6.17,0,0,1-2.42,3.25A.46.46,0,0,1,66,76.38Z"/><path class="cls-2" d="M61.62,88.83a1.38,1.38,0,0,1-1.36-1.36,2.62,2.62,0,0,1,2.19-2.23.52.52,0,0,1,.61.41.51.51,0,0,1-.4.61c-.62.12-1.35.69-1.35,1.21a.35.35,0,0,0,.31.32h.08a.52.52,0,1,1,.25,1A1.19,1.19,0,0,1,61.62,88.83Z"/><path class="cls-2" d="M79.48,89.2a.9.9,0,0,1-.65-.28.53.53,0,0,1,0-.74.52.52,0,0,1,.71,0c.34,0,.35-.13.35-.35a1.25,1.25,0,0,0-.81-1,.52.52,0,0,1-.36-.64.52.52,0,0,1,.65-.36,2.27,2.27,0,0,1,1.57,2A1.31,1.31,0,0,1,79.48,89.2Zm.09-1Z"/><path class="cls-2" d="M67.34,100a1.17,1.17,0,0,1-1.19-1.14,2.7,2.7,0,0,1,.28-1,.53.53,0,0,1,.69-.28.51.51,0,0,1,.27.68,2,2,0,0,0-.19.61c0,.06.09.1.14.1.25,0,.71-.45,1-1a.52.52,0,0,1,.71-.21.54.54,0,0,1,.21.71C69.12,98.69,68.37,100,67.34,100Z"/><path class="cls-2" d="M76.81,99.4A2.62,2.62,0,0,1,74.88,98a.52.52,0,0,1,.21-.71.53.53,0,0,1,.71.21c.25.46.74.9,1,.9s.37-.21.37-.72c0-.11,0-.23,0-.35a.51.51,0,0,1,.46-.57.52.52,0,0,1,.57.46,4.07,4.07,0,0,1,0,.46A1.57,1.57,0,0,1,76.81,99.4Z"/><path class="cls-2" d="M72.87,103.17c-.8,0-1.68,0-2.75-.11a.52.52,0,1,1,.07-1c1,.08,1.9.11,2.68.11a18.81,18.81,0,0,0,2.18-.11.52.52,0,0,1,.11,1A20.68,20.68,0,0,1,72.87,103.17Z"/><path class="cls-2" d="M84.67,100.63a.57.57,0,0,1-.31-.1,28.55,28.55,0,0,1-2.24-1.8.53.53,0,0,1-.07-.71c.73-1,1.3-1.66,1.85-2.31a.51.51,0,0,1,.37-.18.53.53,0,0,1,.38.13l.84.79c.43.41.87.83,1.32,1.22A.49.49,0,0,1,87,98a.55.55,0,0,1-.12.39l-1.32,1.48-.5.56A.53.53,0,0,1,84.67,100.63Zm-1.49-2.36c.42.36.88.73,1.42,1.13l.18-.21c.32-.35.65-.71,1-1.07l-1-.91-.42-.4C84,97.24,83.61,97.71,83.18,98.27Z"/><path class="cls-2" d="M85.75,90l-1.19,0c-.56,0-1.11,0-1.66,0a.53.53,0,0,1-.54-.5.52.52,0,0,1,.5-.54c.58,0,1.16,0,1.74,0,.38,0,.77,0,1.15,0a9,9,0,0,0,1.46-.1.52.52,0,0,1,.6.43.52.52,0,0,1-.43.6A10,10,0,0,1,85.75,90Z"/><path class="cls-2" d="M85,82.68a.54.54,0,0,1-.33-.12l-.38-.32c-.75-.61-1.52-1.24-2.23-1.91a.52.52,0,0,1-.17-.38.52.52,0,0,1,.17-.39c.31-.28.62-.59.92-.89s.75-.76,1.17-1.11a.52.52,0,0,1,.69,0l.51.47a18,18,0,0,0,1.87,1.58.49.49,0,0,1,.21.37.5.5,0,0,1-.13.4L85.34,82.5A.5.5,0,0,1,85,82.68Zm-1.82-2.74c.58.52,1.18,1,1.77,1.49l1.19-1.32c-.52-.42-1-.87-1.49-1.31l-.16-.14c-.26.24-.51.49-.77.75Z"/><path class="cls-2" d="M59.38,80.37a1.77,1.77,0,0,1-1.25-.53,1.71,1.71,0,0,1,.54-2.8,1.45,1.45,0,0,1,.59-.12,1.81,1.81,0,0,1,1.28.48,1.64,1.64,0,0,1,.53,1.16,1.8,1.8,0,0,1-.48,1.28,1.65,1.65,0,0,1-1.16.53ZM59.31,78h0a.59.59,0,0,0-.23.05.63.63,0,0,0-.4.57.71.71,0,0,0,.22.53.74.74,0,0,0,.51.22.65.65,0,0,0,.44-.21.75.75,0,0,0,.2-.53.61.61,0,0,0-.21-.43A.74.74,0,0,0,59.31,78Z"/><path class="cls-2" d="M57.6,86c-.59,0-1.2,0-1.79-.07-.76,0-1.55-.08-2.31,0a.52.52,0,0,1,0-1c.79,0,1.62,0,2.41.05.58,0,1.17.06,1.73.06a.53.53,0,1,1,0,1Z"/><path class="cls-2" d="M47.9,118.2a.51.51,0,0,1-.41-.2c-1-1.37-2.16-2.71-3.24-4l-.69-.83a.49.49,0,0,1-.12-.32c0-1.24-.07-2.47-.1-3.71-.09-3.17-.18-6.46-.18-9.7,0-2.56.05-4.84.17-7a.52.52,0,0,1,.48-.49,45.54,45.54,0,0,1,7,0,.52.52,0,0,1-.08,1A45.57,45.57,0,0,0,44.35,93c-.1,2-.15,4.11-.15,6.46,0,3.22.09,6.5.18,9.68,0,1.17.07,2.34.09,3.52l.58.69c1,1.24,2.1,2.51,3.11,3.82,3.5-.06,7-.23,10.45-.4l3.94-.18c-.07-1.48-.11-3-.14-4.43,0-2.21-.11-4.49-.27-6.73a.54.54,0,0,1,.49-.56.52.52,0,0,1,.55.49c.17,2.26.22,4.55.27,6.77,0,1.62.08,3.29.16,4.93a.52.52,0,0,1-.13.38.58.58,0,0,1-.37.17l-4.45.21C55.15,118,51.52,118.15,47.9,118.2Z"/><path class="cls-2" d="M48.41,116.79a.53.53,0,0,1-.52-.48c0-.26,0-.53,0-.82,0-.57,0-1.14.07-1.7,0-.2,0-.41,0-.61h-.89a29.86,29.86,0,0,0-3,.12.53.53,0,0,1-.57-.47.52.52,0,0,1,.47-.57c1.11-.11,2.21-.13,3.14-.13h1.44a.52.52,0,0,1,.37.16.49.49,0,0,1,.14.38c0,.39,0,.78-.06,1.18s-.07,1.09-.07,1.63c0,.26,0,.5,0,.74a.54.54,0,0,1-.48.56Z"/><path class="cls-2" d="M54.84,114.05H53.68a.52.52,0,1,1,0-1h.57a13.43,13.43,0,0,0,2.82-.16.52.52,0,0,1,.61.41.51.51,0,0,1-.41.61A12,12,0,0,1,54.84,114.05Z"/><path class="cls-2" d="M48.18,111.18a.52.52,0,0,1,0-1c1.31-.12,2.73-.17,4.48-.17l2.65,0,2.65,0a.53.53,0,1,1,0,1l-2.67,0-2.63,0c-1.72,0-3.11,0-4.39.16Z"/><path class="cls-2" d="M48.58,108.2a.52.52,0,0,1-.52-.44.54.54,0,0,1,.45-.6c.83-.11,1.65-.14,2.46-.17a23.42,23.42,0,0,0,2.35-.17.53.53,0,0,1,.59.44.52.52,0,0,1-.45.59A23,23,0,0,1,51,108a22.59,22.59,0,0,0-2.35.17Z"/><path class="cls-2" d="M58.49,108h0c-.73-.06-1.47-.06-2.2-.06a.52.52,0,0,1,0-1c.75,0,1.51,0,2.28.06a.52.52,0,0,1,0,1Z"/><path class="cls-2" d="M48.46,104.76a4.08,4.08,0,0,1-.71-.06.52.52,0,0,1-.43-.6.53.53,0,0,1,.6-.43,5.39,5.39,0,0,0,1.44,0l.44,0a.52.52,0,0,1,.56.48.52.52,0,0,1-.48.56l-.42,0C49.14,104.72,48.81,104.76,48.46,104.76Z"/><path class="cls-2" d="M52.42,104.77a.52.52,0,0,1-.52-.46.51.51,0,0,1,.45-.58,10.73,10.73,0,0,1,1.49-.09l1,0c.53,0,1,0,1.56,0a.52.52,0,1,1,.05,1c-.54,0-1.09,0-1.64,0l-1,0a10.66,10.66,0,0,0-1.36.07Z"/><path class="cls-2" d="M47.66,101.5a.51.51,0,0,1-.51-.45.52.52,0,0,1,.44-.59,14.33,14.33,0,0,1,2-.11h1.28a14.34,14.34,0,0,0,1.55-.07.52.52,0,0,1,.11,1c-.6.06-1.2.07-1.66.07H49.59a13.54,13.54,0,0,0-1.85.11Z"/><path class="cls-2" d="M51.44,98c-.46,0-.91,0-1.36-.06s-.86-.06-1.28-.06a6.11,6.11,0,0,0-1,.07.53.53,0,0,1-.16-1,8.41,8.41,0,0,1,1.16-.07c.46,0,.91,0,1.35.06s.87,0,1.29,0a6.58,6.58,0,0,0,.8,0,.53.53,0,0,1,.58.46.52.52,0,0,1-.46.58A8.81,8.81,0,0,1,51.44,98Z"/><path class="cls-2" d="M78.42,115.9a.59.59,0,0,1-.22-.05.53.53,0,0,1-.3-.48c0-.34,0-.68,0-1,0-.52,0-1,0-1.37l-.45-.34a11.13,11.13,0,0,0-1.23-.88.52.52,0,0,1-.25-.52.51.51,0,0,1,.39-.43,19.41,19.41,0,0,1,2.45-.44c.1-.41.17-.82.25-1.22s.11-.6.17-.89a.52.52,0,0,1,.93-.2,7.23,7.23,0,0,1,.8,1.43c.57.05,1.13.12,1.68.19l.77.1a.53.53,0,0,1,.43.33.52.52,0,0,1-.1.53c-.24.28-.49.57-.73.87l-.3.35c.12.81.26,1.53.42,2.2a.51.51,0,0,1-.14.49.54.54,0,0,1-.5.14,16.34,16.34,0,0,1-1.71-.56c-.45.36-.91.73-1.35,1.1l-.66.55A.54.54,0,0,1,78.42,115.9Zm-.65-4.33.31.24.62.47a.54.54,0,0,1,.22.4c0,.47,0,1,0,1.58.46-.38.94-.77,1.43-1.15a.51.51,0,0,1,.52-.06,10.05,10.05,0,0,0,1,.38c-.1-.51-.19-1.06-.28-1.65a.5.5,0,0,1,.12-.41l.45-.53.12-.15c-.58-.07-1.16-.14-1.75-.18a.52.52,0,0,1-.44-.3l-.15-.34c-.08.36-.15.73-.25,1.1a.51.51,0,0,1-.44.38l-.26,0Z"/><path class="cls-2" d="M112.31,79.1a.54.54,0,0,1-.43-.23c-.89-1.26-1.86-2.51-2.8-3.72l-.71-.92a.55.55,0,0,1-.11-.31l-.06-2.66c-.06-2.6-.11-5.29-.32-8-.09-1.24-.13-2.53-.13-4.19,0-.77,0-1.53,0-2.3v-.24c0-1.66.83-4.14,3-4.14,3,0,3,2.16,3.07,3.08v.12c.23,5.35.75,10.76,1.26,16l.23,2.42a.6.6,0,0,1-.07.32c-.95,1.55-1.76,3-2.47,4.43a.53.53,0,0,1-.42.3Zm-3-5.37.61.78c.77,1,1.56,2,2.32,3.06.6-1.17,1.27-2.36,2-3.6L114,71.73c-.51-5.25-1-10.67-1.27-16v-.13c0-1-.08-2.07-2-2.07-1.38,0-1.91,1.9-1.93,3.1v.24c0,.76,0,1.53,0,2.29,0,1.63,0,2.9.14,4.11.2,2.69.26,5.4.31,8Z"/><path class="cls-2" d="M108.64,57.36a.52.52,0,0,1-.52-.49.51.51,0,0,1,.49-.55l1.08-.1a16.11,16.11,0,0,1,1.85-.13,6.22,6.22,0,0,1,1.26.11.52.52,0,1,1-.19,1,5.78,5.78,0,0,0-1.07-.09,17.38,17.38,0,0,0-1.75.13l-1.12.1Z"/><path class="cls-2" d="M108.14,59.92a.52.52,0,0,1-.5-.37.53.53,0,0,1,.35-.65,18,18,0,0,1,3.84-.58l1.23-.1a.52.52,0,0,1,.1,1l-1.25.1a17.48,17.48,0,0,0-3.62.54A.39.39,0,0,1,108.14,59.92Z"/><path class="cls-2" d="M108.8,73.83a.51.51,0,0,1-.4-.2.51.51,0,0,1,.08-.73c.17-.14.34-.3.53-.47a3.35,3.35,0,0,1,2.14-1.2,1.81,1.81,0,0,1,1.45.86c.22.28.31.36.43.36a2.08,2.08,0,0,0,.79-.35,5.12,5.12,0,0,1,.84-.44.52.52,0,0,1,.37,1,3.93,3.93,0,0,0-.67.35,2.63,2.63,0,0,1-1.33.51,1.59,1.59,0,0,1-1.25-.76c-.26-.34-.38-.46-.63-.46-.46,0-1,.46-1.43.91-.19.18-.39.36-.59.52A.52.52,0,0,1,108.8,73.83Z"/><path class="cls-2" d="M113.19,76.64a.39.39,0,0,1-.15,0,4.84,4.84,0,0,0-2.31,0,.52.52,0,0,1-.62-.41.53.53,0,0,1,.41-.61,5.78,5.78,0,0,1,2.82,0,.52.52,0,0,1,.35.65A.51.51,0,0,1,113.19,76.64Z"/><path class="cls-2" d="M95.24,64.35c-11.55,0-13.36-2.38-14.42-5.25-.5-1.36-.83-2.26-3.86-2.26l-.39,0a.52.52,0,0,1-.56-.48.51.51,0,0,1,.48-.56l.47,0c3.76,0,4.31,1.49,4.84,2.94.75,2,1.68,4.57,13.44,4.57,3.12,0,6.26-.11,8.91-.21a.52.52,0,0,1,0,1C101.53,64.25,98.38,64.35,95.24,64.35Z"/><path class="cls-2" d="M88.57,75.76a.54.54,0,0,1-.52-.46,51.38,51.38,0,0,1-.31-5.78,51.25,51.25,0,0,0-.31-5.66.52.52,0,0,1,1-.14,51.38,51.38,0,0,1,.31,5.78,49.21,49.21,0,0,0,.31,5.67.53.53,0,0,1-.45.58Z"/><path class="cls-2" d="M100,59.87a1.5,1.5,0,0,1-1.35-1.45A1.4,1.4,0,0,1,100,56.89a.52.52,0,0,1,.37.16.81.81,0,0,0,.31.15,2.41,2.41,0,0,1,.42.18.75.75,0,0,1,.34.65.81.81,0,0,1,0,.16,1,1,0,0,1,0,.17A1.63,1.63,0,0,1,100,59.87ZM99.82,58c-.15.11-.16.44-.16.44a.51.51,0,0,0,.32.41c.1,0,.36-.32.37-.47a.77.77,0,0,1,0-.15l0,0A2.94,2.94,0,0,1,99.82,58Z"/><path class="cls-2" d="M70.59,38.23a11.7,11.7,0,0,1-4.44-.86.52.52,0,0,1-.29-.68.52.52,0,0,1,.68-.28,10.88,10.88,0,0,0,4,.77,12.74,12.74,0,0,0,6-1.58.54.54,0,0,1,.71.21.53.53,0,0,1-.22.71A13.76,13.76,0,0,1,70.59,38.23Z"/><path class="cls-2" d="M76.53,52.14a.52.52,0,0,1-.37-.89l.48-.47c1.83-1.81,3.72-3.69,3.92-6.31a1.55,1.55,0,0,0-1.43-1.13A4.74,4.74,0,0,0,76.23,45a.52.52,0,0,1-.73,0,.51.51,0,0,1,0-.74c.57-.58,2.08-1.92,3.63-1.92a2.53,2.53,0,0,1,2.47,2.17v.08c-.23,3-2.35,5.11-4.23,7-.16.16-.32.31-.47.47A.55.55,0,0,1,76.53,52.14Z"/><path class="cls-2" d="M37.41,96H37.3a.52.52,0,0,1-.4-.62A6.2,6.2,0,0,0,37,94.24v-.13a.52.52,0,0,1,.51-.53.5.5,0,0,1,.53.51v.15a6.86,6.86,0,0,1-.13,1.35A.52.52,0,0,1,37.41,96ZM37,91.92a.53.53,0,0,1-.49-.33,10.75,10.75,0,0,0-.56-1.21.52.52,0,1,1,.91-.49,11.87,11.87,0,0,1,.62,1.31.52.52,0,0,1-.29.68A.65.65,0,0,1,37,91.92Zm-2.12-3.59a.51.51,0,0,1-.42-.21c-.25-.33-.53-.68-.85-1.08a.51.51,0,0,1,.08-.73.52.52,0,0,1,.73.07c.33.41.62.77.87,1.11a.51.51,0,0,1-.1.73A.45.45,0,0,1,34.83,88.33Z"/><path class="cls-2" d="M75.53,114.7a.53.53,0,0,1,0-1,4,4,0,0,0,1.2-.26.52.52,0,0,1,.68.29.53.53,0,0,1-.28.68,5.12,5.12,0,0,1-1.51.33Zm-2.76-.18h-.12a7.37,7.37,0,0,1-1.41-.5.53.53,0,0,1-.25-.7.52.52,0,0,1,.69-.25,6.71,6.71,0,0,0,1.21.43.52.52,0,0,1,.39.63A.53.53,0,0,1,72.77,114.52Zm-3.52-2.13a.56.56,0,0,1-.39-.17A8.08,8.08,0,0,1,68,111a.52.52,0,0,1,.18-.72.53.53,0,0,1,.72.19,7,7,0,0,0,.75,1,.51.51,0,0,1,0,.74A.51.51,0,0,1,69.25,112.39Zm-1.76-3.73a.52.52,0,0,1-.51-.43,8.4,8.4,0,0,1-.11-1.32v-.17a.53.53,0,0,1,1,0v.14a7.44,7.44,0,0,0,.1,1.15.53.53,0,0,1-.43.6Z"/><path class="cls-2" d="M92.63,111.25a.51.51,0,0,1-.5-.38.52.52,0,0,1,.36-.65c2.12-.6,4.37-2.58,4.37-5.09A4.09,4.09,0,0,0,96.7,104a.52.52,0,0,1,.36-.65.52.52,0,0,1,.64.36,5.07,5.07,0,0,1,.21,1.44,6.73,6.73,0,0,1-5.14,6.1Z"/><path class="cls-2" d="M76.36,12.72a.53.53,0,0,1-.5-.37.52.52,0,0,1,.36-.65l.62-.21a.52.52,0,0,1,.67.3.53.53,0,0,1-.3.68l-.7.23A.39.39,0,0,1,76.36,12.72Z"/><path class="cls-2" d="M79,11.46a.54.54,0,0,1-.44-.23.52.52,0,0,1,.14-.72,8.8,8.8,0,0,0,.83-.65.52.52,0,0,1,.74.05.51.51,0,0,1,0,.73,8.31,8.31,0,0,1-.93.73A.52.52,0,0,1,79,11.46Zm2.34-2.38A.5.5,0,0,1,81.07,9a.53.53,0,0,1-.16-.72,6.19,6.19,0,0,0,.49-.91.52.52,0,0,1,.69-.27.51.51,0,0,1,.27.68,7.21,7.21,0,0,1-.57,1.06A.51.51,0,0,1,81.35,9.08Z"/><path class="cls-2" d="M82.39,5.93h0a.53.53,0,0,1-.5-.55,1.77,1.77,0,0,0,0-.23c0-.13,0-.27,0-.4a.53.53,0,0,1,.48-.56.52.52,0,0,1,.56.48,3.85,3.85,0,0,1,0,.48v.28A.53.53,0,0,1,82.39,5.93Z"/><path class="cls-2" d="M49.72,45.59h0A.51.51,0,0,1,49.2,45l.06-.69a.52.52,0,0,1,.56-.48.53.53,0,0,1,.48.57l-.06.69A.52.52,0,0,1,49.72,45.59Z"/><path class="cls-2" d="M49.5,49h0a.53.53,0,0,1-.51-.54L49,47.32a.52.52,0,0,1,.55-.49.52.52,0,0,1,.49.55c0,.38,0,.76,0,1.13A.52.52,0,0,1,49.5,49Z"/><path class="cls-2" d="M48.83,52a.53.53,0,0,1,0-1H49a1,1,0,0,0,0-.17.53.53,0,0,1,1.05,0c0,.23,0,.45,0,.68a.52.52,0,0,1-.13.38.53.53,0,0,1-.37.18l-.69,0Z"/><path class="cls-2" d="M46.11,52.15a.53.53,0,0,1,0-1l.92,0a.52.52,0,0,1,.54.5.52.52,0,0,1-.5.54l-.91,0Z"/><path class="cls-2" d="M43.59,52.26a.52.52,0,0,1,0-1l.69,0a.52.52,0,0,1,.55.5.53.53,0,0,1-.5.55l-.69,0Z"/><path class="cls-2" d="M96.18,75.67a.52.52,0,0,1-.52-.52,11.39,11.39,0,0,0-.1-1.33.52.52,0,1,1,1-.12,11.09,11.09,0,0,1,.11,1.45A.52.52,0,0,1,96.18,75.67ZM96,71.51h-.1a.52.52,0,0,1-.41-.61,3.58,3.58,0,0,1,.63-1.48.52.52,0,0,1,.84.62,2.6,2.6,0,0,0-.45,1.06A.51.51,0,0,1,96,71.51Zm2.88-2.66a.52.52,0,0,1-.5-.39.53.53,0,0,1,.38-.64,10.72,10.72,0,0,1,1.44-.25.52.52,0,1,1,.11,1,9,9,0,0,0-1.3.22Zm8.33-.22a.52.52,0,0,1,0-1l.54,0a.51.51,0,0,1,.57.46.53.53,0,0,1-.46.58l-.59,0Zm-2.78,0h0l-.29,0-1.09,0a.53.53,0,0,1,0-1l1.1,0h.29a.53.53,0,0,1,.5.55A.52.52,0,0,1,104.41,68.61Z"/><path class="cls-2" d="M114.66,68.07a.52.52,0,0,1-.07-1c.46-.07.93-.13,1.39-.18a.52.52,0,0,1,.58.46.53.53,0,0,1-.46.58l-1.37.17Zm4.15-.42a.53.53,0,0,1,0-1.05q.7,0,1.41-.06a.52.52,0,0,1,.54.5.53.53,0,0,1-.51.54l-1.37.07Z"/><path class="cls-2" d="M95.52,32.77a.54.54,0,0,1-.52-.46.52.52,0,0,1,.46-.58,10.52,10.52,0,0,0,1.29-.26.52.52,0,1,1,.27,1,10.64,10.64,0,0,1-1.43.28Zm-2.77,0h-.08a7.33,7.33,0,0,1-1.45-.37.52.52,0,1,1,.36-1,6.62,6.62,0,0,0,1.24.32.52.52,0,0,1-.07,1Zm6.65-1.43A.51.51,0,0,1,99,31.1a.52.52,0,0,1,.13-.73,7.71,7.71,0,0,0,1-.82.52.52,0,0,1,.71.77,10.78,10.78,0,0,1-1.15.92A.52.52,0,0,1,99.4,31.33Zm-10.25-.48a.53.53,0,0,1-.41-.2A5.93,5.93,0,0,1,88,29.34a.52.52,0,0,1,.28-.68.51.51,0,0,1,.68.27A5,5,0,0,0,89.55,30a.52.52,0,0,1-.07.73A.54.54,0,0,1,89.15,30.85Z"/></g></g></svg>