<svg xmlns="http://www.w3.org/2000/svg" viewBox="0 0 141.73 143.53"><defs><style>.cls-1{fill:#ffcc80;}.cls-2{fill:#525d7d;}</style></defs><title>019_c</title><g id="Layer_2" data-name="Layer 2"><g id="Layer_1-2" data-name="Layer 1"><path class="cls-1" d="M54.32,64.74a1.93,1.93,0,0,0,0-.24,1.32,1.32,0,0,0-1.18-1.18A21.92,21.92,0,0,0,53,58.67c-.18-1.66-.13-3.28-.22-4.93a.77.77,0,0,0-1.51-.21c0,.11-.06.19-.08.26A11.16,11.16,0,0,0,51,58.65a1.2,1.2,0,0,0-1.43.83,93,93,0,0,0-1.38,12.67,1.05,1.05,0,0,0,1.51,1A1.3,1.3,0,0,0,52.06,73c.48-1.49,1-3,1.43-4.47a14.39,14.39,0,0,0,.82-3.19A1.22,1.22,0,0,0,54.32,64.74Z"/><path class="cls-1" d="M136.55,60.53c-1.09-1.89-4.34-.9-3.73,1.36a1.39,1.39,0,0,0,.47.71,3.14,3.14,0,0,0-.17.67,1.23,1.23,0,0,0,1.17,1.53C136.21,64.89,137.41,62.05,136.55,60.53Z"/><path class="cls-1" d="M123.39,110.7a1.36,1.36,0,0,0-1.29-1,1,1,0,0,0-1.42-.14,2.22,2.22,0,0,0-.68,3,6.28,6.28,0,0,1-.22.7h0a1,1,0,0,0,.36,1.13,1.06,1.06,0,0,0,1.4-.09,3.59,3.59,0,0,0,.37-.5,1.28,1.28,0,0,0,1.7-.92A5.28,5.28,0,0,0,123.39,110.7Z"/><path class="cls-1" d="M20.21,44.8a1.36,1.36,0,0,0-1,.22,1.68,1.68,0,0,0-1.37.25,1.8,1.8,0,0,0-.14,3,.91.91,0,0,0,.62.53,1.85,1.85,0,0,0,1.55-.35,2.53,2.53,0,0,0,1.53-1.84A1.46,1.46,0,0,0,20.21,44.8Z"/><path class="cls-1" d="M69.1,111.06c0-.14,0-.28,0-.43a1.44,1.44,0,0,0-1.39-1.06,1.36,1.36,0,0,0-.3,0,1.41,1.41,0,0,0-.71.17,4.09,4.09,0,0,0-.64.45,1.48,1.48,0,0,0-.47.52,2.08,2.08,0,0,0-.32.65,2,2,0,0,0,.9,2.26,1.89,1.89,0,0,0,1.79,0,3.41,3.41,0,0,0,.48.09,1.45,1.45,0,0,0,.71-2.7Z"/><path class="cls-1" d="M107.49,41.64a2,2,0,0,0-1.06,3,1.35,1.35,0,0,0,1.62.55,1.81,1.81,0,1,0-.56-3.53Z"/><path class="cls-1" d="M67.49,68.55a1.14,1.14,0,0,0,.11-1.7,3.8,3.8,0,0,0-3-1.3.81.81,0,0,0-.22,1.59,2,2,0,0,1,1.4,1.09,1,1,0,0,0,.64.5,1.23,1.23,0,0,0-1.26.59,9.36,9.36,0,0,0-.71,1.46,12.55,12.55,0,0,1-1.09-2.66.52.52,0,0,0,.24-.7l0-.08a.52.52,0,0,0-.45-.26c-3,.29.61,7,1.07,8.24s2.39,1.1,2.27-.31a6.79,6.79,0,0,1,1-4.38,1.24,1.24,0,0,0-.82-1.86A1.24,1.24,0,0,0,67.49,68.55Z"/><path class="cls-1" d="M13.21,107.37a1.27,1.27,0,0,0-.32-.79,1.09,1.09,0,0,0-.94-.3,1.11,1.11,0,0,0-.95,1.28c0,.08,0,.16-.05.23a1,1,0,0,0,1.49,1.15,1.66,1.66,0,0,0,.68-.86A1.55,1.55,0,0,0,13.21,107.37Z"/><path class="cls-1" d="M52.87,7.66a1.25,1.25,0,0,0-.59-1,1.18,1.18,0,0,0-1.05-.06,1.15,1.15,0,0,0-.7.93.9.9,0,0,0-.18.82,1.09,1.09,0,0,0,1,.76A1.41,1.41,0,0,0,52.87,7.66Z"/><path class="cls-1" d="M129.79,38a1.21,1.21,0,0,0-.91-.6,1.25,1.25,0,0,0-1.42,1.23v.13a2.52,2.52,0,0,0-.15.27l-.07.17a.08.08,0,0,1,0,0l-.06.12a1.07,1.07,0,0,0,1.2,1.56,2.44,2.44,0,0,0,1.53-1.88A1.45,1.45,0,0,0,129.79,38Z"/><path class="cls-1" d="M112,126.4l-.14-.32a1.27,1.27,0,0,0-.47-.48,1.65,1.65,0,0,0-.73-.32,4.73,4.73,0,0,0-.75,0,1.06,1.06,0,0,0-.91,1.59l.23.4a1.67,1.67,0,0,0,.57.58l.24.11a1.47,1.47,0,0,0,1,.14,1.36,1.36,0,0,0,.79-.62A1.33,1.33,0,0,0,112,126.4Z"/><path class="cls-1" d="M55.16,100.75a1.27,1.27,0,0,0-.82-.71.78.78,0,0,0-.5-.29.78.78,0,0,0-.78.38,1.89,1.89,0,0,0-.19.88,1,1,0,0,0,0,.52,1.24,1.24,0,0,0,.84.84,1.19,1.19,0,0,0,1.26-.43A1.17,1.17,0,0,0,55.16,100.75Z"/><path class="cls-1" d="M72.48,24.85a1.39,1.39,0,0,0-.12-.28l0,.05a1.29,1.29,0,0,0-.25-.39,1.31,1.31,0,0,0-.55-.34,1,1,0,0,0-1,.37A1.1,1.1,0,0,0,70,25a1.21,1.21,0,0,0,.54,1.35,1.41,1.41,0,0,0,1.39,0,1.32,1.32,0,0,0,.63-1.09A1.23,1.23,0,0,0,72.48,24.85Z"/><path class="cls-2" d="M29.71,38.71A2.39,2.39,0,0,1,28,38.06a2.41,2.41,0,0,1,1.05-4,2.64,2.64,0,0,1,1-.08,2.1,2.1,0,0,1,2,2,2.62,2.62,0,0,1-.66,2,2.2,2.2,0,0,1-1.64.77ZM29.83,35a2,2,0,0,0-.48.06,1.34,1.34,0,0,0-1,1.31,1.38,1.38,0,0,0,.4,1,1.34,1.34,0,0,0,.94.36h0a1.26,1.26,0,0,0,.89-.43A1.62,1.62,0,0,0,31,36a1,1,0,0,0-1-1Z"/><path class="cls-2" d="M30.23,34.66l-.19,0a.52.52,0,0,1-.29-.68,28,28,0,0,1,1.32-2.74c1-1.83,2-3.72,2-5.17s-1.11-2.79-2.29-4.14a16.4,16.4,0,0,1-1.59-2,.52.52,0,0,1,.16-.73.53.53,0,0,1,.72.16,15.23,15.23,0,0,0,1.5,1.88c1.25,1.44,2.54,2.92,2.54,4.83,0,1.71-1,3.72-2.07,5.66a27,27,0,0,0-1.28,2.63A.52.52,0,0,1,30.23,34.66Z"/><path class="cls-2" d="M17.84,40.74a.58.58,0,0,1-.26-.06.54.54,0,0,1-.2-.72c1.75-3.09,4.56-5.7,6.13-5.7a4.83,4.83,0,0,1,1.95.52,8.78,8.78,0,0,0,2.21.68.52.52,0,0,1,.45.59.53.53,0,0,1-.59.44,9.17,9.17,0,0,1-2.48-.75,4,4,0,0,0-1.54-.43c-.91,0-3.46,2.06-5.22,5.17A.5.5,0,0,1,17.84,40.74Z"/><path class="cls-2" d="M13.14,43a.48.48,0,0,1-.28-.08.52.52,0,0,1-.16-.72A60.6,60.6,0,0,1,17.25,36a.53.53,0,0,1,.74-.07.52.52,0,0,1,.07.74,59.55,59.55,0,0,0-4.48,6.09A.51.51,0,0,1,13.14,43Z"/><path class="cls-2" d="M19.54,35.25a.8.8,0,0,1-.81-.7.87.87,0,0,1,.14-.43.5.5,0,0,1,.27-.33.51.51,0,0,1,.4-.19.89.89,0,0,1,.83.82A.94.94,0,0,1,19.54,35.25Zm-.1-.61h0Zm-.59-.38Z"/><path class="cls-2" d="M22.56,27.11c-1.56,0-1.8-1-1.8-1.6a2.6,2.6,0,0,1,.44-1.4.56.56,0,0,1,.46-.23.53.53,0,0,1,.59-.45l.35.05c.76.08,2,.22,2,1.5A2.29,2.29,0,0,1,22.56,27.11Zm-.41-2.63a.42.42,0,0,1-.08.21,1.61,1.61,0,0,0-.26.82c0,.27,0,.55.75.55.54,0,1-.74,1-1.08s-.16-.36-1.1-.46Z"/><path class="cls-2" d="M27.42,31.1a.56.56,0,0,1-.4-.18,12.51,12.51,0,0,1-1.59-2.18.53.53,0,0,1,.08-.61c.7-.74,1.28-1.34,1.81-1.87a.52.52,0,0,1,.74,0,11,11,0,0,1,1.64,2.17.53.53,0,0,1-.06.61c-.44.51-.93,1-1.39,1.45l-.46.46A.54.54,0,0,1,27.42,31.1Zm-.88-2.54a10.72,10.72,0,0,0,.91,1.24l.06-.06c.36-.36.74-.73,1.09-1.11a10.76,10.76,0,0,0-.92-1.25C27.33,27.73,27,28.12,26.54,28.56Z"/><path class="cls-2" d="M36.55,42.18A2.18,2.18,0,0,1,34.33,40a2.21,2.21,0,0,1,1.58-2.16,2.43,2.43,0,0,1,.65-.09,2.16,2.16,0,0,1,2.21,2,2.37,2.37,0,0,1-.65,1.75A2.17,2.17,0,0,1,36.55,42.18Zm0-3.41a1.12,1.12,0,0,0-.36,0A1.16,1.16,0,0,0,35.38,40a1.13,1.13,0,0,0,2,.79,1.31,1.31,0,0,0,.37-1A1.12,1.12,0,0,0,36.56,38.77Z"/><path class="cls-2" d="M31.13,48.48a.57.57,0,0,1-.25-.06L30.1,48c-1.32-.75-2.57-1.45-3.88-2.1a.52.52,0,0,1-.26-.62,71.82,71.82,0,0,1,2.52-7.14.52.52,0,0,1,.68-.28.53.53,0,0,1,.28.69c-.92,2.15-1.64,4.36-2.35,6.61,1.18.61,2.32,1.25,3.52,1.92l.78.44a.52.52,0,0,1,.2.71A.51.51,0,0,1,31.13,48.48Z"/><path class="cls-2" d="M29.82,51.25a.51.51,0,0,1-.37-.15.52.52,0,0,1-.12-.57,35.08,35.08,0,0,1,1.84-3.74c.34-.63.7-1.28,1-1.93a.53.53,0,0,1,.94,0c.58,1.16,1.13,2.36,1.67,3.52l.2.45a.48.48,0,0,1,0,.42.49.49,0,0,1-.31.29l-.56.19c-1.36.46-2.77.93-4.13,1.48A.43.43,0,0,1,29.82,51.25Zm2.83-5-.56,1c-.44.81-.9,1.64-1.3,2.5,1-.38,2-.72,3-1C33.43,47.92,33.05,47.08,32.65,46.26Z"/><path class="cls-2" d="M17.78,51.56h-.12a.53.53,0,0,1-.39-.42c-.18-1.1-.33-2-.45-3L16.2,48l-.89-.31a.5.5,0,0,1-.36-.46.54.54,0,0,1,.3-.51c.71-.34,1.44-.67,2.15-1l.43-.2c.09-1.13.21-2.2.36-3.19a.53.53,0,0,1,.39-.43.51.51,0,0,1,.55.21c.53.75,1,1.56,1.45,2.34l.19.34a16.35,16.35,0,0,0,2-.22.51.51,0,0,1,.53.23.51.51,0,0,1,0,.58l-.29.42c-.3.45-.6.9-.95,1.33.36.69.71,1.46,1.11,2.38a.54.54,0,0,1-.09.56.51.51,0,0,1-.54.15c-.88-.25-1.8-.52-2.69-.87l-.49.56c-.41.48-.83,1-1.2,1.46A.5.5,0,0,1,17.78,51.56Zm-.92-4.47.6.21a.53.53,0,0,1,.36.43c.08.65.18,1.33.29,2.06l.5-.58.71-.84a.53.53,0,0,1,.61-.15c.61.25,1.23.46,1.86.66-.26-.59-.52-1.11-.78-1.59a.55.55,0,0,1,.07-.6,10,10,0,0,0,.74-.95c-.42,0-.85.07-1.32.09a.53.53,0,0,1-.47-.26L19.67,45c-.2-.36-.41-.73-.63-1.08-.07.64-.14,1.31-.19,2a.52.52,0,0,1-.3.44l-.72.32Z"/><path class="cls-2" d="M8.34,45.62a.53.53,0,0,1-.52-.42c-.31-1.45-.53-2.94-.74-4.39C7,40.39,7,40,6.9,39.56A.54.54,0,0,1,7,39.15a.53.53,0,0,1,.4-.19,26.55,26.55,0,0,0,2.9-.16c-.05-.39-.09-.78-.14-1.16-.08-.73-.17-1.48-.3-2.21A.52.52,0,0,1,10,35a.53.53,0,0,1,.35-.21l1.56-.17c.52,0,1-.1,1.58-.17l0-.14c-.15-1.08-.36-2.56-.51-3.55a.52.52,0,0,1,.09-.4.57.57,0,0,1,.36-.2c.49-.07,1-.1,1.46-.14A10.58,10.58,0,0,0,18,29.5a.53.53,0,0,1,.38,1,12,12,0,0,1-3.46.62l-.88.07c.15.95.31,2.12.43,3l.09.65a.51.51,0,0,1-.44.59c-.71.11-1.43.18-2.13.25l-1,.11c.09.58.15,1.16.22,1.72s.13,1.1.21,1.65a.5.5,0,0,1-.1.39.5.5,0,0,1-.34.2A22.89,22.89,0,0,1,8,40l.09.66c.21,1.43.42,2.91.73,4.32a.52.52,0,0,1-.4.62Z"/><path class="cls-2" d="M8.57,45.62a.54.54,0,0,1-.22,0,.52.52,0,0,1-.26-.69c2.26-5,5.7-9.23,9-13.37.35-.43.71-.87,1.05-1.31a.53.53,0,0,1,.74-.08.52.52,0,0,1,.08.74l-1,1.31c-3.29,4.09-6.69,8.32-8.9,13.14A.51.51,0,0,1,8.57,45.62Z"/><path class="cls-2" d="M2.13,52.57a.79.79,0,0,1-.85-.82,1.67,1.67,0,0,1,.2-.71A.52.52,0,0,1,2,50.75a1.23,1.23,0,0,1,.84.35.51.51,0,0,1,.16.37v.07c0,.06,0,.13,0,.19A.79.79,0,0,1,2.13,52.57Z"/><path class="cls-2" d="M4.32,50.76a.54.54,0,0,1-.51-.39.52.52,0,0,1,.37-.64l.25-.07a22.83,22.83,0,0,1,6.15-1.09.53.53,0,0,1,0,1,22,22,0,0,0-5.87,1.05l-.25.07Z"/><path class="cls-2" d="M4.72,61.94c-2.51,0-4.28-.17-4.28-2.33A4.76,4.76,0,0,1,4.6,55.38a4.59,4.59,0,0,1,4.1-2.75,2.94,2.94,0,0,1,2.79,1.81,4.7,4.7,0,0,1,.51,0c1.57,0,2.41.89,2.41,2.58a3.21,3.21,0,0,1-1.09,2.54A9.44,9.44,0,0,1,9,61.39l-.07,0A17.8,17.8,0,0,1,4.72,61.94ZM4.18,56.5a3.76,3.76,0,0,0-2.7,3.11c0,.86.14,1.28,3.24,1.28a16.74,16.74,0,0,0,4-.5l.08,0a8.51,8.51,0,0,0,3.85-1.61A2.15,2.15,0,0,0,13.36,57c0-1.28-.52-1.54-1.36-1.54h-.29v.13a2.32,2.32,0,0,1-2.43,2.52c-.4,0-1.25,0-1.25-1.13,0-1.31,1.21-2,2.4-2.35a2,2,0,0,0-1.73-1,3.48,3.48,0,0,0-3,1.91,2.54,2.54,0,0,1,1.22,2.09A1.22,1.22,0,0,1,5.6,58.89a1.64,1.64,0,0,1-1.5-1.76A2.58,2.58,0,0,1,4.18,56.5Zm1.08,0a2.26,2.26,0,0,0-.12.58c0,.34.19.72.46.72s.27-.14.27-.18A1.5,1.5,0,0,0,5.26,56.55Zm3.82.52h.2a1.29,1.29,0,0,0,1.38-1.42c-.82.24-1.58.68-1.58,1.33Z"/><path class="cls-2" d="M.58,65.42a.53.53,0,0,1-.11-1A26,26,0,0,1,4.36,64a21.92,21.92,0,0,0,4.4-.57.52.52,0,0,1,.64.37A.52.52,0,0,1,9,64.4a22.34,22.34,0,0,1-4.61.6,24.6,24.6,0,0,0-3.73.41Z"/><path class="cls-2" d="M10.8,63.94a.62.62,0,0,1-.63-.61.86.86,0,0,1,.1-.37l0,0a.52.52,0,0,1,.52-.47.46.46,0,0,1,.21,0,.55.55,0,0,1,.31.16.45.45,0,0,1,.13.23.56.56,0,0,1,.13.36.58.58,0,0,1-.17.41A1,1,0,0,1,10.8,63.94Z"/><path class="cls-2" d="M22.41,75.74a.52.52,0,0,1-.33-.12,101.56,101.56,0,0,1-9.54-8.21.52.52,0,0,1,0-.69c.5-.65,1-1.31,1.49-2a75.22,75.22,0,0,1,7.11-8.56.52.52,0,0,1,.72,0c1.63,1.49,3.23,3,4.79,4.54s3.22,3.1,4.87,4.61a.49.49,0,0,1,.17.36.5.5,0,0,1-.14.38c-.89,1-1.8,2-2.71,2.92-2,2.14-4.06,4.35-6,6.58A.51.51,0,0,1,22.41,75.74ZM13.6,67a101.15,101.15,0,0,0,8.74,7.5c1.84-2.11,3.8-4.2,5.69-6.23.78-.84,1.57-1.68,2.35-2.53-1.53-1.4-3-2.86-4.5-4.27s-2.92-2.8-4.4-4.18a77.65,77.65,0,0,0-6.67,8.1C14.41,65.92,14,66.46,13.6,67Z"/><path class="cls-2" d="M31.05,61a.51.51,0,0,1-.38-.16,21,21,0,0,0-2-1.78,21,21,0,0,1-2.06-1.86.52.52,0,0,1,0-.74.53.53,0,0,1,.74,0,22.33,22.33,0,0,0,2,1.77,22.22,22.22,0,0,1,2.05,1.86.52.52,0,0,1,0,.74A.54.54,0,0,1,31.05,61Z"/><path class="cls-2" d="M30.86,57.43a.52.52,0,0,1-.29-.09,11.25,11.25,0,0,1-1.91-1.71,12.94,12.94,0,0,0-1.37-1.31.52.52,0,1,1,.65-.82,14,14,0,0,1,1.47,1.4,10.65,10.65,0,0,0,1.74,1.57.52.52,0,0,1,.14.73A.51.51,0,0,1,30.86,57.43Z"/><path class="cls-2" d="M32.56,59.53a.67.67,0,0,1-.58-.31,1,1,0,0,1-.15-.56s0-.06,0-.09,0,0,0-.08a.52.52,0,0,1,.53-.52c.91,0,1,.65,1,.78A.78.78,0,0,1,32.56,59.53Z"/><path class="cls-2" d="M23.22,69.39a.57.57,0,0,1-.18,0,.52.52,0,0,1-.34-.44c-.1-.84-.18-1.67-.26-2.51s-.19-1.86-.3-2.79a.53.53,0,0,1,.78-.52c.68.39,1.33.83,1.95,1.26s1.3.89,2,1.26a.53.53,0,0,1,.26.4.52.52,0,0,1-.16.44c-.56.52-1.16,1-1.74,1.44s-1.13.88-1.64,1.35A.5.5,0,0,1,23.22,69.39Zm.08-4.83.18,1.74.15,1.52c.31-.26.63-.5.94-.75s.76-.59,1.13-.91c-.48-.3-1-.62-1.42-.94Z"/><path class="cls-2" d="M17.62,67.1l-.84,0a.52.52,0,0,1,0-1,37.12,37.12,0,0,0,4.72-.23l1.21-.11a.52.52,0,0,1,.56.48.53.53,0,0,1-.48.57l-1.19.1C20.32,67,19,67.1,17.62,67.1Z"/><path class="cls-2" d="M14.26,74.63a.53.53,0,0,1-.39-.18c-.85-1-1.76-1.87-2.64-2.77-.57-.57-1.16-1.17-1.72-1.77a.53.53,0,0,1,.77-.72c.55.59,1.13,1.18,1.7,1.76.89.9,1.81,1.84,2.67,2.8a.53.53,0,0,1-.39.88Z"/><path class="cls-2" d="M15.74,76.4a.78.78,0,0,1-.74-.75v0a.59.59,0,0,1-.05-.23.52.52,0,0,1,.52-.53h.23a.81.81,0,0,1,.83.81A.72.72,0,0,1,15.74,76.4Z"/><path class="cls-2" d="M3.54,81.36l-.15,0c-.89-.27-1.83-.57-3-1A.54.54,0,0,1,0,80.05a.52.52,0,0,1,.06-.47c.52-.75,1.12-1.65,1.67-2.61a.53.53,0,0,1,.5-.25.52.52,0,0,1,.45.34l.16.46c.37,1,.76,2.1,1.15,3.13a.49.49,0,0,1-.1.54A.52.52,0,0,1,3.54,81.36ZM1.35,79.6,2.67,80c-.2-.52-.39-1-.58-1.57C1.84,78.85,1.59,79.24,1.35,79.6Z"/><path class="cls-2" d="M29.1,79.22a1.81,1.81,0,0,1-1.27-.51,1.77,1.77,0,0,1-.55-1.28,1.83,1.83,0,0,1,1.46-1.83,2.34,2.34,0,0,1,.38,0A1.72,1.72,0,0,1,30.85,77a2,2,0,0,1-.47,1.58,1.67,1.67,0,0,1-1.23.61Zm-.17-2.59a.79.79,0,0,0-.61.79.8.8,0,0,0,.23.53.73.73,0,0,0,.57.22.63.63,0,0,0,.47-.24,1,1,0,0,0,.22-.76.68.68,0,0,0-.71-.55A.5.5,0,0,0,28.93,76.63Z"/><path class="cls-2" d="M14.36,82.61h0A1.78,1.78,0,0,1,13,82a2.21,2.21,0,0,1-.53-1.63,1.92,1.92,0,0,1,.4-1,1.69,1.69,0,0,1,.67-.52,2.32,2.32,0,0,1,.73-.15,1.91,1.91,0,0,1,1.41.54,2,2,0,0,1,.63,1.37,1.87,1.87,0,0,1-1.94,2Zm0-2.85h0a1.61,1.61,0,0,0-.38.08.64.64,0,0,0-.24.2.8.8,0,0,0-.18.44,1.14,1.14,0,0,0,.28.82.77.77,0,0,0,.56.27.93.93,0,0,0,.67-.24.91.91,0,0,0,.24-.69A.93.93,0,0,0,15,80,.88.88,0,0,0,14.33,79.76Z"/><path class="cls-2" d="M6.63,75.16A2,2,0,0,1,4.43,73a1.76,1.76,0,0,1,.71-1.49A2.38,2.38,0,0,1,6.54,71a1.73,1.73,0,0,1,1.83,2A2.05,2.05,0,0,1,6.63,75.16Zm-.09-3.1a1.39,1.39,0,0,0-.8.26.74.74,0,0,0-.26.63c0,.82.33,1.16,1.15,1.16A1.11,1.11,0,0,0,7.33,73C7.33,72.21,7,72.06,6.54,72.06Z"/><path class="cls-2" d="M11.5,98.14h-.11a.55.55,0,0,1-.34-.24A32.69,32.69,0,0,1,6,83.1a.53.53,0,0,1,.33-.54c2.49-1,4.54-1.68,6.45-2.22a.54.54,0,0,1,.65.37.53.53,0,0,1-.37.64c-1.8.51-3.66,1.14-6,2a31.25,31.25,0,0,0,4.61,13.49,32.12,32.12,0,0,1,4.24-2.1c.7-.31,1.43-.63,2.12-1a.52.52,0,1,1,.46.94c-.71.34-1.45.67-2.17,1a27.1,27.1,0,0,0-4.52,2.31A.5.5,0,0,1,11.5,98.14Z"/><path class="cls-2" d="M19.22,97h0a.52.52,0,0,1-.45-.31c-.75-1.7-1.43-3.31-2.09-4.92a.54.54,0,0,1,.12-.57.53.53,0,0,1,.56-.12l.46.2a8.31,8.31,0,0,0,1.15.41c1.07.27,2,.5,3,.72a.52.52,0,0,1,.38.34.51.51,0,0,1-.09.5,25.8,25.8,0,0,0-2.56,3.49A.52.52,0,0,1,19.22,97ZM18.1,92.57c.38.93.78,1.86,1.2,2.82.49-.73,1-1.43,1.59-2.11-.71-.16-1.44-.34-2.21-.53C18.48,92.7,18.28,92.63,18.1,92.57Z"/><path class="cls-2" d="M13.4,90.79a2,2,0,0,1-1.35-.59,2,2,0,0,1-.56-1.51,1.86,1.86,0,0,1,1-1.53,1.55,1.55,0,0,1,.61-.18,1.91,1.91,0,0,1,1.53.55,2,2,0,0,1,.58,1.59,1.81,1.81,0,0,1-1.71,1.66ZM13.25,88h-.08a.65.65,0,0,0-.21.06.79.79,0,0,0-.42.67.9.9,0,0,0,.26.71.93.93,0,0,0,.62.28.76.76,0,0,0,.72-.71.93.93,0,0,0-.89-1Z"/><path class="cls-2" d="M19.05,81.9a.52.52,0,0,1-.51-.41.51.51,0,0,1,.4-.62,17.11,17.11,0,0,1,3.7-.51A7.72,7.72,0,0,1,25,80.7a.52.52,0,0,1,.35.65.53.53,0,0,1-.66.35,6.66,6.66,0,0,0-2-.29,16.13,16.13,0,0,0-3.48.48Z"/><path class="cls-2" d="M26.21,82.86a.67.67,0,0,1-.7-.55.79.79,0,0,1,.53-.83.53.53,0,0,1,.46.06.64.64,0,0,1,.3.53.73.73,0,0,1-.07.3.46.46,0,0,1-.08.24A.52.52,0,0,1,26.21,82.86Zm0-.89.17.5c.19-.06.17-.27.16-.33a.38.38,0,0,0-.33-.33Zm.47.13Z"/><path class="cls-2" d="M12,109.84h-.14a2.15,2.15,0,0,1-2-2.15,2.37,2.37,0,0,1,1.33-2.23,2,2,0,0,1,.77-.19,2.28,2.28,0,0,1,2.33,2.16,2.37,2.37,0,0,1-.71,1.76A2.26,2.26,0,0,1,12,109.84Zm-.36-3.43a1.31,1.31,0,0,0-.72,1.24,1.12,1.12,0,0,0,1,1.14,1.21,1.21,0,0,0,.94-.35,1.3,1.3,0,0,0,.39-1A1.23,1.23,0,0,0,12,106.32.92.92,0,0,0,11.63,106.41Z"/><path class="cls-2" d="M19.7,105.58a.52.52,0,0,1-.33-.12c-.52-.42-1-.87-1.54-1.3l-.33-.28a.52.52,0,0,1-.08-.71c.3-.41.62-.82.94-1.23l.77-1a.53.53,0,0,1,.37-.2.48.48,0,0,1,.4.13,15.26,15.26,0,0,0,1.85,1.5.51.51,0,0,1,.22.36.48.48,0,0,1-.1.4c-.17.22-.34.43-.52.64-.43.54-.85,1-1.21,1.59a.51.51,0,0,1-.36.23Zm-1.15-2.18c.34.3.69.6,1.05.89.3-.42.63-.81.94-1.2l.16-.2c-.35-.26-.7-.55-1.08-.88l-.44.57Z"/><path class="cls-2" d="M26.15,127.14h0a.53.53,0,0,1-.48-.56c0-.54.05-1.13.05-1.9v-1.25a16.15,16.15,0,0,1-2.39-.15.52.52,0,0,1-.44-.5c0-.74-.07-1.49-.12-2.22l-1,0-1.93,0a.53.53,0,0,1-.54-.48l-.05-.59c-.06-.78-.13-1.59-.21-2.39h-.5a11.05,11.05,0,0,1-3.26-.43.51.51,0,0,1-.35-.65.53.53,0,0,1,.65-.35,10,10,0,0,0,3,.38l.95,0a.52.52,0,0,1,.54.47c.11,1,.19,2,.27,2.9v.09l1.45,0,1.46,0a.53.53,0,0,1,.54.48l0,.43c0,.61.08,1.25.11,1.89.71.07,1.42.07,2.18.07h.14a.53.53,0,0,1,.53.52v.69c0,.37,0,.73,0,1.09,0,.8,0,1.4-.06,2A.52.52,0,0,1,26.15,127.14Z"/><path class="cls-2" d="M25.31,126.84a.57.57,0,0,1-.25-.06c-3.63-2-6.27-5.16-8.83-8.23l-1.1-1.32a.52.52,0,0,1,.8-.68l1.1,1.33c2.5,3,5.08,6.1,8.53,8a.52.52,0,0,1-.25,1Z"/><path class="cls-2" d="M35.16,131.92a.65.65,0,0,1-.19,0,14,14,0,0,1-4.72-3.65.53.53,0,0,1,0-.74.52.52,0,0,1,.74,0,13.37,13.37,0,0,0,4.36,3.4.52.52,0,0,1,.29.68A.53.53,0,0,1,35.16,131.92Z"/><path class="cls-2" d="M36.28,133.49a.71.71,0,0,1-.66-.59.73.73,0,0,1,.51-.87.54.54,0,0,1,.54.13.72.72,0,0,1,.21.52s0,.1,0,.15a.63.63,0,0,1-.53.66Zm0-1,.16.49a.32.32,0,0,0,.18-.35.37.37,0,0,0-.41-.22.46.46,0,0,0-.39.29.33.33,0,0,0,.09.16Z"/><path class="cls-2" d="M43.69,130.14a3.31,3.31,0,0,1-2.39-1,3.51,3.51,0,0,1-1-2.61,3.3,3.3,0,0,1,2.74-3,2.89,2.89,0,0,1,.65,0A3.25,3.25,0,0,1,47,126.69a3.31,3.31,0,0,1-3.19,3.45Zm-.49-5.61a2.23,2.23,0,0,0-1.86,2,2.45,2.45,0,0,0,.71,1.82,2.24,2.24,0,0,0,3.87-1.68,2.23,2.23,0,0,0-2.25-2.22A2.56,2.56,0,0,0,43.2,124.53Z"/><path class="cls-2" d="M40.79,135a.54.54,0,0,1-.32-.11.51.51,0,0,1-.2-.38,10.53,10.53,0,0,1-.15-1.72c0-2,.63-3.34,1.82-4a.51.51,0,0,1,.71.19.53.53,0,0,1-.19.72c-1.07.6-1.29,2-1.29,3.1a9.29,9.29,0,0,0,.06,1,27.14,27.14,0,0,1,4.74-.85,4.71,4.71,0,0,0-1.32-3.24.51.51,0,0,1-.06-.73.52.52,0,0,1,.74-.06A6,6,0,0,1,47,133.4a.47.47,0,0,1-.14.37.53.53,0,0,1-.37.17,27.6,27.6,0,0,0-5.6,1Zm.52-.52Z"/><path class="cls-2" d="M41,127.56h-.19a.52.52,0,0,1-.48-.56.53.53,0,0,1,.56-.49H41c1,0,1.6-.69,2.2-1.42a3.43,3.43,0,0,1,1.5-1.25.52.52,0,0,1,.65.34.53.53,0,0,1-.34.66,2.85,2.85,0,0,0-1,.92A3.84,3.84,0,0,1,41,127.56Z"/><path class="cls-2" d="M34.62,125.51c-1.38,0-1.92-1.9-2-2.9-.44-4.91-1.76-5.78-3-6.63s-2.52-1.67-2.52-5.74A7,7,0,0,1,29.44,105a7.59,7.59,0,0,1,5.26-2,11.87,11.87,0,0,1,6.36,1.69c1.44,1,1.55,3.23,1.55,3.9,0,4.07-1.69,5.9-3.64,8l-.85.94a6.65,6.65,0,0,0-.57,2.76C37.33,122.62,37.06,125.51,34.62,125.51ZM34.49,104a6.48,6.48,0,0,0-6.39,6.2c0,3.51.91,4.11,2,4.87,1.41.94,3,2,3.5,7.4.09.9.53,1.95,1,1.95,1.38,0,1.65-1.76,1.89-4.25.13-1.46.25-2.72.83-3.37l.86-1c1.88-2,3.36-3.64,3.36-7.3,0-1.07-.28-2.5-1.07-3A11,11,0,0,0,34.67,104Z"/><path class="cls-2" d="M34.84,112.29c-.61,0-.89-.59-1.2-1.23-.2-.43-.52-1.09-.8-1.09s-.73.48-1.06.83c-.17.18-.33.36-.5.51a.54.54,0,0,1-.57.09.52.52,0,0,1-.31-.48v-.06a.53.53,0,0,1,.34-.49l.27-.28a2.82,2.82,0,0,1,1.83-1.16c.94,0,1.41,1,1.75,1.68l.17.35c.76-1.14,1.38-1.84,2.05-1.84,1,0,1.23.86,1.36,1.38a1.89,1.89,0,0,0,.31.73.52.52,0,0,1-.78.7,2.72,2.72,0,0,1-.54-1.16c-.16-.6-.21-.6-.35-.6s-.47.28-1.34,1.61C35.25,112.12,35.14,112.29,34.84,112.29Z"/><path class="cls-2" d="M33.55,121.23a.52.52,0,0,1,0-1,10.26,10.26,0,0,0,1.34-.12,11.51,11.51,0,0,1,1.47-.12.52.52,0,1,1,0,1,10.26,10.26,0,0,0-1.34.12A11.51,11.51,0,0,1,33.55,121.23Z"/><path class="cls-2" d="M33.67,123.32a.52.52,0,0,1,0-1,7.29,7.29,0,0,0,2-.38l.75-.21a.52.52,0,0,1,.63.38.52.52,0,0,1-.38.64l-.71.19A7.89,7.89,0,0,1,33.67,123.32Z"/><path class="cls-2" d="M24.06,113.18a.54.54,0,0,1-.52-.48.52.52,0,0,1,.47-.57,5.37,5.37,0,0,0,.82-.16,7.23,7.23,0,0,1,1-.2.52.52,0,0,1,.57.47.51.51,0,0,1-.47.57,7.07,7.07,0,0,0-.82.17,6,6,0,0,1-1,.19Z"/><path class="cls-2" d="M25.14,109h-.09c-.19,0-.39-.08-.6-.13l-.53-.11a.52.52,0,0,1-.43-.6.51.51,0,0,1,.6-.43l.6.12.53.12a.52.52,0,0,1-.08,1Z"/><path class="cls-2" d="M26.75,105.24a.53.53,0,0,1-.47-.29,2.91,2.91,0,0,0-.56-.82.53.53,0,0,1,0-.74.51.51,0,0,1,.74,0,3.81,3.81,0,0,1,.75,1.09.52.52,0,0,1-.23.7A.46.46,0,0,1,26.75,105.24Z"/><path class="cls-2" d="M30.21,103.09a.52.52,0,0,1-.51-.4,2.57,2.57,0,0,0-.2-.61.52.52,0,0,1,.24-.7.53.53,0,0,1,.7.23,4.77,4.77,0,0,1,.28.83.52.52,0,0,1-.38.63Z"/><path class="cls-2" d="M35.52,102.13a.52.52,0,0,1-.52-.52v-1.25a.52.52,0,1,1,1,0v1.25A.52.52,0,0,1,35.52,102.13Z"/><path class="cls-2" d="M39.46,102.61a.5.5,0,0,1-.31-.1.53.53,0,0,1-.11-.74,1.55,1.55,0,0,0,.21-.62.52.52,0,1,1,1,.2,2.46,2.46,0,0,1-.39,1.05A.51.51,0,0,1,39.46,102.61Z"/><path class="cls-2" d="M43.1,105.6a.54.54,0,0,1-.41-.2.53.53,0,0,1,.08-.74l.48-.34.42-.31a.51.51,0,0,1,.73.08.51.51,0,0,1-.08.73c-.16.13-.31.24-.47.35l-.42.31A.52.52,0,0,1,43.1,105.6Z"/><path class="cls-2" d="M44.83,108.7h-1a.53.53,0,1,1,0-1h1a.53.53,0,0,1,0,1Z"/><path class="cls-2" d="M44.23,113.06a.45.45,0,0,1-.16,0l-.34-.13a4,4,0,0,0-.7-.21.52.52,0,0,1-.45-.59.51.51,0,0,1,.59-.44,3.78,3.78,0,0,1,.93.27l.3.11a.52.52,0,0,1-.17,1Z"/><path class="cls-2" d="M42.62,117.59a.52.52,0,0,1-.33-.12,5.11,5.11,0,0,1-.75-.81l-.21-.27a.52.52,0,0,1,.06-.74.53.53,0,0,1,.74.07l.24.29a4.2,4.2,0,0,0,.59.66.52.52,0,0,1,.07.73A.53.53,0,0,1,42.62,117.59Z"/><path class="cls-2" d="M50.43,113h-.17a2,2,0,0,1-1.8-2,2.07,2.07,0,0,1,.46-1.35,1.83,1.83,0,0,1,1-.69,2.74,2.74,0,0,1,.5-.07,2,2,0,0,1,2.13,2,2.14,2.14,0,0,1-.66,1.59A2.08,2.08,0,0,1,50.43,113Zm0-3.09h0a.9.9,0,0,0-.28,0,.83.83,0,0,0-.45.33,1.09,1.09,0,0,0-.23.68,1,1,0,0,0,.83,1,1.08,1.08,0,0,0,.85-.28,1.13,1.13,0,0,0,.33-.8A1,1,0,0,0,50.48,109.88Z"/><path class="cls-2" d="M56.21,130.65a.5.5,0,0,1-.39-.18c-2.22-2.55-4.39-5.21-6.49-7.79l-2-2.4a.52.52,0,0,1,.05-.72,102.29,102.29,0,0,1,9.92-8.11.51.51,0,0,1,.66,0,50.45,50.45,0,0,1,5.23,5.77c1,1.17,1.86,2.28,2.83,3.32a.49.49,0,0,1,.14.38.5.5,0,0,1-.17.37l-.49.43a97.83,97.83,0,0,0-8.93,8.71A.55.55,0,0,1,56.21,130.65ZM48.49,120l1.65,2c2,2.42,4,4.91,6.07,7.31A103,103,0,0,1,64.85,121l.09-.08c-.86-1-1.67-1.94-2.52-3a54,54,0,0,0-4.81-5.37A102.21,102.21,0,0,0,48.49,120Z"/><path class="cls-2" d="M57.39,122h0l-1.46-.07c-.86,0-1.74-.09-2.59-.09-.56,0-1.06,0-1.53.06a.53.53,0,0,1-.57-.48.54.54,0,0,1,.48-.57c.51,0,1,0,1.62,0,.88,0,1.77,0,2.64.08l1.44.07a.53.53,0,0,1,.51.54A.54.54,0,0,1,57.39,122Z"/><path class="cls-2" d="M57.45,124.51a.58.58,0,0,1-.19,0,.53.53,0,0,1-.34-.46c0-.67,0-1.36,0-2a28.13,28.13,0,0,0-.21-3.67.54.54,0,0,1,.25-.53.51.51,0,0,1,.57,0l1.14.83c.91.66,1.85,1.34,2.81,1.95a.52.52,0,0,1,.25.42.53.53,0,0,1-.22.44l-.65.47a22.56,22.56,0,0,0-3,2.43A.51.51,0,0,1,57.45,124.51Zm.39-5.15c.06.89.07,1.77.08,2.63,0,.28,0,.55,0,.83.74-.63,1.52-1.19,2.28-1.74l0,0c-.77-.5-1.51-1-2.22-1.57Z"/><path class="cls-2" d="M65.25,115.75l-.16,0a.53.53,0,0,1-.36-.42l-.08-.58c-.11-.72-.22-1.45-.35-2.18a20.2,20.2,0,0,1-1.73-1.12.52.52,0,0,1-.21-.48.49.49,0,0,1,.3-.42,11.82,11.82,0,0,1,2.75-.81c.18-.78.39-1.65.63-2.53a.53.53,0,0,1,.38-.37.53.53,0,0,1,.52.16l.62.71.89,1,1.64.43c.51.15,1,.29,1.55.42a.5.5,0,0,1,.39.4.52.52,0,0,1-.19.52l-.52.4c-.45.35-.9.71-1.39,1,.16.6.31,1.2.45,1.79.08.36.17.73.26,1.09a.52.52,0,0,1-.69.61,16.58,16.58,0,0,1-2.72-1.4c-.4.38-.79.77-1.16,1.16l-.45.45A.51.51,0,0,1,65.25,115.75ZM64,111.14c.34.22.68.43,1,.63a.55.55,0,0,1,.25.36c.13.66.23,1.33.33,2,.39-.39.79-.79,1.2-1.17a.51.51,0,0,1,.63-.06c.61.38,1.26.77,1.93,1.11v-.06c-.17-.7-.34-1.43-.54-2.13a.53.53,0,0,1,.23-.6,14.23,14.23,0,0,0,1.31-.93l-.55-.15c-.58-.15-1.17-.32-1.75-.45a.53.53,0,0,1-.27-.16q-.5-.54-1-1.11c-.16.67-.31,1.31-.45,1.88a.5.5,0,0,1-.41.39A15.45,15.45,0,0,0,64,111.14Z"/><path class="cls-2" d="M77.23,112.74h0a2.18,2.18,0,0,1-1.31-3.81,2,2,0,0,1,1.31-.49,2.11,2.11,0,0,1,2.23,1.9,3.22,3.22,0,0,1,0,.44A2.22,2.22,0,0,1,77.23,112.74Zm-.68-3a1.05,1.05,0,0,0-.37.81,1.08,1.08,0,0,0,1,1.15,1.17,1.17,0,0,0,1.17-1v-.29a1.08,1.08,0,0,0-1.17-.94A1,1,0,0,0,76.55,109.73Z"/><path class="cls-2" d="M53.79,103.22a2.28,2.28,0,0,1-1.63-.68,2.36,2.36,0,0,1-.69-1.81,2.19,2.19,0,0,1,1.11-1.82,2.4,2.4,0,0,1,1.17-.3A2.22,2.22,0,0,1,56,100.7a2.45,2.45,0,0,1-.62,1.8,2.14,2.14,0,0,1-1.46.72Zm0-3.56a1.33,1.33,0,0,0-.65.16,1.13,1.13,0,0,0-.58,1,1.39,1.39,0,0,0,.4,1,1.2,1.2,0,0,0,1,.36,1,1,0,0,0,.73-.37,1.44,1.44,0,0,0,.36-1A1.17,1.17,0,0,0,53.74,99.66Z"/><path class="cls-2" d="M68,131.75a2.26,2.26,0,0,1-1.65-.67,2.32,2.32,0,0,1,.17-3.42,2,2,0,0,1,1.08-.42,2.47,2.47,0,0,1,1.91.64,2.25,2.25,0,0,1,.72,1.71,2.19,2.19,0,0,1-2.14,2.16Zm-.15-3.47h-.15a.93.93,0,0,0-.52.18,1.28,1.28,0,0,0-.09,1.87,1.26,1.26,0,0,0,1,.37,1.16,1.16,0,0,0,1.14-1.15,1.23,1.23,0,0,0-.39-.92A1.42,1.42,0,0,0,67.86,128.28Z"/><path class="cls-2" d="M72.12,138.48a28,28,0,0,1-4.17-.33.54.54,0,0,1-.44-.54c0-.63,0-1.24,0-1.84a37.82,37.82,0,0,0-.19-4,.53.53,0,0,1,.47-.58.52.52,0,0,1,.57.47,39.9,39.9,0,0,1,.2,4.07c0,.46,0,.93,0,1.41a24.74,24.74,0,0,0,8.25-.21l-.12-1.77L76.55,133a.5.5,0,0,1,.17-.41.51.51,0,0,1,.42-.14,24.89,24.89,0,0,0,9-.52.53.53,0,0,1,.63.39.52.52,0,0,1-.38.63,25.87,25.87,0,0,1-8.8.61c0,.51.07,1,.1,1.53q.09,1.11.15,2.22a.52.52,0,0,1-.4.55A25.17,25.17,0,0,1,72.12,138.48Z"/><path class="cls-2" d="M86.56,135.11a.59.59,0,0,1-.22-.05.52.52,0,0,1-.3-.44c-.07-1-.22-2-.37-2.91-.07-.44-.14-.89-.2-1.33a.54.54,0,0,1,.21-.49.49.49,0,0,1,.53,0c.5.23,1,.48,1.47.72.79.4,1.6.81,2.42,1.13a.54.54,0,0,1,.33.44.5.5,0,0,1-.24.49c-.78.5-1.55,1.07-2.29,1.62l-1,.77A.57.57,0,0,1,86.56,135.11Zm.09-3.9,0,.35c.11.67.21,1.36.29,2.05a2.83,2.83,0,0,0,.28-.2c.5-.38,1-.76,1.55-1.13-.55-.25-1.09-.52-1.61-.79Z"/><path class="cls-2" d="M77.36,129.41h-.11c-2.81-.62-4.59-3.43-5.06-5.78a.53.53,0,0,1,.41-.62.53.53,0,0,1,.62.41c.4,2,1.91,4.45,4.25,5a.52.52,0,0,1-.11,1Z"/><path class="cls-2" d="M78.89,130.51a.75.75,0,0,1-.7-.73.62.62,0,0,1,.09-.33.52.52,0,0,1,.27-.37.62.62,0,0,1,.29-.07c.24,0,.8.28.8.72A.79.79,0,0,1,78.89,130.51ZM78.7,130a.48.48,0,0,0,.33,0l-.24-.47h.35a.44.44,0,0,0-.25-.08.28.28,0,0,0-.3.27A.42.42,0,0,0,78.7,130Zm-.43-.49Z"/><path class="cls-2" d="M64.77,141.29h0l-1.53-.12a21.76,21.76,0,0,1-6.92-1.24.51.51,0,0,1-.28-.68.52.52,0,0,1,.68-.28,21.59,21.59,0,0,0,6.6,1.16l1.54.11a.53.53,0,0,1,0,1Z"/><path class="cls-2" d="M66.77,142.8a.84.84,0,0,1-.74-.72c0-.07,0-.12,0-.16a.71.71,0,0,1,.49-.7.51.51,0,0,1,.5.1h0a.76.76,0,0,1,.52.68A.8.8,0,0,1,66.77,142.8Zm-.08-1,.15.45a.34.34,0,0,0,.23-.25.69.69,0,0,0-.07-.15A.38.38,0,0,0,66.69,141.76Zm.36-.41Z"/><path class="cls-2" d="M72.34,143.53a11.63,11.63,0,0,1-2-.16.52.52,0,1,1,.18-1,14.12,14.12,0,0,0,6-.47.52.52,0,1,1,.27,1A17.5,17.5,0,0,1,72.34,143.53Z"/><path class="cls-2" d="M78.64,125.65a.53.53,0,0,1-.52-.48c-.16-2-.29-4.15-.39-6.59a.52.52,0,0,1,.5-.54h0a.52.52,0,0,1,.52.5c.09,2.22.2,4.21.35,6.06,1.85,0,3.72-.13,5.53-.24s3.75-.21,5.65-.23a.52.52,0,0,1,.53.51.52.52,0,0,1-.52.53c-1.87,0-3.77.14-5.6.24C82.74,125.52,80.68,125.64,78.64,125.65Z"/><path class="cls-2" d="M81.72,125a.52.52,0,0,1-.52-.48l0-.15c-.15-1.9-.3-3.69-.3-5.56,0-.3,0-.6,0-.9a.52.52,0,1,1,1,0c0,.29,0,.58,0,.87,0,1.82.14,3.6.3,5.47v.16a.52.52,0,0,1-.48.56Z"/><path class="cls-2" d="M84.64,125.44a.53.53,0,0,1-.52-.47c-.15-1.55-.18-3.08-.18-4.5,0-.38,0-.76,0-1.14v-1.14c0-1.18,0-2.57-.13-3.94a.53.53,0,0,1,.48-.57.52.52,0,0,1,.56.48c.12,1.41.14,2.83.14,4,0,.38,0,.76,0,1.14v1.14c0,1.39,0,2.89.17,4.4a.52.52,0,0,1-.47.57Z"/><path class="cls-2" d="M87.79,124.91a.53.53,0,0,1-.53-.48c-.12-1.65-.17-3.31-.22-4.92-.07-2.25-.13-4.57-.41-6.85a.52.52,0,1,1,1-.13c.28,2.33.35,4.68.42,7,0,1.59.1,3.24.22,4.87a.53.53,0,0,1-.48.56Z"/><path class="cls-2" d="M76.7,117.47a.52.52,0,0,1-.38-.16.51.51,0,0,1,0-.74,81.88,81.88,0,0,1,10.26-8.28.53.53,0,0,1,.6,0c1.07.76,2.2,1.48,3.22,2.12a80.06,80.06,0,0,1,7.4-6.8.52.52,0,1,1,.66.81,80.8,80.8,0,0,0-7.6,7,.52.52,0,0,1-.65.09c-1-.64-2.2-1.37-3.34-2.17a81,81,0,0,0-9.84,8A.5.5,0,0,1,76.7,117.47Z"/><path class="cls-2" d="M99.83,105.91a.46.46,0,0,1-.32-.11,44.59,44.59,0,0,1-3.49-3,.56.56,0,0,1-.15-.51.55.55,0,0,1,.36-.38c1.66-.48,3.3-1,4.55-1.43a.53.53,0,0,1,.66.66c-.46,1.44-.79,3-1.1,4.37a.51.51,0,0,1-.33.38A.57.57,0,0,1,99.83,105.91Zm-2.42-3.26c.73.67,1.41,1.26,2.09,1.81.19-.88.4-1.78.65-2.68Z"/><path class="cls-2" d="M97.76,128.17h-.2A8,8,0,0,1,95,112.84a7,7,0,0,1,2.53-.52,7.74,7.74,0,0,1,8,7.58,8.44,8.44,0,0,1-2.38,6.07A7.49,7.49,0,0,1,97.76,128.17Zm0-14.8h-.16a6.08,6.08,0,0,0-2.16.44,6.84,6.84,0,0,0-4.22,6.39,6.76,6.76,0,0,0,6.38,6.92,6.52,6.52,0,0,0,4.87-1.89,7.33,7.33,0,0,0,2.07-5.3A6.7,6.7,0,0,0,97.74,113.37Z"/><path class="cls-2" d="M97.79,126.1h-.15a5.91,5.91,0,0,1-1.87-11.33,5.38,5.38,0,0,1,1.87-.38,5.71,5.71,0,0,1,5.92,5.6,6.17,6.17,0,0,1-1.76,4.48A5.52,5.52,0,0,1,97.79,126.1Zm0-10.66h-.11a4.23,4.23,0,0,0-1.51.3,4.8,4.8,0,0,0-3,4.48,4.72,4.72,0,0,0,4.45,4.83,4.5,4.5,0,0,0,3.4-1.32,5.12,5.12,0,0,0,1.45-3.71A4.67,4.67,0,0,0,97.78,115.44Z"/><path class="cls-2" d="M95.78,113.21a.52.52,0,0,1-.53-.52c0-.32,0-.64,0-1s0-.64,0-1c0-.75,0-1.33-.07-1.87a.52.52,0,0,1,.47-.57.54.54,0,0,1,.57.48c.05.57.08,1.17.08,2,0,.32,0,.65,0,1s0,.63,0,1A.52.52,0,0,1,95.78,113.21Z"/><path class="cls-2" d="M96.27,123.14a.53.53,0,0,1-.53-.51c0-.92-.07-1.86-.11-2.76-.06-1.38-.13-2.79-.13-4.2a.52.52,0,0,1,.52-.52.53.53,0,0,1,.53.52c0,1.38.06,2.79.13,4.15,0,.91.08,1.85.11,2.78A.53.53,0,0,1,96.27,123.14Z"/><path class="cls-2" d="M91.15,116.44a.52.52,0,0,1-.52-.52c0-.35,0-.71,0-1s0-.72,0-1.09c0-.19,0-.38,0-.57a.52.52,0,0,1,.55-.49.52.52,0,0,1,.49.55c0,.17,0,.34,0,.51,0,.34,0,.68,0,1s0,.73,0,1.11A.52.52,0,0,1,91.15,116.44Z"/><path class="cls-2" d="M105.32,118.91a.54.54,0,0,1-.37-.16.52.52,0,0,1,0-.74c.74-.72,1.69-1.53,2.71-2.38,1.78-1.5,4.48-3.78,4.48-4.65,0-.35-.64-1.51-1-1.59s-1.87,1-6.82,5.06l-.72.6a.53.53,0,1,1-.66-.82l.71-.59c4.67-3.86,6.71-5.3,7.51-5.3,1.11,0,2,2.11,2,2.64,0,1.27-1.84,2.91-4.86,5.45-1,.84-1.94,1.64-2.65,2.33A.51.51,0,0,1,105.32,118.91Z"/><path class="cls-2" d="M106.92,116.87a.55.55,0,0,1-.43-.22,10.55,10.55,0,0,0-2-2.27.52.52,0,1,1,.64-.82,11.55,11.55,0,0,1,2.24,2.48.53.53,0,0,1-.13.73A.47.47,0,0,1,106.92,116.87Z"/><path class="cls-2" d="M106.68,107.67h-.09a2.09,2.09,0,0,1-1.92-2,2.21,2.21,0,0,1,1.45-2.17,1.64,1.64,0,0,1,.44-.09,2.15,2.15,0,0,1,1.55.58,2.12,2.12,0,0,1,.71,1.43,2.22,2.22,0,0,1-.68,1.63A2,2,0,0,1,106.68,107.67Zm0-3.23h0l-.16,0a1.18,1.18,0,0,0-.75,1.15,1.05,1.05,0,0,0,.93,1,1,1,0,0,0,.76-.33,1.18,1.18,0,0,0,.37-.85,1,1,0,0,0-.36-.7A1.18,1.18,0,0,0,106.66,104.44Z"/><path class="cls-2" d="M110.36,128.51a2.36,2.36,0,0,1-1.74-.77,2.69,2.69,0,0,1-.71-2,2.34,2.34,0,0,1,1-1.81,2.59,2.59,0,0,1,1.33-.42h.12a2.51,2.51,0,0,1,2.46,2.53A2.46,2.46,0,0,1,110.36,128.51Zm-.86-3.76a1.33,1.33,0,0,0-.55,1,1.65,1.65,0,0,0,.44,1.24,1.3,1.3,0,0,0,1,.44,1.42,1.42,0,0,0,1.41-1.46,1.45,1.45,0,0,0-.43-1,1.47,1.47,0,0,0-1-.44h-.06A1.55,1.55,0,0,0,109.5,124.75Z"/><path class="cls-2" d="M117.56,124a.55.55,0,0,1-.33-.11c-.66-.54-1.29-1.14-1.9-1.71l-.13-.13a.51.51,0,0,1-.07-.67c.3-.44.62-.87.93-1.28s.7-.93,1-1.4a.52.52,0,0,1,.8-.08,11.31,11.31,0,0,0,2,1.62.54.54,0,0,1,.24.37.52.52,0,0,1-.12.43,23.51,23.51,0,0,0-2,2.72.53.53,0,0,1-.36.24Zm-1.31-2.4c.39.37.79.75,1.2,1.1.45-.67.93-1.31,1.41-1.9a12.46,12.46,0,0,1-1.27-1c-.22.32-.46.63-.69.94Z"/><path class="cls-2" d="M120.44,116.94h-.09a.5.5,0,0,1-.42-.41c-.2-1-.38-2.27-.46-3.13a14,14,0,0,1-2.15-1.15.52.52,0,0,1-.23-.46.52.52,0,0,1,.27-.43,11.31,11.31,0,0,1,2.9-1c0-1.11.1-2.3.2-3.55a.51.51,0,0,1,.41-.47.52.52,0,0,1,.56.26l.25.44c.36.65.74,1.33,1.13,2l1.89.23a.52.52,0,0,1,.42.31.54.54,0,0,1-.06.52,12.32,12.32,0,0,0-1.14,1.92c.25.27.48.56.7.85s.53.66.81,1a.52.52,0,0,1-.48.87l-.45-.09c-.58-.11-1.17-.23-1.75-.37l-.07.08c-.62.79-1.26,1.6-1.8,2.45A.51.51,0,0,1,120.44,116.94Zm-1.71-5.07c.48.25,1,.47,1.44.68a.54.54,0,0,1,.31.43c0,.46.13,1.26.26,2.08.36-.5.75-1,1.12-1.46l.27-.34a.53.53,0,0,1,.54-.18l1,.23a8.16,8.16,0,0,0-.76-.87.52.52,0,0,1-.1-.59,14.48,14.48,0,0,1,.91-1.71l-1.28-.15a.49.49,0,0,1-.39-.24c-.24-.37-.46-.75-.68-1.14,0,.75-.07,1.47-.09,2.15a.53.53,0,0,1-.41.5A13.47,13.47,0,0,0,118.73,111.87Z"/><path class="cls-2" d="M128.84,106a.52.52,0,0,1-.38-.17.52.52,0,0,1,0-.74,24.55,24.55,0,0,0,7.06-12.32c-.63,0-1.25-.07-1.87-.11h-.06v.06c0,1.19,0,2.4.07,3.57l0,.89a.52.52,0,0,1-.5.54c-.73,0-1.47,0-2.2,0l-.78,0c0,.76.08,1.55.15,2.32,0,.29.05.59.08.88a.54.54,0,0,1-.48.57c-.7.06-1.43.11-2.32.16a29.92,29.92,0,0,0,.47,3.45.52.52,0,1,1-1,.2,31.54,31.54,0,0,1-.54-4.1.52.52,0,0,1,.13-.38.5.5,0,0,1,.36-.18l2.31-.15c0-.12,0-.24,0-.36-.07-.82-.15-1.67-.15-2.52,0-.14,0-.29,0-.43a.53.53,0,0,1,.52-.51l1.33,0c.53,0,1.07,0,1.61,0V96.3c0-1.18-.08-2.4-.08-3.61v-.63a.6.6,0,0,1,.17-.38.56.56,0,0,1,.39-.13l.62,0c.81,0,1.65.11,2.46.13a.51.51,0,0,1,.4.19.53.53,0,0,1,.1.44,25.71,25.71,0,0,1-7.5,13.48A.54.54,0,0,1,128.84,106Z"/><path class="cls-2" d="M127.81,91.4h-.13a2.26,2.26,0,0,1-2.05-2.26,2.45,2.45,0,0,1,1-2.06,2.18,2.18,0,0,1,1-.37,1.15,1.15,0,0,1,.32,0,2.21,2.21,0,0,1,2.23,2,2.53,2.53,0,0,1-.7,2A2.27,2.27,0,0,1,127.81,91.4Zm-.57-3.48a1.44,1.44,0,0,0-.57,1.18,1.24,1.24,0,0,0,1.07,1.25,1.18,1.18,0,0,0,.93-.4,1.48,1.48,0,0,0,.42-1.16,1.17,1.17,0,0,0-1.19-1.07h-.15A1.27,1.27,0,0,0,127.24,87.92Z"/><path class="cls-2" d="M108.79,90.59h-.14A3.89,3.89,0,0,1,105,86.65a4,4,0,0,1,3.78-4H109a3.82,3.82,0,0,1,3.77,3.6,4.15,4.15,0,0,1-1.2,3.15A3.83,3.83,0,0,1,108.79,90.59Zm.07-6.87a2.92,2.92,0,0,0-2.78,2.93,2.88,2.88,0,0,0,2.61,2.89,2.77,2.77,0,0,0,2.11-.86,3.11,3.11,0,0,0,.9-2.35A2.82,2.82,0,0,0,109,83.72Z"/><path class="cls-2" d="M106.12,88a3,3,0,0,1-.59-.06.53.53,0,0,1-.4-.63.52.52,0,0,1,.62-.4,1.61,1.61,0,0,0,.37,0c.89,0,1.35-.53,2-1.41a4.39,4.39,0,0,1,2.64-2,.52.52,0,0,1,.2,1,3.45,3.45,0,0,0-2,1.59A3.52,3.52,0,0,1,106.12,88Z"/><path class="cls-2" d="M106.08,95.57h-.44a.53.53,0,0,1-.51-.46,8.86,8.86,0,0,1-.07-1.12c0-2,.7-3.38,2-4.1a.52.52,0,0,1,.71.21.54.54,0,0,1-.21.71A3.3,3.3,0,0,0,106.11,94a5.06,5.06,0,0,0,0,.54c.81,0,1.65-.06,2.46-.11s1.5-.09,2.25-.1c0-.26,0-.51,0-.76,0-1.56-.31-2.5-1-3.12a.52.52,0,0,1-.06-.74.53.53,0,0,1,.74-.06,4.86,4.86,0,0,1,1.42,3.92c0,.43,0,.84,0,1.3a.52.52,0,0,1-.52.5h-.17c-.83,0-1.69,0-2.51.11S107,95.57,106.08,95.57Z"/><path class="cls-2" d="M115.44,87.76a.57.57,0,0,1-.25-.06A.53.53,0,0,1,115,87a29,29,0,0,0,2-4.91c.19-.57.38-1.14.58-1.71a.52.52,0,1,1,1,.35c-.19.56-.38,1.12-.56,1.68a30.51,30.51,0,0,1-2,5.09A.5.5,0,0,1,115.44,87.76Z"/><path class="cls-2" d="M119.26,86.08a.93.93,0,0,1-.84-.93.68.68,0,0,1,.53-.66,1.51,1.51,0,0,1,.41-.06.73.73,0,0,1,.82.79A.93.93,0,0,1,119.26,86.08Zm-.06-.74a.63.63,0,0,0,.12.11.38.38,0,0,0,.14-.3V85.1a.27.27,0,0,0-.2-.07h-.06a.24.24,0,0,0-.06.1Zm-.07-.15a.34.34,0,0,0,.07.15l-.06-.2S119.13,85.17,119.13,85.19Z"/><path class="cls-2" d="M120.07,82.22a.52.52,0,0,1-.49-.69l.33-.94a26.91,26.91,0,0,0,1.53-5.35.53.53,0,0,1,.59-.45.52.52,0,0,1,.45.59A28.82,28.82,0,0,1,120.9,81c-.12.31-.23.62-.34.92A.5.5,0,0,1,120.07,82.22Z"/><path class="cls-2" d="M105.53,79.44A1.43,1.43,0,0,1,104,78c0-.33.25-1.49,1-1.49h.2a.51.51,0,0,1,.48-.33h.06c1.3,0,1.57.76,1.57,1.4v.27A1.88,1.88,0,0,1,105.53,79.44Zm-.37-1.84A1.34,1.34,0,0,0,105,78c0,.33.34.37.49.37a1,1,0,0,0,.74-.54v-.12s0-.08,0-.12c0-.26,0-.35-.53-.35h-.11A.53.53,0,0,1,105.16,77.6Z"/><path class="cls-2" d="M132.87,75.5a2.32,2.32,0,0,1-1.68-.75,2.43,2.43,0,0,1-.68-1.84,2.25,2.25,0,0,1,1.17-1.9,2.5,2.5,0,0,1,1.14-.29h0A2.32,2.32,0,0,1,135.23,73a2.48,2.48,0,0,1-.71,1.8A2.31,2.31,0,0,1,132.87,75.5Zm0-3.73a1.44,1.44,0,0,0-.67.16,1.21,1.21,0,0,0-.63,1A1.42,1.42,0,0,0,132,74a1.2,1.2,0,0,0,1.82,0,1.39,1.39,0,0,0,.41-1A1.26,1.26,0,0,0,132.85,71.77Z"/><path class="cls-2" d="M123.79,98.54a.58.58,0,0,1-.19,0,.52.52,0,0,1-.3-.68,9,9,0,0,1,1.32-2.23l-.68-.35c-1.43-.74-2.92-1.51-4.4-2.14a.55.55,0,0,1-.29-.33.49.49,0,0,1,.06-.44A47.84,47.84,0,0,0,125,80.22a.52.52,0,0,1,.63-.36c1.51.39,3.06.68,4.44.93.32-.85.59-1.73.85-2.59s.61-2,1-3a.52.52,0,1,1,1,.39c-.39,1-.69,2-1,2.94s-.62,2.06-1,3.07a.53.53,0,0,1-.58.32c-1.35-.24-2.91-.52-4.46-.9a48.33,48.33,0,0,1-5.34,11.4c1.32.6,2.63,1.27,3.9,1.93l1.23.63a.5.5,0,0,1,.27.35.53.53,0,0,1-.09.44l0,0a10,10,0,0,0-1.52,2.42A.51.51,0,0,1,123.79,98.54Z"/><path class="cls-2" d="M135.78,81.68a.39.39,0,0,1-.18,0,.51.51,0,0,1-.31-.67,29.09,29.09,0,0,0,1.55-8.79.53.53,0,0,1,1,0,29.9,29.9,0,0,1-1.62,9.11A.54.54,0,0,1,135.78,81.68Z"/><path class="cls-2" d="M137.31,84.15a.52.52,0,0,1-.21,0,.53.53,0,0,1-.27-.69,24.35,24.35,0,0,0,1.72-5.89.53.53,0,0,1,.61-.42.52.52,0,0,1,.42.6,25.85,25.85,0,0,1-1.79,6.14A.53.53,0,0,1,137.31,84.15Z"/><path class="cls-2" d="M139.32,74.52a.77.77,0,0,1-.79-.75.89.89,0,0,1,.36-.67l.05,0a.51.51,0,0,1,.37-.15.81.81,0,0,1,.83.89A.86.86,0,0,1,139.32,74.52Zm0-1a.19.19,0,0,0-.12,0,.37.37,0,0,0-.1.28.29.29,0,0,0,.22.15Zm.06,0,.19.19A.28.28,0,0,0,139.37,73.48Z"/><path class="cls-2" d="M133.41,66.66l-.16,0a.52.52,0,0,1-.36-.43c-.11-.79-.2-1.61-.28-2.39l-.09-.89a10,10,0,0,1-1.88-1,.51.51,0,0,1-.23-.48.49.49,0,0,1,.31-.43,19.6,19.6,0,0,1,2.34-.8l.27-.07c0-.15,0-.3,0-.45a11,11,0,0,1,.3-2.09.51.51,0,0,1,.38-.37.54.54,0,0,1,.51.16l.12.13c.39.44.77.85,1.18,1.25a12,12,0,0,1,2,0l.62,0a.51.51,0,0,1,.43.27.53.53,0,0,1,0,.52c-.44.74-.85,1.52-1.24,2.29.18.65.33,1.31.48,2,.07.33.15.67.23,1a.51.51,0,0,1-.18.53.53.53,0,0,1-.57.06c-.58-.31-1.19-.66-1.92-1.12-.63.68-1.25,1.37-1.88,2.08A.54.54,0,0,1,133.41,66.66Zm-1.24-5,1,.44a.5.5,0,0,1,.32.43c0,.4.09.8.13,1.2s.09.81.13,1.22c.48-.52.95-1,1.44-1.55a.52.52,0,0,1,.66-.09c.44.29.83.53,1.19.74-.15-.65-.31-1.31-.49-2a.53.53,0,0,1,0-.39l.06-.11c.29-.55.58-1.12.89-1.69a9,9,0,0,0-1.81,0,.54.54,0,0,1-.43-.14c-.29-.27-.56-.55-.82-.83,0,.3-.06.6-.09.9s0,.55-.07.83a.54.54,0,0,1-.37.44l-.62.18C132.94,61.4,132.55,61.51,132.17,61.64Z"/><path class="cls-2" d="M138.92,55.45a.5.5,0,0,1-.34-.13,18.61,18.61,0,0,1-1.79-1.78.53.53,0,0,1,0-.65l.59-.81c.42-.56.81-1.08,1.17-1.64a.52.52,0,0,1,.37-.24.53.53,0,0,1,.42.13,21.25,21.25,0,0,0,2.2,1.72.55.55,0,0,1,.22.37.52.52,0,0,1-.14.42l-.85.9c-.48.49-1,1-1.42,1.53A.53.53,0,0,1,138.92,55.45Zm-1.06-2.29c.36.39.69.72,1,1,.36-.4.74-.8,1.1-1.18l.44-.45c-.51-.37-1-.71-1.36-1.05-.28.41-.58.8-.86,1.19C138.08,52.85,138,53,137.86,53.16Z"/><path class="cls-2" d="M136.61,46.42a2,2,0,0,1-1.37-.59,2,2,0,0,1-.56-1.51,1.84,1.84,0,0,1,1.34-1.7,2.53,2.53,0,0,1,.59-.08,1.9,1.9,0,0,1,1.87,1.91,1.85,1.85,0,0,1-1.83,2Zm0-2.83a1,1,0,0,0-.29,0,.77.77,0,0,0-.57.74,1,1,0,0,0,.26.73.88.88,0,0,0,.62.27h0a.83.83,0,0,0,.81-.91A.85.85,0,0,0,136.59,43.59Z"/><path class="cls-2" d="M128.7,41.65a2.18,2.18,0,0,1-1.55-.67,2.35,2.35,0,0,1-.66-1.74,2.19,2.19,0,0,1,1.1-1.83,2,2,0,0,1,1-.27,2.18,2.18,0,0,1,1.63.64,2.34,2.34,0,0,1,.66,1.73,2.18,2.18,0,0,1-2.11,2.14Zm-.07-3.47h0a1.13,1.13,0,0,0-1.06,1.1,1.34,1.34,0,0,0,.37,1,1.15,1.15,0,0,0,.82.35,1.14,1.14,0,0,0,1.09-1.13,1.32,1.32,0,0,0-.36-1A1.17,1.17,0,0,0,128.63,38.18Z"/><path class="cls-2" d="M128.24,55.79c-7.12,0-9.64-1.19-9.64-4.56,0-2.69,2.72-4.09,4.19-4.09a2.27,2.27,0,0,1,.76.14,7.81,7.81,0,0,1,4.93-2.48,4.06,4.06,0,0,1,3.8,3.8,4.48,4.48,0,0,1-.15,1.2,3.64,3.64,0,0,1,.79,2.41,3.71,3.71,0,0,1-.89,2.32,4.55,4.55,0,0,1-2.39,1.11A6.53,6.53,0,0,1,128.24,55.79Zm-5.45-7.61c-.94,0-3.15,1-3.15,3,0,1.48,0,3.51,8.6,3.51a5.76,5.76,0,0,0,1.18-.12,3.57,3.57,0,0,0,1.87-.83,2.77,2.77,0,0,0,.59-1.58,2.86,2.86,0,0,0-.27-1.29,3.53,3.53,0,0,1-2.7,1.58h-.54c-.73,0-1.22-.79-1.22-1.52a2.4,2.4,0,0,1,2.42-2.24,3.57,3.57,0,0,1,1.64.36,3.91,3.91,0,0,0,0-.49,3,3,0,0,0-2.76-2.75,7,7,0,0,0-4,1.94,3.49,3.49,0,0,1,1.39,2.71,1.77,1.77,0,0,1-1.76,2c-1.09,0-1.79-.94-1.79-2.4a3.75,3.75,0,0,1,.55-1.9Zm5.66,3.26h.46a2.54,2.54,0,0,0,2-1.35,2.49,2.49,0,0,0-1.32-.34A1.34,1.34,0,0,0,128.2,51a.67.67,0,0,0,.19.47Zm-4.62-2.84a2.79,2.79,0,0,0-.47,1.49c0,.23,0,1.36.75,1.36.47,0,.71-.32.71-1A2.46,2.46,0,0,0,123.83,48.6Z"/><path class="cls-2" d="M130.66,63.7c-3.38,0-6.46-3-6.85-6.6a.52.52,0,1,1,1-.11c.3,2.73,2.7,5.67,5.81,5.67a5,5,0,0,0,.67,0,.51.51,0,0,1,.58.45.52.52,0,0,1-.44.59A5.51,5.51,0,0,1,130.66,63.7Z"/><path class="cls-2" d="M114.36,77.78h0a.54.54,0,0,1-.38-.19c-1.62-1.89-3.38-3.72-5.08-5.48s-3.69-3.82-5.4-5.86a.53.53,0,0,1,0-.71c2.71-2.66,5.68-5.09,8.56-7.44,1-.82,2-1.64,3-2.47a.55.55,0,0,1,.39-.12.48.48,0,0,1,.35.19c3.54,4.33,6.77,8.07,9.9,11.43a.52.52,0,0,1,.14.39.52.52,0,0,1-.19.37,135.09,135.09,0,0,0-10.92,9.73A.55.55,0,0,1,114.36,77.78ZM104.61,66c1.6,1.88,3.34,3.68,5,5.43s3.22,3.34,4.75,5.1c3.43-3.43,7-6.48,10.17-9-2.92-3.16-5.94-6.66-9.22-10.66-.86.72-1.73,1.43-2.6,2.14C110,61.14,107.18,63.45,104.61,66Z"/><path class="cls-2" d="M112.86,70a.52.52,0,0,1-.35-.14l-1.81-1.66c-.67-.63-1.35-1.25-2-1.88a.49.49,0,0,1-.17-.39.54.54,0,0,1,.18-.4c.78-.64,1.61-1.23,2.42-1.8.45-.32.9-.63,1.34-1a.5.5,0,0,1,.55,0,.52.52,0,0,1,.29.47c0,.77,0,1.53,0,2.3,0,1.52.05,2.77.14,3.93a.5.5,0,0,1-.29.51A.46.46,0,0,1,112.86,70Zm-3-4,1.6,1.47.84.78c0-.82,0-1.71,0-2.71,0-.43,0-.85,0-1.27l-.52.36C111.07,65.06,110.42,65.51,109.81,66Z"/><path class="cls-2" d="M119,66.76c-.75,0-1.51-.05-2.24-.09s-1.47-.09-2.2-.09a11.86,11.86,0,0,0-1.76.11.51.51,0,0,1-.59-.44.52.52,0,0,1,.44-.59,12.47,12.47,0,0,1,1.91-.13c.76,0,1.53,0,2.27.09s1.45.09,2.17.09a.53.53,0,0,1,0,1.05Z"/><path class="cls-2" d="M103.26,60h-.07a1.9,1.9,0,0,1-.83-3.48,1.77,1.77,0,0,1,.88-.26,1.83,1.83,0,0,1,1.88,1.61.28.28,0,0,1,0,.09,2,2,0,0,1-.6,1.5A1.85,1.85,0,0,1,103.26,60Zm0-2.7h0a.79.79,0,0,0-.35.1.86.86,0,0,0-.38.7.82.82,0,0,0,.69.85.77.77,0,0,0,.56-.24.94.94,0,0,0,.29-.72A.8.8,0,0,0,103.28,57.27Z"/><path class="cls-2" d="M108.47,52.31a9.19,9.19,0,0,1-6.33-2.55,8.67,8.67,0,0,1-2.7-6.3A8.77,8.77,0,0,1,106,34.9a9.27,9.27,0,0,1,2.44-.3A8.72,8.72,0,0,1,117,43.52a8.56,8.56,0,0,1-8.18,8.78Zm-2.36-16.9.13.5a7.72,7.72,0,0,0-5.75,7.55A7.64,7.64,0,0,0,102.87,49a8.14,8.14,0,0,0,5.92,2.25A7.52,7.52,0,0,0,116,43.52a7.67,7.67,0,0,0-7.55-7.87,8.47,8.47,0,0,0-2.17.26Z"/><path class="cls-2" d="M108.39,49.51a6.26,6.26,0,0,1-4.33-1.74,5.93,5.93,0,0,1-1.84-4.31,6,6,0,0,1,4.47-5.86,6.36,6.36,0,0,1,1.67-.2,6,6,0,0,1,5.88,6.1,5.87,5.87,0,0,1-5.61,6Zm-.11-11.06a5.06,5.06,0,0,0-1.33.17,5,5,0,0,0-2.16,8.4,5.17,5.17,0,0,0,3.8,1.44,4.83,4.83,0,0,0,4.6-5,4.92,4.92,0,0,0-4.84-5Z"/><path class="cls-2" d="M108.31,46.79a3.43,3.43,0,0,1-2.38-1,3.33,3.33,0,0,1,1.45-5.6,4.2,4.2,0,0,1,.92-.11,3.3,3.3,0,0,1,3.24,3.36,3.23,3.23,0,0,1-3.1,3.31Zm-.67-5.54A2.29,2.29,0,0,0,106,43.46a2.23,2.23,0,0,0,.7,1.62,2.35,2.35,0,0,0,1.74.66,2.19,2.19,0,0,0,2.09-2.26,2.25,2.25,0,0,0-2.21-2.31A2.34,2.34,0,0,0,107.64,41.25Z"/><path class="cls-2" d="M108.49,43.92a.52.52,0,0,1-.33-.93c2.11-1.73,4.33-3.36,6.48-4.94,1.63-1.19,3.31-2.42,4.94-3.69a.51.51,0,0,1,.73.09.53.53,0,0,1-.09.74c-1.63,1.27-3.32,2.51-5,3.71-2.14,1.57-4.35,3.19-6.44,4.9A.54.54,0,0,1,108.49,43.92Z"/><path class="cls-2" d="M119.42,38.84l-.11,0c-.5-.11-1-.25-1.48-.39s-1.13-.31-1.69-.43a.53.53,0,0,1-.42-.56c.06-.75.18-1.5.29-2.23.08-.55.17-1.13.23-1.68a.53.53,0,0,1,.28-.42l.42-.2c.93-.46,1.89-.94,2.78-1.46a.53.53,0,0,1,.79.5c0,.4-.08.81-.13,1.21s-.09.9-.13,1.35l.52.12c.59.13,1.15.25,1.72.32a.52.52,0,0,1,.3.89c-.68.68-1.38,1.33-2.06,2l-1,.88A.48.48,0,0,1,119.42,38.84Zm-2.61-1.76c.44.1.88.23,1.3.35l1.16.31L120,37l1.3-1.23-.78-.16-1-.2a.53.53,0,0,1-.42-.57l.18-1.83,0-.2c-.66.35-1.32.67-2,1l-.16.07c-.06.49-.13,1-.2,1.44S116.87,36.51,116.81,37.08Z"/><path class="cls-2" d="M112.58,32a.54.54,0,0,1-.35-.14l-.43-.39c-.35-.31-.71-.64-1.06-1a.52.52,0,0,1-.15-.38.51.51,0,0,1,.16-.37l.48-.45a19.07,19.07,0,0,1,1.7-1.49.52.52,0,0,1,.68.06c.43.44.9.88,1.38,1.33a.49.49,0,0,1,.17.38A.51.51,0,0,1,115,30c-.72.71-1.4,1.34-2.07,1.92A.53.53,0,0,1,112.58,32Zm-.71-1.88.63.58.09.07c.42-.37.84-.76,1.29-1.19-.24-.22-.46-.44-.68-.66-.43.35-.83.73-1.25,1.13Z"/><path class="cls-2" d="M118.51,25.23h-.11a2.15,2.15,0,0,1,0-4.28,2.21,2.21,0,0,1,2.13,1.49,1.86,1.86,0,0,1,.11.57,2.16,2.16,0,0,1-.65,1.62A2.1,2.1,0,0,1,118.51,25.23Zm0-3.23h0a1.09,1.09,0,0,0-.91,1.16,1.07,1.07,0,0,0,.91,1,1,1,0,0,0,.81-.3,1.1,1.1,0,0,0,.33-.84.64.64,0,0,0,0-.24A1.17,1.17,0,0,0,118.5,22Z"/><path class="cls-2" d="M93,36.09a2.06,2.06,0,0,1-1.47-.6,2.08,2.08,0,0,1-.6-1.5,2,2,0,0,1,1.53-2A2,2,0,0,1,93,32a2,2,0,0,1,2,1.87,2.2,2.2,0,0,1-.58,1.61,2,2,0,0,1-1.42.64ZM93,33a.92.92,0,0,0-.29,0A.94.94,0,0,0,92,34a1,1,0,0,0,.29.75A1.08,1.08,0,0,0,93,35a.9.9,0,0,0,.67-.3,1.12,1.12,0,0,0,.3-.84A.92.92,0,0,0,93,33Z"/><path class="cls-2" d="M96.33,37.89a.74.74,0,0,1-.45-.15.69.69,0,0,1-.27-.55,1.79,1.79,0,0,1,0-.23s0-.05,0-.07a.57.57,0,0,1,.29-.47.7.7,0,0,1,.31-.07.83.83,0,0,1,.78.9A.66.66,0,0,1,96.33,37.89Zm-.17-1a.44.44,0,0,0-.18.36.26.26,0,0,0,.26.14.4.4,0,0,0,.16,0Zm0,0h.32A.27.27,0,0,0,96.17,36.89Z"/><path class="cls-2" d="M98.28,36.13A.55.55,0,0,1,98,36a.53.53,0,0,1-.13-.73A11.24,11.24,0,0,1,102.7,31a.53.53,0,0,1,.38,1,10.23,10.23,0,0,0-4.37,4A.52.52,0,0,1,98.28,36.13Z"/><path class="cls-2" d="M106.25,30.78a.78.78,0,0,1-.74-.7.87.87,0,0,1,.26-.59.51.51,0,0,1,.37-.15c.66,0,.74.42.75.56a1.11,1.11,0,0,1,0,.17.7.7,0,0,1-.33.6A.57.57,0,0,1,106.25,30.78Zm-.39-.72a.46.46,0,0,0,.28.31v-.51l.37.37a.23.23,0,0,0,0-.15.78.78,0,0,0,0-.14h-.17l.16,0a.27.27,0,0,0-.28-.19.52.52,0,0,0-.25.07A.38.38,0,0,0,105.86,30.06Zm0-.12Zm0,0Zm0,0Z"/><path class="cls-2" d="M90.12,50.5h-.2a5.13,5.13,0,0,1-4.87-4.92,5.3,5.3,0,0,1,4.34-5.52A6.94,6.94,0,0,1,90.72,40a5,5,0,0,1,4.79,4.86,5.45,5.45,0,0,1-5.39,5.65Zm-.6-9.4a4.23,4.23,0,0,0-3.42,4.44A4.07,4.07,0,0,0,90,49.45a4.33,4.33,0,0,0,3.22-1.28,4.42,4.42,0,0,0,1.29-3.28A4,4,0,0,0,90.67,41,6.13,6.13,0,0,0,89.52,41.1Z"/><path class="cls-2" d="M90.42,46.74c-.74,0-1.63-.34-1.63-2,0-.34,0-.7.06-1.06a9.24,9.24,0,0,0,.07-1,1.93,1.93,0,0,0,0-.24.51.51,0,0,1,.49-.55.52.52,0,0,1,.56.49c0,.1,0,.2,0,.3,0,.38,0,.77-.07,1.14a8.51,8.51,0,0,0-.07,1c0,.91.3.91.59.91a5.65,5.65,0,0,0,1-.15,6.56,6.56,0,0,1,1.3-.18.52.52,0,0,1,.52.53.52.52,0,0,1-.52.52,6,6,0,0,0-1.1.16A6.83,6.83,0,0,1,90.42,46.74Z"/><path class="cls-2" d="M67.92,46.79a6.14,6.14,0,0,1-5.23-2.57.54.54,0,0,1,.15-.73.53.53,0,0,1,.73.15,5.09,5.09,0,0,0,4.35,2.11,5.9,5.9,0,0,0,1.51-.19.52.52,0,0,1,.63.38.53.53,0,0,1-.38.64A7.37,7.37,0,0,1,67.92,46.79Z"/><path class="cls-2" d="M66,48.46a7.15,7.15,0,0,1-4-1.53.52.52,0,0,1-.13-.73.52.52,0,0,1,.72-.13,6,6,0,0,0,3.53,1.33.53.53,0,0,1,.06,1.05Z"/><path class="cls-2" d="M68.87,49a.83.83,0,0,1-.8-.78c0-.06,0-.58.7-.58a.52.52,0,0,1,.37.15l.2-.2a.91.91,0,0,1,.33.64A.81.81,0,0,1,68.87,49Zm0-1a.25.25,0,0,0-.25.28.28.28,0,0,0,0,.1L69,48Z"/><path class="cls-2" d="M74.68,45.19l-.67,0a.54.54,0,0,1-.43-.29,9,9,0,0,1-4.19-1.09A4.18,4.18,0,0,1,67,40.11c0-2.32,2.71-3.92,3.74-4a7.74,7.74,0,0,1,6.21-4,3.76,3.76,0,0,1,3.55,4,4.26,4.26,0,0,1,1.73,3.38C82.26,42.63,78.11,45.19,74.68,45.19Zm-.52-1.06.52,0c3.24,0,6.54-2.38,6.54-4.71a3.19,3.19,0,0,0-.87-2.15,2.62,2.62,0,0,1-2.63,1.86,2,2,0,0,1-2.11-1.84c0-1.28,1.58-2,2.72-2a3.63,3.63,0,0,1,1.11.17A2.62,2.62,0,0,0,77,33.11,6.65,6.65,0,0,0,71.8,36.4a4.38,4.38,0,0,1,1.92,3.09,1.54,1.54,0,0,1-1.59,1.38,2.2,2.2,0,0,1-2-2.25,5.43,5.43,0,0,1,.16-1.29c-.84.4-2.23,1.4-2.23,2.78,0,2.57,3.28,3.73,5.61,3.73A.5.5,0,0,1,74.16,44.13ZM71.38,37.4a4.14,4.14,0,0,0-.18,1.22c0,.54.42,1.2.93,1.2.29,0,.54-.21.54-.33A3.11,3.11,0,0,0,71.38,37.4Zm7-1c-.75,0-1.67.42-1.67.91s.62.8,1.06.8a1.63,1.63,0,0,0,1.72-1.48A2.69,2.69,0,0,0,78.33,36.4Z"/><path class="cls-2" d="M78.42,27.59a.54.54,0,0,1-.36-.14.52.52,0,0,1-.16-.37c0-1.09,0-2.23,0-3.33,0-2.29,0-4.45-.18-5.76a.53.53,0,0,1,.5-.58c2.33-.08,4.64-.29,6.81-.5a.55.55,0,0,1,.39.12.57.57,0,0,1,.18.37c.12,2,.18,4.1.24,6.11,0,1.07.06,2.15.1,3.22a.54.54,0,0,1-.15.38.51.51,0,0,1-.37.16c-1.32,0-2.67.09-4,.17C80.43,27.5,79.43,27.56,78.42,27.59Zm.35-9.16c.1,1.37.11,3.29.13,5.31,0,.92,0,1.86,0,2.78l2.4-.12c1.15-.07,2.32-.14,3.49-.17,0-.89,0-1.79-.08-2.69,0-1.82-.11-3.7-.21-5.54C82.69,18.18,80.75,18.35,78.77,18.43Z"/><path class="cls-2" d="M103.89,22.49h-.23a5.81,5.81,0,0,1-5.41-6,5.6,5.6,0,0,1,5-5.56h.24a6.22,6.22,0,0,1,4.58,1.55,5.47,5.47,0,0,1,1.74,3.93,5.93,5.93,0,0,1-1.77,4.38A6,6,0,0,1,103.89,22.49Zm0-10.57h-.51a4.55,4.55,0,0,0-4.08,4.54,4.71,4.71,0,0,0,4.4,5A5,5,0,0,0,107.35,20a4.83,4.83,0,0,0,1.46-3.6,4.44,4.44,0,0,0-1.41-3.19A5.1,5.1,0,0,0,103.89,11.92Z"/><path class="cls-2" d="M104.08,19.68a3.31,3.31,0,0,1-1.58-.4.52.52,0,1,1,.51-.91,2.29,2.29,0,0,0,1.07.27c1,0,1.21-.63,1.22-.75a.65.65,0,0,0-.52-.24,6.79,6.79,0,0,0-.71.06,7.14,7.14,0,0,1-.93.08,1.59,1.59,0,0,1-1.77-1.62c0-1.21,1.32-1.83,3.93-1.83a.52.52,0,0,1,.52.53.52.52,0,0,1-.52.52c-2.13,0-2.89.42-2.89.78s.09.58.73.58a7.64,7.64,0,0,0,.8-.07,6.11,6.11,0,0,1,.84-.08,1.48,1.48,0,0,1,1.57,1.29A2.08,2.08,0,0,1,104.08,19.68Z"/><path class="cls-2" d="M103.84,15.5a.51.51,0,0,1-.52-.47,16,16,0,0,1-.06-1.68.52.52,0,1,1,1,0,13.74,13.74,0,0,0,.06,1.58.52.52,0,0,1-.47.57Z"/><path class="cls-2" d="M104.68,21.12h-.07a.54.54,0,0,1-.45-.6.86.86,0,0,0,0-.16,3.8,3.8,0,0,0,0-.46,4.73,4.73,0,0,1,0-.54.53.53,0,0,1,1.05,0,3.34,3.34,0,0,0,0,.43,5.1,5.1,0,0,1,0,.57c0,.1,0,.21,0,.31A.53.53,0,0,1,104.68,21.12Z"/><path class="cls-2" d="M95.12,13.75H95A1.72,1.72,0,0,1,93.42,12a1.77,1.77,0,0,1,.89-1.56,1.58,1.58,0,0,1,.74-.22,1.82,1.82,0,0,1,1.32.5A1.75,1.75,0,0,1,96.91,12a1.76,1.76,0,0,1-1.79,1.76Zm0-2.47h0a.85.85,0,0,0-.27.09.75.75,0,0,0-.36.64.69.69,0,0,0,.62.69.71.71,0,0,0,.78-.71.72.72,0,0,0-.22-.5A.78.78,0,0,0,95.12,11.28Z"/><path class="cls-2" d="M81,21.24a3,3,0,0,1-1-.15.52.52,0,1,1,.33-1,2.17,2.17,0,0,0,.67.09q.3,0,.6,0c.21,0,.43,0,.65,0a.52.52,0,0,1,.52.52.52.52,0,0,1-.52.53l-.58,0C81.47,21.22,81.25,21.24,81,21.24Z"/><path class="cls-2" d="M81,23.05l-.38,0a.52.52,0,0,1-.47-.57.51.51,0,0,1,.57-.47,5.69,5.69,0,0,0,1.59-.16.52.52,0,0,1,.2,1A7.07,7.07,0,0,1,81,23.05Z"/><path class="cls-2" d="M82,25H81a.52.52,0,0,1-.52-.53A.52.52,0,0,1,81,24h1A6,6,0,0,0,83,23.9a.53.53,0,0,1,.6.43.51.51,0,0,1-.43.6A5.89,5.89,0,0,1,82,25Z"/><path class="cls-2" d="M78.17,14.53a.5.5,0,0,1-.27-.07c-.8-.47-1.56-1-2.26-1.49a.5.5,0,0,1-.22-.43.51.51,0,0,1,.23-.43l.58-.38c.65-.42,1.3-.84,1.94-1.27a.51.51,0,0,1,.57,0A.52.52,0,0,1,79,11c-.09.59-.14,1.21-.18,1.81,0,.42-.07.86-.11,1.29a.54.54,0,0,1-.29.41A.59.59,0,0,1,78.17,14.53Zm-1.29-2c.27.19.55.38.84.56l0-.42.06-.75Z"/><path class="cls-2" d="M91.66,25.56H91.6a.54.54,0,0,1-.46-.59c.16-1.22.41-2.44.66-3.61s.48-2.35.63-3.52a20.6,20.6,0,0,0-13.7-4.7.52.52,0,0,1,0-1,21.57,21.57,0,0,1,14.61,5.14.54.54,0,0,1,.17.45c-.15,1.31-.43,2.62-.69,3.88s-.49,2.35-.64,3.53A.52.52,0,0,1,91.66,25.56Z"/><path class="cls-2" d="M91.35,28.12a1.85,1.85,0,0,1-1.29-.53,1.82,1.82,0,0,1-.55-1.32,1.91,1.91,0,0,1,1.77-1.82,1.81,1.81,0,0,1,1,.33,1.91,1.91,0,0,1,.82,1.65,1.82,1.82,0,0,1-1.74,1.69Zm0-2.62a.87.87,0,0,0-.75.78.77.77,0,0,0,.23.56.82.82,0,0,0,.58.23.76.76,0,0,0,.72-.69.89.89,0,0,0-.34-.72.71.71,0,0,0-.31-.14Z"/><path class="cls-2" d="M100.29,29.32a.63.63,0,0,1-.19,0l-.55-.22a23,23,0,0,0-6.82-1.94.53.53,0,0,1-.48-.56.51.51,0,0,1,.56-.48,23.76,23.76,0,0,1,7.13,2l.26.1a22.17,22.17,0,0,1,9.32-3.9.52.52,0,0,1,.62.4.53.53,0,0,1-.41.62,20.79,20.79,0,0,0-9.11,3.89A.55.55,0,0,1,100.29,29.32Z"/><path class="cls-2" d="M91.14,9.21A.53.53,0,0,1,90.72,9a14,14,0,0,1-1-1.71c-.15-.29-.3-.56-.45-.83-1,.51-1.88,1-2.82,1.62A.52.52,0,0,1,85.76,8a18.42,18.42,0,0,1-1.71-2.1l-.4.19c-.84.4-1.72.83-2.53,1.3a.53.53,0,0,1-.71-.18c-.27-.45-.54-.91-.79-1.36-.14-.24-.27-.49-.42-.73l-.74.44a19.87,19.87,0,0,0-2.55,1.64.53.53,0,0,1-.74-.09.52.52,0,0,1,.09-.73,21.31,21.31,0,0,1,2.67-1.73L79.11,4a.51.51,0,0,1,.72.17c.24.39.47.8.7,1.21l.51.89c.71-.39,1.45-.74,2.16-1.09L84,4.75a.52.52,0,0,1,.66.18,19.75,19.75,0,0,0,1.58,2c1-.58,1.94-1.12,2.94-1.65a.52.52,0,0,1,.68.18c.28.42.52.87.76,1.3a11.6,11.6,0,0,0,1,1.58.54.54,0,0,1-.1.74A.55.55,0,0,1,91.14,9.21Z"/><path class="cls-2" d="M88.84,8.65h-.11A37.89,37.89,0,0,0,76.49,8a.52.52,0,0,1-.13-1,39.42,39.42,0,0,1,12.58.62.53.53,0,0,1-.1,1Z"/><path class="cls-2" d="M66.06,11.43h0a3.4,3.4,0,0,1-2.42-1.08,3.65,3.65,0,0,1-1-2.64A3.34,3.34,0,0,1,65.8,4.33a3.73,3.73,0,0,1,2.73,1,3.38,3.38,0,0,1,1.08,2.39,3.65,3.65,0,0,1-1,2.71A3.53,3.53,0,0,1,66.06,11.43ZM65,5.59a2.39,2.39,0,0,0-1.33,2.15,2.63,2.63,0,0,0,.72,1.89,2.38,2.38,0,0,0,1.68.75,2.46,2.46,0,0,0,1.84-.73,2.63,2.63,0,0,0,.71-1.94,2.32,2.32,0,0,0-.75-1.66,2.75,2.75,0,0,0-2-.68A2.48,2.48,0,0,0,65,5.59Z"/><path class="cls-2" d="M63.08,16.48a.5.5,0,0,1-.27-.08.51.51,0,0,1-.26-.39c0-.3,0-.59,0-.88,0-2.48,1-4.22,2.81-4.75a.52.52,0,0,1,.65.35.51.51,0,0,1-.35.65c-1.79.54-2.06,2.58-2.06,3.75v.08a17.86,17.86,0,0,1,5.08-1,5.67,5.67,0,0,0-1.92-3.19.54.54,0,0,1-.09-.74.53.53,0,0,1,.74-.09,7,7,0,0,1,2.42,4.43.49.49,0,0,1-.11.42.49.49,0,0,1-.39.19,16.74,16.74,0,0,0-6,1.16A.79.79,0,0,1,63.08,16.48Z"/><path class="cls-2" d="M63.51,9.16A.53.53,0,0,1,63,8.72a.52.52,0,0,1,.43-.6c.81-.14,1.14-.61,1.65-1.32a7.13,7.13,0,0,1,1.85-1.92.53.53,0,0,1,.73.15.52.52,0,0,1-.15.72,6.12,6.12,0,0,0-1.58,1.66A3.46,3.46,0,0,1,63.6,9.15Z"/><path class="cls-2" d="M51.06,10.25h0A2.05,2.05,0,0,1,49,8.2a2.1,2.1,0,0,1,1.73-2.15,1.43,1.43,0,0,1,.36,0,2,2,0,0,1,1.43.61,2.13,2.13,0,0,1-1.48,3.61Zm-.14-3.16a1,1,0,0,0-.86,1.09,1,1,0,0,0,1,1,1.11,1.11,0,0,0,1-1,1.13,1.13,0,0,0-.3-.83,1,1,0,0,0-.69-.29Z"/><path class="cls-2" d="M71.06,27a2.14,2.14,0,0,1-1.54-.65,2.33,2.33,0,0,1-.64-1.71,2.2,2.2,0,0,1,1.85-2.06h.15a2.3,2.3,0,0,1,1.66.62A2.21,2.21,0,0,1,71.09,27ZM71,23.57h-.11a1.12,1.12,0,0,0-.95,1.06,1.23,1.23,0,0,0,.35.94,1,1,0,0,0,.78.34,1.2,1.2,0,0,0,1.12-1.16,1.13,1.13,0,0,0-.37-.85A1.17,1.17,0,0,0,71,23.57Z"/><path class="cls-2" d="M39.93,20.86h-.17A7.08,7.08,0,0,1,39,6.79a8.39,8.39,0,0,1,1-.06,6.76,6.76,0,0,1,5,2,7.43,7.43,0,0,1,2.08,5.34A7.07,7.07,0,0,1,39.93,20.86ZM40,7.77a6.4,6.4,0,0,0-.88.06,6,6,0,0,0,.64,12h.15A6,6,0,0,0,46,14.08,6.45,6.45,0,0,0,44.24,9.5,5.75,5.75,0,0,0,40,7.77Z"/><path class="cls-2" d="M39.67,17.23a2.45,2.45,0,0,1-1.61-.48.53.53,0,0,1,.63-.84,1.42,1.42,0,0,0,1,.28c1.1,0,2.34-.7,2.34-1.62,0-.52-.51-.57-.73-.57a3.26,3.26,0,0,0-1.37.51,3.65,3.65,0,0,1-1.55.54,1.42,1.42,0,0,1-1.56-1.39c0-1.85,2.08-2.51,3.46-2.94l.45-.15a.53.53,0,0,1,.66.33.54.54,0,0,1-.33.67l-.47.15c-1.49.47-2.72.94-2.72,1.94,0,.23.17.34.51.34a2.88,2.88,0,0,0,1-.42A4.2,4.2,0,0,1,41.28,13a1.63,1.63,0,0,1,1.78,1.62C43.06,16.16,41.31,17.23,39.67,17.23Z"/><path class="cls-2" d="M39.13,12.35a.51.51,0,0,1-.41-.21,3.81,3.81,0,0,1-.86-2,.52.52,0,0,1,.47-.57.53.53,0,0,1,.57.47,2.7,2.7,0,0,0,.65,1.47.53.53,0,0,1-.42.85Z"/><path class="cls-2" d="M42.15,18.44a.53.53,0,0,1-.43-.22,8.22,8.22,0,0,1-.6-1.07L41,16.88a.53.53,0,0,1,.23-.71.52.52,0,0,1,.7.24l.14.28a5.79,5.79,0,0,0,.52.92.53.53,0,0,1-.13.73A.47.47,0,0,1,42.15,18.44Z"/><path class="cls-2" d="M49.28,50.35a.52.52,0,0,1-.52-.53c0-.24,0-.49,0-.73s0-.53,0-.8c0-2.17-.63-2.49-1.5-2.93a4.22,4.22,0,0,1-1.61-1.24,10.17,10.17,0,0,1-1.63-5.41,1.11,1.11,0,0,0,0-.19h-.22a1.93,1.93,0,0,1-2.14-2.09,2.88,2.88,0,0,1,1.5-2.39,21.7,21.7,0,0,1-.68-4.93,5.36,5.36,0,0,1,1.3-3.78,3.48,3.48,0,0,1,2.46-1.19,2.57,2.57,0,0,1,.87.15A8,8,0,0,1,50,21.59a11.61,11.61,0,0,1,6-1.62c2.64,0,5.79.66,5.79,3.79v.15a.53.53,0,0,1-.54.51.52.52,0,0,1-.5-.54v-.12c0-.68,0-2.74-4.75-2.74-4.18,0-7.42,2.46-8.06,4.16a.5.5,0,0,1-.31.31.55.55,0,0,1-.45,0,1.56,1.56,0,0,0-.85-.25c-.88,0-2.71,1-2.71,3.92a20,20,0,0,0,.75,5,.52.52,0,0,1-.28.65,2,2,0,0,0-1.29,1.65c0,.75.3,1,1.09,1a2.15,2.15,0,0,0,.56-.07.53.53,0,0,1,.65.45c0,.25,0,.5.07.74a9.17,9.17,0,0,0,1.43,4.89,3.09,3.09,0,0,0,1.25.93c1,.5,2.07,1,2.07,3.87,0,.28,0,.55,0,.83s0,.47,0,.71A.52.52,0,0,1,49.28,50.35Z"/><path class="cls-2" d="M55.13,50.54a.53.53,0,0,1-.52-.42,6.51,6.51,0,0,1-.13-1.3c0-2.71,1.52-3.48,3-4.23,2-1,4.31-2.19,4.31-8.66A3.31,3.31,0,0,0,61.3,34a4.83,4.83,0,0,1-.67-2.7,15.38,15.38,0,0,1,.16-1.94,14.55,14.55,0,0,0,.15-1.82,4.67,4.67,0,0,0-.25-1.6.52.52,0,0,1,.33-.66.51.51,0,0,1,.66.32A5.64,5.64,0,0,1,62,27.58a15.54,15.54,0,0,1-.16,1.94,14.55,14.55,0,0,0-.15,1.82,3.8,3.8,0,0,0,.54,2.2,4.26,4.26,0,0,1,.62,2.39c0,7.12-2.71,8.49-4.88,9.59-1.47.75-2.44,1.24-2.44,3.3a5.2,5.2,0,0,0,.12,1.09.51.51,0,0,1-.41.61Z"/><path class="cls-2" d="M45.05,34.64a.54.54,0,0,1-.46-.28.52.52,0,0,1,.22-.71,7.25,7.25,0,0,0,3.83-6.44,7.5,7.5,0,0,0,0-.82.52.52,0,0,1,.46-.58.54.54,0,0,1,.58.47c0,.31,0,.62,0,.93a8.3,8.3,0,0,1-4.39,7.36A.45.45,0,0,1,45.05,34.64Z"/><path class="cls-2" d="M49.75,25.75a.52.52,0,0,1-.46-.28.53.53,0,0,1,.22-.7,15.07,15.07,0,0,1,7-2.06c2.2,0,2.77.45,3.29,1a1.56,1.56,0,0,0,.39.34.52.52,0,1,1-.51.91,2.25,2.25,0,0,1-.66-.55c-.31-.35-.61-.68-2.51-.68A14,14,0,0,0,50,25.7.53.53,0,0,1,49.75,25.75Z"/><path class="cls-2" d="M59.39,27.67a.51.51,0,0,1-.44-.24,4.13,4.13,0,0,0-3.55-1.78,5.72,5.72,0,0,0-2.46.57.52.52,0,0,1-.7-.24.54.54,0,0,1,.24-.7,6.78,6.78,0,0,1,2.92-.67,5.18,5.18,0,0,1,4.43,2.25.53.53,0,0,1-.44.81Z"/><path class="cls-2" d="M54.58,40.7a1.16,1.16,0,0,1-.45-.09A.51.51,0,0,1,53.8,40a.52.52,0,0,1,.66-.33.27.27,0,0,0,.12,0c.44,0,1-.71,1-1.07l-.32.11a2.32,2.32,0,0,1-.85.22c-1.25,0-1.58-2-1.58-3.15,0-.34,0-.7,0-1s0-.65,0-1c0-.15,0-.3,0-.45a.52.52,0,0,1,.49-.55.53.53,0,0,1,.56.48c0,.17,0,.35,0,.52,0,.34,0,.69,0,1s0,.66,0,1a3.12,3.12,0,0,0,.54,2.1,1.59,1.59,0,0,0,.47-.14,2.18,2.18,0,0,1,.75-.19,1,1,0,0,1,1,1A2.32,2.32,0,0,1,54.58,40.7Z"/><path class="cls-2" d="M49.5,35.74a.82.82,0,0,1-.89-.77,1.07,1.07,0,0,1,.36-.7.59.59,0,0,1,.33-.15.46.46,0,0,1,.15-.09l.23,0a1,1,0,0,1,.89.84A1,1,0,0,1,49.5,35.74Z"/><path class="cls-2" d="M56.93,35.15a.93.93,0,0,1-1-.92.85.85,0,0,1,1-.86H57c.85,0,.9.56.9.67s0,.06,0,.09,0,.07,0,.1A.93.93,0,0,1,56.93,35.15Zm0-.92.06.09a.16.16,0,0,0,0-.09.17.17,0,0,0-.06-.12l0,0Zm0-.07a.14.14,0,0,0,0,.07v-.1Z"/><path class="cls-2" d="M48.42,33.63a.52.52,0,0,1-.39-.17.52.52,0,0,1,0-.74,3.64,3.64,0,0,1,2.49-.86.52.52,0,1,1,0,1,2.67,2.67,0,0,0-1.79.6A.51.51,0,0,1,48.42,33.63Z"/><path class="cls-2" d="M57.81,32.28a.59.59,0,0,1-.22-.05l-.12-.06A3.16,3.16,0,0,0,56,31.76a.53.53,0,0,1-.09-1.05,4.09,4.09,0,0,1,2,.51l.13.06a.52.52,0,0,1,.26.69A.54.54,0,0,1,57.81,32.28Z"/><path class="cls-2" d="M52.81,42.88a2.19,2.19,0,0,1-1.43-.5.51.51,0,0,1-.08-.73.53.53,0,0,1,.74-.08,1.17,1.17,0,0,0,.77.26,1.67,1.67,0,0,0,.7-.16.52.52,0,0,1,.7.23.53.53,0,0,1-.23.7A2.62,2.62,0,0,1,52.81,42.88Z"/><path class="cls-2" d="M36.32,76.29a.51.51,0,0,1-.31-.11.49.49,0,0,1-.21-.4c0-.61,0-1.21,0-1.82,0-10.83,1.1-17.23,3.58-20.73s6.46-3.93,10.56-3.93c1.28,0,2.59.06,3.85.12s2.46.12,3.63.12h.79c2.35,0,3.88.36,5,1.19,1.28,1,1.9,2.61,1.9,5,0,.62,0,1.25-.08,1.84a.53.53,0,0,1-.56.49.52.52,0,0,1-.48-.56c0-.58.07-1.19.07-1.77,0-4.33-2-5.16-5.81-5.16H57.4c-1.2,0-2.46-.06-3.68-.12s-2.55-.12-3.8-.12c-8.12,0-13.1,1.14-13.1,23.61,0,.38,0,.77,0,1.15a18.56,18.56,0,0,1,5.94-.36c0-.49,0-1,0-1.49a67.58,67.58,0,0,0-.61-7.79c-.21-1.8-.43-3.67-.54-5.52a.52.52,0,0,1,.49-.55.52.52,0,0,1,.55.49c.11,1.82.33,3.67.54,5.46a69.13,69.13,0,0,1,.61,7.91c0,.72,0,1.43-.07,2.11a.52.52,0,0,1-.19.37.52.52,0,0,1-.4.11,17.93,17.93,0,0,0-6.74.42Z"/><path class="cls-2" d="M48.55,54.42l-.13,0a.54.54,0,0,1-.35-.29A28.85,28.85,0,0,0,46.3,50.6a.52.52,0,0,1,.17-.72.53.53,0,0,1,.72.17,25.05,25.05,0,0,1,1.57,3c.44-.31.9-.6,1.34-.89s.83-.54,1.24-.82a.5.5,0,0,1,.49-.06,24.14,24.14,0,0,1,3.05,1.4,15.67,15.67,0,0,1,2.07-3,.52.52,0,0,1,.77.71,15.18,15.18,0,0,0-2,2.94l-.2.34a.52.52,0,0,1-.32.24.49.49,0,0,1-.39,0,23.47,23.47,0,0,0-3.11-1.5q-.52.36-1.05.69c-.6.39-1.22.8-1.79,1.23A.54.54,0,0,1,48.55,54.42Z"/><path class="cls-2" d="M51.34,55.65c-1.4,0-1.9-1.63-2.12-2.32a.53.53,0,0,1,.35-.66.52.52,0,0,1,.65.35c.24.78.57,1.58,1.12,1.58,2,0,2-1,2-1.73a2.35,2.35,0,0,1,0-.28.52.52,0,1,1,1,.11,1.56,1.56,0,0,1,0,.2C54.39,53.65,54.34,55.65,51.34,55.65Z"/><path class="cls-2" d="M39.54,82.76c-1.71,0-4.41-.81-4.41-3a.52.52,0,0,1,.18-.4,3.39,3.39,0,0,0,1-2.36,4.36,4.36,0,0,0,0-.51.52.52,0,1,1,1-.14,4.87,4.87,0,0,1,0,.65,4.42,4.42,0,0,1-1.17,3c.2,1.27,2.34,1.71,3.35,1.71,2.75,0,3.75-1.87,3.75-3.13A2.9,2.9,0,0,0,43.2,78a3.81,3.81,0,0,1-.12-.87.52.52,0,0,1,1,0,2.93,2.93,0,0,0,.1.64,3.88,3.88,0,0,1,.12.86C44.34,80.26,43.06,82.76,39.54,82.76Z"/><path class="cls-2" d="M37.21,81.82a.54.54,0,0,1-.37-.16.53.53,0,0,1,0-.74,7.64,7.64,0,0,0,1.22-1.61.52.52,0,0,1,.71-.18.51.51,0,0,1,.19.71,8.37,8.37,0,0,1-1.38,1.82A.52.52,0,0,1,37.21,81.82Z"/><path class="cls-2" d="M40.43,82.34a.58.58,0,0,1-.18,0,.52.52,0,0,1-.31-.67c.15-.38.33-.75.5-1.1A7.94,7.94,0,0,0,41,79.17a.53.53,0,0,1,1,.3A10.37,10.37,0,0,1,41.38,81c-.17.35-.33.67-.46,1A.53.53,0,0,1,40.43,82.34Z"/><path class="cls-2" d="M33.11,84.67a.52.52,0,0,1-.53-.51v-.22c0-2.25.84-5.06,3.21-6.18a.52.52,0,0,1,.7.24.53.53,0,0,1-.25.7c-1.93.92-2.61,3.31-2.61,5.24v.2A.51.51,0,0,1,33.11,84.67Z"/><path class="cls-2" d="M44.2,84.72a.52.52,0,0,1-.52-.44c0-.34-.09-.69-.12-1a6,6,0,0,0-.47-2.18.52.52,0,0,1,.22-.71.53.53,0,0,1,.7.22,6.84,6.84,0,0,1,.59,2.56c0,.34.06.67.11,1a.52.52,0,0,1-.43.6Z"/><path class="cls-2" d="M40.9,97.93l-4.5,0c-2,0-4,0-6,0a.53.53,0,0,1-.53-.5c-.15-2.48-.32-5.75-.32-9.07,0-1.37,0-2.71.09-4a.52.52,0,0,1,.47-.5c2.19-.21,4.54-.3,7.38-.3,1.94,0,3.91,0,5.82.08l3,.07a.51.51,0,0,1,.52.51L47,97.34a.53.53,0,0,1-.51.53C44.82,97.91,43.05,97.93,40.9,97.93Zm-9-1.09,4.51,0,4.49,0c1.92,0,3.53,0,5,0l-.16-12.08-2.53,0c-1.9,0-3.86-.09-5.79-.09-2.61,0-4.8.09-6.83.26,0,1.11-.07,2.27-.07,3.46,0,3.08.16,6.12.3,8.52Z"/><path class="cls-2" d="M39.25,93.35h0l-3-.12a.51.51,0,0,1-.49-.45c-.1-.7-.19-1.46-.27-2.45a.51.51,0,0,1,.12-.39.55.55,0,0,1,.38-.18c.79,0,1.6,0,2.38,0l1.08,0a.52.52,0,0,1,.39.17.54.54,0,0,1,.12.41c0,.53-.07,1.06-.09,1.62l0,.85A.53.53,0,0,1,39.25,93.35ZM36.67,92.2l2.08.09c0-.11,0-.21,0-.31,0-.38,0-.76.05-1.14h-.53c-.59,0-1.17,0-1.76,0C36.57,91.32,36.62,91.78,36.67,92.2Z"/><path class="cls-2" d="M35.82,92c-3.69,0-4.89-3.48-5.86-6.26-.08-.25-.17-.5-.25-.73a.52.52,0,0,1,.31-.67.51.51,0,0,1,.67.32c.09.23.17.48.26.73C31.85,88,32.87,91,35.82,91h.08a.52.52,0,0,1,.53.51.51.51,0,0,1-.51.53Z"/><path class="cls-2" d="M39.88,92.27l-.43,0A.52.52,0,0,1,39,91.7a.52.52,0,0,1,.55-.49h.37c4.41,0,4.81-3,5.13-5.45a10.29,10.29,0,0,1,.3-1.59.52.52,0,1,1,1,.31,10.13,10.13,0,0,0-.25,1.42C45.73,88.29,45.2,92.27,39.88,92.27Z"/><path class="cls-2" d="M51.57,76.69a.51.51,0,0,1-.38-.16c-.89-.94-1.9-1.81-2.88-2.66-.52-.44-1.05-.91-1.56-1.37a.51.51,0,0,1-.16-.49c.43-2.13.91-4.27,1.38-6.35.8-3.48,1.62-7.09,2.18-10.66a.52.52,0,1,1,1,.16c-.57,3.61-1.39,7.23-2.18,10.73-.45,2-.92,4-1.33,6L49,73.08a39.86,39.86,0,0,1,3,2.73.52.52,0,0,1,0,.74A.54.54,0,0,1,51.57,76.69Z"/><path class="cls-2" d="M55.21,66.64a.52.52,0,0,1-.5-.39l-.18-.68c-.86-3.35-1.74-6.81-2.28-10.28a.53.53,0,0,1,1-.16c.52,3.42,1.4,6.85,2.25,10.18l.18.68a.52.52,0,0,1-.38.63A.3.3,0,0,1,55.21,66.64Z"/><path class="cls-2" d="M75.89,104.84a24.5,24.5,0,0,1-17.6-7.37A26.22,26.22,0,0,1,50.87,78.7,25.09,25.09,0,0,1,66.33,56.07a.52.52,0,0,1,.69.27.53.53,0,0,1-.28.69A24.06,24.06,0,0,0,51.91,78.72a25.23,25.23,0,0,0,7.12,18,23.48,23.48,0,0,0,16.86,7.05h0a23.35,23.35,0,0,0,16.81-7A25.35,25.35,0,0,0,99.8,78.67a23,23,0,0,0-10.44-19.1,28.19,28.19,0,0,0-9.13-3.88.53.53,0,0,1,.22-1,29.15,29.15,0,0,1,9.47,4,24,24,0,0,1,10.93,20,26.39,26.39,0,0,1-7.38,18.88,24.42,24.42,0,0,1-17.55,7.31Z"/><path class="cls-2" d="M77.9,55.31h-.21a.52.52,0,0,1-.47-.57.51.51,0,0,1,.57-.47H78a.53.53,0,0,1,0,1.05Z"/><path class="cls-2" d="M65.51,77.38a.5.5,0,0,1-.35-.14C63.59,75.77,61,72.8,61,69.49c0-3.11,1.83-5,4.87-5,2.08,0,2.78.92,2.78,3.66A18.24,18.24,0,0,1,66.81,75c-.28.67-.56,1.37-.8,2.05a.53.53,0,0,1-.37.33Zm.31-11.8C63.36,65.58,62,67,62,69.49s1.87,5,3.31,6.43c.17-.44.35-.89.53-1.32a17.52,17.52,0,0,0,1.71-6.41C67.55,65.58,66.94,65.58,65.82,65.58Z"/><path class="cls-2" d="M64.82,70.92a2,2,0,0,1-1.34-.49,1.85,1.85,0,0,1-.59-1.34,1.94,1.94,0,0,1,.82-1.59,1.59,1.59,0,0,1,.85-.33,2.08,2.08,0,0,1,1.45.52,1.7,1.7,0,0,1,.63,1.16A1.94,1.94,0,0,1,65,70.92Zm-.14-2.7h0a.53.53,0,0,0-.28.1.89.89,0,0,0-.42.76.77.77,0,0,0,.24.57.92.92,0,0,0,.74.22.88.88,0,0,0,.67-.94.69.69,0,0,0-.26-.45A1.07,1.07,0,0,0,64.68,68.22Z"/><path class="cls-2" d="M63.63,96.62a.51.51,0,0,1-.52-.47c-.22-2.05-.35-4.13-.47-6.14v-.14a.52.52,0,0,1,.46-.55c3.12-.34,6.47-.66,9.89-.7a.52.52,0,0,1,.53.5c0,.74.09,1.47.13,2.21.1,1.51.2,3.07.2,4.61a.51.51,0,0,1-.51.52c-2.31.07-4.64.1-6.9.12Zm.07-6.32c.11,1.73.23,3.51.4,5.27l2.32,0c2.09,0,4.24-.05,6.37-.11,0-1.34-.11-2.71-.19-4,0-.58-.08-1.15-.11-1.72C69.47,89.74,66.5,90,63.7,90.3Z"/><path class="cls-2" d="M66.45,89.65a.52.52,0,0,1-.52-.5c-.08-1.73-.23-3.52-.44-5.16a.52.52,0,0,1,.45-.59.51.51,0,0,1,.58.46c.22,1.67.38,3.48.45,5.25a.52.52,0,0,1-.5.54Z"/><path class="cls-2" d="M66.48,87.71a.53.53,0,0,1,0-1,19.75,19.75,0,0,0,3-.34,1.38,1.38,0,0,1-.31-.83,2.67,2.67,0,0,1,.13-.85c-.81.09-1.8.16-3,.2a.53.53,0,0,1,0-1,26.48,26.48,0,0,0,4-.36.54.54,0,0,1,.69.3.54.54,0,0,1-.24.67,1.18,1.18,0,0,0-.56,1.09.83.83,0,0,0,.19.31.93.93,0,0,1,.24,1c-.23.5-.84.71-4,.95Z"/><path class="cls-2" d="M65.31,92.53a1.22,1.22,0,0,1-1.09-.59.52.52,0,0,1,.18-.72.51.51,0,0,1,.71.17.19.19,0,0,0,.2.1,2.48,2.48,0,0,0,.69-.17l.34-.11a.52.52,0,1,1,.28,1l-.28.09A3.44,3.44,0,0,1,65.31,92.53Z"/><path class="cls-2" d="M68.32,92.21a1.66,1.66,0,0,1-.91-.25.52.52,0,0,1-.16-.73.53.53,0,0,1,.72-.16c.3.19.79,0,1.26-.13l0,0a.52.52,0,0,1,.36,1l0,0A3.69,3.69,0,0,1,68.32,92.21Z"/><path class="cls-2" d="M71.41,91.89a4,4,0,0,1-.49,0,2.53,2.53,0,0,0-.54,0,.52.52,0,0,1-.59-.44.53.53,0,0,1,.44-.6,3.54,3.54,0,0,1,.8,0l.38,0a.52.52,0,0,1,.53.52A.53.53,0,0,1,71.41,91.89Z"/><path class="cls-2" d="M67.29,94.31a7.43,7.43,0,0,1-1-.09l-.58-.07a.52.52,0,1,1,.09-1c.22,0,.43,0,.64.07a4,4,0,0,0,1,.08.52.52,0,1,1,.09,1Z"/><path class="cls-2" d="M69.13,94a1.23,1.23,0,0,1-.27,0A.52.52,0,1,1,69,93a1.31,1.31,0,0,0,.39,0,2.86,2.86,0,0,1,.43,0,.53.53,0,0,1,.53.53.52.52,0,0,1-.53.52l-.29,0C69.43,94,69.28,94,69.13,94Z"/><path class="cls-2" d="M70.46,94a.52.52,0,0,1-.53-.52.53.53,0,0,1,.53-.53,1.64,1.64,0,0,0,.56-.11.52.52,0,0,1,.68.29.54.54,0,0,1-.29.68A2.51,2.51,0,0,1,70.46,94Z"/><path class="cls-2" d="M84.56,86.14a.54.54,0,0,1-.53-.51c-.12-3.24-.14-6.5-.14-9,0-1.21,0-2.43,0-3.64V70.66a.52.52,0,0,1,.48-.52,47.05,47.05,0,0,1,7.13,0,.54.54,0,0,1,.49.54c-.06,2-.09,4-.09,5.9,0,3.11.08,6.12.24,9a.54.54,0,0,1-.14.39.52.52,0,0,1-.38.17c-1.49,0-3,0-4.49,0Zm.4-15V73c0,1.21,0,2.43,0,3.64,0,2.34,0,5.37.12,8.43h2.09l3.93,0c-.14-2.7-.21-5.55-.21-8.48,0-1.74,0-3.57.08-5.43A46,46,0,0,0,85,71.15Z"/><path class="cls-2" d="M85.84,74.72h-.27a.52.52,0,0,1-.46-.58.53.53,0,0,1,.58-.46,2.85,2.85,0,0,0,.7,0,5.21,5.21,0,0,1,.7-.06.52.52,0,1,1,0,1,3.84,3.84,0,0,0-.55.06A5.21,5.21,0,0,1,85.84,74.72Z"/><path class="cls-2" d="M89.26,74.6a2.59,2.59,0,0,1-.41,0,.79.79,0,0,0-.3,0,.52.52,0,0,1-.61-.41.52.52,0,0,1,.41-.62,2.13,2.13,0,0,1,.67,0l.24,0a.52.52,0,1,1,0,1Z"/><path class="cls-2" d="M87,77H86a.52.52,0,0,1-.53-.52.53.53,0,0,1,.53-.53h1a.53.53,0,0,1,.53.53A.52.52,0,0,1,87,77Z"/><path class="cls-2" d="M89.37,76.94h-.76a.52.52,0,0,1-.52-.53.52.52,0,0,1,.52-.52h.76a.52.52,0,0,1,.52.52A.52.52,0,0,1,89.37,76.94Z"/><path class="cls-2" d="M87,79a2.71,2.71,0,0,1-.41,0,1.13,1.13,0,0,0-.35,0,.52.52,0,1,1-.21-1,2.11,2.11,0,0,1,.71,0L87,78a.52.52,0,0,1,.53.52A.53.53,0,0,1,87,79Z"/><path class="cls-2" d="M89.26,79.49h-.65a.52.52,0,0,1-.52-.53.52.52,0,0,1,.52-.52h.65a.52.52,0,0,1,.53.52A.53.53,0,0,1,89.26,79.49Z"/><path class="cls-2" d="M87.36,81.17h-.07l-.33,0A2.63,2.63,0,0,1,86,81a.52.52,0,0,1-.28-.68.53.53,0,0,1,.69-.28,1.72,1.72,0,0,0,.58.09l.43,0a.52.52,0,0,1,.44.59A.53.53,0,0,1,87.36,81.17Z"/><path class="cls-2" d="M89,81.61h-.43a.52.52,0,0,1-.53-.52.53.53,0,0,1,.53-.53h.23a1.44,1.44,0,0,0,.44,0,.52.52,0,1,1,.39,1A1.77,1.77,0,0,1,89,81.61Z"/><path class="cls-2" d="M86.84,83.19a3.28,3.28,0,0,1-.46,0l-.32,0a.52.52,0,0,1-.52-.52.52.52,0,0,1,.52-.53,3.15,3.15,0,0,1,.46,0,1.28,1.28,0,0,0,.43,0,.53.53,0,0,1,.18,1Z"/><path class="cls-2" d="M88.72,83.66a.52.52,0,0,1,0-1,.86.86,0,0,0,.37-.13l.25-.11a.53.53,0,0,1,.68.29.52.52,0,0,1-.29.68l-.18.09A1.83,1.83,0,0,1,88.72,83.66Z"/><path class="cls-2" d="M94.36,84.31c-.88,0-1.78,0-2.56,0a.53.53,0,0,1-.51-.54.55.55,0,0,1,.54-.51c.78,0,1.67.06,2.53.06s1.4,0,2-.07c0-.4,0-.84,0-1.31,0-.67,0-1.34,0-2,0-.29,0-.57,0-.85a47.15,47.15,0,0,1-4.8-.36.52.52,0,0,1,.12-1,40.87,40.87,0,0,0,5.2.35.5.5,0,0,1,.38.15.51.51,0,0,1,.15.37c0,.47,0,.93,0,1.4,0,.66,0,1.33,0,2s0,1.23,0,1.77a.5.5,0,0,1-.47.54A25.35,25.35,0,0,1,94.36,84.31Z"/><path class="cls-2" d="M93.51,82.6a.59.59,0,0,1-.25,0c-.51-.19-.55-.85-.55-1.51v-.38a2.71,2.71,0,0,0,0-.29.53.53,0,0,1,.48-.57.51.51,0,0,1,.56.47,2.55,2.55,0,0,1,0,.39v.53l.1-.11A6.48,6.48,0,0,1,95,80a.51.51,0,0,1,.72.13.52.52,0,0,1-.13.73,6.18,6.18,0,0,0-.94.91C94.25,82.21,93.91,82.6,93.51,82.6Z"/><path class="cls-2" d="M96.47,64.83a.52.52,0,0,1-.52-.51c0-.31,0-.62,0-.93,0-1.23.08-2.46.15-3.66,0-.82.1-1.67.13-2.51-1.66-.11-3.42-.29-5.34-.55,0,.32,0,.65,0,1,0,.5,0,1,0,1.37a.51.51,0,0,1-.48.56.52.52,0,0,1-.56-.48c0-.45,0-.92,0-1.45s0-1.11,0-1.61a.47.47,0,0,1,.19-.38.5.5,0,0,1,.41-.12c2.31.33,4.38.55,6.32.66a.53.53,0,0,1,.5.53c0,1-.09,2.06-.15,3-.07,1.18-.14,2.4-.14,3.6,0,.3,0,.6,0,.9a.52.52,0,0,1-.5.54Z"/><path class="cls-2" d="M93,56.47A.52.52,0,0,1,92.5,56c0-.46,0-.93,0-1.39s0-1,0-1.43c0-.18,0-.34,0-.48a1.29,1.29,0,0,1,.27-1.1c.35-.33.8-.28,2.13-.14l2.21.21a.52.52,0,0,1-.08,1l-2.24-.21c-.54-.06-1-.11-1.25-.11a2.44,2.44,0,0,0,0,.27c0,.15,0,.32,0,.52,0,.46,0,.93,0,1.39s0,.95,0,1.43A.52.52,0,0,1,93,56.47Z"/><path class="cls-2" d="M95.24,54.71a7,7,0,0,1-.92-.07,5.84,5.84,0,0,0-1.09,0,.52.52,0,0,1-.57-.47.53.53,0,0,1,.47-.57,7,7,0,0,1,1.3.05c.29,0,.56.06.81.06.94,0,1-.17,1-.62a1.91,1.91,0,0,1,0-.52.52.52,0,0,1,.63-.38.53.53,0,0,1,.38.64c0,.06,0,.17,0,.28C97.23,53.88,97,54.71,95.24,54.71Z"/><path class="cls-2" d="M92.56,58.77h-1a.52.52,0,0,1-.52-.52.52.52,0,0,1,.52-.53h1a.53.53,0,0,1,.52.53A.52.52,0,0,1,92.56,58.77Z"/><path class="cls-2" d="M95,59.19h-.42a.52.52,0,0,1-.52-.52.52.52,0,0,1,.52-.53H95a.52.52,0,0,1,.52.53A.52.52,0,0,1,95,59.19Z"/><path class="cls-2" d="M93.13,60.49a.58.58,0,0,1-.19,0,1.57,1.57,0,0,0-.59-.07.52.52,0,0,1-.53-.52.53.53,0,0,1,.53-.53,2.33,2.33,0,0,1,1,.15.52.52,0,0,1-.19,1Z"/><path class="cls-2" d="M93.6,62.11h-.47a.52.52,0,0,1,0-1h.47a.52.52,0,1,1,0,1Z"/><path class="cls-2" d="M95.06,61h-.57a.52.52,0,1,1,0-1h.57a.52.52,0,1,1,0,1Z"/><path class="cls-2" d="M95,62.65a.75.75,0,0,1-.26,0,.51.51,0,0,1-.33-.66A.52.52,0,0,1,95,61.6l.09,0a1.3,1.3,0,0,1,.31,0,.52.52,0,1,1,0,1l-.08,0A1.53,1.53,0,0,1,95,62.65Zm.07-1Z"/><path class="cls-2" d="M67.64,57.68a2,2,0,0,1-1.88-1.9A3.41,3.41,0,0,1,69,52.87a4.5,4.5,0,0,1,.84.09,3.91,3.91,0,0,0,.67.07c.31,0,.35-.07.51-.32a1.63,1.63,0,0,1,.74-.7.52.52,0,0,1,.69.26.54.54,0,0,1-.27.7c-.11,0-.17.13-.28.3a1.46,1.46,0,0,1-1.39.81,5.41,5.41,0,0,1-.84-.09,4.2,4.2,0,0,0-.67-.08,2.44,2.44,0,0,0-2.24,1.87.92.92,0,0,0,.84.86c.27,0,.88-.19,1.78-1.48a.53.53,0,0,1,.73-.13.52.52,0,0,1,.13.73C69.37,57.06,68.5,57.68,67.64,57.68Z"/><path class="cls-2" d="M72.36,60.6c-.23,0-.78-.09-1-.93a5.81,5.81,0,0,1-.07-1.07v-.05a21.68,21.68,0,0,1,.22-2.69c.07-.58.14-1.19.18-1.77a.52.52,0,1,1,1,.06c0,.62-.11,1.24-.19,1.84a22.08,22.08,0,0,0-.21,2.56v.05a3.82,3.82,0,0,0,.08.95c1.11-.06,1.54-1.39,1.72-2.57A3.93,3.93,0,0,1,74,55.79c0-.14,0-.73.07-1.28.09-1.16.12-1.55.66-1.55s.55.54.57.94,0,.84,0,1.54a12.83,12.83,0,0,1-.08,1.43c.16.39.39.57.49.57.31,0,1.35-1.18,1.58-3.27a4.29,4.29,0,0,1,.07-1.56.54.54,0,0,1,.6-.26c.42.11.42.49.42,1a6.28,6.28,0,0,1,0,.75,5.44,5.44,0,0,0,.53,2.15c1.13-.57,1.29-2.35,1.29-4.21,0-1.06-.4-1.71-2.41-1.71a8.64,8.64,0,0,0-5,1.85.52.52,0,1,1-.62-.84,9.66,9.66,0,0,1,5.65-2.06c.86,0,3.46,0,3.46,2.76,0,1.52,0,4.69-2.37,5.34a.52.52,0,0,1-.5-.13,2.61,2.61,0,0,1-.55-.84c-.53,1.26-1.34,2.07-2.08,2.07a1.27,1.27,0,0,1-.76-.28C74.49,59.74,73.59,60.6,72.36,60.6Zm.11-1Z"/><path class="cls-2" d="M77.38,70.53a.57.57,0,0,1-.28-.08A17.37,17.37,0,0,1,69.45,58.6a.54.54,0,0,1,.44-.6.53.53,0,0,1,.6.44,16.26,16.26,0,0,0,7.17,11.12.53.53,0,0,1,.16.73A.54.54,0,0,1,77.38,70.53Z"/><path class="cls-2" d="M83.27,74.37h-.06a6,6,0,0,1-3.42-2,.53.53,0,0,1,0-.74.51.51,0,0,1,.74,0,5.06,5.06,0,0,0,2.8,1.65.54.54,0,0,1,.46.59A.53.53,0,0,1,83.27,74.37Z"/><path class="cls-2" d="M79.73,70a.5.5,0,0,1-.31-.1.52.52,0,0,1-.11-.73c2.84-3.92,5.79-6.57,9-8.12a.53.53,0,1,1,.45,1c-3,1.46-5.87,4-8.62,7.78A.52.52,0,0,1,79.73,70Z"/><path class="cls-2" d="M65.49,64.18a.55.55,0,0,1-.34-.13.53.53,0,0,1-.06-.74,13.24,13.24,0,0,1,3.39-2.78.51.51,0,0,1,.71.18.52.52,0,0,1-.18.72A12,12,0,0,0,65.89,64,.53.53,0,0,1,65.49,64.18Z"/><path class="cls-2" d="M61.37,99.74a.54.54,0,0,1-.46-.27,31.31,31.31,0,0,1-3.73-15,32.68,32.68,0,0,1,2-11.2.53.53,0,0,1,1,.36A31.37,31.37,0,0,0,58.22,84.5,30.19,30.19,0,0,0,61.83,99a.52.52,0,0,1-.21.71A.45.45,0,0,1,61.37,99.74Z"/><path class="cls-2" d="M63.54,86.15a.52.52,0,0,1-.21,0,18.45,18.45,0,0,0-10.6-.84.52.52,0,0,1-.62-.41.52.52,0,0,1,.41-.61,19.46,19.46,0,0,1,11.22.89.53.53,0,0,1,.28.69A.52.52,0,0,1,63.54,86.15Z"/><path class="cls-2" d="M61.44,75.81l-.17,0A25,25,0,0,1,54.87,72c-.46-.34-.92-.68-1.39-1a.52.52,0,1,1,.6-.86l1.41,1a24.19,24.19,0,0,0,6.13,3.62.52.52,0,0,1-.18,1Z"/><path class="cls-2" d="M78,84.85a.46.46,0,0,1-.23-.06c-1.73-.89-3.57-1.66-5.34-2.4C69,81,65.48,79.48,62.49,77.07a.52.52,0,1,1,.65-.81C66,78.58,69.48,80,72.82,81.42c1.79.76,3.65,1.53,5.41,2.44a.52.52,0,0,1,.23.7A.51.51,0,0,1,78,84.85Z"/><path class="cls-2" d="M88,89.55H88a10.6,10.6,0,0,1-4-1.79,15.93,15.93,0,0,0-2.35-1.28.52.52,0,0,1-.29-.68A.53.53,0,0,1,82,85.5a16.33,16.33,0,0,1,2.51,1.36,10,10,0,0,0,3.66,1.65.52.52,0,0,1,.44.59A.53.53,0,0,1,88,89.55Z"/><path class="cls-2" d="M96.21,93.31h-.1a11.06,11.06,0,0,1-3.43-1.52l-.84-.49a.52.52,0,0,1,.5-.92l.87.5a9.82,9.82,0,0,0,3.1,1.4.53.53,0,0,1-.1,1Z"/><path class="cls-2" d="M78.79,91.14a.49.49,0,0,1-.3-.1,21.53,21.53,0,0,0-4.59-2.32.53.53,0,1,1,.38-1,22.55,22.55,0,0,1,4.81,2.45.52.52,0,0,1,.13.72A.52.52,0,0,1,78.79,91.14Z"/><path class="cls-2" d="M89.42,100a.52.52,0,0,1-.39-.17,11.8,11.8,0,0,0-1.22-1.09,10.32,10.32,0,0,1-1.63-1.55.53.53,0,0,1,.09-.73.53.53,0,0,1,.74.09,9.28,9.28,0,0,0,1.47,1.38,12.12,12.12,0,0,1,1.32,1.19.52.52,0,0,1,0,.74A.54.54,0,0,1,89.42,100Z"/><path class="cls-2" d="M67.88,103.14h0a.54.54,0,0,1-.5-.55,18.48,18.48,0,0,1,1-5.35.53.53,0,0,1,.67-.33.54.54,0,0,1,.32.67,17.1,17.1,0,0,0-.91,5A.52.52,0,0,1,67.88,103.14Z"/><path class="cls-2" d="M73.3,104.15a.52.52,0,0,1-.14-1,22.57,22.57,0,0,0,8.69-4.59.52.52,0,0,1,.68.79,23.32,23.32,0,0,1-9.1,4.81Z"/><path class="cls-2" d="M86.74,93a.57.57,0,0,1-.18,0,.52.52,0,0,1-.31-.67A16,16,0,0,1,88.08,89c.35-.53.71-1.08,1-1.64a.53.53,0,1,1,.92.52c-.34.59-.71,1.15-1.07,1.7a15.73,15.73,0,0,0-1.72,3.13A.52.52,0,0,1,86.74,93Z"/><path class="cls-2" d="M93.39,77.4a.48.48,0,0,1-.23-.05.52.52,0,0,1-.24-.7,17.12,17.12,0,0,0,1.55-7.46,26.33,26.33,0,0,0-.3-3.87.52.52,0,0,1,.45-.59.51.51,0,0,1,.59.44,27,27,0,0,1,.31,4,18.18,18.18,0,0,1-1.66,7.92A.52.52,0,0,1,93.39,77.4Z"/><path class="cls-2" d="M9.74,105.5a.54.54,0,0,1-.44-.24l-.53-.85a.52.52,0,0,1,.89-.55l.52.83a.52.52,0,0,1-.16.73A.54.54,0,0,1,9.74,105.5Zm-1.93-3.25a.51.51,0,0,1-.46-.26l-.68-1.24a.53.53,0,0,1,.93-.49l.66,1.22a.52.52,0,0,1-.2.71A.57.57,0,0,1,7.81,102.25ZM5.87,98.54a.53.53,0,0,1-.47-.29L4.8,97a.52.52,0,1,1,1-.44c.19.42.39.84.59,1.25a.52.52,0,0,1-.24.7A.46.46,0,0,1,5.87,98.54ZM4.15,94.73a.54.54,0,0,1-.48-.33c-.18-.43-.36-.86-.53-1.3a.53.53,0,0,1,1-.38c.17.43.34.85.52,1.28a.52.52,0,0,1-.28.68A.54.54,0,0,1,4.15,94.73Zm-1.5-3.91a.5.5,0,0,1-.49-.35C2,90,1.85,89.59,1.7,89.14A.51.51,0,0,1,2,88.48a.53.53,0,0,1,.66.33l.45,1.31a.52.52,0,0,1-.32.67A.47.47,0,0,1,2.65,90.82Zm-1.3-4a.53.53,0,0,1-.5-.37q-.21-.68-.39-1.35a.52.52,0,0,1,.36-.65.54.54,0,0,1,.65.37c.12.44.25.89.38,1.33a.52.52,0,0,1-.35.65Z"/><path class="cls-2" d="M28.83,88.3a.48.48,0,0,1-.24-.06l-.28-.14a.53.53,0,0,1-.25-.7.52.52,0,0,1,.7-.24l.3.15a.52.52,0,0,1,.23.7A.53.53,0,0,1,28.83,88.3Zm-12.58-.47a.53.53,0,0,1-.5-.38.52.52,0,0,1,.36-.65q.69-.19,1.38-.36a.52.52,0,0,1,.62.39.51.51,0,0,1-.39.63c-.43.1-.88.22-1.32.35Zm9.65-.59-.11,0c-.43-.09-.88-.17-1.33-.23a.52.52,0,0,1-.45-.58.53.53,0,0,1,.58-.46c.49.06,1,.15,1.43.25a.53.53,0,0,1-.12,1ZM20.35,87a.53.53,0,0,1-.06-1c.49,0,1-.09,1.43-.11a.53.53,0,0,1,.05,1c-.45,0-.9,0-1.36.1Z"/><path class="cls-2" d="M62.09,108.43c-.22,0-.44,0-.66,0a.52.52,0,1,1,.06-1l.61,0c.25,0,.52,0,.72,0a.53.53,0,0,1,.56.5.54.54,0,0,1-.5.55Zm-3.36-.55a.57.57,0,0,1-.18,0,8.31,8.31,0,0,1-1.35-.62.52.52,0,0,1,.52-.9,7.46,7.46,0,0,0,1.18.54.51.51,0,0,1,.32.66A.52.52,0,0,1,58.73,107.88Zm-3.35-2.41a.51.51,0,0,1-.42-.21A7.17,7.17,0,0,1,54.2,104a.52.52,0,0,1,.25-.69.53.53,0,0,1,.7.25,6.1,6.1,0,0,0,.65,1.11.52.52,0,0,1-.11.73A.5.5,0,0,1,55.38,105.47Z"/><path class="cls-2" d="M49.54,138.29h-.08A9.71,9.71,0,0,1,48,138a.52.52,0,0,1,.31-1,8.83,8.83,0,0,0,1.28.29.52.52,0,0,1-.07,1Zm2.78,0a.52.52,0,0,1-.52-.46.53.53,0,0,1,.45-.59,9.21,9.21,0,0,0,1.29-.26.52.52,0,1,1,.28,1,10.07,10.07,0,0,1-1.43.29Zm3.92-1.38a.52.52,0,0,1-.27-1,9.11,9.11,0,0,0,1.08-.76.52.52,0,0,1,.66.81,11.29,11.29,0,0,1-1.2.85A.54.54,0,0,1,56.24,136.91Zm-10.53-.2a.56.56,0,0,1-.32-.11,8,8,0,0,1-1.09-1,.52.52,0,1,1,.77-.7,8,8,0,0,0,1,.88.51.51,0,0,1,.09.73A.49.49,0,0,1,45.71,136.71Zm13.53-2.66a.53.53,0,0,1-.43-.81,8,8,0,0,0,.62-1.15.52.52,0,0,1,.69-.27.53.53,0,0,1,.27.69,8.27,8.27,0,0,1-.71,1.3A.54.54,0,0,1,59.24,134.05Zm1.25-3.94a.51.51,0,0,1-.52-.51,5.16,5.16,0,0,0-.18-1.26.52.52,0,1,1,1-.25,6.2,6.2,0,0,1,.21,1.5A.51.51,0,0,1,60.49,130.11Z"/><path class="cls-2" d="M82.75,141.05a.53.53,0,0,1,0-1.05c.44,0,.9,0,1.36-.07a.53.53,0,0,1,.57.48.52.52,0,0,1-.48.56C83.71,141,83.23,141,82.75,141.05Zm4.16-.43a.52.52,0,0,1-.51-.43.52.52,0,0,1,.42-.61c.45-.08.91-.16,1.35-.26a.52.52,0,0,1,.62.4.51.51,0,0,1-.4.62c-.46.1-.93.19-1.39.27Zm4.07-1a.53.53,0,0,1-.15-1q.66-.19,1.32-.42a.53.53,0,0,1,.66.33.52.52,0,0,1-.33.66c-.44.15-.9.3-1.34.43Zm3.94-1.42a.52.52,0,0,1-.48-.32.53.53,0,0,1,.28-.69c.42-.18.84-.36,1.26-.56a.52.52,0,0,1,.44,1l-1.29.58A.78.78,0,0,1,94.92,138.24Zm3.77-1.83a.5.5,0,0,1-.46-.27.52.52,0,0,1,.21-.71l1.19-.68a.52.52,0,0,1,.72.18.53.53,0,0,1-.18.72l-1.23.7A.57.57,0,0,1,98.69,136.41Zm3.56-2.2a.53.53,0,0,1-.43-.22.52.52,0,0,1,.13-.73c.38-.26.75-.53,1.12-.8a.52.52,0,0,1,.73.1.54.54,0,0,1-.11.74l-1.15.82A.52.52,0,0,1,102.25,134.21Zm3.31-2.55a.52.52,0,0,1-.4-.18.53.53,0,0,1,0-.74c.35-.3.7-.61,1-.92a.53.53,0,0,1,.74,0,.52.52,0,0,1,0,.74c-.34.32-.7.64-1,.94A.5.5,0,0,1,105.56,131.66Z"/><path class="cls-2" d="M115.53,103.2a9.05,9.05,0,0,1-1.48-.14.52.52,0,1,1,.19-1,7,7,0,0,0,1.29.12.53.53,0,0,1,0,1Zm2.74-.44a.52.52,0,0,1-.16-1,9,9,0,0,0,1.2-.51.52.52,0,0,1,.71.22.53.53,0,0,1-.22.7,9,9,0,0,1-1.36.58A.51.51,0,0,1,118.27,102.76Zm-6.72-.68a.6.6,0,0,1-.28-.08,7.27,7.27,0,0,1-1.18-.94.53.53,0,0,1,0-.74.51.51,0,0,1,.74,0,6,6,0,0,0,1,.79.53.53,0,0,1-.28,1Zm10.24-1.51a.52.52,0,0,1-.37-.16.52.52,0,0,1,0-.74,8.42,8.42,0,0,0,.74-.83.53.53,0,0,1,.82.66,12.09,12.09,0,0,1-.83.92A.51.51,0,0,1,121.79,100.57Zm-12.73-1.74a.52.52,0,0,1-.5-.37,6.72,6.72,0,0,1-.25-1.5.52.52,0,0,1,.5-.54.51.51,0,0,1,.55.49,5.72,5.72,0,0,0,.2,1.26.52.52,0,0,1-.35.64A.39.39,0,0,1,109.06,98.83Z"/><path class="cls-2" d="M133.12,37.59a.51.51,0,0,1-.48-.34c-.06-.13-.11-.27-.17-.4a.52.52,0,0,1,1-.4c.06.14.12.28.17.42a.52.52,0,0,1-.3.68A.41.41,0,0,1,133.12,37.59Zm-1.41-2.91a.52.52,0,0,1-.45-.26c-.22-.39-.47-.78-.72-1.16a.52.52,0,0,1,.14-.72.53.53,0,0,1,.73.14c.27.4.52.81.76,1.21a.53.53,0,0,1-.19.72A.54.54,0,0,1,131.71,34.68Zm-2.42-3.41a.53.53,0,0,1-.4-.18c-.29-.34-.6-.69-.91-1a.52.52,0,0,1,.76-.72c.33.35.65.71.95,1.06a.52.52,0,0,1-.06.74A.54.54,0,0,1,129.29,31.27Zm-2.94-3a.53.53,0,0,1-.35-.13c-.33-.3-.69-.6-1-.88a.54.54,0,0,1-.08-.74.53.53,0,0,1,.74-.08c.37.3.74.6,1.08.91a.52.52,0,0,1,0,.74A.51.51,0,0,1,126.35,28.3ZM123,25.74a.52.52,0,0,1-.29-.09l-1.15-.76a.52.52,0,1,1,.56-.88c.4.25.79.51,1.18.77a.52.52,0,0,1,.13.73A.51.51,0,0,1,123,25.74Z"/><path class="cls-2" d="M54.2,4.53A.53.53,0,0,1,53.67,4c0-.36.12-.48,1.56-1.08a.51.51,0,0,1,.68.27.53.53,0,0,1-.28.69c-.56.24-.9.4-1,.48A.56.56,0,0,1,54.2,4.53ZM58,2.94a.52.52,0,0,1-.16-1c.42-.15.87-.29,1.34-.44a.54.54,0,0,1,.66.35.54.54,0,0,1-.35.66l-1.32.42A.47.47,0,0,1,58,2.94Zm4-1.15a.52.52,0,0,1-.11-1c.46-.11.93-.21,1.38-.29A.52.52,0,0,1,64,.89a.52.52,0,0,1-.41.61c-.44.08-.9.17-1.35.28Zm9.7-.41h-.1c-.44-.08-.89-.15-1.34-.2a.51.51,0,0,1-.46-.58.52.52,0,0,1,.57-.46c.48,0,1,.12,1.42.21a.52.52,0,0,1,.42.61A.53.53,0,0,1,71.77,1.38Zm-5.56-.26a.53.53,0,0,1-.53-.48.52.52,0,0,1,.48-.56c.49,0,1-.07,1.43-.08a.5.5,0,0,1,.53.51.53.53,0,0,1-.51.54c-.44,0-.9,0-1.36.07Z"/><path class="cls-2" d="M54.73,17.75h-.06a.53.53,0,0,1-.46-.58,9.71,9.71,0,0,1,.3-1.46.53.53,0,0,1,.65-.35.52.52,0,0,1,.35.65,8.68,8.68,0,0,0-.26,1.27A.52.52,0,0,1,54.73,17.75Zm1.46-3.89a.51.51,0,0,1-.29-.08.52.52,0,0,1-.15-.72,13.63,13.63,0,0,1,.86-1.18.53.53,0,0,1,.81.67,11.45,11.45,0,0,0-.79,1.08A.53.53,0,0,1,56.19,13.86Zm2.84-3a.52.52,0,0,1-.31-.94,10.75,10.75,0,0,1,1.22-.81.52.52,0,0,1,.71.2.51.51,0,0,1-.2.71,12.32,12.32,0,0,0-1.1.73A.56.56,0,0,1,59,10.82Z"/><path class="cls-2" d="M65.93,28.07a.52.52,0,0,1-.51-.45.51.51,0,0,1,.43-.59,8,8,0,0,0,1.26-.32.52.52,0,1,1,.35,1,7.53,7.53,0,0,1-1.45.37Zm-2.75-.2a.47.47,0,0,1-.17,0,4.66,4.66,0,0,1-1.37-.75.52.52,0,1,1,.64-.82,4.09,4.09,0,0,0,1.07.58.51.51,0,0,1,.32.66A.52.52,0,0,1,63.18,27.87Z"/><path class="cls-2" d="M41.19,30.74a.51.51,0,0,1-.36-.15,8.13,8.13,0,0,1-1-1.13.52.52,0,1,1,.85-.61,7.38,7.38,0,0,0,.85,1,.52.52,0,0,1-.37.9ZM39,27.2a.53.53,0,0,1-.5-.36,12.28,12.28,0,0,1-.37-1.42.52.52,0,1,1,1-.19,12.61,12.61,0,0,0,.33,1.28.51.51,0,0,1-.33.66A.45.45,0,0,1,39,27.2Zm-.57-4.13a.54.54,0,0,1-.53-.54c0-.47.06-1,.12-1.44a.52.52,0,0,1,.58-.45.54.54,0,0,1,.46.59A11.92,11.92,0,0,0,39,22.56.52.52,0,0,1,38.47,23.07Z"/><path class="cls-2" d="M75.31,79.81a.39.39,0,0,1-.15,0,2.37,2.37,0,0,1-1.4-1,.52.52,0,0,1,.89-.54,1.43,1.43,0,0,0,.8.58.52.52,0,0,1,.36.65A.53.53,0,0,1,75.31,79.81Zm2.45-.87a.55.55,0,0,1-.3-.09.52.52,0,0,1-.12-.73,2.84,2.84,0,0,0,.45-1.07.52.52,0,0,1,.61-.42.53.53,0,0,1,.42.61,3.82,3.82,0,0,1-.63,1.49A.52.52,0,0,1,77.76,78.94Zm5.85-1a.51.51,0,0,1-.36-.15,9.82,9.82,0,0,0-1-.86.54.54,0,0,1-.11-.74.51.51,0,0,1,.73-.1A10.76,10.76,0,0,1,84,77a.52.52,0,0,1,0,.74A.57.57,0,0,1,83.61,77.94Zm-16.35-1a.43.43,0,0,1-.19,0,.52.52,0,0,1-.3-.67,7.33,7.33,0,0,1,.68-1.34.53.53,0,0,1,.73-.15.52.52,0,0,1,.15.72,6.44,6.44,0,0,0-.58,1.14A.53.53,0,0,1,67.26,76.92Zm7.51-.41a.52.52,0,0,1-.4-.18.52.52,0,0,1,.06-.74,4.56,4.56,0,0,1,1.35-.78.53.53,0,1,1,.38,1,3.32,3.32,0,0,0-1,.6A.54.54,0,0,1,74.77,76.51Zm5.31-.75a.4.4,0,0,1-.15,0,6.85,6.85,0,0,0-1.26-.25.52.52,0,0,1-.47-.57.54.54,0,0,1-.62-.38,3.4,3.4,0,0,0-.53-1.08.53.53,0,0,1,.85-.63,4.73,4.73,0,0,1,.68,1.41.57.57,0,0,1,0,.22.47.47,0,0,1,.17,0,8.49,8.49,0,0,1,1.47.29.53.53,0,0,1-.16,1ZM69.83,73.69a.53.53,0,0,1-.43-.22.52.52,0,0,1,.13-.73A7.1,7.1,0,0,1,70.81,72a.52.52,0,1,1,.44.94,8.84,8.84,0,0,0-1.12.65A.49.49,0,0,1,69.83,73.69Zm5.28-1.36H75a5.13,5.13,0,0,0-.81-.06l-.46,0a.53.53,0,0,1-.56-.49.52.52,0,0,1,.48-.56l.54,0a7.37,7.37,0,0,1,1,.07.53.53,0,0,1,.44.6A.52.52,0,0,1,75.11,72.33Z"/><path class="cls-2" d="M77.57,99.4h0a10.28,10.28,0,0,1-1.45-.19.52.52,0,0,1-.41-.62.52.52,0,0,1,.61-.41,8.52,8.52,0,0,0,1.32.17.54.54,0,0,1,.49.56A.53.53,0,0,1,77.57,99.4Zm2.77-.23a.52.52,0,0,1-.12-1,8.67,8.67,0,0,0,1.25-.4.52.52,0,1,1,.4,1,9.3,9.3,0,0,1-1.41.46Zm-6.79-.84a.48.48,0,0,1-.23,0,9.88,9.88,0,0,1-1-.51H72.3a.53.53,0,0,1,0-1h.2a.53.53,0,0,1,.3.09,9,9,0,0,0,1,.54A.52.52,0,0,1,74,98,.53.53,0,0,1,73.55,98.33Zm9.39-.4a.52.52,0,1,1,0-1,3.75,3.75,0,0,0,.56,0,.51.51,0,0,1,.15-.5,5.28,5.28,0,0,0,.82-1,.54.54,0,0,1,.73-.15.53.53,0,0,1,.14.73,6,6,0,0,1-.68.86.48.48,0,0,1,.17.26.52.52,0,0,1-.37.64A6,6,0,0,1,82.94,97.93Zm-2.63-.77a.49.49,0,0,1-.3-.1A4.46,4.46,0,0,1,78.89,96a.52.52,0,0,1,.85-.61,3.48,3.48,0,0,0,.87.84.54.54,0,0,1,.13.73A.51.51,0,0,1,80.31,97.16Zm6.52-.62a.51.51,0,0,1-.43-.22.53.53,0,0,1,.14-.73,8.11,8.11,0,0,0,1-.83.53.53,0,0,1,.73.76,9.35,9.35,0,0,1-1.15.93A.53.53,0,0,1,86.83,96.54Zm-8.15-3H78.6a.51.51,0,0,1-.44-.59,4.1,4.1,0,0,1,.51-1.5.53.53,0,0,1,.72-.19.52.52,0,0,1,.18.72,3,3,0,0,0-.38,1.12A.52.52,0,0,1,78.68,93.55Zm6.85,0A.52.52,0,0,1,85,93.1a3,3,0,0,0-.4-1.11.53.53,0,0,1,.17-.72.52.52,0,0,1,.72.17A3.91,3.91,0,0,1,86,92.93a.51.51,0,0,1-.43.6Zm4-.1a.53.53,0,0,1-.24-.06.52.52,0,0,1-.23-.7,7.52,7.52,0,0,0,.5-1.21.52.52,0,0,1,.65-.34.53.53,0,0,1,.35.65A8.35,8.35,0,0,1,90,93.16.51.51,0,0,1,89.58,93.44Zm-6.8-2.65h-.09a4.23,4.23,0,0,0-1.23,0,.53.53,0,0,1-.15-1,5.75,5.75,0,0,1,1.55,0,.53.53,0,0,1,.43.6A.52.52,0,0,1,82.78,90.79Zm7.73-1.39a.53.53,0,0,1-.53-.52,9.87,9.87,0,0,0-.09-1.32.53.53,0,0,1,.44-.59.52.52,0,0,1,.59.45A10.25,10.25,0,0,1,91,88.88.52.52,0,0,1,90.51,89.4Z"/><path class="cls-2" d="M38,33.47a.53.53,0,0,1-.43-.22,13.79,13.79,0,0,1-1.81-4.38l-.11-.39a.52.52,0,0,1,.36-.65.52.52,0,0,1,.64.36l.12.4a12.74,12.74,0,0,0,1.65,4.05.52.52,0,0,1-.12.73A.49.49,0,0,1,38,33.47Z"/><path class="cls-2" d="M38.71,35.74a.79.79,0,0,1-.77-.79.91.91,0,0,1,0-.23v-.06a.49.49,0,0,1,.22-.41.53.53,0,0,1,.47-.07,1,1,0,0,1,.75.72.68.68,0,0,1,0,.14A.75.75,0,0,1,38.71,35.74Zm-.25-.94a.32.32,0,0,0-.08.23Z"/><path class="cls-2" d="M65,33.41a.53.53,0,0,1-.52-.45.53.53,0,0,1,.45-.59,11.88,11.88,0,0,0,4.31-1.61.53.53,0,0,1,.53.91,13.06,13.06,0,0,1-4.69,1.74Z"/><path class="cls-2" d="M71.54,31a.74.74,0,0,1-.74-.66.68.68,0,0,1,.31-.57.48.48,0,0,1,.24-.2.52.52,0,0,1,.57.1l0,0A.7.7,0,0,1,71.54,31Zm0-1a.31.31,0,0,0-.3.33.13.13,0,0,0,0,.06l.3-.3h.19A.23.23,0,0,0,71.54,29.92ZM71,30h0Z"/><path class="cls-2" d="M97.42,98.28a.52.52,0,0,1-.37-.89,16.44,16.44,0,0,0,3.6-4.61.52.52,0,1,1,.95.44,17.33,17.33,0,0,1-3.81,4.91A.55.55,0,0,1,97.42,98.28Z"/><path class="cls-2" d="M101.91,91.42a.81.81,0,0,1-.78-.81.75.75,0,0,1,.21-.51.54.54,0,0,1,.54-.12.48.48,0,0,1,.4.08.71.71,0,0,1,.34.62A.7.7,0,0,1,101.91,91.42Z"/><path class="cls-2" d="M74.74,19.16h-.09a11.82,11.82,0,0,0-2-.14c-.62,0-1.26,0-1.88.06s-1.27.06-1.89.06a.53.53,0,1,1,0-1.05c.6,0,1.23,0,1.84-.06S72,18,72.65,18a12.65,12.65,0,0,1,2.17.16.52.52,0,0,1-.08,1Z"/><path class="cls-2" d="M65.64,19.8A.72.72,0,0,1,65,19a.58.58,0,0,1,.42-.56.75.75,0,0,1,.18-.08.54.54,0,0,1,.59.28v0a.93.93,0,0,1,.13.45.66.66,0,0,1-.57.65Zm-.11-1a.41.41,0,0,0-.26.34l.3-.15Zm.11,0v.17l.07,0H66A.46.46,0,0,0,65.64,18.76Z"/><path class="cls-2" d="M22.22,22.59a.52.52,0,0,1-.21,0,.53.53,0,0,1-.27-.69c.19-.44.41-.88.64-1.3a.52.52,0,0,1,.71-.2.52.52,0,0,1,.21.71c-.22.39-.42.8-.6,1.21A.53.53,0,0,1,22.22,22.59ZM24.42,19a.49.49,0,0,1-.34-.12.52.52,0,0,1-.07-.73c.3-.36.63-.72,1-1.07a.52.52,0,0,1,.74,0,.53.53,0,0,1,0,.74c-.32.33-.63.67-.91,1A.52.52,0,0,1,24.42,19Zm3-2.87A.54.54,0,0,1,27,16a.52.52,0,0,1,.09-.73c.38-.29.77-.57,1.17-.83a.51.51,0,0,1,.72.14.52.52,0,0,1-.14.72c-.38.26-.75.52-1.11.8A.54.54,0,0,1,27.44,16.17Z"/></g></g></svg>