<svg xmlns="http://www.w3.org/2000/svg" viewBox="0 0 141.73 135.82"><defs><style>.cls-1{fill:#ffcc80;}.cls-2{fill:#fff;}</style></defs><title>020_w</title><g id="Layer_2" data-name="Layer 2"><g id="Layer_1-2" data-name="Layer 1"><path class="cls-1" d="M84.05,17.09c-.22.24,0,.31-.37-.1a18.93,18.93,0,0,1-1.1-1.91,5.16,5.16,0,0,0-2-1.93,1.72,1.72,0,0,0-.07-.21c-.54-1.35-2.8-1.41-2.9.15a5.92,5.92,0,0,0-.19.95,1.8,1.8,0,0,0,1.21,2.14c.88.33,1.12,1.48,1.54,2.21a5,5,0,0,0,2.19,2.15c1.64.74,4.16.17,4.54-1.82C87.15,17.2,85.27,15.74,84.05,17.09Z"/><path class="cls-1" d="M136.53,71.39a7,7,0,0,0-5.28.46.81.81,0,0,0-.27,0,.32.32,0,0,0-.29.17.88.88,0,0,0-.12.26c-.89.74-.69,2.56.59,2.77a12.47,12.47,0,0,0,1.46.15,4.75,4.75,0,0,0,4.48.12A2.14,2.14,0,0,0,136.53,71.39Z"/><path class="cls-1" d="M41.86,96c-4.11-.68-8.56-.24-12.68.17-2,.2-7.53.06-6.89,3.25.13.63,1,.53,1.19,0s3.75-.13,4.31-.12c1.51,0,3,0,4.53,0,3,0,6,.33,9,.27C43.34,99.58,44,96.38,41.86,96Z"/><path class="cls-1" d="M16.28,69.12a4.85,4.85,0,0,0-.57-.36,2.12,2.12,0,0,0-1.27-.15,2.35,2.35,0,0,0-.92.37.56.56,0,0,0,0-.08,1.28,1.28,0,0,0-1.91-.28,2.26,2.26,0,0,0-.11-.22,1.14,1.14,0,0,0-1-.58,2.29,2.29,0,0,0-1.29.53,1.13,1.13,0,0,0-1.6,0c-.5.52-1,1-1.47,1.56a.42.42,0,0,0-.55.14,1.93,1.93,0,0,0-.41,1.14c-.1.69.58,1.46,1.29,1a11.7,11.7,0,0,0,1.19-.91,1.27,1.27,0,0,0,1.85.2L9.9,71c0,.16,0,.31.08.45a1.16,1.16,0,0,0,1.92.5l.32-.29a1.24,1.24,0,0,0,2.13,0c.58-.88.48-.14,1.29.07a1.59,1.59,0,0,0,1.59-.46C18.15,70.55,17.29,69.11,16.28,69.12Z"/><path class="cls-1" d="M126.83,103.66a1.66,1.66,0,0,0-.26-2.6,2.11,2.11,0,0,0-.45-.18.47.47,0,0,0-.22-.29c-.57-.31-1.19.1-1.58.59a4.39,4.39,0,0,0-.47.27,2.4,2.4,0,0,0-1.14,2.67,2,2,0,0,0,1.36,1.31s0,0,0,0a7.67,7.67,0,0,0-.36,2.73,1.23,1.23,0,1,0,2.41-.33,11.73,11.73,0,0,1-.48-2.19.8.8,0,0,0-.11-.36A2.4,2.4,0,0,0,126.83,103.66Z"/><path class="cls-1" d="M41.4,3.13A1.57,1.57,0,0,0,41,2.71a1.17,1.17,0,0,0-1-.49A2.42,2.42,0,0,0,38.26,3a2.56,2.56,0,0,0-.57,2.17,1.37,1.37,0,0,0,.63.82,1.42,1.42,0,0,0,1,.14,1.45,1.45,0,0,0,.9-.84A1.59,1.59,0,0,0,41,5,1.46,1.46,0,0,0,41.4,3.13Z"/><path class="cls-1" d="M57.07,4.38a9.58,9.58,0,0,0-2.76-1.69,1.11,1.11,0,0,0-.6,0,3.69,3.69,0,0,0-.58,0,.91.91,0,0,0-.79.46.84.84,0,0,0-.12.65,1,1,0,0,0,.42.54,1.38,1.38,0,0,0,.36.67V5a9.05,9.05,0,0,0,2.33,1.68,1.44,1.44,0,0,0,1.86-.37A1.42,1.42,0,0,0,57.07,4.38Z"/><path class="cls-2" d="M32.07,94a.53.53,0,0,1-.53-.51c-.22-3.62-.32-7.58-.32-12.45,0-2.62,0-5.29.05-7.86s.06-5.24.06-7.85c0-6.35-.16-11.08-.49-14.89a.53.53,0,1,1,1.06-.09c.34,3.84.5,8.6.5,15,0,2.62,0,5.28-.06,7.86s-.05,5.23-.05,7.85c0,4.85.1,8.79.31,12.39a.54.54,0,0,1-.5.57Z"/><path class="cls-2" d="M31.05,48a.55.55,0,0,1-.53-.47c-.05-.45-.11-.88-.16-1.31a67.3,67.3,0,0,1-.63-9.91c0-2,.05-4,.16-6.29a.53.53,0,0,1,.18-.38.54.54,0,0,1,.41-.12,95.78,95.78,0,0,0,9.93.55c3.87,0,11.33-.2,20-.43l10.42-.28a.53.53,0,0,1,.54.53.52.52,0,0,1-.52.54l-10.41.28c-8.65.23-16.11.43-20,.43a94.44,94.44,0,0,1-9.48-.5c-.09,2-.13,3.87-.13,5.67a67.28,67.28,0,0,0,.62,9.78c.06.42.11.86.17,1.31a.55.55,0,0,1-.47.6Z"/><path class="cls-2" d="M76.66,30.26a.54.54,0,0,1,0-1.07h.18a.52.52,0,0,1,.55.52.55.55,0,0,1-.53.55h-.19Z"/><path class="cls-2" d="M112.72,47.34a.53.53,0,0,1-.53-.5l-.09-1.57c-.21-3.73-.42-7.25-.42-11.4,0-.78,0-1.22,0-1.59s0-.47,0-.74c0-.54,0-1.09,0-1.62-2.56,0-5.22-.05-7.93-.05-6,0-13.2.09-22,.28a.54.54,0,0,1-.54-.53.52.52,0,0,1,.52-.54c8.8-.19,16-.28,22-.28,2.89,0,5.73,0,8.45.05a.54.54,0,0,1,.53.52v0c0,.7,0,1.42,0,2.13,0,.27,0,.49,0,.75s0,.81,0,1.58c0,4.12.2,7.63.42,11.34l.09,1.57a.54.54,0,0,1-.51.56Z"/><path class="cls-2" d="M91.47,96.55a.51.51,0,0,1-.37-.15.55.55,0,0,1-.16-.4c0-2.12.06-4.29.06-6.63,0-6-.14-12.12-.27-18s-.26-12-.26-18.06c0-1,0-2.07,0-3.1a.53.53,0,0,1,.53-.53h0a.54.54,0,0,1,.53.54c0,1,0,2.06,0,3.09,0,6,.13,12.12.26,18s.27,12,.27,18.05c0,2.14,0,4.14,0,6.09,2.29-.1,4.61-.14,6.86-.17,4.45-.08,9.05-.15,13.52-.66-.11-2.63-.16-5.43-.16-8.55,0-4.24.1-8.56.19-12.73s.19-8.46.19-12.67c0-4.74-.15-8.45-.27-10.83a.54.54,0,0,1,.51-.56.53.53,0,0,1,.56.51c.11,2.39.27,6.11.27,10.88,0,4.23-.1,8.53-.19,12.7s-.19,8.47-.19,12.7c0,3.3.06,6.25.18,9a.54.54,0,0,1-.47.55,136.84,136.84,0,0,1-14.12.73c-2.43,0-4.94.08-7.4.19Z"/><path class="cls-2" d="M28,51.11a.53.53,0,0,1-.53-.51c0-.89-.11-1.87-.2-3a.52.52,0,0,1,.14-.4A.53.53,0,0,1,27.8,47c2.11,0,4-.16,6-.3,2.68-.19,5.72-.4,10-.4,3.05,0,6.14.08,9.12.16l1.07,0a.54.54,0,0,1,.52.55.55.55,0,0,1-.55.52l-1.07,0c-3-.08-6.05-.16-9.09-.16-4.23,0-7.25.21-9.92.4-1.82.13-3.54.25-5.46.29.05.7.09,1.34.13,1.94,8.21-.39,16.1-.62,23.46-.71a.54.54,0,0,1,.54.53.52.52,0,0,1-.52.54c-7.51.09-15.57.33-24,.73Z"/><path class="cls-2" d="M96.49,50.8H95.25a.54.54,0,0,1,0-1.07h1.24c6.57,0,12.58-.18,18.38-.56l0-1.11v-.83c-2.6.17-5.41.25-8.79.25-2.34,0-4.71,0-7-.08-1.88,0-3.83-.06-5.74-.07a.53.53,0,0,1-.53-.53.54.54,0,0,1,.54-.54c1.91,0,3.86,0,5.74.07,2.29,0,4.66.08,7,.08,3.6,0,6.54-.09,9.27-.29a.53.53,0,0,1,.4.14.49.49,0,0,1,.17.38l0,1.4c0,.54,0,1.07,0,1.61a.53.53,0,0,1-.5.55C109.48,50.61,103.27,50.8,96.49,50.8Z"/><path class="cls-2" d="M54.32,53.19h0a.55.55,0,0,1-.39-.2l-1.78-2.13L51.44,50a.54.54,0,0,1,0-.69C52.59,48,53.77,46.64,55,45.29c.37-.38,13.65-14,21.62-22.14a.57.57,0,0,1,.41-.16.55.55,0,0,1,.39.2c3,3.64,7.41,9.15,18.43,26.67a.53.53,0,0,1-.14.71c-.86.63-1.87,1.39-2.88,2.17a.54.54,0,0,1-.77-.11c-2.74-3.83-5.27-7.58-8-11.56C82,38,79.86,34.72,77.55,31.42a12.1,12.1,0,0,0-.81-1c-15.39,15.4-16,16.17-17.06,17.33-.58.67-1.31,1.51-5,5.3A.55.55,0,0,1,54.32,53.19ZM52.56,49.7l.39.47,1.41,1.68c3.28-3.4,4-4.18,4.51-4.82,1.07-1.23,1.71-2,17.51-17.78a.55.55,0,0,1,.39-.16.57.57,0,0,1,.38.18,12.6,12.6,0,0,1,1.28,1.54c2.31,3.3,4.49,6.53,6.6,9.66,2.57,3.81,5,7.42,7.61,11.09.72-.55,1.42-1.08,2.06-1.55C84.37,33.6,79.91,27.94,77,24.33,69,32.46,56.17,45.65,55.81,46,54.68,47.24,53.6,48.48,52.56,49.7Z"/><path class="cls-2" d="M45.09,96a.54.54,0,0,1,0-1.07l2.65-.13c2.9-.13,5.89-.27,8.84-.55L56.4,90c-.34-9.39-.68-19.1-.68-28.65,0-3.87.05-7.44.16-10.89a.55.55,0,0,1,.56-.52.53.53,0,0,1,.51.55c-.11,3.45-.16,7-.16,10.86,0,9.53.34,19.23.68,28.61.05,1.57.11,3.14.16,4.7a.54.54,0,0,1-.48.56c-3.13.31-6.31.46-9.38.6L45.12,96Z"/><path class="cls-2" d="M76,44.46a4.82,4.82,0,0,1-4.77-4.74A3.81,3.81,0,0,1,74,35.82h0a6.45,6.45,0,0,1,1.5-.17c2.86,0,4.77,1.67,4.77,4.16A4.54,4.54,0,0,1,76,44.46Zm-1.74-7.6a2.77,2.77,0,0,0-2,2.86A3.79,3.79,0,0,0,76,43.39a3.46,3.46,0,0,0,3.22-3.58c0-2.28-2-3.09-3.7-3.09a6.08,6.08,0,0,0-1.26.14Z"/><path class="cls-2" d="M75.56,41.43a.76.76,0,0,1-.53-.19c-.3-.27-.3-.62-.27-1.66,0-.38,0-.88,0-1.51a.54.54,0,0,1,1.07,0c0,.64,0,1.14,0,1.53s0,.54,0,.73a6.68,6.68,0,0,1,.76,0,2.48,2.48,0,0,1,.38,0,.52.52,0,0,1,.47.59.54.54,0,0,1-.59.47,3.74,3.74,0,0,0-.93,0C75.8,41.41,75.68,41.43,75.56,41.43Zm.28-.86Z"/><path class="cls-2" d="M79.78,62.14c-2.88,0-10-.14-12.9-.19a.54.54,0,0,1-.52-.47,29.59,29.59,0,0,1-.29-3.88c0-6.27,3.34-10.32,8.5-10.32A6,6,0,0,1,79,48.94c2.57,2.59,2.55,7.51,2.54,11.47V61.6a.53.53,0,0,1-.53.53ZM67.36,60.89c3.15.06,9.69.18,12.42.18h.68v-.66c0-3.76,0-8.44-2.23-10.71a4.89,4.89,0,0,0-3.66-1.35c-5.48,0-7.43,5-7.43,9.25A28,28,0,0,0,67.36,60.89Z"/><path class="cls-2" d="M73.59,62a.54.54,0,0,1-.53-.48,23.61,23.61,0,0,1-.13-2.65c0-.9,0-1.81.07-2.69s.07-1.77.07-2.66c0-.22,0-.44,0-.67a.53.53,0,0,1,.52-.54.54.54,0,0,1,.55.52c0,.23,0,.46,0,.69,0,.91,0,1.82-.07,2.7S74,58,74,58.86a23.86,23.86,0,0,0,.12,2.53.53.53,0,0,1-.47.59Z"/><path class="cls-2" d="M67.59,53.18a.53.53,0,0,1,0-1.06C69.31,52,71,52,72.78,52h1.08A60,60,0,0,0,80,51.75a.53.53,0,1,1,.11,1.06,59.51,59.51,0,0,1-6.28.24H72.78c-1.73,0-3.43,0-5.15.13Z"/><path class="cls-2" d="M66.37,93.91h0a.54.54,0,0,1-.51-.56c.21-3.59.24-7.18.24-10.52v-2.5c0-.84,0-1.68,0-2.52s0-1.84,0-2.76h-.44c-.47,0-.92,0-1.33-.09a.56.56,0,0,1-.48-.53c0-.93,0-1.85,0-2.77l0-1.41a.48.48,0,0,1,.16-.39.52.52,0,0,1,.4-.15c1.17.07,2.34.16,3.48.25,2.34.18,4.76.37,7.13.37,0,0,3.69-.12,8.72-.14h0a.53.53,0,0,1,.53.51c0,.45,0,.91.07,1.36,0,.72.08,1.44.11,2.15a.53.53,0,0,1-.14.38.55.55,0,0,1-.38.18c-5.55.17-11.17.26-16.71.28,0,.92,0,1.84,0,2.76s0,1.68,0,2.51v2.51c0,3.36,0,7-.24,10.58A.53.53,0,0,1,66.37,93.91Zm-1.48-20c.24,0,.49,0,.74,0h1c5.52,0,11.13-.1,16.67-.27,0-.53-.06-1.06-.08-1.59,0-.29,0-.57,0-.86-4.74,0-8.16.14-8.19.14h0c-2.43,0-4.86-.19-7.22-.37l-2.88-.22v.83Z"/><path class="cls-2" d="M64.22,97.83a.53.53,0,0,1-.53-.52c0-1-.14-2.13-.24-3.17l-.06-.58a.49.49,0,0,1,.13-.4.5.5,0,0,1,.39-.18c1.27,0,2.65-.06,4.22-.06s3.07,0,4.6,0,3.06,0,4.59,0c3,0,5.08-.06,7.77-.22a.53.53,0,0,1,.56.5l0,.26c.08,1,.15,2.11.16,3.18a.54.54,0,0,1-.51.54c-1.1,0-2.18,0-3.1,0H80c-2.8,0-4.35.12-6,.25-1.84.15-3.75.29-7.6.29a.54.54,0,1,1,0-1.07c3.81,0,5.7-.14,7.52-.29,1.65-.12,3.21-.25,6.06-.25h2.27l2.53,0c0-.78-.07-1.56-.13-2.33-2.47.14-4.5.19-7.3.19-1.53,0-3.07,0-4.6,0s-3.06,0-4.59,0c-1.33,0-2.52,0-3.62,0h0c.11,1.06.22,2.15.25,3.24a.53.53,0,0,1-.52.55Z"/><path class="cls-2" d="M81.13,93.73a.54.54,0,0,1-.54-.5c-.14-2.5-.25-5-.36-7.47-.16-3.67-.32-7.46-.62-11.2a.54.54,0,0,1,1.07-.09c.3,3.77.46,7.57.62,11.24.11,2.44.22,5,.36,7.45a.54.54,0,0,1-.5.57Z"/><path class="cls-2" d="M74.34,93.77a.54.54,0,0,1-.54-.51c0-.55-.5-15.19-.5-18.68a.54.54,0,1,1,1.07,0c0,3.48.48,18.08.5,18.63a.53.53,0,0,1-.51.56Z"/><path class="cls-2" d="M71,84.85a.54.54,0,0,1,0-1.07,2.4,2.4,0,0,0,.78-.08.53.53,0,1,1,.4,1A3.14,3.14,0,0,1,71,84.85Z"/><path class="cls-2" d="M75.37,84.79a.54.54,0,0,1,0-1.07,1,1,0,0,0,.32,0,.53.53,0,0,1,.74.14.55.55,0,0,1-.15.75A1.61,1.61,0,0,1,75.37,84.79Z"/><path class="cls-2" d="M99.46,68.62c-1.43,0-2.82,0-4.13-.1a.53.53,0,0,1-.51-.52l-.26-11.39a.54.54,0,0,1,.15-.38.5.5,0,0,1,.38-.17c1,0,2,0,3,.1s1.75.1,2.62.1c1.33,0,2.88-.15,4.52-.3.89-.08,1.81-.17,2.71-.23a.55.55,0,0,1,.58.52c.12,3.8.4,7.75.67,11.46a.56.56,0,0,1-.13.39.55.55,0,0,1-.37.18C105.05,68.51,102.12,68.62,99.46,68.62Zm-3.58-1.14c1.14,0,2.35.07,3.58.07,2.51,0,5.25-.1,8.6-.3-.24-3.39-.49-7-.61-10.41l-2.14.19c-1.67.15-3.24.3-4.62.3-.9,0-1.81,0-2.68-.1s-1.58-.09-2.37-.1Z"/><path class="cls-2" d="M101.26,89.25c-2,0-3.82,0-5.56-.07a.54.54,0,0,1-.52-.52c0-1.29-.08-2.59-.13-3.86-.09-2-.17-4.07-.17-6.11,0-.62,0-1.2,0-1.75a.54.54,0,0,1,.17-.38.55.55,0,0,1,.4-.14c1.35.09,2.81.13,4.59.13q1.55,0,3.09,0l3.11,0c.92,0,1.73,0,2.5,0a.53.53,0,0,1,.52.51c0,1.12.07,2.25.09,3.35.07,2.68.14,5.45.44,8.17a.51.51,0,0,1-.13.41.54.54,0,0,1-.39.19C106.73,89.21,104,89.25,101.26,89.25Zm-5-1.13c1.58,0,3.23.06,5,.06,2.51,0,5,0,7.43-.08-.26-2.58-.32-5.17-.39-7.69,0-.92,0-1.88-.07-2.82-.61,0-1.26,0-2,0l-3.09,0c-1,0-2.07,0-3.11,0-1.56,0-2.89,0-4.1-.1,0,.37,0,.76,0,1.17,0,2,.08,4.08.16,6.07C96.16,85.86,96.21,87,96.24,88.12Z"/><path class="cls-2" d="M35.82,69.58a.52.52,0,0,1-.37-.16.51.51,0,0,1-.16-.38c0-1.27,0-2.54.05-3.81,0-2.28.08-4.64.08-7,0-.43,0-.86,0-1.28a.54.54,0,0,1,.49-.54c2.5-.23,5-.25,7.48-.28,2.26,0,4.61,0,6.9-.23a.57.57,0,0,1,.4.13.53.53,0,0,1,.18.39c.11,3.84.33,7.86.64,12.28a.49.49,0,0,1-.13.39.52.52,0,0,1-.37.19c-3.61.21-7.3.22-10.86.23-1.44,0-2.88,0-4.31,0Zm.67-12.1v.8c0,2.32,0,4.68-.08,7,0,1.08,0,2.17,0,3.25h3.78c3.37,0,6.85,0,10.26-.2-.29-4-.48-7.7-.59-11.23-2.15.15-4.32.17-6.42.19C41.12,57.27,38.79,57.3,36.49,57.48Z"/><path class="cls-2" d="M36.82,88.83a.56.56,0,0,1-.37-.15.6.6,0,0,1-.17-.38c0-2.45-.13-4.94-.22-7.34-.07-1.64-.13-3.33-.18-5a.53.53,0,0,1,.59-.55c1.42.14,2.9.2,4.53.2,3.32,0,6.7-.28,9.69-.53a.55.55,0,0,1,.4.14.51.51,0,0,1,.17.4v3c0,2.91,0,6,.34,9.11a.55.55,0,0,1-.12.39.52.52,0,0,1-.36.19c-2.87.27-7.55.49-9.08.49H39c-.84,0-1.53,0-2.16,0ZM37,76.54c0,1.46.1,2.94.15,4.38.09,2.23.18,4.54.22,6.82.5,0,1,0,1.66,0h3c1.42,0,5.59-.19,8.44-.43-.26-3-.29-5.91-.29-8.68V76.21c-2.86.23-6,.48-9.19.48C39.57,76.69,38.24,76.64,37,76.54Z"/><path class="cls-2" d="M99.12,68.62a.54.54,0,0,1-.54-.52c-.1-3.07-.15-6.2-.19-9.23l0-2.12a.52.52,0,0,1,.52-.54.54.54,0,0,1,.55.52l0,2.12c0,3,.09,6.15.19,9.21a.54.54,0,0,1-.52.56Z"/><path class="cls-2" d="M103.48,68.54h0A.53.53,0,0,1,103,68c0-.49,0-1,0-1.45,0-1.59-.06-3.22-.11-4.79s-.11-3.22-.11-4.84v-.25a.54.54,0,1,1,1.07,0v.25c0,1.6.06,3.23.11,4.81s.11,3.21.11,4.82c0,.49,0,1,0,1.47A.54.54,0,0,1,103.48,68.54Z"/><path class="cls-2" d="M95.22,62.73a.53.53,0,0,1-.53-.51.54.54,0,0,1,.51-.56c2.08-.09,4.32-.14,6.87-.14,2.21,0,4.37,0,6.19.07a.54.54,0,0,1,0,1.07c-1.81,0-4-.07-6.17-.07-2.53,0-4.76,0-6.82.14Z"/><path class="cls-2" d="M100.68,89.25a.54.54,0,0,1-.54-.5c-.1-1.71-.19-3.45-.27-5.12-.11-2.13-.22-4.33-.37-6.51a.54.54,0,0,1,.5-.57.54.54,0,0,1,.57.5c.15,2.18.26,4.39.37,6.52.08,1.68.17,3.41.27,5.11a.53.53,0,0,1-.5.57Z"/><path class="cls-2" d="M104.46,89.23a.54.54,0,0,1-.53-.52l-.05-1.91c-.09-3.19-.17-6.5-.38-9.72a.54.54,0,0,1,.5-.57.55.55,0,0,1,.57.5c.21,3.24.29,6.56.38,9.76l0,1.91a.54.54,0,0,1-.52.55Z"/><path class="cls-2" d="M96.62,83.22c-.41,0-.78,0-1.15,0a.53.53,0,0,1-.51-.56.52.52,0,0,1,.56-.5l1.1,0c1.12,0,2.08-.06,3-.12s1.91-.12,3-.12c.82,0,1.63,0,2.43,0s1.59,0,2.38,0l1.4,0a.52.52,0,0,1,.56.51.53.53,0,0,1-.51.55c-.46,0-.93,0-1.45,0-.81,0-1.62,0-2.41,0s-1.6,0-2.4,0c-1.1,0-2,.06-3,.12S97.77,83.22,96.62,83.22Z"/><path class="cls-2" d="M42,88.8a.53.53,0,0,1-.53-.51c-.13-3.14-.47-6.35-.79-9.45l-.27-2.63a.54.54,0,0,1,.48-.59.55.55,0,0,1,.59.48c.08.88.17,1.75.27,2.63.32,3.12.65,6.34.79,9.52a.54.54,0,0,1-.52.55Z"/><path class="cls-2" d="M46.21,88.65a.53.53,0,0,1-.53-.5c-.25-4.14-.43-8.26-.6-12.12a.54.54,0,1,1,1.07,0c.17,3.86.35,8,.6,12.11a.54.54,0,0,1-.51.56Z"/><path class="cls-2" d="M36.64,82.88a.54.54,0,0,1,0-1.07c4.93-.13,9.66-.41,14.06-.84a.52.52,0,0,1,.58.48.53.53,0,0,1-.48.58c-4.42.43-9.18.72-14.13.85Z"/><path class="cls-2" d="M40.81,69.55a.54.54,0,0,1-.53-.52c-.11-4.2-.28-8.35-.45-12.25a.53.53,0,0,1,.51-.55.54.54,0,0,1,.56.51c.17,3.89.34,8.05.45,12.27a.53.53,0,0,1-.52.54Z"/><path class="cls-2" d="M45.53,69.52h0A.53.53,0,0,1,45,69c0-1.44,0-3,0-4.59,0-2.6,0-5.23-.09-7.68a.53.53,0,0,1,.52-.54h0a.54.54,0,0,1,.54.52c0,2.46.09,5.09.09,7.7,0,1.65,0,3.16,0,4.62A.54.54,0,0,1,45.53,69.52Z"/><path class="cls-2" d="M47.7,63.4c-1.52,0-3.05,0-4.54,0s-3-.06-4.51-.06c-1,0-1.88,0-2.72,0a.55.55,0,0,1-.55-.52.53.53,0,0,1,.52-.55c.85,0,1.75,0,2.75,0,1.51,0,3,0,4.53.06s3,0,4.52,0c1,0,2,0,2.88,0a.54.54,0,0,1,.55.52.54.54,0,0,1-.52.55C49.71,63.39,48.76,63.4,47.7,63.4Z"/><path class="cls-2" d="M57.35,97.32a.82.82,0,0,1-.66-.21.78.78,0,0,1-.19-.65.53.53,0,0,0,0-.13c0-.23,0-.47,0-.71s0-.43,0-.64,0-.3,0-.42A.52.52,0,0,1,57,94a.53.53,0,0,1,.59.47,4.5,4.5,0,0,1,0,.54c0,.23,0,.47,0,.7s0,.38,0,.56l.85-.07L60.16,96a.53.53,0,0,1,.57.49.52.52,0,0,1-.49.57l-1.71.15C58,97.29,57.61,97.32,57.35,97.32Z"/><path class="cls-2" d="M88.54,96.85A.53.53,0,0,1,88,96.4a.54.54,0,0,1,.44-.62c1.05-.17,2,0,3-.16a.54.54,0,0,1,.18,1.06c-1,.17-2,0-3,.16Z"/><path class="cls-2" d="M24.77,122.73a3.63,3.63,0,0,1-3.62-3.42h0c-.25-4.35-.34-8.74-.43-13,0-2.12-.09-4.32-.16-6.48A4.73,4.73,0,0,1,25.2,95c1.9,0,3.61-.08,5.32-.19,3.57-.24,7-.22,10.12-.17A4.41,4.41,0,0,1,45,98.82c.1,2.27.18,4.57.25,6.8.14,4,.28,8.09.55,12.11a3.77,3.77,0,0,1-3.45,4l-1.8.14c-5.15.41-10.48.84-15.73.86Zm-2.55-3.49a2.56,2.56,0,0,0,2.55,2.42h0c5.21,0,10.51-.45,15.65-.85l1.8-.15a2.69,2.69,0,0,0,2.47-2.86c-.28-4-.42-8.16-.55-12.15-.08-2.22-.16-4.52-.26-6.79a3.34,3.34,0,0,0-3.27-3.18c-3.13-.05-6.5-.07-10,.17-1.73.11-3.46.15-5.37.19a3.62,3.62,0,0,0-2.58,1.13,3.66,3.66,0,0,0-1,2.62c.07,2.17.11,4.37.16,6.5.09,4.24.18,8.63.43,12.95Z"/><path class="cls-2" d="M21.13,101.27a.54.54,0,0,1,0-1.07c3.91-.11,7.91-.32,11.77-.52s7.73-.39,11.58-.51a.54.54,0,0,1,0,1.07c-3.84.12-7.76.32-11.55.51s-7.87.41-11.8.52Z"/><path class="cls-2" d="M27.42,98.47a.54.54,0,0,1-.54-.54c0-1.43-.11-2.77-.23-4.19l0-.34a.54.54,0,1,1,1.07-.09l0,.34c.12,1.44.23,2.8.23,4.28A.54.54,0,0,1,27.42,98.47Z"/><path class="cls-2" d="M37.37,97.93h0a.54.54,0,0,1-.49-.59c0-.24,0-.49,0-.78,0-.58,0-1.19-.09-1.78s-.09-1.22-.09-1.82a.54.54,0,0,1,1.07,0c0,.56,0,1.13.09,1.74s.09,1.24.09,1.86c0,.32,0,.61,0,.88A.54.54,0,0,1,37.37,97.93Z"/><path class="cls-2" d="M29.21,116.54a4.2,4.2,0,0,1-1.06-.17,3.15,3.15,0,0,0-.68-.12.54.54,0,1,1,0-1.07,3.63,3.63,0,0,1,.94.16,3.33,3.33,0,0,0,.8.13,2.1,2.1,0,0,0,2.35-2.29c0-1.14-.7-3.37-2.29-3.37-.61,0-1.18,0-1.36-.47s.18-.74.5-1a2.68,2.68,0,0,0,1.15-2c0-.15,0-.43-.63-.43a2.89,2.89,0,0,0-1.46.46.53.53,0,0,1-1.06-.07c0-1.11,2-1.46,2.52-1.46a1.49,1.49,0,0,1,1.7,1.5,3.34,3.34,0,0,1-1.12,2.41c2.12.18,3.12,2.71,3.12,4.43A3.14,3.14,0,0,1,29.21,116.54Z"/><path class="cls-2" d="M37.15,116.29c-3.13,0-3.29-6.28-3.29-7.54,0-.93,0-3.75,2.11-3.9l.55,0c2.54,0,3.88,3.77,3.88,6.5C40.4,114.74,38.72,116.29,37.15,116.29Zm-.63-10.39-.47,0h0c-.48,0-1.12.36-1.12,2.83s.59,6.47,2.22,6.47c1.05,0,2.18-1.22,2.18-3.89C39.33,109.12,38.24,105.9,36.52,105.9Z"/><path class="cls-2" d="M133.4,77.12a4,4,0,0,1-4-3.9h0c-.09-3-.28-6-.46-9-.26-4.2-.53-8.56-.54-12.89a.59.59,0,0,1,.07-.26l1.07-1.93c1.32-2.38,2.69-4.85,3.85-7.35a.5.5,0,0,1,.5-.31.54.54,0,0,1,.48.34c1.42,3.66,2.81,6.84,4.25,9.72a.59.59,0,0,1,0,.23c.1,7.12.37,14.39.61,20.81A4.31,4.31,0,0,1,135.2,77l-1.58.09Zm-3-3.93a3,3,0,0,0,3.12,2.86l1.58-.09a3.23,3.23,0,0,0,3-3.34c-.24-6.39-.51-13.62-.6-20.71-1.29-2.57-2.53-5.38-3.79-8.55-1,2.15-2.21,4.25-3.35,6.3l-1,1.8c0,4.26.28,8.55.53,12.7.19,3,.37,6,.47,9Z"/><path class="cls-2" d="M133,55.43a.55.55,0,0,1-.35-.12l-1.42-1.26c-.85-.76-1.72-1.55-2.62-2.24a.54.54,0,0,1-.1-.75.53.53,0,0,1,.75-.1c.93.72,1.82,1.52,2.68,2.29l1.05.93A28.52,28.52,0,0,1,135.7,52a.52.52,0,0,1,.55,0c.6.3,1.22.58,1.87.87l.23.1a.54.54,0,0,1,.27.71.53.53,0,0,1-.7.27l-.24-.11c-.54-.23-1.09-.48-1.62-.74a28.29,28.29,0,0,0-2.73,2.23A.5.5,0,0,1,133,55.43Z"/><path class="cls-2" d="M134.09,47.81a8.14,8.14,0,0,1-2.86-.54.53.53,0,0,1-.3-.69.52.52,0,0,1,.69-.31,6.52,6.52,0,0,0,4.12.23.54.54,0,0,1,.3,1A6.91,6.91,0,0,1,134.09,47.81Z"/><path class="cls-2" d="M129.84,72a.54.54,0,0,1,0-1.07c2.75-.2,5.65-.31,8.86-.34h0a.54.54,0,1,1,0,1.07c-3.19,0-6.06.14-8.79.34Z"/><path class="cls-2" d="M133.76,72.05a.54.54,0,0,1-.54-.52c0-1.89-.1-3.77-.16-5.65-.11-3.62-.23-7.37-.23-11.1a.54.54,0,1,1,1.07,0c0,3.72.12,7.45.23,11.07.06,1.88.12,3.76.16,5.65a.53.53,0,0,1-.52.55Z"/><path class="cls-2" d="M51.82,111.76a2.32,2.32,0,0,1-2.36-2.31A2.72,2.72,0,0,1,51,107a.53.53,0,0,1,.35,0,4.55,4.55,0,0,1,1.48.73,2.07,2.07,0,0,1,.89,1.62C53.73,111.52,52.39,111.76,51.82,111.76Zm-.53-3.7a1.67,1.67,0,0,0-.76,1.39,1.23,1.23,0,0,0,1.29,1.24c.25,0,.84,0,.84-1.37a1,1,0,0,0-.41-.73A4.1,4.1,0,0,0,51.29,108.06Z"/><path class="cls-2" d="M61.32,135.82a.53.53,0,0,1-.53-.49c0-.52-.1-1.05-.16-1.58a31.68,31.68,0,0,1-.25-3.33.54.54,0,0,1,1.07,0,30,30,0,0,0,.24,3.21c.06.54.12,1.08.17,1.61a.54.54,0,0,1-.49.57Z"/><path class="cls-2" d="M58.82,133.44a.54.54,0,0,1,0-1.07,10.46,10.46,0,0,0,2-.26,10.26,10.26,0,0,1,2.72-.26.53.53,0,0,1,.48.58.54.54,0,0,1-.57.49,9,9,0,0,0-2.43.24A11.73,11.73,0,0,1,58.82,133.44Z"/><path class="cls-2" d="M35.28,132.35a2.28,2.28,0,0,1-2.57-2.59c0-2.68,2.51-2.71,5.43-2.75.85,0,1.81,0,2.81-.1A.54.54,0,1,1,41,128c-1,.07-2,.09-2.87.1-3.24,0-4.37.19-4.37,1.68,0,1.14.38,1.52,1.5,1.52,1.75,0,5.44-.53,5.59-1.15,0-.23,0-.56-1.2-.56a8.91,8.91,0,0,0-1.23.11,12.23,12.23,0,0,1-1.39.11.54.54,0,0,1,0-1.07,9.06,9.06,0,0,0,1.26-.11,12.07,12.07,0,0,1,1.36-.11c1.51,0,2.27.55,2.27,1.64C41.94,132.29,35.35,132.35,35.28,132.35Z"/><path class="cls-2" d="M50.16,128.59A2,2,0,0,1,48,126.77a2,2,0,0,1,1.77-2,1.69,1.69,0,0,1,.33,0h.07A2.22,2.22,0,0,1,52,126.37a1.63,1.63,0,0,1,.06.45A1.66,1.66,0,0,1,50.16,128.59Zm-.37-2.7a.91.91,0,0,0-.7.88c0,.52.62.75,1.07.75.69,0,.81-.23.81-.7a.7.7,0,0,0,0-.16,1.16,1.16,0,0,0-.91-.74h0l-.08,0Z"/><path class="cls-2" d="M13.18,122a.54.54,0,0,1-.54-.53c0-1.65,0-3.36-.11-5a.54.54,0,0,1,.5-.57.54.54,0,0,1,.57.5c.11,1.7.11,3.43.11,5.1A.53.53,0,0,1,13.18,122Z"/><path class="cls-2" d="M10.14,119.59a.54.54,0,0,1,0-1.07,16.71,16.71,0,0,0,2.29-.22,17.7,17.7,0,0,1,2.44-.23.54.54,0,0,1,0,1.07,16.71,16.71,0,0,0-2.29.22A17.7,17.7,0,0,1,10.14,119.59Z"/><path class="cls-2" d="M10.14,107.72a2.13,2.13,0,0,1-1.61-2.06,2.23,2.23,0,0,1,1.84-2.23h.15a2.08,2.08,0,0,1,1.74,2A2.26,2.26,0,0,1,10.14,107.72Zm.38-3.23a1.19,1.19,0,0,0-.92,1.17,1.29,1.29,0,0,0,.59,1,1.22,1.22,0,0,0,1-1.2A1.12,1.12,0,0,0,10.52,104.49Z"/><path class="cls-2" d="M21.51,87.31a.53.53,0,0,1-.53-.53c0-.77-.06-1.59-.11-2.39s-.12-1.64-.12-2.45a.54.54,0,1,1,1.07,0c0,.77.06,1.59.11,2.38s.12,1.65.12,2.46A.54.54,0,0,1,21.51,87.31Z"/><path class="cls-2" d="M18.81,85.17a.53.53,0,0,1-.52-.41.52.52,0,0,1,.4-.64A11,11,0,0,1,21,83.91a10.33,10.33,0,0,0,2.1-.18.53.53,0,1,1,.24,1A11,11,0,0,1,21,85a9.66,9.66,0,0,0-2.1.18Z"/><path class="cls-2" d="M9,97.58H8.91a.57.57,0,0,1-.37-.25C8,96.41,7.47,95.47,7,94.57c-.59-1.09-1.21-2.21-1.89-3.26l-.33.24c-.57.43-1.15.87-1.69,1.34a.54.54,0,0,1-.42.14.56.56,0,0,1-.38-.24c-.27-.4-.53-.83-.79-1.25-.48-.75-.93-1.47-1.35-2A.55.55,0,0,1,0,89.15a.52.52,0,0,1,.2-.36c.77-.6,1.67-1.36,2.63-2.15,1.54-1.29,3.29-2.75,4.75-3.81a.54.54,0,0,1,.72.08c.31.34.7.79,1.11,1.27.59.68,1.26,1.45,1.82,2.06a.53.53,0,0,1,.14.4.62.62,0,0,1-.2.38c-.62.5-1.14.94-1.63,1.38.52.71,1,1.45,1.49,2.16a34.2,34.2,0,0,0,2.29,3.22.53.53,0,0,1,.12.42.49.49,0,0,1-.23.36c-1.48,1-2.85,2.08-3.88,2.9A.5.5,0,0,1,9,97.58ZM5.21,90H5.3a.61.61,0,0,1,.36.23c.83,1.24,1.55,2.55,2.25,3.82.4.72.81,1.47,1.23,2.19.86-.67,1.88-1.46,3-2.23-.72-.93-1.37-1.91-2-2.86S9,89.45,8.4,88.65a.54.54,0,0,1,.06-.72c.49-.44,1-.89,1.6-1.39-.48-.53-1-1.12-1.45-1.65L7.82,84c-1.35,1-2.91,2.32-4.31,3.48-.8.66-1.56,1.3-2.23,1.84.35.5.72,1.07,1.09,1.68l.45.71q.65-.52,1.29-1l.78-.59A.54.54,0,0,1,5.21,90Z"/><path class="cls-2" d="M6,73.3H4.88a.54.54,0,0,1-.52-.46,15.61,15.61,0,0,1-.18-2.3C4.18,67,5.7,65.83,6.81,65,7.6,64.34,8,64,8,63.18c0-1-.41-1.13-1.29-1.37C5,61.33,3.44,60.54,3.44,56.28c0-.36,0-.72,0-1.07s0-.7,0-1.05V54A.53.53,0,0,1,4,53.48l.47,0c2.73-.15,5.56-.3,8.36-.3,1.08,0,2.07,0,3,.07a.52.52,0,0,1,.5.46c0,.29.08.58.13.88a17,17,0,0,1,.23,2.37c0,2.91-1.48,3.6-2.55,4.1-.84.4-1.34.63-1.34,1.67s.44,1.22,1.37,1.77c1.29.78,3.07,1.84,3.07,5.87,0,.48,0,1,0,1.46,0,.26,0,.52,0,.79a.52.52,0,0,1-.53.51h-.3c-1.72,0-3.48.05-5.18.1S7.71,73.3,6,73.3Zm-.62-1.07c1.92,0,3.89,0,5.79-.1,1.64,0,3.33-.09,5-.1,0-.09,0-.19,0-.28,0-.47,0-1,0-1.41,0-3.42-1.36-4.23-2.55-5-.93-.56-1.89-1.13-1.89-2.69a2.66,2.66,0,0,1,2-2.63c1-.49,1.94-.91,1.94-3.14a16.18,16.18,0,0,0-.22-2.22c0-.15,0-.3-.07-.44-.81,0-1.65-.05-2.55-.05-2.76,0-5.56.15-8.27.3,0,.23,0,.47,0,.71s0,.7,0,1.05c0,3.8,1.27,4.15,2.5,4.49.93.26,2.08.58,2.08,2.41A3.15,3.15,0,0,1,7.47,65.8c-1,.82-2.22,1.74-2.22,4.73A13.51,13.51,0,0,0,5.36,72.23Z"/><path class="cls-2" d="M4.8,70.17a.54.54,0,0,1-.46-.27.53.53,0,0,1,.19-.73l.89-.53c4.67-2.76,4.85-2.87,7.5-1.55a34.27,34.27,0,0,0,4,1.72.54.54,0,0,1,.32.69.53.53,0,0,1-.68.32,34.31,34.31,0,0,1-4.07-1.77c-1.23-.62-1.65-.8-2.31-.66A18.85,18.85,0,0,0,6,69.56l-.9.53A.53.53,0,0,1,4.8,70.17Z"/><path class="cls-2" d="M5.74,56.59l-1.64,0a.54.54,0,0,1,0-1.07h0c4,.09,8.06-.17,11.94-.42a.54.54,0,1,1,.07,1.07C12.75,56.37,9.26,56.59,5.74,56.59Z"/><path class="cls-2" d="M2.92,46.46a.54.54,0,0,1-.54-.53,25.46,25.46,0,0,0-.47-4.61.54.54,0,0,1,.43-.63.53.53,0,0,1,.62.43,25.89,25.89,0,0,1,.49,4.81A.53.53,0,0,1,2.92,46.46Z"/><path class="cls-2" d="M.61,44.16a.55.55,0,0,1-.54-.51.54.54,0,0,1,.51-.56c1-.06,2-.2,3.08-.35l1.69-.23a.54.54,0,1,1,.13,1.07c-.57.06-1.12.14-1.67.22-1,.14-2.08.29-3.17.36Z"/><path class="cls-2" d="M14.25,42.27h-.08A.55.55,0,0,1,13.8,42c-1.21-1.87-2.37-3.82-3.5-5.7C9.49,35,8.65,33.55,7.8,32.19a.53.53,0,0,1,.14-.71,10.17,10.17,0,0,1,6-2.35c3.44,0,5.49,2.06,5.49,5.53,0,.7-.86,4.26-4.84,7.49A.54.54,0,0,1,14.25,42.27ZM9,32c.77,1.25,1.52,2.51,2.25,3.74,1,1.7,2.06,3.46,3.15,5.16,3.24-2.84,4-5.83,4-6.28,0-2.88-1.57-4.46-4.42-4.46A8.85,8.85,0,0,0,9,32Z"/><path class="cls-2" d="M14.26,37.42h0a.56.56,0,0,1-.42-.24,15.36,15.36,0,0,1-.9-1.76,9.43,9.43,0,0,0-1.17-2.1.52.52,0,0,1-.12-.41.54.54,0,0,1,.21-.36l.12-.09a3.6,3.6,0,0,1,2.24-1,2.5,2.5,0,0,1,2.58,2.24c0,1.14-.95,2.21-1.71,3.07l-.39.44A.53.53,0,0,1,14.26,37.42ZM12.9,33.09a13.1,13.1,0,0,1,1,1.89c.15.34.3.68.46,1,.6-.68,1.35-1.56,1.35-2.25s-.83-1.17-1.51-1.17A2.09,2.09,0,0,0,12.9,33.09Z"/><path class="cls-2" d="M19.45,50.24A1.56,1.56,0,0,1,18,48.71,1.77,1.77,0,0,1,19.6,47h.08a1.38,1.38,0,0,1,1.22,1.54A1.54,1.54,0,0,1,19.45,50.24Zm.21-2.14a.7.7,0,0,0-.63.61.49.49,0,0,0,.42.46c.22,0,.38-.26.38-.6S19.71,48.13,19.66,48.1Z"/><path class="cls-2" d="M63.91,22.93a1.55,1.55,0,0,1-1.49-1.54,1.75,1.75,0,0,1,1.64-1.67h.07a1.39,1.39,0,0,1,1.23,1.54A1.54,1.54,0,0,1,63.91,22.93Zm.21-2.14a.69.69,0,0,0-.63.6.49.49,0,0,0,.42.47c.21,0,.38-.26.38-.6S64.16,20.81,64.12,20.79Z"/><path class="cls-2" d="M24.28,68a.56.56,0,0,1-.37-.15l-1.26-1.21-.76-.73a.54.54,0,0,1-.05-.72l.46-.58c.47-.59.95-1.2,1.45-1.79a.47.47,0,0,1,.38-.19.5.5,0,0,1,.4.15c.73.7,1.45,1.44,2.07,2.08a.52.52,0,0,1,0,.71c-.35.43-.72.84-1.08,1.25s-.58.65-.86,1a.54.54,0,0,1-.38.19ZM23,65.49l.41.39c.28.28.57.55.86.82l.5-.57.75-.85c-.41-.42-.85-.87-1.3-1.31-.36.44-.72.88-1.06,1.32Z"/><path class="cls-2" d="M13.62,20.78a.5.5,0,0,1-.31-.1L13,20.47c-.74-.54-1.51-1.09-2.24-1.67a.53.53,0,0,1-.12-.71c.28-.43.56-.86.83-1.29.52-.82,1.06-1.68,1.64-2.49a.51.51,0,0,1,.37-.23.55.55,0,0,1,.41.13c.8.69,1.67,1.39,2.65,2.15a.54.54,0,0,1,.11.74c-.48.66-1,1.32-1.47,1.95s-.77,1-1.15,1.51A.53.53,0,0,1,13.62,20.78Zm-1.79-2.52c.55.42,1.12.84,1.68,1.24l.84-1.1c.38-.49.77-1,1.15-1.51-.66-.51-1.26-1-1.83-1.48-.44.65-.86,1.31-1.28,2Z"/><path class="cls-2" d="M20.59,21.2a.54.54,0,0,1-.34-.12,27.63,27.63,0,0,1-2.39-2.15.55.55,0,0,1,0-.71l.27-.34c.63-.78,1.28-1.58,2-2.36a.53.53,0,0,1,.39-.18.55.55,0,0,1,.4.16,29.09,29.09,0,0,0,2.43,2.29.51.51,0,0,1,.2.38.52.52,0,0,1-.16.41l-.17.17c-.73.72-1.48,1.47-2.16,2.26A.53.53,0,0,1,20.59,21.2ZM19,18.52c.45.44,1,.89,1.57,1.4.52-.59,1.08-1.15,1.62-1.69-.54-.46-1.09-1-1.66-1.57C20,17.28,19.46,17.91,19,18.52Z"/><path class="cls-2" d="M27.9,21.15a.54.54,0,0,1-.32-.11l-.49-.37c-.74-.56-1.51-1.14-2.23-1.78a.53.53,0,0,1-.07-.72l.56-.75A21.8,21.8,0,0,1,27.3,15,.54.54,0,0,1,28,15c.48.38,1,.78,1.42,1.17l1.26,1a.51.51,0,0,1,.2.38.52.52,0,0,1-.14.4,30.62,30.62,0,0,0-2.43,2.95.53.53,0,0,1-.35.21Zm-2-2.74c.58.5,1.2,1,1.8,1.41l.05,0c.6-.8,1.19-1.52,1.8-2.19L28.75,17l-1-.84a22.93,22.93,0,0,0-1.52,1.92Z"/><path class="cls-2" d="M94.44,134.23A.54.54,0,0,1,94,134c-.37-.51-.76-1-1.14-1.51s-1-1.29-1.47-2a.52.52,0,0,1,.1-.73c1-.76,1.85-1.47,2.65-2.16a.58.58,0,0,1,.42-.12.55.55,0,0,1,.37.22c.57.82,1.12,1.68,1.64,2.5l.82,1.28a.55.55,0,0,1-.11.72c-.73.57-1.5,1.13-2.24,1.66l-.29.21A.55.55,0,0,1,94.44,134.23Zm-1.87-3.88c.37.51.77,1,1.15,1.51l.84,1.1c.56-.41,1.13-.82,1.68-1.24l-.56-.88c-.42-.66-.84-1.33-1.28-2C93.83,129.34,93.22,129.83,92.57,130.35Z"/><path class="cls-2" d="M87.48,134.65a.53.53,0,0,1-.41-.19c-.67-.79-1.43-1.54-2.16-2.26l-.17-.16a.56.56,0,0,1-.15-.41.51.51,0,0,1,.19-.39A28.86,28.86,0,0,0,87.22,129a.52.52,0,0,1,.39-.17.56.56,0,0,1,.4.19c.68.77,1.33,1.58,1.95,2.36l.27.34a.52.52,0,0,1,0,.7,23.66,23.66,0,0,1-2.39,2.15A.5.5,0,0,1,87.48,134.65Zm-1.57-3c.55.54,1.1,1.1,1.63,1.69.6-.51,1.11-1,1.56-1.41-.49-.61-1-1.24-1.52-1.85C87,130.7,86.45,131.22,85.91,131.69Z"/><path class="cls-2" d="M80.16,134.6h-.07a.53.53,0,0,1-.36-.22,27.94,27.94,0,0,0-2.42-2.94.53.53,0,0,1-.15-.41.53.53,0,0,1,.2-.38c.43-.34.85-.69,1.27-1s.94-.78,1.42-1.16a.54.54,0,0,1,.71,0,21.79,21.79,0,0,1,2,2.39l.56.74a.54.54,0,0,1-.07.72c-.72.65-1.49,1.23-2.24,1.79l-.48.36A.57.57,0,0,1,80.16,134.6Zm-1.68-3.47a27.46,27.46,0,0,1,1.79,2.18l.06,0c.6-.45,1.21-.91,1.79-1.4l-.26-.36c-.51-.67-1-1.32-1.53-1.92l-1,.84Z"/><path class="cls-2" d="M27.92,9.19a.54.54,0,0,1-.54-.5c0-.49,0-1-.05-1.46a15.19,15.19,0,0,0-.23-2.8.54.54,0,0,1,.42-.63.53.53,0,0,1,.63.42,16.06,16.06,0,0,1,.25,3c0,.47,0,1,.05,1.42a.54.54,0,0,1-.5.57Z"/><path class="cls-2" d="M25.42,7.17a.54.54,0,0,1,0-1.07h.25c1.57-.1,3.18-.19,4.72-.37a.53.53,0,1,1,.12,1.06c-1.56.19-3.2.28-4.77.37l-.26,0Z"/><path class="cls-2" d="M73,124.41a11,11,0,0,1-11-10.86c0-7.15,5.16-11.42,10.14-11.42a9.24,9.24,0,0,1,2.09.24h0c4.1.93,6.86,2.73,8.41,5.47a8.27,8.27,0,0,1,1,4.19C83.62,118.86,78.86,124.41,73,124.41Zm-.87-21.21c-4.45,0-9.07,3.87-9.07,10.35,0,3.06,2.51,9.79,9.94,9.79,5.26,0,9.54-5.08,9.54-11.31a7.29,7.29,0,0,0-.84-3.66c-1.4-2.47-3.92-4.09-7.72-5A8.27,8.27,0,0,0,72.14,103.2Z"/><path class="cls-2" d="M71.6,108.62c-3.11,0-5.13-.69-6.76-2.3a.54.54,0,0,1,.76-.76c1.42,1.41,3.16,2,6,2a10.28,10.28,0,0,0,7.53-2.8.53.53,0,0,1,.75,0,.53.53,0,0,1,0,.75A11.28,11.28,0,0,1,71.6,108.62Z"/><path class="cls-2" d="M66.47,122.17a.51.51,0,0,1-.36-.15.54.54,0,0,1,0-.76,16.29,16.29,0,0,1,11.68-5,14.38,14.38,0,0,1,4.37.64.55.55,0,0,1,.34.68.54.54,0,0,1-.68.34,13.14,13.14,0,0,0-4-.59A15.2,15.2,0,0,0,66.86,122,.52.52,0,0,1,66.47,122.17Z"/><path class="cls-2" d="M62.55,114.41a.54.54,0,0,1-.12-1.06,183.9,183.9,0,0,1,20.53-3,.53.53,0,1,1,.11,1.06,185.81,185.81,0,0,0-20.41,3Z"/><path class="cls-2" d="M74.29,124c-2.56,0-7.58-5.51-7.58-12.17a11.35,11.35,0,0,1,4.49-9.43.54.54,0,0,1,.75.13.53.53,0,0,1-.13.74,10.3,10.3,0,0,0-4,8.56c0,6.18,4.68,11.1,6.51,11.1a.56.56,0,0,1,.7.34.53.53,0,0,1-.33.67A1.15,1.15,0,0,1,74.29,124Z"/><path class="cls-2" d="M75.84,124.17a.48.48,0,0,1-.26-.07.53.53,0,0,1-.21-.72,14.28,14.28,0,0,0,1.77-7.21c0-6.29-1.85-10.61-5.51-12.85a.54.54,0,0,1,.56-.92c4,2.45,6,7.08,6,13.77a15.31,15.31,0,0,1-1.9,7.73A.55.55,0,0,1,75.84,124.17Z"/><path class="cls-2" d="M67.72,12.51c-1.33,0-3.8-1.61-3.8-5.49a18.38,18.38,0,0,1,.68-4.47.53.53,0,1,1,1,.27A18.12,18.12,0,0,0,65,7c0,3.33,2,4.42,2.73,4.42s1.68-.71,1.68-3.35c0-.36,0-.73,0-1.08s0-.67,0-1c0-1-.24-2.71-1.15-2.71-.42,0-.66.81-.66,2.15a19.79,19.79,0,0,0,.19,2.32c0,.26.07.52.1.78a.54.54,0,0,1-1.07.12l-.09-.76a19.75,19.75,0,0,1-.2-2.46c0-2.13.58-3.22,1.73-3.22,1.39,0,2.22,1.42,2.22,3.78,0,.3,0,.62,0,.94s0,.75,0,1.12C70.47,11.58,68.74,12.51,67.72,12.51Z"/><path class="cls-2" d="M92.39,7.53A.54.54,0,0,1,91.85,7c-.08-1.82-.16-3.7-.41-5.64a.52.52,0,0,1,.46-.6.53.53,0,0,1,.6.46c.26,2,.34,3.89.42,5.74a.55.55,0,0,1-.51.56Z"/><path class="cls-2" d="M89.29,4.85a.54.54,0,1,1,0-1.07c2.09,0,4.28-.09,6.32-.25a.53.53,0,1,1,.08,1.06C93.63,4.76,91.41,4.85,89.29,4.85Z"/><path class="cls-2" d="M130.07,35.66c-2.63,0-4.61-1.53-4.61-3.56,0-.2,0-.4,0-.6s0-.32,0-.48A3,3,0,0,1,128,28.59a4.88,4.88,0,0,1,1.44.19c0-.17,0-.35,0-.54a5.1,5.1,0,0,1,5.34-4.83c1.73,0,2.8,1.82,2.8,3.52,0,.45,0,.87-.05,1.23a4.54,4.54,0,0,1,.77-.06,3.12,3.12,0,0,1,3.42,3.22,3.29,3.29,0,0,1-1.83,2.79,15.42,15.42,0,0,1-5.8,1.22l-1.12.09h0l-.78.08A18.73,18.73,0,0,1,130.07,35.66Zm-2-6A2,2,0,0,0,126.58,31c0,.18,0,.37,0,.56s0,.35,0,.52c0,1.42,1.52,2.49,3.54,2.49a19.41,19.41,0,0,0,2-.15l.8-.08h0l1.14-.1a14.47,14.47,0,0,0,5.4-1.11,2.21,2.21,0,0,0,1.24-1.83,2.09,2.09,0,0,0-2.35-2.15,3.21,3.21,0,0,0-1,.14c-.23.73-.59.88-.85.88a.63.63,0,0,1-.62-.66,1.21,1.21,0,0,1,.55-.93,9.86,9.86,0,0,0,.12-1.67c0-1.19-.7-2.45-1.73-2.45a4.09,4.09,0,0,0-4.27,3.76c0,.5,0,.88,0,1.18a1.63,1.63,0,0,1,.53,1.11.66.66,0,0,1-.64.73c-.38,0-.66-.32-.82-.94,0-.1,0-.21-.07-.33A3,3,0,0,0,128,29.66Z"/><path class="cls-2" d="M120,66a2.16,2.16,0,0,1-2-2.33,2.23,2.23,0,0,1,1.45-2.21h0a2.42,2.42,0,0,1,.76-.12c1.11,0,2.45.84,2.45,1.89A2.64,2.64,0,0,1,120,66Zm-.21-3.53a1.23,1.23,0,0,0-.71,1.2c0,.62.34,1.26.92,1.26a1.59,1.59,0,0,0,1.6-1.71c0-.26-.67-.82-1.38-.82a1.55,1.55,0,0,0-.43.07Z"/><path class="cls-2" d="M121.61,25.38a.54.54,0,0,1-.54-.51c0-.61-.06-1.23-.1-1.84-.07-1.21-.15-2.47-.15-3.71a.54.54,0,1,1,1.07,0c0,1.21.08,2.45.15,3.65,0,.61.08,1.23.1,1.85a.52.52,0,0,1-.51.56Z"/><path class="cls-2" d="M118.59,22.78a.53.53,0,0,1-.53-.48.52.52,0,0,1,.48-.58c.77-.08,1.57-.1,2.33-.13a27.33,27.33,0,0,0,3-.21.54.54,0,0,1,.15,1.06,27.26,27.26,0,0,1-3.12.22c-.75,0-1.53.05-2.27.12Z"/><path class="cls-2" d="M118.62,128.46a.55.55,0,0,1-.54-.51c0-.61-.06-1.22-.1-1.84-.07-1.21-.15-2.47-.15-3.71a.54.54,0,1,1,1.07,0c0,1.21.08,2.45.15,3.65,0,.62.07,1.23.1,1.85a.54.54,0,0,1-.51.56Z"/><path class="cls-2" d="M115.6,125.86a.54.54,0,0,1,0-1.07c.77-.07,1.57-.1,2.33-.12a27.33,27.33,0,0,0,3-.21.54.54,0,0,1,.6.46.53.53,0,0,1-.45.6,30.12,30.12,0,0,1-3.12.22c-.75,0-1.53.05-2.27.12Z"/><path class="cls-2" d="M124.9,14.38a.54.54,0,0,1-.34-.12A29.59,29.59,0,0,1,122.14,12a.53.53,0,0,1,0-.72l.75-.87c.59-.7,1.2-1.42,1.86-2.1a.57.57,0,0,1,.39-.16.52.52,0,0,1,.39.17,23.56,23.56,0,0,0,2.43,2.29.51.51,0,0,1,.19.39.53.53,0,0,1-.15.4l-.53.52c-.73.72-1.48,1.46-2.14,2.25A.53.53,0,0,1,124.9,14.38Zm-1.65-2.76c.52.52,1,1,1.59,1.48.6-.68,1.24-1.31,1.86-1.92l.11-.1c-.62-.54-1.18-1.07-1.7-1.6-.49.54-1,1.1-1.43,1.64Z"/><path class="cls-2" d="M98.15,116.88q-1.12,0-2.25,0l-2.22,0c-.72,0-1.35,0-1.93,0a.49.49,0,0,1-.38-.14.52.52,0,0,1-.17-.38c0-1.9-.14-3.83-.24-5.7-.07-1.43-.15-2.92-.2-4.39a.53.53,0,0,1,.5-.55l1.58-.09c1.94-.12,3.93-.24,5.9-.24.69,0,1.37,0,2,0a.55.55,0,0,1,.51.57.53.53,0,0,1-.56.5c-.62,0-1.27,0-2,0-1.93,0-3.92.12-5.83.23l-1.06.07c.05,1.29.11,2.59.18,3.85.09,1.7.18,3.45.22,5.19l1.43,0,2.24,0c.74,0,1.48,0,2.23,0s1.62,0,2.31,0c0-1.37,0-2.71,0-4.12a.54.54,0,0,1,1.07,0c0,1.58,0,3.08,0,4.61a.53.53,0,0,1-.51.55C100.18,116.85,99.26,116.88,98.15,116.88Z"/><path class="cls-2" d="M97.21,112.47a.61.61,0,0,1-.35-.13c-.31-.28-.62-.56-.94-.83-.85-.76-1.72-1.53-2.64-2.2a.53.53,0,1,1,.63-.86,33.26,33.26,0,0,1,2.72,2.26c.19.17.38.34.58.5,1.49-1.34,3.05-2.62,4.57-3.85.7-.58,1.41-1.15,2.11-1.74a.53.53,0,1,1,.68.82c-.7.59-1.41,1.17-2.12,1.75-1.62,1.32-3.3,2.69-4.87,4.13A.55.55,0,0,1,97.21,112.47Z"/><path class="cls-2" d="M103.08,125.9a1.83,1.83,0,0,1-1.72-1.88,2.37,2.37,0,0,1,1.78-2.24.53.53,0,0,1,.56.2.94.94,0,0,0,.37.23,2.45,2.45,0,0,1,.65.42,1.17,1.17,0,0,1,.42.83,1.36,1.36,0,0,0,0,.2c0,.11,0,.23,0,.34A2.21,2.21,0,0,1,103.08,125.9Zm.06-3a1.31,1.31,0,0,0-.71,1.1c0,.13.11.81.65.81a1.2,1.2,0,0,0,1-.83,1.23,1.23,0,0,0,0-.2l0-.29-.11-.12a1.31,1.31,0,0,0-.36-.21A3.72,3.72,0,0,1,103.14,122.92Z"/><path class="cls-2" d="M122.74,46.62a.55.55,0,0,1-.53-.47,37.14,37.14,0,0,1-.17-4.27v-.23a.54.54,0,0,1,1.07,0v.23a34.88,34.88,0,0,0,.17,4.15.54.54,0,0,1-.47.59Z"/><path class="cls-2" d="M121.24,44.47a1.69,1.69,0,0,1-1-.33.53.53,0,0,1-.13-.74.54.54,0,0,1,.75-.13.63.63,0,0,0,.41.13,3,3,0,0,0,.48-.06,3.51,3.51,0,0,1,.67-.08,10.89,10.89,0,0,0,2.3-.16.53.53,0,0,1,.64.4.54.54,0,0,1-.41.64,11.54,11.54,0,0,1-2.53.19,3,3,0,0,0-.48.06A3.51,3.51,0,0,1,121.24,44.47Z"/><path class="cls-2" d="M119.86,84.32a1.53,1.53,0,0,1-1.51-1.71,1.56,1.56,0,0,1,1.38-1.69h0a1.75,1.75,0,0,1,1.79,1.6A1.72,1.72,0,0,1,119.86,84.32Zm-.09-2.86,0,.53c-.35,0-.4.4-.4.62,0,.64.34.64.44.64a.65.65,0,0,0,.59-.73c0-.27-.43-.53-.63-.53Z"/><path class="cls-2" d="M112,113.64a1.53,1.53,0,0,1-1.51-1.71,1.56,1.56,0,0,1,1.38-1.69h0a1.75,1.75,0,0,1,1.79,1.6A1.72,1.72,0,0,1,112,113.64Zm-.09-2.86,0,.53c-.35,0-.4.4-.4.62,0,.64.33.64.44.64a.65.65,0,0,0,.59-.73c0-.27-.43-.53-.63-.53Z"/><path class="cls-2" d="M79.45,3.4a1.53,1.53,0,0,1-1.51-1.71A1.56,1.56,0,0,1,79.32,0h0a1.75,1.75,0,0,1,1.79,1.6A1.72,1.72,0,0,1,79.45,3.4ZM79.36.54l0,.53c-.35,0-.4.4-.4.62,0,.64.34.64.44.64A.65.65,0,0,0,80,1.6c0-.27-.43-.53-.63-.53Z"/><path class="cls-2" d="M109.24,22.28a.54.54,0,0,1-.22,0,22,22,0,0,1-3.7-2.24.54.54,0,0,1-.2-.62l.17-.49c.37-1.06.75-2.16,1.06-3.25a10.94,10.94,0,0,1-1.91-1.43c-1.1.8-2.09,1.55-3,2.27a.54.54,0,0,1-.69,0l-.49-.45c-.68-.6-1.38-1.22-2-1.87a.55.55,0,0,1-.16-.38.54.54,0,0,1,.15-.38c1.44-1.45,3-2.87,4.41-4.24,2.26-2.12,4.61-4.32,6.72-6.69a.55.55,0,0,1,.68-.1,33.2,33.2,0,0,0,4,2.12.54.54,0,0,1,.29.68,97.29,97.29,0,0,0-3.13,11c-.46,1.88-.93,3.82-1.46,5.73a.53.53,0,0,1-.28.34A.48.48,0,0,1,109.24,22.28Zm-3-2.93A21.86,21.86,0,0,0,108.89,21c.45-1.69.87-3.41,1.28-5.08a102.18,102.18,0,0,1,3-10.66,35.45,35.45,0,0,1-3.34-1.76c-2.06,2.28-4.31,4.39-6.49,6.43-1.32,1.24-2.69,2.52-4,3.82.53.51,1.08,1,1.62,1.47l.16.15c.94-.72,1.94-1.47,3.06-2.28a.53.53,0,0,1,.7.06,9.54,9.54,0,0,0,2.35,1.77.53.53,0,0,1,.26.6c-.33,1.27-.76,2.52-1.19,3.73Z"/><path class="cls-2" d="M109.13,12.5a.43.43,0,0,1-.27-.08,13.11,13.11,0,0,1-2.81-2.1.52.52,0,0,1,.1-.82A33.49,33.49,0,0,0,109.36,7,.51.51,0,0,1,110,7a.52.52,0,0,1,.27.54c-.08.56-.13,1.14-.18,1.71a21.62,21.62,0,0,1-.4,2.86.54.54,0,0,1-.31.38A.52.52,0,0,1,109.13,12.5ZM107.29,10a11.45,11.45,0,0,0,1.46,1.08c.11-.64.17-1.3.23-2,0-.14,0-.28,0-.42C108.46,9.16,107.86,9.63,107.29,10Z"/><path class="cls-2" d="M138.54,89.46a.53.53,0,0,1-.53-.53,10.16,10.16,0,0,0-.26-1.91,10.51,10.51,0,0,1-.28-2.11.54.54,0,1,1,1.07,0,10,10,0,0,0,.26,1.9,11.5,11.5,0,0,1,.28,2.12A.54.54,0,0,1,138.54,89.46Z"/><path class="cls-2" d="M136.31,87.86a.55.55,0,0,1-.5-.34.54.54,0,0,1,.3-.7,8.13,8.13,0,0,1,2.25-.43,7.18,7.18,0,0,0,1.95-.37.53.53,0,1,1,.39,1,7.74,7.74,0,0,1-2.24.44,7,7,0,0,0-2,.37A.79.79,0,0,1,136.31,87.86Z"/><path class="cls-2" d="M120.63,113.36a.53.53,0,0,1-.53-.46c-.49-3.24-.9-6.58-1.3-9.8-.2-1.59-.4-3.19-.61-4.78a.53.53,0,0,1,.47-.6c2.21-.26,4.46-.58,6.63-.88,3.63-.51,7.39-1,11.13-1.33A.54.54,0,0,1,137,96c.61,5.29,1.27,10.53,1.84,15a.56.56,0,0,1-.44.6,3.9,3.9,0,0,1-.58,0,59.58,59.58,0,0,0-6.16.67c-3.37.45-7.56,1-11,1.11Zm-1.31-14.64c.19,1.42.36,2.83.54,4.25.38,3.06.77,6.22,1.23,9.31,3.29-.13,7.07-.64,10.42-1.09,2.6-.35,4.86-.66,6.2-.68-.54-4.16-1.15-9-1.72-13.89-3.54.3-7.1.8-10.55,1.28C123.44,98.18,121.37,98.47,119.32,98.72Z"/><path class="cls-2" d="M123.94,98.1a.53.53,0,0,1-.52-.44A21.2,21.2,0,0,1,123,93.9c0-3.42,1.52-5.15,4.52-5.15,4.29,0,4.33,5.48,4.34,7.82a.54.54,0,0,1-.53.54h0a.54.54,0,0,1-.54-.53c0-4.74-1-6.76-3.27-6.76s-3.45,1.26-3.45,4.08a20.43,20.43,0,0,0,.42,3.57.53.53,0,0,1-.43.62Z"/><path class="cls-2" d="M126.73,94.93a1.57,1.57,0,0,1-1.44-1.67,1.68,1.68,0,0,1,.84-1.52.52.52,0,0,1,.5,0l.09,0a3.37,3.37,0,0,1,1.15.81,1.19,1.19,0,0,1,.34.78A1.69,1.69,0,0,1,126.73,94.93Zm-.26-2.09a.83.83,0,0,0-.11.42c0,.4.24.6.37.6s.4-.34.41-.5c0,0,0,0-.09-.1A2,2,0,0,0,126.47,92.84Z"/><path class="cls-2" d="M124.75,105.44a2.91,2.91,0,0,1-2.77-2.88,2.28,2.28,0,0,1,1.34-2.18h0a4.72,4.72,0,0,1,1.83-.41,2.54,2.54,0,0,1,2.69,2.57A3.21,3.21,0,0,1,124.75,105.44Zm-1-4.08a1.23,1.23,0,0,0-.69,1.2,1.86,1.86,0,0,0,1.7,1.81,2.2,2.2,0,0,0,2-1.83,1.48,1.48,0,0,0-1.62-1.5,3.7,3.7,0,0,0-1.41.32Z"/><path class="cls-2" d="M124.91,110.11a2.12,2.12,0,0,1-1.57-.61,2.83,2.83,0,0,1-.65-2,5.32,5.32,0,0,1,.74-2.88.55.55,0,0,1,.74-.17.54.54,0,0,1,.17.74,4.26,4.26,0,0,0-.58,2.31c0,1.23.5,1.42.67,1.48a3.5,3.5,0,0,0,2.59-.66,6.89,6.89,0,0,0-1.27-3.13.55.55,0,0,1,.18-.74.54.54,0,0,1,.74.18,7.41,7.41,0,0,1,1.42,3.87C128.09,109.28,126,110.11,124.91,110.11Z"/><path class="cls-2" d="M130.05,102.83a.54.54,0,1,1,0-1.07,19.1,19.1,0,0,0,3.13-.35.54.54,0,0,1,.17,1.06A20,20,0,0,1,130.05,102.83Z"/><path class="cls-2" d="M130.14,105.06a.53.53,0,0,1-.53-.49.52.52,0,0,1,.48-.57,19.24,19.24,0,0,0,3.13-.62.54.54,0,0,1,.65.39.53.53,0,0,1-.39.65,20.26,20.26,0,0,1-3.3.64Z"/><path class="cls-2" d="M130.23,107.48a.54.54,0,0,1-.07-1.07,14.14,14.14,0,0,0,3.79-.94.53.53,0,0,1,.42,1,15.35,15.35,0,0,1-4.07,1Z"/><path class="cls-2" d="M46.7,21.16c-5.52,0-9.38-3.63-9.38-8.81S41.2,2.72,46,2.25a4.93,4.93,0,0,1,.55,0c4.83,0,10,2.88,10,8.2a11,11,0,0,1-2.93,8A9.49,9.49,0,0,1,46.7,21.16ZM46.51,3.29l-.44,0h0c-4.16.42-7.68,4.55-7.68,9s3.34,7.74,8.31,7.74c4.34,0,8.71-3,8.71-9.67C55.41,5.79,50.83,3.29,46.51,3.29Z"/><path class="cls-2" d="M38.87,7.6a.5.5,0,0,1-.39-.17A4.76,4.76,0,0,1,37.24,4.3,2.92,2.92,0,0,1,40,1.21,3.73,3.73,0,0,1,43.12,3l.24.28a.53.53,0,0,1,0,.76.54.54,0,0,1-.75-.05l-.25-.29c-.76-.89-1.18-1.37-2.28-1.37a1.86,1.86,0,0,0-1.72,2,3.69,3.69,0,0,0,1,2.41.53.53,0,0,1,0,.75A.5.5,0,0,1,38.87,7.6Z"/><path class="cls-2" d="M55.21,7.16a.54.54,0,0,1-.37-.92,3.15,3.15,0,0,0,1-2.13c0-.51-.5-1.46-2.37-1.46a3,3,0,0,0-2.32.93.54.54,0,0,1-.82-.7,4,4,0,0,1,3.14-1.3c2.36,0,3.44,1.31,3.44,2.53A4.23,4.23,0,0,1,55.59,7,.55.55,0,0,1,55.21,7.16Z"/><path class="cls-2" d="M41.64,23.68l-.14,0a.54.54,0,0,1-.38-.66c.1-.36.24-.71.36-1a4.91,4.91,0,0,0,.43-1.68.54.54,0,0,1,1.07,0,5.72,5.72,0,0,1-.5,2.06,9.49,9.49,0,0,0-.32.94A.54.54,0,0,1,41.64,23.68Z"/><path class="cls-2" d="M53.5,22.12a.52.52,0,0,1-.33-.11A4.32,4.32,0,0,1,52,20.34a5.9,5.9,0,0,0-.44-.83.54.54,0,0,1,.15-.74.52.52,0,0,1,.74.15,6.46,6.46,0,0,1,.52,1,3.1,3.1,0,0,0,.87,1.28.55.55,0,0,1,.09.76A.53.53,0,0,1,53.5,22.12Z"/><path class="cls-2" d="M46.41,14.17a.76.76,0,0,1-.48-.15c-.31-.25-.31-.62-.31-1.22v-.09c0-.62.05-1.24.09-1.83s.08-1.18.08-1.76a8.64,8.64,0,0,0-.12-1.51.53.53,0,1,1,1-.19,9.91,9.91,0,0,1,.14,1.7c0,.62,0,1.23-.09,1.83s-.08,1.18-.08,1.76v.34l.13,0a15.18,15.18,0,0,1,3.84-.42.54.54,0,1,1,0,1.07,14.05,14.05,0,0,0-3.6.39A2.87,2.87,0,0,1,46.41,14.17Z"/><path class="cls-2" d="M46.12,5.73a.55.55,0,0,1-.52-.37.53.53,0,0,1,.34-.67,1.47,1.47,0,0,1,.56-.05h.11a.54.54,0,0,1,.6.9,1.23,1.23,0,0,1-.81.16h-.11Z"/><path class="cls-2" d="M40.39,12.87a.55.55,0,0,1-.48-.29,1.74,1.74,0,0,1-.17-.78c0-.1,0-.2,0-.3s0-.16,0-.23a.54.54,0,1,1,1.07,0c0,.1,0,.2,0,.3s0,.15,0,.23a.64.64,0,0,0,.06.3.55.55,0,0,1-.24.72A.69.69,0,0,1,40.39,12.87Z"/><path class="cls-2" d="M53.34,12.16a.54.54,0,0,1-.54-.54v-.8a.54.54,0,1,1,1.07,0v.8A.54.54,0,0,1,53.34,12.16Z"/><path class="cls-2" d="M46.55,18.5a.53.53,0,0,1-.52-.41.55.55,0,0,1,.39-.65,2.79,2.79,0,0,1,.66,0,1.16,1.16,0,0,0,.39,0,.53.53,0,1,1,.48,1,1.4,1.4,0,0,1-.66.14H47a1.8,1.8,0,0,0-.33,0Z"/><path class="cls-2" d="M77.12,24.09a.53.53,0,0,1-.53-.52L76.3,11.4a.54.54,0,0,1,.52-.55.54.54,0,0,1,.55.52l.29,12.17a.54.54,0,0,1-.52.55Z"/><path class="cls-2" d="M83.54,21c-1.8,0-2.29-1.19-2.69-2.14-.48-1.14-.89-2.12-3.2-2.12a4.68,4.68,0,0,0-.64,0,.54.54,0,0,1-.12-1.07c.26,0,.51,0,.76,0,3,0,3.7,1.61,4.19,2.78.41,1,.66,1.48,1.7,1.48,1.47,0,2.52-1.26,3.19-2.43a6.29,6.29,0,0,1-1.2.13c-2.35,0-3.07-1.56-3.7-2.93s-1.11-2.41-3-2.41c-.66,0-1.33,0-2,.06a.54.54,0,0,1-.58-.48.52.52,0,0,1,.48-.58c.71-.07,1.41-.07,2.09-.07,2.53,0,3.3,1.68,3.92,3s1.06,2.3,2.73,2.3a5.67,5.67,0,0,0,2-.42.52.52,0,0,1,.58.12.54.54,0,0,1,.11.58C87.11,19.54,85.44,21,83.54,21Z"/></g></g></svg>