<svg xmlns="http://www.w3.org/2000/svg" viewBox="0 0 141.73 141.56"><defs><style>.cls-1{fill:#ffcc80;}.cls-2{fill:#525d7d;}</style></defs><title>022_c</title><g id="Layer_2" data-name="Layer 2"><g id="Layer_1-2" data-name="Layer 1"><path class="cls-1" d="M82.65,61.3A1.11,1.11,0,0,0,83,59.84a.68.68,0,0,0-.18-.23c-.24-.08-.27-.18-.1-.31l-.44-.95a1.13,1.13,0,0,0,.88-.9l0-.22a1.49,1.49,0,0,0-.38-1.44c-1.63-1.33-4.38-.64-6.31-.56a65.74,65.74,0,0,0-8.05.58l-.13,0c-.06-.27-.13-.54-.2-.81a.44.44,0,0,0-.84,0,37.73,37.73,0,0,0-.67,6.63c-.17,2.4-.41,4.78-.7,7.16-.11.93.91,1.34,1.64,1.25,1.38-.19,3.9,0,4.25-1.78.38.26.76.52,1.15.76,1.52.93,3.15.94,4.88,1,1.21.08,2.65.42,3.55-.41a1.49,1.49,0,0,0,1.67-1.51c.06-1.32,0-2.63,0-4L83.35,63A1.71,1.71,0,0,0,82.65,61.3ZM69.78,58.38l-.39.46q-.36.25-.69.54c0-.44,0-.87-.07-1.31Zm-1.19,9,0-.87a4.13,4.13,0,0,1,.44.78ZM80.25,61.5l-4.08,4.39a1.64,1.64,0,0,0-.48,1,3.9,3.9,0,0,1-1.48-.53c-1.64-1-3.21-2.1-4.79-3.16a1.26,1.26,0,0,0-.7-.23V61a1,1,0,0,0,1.07.16,12.66,12.66,0,0,0,3.57-2.53.39.39,0,0,0,.13.21c1.55,1.25,3,.37,4.35-.7h.36c.24,0,.77-.08,1.3-.13a9.46,9.46,0,0,1,.93,1.92,4,4,0,0,0,.51,1.16A1.43,1.43,0,0,0,80.25,61.5Z"/><path class="cls-1" d="M9.72,83.83a.45.45,0,0,1-.32-.48,1.14,1.14,0,0,0-1.93-.42l-.17,0a.62.62,0,0,0-.51.29,9.71,9.71,0,0,0-1.74,5.47c0,.82,1.19,1.45,1.76.72l.06-.08a.75.75,0,0,0,.74,0,3.14,3.14,0,0,0,1-1.64,6.67,6.67,0,0,1,1.29-2A1.15,1.15,0,0,0,9.72,83.83Z"/><path class="cls-1" d="M77.56,5.52a1.22,1.22,0,0,0-1.2-1.2,1.27,1.27,0,0,0-.7.23s0-.07,0-.1c-.21-.82-1.3-.56-1.39.19a9.18,9.18,0,0,1-.18,1.07l-.45-.13A1.15,1.15,0,0,0,72.21,7,1.92,1.92,0,0,0,75,8.22l.1-.07A2.73,2.73,0,0,0,76,7.94a1.28,1.28,0,0,0,.69.33A1,1,0,0,0,78,7.55C78.15,6.77,77.62,6.27,77.56,5.52Z"/><path class="cls-1" d="M106.08,31.92a1.24,1.24,0,0,0-1.49-.84c-1.91.34-4.76.1-6.28,1.39a.7.7,0,0,0-.24.48,2.28,2.28,0,0,0-1.87.39.3.3,0,0,0-.09.32c.69,1.91,4.55,1.75,6.17,1.62C104.35,35.12,106.57,34.45,106.08,31.92Z"/><path class="cls-1" d="M106.22,124.85a7.81,7.81,0,0,0-2,1.65c-.31.31-.64.83-1,1-.1,0-.12.11-.12.15a1.88,1.88,0,0,0-.31-.43c-.87-1-2.22-2.42-3.62-2.5a.52.52,0,0,0-.51.51c0,1.18.91,2,1.65,2.87a6.27,6.27,0,0,0,2.28,2,2.24,2.24,0,0,0,2.21-.66,12.61,12.61,0,0,0,2.94-3.12A1.13,1.13,0,0,0,106.22,124.85Z"/><path class="cls-1" d="M51.24,93.26c-1.28.39-3.85,1.21-4.82,2.58l-.62-.41c-.93-.58-1.82.7-1.13,1.46,1,1.11,2.67,3.59,4.44,2.9.76-.3,1.24-1.13,1.71-1.75.69-.89,1.36-1.79,2-2.7S52.35,92.92,51.24,93.26Z"/><path class="cls-1" d="M40.41,29a8.44,8.44,0,0,0-.89-.47l-.17-.08-.55-.2-.18-.05-.25-.07a7.41,7.41,0,0,0-2.66-.2,1.3,1.3,0,0,0-1.26,1.26,1.32,1.32,0,0,0,.37.89,1.55,1.55,0,0,1-.08.23c-.28.68.52,1.31,1.13,1.14a6.15,6.15,0,0,1,3.6-.22A1.23,1.23,0,0,0,40.41,29Z"/><path class="cls-1" d="M44.43,31.48a1.52,1.52,0,0,0-2.76-.36,28,28,0,0,0-1.37,3.42A1.35,1.35,0,0,0,40.63,36a1.25,1.25,0,0,0,2,1.35A6.28,6.28,0,0,0,44.43,31.48Z"/><path class="cls-1" d="M133.39,91.22a1.36,1.36,0,0,0-.7-1.21,1.71,1.71,0,0,0-2.28.68,1.75,1.75,0,0,0,.12,1.79,1.44,1.44,0,0,0,1.74.63.88.88,0,0,0,.58-.82A1.51,1.51,0,0,0,133.39,91.22Z"/><path class="cls-1" d="M41.7,76.58a1.55,1.55,0,0,0-.73.11.54.54,0,0,0-.28-.08,6.47,6.47,0,0,0-.88.15c-.34.07-.28.52,0,.64l-.1.11c-.41.51.11,1.36.75,1s1.1-.36,1.59-.65A.68.68,0,0,0,41.7,76.58Z"/><path class="cls-1" d="M25,58a1.06,1.06,0,0,0-1-.25,1.2,1.2,0,0,0-.4.22.94.94,0,0,0-.37.37A.93.93,0,0,0,24,59.67a.72.72,0,0,0,.68-.55.69.69,0,0,0,.43-.39A.7.7,0,0,0,25,58Z"/><path class="cls-1" d="M16.88,26.18a1,1,0,0,0-1.18.15,2,2,0,0,0-.36.62,1,1,0,0,0-.27.1.8.8,0,0,0-.36.89,1.22,1.22,0,0,0,.14.36c0,.05.11.21,0,0a1.21,1.21,0,0,0,.6.66,1.49,1.49,0,0,0,1.65-.22A1.63,1.63,0,0,0,16.88,26.18Z"/><path class="cls-2" d="M15.9,30.38a2.56,2.56,0,0,1-1.79-.69,2.49,2.49,0,0,1,1.56-4.26h.24a2.87,2.87,0,0,1,.95.21,2.46,2.46,0,0,1,1.48,2.12,2.69,2.69,0,0,1-.75,1.84,2.37,2.37,0,0,1-1.61.78Zm-.14-3.94h0A1.49,1.49,0,0,0,14.81,29a1.58,1.58,0,0,0,1.14.4,1.38,1.38,0,0,0,.9-.46,1.69,1.69,0,0,0,.48-1.11,1.47,1.47,0,0,0-.86-1.21,2.25,2.25,0,0,0-.63-.14Z"/><path class="cls-2" d="M17.16,26.9a.47.47,0,0,1-.3-.1.51.51,0,0,1-.12-.71,37.72,37.72,0,0,1,6.7-6.54l1.14-1a.51.51,0,0,1,.66.78l-1.15,1a36.73,36.73,0,0,0-6.52,6.36A.51.51,0,0,1,17.16,26.9Z"/><path class="cls-2" d="M24.91,22.28a.51.51,0,0,1-.51-.51,19.47,19.47,0,0,1,.17-2.54l-1-.11C23,19.06,22.46,19,21.92,19a.51.51,0,0,1-.48-.54A.52.52,0,0,1,22,18c.56,0,1.14.1,1.71.16s1,.11,1.5.15a.52.52,0,0,1,.36.19.49.49,0,0,1,.1.4,18.76,18.76,0,0,0-.23,2.92A.51.51,0,0,1,24.91,22.28Z"/><path class="cls-2" d="M37.62,14.79a.47.47,0,0,1-.28-.09c-.24-.16-.46-.32-.69-.49a8,8,0,0,0-1.66-1,.51.51,0,1,1,.4-.94,10.41,10.41,0,0,1,1.86,1.15l.24.17c.83-1.22,1.74-2.38,2.61-3.51a.52.52,0,0,1,.72-.09.51.51,0,0,1,.09.71c-1,1.25-2,2.53-2.86,3.89a.54.54,0,0,1-.33.22Z"/><path class="cls-2" d="M36.38,17.85c-2.7,0-4.31-1.49-4.31-4a3.75,3.75,0,0,1,4.06-3.94l.4,0a.5.5,0,0,1,.47.54.5.5,0,0,1-.54.47h-.33a2.74,2.74,0,0,0-3,2.92c0,2.59,2.06,3,3.29,3a3.77,3.77,0,0,0,3.5-2,.51.51,0,1,1,1,.32A4.73,4.73,0,0,1,36.38,17.85Z"/><path class="cls-2" d="M58.56,15.91a.51.51,0,0,1,0-1c3.35-.26,6.95-1.72,6.95-4.33A4.53,4.53,0,0,0,64,7.4c-.48,1.44-1.47,2.67-2.61,2.67l-.32,0-.39,0a2.22,2.22,0,0,1-2.06-2.38c0-1.38,2.25-2.11,3.45-2.11a3.7,3.7,0,0,1,1.23.21V5.55c0-2.4-1.81-3.95-4.62-3.95a6.46,6.46,0,0,0-5.71,3.81,3.88,3.88,0,0,1,2,3.32,1.32,1.32,0,0,1-1.37,1.39l-.16,0-.15,0c-.87,0-1.88-1.22-1.88-2.78a5.15,5.15,0,0,1,.23-1.46,4.22,4.22,0,0,0-1.35-.24c-1.83,0-4.37,1.92-4.37,5.52,0,2.66,3.34,3.2,4.23,3.2h.32l.14,0h.09a.51.51,0,0,1,.51.48.51.51,0,0,1-.45.53,4.08,4.08,0,0,1-.61,0A7,7,0,0,1,47,14.6a3.77,3.77,0,0,1-2.09-3.39,7,7,0,0,1,1.78-4.8A4.74,4.74,0,0,1,52,5a8.24,8.24,0,0,1,1.36-2A7.16,7.16,0,0,1,58.63.58c2.81,0,5.64,1.54,5.64,5a5.09,5.09,0,0,1-.06.77,4.7,4.7,0,0,1,1.06,1,5.33,5.33,0,0,1,1.22,3.25c0,1.76-1.66,4.87-7.9,5.35ZM53.2,9.16Zm-.64-2.77a4,4,0,0,0-.14,1,2,2,0,0,0,.85,1.76l.2,0c.44-.06.48-.1.48-.39A2.85,2.85,0,0,0,52.56,6.39ZM62,6.64c-1,0-2.44.63-2.44,1.09s.33,1.36,1.05,1.36H61l.39,0c.6,0,1.37-1,1.72-2.22A2.75,2.75,0,0,0,62,6.64Z"/><path class="cls-2" d="M52.34,27.24a.51.51,0,0,1-.5-.45,31.32,31.32,0,0,1-.34-5.09c0-.77,0-1.54,0-2.31s0-1.53,0-2.29c0-1.45,0-3.37-.2-5.3a.49.49,0,0,1,.45-.55.5.5,0,0,1,.56.45c.19,2,.21,3.92.21,5.4,0,.77,0,1.54,0,2.3s0,1.54,0,2.3a30.15,30.15,0,0,0,.33,5,.51.51,0,0,1-.44.56Z"/><path class="cls-2" d="M57.9,26.73a.5.5,0,0,1-.5-.46c-.26-2.76-.35-5.21-.43-7.57s-.16-4.78-.42-7.51a.51.51,0,0,1,.46-.55.51.51,0,0,1,.56.45c.26,2.76.34,5.21.42,7.57s.16,4.78.42,7.51a.51.51,0,0,1-.46.56Z"/><path class="cls-2" d="M56.3,16.29c-.69,0-1.38-.05-2-.1s-1.33-.1-2-.1a.5.5,0,0,1-.51-.5.51.51,0,0,1,.51-.51c.69,0,1.38.05,2,.1a20.84,20.84,0,0,0,2.62.07.51.51,0,0,1,.54.48.51.51,0,0,1-.48.54Z"/><path class="cls-2" d="M56,19.69c-.65,0-1.31,0-2-.06s-1.27-.05-1.88-.05a.51.51,0,0,1,0-1c.64,0,1.29,0,1.93.06,1,0,2,.08,2.83,0a.51.51,0,0,1,.06,1Z"/><path class="cls-2" d="M57.5,23.67c-1.85,0-3.59,0-5.43-.08a.51.51,0,0,1,0-1c1.82.09,3.54.09,5.38.09a.5.5,0,0,1,.5.51A.5.5,0,0,1,57.5,23.67Z"/><path class="cls-2" d="M7.05,46.15A.47.47,0,0,1,6.7,46a.52.52,0,0,1,0-.72,19.2,19.2,0,0,1,3.76-2.83c.59-.37,1.19-.75,1.76-1.15a.5.5,0,0,1,.67.08c.82.91,1.65,1.84,2.48,2.73.85-.64,1.75-1.22,2.62-1.78a32.55,32.55,0,0,0,3-2.08.52.52,0,0,1,.69,0l.16.17c.25.24.49.49.74.75.76-2,1.53-3.86,2.29-5.68-2.13.3-4,.54-5.93.67.35.4.66.75,1,1.07a.52.52,0,0,1,.14.39.52.52,0,0,1-.19.36c-1.18.95-2.36,1.81-3.47,2.61a.51.51,0,0,1-.64,0c-.93-.83-1.79-1.74-2.62-2.62l-.49-.51C10.24,39,7.92,40.63,5.68,42.23l-1.21.87a.51.51,0,1,1-.59-.83l1.21-.86c2.37-1.69,4.81-3.43,7.32-5a.51.51,0,0,1,.64.07l.79.83c.72.76,1.47,1.55,2.26,2.28.86-.62,1.77-1.28,2.67-2-.39-.43-.8-.91-1.29-1.49a.54.54,0,0,1-.08-.53.52.52,0,0,1,.44-.31,77.13,77.13,0,0,0,7.75-.85.53.53,0,0,1,.48.2.5.5,0,0,1,.06.5c-1,2.3-2,4.73-2.92,7.24a.52.52,0,0,1-.38.31.48.48,0,0,1-.47-.15c-.36-.4-.73-.77-1.12-1.16-.88.67-1.81,1.27-2.72,1.86s-2,1.28-2.9,2a.51.51,0,0,1-.69,0c-.85-.9-1.7-1.84-2.52-2.76-.47.32-.95.62-1.42.92A17.74,17.74,0,0,0,7.42,46,.53.53,0,0,1,7.05,46.15Z"/><path class="cls-2" d="M3.65,52a.51.51,0,0,1-.34-.13.5.5,0,0,1-.17-.37v-.37A18.67,18.67,0,0,0,3,48.6a.51.51,0,1,1,1-.16,16,16,0,0,1,.17,2.46c1.68-.11,3.36-.12,5-.13a57.09,57.09,0,0,0,9-.57,24.29,24.29,0,0,1-.34-2.6.5.5,0,0,1,.47-.54.51.51,0,0,1,.55.47,21,21,0,0,0,.41,3,.52.52,0,0,1-.07.39.57.57,0,0,1-.33.22,55.32,55.32,0,0,1-9.66.66c-1.79,0-3.64,0-5.46.17Z"/><path class="cls-2" d="M8.18,51.64H8.11a.51.51,0,0,1-.43-.58,2.48,2.48,0,0,0,0-.29c0-.22,0-.44,0-.68a6.5,6.5,0,0,1-.06-.79.5.5,0,0,1,.5-.5.5.5,0,0,1,.51.5,5.52,5.52,0,0,0,.06.68c0,.25.05.52.05.79a3.15,3.15,0,0,1,0,.44A.5.5,0,0,1,8.18,51.64Z"/><path class="cls-2" d="M12.89,51h-.1a.49.49,0,0,1-.4-.59s0-.07,0-.1a2.25,2.25,0,0,0-.06-.41,3.81,3.81,0,0,1-.07-.59,1.39,1.39,0,0,1,0-.3.52.52,0,0,1,.6-.4.52.52,0,0,1,.4.6.31.31,0,0,0,0,.1,3.77,3.77,0,0,0,.05.41,2.73,2.73,0,0,1,.07.59,1.36,1.36,0,0,1,0,.29A.49.49,0,0,1,12.89,51Z"/><path class="cls-2" d="M16.81,56.7a.53.53,0,0,1-.4-.19.52.52,0,0,1,.08-.72c3-2.45,5.7-4.95,8.54-7.59,2.67-2.48,5.43-5.05,8.79-7.9a.51.51,0,0,1,.7.05c1.6,1.75,3.4,3.84,5.13,5.87a90.13,90.13,0,0,0,6.88,7.56.51.51,0,0,1-.65.78,87.45,87.45,0,0,1-7-7.68C37.27,45,35.6,43.06,34.1,41.4c-3.17,2.7-5.82,5.16-8.38,7.55-2.85,2.65-5.55,5.16-8.59,7.63A.51.51,0,0,1,16.81,56.7Z"/><path class="cls-2" d="M52.07,49a.5.5,0,0,1-.3-.11,10.59,10.59,0,0,1-2.5-2.78c-.49-.72-.76-1.1-1.16-1.18-.87-.16-2.68.82-6.71,3.6a.5.5,0,1,1-.57-.83c4.49-3.12,6.24-4,7.47-3.76.84.16,1.29.83,1.81,1.6a9.61,9.61,0,0,0,2.27,2.54.51.51,0,0,1-.31.92Z"/><path class="cls-2" d="M29.08,48.08a1.87,1.87,0,0,1-1-.36,1.23,1.23,0,0,0-.5-.22h-.08a.51.51,0,0,1-.66-.29.52.52,0,0,1,.3-.66,1.32,1.32,0,0,1,.44-.08,1.93,1.93,0,0,1,1,.38,1.35,1.35,0,0,0,.44.2,3.47,3.47,0,0,0,1.3-.55,4.8,4.8,0,0,1,2.25-.82,4.08,4.08,0,0,1,1.85.58,3.24,3.24,0,0,0,1.38.47,3.24,3.24,0,0,0,1.79-.84l.21-.15a.51.51,0,0,1,.59.83l-.2.14a4,4,0,0,1-2.39,1A4.11,4.11,0,0,1,34,47.18a3.19,3.19,0,0,0-1.39-.47,4.06,4.06,0,0,0-1.74.68A4,4,0,0,1,29.08,48.08Z"/><path class="cls-2" d="M45.35,48.77h-.08A2.93,2.93,0,0,1,43.58,48a3.86,3.86,0,0,0-.82-.54.51.51,0,1,1,.37-.94,4.45,4.45,0,0,1,1.08.69,2.07,2.07,0,0,0,1.11.58,1.29,1.29,0,0,0,.74-.33,2.57,2.57,0,0,1,1.44-.54,6.52,6.52,0,0,1,1,.1,5.35,5.35,0,0,0,.85.09,1,1,0,0,0,.87-.35.51.51,0,1,1,.76.68,2.09,2.09,0,0,1-1.63.69,6.78,6.78,0,0,1-1-.1,5.29,5.29,0,0,0-.85-.1,1.63,1.63,0,0,0-.87.38A2.3,2.3,0,0,1,45.35,48.77Z"/><path class="cls-2" d="M33.71,41.35a.52.52,0,0,1-.51-.5c0-1.45-.05-2.9-.07-4.35,0-2.85-.07-5.8-.19-8.7a.5.5,0,0,1,.49-.52.51.51,0,0,1,.53.48c.11,2.92.15,5.87.19,8.73,0,1.44,0,2.89.07,4.34A.52.52,0,0,1,33.71,41.35Z"/><path class="cls-2" d="M41.11,34.36a.51.51,0,0,1-.36-.15l0,0a3.93,3.93,0,0,0-3.32-1.47,6.45,6.45,0,0,0-3.49,1.09.51.51,0,0,1-.55-.86,7.43,7.43,0,0,1,4-1.25,4.73,4.73,0,0,1,3.2,1V30.79c0-.78,0-1.47,0-2.11A3.77,3.77,0,0,0,38,27.8a7.08,7.08,0,0,0-4.15,1.52.5.5,0,0,1-.71-.1.51.51,0,0,1,.1-.71A8.09,8.09,0,0,1,38,26.79a4.79,4.79,0,0,1,3.45,1.26.53.53,0,0,1,.19.4c0,.7,0,1.47,0,2.34s0,1.43,0,2.15v.91a.51.51,0,0,1-.31.47A.48.48,0,0,1,41.11,34.36Z"/><path class="cls-2" d="M41.32,38.36c-1.81,0-2.45-.83-2.45-3.15,0-.28,0-.57,0-.85s0-.54,0-.81,0-.53,0-.74a.51.51,0,0,1,.45-.56.51.51,0,0,1,.56.44,7.53,7.53,0,0,1,0,.86c0,.28,0,.56,0,.84s0,.55,0,.82c0,2.13.51,2.13,1.44,2.13a5.1,5.1,0,0,0,2.91-1.25c-.08-1-.15-2.25-.15-3.52,0-.56,0-1.1,0-1.61a7.81,7.81,0,0,1-2.8.73.51.51,0,0,1-.54-.48.52.52,0,0,1,.48-.54,7.8,7.8,0,0,0,3.21-1,.52.52,0,0,1,.51,0,.52.52,0,0,1,.22.47c-.07.75-.1,1.54-.1,2.4,0,1.36.08,2.7.16,3.72a.51.51,0,0,1-.2.44A6.35,6.35,0,0,1,41.32,38.36Z"/><path class="cls-2" d="M26.52,30.49c-.21,0-.41,0-.61,0a.51.51,0,1,1,.09-1,9.45,9.45,0,0,0,1.58,0c.37,0,.76-.05,1.16-.05a.51.51,0,1,1,0,1c-.36,0-.73,0-1.09.06S26.91,30.49,26.52,30.49Z"/><path class="cls-2" d="M30.4,25.24a.51.51,0,0,1-.36-.15,3.21,3.21,0,0,1-.55-.75,2.94,2.94,0,0,0-.55-.7.51.51,0,0,1-.06-.71.5.5,0,0,1,.71-.07,3.77,3.77,0,0,1,.76.95,3.08,3.08,0,0,0,.41.57.5.5,0,0,1,0,.71A.51.51,0,0,1,30.4,25.24Z"/><path class="cls-2" d="M35.36,23.41a.5.5,0,0,1-.49-.41,1.61,1.61,0,0,1,0-.39c0-.1,0-.2,0-.29a1.93,1.93,0,0,0,0-.24.78.78,0,0,0,0-.29.51.51,0,0,1,.94-.38,1.9,1.9,0,0,1,.12.67c0,.1,0,.2,0,.29a1.93,1.93,0,0,0,0,.24,1,1,0,0,0,0,.19.5.5,0,0,1-.39.6Z"/><path class="cls-2" d="M40.94,23.76h-.1a.51.51,0,0,1-.4-.6c0-.15.08-.31.12-.46a3.12,3.12,0,0,0,.13-.74.51.51,0,0,1,1,0,4.1,4.1,0,0,1-.17,1c0,.13-.07.27-.1.4A.51.51,0,0,1,40.94,23.76Z"/><path class="cls-2" d="M43.9,26.72a.52.52,0,0,1-.44-.25.52.52,0,0,1,.19-.7l.48-.27a9.8,9.8,0,0,1,1.32-.71.51.51,0,0,1,.4.93,10.93,10.93,0,0,0-1.21.65l-.48.29A.58.58,0,0,1,43.9,26.72Z"/><path class="cls-2" d="M48.87,34.48H47.39a.51.51,0,0,1,0-1h1.48a.51.51,0,0,1,0,1Z"/><path class="cls-2" d="M8.79,60.09a.51.51,0,0,1-.44-.25.52.52,0,0,1,.19-.7,25.31,25.31,0,0,0,2.85-2l.88-.66a.51.51,0,0,1,.41-.09.5.5,0,0,1,.34.26,8.59,8.59,0,0,0,1.32,2h.22a13.72,13.72,0,0,0,1.69,0c.44,0,.89-.06,1.34-.06a7.37,7.37,0,0,1,1.31.11.51.51,0,0,1-.18,1,6.31,6.31,0,0,0-1.13-.09c-.42,0-.85,0-1.27,0a15.57,15.57,0,0,1-1.81,0h0l-.2,0c-.18,0-.7,0-1.85-2L12,58A27.34,27.34,0,0,1,9,60,.54.54,0,0,1,8.79,60.09Z"/><path class="cls-2" d="M23.84,60a2.54,2.54,0,0,1-1.74-.66,2.33,2.33,0,0,1-.72-1.69,2.39,2.39,0,0,1,1.67-2.3,2.25,2.25,0,0,1,.77-.11,2.29,2.29,0,0,1,1.66.71,2.57,2.57,0,0,1,.63,1.91A2.33,2.33,0,0,1,24,60Zm-.49-3.68a1.36,1.36,0,0,0-1,1.32,1.3,1.3,0,0,0,.39,1,1.58,1.58,0,0,0,1.14.38,1.29,1.29,0,0,0,1.16-1.18,1.51,1.51,0,0,0-.35-1.15,1.26,1.26,0,0,0-.94-.4A1.41,1.41,0,0,0,23.35,56.3Z"/><path class="cls-2" d="M25.52,55.21a.52.52,0,0,1-.21,0,.51.51,0,0,1-.25-.67c.88-2,2.7-2.51,4.31-3,1.85-.56,2.9-.95,2.9-2.59,0-.18,0-.37,0-.55s0-.37,0-.55a.51.51,0,1,1,1,0c0,.17,0,.34,0,.51s0,.4,0,.59c0,2.48-1.92,3-3.62,3.56-1.47.44-3,.89-3.68,2.43A.5.5,0,0,1,25.52,55.21Z"/><path class="cls-2" d="M38.62,63.24a2.52,2.52,0,0,1-1.69-.7,2.35,2.35,0,0,1-.79-1.67,2.4,2.4,0,0,1,.75-1.69,2.44,2.44,0,0,1,1.78-.76,2,2,0,0,1,.68.12,2.47,2.47,0,0,1,1.07.67,2.2,2.2,0,0,1,.64,1.52,2.51,2.51,0,0,1-.7,1.77,2.42,2.42,0,0,1-1.71.74Zm0-3.81a1.48,1.48,0,0,0-1,.47,1.22,1.22,0,0,0,0,1.9,1.47,1.47,0,0,0,1,.42,1.37,1.37,0,0,0,1-.43,1.46,1.46,0,0,0,.41-1,1.14,1.14,0,0,0-.36-.84A1.54,1.54,0,0,0,39,59.5a1.21,1.21,0,0,0-.37-.07Z"/><path class="cls-2" d="M29.31,59.48a6.45,6.45,0,0,1-1.94-.28.52.52,0,0,1-.33-.64.51.51,0,0,1,.63-.33,5.42,5.42,0,0,0,1.64.23,15.06,15.06,0,0,0,3-.43,14.62,14.62,0,0,1,2.81-.4,4,4,0,0,1,2.6.79.51.51,0,0,1,.08.71.52.52,0,0,1-.72.08,3,3,0,0,0-2-.57,13.12,13.12,0,0,0-2.6.39A15.91,15.91,0,0,1,29.31,59.48Z"/><path class="cls-2" d="M34.75,66.71a.51.51,0,0,1-.07-1c1-.14,3.49-.71,3.84-2.72a.52.52,0,0,1,.59-.41.5.5,0,0,1,.41.59c-.32,1.88-2,3.17-4.69,3.55Z"/><path class="cls-2" d="M19.2,73.15h-.15c-1.44-.08-2.26-1.2-2.21-3v0a2.45,2.45,0,0,1,0-.27,2.54,2.54,0,0,1,2.8-1.76,2.44,2.44,0,0,1,2.19,2.32,2.57,2.57,0,0,1-.76,2A2.7,2.7,0,0,1,19.2,73.15Zm-1.34-3c0,.86.17,1.9,1.25,2a1.68,1.68,0,0,0,1.26-.48,1.59,1.59,0,0,0,.47-1.2,1.4,1.4,0,0,0-1.25-1.35c-.73,0-1.62.31-1.73.92v.15Z"/><path class="cls-2" d="M20.47,69.15a.57.57,0,0,1-.18,0,.5.5,0,0,1-.33-.47v-.09a.51.51,0,0,1,.33-.48c1.92-2,4.57-2.3,6.93-2.3.7,0,1.4,0,2.08,0,.84,0,1.63.06,2.39,0a.51.51,0,0,1,0,1c-.79,0-1.64,0-2.46,0s-1.36-.06-2-.06c-2.33,0-4.71.27-6.37,2.19A.52.52,0,0,1,20.47,69.15Z"/><path class="cls-2" d="M25.61,75.2c-2.66,0-4.49-1.1-5-3a.51.51,0,0,1,.35-.63.52.52,0,0,1,.63.36c.54,2,2.76,2.27,4,2.27a19.2,19.2,0,0,0,3-.37,26.2,26.2,0,0,1,4.48-.52,9.43,9.43,0,0,1,3.82.73.5.5,0,0,1,.27.66.51.51,0,0,1-.67.27,8.52,8.52,0,0,0-3.42-.64,24.92,24.92,0,0,0-4.31.5A19.47,19.47,0,0,1,25.61,75.2Z"/><path class="cls-2" d="M40.34,79.48a2.58,2.58,0,0,1-1.8-.69,2.72,2.72,0,0,1-.83-1.8A2.56,2.56,0,0,1,40,74.31a2.83,2.83,0,0,1,1.35.2A2.56,2.56,0,0,1,42.83,77a2.51,2.51,0,0,1-2.39,2.52ZM40,75.32A1.53,1.53,0,0,0,38.73,77a1.64,1.64,0,0,0,.51,1.09,1.57,1.57,0,0,0,1.17.41,1.53,1.53,0,0,0,1.41-1.52,1.54,1.54,0,0,0-.9-1.49A2,2,0,0,0,40,75.32Z"/><path class="cls-2" d="M28.57,87.28a.65.65,0,0,1-.2,0,.51.51,0,0,1-.27-.67,5.49,5.49,0,0,1,1.25-1.72,7.62,7.62,0,0,1-1.2-1.36.51.51,0,1,1,.84-.58,6.24,6.24,0,0,0,1.43,1.5.52.52,0,0,1,.21.38.49.49,0,0,1-.17.41A5.2,5.2,0,0,0,29,87,.52.52,0,0,1,28.57,87.28Z"/><path class="cls-2" d="M31.27,87.54a.49.49,0,0,1-.3-.1.5.5,0,0,1-.11-.71,10,10,0,0,1,1.56-1.62c-.3-.32-.59-.66-.87-1s-.7-.81-1.07-1.18a.51.51,0,0,1,0-.72.5.5,0,0,1,.71,0c.4.39.77.82,1.12,1.23s.79.91,1.21,1.31a.53.53,0,0,1,0,.76l0,0a10.65,10.65,0,0,0-1.78,1.77A.49.49,0,0,1,31.27,87.54Z"/><path class="cls-2" d="M5.94,74.87a6.14,6.14,0,0,1-4.21-1.64,5.55,5.55,0,0,1-1.73-4,5.79,5.79,0,0,1,4.39-5.71,4.49,4.49,0,0,1,.83-.12A6.24,6.24,0,0,1,9.82,65,5.37,5.37,0,0,1,11.52,69a5.65,5.65,0,0,1-5.31,5.89ZM4.62,64.53A4.76,4.76,0,0,0,1,69.24a4.49,4.49,0,0,0,1.41,3.25,5.18,5.18,0,0,0,3.73,1.36A4.61,4.61,0,0,0,10.51,69a4.38,4.38,0,0,0-1.39-3.22,5.22,5.22,0,0,0-3.85-1.34A3.44,3.44,0,0,0,4.62,64.53Z"/><path class="cls-2" d="M5.53,70.1a.51.51,0,0,1-.5-.44,17,17,0,0,1-.17-2.25c0-.26,0-.49,0-.72a.51.51,0,1,1,1,.08c0,.2,0,.41,0,.64A15.23,15.23,0,0,0,6,69.07a10.79,10.79,0,0,0,1.83-.22.51.51,0,1,1,.22,1A13.09,13.09,0,0,1,5.53,70.1Z"/><path class="cls-2" d="M2.35,70.14a.8.8,0,0,1-.78-.72.74.74,0,0,1,.24-.52.48.48,0,0,1,.45-.14h.08a.89.89,0,0,1,.5.14.64.64,0,0,1,.27.53A.75.75,0,0,1,2.35,70.14Z"/><path class="cls-2" d="M5.23,65.48a.63.63,0,0,1-.61-.63.71.71,0,0,1,.09-.35A.53.53,0,0,1,5,64.12a.52.52,0,0,1,.5,0,.69.69,0,0,1,.39.64.86.86,0,0,1-.09.41A.58.58,0,0,1,5.23,65.48Zm0-1a.4.4,0,0,0-.4.3A.33.33,0,0,0,5,65l.23-.46h.27a.43.43,0,0,0-.24-.09Zm-.51.09Z"/><path class="cls-2" d="M6,73.72a.68.68,0,0,1-.74-.63,1,1,0,0,1,.33-.71.5.5,0,0,1,.71,0,.62.62,0,0,1,.14.23.54.54,0,0,1,.27.48.61.61,0,0,1-.32.54A.8.8,0,0,1,6,73.72Z"/><path class="cls-2" d="M9.73,69.61A.74.74,0,0,1,9,68.92a.73.73,0,0,1,.48-.64.52.52,0,0,1,.55.06.94.94,0,0,1,.12.09l.09.1a.52.52,0,0,1,0,.67A.65.65,0,0,1,9.73,69.61Zm.54-.37Z"/><path class="cls-2" d="M13.1,84.78c-1.58,0-2.27-2.25-2.27-3.39a5.22,5.22,0,0,1,4.88-5.07,1.48,1.48,0,0,1,.41.06.9.9,0,0,0,.16,0c1,0,1.66,1.5,1.66,2.5a3,3,0,0,1-.12.85l-.1.31C17.07,82.28,16.33,84.78,13.1,84.78Zm2.61-7.45a4.22,4.22,0,0,0-3.86,4.06c0,.81.53,2.37,1.25,2.37,2.47,0,3-1.84,3.65-4l.09-.31a1.77,1.77,0,0,0,.08-.56,2,2,0,0,0-.64-1.49,1.33,1.33,0,0,1-.43-.07Z"/><path class="cls-2" d="M18.55,82.05l-.12,0c-1.22-.3-2.45-.72-3.63-1.13-.88-.3-1.78-.62-2.67-.88a.49.49,0,0,1-.34-.62.51.51,0,0,1,.63-.35c.91.26,1.82.58,2.71.89,1.17.4,2.37.82,3.54,1.11a.51.51,0,0,1-.12,1Z"/><path class="cls-2" d="M6.8,99.9H6.68a.51.51,0,0,1-.37-.62A58.25,58.25,0,0,0,7.6,91.69c.47-3.9.77-6.47,3.85-7.91a.51.51,0,0,1,.68.25.5.5,0,0,1-.25.67C9.31,85.9,9.06,88,8.61,91.81a56.33,56.33,0,0,1-1.32,7.71A.49.49,0,0,1,6.8,99.9Z"/><path class="cls-2" d="M8.18,99.39H8.1a.51.51,0,0,1-.42-.58c.72-4.63,4.6-6.72,5.68-6.72s1.12,1.66,1.12,2.64a6.06,6.06,0,0,1-.1,1.15l.79-.34.09-.83a18,18,0,0,0,.19-2.33c0-1.45,0-1.64-1.08-1.64a6.5,6.5,0,0,0-.74.06,7.54,7.54,0,0,1-.83.06c-.85,0-1.24-.2-1.24-.64a.58.58,0,0,1,.19-.4A7.93,7.93,0,0,0,13.18,88a.5.5,0,0,1,.69-.19.51.51,0,0,1,.19.69,8.09,8.09,0,0,1-.92,1.29l.37,0a7.91,7.91,0,0,1,.86-.06c2.1,0,2.1,1.34,2.1,2.65a19.43,19.43,0,0,1-.2,2.45c0,.37-.09.75-.12,1.12a.51.51,0,0,1-.33.43,10.79,10.79,0,0,0-1.73.8c-.24.13-.53.29-.82,0a.62.62,0,0,1-.1-.74,4.69,4.69,0,0,0,.29-1.75,5.2,5.2,0,0,0-.22-1.61A7.45,7.45,0,0,0,8.68,99,.51.51,0,0,1,8.18,99.39Z"/><path class="cls-2" d="M14.27,86.67a.51.51,0,0,1-.51-.51v-.07a1.16,1.16,0,0,0-.28-.88,2.67,2.67,0,0,1-.41-.75.51.51,0,0,1,.32-.64.5.5,0,0,1,.64.32,1.65,1.65,0,0,0,.27.47,2.17,2.17,0,0,1,.48,1.48v.08A.51.51,0,0,1,14.27,86.67Z"/><path class="cls-2" d="M6.56,90.82c-1.45,0-2.12-1.59-2.12-2.67,0-3.17,1-6.88,3.81-6.88,1.74,0,2.42,1.69,2.82,2.7l.11.25a.52.52,0,0,1-.28.67.51.51,0,0,1-.66-.28c0-.08-.07-.17-.11-.26-.45-1.13-.91-2.06-1.88-2.06-2.2,0-2.79,3.68-2.79,5.86,0,.58.32,1.65,1.1,1.65a1.78,1.78,0,0,0,1.26-.6.51.51,0,0,1,.72.72A2.79,2.79,0,0,1,6.56,90.82Z"/><path class="cls-2" d="M18.12,90c-1.93,0-6.16-.88-6.16-3.5a1,1,0,0,1,1-1.1,4.79,4.79,0,0,1,2.49.81,7.58,7.58,0,0,0,4.16,1.12h.91l.94,0h.18a1.34,1.34,0,0,1,1,.25.85.85,0,0,1,.23.62.5.5,0,0,1-.24.43,9.56,9.56,0,0,1-2.39,1.11A8.06,8.06,0,0,1,18.12,90ZM13,86.41a.19.19,0,0,0,0,.08C13,88.12,16.32,89,18.12,89A6.79,6.79,0,0,0,20,88.72a6.16,6.16,0,0,0,1.07-.41h-.5l-.93,0A8.54,8.54,0,0,1,15,87.09,3.92,3.92,0,0,0,13,86.41Z"/><path class="cls-2" d="M21.42,88.32a.5.5,0,0,1-.5-.51V83.28a.51.51,0,0,1,1,0v4.53A.51.51,0,0,1,21.42,88.32Z"/><path class="cls-2" d="M21,96h0a.51.51,0,0,1-.47-.55l.12-1.37c.13-1.42.25-2.76.25-4.15,0-.29,0-.57,0-.87a.5.5,0,0,1,.49-.52.51.51,0,0,1,.53.48c0,.31,0,.61,0,.91,0,1.43-.12,2.86-.25,4.24,0,.45-.08.9-.11,1.36A.52.52,0,0,1,21,96Z"/><path class="cls-2" d="M48,100.4a.54.54,0,0,1-.32-.11c-1.49-1.19-3-2.51-4.9-4.16a.44.44,0,0,1-.17-.35.5.5,0,0,1,.13-.37,22.87,22.87,0,0,1,1.91-1.78l.63-.55a.5.5,0,0,1,.38-.12.54.54,0,0,1,.36.18,18.23,18.23,0,0,0,1.49,1.62c1-.93,2.08-1.77,3.13-2.59l.5-.39a.5.5,0,0,1,.72.09c.6.79,1.26,1.53,1.82,2.15a.51.51,0,0,1,0,.69l-2.47,2.57c-.94,1-1.91,2-2.84,3A.54.54,0,0,1,48,100.4Zm-4.15-4.67c1.52,1.34,2.84,2.46,4.1,3.47.83-.89,1.69-1.77,2.53-2.63s1.43-1.47,2.14-2.22c-.4-.44-.83-.93-1.25-1.46l-.11.08c-1.15.9-2.34,1.83-3.41,2.85a.51.51,0,0,1-.7,0c-.47-.45-1-1-1.59-1.64l-.25.21C44.82,94.83,44.31,95.27,43.85,95.73Z"/><path class="cls-2" d="M15,109.23a.51.51,0,0,1-.51-.45,32.09,32.09,0,0,1-.25-3.45,13.07,13.07,0,0,1,.08-1.45.51.51,0,0,1,1,.11,11.31,11.31,0,0,0-.07,1.34,30.64,30.64,0,0,0,.24,3.34.51.51,0,0,1-.45.56Z"/><path class="cls-2" d="M12.71,107.05a.5.5,0,0,1-.51-.5.51.51,0,0,1,.51-.51,21,21,0,0,0,4.6-.42.5.5,0,0,1,.6.38.51.51,0,0,1-.38.61A21.76,21.76,0,0,1,12.71,107.05Z"/><path class="cls-2" d="M107.68,16.18a.49.49,0,0,1-.5-.45,29.71,29.71,0,0,1-.25-3.45,13.36,13.36,0,0,1,.07-1.46.51.51,0,0,1,1,.12,11.08,11.08,0,0,0-.07,1.34,30.54,30.54,0,0,0,.25,3.34.51.51,0,0,1-.45.56Z"/><path class="cls-2" d="M105.42,14a.51.51,0,1,1,0-1,20.28,20.28,0,0,0,4.59-.43.51.51,0,0,1,.22,1A22.28,22.28,0,0,1,105.42,14Z"/><path class="cls-2" d="M29.55,108.94c-2.38,0-4.48-.06-6.42-.19a.54.54,0,0,1-.41-.27.52.52,0,0,1,0-.5,20,20,0,0,1,2.77-3.47c-.8-.66-1.65-1.42-2.59-2.31a.51.51,0,0,1,.38-.88c3.42.15,6.57.22,9.62.22,2.78,0,5.5-.06,8.09-.18a.5.5,0,0,1,.44.22A37.74,37.74,0,0,0,44,104.87a.5.5,0,0,1,.12.41.52.52,0,0,1-.23.35l-1.36.86c-1.11.71-2.26,1.44-3.35,2.18a.47.47,0,0,1-.28.09l-2.31.06C34.31,108.88,31.91,108.94,29.55,108.94Zm-5.49-1.15c1.68.09,3.48.14,5.49.14,2.35,0,4.74-.07,7.05-.13l2.16,0c1.07-.73,2.18-1.43,3.26-2.11l.86-.55c-.75-.89-1.47-1.77-2.12-2.71-2.52.12-5.16.18-7.85.18s-5.39-.06-8.3-.17c.69.63,1.33,1.18,1.95,1.66a.52.52,0,0,1,.06.75l-.3.32A23.18,23.18,0,0,0,24.06,107.79Z"/><path class="cls-2" d="M29.53,105.75a.51.51,0,0,1,0-1c2.43,0,4.9-.09,7.3-.17a.51.51,0,0,1,.52.49.5.5,0,0,1-.49.52C34.46,105.66,32,105.75,29.53,105.75Z"/><path class="cls-2" d="M32.23,113a.5.5,0,0,1-.5-.4,5.94,5.94,0,0,1-.11-1.27c0-.24,0-.49,0-.73s0-.47,0-.7a5.2,5.2,0,0,0-.09-1,.51.51,0,0,1,1-.21,5.79,5.79,0,0,1,.12,1.26c0,.25,0,.49,0,.74s0,.46,0,.69a4.45,4.45,0,0,0,.1,1,.52.52,0,0,1-.39.61Z"/><path class="cls-2" d="M40.16,116.46a.39.39,0,0,1-.15,0,2.83,2.83,0,0,1-1.17-.78,1.56,1.56,0,0,0-1.21-.61,2,2,0,0,0-.94.23.55.55,0,0,1-.4,0A.53.53,0,0,1,36,115a2.87,2.87,0,0,0-2.87-1.75,4.83,4.83,0,0,0-3.75,2,.54.54,0,0,1,.05.21.51.51,0,0,1-.51.51h-.09a.5.5,0,0,1-.45-.28.64.64,0,0,1-.08-.33c0-.77,2-3.16,4.83-3.16a3.88,3.88,0,0,1,3.58,1.92,2.91,2.91,0,0,1,.92-.15,2.56,2.56,0,0,1,1.92.9,1.91,1.91,0,0,0,.75.54.5.5,0,0,1,.34.63A.49.49,0,0,1,40.16,116.46Z"/><path class="cls-2" d="M33.07,128.06a2,2,0,0,1-1.94-1.9,1.87,1.87,0,0,1,.57-1.33,2,2,0,0,1,1.37-.62,1.31,1.31,0,0,1,.5.11l-.18.47.19-.47a2.31,2.31,0,0,1,.87.49,1.93,1.93,0,0,1,.56,1.32,2,2,0,0,1-.59,1.35A1.91,1.91,0,0,1,33.07,128.06Zm0-2.83a1,1,0,0,0-.65.32.83.83,0,0,0-.27.6,1,1,0,0,0,.92.89.89.89,0,0,0,.63-.28.94.94,0,0,0,.29-.63.9.9,0,0,0-.27-.61,1.59,1.59,0,0,0-.49-.25l.16-.48-.18.48A.38.38,0,0,0,33.07,125.23Z"/><path class="cls-2" d="M31.44,125.61h-.12c-3.81-.93-6.71-3.72-9-6a.51.51,0,0,1,0-.72.52.52,0,0,1,.72,0c2.23,2.16,5,4.84,8.56,5.71a.51.51,0,0,1-.12,1Z"/><path class="cls-2" d="M22.3,121.69h0a.5.5,0,0,1-.47-.54c0-.14,0-.28,0-.42a11.35,11.35,0,0,0-.16-1.75.49.49,0,0,1,.12-.42.51.51,0,0,1,.41-.17l.73.07a7.26,7.26,0,0,0,2.15,0,.5.5,0,0,1,.24,1,5,5,0,0,1-1.21.14c-.44,0-.87,0-1.28-.08h-.07a10.26,10.26,0,0,1,.09,1.27c0,.16,0,.32,0,.49A.5.5,0,0,1,22.3,121.69Z"/><path class="cls-2" d="M54.77,113.16A9.91,9.91,0,0,1,47.05,109a.5.5,0,0,1,0-.57,10.47,10.47,0,0,1,9.09-4.67c3.82,0,5.88,1.91,7.54,4a.54.54,0,0,1,.05.57C62,111.4,58.76,113.16,54.77,113.16Zm-6.7-4.47a9,9,0,0,0,14.57-.54,7.86,7.86,0,0,0-6.53-3.33A9.58,9.58,0,0,0,48.07,108.69Z"/><path class="cls-2" d="M55.56,111.88h-.13a3.46,3.46,0,0,1-2.06-6,3.16,3.16,0,0,1,1.91-.68,3.77,3.77,0,0,1,2.8.94,3.23,3.23,0,0,1,1,2.32,3.36,3.36,0,0,1-1,2.44A3.62,3.62,0,0,1,55.56,111.88ZM54,106.6a2.44,2.44,0,0,0-.83,1.76,2.4,2.4,0,0,0,2.27,2.5,2.55,2.55,0,0,0,1.91-.73,2.34,2.34,0,0,0,.71-1.7,2.22,2.22,0,0,0-.7-1.6,2.75,2.75,0,0,0-2.06-.66A2.24,2.24,0,0,0,54,106.6Z"/><path class="cls-2" d="M55.72,109.36a1.17,1.17,0,0,1-1.25-1c0-.43.35-1.24,1-1.24h.08l.23,0a1.07,1.07,0,0,1,1,1.15A1.09,1.09,0,0,1,55.72,109.36Zm-.22-1.08a.41.41,0,0,0,.22.06h0a.21.21,0,0,0,0-.13.23.23,0,0,0,0-.13h-.18A.49.49,0,0,0,55.5,108.28Z"/><path class="cls-2" d="M54.78,120.66h-.1a2.56,2.56,0,0,1-2.45-2.47,2.59,2.59,0,0,1,2.1-2.62,1.6,1.6,0,0,1,.23,0,2.76,2.76,0,0,1,2.11.77,2.58,2.58,0,0,1,.79,1.91,2.54,2.54,0,0,1-.82,1.71A2.66,2.66,0,0,1,54.78,120.66Zm-.05-4.11h-.11l-.12,0a1.55,1.55,0,0,0,.22,3.07,1.69,1.69,0,0,0,1.23-.45A1.43,1.43,0,0,0,56,117,1.71,1.71,0,0,0,54.73,116.55Z"/><path class="cls-2" d="M50.09,119.34a.52.52,0,0,1-.48-.33.51.51,0,0,1,.3-.65,2.23,2.23,0,0,1,.85-.14l.45,0h.39a1.34,1.34,0,0,0,.49-.07.51.51,0,0,1,.36.95,2.23,2.23,0,0,1-.85.14l-.45,0h-.39a1.34,1.34,0,0,0-.49.07A.57.57,0,0,1,50.09,119.34Z"/><path class="cls-2" d="M54.71,116.38a.52.52,0,0,1-.51-.44,12.33,12.33,0,0,1-.09-1.81.51.51,0,0,1,1,0,11.61,11.61,0,0,0,.08,1.67.5.5,0,0,1-.43.57Z"/><path class="cls-2" d="M55.32,122.13a.5.5,0,0,1-.48-.35,3.37,3.37,0,0,1-.21-1.13,2.42,2.42,0,0,1,.12-.76.51.51,0,0,1,1,.32,1.56,1.56,0,0,0-.07.44,2.5,2.5,0,0,0,.16.81.51.51,0,0,1-.32.64Z"/><path class="cls-2" d="M57.6,118.58a3,3,0,0,1-.44,0,.51.51,0,0,1-.43-.57.52.52,0,0,1,.58-.44,4,4,0,0,0,1,0,6.83,6.83,0,0,1,.79-.06.51.51,0,1,1,0,1,5.43,5.43,0,0,0-.67,0A6.66,6.66,0,0,1,57.6,118.58Z"/><path class="cls-2" d="M51,133.22a.52.52,0,0,1-.35-.14l-.57-.56a12.45,12.45,0,0,0-1.28-1.17.51.51,0,0,1-.12-.71.52.52,0,0,1,.71-.11,12.16,12.16,0,0,1,1.41,1.27l.17.17.29-.33a29,29,0,0,1,2.19-2.38.51.51,0,0,1,.69.75A27.13,27.13,0,0,0,52,132.3l-.64.75a.56.56,0,0,1-.36.17Z"/><path class="cls-2" d="M50.87,135.46A3.58,3.58,0,0,1,47,131.83a2.85,2.85,0,0,1,3-3,3.65,3.65,0,0,1,.93.12.51.51,0,1,1-.26,1,2.57,2.57,0,0,0-.67-.09,1.86,1.86,0,0,0-2,2c0,1.61,1.11,2.61,2.9,2.61a4.08,4.08,0,0,0,2.66-1.21.52.52,0,0,1,.72-.06.51.51,0,0,1,.06.71A5,5,0,0,1,50.87,135.46Z"/><path class="cls-2" d="M45.35,135.38a.5.5,0,0,1-.4-.19l-.08-.1c-.45-.55-1-1.24-1-3.81a5.36,5.36,0,0,1,1.73-4.3.51.51,0,0,1,.66.78,4.3,4.3,0,0,0-1.38,3.52c0,2.2.42,2.71.8,3.17l.08.11a.51.51,0,0,1-.07.71A.56.56,0,0,1,45.35,135.38Z"/><path class="cls-2" d="M56.62,138.86a.51.51,0,0,1-.36-.15.53.53,0,0,1,0-.72,5.28,5.28,0,0,0,1.57-3.83A8.28,8.28,0,0,0,54.74,128a.51.51,0,0,1-.08-.72.5.5,0,0,1,.71-.07,9.28,9.28,0,0,1,3.47,6.92A6.29,6.29,0,0,1,57,138.71.51.51,0,0,1,56.62,138.86Z"/><path class="cls-2" d="M66.56,141.56a.51.51,0,0,1-.51-.51v-4.32a.5.5,0,0,1,.49-.51c3.3-.13,6.53-.24,9.79-.33,0-.4,0-.8-.08-1.21-.08-1.17-.16-2.37-.21-3.56a.47.47,0,0,1,.14-.37.5.5,0,0,1,.36-.16c1,0,2,0,3,0l3,0h1.68c0-.14,0-.28-.05-.41a35.2,35.2,0,0,1-.33-3.59.51.51,0,0,1,.49-.51c1.18-.06,2.37-.07,3.52-.08,1.47,0,3,0,4.5-.13a.5.5,0,0,1,.55.46.51.51,0,0,1-.47.55c-1.54.12-3.09.13-4.58.14-1,0-2,0-3,0,0,1,.17,2,.3,3l.12,1a.54.54,0,0,1-.12.39.51.51,0,0,1-.37.18c-.7,0-1.44,0-2.27,0l-3,0-2.49,0c0,1,.12,2,.19,3,0,.58.08,1.17.11,1.75a.51.51,0,0,1-.13.37.53.53,0,0,1-.36.17c-3.27.08-6.52.19-9.83.32v3.83A.5.5,0,0,1,66.56,141.56Z"/><path class="cls-2" d="M72.08,136.75c-3.2,0-4.75-2.16-6-4.24-.34.22-.68.44-1,.65a.51.51,0,0,1-.67-.14l-.63-.87c-.61-.83-1.24-1.7-1.79-2.61a.51.51,0,0,1,.09-.64c1.08-1,2.22-1.92,3.32-2.82a43.56,43.56,0,0,0,5.39-5,.51.51,0,1,1,.77.67A43.23,43.23,0,0,1,66,126.86c-1,.81-2,1.64-3,2.51.48.75,1,1.48,1.53,2.18.11.17.23.33.35.49l.75-.48.29-.18a.51.51,0,0,1,.71.16c1.28,2.06,2.6,4.2,5.46,4.2.46,0,.92,0,1.41-.08.33,0,.66-.06,1-.07,0-.17,0-.34,0-.51s0-.46,0-.68c0-.6-.13-1.6-1-1.6l-.46,0a5.1,5.1,0,0,1-.57,0,1.63,1.63,0,0,1-1.72-1.61c0-1.1.93-2.07,2.32-3.53.68-.71,1.45-1.51,2.3-2.52a.51.51,0,1,1,.78.66c-.87,1-1.65,1.84-2.34,2.57-1.19,1.23-2,2.12-2,2.82a.62.62,0,0,0,.7.59l.46,0a5.27,5.27,0,0,1,.57,0c1.25,0,2,1,2,2.62,0,.24,0,.49,0,.73s0,.43,0,.64v.28a.48.48,0,0,1-.13.38.52.52,0,0,1-.37.16c-.47,0-1,0-1.44.08S72.58,136.75,72.08,136.75Z"/><path class="cls-2" d="M71.44,132a.52.52,0,0,1-.33-.12c-1.85-1.53-3.67-3.2-5.7-5.23a.5.5,0,0,1,0-.71.51.51,0,0,1,.72,0c2,2,3.8,3.64,5.63,5.16a.5.5,0,0,1,.07.71A.52.52,0,0,1,71.44,132Z"/><path class="cls-2" d="M80.57,124.69h-.08a1.84,1.84,0,0,1-.18-3.65l.18,0a2,2,0,0,1,1.41.59,1.86,1.86,0,0,1,.58,1.34,1.81,1.81,0,0,1-.56,1.24A1.94,1.94,0,0,1,80.57,124.69Zm-.11-2.64a.82.82,0,0,0,.07,1.63.93.93,0,0,0,.69-.23.73.73,0,0,0,.24-.53.81.81,0,0,0-.27-.59.93.93,0,0,0-.65-.29Z"/><path class="cls-2" d="M81.89,122.82a.5.5,0,0,1-.29-.92c1.64-1.12,3.6-2.43,5.77-3.76a.51.51,0,0,1,.7.17.51.51,0,0,1-.17.7c-2.15,1.31-4.1,2.62-5.72,3.73A.51.51,0,0,1,81.89,122.82Z"/><path class="cls-2" d="M87.38,120.91H87.3a.51.51,0,0,1-.42-.58,12.07,12.07,0,0,1,.31-1.45,15,15,0,0,1-1.68-.33.51.51,0,0,1,.25-1,13.36,13.36,0,0,0,2.13.38.52.52,0,0,1,.38.23.51.51,0,0,1,.06.43,12.09,12.09,0,0,0-.45,1.89A.51.51,0,0,1,87.38,120.91Z"/><path class="cls-2" d="M90,137.07a.52.52,0,0,1-.29-.09,20.19,20.19,0,0,1-1.81-1.49l-.64-.57a.5.5,0,0,1-.18-.36.54.54,0,0,1,.15-.38,19,19,0,0,1,1.68-1.45l.71-.56a.5.5,0,0,1,.66,0c.63.56,1.34,1.2,2.07,1.75a.49.49,0,0,1,.2.34.51.51,0,0,1-.1.38,22.55,22.55,0,0,1-1.52,1.68l-.56.58A.51.51,0,0,1,90,137.07Zm-1.66-2.55.24.21c.46.41.9.81,1.36,1.16l.26-.26c.39-.41.77-.8,1.12-1.21-.48-.39-.95-.81-1.39-1.2l-.38.31C89.12,133.86,88.72,134.18,88.34,134.52Z"/><path class="cls-2" d="M102.53,131.38a.49.49,0,0,1-.37-.16c-.79-.81-1.58-1.64-2.34-2.45s-1.76-1.87-2.66-2.78a.5.5,0,0,1-.14-.39.47.47,0,0,1,.18-.36c.91-.75,1.62-1.31,2.31-1.82a.49.49,0,0,1,.66,0,35.74,35.74,0,0,0,2.72,2.46c.54-.45,1.1-.89,1.65-1.31s1.33-1,2-1.59a.51.51,0,0,1,.69,0,18.36,18.36,0,0,0,1.72,1.55.54.54,0,0,1,.2.36.52.52,0,0,1-.13.38c-1.24,1.39-2.62,2.65-4,3.87-.71.66-1.45,1.33-2.15,2A.5.5,0,0,1,102.53,131.38Zm-4.25-5.71c.77.8,1.54,1.61,2.28,2.4s1.31,1.39,2,2.08c.6-.57,1.21-1.13,1.81-1.68,1.18-1.08,2.4-2.2,3.51-3.4-.37-.31-.72-.64-1-1-.55.46-1.11.89-1.65,1.32s-1.31,1-1.94,1.56a.5.5,0,0,1-.65,0c-1.11-.91-2-1.71-2.81-2.49C99.31,124.84,98.83,125.22,98.28,125.67Z"/><path class="cls-2" d="M114.89,122.17h-.09a2.32,2.32,0,0,1-2.18-2.3,2.13,2.13,0,0,1,1.27-1.91,2.91,2.91,0,0,1,1.12-.23,2.2,2.2,0,0,1,2.26,2.09,2.16,2.16,0,0,1-.66,1.63A2.44,2.44,0,0,1,114.89,122.17Zm.09-3.42a1.9,1.9,0,0,0-.7.14,1.11,1.11,0,0,0-.64,1,1.31,1.31,0,0,0,1.21,1.26,1.44,1.44,0,0,0,1.05-.42,1.18,1.18,0,0,0,.36-.87,1.19,1.19,0,0,0-1.26-1.11Z"/><path class="cls-2" d="M70.83,115.42a.51.51,0,0,1-.51-.46q0-.33,0-.69a23.43,23.43,0,0,1,.65-4.79,19.22,19.22,0,0,0,.54-3.77c0-3.12-1.38-3.51-2.71-3.89-.79-.22-1.6-.45-1.91-1.28A8.07,8.07,0,0,1,66.44,98a14,14,0,0,0-1.06-5c-.24-.64-.57-1.42-.89-2.18a17.06,17.06,0,0,1-1.38-3.9,1.62,1.62,0,0,1,1.45-1.76c3.26,0,5.08,3.68,6.42,6.37.29.58.56,1.12.81,1.56a.5.5,0,0,1-.19.69.51.51,0,0,1-.69-.18c-.27-.47-.55-1-.84-1.62-1.22-2.45-2.88-5.8-5.51-5.8-.25,0-.43.39-.43.74a23.57,23.57,0,0,0,1.3,3.51c.32.76.65,1.56.9,2.21a15.19,15.19,0,0,1,1.12,5.32,7.18,7.18,0,0,0,.37,2.26c.12.33.54.47,1.23.66,1.37.4,3.45,1,3.45,4.87a20.19,20.19,0,0,1-.57,4,23.17,23.17,0,0,0-.62,4.58c0,.21,0,.41,0,.59a.51.51,0,0,1-.46.56Z"/><path class="cls-2" d="M70.3,91.63a.5.5,0,0,1-.5-.46c-.27-3.37-.4-7-.4-11.18,0-.88,0-1.71,0-2.49,0-4.46,0-7.15,1-8.2a1.58,1.58,0,0,1,1.15-.47c.71,0,2.58,0,2.58,14.55a.51.51,0,0,1-.51.51.5.5,0,0,1-.5-.51c0-11-1.16-13.54-1.57-13.54a.57.57,0,0,0-.43.18c-.75.75-.73,3.72-.7,7.48,0,.78,0,1.61,0,2.49,0,4.19.12,7.71.39,11.1a.51.51,0,0,1-.47.54Z"/><path class="cls-2" d="M83.87,106.87a.51.51,0,0,1-.47-.31,12,12,0,0,1-.34-2.73,6.25,6.25,0,0,1,1.23-3.5,5.92,5.92,0,0,0,1.17-3.4c0-2.16-.13-4.34-.26-6.45s-.27-4.32-.27-6.51c0-.42,0-.85,0-.85,0-.65-.33-2-1.08-2a1.71,1.71,0,0,0-1.54,1.26,1.09,1.09,0,0,1,0,.18c0,.18,0,.35,0,.5s0,1.06-.66,1.06a.52.52,0,0,1-.52-.44,1.15,1.15,0,0,1,0-.21,4.11,4.11,0,0,1,.21-1.3V82c0-1.32-.3-1.32-.65-1.32-1.57,0-2,1.93-2.18,2.76a.52.52,0,0,1-.56.49c-.11,0-.48-.09-.46-.62,0-.14,0-.46,0-1,0-1-.34-1.78-.51-1.78-1.6,0-2.53,1.7-2.86,3.28a.51.51,0,0,1-.6.39.5.5,0,0,1-.39-.6c.41-2,1.64-4.08,3.85-4.08.75,0,1.16.69,1.36,1.46a2.77,2.77,0,0,1,2.33-1.29,1.46,1.46,0,0,1,1.55,1.15,2.43,2.43,0,0,1,1.65-.62c1.52,0,2.09,1.83,2.09,3V84c0,2.16.13,4.34.26,6.45s.27,4.32.27,6.51a7,7,0,0,1-1.33,3.94,5.29,5.29,0,0,0-1.07,3,12.32,12.32,0,0,0,.25,2.33.52.52,0,0,1-.26.67A.79.79,0,0,1,83.87,106.87Z"/><path class="cls-2" d="M87.55,114.2a.5.5,0,0,1-.5-.46c-.2-2-.25-4-.26-5.78h-.35c-4.32.41-7.55.5-9.51.5H72.22a.51.51,0,1,1,0-1h4.71c1.93,0,5.14-.08,9.41-.49l.26,0,.73,0a.51.51,0,0,1,.47.51c0,1.92,0,4,.26,6.17a.51.51,0,0,1-.46.56Z"/><path class="cls-2" d="M75.53,114.47h-.12a1.94,1.94,0,0,1-1.73-2,2,2,0,0,1,.57-1.34,1.47,1.47,0,0,1,.79-.43,3.74,3.74,0,0,1,.53,0,1.85,1.85,0,0,1,1.9,1.83,1.91,1.91,0,0,1-1.94,2ZM75,111.84a1,1,0,0,0-.29.68.94.94,0,0,0,.76.93.93.93,0,0,0,.72-.25.9.9,0,0,0,.27-.68.83.83,0,0,0-.88-.83l-.37,0A.45.45,0,0,0,75,111.84Z"/><path class="cls-2" d="M93.32,99.74h0a2.28,2.28,0,0,1-1.6-.69A2.31,2.31,0,0,1,91,97.4a2.16,2.16,0,0,1,.36-1.18,3.56,3.56,0,0,1,.34-.42,2.08,2.08,0,0,1,1.41-.59,2.43,2.43,0,0,1,1.82.64,2.17,2.17,0,0,1,.69,1.57A2.21,2.21,0,0,1,95,99,2.46,2.46,0,0,1,93.32,99.74Zm0-3.52h-.09a1.07,1.07,0,0,0-.74.31,1.11,1.11,0,0,0-.2.25,1.21,1.21,0,0,0-.2.64,1.33,1.33,0,0,0,.37.92,1.23,1.23,0,0,0,.89.38,1.42,1.42,0,0,0,1-.42,1.16,1.16,0,0,0,.37-.86,1.13,1.13,0,0,0-.37-.85A1.41,1.41,0,0,0,93.28,96.22Z"/><path class="cls-2" d="M109.65,111a.49.49,0,0,1-.36-.15c-1.23-1.24-2.5-2.63-4-4.33l-.37.22c-1.71,1-3.47,2.07-5.1,3.15a.5.5,0,1,1-.56-.84c1.65-1.1,3.42-2.16,5.14-3.18l.73-.44a.52.52,0,0,1,.65.11c1.44,1.68,2.68,3.05,3.87,4.27l.17-.14c.26-.22.51-.43.77-.63,1.31-1,2.7-2,4-2.87,1.19-.79,2.42-1.62,3.58-2.5a.5.5,0,0,1,.67,0c.41.41.84.84,1.28,1.26.33-1.16.68-2.32,1-3.44.41-1.38.84-2.8,1.24-4.22l-1.91.3c-1.79.28-3.64.57-5.49.77l.73,1a.56.56,0,0,1,.08.38.52.52,0,0,1-.21.33c-1,.73-2.13,1.43-3.17,2.1s-2,1.31-3,2a.51.51,0,0,1-.68-.09c-.56-.67-1.09-1.38-1.6-2.07-.38-.51-.77-1-1.17-1.53-1.75,1.16-3.6,2.19-5.4,3.2-1,.56-2,1.14-3,1.73a.51.51,0,1,1-.52-.88c1-.6,2.06-1.18,3.06-1.74,1.92-1.07,3.9-2.17,5.72-3.41a.5.5,0,0,1,.68.1c.51.63,1,1.29,1.48,1.92s.84,1.12,1.28,1.67c.88-.6,1.79-1.19,2.67-1.75s1.82-1.18,2.72-1.8c-.35-.5-.64-.94-.92-1.35a.5.5,0,0,1,0-.5.49.49,0,0,1,.41-.28c2.1-.18,4.22-.52,6.27-.85l2.69-.41a.51.51,0,0,1,.45.17.48.48,0,0,1,.11.46c-.45,1.69-1,3.37-1.45,5-.42,1.37-.85,2.79-1.24,4.21a.51.51,0,0,1-.83.24c-.56-.5-1.1-1-1.61-1.54-1.07.8-2.19,1.55-3.27,2.28-1.33.89-2.7,1.81-4,2.82-.25.19-.5.4-.76.61l-.53.44A.5.5,0,0,1,109.65,111Z"/><path class="cls-2" d="M100.41,116.41a.5.5,0,0,1-.34-.13.53.53,0,0,1-.17-.35c0-1-.11-1.9-.22-2.79a.51.51,0,0,1,.45-.56.49.49,0,0,1,.56.44c.09.76.16,1.54.2,2.34,4.24-.26,8.55-.38,12.72-.49,2.35-.07,4.77-.14,7.15-.23,0-.41-.08-.83-.13-1.26a12.51,12.51,0,0,1-.16-1.75,5.27,5.27,0,0,1,0-.7.49.49,0,0,1,.56-.44.51.51,0,0,1,.45.56,3.52,3.52,0,0,0,0,.58,11.35,11.35,0,0,0,.15,1.61,12.65,12.65,0,0,1,.16,1.76v.14a.51.51,0,0,1-.49.5c-2.55.1-5.15.17-7.66.24-4.33.12-8.81.25-13.2.53Z"/><path class="cls-2" d="M105.33,116a.52.52,0,0,1-.51-.44,13.57,13.57,0,0,1-.09-1.9.51.51,0,1,1,1,0,12.74,12.74,0,0,0,.08,1.76.5.5,0,0,1-.43.57Z"/><path class="cls-2" d="M113.17,115.42a.51.51,0,0,1-.51-.51,9.13,9.13,0,0,0-.14-1.46l0-.21a.51.51,0,0,1,1-.14l0,.2a11.73,11.73,0,0,1,.15,1.61A.51.51,0,0,1,113.17,115.42Z"/><path class="cls-2" d="M129.38,104.53a.51.51,0,0,1-.51-.51c0-.51,0-1,0-1.55s0-1,0-1.59a15.81,15.81,0,0,1,.08-1.62.51.51,0,1,1,1,.11,13.81,13.81,0,0,0-.07,1.51c0,.52,0,1,0,1.55s0,1.06,0,1.59A.5.5,0,0,1,129.38,104.53Z"/><path class="cls-2" d="M126.67,102.18a.51.51,0,0,1,0-1,31.72,31.72,0,0,0,5-.26.51.51,0,0,1,.58.43.52.52,0,0,1-.42.58A32.87,32.87,0,0,1,126.67,102.18Z"/><path class="cls-2" d="M131.28,93.93l-.27,0a2.4,2.4,0,0,1,0-4.73h.13a2.53,2.53,0,0,1,2.78,2.26s0,.07,0,.1a2.26,2.26,0,0,1-.8,1.67A2.88,2.88,0,0,1,131.28,93.93Zm0-3.75h-.18a1.31,1.31,0,0,0-1.08,1.4,1.27,1.27,0,0,0,1.1,1.31,1.79,1.79,0,0,0,1.32-.46,1.26,1.26,0,0,0,.46-.91v0A1.53,1.53,0,0,0,131.29,90.18Z"/><path class="cls-2" d="M132.48,90.72a.63.63,0,0,1-.22,0A.52.52,0,0,1,132,90a22.64,22.64,0,0,1,1.64-2.81,24.27,24.27,0,0,0,3.42-7.45.51.51,0,1,1,1,.31,25.82,25.82,0,0,1-3.54,7.71,19,19,0,0,0-1.57,2.68A.52.52,0,0,1,132.48,90.72Z"/><path class="cls-2" d="M138.78,82.05a.47.47,0,0,1-.35-.15,5.7,5.7,0,0,1-1.12-1.62,16,16,0,0,1-2.2,1,.51.51,0,0,1-.64-.32.5.5,0,0,1,.32-.64,16.87,16.87,0,0,0,2.52-1.14.47.47,0,0,1,.4,0,.45.45,0,0,1,.3.27,5.7,5.7,0,0,0,1.13,1.8.51.51,0,0,1,0,.72A.49.49,0,0,1,138.78,82.05Z"/><path class="cls-2" d="M97.72,89.21a.57.57,0,0,1-.31-.1l-.81-.62c-.95-.7-1.92-1.43-2.9-2.07a.54.54,0,0,1-.23-.39.51.51,0,0,1,.17-.42c1.13-1,2.32-2,3.48-2.88l.39-.31a.51.51,0,0,1,.31-.11c5.36-.07,11.06-.2,16.64-.81a.51.51,0,0,1,.48.22.53.53,0,0,1,0,.53,19.29,19.29,0,0,1-1.25,2q.39.41.75.81a16.87,16.87,0,0,0,2.32,2.24.49.49,0,0,1,.18.56.51.51,0,0,1-.47.36c-5.68.07-11.81.38-18.73,1Zm-2.91-3.27c.82.56,1.62,1.16,2.39,1.74l.67.49c6.32-.52,12-.83,17.25-.93-.5-.48-1-1-1.41-1.48s-.67-.73-1-1.08a.53.53,0,0,1,0-.66,15,15,0,0,0,.94-1.41c-5.24.52-10.55.64-15.57.72l-.25.2C96.78,84.31,95.77,85.12,94.81,85.94Z"/><path class="cls-2" d="M99.23,86.23a.51.51,0,0,1-.51-.51.5.5,0,0,1,.51-.5c1.16,0,2.32-.09,3.45-.18s2.32-.17,3.52-.17a.51.51,0,1,1,0,1c-1.16,0-2.32.09-3.45.18S100.42,86.23,99.23,86.23Z"/><path class="cls-2" d="M105.24,93.2a.51.51,0,0,1-.5-.45,36.3,36.3,0,0,1-.18-4.41.51.51,0,0,1,.51-.51.5.5,0,0,1,.5.51,34.13,34.13,0,0,0,.18,4.29.52.52,0,0,1-.45.57Z"/><path class="cls-2" d="M107.16,95.82a.51.51,0,0,1-.44-.26,3.64,3.64,0,0,1-.27-.6c-.33-.86-.63-1.41-1.62-1.41a3.17,3.17,0,0,0-2.46,1.66.51.51,0,0,1-.88-.5,4.11,4.11,0,0,1,3.34-2.18,2.5,2.5,0,0,1,2.46,1.8,3,3,0,0,1,1.94-.75,2.18,2.18,0,0,1,1.83.91.51.51,0,0,1-.83.59,1.18,1.18,0,0,0-1-.48,1.87,1.87,0,0,0-1.62.93A.52.52,0,0,1,107.16,95.82Z"/><path class="cls-2" d="M122.53,85.74a.51.51,0,0,1-.31-.11c-.76-.59-1.49-1.22-2.19-1.84l-.38-.33a.5.5,0,0,1-.07-.7c.57-.7,1.3-1.61,2-2.56a.51.51,0,0,1,.37-.21.49.49,0,0,1,.4.15,14.73,14.73,0,0,0,2.59,1.93.54.54,0,0,1,.24.35.5.5,0,0,1-.12.41c-.71.85-1.4,1.74-2.1,2.7a.5.5,0,0,1-.34.2ZM120.68,83l0,0c.56.49,1.14,1,1.73,1.47.49-.65,1-1.27,1.46-1.87a15.63,15.63,0,0,1-1.84-1.37C121.58,81.89,121.1,82.5,120.68,83Z"/><path class="cls-2" d="M60.19,99.4a.51.51,0,0,1-.31-.11c-.75-.59-1.48-1.22-2.18-1.83l-.39-.34a.51.51,0,0,1-.06-.71c.56-.69,1.3-1.61,2-2.55a.52.52,0,0,1,.37-.21.49.49,0,0,1,.4.14,14.68,14.68,0,0,0,2.59,1.94.51.51,0,0,1,.24.35.56.56,0,0,1-.11.41c-.72.85-1.41,1.73-2.11,2.7a.5.5,0,0,1-.34.2Zm-1.84-2.73,0,0c.56.49,1.14,1,1.73,1.47.48-.65,1-1.27,1.46-1.88a15.89,15.89,0,0,1-1.85-1.36C59.24,95.55,58.76,96.15,58.35,96.67Z"/><path class="cls-2" d="M91.3,81.35a.51.51,0,0,1-.51-.51V76.49a.51.51,0,1,1,1,0v4.35A.51.51,0,0,1,91.3,81.35Z"/><path class="cls-2" d="M93.57,79.09H89.21a.51.51,0,0,1,0-1h4.36a.51.51,0,0,1,0,1Z"/><path class="cls-2" d="M126.23,76.65a.51.51,0,0,1-.51-.5c0-.66,0-1.38,0-2.2s0-1.43,0-2.15,0-1.43,0-2.15c0-2.74-.13-4.36-.28-6.41-.18-2.29-.4-5.15-.54-10.72a.51.51,0,0,1,.15-.37.48.48,0,0,1,.36-.15c1.21,0,2.45-.08,3.65-.14s2.23-.1,3.35-.13a.5.5,0,0,1,.36.15.48.48,0,0,1,.15.37v1.27c0,.76.51,16.51.78,22.3a.51.51,0,0,1-.46.53C130.68,76.6,128.15,76.64,126.23,76.65ZM125.93,53c.14,5.22.35,8,.52,10.17.16,2.07.28,3.7.28,6.48,0,.72,0,1.44,0,2.16s0,1.43,0,2.14,0,1.17,0,1.68c1.7,0,3.8-.06,5.94-.25-.27-6.14-.76-21.12-.76-21.86,0-.26,0-.51,0-.76-.94,0-1.89.07-2.8.12S127,53,125.93,53Z"/><path class="cls-2" d="M129.85,74.53c-1,0-1.65-.54-1.65-1.37a1.32,1.32,0,0,1,1.06-1.35,2.27,2.27,0,0,1,.5-.06c.73,0,1.52.45,1.52,1.17A1.5,1.5,0,0,1,129.85,74.53Zm-.09-1.76a1.31,1.31,0,0,0-.27,0,.31.31,0,0,0-.27.36c0,.1,0,.35.63.35.41,0,.41-.57.41-.59A.92.92,0,0,0,129.76,72.77Z"/><path class="cls-2" d="M126.33,69.5a.51.51,0,1,1,0-1,1.68,1.68,0,0,0,.56-.15,2.83,2.83,0,0,1,.92-.2.5.5,0,0,1,.5.51.5.5,0,0,1-.5.5,1.67,1.67,0,0,0-.57.15A2.71,2.71,0,0,1,126.33,69.5Z"/><path class="cls-2" d="M126.15,65.5a.51.51,0,1,1,0-1,5.87,5.87,0,0,0,1.21-.17.52.52,0,0,1,.6.4.51.51,0,0,1-.4.6A7.15,7.15,0,0,1,126.15,65.5Z"/><path class="cls-2" d="M126.43,61.82a1.77,1.77,0,0,1-.61-.1.51.51,0,0,1,.32-1,1.72,1.72,0,0,0,1.13-.17.51.51,0,0,1,.38.95A3.41,3.41,0,0,1,126.43,61.82Z"/><path class="cls-2" d="M125.8,58.44a.51.51,0,0,1-.48-.35.51.51,0,0,1,.32-.64,4,4,0,0,1,1-.16,3.57,3.57,0,0,0,.71-.1.51.51,0,0,1,.32,1,4,4,0,0,1-1,.16,3,3,0,0,0-.71.1A.41.41,0,0,1,125.8,58.44Z"/><path class="cls-2" d="M118.11,69.15l-.12,0a.5.5,0,0,1-.39-.43l-.44-3.94A28,28,0,0,1,114,65a.51.51,0,0,1-.51-.51A.5.5,0,0,1,114,64a29.1,29.1,0,0,0,3.5-.27.51.51,0,0,1,.38.1.58.58,0,0,1,.19.35l.34,3.06.54-.8a63.72,63.72,0,0,0,3.53-5.68A44.68,44.68,0,0,1,117.77,57v.13c0,.77,0,1.55,0,2.32a.51.51,0,0,1-.45.51c-.75.09-1.51.14-2.24.19-.57,0-1.15.08-1.73.14a.51.51,0,0,1-.55-.46.51.51,0,0,1,.45-.56l1.76-.13c.57,0,1.16-.08,1.73-.14,0-.62,0-1.24,0-1.86l0-1.27a.51.51,0,0,1,.29-.47.52.52,0,0,1,.55.08l.17.15a46.13,46.13,0,0,0,5.71,4.5.52.52,0,0,1,.18.67A61.7,61.7,0,0,1,119.83,67c-.43.64-.87,1.29-1.3,2A.52.52,0,0,1,118.11,69.15Z"/><path class="cls-2" d="M123,44.92c-3.25,0-4.43-2-4.43-3.41s1.72-3.73,4.22-4a4.93,4.93,0,0,1,4.19-4c1.22,0,2.91,1.3,2.91,3.73v.18a3.07,3.07,0,0,1,3.21,3.09c0,2.74-4.91,3.7-7.55,4.21l-.64.12a.5.5,0,0,1-.32,0A12.29,12.29,0,0,1,123,44.92Zm-.36-6.33a3.86,3.86,0,0,0-3,2.92c0,1,.9,2.39,3.41,2.39a16.68,16.68,0,0,0,3.45-.49.41.41,0,0,1,.29,0c2.25-.49,5.35-1.38,5.35-2.93a2.08,2.08,0,0,0-2.32-2.07c-.35,1.47-1.31,2.34-2.22,2.34a1.08,1.08,0,0,1-1.07-1.09c0-.66.95-1.8,2.39-2.16a2.71,2.71,0,0,0,0-.29c0-1.89-1.26-2.71-1.9-2.71a3.91,3.91,0,0,0-3.15,3.06,2.25,2.25,0,0,1,2,2.5c0,.76-.47,1.81-1.35,1.81s-1.85-.49-1.85-2.79A4.35,4.35,0,0,1,122.67,38.59Zm1,0a4.41,4.41,0,0,0,0,.52c0,1.77.59,1.77.84,1.77s.34-.42.34-.79C124.84,39.16,124.5,38.7,123.69,38.58Zm3.83,1.12s0,0,.06,0c.31,0,.79-.36,1.07-1.08A2.17,2.17,0,0,0,127.52,39.7Z"/><path class="cls-2" d="M139.39,69.94h0a.51.51,0,0,1-.48-.54c0-.22,0-.44,0-.66,0-.83-.07-1.63-.14-2.49,0-.54-.1-1.1-.13-1.67a.51.51,0,0,1,.48-.54.5.5,0,0,1,.53.48c0,.55.08,1.11.13,1.64.07.84.15,1.71.15,2.58,0,.24,0,.48,0,.72A.51.51,0,0,1,139.39,69.94Z"/><path class="cls-2" d="M137.74,67.59a.51.51,0,1,1,0-1,15.09,15.09,0,0,0,3.37-.25.51.51,0,0,1,.23,1A15.88,15.88,0,0,1,137.74,67.59Z"/><path class="cls-2" d="M112.87,55.77c-4.38-.08-9.46-.17-14.48-.17-2.58,0-5,0-7.25.07a.51.51,0,0,1-.52-.47c-.14-2.06-.33-4.16-.5-6.19-.11-1.24-.22-2.48-.32-3.72a.5.5,0,0,1,.43-.54C98,43.66,112.88,43.44,113,43.44h.54a.52.52,0,0,1,.37.16.57.57,0,0,1,.14.37c-.09,1.74-.21,3.49-.33,5.2-.14,2-.28,4.08-.36,6.11A.51.51,0,0,1,112.87,55.77ZM98.39,54.59c4.84,0,9.73.08,14,.16.09-1.89.22-3.8.35-5.66.1-1.52.21-3.09.29-4.64-.13,0-14.33.22-22.17,1.24.09,1.07.18,2.15.28,3.23.16,1.88.33,3.82.47,5.73C93.75,54.61,96,54.59,98.39,54.59Z"/><path class="cls-2" d="M94.31,52.91c-.5,0-1.66-.22-1.66-2.3a3.26,3.26,0,0,1,3.09-3.38.51.51,0,0,1,.51.51.5.5,0,0,1-.51.5,2.26,2.26,0,0,0-2.08,2.37c0,1.29.48,1.29.65,1.29a1.75,1.75,0,0,0,1-.62,2.4,2.4,0,0,0-.67-.07.51.51,0,0,1,0-1,2.82,2.82,0,0,1,1.17.19.9.9,0,0,1,.56.82C96.34,52.05,95,52.91,94.31,52.91Z"/><path class="cls-2" d="M98.18,52.73c-1.18,0-1.45-1.91-1.45-2.59a6.25,6.25,0,0,1,.74-2.82.52.52,0,0,1,.69-.21.61.61,0,0,1,.15.12.51.51,0,0,1,.48-.35h.29c.88,0,1.41.79,1.41,2.12C100.49,51.45,98.87,52.73,98.18,52.73Zm0-1Zm.21-4a.3.3,0,0,1,0,.08,5.21,5.21,0,0,0-.62,2.34,2.69,2.69,0,0,0,.43,1.56A3,3,0,0,0,99.47,49c0-.53-.12-1.11-.39-1.11H99l-.23,0A.49.49,0,0,1,98.41,47.72Z"/><path class="cls-2" d="M101.32,52.86h0a.51.51,0,0,1-.49-.53A9.42,9.42,0,0,1,102,48.14c.17-.29,1-1.76,1.74-1.76s.72.7.72,1.83a15,15,0,0,1-.25,2.35,16.13,16.13,0,0,0-.22,1.77.51.51,0,0,1-1,0,18.93,18.93,0,0,1,.23-1.88,13.46,13.46,0,0,0,.24-2.19c0-.1,0-.24,0-.38a8.16,8.16,0,0,0-1.62,4.55A.51.51,0,0,1,101.32,52.86Z"/><path class="cls-2" d="M102.41,50.78a4.15,4.15,0,0,1-1-.11.51.51,0,0,1,.25-1,3.12,3.12,0,0,0,.79.09,10,10,0,0,0,1.2-.1.51.51,0,0,1,.57.44.52.52,0,0,1-.44.57A11.55,11.55,0,0,1,102.41,50.78Z"/><path class="cls-2" d="M106.16,53.44c-.26,0-1,0-1-3.27a18.09,18.09,0,0,1,.23-2.77.51.51,0,1,1,1,.15,17.53,17.53,0,0,0-.22,2.62,10,10,0,0,0,.23,2.23l.27-.06a.5.5,0,0,1,.58-.09.51.51,0,0,1,.23.68C107.19,53.43,106.2,53.44,106.16,53.44Zm.26-.91Zm.11-.06h0Z"/><path class="cls-2" d="M109.05,52.8l-.24,0a.51.51,0,0,1,.13-1c.42,0,1-.2,1-.59,0-.21-.09-.29-.6-.53a1.68,1.68,0,0,1-1.23-1.54,1.9,1.9,0,0,1,2-1.88.51.51,0,0,1,.46.55.51.51,0,0,1-.55.46.88.88,0,0,0-.87.87c0,.28.14.38.65.62A1.6,1.6,0,0,1,111,51.18a.34.34,0,0,1,0,.1A1.84,1.84,0,0,1,109.05,52.8Z"/><path class="cls-2" d="M101,63.4h-.19a2.08,2.08,0,0,1-2-1.94,2.46,2.46,0,0,1,.62-1.79,2,2,0,0,1,1.45-.71.74.74,0,0,1,.21,0,2.35,2.35,0,0,1,2.21,1.82,2.55,2.55,0,0,1,0,.53,2.14,2.14,0,0,1-.74,1.47A2.56,2.56,0,0,1,101,63.4ZM101,60h0a1.08,1.08,0,0,0-.74.38,1.43,1.43,0,0,0-.36,1,1.05,1.05,0,0,0,1,1A1.51,1.51,0,0,0,102,62a1.14,1.14,0,0,0,.4-.75,1.58,1.58,0,0,0,0-.28,1.33,1.33,0,0,0-1.27-1Z"/><path class="cls-2" d="M100.71,60a.51.51,0,0,1-.51-.51,33.21,33.21,0,0,1,.15-3.86.48.48,0,0,1-.06-.24.5.5,0,0,1,.51-.5h.08a.5.5,0,0,1,.51.57,31.88,31.88,0,0,0-.17,4A.51.51,0,0,1,100.71,60Z"/><path class="cls-2" d="M93.17,73,91,72.91l-2.21-.08a.5.5,0,0,1-.49-.48c0-.59-.08-1.19-.12-1.79s-.09-1.28-.13-1.92a.57.57,0,0,1,.14-.38.48.48,0,0,1,.36-.16c1.7,0,3.35,0,4.6,0a.51.51,0,0,1,.51.52v.6c0,.5,0,1,0,1.5,0,.68,0,1.25,0,1.79a.47.47,0,0,1-.14.37A.51.51,0,0,1,93.17,73Zm-3.88-1.15,1.74.06,1.61.06c0-.39,0-.81,0-1.28s0-1,0-1.51v-.09c-1,0-2.26,0-3.54,0l.09,1.37C89.23,70.93,89.26,71.38,89.29,71.83Z"/><path class="cls-2" d="M103.9,73.47l-1.26,0-2.08,0c-.54,0-1,0-1.46,0a.5.5,0,0,1-.37-.14.48.48,0,0,1-.16-.35c0-.76,0-1.58,0-2.58,0-.56,0-1.12,0-1.68a.5.5,0,0,1,.5-.5c1.33,0,2.77,0,4.66,0a.51.51,0,0,1,.51.49c0,.93.08,1.87.12,2.78,0,.51.06,1,.08,1.53a.5.5,0,0,1-.14.37A.52.52,0,0,1,103.9,73.47Zm-3.34-1.08c.7,0,1.42,0,2.11,0h.7c0-.32,0-.65-.05-1,0-.75-.08-1.53-.11-2.3-1.42,0-2.59,0-3.66,0v1.18c0,.77,0,1.43,0,2Z"/><path class="cls-2" d="M108.89,73.55a.51.51,0,0,1-.51-.47l0-.9c-.07-1-.13-2.07-.22-3.09a.52.52,0,0,1,.44-.55,13,13,0,0,1,1.65-.08l1.22,0c.61,0,1.22,0,1.83,0a.5.5,0,0,1,.52.49c.06,1.08.18,2.24.38,3.65a.45.45,0,0,1-.1.38.52.52,0,0,1-.34.2c-1,.11-2.1.17-3.12.23l-1.66.11Zm.28-4c.06.88.12,1.76.17,2.61l0,.39,1.17-.07c.83-.05,1.69-.1,2.54-.18-.14-1-.23-1.9-.28-2.73l-1.4,0C110.65,69.48,109.9,69.46,109.17,69.5Z"/><path class="cls-2" d="M85.26,43.82a.51.51,0,0,1-.43-.24c-.68-1.13-1.21-2-1.67-2.91a.5.5,0,0,1,.15-.66l1-.68c.62-.44,1.26-.9,1.91-1.33a.56.56,0,0,1,.4-.07.52.52,0,0,1,.32.24,21.44,21.44,0,0,0,2.1,3,.48.48,0,0,1,.11.41.51.51,0,0,1-.25.35c-.57.34-1.17.65-1.74,1s-1.09.58-1.62.89A.58.58,0,0,1,85.26,43.82Zm-1-3.24c.34.63.72,1.29,1.17,2.05L86.66,42l1.2-.64a21.88,21.88,0,0,1-1.54-2.18c-.49.33-1,.67-1.45,1Z"/><path class="cls-2" d="M102,36.84a23.83,23.83,0,0,1-6.62-1.28c-.72-.22-1.47-.44-2.21-.63a.5.5,0,0,1-.36-.37.48.48,0,0,1,.14-.49,14.46,14.46,0,0,1,10-3.8,6.09,6.09,0,0,1,3.93,1.06.52.52,0,0,1,.21.33l0,.13a9.1,9.1,0,0,1,.18,1.59C107.31,36.84,103.35,36.84,102,36.84Zm-7.66-2.65,1.33.39A22.2,22.2,0,0,0,102,35.82c3.77,0,4.26-1.31,4.26-2.44a7.85,7.85,0,0,0-.15-1.33,5.12,5.12,0,0,0-3.18-.76A13.7,13.7,0,0,0,94.38,34.19Z"/><path class="cls-2" d="M97.83,36.13a.5.5,0,0,1-.5-.5V34.06a.51.51,0,1,1,1,0v1.57A.5.5,0,0,1,97.83,36.13Z"/><path class="cls-2" d="M101.06,36.31a.51.51,0,0,1-.51-.51V34.23a.51.51,0,1,1,1,0V35.8A.51.51,0,0,1,101.06,36.31Z"/><path class="cls-2" d="M104.28,36.05a.5.5,0,0,1-.43-.25,3.22,3.22,0,0,1-.34-1.74.51.51,0,1,1,1,0,2.46,2.46,0,0,0,.19,1.22.51.51,0,0,1-.18.69A.5.5,0,0,1,104.28,36.05Z"/><path class="cls-2" d="M109.67,42.16c-1.29,0-3.21-.83-3.21-2.6,0-.53.44-.94.87-1.34.21-.2.61-.57.61-.73v0l-.1,0a1,1,0,0,1-.91-1.08,1.62,1.62,0,0,1,.55-1.11c.18-.19.29-.31.29-.44s-.36-.47-.76-.57a.5.5,0,0,1-.37-.61.51.51,0,0,1,.62-.37c.73.18,1.53.75,1.53,1.55a1.65,1.65,0,0,1-.56,1.13c-.17.19-.28.31-.28.42v.07l.11,0a1,1,0,0,1,.9,1.06A2.25,2.25,0,0,1,108,39c-.19.17-.52.48-.54.6,0,1,1.27,1.57,2.19,1.57l.24-.14a2.84,2.84,0,0,1,.58-.28,10.6,10.6,0,0,1,1.44-.25c1.53-.19,2.54-.32,2.64-2.34a.8.8,0,0,0-.81-.65,1.51,1.51,0,0,0-.32,0,.52.52,0,0,1-.35.14.51.51,0,0,1-.31-.92,4.67,4.67,0,0,0,.25-1.87.84.84,0,0,0-.92-.86c-.66,0-.83.2-.83.2a.52.52,0,0,1-.64.16.53.53,0,0,1-.26-.62,2.4,2.4,0,0,0,.07-.73,1.22,1.22,0,0,0-1.39-1.2,2.53,2.53,0,0,0-1.72.69.51.51,0,0,1-.72,0,.53.53,0,0,1,0-.72,3.56,3.56,0,0,1,2.44-1A2.24,2.24,0,0,1,111.47,33v0a3.77,3.77,0,0,1,.64-.06,1.83,1.83,0,0,1,1.94,1.88,8.94,8.94,0,0,1-.13,1.61,1.78,1.78,0,0,1,1.67,1.64v.08c-.16,2.86-2,3.1-3.53,3.29a8.68,8.68,0,0,0-1.29.22,1.63,1.63,0,0,0-.34.18A1.53,1.53,0,0,1,109.67,42.16Zm3.73-4.63Z"/><path class="cls-2" d="M120.62,32.85h-.19a1.8,1.8,0,0,1-1.59-1.67,2.2,2.2,0,0,1,.57-1.62,1.77,1.77,0,0,1,1.31-.62l.31,0a1.94,1.94,0,0,1,1.67,1.78,2,2,0,0,1-.63,1.53A2.18,2.18,0,0,1,120.62,32.85Zm.12-2.9a.77.77,0,0,0-.58.28,1.21,1.21,0,0,0-.31.85.78.78,0,0,0,.69.75,1.1,1.1,0,0,0,.83-.31.89.89,0,0,0-.5-1.56Z"/><path class="cls-2" d="M112.43,28.31a.52.52,0,0,1-.29-.09L110.47,27c-1.08-.8-2.31-1.71-3.46-2.43a.49.49,0,0,1-.24-.39.53.53,0,0,1,.17-.42c1-.93,1.8-1.66,2.52-2.38a.5.5,0,0,1,.67,0l.35.28a15.92,15.92,0,0,0,2,1.44c.45-.57.93-1.12,1.4-1.65s.8-.91,1.17-1.37a.52.52,0,0,1,.36-.19.53.53,0,0,1,.38.13,11.35,11.35,0,0,0,2.1,1.57.49.49,0,0,1,.26.35.52.52,0,0,1-.12.43c-1,1.1-2.5,2.82-5.19,5.81A.51.51,0,0,1,112.43,28.31Zm-4.32-4.23c1,.67,2,1.43,3,2.11l1.29.94c2.16-2.41,3.55-3.95,4.48-5a14.8,14.8,0,0,1-1.37-1l-.86,1c-.55.62-1.11,1.27-1.61,1.94a.52.52,0,0,1-.64.15,14.81,14.81,0,0,1-2.51-1.75C109.33,22.94,108.77,23.47,108.11,24.08Z"/><path class="cls-2" d="M70.2,71.26c-1,0-2-.05-2.89-.1l-1.28,0a.52.52,0,0,1-.49-.5c0-1.25,0-2.5-.07-3.75,0-2.71-.11-5.51-.11-8.27,0-1.78,0-3.4.07-4.93a.49.49,0,0,1,.19-.38.48.48,0,0,1,.4-.1,4.07,4.07,0,0,0,.59.06c1.53,0,10.29-.33,16.77-.82a.52.52,0,0,1,.39.14.46.46,0,0,1,.15.37c0,.78,0,1.56,0,2.34,0,1.48,0,3,0,4.46s0,3,0,4.47c0,2.43-.06,4.41-.18,6.25a.5.5,0,0,1-.5.48h0c-.58,0-1.16,0-1.72-.05s-1.12,0-1.68,0-4.24.2-5.29.41a.51.51,0,0,1-.59-.4.5.5,0,0,1,.4-.6c1.12-.22,4.86-.43,5.48-.43s1.16,0,1.72,0l1.24,0c.09-1.69.14-3.51.14-5.71,0-1.48,0-3,0-4.46s0-3,0-4.47c0-.6,0-1.2,0-1.8-6.44.47-14.78.76-16.25.79h-.22c0,1.36-.05,2.78-.05,4.34,0,2.75.05,5.54.11,8.25l.06,3.27.81,0c.93,0,1.89.09,2.84.09a.51.51,0,1,1,0,1Z"/><path class="cls-2" d="M75.27,66.46a.52.52,0,0,1-.29-.09c-.77-.55-1.54-1.12-2.28-1.67-1-.76-2.06-1.54-3.11-2.26a.47.47,0,0,1-.22-.36.48.48,0,0,1,.13-.4c.72-.78,1.52-1.57,2.6-2.56a.5.5,0,0,1,.69,0A15.41,15.41,0,0,0,75,60.92c.65-.79,1.33-1.54,2-2.28l.87-1a.51.51,0,0,1,.69-.07c.68.52,1.47,1.13,2.27,1.68a.47.47,0,0,1,.22.34A.54.54,0,0,1,81,60c-1.52,1.91-3.33,4.15-5.3,6.3A.51.51,0,0,1,75.27,66.46Zm-4.62-4.52c.9.63,1.79,1.3,2.66,1.94.62.46,1.25.94,1.89,1.4,1.69-1.86,3.26-3.79,4.61-5.49-.52-.37-1-.75-1.49-1.1l-.57.63c-.75.83-1.52,1.7-2.24,2.59a.52.52,0,0,1-.66.11,16,16,0,0,1-2.41-1.83C71.74,60.84,71.17,61.4,70.65,61.94Z"/><path class="cls-2" d="M56.45,83.62a.43.43,0,0,1-.19,0c-3.72-1.53-6.27-3.48-7.82-6a.51.51,0,0,1,.86-.54c1.43,2.29,3.83,4.1,7.34,5.55a.51.51,0,0,1-.19,1Z"/><path class="cls-2" d="M64.36,67.72a4.48,4.48,0,0,1-4.5-4.22,4.43,4.43,0,0,1,4.32-4.57.5.5,0,0,1,.53.48.5.5,0,0,1-.48.53,3.4,3.4,0,0,0-3.35,3.54,3.45,3.45,0,0,0,3.48,3.23h0a.5.5,0,0,1,.51.5.51.51,0,0,1-.51.51Z"/><path class="cls-2" d="M64.39,74.21c-5.93,0-11-4.77-11.14-10.43a10.82,10.82,0,0,1,3-7.9,11.49,11.49,0,0,1,8.06-3.44.51.51,0,1,1,0,1A10.51,10.51,0,0,0,57,56.59a9.79,9.79,0,0,0-2.68,7.17c.1,5.12,4.73,9.43,10.12,9.43h.06a9.92,9.92,0,0,0,3.28-.56.51.51,0,1,1,.33,1,11.36,11.36,0,0,1-3.61.62Z"/><path class="cls-2" d="M64.42,81c-9.61,0-17.87-7.72-18.05-16.89a17.43,17.43,0,0,1,5-13A18.92,18.92,0,0,1,70.08,46.5,17.08,17.08,0,0,1,78,51.81a.5.5,0,0,1,0,.71.51.51,0,0,1-.72-.05,16.06,16.06,0,0,0-7.39-5,18,18,0,0,0-4.91-.77,17.66,17.66,0,0,0-12.77,5.08,16.47,16.47,0,0,0-4.73,12.27c.18,8.63,8,15.89,17,15.89h.1a16.9,16.9,0,0,0,5.23-.85.5.5,0,0,1,.64.32.52.52,0,0,1-.32.65,18.32,18.32,0,0,1-5.55.9Z"/><path class="cls-2" d="M74.83,77.34a.51.51,0,0,1-.4-.2.5.5,0,0,1,.1-.71c1.62-1.22,3.46-2.59,4-4.65a.52.52,0,0,1,.63-.36.51.51,0,0,1,.35.63c-.67,2.39-2.74,3.94-4.4,5.19A.5.5,0,0,1,74.83,77.34Z"/><path class="cls-2" d="M52.36,45.3c-.87,0-.87-1.37-.87-1.82,0-2.67,3.94-12.77,9.26-12.77,4.62,0,7.19,2.57,8.06,5a.51.51,0,0,1-.31.65.5.5,0,0,1-.65-.31c-1.14-3.17-4.41-4.3-7.1-4.3-4.54,0-8.25,9.45-8.25,11.76,0,.15,0,.28,0,.4,1.09-1.29,1.76-2,2.35-2,1,0,1.09.83,1.15,1.18a2.06,2.06,0,0,0,.07.29h0c.39,0,.7-.76.7-1.25a2.8,2.8,0,0,0-.89-1.83.52.52,0,0,1-.09-.57c.61-1.26,2.88-5.39,6.59-5.39,2.26,0,3.14,1,4.49,4a.5.5,0,0,1-.25.67,9.73,9.73,0,0,0-4.94,5.79.5.5,0,0,1-.64.33.49.49,0,0,1-.33-.63,10.65,10.65,0,0,1,5-6.18c-1.22-2.58-1.88-3-3.36-3-2.37,0-4.37,2.28-5.52,4.51a3.56,3.56,0,0,1,.93,2.26c0,1-.6,2.27-1.72,2.27-.9,0-1-.8-1.1-1.14a1.77,1.77,0,0,0-.08-.33h-.07a8.38,8.38,0,0,0-1.6,1.61C52.77,45.16,52.65,45.3,52.36,45.3Z"/><path class="cls-2" d="M68.21,35.78a.51.51,0,0,1-.51-.47v-.26a4.79,4.79,0,0,1,.61-2.25,2.16,2.16,0,0,1-1-1.72,1.77,1.77,0,0,1,1.25-1.68v-.08c0-.51-.1-1-.1-1.57,0-2.69,2.11-5.42,6.14-5.42,3.49,0,5.69,1.45,6.74,4.42a.51.51,0,0,1-.64.65,13.58,13.58,0,0,0-4.07-.8,5.48,5.48,0,0,0-5.4,4.71.51.51,0,0,1-.54.47.52.52,0,0,1-.47-.55,6.52,6.52,0,0,1,6.41-5.65,12.86,12.86,0,0,1,3.33.53c-.72-1.38-2.13-2.76-5.36-2.76-3.52,0-5.13,2.28-5.13,4.4a14.71,14.71,0,0,0,.1,1.47c0,.15,0,.3,0,.46a.51.51,0,0,1-.3.51l-.06,0c-.67.29-.91.43-.91.87s.28.75.9,1.14a.48.48,0,0,1,.23.32.5.5,0,0,1-.06.38,4.08,4.08,0,0,0-.71,2.13,1.15,1.15,0,0,0,0,.19.5.5,0,0,1-.47.54Z"/><path class="cls-2" d="M76.4,34.57a.51.51,0,0,1-.48-.35.5.5,0,0,1,.32-.64,4.55,4.55,0,0,1,1.13-.2l.26,0a3.76,3.76,0,0,0-.3-1,4.69,4.69,0,0,1-.42-2.2,10.15,10.15,0,0,1,.21-1.95.51.51,0,1,1,1,.2,8.88,8.88,0,0,0-.19,1.75A3.76,3.76,0,0,0,78.27,32a5.15,5.15,0,0,1,.43,1.76.5.5,0,0,1-.39.54c-.29.06-.57.09-.84.12a4.22,4.22,0,0,0-.91.15A.41.41,0,0,1,76.4,34.57Z"/><path class="cls-2" d="M74,31.08l-.16,0a.5.5,0,0,1-.32-.64,1.24,1.24,0,0,1,1.2-.89,1.78,1.78,0,0,1,1.21.52.51.51,0,0,1-.72.72.76.76,0,0,0-.49-.22c-.11,0-.18,0-.24.19A.49.49,0,0,1,74,31.08Z"/><path class="cls-2" d="M78,33.26a.51.51,0,0,1-.4-.82,4.83,4.83,0,0,0,1.33-2.82,7.8,7.8,0,0,0-.15-1.22,8,8,0,0,1-.16-1.4c0-.1,0-.2,0-.3a.51.51,0,1,1,1,.08,1.55,1.55,0,0,0,0,.22,6.77,6.77,0,0,0,.15,1.22,8,8,0,0,1,.16,1.4,5.7,5.7,0,0,1-1.54,3.44A.51.51,0,0,1,78,33.26Z"/><path class="cls-2" d="M73.19,37.91a3,3,0,0,1-.52,0,.5.5,0,0,1,.14-1l.38,0a3.74,3.74,0,0,0,3.1-2.43.5.5,0,1,1,.92.41A4.67,4.67,0,0,1,73.19,37.91Z"/><path class="cls-2" d="M72.84,36.07h-.07c-1.07-.13-1.52-1.18-1.71-1.63A.51.51,0,1,1,72,34c.29.68.56,1,.91,1a.5.5,0,0,1,.44.56A.51.51,0,0,1,72.84,36.07Z"/><path class="cls-2" d="M71.39,40.88H71.3a10.79,10.79,0,0,0-1.75-.2h-.06a.51.51,0,0,1-.37-.16.49.49,0,0,1-.14-.38c0-.19,0-.38,0-.57,0-.54,0-1.08-.1-1.65l0-.46a.52.52,0,0,1,.44-.55,7,7,0,0,1,.84,0l.73,0a9.29,9.29,0,0,0,1.18,0,.53.53,0,0,1,.55.48v.25a7.7,7.7,0,0,1-.69,2.85l0,.11A.5.5,0,0,1,71.39,40.88ZM70,39.67a9.3,9.3,0,0,1,1.06.13,6.78,6.78,0,0,0,.5-1.89l-.74,0c-.31,0-.63,0-.91,0,0,.55.09,1.12.09,1.69Z"/><path class="cls-2" d="M66.29,46.41a.52.52,0,0,1-.29-.09.51.51,0,0,1-.12-.71A16.89,16.89,0,0,0,68.59,40a.51.51,0,0,1,.62-.37.52.52,0,0,1,.37.62,18,18,0,0,1-2.87,5.92A.51.51,0,0,1,66.29,46.41Z"/><path class="cls-2" d="M68.84,46.6a.5.5,0,0,1-.39-.18.51.51,0,0,1,.06-.71c.36-.31.73-.6,1.1-.9a13.54,13.54,0,0,0,3.48-3.52.51.51,0,0,1,.7-.18.51.51,0,0,1,.17.7,14.59,14.59,0,0,1-3.71,3.8l-1.08.87A.54.54,0,0,1,68.84,46.6Z"/><path class="cls-2" d="M72.05,48.24a.51.51,0,0,1-.27-.94l1-.57c2.11-1.25,3.63-2.14,3.63-4.9a4.45,4.45,0,0,0-2.28-3.78.51.51,0,1,1,.57-.85,5.5,5.5,0,0,1,2.72,4.63c0,3.34-1.91,4.47-4.12,5.77l-.94.57A.48.48,0,0,1,72.05,48.24Z"/><path class="cls-2" d="M71.09,44.15a.51.51,0,0,1-.5-.43,8.58,8.58,0,0,1-.13-1.49,7.56,7.56,0,0,1,.22-1.85.51.51,0,0,1,1,.25,6.49,6.49,0,0,0-.2,1.6,7.73,7.73,0,0,0,.12,1.33.51.51,0,0,1-.42.58Z"/><path class="cls-2" d="M62.9,28.81a.48.48,0,0,1-.23,0,.51.51,0,0,1-.23-.68c1.67-3.43,10.83-13.23,30.28-13.23a31.77,31.77,0,0,1,7.79.63l1.08.22a.5.5,0,0,1,.4.59.5.5,0,0,1-.59.41l-1.09-.22a30.92,30.92,0,0,0-7.59-.61c-18.94,0-27.77,9.37-29.37,12.66A.49.49,0,0,1,62.9,28.81Z"/><path class="cls-2" d="M79.1,22.54a.51.51,0,0,1-.36-.15.53.53,0,0,1,0-.72,4.6,4.6,0,0,0,1.51-2.26.5.5,0,0,1,.29-.38.48.48,0,0,1,.48,0,5.29,5.29,0,0,0,2.79.88,3.76,3.76,0,0,0,3-1.5,6,6,0,0,1,.79-.74.5.5,0,0,1,.71.1.51.51,0,0,1-.1.71,5.44,5.44,0,0,0-.66.63A4.78,4.78,0,0,1,83.81,21a6,6,0,0,1-2.75-.71,7,7,0,0,1-1.6,2.13A.51.51,0,0,1,79.1,22.54Z"/><path class="cls-2" d="M91.68,19.94c-.92,0-2.72-.45-2.72-1.51v0a.52.52,0,0,1,.51-.51.5.5,0,0,1,.51.49v0a2.91,2.91,0,0,0,1.7.53,3.5,3.5,0,0,0,3-1.76.51.51,0,1,1,.89.49A4.48,4.48,0,0,1,91.68,19.94Z"/><path class="cls-2" d="M98.12,19.35a2.38,2.38,0,0,1-1.58-.59.51.51,0,1,1,.67-.77,1.37,1.37,0,0,0,.91.35,3.42,3.42,0,0,0,2.36-1.41.51.51,0,0,1,.71-.09.5.5,0,0,1,.1.71A4.38,4.38,0,0,1,98.12,19.35Z"/><path class="cls-2" d="M101.59,31a.5.5,0,0,1-.5-.51c0-1.62-.1-3.27-.19-4.86s-.19-3.27-.19-4.92c0-1,0-1.91.1-2.78a.53.53,0,0,1,.55-.47.52.52,0,0,1,.47.55c-.07.84-.11,1.73-.11,2.7,0,1.62.1,3.27.19,4.86s.19,3.27.19,4.92A.51.51,0,0,1,101.59,31Z"/><path class="cls-2" d="M86.87,8.35h-.08a2.28,2.28,0,0,1-2.19-2,2.35,2.35,0,0,1,2.08-2.56,1.29,1.29,0,0,1,.28,0A2.2,2.2,0,0,1,89.27,6a2.23,2.23,0,0,1-.7,1.63A2.53,2.53,0,0,1,86.87,8.35Zm.07-3.58h-.16a1.36,1.36,0,0,0-1.17,1.48,1.29,1.29,0,0,0,1.22,1.07,1.45,1.45,0,0,0,1-.42A1.19,1.19,0,0,0,88.25,6,1.21,1.21,0,0,0,86.94,4.77Z"/><path class="cls-2" d="M99.49,8.43a.51.51,0,0,1-.17,0A38.85,38.85,0,0,0,89,6.16a.5.5,0,0,1-.47-.54.51.51,0,0,1,.54-.47A40,40,0,0,1,99.66,7.44a.51.51,0,0,1-.17,1Z"/><path class="cls-2" d="M96.88,10.17a.5.5,0,0,1-.4-.19.52.52,0,0,1,.07-.71,12.88,12.88,0,0,1,2.32-1.49,9.87,9.87,0,0,1-.57-1.93.51.51,0,0,1,.39-.61.52.52,0,0,1,.6.39A7.92,7.92,0,0,0,100,7.77a.51.51,0,0,1,0,.4.52.52,0,0,1-.27.31,11.66,11.66,0,0,0-2.57,1.57A.51.51,0,0,1,96.88,10.17Z"/><path class="cls-2" d="M73.14,11.47a.45.45,0,0,1-.2,0,.5.5,0,0,1-.31-.5c0-.56.06-1.14.08-1.7s0-1,.06-1.49L72,7.35c-.59-.31-1.2-.63-1.81-.89a.52.52,0,0,1-.31-.5.54.54,0,0,1,.36-.46L71.92,5l1.47-.48c.07-.54.15-1.08.22-1.61.12-.79.24-1.61.31-2.42A.52.52,0,0,1,74.33,0a.5.5,0,0,1,.55.26l.23.43c.54,1,1.09,2.05,1.6,3.09h1.37a13,13,0,0,0,1.36-.06A.52.52,0,0,1,80,4a.54.54,0,0,1-.09.58c-.55.57-1.12,1.17-1.69,1.81A18.35,18.35,0,0,0,79.46,8.9a.51.51,0,0,1,0,.59.5.5,0,0,1-.56.17l-.72-.23C77.44,9.2,76.69,9,76,8.71c-.82.83-1.65,1.69-2.44,2.59A.52.52,0,0,1,73.14,11.47ZM71.79,6.08l.72.38,1,.52a.49.49,0,0,1,.28.49c0,.59-.06,1.2-.08,1.79v.32c.58-.62,1.17-1.22,1.75-1.81A.5.5,0,0,1,76,7.65l2,.65c-.31-.6-.58-1.2-.83-1.78A.51.51,0,0,1,77.2,6c.35-.4.7-.79,1.06-1.17H76.4a.5.5,0,0,1-.46-.29c-.38-.77-.79-1.56-1.2-2.33L74.62,3c-.09.62-.19,1.27-.26,1.91a.5.5,0,0,1-.36.43c-.59.18-1.17.37-1.76.57Z"/><path class="cls-2" d="M81,31.59a.51.51,0,0,1-.43-.23.5.5,0,0,1,.16-.7c.2-.13.4-.25.61-.36a.51.51,0,0,1,.69.19.53.53,0,0,1-.2.7,6.32,6.32,0,0,0-.56.33A.52.52,0,0,1,81,31.59Z"/><path class="cls-2" d="M92.61,30.81a.48.48,0,0,1-.2,0c-.37-.15-.75-.3-1.15-.42a.51.51,0,0,1-.32-.64.49.49,0,0,1,.63-.33,12.17,12.17,0,0,1,1.24.46.51.51,0,0,1,.27.67A.5.5,0,0,1,92.61,30.81Zm-8.71-.55a.49.49,0,0,1-.48-.36.5.5,0,0,1,.34-.63A11.4,11.4,0,0,1,85,29a.51.51,0,1,1,.19,1,9.67,9.67,0,0,0-1.18.29Zm5-.44h-.06a10.13,10.13,0,0,0-1.22-.08.52.52,0,0,1-.5-.52.51.51,0,0,1,.52-.5c.43,0,.88,0,1.32.09a.51.51,0,0,1-.06,1Z"/><path class="cls-2" d="M95.26,32.59a.51.51,0,0,1-.42-.23,2.3,2.3,0,0,0-.37-.38.51.51,0,0,1,.66-.78,3.35,3.35,0,0,1,.56.6.52.52,0,0,1-.14.71A.6.6,0,0,1,95.26,32.59Z"/><path class="cls-2" d="M90.53,68.55a.51.51,0,0,1-.5-.45q0-.36-.06-.72a.5.5,0,0,1,.49-.52.51.51,0,0,1,.53.49c0,.21,0,.42,0,.63a.51.51,0,0,1-.44.57Z"/><path class="cls-2" d="M90.89,65.09a.39.39,0,0,1-.18,0,.5.5,0,0,1-.3-.65A5.82,5.82,0,0,1,91.15,63a.51.51,0,0,1,.82.61,4.64,4.64,0,0,0-.61,1.12A.51.51,0,0,1,90.89,65.09Zm2.91-2.91a.51.51,0,0,1-.47-.32.51.51,0,0,1,.29-.66,7.57,7.57,0,0,1,1.44-.42.51.51,0,1,1,.2,1,7.57,7.57,0,0,0-1.27.37A.41.41,0,0,1,93.8,62.18Z"/><path class="cls-2" d="M98.67,61.57H98a.51.51,0,0,1-.51-.51.52.52,0,0,1,.51-.51h.68a.51.51,0,0,1,.51.51A.5.5,0,0,1,98.67,61.57Z"/><path class="cls-2" d="M101.11,68.56a.52.52,0,0,1-.51-.46c0-.28,0-.56-.06-.87a.5.5,0,0,1,.48-.53.5.5,0,0,1,.53.48c0,.27,0,.55.06.82a.51.51,0,0,1-.45.56ZM101,65a.5.5,0,0,1-.5-.5c0-.53,0-1,0-1.33a.51.51,0,1,1,1-.05c0,.4,0,.83,0,1.38A.5.5,0,0,1,101,65Z"/><path class="cls-2" d="M103.48,61.82a.51.51,0,0,1,0-1l.67-.05a.51.51,0,0,1,.55.47.5.5,0,0,1-.47.54l-.68,0Z"/><path class="cls-2" d="M111.18,65.3a.49.49,0,0,1-.49-.38,5.09,5.09,0,0,0-.48-1.23.51.51,0,0,1,.89-.5,5.92,5.92,0,0,1,.57,1.48.51.51,0,0,1-.37.62Zm-2.7-3.19a.39.39,0,0,1-.18,0,6,6,0,0,0-1.29-.31.5.5,0,0,1-.44-.57.51.51,0,0,1,.57-.44,6.77,6.77,0,0,1,1.52.37.51.51,0,0,1,.3.66A.52.52,0,0,1,108.48,62.11Z"/><path class="cls-2" d="M111.37,68.88h0a.5.5,0,0,1-.48-.53c0-.22,0-.44,0-.67a.52.52,0,0,1,.53-.49.5.5,0,0,1,.49.52l0,.69A.51.51,0,0,1,111.37,68.88Z"/><path class="cls-2" d="M54.06,125.21h-.23a.51.51,0,1,1,0-1h.22a7.31,7.31,0,0,0,1.05-.07.52.52,0,0,1,.57.45.51.51,0,0,1-.45.56A9.17,9.17,0,0,1,54.06,125.21Zm-2.86-.54a.39.39,0,0,1-.18,0,7.75,7.75,0,0,1-1.29-.64.5.5,0,0,1,.52-.86,8.59,8.59,0,0,0,1.14.56.51.51,0,0,1-.19,1Zm6.59-.25a.5.5,0,0,1-.46-.3.51.51,0,0,1,.25-.67,8.21,8.21,0,0,0,1.13-.61.51.51,0,0,1,.7.15.52.52,0,0,1-.15.71,10.86,10.86,0,0,1-1.26.68A.52.52,0,0,1,57.79,124.42ZM48,122.3a.5.5,0,0,1-.39-.18,7.4,7.4,0,0,1-.82-1.19.51.51,0,0,1,.88-.5,8,8,0,0,0,.72,1,.51.51,0,0,1-.07.72A.48.48,0,0,1,48,122.3ZM61,122a.57.57,0,0,1-.33-.11.53.53,0,0,1-.07-.72,7.23,7.23,0,0,0,.73-1,.51.51,0,1,1,.88.51,9.24,9.24,0,0,1-.82,1.18A.51.51,0,0,1,61,122Zm-14.65-3.35a.5.5,0,0,1-.5-.46,4.15,4.15,0,0,1,0-.49,4.86,4.86,0,0,1,.11-1,.49.49,0,0,1,.59-.4.5.5,0,0,1,.4.6,4.43,4.43,0,0,0-.08.8c0,.13,0,.27,0,.4a.51.51,0,0,1-.46.55Zm16.33-.29H62.6a.51.51,0,0,1-.43-.58,5.25,5.25,0,0,0,.06-.79,3,3,0,0,0,0-.42.51.51,0,1,1,1-.12,4.89,4.89,0,0,1,0,.54,6,6,0,0,1-.07.94A.52.52,0,0,1,62.68,118.34Zm-15.12-3.49a.49.49,0,0,1-.3-.1.5.5,0,0,1-.11-.71,11,11,0,0,1,.91-1.09.51.51,0,0,1,.74.7,10.37,10.37,0,0,0-.83,1A.49.49,0,0,1,47.56,114.85Zm14.32-.43a.51.51,0,0,1-.47-.3l0-.1c-.17-.38-.35-.77-.5-1.17a.51.51,0,0,1,.29-.66.51.51,0,0,1,.66.3c.14.37.3.73.48,1.11l0,.11a.51.51,0,0,1-.25.67A.52.52,0,0,1,61.88,114.42Z"/><path class="cls-2" d="M24.76,93.55a.51.51,0,0,1-.5-.44.49.49,0,0,1,.43-.57c.35-.06.81-.11,1.36-.17a.51.51,0,0,1,.56.45.51.51,0,0,1-.44.56l-1.34.16Zm4-.5a.51.51,0,0,1-.5-.44.5.5,0,0,1,.43-.57l1.33-.21a.51.51,0,0,1,.17,1l-1.36.2Zm4-.72a.52.52,0,0,1-.5-.4.5.5,0,0,1,.39-.6c.44-.11.88-.21,1.29-.33a.51.51,0,0,1,.27,1l-1.34.33Zm3.9-1.16a.51.51,0,0,1-.19-1c.43-.16.84-.34,1.22-.52a.51.51,0,1,1,.43.92c-.4.19-.83.38-1.28.55A.57.57,0,0,1,36.71,91.17Zm3.58-1.9a.51.51,0,0,1-.31-.91,8.14,8.14,0,0,0,1-.84.51.51,0,0,1,.72.72,9,9,0,0,1-1.08.93A.49.49,0,0,1,40.29,89.27Zm2.55-3.09a.45.45,0,0,1-.2,0,.51.51,0,0,1-.27-.67,5.77,5.77,0,0,0,.36-1.18.51.51,0,0,1,.59-.41.52.52,0,0,1,.41.6,7.23,7.23,0,0,1-.43,1.39A.51.51,0,0,1,42.84,86.18Zm.35-4a.53.53,0,0,1-.5-.4,7.37,7.37,0,0,0-.37-1.22.51.51,0,0,1,1-.37,9.32,9.32,0,0,1,.42,1.37.51.51,0,0,1-.39.6Z"/><path class="cls-2" d="M134.18,59.42h-.44a.51.51,0,0,1,0-1h.43a4.08,4.08,0,0,0,.74-.19.51.51,0,0,1,.31,1A5.62,5.62,0,0,1,134.18,59.42Zm3.36-1.35a.5.5,0,0,1-.27-.93,7.6,7.6,0,0,0,1-.76.51.51,0,0,1,.72,0,.5.5,0,0,1,0,.71,7.53,7.53,0,0,1-1.15.87A.54.54,0,0,1,137.54,58.07Zm2.52-3-.12,0a.51.51,0,0,1-.38-.61,3,3,0,0,0,.1-.79c0-.14,0-.27,0-.41a.51.51,0,0,1,1,0c0,.15,0,.31,0,.46a4.4,4.4,0,0,1-.12,1A.51.51,0,0,1,140.06,55Zm-10.93-3.38H129a.51.51,0,0,1-.42-.58,4.85,4.85,0,0,1,.49-1.43.51.51,0,0,1,.69-.21.5.5,0,0,1,.21.68,3.51,3.51,0,0,0-.38,1.13A.52.52,0,0,1,129.13,51.64Zm10.37-.57a.52.52,0,0,1-.46-.29,5.43,5.43,0,0,0-.67-1,.52.52,0,0,1,.08-.72.51.51,0,0,1,.71.08,6.61,6.61,0,0,1,.79,1.23.51.51,0,0,1-.23.68A.46.46,0,0,1,139.5,51.07Zm-8.06-2.61a.5.5,0,0,1-.44-.25.51.51,0,0,1,.19-.7,6.3,6.3,0,0,1,1.36-.57.5.5,0,0,1,.62.35.51.51,0,0,1-.35.63,4.9,4.9,0,0,0-1.13.47A.47.47,0,0,1,131.44,48.46Zm5.21-.18a.59.59,0,0,1-.22-.05,6,6,0,0,0-1.17-.39.51.51,0,0,1,.21-1,6.3,6.3,0,0,1,1.39.46.5.5,0,0,1,.25.67A.51.51,0,0,1,136.65,48.28Z"/></g></g></svg>