<svg xmlns="http://www.w3.org/2000/svg" xmlns:xlink="http://www.w3.org/1999/xlink" viewBox="0 0 595.28 841.89"><defs><style>.cls-1{opacity:0.1;}.cls-2{fill:url(#linear-gradient);}.cls-3{fill:url(#linear-gradient-2);}.cls-4{fill:url(#linear-gradient-3);}.cls-5{fill:url(#linear-gradient-4);}.cls-6{fill:url(#linear-gradient-5);}.cls-7{fill:url(#linear-gradient-6);}.cls-8{fill:url(#linear-gradient-7);}.cls-9{fill:url(#linear-gradient-8);}.cls-10{fill:url(#linear-gradient-9);}.cls-11{fill:url(#linear-gradient-10);}.cls-12{fill:url(#linear-gradient-11);}.cls-13{fill:url(#linear-gradient-12);}.cls-14{fill:url(#linear-gradient-13);}.cls-15{fill:url(#linear-gradient-14);}</style><linearGradient id="linear-gradient" x1="397.19" y1="527.86" x2="397.19" y2="348.43" gradientUnits="userSpaceOnUse"><stop offset="0" stop-color="#21ade4"/><stop offset="0.39" stop-color="#4f83c4"/><stop offset="1" stop-color="#9e6cae"/></linearGradient><linearGradient id="linear-gradient-2" x1="372.2" y1="595.15" x2="372.2" y2="276.96" xlink:href="#linear-gradient"/><linearGradient id="linear-gradient-3" x1="297.64" y1="729.95" x2="297.64" y2="133.99" xlink:href="#linear-gradient"/><linearGradient id="linear-gradient-4" x1="54.35" y1="33.14" x2="54.35" y2="0" xlink:href="#linear-gradient"/><linearGradient id="linear-gradient-5" x1="423.43" y1="464.39" x2="423.43" y2="419.76" xlink:href="#linear-gradient"/><linearGradient id="linear-gradient-6" x1="297.64" y1="131.06" x2="297.64" y2="0" xlink:href="#linear-gradient"/><linearGradient id="linear-gradient-7" x1="297.64" y1="841.89" x2="297.64" y2="558.08" xlink:href="#linear-gradient"/><linearGradient id="linear-gradient-8" x1="297.64" y1="243.27" x2="297.64" y2="62.62" xlink:href="#linear-gradient"/><linearGradient id="linear-gradient-9" x1="519.73" y1="56.78" x2="519.73" y2="0" xlink:href="#linear-gradient"/><linearGradient id="linear-gradient-10" x1="562.52" y1="841.89" x2="562.52" y2="749.82" xlink:href="#linear-gradient"/><linearGradient id="linear-gradient-11" x1="297.64" y1="797.33" x2="297.64" y2="510.99" xlink:href="#linear-gradient"/><linearGradient id="linear-gradient-12" x1="187.89" y1="841.89" x2="187.89" y2="647.17" xlink:href="#linear-gradient"/><linearGradient id="linear-gradient-13" x1="412.18" y1="584.89" x2="412.18" y2="584.81" xlink:href="#linear-gradient"/><linearGradient id="linear-gradient-14" x1="322.61" y1="662.53" x2="322.61" y2="205.48" xlink:href="#linear-gradient"/></defs><title>Asset 1</title><g id="Layer_2" data-name="Layer 2"><g id="Layer_1-2" data-name="Layer 1"><g class="cls-1"><path class="cls-2" d="M436.28,352.72a165.16,165.16,0,0,0-25.89-3.89c-44.9-3.15-90.46,12.18-116,39.08-14.19,15-20.59,31.74-18.52,48.54,2.35,19.09,22.38,35.71,51,42.36,6.87,1.59,12.67,5.26,15.9,10.07,13.37,19.85,35.65,29.35,58.15,24.77,8.81-1.79,18.73.8,24.78,6.44a10.79,10.79,0,0,1,2.81,2.79l.33.42a5.52,5.52,0,0,1,.91.7c2.84,2.76,8.17,5,13.18,3.26.71-.24,3-.82,5.51-1.43,2.08-.51,5.56-1.37,6.33-1.64,3.58-1.47,8-4.06,8.91-8.09l.06-.23c0-.16.07-.36.13-.57a21.34,21.34,0,0,1,12.13-14.36,40.38,40.38,0,0,0,23.82-33.73A20.57,20.57,0,0,1,507.08,453c12.74-10.4,12.89-23.48,10.76-32.62C511.14,391.48,475.31,361.78,436.28,352.72ZM453.35,466a53.15,53.15,0,0,1-18.66,7,63.63,63.63,0,0,1-11.26,1,62.16,62.16,0,0,1-15.88-2c-17.68-4.67-29.1-16.42-29.1-29.92,0-17.91,19.76-31.94,45-31.94s45,14,45,31.94C468.41,451.28,462.92,460,453.35,466Z"/><path class="cls-3" d="M442.5,285.29a280,280,0,0,0-44.87-7.38c-78.6-6.46-158.3,20.26-203,68.07-24.67,26.38-35.36,55.88-30.92,85.3,4.66,30.94,38.55,56.75,86.36,65.75,10.12,1.9,18.74,8.09,23.07,16.56,20.42,39.89,63.1,59.68,106.14,49.26,13.92-3.37,29.12,2.42,36.14,13.77l.31.5a22.88,22.88,0,0,1,2.55,4.49c.4.83.78,1.66,1.1,2.23a4.83,4.83,0,0,1,.79,1c3.86,6.79,13,12.24,21.56,9.58.69-.21,1.93-.44,6.93-1.3,3.64-.63,10.32-1.78,11.85-2.21a4.63,4.63,0,0,1,1.1-.32,19.1,19.1,0,0,0,15.87-16.16l0-.22c0-.31.07-.63.13-1h0a29.53,29.53,0,0,1,19.09-23.49c25.09-9.4,42.55-33,44.47-60.18a28.91,28.91,0,0,1,12.84-22.38c21.48-13.81,30.7-34,26.67-58.52C572.29,357.59,510.29,302.22,442.5,285.29Zm70.67,175.12a11.08,11.08,0,0,0-3.71,7.59,50,50,0,0,1-29.53,41.75,11.56,11.56,0,0,0-6.65,7.79,1.21,1.21,0,0,1,0,.18,5.91,5.91,0,0,1-.15.66c-1.49,6.33-6.55,11.42-14.66,14.74a76.7,76.7,0,0,1-7.63,2c-2.12.53-4.08,1-4.73,1.21a20.9,20.9,0,0,1-6.71,1.1,24,24,0,0,1-15.49-5.87,10.68,10.68,0,0,1-2.93-2.86l-.34-.45a5.21,5.21,0,0,1-1-.8,19.38,19.38,0,0,0-16.68-4.42c-26.44,5.37-52.48-5.68-68.05-28.83-1.87-2.77-5.63-5-10.09-6.07-33.14-7.68-55.52-27.05-58.41-50.55-2.44-19.75,4.86-39.23,21.09-56.34,27.42-28.9,75.92-45.41,123.64-42.06a173.53,173.53,0,0,1,27.39,4.12c43,10,81.17,42.14,88.76,74.81C531.09,434.85,526.1,449.85,513.17,460.41Z"/><path class="cls-4" d="M372.19,136.08C228.91,123.22,83.88,170.52,0,256.88v243c26,15.94,59,27.71,96.68,33.65a48.26,48.26,0,0,1,36.73,28.8C167,642.21,252.23,683.78,336.18,661.19c23.42-6.31,48,5.28,57.12,26.95.29.69.57,1.39.83,2.1l-.05,0c.81,1.69,1.66,4.15,2.85,7.6.82,2.36,1.91,5.52,2.32,6.55a4.21,4.21,0,0,1,.38.8c5.59,15.26,22.27,28.65,39.53,23.69.53-.15.57-.17,11.71-1.67,7.5-1,19.94-2.68,21.86-3.05a5.12,5.12,0,0,1,.68-.14,36.69,36.69,0,0,0,31.73-33.43l0-.18.06-.91c0-.4.06-.78.1-1.14h0c1.4-18.66,14.12-34.64,32.41-40.7A125.18,125.18,0,0,0,595.28,608V501.21a29.67,29.67,0,0,0-3.14,11.41c-2.85,43.7-31,81.07-71.75,95.2a28.49,28.49,0,0,0-19.33,23.95l0,.23,0,.56c0,.3-.06.6-.1.91h0a37.7,37.7,0,0,1-31.59,33.32c-1.72.45-5.8,1.09-18.16,2.92-4.1.61-7.51,1.11-8.24,1.26a30,30,0,0,1-8.54,1.24c-14.59,0-27.76-10.65-33.21-23.2a48.5,48.5,0,0,1-2.47-5.71c-.57-1.45-1.38-3.55-1.78-4.42a4.4,4.4,0,0,1-.57-1c-.18-.42-.37-.82-.57-1.23-6-12.44-21.3-19-35.63-15.33A142.2,142.2,0,0,1,194.54,542a30.67,30.67,0,0,0-22.78-17.21c-71.13-12-122-50.1-129.69-97-7.34-45.06,8.43-90.07,45.63-130.14,65.78-70.89,182.74-110.21,298-100.18a402,402,0,0,1,65.41,11.15C505.9,222.62,557.69,253.92,595.28,292V220.1c-40.79-31.4-89.42-56.37-140.25-69.63A506.93,506.93,0,0,0,372.19,136.08Z"/><path class="cls-5" d="M108.7,0H0V33.14A736,736,0,0,1,101.53,1.62C103.91,1.06,106.31.53,108.7,0Z"/><path class="cls-6" d="M423.43,419.76c-19.16,0-35.36,10.22-35.36,22.32,0,8.86,8.82,17.15,21.95,20.62a54.28,54.28,0,0,0,23,.86,43.45,43.45,0,0,0,15.25-5.69c6.81-4.28,10.56-9.89,10.56-15.79C458.79,430,442.59,419.76,423.43,419.76Z"/><path class="cls-7" d="M394,0H156.17A731.11,731.11,0,0,0,0,43.2v84.24C102,71,231.78,43.82,360.35,55.58A633.1,633.1,0,0,1,463.77,73.75c46.23,12.18,91,32.13,131.51,57.31V67.79A553,553,0,0,0,467.6,15.65Q430.55,5.82,394,0Z"/><path class="cls-8" d="M561.12,705.79c-18.47,6-31.18,21.94-32.37,40.67v.08l-.06.91c0,.64-.07,1.23-.14,1.77h0a55.06,55.06,0,0,1-48.13,51.08v-.06c-2.53.46-8.95,1.27-27.43,3.6-6.32.8-11.6,1.46-12.86,1.63A42.08,42.08,0,0,1,428.91,807c-22.56,0-42.09-18.37-48.81-38.84l.1,0c-.83-2-1.79-5-3.19-9.36-1.25-3.89-2.5-7.81-2.89-8.89a3.83,3.83,0,0,1-.22-.56c-.24-.73-.5-1.44-.77-2.15-8.48-22.1-32.51-33.93-55.93-27.53-108.1,30-221-25.63-262.64-129.43a46.62,46.62,0,0,0-36-28.89Q9.13,559.9,0,558.08V626C51,735.76,174.07,792.84,293.14,759.52A66.06,66.06,0,0,1,311,757.05a63.47,63.47,0,0,1,61,45.31l6.89,22.71a54.26,54.26,0,0,0,8.49,16.82H517.08a54.1,54.1,0,0,0,15.73-35.3l.18-3.29c1.49-26.72,19.39-49.37,45.61-57.7q8.55-2.73,16.68-6.2V690.26A164.48,164.48,0,0,1,561.12,705.79Z"/><path class="cls-9" d="M373.05,126.49a519.53,519.53,0,0,1,84.41,14.66c49.63,12.95,97.23,36.88,137.82,67.07V142.3c-41.06-26.1-86.71-46.79-134-59.24a622.54,622.54,0,0,0-101.84-17.9c-126.65-11.57-258,17-359.47,74V243.27C86.73,159.3,230.84,113.74,373.05,126.49Z"/><path class="cls-10" d="M595.28,56.78V0H444.18q13,2.94,25.88,6.34A561.86,561.86,0,0,1,595.28,56.78Z"/><path class="cls-11" d="M542.6,803.84l-.19,3.29a63.73,63.73,0,0,1-12.64,34.76h65.51V749.82q-6.75,2.71-13.77,4.95C559.14,761.88,543.86,781.14,542.6,803.84Z"/><path class="cls-12" d="M63.49,586.63c39.78,99.24,147.75,152.42,251.16,123.73,28.19-7.7,57.2,6.63,67.46,33.35.34.86.65,1.75.94,2.65l-.1,0c.83,2,1.79,5,3.22,9.45,1.24,3.86,2.47,7.71,2.86,8.79a4.87,4.87,0,0,1,.21.53c6.49,19.78,27.59,36.93,48.59,31,.47-.14.47-.14,14-1.84,10.08-1.27,25.24-3.18,27-3.47l.42-.07A45.43,45.43,0,0,0,519,748.61a.66.66,0,0,0,0-.14l.11-1.6c0-.37,0-.71.07-1h0c1.44-22.7,16.76-42,39-49.21a154.9,154.9,0,0,0,37.12-17.75V622.47a134.65,134.65,0,0,1-54.53,34.34c-14.6,4.84-24.74,17.51-25.84,32.29a1.09,1.09,0,0,0,0,.18l-.07.91c0,.4-.06.78-.1,1.14h0a46.36,46.36,0,0,1-40.07,42.25h0c-2.22.46-7.54,1.17-22.52,3.19-5.47.74-10,1.34-10.73,1.47a34.77,34.77,0,0,1-9.73,1.39c-18.48,0-35.06-14.65-41.1-31.11l.06,0c-.81-1.7-1.66-4.14-2.82-7.49-.78-2.26-1.93-5.58-2.35-6.64a4.29,4.29,0,0,1-.37-.78c-.22-.58-.45-1.16-.68-1.72-7.26-17.25-26.92-26.44-45.75-21.38a186.43,186.43,0,0,1-48.39,6.45C219,677,153.51,635,124.54,566.07a38.6,38.6,0,0,0-29.36-23C58.63,537.28,26.26,526.13,0,511v37.28q9.81,2,20,3.53A56.28,56.28,0,0,1,63.49,586.63Z"/><path class="cls-13" d="M362.73,805.15c-8.64-28.48-38.06-44.46-67-36.36a264.24,264.24,0,0,1-71.12,9.83A256.84,256.84,0,0,1,0,647.17V841.89H375.78a63.61,63.61,0,0,1-6.16-14Z"/><path class="cls-14" d="M412.76,584.81a5,5,0,0,1-1.15.07A5,5,0,0,0,412.76,584.81Z"/><path class="cls-15" d="M448.76,217.88A393.74,393.74,0,0,0,384.9,207c-112.46-9.8-226.31,28.34-290.15,97.14-35.1,37.82-50,80-43.18,122,7,42.82,54.78,77.79,121.79,89.1A40.41,40.41,0,0,1,203.31,538a132.61,132.61,0,0,0,154.42,74c18.62-4.84,38.72,4,46.71,20.45.22.45.43.91.63,1.37a47.44,47.44,0,0,1,2.58,6c.56,1.43,1.37,3.49,1.76,4.36a5.58,5.58,0,0,1,.57,1c4.7,10.9,17.72,20.32,30.49,16.52.59-.17,1.2-.27,9.27-1.47,5.68-.84,15.09-2.24,16.9-2.65a5.38,5.38,0,0,1,.9-.22,28,28,0,0,0,23.77-24.75l0-.23.05-.56c0-.29.05-.6.09-.91h0a38.12,38.12,0,0,1,25.78-32.15c37-12.86,62.69-46.91,65.29-86.74a38.09,38.09,0,0,1,12.74-26.31v-180C558.61,265.76,505.33,232.41,448.76,217.88ZM559.25,475.33a19.34,19.34,0,0,0-8.45,15c-2.17,30.91-22.08,57.81-50.71,68.53a19.81,19.81,0,0,0-12.89,15.71c0,.07,0,.14,0,.22,0,.31-.07.63-.12,1h0A28.79,28.79,0,0,1,463.77,600c-1.39.47-4.38,1.05-13.45,2.61-2.82.49-5.2.89-5.87,1.06a25.05,25.05,0,0,1-7.36,1.11c-10.59,0-20.2-6.72-24.95-14.63a22.68,22.68,0,0,1-2.52-4.41c-.4-.85-.8-1.7-1.11-2.28a4.4,4.4,0,0,1-.82-1.08l-.44-.73c-4.88-7.91-15.67-11.9-25.69-9.48-46.77,11.32-94.84-11-117-54.23-2.93-5.74-9.18-10.14-16.28-11.48-51.89-9.77-88.83-38.73-94.1-73.78-4.89-32.43,6.66-64.7,33.4-93.31,46.62-49.87,129.32-77.77,210.81-71.08A288.61,288.61,0,0,1,444.83,276c72.38,18.07,136.24,75.7,145.39,131.2C594.85,435.31,583.86,459.52,559.25,475.33Z"/></g></g></g></svg>