<svg xmlns="http://www.w3.org/2000/svg" xmlns:xlink="http://www.w3.org/1999/xlink" viewBox="0 0 595.28 845.45"><defs><style>.cls-1{opacity:0.3;}.cls-2{fill:url(#linear-gradient);}.cls-3{fill:url(#linear-gradient-2);}.cls-4{fill:url(#linear-gradient-3);}.cls-5{fill:url(#linear-gradient-4);}.cls-6{fill:url(#linear-gradient-5);}.cls-7{fill:url(#linear-gradient-6);}</style><linearGradient id="linear-gradient" x1="341.29" y1="7.12" x2="416.32" y2="7.12" gradientUnits="userSpaceOnUse"><stop offset="0" stop-color="#21ade4"/><stop offset="0.39" stop-color="#4f83c4"/><stop offset="1" stop-color="#9e6cae"/></linearGradient><linearGradient id="linear-gradient-2" x1="406.72" y1="199.82" x2="595.28" y2="199.82" xlink:href="#linear-gradient"/><linearGradient id="linear-gradient-3" x1="0" y1="319.66" x2="0.21" y2="319.66" xlink:href="#linear-gradient"/><linearGradient id="linear-gradient-4" x1="0" y1="422.72" x2="595.28" y2="422.72" xlink:href="#linear-gradient"/><linearGradient id="linear-gradient-5" x1="0" y1="256.95" x2="27.8" y2="256.95" xlink:href="#linear-gradient"/><linearGradient id="linear-gradient-6" x1="0" y1="676.17" x2="125.83" y2="676.17" xlink:href="#linear-gradient"/></defs><title>Asset 2</title><g id="Layer_2" data-name="Layer 2"><g id="Layer_1-2" data-name="Layer 1"><g class="cls-1"><path class="cls-2" d="M411.76,11.74A34.42,34.42,0,0,1,416.32,0h-75a36.53,36.53,0,0,1,8.87,14.24Z"/><path class="cls-3" d="M480.69,18.14a34.73,34.73,0,0,1-33,34.76l-20,71.59A58.55,58.55,0,0,1,410,235.94l-3.25,59a55.2,55.2,0,0,1,39.87,69.18l64,35.48a86.31,86.31,0,0,1,70-35.82,87.23,87.23,0,0,1,14.73,1.27V293.16a55.34,55.34,0,1,1,0-106.68V129.37a55.33,55.33,0,1,1,0-106.66V0H475.54A34.6,34.6,0,0,1,480.69,18.14Z"/><path class="cls-4" d="M0,318.94v1.44c.07-.44.13-.89.21-1.34Z"/><path class="cls-5" d="M580.55,536.82A86.65,86.65,0,0,1,559.11,534l-21.8,56.08a26.72,26.72,0,1,1-19.31-7.5l21.78-56a86.41,86.41,0,0,1-39.33-108.87l-63.28-35.11A55.31,55.31,0,1,1,386,293.92l3.27-59.33a58.57,58.57,0,0,1,14-115.44c1.44,0,2.85.11,4.26.21l20-71.62a34.76,34.76,0,0,1-13.43-15.37L351,34.93a36.6,36.6,0,0,1-42.53,27l-60,115.6a59.24,59.24,0,0,1-30.34,107.1l-2.37,62.43a86.33,86.33,0,0,1,71.26,117.15l75.07,37.83a40.9,40.9,0,1,1,42.17,64.48l.87,84.29a36.17,36.17,0,0,1,8.22,3.45,36.64,36.64,0,1,1-43.23,58.56L299.41,754.7a28,28,0,1,1-14-22.9,28.32,28.32,0,0,1,5.28,4L359.6,695a36.53,36.53,0,0,1,24.87-44l-.88-84.85a40.7,40.7,0,0,1-29.42-44.9l-76.81-38.7a86.46,86.46,0,1,1-82.28-135.14l2.46-64.91a59.19,59.19,0,0,1,32.29-113.89L290.1,52.43A36.64,36.64,0,0,1,289.64,0H0V101.47a62.93,62.93,0,0,1,73.7,12.12l60.75-42.31A40.89,40.89,0,1,1,146,88.46L85.51,130.6a62.54,62.54,0,0,1,6.14,27,63,63,0,0,1-48.11,61.17l4.92,66.78A41.56,41.56,0,1,1,0,332.39v112a45.5,45.5,0,1,1,56.5,70.25,45.41,45.41,0,0,1-14.64,5.6L40,574.55A29.11,29.11,0,0,1,60.56,611l47.17,32.42a42,42,0,0,1,59.18,5.52l48.16-24.42A44.38,44.38,0,1,1,224.44,643l-48.6,24.64a42,42,0,0,1-29.29,48.61l-1.2,101.9A38.73,38.73,0,0,1,172,845.45H595.28V535.55A87.23,87.23,0,0,1,580.55,536.82Z"/><path class="cls-6" d="M27.8,287.05,22.88,220.3A62.53,62.53,0,0,1,0,213.68v82.48l8.86,4.06A41.38,41.38,0,0,1,27.8,287.05Z"/><path class="cls-7" d="M124.64,817.91l1.19-100.81a42,42,0,0,1-30.33-57L48,627.47a29.13,29.13,0,1,1-28.82-50.58l2-57.37A45.32,45.32,0,0,1,0,506.89H0V845.45H97.13A38.77,38.77,0,0,1,124.64,817.91Z"/></g></g></g></svg>