<svg xmlns="http://www.w3.org/2000/svg" xmlns:xlink="http://www.w3.org/1999/xlink" viewBox="0 0 595.28 841.62"><defs><style>.cls-1{opacity:0.2;}.cls-2{fill:url(#linear-gradient);}.cls-3{fill:url(#linear-gradient-2);}.cls-4{fill:url(#linear-gradient-3);}.cls-5{fill:url(#linear-gradient-4);}.cls-6{fill:url(#linear-gradient-5);}</style><linearGradient id="linear-gradient" x1="229.38" y1="18.06" x2="265.51" y2="18.06" gradientUnits="userSpaceOnUse"><stop offset="0" stop-color="#21ade4"/><stop offset="0.39" stop-color="#4f83c4"/><stop offset="1" stop-color="#9e6cae"/></linearGradient><linearGradient id="linear-gradient-2" x1="411.02" y1="10.33" x2="431.68" y2="10.33" xlink:href="#linear-gradient"/><linearGradient id="linear-gradient-3" x1="540" y1="563.41" x2="595.28" y2="563.41" xlink:href="#linear-gradient"/><linearGradient id="linear-gradient-4" x1="581.29" y1="716.42" x2="595.28" y2="716.42" xlink:href="#linear-gradient"/><linearGradient id="linear-gradient-5" x1="0" y1="420.81" x2="595.28" y2="420.81" xlink:href="#linear-gradient"/></defs><title>Asset 4</title><g id="Layer_2" data-name="Layer 2"><g id="Layer_1-2" data-name="Layer 1"><g class="cls-1"><polygon class="cls-2" points="265.51 0 229.38 0 229.38 36.13 265.51 0"/><polygon class="cls-3" points="431.68 0 411.02 0 411.02 20.66 431.68 0"/><polygon class="cls-4" points="595.28 591.04 595.28 535.77 540 591.04 595.28 591.04"/><polygon class="cls-5" points="595.28 723.41 595.28 709.42 581.29 723.41 595.28 723.41"/><path class="cls-6" d="M569.6,733.1l-.49,0-.2,0-.26,0-.24-.06-.22-.06-.23-.08-.22-.08-.21-.1-.22-.1-.2-.12-.21-.12-.21-.16-.17-.13a3.7,3.7,0,0,1-.36-.33,4.81,4.81,0,0,1-1.44-3.44V693.71a4.85,4.85,0,1,1,9.69,0v22.88l20.87-20.87V622.24H502.35c-.52,0-1,0-1.55-.07-.22,0-.44-.07-.65-.1s-.57-.07-.86-.13-.51-.12-.76-.18l-.72-.19c-.25-.07-.49-.17-.74-.26l-.7-.25-.68-.32-.7-.34c-.22-.11-.43-.25-.64-.38l-.67-.4c-.24-.16-.46-.34-.69-.51s-.36-.26-.53-.4a15.25,15.25,0,0,1-1.19-1.08,15.52,15.52,0,0,1-4.61-11.07V495.36a15.6,15.6,0,1,1,31.2,0v73.71l77.42-77.42V292.5a6.89,6.89,0,0,1-2,4.87L532,358.65h32.45a6.88,6.88,0,0,1,0,13.76H515.37c-.23,0-.45,0-.68,0l-.29-.05-.38-.05-.33-.09a1.67,1.67,0,0,1-.32-.08L513,372l-.31-.11-.3-.14-.31-.15-.28-.17a2.82,2.82,0,0,1-.29-.18l-.31-.22-.23-.18c-.19-.15-.36-.31-.53-.47a6.9,6.9,0,0,1-2-4.89V316.43a6.88,6.88,0,1,1,13.76,0V349l61.32-61.31a6.89,6.89,0,0,1,11.75,4.86V0H451.14L420.79,30.36h32.45a6.88,6.88,0,0,1,0,13.76H404.18l-.69,0L403.2,44l-.37,0-.34-.09a1.77,1.77,0,0,1-.31-.08,3.19,3.19,0,0,1-.33-.11l-.31-.11-.3-.14-.31-.15a2.61,2.61,0,0,1-.28-.17c-.1-.06-.2-.11-.3-.18l-.3-.22-.24-.18c-.18-.15-.36-.31-.52-.47a6.87,6.87,0,0,1-2-4.89V0H309.63l-58.1,58.11h73.54a15.6,15.6,0,0,1,0,31.2H213.87c-.52,0-1,0-1.55-.08-.22,0-.44-.06-.65-.1s-.57-.07-.86-.13-.51-.12-.76-.18-.48-.11-.72-.19-.49-.17-.74-.26l-.7-.25-.68-.32c-.24-.11-.47-.21-.7-.33s-.43-.26-.64-.38-.45-.26-.67-.41l-.69-.51c-.18-.13-.36-.25-.53-.4-.42-.34-.81-.7-1.19-1.07a15.6,15.6,0,0,1-4.61-11.08V0H54.79L24.15,30.63H41.79a3.74,3.74,0,1,1,0,7.48h-27l-.15,0-.21,0-.18,0L14,38l-.18-.06-.17-.06-.16-.08-.17-.08-.15-.09-.16-.1a1.77,1.77,0,0,1-.17-.12l-.13-.09a3.45,3.45,0,0,1-.28-.26,3.76,3.76,0,0,1-1.11-2.66V7.69A3.76,3.76,0,0,1,15.1,4a3.74,3.74,0,0,1,3.74,3.74V25.36L44.21,0H0V210.69a15.58,15.58,0,0,1,24,13.12v73.7l139-139a15.6,15.6,0,0,1,22.06,22.06L46.16,319.49H119.7a15.6,15.6,0,1,1,0,31.2H8.51c-.52,0-1,0-1.55-.07l-.66-.1c-.28,0-.56-.07-.85-.13s-.51-.12-.76-.18L4,350l-.74-.26-.7-.25-.68-.32-.7-.34c-.22-.12-.43-.25-.64-.38L0,348.16V841.62H595.28V733.1ZM130.49,45.17,69.21,106.45h32.45a6.88,6.88,0,1,1,0,13.76H52.6c-.23,0-.46,0-.68,0l-.29,0-.38-.06-.34-.08-.31-.08-.33-.12-.31-.11-.3-.14c-.1,0-.21-.09-.31-.15l-.28-.17-.29-.17a3.55,3.55,0,0,1-.31-.23l-.24-.17c-.18-.15-.35-.31-.52-.48a6.88,6.88,0,0,1-2-4.88V64.23a6.88,6.88,0,1,1,13.76,0V96.75l61.31-61.31a6.88,6.88,0,1,1,9.74,9.73Zm39.09,209.45-33.3,33.3h17.63a3.74,3.74,0,0,1,0,7.48H127.25l-.37,0-.16,0-.2,0-.19,0-.17,0-.18-.07-.16-.06-.17-.07-.16-.08-.16-.1-.16-.09-.16-.12-.13-.1-.29-.26a3.74,3.74,0,0,1-1.1-2.65V265a3.74,3.74,0,1,1,7.48,0v17.68l33.32-33.32a3.74,3.74,0,0,1,5.29,5.29Zm152.39-66L260.69,250h32.45a6.88,6.88,0,0,1,0,13.76H244.08c-.23,0-.45,0-.68,0l-.29,0-.38-.06-.33-.08-.32-.08-.33-.12-.31-.11-.3-.14-.31-.15-.28-.17-.29-.17a3.55,3.55,0,0,1-.31-.23l-.23-.17a6,6,0,0,1-.53-.48,6.88,6.88,0,0,1-2-4.88V207.73a6.88,6.88,0,0,1,13.76,0v32.52l61.32-61.31a6.88,6.88,0,0,1,9.73,9.73Zm181.9,459.2a3.74,3.74,0,0,1,5.29,5.29l-33.3,33.3h17.63a3.74,3.74,0,0,1,0,7.48H466.83l-.37,0-.16,0-.2,0-.19,0-.17,0-.18-.07a1,1,0,0,1-.16-.06l-.17-.07-.16-.08-.16-.09-.16-.1-.16-.12-.13-.1-.29-.26a3.72,3.72,0,0,1-1.1-2.65V663.52a3.74,3.74,0,0,1,7.48,0v17.67Zm56.5-452.74-33.3,33.3H544.7a3.74,3.74,0,1,1,0,7.48H518l-.37,0-.15,0-.21,0-.18,0-.17,0-.18-.07-.17-.06-.16-.07-.17-.09-.15-.09-.16-.09-.17-.13-.13-.09a3.45,3.45,0,0,1-.28-.26,3.75,3.75,0,0,1-1.11-2.65V205.48a3.74,3.74,0,0,1,7.48,0v17.68l33.32-33.32a3.74,3.74,0,0,1,5.29,5.29ZM537.88,26.58a3.74,3.74,0,0,1,7.48,0V44.26l33.32-33.32A3.74,3.74,0,0,1,584,16.23l-33.29,33.3H568.3a3.74,3.74,0,1,1,0,7.48H541.64l-.37,0-.16,0-.21,0-.18,0-.17,0-.18-.07-.17-.06-.16-.07-.17-.08-.15-.1-.16-.09-.17-.12-.12-.1L539,55.9a3.74,3.74,0,0,1-1.1-2.65ZM374.38,285.91c-.23-.09-.46-.21-.68-.32s-.47-.21-.7-.33-.43-.25-.64-.38-.45-.26-.67-.41-.46-.33-.69-.5-.36-.26-.53-.4a15.25,15.25,0,0,1-1.19-1.08,15.54,15.54,0,0,1-4.61-11.07V160.22a15.6,15.6,0,0,1,31.2,0v73.7l139-139A15.6,15.6,0,0,1,556.9,117L418,255.9h73.54a15.6,15.6,0,0,1,0,31.2H380.36c-.52,0-1,0-1.55-.08l-.66-.09-.85-.13c-.26-.05-.51-.13-.76-.19l-.72-.18-.74-.26C374.85,286.08,374.61,286,374.38,285.91Zm56.7,334.19H382c-.23,0-.46,0-.68,0l-.29-.05-.38,0-.34-.08c-.1,0-.21,0-.31-.09l-.33-.11-.31-.11-.3-.14-.31-.15-.28-.17a2.82,2.82,0,0,1-.29-.18l-.31-.22-.23-.18c-.19-.15-.36-.31-.53-.47a6.9,6.9,0,0,1-2-4.89V564.12a6.88,6.88,0,0,1,13.76,0v32.52l61.32-61.31a6.88,6.88,0,1,1,9.73,9.73l-61.28,61.28h32.45a6.88,6.88,0,0,1,0,13.76ZM536.19,733l-61.28,61.27h32.45a6.89,6.89,0,0,1,0,13.77H458.3a5.17,5.17,0,0,1-.68,0l-.29,0-.38-.06-.33-.08-.32-.08-.33-.11-.3-.12-.31-.14-.3-.14-.29-.17-.29-.18-.31-.22-.23-.18a6,6,0,0,1-.53-.48,6.86,6.86,0,0,1-2-4.88V752a6.88,6.88,0,1,1,13.76,0v32.52l61.32-61.32a6.88,6.88,0,0,1,9.73,9.74Z"/></g></g></g></svg>