<svg xmlns="http://www.w3.org/2000/svg" viewBox="0 0 595.28 842.39"><defs><style>.cls-1{opacity:0.05;}.cls-2{fill:#283074;}</style></defs><title>Asset 5</title><g id="Layer_2" data-name="Layer 2"><g id="Layer_1-2" data-name="Layer 1"><g class="cls-1"><path class="cls-2" d="M34.12,841.89l.36.5.68-.5Z"/><path class="cls-2" d="M521.67,367.2a22.06,22.06,0,0,1-5.61-9.48l-95.29,23.34A22.3,22.3,0,0,1,418,396.87l101.5,67.71a22.2,22.2,0,0,1,16.93-9.06V373.66A22.14,22.14,0,0,1,521.67,367.2Z"/><path class="cls-2" d="M8.77,324l5.15-107.52A22.1,22.1,0,0,1,.25,210L0,209.75v116A22.35,22.35,0,0,1,8.77,324Z"/><path class="cls-2" d="M388.43,535.67a22.21,22.21,0,0,1-12.53-3.86L299.54,633.7c.55.45,1.09.93,1.61,1.45a22.17,22.17,0,0,1,5.68,9.71l124.09-29a22.12,22.12,0,0,1,6.13-19.82,22.72,22.72,0,0,1,2.74-2.3l-40-61.22A22.24,22.24,0,0,1,388.43,535.67Z"/><path class="cls-2" d="M8.7,366.45A20.1,20.1,0,0,0,23,360.51a20.23,20.23,0,0,0,0-28.64,20.2,20.2,0,0,0-23-3.95v36.55A20.2,20.2,0,0,0,8.7,366.45Z"/><path class="cls-2" d="M258.83,449.66a20.26,20.26,0,1,0-20.26,20.26A20.28,20.28,0,0,0,258.83,449.66Z"/><path class="cls-2" d="M158.4,250.25,132,143.23a22.56,22.56,0,0,1-4.37.43,22.25,22.25,0,0,1-18.15-9.39l-74.69,48a22.17,22.17,0,0,1,1.42,21.33l109.29,56.8A22.34,22.34,0,0,1,158.4,250.25Z"/><path class="cls-2" d="M90,477.75A20.26,20.26,0,1,0,69.69,498,20.28,20.28,0,0,0,90,477.75Z"/><path class="cls-2" d="M414.69,401.11A22.19,22.19,0,0,1,399,407.62c-.27,0-.55,0-.82,0l-6.89,83.8a22.16,22.16,0,0,1,18.58,15.9L515.55,482a22.24,22.24,0,0,1,2.81-15.71L416.87,398.53A22.06,22.06,0,0,1,414.69,401.11Z"/><path class="cls-2" d="M216.8,454.29l-125,20.8a23.31,23.31,0,0,1,.16,2.66A22.15,22.15,0,0,1,86,492.85l69.5,70.35a22.26,22.26,0,0,1,24.41-3.72l47.44-90.6A22.32,22.32,0,0,1,216.8,454.29Z"/><path class="cls-2" d="M285.41,673.13a22.19,22.19,0,0,1-15.74-6.51c-.4-.4-.78-.83-1.15-1.26L183,732.26a22.17,22.17,0,0,1,4.1,13.6l136.78,10.53a22,22,0,0,1,10.36-16.2l-38.82-69.42A22.37,22.37,0,0,1,285.41,673.13Z"/><path class="cls-2" d="M346.6,267.88,485,244.13a23.18,23.18,0,0,1-.17-2.78,22.22,22.22,0,0,1,7.35-16.52l-35.51-43.12a22.22,22.22,0,0,1-29.14-2.12L341.79,257.4A22.2,22.2,0,0,1,346.6,267.88Z"/><path class="cls-2" d="M438.46,15.32a20.28,20.28,0,0,0,28.65,0A20.1,20.1,0,0,0,473.05,1c0-.34,0-.67-.05-1H432.59A20.18,20.18,0,0,0,438.46,15.32Z"/><path class="cls-2" d="M185,271.59a20.26,20.26,0,1,0-20.25,20.26A20.28,20.28,0,0,0,185,271.59Z"/><path class="cls-2" d="M580.92,719.94a22.26,22.26,0,0,1-44.49,1l-49.63,2.21c0,.23,0,.47,0,.71a22.29,22.29,0,0,1-21.27,22.23l-1.33,95.76H595.28V715.25l-14.49,2.26C580.87,718.31,580.92,719.12,580.92,719.94Z"/><path class="cls-2" d="M1.66,208.61a20.25,20.25,0,1,0,0-28.65A21.42,21.42,0,0,0,0,181.87V206.7A21.42,21.42,0,0,0,1.66,208.61Z"/><path class="cls-2" d="M149.11,729.41a22.21,22.21,0,0,1,15.5-6.49l4.14-121.13a22.05,22.05,0,0,1-14-6.44,22.47,22.47,0,0,1-4.22-5.9L69.2,625.07A22.25,22.25,0,0,1,49.4,655.3l-2.15,64.64a22.15,22.15,0,0,1,20.66,21.74l74.77,1.91A22.17,22.17,0,0,1,149.11,729.41Z"/><path class="cls-2" d="M69.69,455.49a22.29,22.29,0,0,1,21.77,17.62l125-20.79a21.22,21.22,0,0,1-.17-2.66,22.18,22.18,0,0,1,1.58-8.21L28.56,356.23a22.8,22.8,0,0,1-4.12,5.7,22.64,22.64,0,0,1-5.48,4l42.29,91.22A22.21,22.21,0,0,1,69.69,455.49Z"/><path class="cls-2" d="M579.49,607.62a22.06,22.06,0,0,1-10.74,2.77l-.7,0-6.69,87.48a22.31,22.31,0,0,1,19.12,17.68l14.8-2.31V633.45Z"/><path class="cls-2" d="M229.13,429.51l-56.83-137a22.23,22.23,0,0,1-27.22-10.43L29.19,337.5a22.17,22.17,0,0,1,.19,16.9l189.33,85.23A22.41,22.41,0,0,1,229.13,429.51Z"/><path class="cls-2" d="M164.85,767.4c-.47,0-.94,0-1.41-.07l-7.58,74.56H278.1L179.91,761.5A22.13,22.13,0,0,1,164.85,767.4Z"/><path class="cls-2" d="M149.11,760.89a23.39,23.39,0,0,1-1.57-1.75L35.16,841.89H153.85l7.6-74.78A22.12,22.12,0,0,1,149.11,760.89Z"/><path class="cls-2" d="M179.18,759.48a20.26,20.26,0,1,0-28.65,0A20.3,20.3,0,0,0,179.18,759.48Z"/><path class="cls-2" d="M170.51,599.87a20.25,20.25,0,1,0-14.33-5.93A20.13,20.13,0,0,0,170.51,599.87Z"/><path class="cls-2" d="M410.69,513.43a21.9,21.9,0,0,1-9.27,18l40.05,61.21a22.33,22.33,0,0,1,22.33-.18L524.7,496A22.29,22.29,0,0,1,516,483.9L410.28,509.22A21.85,21.85,0,0,1,410.69,513.43Z"/><path class="cls-2" d="M47.44,477.75a22.39,22.39,0,0,1,.54-4.88L0,459.81v64.85l50.84-35.11A22.11,22.11,0,0,1,47.44,477.75Z"/><path class="cls-2" d="M59.44,458,17.15,366.79A22.3,22.3,0,0,1,0,366.68v91.05l48.5,13.21A22.37,22.37,0,0,1,59.44,458Z"/><path class="cls-2" d="M142.45,271.59a22,22,0,0,1,2.07-9.36L35.24,205.42a21.87,21.87,0,0,1-3.52,4.6A22.15,22.15,0,0,1,16,216.53h-.07L10.76,324a22.18,22.18,0,0,1,13.68,6.41,22.4,22.4,0,0,1,3.9,5.24l115.88-55.41A22.09,22.09,0,0,1,142.45,271.59Z"/><path class="cls-2" d="M372.69,529.17a22.19,22.19,0,0,1-5.1-23.52L258.64,459.29a22.36,22.36,0,0,1-14,11.79L281.35,629a22.34,22.34,0,0,1,16.59,3.48L374.3,530.62C373.74,530.16,373.21,529.68,372.69,529.17Z"/><path class="cls-2" d="M154.1,564.62,84.6,494.26A22.23,22.23,0,0,1,52,491.2L0,527.09v26.16l148.66,22.11A22,22,0,0,1,154.1,564.62Z"/><path class="cls-2" d="M127.58,141.66a20.26,20.26,0,1,0-20.26-20.25A20.28,20.28,0,0,0,127.58,141.66Z"/><path class="cls-2" d="M263.15,650.89A22.17,22.17,0,0,1,266,640l-77.12-47.84a22.5,22.5,0,0,1-2.62,3.17,22.1,22.1,0,0,1-15.5,6.51L166.61,723a22.14,22.14,0,0,1,14,6.42c.41.41.78.84,1.14,1.27l85.56-66.9A22.1,22.1,0,0,1,263.15,650.89Z"/><path class="cls-2" d="M376.69,385.37a22.15,22.15,0,0,1,6.52-15.74,24,24,0,0,1,2.76-2.31l-50-76.57A22.19,22.19,0,0,1,315.88,292l-66.73,138a22.45,22.45,0,0,1,9.68,10.38L378,392.71A22.33,22.33,0,0,1,376.69,385.37Z"/><path class="cls-2" d="M452.79,591.57a20.25,20.25,0,1,0,14.32,5.92A20.2,20.2,0,0,0,452.79,591.57Z"/><path class="cls-2" d="M302.43,272.59H186.94a22.3,22.3,0,0,1-12.79,19.15l56.83,137a22.18,22.18,0,0,1,16.37.47l66.73-138A22.27,22.27,0,0,1,302.43,272.59Z"/><path class="cls-2" d="M537.41,500a22.12,22.12,0,0,1-11-2.93l-60.9,96.49a22.58,22.58,0,0,1,3,2.52,22.16,22.16,0,0,1,5.83,10.31l72.4-14.78a23.32,23.32,0,0,1-.27-3.47A22.28,22.28,0,0,1,561.72,567l-19.2-67.63A22.06,22.06,0,0,1,537.41,500Z"/><path class="cls-2" d="M553.15,367.2a22.14,22.14,0,0,1-14.74,6.46v81.86a22.28,22.28,0,0,1,18.72,11.92l38.15-17.8V373.47L558,360A22.31,22.31,0,0,1,553.15,367.2Z"/><path class="cls-2" d="M537.41,457.49a20.26,20.26,0,1,0,20.25,20.26A20.28,20.28,0,0,0,537.41,457.49Z"/><path class="cls-2" d="M313.78,252.18,268.92,163a22.18,22.18,0,0,1-21.48-1.83L178.7,254.3a22.2,22.2,0,0,1,8.24,16.29H302.43A22.29,22.29,0,0,1,313.78,252.18Z"/><path class="cls-2" d="M285.41,630.64a20.25,20.25,0,1,0,14.32,5.92A20.16,20.16,0,0,0,285.41,630.64Z"/><path class="cls-2" d="M304.4,271.59a20.26,20.26,0,1,0,20.26-20.26A20.28,20.28,0,0,0,304.4,271.59Z"/><path class="cls-2" d="M334,77.37a20.26,20.26,0,1,0-14.33-5.94A20.11,20.11,0,0,0,334,77.37Z"/><path class="cls-2" d="M374.11,499.11a20.26,20.26,0,1,0,14.32-5.93A20.1,20.1,0,0,0,374.11,499.11Z"/><path class="cls-2" d="M372.69,497.69a22.17,22.17,0,0,1,16.56-6.47l6.88-83.8a22.15,22.15,0,0,1-12.92-6.31,22.41,22.41,0,0,1-4.52-6.54L259.58,442.32a22.2,22.2,0,0,1-.16,15.13l109,46.36A22.31,22.31,0,0,1,372.69,497.69Z"/><path class="cls-2" d="M164.71,249.33a22.18,22.18,0,0,1,12.39,3.78L245.83,160a22.24,22.24,0,0,1-8.26-17.29,23.73,23.73,0,0,1,.15-2.54l-88.34-14.2a22.36,22.36,0,0,1-15.49,16.83l26.45,107A21.66,21.66,0,0,1,164.71,249.33Z"/><path class="cls-2" d="M378.69,385.37a20.26,20.26,0,1,0,5.94-14.32A20.14,20.14,0,0,0,378.69,385.37Z"/><path class="cls-2" d="M523.08,365.79a20.25,20.25,0,1,0,0-28.65A20.28,20.28,0,0,0,523.08,365.79Z"/><path class="cls-2" d="M340.44,255.92l85.73-77.81a22.18,22.18,0,0,1,.54-29L349,73.51a22.09,22.09,0,0,1-15,5.86l-7.39,170.06A22.16,22.16,0,0,1,340.44,255.92Z"/><path class="cls-2" d="M282.09,142.66a22.28,22.28,0,0,1-11.38,19.41l44.86,89.21a22.23,22.23,0,0,1,9.05-1.95L332,79.27a22.06,22.06,0,0,1-11.83-4.71l-45,52A22.22,22.22,0,0,1,282.09,142.66Z"/><path class="cls-2" d="M414.69,369.63a22.18,22.18,0,0,1,5.61,9.48l95.28-23.33a22.24,22.24,0,0,1,6.09-20,21.9,21.9,0,0,1,8.88-5.41L512,263.05a22.17,22.17,0,0,1-17.48-3.32L413.1,368.2C413.64,368.65,414.18,369.12,414.69,369.63Z"/><path class="cls-2" d="M559.67,351.46a22.24,22.24,0,0,1-1,6.63l36.62,13.25V340.66L559.37,348A22.13,22.13,0,0,1,559.67,351.46Z"/><path class="cls-2" d="M280.09,142.66a20.26,20.26,0,1,0-20.26,20.26A20.28,20.28,0,0,0,280.09,142.66Z"/><path class="cls-2" d="M269.67,635.15a22.19,22.19,0,0,1,9.73-5.68L242.64,471.54a22.73,22.73,0,0,1-4.07.38,22.08,22.08,0,0,1-9.43-2.11L181.7,560.4a22.45,22.45,0,0,1,4.55,3.48,22.24,22.24,0,0,1,3.67,26.6l77.13,47.84A22.5,22.5,0,0,1,269.67,635.15Z"/><path class="cls-2" d="M318.24,41.37a22.17,22.17,0,0,1,15.89-6.5L336,0H211.43L314.17,47A22.48,22.48,0,0,1,318.24,41.37Z"/><path class="cls-2" d="M486.82,241.35a20.26,20.26,0,1,0,20.25-20.25A20.28,20.28,0,0,0,486.82,241.35Z"/><path class="cls-2" d="M529.33,241.35a22.29,22.29,0,0,1-15.39,21.17l18.53,67.27a22.31,22.31,0,0,1,17.59,3.38l45.22-59.5V233.58l-66,6.57C529.32,240.54,529.33,241,529.33,241.35Z"/><path class="cls-2" d="M259.83,120.41a22.15,22.15,0,0,1,13.8,4.81l45-52c-.14-.13-.29-.25-.43-.39a22.16,22.16,0,0,1-5.37-8.7L149.09,115.69a22,22,0,0,1,.75,5.72,23.73,23.73,0,0,1-.15,2.54L238,138.15A22.3,22.3,0,0,1,259.83,120.41Z"/><path class="cls-2" d="M553.15,335.73A22.12,22.12,0,0,1,559,346l36.3-7.42V277l-43.63,57.4C552.16,334.8,552.67,335.25,553.15,335.73Z"/><path class="cls-2" d="M443.3,184.17A20.26,20.26,0,1,0,423,163.92,20.28,20.28,0,0,0,443.3,184.17Z"/><path class="cls-2" d="M465.56,163.92a22.19,22.19,0,0,1-7.36,16.52l35.52,43.12a22.23,22.23,0,0,1,22.7-2.4l44.85-86.41a22.32,22.32,0,0,1-4.61-3.53,22,22,0,0,1-4.73-7l-87.46,32.82A22.26,22.26,0,0,1,465.56,163.92Z"/><path class="cls-2" d="M29,57.11A20.28,20.28,0,0,0,8.7,36.85a20,20,0,0,0-8.7,2V75.38A20.21,20.21,0,0,0,29,57.11Z"/><path class="cls-2" d="M464.56,703.64a20.26,20.26,0,1,0,20.26,20.26A20.28,20.28,0,0,0,464.56,703.64Z"/><path class="cls-2" d="M346.91,271.59a22.24,22.24,0,0,1-9.27,18.06l50,76.58a22.29,22.29,0,0,1,23.84.77l81.44-108.48a22.3,22.3,0,0,1-7.6-12.42L346.84,269.86C346.89,270.43,346.91,271,346.91,271.59Z"/><path class="cls-2" d="M356.23,57.11a22.11,22.11,0,0,1-5.83,15l77.71,75.58a22.15,22.15,0,0,1,15.19-6h.3l6.9-118.55a22.12,22.12,0,0,1-13.45-6.38,22.33,22.33,0,0,1-3.94-5.34L354.52,48.52A22.24,22.24,0,0,1,356.23,57.11Z"/><path class="cls-2" d="M16,832.51a22.12,22.12,0,0,1,4.7.51l18.37-69.68A21.93,21.93,0,0,1,30,757.85a22.23,22.23,0,0,1,15.31-38L47.4,655.3a22.24,22.24,0,0,1-15.24-37.39L0,585.13V839.31A22.18,22.18,0,0,1,16,832.51Z"/><path class="cls-2" d="M463.77,155.17l87.46-32.81a22.19,22.19,0,0,1,4.38-21.46L467.8,17.39a22.17,22.17,0,0,1-15,5.86l-.29,0-6.91,118.55A22.33,22.33,0,0,1,463.77,155.17Z"/><path class="cls-2" d="M558.07,129.81a20.27,20.27,0,1,0-5.93-14.32A20.15,20.15,0,0,0,558.07,129.81Z"/><path class="cls-2" d="M563.05,135.67,518.2,222.09a22.31,22.31,0,0,1,10.9,16.07l66.18-6.59V162.48l-13.67-26.75a22.13,22.13,0,0,1-18.56-.06Z"/><path class="cls-2" d="M547.16,593.57l-72.41,14.78a21.78,21.78,0,0,1-5.56,18.47l74.67,76.52a22.15,22.15,0,0,1,14.8-5.66l.7,0,6.7-87.48A22.31,22.31,0,0,1,547.16,593.57Z"/><circle class="cls-2" cx="568.75" cy="588.14" r="20.26"/><path class="cls-2" d="M544.44,498.86l19.2,67.62A22.16,22.16,0,0,1,584,571.94l11.29-11V493.9l-36.61-9.57A22.35,22.35,0,0,1,544.44,498.86Z"/><path class="cls-2" d="M16,834.51A20.24,20.24,0,0,0,.36,841.89H31.61A20.23,20.23,0,0,0,16,834.51Z"/><path class="cls-2" d="M559.66,477.75a22.3,22.3,0,0,1-.49,4.65l36.11,9.43v-40L558,469.25A22.25,22.25,0,0,1,559.66,477.75Z"/><path class="cls-2" d="M591,588.14a22.26,22.26,0,0,1-9.82,18.44l14.09,23V563.77l-9.9,9.6A22.17,22.17,0,0,1,591,588.14Z"/><path class="cls-2" d="M469.22,16,557,99.45a22.25,22.25,0,0,1,31.15,31.77,22.48,22.48,0,0,1-4.74,3.6l11.89,23.26V0H475c0,.33.05.66.05,1A22.1,22.1,0,0,1,469.22,16Z"/><path class="cls-2" d="M.25,178.55a22.13,22.13,0,0,1,13.34-6.37L7.76,79.34A22.08,22.08,0,0,1,0,77.6V178.82C.09,178.73.16,178.63.25,178.55Z"/><path class="cls-2" d="M28.17,46.34,121.61,0H0V36.63a22.22,22.22,0,0,1,28.17,9.71Z"/><path class="cls-2" d="M68.4,623.24l81.35-35.62a22.28,22.28,0,0,1-1.5-8,21.81,21.81,0,0,1,.12-2.29L0,555.27v27l33.59,34.24a22.24,22.24,0,0,1,34.81,6.73Z"/><path class="cls-2" d="M336.13,35a22.16,22.16,0,0,1,13.58,6.4,22.39,22.39,0,0,1,4,5.34L432.27,9.59A22.17,22.17,0,0,1,430.59,0H338Z"/><path class="cls-2" d="M68.69,633.07a20.26,20.26,0,1,0-20.25,20.26A20.27,20.27,0,0,0,68.69,633.07Z"/><path class="cls-2" d="M142.63,745.59l-74.77-1.91a22.18,22.18,0,0,1-22.17,20.68,22.55,22.55,0,0,1-4.7-.51L22.62,833.52a22.36,22.36,0,0,1,10.67,7.27l113.07-83.26A22.18,22.18,0,0,1,142.63,745.59Z"/><path class="cls-2" d="M160,1.5l-25.85,98.65a22.34,22.34,0,0,1,14.3,13.63L312.33,62.22a22,22,0,0,1,1-13.44L206.62,0H173.9a22.11,22.11,0,0,1-9.19,2A22.64,22.64,0,0,1,160,1.5Z"/><path class="cls-2" d="M445,734.46l-77.28,20a22.75,22.75,0,0,1,.48,4.61,22.07,22.07,0,0,1-5.82,15l73.32,67.83h26.55l1.32-95.76A22.31,22.31,0,0,1,445,734.46Z"/><path class="cls-2" d="M31.72,178.55a19.8,19.8,0,0,1,1.86,2.14l74.77-48.1a22.17,22.17,0,0,1-.8-20.88L27.78,68.56a22.26,22.26,0,0,1-18,10.78l5.83,92.72A22.14,22.14,0,0,1,31.72,178.55Z"/><path class="cls-2" d="M164.74,0h0Z"/><path class="cls-2" d="M127.58,99.15a21.83,21.83,0,0,1,4.67.5L158.1,1a21.32,21.32,0,0,1-2.59-1h-29.4l-97,48.13a22.19,22.19,0,0,1-.33,18.68L108.51,110A22.25,22.25,0,0,1,127.58,99.15Z"/><path class="cls-2" d="M60,756.44a20.26,20.26,0,1,0-28.65,0A20.28,20.28,0,0,0,60,756.44Z"/><path class="cls-2" d="M558.66,699.68a20.26,20.26,0,1,0,20.26,20.26A20.28,20.28,0,0,0,558.66,699.68Z"/><path class="cls-2" d="M301.15,666.62a22.39,22.39,0,0,1-4,3.17l38.82,69.42a22.26,22.26,0,0,1,31.26,13.34l76.89-19.92a22.22,22.22,0,0,1-.5-16.2l-138-56.23A22.32,22.32,0,0,1,301.15,666.62Z"/><path class="cls-2" d="M330.18,774.83a22.08,22.08,0,0,1-6.52-15.74c0-.24,0-.47,0-.71L186.91,747.85a22.06,22.06,0,0,1-5.58,12.22l99.93,81.82h40.82l18.54-61.21A22.15,22.15,0,0,1,330.18,774.83Z"/><path class="cls-2" d="M452.79,634.06a22.22,22.22,0,0,1-21.42-16.22l-124.09,29a22,22,0,0,1,.39,4.08,22.3,22.3,0,0,1-1.31,7.46l138,56.23a22.32,22.32,0,0,1,17.16-12.73L454.18,634C453.72,634,453.25,634.06,452.79,634.06Z"/><path class="cls-2" d="M345.91,781.34a21.77,21.77,0,0,1-3.32-.28l-18.42,60.83H432.73l-71.79-66.41A22.21,22.21,0,0,1,345.91,781.34Z"/><path class="cls-2" d="M345.91,738.83a20.26,20.26,0,1,0,14.33,5.94A20.11,20.11,0,0,0,345.91,738.83Z"/><path class="cls-2" d="M456.17,633.78l7.33,67.89c.35,0,.7,0,1.06,0a22.28,22.28,0,0,1,22.08,19.55L536.43,719a22.16,22.16,0,0,1,6-14.24l-74.65-76.51A22.08,22.08,0,0,1,456.17,633.78Z"/><path class="cls-2" d="M34.27,617.21l-.68-.7c-.5.45-1,.91-1.43,1.4l.68.7Z"/><path class="cls-2" d="M41.24,762.91l-1.93-.51-.25.94c.64.2,1.28.37,1.93.51Z"/><path class="cls-2" d="M20.43,834l1.94.51.25-1c-.63-.2-1.28-.36-1.93-.5Z"/><path class="cls-2" d="M463.56,745.14l0,1,1,0,1,0v-1Z"/><path class="cls-2" d="M537.36,718.94l-.93,0c0,.32,0,.64,0,1s0,.7,0,1l1,0Z"/><path class="cls-2" d="M485.69,721.23l.09,2,1,0c0-.68-.08-1.34-.16-2Z"/><path class="cls-2" d="M579.81,717.66l1-.15c-.08-.67-.18-1.33-.31-2l-1,.15Z"/><path class="cls-2" d="M581.17,134.87l.44.86c.61-.28,1.2-.58,1.78-.91L583,134Z"/><path class="cls-2" d="M469.22,16l-.71-.67-1.38,1.45.67.63c.24-.22.49-.42.73-.65S469,16.23,469.22,16Z"/><path class="cls-2" d="M555.61,100.9l.7.66,1.37-1.44-.7-.67c-.1.1-.22.19-.32.3C556.29,100.12,556,100.51,555.61,100.9Z"/><path class="cls-2" d="M27.3,46.77l.89,1.79.87-.43c-.27-.61-.57-1.21-.89-1.79Z"/><path class="cls-2" d="M557.72,484.08l.95.25c.2-.63.36-1.28.5-1.93l-.95-.25Z"/><path class="cls-2" d="M557.08,469.67l.9-.42c-.26-.61-.54-1.22-.85-1.81l-.9.42Z"/><path class="cls-2" d="M558.43,348.19l.94-.19c-.1-.66-.23-1.32-.39-2l-1,.19Z"/><path class="cls-2" d="M551.05,335.16l.6-.78c-.52-.43-1-.83-1.59-1.21l-.6.78Z"/><path class="cls-2" d="M528.32,240.24l1-.09c0-.68-.11-1.34-.2-2l-1,.09Z"/><path class="cls-2" d="M516,222l1.78.92.45-.86a20.06,20.06,0,0,0-1.78-.93Z"/><path class="cls-2" d="M563.49,134.82l-1.78-.93-.44.86c.58.33,1.17.64,1.78.92Z"/><path class="cls-2" d="M463.54,157.39l.93-.34c-.21-.64-.44-1.27-.7-1.88l-.94.35Z"/><path class="cls-2" d="M552.85,123.89l-.7-1.88-.92.35c.21.63.43,1.26.7,1.87Z"/><path class="cls-2" d="M445.53,142.76l.06-1c-.66-.07-1.32-.1-2-.11l-.06,1Z"/><path class="cls-2" d="M452.55,22.27l-2-.11-.06,1c.66.07,1.33.1,2,.11Z"/><path class="cls-2" d="M353.62,48.94l.9-.42c-.26-.62-.55-1.22-.86-1.81l-.89.42Z"/><path class="cls-2" d="M434,11l-.85-1.81-.87.42c.25.61.53,1.22.84,1.81Z"/><path class="cls-2" d="M315.06,47.37l-.89-.41c-.3.59-.58,1.2-.83,1.82l.89.4Z"/><path class="cls-2" d="M133.94,101.11l.25-1c-.64-.2-1.28-.36-1.94-.5l-.25.95Z"/><path class="cls-2" d="M160.28.56,158.35.05l-.25,1c.64.2,1.28.36,1.94.5Z"/><path class="cls-2" d="M109.36,110.41l-.85-.46a20,20,0,0,0-1,1.76l.86.46Z"/><path class="cls-2" d="M27.88,66.34l-1,1.76.86.46c.34-.57.66-1.15.95-1.75Z"/><path class="cls-2" d="M15.65,173l-.06-1c-.67,0-1.33.05-2,.12l.07,1Z"/><path class="cls-2" d="M9.76,79.34l-.06-1-2,.13.06.91c.31,0,.62,0,.94,0S9.41,79.36,9.76,79.34Z"/><path class="cls-2" d="M49.45,471.2l-1-.26c-.2.63-.37,1.28-.52,1.93l.94.26Z"/><path class="cls-2" d="M51.63,489l-.79.55A18.61,18.61,0,0,0,52,491.2l.79-.55Z"/><path class="cls-2" d="M149.65,575.5l-1-.14c-.13.65-.22,1.31-.29,2l1,.15Z"/><path class="cls-2" d="M151.45,589.05l-.8-1.83-.9.4c.24.62.51,1.23.8,1.83Z"/><path class="cls-2" d="M67.5,623.63l.8,1.83.9-.39c-.24-.62-.51-1.23-.8-1.83Z"/><path class="cls-2" d="M47.22,720.92l0-1c-.66,0-1.33-.06-2-.05l0,1Z"/><path class="cls-2" d="M49.4,655.3l0-.94-2-.06,0,1c.35,0,.69,0,1,0S49.08,655.32,49.4,655.3Z"/><path class="cls-2" d="M67.91,741.68l-1,0-.06,2,1,0A19.08,19.08,0,0,0,67.91,741.68Z"/><path class="cls-2" d="M143.65,743.61l-1,0a19,19,0,0,0-.05,2l1,0Z"/><path class="cls-2" d="M33.29,840.79l-.78.57.38.53h1.23C33.85,841.51,33.58,841.15,33.29,840.79Z"/><path class="cls-2" d="M147.16,756.94l-.8.59c.37.55.76,1.09,1.18,1.61l.8-.59Z"/><path class="cls-2" d="M360.27,774.86l.67.62c.23-.22.48-.42.71-.65s.47-.51.7-.77l-.73-.67Z"/><path class="cls-2" d="M342.83,780.25l-1.91-.58-.3,1c.65.15,1.31.28,2,.38Z"/><path class="cls-2" d="M179.25,761l.66.54c.23-.21.46-.39.68-.61s.49-.54.74-.82l-.81-.66Z"/><path class="cls-2" d="M161.54,766.17l-.09.94a18.92,18.92,0,0,0,2,.22l.09-1Z"/><path class="cls-2" d="M179.49,560.32l1.77.92.44-.84c-.58-.33-1.17-.64-1.77-.92Z"/><path class="cls-2" d="M227.83,468l-.46.86q.87.51,1.77.93l.46-.86Z"/><path class="cls-2" d="M90.48,473.28l.33,2,1-.16q-.12-1-.33-2Z"/><path class="cls-2" d="M217.45,452.16l-1,.16c.08.67.19,1.33.32,2l1-.16Z"/><path class="cls-2" d="M18.54,365l-1.81.84.42.91a19.89,19.89,0,0,0,1.81-.85Z"/><path class="cls-2" d="M61.67,458.06l-.42-.9c-.62.25-1.22.54-1.81.84l.41.9Z"/><path class="cls-2" d="M145.11,279.85l-.89.43c.26.62.55,1.22.86,1.8l.89-.42Z"/><path class="cls-2" d="M27.44,336.12l.86,1.81.89-.43c-.26-.61-.54-1.22-.85-1.81Z"/><path class="cls-2" d="M173.77,290.84l-1.84.77.37.9c.63-.23,1.24-.49,1.85-.77Z"/><path class="cls-2" d="M231.35,429.64l-.37-.9c-.63.23-1.25.49-1.85.77l.37.9Z"/><path class="cls-2" d="M379.59,394.21l-.75-1.86-.89.36c.22.63.47,1.25.74,1.86Z"/><path class="cls-2" d="M257.93,440.82l.74,1.86.91-.36c-.22-.64-.47-1.25-.75-1.86Z"/><path class="cls-2" d="M396.21,406.46l-.08,1c.67.08,1.33.13,2,.16l.08-.95Z"/><path class="cls-2" d="M389.17,492.17l2,.16.07-.95c-.66-.08-1.32-.13-2-.16Z"/><path class="cls-2" d="M366.23,752.8l.5,1.93,1-.25c-.14-.65-.3-1.3-.49-1.93Z"/><path class="cls-2" d="M445.76,734.26l-.5-1.94-1.17.31c.27.62.56,1.24.88,1.83Z"/><path class="cls-2" d="M416.08,398l.79.53c.4-.54.77-1.1,1.11-1.66l-.79-.53Z"/><path class="cls-2" d="M519.17,466.78l1.11-1.66-.8-.54c-.4.54-.77,1.09-1.12,1.66Z"/><path class="cls-2" d="M335.44,289.93l.53.82c.57-.35,1.13-.71,1.67-1.1l-.53-.81Z"/><path class="cls-2" d="M386.49,368.12l1.68-1.09-.52-.8c-.58.34-1.13.7-1.68,1.09Z"/><path class="cls-2" d="M186.94,270.59h-1v2h1c0-.33,0-.66,0-1S187,270.92,186.94,270.59Z"/><path class="cls-2" d="M302.43,272.59h1v-2h-1c0,.33,0,.66,0,1S302.41,272.26,302.43,272.59Z"/><path class="cls-2" d="M248,160.34l-1.61-1.19-.59.8c.52.42,1,.82,1.61,1.19Z"/><path class="cls-2" d="M178.12,255.09l.58-.79c-.51-.42-1-.82-1.6-1.19l-.59.79Z"/><path class="cls-2" d="M268.48,162.09l.44.88c.61-.28,1.21-.58,1.79-.9l-.45-.88Z"/><path class="cls-2" d="M314.21,253.05l1.79-.9-.43-.87c-.62.28-1.21.58-1.79.9Z"/><path class="cls-2" d="M316.31,291.16l-1.8-.87-.43.88q.89.48,1.8.87Z"/><path class="cls-2" d="M246.91,430.11l1.8.87.44-.9q-.89-.48-1.8-.87Z"/><path class="cls-2" d="M28.49,354l-.82,1.83.89.4c.3-.6.58-1.21.82-1.83Z"/><path class="cls-2" d="M219.61,440l-.9-.4c-.3.59-.57,1.2-.82,1.82l.9.4Z"/><path class="cls-2" d="M426.71,149.11l.69.68,1.4-1.44-.69-.67A18.89,18.89,0,0,0,426.71,149.11Z"/><path class="cls-2" d="M348.31,72.86l.67.65c.25-.22.5-.43.73-.66s.46-.5.69-.75l-.7-.68Z"/><path class="cls-2" d="M334.08,35.85l2,.11.05-1c-.66-.06-1.33-.09-2-.1Z"/><path class="cls-2" d="M170.75,601.86l0-1-2-.07,0,1c.58,0,1.17.08,1.76.08Z"/><path class="cls-2" d="M164.61,722.92l0,1,2,.07,0-1C165.94,722.94,165.28,722.91,164.61,722.92Z"/><path class="cls-2" d="M154.1,564.62l.67.67,1.42-1.41-.67-.68c-.25.23-.51.44-.75.68S154.32,564.37,154.1,564.62Z"/><path class="cls-2" d="M86,492.85l-.68-.69-1.42,1.41.68.69C85.09,493.81,85.57,493.34,86,492.85Z"/><path class="cls-2" d="M110.25,133.74l-1.08-1.68-.82.53q.51.87,1.08,1.68Z"/><path class="cls-2" d="M33.88,182.88l.86-.56c-.36-.56-.75-1.1-1.16-1.63l-.79.5Z"/><path class="cls-2" d="M148.16,116l.93-.29c-.17-.65-.37-1.29-.6-1.91l-.93.29Z"/><path class="cls-2" d="M313.83,63.85l-.6-1.91-.9.28c.15.65.33,1.3.54,1.93Z"/><path class="cls-2" d="M463.28,593.32l1.69,1.06.52-.82c-.55-.38-1.12-.73-1.69-1.06Z"/><path class="cls-2" d="M526.91,496.26l-1.69-1.07-.52.81a20,20,0,0,0,1.69,1.07Z"/><path class="cls-2" d="M486.3,245.93l-.34-2-1,.17c.09.66.2,1.32.34,2Z"/><path class="cls-2" d="M345.92,270l.92-.16q-.07-1-.24-2l-1,.17Z"/><path class="cls-2" d="M513.68,261.56l-1.93.53.26,1c.66-.15,1.3-.33,1.93-.53Z"/><path class="cls-2" d="M530.8,331.25l1.93-.53-.26-.93c-.64.15-1.29.32-1.92.53Z"/><path class="cls-2" d="M557.05,359.64l.94.34c.25-.62.47-1.25.67-1.89l-.93-.33Z"/><path class="cls-2" d="M8.72,324.93l2,.1,0-1c-.66-.06-1.33-.09-2-.09Z"/><path class="cls-2" d="M16,215.54l-2-.1-.05,1c.67.06,1.33.1,2,.1Z"/><path class="cls-2" d="M146.31,260.9l-.86-.45a20.06,20.06,0,0,0-.93,1.78l.86.44Z"/><path class="cls-2" d="M35.31,203.2,34.39,205l.85.44c.34-.58.64-1.17.92-1.77Z"/><path class="cls-2" d="M160.58,250.72l-.24-.95c-.66.13-1.3.29-1.94.48l.23.95Z"/><path class="cls-2" d="M133.65,141.79l-1.94.48.24,1c.65-.13,1.3-.29,1.94-.48Z"/><path class="cls-2" d="M239,138.31l-1-.16c-.13.64-.23,1.3-.31,2l1,.16Z"/><path class="cls-2" d="M148.72,123.79l-.31,2,1,.15c.13-.65.23-1.31.31-2Z"/><path class="cls-2" d="M274.5,127.27l.64-.74c-.49-.46-1-.9-1.51-1.31L273,126Z"/><path class="cls-2" d="M320.82,73.82l-1.51-1.31-.64.73c.49.46,1,.91,1.51,1.32Z"/><path class="cls-2" d="M326.58,250.41l0-1c-.65-.06-1.3-.1-2-.1h0l0,1Z"/><path class="cls-2" d="M334,79.37l0-1-2-.08-.05,1c.65.06,1.31.1,2,.1Z"/><path class="cls-2" d="M341.07,258.05l.72-.65c-.43-.52-.88-1-1.35-1.48l-.72.65Z"/><path class="cls-2" d="M428.25,178.93l-1.34-1.48-.74.66c.43.52.88,1,1.35,1.48Z"/><path class="cls-2" d="M492.79,225.58l1.54-1.27-.61-.75c-.54.4-1.05.83-1.55,1.27Z"/><path class="cls-2" d="M457.59,179.69,456,181l.62.75c.53-.4,1-.83,1.54-1.27Z"/><path class="cls-2" d="M495.12,258.93l-1.59-1.2-.6.79c.51.43,1.05.83,1.6,1.21Z"/><path class="cls-2" d="M412.5,369l.6-.79c-.52-.43-1.06-.83-1.61-1.2l-.59.79Z"/><path class="cls-2" d="M419.82,381.29l.95-.23a19.06,19.06,0,0,0-.47-1.95l-1,.24Z"/><path class="cls-2" d="M517,357.49l-.48-1.95-1,.24c.13.65.29,1.3.48,1.94Z"/><path class="cls-2" d="M536.41,372.72v.94c.33,0,.66,0,1,0s.66,0,1,0v-.94Z"/><path class="cls-2" d="M536.41,455.52v1h2v-1c-.33,0-.67,0-1,0S536.74,455.5,536.41,455.52Z"/><path class="cls-2" d="M517,483.67l-.47-1.95-1,.23c.13.66.29,1.31.47,1.95Z"/><path class="cls-2" d="M409.31,509.46l1-.24c-.12-.65-.28-1.3-.46-1.94l-1,.23Z"/><path class="cls-2" d="M440.32,594.58l1.67-1.1-.52-.8c-.57.34-1.13.71-1.68,1.1Z"/><path class="cls-2" d="M399.23,531.77l.52.79c.57-.34,1.13-.7,1.67-1.09l-.52-.8Z"/><path class="cls-2" d="M258.53,457.06l-.79,1.84.9.39c.29-.6.55-1.22.78-1.84Z"/><path class="cls-2" d="M369.27,504.19l-.9-.38c-.28.6-.55,1.21-.78,1.84l.9.38Z"/><path class="cls-2" d="M454.08,633.05l.1,1c.66,0,1.33-.12,2-.22l-.1-.94Z"/><path class="cls-2" d="M461.62,702.84l2-.21-.11-1c-.67,0-1.33.09-2,.18Z"/><path class="cls-2" d="M467.1,627.54l.68.69c.25-.23.51-.43.75-.68s.44-.49.66-.73l-.65-.67Z"/><path class="cls-2" d="M542.43,704.74l.68.69,1.43-1.4-.68-.69C543.36,703.78,542.89,704.25,542.43,704.74Z"/><path class="cls-2" d="M334.67,741l1.75-1-.48-.85a18.79,18.79,0,0,0-1.74,1Z"/><path class="cls-2" d="M294.91,669.92l.47.85c.59-.3,1.17-.63,1.74-1l-.46-.84Z"/><path class="cls-2" d="M189.09,590l-1.05,1.7.83.51a19.93,19.93,0,0,0,1-1.7Z"/><path class="cls-2" d="M266.83,640.54l1.06-1.7-.84-.52c-.38.55-.73,1.12-1.06,1.7Z"/><path class="cls-2" d="M269.29,664.76l-1.23-1.58-.77.6c.39.54.8,1.07,1.23,1.58Z"/><path class="cls-2" d="M181,731.28l1.23,1.57.76-.59c-.38-.54-.79-1.07-1.23-1.58Z"/><path class="cls-2" d="M297.34,633.29l1.6,1.2.6-.79c-.52-.43-1.06-.82-1.6-1.2Z"/><path class="cls-2" d="M374.88,529.83l-.58.79c.52.42,1.05.82,1.6,1.19l.58-.78Z"/><path class="cls-2" d="M304.72,659.84l.89.36c.28-.61.53-1.23.75-1.85l-.88-.37Z"/><path class="cls-2" d="M444.5,716.8l.76-1.85-.91-.37c-.28.6-.53,1.22-.76,1.85Z"/><path class="cls-2" d="M431.86,615.67l-.94.23c.12.65.27,1.3.45,1.94l.95-.22Z"/><path class="cls-2" d="M305.86,645.08l.46,1.95,1-.22q-.18-1-.45-1.95Z"/><path class="cls-2" d="M584.69,574.05l.69-.68c-.44-.49-.9-1-1.39-1.43l-.7.68Z"/><path class="cls-2" d="M473.41,606.58l.41,2,.93-.19c-.1-.66-.23-1.31-.39-2Z"/><path class="cls-2" d="M548.12,593.37l-.4-2-1,.2c.11.66.24,1.31.4,2Z"/><path class="cls-2" d="M559.29,698.68l2,.15.08-1c-.66-.08-1.32-.13-2-.15Z"/><path class="cls-2" d="M566.13,609.25l-.07,1c.65.08,1.32.13,2,.15l.07-1Z"/><path class="cls-2" d="M580.68,605.73l-1.71,1,.52.84c.58-.32,1.15-.67,1.7-1Z"/><path class="cls-2" d="M542.25,498.46l.27.94q1-.22,1.92-.54l-.27-.95Z"/><path class="cls-2" d="M562,568l1.93-.54-.27-.95c-.65.15-1.3.34-1.92.55Z"/><path class="cls-2" d="M325,758.49l.15-2-1.32-.1c-.08.66-.13,1.32-.15,2Z"/><path class="cls-2" d="M186.11,745.79l-.16,2,1,.07a18.83,18.83,0,0,0,.15-2Z"/><path class="cls-2" d="M244.36,470.12l-2,.45.23,1c.66-.13,1.31-.28,2-.46Z"/><path class="cls-2" d="M279.62,630.42l1.95-.45-.22-1c-.66.12-1.31.28-2,.45Z"/></g></g></g></svg>