<svg xmlns="http://www.w3.org/2000/svg" viewBox="0 0 463.06 205.96"><defs><style>.cls-1{fill:#658db5;}.cls-2{fill:#36454f;}.cls-3{fill:#80a7ce;}.cls-4{fill:#fff;}.cls-5{fill:#818b9c;}.cls-6{fill:#343b47;}</style></defs><title>Asset 2cavlent</title><g id="Layer_2" data-name="Layer 2"><g id="Layer_1-2" data-name="Layer 1"><rect class="cls-1" x="205.69" y="137.34" width="63.64" height="13.54" transform="translate(-39.86 128.37) rotate(-28)"/><path class="cls-2" d="M211.77,167.73l-8.24-15.48,59.73-31.76L271.5,136Zm-2.83-13.83,4.48,8.42,52.66-28-4.47-8.42Z"/><rect class="cls-3" x="264.66" y="114.53" width="16.25" height="21.67" transform="translate(-26.92 142.74) rotate(-28)"/><path class="cls-2" d="M269.87,141.44l-12.05-22.66,17.88-9.5,12.05,22.66Zm-6.64-21L271.52,136l10.82-5.75-8.29-15.6Z"/><rect class="cls-3" x="172.45" y="164.21" width="39.27" height="8.12" transform="translate(-56.51 109.87) rotate(-28)"/><path class="cls-2" d="M175.83,183.78l-5.7-10.71,38.21-20.31L214,163.47Zm-.29-9.05,1.94,3.64,31.14-16.56-1.94-3.64Z"/><rect class="cls-2" x="224.17" y="135.26" width="4" height="6.77" transform="translate(-38.61 122.41) rotate(-28)"/><rect class="cls-2" x="212.22" y="141.61" width="4" height="6.77" transform="translate(-43 117.55) rotate(-28)"/><rect class="cls-3" x="206.74" y="129.28" width="32.5" height="6.77" transform="translate(-36.18 120.22) rotate(-28)"/><path class="cls-2" d="M209.41,146l-5.06-9.51,32.23-17.14,5,9.51Zm.35-7.86,1.3,2.45,25.16-13.38-1.3-2.45Z"/><polygon class="cls-2" points="176.79 174.06 174.75 170.22 170.96 169.85 171.36 165.87 177.28 166.46 180.33 172.18 176.79 174.06"/><rect class="cls-2" x="215.62" y="158.03" width="4" height="4.06" transform="translate(-49.67 120.87) rotate(-27.99)"/><rect class="cls-2" x="225.19" y="152.94" width="4" height="4.06" transform="translate(-46.16 124.81) rotate(-28)"/><rect class="cls-2" x="234.75" y="147.86" width="4" height="4.06" transform="translate(-42.66 128.69) rotate(-28)"/><rect class="cls-2" x="244.32" y="142.77" width="4" height="4.06" transform="translate(-39.15 132.6) rotate(-28)"/><rect class="cls-2" x="253.88" y="137.68" width="4" height="4.06" transform="translate(-35.64 136.49) rotate(-28)"/><rect class="cls-2" x="263.45" y="132.6" width="4" height="4.06" transform="translate(-32.13 140.38) rotate(-28)"/><polygon class="cls-2" points="222.12 169.9 218 162.16 221.54 160.28 223.78 164.49 244.27 153.59 251.73 142.24 255.07 144.43 247.06 156.64 222.12 169.9"/><rect class="cls-2" x="201.78" y="179.94" width="47.68" height="4" transform="translate(-33.9 311) rotate(-65.32)"/><rect class="cls-2" x="244.35" y="158.1" width="4" height="47.68" transform="translate(-53.46 119.43) rotate(-24.67)"/><rect class="cls-2" x="233.99" y="160.27" width="4" height="44.69"/><rect class="cls-2" x="263.43" y="122.56" width="4.06" height="4" transform="translate(-27.41 139.12) rotate(-27.98)"/><rect class="cls-2" x="267.28" y="129.81" width="4.06" height="4" transform="translate(-30.36 141.78) rotate(-27.98)"/><rect class="cls-2" x="277.8" y="110.78" width="6.71" height="20.25" transform="translate(-23.85 146.14) rotate(-28)"/><circle class="cls-4" cx="235.98" cy="160.27" r="5.42"/><path class="cls-2" d="M236,167.69a7.42,7.42,0,1,1,7.41-7.42A7.43,7.43,0,0,1,236,167.69Zm0-10.83a3.42,3.42,0,1,0,3.41,3.41A3.42,3.42,0,0,0,236,156.86Z"/><rect class="cls-2" x="228.39" y="125.34" width="4" height="6.77" transform="translate(-33.47 123.23) rotate(-28)"/><rect class="cls-2" x="179.67" y="169.75" width="4" height="8.12" transform="translate(-60.33 105.63) rotate(-28)"/><path class="cls-5" d="M287.14,48a24,24,0,1,1,17-41h0a24,24,0,0,1-17,41Zm0-44a20,20,0,1,0,14.14,5.85h0A19.93,19.93,0,0,0,287.14,4Z"/><circle class="cls-5" cx="285.72" cy="33.89" r="4"/><path class="cls-5" d="M270.17,38.13,273,41l6.74-6.75a6,6,0,0,1,6.31-6.3L304.11,9.85,301.28,7Z"/><path class="cls-5" d="M295,29l-3.43,3.43a6,6,0,0,1-7.28,7.28l-4.14,4.14a2,2,0,1,0,2.83,2.83l14.85-14.85A2,2,0,0,0,295,29Z"/><path class="cls-5" d="M292.51,1.65,285,9.16a5,5,0,0,1-5.62,5.62l-.73.72a2,2,0,0,0,2.83,2.83L295.34,4.48a2,2,0,0,0-2.83-2.83Z"/><path class="cls-5" d="M282.19,7.73a3,3,0,1,1-4.25,0A3,3,0,0,1,282.19,7.73Z"/><path class="cls-5" d="M277.74,27.32l-7,7a2,2,0,0,1-2.83-2.83l7-7a2,2,0,1,1,2.83,2.83Z"/><path class="cls-5" d="M253.5,91.63h-21a2,2,0,0,1,0-4h21a2,2,0,0,1,0,4Z"/><path class="cls-5" d="M223.5,91.63h-7a2,2,0,0,1,0-4h7a2,2,0,0,1,0,4Z"/><path class="cls-5" d="M412.5,65.63h-9a2,2,0,0,1,0-4h9a2,2,0,1,1,0,4Z"/><path class="cls-5" d="M425.5,65.63h-5a2,2,0,0,1,0-4h5a2,2,0,1,1,0,4Z"/><path class="cls-5" d="M430.5,81.63h-21a2,2,0,0,1,0-4h21a2,2,0,0,1,0,4Z"/><path class="cls-5" d="M443.5,81.63h-4a2,2,0,0,1,0-4h4a2,2,0,0,1,0,4Z"/><path class="cls-5" d="M337.18,90a8,8,0,1,1,5.65-13.66h0A8,8,0,0,1,337.18,90Zm0-12a4,4,0,0,0-2.83,6.83,4.1,4.1,0,0,0,5.66,0,4,4,0,0,0,0-5.66h0A4,4,0,0,0,337.18,78Z"/><path class="cls-5" d="M332.93,88.21a2,2,0,0,1-1.41-.58L320.21,76.31A2,2,0,0,1,323,73.48L334.35,84.8a2,2,0,0,1-1.42,3.41Z"/><path class="cls-5" d="M341.42,79.73a2,2,0,0,1-1.41-.59L328.69,67.83A2,2,0,0,1,331.52,65l11.31,11.31a2,2,0,0,1-1.41,3.42Z"/><path class="cls-5" d="M332.93,79.73a2,2,0,0,1-1.41-.59L320.21,67.83A2,2,0,0,1,323,65l11.32,11.31a2,2,0,0,1-1.42,3.42Z"/><path class="cls-5" d="M271.5,84.46a1,1,0,0,1-1-1v-3a1,1,0,1,1,2,0v3A1,1,0,0,1,271.5,84.46Z"/><path class="cls-5" d="M269.5,86.46h-3a1,1,0,0,1,0-2h3a1,1,0,0,1,0,2Z"/><path class="cls-5" d="M271.5,91.46a1,1,0,0,1-1-1v-3a1,1,0,1,1,2,0v3A1,1,0,0,1,271.5,91.46Z"/><path class="cls-5" d="M276.5,86.46h-3a1,1,0,0,1,0-2h3a1,1,0,0,1,0,2Z"/><path class="cls-5" d="M173.42,156a2,2,0,0,1-1.92-1.43A12,12,0,0,0,160.87,146a2,2,0,0,1-1.77-1.4,19.49,19.49,0,0,0-32.48-7.84,2,2,0,0,1-1.93.53,2,2,0,0,1-1.42-1.42,21.5,21.5,0,0,0-41.69.65,2,2,0,0,1-2.2,1.53A10.4,10.4,0,0,0,78,138a11,11,0,0,0-7.44,2.92,2,2,0,0,1-1.89.45,9.83,9.83,0,0,0-8.59,1.59,2,2,0,0,1-1.73.31A1.94,1.94,0,0,1,57,142.06a13,13,0,1,0-23.53,11A2,2,0,0,1,31.75,156H2a2,2,0,0,1,0-4H28.76a17,17,0,0,1,31-13.5,13.77,13.77,0,0,1,9-1.23A14.91,14.91,0,0,1,78.13,134a25.5,25.5,0,0,1,48-2.09,23.5,23.5,0,0,1,36.36,10.3,16.08,16.08,0,0,1,12.85,11.22,2,2,0,0,1-1.35,2.49A2.24,2.24,0,0,1,173.42,156Z"/><path class="cls-5" d="M21.41,138.55a1,1,0,0,1-.7-.3,1,1,0,0,1,0-1.41l1.41-1.42a1,1,0,0,1,1.42,1.42l-1.42,1.41A1,1,0,0,1,21.41,138.55Z"/><path class="cls-5" d="M18.59,138.55a1,1,0,0,1-.71-.3l-1.42-1.41a1,1,0,0,1,1.42-1.42l1.41,1.42a1,1,0,0,1,0,1.41A1,1,0,0,1,18.59,138.55Z"/><path class="cls-5" d="M17.17,142.79a1,1,0,0,1-.71-.29,1,1,0,0,1,0-1.42l1.42-1.41a1,1,0,1,1,1.41,1.41l-1.41,1.42A1,1,0,0,1,17.17,142.79Z"/><path class="cls-5" d="M22.83,142.79a1,1,0,0,1-.71-.29l-1.41-1.42a1,1,0,1,1,1.41-1.41l1.42,1.41a1,1,0,0,1,0,1.42A1,1,0,0,1,22.83,142.79Z"/><path class="cls-5" d="M321.17,110h-1a1,1,0,0,1,0-2h1a1,1,0,0,1,0,2Z"/><path class="cls-5" d="M318.17,108a1,1,0,0,1-1-1v-1a1,1,0,1,1,2,0v1A1,1,0,0,1,318.17,108Z"/><path class="cls-5" d="M316.17,110h-1a1,1,0,0,1,0-2h1a1,1,0,0,1,0,2Z"/><path class="cls-5" d="M318.17,113a1,1,0,0,1-1-1v-1a1,1,0,1,1,2,0v1A1,1,0,0,1,318.17,113Z"/><rect class="cls-5" x="401.5" y="108.96" width="2" height="2"/><rect class="cls-5" x="399.5" y="110.96" width="2" height="2"/><rect class="cls-5" x="401.5" y="112.96" width="2" height="2"/><rect class="cls-5" x="403.5" y="110.96" width="2" height="2"/><rect class="cls-5" x="124.5" y="73.96" width="2" height="2"/><rect class="cls-5" x="122.5" y="75.96" width="2" height="2"/><rect class="cls-5" x="124.5" y="77.96" width="2" height="2"/><rect class="cls-5" x="126.5" y="75.96" width="2" height="2"/><path class="cls-5" d="M184.5,104.63a12,12,0,1,1,12-12A12,12,0,0,1,184.5,104.63Zm0-20a8,8,0,1,0,8,8A8,8,0,0,0,184.5,84.63Z"/><circle class="cls-5" cx="181.5" cy="88.63" r="2"/><circle class="cls-5" cx="191.5" cy="95.63" r="2"/><path class="cls-5" d="M183.56,96.1A3.53,3.53,0,1,1,180,92.56,3.53,3.53,0,0,1,183.56,96.1Z"/><path class="cls-5" d="M148,102.46H129a2,2,0,0,1,0-4h19a2,2,0,0,1,0,4Z"/><path class="cls-5" d="M121,102.46h-4a2,2,0,0,1,0-4h4a2,2,0,0,1,0,4Z"/><path class="cls-5" d="M134.74,169a2.3,2.3,0,0,1-.45-.05,2,2,0,0,1-1.5-2.4A6.57,6.57,0,0,0,133,165,7,7,0,0,0,119.25,163a2,2,0,0,1-1.31,1.36,2,2,0,0,1-1.86-.34A4.94,4.94,0,0,0,113,163a5,5,0,0,0-4.94,4.28,2,2,0,0,1-2,1.72H91a2,2,0,1,1,0-4H104.5a9,9,0,0,1,8.48-6,8.9,8.9,0,0,1,3.38.67,11,11,0,0,1,20.33,7.78A2,2,0,0,1,134.74,169Z"/><path class="cls-5" d="M410.66,170.2a2.3,2.3,0,0,1-.45,0,2,2,0,0,1-1.5-2.4,13.45,13.45,0,0,0-10.26-16.24l-3-.31a13.5,13.5,0,0,0-11.81,7.14,2,2,0,0,1-3.26.39A10.47,10.47,0,0,0,363.2,161a2,2,0,0,1-3.23.47,4,4,0,0,0-4.21-1,2,2,0,0,1-2-.4,7,7,0,0,0-4.5-1.82l-3.08.62a7.05,7.05,0,0,0-3.69,4,2,2,0,0,1-1.21,1.21,2,2,0,0,1-1.69-.16,5,5,0,0,0-7.52,4.31,2,2,0,0,1-2,2h-25a2,2,0,0,1,0-4h23.22a9,9,0,0,1,8.78-7,9.21,9.21,0,0,1,2.56.37,11,11,0,0,1,5.17-4.51,2.4,2.4,0,0,1,.38-.12l3.49-.7a1.81,1.81,0,0,1,.4,0,11,11,0,0,1,6.51,2.14,8,8,0,0,1,5.28.81,14.48,14.48,0,0,1,20.64-2.86,17.46,17.46,0,0,1,14.07-7.09h.2l3.2.33.2,0a17.42,17.42,0,0,1,13.43,21.08A2,2,0,0,1,410.66,170.2Z"/><circle class="cls-5" cx="251.5" cy="56.29" r="2"/><path class="cls-5" d="M353.17,59.29a1,1,0,0,1,0-2c6.88,0,7-6.71,7-7a1,1,0,0,1,1-1h0a1,1,0,0,1,1,1C362.17,53.41,360.29,59.29,353.17,59.29Z"/><path class="cls-5" d="M369.17,59.29c-7.12,0-9-5.88-9-9a1,1,0,0,1,1-1,1,1,0,0,1,1,1h0c0,.29.11,7,7,7a1,1,0,0,1,0,2Zm-7-9h0Z"/><path class="cls-5" d="M361.17,67.29h0a1,1,0,0,1-1-1c0-3.11,1.88-9,9-9a1,1,0,0,1,0,2c-6.89,0-7,6.72-7,7A1,1,0,0,1,361.17,67.29Z"/><path class="cls-5" d="M361.17,67.29a1,1,0,0,1-1-1h0c0-.29-.12-7-7-7a1,1,0,0,1,0-2c7.12,0,9,5.89,9,9A1,1,0,0,1,361.17,67.29Z"/><path class="cls-5" d="M235.5,11a1,1,0,0,1,0-2c6.88,0,7-6.72,7-7a1,1,0,0,1,1-1h0a1,1,0,0,1,1,1C244.5,5.07,242.62,11,235.5,11Z"/><path class="cls-5" d="M251.5,11c-7.12,0-9-5.89-9-9a1,1,0,0,1,2,0h0c0,.28.12,7,7,7a1,1,0,0,1,0,2Zm-7-9h0Z"/><path class="cls-5" d="M243.5,19h0a1,1,0,0,1-1-1c0-3.11,1.88-9,9-9a1,1,0,0,1,0,2c-6.88,0-7,6.72-7,7A1,1,0,0,1,243.5,19Z"/><path class="cls-5" d="M243.5,19a1,1,0,0,1-1-1h0c0-.28-.12-7-7-7a1,1,0,0,1,0-2c7.12,0,9,5.89,9,9A1,1,0,0,1,243.5,19Z"/><path class="cls-5" d="M68.83,111a1,1,0,0,1,0-2c6.89,0,7-6.72,7-7a1,1,0,0,1,1-1h0a1,1,0,0,1,1,1C77.83,105.07,76,111,68.83,111Z"/><path class="cls-5" d="M84.83,111c-7.12,0-9-5.89-9-9a1,1,0,0,1,2,0h0c0,.28.12,7,7,7a1,1,0,0,1,0,2Zm-7-9h0Z"/><path class="cls-5" d="M76.83,119h0a1,1,0,0,1-1-1c0-3.11,1.88-9,9-9a1,1,0,0,1,0,2c-6.88,0-7,6.72-7,7A1,1,0,0,1,76.83,119Z"/><path class="cls-5" d="M76.83,119a1,1,0,0,1-1-1h0c0-.28-.11-7-7-7a1,1,0,0,1,0-2c7.12,0,9,5.89,9,9A1,1,0,0,1,76.83,119Z"/><path class="cls-5" d="M388.5,81.63a1,1,0,0,1-1-1v-5a1,1,0,0,1,2,0v5A1,1,0,0,1,388.5,81.63Z"/><path class="cls-5" d="M388.5,90.63a1,1,0,0,1-1-1v-5a1,1,0,0,1,2,0v5A1,1,0,0,1,388.5,90.63Z"/><path class="cls-5" d="M386.5,83.63h-3a1,1,0,0,1,0-2h3a1,1,0,0,1,0,2Z"/><path class="cls-5" d="M393.5,83.63h-3a1,1,0,0,1,0-2h3a1,1,0,0,1,0,2Z"/><path class="cls-5" d="M191.5,51.29a13,13,0,1,1,13-13A13,13,0,0,1,191.5,51.29Zm0-22a9,9,0,1,0,9,9A9,9,0,0,0,191.5,29.29Z"/><path class="cls-5" d="M191.5,62.29a24,24,0,1,1,24-24A24,24,0,0,1,191.5,62.29Zm0-44a20,20,0,1,0,20,20A20,20,0,0,0,191.5,18.29Z"/><circle class="cls-5" cx="213.5" cy="38.29" r="6"/><path class="cls-5" d="M192,34.33c-2.57,0-4.5-1.29-4.5-3s1.93-3,4.5-3,4.5,1.3,4.5,3S194.57,34.33,192,34.33Zm0-4c-1.53,0-2.5.67-2.5,1s1,1,2.5,1,2.5-.67,2.5-1S193.53,30.29,192,30.29Z"/><path class="cls-5" d="M184,41.74a1.5,1.5,0,0,1-.37,0c-1.42-.3-2.09-2.17-1.6-4.43a5.82,5.82,0,0,1,1.07-2.4,2.28,2.28,0,0,1,2.21-1h0c1.42.31,2.09,2.17,1.6,4.44a6,6,0,0,1-1.07,2.4A2.43,2.43,0,0,1,184,41.74Zm.88-5.84a3.21,3.21,0,0,0-.9,1.79,3.25,3.25,0,0,0,.08,2,3.25,3.25,0,0,0,.9-1.79A3.24,3.24,0,0,0,184.91,35.9Z"/><path class="cls-5" d="M143.5,45h-23a2,2,0,0,1,0-4h23a2,2,0,0,1,0,4Z"/><path class="cls-5" d="M112.5,45h-5a2,2,0,0,1,0-4h5a2,2,0,0,1,0,4Z"/><rect class="cls-6" x="169.5" y="198.96" width="2" height="5"/><rect class="cls-6" x="173.5" y="195.96" width="2" height="8"/><rect class="cls-6" x="177.5" y="197.96" width="2" height="6"/><rect class="cls-6" x="181.5" y="199.96" width="2" height="4"/><rect class="cls-6" x="185.5" y="196.96" width="2" height="7"/><rect class="cls-6" x="189.5" y="191.96" width="2" height="12"/><rect class="cls-6" x="193.5" y="189.96" width="2" height="14"/><rect class="cls-6" x="197.5" y="196.96" width="2" height="7"/><rect class="cls-6" x="229.5" y="197.96" width="2" height="6"/><rect class="cls-6" x="225.5" y="193.96" width="2" height="10"/><rect class="cls-6" x="221.5" y="199.96" width="2" height="4"/><rect class="cls-6" x="217.5" y="195.96" width="2" height="8"/><rect class="cls-6" x="213.5" y="191.96" width="2" height="12"/><rect class="cls-6" x="209.5" y="194.96" width="2" height="9"/><rect class="cls-6" x="205.5" y="192.96" width="2" height="11"/><rect class="cls-6" x="201.5" y="193.96" width="2" height="10"/><rect class="cls-6" x="293.5" y="197.96" width="2" height="6"/><rect class="cls-6" x="289.5" y="194.96" width="2" height="9"/><rect class="cls-6" x="285.5" y="200.96" width="2" height="3"/><rect class="cls-6" x="281.5" y="198.96" width="2" height="5"/><rect class="cls-6" x="277.5" y="193.96" width="2" height="10"/><rect class="cls-6" x="273.5" y="194.96" width="2" height="9"/><rect class="cls-6" x="269.5" y="192.96" width="2" height="11"/><rect class="cls-6" x="265.5" y="196.96" width="2" height="7"/><rect class="cls-6" x="233.5" y="197.96" width="2" height="6"/><rect class="cls-6" x="237.5" y="193.96" width="2" height="10"/><rect class="cls-6" x="241.5" y="197.96" width="2" height="6"/><rect class="cls-6" x="245.5" y="192.96" width="2" height="11"/><rect class="cls-6" x="249.5" y="194.96" width="2" height="9"/><rect class="cls-6" x="253.5" y="190.96" width="2" height="13"/><rect class="cls-6" x="257.5" y="195.96" width="2" height="8"/><rect class="cls-6" x="261.5" y="193.96" width="2" height="10"/><rect class="cls-6" x="295.5" y="198.96" width="2" height="5"/><rect class="cls-6" x="291.5" y="195.96" width="2" height="8"/><rect class="cls-6" x="287.5" y="197.96" width="2" height="6"/><rect class="cls-6" x="283.5" y="199.96" width="2" height="4"/><rect class="cls-6" x="279.5" y="196.96" width="2" height="7"/><rect class="cls-6" x="275.5" y="191.96" width="2" height="12"/><rect class="cls-6" x="271.5" y="189.96" width="2" height="14"/><rect class="cls-6" x="267.5" y="196.96" width="2" height="7"/><rect class="cls-6" x="235.5" y="197.96" width="2" height="6"/><rect class="cls-6" x="239.5" y="193.96" width="2" height="10"/><rect class="cls-6" x="243.5" y="199.96" width="2" height="4"/><rect class="cls-6" x="247.5" y="195.96" width="2" height="8"/><rect class="cls-6" x="251.5" y="191.96" width="2" height="12"/><rect class="cls-6" x="255.5" y="194.96" width="2" height="9"/><rect class="cls-6" x="259.5" y="192.96" width="2" height="11"/><rect class="cls-6" x="263.5" y="193.96" width="2" height="10"/><rect class="cls-6" x="171.5" y="197.96" width="2" height="6"/><rect class="cls-6" x="175.5" y="194.96" width="2" height="9"/><rect class="cls-6" x="179.5" y="200.96" width="2" height="3"/><rect class="cls-6" x="183.5" y="198.96" width="2" height="5"/><rect class="cls-6" x="187.5" y="193.96" width="2" height="10"/><rect class="cls-6" x="191.5" y="194.96" width="2" height="9"/><rect class="cls-6" x="195.5" y="192.96" width="2" height="11"/><rect class="cls-6" x="199.5" y="196.96" width="2" height="7"/><rect class="cls-6" x="231.5" y="197.96" width="2" height="6"/><rect class="cls-6" x="227.5" y="193.96" width="2" height="10"/><rect class="cls-6" x="223.5" y="197.96" width="2" height="6"/><rect class="cls-6" x="219.5" y="192.96" width="2" height="11"/><rect class="cls-6" x="215.5" y="194.96" width="2" height="9"/><rect class="cls-6" x="211.5" y="190.96" width="2" height="13"/><rect class="cls-6" x="207.5" y="195.96" width="2" height="8"/><rect class="cls-6" x="203.5" y="193.96" width="2" height="10"/><path class="cls-6" d="M321.5,206h-177a2,2,0,0,1,0-4h177a2,2,0,0,1,0,4Z"/><path class="cls-6" d="M135.5,206h-6a2,2,0,0,1,0-4h6a2,2,0,0,1,0,4Z"/><path class="cls-6" d="M121.5,206h-6a2,2,0,0,1,0-4h6a2,2,0,1,1,0,4Z"/><path class="cls-6" d="M349.5,206h-6a2,2,0,0,1,0-4h6a2,2,0,0,1,0,4Z"/><path class="cls-6" d="M335.5,206h-6a2,2,0,0,1,0-4h6a2,2,0,0,1,0,4Z"/><path class="cls-5" d="M368.06,128.77h39a2,2,0,0,0,2-2,8.52,8.52,0,0,1,8.5-8.5c.19,0,.38,0,.56,0a2.08,2.08,0,0,0,2.17-1.56,9.49,9.49,0,0,1,18.77,2,2,2,0,0,0,2,2h20a2,2,0,1,0,0-4H442.92a13.5,13.5,0,0,0-26.09-2.48,12.53,12.53,0,0,0-11.61,10.48H368.06a2,2,0,1,0,0,4Z"/><path class="cls-5" d="M349.06,128.77h11a2,2,0,0,0,0-4h-11a2,2,0,1,0,0,4Z"/></g></g></svg>