<svg xmlns="http://www.w3.org/2000/svg" viewBox="0 0 498 271.5"><defs><style>.cls-1{fill:#343b47;}.cls-2{fill:#fff;}.cls-3{fill:#3a7596;}</style></defs><title>Asset 3cavlent</title><g id="Layer_2" data-name="Layer 2"><g id="Layer_1-2" data-name="Layer 1"><path class="cls-1" d="M274,200.5H244a2,2,0,0,1-2-2.12l5-83a2,2,0,0,1,2-1.88h20a2,2,0,0,1,2,1.88l5,83a2,2,0,0,1-2,2.12Zm-27.88-4h25.76l-4.76-79H250.88Z"/><rect class="cls-1" x="246" y="103.5" width="26" height="12"/><path class="cls-1" d="M272,117.5H246a2,2,0,0,1-2-2v-12a2,2,0,0,1,2-2h26a2,2,0,0,1,2,2v12A2,2,0,0,1,272,117.5Zm-24-4h22v-8H248Z"/><rect class="cls-1" x="248" y="122.5" width="22" height="8"/><rect class="cls-1" x="248" y="138.5" width="22" height="8"/><rect class="cls-1" x="247" y="154.5" width="24" height="8"/><rect class="cls-1" x="246" y="170.5" width="26" height="8"/><rect class="cls-1" x="246" y="186.5" width="26" height="8"/><polygon class="cls-1" points="244 198.5 239 198.5 239 203.5 219.25 213.75 298.75 213.75 279 203.5 279 198.5 274 198.5 244 198.5"/><path class="cls-1" d="M298.75,215.75h-79.5a2,2,0,0,1-.92-3.78L237,202.28V198.5a2,2,0,0,1,2-2h40a2,2,0,0,1,2,2v3.78L299.67,212a2,2,0,0,1-.92,3.78Zm-71.3-4h63.1l-12.47-6.47A2,2,0,0,1,277,203.5v-3H241v3a2,2,0,0,1-1.08,1.78Z"/><rect class="cls-2" x="268" y="200.5" width="4" height="4"/><path class="cls-1" d="M269,105.5H249a2,2,0,0,1-2-2v-15a2,2,0,0,1,2-2h20a2,2,0,0,1,2,2v15A2,2,0,0,1,269,105.5Zm-18-4h16v-11H251Z"/><polygon class="cls-1" points="259 75.5 242 88.5 249 88.5 269 88.5 276 88.5 259 75.5"/><path class="cls-1" d="M276,90.5H242a2,2,0,0,1-1.21-3.59l17-13a2,2,0,0,1,2.42,0l17,13A2,2,0,0,1,276,90.5Zm-28.09-4h22.18L259,78Z"/><rect class="cls-1" x="257" y="94.5" width="4" height="7"/><rect class="cls-1" x="255" y="93.5" width="8" height="4"/><path class="cls-3" d="M468,216.5H51a2,2,0,0,1,0-4H468a2,2,0,0,1,0,4Z"/><path class="cls-3" d="M42,216.5H36a2,2,0,0,1,0-4h6a2,2,0,0,1,0,4Z"/><path class="cls-3" d="M28,216.5H22a2,2,0,0,1,0-4h6a2,2,0,0,1,0,4Z"/><path class="cls-3" d="M496,216.5h-6a2,2,0,0,1,0-4h6a2,2,0,0,1,0,4Z"/><path class="cls-3" d="M482,216.5h-6a2,2,0,0,1,0-4h6a2,2,0,0,1,0,4Z"/><path class="cls-3" d="M193.54,56.5a2,2,0,0,1-2-1.81A13.46,13.46,0,0,0,178.09,42.5a13.21,13.21,0,0,0-3,.34,2,2,0,0,1-2.37-1.43,23,23,0,0,0-43.67-2.12,2,2,0,0,1-1.4,1.23,2,2,0,0,1-1.8-.45,14,14,0,0,0-9.32-3.57,13.86,13.86,0,0,0-11.21,5.65,2,2,0,0,1-2.49.6,11.86,11.86,0,0,0-5.3-1.25,12,12,0,0,0-12,12c0,.25,0,.5,0,.75v.11a2,2,0,0,1-.54,1.5,2,2,0,0,1-1.46.64H42a2,2,0,0,1,0-4H81.59a16,16,0,0,1,16-15,15.68,15.68,0,0,1,5.59,1,17.94,17.94,0,0,1,23.26-3.07,27,27,0,0,1,49.66,3.17,17.23,17.23,0,0,1,2-.12,17.45,17.45,0,0,1,17.44,15.81,2,2,0,0,1-1.8,2.18Z"/><path class="cls-3" d="M26,56.5H2a2,2,0,0,1,0-4H26a2,2,0,0,1,0,4Z"/><path class="cls-3" d="M484.42,64.5a2,2,0,0,1-1.92-1.43,12,12,0,0,0-10.63-8.52,2,2,0,0,1-1.77-1.4,19.49,19.49,0,0,0-32.48-7.84,2,2,0,0,1-1.93.53,2,2,0,0,1-1.42-1.42,21.5,21.5,0,0,0-41.69.65,2,2,0,0,1-2.2,1.53,10.4,10.4,0,0,0-1.38-.1,11,11,0,0,0-7.44,2.92,2,2,0,0,1-1.89.45,9.83,9.83,0,0,0-8.59,1.59,2,2,0,0,1-1.73.31A1.94,1.94,0,0,1,368,50.6a13,13,0,1,0-23.53,11,2,2,0,0,1-1.76,2.94H313a2,2,0,0,1,0-4h26.76a17,17,0,0,1,31-13.5,13.77,13.77,0,0,1,9-1.23,14.93,14.93,0,0,1,9.45-3.27,25.5,25.5,0,0,1,48-2.09,23.5,23.5,0,0,1,36.36,10.3,16.08,16.08,0,0,1,12.85,11.22A2,2,0,0,1,485,64.42,2.24,2.24,0,0,1,484.42,64.5Z"/><path class="cls-3" d="M399,119.5H378a2,2,0,0,1,0-4h19.2a10,10,0,0,1,8.94-8,14,14,0,0,1,27.72,0H445a2,2,0,0,1,0,4H432a2,2,0,0,1-2-2,10,10,0,0,0-20,0v.12a2,2,0,0,1-2.25,2,6,6,0,0,0-6.75,6A2,2,0,0,1,399,119.5Z"/><path class="cls-3" d="M464,111.5H453a2,2,0,0,1,0-4h11a2,2,0,0,1,0,4Z"/><path class="cls-3" d="M159,156.5H120a2,2,0,0,1-2-2,8.51,8.51,0,0,0-8.5-8.5c-.19,0-.37,0-.56,0a2.05,2.05,0,0,1-2.16-1.56,9.5,9.5,0,0,0-18.78,2,2,2,0,0,1-2,2H66a2,2,0,0,1,0-4H84.15A13.5,13.5,0,0,1,110.23,142a12.53,12.53,0,0,1,11.61,10.48H159a2,2,0,0,1,0,4Z"/><path class="cls-3" d="M178,156.5H167a2,2,0,0,1,0-4h11a2,2,0,0,1,0,4Z"/><path class="cls-3" d="M315,96.5H288a1,1,0,0,1,0-2h27a1,1,0,0,1,0,2Z"/><path class="cls-3" d="M327,96.5h-8a1,1,0,0,1,0-2h8a1,1,0,0,1,0,2Z"/><path class="cls-3" d="M334,96.5h-3a1,1,0,0,1,0-2h3a1,1,0,0,1,0,2Z"/><path class="cls-3" d="M308,109.6l-.26,0L286.88,104a1,1,0,0,1,.52-1.93l20.83,5.58a1,1,0,0,1-.26,2Z"/><path class="cls-3" d="M320.85,113.06a1.27,1.27,0,0,1-.26,0L312.88,111a1,1,0,0,1-.71-1.22,1,1,0,0,1,1.23-.71l7.71,2.07a1,1,0,0,1-.26,2Z"/><path class="cls-3" d="M331.58,115.93a.75.75,0,0,1-.26,0l-6.5-1.73a1,1,0,0,1,.52-1.94l6.49,1.74a1,1,0,0,1-.25,2Z"/><path class="cls-3" d="M286.88,89a1,1,0,0,1-.26-2l18-4.84a1,1,0,0,1,.51,1.94l-18,4.83A1.15,1.15,0,0,1,286.88,89Z"/><path class="cls-3" d="M308.9,83.11a1,1,0,0,1-.26-2l10.08-2.7a1,1,0,0,1,1.22.7,1,1,0,0,1-.7,1.23l-10.08,2.7Z"/><path class="cls-3" d="M323,79.35a1,1,0,0,1-.26-2l8.36-2.24a1,1,0,0,1,.51,1.93l-8.35,2.24A1.27,1.27,0,0,1,323,79.35Z"/><path class="cls-3" d="M230,96.53H203a1,1,0,0,1,0-2h27a1,1,0,0,1,0,2Z"/><path class="cls-3" d="M199,96.53h-8a1,1,0,0,1,0-2h8a1,1,0,0,1,0,2Z"/><path class="cls-3" d="M187,96.53h-3a1,1,0,0,1,0-2h3a1,1,0,0,1,0,2Z"/><path class="cls-3" d="M230.86,89a1.15,1.15,0,0,1-.26,0L209.77,83.4a1,1,0,0,1,.52-1.94l20.83,5.59a1,1,0,0,1-.26,2Z"/><path class="cls-3" d="M204.86,82.05a.82.82,0,0,1-.26,0l-7.71-2.07a1,1,0,0,1-.71-1.22,1,1,0,0,1,1.23-.71l7.71,2.07a1,1,0,0,1,.71,1.22A1,1,0,0,1,204.86,82.05Z"/><path class="cls-3" d="M192.92,78.85a1.09,1.09,0,0,1-.26,0l-6.49-1.74a1,1,0,1,1,.52-1.93l6.49,1.74a1,1,0,0,1,.7,1.22A1,1,0,0,1,192.92,78.85Z"/><path class="cls-3" d="M213.09,108.85a1,1,0,0,1-.26-2l18-4.83a1,1,0,0,1,.52,1.93l-18,4.83A1.07,1.07,0,0,1,213.09,108.85Z"/><path class="cls-3" d="M199,112.62a1,1,0,0,1-.26-2l10.09-2.7a1,1,0,0,1,1.22.7,1,1,0,0,1-.71,1.23l-10.08,2.7A1.09,1.09,0,0,1,199,112.62Z"/><path class="cls-3" d="M186.68,115.93a1,1,0,0,1-.25-2l8.35-2.24a1,1,0,1,1,.52,1.94l-8.36,2.23A.75.75,0,0,1,186.68,115.93Z"/><path class="cls-3" d="M104,254.5H64a2,2,0,0,1,0-4h40a2,2,0,0,1,0,4Z"/><path class="cls-3" d="M122,254.5H112a2,2,0,0,1,0-4h10a2,2,0,0,1,0,4Z"/><path class="cls-3" d="M310,245.5H285.5a2,2,0,0,1-1.49-.66l-2.92-3.25-2.53,3.16a2,2,0,0,1-1.56.75H265a2,2,0,0,1,0-4h11l3.4-4.25a2,2,0,0,1,1.5-.75,2,2,0,0,1,1.55.66l3.9,4.34H310a2,2,0,0,1,0,4Z"/><path class="cls-3" d="M257,245.5h-8a2,2,0,0,1,0-4h8a2,2,0,0,1,0,4Z"/><path class="cls-3" d="M407,236.5H390a2,2,0,0,1,0-4h17a2,2,0,0,1,0,4Z"/><path class="cls-3" d="M447,225.5h-7a2,2,0,0,1,0-4h7a2,2,0,0,1,0,4Z"/><path class="cls-3" d="M85,229.5H66a2,2,0,0,1,0-4H85a2,2,0,0,1,0,4Z"/><path class="cls-3" d="M132,229.5h-8a2,2,0,0,1,0-4h8a2,2,0,0,1,0,4Z"/><path class="cls-3" d="M198,238.5h-7a2,2,0,0,1-1.41-.59L187,235.33l-2.59,2.58a2,2,0,0,1-1.41.59H166a2,2,0,0,1,0-4h16.17l3.42-3.41a2,2,0,0,1,2.82,0l3.42,3.41H198a2,2,0,0,1,0,4Z"/><path class="cls-3" d="M337,227.5H313a2,2,0,0,1,0-4h24a2,2,0,0,1,0,4Z"/><path class="cls-3" d="M218,267.5H199a2,2,0,0,1,0-4h19a2,2,0,0,1,0,4Z"/><path class="cls-3" d="M464,252.5H444a2,2,0,0,1,0-4h20a2,2,0,0,1,0,4Z"/><path class="cls-3" d="M478,252.5h-6a2,2,0,0,1,0-4h6a2,2,0,0,1,0,4Z"/><path class="cls-3" d="M343,271.5H313a2,2,0,0,1,0-4h30a2,2,0,0,1,0,4Z"/><path class="cls-3" d="M378,271.5H366a2,2,0,0,1,0-4h12a2,2,0,0,1,0,4Z"/><path class="cls-3" d="M78,44a.5.5,0,0,1-.5-.5h0s0-2.5-1.5-2.5a.5.5,0,0,1,0-1c1.48,0,1.5-2.48,1.5-2.5h0a.5.5,0,0,1,1,0h0s0,2.5,1.5,2.5a.5.5,0,0,1,0,1c-1.48,0-1.5,2.48-1.5,2.5h0A.5.5,0,0,1,78,44Zm-.62-3.5a2.61,2.61,0,0,1,.62.81,2.61,2.61,0,0,1,.62-.81,2.61,2.61,0,0,1-.62-.81A2.61,2.61,0,0,1,77.38,40.5Z"/><path class="cls-3" d="M481,44a.5.5,0,0,1-.5-.5h0s0-2.5-1.5-2.5a.5.5,0,0,1,0-1c1.47,0,1.5-2.48,1.5-2.5h0a.5.5,0,0,1,1,0h0s0,2.5,1.5,2.5a.5.5,0,0,1,0,1c-1.47,0-1.5,2.48-1.5,2.5h0A.5.5,0,0,1,481,44Zm-.62-3.5a.64.64,0,1,0,1.24,0,.64.64,0,1,0-1.24,0Z"/><path class="cls-3" d="M279,7a.5.5,0,0,1-.5-.5h0s0-2.5-1.5-2.5a.5.5,0,0,1,0-1c1.47,0,1.5-2.48,1.5-2.5h0a.5.5,0,0,1,1,0h0s0,2.5,1.5,2.5a.5.5,0,0,1,0,1c-1.47,0-1.5,2.48-1.5,2.5h0A.5.5,0,0,1,279,7Zm-.62-3.5a2.61,2.61,0,0,1,.62.81,2.61,2.61,0,0,1,.62-.81,2.61,2.61,0,0,1-.62-.81A2.61,2.61,0,0,1,278.38,3.5Z"/><path class="cls-3" d="M108.93,72.5h0a2,2,0,0,1-2-1.67c0-.17-.8-4.33-4-4.33a2,2,0,0,1,0-4,7.3,7.3,0,0,1,6,3.09,7.27,7.27,0,0,1,6-3.09,2,2,0,0,1,0,4c-3.23,0-4,4.16-4,4.34A2,2,0,0,1,108.93,72.5Z"/><path class="cls-3" d="M127,86.35a2.21,2.21,0,0,1-.62-.09,2,2,0,0,1-1.36-2.2c0-.17.58-4.37-2.49-5.36a2,2,0,1,1,1.23-3.81,7.3,7.3,0,0,1,4.76,4.79,7.29,7.29,0,0,1,6.66-1.08,2,2,0,1,1-1.24,3.8c-3.11-1-5.15,2.84-5.17,2.88A2,2,0,0,1,127,86.35Z"/></g></g></svg>