<svg xmlns="http://www.w3.org/2000/svg" viewBox="0 0 266 177"><defs><style>.cls-1{fill:#343b47;opacity:0.15;}.cls-2{fill:#00a99d;}.cls-2,.cls-3,.cls-4,.cls-6{stroke:#3c464c;stroke-linejoin:round;}.cls-2,.cls-4{stroke-width:8px;}.cls-3,.cls-4,.cls-6{fill:none;}.cls-3,.cls-6{stroke-width:4px;}.cls-4,.cls-6{stroke-linecap:round;}.cls-5{fill:#3c464c;}</style></defs><title>Asset 4cavlent</title><g id="Layer_2" data-name="Layer 2"><g id="Layer_1-2" data-name="Layer 1"><ellipse class="cls-1" cx="133" cy="167" rx="133" ry="10"/><path class="cls-2" d="M240,148.86c-4.47,10.4-14.71,15.14-26,15.14H52c-11.32,0-21.56-4.74-26-15.14L23,142H243Z"/><line class="cls-3" x1="193" y1="154" x2="213" y2="154"/><line class="cls-3" x1="185" y1="154" x2="177" y2="154"/><path class="cls-4" d="M159,144h0a9,9,0,0,1-9,9H116a9,9,0,0,1-9-9"/><path class="cls-4" d="M98,27H43.5A8.51,8.51,0,0,0,35,35.5V142H231V35.5a8.51,8.51,0,0,0-8.5-8.5H168"/><path class="cls-5" d="M158,25a25,25,0,1,0-41.3,18.94,3.12,3.12,0,0,0-.2,1.06v2a3,3,0,0,0,6,0V45c0-.51,3-.66,3,0v2a3,3,0,0,0,6,0V45c0-.76.74-1,1.5-1s1.5.24,1.5,1v2a3,3,0,0,0,6,0V45c0-.66,3-.51,3,0v2a3,3,0,0,0,6,0V45a3.12,3.12,0,0,0-.2-1.06A24.92,24.92,0,0,0,158,25Zm-36-7a6,6,0,1,1-6,6A6,6,0,0,1,122,18Zm22,12a6,6,0,1,1,6-6A6,6,0,0,1,144,30Z"/><path class="cls-5" d="M151.89,73.78a3.85,3.85,0,0,1-1.17-.17,4,4,0,0,1-2.83-4L110.36,58.13A4,4,0,0,1,106.94,60a4.25,4.25,0,0,1-1.17-.17,4,4,0,0,1-1.55-6.75,4,4,0,0,1,3.89-4.9,3.85,3.85,0,0,1,1.17.17,4,4,0,0,1,2.83,4l37.53,11.48A4,4,0,0,1,153.06,62a4.25,4.25,0,0,1,1.17.17,4,4,0,0,1,2.36,1.95,4,4,0,0,1-.81,4.8,4,4,0,0,1-3.89,4.9Z"/><path class="cls-5" d="M114.11,73.78a4,4,0,0,1-3.89-4.9,4,4,0,0,1,1.55-6.75,4.25,4.25,0,0,1,1.17-.17,4,4,0,0,1,3.42,1.91l37.53-11.48a4,4,0,0,1,2.83-4,3.85,3.85,0,0,1,1.17-.17,4,4,0,0,1,3.89,4.9,4,4,0,0,1-1.55,6.75,4.25,4.25,0,0,1-1.17.17,4,4,0,0,1-3.42-1.91L118.11,69.61a4,4,0,0,1-2.83,4A3.85,3.85,0,0,1,114.11,73.78Z"/><line class="cls-6" x1="96" y1="48" x2="89" y2="48"/><line class="cls-6" x1="83" y1="48" x2="81" y2="48"/><line class="cls-6" x1="88" y1="59" x2="83" y2="59"/><line class="cls-6" x1="77" y1="59" x2="74" y2="59"/><line class="cls-6" x1="168" y1="70" x2="174" y2="70"/><line class="cls-6" x1="180" y1="70" x2="181" y2="70"/><line class="cls-6" x1="169" y1="59" x2="180" y2="59"/><line class="cls-6" x1="186" y1="59" x2="189" y2="59"/><line class="cls-6" x1="195" y1="59" x2="195" y2="59"/><line class="cls-6" x1="98" y1="69" x2="94" y2="69"/><line class="cls-6" x1="168" y1="47" x2="174" y2="47"/><path class="cls-5" d="M97.1,119.5H86.52a1.65,1.65,0,0,1-1.84-1.84V89.14a1.65,1.65,0,0,1,1.84-1.84H97a1.65,1.65,0,0,1,1.84,1.84v1A1.65,1.65,0,0,1,97,92H90v8.83h5.52a1.66,1.66,0,0,1,1.84,1.84v1a1.65,1.65,0,0,1-1.84,1.84H90v9.3H97.1a1.65,1.65,0,0,1,1.84,1.84v1A1.65,1.65,0,0,1,97.1,119.5Z"/><path class="cls-5" d="M117.66,119.5h-1.61A2,2,0,0,1,114,118l-3.58-11.32h-2.72v11a1.65,1.65,0,0,1-1.84,1.84h-1.65a1.66,1.66,0,0,1-1.85-1.84V89.14a1.66,1.66,0,0,1,1.85-1.84h6.48c4.88,0,8.1,1.93,8.1,6.81v5.75c0,3.08-1.29,5-3.5,6l3.91,11.54A1.46,1.46,0,0,1,117.66,119.5Zm-10-17.44h2.81c1.75,0,2.94-.64,2.94-2.94V94.93c0-2.3-1.19-2.94-2.94-2.94h-2.81Z"/><path class="cls-5" d="M138.41,119.5H136.8a1.94,1.94,0,0,1-2.07-1.52l-3.59-11.32h-2.71v11a1.65,1.65,0,0,1-1.84,1.84h-1.66a1.65,1.65,0,0,1-1.84-1.84V89.14a1.65,1.65,0,0,1,1.84-1.84h6.49c4.87,0,8.09,1.93,8.09,6.81v5.75c0,3.08-1.28,5-3.49,6l3.91,11.54A1.46,1.46,0,0,1,138.41,119.5Zm-10-17.44h2.8c1.75,0,3-.64,3-2.94V94.93c0-2.3-1.2-2.94-3-2.94h-2.8Z"/><path class="cls-5" d="M151.47,86.93h.37c4.88,0,8.1,1.93,8.1,6.81v19.32c0,4.88-3.22,6.81-8.1,6.81h-.37c-4.87,0-8.09-1.93-8.09-6.81V93.74C143.38,88.81,146.6,86.93,151.47,86.93Zm.19,28.25c1.74,0,2.94-.65,2.94-3V94.57c0-2.31-1.2-2.95-2.94-2.95s-2.95.64-2.95,2.95v17.66C148.71,114.53,149.91,115.18,151.66,115.18Z"/><path class="cls-5" d="M179.67,119.5h-1.61A1.94,1.94,0,0,1,176,118l-3.59-11.32h-2.71v11a1.65,1.65,0,0,1-1.84,1.84h-1.66a1.65,1.65,0,0,1-1.84-1.84V89.14a1.65,1.65,0,0,1,1.84-1.84h6.49c4.88,0,8.1,1.93,8.1,6.81v5.75c0,3.08-1.29,5-3.5,6l3.91,11.54A1.46,1.46,0,0,1,179.67,119.5Zm-10-17.44h2.8c1.75,0,2.95-.64,2.95-2.94V94.93c0-2.3-1.2-2.94-2.95-2.94h-2.8Z"/></g></g></svg>