<svg xmlns="http://www.w3.org/2000/svg" viewBox="0 0 161.14 85.04"><defs><style>.cls-1{fill:#fff;}</style></defs><title>cyco-analytics-white</title><g id="Layer_2" data-name="Layer 2"><g id="Layer_1-2" data-name="Layer 1"><path class="cls-1" d="M18.35,84.77l-1.07-2.94H12.79l-1,2.94H9l4.49-12h3l4.56,12Zm-4.84-5.1h3L15,75.48Z"/><path class="cls-1" d="M39.24,84.77H36.76l-5.35-7.85h0v7.85H28.88v-12h2.55l5.3,7.71h0V72.75h2.49Z"/><path class="cls-1" d="M56.39,84.77l-1.07-2.94H50.83l-1,2.94H47.06l4.49-12h3l4.56,12Zm-4.84-5.1h3l-1.51-4.19Z"/><path class="cls-1" d="M66.92,72.75h2.63v9.63h5v2.39H66.92Z"/><path class="cls-1" d="M84,80l-4.46-7.23h3l2.87,4.88h0l2.83-4.88H91L86.59,80v4.81H84Z"/><path class="cls-1" d="M101.32,75.15H97.79v-2.4h9.65v2.4h-3.51v9.62h-2.61Z"/><path class="cls-1" d="M115.51,72.75h2.63v12h-2.63Z"/><path class="cls-1" d="M132.7,85a6.29,6.29,0,0,1,0-12.57,6.92,6.92,0,0,1,3.31.82V75.9a5.14,5.14,0,0,0-3-1,3.86,3.86,0,0,0,0,7.72,5.07,5.07,0,0,0,3-1.06V84.2A6.72,6.72,0,0,1,132.7,85Z"/><path class="cls-1" d="M151.41,73.31v2.42a5.46,5.46,0,0,0-3-.92c-1.06,0-1.81.42-1.81,1.17s.66,1,1.92,1.55c1.71.68,3.58,1.43,3.58,3.72S150.36,85,147.7,85a6.34,6.34,0,0,1-3.64-1.08V81.4a5.33,5.33,0,0,0,3.39,1.32c1.19,0,2-.55,2-1.37s-.84-1.19-2.15-1.72C145.8,79,144,78.22,144,76.08s1.66-3.59,4.25-3.59A6.3,6.3,0,0,1,151.41,73.31Z"/><path class="cls-1" d="M18.1,42.65a3.63,3.63,0,1,0,3.62,3.62A3.62,3.62,0,0,0,18.1,42.65Zm0,5.64a2,2,0,1,1,2-2A2,2,0,0,1,18.1,48.29Z"/><path class="cls-1" d="M59.38,7.06A3.63,3.63,0,1,0,63,10.69,3.62,3.62,0,0,0,59.38,7.06Zm0,5.64a2,2,0,1,1,2-2A2,2,0,0,1,59.38,12.7Z"/><path class="cls-1" d="M101.61,37.53a3.63,3.63,0,1,0,3.63,3.63A3.63,3.63,0,0,0,101.61,37.53Zm0,5.64a2,2,0,1,1,2-2A2,2,0,0,1,101.61,43.17Z"/><path class="cls-1" d="M143,15.22a3.63,3.63,0,1,0,3.63,3.62A3.62,3.62,0,0,0,143,15.22Zm0,5.64a2,2,0,1,1,2-2A2,2,0,0,1,143,20.86Z"/><path class="cls-1" d="M141,19,102.86,39.57a2,2,0,0,1,.76,1.42L141.8,20.43A2,2,0,0,1,141,19Z"/><path class="cls-1" d="M57.45,11.28,19,44.46A2,2,0,0,1,20,45.68L58.51,12.5A2,2,0,0,1,57.45,11.28Z"/><path class="cls-1" d="M100.59,39.43,61.34,11.11a2,2,0,0,1-.94,1.31L99.65,40.73A2,2,0,0,1,100.59,39.43Z"/><path class="cls-1" d="M95,33.42V27.34q0-7.36,6.63-8.54,6.34-1.11,6.56,5.48.23,3.42,5.75,2.45a7.89,7.89,0,0,0,4.42-1.92c.89-.92,1.33-2.44,1.33-4.55q0-6.86-5.2-9.84t-13.3-1.57a22.74,22.74,0,0,0-12.79,6.46,17.6,17.6,0,0,0-4.62,10Z"/><path class="cls-1" d="M118.38,40.43c-.88-.6-2.38-.72-4.49-.35q-5.39,1-5.68,4.47-.15,1.58-.33,2.49a14.42,14.42,0,0,1-.77,2.39,5.13,5.13,0,0,1-2,2.37,9.14,9.14,0,0,1-3.42,1.27Q95,54.24,95,46.88v-7.5l-11.5-8.3V48.9q0,9,4.9,12.33t12.79,2a24.72,24.72,0,0,0,13.3-6.47,16.37,16.37,0,0,0,5.2-12.2C119.71,42.4,119.27,41,118.38,40.43Z"/><path class="cls-1" d="M44.09,20.68,53,13,49.09,6.5a4,4,0,0,0-1.32-1.43,3.19,3.19,0,0,0-2-.13,13,13,0,0,0-5.2,2.32Q38,9.12,38,11a1.61,1.61,0,0,0,.15.78Z"/><path class="cls-1" d="M73.34,17.78l7.3-13.46a2,2,0,0,0,.15-.83c0-1.28-.87-2.23-2.62-2.86A10.07,10.07,0,0,0,73,.15a4.45,4.45,0,0,0-3.32,2.72l-4.46,9Z"/><path class="cls-1" d="M63,16.3l-3.62,7.32-3.87-6.43-8.73,7.52,6.56,9.71a1.61,1.61,0,0,1,.29,1V53.9a2.32,2.32,0,0,0,1.7,2.32,7.8,7.8,0,0,0,4,.2,9.65,9.65,0,0,0,4.06-1.63,3.55,3.55,0,0,0,1.69-2.92V33.37a2,2,0,0,1,.3-1.08L71,22.06Z"/><path class="cls-1" d="M34.87,41.48c-.89-.61-2.39-.73-4.5-.35q-5.39.94-5.68,4.46-.15,1.57-.33,2.49a14.42,14.42,0,0,1-.77,2.39,5.08,5.08,0,0,1-2,2.37,9.14,9.14,0,0,1-3.42,1.27q-6.72,1.19-6.71-6.19V28.38q0-7.36,6.63-8.54,6.35-1.11,6.56,5.48c.15,2.29,2.07,3.1,5.75,2.45a8,8,0,0,0,4.43-1.92c.88-.92,1.32-2.43,1.32-4.55q0-6.85-5.19-9.84T17.69,9.9A22.73,22.73,0,0,0,4.9,16.35Q0,21.42,0,30.41V50q0,9,4.9,12.33t12.79,1.94A24.75,24.75,0,0,0,31,57.75a16.38,16.38,0,0,0,5.19-12.2C36.19,43.44,35.75,42.08,34.87,41.48Z"/><path class="cls-1" d="M156.2,3.36Q151.26,0,143,1.48A23.48,23.48,0,0,0,129.88,8q-4.93,5.07-4.94,14.07v3.78l11.52-6.2q.16-7,6.54-8.14,6.65-1.17,6.64,6.2V37.25q0,7.36-6.64,8.54t-6.56-6.22V25.14l-11.5,6.2V41.6q0,9,4.94,12.32T143,55.81a23.53,23.53,0,0,0,13.2-6.53q4.94-5.07,4.94-14.06V15.68Q161.14,6.7,156.2,3.36Z"/></g></g></svg>