<svg xmlns="http://www.w3.org/2000/svg" viewBox="0 0 157.3 75.61"><defs><style>.cls-1{fill:#0a8d45;}.cls-2{fill:#6d6e71;}</style></defs><title>cyco-engine</title><g id="Layer_2" data-name="Layer 2"><g id="Layer_1-2" data-name="Layer 1"><path class="cls-1" d="M0,40.91V21.84Q0,13.07,4.79,8.11a22.23,22.23,0,0,1,12.48-6.3q7.92-1.39,13,1.52T35.33,13c0,2.06-.43,3.54-1.29,4.43a7.84,7.84,0,0,1-4.32,1.88c-3.6.63-5.47-.16-5.61-2.39q-.22-6.44-6.41-5.35-6.48,1.14-6.47,8.34V38.93q0,7.18,6.54,6a8.77,8.77,0,0,0,3.35-1.24A5,5,0,0,0,23,41.42a14.66,14.66,0,0,0,.75-2.33q.18-.9.33-2.43c.19-2.29,2-3.75,5.54-4.36,2.06-.37,3.52-.25,4.39.34s1.29,1.92,1.29,4a16,16,0,0,1-5.07,11.9,24.08,24.08,0,0,1-13,6.32c-5.13.91-9.3.27-12.48-1.9S0,46.76,0,40.91Z"/><path class="cls-1" d="M37.06,10.78q0-1.87,2.55-3.69a12.5,12.5,0,0,1,5.08-2.26A3,3,0,0,1,46.63,5a3.91,3.91,0,0,1,1.29,1.39L58,23.06,68,2.8A4.36,4.36,0,0,1,71.24.14a9.83,9.83,0,0,1,5.07.48c1.7.61,2.55,1.54,2.55,2.78a1.92,1.92,0,0,1-.14.82L63.9,31.52a2,2,0,0,0-.29,1.05V50.64A3.44,3.44,0,0,1,62,53.48a9.48,9.48,0,0,1-4,1.6,7.67,7.67,0,0,1-4-.2,2.27,2.27,0,0,1-1.66-2.26V34.55a1.53,1.53,0,0,0-.28-.95L37.2,11.54A1.69,1.69,0,0,1,37.06,10.78Z"/><path class="cls-1" d="M81.53,40.91V21.84q0-8.77,4.78-13.73A22.26,22.26,0,0,1,98.8,1.81q7.9-1.39,13,1.52T116.86,13c0,2.06-.43,3.54-1.3,4.43a7.77,7.77,0,0,1-4.31,1.88c-3.6.63-5.47-.16-5.62-2.39q-.21-6.44-6.4-5.35-6.48,1.14-6.48,8.34V38.93q0,7.18,6.55,6a8.84,8.84,0,0,0,3.35-1.24,5,5,0,0,0,1.9-2.31,13.88,13.88,0,0,0,.76-2.33,23.31,23.31,0,0,0,.32-2.43c.19-2.29,2-3.75,5.54-4.36,2.07-.37,3.53-.25,4.39.34s1.3,1.92,1.3,4a16,16,0,0,1-5.07,11.9,24.15,24.15,0,0,1-13,6.32q-7.71,1.36-12.49-1.9T81.53,40.91Z"/><path class="cls-1" d="M122,40.94V21.88q0-8.79,4.82-13.74A22.84,22.84,0,0,1,139.6,1.78q8.06-1.41,12.88,1.84t4.82,12V34.71q0,8.79-4.82,13.73a23,23,0,0,1-12.88,6.38q-8,1.41-12.81-1.85T122,40.94Zm11.22-2q0,7.2,6.41,6.07t6.47-8.34V17.62q0-7.19-6.47-6.05t-6.41,8.33Z"/><path class="cls-2" d="M28.33,63.31h7.54v2.37H31v2.5h4.49v2.17H31V73h4.91v2.35H28.33Z"/><path class="cls-2" d="M56.52,75.33H54l-5.35-7.85h0v7.85H46.15v-12H48.7L54,71h0V63.31h2.5Z"/><path class="cls-2" d="M72.76,73.2a3.76,3.76,0,0,0,1.74-.37v-4h2.4v5.53a7.47,7.47,0,0,1-4.17,1.23,6.29,6.29,0,0,1,0-12.57,7.58,7.58,0,0,1,3.68.91v2.6a5.86,5.86,0,0,0-3.37-1,3.74,3.74,0,0,0-3.88,3.89A3.59,3.59,0,0,0,72.76,73.2Z"/><path class="cls-2" d="M87.1,63.31h2.63v12H87.1Z"/><path class="cls-2" d="M110.76,75.33h-2.48l-5.35-7.85h0v7.85H100.4v-12h2.54l5.3,7.72h0V63.31h2.5Z"/><path class="cls-2" d="M121.43,63.31H129v2.37h-4.92v2.5h4.5v2.17h-4.5V73H129v2.35h-7.54Z"/></g></g></svg>