<svg xmlns="http://www.w3.org/2000/svg" viewBox="0 0 958.5 888.23"><defs><style>.cls-1{fill:#ee984a;}.cls-2{fill:#fff;}.cls-3{fill:#231f20;}</style></defs><title>freddway01</title><g id="Layer_2" data-name="Layer 2"><g id="Layer_1-2" data-name="Layer 1"><circle class="cls-1" cx="479.25" cy="383.98" r="383.98"/><path class="cls-2" d="M485.25,46.5C300.52,46.5,150.77,196.25,150.77,381c0,120.46,63.69,226,159.22,284.92a332.17,332.17,0,0,0,89,38.31l.11,0,6.77-46.36h0l4-27,0-.15h0L435.65,456H583.36l10.5-85.5H448.27L463.11,270H606.83l10.5-85.5H381.06L317.49,615.07A287.58,287.58,0,0,1,197.27,381c0-159,128.93-288,288-288s288,128.93,288,288a288.06,288.06,0,0,1-9.89,75h47.94a335.71,335.71,0,0,0,8.44-75C819.73,196.25,670,46.5,485.25,46.5Z"/><path class="cls-3" d="M0,848.47H19.25v7.2H7.33v7H19.25v7.09H7.33v17.46H0Z"/><path class="cls-3" d="M26.32,848.47h7.82q6.42,0,9.15,1.15a9.27,9.27,0,0,1,4.38,3.81,11.61,11.61,0,0,1,1.66,6.3,10.72,10.72,0,0,1-1.83,6.39A11.08,11.08,0,0,1,42,870l9.19,17.25H43.1l-8.73-16.43H33.7v16.43H26.32Zm7.38,15.16H36c2.35,0,4-.31,4.85-.92a3.47,3.47,0,0,0,1.33-3.07,3.75,3.75,0,0,0-.66-2.21,3.59,3.59,0,0,0-1.76-1.35,13.51,13.51,0,0,0-4.05-.41h-2Z"/><path class="cls-3" d="M57.17,848.47H78.34v7.23H64.5v7H78.34v7.09H64.5V880H78.34v7.25H57.17Z"/><path class="cls-3" d="M85.25,848.47H94q8.46,0,12.57,2.1a16.33,16.33,0,0,1,6.77,6.81,23.91,23.91,0,0,1,1.17,19.27,17,17,0,0,1-4.11,6.23,14.49,14.49,0,0,1-5.67,3.43q-3.06.95-10.59,1H85.25Zm7.33,7.12v24.47H96q5.05,0,7.34-1.16a8.86,8.86,0,0,0,3.73-3.91,14.29,14.29,0,0,0,1.45-6.76q0-6.16-3.45-9.58-3.12-3.06-10-3.06Z"/><path class="cls-3" d="M123.06,848.47h8.75q8.44,0,12.56,2.1a16.33,16.33,0,0,1,6.77,6.81,22,22,0,0,1,2.66,11,22.28,22.28,0,0,1-1.48,8.24,17.29,17.29,0,0,1-4.11,6.23,14.52,14.52,0,0,1-5.68,3.43q-3.06.95-10.59,1h-8.88Zm7.33,7.12v24.47h3.43q5.06,0,7.34-1.16a8.8,8.8,0,0,0,3.73-3.91,14.29,14.29,0,0,0,1.45-6.76q0-6.16-3.45-9.58-3.12-3.06-10-3.06Z"/><path class="cls-3" d="M157.9,848.47h7.27l5.6,24.76,6.93-24.76h6.14l7,24.76,5.56-24.76h7.26l-8.74,38.79h-7.08l-7.15-25.08-7,25.08h-7Z"/><path class="cls-3" d="M221.27,848.47h7.49l14.92,38.79H236l-3-8H217.14l-3.15,8h-7.67Zm3.79,10.28-5.2,13.32h10.38Z"/><path class="cls-3" d="M246.63,848.47h7.93l7.23,13.95L269,848.47h7.82l-11.35,22v16.8H258v-16.8Z"/><path class="cls-3" d="M297.46,848.47h7.33v38.79h-7.33Z"/><path class="cls-3" d="M313.12,848.47h7.08L336.8,874V848.47h7.38v38.79h-7.1L320.5,861.81v25.45h-7.38Z"/><path class="cls-3" d="M349.22,848.47h21.43v7.28h-7.06v31.51H356.1V855.75h-6.88Z"/><path class="cls-3" d="M375.74,848.47h21.18v7.23H383.07v7h13.85v7.09H383.07V880h13.85v7.25H375.74Z"/><path class="cls-3" d="M404.3,848.47h7.82q6.44,0,9.15,1.15a9.34,9.34,0,0,1,4.39,3.81,11.61,11.61,0,0,1,1.66,6.3,10.72,10.72,0,0,1-1.83,6.39A11.11,11.11,0,0,1,420,870l9.19,17.25h-8.07l-8.72-16.43h-.68v16.43H404.3Zm7.38,15.16H414c2.34,0,4-.31,4.85-.92a3.49,3.49,0,0,0,1.32-3.07,3.81,3.81,0,0,0-.65-2.21,3.62,3.62,0,0,0-1.77-1.35,13.39,13.39,0,0,0-4-.41h-2Z"/><path class="cls-3" d="M435.15,848.47h7.08L458.83,874V848.47h7.38v38.79h-7.1l-16.58-25.45v25.45h-7.38Z"/><path class="cls-3" d="M486.9,848.47h7.49l14.92,38.79h-7.67l-3-8H482.78l-3.16,8H472Zm3.79,10.28-5.2,13.32h10.38Z"/><path class="cls-3" d="M511.2,848.47h21.43v7.28h-7.06v31.51h-7.49V855.75H511.2Z"/><path class="cls-3" d="M556,847.5a19.25,19.25,0,0,1,14.15,6A19.85,19.85,0,0,1,576.09,868a19.6,19.6,0,0,1-5.85,14.37,20.26,20.26,0,0,1-28.69-.15A20.37,20.37,0,0,1,556,847.5Zm-.08,7.22a12.21,12.21,0,0,0-9.06,3.74,13.06,13.06,0,0,0-3.66,9.52,12.4,12.4,0,0,0,4.62,10.18,12.65,12.65,0,0,0,8.23,2.93,12.05,12.05,0,0,0,9-3.8,13.69,13.69,0,0,0,0-18.73A12.13,12.13,0,0,0,555.93,854.72Z"/><path class="cls-3" d="M583.07,848.47h7.09L606.75,874V848.47h7.39v38.79H607l-16.57-25.45v25.45h-7.39Z"/><path class="cls-3" d="M634.83,848.47h7.49l14.91,38.79h-7.67l-3-8H630.7l-3.16,8h-7.67Zm3.79,10.28-5.21,13.32h10.38Z"/><path class="cls-3" d="M662.94,848.47h7.39v31.75h10.75v7H662.94Z"/><path class="cls-3" d="M701.81,848.47h7.38v31.75H720v7H701.81Z"/><path class="cls-3" d="M725.59,848.47h21.18v7.23H732.92v7h13.85v7.09H732.92V880h13.85v7.25H725.59Z"/><path class="cls-3" d="M765.48,848.47H773l14.92,38.79h-7.67l-3-8H761.35l-3.15,8h-7.68Zm3.79,10.28-5.2,13.32h10.38Z"/><path class="cls-3" d="M794.1,848.47h7.82c4.28,0,7.34.38,9.15,1.15a9.34,9.34,0,0,1,4.39,3.81,11.7,11.7,0,0,1,1.66,6.3,10.66,10.66,0,0,1-1.84,6.39,11.08,11.08,0,0,1-5.52,3.89L819,887.26h-8.07l-8.72-16.43h-.68v16.43H794.1Zm7.38,15.16h2.31c2.35,0,4-.31,4.85-.92a3.47,3.47,0,0,0,1.33-3.07,3.75,3.75,0,0,0-.66-2.21,3.55,3.55,0,0,0-1.76-1.35,13.39,13.39,0,0,0-4-.41h-2Z"/><path class="cls-3" d="M825,848.47H832L848.63,874V848.47H856v38.79h-7.1l-16.58-25.45v25.45H825Z"/><path class="cls-3" d="M864.34,848.47h7.33v38.79h-7.33Z"/><path class="cls-3" d="M880,848.47h7.09L903.68,874V848.47h7.39v38.79H904l-16.57-25.45v25.45H880Z"/><path class="cls-3" d="M955.73,854.8l-5.2,5.14a15.36,15.36,0,0,0-11.5-5.22,13.17,13.17,0,0,0-9.6,3.8,12.48,12.48,0,0,0-3.86,9.23,12.77,12.77,0,0,0,4,9.51,13.61,13.61,0,0,0,9.9,3.91,12.15,12.15,0,0,0,6.45-1.61,11.29,11.29,0,0,0,4.24-5H938.94v-6.93h19.51l0,1.63a19,19,0,0,1-2.64,9.65,18.26,18.26,0,0,1-6.82,7,19.49,19.49,0,0,1-9.84,2.4,21.8,21.8,0,0,1-10.77-2.62,19.17,19.17,0,0,1-7.49-7.48,20.78,20.78,0,0,1-2.75-10.46,19.46,19.46,0,0,1,5.08-13.4A20.07,20.07,0,0,1,939,847.5a24,24,0,0,1,9.47,1.87A21.62,21.62,0,0,1,955.73,854.8Z"/></g></g></svg>