<svg xmlns="http://www.w3.org/2000/svg" viewBox="0 0 1281.16 344.2"><defs><style>.cls-1{fill:#c12026;}.cls-2{fill:#231f20;}.cls-3{fill:#ee984a;}.cls-4{fill:#fff;}</style></defs><title>freddway02</title><g id="Layer_2" data-name="Layer 2"><g id="Layer_1-2" data-name="Layer 1"><path class="cls-1" d="M400.81,64.29H462V87.18h-37.9v22.39H462v22.56h-37.9v55.51H400.81Z"/><path class="cls-1" d="M484.49,64.29h24.88q20.43,0,29.1,3.65a29.82,29.82,0,0,1,13.95,12.12q5.28,8.46,5.28,20,0,12.15-5.83,20.33T534.31,132.8l29.22,54.84H537.86L510.12,135.4H508v52.24H484.49ZM508,112.51h7.36q11.2,0,15.42-3T535,99.8a12,12,0,0,0-2.08-7,11.66,11.66,0,0,0-5.61-4.29q-3.51-1.3-12.87-1.31H508Z"/><path class="cls-1" d="M582.61,64.29h67.33v23h-44v22.3h44v22.56h-44v32.45h44v23.06H582.61Z"/><path class="cls-1" d="M671.91,64.29h27.82q26.89,0,40,6.67t21.53,21.67q8.46,15,8.47,35.06a70.42,70.42,0,0,1-4.74,26.2,54.19,54.19,0,0,1-13.07,19.83,46.09,46.09,0,0,1-18.06,10.9q-9.71,3-33.67,3H671.91Zm23.31,22.64v77.82h10.9q16.11,0,23.36-3.69t11.86-12.43Q746,139.9,746,127.14q0-19.64-11-30.47-9.9-9.73-31.78-9.74Z"/><path class="cls-1" d="M792.16,64.29H820q26.89,0,40,6.67t21.53,21.67q8.46,15,8.46,35.06a70.42,70.42,0,0,1-4.73,26.2,54.44,54.44,0,0,1-13.07,19.83,46.09,46.09,0,0,1-18.06,10.9q-9.72,3-33.68,3H792.16Zm23.31,22.64v77.82h10.9q16.1,0,23.35-3.69t11.87-12.43q4.62-8.73,4.61-21.49,0-19.64-11-30.47-9.9-9.73-31.79-9.74Z"/><path class="cls-1" d="M903,64.29h23.1L943.9,143l22-78.74h19.52L1007.79,143l17.66-78.74h23.09l-27.79,123.35H998.23L975.51,107.9,953.2,187.64H930.9Z"/><path class="cls-1" d="M1104.5,64.29h23.81l47.45,123.35h-24.41l-9.65-25.41h-50.33l-10,25.41h-24.4Zm12,32.7L1100,139.34h33Z"/><path class="cls-1" d="M1185.15,64.29h25.2l23,44.37,22.91-44.37h24.89l-36.1,69.94v53.41h-23.65V134.23Z"/><path class="cls-2" d="M400.81,227h9.76v51.65h-9.76Z"/><path class="cls-2" d="M421.66,227h9.44l22.1,34V227H463v51.65h-9.46L431.5,244.73v33.88h-9.84Z"/><path class="cls-2" d="M469.74,227h28.55v9.69h-9.41v42h-10v-42h-9.16Z"/><path class="cls-2" d="M505.06,227h28.2v9.62H514.83v9.34h18.43v9.45H514.83V269h18.43v9.65h-28.2Z"/><path class="cls-2" d="M543.1,227h10.41q8.57,0,12.19,1.53a12.45,12.45,0,0,1,5.84,5.07,15.56,15.56,0,0,1,2.21,8.39,14.3,14.3,0,0,1-2.44,8.52,14.84,14.84,0,0,1-7.36,5.18l12.24,23H565.44l-11.61-21.88h-.9v21.88H543.1Zm9.83,20.19H556q4.69,0,6.46-1.23a4.64,4.64,0,0,0,1.77-4.09,5,5,0,0,0-.88-2.94,4.8,4.8,0,0,0-2.35-1.8,17.85,17.85,0,0,0-5.39-.55h-2.69Z"/><path class="cls-2" d="M584.18,227h9.43l22.1,34V227h9.84v51.65h-9.46L594,244.73v33.88h-9.83Z"/><path class="cls-2" d="M653.1,227h10l19.86,51.65H672.72l-4-10.64H647.6l-4.2,10.64H633.18Zm5,13.69-6.93,17.74H665Z"/><path class="cls-2" d="M685.46,227H714v9.69h-9.41v42h-10v-42h-9.16Z"/><path class="cls-2" d="M745.13,225.66A25.67,25.67,0,0,1,764,233.59a26.44,26.44,0,0,1,7.89,19.35,26.12,26.12,0,0,1-7.79,19.14,27,27,0,0,1-38.21-.21,27.13,27.13,0,0,1,19.25-46.21Zm-.1,9.62a16.21,16.21,0,0,0-12.06,5,17.34,17.34,0,0,0-4.88,12.67q0,8.58,6.15,13.56a16.84,16.84,0,0,0,11,3.9,16,16,0,0,0,11.92-5.06,18.24,18.24,0,0,0,0-24.95A16.17,16.17,0,0,0,745,235.28Z"/><path class="cls-2" d="M781.18,227h9.43l22.1,34V227h9.84v51.65h-9.46L791,244.73v33.88h-9.83Z"/><path class="cls-2" d="M850.1,227h10l19.86,51.65H869.72l-4-10.64H844.6l-4.2,10.64H830.18Zm5,13.69-6.93,17.74H862Z"/><path class="cls-2" d="M887.55,227h9.83v42.28h14.33v9.37H887.55Z"/><path class="cls-2" d="M939.31,227h9.83v42.28h14.33v9.37H939.31Z"/><path class="cls-2" d="M971,227h28.2v9.62H980.74v9.34h18.44v9.45H980.74V269h18.44v9.65H971Z"/><path class="cls-2" d="M1024.1,227h10l19.86,51.65h-10.22l-4-10.64H1018.6l-4.2,10.64h-10.22Zm5.05,13.69-6.93,17.74H1036Z"/><path class="cls-2" d="M1062.21,227h10.42q8.55,0,12.19,1.53a12.45,12.45,0,0,1,5.84,5.07,15.56,15.56,0,0,1,2.21,8.39,14.37,14.37,0,0,1-2.44,8.52,14.84,14.84,0,0,1-7.36,5.18l12.24,23h-10.75l-11.62-21.88h-.9v21.88h-9.83Zm9.83,20.19h3.09c3.12,0,5.28-.41,6.45-1.23a4.64,4.64,0,0,0,1.77-4.09,5,5,0,0,0-.87-2.94,4.84,4.84,0,0,0-2.35-1.8,17.9,17.9,0,0,0-5.39-.55H1072Z"/><path class="cls-2" d="M1103.3,227h9.43l22.1,34V227h9.83v51.65h-9.45l-22.08-33.88v33.88h-9.83Z"/><path class="cls-2" d="M1155.76,227h9.76v51.65h-9.76Z"/><path class="cls-2" d="M1176.62,227h9.43l22.1,34V227H1218v51.65h-9.46l-22.08-33.88v33.88h-9.83Z"/><path class="cls-2" d="M1277.47,235.39l-6.92,6.84q-6.57-6.94-15.32-6.95a17.52,17.52,0,0,0-12.78,5.06,16.58,16.58,0,0,0-5.15,12.29,17,17,0,0,0,5.34,12.67,18.18,18.18,0,0,0,13.19,5.2,16.15,16.15,0,0,0,8.59-2.14,15.07,15.07,0,0,0,5.64-6.71h-15v-9.23h26l.07,2.17a25.32,25.32,0,0,1-3.51,12.86,24.49,24.49,0,0,1-9.1,9.27,25.92,25.92,0,0,1-13.1,3.19,29.06,29.06,0,0,1-14.34-3.49,25.53,25.53,0,0,1-10-10,27.72,27.72,0,0,1-3.67-13.94,25.92,25.92,0,0,1,6.78-17.84q8-9,20.92-9a31.92,31.92,0,0,1,12.61,2.49A29,29,0,0,1,1277.47,235.39Z"/><circle class="cls-3" cx="172.1" cy="172.1" r="172.1"/><path class="cls-4" d="M174.79,20.84a149.94,149.94,0,0,0-38.66,294.79h.05l3-20.78h0l1.78-12.1v-.07h0l11.57-78.32h66.2l4.71-38.32H158.21l6.65-45h64.42L234,82.69H128.09l-28.49,193a129,129,0,1,1,199.84-71.31h21.48A150,150,0,0,0,174.79,20.84Z"/></g></g></svg>