<svg xmlns="http://www.w3.org/2000/svg" viewBox="0 0 198.43 87.85"><defs><style>.cls-1{fill:#00467d;}.cls-2{fill:#6d6e71;}</style></defs><title>Asset 1</title><g id="Layer_2" data-name="Layer 2"><g id="Layer_1-2" data-name="Layer 1"><path class="cls-1" d="M24.59,36.13a12.35,12.35,0,0,0-3.62-2,13.24,13.24,0,0,0-4.36-.7A9.91,9.91,0,0,0,12,34.6a11.11,11.11,0,0,0-3.73,3.15,15,15,0,0,0-2.46,4.86,20.78,20.78,0,0,0-.87,6.15,19.42,19.42,0,0,0,.91,6.1A15.91,15.91,0,0,0,8.3,59.68,11.44,11.44,0,0,0,12,62.83,10.09,10.09,0,0,0,16.77,64a15.32,15.32,0,0,0,4.33-.58,15.77,15.77,0,0,0,4.07-1.9l-1,4.9a10.92,10.92,0,0,1-3.49,1.37,21.12,21.12,0,0,1-4.48.45,14.8,14.8,0,0,1-6.36-1.37A15.16,15.16,0,0,1,4.73,63a18.77,18.77,0,0,1-3.44-6.1A24,24,0,0,1,0,48.76a24.73,24.73,0,0,1,1.25-8.1,18.34,18.34,0,0,1,3.44-6.15,15.33,15.33,0,0,1,5.15-3.9,15,15,0,0,1,6.36-1.37,17.34,17.34,0,0,1,5.23.74,18.71,18.71,0,0,1,4,1.75Z"/><path class="cls-1" d="M54.84,68.27a7.18,7.18,0,0,1-3.15-1.78,5.84,5.84,0,0,1-1.81-3.36,8.69,8.69,0,0,1-3.57,3.69A10.55,10.55,0,0,1,41,68.19a9.48,9.48,0,0,1-7.27-3,11,11,0,0,1-2.78-7.79,12.68,12.68,0,0,1,.87-4.85A11.11,11.11,0,0,1,34.12,49a10.8,10.8,0,0,1,3.33-2.32,11.78,11.78,0,0,1,3.94-1l7.39-.75V41.18a8.12,8.12,0,0,0-1.86-5.68,7,7,0,0,0-5.36-2,13.28,13.28,0,0,0-7.81,2.65l-.83-4.23a12.55,12.55,0,0,1,4-2,17.22,17.22,0,0,1,5-.7,11.73,11.73,0,0,1,8.51,3.15q3.26,3.16,3.25,9.14V58.89a6.23,6.23,0,0,0,1.25,4.28A5.75,5.75,0,0,0,57.75,65ZM48.78,48.92l-6.72.67a6.65,6.65,0,0,0-4.69,2.32,8.09,8.09,0,0,0-1.79,5.48,7.06,7.06,0,0,0,1.66,4.82,5.1,5.1,0,0,0,4,1.91,6.16,6.16,0,0,0,2.69-.66,8.06,8.06,0,0,0,2.45-1.83,9.17,9.17,0,0,0,2.41-6.31Z"/><path class="cls-1" d="M74.31,68H72.07L59.44,29.9h4.82l6.23,19q.75,2.16,1.45,4.57c.47,1.61.93,3.21,1.37,4.82h.17c.39-1.61.81-3.2,1.28-4.78s1-3.11,1.45-4.61l6.24-19h4.48Z"/><path class="cls-1" d="M101.08,68.52a9.14,9.14,0,0,1-2.18-1A7.46,7.46,0,0,1,97,65.66,9.22,9.22,0,0,1,95.61,63a12.21,12.21,0,0,1-.51-3.74V0H100V58.81A6.94,6.94,0,0,0,101.17,63a5.74,5.74,0,0,0,2.9,2.16Z"/><path class="cls-1" d="M137.82,44.69c0,.61-.06,3.83-.17,4.17l-2.83,0H115.23a16.49,16.49,0,0,0,.63,5.65,15.31,15.31,0,0,0,2.33,4.86A11.51,11.51,0,0,0,122,62.71,10.19,10.19,0,0,0,127,64a14.18,14.18,0,0,0,9.18-3.23L135.08,66a13.35,13.35,0,0,1-3.74,1.66,18.24,18.24,0,0,1-4.9.58,14.5,14.5,0,0,1-6.35-1.41,15.07,15.07,0,0,1-5.11-4,19.28,19.28,0,0,1-3.4-6.14,23.83,23.83,0,0,1-1.26-7.89,25.19,25.19,0,0,1,1.21-8.06,20.18,20.18,0,0,1,3.24-6.15,14.43,14.43,0,0,1,4.69-3.94A12,12,0,0,1,125,29.24a12,12,0,0,1,9.59,4.36A12.94,12.94,0,0,1,137,38a16.84,16.84,0,0,1,.79,5.15Zm-5.24-4.86a10.67,10.67,0,0,0-1.5-3.24,8.17,8.17,0,0,0-2.46-2.37,6.38,6.38,0,0,0-3.46-.91,6.81,6.81,0,0,0-3.47.95,11,11,0,0,0-2.92,2.57,15.86,15.86,0,0,0-2.17,3.7,16.2,16.2,0,0,0-1.13,4.32H133a2.32,2.32,0,0,0,.08-.74v-.75A12.8,12.8,0,0,0,132.58,39.83Z"/><path class="cls-1" d="M166,67.53v-26a8.41,8.41,0,0,0-2-5.9c-1.32-1.44-3.28-2.15-5.87-2.15a8.23,8.23,0,0,0-6,2.19,7.77,7.77,0,0,0-2.28,5.86v26H145V29.9h4.49l.08,4A10.53,10.53,0,0,1,153,30.65a11.83,11.83,0,0,1,6.25-1.41,11.59,11.59,0,0,1,8.44,3.15q3.23,3.16,3.22,8.64v26.5Z"/><path class="cls-1" d="M197.67,34h-10V58.39a5.63,5.63,0,0,0,1.29,4.07,4.33,4.33,0,0,0,3.27,1.33,6,6,0,0,0,3.58-.91l-.92,4.57a7.69,7.69,0,0,1-3.32.58,8.74,8.74,0,0,1-6.27-2.41q-2.53-2.41-2.54-7.06V34h-6.14V29.9h6.23v-8l4.82-2.49V29.9h10.8Z"/><path class="cls-2" d="M8.38,82.08a4,4,0,0,1-.77,2.57,2.4,2.4,0,0,1-1.94.95,3.08,3.08,0,0,1-.85-.11,3.36,3.36,0,0,1-.76-.34v2.7H3V79H4.06v.68A3.66,3.66,0,0,1,5,79.1,2.32,2.32,0,0,1,6,78.85a2,2,0,0,1,1.72.88A3.94,3.94,0,0,1,8.38,82.08Zm-1.12.12a3.41,3.41,0,0,0-.35-1.71,1.22,1.22,0,0,0-1.14-.61,2,2,0,0,0-.89.21,3.82,3.82,0,0,0-.82.53v3.65a3.89,3.89,0,0,0,.73.28,3,3,0,0,0,.7.07A1.55,1.55,0,0,0,6.8,84,3,3,0,0,0,7.26,82.2Z"/><path class="cls-2" d="M13.25,85.62a3.19,3.19,0,0,1-2.39-.87A3.34,3.34,0,0,1,10,82.29a3.65,3.65,0,0,1,.82-2.51A2.75,2.75,0,0,1,13,78.85a2.91,2.91,0,0,1,1.06.18,2,2,0,0,1,.81.54,2.36,2.36,0,0,1,.53.9,4.14,4.14,0,0,1,.18,1.31v.58H11.11a2.42,2.42,0,0,0,.56,1.72,2.06,2.06,0,0,0,1.57.6,3.27,3.27,0,0,0,.7-.08,4.5,4.5,0,0,0,.62-.21,4.25,4.25,0,0,0,.49-.26,2.83,2.83,0,0,0,.34-.23h.06v1.18l-.47.19c-.19.07-.36.13-.51.17a5.84,5.84,0,0,1-.57.14A4,4,0,0,1,13.25,85.62Zm1.27-4.09a2.7,2.7,0,0,0-.11-.75,1.7,1.7,0,0,0-.26-.54,1.3,1.3,0,0,0-.49-.37,2,2,0,0,0-.73-.12,1.82,1.82,0,0,0-.74.13,1.78,1.78,0,0,0-.55.37,1.93,1.93,0,0,0-.37.57,2.39,2.39,0,0,0-.16.71Z"/><path class="cls-2" d="M21,80.2H21a1,1,0,0,0-.26,0h-.32a2.28,2.28,0,0,0-.87.19,2.89,2.89,0,0,0-.82.57v4.57H17.62V79H18.7v1a4.73,4.73,0,0,1,1-.74,1.89,1.89,0,0,1,.86-.22h.25l.19,0Z"/><path class="cls-2" d="M24.56,85.63a4.26,4.26,0,0,1-1.21-.17,5.43,5.43,0,0,1-.93-.37V83.87h.06l.32.24a3.58,3.58,0,0,0,.5.28,4.84,4.84,0,0,0,.61.22,2.26,2.26,0,0,0,.69.1,2.72,2.72,0,0,0,.55-.06,1.39,1.39,0,0,0,.44-.15,1,1,0,0,0,.29-.28.89.89,0,0,0,.09-.45.77.77,0,0,0-.21-.59,1.76,1.76,0,0,0-.75-.33l-.54-.12a5.12,5.12,0,0,1-.62-.15,1.93,1.93,0,0,1-1.07-.66,1.9,1.9,0,0,1,.32-2.5,2.69,2.69,0,0,1,1.75-.55,4.45,4.45,0,0,1,1.08.14,4,4,0,0,1,.91.33V80.5h-.06a3.32,3.32,0,0,0-.92-.52,2.88,2.88,0,0,0-1-.19,1.73,1.73,0,0,0-.91.23.75.75,0,0,0-.37.68.78.78,0,0,0,.22.6,1.81,1.81,0,0,0,.71.33l.54.12.62.14a2,2,0,0,1,1.08.6,1.65,1.65,0,0,1,.36,1.13,1.89,1.89,0,0,1-.17.78,1.77,1.77,0,0,1-.48.64,2.5,2.5,0,0,1-.78.44A3.37,3.37,0,0,1,24.56,85.63Z"/><path class="cls-2" d="M34.33,82.25a3.69,3.69,0,0,1-.78,2.52,2.66,2.66,0,0,1-2.09.88,2.59,2.59,0,0,1-2.11-.91,3.71,3.71,0,0,1-.77-2.49,3.62,3.62,0,0,1,.79-2.5,2.89,2.89,0,0,1,4.18,0A3.7,3.7,0,0,1,34.33,82.25Zm-1.12,0a3.15,3.15,0,0,0-.45-1.86,1.72,1.72,0,0,0-2.61,0,4,4,0,0,0,0,3.7,1.53,1.53,0,0,0,1.31.63,1.51,1.51,0,0,0,1.29-.62A3,3,0,0,0,33.21,82.25Z"/><path class="cls-2" d="M41.45,85.47H40.37V81.8a7,7,0,0,0,0-.82,1.84,1.84,0,0,0-.17-.62.86.86,0,0,0-.37-.36,1.4,1.4,0,0,0-.64-.12,2,2,0,0,0-.84.22,4.18,4.18,0,0,0-.83.56v4.81H36.39V79h1.09v.72a4.49,4.49,0,0,1,1-.67,2.32,2.32,0,0,1,1-.23,1.86,1.86,0,0,1,1.49.63,2.68,2.68,0,0,1,.53,1.81Z"/><path class="cls-2" d="M47.52,84.79a3.78,3.78,0,0,0-.35.27,2.41,2.41,0,0,1-.43.28,3.16,3.16,0,0,1-.56.23,2.9,2.9,0,0,1-.75.08,1.87,1.87,0,0,1-1.8-1.22,2.12,2.12,0,0,1-.16-.83,2.19,2.19,0,0,1,.29-1.14,1.85,1.85,0,0,1,.89-.74,4.2,4.2,0,0,1,1.28-.34q.74-.1,1.59-.15V81a1.53,1.53,0,0,0-.11-.62,1,1,0,0,0-.33-.36,1.1,1.1,0,0,0-.51-.17,4,4,0,0,0-.61,0,4.39,4.39,0,0,0-.88.11,6.72,6.72,0,0,0-1,.33H44v-1.1a8.7,8.7,0,0,1,.86-.19,6,6,0,0,1,1.1-.11,5,5,0,0,1,1.12.11,2.11,2.11,0,0,1,.82.37,1.65,1.65,0,0,1,.53.69,2.81,2.81,0,0,1,.17,1v4.4H47.52Zm0-.9V82.1l-1,.09a5.49,5.49,0,0,0-.95.17,1.81,1.81,0,0,0-.72.41,1.05,1.05,0,0,0-.28.77,1.06,1.06,0,0,0,.31.83,1.31,1.31,0,0,0,.91.28,1.88,1.88,0,0,0,.93-.22A4.17,4.17,0,0,0,47.52,83.89Z"/><path class="cls-2" d="M52.17,85.47H51.09v-9h1.08Z"/><path class="cls-2" d="M55.91,78H54.67V76.83h1.24Zm-.08,7.52H54.75V79h1.08Z"/><path class="cls-2" d="M60.34,85.6A1.83,1.83,0,0,1,59,85.09a2.14,2.14,0,0,1-.5-1.59V79.93h-.73V79h.73V77.18h1.08V79h2v.9h-2V83c0,.33,0,.58,0,.76a1.32,1.32,0,0,0,.13.49.64.64,0,0,0,.32.31,1.57,1.57,0,0,0,.59.1,1.82,1.82,0,0,0,.52-.08,2.69,2.69,0,0,0,.36-.13h.06v1c-.21,0-.41.1-.62.13A4.13,4.13,0,0,1,60.34,85.6Z"/><path class="cls-2" d="M68.23,79l-3.46,8.82H63.61l1.15-2.69L62.42,79h1.17l1.76,4.77L67.1,79Z"/><path class="cls-2" d="M78.23,84.79l-.35.27a2.41,2.41,0,0,1-.43.28,2.41,2.41,0,0,1-1.31.31,1.94,1.94,0,0,1-.76-.15,2,2,0,0,1-.62-.42,1.82,1.82,0,0,1-.42-.65,2.31,2.31,0,0,1-.16-.83,2.19,2.19,0,0,1,.29-1.14,1.9,1.9,0,0,1,.89-.74,4.2,4.2,0,0,1,1.28-.34q.73-.1,1.59-.15V81a1.53,1.53,0,0,0-.11-.62,1,1,0,0,0-.32-.36,1.14,1.14,0,0,0-.51-.17,4.21,4.21,0,0,0-.62,0,4.48,4.48,0,0,0-.88.11,6.72,6.72,0,0,0-1,.33h-.06v-1.1c.2-.06.49-.12.86-.19a6,6,0,0,1,1.11-.11A5.11,5.11,0,0,1,77.8,79a2.14,2.14,0,0,1,.81.37,1.65,1.65,0,0,1,.53.69,2.81,2.81,0,0,1,.17,1v4.4H78.23Zm0-.9V82.1l-1,.09a5.45,5.45,0,0,0-1,.17,1.71,1.71,0,0,0-.71.41,1,1,0,0,0-.29.77,1.1,1.1,0,0,0,.31.83,1.33,1.33,0,0,0,.92.28,1.87,1.87,0,0,0,.92-.22A4.17,4.17,0,0,0,78.23,83.89Z"/><path class="cls-2" d="M83.52,85.63a4.31,4.31,0,0,1-1.21-.17,6.19,6.19,0,0,1-.93-.37V83.87h.06l.33.24a3.4,3.4,0,0,0,.49.28,4.84,4.84,0,0,0,.61.22,2.26,2.26,0,0,0,.69.1,2.89,2.89,0,0,0,.56-.06,1.32,1.32,0,0,0,.43-.15.87.87,0,0,0,.29-.28.89.89,0,0,0,.09-.45.77.77,0,0,0-.21-.59,1.77,1.77,0,0,0-.74-.33l-.55-.12a5,5,0,0,1-.61-.15,2,2,0,0,1-1.08-.66,1.89,1.89,0,0,1,.33-2.5,2.67,2.67,0,0,1,1.74-.55,4.45,4.45,0,0,1,1.08.14,3.8,3.8,0,0,1,.91.33V80.5h0a3.53,3.53,0,0,0-.93-.52,2.84,2.84,0,0,0-1-.19,1.67,1.67,0,0,0-.9.23.73.73,0,0,0-.37.68.75.75,0,0,0,.22.6,1.75,1.75,0,0,0,.7.33l.54.12.63.14a2,2,0,0,1,1.07.6A1.65,1.65,0,0,1,86,83.62a1.88,1.88,0,0,1-.16.78,1.77,1.77,0,0,1-.48.64,2.67,2.67,0,0,1-.79.44A3.37,3.37,0,0,1,83.52,85.63Z"/><path class="cls-2" d="M89.74,85.63a4.26,4.26,0,0,1-1.21-.17,5.43,5.43,0,0,1-.93-.37V83.87h.06l.32.24a3.58,3.58,0,0,0,.5.28,4.33,4.33,0,0,0,.61.22,2.26,2.26,0,0,0,.69.1,2.72,2.72,0,0,0,.55-.06,1.39,1.39,0,0,0,.44-.15,1,1,0,0,0,.29-.28.89.89,0,0,0,.09-.45.77.77,0,0,0-.21-.59,1.76,1.76,0,0,0-.75-.33l-.54-.12a5.12,5.12,0,0,1-.62-.15A1.93,1.93,0,0,1,88,81.92a1.9,1.9,0,0,1,.32-2.5A2.69,2.69,0,0,1,90,78.87a4.45,4.45,0,0,1,1.08.14,4.15,4.15,0,0,1,.91.33V80.5H92A3.32,3.32,0,0,0,91,80a2.88,2.88,0,0,0-1-.19,1.73,1.73,0,0,0-.91.23.75.75,0,0,0-.37.68.78.78,0,0,0,.22.6,1.81,1.81,0,0,0,.71.33l.54.12.62.14a2,2,0,0,1,1.08.6,1.65,1.65,0,0,1,.36,1.13,1.89,1.89,0,0,1-.17.78,1.77,1.77,0,0,1-.48.64,2.5,2.5,0,0,1-.78.44A3.37,3.37,0,0,1,89.74,85.63Z"/><path class="cls-2" d="M97,85.62a3.19,3.19,0,0,1-2.39-.87,3.34,3.34,0,0,1-.85-2.46,3.65,3.65,0,0,1,.82-2.51,2.75,2.75,0,0,1,2.16-.93,2.91,2.91,0,0,1,1.06.18,2,2,0,0,1,.81.54,2.36,2.36,0,0,1,.53.9,4.14,4.14,0,0,1,.18,1.31v.58H94.87a2.42,2.42,0,0,0,.56,1.72,2.06,2.06,0,0,0,1.57.6,3.27,3.27,0,0,0,.7-.08,4.5,4.5,0,0,0,.62-.21,4.25,4.25,0,0,0,.49-.26,2.83,2.83,0,0,0,.34-.23h.06v1.18l-.47.19c-.19.07-.36.13-.51.17a5.84,5.84,0,0,1-.57.14A4,4,0,0,1,97,85.62Zm1.27-4.09a2.7,2.7,0,0,0-.11-.75,1.7,1.7,0,0,0-.26-.54,1.3,1.3,0,0,0-.49-.37,2,2,0,0,0-.73-.12,1.82,1.82,0,0,0-.74.13,1.78,1.78,0,0,0-.55.37,1.93,1.93,0,0,0-.37.57,2.39,2.39,0,0,0-.16.71Z"/><path class="cls-2" d="M103.12,85.63a4.26,4.26,0,0,1-1.21-.17,5.43,5.43,0,0,1-.93-.37V83.87h0l.33.24a3.58,3.58,0,0,0,.5.28,4.33,4.33,0,0,0,.61.22,2.26,2.26,0,0,0,.69.1,2.8,2.8,0,0,0,.55-.06,1.39,1.39,0,0,0,.44-.15,1,1,0,0,0,.29-.28.89.89,0,0,0,.09-.45.77.77,0,0,0-.21-.59,1.76,1.76,0,0,0-.75-.33l-.54-.12a5.12,5.12,0,0,1-.62-.15,1.93,1.93,0,0,1-1.07-.66,1.9,1.9,0,0,1,.32-2.5,2.68,2.68,0,0,1,1.75-.55,4.45,4.45,0,0,1,1.08.14,4.15,4.15,0,0,1,.91.33V80.5h-.06a3.32,3.32,0,0,0-.92-.52,2.88,2.88,0,0,0-1-.19,1.73,1.73,0,0,0-.91.23.75.75,0,0,0-.37.68.78.78,0,0,0,.22.6,1.81,1.81,0,0,0,.71.33l.54.12.62.14a2,2,0,0,1,1.08.6,1.65,1.65,0,0,1,.36,1.13,1.89,1.89,0,0,1-.17.78A1.77,1.77,0,0,1,105,85a2.5,2.5,0,0,1-.78.44A3.41,3.41,0,0,1,103.12,85.63Z"/><path class="cls-2" d="M109.33,85.63a4.31,4.31,0,0,1-1.21-.17,6.19,6.19,0,0,1-.93-.37V83.87h.06l.33.24a3.08,3.08,0,0,0,.5.28,4.18,4.18,0,0,0,.6.22,2.26,2.26,0,0,0,.69.1,2.81,2.81,0,0,0,.56-.06,1.49,1.49,0,0,0,.44-.15,1,1,0,0,0,.29-.28.89.89,0,0,0,.09-.45.77.77,0,0,0-.21-.59,1.76,1.76,0,0,0-.75-.33l-.54-.12a4.7,4.7,0,0,1-.62-.15,1.93,1.93,0,0,1-1.07-.66,1.72,1.72,0,0,1-.34-1.08,1.77,1.77,0,0,1,.66-1.42,2.68,2.68,0,0,1,1.75-.55,4.57,4.57,0,0,1,1.08.14,4.15,4.15,0,0,1,.91.33V80.5h-.06a3.53,3.53,0,0,0-.93-.52,2.84,2.84,0,0,0-1-.19,1.69,1.69,0,0,0-.9.23.73.73,0,0,0-.37.68.75.75,0,0,0,.22.6,1.75,1.75,0,0,0,.7.33l.54.12.63.14a2,2,0,0,1,1.07.6,1.65,1.65,0,0,1,.36,1.13,1.88,1.88,0,0,1-.16.78,1.77,1.77,0,0,1-.48.64,2.5,2.5,0,0,1-.78.44A3.44,3.44,0,0,1,109.33,85.63Z"/><path class="cls-2" d="M121.12,85.47V81.75a6.93,6.93,0,0,0,0-.82,1.71,1.71,0,0,0-.14-.6.83.83,0,0,0-.33-.34,1.28,1.28,0,0,0-.57-.11,1.48,1.48,0,0,0-.72.21,3.6,3.6,0,0,0-.79.59,1.93,1.93,0,0,0,0,.23,3.11,3.11,0,0,1,0,.32v4.24h-1.09V81.75c0-.3,0-.57,0-.82a1.5,1.5,0,0,0-.15-.6A.75.75,0,0,0,117,80a1.36,1.36,0,0,0-.58-.11,1.6,1.6,0,0,0-.74.22,4.3,4.3,0,0,0-.75.56v4.81h-1.08V79h1.08v.72a3.7,3.7,0,0,1,.85-.66,1.8,1.8,0,0,1,.92-.24,2,2,0,0,1,1,.26,1.61,1.61,0,0,1,.67.86,4.43,4.43,0,0,1,1-.84,2,2,0,0,1,1-.28,2.28,2.28,0,0,1,.76.13,1.53,1.53,0,0,1,.59.42,1.91,1.91,0,0,1,.4.73,3.46,3.46,0,0,1,.14,1.1v4.24Z"/><path class="cls-2" d="M127.47,85.62a3.19,3.19,0,0,1-2.39-.87,3.34,3.34,0,0,1-.85-2.46,3.65,3.65,0,0,1,.82-2.51,2.75,2.75,0,0,1,2.16-.93,2.91,2.91,0,0,1,1.06.18,2,2,0,0,1,.81.54,2.36,2.36,0,0,1,.53.9,4.14,4.14,0,0,1,.18,1.31v.58h-4.46a2.42,2.42,0,0,0,.56,1.72,2.06,2.06,0,0,0,1.57.6,3.27,3.27,0,0,0,.7-.08,4.5,4.5,0,0,0,.62-.21,5.29,5.29,0,0,0,.49-.26,2.83,2.83,0,0,0,.34-.23h.06v1.18l-.47.19c-.19.07-.36.13-.51.17a5.84,5.84,0,0,1-.57.14A4,4,0,0,1,127.47,85.62Zm1.27-4.09a2.7,2.7,0,0,0-.11-.75,1.7,1.7,0,0,0-.26-.54,1.3,1.3,0,0,0-.49-.37,2,2,0,0,0-.73-.12,1.82,1.82,0,0,0-.74.13,1.78,1.78,0,0,0-.55.37,1.93,1.93,0,0,0-.37.57,2.39,2.39,0,0,0-.16.71Z"/><path class="cls-2" d="M136.9,85.47h-1.09V81.8a7,7,0,0,0,0-.82,1.86,1.86,0,0,0-.16-.62.91.91,0,0,0-.37-.36,1.48,1.48,0,0,0-.65-.12,1.87,1.87,0,0,0-.83.22,4,4,0,0,0-.84.56v4.81h-1.09V79h1.09v.72a4.3,4.3,0,0,1,1-.67,2.25,2.25,0,0,1,1-.23,1.85,1.85,0,0,1,1.49.63,2.68,2.68,0,0,1,.54,1.81Z"/><path class="cls-2" d="M141.32,85.6a1.84,1.84,0,0,1-1.39-.51,2.18,2.18,0,0,1-.5-1.59V79.93h-.73V79h.73V77.18h1.09V79h2v.9h-2V83c0,.33,0,.58,0,.76a1.15,1.15,0,0,0,.13.49.61.61,0,0,0,.32.31,1.53,1.53,0,0,0,.59.1,1.7,1.7,0,0,0,.51-.08,1.92,1.92,0,0,0,.36-.13h.06v1c-.2,0-.41.1-.61.13A4.26,4.26,0,0,1,141.32,85.6Z"/><path class="cls-2" d="M150.64,85.63a4.31,4.31,0,0,1-1.21-.17,6.19,6.19,0,0,1-.93-.37V83.87h.06l.32.24a3.58,3.58,0,0,0,.5.28,4.84,4.84,0,0,0,.61.22,2.26,2.26,0,0,0,.69.1,2.72,2.72,0,0,0,.55-.06,1.3,1.3,0,0,0,.44-.15.87.87,0,0,0,.29-.28.89.89,0,0,0,.09-.45.77.77,0,0,0-.21-.59,1.77,1.77,0,0,0-.74-.33l-.55-.12a4.54,4.54,0,0,1-.61-.15,2,2,0,0,1-1.08-.66,1.89,1.89,0,0,1,.33-2.5,2.65,2.65,0,0,1,1.74-.55A4.45,4.45,0,0,1,152,79a4,4,0,0,1,.91.33V80.5h0a3.53,3.53,0,0,0-.93-.52,2.84,2.84,0,0,0-1-.19,1.67,1.67,0,0,0-.9.23.73.73,0,0,0-.37.68.75.75,0,0,0,.22.6,1.75,1.75,0,0,0,.7.33l.54.12.62.14a2,2,0,0,1,1.08.6,1.65,1.65,0,0,1,.36,1.13,1.88,1.88,0,0,1-.16.78,1.69,1.69,0,0,1-.49.64,2.5,2.5,0,0,1-.78.44A3.37,3.37,0,0,1,150.64,85.63Z"/><path class="cls-2" d="M157.91,85.62a3.19,3.19,0,0,1-2.39-.87,3.34,3.34,0,0,1-.85-2.46,3.7,3.7,0,0,1,.82-2.51,2.75,2.75,0,0,1,2.16-.93,2.87,2.87,0,0,1,1.06.18,2,2,0,0,1,.81.54,2.36,2.36,0,0,1,.53.9,4.12,4.12,0,0,1,.19,1.31v.58h-4.47a2.38,2.38,0,0,0,.57,1.72,2,2,0,0,0,1.56.6,3.27,3.27,0,0,0,.7-.08,4.08,4.08,0,0,0,.62-.21,5.6,5.6,0,0,0,.5-.26,3.66,3.66,0,0,0,.33-.23h.07v1.18l-.48.19c-.19.07-.36.13-.51.17a5.84,5.84,0,0,1-.57.14A4,4,0,0,1,157.91,85.62Zm1.27-4.09a3.17,3.17,0,0,0-.1-.75,1.71,1.71,0,0,0-.27-.54,1.3,1.3,0,0,0-.49-.37,1.92,1.92,0,0,0-.73-.12,1.85,1.85,0,0,0-.74.13,1.78,1.78,0,0,0-.55.37,1.93,1.93,0,0,0-.37.57,2.39,2.39,0,0,0-.16.71Z"/><path class="cls-2" d="M165.69,80.2h-.06a1,1,0,0,0-.25,0h-.33a2.28,2.28,0,0,0-.87.19,2.89,2.89,0,0,0-.82.57v4.57h-1.08V79h1.08v1a4.75,4.75,0,0,1,1-.74,1.85,1.85,0,0,1,.85-.22h.25l.19,0Z"/><path class="cls-2" d="M172.54,79l-2.43,6.44h-1L166.73,79h1.17l1.76,5,1.75-5Z"/><path class="cls-2" d="M175.49,78h-1.24V76.83h1.24Zm-.08,7.52h-1.08V79h1.08Z"/><path class="cls-2" d="M180.51,85.62a3.43,3.43,0,0,1-1.22-.21,2.49,2.49,0,0,1-.95-.62,2.88,2.88,0,0,1-.62-1,4.78,4.78,0,0,1-.21-1.49,4.27,4.27,0,0,1,.22-1.46,3.28,3.28,0,0,1,.61-1,2.56,2.56,0,0,1,.95-.65,3.31,3.31,0,0,1,1.22-.23,3.45,3.45,0,0,1,1,.15,5.2,5.2,0,0,1,.88.35v1.21h-.06l-.3-.22a2.84,2.84,0,0,0-.44-.26,2.68,2.68,0,0,0-.53-.2,2.06,2.06,0,0,0-.59-.09,1.63,1.63,0,0,0-1.35.64,2.8,2.8,0,0,0-.51,1.8,2.92,2.92,0,0,0,.49,1.78,1.66,1.66,0,0,0,1.37.64,2.48,2.48,0,0,0,1-.22,3.33,3.33,0,0,0,.85-.57h.06v1.22l-.4.18a2.67,2.67,0,0,1-.44.16l-.49.12A2.94,2.94,0,0,1,180.51,85.62Z"/><path class="cls-2" d="M187.14,85.62a3.2,3.2,0,0,1-2.39-.87,3.34,3.34,0,0,1-.85-2.46,3.65,3.65,0,0,1,.83-2.51,2.73,2.73,0,0,1,2.15-.93,2.87,2.87,0,0,1,1.06.18,2,2,0,0,1,.81.54,2.36,2.36,0,0,1,.53.9,4.12,4.12,0,0,1,.19,1.31v.58H185a2.38,2.38,0,0,0,.57,1.72,2,2,0,0,0,1.56.6,3.27,3.27,0,0,0,.7-.08,4.08,4.08,0,0,0,.62-.21,5.6,5.6,0,0,0,.5-.26,3.66,3.66,0,0,0,.33-.23h.07v1.18l-.48.19c-.19.07-.36.13-.51.17a5.84,5.84,0,0,1-.57.14A4,4,0,0,1,187.14,85.62Zm1.27-4.09a3.17,3.17,0,0,0-.1-.75,1.52,1.52,0,0,0-.27-.54,1.3,1.3,0,0,0-.49-.37,1.92,1.92,0,0,0-.73-.12,1.85,1.85,0,0,0-.74.13,1.78,1.78,0,0,0-.55.37,1.93,1.93,0,0,0-.37.57,2.39,2.39,0,0,0-.16.71Z"/><path class="cls-2" d="M193.25,85.63a4.31,4.31,0,0,1-1.21-.17,6.19,6.19,0,0,1-.93-.37V83.87h.06l.32.24a3.58,3.58,0,0,0,.5.28,4.84,4.84,0,0,0,.61.22,2.26,2.26,0,0,0,.69.1,2.72,2.72,0,0,0,.55-.06,1.3,1.3,0,0,0,.44-.15.87.87,0,0,0,.29-.28.89.89,0,0,0,.09-.45.77.77,0,0,0-.21-.59,1.77,1.77,0,0,0-.74-.33l-.55-.12a4.54,4.54,0,0,1-.61-.15,2,2,0,0,1-1.08-.66,1.89,1.89,0,0,1,.33-2.5,2.65,2.65,0,0,1,1.74-.55,4.45,4.45,0,0,1,1.08.14,4,4,0,0,1,.91.33V80.5h-.05a3.53,3.53,0,0,0-.93-.52,2.84,2.84,0,0,0-1-.19,1.67,1.67,0,0,0-.9.23.73.73,0,0,0-.37.68.75.75,0,0,0,.22.6,1.75,1.75,0,0,0,.7.33l.54.12.62.14a2,2,0,0,1,1.08.6,1.65,1.65,0,0,1,.36,1.13,1.88,1.88,0,0,1-.16.78,1.69,1.69,0,0,1-.49.64,2.5,2.5,0,0,1-.78.44A3.37,3.37,0,0,1,193.25,85.63Z"/></g></g></svg>