<svg xmlns="http://www.w3.org/2000/svg" xmlns:xlink="http://www.w3.org/1999/xlink" viewBox="0 0 1011.61 426.36"><defs><style>.cls-1{fill:#0c0c5d;}.cls-2{fill:#9291ff;}.cls-3{fill:#533eac;}.cls-4{fill:#936315;}.cls-5{fill:#e8b15b;}.cls-6{fill:url(#linear-gradient);}.cls-7{fill:url(#linear-gradient-2);}</style><linearGradient id="linear-gradient" x1="195.04" y1="140.39" x2="260.07" y2="140.39" gradientUnits="userSpaceOnUse"><stop offset="0.7" stop-color="#d09735"/><stop offset="0.91" stop-color="#d09735"/></linearGradient><linearGradient id="linear-gradient-2" x1="130.03" y1="215.48" x2="195.04" y2="215.48" xlink:href="#linear-gradient"/></defs><title>logo_nfm</title><g id="Layer_2" data-name="Layer 2"><g id="Layer_1-2" data-name="Layer 1"><polygon class="cls-1" points="40.97 150.16 40.97 177.93 65.02 191.82 89.08 177.93 89.08 150.16 65.02 164.03 40.97 150.16"/><polygon class="cls-2" points="130.03 253 130.03 177.93 65.02 215.46 130.03 253"/><polygon class="cls-3" points="0 253 0 177.93 65.02 215.47 0 253"/><polygon class="cls-1" points="130.03 253 65.02 215.47 65.02 215.47 0 253 0 253.02 65.02 290.57 130.03 253.02 130.03 253"/><polygon class="cls-2" points="0 253.02 0 328.09 65.02 290.57 0 253.02"/><polygon class="cls-3" points="130.03 253.02 130.03 328.09 65.02 290.57 130.03 253.02"/><polygon class="cls-1" points="0 253.02 65.02 290.57 65.02 290.57 130.03 253.02 130.03 252.99 65.02 215.47 0 252.99 0 253.02"/><polygon class="cls-1" points="301.02 0 301.02 27.78 325.09 41.65 349.14 27.78 349.14 0 325.09 13.88 301.02 0"/><polygon class="cls-2" points="390.11 102.86 390.12 27.77 325.09 65.3 390.11 102.86"/><polygon class="cls-3" points="260.06 102.86 260.06 27.77 325.09 65.3 260.06 102.86"/><polygon class="cls-2" points="260.06 102.86 260.06 177.94 325.09 140.42 260.06 102.86"/><polygon class="cls-3" points="390.12 102.86 390.11 177.94 325.09 140.4 390.12 102.86"/><polygon class="cls-1" points="325.09 65.3 260.06 102.85 260.06 102.86 325.09 140.4 325.09 140.4 390.12 102.86 390.12 102.85 325.09 65.3"/><polygon class="cls-4" points="219.1 75.08 219.1 102.86 195.03 116.75 170.99 102.86 170.99 75.08 195.03 88.96 219.1 75.08"/><polygon class="cls-5" points="130.03 177.94 130.03 102.85 195.03 140.39 130.03 177.94"/><polygon class="cls-6" points="260.06 177.94 260.06 102.85 195.03 140.39 260.06 177.94"/><polygon class="cls-1" points="130.03 177.94 195.03 140.39 195.03 140.39 260.06 177.93 260.06 177.97 195.03 215.48 130.03 177.95 130.03 177.94"/><polygon class="cls-5" points="260.06 177.94 260.06 253.02 195.03 215.49 260.06 177.94"/><polygon class="cls-7" points="130.03 177.94 130.03 253.02 195.03 215.48 130.03 177.94"/><polygon class="cls-4" points="260.06 177.94 195.04 215.48 195.03 215.48 130.03 177.94 130.03 177.91 195.03 140.39 260.06 177.91 260.06 177.94"/><polygon class="cls-1" points="876.99 307.61 886.36 307.61 886.36 291.45 898.86 271.39 898.86 269.95 888.6 269.95 881.86 282.3 881.5 282.3 874.76 269.95 864.54 269.95 864.54 271.39 876.99 291.45 876.99 307.61"/><path class="cls-1" d="M803.34,307.61V289l19.08,18.65h3V270.1h-9.69v18.18L797,270h-3.44v37.66Z"/><path class="cls-1" d="M947.24,307.61V293h3.84l7.6,13.38.7,1.23h10.2v-2.07l-10.5-17.05,10.5-17.06V270H959.06l-8,14h-3.84V270H937.6v37.66Z"/><path class="cls-1" d="M983.32,307.61l2.24-4.77h14.61l2.23,4.77h9.21v-1.49L994.87,270H990.8l-16.68,36.17v1.49Zm9.5-22.61,4.27,9.73h-8.47Z"/><path class="cls-1" d="M903.76,307.61l2.24-4.77h14.61l2.23,4.77h9.21v-1.49L915.31,270h-4.07l-16.68,36.17v1.49ZM913.24,285l4.31,9.73h-8.49Z"/><path class="cls-1" d="M840.74,307.61l2.22-4.77h14.63l2.23,4.77H869v-1.49L852.29,270H848.2l-16.68,36.17v1.49ZM850.22,285l4.29,9.73H846Z"/><path class="cls-1" d="M803,354.85V368h-9.42V330.36h22.58v8.28H803v7.92h11.66v8.29Z"/><path class="cls-1" d="M843.39,355.29V330.36h8.85v25.08c0,8-6.88,12.59-14.34,12.59s-14.4-4.62-14.4-12.59V330.36h8.87v24.93c0,2.95,2.84,4.41,5.53,4.41S843.39,358.24,843.39,355.29Z"/><path class="cls-1" d="M878.92,356.54c0-2.55-3-3.11-6.63-3.33-7.85-.56-13-3.25-13.13-11.14-.33-15.62,27.85-15.62,27.63,0H878c0-4.79-9.73-4.39-10-.08-.2,2.73,2.48,3.3,5.75,3.67,7.18.77,14.23,1.87,14.23,10.93,0,15.22-29.51,15.47-29.3-.48h9C867.59,360.72,878.92,360.78,878.92,356.54Z"/><polygon class="cls-1" points="894.85 330.37 894.85 340.36 894.85 343.47 894.85 353.5 894.85 357.26 894.85 368.04 904.02 368.04 904.02 357.26 904.02 353.5 904.02 343.47 904.02 340.36 904.02 330.37 894.85 330.37"/><path class="cls-1" d="M894.34,424.82h-14V387.15h14C918.5,387.26,918.5,424.71,894.34,424.82Zm-4.5-8.76h4.5c11.82,0,11.82-20.13,0-20.13h-4.5Z"/><path class="cls-1" d="M845.88,424.82,848.1,420h14.62l2.24,4.78h9.2v-1.49l-16.73-36.18h-4.09l-16.69,36.18v1.49Zm9.48-22.63,4.28,9.75h-8.46Z"/><path class="cls-1" d="M923.13,424.82l2.24-4.78H940l2.23,4.78h9.21v-1.49l-16.74-36.18h-4.07l-16.68,36.18v1.49Zm9.48-22.63,4.3,9.75h-8.48Z"/><polygon class="cls-1" points="803.23 424.83 803.23 408.18 811.09 416.45 812.13 416.45 820.02 408.18 820.02 424.83 829.72 424.83 829.72 387.52 826.33 387.52 811.56 403.62 797.04 387.52 793.54 387.52 793.54 424.83 803.23 424.83"/><path class="cls-1" d="M979.81,387.31v18.17l-18.75-18.33h-3.44v37.68h9.8V406.16l18.1,17.71,1,1h3V387.31Z"/><polygon class="cls-1" points="1008.44 424.83 1008.44 414.32 1008.44 411.52 1008.44 399.87 1008.44 396.85 1008.44 387.15 999.07 387.15 999.07 396.85 999.07 399.87 999.07 411.52 999.07 414.32 999.07 424.83 1008.44 424.83"/><path class="cls-1" d="M317.69,426.36V348.9l79.21,77.46h12.51V270.6H369.16v75.46L291.3,270H277V426.36Z"/><path class="cls-1" d="M484.65,371.66v54.7H445.51V270H557.1v34.4H484.65v32.9h66.21v34.41Z"/><polygon class="cls-1" points="629.92 424.88 629.92 355.73 662.47 390.04 666.87 390.04 699.64 355.73 699.64 424.88 739.89 424.88 739.89 269.95 725.82 269.95 664.44 336.81 604.17 269.95 589.67 269.95 589.67 424.88 629.92 424.88"/></g></g></svg>