<svg xmlns="http://www.w3.org/2000/svg" viewBox="0 0 399.4 65.69"><defs><style>.cls-1{fill:#9fcced;}.cls-1,.cls-2,.cls-3,.cls-4,.cls-5,.cls-6,.cls-7{fill-rule:evenodd;}.cls-2{fill:#4c84ba;}.cls-3{fill:#759cc8;}.cls-4{fill:#7eb4e1;}.cls-5{fill:#b4cbd6;}.cls-6{fill:#cae6f8;}.cls-7{fill:#242464;}.cls-8{font-size:12.25px;font-family:ArialNarrow-Bold, Arial;}.cls-8,.cls-9{fill:#231f20;font-weight:700;}.cls-9{font-size:15.79px;font-family:TimesNewRomanPS-BoldMT, Times New Roman;}.cls-10{letter-spacing:-0.06em;}</style></defs><title>logo_wereldpsycho</title><g id="Layer_2" data-name="Layer 2"><g id="Layer_1-2" data-name="Layer 1"><path class="cls-1" d="M68.21,17.81c-.54.86-.22,8.63-.33,10.47a14.93,14.93,0,0,1-.54,5c-.64,2.37-1,1.83-1.72,3.56l.64-.11c0,.76-.1,2.38,0,3C66.59,41.55,73,47.49,74,50.4H66.59c-2.48,0-4.64-.54-6.15,1S54,57.63,50.51,56.12c.64,1.08,1.62.65,3,.86,1.73.11,2.16-.11,2.27,1.41-1.08.75-9.07.32-11.12.32-2.37,0-9.61.75-11.12-.43.65-2.16,3.89-.54,5.18-2.05C34.75,57.09,31,53,29,51.15c-2.16-2-9.93-.75-13.27-1.18.32-1,5.5-7.34,6.69-8.74,2.05-2.49.21-2.49,1.4-3.78-1-1.94-1-1.08-2.05-4.64-1.19-4.1,1-15.43-1.4-17.59,1,2.8.64,5,.64,8.09,0,7.12,1.08,6.26-2.05,10.36l-5.28,6.69c-1.3,1.51-2.38,3.46-3.57,4.75l-6.79,9c-1.3,2-2.49,2.48-3.35,4.85l91.09.44c-1.3-3-3.35-4.1-5.29-7L71.55,34.43C67.34,29.25,68.21,30,68.21,26v-8.2Z"/><path class="cls-2" d="M22.66,20.94c0-2.16.76-4.1-.32-6.37l3.24.65,1.18,4.53c1.3,4.42.44,10.68,1.08,15.54a11.93,11.93,0,0,0,.87,2.81c.21.54,0,.1.32.64l.32.54a3.93,3.93,0,0,1,.54,1c-1.72-.1-1.18.22-2.05-.86-.1,0-.1-.11-.21-.21l-3.35-4.75c-1.62-3.78-1.62-9.5-1.62-13.49ZM35.18,13.6l19-.11c-1.08.22-2.16.32-3.35.54-4.21.65-3.34,6.37-3.34,11.22,0,2.05-.33,16.62.21,17.27l2.27.76c2.16.21,8.31-1.51,9.71-4.43a1.13,1.13,0,0,0,.22-.54c.21-.43.1-.32.21-.75,1.73-5.29,1.08-13,2.27-18.57.75-3.45,2.59-5.28,6-4.74-2.59,1.94-1.72,7-1.72,12.41,0,9-1.62,7.87-3.13,10.9C60.87,42.84,51.05,42.41,47.7,44a38.91,38.91,0,0,0-.21,8c.1,4.64,1.61,3.34,2.15,5.5L39,57.63c.54-.11.75-.54,1.51-1.3,1.94-1.94,1.62-5.61,1.62-9.28-.11-2.48-.43-1.4-.76-2.8s.44-.76.65-2.59,0-5.4,0-7.34c0-2.59-.32-4.64-.21-7,.1-2.69,1.07-10.57-1.3-12.62-.86-.76-4-1-5.29-1.08ZM34,14.14c1.29,1.08,2.26.54,4.2,1,1.62.32,1.95,1.08,2.27,2.48l-.11.11c.43.43.54-.32.43,2.91-.1,4,.44,20.62-.21,21.37-1.84,1.08-8.1-1.29-9.28-2.91C29.14,36.26,29,32.16,29.25,27.3c-.22-1.18-.44-3.45.1-4.53-.54-.65-.64-2.05-1-3-.32-2.81-1.29-5.61-3.56-6.37-2.05-.75-6.69-1.29-8.63-.65l.11,1.62,4.1.87c2.37,2.16.21,13.49,1.4,17.59,1.08,3.56,1.08,2.7,2.05,4.64.76.75,1.08,1.73,2.59,2.91,1.08.54,1.84,1.08,2.91,1.62s2.38.65,3.57,1.08c2.48.86,5.61.76,7.44,1.51.65,1.94.65,7.23,0,9.61,0,.1-.11.43-.11.54-.21.64-.1.32-.43.75a8.4,8.4,0,0,1-1.08.76c-1.29,1.51-4.53-.11-5.18,2.05,1.51,1.18,8.75.43,11.12.43,2,0,10,.43,11.12-.32-.11-1.52-.54-1.3-2.27-1.41-1.4-.21-2.38.22-3-.86l-1-.54c-1.52-1.94-1.19-9.07-1-10.9,2.49-.86,5.18-.65,7.77-1.62a51.18,51.18,0,0,0,7-3c1.08-.54,1.73-2,2.27-3.24.75-1.73,1.08-1.19,1.72-3.56a14.93,14.93,0,0,0,.54-5c.11-1.84-.21-9.61.33-10.47.1-5.83,4.64-1,5-5-2.27-.75-5.4-.32-7.66.33a5.32,5.32,0,0,0-4,4.42c-.22,1.62-.76,3.13-.87,4.1-.21,1.41.33,1.94-.11,3.56-.21,1-.1.44-.21.76v.43c-.22,2.37-.22,4.75-.33,7.23A8.34,8.34,0,0,1,58.17,39c-1.73,2.16-6.8,3.56-9.61,3-.1-3.24-.43-23,.22-24.82,2.37-3.13,2.27-1.62,6.37-2.59l.11-1v-.87l-1-.32-19.1-.11c-1,.11-1.08.87-1.18,1.84Z"/><path class="cls-3" d="M62.81,24c.11-7.77,2.91-8.31,3.35-8.85a11,11,0,0,1-.54,2.8c-.44,1.95.54,9.93-.33,13.71-.32,1.3-2.48,6-3.45,6.69-.22-.43-.32-.43-.11-1.4a6.23,6.23,0,0,0,.43-1.51,13.88,13.88,0,0,0,.33-3.78c0-2.59.32-5.4.32-7.66ZM43.28,36.05c0-3.78,0-7.67-.11-11.44,0-4.86.65-7-1.08-9.72h4.75a7.47,7.47,0,0,1-.76,2.49L46,48.67c-.1,5.94.54,5.61.54,7.45H42.63c.11-1.51.43-2.38.54-3.78.32-4-.11-5.61-.22-8.42-.11-1,.33-1.94.33-3.56ZM35.18,13.6c1.3.11,4.43.32,5.29,1.08,2.37,2.05,1.4,9.93,1.3,12.62-.11,2.38.21,4.43.21,7,0,1.94.22,5.5,0,7.34s-1,1.18-.65,2.59.65.32.76,2.8c0,3.67.32,7.34-1.62,9.28-.76.76-1,1.19-1.51,1.3l10.68-.11c-.54-2.16-2-.86-2.15-5.5a38.91,38.91,0,0,1,.21-8c3.35-1.62,13.17-1.19,15.87-6.47,1.51-3,3.13-2,3.13-10.9,0-5.4-.87-10.47,1.72-12.41-3.45-.54-5.29,1.29-6,4.74-1.19,5.62-.54,13.28-2.27,18.57-.11.43,0,.32-.21.75a1.13,1.13,0,0,1-.22.54c-1.4,2.92-7.55,4.64-9.71,4.43l-2.27-.76c-.54-.65-.21-15.22-.21-17.27,0-4.85-.87-10.57,3.34-11.22,1.19-.22,2.27-.32,3.35-.54Z"/><path class="cls-1" d="M60.33,26.44c-1.3,0-2.38-2.37-3.67-2.91L54.5,22.45l-1,1.83c0,.11.11.11.21.11s.11.11.22.22l1,.32c-.11,3.78.33,5-1,8.42-1.08-.43-.75,1.18-2.27,3.13-.75,1-1.08,1-1.4,1.83-.75,1.73.22,1.73-1.19,1.84L49,19.64l-.22-2.16,3,.43c-.21-.1-.32-.21-.75-.43a4.52,4.52,0,0,0-.76-.32c-1.19-.22-.43-.22-1.51,0C48.13,19,48.46,38.74,48.56,42c2.81.54,7.88-.86,9.61-3A8.34,8.34,0,0,0,60,33.67c.11-2.48.11-4.86.33-7.23Z"/><path class="cls-4" d="M35.18,12.3l19.1.11c-.32-1-5.39-7.23-7-9.5L44.68,0c-1.4.54-9.28,11.87-9.5,12.3Z"/><path class="cls-4" d="M49.54,55.58c.21-1.73.54-.11,4.64-2.59,4.42-2.59,8.63-6.58,9.17-13a51.18,51.18,0,0,1-7,3c-2.59,1-5.28.76-7.77,1.62-.21,1.83-.54,9,1,10.9Z"/><path class="cls-5" d="M43.28,36.05v4.31c0,1.62-.44,2.59-.33,3.56.11,2.81.54,4.43.22,8.42-.11,1.4-.43,2.27-.54,3.78h3.88c0-1.84-.64-1.51-.54-7.45l.11-31.29a7.47,7.47,0,0,0,.76-2.49H42.09c1.73,2.7,1.08,4.86,1.08,9.72.11,3.77.11,7.66.11,11.44Z"/><path class="cls-1" d="M39.82,55.47c.33-.43.22-.11.43-.75,0-.11.11-.44.11-.54.65-2.38.65-7.67,0-9.61-1.83-.75-5-.65-7.44-1.51-1.19-.43-2.49-.65-3.57-1.08s-1.83-1.08-2.91-1.62a18.44,18.44,0,0,0,1.84,5.4c2.37,3.88,2.91,4.64,7,7.12,2.81,1.73,4.1,1.4,4.53,2.59Z"/><path class="cls-5" d="M22.66,20.94c0,4,0,9.71,1.62,13.49l3.35,4.75c.11.1.11.21.21.21.87,1.08.33.76,2.05.86a3.93,3.93,0,0,0-.54-1L29,38.74c-.32-.54-.11-.1-.32-.64a11.93,11.93,0,0,1-.87-2.81c-.64-4.86.22-11.12-1.08-15.54l-1.18-4.53-3.24-.65c1.08,2.27.32,4.21.32,6.37Z"/><path class="cls-6" d="M56.66,23.53c-.54-1,0-.22-.86-1.08-1.08-1.19-5.51-2.7-6.8-2.81l.1,20.51c1.41-.11.44-.11,1.19-1.84.32-.86.65-.86,1.4-1.83,1.52-1.95,1.19-3.56,2.27-3.13,1.3-3.46.86-4.64,1-8.42l-1-.32c-.11-.11-.22-.11-.22-.22s-.21,0-.21-.11l1-1.83Z"/><path class="cls-6" d="M29.25,27.3c-.22,4.86-.11,9,2.05,11.77,1.18,1.62,7.44,4,9.28,2.91.65-.75.11-17.37.21-21.37.11-3.23,0-2.48-.43-2.91l-.11,17.05c-1.72.32-4.42-.11-5.39.11-1.4.21-.65-.54-1,.65a.38.38,0,0,0-.11-.22l-.22-.43c-.54-1.3,0-.86-1-1.84s-.43.44-.75-.86c-.54.65-.43-.22-.65,1.4-.54-1.29.11-.43-1.08-.86Z"/><path class="cls-5" d="M62.81,24c0,2.26-.32,5.07-.32,7.66a13.88,13.88,0,0,1-.33,3.78,6.23,6.23,0,0,1-.43,1.51c-.21,1-.11,1,.11,1.4,1-.65,3.13-5.39,3.45-6.69.87-3.78-.11-11.76.33-13.71a11,11,0,0,0,.54-2.8c-.44.54-3.24,1.08-3.35,8.85Z"/><path class="cls-4" d="M48.78,17.16c1.08-.22.32-.22,1.51,0a4.52,4.52,0,0,1,.76.32c.43.22.54.33.75.43,2.48,1.08,3.24.87,5.51,2.49.64.54,1.4,1.18,2.15,1.83,1.3,1.08.76,2.05.87,3.78.11-.32,0,.21.21-.76.44-1.62-.1-2.15.11-3.56.11-1,.65-2.48.87-4.1-.87.86-.44,1.3-.87,2.38A24.26,24.26,0,0,1,58,17.05c-.43-.54-.75-1.08-1.18-1.73L55.26,13.6l-.11,1c-4.1,1-4-.54-6.37,2.59Z"/><path class="cls-4" d="M28.38,19.75c.33,1,.43,2.37,1,3,1.19-.43,3.57-2.7,5-3.56,1.19-.54,5-1.83,6.15-1.62-.32-1.4-.65-2.16-2.27-2.48-1.94-.43-2.91.11-4.2-1-1.08.54-2.06,2.26-2.59,3.13-.44.54-.87,1.18-1.3,1.62-.54.64-.65,1.08-1.73.86Z"/><path class="cls-7" d="M91.05,18.36c2.13,1.5,1.5-1.13,3.51,4.88,1.12,3.5,5.5,18.64,6.38,19.77h2.12l5-15.77c.5-.75.25-.37.87-1L114,43h2.25l7-21.4c1-3.12,3.13-3.5,6.25-2.5.76,2,1.13,19.9.25,22-.75,1.63-1.75.63-3,1.75h22.65l.12-10c-1.37,1.26-2.37,4.51-4.25,7s-4.5,2.5-8,2.25V30.75c2.63-.13,3.51.87,4.26,3.38l.87,2.12c0-1.87.25-9.63-.25-11.38a.39.39,0,0,0-.12-.25c-1.13,3.12-.63,5.63-4.76,5.38V18.86c9.14-.75,8.76,7.38,11.64,9.26v-10c-4.76,0-27.78-.5-29,.25,1.13.75,4.63-.75,1.63,7l-2,6.25c-.5,1.38-.12,1.38-1.12,1.75-.88-2.5-1.38-5-2.25-7.75-2.63-7.64-.88-6,.87-7.26-1.25-.63-11.76-.5-12.51,0,1.5,1.13,1.75,0,2.63,2.38,1.87,4.75.75,4.75-.25,8.26a12.19,12.19,0,0,1-.5,2l-.38,1.12c-.5,1-.12.38-.62,1-1.13-1.62-1.51-4.25-2.13-6.5-.63-2-2-5-1.5-7.51l1.62-.62c-1.12-.76-11.51-.51-12.26-.13Z"/><path class="cls-7" d="M346.05,18.36c2.88,2.13,3.13-2.75,3.13,9.26,0,4.38.12,9.13-.13,13.39a3,3,0,0,1-1.12,1l-1.88.87h12.64c-.63-.62,0-.12-1-.75a12.47,12.47,0,0,1-1.25-.5l-.13-10.76h6.51l-.13,10.76-1.75.75c-.88.38-.25,0-.75.5l12.26-.37-2.25-.88c-.38-1.75-.75-19.77.5-22.64l2.38-.5c-.75-.63-12.14-.63-13-.13,1.88,1.38,2.63-.88,2.76,3.88v7.63h-6.51c0-2.75-.25-8.13.25-10.63l2.25-.75c-1.12-.76-11.76-.76-12.76-.13Z"/><path class="cls-7" d="M162.62,18.86c2.5,0,4.63,0,4.63,5.76-.12,4.38-.87,5.38-4.63,5.25Zm-10.38-.5c.87.5,1.75.38,2.87,1,.63,2.63.88,19.9,0,22-.75,1.13-1.87.5-3,1.5l13.14-.37c-.5-.25-.38-.13-.88-.38a6.91,6.91,0,0,1-1.37-.62c-.63-2.75-.25-7.63-.38-10.64,3.38,0,3,.5,3.51,4.13.25,2.13.37,4.63,1.37,6,2.25,3,7.88,2.75,9.51-.5l-1.5-.75c-1.13-.88-.75-2.88-2.25-5.26-2.38-3.75-3.13-1.88-5.38-3.75,2.75-1.13,4.63.37,6.25-3.88a6.31,6.31,0,0,0-2.62-7.76c-1.88-1.13-17.15-1.88-19.27-.75Z"/><path class="cls-7" d="M238.82,19c3.5-.38,4.76.62,5.76,3.5a30.16,30.16,0,0,1,.12,16.64c-.87,3.13-2.75,3.25-5.88,3Zm-10.38-.63c1.75,1.25,3.25-1.25,3.25,5.38,0,2.13.5,16.64-.38,17.77s-1.87.37-3,1.37c11.39.5,26.78,2.88,25.28-13.51a11.83,11.83,0,0,0-8.39-10.63c-2.38-.63-15-1.38-16.76-.38Z"/><path class="cls-7" d="M391.47,30.37c0,4.26.25,12-3.88,12.26s-4-8-4-11.88c0-4.38,0-12.14,3.75-12.39,4.13-.25,4.13,8.13,4.13,12Zm-6-12.39c-16,3.76-10.88,28.91,4.76,25s9.63-28.4-4.76-25Z"/><path class="cls-7" d="M266.47,18.86c4.51-.12,4.76,1.5,4.76,6.51,0,4.63-.38,6.25-4.63,6.25Zm-10.63-.5c2,1.38,3.5-1.5,3.5,5.88,0,1.88.38,16-.37,17.14s-.88.5-2.26,1c-.5.25-.37.13-.75.5h13.89c-.75-.75-1.5-.37-3.13-1.37l-.12-9.14c3.38-.75,7.38.88,10.13-1.87,2.38-2.38,2.25-7.76.13-10-2.38-2.76-5.63-2.38-9.51-2.38-2.13,0-10.26-.5-11.51.25Z"/><path class="cls-7" d="M178.76,18.36c1.75,1.25,3.13-.5,3.38,2.75a62.62,62.62,0,0,1,.13,6.88c0,3.26.25,10.77-.25,13.52-1.63,1-2.26.62-3.13,1.37h22.77V32.62l-1,1.76c-3.38,7-4.88,8.25-11.14,7.75l-.12-11.26c3.38-.5,3.38,1.63,4.38,3a3,3,0,0,0,.75,1V25.62c-1.75,1.75-1,4.88-5.13,4.25v-11c8.26-1.5,9.26,7.51,11.51,9.13.62-1.62.37-7.63.12-9.75-2.25-.38-21.27-.51-22.27.12Z"/><path class="cls-7" d="M204.41,18.36c1.38.88,1.5-.25,3,1.25.5,1.88.37,18.64.25,21.52-.38.75-2.13,1.13-2.88,1.38l22,.25V31.25c-1,.5-2.25,4.25-4.38,7.25s-3.13,3.76-7.51,3.63V24.24c0-7.88.63-4,3.38-5.88-.88-.5-12.89-.5-13.89,0Z"/><path class="cls-7" d="M281.11,31.62c-.5,1.25-.5,10.26,0,11.51l.88-3c3.13-.5,5.25,4.13,10.38,3a14.63,14.63,0,0,0,4.38-2.37c2.63-2.88,3.26-9.76-4.25-13.64-3-1.63-7.88-1.75-7.26-6.76.75-2.12,6.63-4.5,10.39,4.38.62,1.25.25,1.25,1.25,1.88,0-2,.37-7.63-.25-8.89-.5,1-.25,1.63-.88,2.76-2.75.37-7.51-6.88-13.14.37a10.28,10.28,0,0,0-1.12,8.26c1.62,4.88,9.63,5.76,11.76,8,4.25,4.63-4.63,8.76-9,1.75-2-3.13-2.38-6.38-3.13-7.26Z"/><path class="cls-7" d="M343.92,34.5c-2,0-.62,8.51-8,7.26-6.51-1.25-6.51-22.77.37-22.77,4.88-.13,4.88,6.13,6.76,9.51.25-.51.25,0,.37-.88.25-1.5.25-8.38-.37-9.38a7.51,7.51,0,0,1-1,2.37c-1.88,0-7-5.88-13.89-1-8.14,5.88-7,22.9,5.63,23.65,7,.5,8.51-3.5,10.13-8.76Z"/><path class="cls-7" d="M298.63,18.36c1.12.88,1.25.13,2.38,1.5.75.75,6.75,11.51,6.88,13.64a60.36,60.36,0,0,1-.25,8.26c-1,.5-2.25.5-3.13,1.12h13.76c-1.25-1.12-2.12-.12-2.87-1.75S315,35.75,315,33.5c0-5.13,1.5-6.13,4.13-11.51,2-4.13,1.63-2,4.13-3.63-1.25-.63-5.38-.63-6.51,0l2.13.75c.12,3.5-3,7.38-4.13,10.26-1.25-.62-1.63-2.13-3.13-4.5-.87-1.5-2.13-3.88-2.13-5.76l2.38-.62c-1.25-.76-12-.76-13.26-.13Z"/><text class="cls-8" transform="translate(90.63 11.72) scale(0.9 1)">forum voor discussie en ontwikkeling van het psychologisch onderzoek</text><text class="cls-9" transform="translate(239.34 60.52) scale(0.93 1)">Asian<tspan class="cls-10" x="38.62" y="0"> </tspan><tspan x="41.7" y="0">Australian Regions</tspan></text></g></g></svg>