<svg xmlns="http://www.w3.org/2000/svg" viewBox="0 0 177.58 81.24"><defs><style>.cls-1{fill:#fff;}</style></defs><title>Asset 1BAM</title><g id="Layer_2" data-name="Layer 2"><g id="Layer_1-2" data-name="Layer 1"><path class="cls-1" d="M22,32.34a11,11,0,0,0-3.24-1.75,11.9,11.9,0,0,0-3.9-.63,8.84,8.84,0,0,0-4.16,1,10,10,0,0,0-3.35,2.83,13.52,13.52,0,0,0-2.19,4.34,18.3,18.3,0,0,0-.78,5.51A17.57,17.57,0,0,0,5.2,49.1a14.28,14.28,0,0,0,2.23,4.31,10.11,10.11,0,0,0,3.35,2.82,9,9,0,0,0,4.23,1,13.67,13.67,0,0,0,3.87-.52A14.4,14.4,0,0,0,22.53,55l-.9,4.39a9.46,9.46,0,0,1-3.12,1.22,18.85,18.85,0,0,1-4,.41A13.28,13.28,0,0,1,8.81,59.8a13.52,13.52,0,0,1-4.57-3.45,16.74,16.74,0,0,1-3.08-5.47A21.15,21.15,0,0,1,0,43.64a21.94,21.94,0,0,1,1.12-7.25A16.54,16.54,0,0,1,4.2,30.88a13.85,13.85,0,0,1,4.61-3.49,13.43,13.43,0,0,1,5.69-1.22,15.16,15.16,0,0,1,4.68.67,16.71,16.71,0,0,1,3.57,1.56Z"/><path class="cls-1" d="M49.08,61.1a6.6,6.6,0,0,1-2.82-1.59,5.21,5.21,0,0,1-1.62-3,7.79,7.79,0,0,1-3.19,3.3A9.52,9.52,0,0,1,36.68,61a8.49,8.49,0,0,1-6.51-2.67,9.8,9.8,0,0,1-2.49-7,11.31,11.31,0,0,1,.78-4.34,10,10,0,0,1,2.08-3.23,9.81,9.81,0,0,1,3-2.07A10.67,10.67,0,0,1,37,40.86l6.62-.67V36.86A7.23,7.23,0,0,0,42,31.78,6.22,6.22,0,0,0,37.19,30a11.81,11.81,0,0,0-7,2.38l-.74-3.79A11.28,11.28,0,0,1,33,26.8a15.5,15.5,0,0,1,4.48-.63A10.48,10.48,0,0,1,45.13,29C47.08,30.87,48,33.6,48,37.17V52.7a5.56,5.56,0,0,0,1.12,3.83,5.18,5.18,0,0,0,2.53,1.6ZM43.66,43.78l-6,.6a6,6,0,0,0-4.2,2.08,7.24,7.24,0,0,0-1.6,4.91,6.34,6.34,0,0,0,1.48,4.31,4.61,4.61,0,0,0,3.58,1.71,5.46,5.46,0,0,0,2.41-.6,7.2,7.2,0,0,0,2.19-1.63,8.51,8.51,0,0,0,1.57-2.49,8.38,8.38,0,0,0,.59-3.16Z"/><path class="cls-1" d="M66.51,60.88h-2L53.2,26.76h4.31l5.57,17c.45,1.29.89,2.65,1.3,4.09s.83,2.88,1.23,4.32h.15c.35-1.44.73-2.87,1.15-4.28s.86-2.79,1.3-4.13l5.58-17h4Z"/><path class="cls-1" d="M90.46,61.33a8.21,8.21,0,0,1-1.95-.93,6.71,6.71,0,0,1-1.73-1.64,7.78,7.78,0,0,1-1.21-2.41A11.07,11.07,0,0,1,85.11,53V0H89.5V52.63a6.2,6.2,0,0,0,1,3.79,5.19,5.19,0,0,0,2.6,1.93Z"/><path class="cls-1" d="M123.35,40c0,.55-.06,3.44-.16,3.74l-2.53,0H103.13a14.49,14.49,0,0,0,.56,5,13.7,13.7,0,0,0,2.08,4.35,10.42,10.42,0,0,0,3.4,3,9.06,9.06,0,0,0,4.48,1.12,12.71,12.71,0,0,0,8.21-2.9l-1,4.68a12.12,12.12,0,0,1-3.35,1.49,16.65,16.65,0,0,1-4.38.52,12.89,12.89,0,0,1-5.69-1.27,13.58,13.58,0,0,1-4.57-3.56,17.3,17.3,0,0,1-3-5.5,21.17,21.17,0,0,1-1.12-7.06,22.43,22.43,0,0,1,1.08-7.21,18,18,0,0,1,2.89-5.51,13,13,0,0,1,4.21-3.53,10.78,10.78,0,0,1,5-1.22,10.73,10.73,0,0,1,8.58,3.9,11.65,11.65,0,0,1,2.16,4,15.14,15.14,0,0,1,.71,4.6Zm-4.69-4.34a9.75,9.75,0,0,0-1.34-2.9,7.43,7.43,0,0,0-2.21-2.12,5.69,5.69,0,0,0-3.1-.82,5.92,5.92,0,0,0-3.1.86A9.41,9.41,0,0,0,106.3,33a13.47,13.47,0,0,0-1.94,3.31,13.94,13.94,0,0,0-1,3.86H119a2.27,2.27,0,0,0,.07-.67V38.8A11.51,11.51,0,0,0,118.66,35.65Z"/><path class="cls-1" d="M148.57,60.44V37.17a7.48,7.48,0,0,0-1.78-5.28A6.76,6.76,0,0,0,141.54,30a7.35,7.35,0,0,0-5.36,2,7,7,0,0,0-2,5.24V60.44h-4.39V26.76h4l.07,3.57a9.35,9.35,0,0,1,3.07-2.9,10.62,10.62,0,0,1,5.59-1.26A9.83,9.83,0,0,1,153,36.72V60.44Z"/><path class="cls-1" d="M176.91,30.4h-9V52.26a5,5,0,0,0,1.15,3.64A3.93,3.93,0,0,0,172,57.09a5.36,5.36,0,0,0,3.21-.82l-.82,4.09a6.81,6.81,0,0,1-3,.52,7.85,7.85,0,0,1-5.61-2.15q-2.27-2.16-2.27-6.32v-22H158V26.76h5.58V19.63l4.31-2.23v9.36h9.66Z"/><path class="cls-1" d="M5.66,78.84a3.74,3.74,0,0,1-1.28-.21,2.75,2.75,0,0,1-1-.65,3.06,3.06,0,0,1-.65-1.1,4.82,4.82,0,0,1-.23-1.55,4.39,4.39,0,0,1,.24-1.53,3.24,3.24,0,0,1,.64-1.09,2.61,2.61,0,0,1,1-.68,3.39,3.39,0,0,1,1.28-.24A3.85,3.85,0,0,1,6.73,72a6.09,6.09,0,0,1,.92.36v1.28H7.58a3.43,3.43,0,0,0-.31-.24,3.11,3.11,0,0,0-.46-.27,3,3,0,0,0-.56-.21,2.2,2.2,0,0,0-.61-.09,1.74,1.74,0,0,0-1.42.66,3,3,0,0,0-.53,1.89,2.92,2.92,0,0,0,.52,1.86,1.69,1.69,0,0,0,1.43.67,2.59,2.59,0,0,0,1.06-.23A3.16,3.16,0,0,0,7.58,77h.07v1.27l-.42.19-.46.17-.52.13A3.2,3.2,0,0,1,5.66,78.84Z"/><path class="cls-1" d="M15,78.69H13.83V74.85a7.64,7.64,0,0,0,0-.86,2,2,0,0,0-.17-.65.92.92,0,0,0-.39-.37,1.44,1.44,0,0,0-.68-.13,2,2,0,0,0-.87.23,4.67,4.67,0,0,0-.88.59v5H9.67V69.3H10.8v3.4a4.61,4.61,0,0,1,1-.7,2.33,2.33,0,0,1,1-.24,2,2,0,0,1,1.56.66A2.84,2.84,0,0,1,15,74.31Z"/><path class="cls-1" d="M21.31,78l-.37.29a2.28,2.28,0,0,1-.45.29,2.55,2.55,0,0,1-.58.24,2.72,2.72,0,0,1-.79.09,2.14,2.14,0,0,1-.79-.16,1.83,1.83,0,0,1-.65-.44,2,2,0,0,1-.44-.68,2.32,2.32,0,0,1-.16-.87,2.36,2.36,0,0,1,.29-1.19,2.05,2.05,0,0,1,.94-.78,4.84,4.84,0,0,1,1.34-.36c.51-.06,1.07-.11,1.66-.15V74a1.43,1.43,0,0,0-.12-.64.88.88,0,0,0-.33-.38,1.44,1.44,0,0,0-.54-.19,4.4,4.4,0,0,0-.64,0,4.22,4.22,0,0,0-.92.12,5.52,5.52,0,0,0-1.07.34h-.06V72.09c.21-.06.51-.12.9-.19a5.7,5.7,0,0,1,1.16-.11,5,5,0,0,1,1.17.11,2.2,2.2,0,0,1,.85.39,1.59,1.59,0,0,1,.55.72,2.82,2.82,0,0,1,.18,1.07v4.61H21.31Zm0-.94V75.16l-1,.1a5.18,5.18,0,0,0-1,.18,1.83,1.83,0,0,0-.75.42,1.09,1.09,0,0,0-.29.8,1.12,1.12,0,0,0,.33.88,1.38,1.38,0,0,0,1,.29,2,2,0,0,0,1-.23A3.71,3.71,0,0,0,21.31,77Z"/><path class="cls-1" d="M28.6,73.17h-.06a1.28,1.28,0,0,0-.27,0h-.34a2.26,2.26,0,0,0-.91.2,3,3,0,0,0-.86.59v4.79H25V72h1.14v1a5.15,5.15,0,0,1,1.08-.77,1.94,1.94,0,0,1,.9-.23h.26l.2,0Z"/><path class="cls-1" d="M34,78l-.37.29a3.06,3.06,0,0,1-.45.29,2.75,2.75,0,0,1-.58.24,2.72,2.72,0,0,1-.79.09,2.1,2.1,0,0,1-.79-.16,2,2,0,0,1-.66-.44A2.13,2.13,0,0,1,30,77.6a2.32,2.32,0,0,1-.17-.87,2.26,2.26,0,0,1,.3-1.19,2.05,2.05,0,0,1,.94-.78,4.76,4.76,0,0,1,1.33-.36c.52-.06,1.08-.11,1.67-.15V74a1.43,1.43,0,0,0-.12-.64.84.84,0,0,0-.34-.38,1.33,1.33,0,0,0-.53-.19,4.49,4.49,0,0,0-.64,0,4.31,4.31,0,0,0-.93.12,5.44,5.44,0,0,0-1.06.34h-.07V72.09c.21-.06.51-.12.9-.19a5.76,5.76,0,0,1,1.16-.11,5,5,0,0,1,1.17.11,2.18,2.18,0,0,1,.86.39A1.66,1.66,0,0,1,35,73a2.82,2.82,0,0,1,.18,1.07v4.61H34ZM34,77V75.16l-1,.1a5,5,0,0,0-1,.18,1.83,1.83,0,0,0-.75.42,1.05,1.05,0,0,0-.29.8,1.12,1.12,0,0,0,.32.88,1.42,1.42,0,0,0,.95.29,2,2,0,0,0,1-.23A3.71,3.71,0,0,0,34,77Z"/><path class="cls-1" d="M40.41,78.84a3.68,3.68,0,0,1-1.27-.21,2.71,2.71,0,0,1-1-.65,2.91,2.91,0,0,1-.64-1.1,4.56,4.56,0,0,1-.23-1.55,4.65,4.65,0,0,1,.23-1.53,3.41,3.41,0,0,1,.64-1.09,2.78,2.78,0,0,1,1-.68,3.43,3.43,0,0,1,1.28-.24,3.79,3.79,0,0,1,1.07.16,6.09,6.09,0,0,1,.92.36v1.28h-.07a3.43,3.43,0,0,0-.31-.24,3.11,3.11,0,0,0-.46-.27,2.88,2.88,0,0,0-.55-.21,2.32,2.32,0,0,0-.62-.09,1.71,1.71,0,0,0-1.41.66,3,3,0,0,0-.54,1.89A2.92,2.92,0,0,0,39,77.19a1.69,1.69,0,0,0,1.43.67,2.59,2.59,0,0,0,1.06-.23,3.16,3.16,0,0,0,.88-.59h.07v1.27L42,78.5a4.51,4.51,0,0,1-.46.17L41,78.8A3.2,3.2,0,0,1,40.41,78.84Z"/><path class="cls-1" d="M46.46,78.82A1.92,1.92,0,0,1,45,78.29a2.31,2.31,0,0,1-.52-1.66V72.89h-.76V72h.76V70h1.14V72h2.09v.94H45.63V76.1c0,.34,0,.6,0,.79a1.15,1.15,0,0,0,.14.51.58.58,0,0,0,.33.32,1.5,1.5,0,0,0,.62.11,2,2,0,0,0,.54-.08l.37-.14h.07v1a5,5,0,0,1-.65.14A3.34,3.34,0,0,1,46.46,78.82Z"/><path class="cls-1" d="M52.47,78.85a3.36,3.36,0,0,1-2.5-.91,3.56,3.56,0,0,1-.89-2.58,3.83,3.83,0,0,1,.86-2.62,2.89,2.89,0,0,1,2.26-1,3.15,3.15,0,0,1,1.11.18,2.17,2.17,0,0,1,.84.57,2.5,2.5,0,0,1,.56.95,4.13,4.13,0,0,1,.19,1.36v.62H50.23a2.55,2.55,0,0,0,.59,1.8,2.18,2.18,0,0,0,1.64.62,3,3,0,0,0,.73-.09,3.54,3.54,0,0,0,.65-.21l.52-.27a2.93,2.93,0,0,0,.35-.25h.06v1.24l-.49.2c-.2.07-.37.14-.53.18s-.42.11-.6.14A4.21,4.21,0,0,1,52.47,78.85Zm1.33-4.28a3.42,3.42,0,0,0-.11-.79,1.73,1.73,0,0,0-.28-.56,1.25,1.25,0,0,0-.51-.39,1.94,1.94,0,0,0-.77-.13,2,2,0,0,0-.77.13,1.84,1.84,0,0,0-.57.4,1.89,1.89,0,0,0-.39.59,2.59,2.59,0,0,0-.17.75Z"/><path class="cls-1" d="M60.61,73.17h-.06a1.17,1.17,0,0,0-.27,0h-.34a2.26,2.26,0,0,0-.91.2,3.15,3.15,0,0,0-.86.59v4.79H57V72h1.13v1a5.72,5.72,0,0,1,1.08-.77,1.94,1.94,0,0,1,.9-.23h.26l.2,0Z"/><path class="cls-1" d="M73,75.14a4.17,4.17,0,0,1-.8,2.68,2.51,2.51,0,0,1-2,1,3.44,3.44,0,0,1-.89-.11,3.9,3.9,0,0,1-.79-.36v2.83H67.33V72h1.13v.71A4.22,4.22,0,0,1,69.4,72a2.54,2.54,0,0,1,1.13-.26,2.08,2.08,0,0,1,1.8.92A4.12,4.12,0,0,1,73,75.14Zm-1.17.13a3.54,3.54,0,0,0-.37-1.79,1.27,1.27,0,0,0-1.19-.64,2,2,0,0,0-.93.22,3.79,3.79,0,0,0-.86.55v3.82a4.26,4.26,0,0,0,.77.29,2.64,2.64,0,0,0,.72.08,1.61,1.61,0,0,0,1.37-.64A3.07,3.07,0,0,0,71.81,75.27Z"/><path class="cls-1" d="M78.72,73.17h-.06a1.08,1.08,0,0,0-.27,0h-.34a2.3,2.3,0,0,0-.91.2,3.15,3.15,0,0,0-.86.59v4.79H75.15V72h1.13v1a5.44,5.44,0,0,1,1.09-.77,1.87,1.87,0,0,1,.89-.23h.26l.2,0Z"/><path class="cls-1" d="M86.08,75.32A3.82,3.82,0,0,1,85.25,78a3,3,0,0,1-4.39,0,3.89,3.89,0,0,1-.81-2.6,3.83,3.83,0,0,1,.83-2.62,2.79,2.79,0,0,1,2.19-.94,2.75,2.75,0,0,1,2.18.93A3.86,3.86,0,0,1,86.08,75.32Zm-1.18,0a3.21,3.21,0,0,0-.47-1.94,1.59,1.59,0,0,0-1.36-.64,1.61,1.61,0,0,0-1.37.64,4.12,4.12,0,0,0,0,3.86,1.76,1.76,0,0,0,2.73,0A3.25,3.25,0,0,0,84.9,75.32Z"/><path class="cls-1" d="M91.78,70.39h-.06a3.08,3.08,0,0,0-.44-.11,3.37,3.37,0,0,0-.5,0,1.41,1.41,0,0,0-1,.32,1.75,1.75,0,0,0-.3,1.17V72h1.87v.94H89.48v5.8H88.35v-5.8h-.77V72h.77v-.22a2.61,2.61,0,0,1,.59-1.86,2.16,2.16,0,0,1,1.67-.63c.21,0,.42,0,.62,0l.55.08Z"/><path class="cls-1" d="M94.39,70.82H93.1V69.65h1.29Zm-.08,7.87H93.18V72h1.13Z"/><path class="cls-1" d="M98.13,78.69H97V69.3h1.13Z"/><path class="cls-1" d="M102,70.82h-1.29V69.65H102ZM102,78.69h-1.13V72H102Z"/><path class="cls-1" d="M109.91,78.69h-1.13V74.85a7.52,7.52,0,0,0,0-.86,2,2,0,0,0-.17-.65.82.82,0,0,0-.39-.37,1.4,1.4,0,0,0-.67-.13,2,2,0,0,0-.87.23,4.37,4.37,0,0,0-.88.59v5h-1.14V72h1.14v.75a4.57,4.57,0,0,1,1-.7,2.37,2.37,0,0,1,1-.24,1.93,1.93,0,0,1,1.56.66,2.84,2.84,0,0,1,.56,1.89Z"/><path class="cls-1" d="M112.73,79.77l.34.13a4.5,4.5,0,0,0,.51.15,5.18,5.18,0,0,0,.58.13,3.48,3.48,0,0,0,.58,0,2.6,2.6,0,0,0,.89-.14,1.32,1.32,0,0,0,.57-.39,1.37,1.37,0,0,0,.27-.57,3.29,3.29,0,0,0,.08-.74V77.8a4,4,0,0,1-.9.59,2.91,2.91,0,0,1-1.11.19,2.24,2.24,0,0,1-1.83-.86,3.9,3.9,0,0,1-.68-2.46,4.53,4.53,0,0,1,.23-1.49,3.39,3.39,0,0,1,.64-1.1,2.67,2.67,0,0,1,2-.91,2.77,2.77,0,0,1,.91.13,4,4,0,0,1,.77.35l.06-.29h1.07v6a3.6,3.6,0,0,1-.75,2.52,2.94,2.94,0,0,1-2.28.8,5.81,5.81,0,0,1-1-.08,6.61,6.61,0,0,1-1-.21V79.77Zm3.82-2.91v-3.7a4.46,4.46,0,0,0-.78-.29,3,3,0,0,0-.72-.09,1.62,1.62,0,0,0-1.36.64,2.87,2.87,0,0,0-.49,1.81,3.19,3.19,0,0,0,.38,1.71,1.34,1.34,0,0,0,1.22.58,2.56,2.56,0,0,0,.91-.17A2.94,2.94,0,0,0,116.55,76.86Z"/><path class="cls-1" d="M127,78.85a4.33,4.33,0,0,1-1.27-.18,6,6,0,0,1-1-.38V77h.06c.09.08.21.16.34.26a4.43,4.43,0,0,0,.52.29,6.72,6.72,0,0,0,.64.23,2.46,2.46,0,0,0,.72.1,3.09,3.09,0,0,0,.58-.06,1.62,1.62,0,0,0,.46-.16.86.86,0,0,0,.3-.3,1,1,0,0,0,.09-.47.79.79,0,0,0-.22-.61,1.79,1.79,0,0,0-.78-.34l-.56-.13c-.24,0-.45-.1-.65-.15a2,2,0,0,1-1.12-.69,1.82,1.82,0,0,1-.35-1.14,1.86,1.86,0,0,1,.68-1.48,2.78,2.78,0,0,1,1.83-.57,4.37,4.37,0,0,1,1.13.14,4,4,0,0,1,1,.35v1.21h-.07a3.35,3.35,0,0,0-1-.54,3,3,0,0,0-1.08-.2,1.78,1.78,0,0,0-1,.23.78.78,0,0,0-.38.71.76.76,0,0,0,.23.63,1.71,1.71,0,0,0,.73.35l.57.12.65.15a2.2,2.2,0,0,1,1.13.62,1.77,1.77,0,0,1,.37,1.19,1.91,1.91,0,0,1-.17.82,1.82,1.82,0,0,1-.5.67,2.75,2.75,0,0,1-.82.46A3.71,3.71,0,0,1,127,78.85Z"/><path class="cls-1" d="M134.59,78.85a3.38,3.38,0,0,1-2.5-.91,3.56,3.56,0,0,1-.89-2.58,3.78,3.78,0,0,1,.87-2.62,2.85,2.85,0,0,1,2.25-1,3.15,3.15,0,0,1,1.11.18,2.2,2.2,0,0,1,.85.57,2.61,2.61,0,0,1,.55.95,4.11,4.11,0,0,1,.2,1.36v.62h-4.67a2.51,2.51,0,0,0,.59,1.8,2.15,2.15,0,0,0,1.63.62,3.06,3.06,0,0,0,.74-.09,3.69,3.69,0,0,0,.64-.21l.52-.27a2.93,2.93,0,0,0,.35-.25h.07v1.24l-.5.2a5.56,5.56,0,0,1-.53.18c-.22.06-.42.11-.6.14A4.12,4.12,0,0,1,134.59,78.85Zm1.33-4.28a3,3,0,0,0-.11-.79,1.54,1.54,0,0,0-.27-.56,1.39,1.39,0,0,0-.51-.39,2,2,0,0,0-.77-.13,1.94,1.94,0,0,0-.77.13,1.85,1.85,0,0,0-1,1,2.6,2.6,0,0,0-.16.75Z"/><path class="cls-1" d="M142.73,73.17h-.06a1.08,1.08,0,0,0-.27,0h-.34a2.3,2.3,0,0,0-.91.2,3.15,3.15,0,0,0-.86.59v4.79h-1.13V72h1.13v1a5.44,5.44,0,0,1,1.09-.77,1.9,1.9,0,0,1,.89-.23h.27l.19,0Z"/><path class="cls-1" d="M149.9,72l-2.54,6.74h-1L143.82,72H145l1.85,5.2,1.83-5.2Z"/><path class="cls-1" d="M153,70.82h-1.29V69.65H153Zm-.08,7.87h-1.13V72h1.13Z"/><path class="cls-1" d="M158.24,78.84a3.74,3.74,0,0,1-1.28-.21,2.75,2.75,0,0,1-1-.65,3.06,3.06,0,0,1-.65-1.1,4.82,4.82,0,0,1-.23-1.55,4.39,4.39,0,0,1,.24-1.53,3.24,3.24,0,0,1,.64-1.09,2.61,2.61,0,0,1,1-.68,3.39,3.39,0,0,1,1.28-.24,3.85,3.85,0,0,1,1.07.16,6.09,6.09,0,0,1,.92.36v1.28h-.07a3.43,3.43,0,0,0-.31-.24,3.74,3.74,0,0,0-.46-.27,3,3,0,0,0-.56-.21,2.2,2.2,0,0,0-.61-.09,1.74,1.74,0,0,0-1.42.66,3,3,0,0,0-.53,1.89,2.92,2.92,0,0,0,.52,1.86,1.69,1.69,0,0,0,1.43.67,2.59,2.59,0,0,0,1.06-.23,3.31,3.31,0,0,0,.88-.59h.07v1.27l-.42.19-.46.17-.52.13A3.2,3.2,0,0,1,158.24,78.84Z"/><path class="cls-1" d="M165.18,78.85a3.39,3.39,0,0,1-2.51-.91,3.56,3.56,0,0,1-.88-2.58,3.78,3.78,0,0,1,.86-2.62,2.87,2.87,0,0,1,2.25-1,3.15,3.15,0,0,1,1.11.18,2.13,2.13,0,0,1,.85.57,2.63,2.63,0,0,1,.56.95,4.41,4.41,0,0,1,.19,1.36v.62h-4.67a2.51,2.51,0,0,0,.59,1.8,2.15,2.15,0,0,0,1.63.62,3.06,3.06,0,0,0,.74-.09,3.81,3.81,0,0,0,.65-.21l.51-.27a3.14,3.14,0,0,0,.36-.25h.06v1.24l-.49.2c-.2.07-.38.14-.53.18s-.43.11-.61.14A4,4,0,0,1,165.18,78.85Zm1.32-4.28a2.6,2.6,0,0,0-.11-.79,1.54,1.54,0,0,0-.27-.56,1.39,1.39,0,0,0-.51-.39,2.35,2.35,0,0,0-1.54,0,2,2,0,0,0-.58.4,1.7,1.7,0,0,0-.38.59,2.3,2.3,0,0,0-.17.75Z"/><path class="cls-1" d="M171.56,78.85a4.26,4.26,0,0,1-1.26-.18,6,6,0,0,1-1-.38V77h.06c.09.08.21.16.34.26a4.43,4.43,0,0,0,.52.29,5.85,5.85,0,0,0,.64.23,2.46,2.46,0,0,0,.72.1,3.09,3.09,0,0,0,.58-.06,1.44,1.44,0,0,0,.45-.16.81.81,0,0,0,.31-.3,1,1,0,0,0,.09-.47.79.79,0,0,0-.22-.61A1.79,1.79,0,0,0,172,76l-.57-.13c-.23,0-.44-.1-.64-.15a2,2,0,0,1-1.12-.69,1.82,1.82,0,0,1-.35-1.14,1.86,1.86,0,0,1,.68-1.48,2.78,2.78,0,0,1,1.83-.57,4.37,4.37,0,0,1,1.13.14,3.71,3.71,0,0,1,.95.35v1.21h-.06a3.49,3.49,0,0,0-1-.54,3,3,0,0,0-1.08-.2,1.76,1.76,0,0,0-.95.23.79.79,0,0,0-.39.71.79.79,0,0,0,.23.63,1.82,1.82,0,0,0,.74.35l.56.12.66.15a2.13,2.13,0,0,1,1.12.62,1.72,1.72,0,0,1,.38,1.19,2.08,2.08,0,0,1-.17.82,1.82,1.82,0,0,1-.5.67,2.88,2.88,0,0,1-.82.46A3.77,3.77,0,0,1,171.56,78.85Z"/></g></g></svg>