<svg xmlns="http://www.w3.org/2000/svg" viewBox="0 0 160 43.08"><defs><style>.cls-1{fill:#fff;}</style></defs><title>the-psycho-company-white</title><g id="Layer_2" data-name="Layer 2"><g id="Layer_1-2" data-name="Layer 1"><path class="cls-1" d="M15.56,4.53H10.31V18.45h-5V4.53H0V.15H15.56Z"/><path class="cls-1" d="M33.57.15v18.3h-5V11.29H22.42v7.16h-5V.15h5V6.91h6.13V.15Z"/><path class="cls-1" d="M49.75,14.07v4.38h-13V.15h12.8V4.53H41.74V7.11h6.65v4.07H41.74v2.89Z"/><path class="cls-1" d="M57.9,18.45V.15h7.88a5.53,5.53,0,0,1,2.47.56,6.42,6.42,0,0,1,2,1.44,6.68,6.68,0,0,1,1.27,2,6.06,6.06,0,0,1,.47,2.3,6.58,6.58,0,0,1-.44,2.36,6.67,6.67,0,0,1-1.22,2,5.86,5.86,0,0,1-1.91,1.41,5.6,5.6,0,0,1-2.46.53h-3v5.62Zm5-10h2.65A1.2,1.2,0,0,0,66.44,8a2.32,2.32,0,0,0,.4-1.54A2,2,0,0,0,66.37,5a1.4,1.4,0,0,0-.93-.42H62.92Z"/><path class="cls-1" d="M85,6.13a14.2,14.2,0,0,0-1.6-.82,13.19,13.19,0,0,0-1.56-.58,5.67,5.67,0,0,0-1.69-.27,2.49,2.49,0,0,0-1.07.2.74.74,0,0,0-.4.7A.78.78,0,0,0,79,6a2,2,0,0,0,.67.43,8,8,0,0,0,1.06.37c.43.12.9.27,1.43.44A18.74,18.74,0,0,1,84.4,8a7.2,7.2,0,0,1,1.73,1.09,4.25,4.25,0,0,1,1.11,1.54,5.5,5.5,0,0,1,.39,2.19A5.7,5.7,0,0,1,87,15.63a5,5,0,0,1-1.59,1.79,6.78,6.78,0,0,1-2.25,1,10.7,10.7,0,0,1-2.51.3,14.59,14.59,0,0,1-2.06-.15,19.61,19.61,0,0,1-2.1-.44,18.94,18.94,0,0,1-2-.67,13,13,0,0,1-1.79-.88l2.16-4.4a16.21,16.21,0,0,0,1.89,1,13.69,13.69,0,0,0,1.86.7,7.73,7.73,0,0,0,2.13.31,2.25,2.25,0,0,0,1.15-.22.69.69,0,0,0,.32-.58.84.84,0,0,0-.32-.66,3.2,3.2,0,0,0-.89-.48c-.38-.13-.81-.27-1.3-.41s-1-.3-1.56-.49a12.61,12.61,0,0,1-2.09-.89,5.71,5.71,0,0,1-1.44-1.08A3.77,3.77,0,0,1,73.78,8a5.37,5.37,0,0,1-.27-1.78,6.17,6.17,0,0,1,.55-2.68,5.53,5.53,0,0,1,1.51-1.93A6.93,6.93,0,0,1,77.75.4,8.17,8.17,0,0,1,80.34,0a9.8,9.8,0,0,1,2,.19,18.41,18.41,0,0,1,1.84.49c.59.2,1.14.42,1.66.65L87.19,2Z"/><path class="cls-1" d="M93,.15l3.27,7.91L99.66.15h5.46L98.81,12.39v6.06h-5V12.34L87.6.15Z"/><path class="cls-1" d="M104.3,9.15a9.12,9.12,0,0,1,2.47-6.21A9.2,9.2,0,0,1,113.65.05a9.24,9.24,0,0,1,4.6,1.1,7.1,7.1,0,0,1,2.9,2.9l-3.84,2.73a3.21,3.21,0,0,0-.68-1.11,3.65,3.65,0,0,0-.94-.7,4.22,4.22,0,0,0-1.07-.36,5.76,5.76,0,0,0-1.07-.1,3.91,3.91,0,0,0-1.87.42A4.09,4.09,0,0,0,110.39,6a4.83,4.83,0,0,0-.74,1.55,6,6,0,0,0-.25,1.71,5.84,5.84,0,0,0,.28,1.83,4.81,4.81,0,0,0,.83,1.55,4.11,4.11,0,0,0,1.33,1.07,3.9,3.9,0,0,0,1.76.4,4.92,4.92,0,0,0,1.06-.12,4,4,0,0,0,1-.39,3.37,3.37,0,0,0,.9-.69,3,3,0,0,0,.63-1l4.1,2.45a5.22,5.22,0,0,1-1.25,1.81,8.18,8.18,0,0,1-1.91,1.34,10,10,0,0,1-2.29.82,10.5,10.5,0,0,1-2.38.28,8.53,8.53,0,0,1-3.73-.81,9.58,9.58,0,0,1-2.91-2.15,10,10,0,0,1-1.89-3A9.25,9.25,0,0,1,104.3,9.15Z"/><path class="cls-1" d="M139.29.15v18.3h-5V11.29h-6.13v7.16h-5V.15h5V6.91h6.13V.15Z"/><path class="cls-1" d="M150.68,18.6a8.7,8.7,0,0,1-3.79-.8A9.36,9.36,0,0,1,144,15.7a9.2,9.2,0,0,1-1.88-3,9.17,9.17,0,0,1-.67-3.45,9,9,0,0,1,.69-3.48,9.36,9.36,0,0,1,1.95-2.95,9.53,9.53,0,0,1,3-2,9.24,9.24,0,0,1,3.75-.76,8.87,8.87,0,0,1,3.79.8A9.39,9.39,0,0,1,157.48,3a9.6,9.6,0,0,1,1.87,3A9.28,9.28,0,0,1,160,9.38a8.9,8.9,0,0,1-.69,3.46,9.38,9.38,0,0,1-1.93,2.94,9.69,9.69,0,0,1-2.95,2A9,9,0,0,1,150.68,18.6Zm-4.15-9.27a6.3,6.3,0,0,0,.26,1.79,4.79,4.79,0,0,0,.77,1.53,3.8,3.8,0,0,0,1.3,1.08,3.94,3.94,0,0,0,1.87.42,4,4,0,0,0,1.88-.43,3.7,3.7,0,0,0,1.3-1.11,4.52,4.52,0,0,0,.75-1.56,6.63,6.63,0,0,0,.24-1.77,6.24,6.24,0,0,0-.25-1.79A4.63,4.63,0,0,0,153.86,6a4.25,4.25,0,0,0-5-1A3.89,3.89,0,0,0,147.53,6a4.82,4.82,0,0,0-.76,1.54A6.63,6.63,0,0,0,146.53,9.33Z"/><path class="cls-1" d="M17.34,33.62a9.17,9.17,0,0,1,2.47-6.21,9.53,9.53,0,0,1,2.94-2.08,9.34,9.34,0,0,1,3.94-.8,9.21,9.21,0,0,1,4.6,1.09,7.1,7.1,0,0,1,2.9,2.9l-3.84,2.73a3.26,3.26,0,0,0-.68-1.1,3.29,3.29,0,0,0-.94-.7,4.22,4.22,0,0,0-1.07-.36,5.76,5.76,0,0,0-1.07-.1,3.73,3.73,0,0,0-3.16,1.53,4.83,4.83,0,0,0-.74,1.55,5.94,5.94,0,0,0,0,3.54,4.56,4.56,0,0,0,.82,1.54,3.86,3.86,0,0,0,1.33,1.07,3.77,3.77,0,0,0,1.76.4,5.61,5.61,0,0,0,1.06-.11,4,4,0,0,0,1-.39,3.37,3.37,0,0,0,.9-.69,3.06,3.06,0,0,0,.63-1l4.1,2.45a5.09,5.09,0,0,1-1.25,1.8A7.63,7.63,0,0,1,31.21,42a10.06,10.06,0,0,1-2.29.83,10.43,10.43,0,0,1-2.38.28,8.45,8.45,0,0,1-3.72-.81,9.5,9.5,0,0,1-2.92-2.15,10.08,10.08,0,0,1-1.89-3A9.33,9.33,0,0,1,17.34,33.62Z"/><path class="cls-1" d="M44.11,43.08a8.87,8.87,0,0,1-3.79-.8,9.36,9.36,0,0,1-2.91-2.1,9.6,9.6,0,0,1-1.88-3,9.18,9.18,0,0,1-.67-3.46,8.9,8.9,0,0,1,.7-3.48,9.21,9.21,0,0,1,4.91-5,9.06,9.06,0,0,1,3.74-.76,8.81,8.81,0,0,1,3.79.8,9,9,0,0,1,2.91,2.11,9.48,9.48,0,0,1,1.87,3,9.29,9.29,0,0,1,.66,3.43,8.77,8.77,0,0,1-.7,3.46,9.38,9.38,0,0,1-1.93,2.94,9.57,9.57,0,0,1-3,2.05A9.08,9.08,0,0,1,44.11,43.08ZM40,33.8a6.37,6.37,0,0,0,.26,1.8A4.79,4.79,0,0,0,41,37.13a3.81,3.81,0,0,0,3.17,1.49A4,4,0,0,0,46,38.2a3.71,3.71,0,0,0,1.3-1.11,4.52,4.52,0,0,0,.75-1.56,6.71,6.71,0,0,0,.25-1.78A6.35,6.35,0,0,0,48.08,32a4.49,4.49,0,0,0-.79-1.52A3.85,3.85,0,0,0,46,29.39a4,4,0,0,0-1.84-.4,3.91,3.91,0,0,0-1.87.41A3.74,3.74,0,0,0,41,30.49,4.49,4.49,0,0,0,40.21,32,6.19,6.19,0,0,0,40,33.8Z"/><path class="cls-1" d="M69.41,42.93V33.29l-3.06,6.78H63.67L60.6,33.29v9.64h-5V24.63h5.48l4,8.61,4-8.61h5.46v18.3Z"/><path class="cls-1" d="M77.58,42.93V24.63h7.88a5.57,5.57,0,0,1,2.48.56,6.5,6.5,0,0,1,1.94,1.44,6.78,6.78,0,0,1,1.28,2A6.14,6.14,0,0,1,91.62,31a6.41,6.41,0,0,1-.44,2.36,6.62,6.62,0,0,1-1.22,2,5.78,5.78,0,0,1-4.37,2h-3v5.62Zm5-10h2.66a1.14,1.14,0,0,0,.86-.43,2.21,2.21,0,0,0,.4-1.53,2,2,0,0,0-.46-1.55,1.43,1.43,0,0,0-.93-.41H82.6Z"/><path class="cls-1" d="M97,24.63h4.59L108,42.93h-5.1l-1.11-3.59H96.88L95.8,42.93H90.67ZM101,36l-1.62-5.67L97.63,36Z"/><path class="cls-1" d="M114.5,33.93v9h-5V24.63h3.91l7.35,9.3v-9.3h5v18.3h-4Z"/><path class="cls-1" d="M132.62,24.63l3.27,7.91,3.35-7.91h5.46l-6.31,12.24v6.06h-5V36.82l-6.21-12.19Z"/></g></g></svg>